<svg xmlns="http://www.w3.org/2000/svg" xmlns:xlink="http://www.w3.org/1999/xlink" width="595.32" height="841.92" viewBox="0 0 595.32 841.92">
<defs>
<g>
</g>
</defs>
<g stroke="rgb(50%, 50%, 50%)" transform="matrix(0.185601, 0, 0, -0.185563, 70.769164, 753.992596)">
<path d="M 216 195 L 216 1942 "/>
<path d="M 238 195 L 238 1942 "/>
<path d="M 259 195 L 259 1942 "/>
<path d="M 281 195 L 281 1942 "/>
<path d="M 303 195 L 303 1942 "/>
<path d="M 325 195 L 325 1942 "/>
<path d="M 347 195 L 347 1942 "/>
<path d="M 369 195 L 369 1942 "/>
<path d="M 389.993566 195 L 389.993566 1942 "/>
<path d="M 434 195 L 434 1942 "/>
<path d="M 455.99538 195 L 455.99538 1942 "/>
<path d="M 478 195 L 478 1942 "/>
<path d="M 499 195 L 499 1942 "/>
<path d="M 521 195 L 521 1942 "/>
<path d="M 543 195 L 543 1942 "/>
<path d="M 565 195 L 565 1942 "/>
<path d="M 587 195 L 587 1942 "/>
<path d="M 609 195 L 609 1942 "/>
<path d="M 652 195 L 652 1942 "/>
<path d="M 674 195 L 674 1942 "/>
<path d="M 696 195 L 696 1942 "/>
<path d="M 718 195 L 718 1942 "/>
<path d="M 739 195 L 739 1942 "/>
<path d="M 761 195 L 761 1942 "/>
<path d="M 783 195 L 783 1942 "/>
<path d="M 805 195 L 805 1942 "/>
<path d="M 827 195 L 827 1942 "/>
<path d="M 870 195 L 870 1942 "/>
<path d="M 892 195 L 892 1942 "/>
<path d="M 914 195 L 914 1942 "/>
<path d="M 936 195 L 936 1942 "/>
<path d="M 958 195 L 958 1942 "/>
<path d="M 979 195 L 979 1942 "/>
<path d="M 1000.99442 195 L 1000.99442 1942 "/>
<path d="M 1023 195 L 1023 1942 "/>
<path d="M 1045 195 L 1045 1942 "/>
<path d="M 1088.989824 195 L 1088.989824 1942 "/>
<path d="M 1109.994228 195 L 1109.994228 1942 "/>
<path d="M 1132 195 L 1132 1942 "/>
<path d="M 1154 195 L 1154 1942 "/>
<path d="M 1176 195 L 1176 1942 "/>
<path d="M 1197.989631 195 L 1197.989631 1942 "/>
<path d="M 1219 195 L 1219 1942 "/>
<path d="M 1241 195 L 1241 1942 "/>
<path d="M 1263 195 L 1263 1942 "/>
<path d="M 1307 195 L 1307 1942 "/>
<path d="M 1329 195 L 1329 1942 "/>
<path d="M 1350 195 L 1350 1942 "/>
<path d="M 1372 195 L 1372 1942 "/>
<path d="M 1394 195 L 1394 1942 "/>
<path d="M 1416 195 L 1416 1942 "/>
<path d="M 1438 195 L 1438 1942 "/>
<path d="M 1459 195 L 1459 1942 "/>
<path d="M 1481 195 L 1481 1942 "/>
<path d="M 1525 195 L 1525 1942 "/>
<path d="M 1547 195 L 1547 1942 "/>
<path d="M 1568.99728 195 L 1568.99728 1942 "/>
<path d="M 1590 195 L 1590 1942 "/>
<path d="M 1612 195 L 1612 1942 "/>
<path d="M 1634 195 L 1634 1942 "/>
<path d="M 1656 195 L 1656 1942 "/>
<path d="M 1678 195 L 1678 1942 "/>
<path d="M 1699 195 L 1699 1942 "/>
<path d="M 1743 195 L 1743 1942 "/>
<path d="M 1765 195 L 1765 1942 "/>
<path d="M 1787 195 L 1787 1942 "/>
<path d="M 1809 195 L 1809 1942 "/>
<path d="M 1829.994889 195 L 1829.994889 1942 "/>
<path d="M 1852 195 L 1852 1942 "/>
<path d="M 1874 195 L 1874 1942 "/>
<path d="M 1896 195 L 1896 1942 "/>
<path d="M 1918 195 L 1918 1942 "/>
<path d="M 1961 195 L 1961 1942 "/>
<path d="M 1983 195 L 1983 1942 "/>
<path d="M 2005 195 L 2005 1942 "/>
<path d="M 2027 195 L 2027 1942 "/>
<path d="M 2049 195 L 2049 1942 "/>
<path d="M 2070 195 L 2070 1942 "/>
<path d="M 2092 195 L 2092 1942 "/>
<path d="M 2113.99632 195 L 2113.99632 1942 "/>
<path d="M 2135.989909 195 L 2135.989909 1942 "/>
<path d="M 2179 195 L 2179 1942 "/>
<path d="M 2201 195 L 2201 1942 "/>
<path d="M 2223 195 L 2223 1942 "/>
<path d="M 2244.989717 195 L 2244.989717 1942 "/>
<path d="M 2267 195 L 2267 1942 "/>
<path d="M 2289 195 L 2289 1942 "/>
<path d="M 2310 195 L 2310 1942 "/>
<path d="M 2332 195 L 2332 1942 "/>
<path d="M 2353.989525 195 L 2353.989525 1942 "/>
<path d="M 194 211.98422 L 2378 211.98422 "/>
<path d="M 194 229.982694 L 2378 229.982694 "/>
<path d="M 194 247 L 2378 247 "/>
<path d="M 194 265 L 2378 265 "/>
<path d="M 194 282 L 2378 282 "/>
<path d="M 194 299.997808 L 2378 299.997808 "/>
<path d="M 194 316.98584 L 2378 316.98584 "/>
<path d="M 194 334.984314 L 2378 334.984314 "/>
<path d="M 194 352 L 2378 352 "/>
<path d="M 194 386.979903 L 2378 386.979903 "/>
<path d="M 194 403.988987 L 2378 403.988987 "/>
<path d="M 194 421.98746 L 2378 421.98746 "/>
<path d="M 194 439 L 2378 439 "/>
<path d="M 194 457 L 2378 457 "/>
<path d="M 194 473.98305 L 2378 473.98305 "/>
<path d="M 194 491.981523 L 2378 491.981523 "/>
<path d="M 194 509 L 2378 509 "/>
<path d="M 194 526.98908 L 2378 526.98908 "/>
<path d="M 194 562 L 2378 562 "/>
<path d="M 194 578.98467 L 2378 578.98467 "/>
<path d="M 194 596 L 2378 596 "/>
<path d="M 194 614 L 2378 614 "/>
<path d="M 194 630.98026 L 2378 630.98026 "/>
<path d="M 194 649 L 2378 649 "/>
<path d="M 194 665.987817 L 2378 665.987817 "/>
<path d="M 194 683.98629 L 2378 683.98629 "/>
<path d="M 194 701 L 2378 701 "/>
<path d="M 194 735.98188 L 2378 735.98188 "/>
<path d="M 194 753 L 2378 753 "/>
<path d="M 194 770.989437 L 2378 770.989437 "/>
<path d="M 194 787.99852 L 2378 787.99852 "/>
<path d="M 194 806 L 2378 806 "/>
<path d="M 194 822.985026 L 2378 822.985026 "/>
<path d="M 194 840.9835 L 2378 840.9835 "/>
<path d="M 194 858 L 2378 858 "/>
<path d="M 194 876 L 2378 876 "/>
<path d="M 194 911 L 2378 911 "/>
<path d="M 194 927.986646 L 2378 927.986646 "/>
<path d="M 194 944.99573 L 2378 944.99573 "/>
<path d="M 194 963 L 2378 963 "/>
<path d="M 194 979.982236 L 2378 979.982236 "/>
<path d="M 194 997.980709 L 2378 997.980709 "/>
<path d="M 194 1014.989793 L 2378 1014.989793 "/>
<path d="M 194 1032.988266 L 2378 1032.988266 "/>
<path d="M 194 1049.99735 L 2378 1049.99735 "/>
<path d="M 194 1084.983856 L 2378 1084.983856 "/>
<path d="M 194 1102.982329 L 2378 1102.982329 "/>
<path d="M 194 1119.991413 L 2378 1119.991413 "/>
<path d="M 194 1137 L 2378 1137 "/>
<path d="M 194 1154.99897 L 2378 1154.99897 "/>
<path d="M 194 1171.987003 L 2378 1171.987003 "/>
<path d="M 194 1189.985476 L 2378 1189.985476 "/>
<path d="M 194 1206.99456 L 2378 1206.99456 "/>
<path d="M 194 1225 L 2378 1225 "/>
<path d="M 194 1259.979539 L 2378 1259.979539 "/>
<path d="M 194 1276.988623 L 2378 1276.988623 "/>
<path d="M 194 1294.987096 L 2378 1294.987096 "/>
<path d="M 194 1311.99618 L 2378 1311.99618 "/>
<path d="M 194 1328.984212 L 2378 1328.984212 "/>
<path d="M 194 1346.982686 L 2378 1346.982686 "/>
<path d="M 194 1364 L 2378 1364 "/>
<path d="M 194 1382 L 2378 1382 "/>
<path d="M 194 1399 L 2378 1399 "/>
<path d="M 194 1433.985832 L 2378 1433.985832 "/>
<path d="M 194 1451.984306 L 2378 1451.984306 "/>
<path d="M 194 1469 L 2378 1469 "/>
<path d="M 194 1485.981422 L 2378 1485.981422 "/>
<path d="M 194 1503.979895 L 2378 1503.979895 "/>
<path d="M 194 1520.988979 L 2378 1520.988979 "/>
<path d="M 194 1538.987452 L 2378 1538.987452 "/>
<path d="M 194 1556 L 2378 1556 "/>
<path d="M 194 1574 L 2378 1574 "/>
<path d="M 194 1608.981515 L 2378 1608.981515 "/>
<path d="M 194 1626 L 2378 1626 "/>
<path d="M 194 1643.989072 L 2378 1643.989072 "/>
<path d="M 194 1661 L 2378 1661 "/>
<path d="M 194 1677.986189 L 2378 1677.986189 "/>
<path d="M 194 1695.984662 L 2378 1695.984662 "/>
<path d="M 194 1713 L 2378 1713 "/>
<path d="M 194 1731 L 2378 1731 "/>
<path d="M 194 1747.980252 L 2378 1747.980252 "/>
<path d="M 194 1782.987809 L 2378 1782.987809 "/>
<path d="M 194 1800.986282 L 2378 1800.986282 "/>
<path d="M 194 1818 L 2378 1818 "/>
<path d="M 194 1836 L 2378 1836 "/>
<path d="M 194 1852.981872 L 2378 1852.981872 "/>
<path d="M 194 1869.990955 L 2378 1869.990955 "/>
<path d="M 194 1887.989429 L 2378 1887.989429 "/>
<path d="M 194 1905 L 2378 1905 "/>
<path d="M 194 1923 L 2378 1923 "/>
</g>
<path fill-rule="nonzero" d="M 146.957031 717.808594 L 146.957031 393.632812 C 146.957031 393.480469 147.082031 393.351562 147.238281 393.351562 C 147.390625 393.351562 147.515625 393.480469 147.515625 393.632812 L 147.515625 717.808594 C 147.515625 717.964844 147.390625 718.089844 147.238281 718.089844 C 147.082031 718.089844 146.957031 717.964844 146.957031 717.808594 Z M 146.957031 717.808594 "/>
<path fill-rule="nonzero" d="M 187.417969 717.808594 L 187.417969 393.632812 C 187.417969 393.480469 187.542969 393.351562 187.699219 393.351562 C 187.851562 393.351562 187.976562 393.480469 187.976562 393.632812 L 187.976562 717.808594 C 187.976562 717.964844 187.851562 718.089844 187.699219 718.089844 C 187.542969 718.089844 187.417969 717.964844 187.417969 717.808594 Z M 187.417969 717.808594 "/>
<path fill-rule="nonzero" d="M 228.066406 717.808594 L 228.066406 393.632812 C 228.066406 393.480469 228.191406 393.351562 228.34375 393.351562 C 228.5 393.351562 228.621094 393.480469 228.621094 393.632812 L 228.621094 717.808594 C 228.621094 717.964844 228.5 718.089844 228.34375 718.089844 C 228.191406 718.089844 228.066406 717.964844 228.066406 717.808594 Z M 228.066406 717.808594 "/>
<path fill-rule="nonzero" d="M 268.527344 717.808594 L 268.527344 393.632812 C 268.527344 393.480469 268.652344 393.351562 268.804688 393.351562 C 268.960938 393.351562 269.082031 393.480469 269.082031 393.632812 L 269.082031 717.808594 C 269.082031 717.964844 268.960938 718.089844 268.804688 718.089844 C 268.652344 718.089844 268.527344 717.964844 268.527344 717.808594 Z M 268.527344 717.808594 "/>
<path fill-rule="nonzero" d="M 308.988281 717.808594 L 308.988281 393.632812 C 308.988281 393.480469 309.113281 393.351562 309.265625 393.351562 C 309.421875 393.351562 309.542969 393.480469 309.542969 393.632812 L 309.542969 717.808594 C 309.542969 717.964844 309.421875 718.089844 309.265625 718.089844 C 309.113281 718.089844 308.988281 717.964844 308.988281 717.808594 Z M 308.988281 717.808594 "/>
<path fill-rule="nonzero" d="M 349.449219 717.808594 L 349.449219 393.632812 C 349.449219 393.480469 349.574219 393.351562 349.726562 393.351562 C 349.882812 393.351562 350.003906 393.480469 350.003906 393.632812 L 350.003906 717.808594 C 350.003906 717.964844 349.882812 718.089844 349.726562 718.089844 C 349.574219 718.089844 349.449219 717.964844 349.449219 717.808594 Z M 349.449219 717.808594 "/>
<path fill-rule="nonzero" d="M 389.910156 717.808594 L 389.910156 393.632812 C 389.910156 393.480469 390.035156 393.351562 390.1875 393.351562 C 390.34375 393.351562 390.46875 393.480469 390.46875 393.632812 L 390.46875 717.808594 C 390.46875 717.964844 390.34375 718.089844 390.1875 718.089844 C 390.035156 718.089844 389.910156 717.964844 389.910156 717.808594 Z M 389.910156 717.808594 "/>
<path fill-rule="nonzero" d="M 430.371094 717.808594 L 430.371094 393.632812 C 430.371094 393.480469 430.496094 393.351562 430.648438 393.351562 C 430.804688 393.351562 430.929688 393.480469 430.929688 393.632812 L 430.929688 717.808594 C 430.929688 717.964844 430.804688 718.089844 430.648438 718.089844 C 430.496094 718.089844 430.371094 717.964844 430.371094 717.808594 Z M 430.371094 717.808594 "/>
<path fill-rule="nonzero" d="M 471.019531 717.808594 L 471.019531 393.632812 C 471.019531 393.480469 471.140625 393.351562 471.296875 393.351562 C 471.449219 393.351562 471.574219 393.480469 471.574219 393.632812 L 471.574219 717.808594 C 471.574219 717.964844 471.449219 718.089844 471.296875 718.089844 C 471.140625 718.089844 471.019531 717.964844 471.019531 717.808594 Z M 471.019531 717.808594 "/>
<path fill-rule="nonzero" d="M 511.480469 717.808594 L 511.480469 393.632812 C 511.480469 393.480469 511.601562 393.351562 511.757812 393.351562 C 511.910156 393.351562 512.035156 393.480469 512.035156 393.632812 L 512.035156 717.808594 C 512.035156 717.964844 511.910156 718.089844 511.757812 718.089844 C 511.601562 718.089844 511.480469 717.964844 511.480469 717.808594 Z M 511.480469 717.808594 "/>
<path fill-rule="nonzero" d="M 106.777344 685.058594 L 512.128906 685.058594 C 512.28125 685.058594 512.40625 685.183594 512.40625 685.335938 C 512.40625 685.492188 512.28125 685.613281 512.128906 685.613281 L 106.777344 685.613281 C 106.621094 685.613281 106.496094 685.492188 106.496094 685.335938 C 106.496094 685.183594 106.621094 685.058594 106.777344 685.058594 Z M 106.777344 685.058594 "/>
<path fill-rule="nonzero" d="M 106.777344 652.769531 L 512.128906 652.769531 C 512.28125 652.769531 512.40625 652.894531 512.40625 653.046875 C 512.40625 653.203125 512.28125 653.328125 512.128906 653.328125 L 106.777344 653.328125 C 106.621094 653.328125 106.496094 653.203125 106.496094 653.046875 C 106.496094 652.894531 106.621094 652.769531 106.777344 652.769531 Z M 106.777344 652.769531 "/>
<path fill-rule="nonzero" d="M 106.777344 620.296875 L 512.128906 620.296875 C 512.28125 620.296875 512.40625 620.421875 512.40625 620.574219 C 512.40625 620.730469 512.28125 620.851562 512.128906 620.851562 L 106.777344 620.851562 C 106.621094 620.851562 106.496094 620.730469 106.496094 620.574219 C 106.496094 620.421875 106.621094 620.296875 106.777344 620.296875 Z M 106.777344 620.296875 "/>
<path fill-rule="nonzero" d="M 106.777344 588.007812 L 512.128906 588.007812 C 512.28125 588.007812 512.40625 588.132812 512.40625 588.285156 C 512.40625 588.441406 512.28125 588.566406 512.128906 588.566406 L 106.777344 588.566406 C 106.621094 588.566406 106.496094 588.441406 106.496094 588.285156 C 106.496094 588.132812 106.621094 588.007812 106.777344 588.007812 Z M 106.777344 588.007812 "/>
<path fill-rule="nonzero" d="M 106.777344 555.535156 L 512.128906 555.535156 C 512.28125 555.535156 512.40625 555.660156 512.40625 555.8125 C 512.40625 555.96875 512.28125 556.09375 512.128906 556.09375 L 106.777344 556.09375 C 106.621094 556.09375 106.496094 555.96875 106.496094 555.8125 C 106.496094 555.660156 106.621094 555.535156 106.777344 555.535156 Z M 106.777344 555.535156 "/>
<path fill-rule="nonzero" d="M 106.777344 523.246094 L 512.128906 523.246094 C 512.28125 523.246094 512.40625 523.375 512.40625 523.527344 C 512.40625 523.679688 512.28125 523.804688 512.128906 523.804688 L 106.777344 523.804688 C 106.621094 523.804688 106.496094 523.679688 106.496094 523.527344 C 106.496094 523.375 106.621094 523.246094 106.777344 523.246094 Z M 106.777344 523.246094 "/>
<path fill-rule="nonzero" d="M 106.777344 490.773438 L 512.128906 490.773438 C 512.28125 490.773438 512.40625 490.898438 512.40625 491.050781 C 512.40625 491.207031 512.28125 491.332031 512.128906 491.332031 L 106.777344 491.332031 C 106.621094 491.332031 106.496094 491.207031 106.496094 491.050781 C 106.496094 490.898438 106.621094 490.773438 106.777344 490.773438 Z M 106.777344 490.773438 "/>
<path fill-rule="nonzero" d="M 106.777344 458.484375 L 512.128906 458.484375 C 512.28125 458.484375 512.40625 458.613281 512.40625 458.765625 C 512.40625 458.917969 512.28125 459.042969 512.128906 459.042969 L 106.777344 459.042969 C 106.621094 459.042969 106.496094 458.917969 106.496094 458.765625 C 106.496094 458.613281 106.621094 458.484375 106.777344 458.484375 Z M 106.777344 458.484375 "/>
<path fill-rule="nonzero" d="M 106.777344 426.011719 L 512.128906 426.011719 C 512.28125 426.011719 512.40625 426.140625 512.40625 426.289062 C 512.40625 426.445312 512.28125 426.570312 512.128906 426.570312 L 106.777344 426.570312 C 106.621094 426.570312 106.496094 426.445312 106.496094 426.289062 C 106.496094 426.140625 106.621094 426.011719 106.777344 426.011719 Z M 106.777344 426.011719 "/>
<path fill-rule="nonzero" d="M 106.777344 393.726562 L 512.128906 393.726562 C 512.28125 393.726562 512.40625 393.851562 512.40625 394.003906 C 512.40625 394.15625 512.28125 394.28125 512.128906 394.28125 L 106.777344 394.28125 C 106.621094 394.28125 106.496094 394.15625 106.496094 394.003906 C 106.496094 393.851562 106.621094 393.726562 106.777344 393.726562 Z M 106.777344 393.726562 "/>
<path fill-rule="nonzero" d="M 106.125 724.117188 L 106.125 717.808594 C 106.125 717.453125 106.417969 717.160156 106.777344 717.160156 C 107.132812 717.160156 107.425781 717.453125 107.425781 717.808594 L 107.425781 724.117188 C 107.425781 724.480469 107.132812 724.769531 106.777344 724.769531 C 106.417969 724.769531 106.125 724.480469 106.125 724.117188 Z M 106.125 724.117188 "/>
<path fill-rule="nonzero" d="M 110.210938 720.964844 L 110.210938 717.808594 C 110.210938 717.453125 110.5 717.160156 110.859375 717.160156 C 111.21875 717.160156 111.507812 717.453125 111.507812 717.808594 L 111.507812 720.964844 C 111.507812 721.324219 111.21875 721.613281 110.859375 721.613281 C 110.5 721.613281 110.210938 721.324219 110.210938 720.964844 Z M 110.210938 720.964844 "/>
<path fill-rule="nonzero" d="M 114.292969 720.964844 L 114.292969 717.808594 C 114.292969 717.453125 114.582031 717.160156 114.941406 717.160156 C 115.300781 717.160156 115.589844 717.453125 115.589844 717.808594 L 115.589844 720.964844 C 115.589844 721.324219 115.300781 721.613281 114.941406 721.613281 C 114.582031 721.613281 114.292969 721.324219 114.292969 720.964844 Z M 114.292969 720.964844 "/>
<path fill-rule="nonzero" d="M 118.191406 720.964844 L 118.191406 717.808594 C 118.191406 717.453125 118.480469 717.160156 118.839844 717.160156 C 119.199219 717.160156 119.488281 717.453125 119.488281 717.808594 L 119.488281 720.964844 C 119.488281 721.324219 119.199219 721.613281 118.839844 721.613281 C 118.480469 721.613281 118.191406 721.324219 118.191406 720.964844 Z M 118.191406 720.964844 "/>
<path fill-rule="nonzero" d="M 122.273438 720.964844 L 122.273438 717.808594 C 122.273438 717.453125 122.566406 717.160156 122.921875 717.160156 C 123.28125 717.160156 123.574219 717.453125 123.574219 717.808594 L 123.574219 720.964844 C 123.574219 721.324219 123.28125 721.613281 122.921875 721.613281 C 122.566406 721.613281 122.273438 721.324219 122.273438 720.964844 Z M 122.273438 720.964844 "/>
<path fill-rule="nonzero" d="M 126.355469 720.964844 L 126.355469 717.808594 C 126.355469 717.453125 126.648438 717.160156 127.007812 717.160156 C 127.363281 717.160156 127.65625 717.453125 127.65625 717.808594 L 127.65625 720.964844 C 127.65625 721.324219 127.363281 721.613281 127.007812 721.613281 C 126.648438 721.613281 126.355469 721.324219 126.355469 720.964844 Z M 126.355469 720.964844 "/>
<path fill-rule="nonzero" d="M 130.441406 720.964844 L 130.441406 717.808594 C 130.441406 717.453125 130.730469 717.160156 131.089844 717.160156 C 131.449219 717.160156 131.738281 717.453125 131.738281 717.808594 L 131.738281 720.964844 C 131.738281 721.324219 131.449219 721.613281 131.089844 721.613281 C 130.730469 721.613281 130.441406 721.324219 130.441406 720.964844 Z M 130.441406 720.964844 "/>
<path fill-rule="nonzero" d="M 134.523438 720.964844 L 134.523438 717.808594 C 134.523438 717.453125 134.816406 717.160156 135.171875 717.160156 C 135.53125 717.160156 135.824219 717.453125 135.824219 717.808594 L 135.824219 720.964844 C 135.824219 721.324219 135.53125 721.613281 135.171875 721.613281 C 134.816406 721.613281 134.523438 721.324219 134.523438 720.964844 Z M 134.523438 720.964844 "/>
<path fill-rule="nonzero" d="M 138.605469 720.964844 L 138.605469 717.808594 C 138.605469 717.453125 138.898438 717.160156 139.257812 717.160156 C 139.613281 717.160156 139.90625 717.453125 139.90625 717.808594 L 139.90625 720.964844 C 139.90625 721.324219 139.613281 721.613281 139.257812 721.613281 C 138.898438 721.613281 138.605469 721.324219 138.605469 720.964844 Z M 138.605469 720.964844 "/>
<path fill-rule="nonzero" d="M 142.503906 720.964844 L 142.503906 717.808594 C 142.503906 717.453125 142.796875 717.160156 143.152344 717.160156 C 143.511719 717.160156 143.804688 717.453125 143.804688 717.808594 L 143.804688 720.964844 C 143.804688 721.324219 143.511719 721.613281 143.152344 721.613281 C 142.796875 721.613281 142.503906 721.324219 142.503906 720.964844 Z M 142.503906 720.964844 "/>
<path fill-rule="nonzero" d="M 146.585938 724.117188 L 146.585938 717.808594 C 146.585938 717.453125 146.878906 717.160156 147.238281 717.160156 C 147.59375 717.160156 147.886719 717.453125 147.886719 717.808594 L 147.886719 724.117188 C 147.886719 724.480469 147.59375 724.769531 147.238281 724.769531 C 146.878906 724.769531 146.585938 724.480469 146.585938 724.117188 Z M 146.585938 724.117188 "/>
<path fill-rule="nonzero" d="M 150.671875 720.964844 L 150.671875 717.808594 C 150.671875 717.453125 150.960938 717.160156 151.320312 717.160156 C 151.679688 717.160156 151.96875 717.453125 151.96875 717.808594 L 151.96875 720.964844 C 151.96875 721.324219 151.679688 721.613281 151.320312 721.613281 C 150.960938 721.613281 150.671875 721.324219 150.671875 720.964844 Z M 150.671875 720.964844 "/>
<path fill-rule="nonzero" d="M 154.753906 720.964844 L 154.753906 717.808594 C 154.753906 717.453125 155.046875 717.160156 155.402344 717.160156 C 155.761719 717.160156 156.054688 717.453125 156.054688 717.808594 L 156.054688 720.964844 C 156.054688 721.324219 155.761719 721.613281 155.402344 721.613281 C 155.046875 721.613281 154.753906 721.324219 154.753906 720.964844 Z M 154.753906 720.964844 "/>
<path fill-rule="nonzero" d="M 158.835938 720.964844 L 158.835938 717.808594 C 158.835938 717.453125 159.128906 717.160156 159.488281 717.160156 C 159.84375 717.160156 160.136719 717.453125 160.136719 717.808594 L 160.136719 720.964844 C 160.136719 721.324219 159.84375 721.613281 159.488281 721.613281 C 159.128906 721.613281 158.835938 721.324219 158.835938 720.964844 Z M 158.835938 720.964844 "/>
<path fill-rule="nonzero" d="M 162.734375 720.964844 L 162.734375 717.808594 C 162.734375 717.453125 163.027344 717.160156 163.382812 717.160156 C 163.742188 717.160156 164.035156 717.453125 164.035156 717.808594 L 164.035156 720.964844 C 164.035156 721.324219 163.742188 721.613281 163.382812 721.613281 C 163.027344 721.613281 162.734375 721.324219 162.734375 720.964844 Z M 162.734375 720.964844 "/>
<path fill-rule="nonzero" d="M 166.816406 720.964844 L 166.816406 717.808594 C 166.816406 717.453125 167.109375 717.160156 167.46875 717.160156 C 167.824219 717.160156 168.117188 717.453125 168.117188 717.808594 L 168.117188 720.964844 C 168.117188 721.324219 167.824219 721.613281 167.46875 721.613281 C 167.109375 721.613281 166.816406 721.324219 166.816406 720.964844 Z M 166.816406 720.964844 "/>
<path fill-rule="nonzero" d="M 170.902344 720.964844 L 170.902344 717.808594 C 170.902344 717.453125 171.191406 717.160156 171.550781 717.160156 C 171.910156 717.160156 172.199219 717.453125 172.199219 717.808594 L 172.199219 720.964844 C 172.199219 721.324219 171.910156 721.613281 171.550781 721.613281 C 171.191406 721.613281 170.902344 721.324219 170.902344 720.964844 Z M 170.902344 720.964844 "/>
<path fill-rule="nonzero" d="M 174.984375 720.964844 L 174.984375 717.808594 C 174.984375 717.453125 175.277344 717.160156 175.632812 717.160156 C 175.992188 717.160156 176.285156 717.453125 176.285156 717.808594 L 176.285156 720.964844 C 176.285156 721.324219 175.992188 721.613281 175.632812 721.613281 C 175.277344 721.613281 174.984375 721.324219 174.984375 720.964844 Z M 174.984375 720.964844 "/>
<path fill-rule="nonzero" d="M 179.066406 720.964844 L 179.066406 717.808594 C 179.066406 717.453125 179.359375 717.160156 179.71875 717.160156 C 180.074219 717.160156 180.367188 717.453125 180.367188 717.808594 L 180.367188 720.964844 C 180.367188 721.324219 180.074219 721.613281 179.71875 721.613281 C 179.359375 721.613281 179.066406 721.324219 179.066406 720.964844 Z M 179.066406 720.964844 "/>
<path fill-rule="nonzero" d="M 183.152344 720.964844 L 183.152344 717.808594 C 183.152344 717.453125 183.441406 717.160156 183.800781 717.160156 C 184.160156 717.160156 184.449219 717.453125 184.449219 717.808594 L 184.449219 720.964844 C 184.449219 721.324219 184.160156 721.613281 183.800781 721.613281 C 183.441406 721.613281 183.152344 721.324219 183.152344 720.964844 Z M 183.152344 720.964844 "/>
<path fill-rule="nonzero" d="M 187.046875 724.117188 L 187.046875 717.808594 C 187.046875 717.453125 187.339844 717.160156 187.699219 717.160156 C 188.054688 717.160156 188.347656 717.453125 188.347656 717.808594 L 188.347656 724.117188 C 188.347656 724.480469 188.054688 724.769531 187.699219 724.769531 C 187.339844 724.769531 187.046875 724.480469 187.046875 724.117188 Z M 187.046875 724.117188 "/>
<path fill-rule="nonzero" d="M 191.132812 720.964844 L 191.132812 717.808594 C 191.132812 717.453125 191.421875 717.160156 191.78125 717.160156 C 192.140625 717.160156 192.429688 717.453125 192.429688 717.808594 L 192.429688 720.964844 C 192.429688 721.324219 192.140625 721.613281 191.78125 721.613281 C 191.421875 721.613281 191.132812 721.324219 191.132812 720.964844 Z M 191.132812 720.964844 "/>
<path fill-rule="nonzero" d="M 195.214844 720.964844 L 195.214844 717.808594 C 195.214844 717.453125 195.507812 717.160156 195.863281 717.160156 C 196.222656 717.160156 196.515625 717.453125 196.515625 717.808594 L 196.515625 720.964844 C 196.515625 721.324219 196.222656 721.613281 195.863281 721.613281 C 195.507812 721.613281 195.214844 721.324219 195.214844 720.964844 Z M 195.214844 720.964844 "/>
<path fill-rule="nonzero" d="M 199.296875 720.964844 L 199.296875 717.808594 C 199.296875 717.453125 199.589844 717.160156 199.949219 717.160156 C 200.304688 717.160156 200.597656 717.453125 200.597656 717.808594 L 200.597656 720.964844 C 200.597656 721.324219 200.304688 721.613281 199.949219 721.613281 C 199.589844 721.613281 199.296875 721.324219 199.296875 720.964844 Z M 199.296875 720.964844 "/>
<path fill-rule="nonzero" d="M 203.382812 720.964844 L 203.382812 717.808594 C 203.382812 717.453125 203.671875 717.160156 204.03125 717.160156 C 204.390625 717.160156 204.679688 717.453125 204.679688 717.808594 L 204.679688 720.964844 C 204.679688 721.324219 204.390625 721.613281 204.03125 721.613281 C 203.671875 721.613281 203.382812 721.324219 203.382812 720.964844 Z M 203.382812 720.964844 "/>
<path fill-rule="nonzero" d="M 207.277344 720.964844 L 207.277344 717.808594 C 207.277344 717.453125 207.570312 717.160156 207.929688 717.160156 C 208.285156 717.160156 208.578125 717.453125 208.578125 717.808594 L 208.578125 720.964844 C 208.578125 721.324219 208.285156 721.613281 207.929688 721.613281 C 207.570312 721.613281 207.277344 721.324219 207.277344 720.964844 Z M 207.277344 720.964844 "/>
<path fill-rule="nonzero" d="M 211.363281 720.964844 L 211.363281 717.808594 C 211.363281 717.453125 211.652344 717.160156 212.011719 717.160156 C 212.371094 717.160156 212.660156 717.453125 212.660156 717.808594 L 212.660156 720.964844 C 212.660156 721.324219 212.371094 721.613281 212.011719 721.613281 C 211.652344 721.613281 211.363281 721.324219 211.363281 720.964844 Z M 211.363281 720.964844 "/>
<path fill-rule="nonzero" d="M 215.445312 720.964844 L 215.445312 717.808594 C 215.445312 717.453125 215.738281 717.160156 216.09375 717.160156 C 216.453125 717.160156 216.746094 717.453125 216.746094 717.808594 L 216.746094 720.964844 C 216.746094 721.324219 216.453125 721.613281 216.09375 721.613281 C 215.738281 721.613281 215.445312 721.324219 215.445312 720.964844 Z M 215.445312 720.964844 "/>
<path fill-rule="nonzero" d="M 219.527344 720.964844 L 219.527344 717.808594 C 219.527344 717.453125 219.820312 717.160156 220.179688 717.160156 C 220.535156 717.160156 220.828125 717.453125 220.828125 717.808594 L 220.828125 720.964844 C 220.828125 721.324219 220.535156 721.613281 220.179688 721.613281 C 219.820312 721.613281 219.527344 721.324219 219.527344 720.964844 Z M 219.527344 720.964844 "/>
<path fill-rule="nonzero" d="M 223.613281 720.964844 L 223.613281 717.808594 C 223.613281 717.453125 223.902344 717.160156 224.261719 717.160156 C 224.621094 717.160156 224.910156 717.453125 224.910156 717.808594 L 224.910156 720.964844 C 224.910156 721.324219 224.621094 721.613281 224.261719 721.613281 C 223.902344 721.613281 223.613281 721.324219 223.613281 720.964844 Z M 223.613281 720.964844 "/>
<path fill-rule="nonzero" d="M 227.695312 724.117188 L 227.695312 717.808594 C 227.695312 717.453125 227.984375 717.160156 228.34375 717.160156 C 228.703125 717.160156 228.992188 717.453125 228.992188 717.808594 L 228.992188 724.117188 C 228.992188 724.480469 228.703125 724.769531 228.34375 724.769531 C 227.984375 724.769531 227.695312 724.480469 227.695312 724.117188 Z M 227.695312 724.117188 "/>
<path fill-rule="nonzero" d="M 231.59375 720.964844 L 231.59375 717.808594 C 231.59375 717.453125 231.882812 717.160156 232.242188 717.160156 C 232.601562 717.160156 232.890625 717.453125 232.890625 717.808594 L 232.890625 720.964844 C 232.890625 721.324219 232.601562 721.613281 232.242188 721.613281 C 231.882812 721.613281 231.59375 721.324219 231.59375 720.964844 Z M 231.59375 720.964844 "/>
<path fill-rule="nonzero" d="M 235.675781 720.964844 L 235.675781 717.808594 C 235.675781 717.453125 235.96875 717.160156 236.324219 717.160156 C 236.683594 717.160156 236.976562 717.453125 236.976562 717.808594 L 236.976562 720.964844 C 236.976562 721.324219 236.683594 721.613281 236.324219 721.613281 C 235.96875 721.613281 235.675781 721.324219 235.675781 720.964844 Z M 235.675781 720.964844 "/>
<path fill-rule="nonzero" d="M 239.757812 720.964844 L 239.757812 717.808594 C 239.757812 717.453125 240.050781 717.160156 240.410156 717.160156 C 240.765625 717.160156 241.058594 717.453125 241.058594 717.808594 L 241.058594 720.964844 C 241.058594 721.324219 240.765625 721.613281 240.410156 721.613281 C 240.050781 721.613281 239.757812 721.324219 239.757812 720.964844 Z M 239.757812 720.964844 "/>
<path fill-rule="nonzero" d="M 243.84375 720.964844 L 243.84375 717.808594 C 243.84375 717.453125 244.132812 717.160156 244.492188 717.160156 C 244.851562 717.160156 245.140625 717.453125 245.140625 717.808594 L 245.140625 720.964844 C 245.140625 721.324219 244.851562 721.613281 244.492188 721.613281 C 244.132812 721.613281 243.84375 721.324219 243.84375 720.964844 Z M 243.84375 720.964844 "/>
<path fill-rule="nonzero" d="M 247.925781 720.964844 L 247.925781 717.808594 C 247.925781 717.453125 248.214844 717.160156 248.574219 717.160156 C 248.933594 717.160156 249.222656 717.453125 249.222656 717.808594 L 249.222656 720.964844 C 249.222656 721.324219 248.933594 721.613281 248.574219 721.613281 C 248.214844 721.613281 247.925781 721.324219 247.925781 720.964844 Z M 247.925781 720.964844 "/>
<path fill-rule="nonzero" d="M 251.824219 720.964844 L 251.824219 717.808594 C 251.824219 717.453125 252.113281 717.160156 252.472656 717.160156 C 252.832031 717.160156 253.121094 717.453125 253.121094 717.808594 L 253.121094 720.964844 C 253.121094 721.324219 252.832031 721.613281 252.472656 721.613281 C 252.113281 721.613281 251.824219 721.324219 251.824219 720.964844 Z M 251.824219 720.964844 "/>
<path fill-rule="nonzero" d="M 255.90625 720.964844 L 255.90625 717.808594 C 255.90625 717.453125 256.199219 717.160156 256.554688 717.160156 C 256.914062 717.160156 257.207031 717.453125 257.207031 717.808594 L 257.207031 720.964844 C 257.207031 721.324219 256.914062 721.613281 256.554688 721.613281 C 256.199219 721.613281 255.90625 721.324219 255.90625 720.964844 Z M 255.90625 720.964844 "/>
<path fill-rule="nonzero" d="M 259.988281 720.964844 L 259.988281 717.808594 C 259.988281 717.453125 260.28125 717.160156 260.640625 717.160156 C 260.996094 717.160156 261.289062 717.453125 261.289062 717.808594 L 261.289062 720.964844 C 261.289062 721.324219 260.996094 721.613281 260.640625 721.613281 C 260.28125 721.613281 259.988281 721.324219 259.988281 720.964844 Z M 259.988281 720.964844 "/>
<path fill-rule="nonzero" d="M 264.074219 720.964844 L 264.074219 717.808594 C 264.074219 717.453125 264.363281 717.160156 264.722656 717.160156 C 265.082031 717.160156 265.371094 717.453125 265.371094 717.808594 L 265.371094 720.964844 C 265.371094 721.324219 265.082031 721.613281 264.722656 721.613281 C 264.363281 721.613281 264.074219 721.324219 264.074219 720.964844 Z M 264.074219 720.964844 "/>
<path fill-rule="nonzero" d="M 268.15625 724.117188 L 268.15625 717.808594 C 268.15625 717.453125 268.445312 717.160156 268.804688 717.160156 C 269.164062 717.160156 269.453125 717.453125 269.453125 717.808594 L 269.453125 724.117188 C 269.453125 724.480469 269.164062 724.769531 268.804688 724.769531 C 268.445312 724.769531 268.15625 724.480469 268.15625 724.117188 Z M 268.15625 724.117188 "/>
<path fill-rule="nonzero" d="M 272.238281 720.964844 L 272.238281 717.808594 C 272.238281 717.453125 272.53125 717.160156 272.886719 717.160156 C 273.246094 717.160156 273.539062 717.453125 273.539062 717.808594 L 273.539062 720.964844 C 273.539062 721.324219 273.246094 721.613281 272.886719 721.613281 C 272.53125 721.613281 272.238281 721.324219 272.238281 720.964844 Z M 272.238281 720.964844 "/>
<path fill-rule="nonzero" d="M 276.136719 720.964844 L 276.136719 717.808594 C 276.136719 717.453125 276.429688 717.160156 276.785156 717.160156 C 277.144531 717.160156 277.4375 717.453125 277.4375 717.808594 L 277.4375 720.964844 C 277.4375 721.324219 277.144531 721.613281 276.785156 721.613281 C 276.429688 721.613281 276.136719 721.324219 276.136719 720.964844 Z M 276.136719 720.964844 "/>
<path fill-rule="nonzero" d="M 280.21875 720.964844 L 280.21875 717.808594 C 280.21875 717.453125 280.511719 717.160156 280.871094 717.160156 C 281.226562 717.160156 281.519531 717.453125 281.519531 717.808594 L 281.519531 720.964844 C 281.519531 721.324219 281.226562 721.613281 280.871094 721.613281 C 280.511719 721.613281 280.21875 721.324219 280.21875 720.964844 Z M 280.21875 720.964844 "/>
<path fill-rule="nonzero" d="M 284.304688 720.964844 L 284.304688 717.808594 C 284.304688 717.453125 284.59375 717.160156 284.953125 717.160156 C 285.3125 717.160156 285.601562 717.453125 285.601562 717.808594 L 285.601562 720.964844 C 285.601562 721.324219 285.3125 721.613281 284.953125 721.613281 C 284.59375 721.613281 284.304688 721.324219 284.304688 720.964844 Z M 284.304688 720.964844 "/>
<path fill-rule="nonzero" d="M 288.386719 720.964844 L 288.386719 717.808594 C 288.386719 717.453125 288.675781 717.160156 289.035156 717.160156 C 289.394531 717.160156 289.683594 717.453125 289.683594 717.808594 L 289.683594 720.964844 C 289.683594 721.324219 289.394531 721.613281 289.035156 721.613281 C 288.675781 721.613281 288.386719 721.324219 288.386719 720.964844 Z M 288.386719 720.964844 "/>
<path fill-rule="nonzero" d="M 292.46875 720.964844 L 292.46875 717.808594 C 292.46875 717.453125 292.761719 717.160156 293.117188 717.160156 C 293.476562 717.160156 293.769531 717.453125 293.769531 717.808594 L 293.769531 720.964844 C 293.769531 721.324219 293.476562 721.613281 293.117188 721.613281 C 292.761719 721.613281 292.46875 721.324219 292.46875 720.964844 Z M 292.46875 720.964844 "/>
<path fill-rule="nonzero" d="M 296.367188 720.964844 L 296.367188 717.808594 C 296.367188 717.453125 296.660156 717.160156 297.015625 717.160156 C 297.375 717.160156 297.667969 717.453125 297.667969 717.808594 L 297.667969 720.964844 C 297.667969 721.324219 297.375 721.613281 297.015625 721.613281 C 296.660156 721.613281 296.367188 721.324219 296.367188 720.964844 Z M 296.367188 720.964844 "/>
<path fill-rule="nonzero" d="M 300.449219 720.964844 L 300.449219 717.808594 C 300.449219 717.453125 300.742188 717.160156 301.101562 717.160156 C 301.457031 717.160156 301.75 717.453125 301.75 717.808594 L 301.75 720.964844 C 301.75 721.324219 301.457031 721.613281 301.101562 721.613281 C 300.742188 721.613281 300.449219 721.324219 300.449219 720.964844 Z M 300.449219 720.964844 "/>
<path fill-rule="nonzero" d="M 304.535156 720.964844 L 304.535156 717.808594 C 304.535156 717.453125 304.824219 717.160156 305.183594 717.160156 C 305.542969 717.160156 305.832031 717.453125 305.832031 717.808594 L 305.832031 720.964844 C 305.832031 721.324219 305.542969 721.613281 305.183594 721.613281 C 304.824219 721.613281 304.535156 721.324219 304.535156 720.964844 Z M 304.535156 720.964844 "/>
<path fill-rule="nonzero" d="M 308.617188 724.117188 L 308.617188 717.808594 C 308.617188 717.453125 308.90625 717.160156 309.265625 717.160156 C 309.625 717.160156 309.914062 717.453125 309.914062 717.808594 L 309.914062 724.117188 C 309.914062 724.480469 309.625 724.769531 309.265625 724.769531 C 308.90625 724.769531 308.617188 724.480469 308.617188 724.117188 Z M 308.617188 724.117188 "/>
<path fill-rule="nonzero" d="M 312.699219 720.964844 L 312.699219 717.808594 C 312.699219 717.453125 312.992188 717.160156 313.351562 717.160156 C 313.707031 717.160156 314 717.453125 314 717.808594 L 314 720.964844 C 314 721.324219 313.707031 721.613281 313.351562 721.613281 C 312.992188 721.613281 312.699219 721.324219 312.699219 720.964844 Z M 312.699219 720.964844 "/>
<path fill-rule="nonzero" d="M 316.785156 720.964844 L 316.785156 717.808594 C 316.785156 717.453125 317.074219 717.160156 317.433594 717.160156 C 317.792969 717.160156 318.082031 717.453125 318.082031 717.808594 L 318.082031 720.964844 C 318.082031 721.324219 317.792969 721.613281 317.433594 721.613281 C 317.074219 721.613281 316.785156 721.324219 316.785156 720.964844 Z M 316.785156 720.964844 "/>
<path fill-rule="nonzero" d="M 320.679688 720.964844 L 320.679688 717.808594 C 320.679688 717.453125 320.972656 717.160156 321.332031 717.160156 C 321.6875 717.160156 321.980469 717.453125 321.980469 717.808594 L 321.980469 720.964844 C 321.980469 721.324219 321.6875 721.613281 321.332031 721.613281 C 320.972656 721.613281 320.679688 721.324219 320.679688 720.964844 Z M 320.679688 720.964844 "/>
<path fill-rule="nonzero" d="M 324.765625 720.964844 L 324.765625 717.808594 C 324.765625 717.453125 325.054688 717.160156 325.414062 717.160156 C 325.773438 717.160156 326.0625 717.453125 326.0625 717.808594 L 326.0625 720.964844 C 326.0625 721.324219 325.773438 721.613281 325.414062 721.613281 C 325.054688 721.613281 324.765625 721.324219 324.765625 720.964844 Z M 324.765625 720.964844 "/>
<path fill-rule="nonzero" d="M 328.847656 720.964844 L 328.847656 717.808594 C 328.847656 717.453125 329.140625 717.160156 329.496094 717.160156 C 329.855469 717.160156 330.148438 717.453125 330.148438 717.808594 L 330.148438 720.964844 C 330.148438 721.324219 329.855469 721.613281 329.496094 721.613281 C 329.140625 721.613281 328.847656 721.324219 328.847656 720.964844 Z M 328.847656 720.964844 "/>
<path fill-rule="nonzero" d="M 332.929688 720.964844 L 332.929688 717.808594 C 332.929688 717.453125 333.222656 717.160156 333.582031 717.160156 C 333.9375 717.160156 334.230469 717.453125 334.230469 717.808594 L 334.230469 720.964844 C 334.230469 721.324219 333.9375 721.613281 333.582031 721.613281 C 333.222656 721.613281 332.929688 721.324219 332.929688 720.964844 Z M 332.929688 720.964844 "/>
<path fill-rule="nonzero" d="M 337.015625 720.964844 L 337.015625 717.808594 C 337.015625 717.453125 337.304688 717.160156 337.664062 717.160156 C 338.023438 717.160156 338.3125 717.453125 338.3125 717.808594 L 338.3125 720.964844 C 338.3125 721.324219 338.023438 721.613281 337.664062 721.613281 C 337.304688 721.613281 337.015625 721.324219 337.015625 720.964844 Z M 337.015625 720.964844 "/>
<path fill-rule="nonzero" d="M 340.910156 720.964844 L 340.910156 717.808594 C 340.910156 717.453125 341.203125 717.160156 341.5625 717.160156 C 341.917969 717.160156 342.210938 717.453125 342.210938 717.808594 L 342.210938 720.964844 C 342.210938 721.324219 341.917969 721.613281 341.5625 721.613281 C 341.203125 721.613281 340.910156 721.324219 340.910156 720.964844 Z M 340.910156 720.964844 "/>
<path fill-rule="nonzero" d="M 344.996094 720.964844 L 344.996094 717.808594 C 344.996094 717.453125 345.285156 717.160156 345.644531 717.160156 C 346.003906 717.160156 346.292969 717.453125 346.292969 717.808594 L 346.292969 720.964844 C 346.292969 721.324219 346.003906 721.613281 345.644531 721.613281 C 345.285156 721.613281 344.996094 721.324219 344.996094 720.964844 Z M 344.996094 720.964844 "/>
<path fill-rule="nonzero" d="M 349.078125 724.117188 L 349.078125 717.808594 C 349.078125 717.453125 349.371094 717.160156 349.726562 717.160156 C 350.085938 717.160156 350.378906 717.453125 350.378906 717.808594 L 350.378906 724.117188 C 350.378906 724.480469 350.085938 724.769531 349.726562 724.769531 C 349.371094 724.769531 349.078125 724.480469 349.078125 724.117188 Z M 349.078125 724.117188 "/>
<path fill-rule="nonzero" d="M 353.160156 720.964844 L 353.160156 717.808594 C 353.160156 717.453125 353.453125 717.160156 353.8125 717.160156 C 354.167969 717.160156 354.460938 717.453125 354.460938 717.808594 L 354.460938 720.964844 C 354.460938 721.324219 354.167969 721.613281 353.8125 721.613281 C 353.453125 721.613281 353.160156 721.324219 353.160156 720.964844 Z M 353.160156 720.964844 "/>
<path fill-rule="nonzero" d="M 357.246094 720.964844 L 357.246094 717.808594 C 357.246094 717.453125 357.535156 717.160156 357.894531 717.160156 C 358.253906 717.160156 358.542969 717.453125 358.542969 717.808594 L 358.542969 720.964844 C 358.542969 721.324219 358.253906 721.613281 357.894531 721.613281 C 357.535156 721.613281 357.246094 721.324219 357.246094 720.964844 Z M 357.246094 720.964844 "/>
<path fill-rule="nonzero" d="M 361.328125 720.964844 L 361.328125 717.808594 C 361.328125 717.453125 361.617188 717.160156 361.976562 717.160156 C 362.335938 717.160156 362.625 717.453125 362.625 717.808594 L 362.625 720.964844 C 362.625 721.324219 362.335938 721.613281 361.976562 721.613281 C 361.617188 721.613281 361.328125 721.324219 361.328125 720.964844 Z M 361.328125 720.964844 "/>
<path fill-rule="nonzero" d="M 365.226562 720.964844 L 365.226562 717.808594 C 365.226562 717.453125 365.515625 717.160156 365.875 717.160156 C 366.234375 717.160156 366.523438 717.453125 366.523438 717.808594 L 366.523438 720.964844 C 366.523438 721.324219 366.234375 721.613281 365.875 721.613281 C 365.515625 721.613281 365.226562 721.324219 365.226562 720.964844 Z M 365.226562 720.964844 "/>
<path fill-rule="nonzero" d="M 369.308594 720.964844 L 369.308594 717.808594 C 369.308594 717.453125 369.601562 717.160156 369.957031 717.160156 C 370.316406 717.160156 370.609375 717.453125 370.609375 717.808594 L 370.609375 720.964844 C 370.609375 721.324219 370.316406 721.613281 369.957031 721.613281 C 369.601562 721.613281 369.308594 721.324219 369.308594 720.964844 Z M 369.308594 720.964844 "/>
<path fill-rule="nonzero" d="M 373.390625 720.964844 L 373.390625 717.808594 C 373.390625 717.453125 373.683594 717.160156 374.042969 717.160156 C 374.398438 717.160156 374.691406 717.453125 374.691406 717.808594 L 374.691406 720.964844 C 374.691406 721.324219 374.398438 721.613281 374.042969 721.613281 C 373.683594 721.613281 373.390625 721.324219 373.390625 720.964844 Z M 373.390625 720.964844 "/>
<path fill-rule="nonzero" d="M 377.476562 720.964844 L 377.476562 717.808594 C 377.476562 717.453125 377.765625 717.160156 378.125 717.160156 C 378.484375 717.160156 378.773438 717.453125 378.773438 717.808594 L 378.773438 720.964844 C 378.773438 721.324219 378.484375 721.613281 378.125 721.613281 C 377.765625 721.613281 377.476562 721.324219 377.476562 720.964844 Z M 377.476562 720.964844 "/>
<path fill-rule="nonzero" d="M 381.558594 720.964844 L 381.558594 717.808594 C 381.558594 717.453125 381.847656 717.160156 382.207031 717.160156 C 382.566406 717.160156 382.855469 717.453125 382.855469 717.808594 L 382.855469 720.964844 C 382.855469 721.324219 382.566406 721.613281 382.207031 721.613281 C 381.847656 721.613281 381.558594 721.324219 381.558594 720.964844 Z M 381.558594 720.964844 "/>
<path fill-rule="nonzero" d="M 385.457031 720.964844 L 385.457031 717.808594 C 385.457031 717.453125 385.746094 717.160156 386.105469 717.160156 C 386.464844 717.160156 386.753906 717.453125 386.753906 717.808594 L 386.753906 720.964844 C 386.753906 721.324219 386.464844 721.613281 386.105469 721.613281 C 385.746094 721.613281 385.457031 721.324219 385.457031 720.964844 Z M 385.457031 720.964844 "/>
<path fill-rule="nonzero" d="M 389.539062 724.117188 L 389.539062 717.808594 C 389.539062 717.453125 389.832031 717.160156 390.1875 717.160156 C 390.546875 717.160156 390.839844 717.453125 390.839844 717.808594 L 390.839844 724.117188 C 390.839844 724.480469 390.546875 724.769531 390.1875 724.769531 C 389.832031 724.769531 389.539062 724.480469 389.539062 724.117188 Z M 389.539062 724.117188 "/>
<path fill-rule="nonzero" d="M 393.621094 720.964844 L 393.621094 717.808594 C 393.621094 717.453125 393.914062 717.160156 394.273438 717.160156 C 394.628906 717.160156 394.921875 717.453125 394.921875 717.808594 L 394.921875 720.964844 C 394.921875 721.324219 394.628906 721.613281 394.273438 721.613281 C 393.914062 721.613281 393.621094 721.324219 393.621094 720.964844 Z M 393.621094 720.964844 "/>
<path fill-rule="nonzero" d="M 397.707031 720.964844 L 397.707031 717.808594 C 397.707031 717.453125 397.996094 717.160156 398.355469 717.160156 C 398.714844 717.160156 399.003906 717.453125 399.003906 717.808594 L 399.003906 720.964844 C 399.003906 721.324219 398.714844 721.613281 398.355469 721.613281 C 397.996094 721.613281 397.707031 721.324219 397.707031 720.964844 Z M 397.707031 720.964844 "/>
<path fill-rule="nonzero" d="M 401.789062 720.964844 L 401.789062 717.808594 C 401.789062 717.453125 402.078125 717.160156 402.4375 717.160156 C 402.796875 717.160156 403.085938 717.453125 403.085938 717.808594 L 403.085938 720.964844 C 403.085938 721.324219 402.796875 721.613281 402.4375 721.613281 C 402.078125 721.613281 401.789062 721.324219 401.789062 720.964844 Z M 401.789062 720.964844 "/>
<path fill-rule="nonzero" d="M 405.871094 720.964844 L 405.871094 717.808594 C 405.871094 717.453125 406.164062 717.160156 406.519531 717.160156 C 406.878906 717.160156 407.171875 717.453125 407.171875 717.808594 L 407.171875 720.964844 C 407.171875 721.324219 406.878906 721.613281 406.519531 721.613281 C 406.164062 721.613281 405.871094 721.324219 405.871094 720.964844 Z M 405.871094 720.964844 "/>
<path fill-rule="nonzero" d="M 409.769531 720.964844 L 409.769531 717.808594 C 409.769531 717.453125 410.0625 717.160156 410.417969 717.160156 C 410.777344 717.160156 411.070312 717.453125 411.070312 717.808594 L 411.070312 720.964844 C 411.070312 721.324219 410.777344 721.613281 410.417969 721.613281 C 410.0625 721.613281 409.769531 721.324219 409.769531 720.964844 Z M 409.769531 720.964844 "/>
<path fill-rule="nonzero" d="M 413.851562 720.964844 L 413.851562 717.808594 C 413.851562 717.453125 414.144531 717.160156 414.503906 717.160156 C 414.859375 717.160156 415.152344 717.453125 415.152344 717.808594 L 415.152344 720.964844 C 415.152344 721.324219 414.859375 721.613281 414.503906 721.613281 C 414.144531 721.613281 413.851562 721.324219 413.851562 720.964844 Z M 413.851562 720.964844 "/>
<path fill-rule="nonzero" d="M 417.9375 720.964844 L 417.9375 717.808594 C 417.9375 717.453125 418.226562 717.160156 418.585938 717.160156 C 418.945312 717.160156 419.234375 717.453125 419.234375 717.808594 L 419.234375 720.964844 C 419.234375 721.324219 418.945312 721.613281 418.585938 721.613281 C 418.226562 721.613281 417.9375 721.324219 417.9375 720.964844 Z M 417.9375 720.964844 "/>
<path fill-rule="nonzero" d="M 422.019531 720.964844 L 422.019531 717.808594 C 422.019531 717.453125 422.308594 717.160156 422.667969 717.160156 C 423.027344 717.160156 423.316406 717.453125 423.316406 717.808594 L 423.316406 720.964844 C 423.316406 721.324219 423.027344 721.613281 422.667969 721.613281 C 422.308594 721.613281 422.019531 721.324219 422.019531 720.964844 Z M 422.019531 720.964844 "/>
<path fill-rule="nonzero" d="M 426.101562 720.964844 L 426.101562 717.808594 C 426.101562 717.453125 426.394531 717.160156 426.75 717.160156 C 427.109375 717.160156 427.402344 717.453125 427.402344 717.808594 L 427.402344 720.964844 C 427.402344 721.324219 427.109375 721.613281 426.75 721.613281 C 426.394531 721.613281 426.101562 721.324219 426.101562 720.964844 Z M 426.101562 720.964844 "/>
<path fill-rule="nonzero" d="M 430 724.117188 L 430 717.808594 C 430 717.453125 430.292969 717.160156 430.648438 717.160156 C 431.007812 717.160156 431.300781 717.453125 431.300781 717.808594 L 431.300781 724.117188 C 431.300781 724.480469 431.007812 724.769531 430.648438 724.769531 C 430.292969 724.769531 430 724.480469 430 724.117188 Z M 430 724.117188 "/>
<path fill-rule="nonzero" d="M 434.082031 720.964844 L 434.082031 717.808594 C 434.082031 717.453125 434.375 717.160156 434.734375 717.160156 C 435.089844 717.160156 435.382812 717.453125 435.382812 717.808594 L 435.382812 720.964844 C 435.382812 721.324219 435.089844 721.613281 434.734375 721.613281 C 434.375 721.613281 434.082031 721.324219 434.082031 720.964844 Z M 434.082031 720.964844 "/>
<path fill-rule="nonzero" d="M 438.167969 720.964844 L 438.167969 717.808594 C 438.167969 717.453125 438.457031 717.160156 438.816406 717.160156 C 439.175781 717.160156 439.464844 717.453125 439.464844 717.808594 L 439.464844 720.964844 C 439.464844 721.324219 439.175781 721.613281 438.816406 721.613281 C 438.457031 721.613281 438.167969 721.324219 438.167969 720.964844 Z M 438.167969 720.964844 "/>
<path fill-rule="nonzero" d="M 442.25 720.964844 L 442.25 717.808594 C 442.25 717.453125 442.539062 717.160156 442.898438 717.160156 C 443.257812 717.160156 443.546875 717.453125 443.546875 717.808594 L 443.546875 720.964844 C 443.546875 721.324219 443.257812 721.613281 442.898438 721.613281 C 442.539062 721.613281 442.25 721.324219 442.25 720.964844 Z M 442.25 720.964844 "/>
<path fill-rule="nonzero" d="M 446.332031 720.964844 L 446.332031 717.808594 C 446.332031 717.453125 446.625 717.160156 446.980469 717.160156 C 447.339844 717.160156 447.632812 717.453125 447.632812 717.808594 L 447.632812 720.964844 C 447.632812 721.324219 447.339844 721.613281 446.980469 721.613281 C 446.625 721.613281 446.332031 721.324219 446.332031 720.964844 Z M 446.332031 720.964844 "/>
<path fill-rule="nonzero" d="M 450.414062 720.964844 L 450.414062 717.808594 C 450.414062 717.453125 450.707031 717.160156 451.066406 717.160156 C 451.421875 717.160156 451.714844 717.453125 451.714844 717.808594 L 451.714844 720.964844 C 451.714844 721.324219 451.421875 721.613281 451.066406 721.613281 C 450.707031 721.613281 450.414062 721.324219 450.414062 720.964844 Z M 450.414062 720.964844 "/>
<path fill-rule="nonzero" d="M 454.3125 720.964844 L 454.3125 717.808594 C 454.3125 717.453125 454.605469 717.160156 454.964844 717.160156 C 455.320312 717.160156 455.613281 717.453125 455.613281 717.808594 L 455.613281 720.964844 C 455.613281 721.324219 455.320312 721.613281 454.964844 721.613281 C 454.605469 721.613281 454.3125 721.324219 454.3125 720.964844 Z M 454.3125 720.964844 "/>
<path fill-rule="nonzero" d="M 458.398438 720.964844 L 458.398438 717.808594 C 458.398438 717.453125 458.6875 717.160156 459.046875 717.160156 C 459.40625 717.160156 459.695312 717.453125 459.695312 717.808594 L 459.695312 720.964844 C 459.695312 721.324219 459.40625 721.613281 459.046875 721.613281 C 458.6875 721.613281 458.398438 721.324219 458.398438 720.964844 Z M 458.398438 720.964844 "/>
<path fill-rule="nonzero" d="M 462.480469 720.964844 L 462.480469 717.808594 C 462.480469 717.453125 462.769531 717.160156 463.128906 717.160156 C 463.488281 717.160156 463.777344 717.453125 463.777344 717.808594 L 463.777344 720.964844 C 463.777344 721.324219 463.488281 721.613281 463.128906 721.613281 C 462.769531 721.613281 462.480469 721.324219 462.480469 720.964844 Z M 462.480469 720.964844 "/>
<path fill-rule="nonzero" d="M 466.5625 720.964844 L 466.5625 717.808594 C 466.5625 717.453125 466.855469 717.160156 467.210938 717.160156 C 467.570312 717.160156 467.863281 717.453125 467.863281 717.808594 L 467.863281 720.964844 C 467.863281 721.324219 467.570312 721.613281 467.210938 721.613281 C 466.855469 721.613281 466.5625 721.324219 466.5625 720.964844 Z M 466.5625 720.964844 "/>
<path fill-rule="nonzero" d="M 470.644531 724.117188 L 470.644531 717.808594 C 470.644531 717.453125 470.9375 717.160156 471.296875 717.160156 C 471.652344 717.160156 471.945312 717.453125 471.945312 717.808594 L 471.945312 724.117188 C 471.945312 724.480469 471.652344 724.769531 471.296875 724.769531 C 470.9375 724.769531 470.644531 724.480469 470.644531 724.117188 Z M 470.644531 724.117188 "/>
<path fill-rule="nonzero" d="M 474.542969 720.964844 L 474.542969 717.808594 C 474.542969 717.453125 474.835938 717.160156 475.195312 717.160156 C 475.550781 717.160156 475.84375 717.453125 475.84375 717.808594 L 475.84375 720.964844 C 475.84375 721.324219 475.550781 721.613281 475.195312 721.613281 C 474.835938 721.613281 474.542969 721.324219 474.542969 720.964844 Z M 474.542969 720.964844 "/>
<path fill-rule="nonzero" d="M 478.628906 720.964844 L 478.628906 717.808594 C 478.628906 717.453125 478.917969 717.160156 479.277344 717.160156 C 479.636719 717.160156 479.925781 717.453125 479.925781 717.808594 L 479.925781 720.964844 C 479.925781 721.324219 479.636719 721.613281 479.277344 721.613281 C 478.917969 721.613281 478.628906 721.324219 478.628906 720.964844 Z M 478.628906 720.964844 "/>
<path fill-rule="nonzero" d="M 482.710938 720.964844 L 482.710938 717.808594 C 482.710938 717.453125 483 717.160156 483.359375 717.160156 C 483.71875 717.160156 484.007812 717.453125 484.007812 717.808594 L 484.007812 720.964844 C 484.007812 721.324219 483.71875 721.613281 483.359375 721.613281 C 483 721.613281 482.710938 721.324219 482.710938 720.964844 Z M 482.710938 720.964844 "/>
<path fill-rule="nonzero" d="M 486.792969 720.964844 L 486.792969 717.808594 C 486.792969 717.453125 487.085938 717.160156 487.441406 717.160156 C 487.800781 717.160156 488.09375 717.453125 488.09375 717.808594 L 488.09375 720.964844 C 488.09375 721.324219 487.800781 721.613281 487.441406 721.613281 C 487.085938 721.613281 486.792969 721.324219 486.792969 720.964844 Z M 486.792969 720.964844 "/>
<path fill-rule="nonzero" d="M 490.875 720.964844 L 490.875 717.808594 C 490.875 717.453125 491.167969 717.160156 491.527344 717.160156 C 491.882812 717.160156 492.175781 717.453125 492.175781 717.808594 L 492.175781 720.964844 C 492.175781 721.324219 491.882812 721.613281 491.527344 721.613281 C 491.167969 721.613281 490.875 721.324219 490.875 720.964844 Z M 490.875 720.964844 "/>
<path fill-rule="nonzero" d="M 494.960938 720.964844 L 494.960938 717.808594 C 494.960938 717.453125 495.25 717.160156 495.609375 717.160156 C 495.96875 717.160156 496.257812 717.453125 496.257812 717.808594 L 496.257812 720.964844 C 496.257812 721.324219 495.96875 721.613281 495.609375 721.613281 C 495.25 721.613281 494.960938 721.324219 494.960938 720.964844 Z M 494.960938 720.964844 "/>
<path fill-rule="nonzero" d="M 498.859375 720.964844 L 498.859375 717.808594 C 498.859375 717.453125 499.148438 717.160156 499.507812 717.160156 C 499.867188 717.160156 500.15625 717.453125 500.15625 717.808594 L 500.15625 720.964844 C 500.15625 721.324219 499.867188 721.613281 499.507812 721.613281 C 499.148438 721.613281 498.859375 721.324219 498.859375 720.964844 Z M 498.859375 720.964844 "/>
<path fill-rule="nonzero" d="M 502.941406 720.964844 L 502.941406 717.808594 C 502.941406 717.453125 503.230469 717.160156 503.589844 717.160156 C 503.949219 717.160156 504.238281 717.453125 504.238281 717.808594 L 504.238281 720.964844 C 504.238281 721.324219 503.949219 721.613281 503.589844 721.613281 C 503.230469 721.613281 502.941406 721.324219 502.941406 720.964844 Z M 502.941406 720.964844 "/>
<path fill-rule="nonzero" d="M 507.023438 720.964844 L 507.023438 717.808594 C 507.023438 717.453125 507.316406 717.160156 507.671875 717.160156 C 508.03125 717.160156 508.324219 717.453125 508.324219 717.808594 L 508.324219 720.964844 C 508.324219 721.324219 508.03125 721.613281 507.671875 721.613281 C 507.316406 721.613281 507.023438 721.324219 507.023438 720.964844 Z M 507.023438 720.964844 "/>
<path fill-rule="nonzero" d="M 511.109375 724.117188 L 511.109375 717.808594 C 511.109375 717.453125 511.398438 717.160156 511.757812 717.160156 C 512.117188 717.160156 512.40625 717.453125 512.40625 717.808594 L 512.40625 724.117188 C 512.40625 724.480469 512.117188 724.769531 511.757812 724.769531 C 511.398438 724.769531 511.109375 724.480469 511.109375 724.117188 Z M 511.109375 724.117188 "/>
<path fill-rule="nonzero" d="M 106.777344 717.160156 L 512.128906 717.160156 C 512.488281 717.160156 512.777344 717.453125 512.777344 717.808594 C 512.777344 718.167969 512.488281 718.460938 512.128906 718.460938 L 106.777344 718.460938 C 106.417969 718.460938 106.125 718.167969 106.125 717.808594 C 106.125 717.453125 106.417969 717.160156 106.777344 717.160156 Z M 106.777344 717.160156 "/>
<path fill-rule="nonzero" d="M 100.464844 717.160156 L 106.777344 717.160156 C 107.132812 717.160156 107.425781 717.453125 107.425781 717.808594 C 107.425781 718.167969 107.132812 718.460938 106.777344 718.460938 L 100.464844 718.460938 C 100.105469 718.460938 99.816406 718.167969 99.816406 717.808594 C 99.816406 717.453125 100.105469 717.160156 100.464844 717.160156 Z M 100.464844 717.160156 "/>
<path fill-rule="nonzero" d="M 103.621094 714.003906 L 106.777344 714.003906 C 107.132812 714.003906 107.425781 714.296875 107.425781 714.65625 C 107.425781 715.015625 107.132812 715.304688 106.777344 715.304688 L 103.621094 715.304688 C 103.261719 715.304688 102.972656 715.015625 102.972656 714.65625 C 102.972656 714.296875 103.261719 714.003906 103.621094 714.003906 Z M 103.621094 714.003906 "/>
<path fill-rule="nonzero" d="M 103.621094 710.664062 L 106.777344 710.664062 C 107.132812 710.664062 107.425781 710.957031 107.425781 711.316406 C 107.425781 711.675781 107.132812 711.964844 106.777344 711.964844 L 103.621094 711.964844 C 103.261719 711.964844 102.972656 711.675781 102.972656 711.316406 C 102.972656 710.957031 103.261719 710.664062 103.621094 710.664062 Z M 103.621094 710.664062 "/>
<path fill-rule="nonzero" d="M 103.621094 707.511719 L 106.777344 707.511719 C 107.132812 707.511719 107.425781 707.800781 107.425781 708.160156 C 107.425781 708.519531 107.132812 708.808594 106.777344 708.808594 L 103.621094 708.808594 C 103.261719 708.808594 102.972656 708.519531 102.972656 708.160156 C 102.972656 707.800781 103.261719 707.511719 103.621094 707.511719 Z M 103.621094 707.511719 "/>
<path fill-rule="nonzero" d="M 103.621094 704.171875 L 106.777344 704.171875 C 107.132812 704.171875 107.425781 704.460938 107.425781 704.820312 C 107.425781 705.179688 107.132812 705.46875 106.777344 705.46875 L 103.621094 705.46875 C 103.261719 705.46875 102.972656 705.179688 102.972656 704.820312 C 102.972656 704.460938 103.261719 704.171875 103.621094 704.171875 Z M 103.621094 704.171875 "/>
<path fill-rule="nonzero" d="M 103.621094 701.015625 L 106.777344 701.015625 C 107.132812 701.015625 107.425781 701.308594 107.425781 701.664062 C 107.425781 702.027344 107.132812 702.316406 106.777344 702.316406 L 103.621094 702.316406 C 103.261719 702.316406 102.972656 702.027344 102.972656 701.664062 C 102.972656 701.308594 103.261719 701.015625 103.621094 701.015625 Z M 103.621094 701.015625 "/>
<path fill-rule="nonzero" d="M 103.621094 697.675781 L 106.777344 697.675781 C 107.132812 697.675781 107.425781 697.96875 107.425781 698.324219 C 107.425781 698.6875 107.132812 698.976562 106.777344 698.976562 L 103.621094 698.976562 C 103.261719 698.976562 102.972656 698.6875 102.972656 698.324219 C 102.972656 697.96875 103.261719 697.675781 103.621094 697.675781 Z M 103.621094 697.675781 "/>
<path fill-rule="nonzero" d="M 103.621094 694.523438 L 106.777344 694.523438 C 107.132812 694.523438 107.425781 694.8125 107.425781 695.171875 C 107.425781 695.53125 107.132812 695.820312 106.777344 695.820312 L 103.621094 695.820312 C 103.261719 695.820312 102.972656 695.53125 102.972656 695.171875 C 102.972656 694.8125 103.261719 694.523438 103.621094 694.523438 Z M 103.621094 694.523438 "/>
<path fill-rule="nonzero" d="M 103.621094 691.179688 L 106.777344 691.179688 C 107.132812 691.179688 107.425781 691.472656 107.425781 691.832031 C 107.425781 692.191406 107.132812 692.480469 106.777344 692.480469 L 103.621094 692.480469 C 103.261719 692.480469 102.972656 692.191406 102.972656 691.832031 C 102.972656 691.472656 103.261719 691.179688 103.621094 691.179688 Z M 103.621094 691.179688 "/>
<path fill-rule="nonzero" d="M 103.621094 688.027344 L 106.777344 688.027344 C 107.132812 688.027344 107.425781 688.316406 107.425781 688.675781 C 107.425781 689.035156 107.132812 689.324219 106.777344 689.324219 L 103.621094 689.324219 C 103.261719 689.324219 102.972656 689.035156 102.972656 688.675781 C 102.972656 688.316406 103.261719 688.027344 103.621094 688.027344 Z M 103.621094 688.027344 "/>
<path fill-rule="nonzero" d="M 100.464844 684.6875 L 106.777344 684.6875 C 107.132812 684.6875 107.425781 684.976562 107.425781 685.335938 C 107.425781 685.695312 107.132812 685.984375 106.777344 685.984375 L 100.464844 685.984375 C 100.105469 685.984375 99.816406 685.695312 99.816406 685.335938 C 99.816406 684.976562 100.105469 684.6875 100.464844 684.6875 Z M 100.464844 684.6875 "/>
<path fill-rule="nonzero" d="M 103.621094 681.53125 L 106.777344 681.53125 C 107.132812 681.53125 107.425781 681.824219 107.425781 682.183594 C 107.425781 682.542969 107.132812 682.832031 106.777344 682.832031 L 103.621094 682.832031 C 103.261719 682.832031 102.972656 682.542969 102.972656 682.183594 C 102.972656 681.824219 103.261719 681.53125 103.621094 681.53125 Z M 103.621094 681.53125 "/>
<path fill-rule="nonzero" d="M 103.621094 678.378906 L 106.777344 678.378906 C 107.132812 678.378906 107.425781 678.667969 107.425781 679.027344 C 107.425781 679.386719 107.132812 679.675781 106.777344 679.675781 L 103.621094 679.675781 C 103.261719 679.675781 102.972656 679.386719 102.972656 679.027344 C 102.972656 678.667969 103.261719 678.378906 103.621094 678.378906 Z M 103.621094 678.378906 "/>
<path fill-rule="nonzero" d="M 103.621094 675.039062 L 106.777344 675.039062 C 107.132812 675.039062 107.425781 675.328125 107.425781 675.6875 C 107.425781 676.046875 107.132812 676.335938 106.777344 676.335938 L 103.621094 676.335938 C 103.261719 676.335938 102.972656 676.046875 102.972656 675.6875 C 102.972656 675.328125 103.261719 675.039062 103.621094 675.039062 Z M 103.621094 675.039062 "/>
<path fill-rule="nonzero" d="M 103.621094 671.882812 L 106.777344 671.882812 C 107.132812 671.882812 107.425781 672.175781 107.425781 672.53125 C 107.425781 672.890625 107.132812 673.183594 106.777344 673.183594 L 103.621094 673.183594 C 103.261719 673.183594 102.972656 672.890625 102.972656 672.53125 C 102.972656 672.175781 103.261719 671.882812 103.621094 671.882812 Z M 103.621094 671.882812 "/>
<path fill-rule="nonzero" d="M 103.621094 668.542969 L 106.777344 668.542969 C 107.132812 668.542969 107.425781 668.835938 107.425781 669.191406 C 107.425781 669.550781 107.132812 669.84375 106.777344 669.84375 L 103.621094 669.84375 C 103.261719 669.84375 102.972656 669.550781 102.972656 669.191406 C 102.972656 668.835938 103.261719 668.542969 103.621094 668.542969 Z M 103.621094 668.542969 "/>
<path fill-rule="nonzero" d="M 103.621094 665.386719 L 106.777344 665.386719 C 107.132812 665.386719 107.425781 665.679688 107.425781 666.039062 C 107.425781 666.398438 107.132812 666.6875 106.777344 666.6875 L 103.621094 666.6875 C 103.261719 666.6875 102.972656 666.398438 102.972656 666.039062 C 102.972656 665.679688 103.261719 665.386719 103.621094 665.386719 Z M 103.621094 665.386719 "/>
<path fill-rule="nonzero" d="M 103.621094 662.046875 L 106.777344 662.046875 C 107.132812 662.046875 107.425781 662.339844 107.425781 662.699219 C 107.425781 663.058594 107.132812 663.347656 106.777344 663.347656 L 103.621094 663.347656 C 103.261719 663.347656 102.972656 663.058594 102.972656 662.699219 C 102.972656 662.339844 103.261719 662.046875 103.621094 662.046875 Z M 103.621094 662.046875 "/>
<path fill-rule="nonzero" d="M 103.621094 658.894531 L 106.777344 658.894531 C 107.132812 658.894531 107.425781 659.183594 107.425781 659.542969 C 107.425781 659.902344 107.132812 660.191406 106.777344 660.191406 L 103.621094 660.191406 C 103.261719 660.191406 102.972656 659.902344 102.972656 659.542969 C 102.972656 659.183594 103.261719 658.894531 103.621094 658.894531 Z M 103.621094 658.894531 "/>
<path fill-rule="nonzero" d="M 103.621094 655.554688 L 106.777344 655.554688 C 107.132812 655.554688 107.425781 655.84375 107.425781 656.203125 C 107.425781 656.5625 107.132812 656.851562 106.777344 656.851562 L 103.621094 656.851562 C 103.261719 656.851562 102.972656 656.5625 102.972656 656.203125 C 102.972656 655.84375 103.261719 655.554688 103.621094 655.554688 Z M 103.621094 655.554688 "/>
<path fill-rule="nonzero" d="M 100.464844 652.398438 L 106.777344 652.398438 C 107.132812 652.398438 107.425781 652.691406 107.425781 653.046875 C 107.425781 653.410156 107.132812 653.699219 106.777344 653.699219 L 100.464844 653.699219 C 100.105469 653.699219 99.816406 653.410156 99.816406 653.046875 C 99.816406 652.691406 100.105469 652.398438 100.464844 652.398438 Z M 100.464844 652.398438 "/>
<path fill-rule="nonzero" d="M 103.621094 649.058594 L 106.777344 649.058594 C 107.132812 649.058594 107.425781 649.351562 107.425781 649.707031 C 107.425781 650.066406 107.132812 650.359375 106.777344 650.359375 L 103.621094 650.359375 C 103.261719 650.359375 102.972656 650.066406 102.972656 649.707031 C 102.972656 649.351562 103.261719 649.058594 103.621094 649.058594 Z M 103.621094 649.058594 "/>
<path fill-rule="nonzero" d="M 103.621094 645.902344 L 106.777344 645.902344 C 107.132812 645.902344 107.425781 646.195312 107.425781 646.554688 C 107.425781 646.914062 107.132812 647.203125 106.777344 647.203125 L 103.621094 647.203125 C 103.261719 647.203125 102.972656 646.914062 102.972656 646.554688 C 102.972656 646.195312 103.261719 645.902344 103.621094 645.902344 Z M 103.621094 645.902344 "/>
<path fill-rule="nonzero" d="M 103.621094 642.75 L 106.777344 642.75 C 107.132812 642.75 107.425781 643.039062 107.425781 643.398438 C 107.425781 643.757812 107.132812 644.046875 106.777344 644.046875 L 103.621094 644.046875 C 103.261719 644.046875 102.972656 643.757812 102.972656 643.398438 C 102.972656 643.039062 103.261719 642.75 103.621094 642.75 Z M 103.621094 642.75 "/>
<path fill-rule="nonzero" d="M 103.621094 639.410156 L 106.777344 639.410156 C 107.132812 639.410156 107.425781 639.699219 107.425781 640.058594 C 107.425781 640.417969 107.132812 640.707031 106.777344 640.707031 L 103.621094 640.707031 C 103.261719 640.707031 102.972656 640.417969 102.972656 640.058594 C 102.972656 639.699219 103.261719 639.410156 103.621094 639.410156 Z M 103.621094 639.410156 "/>
<path fill-rule="nonzero" d="M 103.621094 636.253906 L 106.777344 636.253906 C 107.132812 636.253906 107.425781 636.546875 107.425781 636.90625 C 107.425781 637.265625 107.132812 637.554688 106.777344 637.554688 L 103.621094 637.554688 C 103.261719 637.554688 102.972656 637.265625 102.972656 636.90625 C 102.972656 636.546875 103.261719 636.253906 103.621094 636.253906 Z M 103.621094 636.253906 "/>
<path fill-rule="nonzero" d="M 103.621094 632.914062 L 106.777344 632.914062 C 107.132812 632.914062 107.425781 633.207031 107.425781 633.5625 C 107.425781 633.925781 107.132812 634.214844 106.777344 634.214844 L 103.621094 634.214844 C 103.261719 634.214844 102.972656 633.925781 102.972656 633.5625 C 102.972656 633.207031 103.261719 632.914062 103.621094 632.914062 Z M 103.621094 632.914062 "/>
<path fill-rule="nonzero" d="M 103.621094 629.761719 L 106.777344 629.761719 C 107.132812 629.761719 107.425781 630.050781 107.425781 630.410156 C 107.425781 630.769531 107.132812 631.058594 106.777344 631.058594 L 103.621094 631.058594 C 103.261719 631.058594 102.972656 630.769531 102.972656 630.410156 C 102.972656 630.050781 103.261719 629.761719 103.621094 629.761719 Z M 103.621094 629.761719 "/>
<path fill-rule="nonzero" d="M 103.621094 626.421875 L 106.777344 626.421875 C 107.132812 626.421875 107.425781 626.710938 107.425781 627.070312 C 107.425781 627.429688 107.132812 627.71875 106.777344 627.71875 L 103.621094 627.71875 C 103.261719 627.71875 102.972656 627.429688 102.972656 627.070312 C 102.972656 626.710938 103.261719 626.421875 103.621094 626.421875 Z M 103.621094 626.421875 "/>
<path fill-rule="nonzero" d="M 103.621094 623.265625 L 106.777344 623.265625 C 107.132812 623.265625 107.425781 623.558594 107.425781 623.914062 C 107.425781 624.273438 107.132812 624.566406 106.777344 624.566406 L 103.621094 624.566406 C 103.261719 624.566406 102.972656 624.273438 102.972656 623.914062 C 102.972656 623.558594 103.261719 623.265625 103.621094 623.265625 Z M 103.621094 623.265625 "/>
<path fill-rule="nonzero" d="M 100.464844 619.925781 L 106.777344 619.925781 C 107.132812 619.925781 107.425781 620.214844 107.425781 620.574219 C 107.425781 620.933594 107.132812 621.222656 106.777344 621.222656 L 100.464844 621.222656 C 100.105469 621.222656 99.816406 620.933594 99.816406 620.574219 C 99.816406 620.214844 100.105469 619.925781 100.464844 619.925781 Z M 100.464844 619.925781 "/>
<path fill-rule="nonzero" d="M 103.621094 616.769531 L 106.777344 616.769531 C 107.132812 616.769531 107.425781 617.0625 107.425781 617.421875 C 107.425781 617.78125 107.132812 618.070312 106.777344 618.070312 L 103.621094 618.070312 C 103.261719 618.070312 102.972656 617.78125 102.972656 617.421875 C 102.972656 617.0625 103.261719 616.769531 103.621094 616.769531 Z M 103.621094 616.769531 "/>
<path fill-rule="nonzero" d="M 103.621094 613.617188 L 106.777344 613.617188 C 107.132812 613.617188 107.425781 613.90625 107.425781 614.265625 C 107.425781 614.625 107.132812 614.914062 106.777344 614.914062 L 103.621094 614.914062 C 103.261719 614.914062 102.972656 614.625 102.972656 614.265625 C 102.972656 613.90625 103.261719 613.617188 103.621094 613.617188 Z M 103.621094 613.617188 "/>
<path fill-rule="nonzero" d="M 103.621094 610.277344 L 106.777344 610.277344 C 107.132812 610.277344 107.425781 610.566406 107.425781 610.925781 C 107.425781 611.285156 107.132812 611.574219 106.777344 611.574219 L 103.621094 611.574219 C 103.261719 611.574219 102.972656 611.285156 102.972656 610.925781 C 102.972656 610.566406 103.261719 610.277344 103.621094 610.277344 Z M 103.621094 610.277344 "/>
<path fill-rule="nonzero" d="M 103.621094 607.121094 L 106.777344 607.121094 C 107.132812 607.121094 107.425781 607.414062 107.425781 607.769531 C 107.425781 608.132812 107.132812 608.421875 106.777344 608.421875 L 103.621094 608.421875 C 103.261719 608.421875 102.972656 608.132812 102.972656 607.769531 C 102.972656 607.414062 103.261719 607.121094 103.621094 607.121094 Z M 103.621094 607.121094 "/>
<path fill-rule="nonzero" d="M 103.621094 603.78125 L 106.777344 603.78125 C 107.132812 603.78125 107.425781 604.074219 107.425781 604.429688 C 107.425781 604.789062 107.132812 605.082031 106.777344 605.082031 L 103.621094 605.082031 C 103.261719 605.082031 102.972656 604.789062 102.972656 604.429688 C 102.972656 604.074219 103.261719 603.78125 103.621094 603.78125 Z M 103.621094 603.78125 "/>
<path fill-rule="nonzero" d="M 103.621094 600.625 L 106.777344 600.625 C 107.132812 600.625 107.425781 600.917969 107.425781 601.277344 C 107.425781 601.636719 107.132812 601.925781 106.777344 601.925781 L 103.621094 601.925781 C 103.261719 601.925781 102.972656 601.636719 102.972656 601.277344 C 102.972656 600.917969 103.261719 600.625 103.621094 600.625 Z M 103.621094 600.625 "/>
<path fill-rule="nonzero" d="M 103.621094 597.285156 L 106.777344 597.285156 C 107.132812 597.285156 107.425781 597.578125 107.425781 597.9375 C 107.425781 598.296875 107.132812 598.585938 106.777344 598.585938 L 103.621094 598.585938 C 103.261719 598.585938 102.972656 598.296875 102.972656 597.9375 C 102.972656 597.578125 103.261719 597.285156 103.621094 597.285156 Z M 103.621094 597.285156 "/>
<path fill-rule="nonzero" d="M 103.621094 594.132812 L 106.777344 594.132812 C 107.132812 594.132812 107.425781 594.421875 107.425781 594.78125 C 107.425781 595.140625 107.132812 595.429688 106.777344 595.429688 L 103.621094 595.429688 C 103.261719 595.429688 102.972656 595.140625 102.972656 594.78125 C 102.972656 594.421875 103.261719 594.132812 103.621094 594.132812 Z M 103.621094 594.132812 "/>
<path fill-rule="nonzero" d="M 103.621094 590.792969 L 106.777344 590.792969 C 107.132812 590.792969 107.425781 591.082031 107.425781 591.441406 C 107.425781 591.800781 107.132812 592.089844 106.777344 592.089844 L 103.621094 592.089844 C 103.261719 592.089844 102.972656 591.800781 102.972656 591.441406 C 102.972656 591.082031 103.261719 590.792969 103.621094 590.792969 Z M 103.621094 590.792969 "/>
<path fill-rule="nonzero" d="M 100.464844 587.636719 L 106.777344 587.636719 C 107.132812 587.636719 107.425781 587.929688 107.425781 588.285156 C 107.425781 588.648438 107.132812 588.9375 106.777344 588.9375 L 100.464844 588.9375 C 100.105469 588.9375 99.816406 588.648438 99.816406 588.285156 C 99.816406 587.929688 100.105469 587.636719 100.464844 587.636719 Z M 100.464844 587.636719 "/>
<path fill-rule="nonzero" d="M 103.621094 584.296875 L 106.777344 584.296875 C 107.132812 584.296875 107.425781 584.589844 107.425781 584.945312 C 107.425781 585.308594 107.132812 585.597656 106.777344 585.597656 L 103.621094 585.597656 C 103.261719 585.597656 102.972656 585.308594 102.972656 584.945312 C 102.972656 584.589844 103.261719 584.296875 103.621094 584.296875 Z M 103.621094 584.296875 "/>
<path fill-rule="nonzero" d="M 103.621094 581.144531 L 106.777344 581.144531 C 107.132812 581.144531 107.425781 581.433594 107.425781 581.792969 C 107.425781 582.152344 107.132812 582.441406 106.777344 582.441406 L 103.621094 582.441406 C 103.261719 582.441406 102.972656 582.152344 102.972656 581.792969 C 102.972656 581.433594 103.261719 581.144531 103.621094 581.144531 Z M 103.621094 581.144531 "/>
<path fill-rule="nonzero" d="M 103.621094 577.988281 L 106.777344 577.988281 C 107.132812 577.988281 107.425781 578.28125 107.425781 578.636719 C 107.425781 578.996094 107.132812 579.289062 106.777344 579.289062 L 103.621094 579.289062 C 103.261719 579.289062 102.972656 578.996094 102.972656 578.636719 C 102.972656 578.28125 103.261719 577.988281 103.621094 577.988281 Z M 103.621094 577.988281 "/>
<path fill-rule="nonzero" d="M 103.621094 574.648438 L 106.777344 574.648438 C 107.132812 574.648438 107.425781 574.941406 107.425781 575.296875 C 107.425781 575.65625 107.132812 575.945312 106.777344 575.945312 L 103.621094 575.945312 C 103.261719 575.945312 102.972656 575.65625 102.972656 575.296875 C 102.972656 574.941406 103.261719 574.648438 103.621094 574.648438 Z M 103.621094 574.648438 "/>
<path fill-rule="nonzero" d="M 103.621094 571.492188 L 106.777344 571.492188 C 107.132812 571.492188 107.425781 571.785156 107.425781 572.144531 C 107.425781 572.503906 107.132812 572.792969 106.777344 572.792969 L 103.621094 572.792969 C 103.261719 572.792969 102.972656 572.503906 102.972656 572.144531 C 102.972656 571.785156 103.261719 571.492188 103.621094 571.492188 Z M 103.621094 571.492188 "/>
<path fill-rule="nonzero" d="M 103.621094 568.152344 L 106.777344 568.152344 C 107.132812 568.152344 107.425781 568.445312 107.425781 568.804688 C 107.425781 569.164062 107.132812 569.453125 106.777344 569.453125 L 103.621094 569.453125 C 103.261719 569.453125 102.972656 569.164062 102.972656 568.804688 C 102.972656 568.445312 103.261719 568.152344 103.621094 568.152344 Z M 103.621094 568.152344 "/>
<path fill-rule="nonzero" d="M 103.621094 565 L 106.777344 565 C 107.132812 565 107.425781 565.289062 107.425781 565.648438 C 107.425781 566.007812 107.132812 566.296875 106.777344 566.296875 L 103.621094 566.296875 C 103.261719 566.296875 102.972656 566.007812 102.972656 565.648438 C 102.972656 565.289062 103.261719 565 103.621094 565 Z M 103.621094 565 "/>
<path fill-rule="nonzero" d="M 103.621094 561.660156 L 106.777344 561.660156 C 107.132812 561.660156 107.425781 561.949219 107.425781 562.308594 C 107.425781 562.667969 107.132812 562.957031 106.777344 562.957031 L 103.621094 562.957031 C 103.261719 562.957031 102.972656 562.667969 102.972656 562.308594 C 102.972656 561.949219 103.261719 561.660156 103.621094 561.660156 Z M 103.621094 561.660156 "/>
<path fill-rule="nonzero" d="M 103.621094 558.503906 L 106.777344 558.503906 C 107.132812 558.503906 107.425781 558.796875 107.425781 559.152344 C 107.425781 559.515625 107.132812 559.804688 106.777344 559.804688 L 103.621094 559.804688 C 103.261719 559.804688 102.972656 559.515625 102.972656 559.152344 C 102.972656 558.796875 103.261719 558.503906 103.621094 558.503906 Z M 103.621094 558.503906 "/>
<path fill-rule="nonzero" d="M 100.464844 555.164062 L 106.777344 555.164062 C 107.132812 555.164062 107.425781 555.457031 107.425781 555.8125 C 107.425781 556.171875 107.132812 556.464844 106.777344 556.464844 L 100.464844 556.464844 C 100.105469 556.464844 99.816406 556.171875 99.816406 555.8125 C 99.816406 555.457031 100.105469 555.164062 100.464844 555.164062 Z M 100.464844 555.164062 "/>
<path fill-rule="nonzero" d="M 103.621094 552.007812 L 106.777344 552.007812 C 107.132812 552.007812 107.425781 552.300781 107.425781 552.660156 C 107.425781 553.019531 107.132812 553.308594 106.777344 553.308594 L 103.621094 553.308594 C 103.261719 553.308594 102.972656 553.019531 102.972656 552.660156 C 102.972656 552.300781 103.261719 552.007812 103.621094 552.007812 Z M 103.621094 552.007812 "/>
<path fill-rule="nonzero" d="M 103.621094 548.667969 L 106.777344 548.667969 C 107.132812 548.667969 107.425781 548.960938 107.425781 549.320312 C 107.425781 549.679688 107.132812 549.96875 106.777344 549.96875 L 103.621094 549.96875 C 103.261719 549.96875 102.972656 549.679688 102.972656 549.320312 C 102.972656 548.960938 103.261719 548.667969 103.621094 548.667969 Z M 103.621094 548.667969 "/>
<path fill-rule="nonzero" d="M 103.621094 545.515625 L 106.777344 545.515625 C 107.132812 545.515625 107.425781 545.804688 107.425781 546.164062 C 107.425781 546.523438 107.132812 546.8125 106.777344 546.8125 L 103.621094 546.8125 C 103.261719 546.8125 102.972656 546.523438 102.972656 546.164062 C 102.972656 545.804688 103.261719 545.515625 103.621094 545.515625 Z M 103.621094 545.515625 "/>
<path fill-rule="nonzero" d="M 103.621094 542.359375 L 106.777344 542.359375 C 107.132812 542.359375 107.425781 542.652344 107.425781 543.007812 C 107.425781 543.371094 107.132812 543.660156 106.777344 543.660156 L 103.621094 543.660156 C 103.261719 543.660156 102.972656 543.371094 102.972656 543.007812 C 102.972656 542.652344 103.261719 542.359375 103.621094 542.359375 Z M 103.621094 542.359375 "/>
<path fill-rule="nonzero" d="M 103.621094 539.019531 L 106.777344 539.019531 C 107.132812 539.019531 107.425781 539.3125 107.425781 539.667969 C 107.425781 540.03125 107.132812 540.320312 106.777344 540.320312 L 103.621094 540.320312 C 103.261719 540.320312 102.972656 540.03125 102.972656 539.667969 C 102.972656 539.3125 103.261719 539.019531 103.621094 539.019531 Z M 103.621094 539.019531 "/>
<path fill-rule="nonzero" d="M 103.621094 535.867188 L 106.777344 535.867188 C 107.132812 535.867188 107.425781 536.15625 107.425781 536.515625 C 107.425781 536.875 107.132812 537.164062 106.777344 537.164062 L 103.621094 537.164062 C 103.261719 537.164062 102.972656 536.875 102.972656 536.515625 C 102.972656 536.15625 103.261719 535.867188 103.621094 535.867188 Z M 103.621094 535.867188 "/>
<path fill-rule="nonzero" d="M 103.621094 532.527344 L 106.777344 532.527344 C 107.132812 532.527344 107.425781 532.816406 107.425781 533.175781 C 107.425781 533.535156 107.132812 533.824219 106.777344 533.824219 L 103.621094 533.824219 C 103.261719 533.824219 102.972656 533.535156 102.972656 533.175781 C 102.972656 532.816406 103.261719 532.527344 103.621094 532.527344 Z M 103.621094 532.527344 "/>
<path fill-rule="nonzero" d="M 103.621094 529.371094 L 106.777344 529.371094 C 107.132812 529.371094 107.425781 529.664062 107.425781 530.019531 C 107.425781 530.378906 107.132812 530.667969 106.777344 530.667969 L 103.621094 530.667969 C 103.261719 530.667969 102.972656 530.378906 102.972656 530.019531 C 102.972656 529.664062 103.261719 529.371094 103.621094 529.371094 Z M 103.621094 529.371094 "/>
<path fill-rule="nonzero" d="M 103.621094 526.03125 L 106.777344 526.03125 C 107.132812 526.03125 107.425781 526.320312 107.425781 526.679688 C 107.425781 527.039062 107.132812 527.328125 106.777344 527.328125 L 103.621094 527.328125 C 103.261719 527.328125 102.972656 527.039062 102.972656 526.679688 C 102.972656 526.320312 103.261719 526.03125 103.621094 526.03125 Z M 103.621094 526.03125 "/>
<path fill-rule="nonzero" d="M 100.464844 522.875 L 106.777344 522.875 C 107.132812 522.875 107.425781 523.167969 107.425781 523.527344 C 107.425781 523.886719 107.132812 524.175781 106.777344 524.175781 L 100.464844 524.175781 C 100.105469 524.175781 99.816406 523.886719 99.816406 523.527344 C 99.816406 523.167969 100.105469 522.875 100.464844 522.875 Z M 100.464844 522.875 "/>
<path fill-rule="nonzero" d="M 103.621094 519.535156 L 106.777344 519.535156 C 107.132812 519.535156 107.425781 519.828125 107.425781 520.1875 C 107.425781 520.546875 107.132812 520.835938 106.777344 520.835938 L 103.621094 520.835938 C 103.261719 520.835938 102.972656 520.546875 102.972656 520.1875 C 102.972656 519.828125 103.261719 519.535156 103.621094 519.535156 Z M 103.621094 519.535156 "/>
<path fill-rule="nonzero" d="M 103.621094 516.382812 L 106.777344 516.382812 C 107.132812 516.382812 107.425781 516.671875 107.425781 517.03125 C 107.425781 517.390625 107.132812 517.679688 106.777344 517.679688 L 103.621094 517.679688 C 103.261719 517.679688 102.972656 517.390625 102.972656 517.03125 C 102.972656 516.671875 103.261719 516.382812 103.621094 516.382812 Z M 103.621094 516.382812 "/>
<path fill-rule="nonzero" d="M 103.621094 513.042969 L 106.777344 513.042969 C 107.132812 513.042969 107.425781 513.332031 107.425781 513.691406 C 107.425781 514.050781 107.132812 514.339844 106.777344 514.339844 L 103.621094 514.339844 C 103.261719 514.339844 102.972656 514.050781 102.972656 513.691406 C 102.972656 513.332031 103.261719 513.042969 103.621094 513.042969 Z M 103.621094 513.042969 "/>
<path fill-rule="nonzero" d="M 103.621094 509.886719 L 106.777344 509.886719 C 107.132812 509.886719 107.425781 510.179688 107.425781 510.535156 C 107.425781 510.894531 107.132812 511.1875 106.777344 511.1875 L 103.621094 511.1875 C 103.261719 511.1875 102.972656 510.894531 102.972656 510.535156 C 102.972656 510.179688 103.261719 509.886719 103.621094 509.886719 Z M 103.621094 509.886719 "/>
<path fill-rule="nonzero" d="M 103.621094 506.730469 L 106.777344 506.730469 C 107.132812 506.730469 107.425781 507.023438 107.425781 507.382812 C 107.425781 507.742188 107.132812 508.03125 106.777344 508.03125 L 103.621094 508.03125 C 103.261719 508.03125 102.972656 507.742188 102.972656 507.382812 C 102.972656 507.023438 103.261719 506.730469 103.621094 506.730469 Z M 103.621094 506.730469 "/>
<path fill-rule="nonzero" d="M 103.621094 503.390625 L 106.777344 503.390625 C 107.132812 503.390625 107.425781 503.683594 107.425781 504.042969 C 107.425781 504.402344 107.132812 504.691406 106.777344 504.691406 L 103.621094 504.691406 C 103.261719 504.691406 102.972656 504.402344 102.972656 504.042969 C 102.972656 503.683594 103.261719 503.390625 103.621094 503.390625 Z M 103.621094 503.390625 "/>
<path fill-rule="nonzero" d="M 103.621094 500.238281 L 106.777344 500.238281 C 107.132812 500.238281 107.425781 500.527344 107.425781 500.886719 C 107.425781 501.246094 107.132812 501.535156 106.777344 501.535156 L 103.621094 501.535156 C 103.261719 501.535156 102.972656 501.246094 102.972656 500.886719 C 102.972656 500.527344 103.261719 500.238281 103.621094 500.238281 Z M 103.621094 500.238281 "/>
<path fill-rule="nonzero" d="M 103.621094 496.898438 L 106.777344 496.898438 C 107.132812 496.898438 107.425781 497.1875 107.425781 497.546875 C 107.425781 497.90625 107.132812 498.195312 106.777344 498.195312 L 103.621094 498.195312 C 103.261719 498.195312 102.972656 497.90625 102.972656 497.546875 C 102.972656 497.1875 103.261719 496.898438 103.621094 496.898438 Z M 103.621094 496.898438 "/>
<path fill-rule="nonzero" d="M 103.621094 493.742188 L 106.777344 493.742188 C 107.132812 493.742188 107.425781 494.035156 107.425781 494.390625 C 107.425781 494.753906 107.132812 495.042969 106.777344 495.042969 L 103.621094 495.042969 C 103.261719 495.042969 102.972656 494.753906 102.972656 494.390625 C 102.972656 494.035156 103.261719 493.742188 103.621094 493.742188 Z M 103.621094 493.742188 "/>
<path fill-rule="nonzero" d="M 100.464844 490.402344 L 106.777344 490.402344 C 107.132812 490.402344 107.425781 490.695312 107.425781 491.050781 C 107.425781 491.414062 107.132812 491.703125 106.777344 491.703125 L 100.464844 491.703125 C 100.105469 491.703125 99.816406 491.414062 99.816406 491.050781 C 99.816406 490.695312 100.105469 490.402344 100.464844 490.402344 Z M 100.464844 490.402344 "/>
<path fill-rule="nonzero" d="M 103.621094 487.25 L 106.777344 487.25 C 107.132812 487.25 107.425781 487.539062 107.425781 487.898438 C 107.425781 488.257812 107.132812 488.546875 106.777344 488.546875 L 103.621094 488.546875 C 103.261719 488.546875 102.972656 488.257812 102.972656 487.898438 C 102.972656 487.539062 103.261719 487.25 103.621094 487.25 Z M 103.621094 487.25 "/>
<path fill-rule="nonzero" d="M 103.621094 483.90625 L 106.777344 483.90625 C 107.132812 483.90625 107.425781 484.199219 107.425781 484.558594 C 107.425781 484.917969 107.132812 485.207031 106.777344 485.207031 L 103.621094 485.207031 C 103.261719 485.207031 102.972656 484.917969 102.972656 484.558594 C 102.972656 484.199219 103.261719 483.90625 103.621094 483.90625 Z M 103.621094 483.90625 "/>
<path fill-rule="nonzero" d="M 103.621094 480.753906 L 106.777344 480.753906 C 107.132812 480.753906 107.425781 481.042969 107.425781 481.402344 C 107.425781 481.761719 107.132812 482.050781 106.777344 482.050781 L 103.621094 482.050781 C 103.261719 482.050781 102.972656 481.761719 102.972656 481.402344 C 102.972656 481.042969 103.261719 480.753906 103.621094 480.753906 Z M 103.621094 480.753906 "/>
<path fill-rule="nonzero" d="M 103.621094 477.597656 L 106.777344 477.597656 C 107.132812 477.597656 107.425781 477.890625 107.425781 478.25 C 107.425781 478.609375 107.132812 478.898438 106.777344 478.898438 L 103.621094 478.898438 C 103.261719 478.898438 102.972656 478.609375 102.972656 478.25 C 102.972656 477.890625 103.261719 477.597656 103.621094 477.597656 Z M 103.621094 477.597656 "/>
<path fill-rule="nonzero" d="M 103.621094 474.257812 L 106.777344 474.257812 C 107.132812 474.257812 107.425781 474.550781 107.425781 474.910156 C 107.425781 475.269531 107.132812 475.558594 106.777344 475.558594 L 103.621094 475.558594 C 103.261719 475.558594 102.972656 475.269531 102.972656 474.910156 C 102.972656 474.550781 103.261719 474.257812 103.621094 474.257812 Z M 103.621094 474.257812 "/>
<path fill-rule="nonzero" d="M 103.621094 471.105469 L 106.777344 471.105469 C 107.132812 471.105469 107.425781 471.394531 107.425781 471.753906 C 107.425781 472.113281 107.132812 472.402344 106.777344 472.402344 L 103.621094 472.402344 C 103.261719 472.402344 102.972656 472.113281 102.972656 471.753906 C 102.972656 471.394531 103.261719 471.105469 103.621094 471.105469 Z M 103.621094 471.105469 "/>
<path fill-rule="nonzero" d="M 103.621094 467.765625 L 106.777344 467.765625 C 107.132812 467.765625 107.425781 468.054688 107.425781 468.414062 C 107.425781 468.773438 107.132812 469.0625 106.777344 469.0625 L 103.621094 469.0625 C 103.261719 469.0625 102.972656 468.773438 102.972656 468.414062 C 102.972656 468.054688 103.261719 467.765625 103.621094 467.765625 Z M 103.621094 467.765625 "/>
<path fill-rule="nonzero" d="M 103.621094 464.609375 L 106.777344 464.609375 C 107.132812 464.609375 107.425781 464.902344 107.425781 465.257812 C 107.425781 465.617188 107.132812 465.910156 106.777344 465.910156 L 103.621094 465.910156 C 103.261719 465.910156 102.972656 465.617188 102.972656 465.257812 C 102.972656 464.902344 103.261719 464.609375 103.621094 464.609375 Z M 103.621094 464.609375 "/>
<path fill-rule="nonzero" d="M 103.621094 461.269531 L 106.777344 461.269531 C 107.132812 461.269531 107.425781 461.5625 107.425781 461.917969 C 107.425781 462.277344 107.132812 462.570312 106.777344 462.570312 L 103.621094 462.570312 C 103.261719 462.570312 102.972656 462.277344 102.972656 461.917969 C 102.972656 461.5625 103.261719 461.269531 103.621094 461.269531 Z M 103.621094 461.269531 "/>
<path fill-rule="nonzero" d="M 100.464844 458.113281 L 106.777344 458.113281 C 107.132812 458.113281 107.425781 458.40625 107.425781 458.765625 C 107.425781 459.125 107.132812 459.414062 106.777344 459.414062 L 100.464844 459.414062 C 100.105469 459.414062 99.816406 459.125 99.816406 458.765625 C 99.816406 458.40625 100.105469 458.113281 100.464844 458.113281 Z M 100.464844 458.113281 "/>
<path fill-rule="nonzero" d="M 103.621094 454.773438 L 106.777344 454.773438 C 107.132812 454.773438 107.425781 455.066406 107.425781 455.425781 C 107.425781 455.785156 107.132812 456.074219 106.777344 456.074219 L 103.621094 456.074219 C 103.261719 456.074219 102.972656 455.785156 102.972656 455.425781 C 102.972656 455.066406 103.261719 454.773438 103.621094 454.773438 Z M 103.621094 454.773438 "/>
<path fill-rule="nonzero" d="M 103.621094 451.621094 L 106.777344 451.621094 C 107.132812 451.621094 107.425781 451.910156 107.425781 452.269531 C 107.425781 452.628906 107.132812 452.917969 106.777344 452.917969 L 103.621094 452.917969 C 103.261719 452.917969 102.972656 452.628906 102.972656 452.269531 C 102.972656 451.910156 103.261719 451.621094 103.621094 451.621094 Z M 103.621094 451.621094 "/>
<path fill-rule="nonzero" d="M 103.621094 448.28125 L 106.777344 448.28125 C 107.132812 448.28125 107.425781 448.570312 107.425781 448.929688 C 107.425781 449.289062 107.132812 449.578125 106.777344 449.578125 L 103.621094 449.578125 C 103.261719 449.578125 102.972656 449.289062 102.972656 448.929688 C 102.972656 448.570312 103.261719 448.28125 103.621094 448.28125 Z M 103.621094 448.28125 "/>
<path fill-rule="nonzero" d="M 103.621094 445.125 L 106.777344 445.125 C 107.132812 445.125 107.425781 445.417969 107.425781 445.773438 C 107.425781 446.136719 107.132812 446.425781 106.777344 446.425781 L 103.621094 446.425781 C 103.261719 446.425781 102.972656 446.136719 102.972656 445.773438 C 102.972656 445.417969 103.261719 445.125 103.621094 445.125 Z M 103.621094 445.125 "/>
<path fill-rule="nonzero" d="M 103.621094 441.972656 L 106.777344 441.972656 C 107.132812 441.972656 107.425781 442.261719 107.425781 442.621094 C 107.425781 442.980469 107.132812 443.269531 106.777344 443.269531 L 103.621094 443.269531 C 103.261719 443.269531 102.972656 442.980469 102.972656 442.621094 C 102.972656 442.261719 103.261719 441.972656 103.621094 441.972656 Z M 103.621094 441.972656 "/>
<path fill-rule="nonzero" d="M 103.621094 438.628906 L 106.777344 438.628906 C 107.132812 438.628906 107.425781 438.921875 107.425781 439.28125 C 107.425781 439.640625 107.132812 439.929688 106.777344 439.929688 L 103.621094 439.929688 C 103.261719 439.929688 102.972656 439.640625 102.972656 439.28125 C 102.972656 438.921875 103.261719 438.628906 103.621094 438.628906 Z M 103.621094 438.628906 "/>
<path fill-rule="nonzero" d="M 103.621094 435.476562 L 106.777344 435.476562 C 107.132812 435.476562 107.425781 435.765625 107.425781 436.125 C 107.425781 436.484375 107.132812 436.773438 106.777344 436.773438 L 103.621094 436.773438 C 103.261719 436.773438 102.972656 436.484375 102.972656 436.125 C 102.972656 435.765625 103.261719 435.476562 103.621094 435.476562 Z M 103.621094 435.476562 "/>
<path fill-rule="nonzero" d="M 103.621094 432.136719 L 106.777344 432.136719 C 107.132812 432.136719 107.425781 432.425781 107.425781 432.785156 C 107.425781 433.144531 107.132812 433.433594 106.777344 433.433594 L 103.621094 433.433594 C 103.261719 433.433594 102.972656 433.144531 102.972656 432.785156 C 102.972656 432.425781 103.261719 432.136719 103.621094 432.136719 Z M 103.621094 432.136719 "/>
<path fill-rule="nonzero" d="M 103.621094 428.980469 L 106.777344 428.980469 C 107.132812 428.980469 107.425781 429.273438 107.425781 429.632812 C 107.425781 429.992188 107.132812 430.28125 106.777344 430.28125 L 103.621094 430.28125 C 103.261719 430.28125 102.972656 429.992188 102.972656 429.632812 C 102.972656 429.273438 103.261719 428.980469 103.621094 428.980469 Z M 103.621094 428.980469 "/>
<path fill-rule="nonzero" d="M 100.464844 425.640625 L 106.777344 425.640625 C 107.132812 425.640625 107.425781 425.933594 107.425781 426.289062 C 107.425781 426.652344 107.132812 426.941406 106.777344 426.941406 L 100.464844 426.941406 C 100.105469 426.941406 99.816406 426.652344 99.816406 426.289062 C 99.816406 425.933594 100.105469 425.640625 100.464844 425.640625 Z M 100.464844 425.640625 "/>
<path fill-rule="nonzero" d="M 103.621094 422.488281 L 106.777344 422.488281 C 107.132812 422.488281 107.425781 422.777344 107.425781 423.136719 C 107.425781 423.496094 107.132812 423.785156 106.777344 423.785156 L 103.621094 423.785156 C 103.261719 423.785156 102.972656 423.496094 102.972656 423.136719 C 102.972656 422.777344 103.261719 422.488281 103.621094 422.488281 Z M 103.621094 422.488281 "/>
<path fill-rule="nonzero" d="M 103.621094 419.148438 L 106.777344 419.148438 C 107.132812 419.148438 107.425781 419.4375 107.425781 419.796875 C 107.425781 420.15625 107.132812 420.445312 106.777344 420.445312 L 103.621094 420.445312 C 103.261719 420.445312 102.972656 420.15625 102.972656 419.796875 C 102.972656 419.4375 103.261719 419.148438 103.621094 419.148438 Z M 103.621094 419.148438 "/>
<path fill-rule="nonzero" d="M 103.621094 415.992188 L 106.777344 415.992188 C 107.132812 415.992188 107.425781 416.285156 107.425781 416.640625 C 107.425781 417 107.132812 417.292969 106.777344 417.292969 L 103.621094 417.292969 C 103.261719 417.292969 102.972656 417 102.972656 416.640625 C 102.972656 416.285156 103.261719 415.992188 103.621094 415.992188 Z M 103.621094 415.992188 "/>
<path fill-rule="nonzero" d="M 103.621094 412.652344 L 106.777344 412.652344 C 107.132812 412.652344 107.425781 412.941406 107.425781 413.300781 C 107.425781 413.660156 107.132812 413.949219 106.777344 413.949219 L 103.621094 413.949219 C 103.261719 413.949219 102.972656 413.660156 102.972656 413.300781 C 102.972656 412.941406 103.261719 412.652344 103.621094 412.652344 Z M 103.621094 412.652344 "/>
<path fill-rule="nonzero" d="M 103.621094 409.496094 L 106.777344 409.496094 C 107.132812 409.496094 107.425781 409.789062 107.425781 410.148438 C 107.425781 410.507812 107.132812 410.796875 106.777344 410.796875 L 103.621094 410.796875 C 103.261719 410.796875 102.972656 410.507812 102.972656 410.148438 C 102.972656 409.789062 103.261719 409.496094 103.621094 409.496094 Z M 103.621094 409.496094 "/>
<path fill-rule="nonzero" d="M 103.621094 406.34375 L 106.777344 406.34375 C 107.132812 406.34375 107.425781 406.632812 107.425781 406.992188 C 107.425781 407.351562 107.132812 407.640625 106.777344 407.640625 L 103.621094 407.640625 C 103.261719 407.640625 102.972656 407.351562 102.972656 406.992188 C 102.972656 406.632812 103.261719 406.34375 103.621094 406.34375 Z M 103.621094 406.34375 "/>
<path fill-rule="nonzero" d="M 103.621094 403.003906 L 106.777344 403.003906 C 107.132812 403.003906 107.425781 403.292969 107.425781 403.652344 C 107.425781 404.011719 107.132812 404.300781 106.777344 404.300781 L 103.621094 404.300781 C 103.261719 404.300781 102.972656 404.011719 102.972656 403.652344 C 102.972656 403.292969 103.261719 403.003906 103.621094 403.003906 Z M 103.621094 403.003906 "/>
<path fill-rule="nonzero" d="M 103.621094 399.847656 L 106.777344 399.847656 C 107.132812 399.847656 107.425781 400.140625 107.425781 400.496094 C 107.425781 400.859375 107.132812 401.148438 106.777344 401.148438 L 103.621094 401.148438 C 103.261719 401.148438 102.972656 400.859375 102.972656 400.496094 C 102.972656 400.140625 103.261719 399.847656 103.621094 399.847656 Z M 103.621094 399.847656 "/>
<path fill-rule="nonzero" d="M 103.621094 396.507812 L 106.777344 396.507812 C 107.132812 396.507812 107.425781 396.800781 107.425781 397.15625 C 107.425781 397.515625 107.132812 397.808594 106.777344 397.808594 L 103.621094 397.808594 C 103.261719 397.808594 102.972656 397.515625 102.972656 397.15625 C 102.972656 396.800781 103.261719 396.507812 103.621094 396.507812 Z M 103.621094 396.507812 "/>
<path fill-rule="nonzero" d="M 100.464844 393.351562 L 106.777344 393.351562 C 107.132812 393.351562 107.425781 393.644531 107.425781 394.003906 C 107.425781 394.363281 107.132812 394.652344 106.777344 394.652344 L 100.464844 394.652344 C 100.105469 394.652344 99.816406 394.363281 99.816406 394.003906 C 99.816406 393.644531 100.105469 393.351562 100.464844 393.351562 Z M 100.464844 393.351562 "/>
<path fill-rule="nonzero" d="M 106.125 717.808594 L 106.125 393.632812 C 106.125 393.273438 106.417969 392.980469 106.777344 392.980469 C 107.132812 392.980469 107.425781 393.273438 107.425781 393.632812 L 107.425781 717.808594 C 107.425781 718.167969 107.132812 718.460938 106.777344 718.460938 C 106.417969 718.460938 106.125 718.167969 106.125 717.808594 Z M 106.125 717.808594 "/>
</svg>