<svg xmlns="http://www.w3.org/2000/svg" xmlns:xlink="http://www.w3.org/1999/xlink" width="595.32" height="842.04" viewBox="0 0 595.32 842.04">
  <defs>
    <path id="c" d="M2.9-3.64h2.18c.81 0 1.17.33 1.17 1.08v.39l-.02.6c0 .87.05 1.13.29 1.57h2.03v-.34c-.3-.16-.4-.35-.4-.75-.06-2.7-.1-2.83-1.28-3.35A2.2 2.2 0 0 0 8.43-6.7c0-.74-.25-1.4-.7-1.85q-.6-.64-1.77-.64H1.02V0H2.9Zm0-1.58V-7.6h2.3c.54 0 .76.05 1 .24q.34.3.34.93c0 .44-.12.8-.34.99-.22.17-.46.23-1 .23Zm0 0"/>
    <path id="e" d="M6.73-5.17H.63v1.5h6.1Zm0 3.01H.63v1.5h6.1Zm0 0"/>
    <path id="i" d="M3-6.16V0h1.77v-8.92H3.59Q3.2-7.33.86-7.32v1.16Zm0 0"/>
    <path id="j" d="M6.47-1.58H2.66c.25-.47.53-.73 1.84-1.69 1.55-1.12 2-1.8 2-3.01 0-1.74-1.2-2.84-3.06-2.84S.5-8.02.5-6.14v.33h1.7v-.3c0-1 .46-1.58 1.27-1.58.78 0 1.26.55 1.26 1.44 0 1-.3 1.36-2.3 2.78C.94-2.44.46-1.66.38 0h6.1Zm0 0"/>
    <path id="l" d="M5.16-4.86c.3-.17.45-.25.59-.37.36-.35.58-.9.58-1.47 0-1.4-1.22-2.42-2.88-2.42C1.8-9.12.58-8.1.58-6.7c0 .86.36 1.4 1.17 1.83C.7-4.3.28-3.62.28-2.56.28-.87 1.58.3 3.45.3 5.33.3 6.63-.87 6.63-2.56c0-1.06-.43-1.74-1.47-2.3m-1.7-2.83c.79 0 1.34.47 1.34 1.16s-.57 1.17-1.33 1.17c-.8 0-1.33-.47-1.33-1.17 0-.69.53-1.16 1.33-1.16m0 3.53c.85 0 1.4.58 1.4 1.52 0 .86-.55 1.42-1.4 1.42-.87 0-1.41-.56-1.41-1.45 0-.9.54-1.49 1.4-1.49m0 0"/>
    <path id="d" d="M1.42-2.92V0h.85v-4.23H1.7q-.19.75-1.3.76v.55Zm0 0"/>
    <path id="h" d="M1.3-1.9c.32 0 .34 0 .5.06q.44.12.45.62c0 .38-.27.64-.62.64q-.6-.01-.65-.65h-.8C.17-.4.72.14 1.6.14c.89 0 1.48-.53 1.48-1.36 0-.5-.21-.81-.7-1.05.4-.25.56-.51.56-.9 0-.7-.53-1.16-1.34-1.16-.63 0-1.1.28-1.28.74-.08.2-.1.34-.1.68H1c.02-.21.03-.32.08-.43q.13-.3.5-.3.52.01.53.55 0 .64-.73.64H1.3Zm0 0"/>
    <path id="k" d="M3.06-.75h-1.8c.12-.22.26-.34.87-.8.73-.53.95-.86.95-1.43 0-.82-.56-1.35-1.45-1.35S.23-3.8.23-2.9v.16h.82v-.14c0-.47.22-.75.6-.75.37 0 .6.25.6.69 0 .47-.16.64-1.1 1.3-.7.5-.92.87-.97 1.64h2.9Zm0 0"/>
    <path id="f" d="m6.4-6.81-1.67.18q-.06-.51-.32-.75a1 1 0 0 0-.68-.25q-.55 0-.93.5-.37.49-.47 2.04.66-.77 1.6-.77 1.1 0 1.87.83.78.83.78 2.12 0 1.4-.83 2.24-.8.83-2.08.83Q2.3.16 1.41-.91.53-1.96.53-4.39q0-2.47.92-3.56a3 3 0 0 1 2.4-1.1q1.02 0 1.7.58.66.57.86 1.66M2.49-3.03q0 .84.38 1.3.38.45.89.45a1 1 0 0 0 .8-.38q.33-.37.33-1.23 0-.87-.35-1.28-.34-.4-.86-.4-.5 0-.84.38-.35.4-.35 1.16m0 0"/>
    <path id="g" d="M.6 0v-1.52h1.76A5.2 5.2 0 0 1 .75-5.14q0-1.7 1.14-2.86a4.3 4.3 0 0 1 3.17-1.17q1.98 0 3.14 1.15a4 4 0 0 1 1.18 2.88q0 1.94-1.61 3.62h1.75V0H5.38v-1.45q1.04-.4 1.57-1.25a4 4 0 0 0 .53-2q0-1.16-.6-2.03a2.1 2.1 0 0 0-1.82-.88q-1.2 0-1.83.88-.6.86-.6 2.03 0 1.14.53 2 .54.86 1.57 1.25V0Zm0 0"/>
    <path id="o" d="M8.31-2.44 9.11 0h2.56L7.48-12.08H4.73L.43 0h2.54l.81-2.44ZM7.64-4.5H4.48l1.58-4.72Zm0 0"/>
    <path id="q" d="m6.6 0 4.13-12.08h-2.5L5.6-2.98l-2.68-9.1H.39L4.5 0Zm0 0"/>
    <clipPath id="a">
      <path d="M186.1 95H258v98h-71.9Zm0 0"/>
    </clipPath>
    <clipPath id="b">
      <path d="M186.1 116H296v133.63H186.1Zm0 0"/>
    </clipPath>
    <clipPath id="m">
      <path d="M276 205h3v44.63h-3Zm0 0"/>
    </clipPath>
    <clipPath id="n">
      <path d="M299 186h81v63.63h-81Zm0 0"/>
    </clipPath>
    <clipPath id="p">
      <path d="M215 71.88h82V127h-82Zm0 0"/>
    </clipPath>
  </defs>
  <path fill="none" stroke="#221f20" stroke-miterlimit="10" stroke-width="2.13" d="M46.7 126.37h57.74v16.84H46.7Zm102.27-21.75h57.72v16.86h-57.72ZM46.7 83.05h57.74V99.9H46.7Zm0 0" transform="matrix(.93418 0 0 -.932 186.1 249.63)"/>
  <g clip-path="url(#a)">
    <path fill="none" stroke="#221f20" stroke-miterlimit="10" stroke-width="2.13" d="M46.7 91.45H24.46v43.21l22.24.14" transform="matrix(.93418 0 0 -.932 186.1 249.63)"/>
  </g>
  <path fill="none" stroke="#221f20" stroke-miterlimit="10" stroke-width="2.13" d="M104.6 91.45h22.25v43.21l-22.26.14" transform="matrix(.93418 0 0 -.932 186.1 249.63)"/>
  <g clip-path="url(#b)">
    <path fill="none" stroke="#221f20" stroke-miterlimit="10" stroke-width="2.13" d="m24.46 113.13-22.31-.05v-89.1H86.7" transform="matrix(.93418 0 0 -.932 186.1 249.63)"/>
  </g>
  <path fill="none" stroke="#221f20" stroke-miterlimit="10" stroke-width="2.13" d="M126.85 113.13h22.24" transform="matrix(.93418 0 0 -.932 186.1 249.63)"/>
  <use xlink:href="#c" x="237.85" y="128.2" fill="#221f20"/>
  <use xlink:href="#d" x="247.14" y="130.18" fill="#221f20"/>
  <use xlink:href="#e" x="250.45" y="128.2" fill="#221f20"/>
  <g fill="#221f20">
    <use xlink:href="#f" x="257.75" y="128.2"/>
    <use xlink:href="#g" x="265.06" y="128.2"/>
  </g>
  <use xlink:href="#c" x="330.74" y="148.08" fill="#221f20"/>
  <use xlink:href="#h" x="339.37" y="150.72" fill="#221f20"/>
  <use xlink:href="#e" x="343.36" y="148.08" fill="#221f20"/>
  <use xlink:href="#i" x="350.67" y="148.08" fill="#221f20"/>
  <use xlink:href="#j" x="357.96" y="148.08" fill="#221f20"/>
  <use xlink:href="#g" x="364.59" y="148.08" fill="#221f20"/>
  <use xlink:href="#c" x="235.2" y="168.63" fill="#221f20"/>
  <use xlink:href="#k" x="243.83" y="171.27" fill="#221f20"/>
  <use xlink:href="#e" x="247.14" y="168.63" fill="#221f20"/>
  <use xlink:href="#i" x="254.45" y="168.63" fill="#221f20"/>
  <use xlink:href="#l" x="261.74" y="168.63" fill="#221f20"/>
  <use xlink:href="#g" x="269.03" y="168.63" fill="#221f20"/>
  <path fill="none" stroke="#221f20" stroke-miterlimit="10" stroke-width="2.13" d="M97.99 23.98h53M86.7 12.62v22.7" transform="matrix(.93418 0 0 -.932 186.1 249.63)"/>
  <g clip-path="url(#m)">
    <path fill="none" stroke="#221f20" stroke-miterlimit="10" stroke-width="2.13" d="M97.99 1.14V46.8" transform="matrix(.93418 0 0 -.932 186.1 249.63)"/>
  </g>
  <path fill="none" stroke="#221f20" stroke-miterlimit="10" stroke-width="2.13" d="M215.58 113.08h-8.9" transform="matrix(.93418 0 0 -.932 186.1 249.63)"/>
  <g clip-path="url(#n)">
    <path fill="none" stroke="#221f20" stroke-miterlimit="10" stroke-width="2.13" d="M164.21 10.71a13.25 13.25 0 1 1 0 26.49 13.25 13.25 0 0 1 0-26.49Zm0 0" transform="matrix(.93418 0 0 -.932 186.1 249.63)"/>
  </g>
  <path fill="none" stroke="#221f20" stroke-miterlimit="10" stroke-width="2.13" d="M177.46 23.98h58.52v89.1h-20.4" transform="matrix(.93418 0 0 -.932 186.1 249.63)"/>
  <use xlink:href="#o" x="334.07" y="233.56" fill="#221f20"/>
  <path fill="none" stroke="#221f20" stroke-miterlimit="10" stroke-width="2.13" d="M36.41 134.71v40.61H62m26.43 0h25.62v-40.7" transform="matrix(.93418 0 0 -.932 186.1 249.63)"/>
  <g clip-path="url(#p)">
    <path fill="none" stroke="#221f20" stroke-miterlimit="10" stroke-width="2.13" d="M75.24 162.08a13.24 13.24 0 0 1 0 26.48 13.25 13.25 0 0 1 0-26.48Zm0 0" transform="matrix(.93418 0 0 -.932 186.1 249.63)"/>
  </g>
  <use xlink:href="#q" x="251.11" y="92.43" fill="#221f20"/>
</svg>
