<svg xmlns="http://www.w3.org/2000/svg" xmlns:xlink="http://www.w3.org/1999/xlink" width="595.28" height="841.89" viewBox="0 0 595.28 841.89">
  <defs>
    <path id="g" d="M2.56-6.8c0-.01 0-.1-.12-.1-.24 0-.96.07-1.22.09-.08.01-.19.03-.19.22 0 .1.11.1.25.1.49 0 .49.08.49.18l-.04.18-1.25 5a1 1 0 0 0-.04.33c0 .58.44.92.9.92q.5-.01.75-.56a5 5 0 0 0 .3-.97c0-.1-.1-.1-.12-.1-.1 0-.11.04-.15.18-.17.64-.35 1.23-.75 1.23-.3 0-.3-.31-.3-.45 0-.25 0-.3.07-.49Zm0 0"/>
    <path id="j" d="M6.25-5.66c.48-.78.9-.8 1.28-.82.11-.02.13-.2.13-.2q0-.13-.13-.12l-.83.03-.98-.03c-.06 0-.19 0-.19.2 0 .1.1.12.16.12.28.01.47.1.47.32 0 .14-.16.36-.16.38L2.95-.92 2.27-6.2c0-.17.23-.3.68-.3.14 0 .25 0 .25-.2 0-.1-.08-.1-.14-.1l-1.23.02-.55-.01-.53-.02c-.08 0-.19 0-.19.2 0 .12.08.12.25.12.55 0 .56.07.6.32l.78 6.14c.03.2.08.24.2.24.16 0 .2-.05.28-.17Zm0 0"/>
    <path id="h" d="M3.52-1.27h-.24c-.01.16-.1.57-.19.63-.04.05-.57.05-.68.05H1.13c.73-.64.98-.85 1.39-1.18.51-.4 1-.84 1-1.5 0-.84-.74-1.35-1.63-1.35-.86 0-1.45.6-1.45 1.25 0 .34.3.39.37.39.16 0 .36-.13.36-.38 0-.12-.04-.37-.4-.37a1.1 1.1 0 0 1 1.01-.64c.7 0 1.06.54 1.06 1.1 0 .61-.43 1.08-.65 1.33L.52-.27C.44-.2.44-.19.44 0H3.3Zm0 0"/>
    <path id="i" d="M2.33-4.44c0-.18 0-.18-.2-.18-.46.43-1.08.43-1.36.43v.25c.15 0 .62 0 1-.19v3.55c0 .24 0 .33-.7.33H.82V0l1.24-.03L3.3 0v-.25h-.27c-.7 0-.7-.1-.7-.33Zm0 0"/>
    <path id="n" d="M3.33-3c.06-.27.28-1.19.98-1.19.05 0 .28 0 .5.14-.28.05-.48.3-.48.53 0 .16.1.35.37.35.22 0 .55-.17.55-.58 0-.52-.6-.66-.94-.66-.56 0-.92.54-1.03.77-.25-.66-.8-.77-1.08-.77C1.17-4.4.6-3.1.6-2.86c0 .1.1.1.12.1q.1.01.12-.12c.35-1.06 1-1.3 1.35-1.3.19 0 .53.09.53.66 0 .32-.17.99-.53 2.38-.17.6-.52 1.03-.96 1.03-.06 0-.28 0-.5-.12a.6.6 0 0 0 .47-.55c0-.27-.22-.34-.36-.34a.57.57 0 0 0-.56.57c0 .46.5.66.94.66.66 0 1.01-.7 1.05-.75.12.36.48.75 1.07.75 1.04 0 1.6-1.28 1.6-1.53 0-.1-.1-.1-.13-.1q-.1 0-.12.11c-.33 1.07-1 1.3-1.33 1.3-.4 0-.55-.31-.55-.66 0-.21.06-.43.17-.87Zm0 0"/>
    <path id="o" d="M6.84-3.25c.14 0 .33 0 .33-.2s-.19-.2-.33-.2H.9c-.14 0-.33 0-.33.2s.19.2.33.2Zm0 1.92c.14 0 .33 0 .33-.19 0-.2-.19-.2-.33-.2H.9c-.14 0-.33 0-.33.2s.19.2.33.2Zm0 0"/>
    <path id="p" d="M2.34-2.48c0-1.25.96-1.96 1.32-2.22.26-.2.46-.55.46-.97 0-.58-.39-1.35-1.87-1.35-1.08 0-1.69.68-1.69 1.33 0 .33.22.47.46.47.28 0 .45-.2.45-.45 0-.46-.4-.46-.55-.46.3-.53.88-.67 1.3-.67 1.08 0 1.08.67 1.08 1.07 0 .59-.16.76-.33.95a3.4 3.4 0 0 0-.88 2.23v.46c0 .17 0 .23.11.23.14 0 .14-.1.14-.26Zm.4 1.95a.54.54 0 0 0-.54-.53.53.53 0 0 0-.51.53.52.52 0 1 0 1.04 0m0 0"/>
    <path id="q" d="M1.27-.77 2.3-1.8c1.57-1.37 2.16-1.9 2.16-2.9 0-1.13-.9-1.92-2.11-1.92-1.13 0-1.86.9-1.86 1.8 0 .55.5.55.53.55.16 0 .52-.12.52-.53a.5.5 0 0 0-.53-.51H.89c.22-.64.77-1 1.34-1 .91 0 1.33.8 1.33 1.6s-.5 1.6-1.04 2.21L.6-.37C.5-.28.5-.23.5 0h3.69l.28-1.73h-.25c-.05.3-.13.73-.22.89-.06.07-.72.07-.94.07Zm0 0"/>
    <path id="r" d="M2.92-6.37c0-.24 0-.25-.22-.25-.62.64-1.5.64-1.8.64v.3c.18 0 .77 0 1.29-.26v5.16c0 .36-.03.47-.92.47H.95V0c.35-.03 1.2-.03 1.61-.03.4 0 1.27 0 1.61.03v-.31h-.31c-.9 0-.94-.11-.94-.47Zm0 0"/>
    <path id="s" d="M2.9-3.5c.8-.27 1.38-.97 1.38-1.75 0-.83-.87-1.37-1.83-1.37C1.44-6.62.7-6.03.7-5.28c0 .33.22.53.5.53a.5.5 0 0 0 .51-.52c0-.5-.47-.5-.62-.5.31-.48.97-.6 1.33-.6.4 0 .95.21.95 1.1 0 .13-.02.7-.28 1.14a1 1 0 0 1-.88.52l-.39.03q-.13-.01-.15.11c0 .11.07.11.25.11h.43c.82 0 1.18.69 1.18 1.66 0 1.36-.68 1.64-1.11 1.64S1.2-.23.88-.81c.34.04.65-.17.65-.55a.54.54 0 0 0-.56-.56c-.24 0-.55.14-.55.58 0 .9.92 1.56 2 1.56 1.22 0 2.13-.9 2.13-1.92 0-.82-.63-1.6-1.66-1.8m0 0"/>
    <clipPath id="k">
      <path d="M327.25 386.11h48.82v3.94h-48.82Zm0 0"/>
    </clipPath>
    <clipPath id="c">
      <path d="M0 0h5v5H0Zm0 0"/>
    </clipPath>
    <clipPath id="d">
      <path d="M0 2h3v3H0Zm0 0"/>
    </clipPath>
    <clipPath id="e">
      <path d="M2 0h3v3H2Zm0 0"/>
    </clipPath>
    <clipPath id="b">
      <path d="M0 0h5v5H0z"/>
    </clipPath>
    <clipPath id="m">
      <path d="M327 389h50v2h-50Zm0 0"/>
    </clipPath>
    <pattern id="l" width="5" height="5" x="0" y="0" patternTransform="matrix(.8007 0 0 -.8007 325.14 469.28)" patternUnits="userSpaceOnUse" viewBox="0 0 5 5">
      <use xlink:href="#a"/>
    </pattern>
    <g id="a" clip-path="url(#b)">
      <g clip-path="url(#c)">
        <path fill="none" stroke="#000" stroke-linecap="round" stroke-linejoin="round" stroke-miterlimit="10" stroke-width=".62" d="m0 0 5 5"/>
      </g>
      <g clip-path="url(#d)">
        <path fill="none" stroke="#000" stroke-linecap="round" stroke-linejoin="round" stroke-miterlimit="10" stroke-width=".62" d="m-2.5 2.5 5 5"/>
      </g>
      <g clip-path="url(#e)">
        <path fill="none" stroke="#000" stroke-linecap="round" stroke-linejoin="round" stroke-miterlimit="10" stroke-width=".62" d="m2.5-2.5 5 5"/>
      </g>
    </g>
  </defs>
  <path fill="none" stroke="#000" stroke-linecap="round" stroke-linejoin="round" stroke-miterlimit="10" stroke-width=".5" d="M333.43 327.17h168.32v1.98H333.43Zm0 0"/>
  <path fill="none" stroke="#000" stroke-linecap="round" stroke-linejoin="round" stroke-miterlimit="10" stroke-width=".5" d="m432.45 329.15-3.97 9.9h7.93ZM498.29 344h6.93v6.93h-6.93Zm-168.33 0h6.93v13.86h-6.93Zm99-24.75h-92.05"/>
  <path d="M431.95 319.25q-3.07-.27-5.99-1.24l3 1.24-3 1.23a26 26 0 0 1 5.99-1.23"/>
  <path fill="none" stroke="#000" stroke-linecap="round" stroke-linejoin="round" stroke-miterlimit="10" stroke-width=".5" d="M431.95 319.25q-3.07-.27-5.99-1.24l3 1.24-3 1.23a26 26 0 0 1 5.99-1.23m0 0"/>
  <path d="M333.93 319.25q3.06.27 5.98 1.23l-3-1.23 3-1.24a26 26 0 0 1-5.98 1.24"/>
  <path fill="none" stroke="#000" stroke-linecap="round" stroke-linejoin="round" stroke-miterlimit="10" stroke-width=".5" d="M333.93 319.25q3.06.27 5.98 1.23l-3-1.23 3-1.24a26 26 0 0 1-5.98 1.24m-.5 3.99v-7.99m99.02 7.99v-7.99m65.82 4h-62.34"/>
  <path d="M501.25 319.25q-3.06-.27-5.98-1.24l3 1.24-3 1.23a26 26 0 0 1 5.98-1.23"/>
  <path fill="none" stroke="#000" stroke-linecap="round" stroke-linejoin="round" stroke-miterlimit="10" stroke-width=".5" d="M501.25 319.25q-3.06-.27-5.98-1.24l3 1.24-3 1.23a26 26 0 0 1 5.98-1.23m0 0"/>
  <path d="M432.95 319.25q3.05.27 5.98 1.23l-3-1.23 3-1.24a26 26 0 0 1-5.98 1.24"/>
  <path fill="none" stroke="#000" stroke-linecap="round" stroke-linejoin="round" stroke-miterlimit="10" stroke-width=".5" d="M432.95 319.25q3.05.27 5.98 1.23l-3-1.23 3-1.24a26 26 0 0 1-5.98 1.24m-.5 3.99v-7.99m69.3 7.99v-7.99M501.75 329.15V344m-168.32-14.85V344"/>
  <use xlink:href="#g" x="379.26" y="314.82"/>
  <use xlink:href="#h" x="382.25" y="316.26"/>
  <use xlink:href="#g" x="463.4" y="314.82"/>
  <use xlink:href="#i" x="466.39" y="316.26"/>
  <use xlink:href="#j" x="328.32" y="367.68"/>
  <use xlink:href="#h" x="334.07" y="369.12"/>
  <use xlink:href="#j" x="496.6" y="360.73"/>
  <use xlink:href="#i" x="502.35" y="362.16"/>
  <path fill="none" stroke="#000" stroke-linecap="round" stroke-linejoin="round" stroke-miterlimit="10" stroke-width=".5" d="M370.55 435.71H504.4v1.58H370.55Zm0 0"/>
  <path fill="none" stroke="#7f7f7f" stroke-linecap="round" stroke-linejoin="round" stroke-miterlimit="10" stroke-width=".5" d="m449.29 437.29-3.15 7.87h6.3Zm0 0"/>
  <path fill="none" stroke="#000" stroke-linecap="round" stroke-linejoin="round" stroke-miterlimit="10" stroke-width=".5" d="M504.4 437.29v11.8m-133.85-11.8v11.8m131.09.01h5.52v5.5h-5.52Zm-133.84 0h5.5v11.02h-5.5Zm-6.7-55.11-.22.05-.22.05-.23.07-.22.07-.22.07-.21.08-.22.1-.2.09-.22.1-.2.1-.2.12-.2.12-.2.12-.19.13-.19.14-.18.14-.18.15-.17.15-.17.16-.17.16-.16.16-.15.18-.16.17-.14.18-.14.19-.13.19-.13.19-.13.2-.11.2-.11.2-.1.2-.11.21-.1.21-.08.22-.08.21-.07.22-.07.23-.06.22-.06.22-.05.23-.04.23-.03.23-.03.23-.02.23-.01.23-.01.23v.46l.02.23.02.24.02.22.04.23.04.23.05.23.05.22.06.23.07.22.07.22.08.22.08.21.1.21.1.21.1.2.11.21.11.2.13.2.13.2.13.18.14.19.14.18.15.17.16.17.16.17.16.17.17.15.17.16.18.14.19.14.18.14.2.13.19.13.2.12.2.11.41.21.21.1.22.09.21.08.22.08.22.07.22.06.23.06.22.05.23.04.23.04.23.03.46.04.23.01h.69l.47-.05.23-.03.22-.04.23-.04.23-.05.22-.06.22-.06.22-.07.22-.08.22-.08.21-.1.21-.09.42-.2.2-.12.2-.12.2-.13.18-.13.19-.14.18-.14.18-.14.17-.16.17-.15.17-.17.16-.17.15-.17.15-.17.15-.18.13-.19.14-.19.12-.2.13-.19.11-.2.12-.2.1-.2.1-.22.09-.21.09-.21.07-.22.08-.22.06-.22.06-.23.06-.22.04-.23.04-.23.04-.23.03-.22.02-.24v-.23l.01-.23v-.46l-.02-.23-.02-.23-.03-.23-.03-.23-.04-.23-.05-.23-.06-.22-.05-.22-.07-.23-.08-.22-.08-.21-.08-.22-.1-.21-.1-.2-.1-.21-.11-.2-.12-.2-.12-.2-.13-.2-.14-.18-.14-.19-.14-.18-.15-.17-.16-.18-.16-.16-.16-.16-.17-.16-.18-.15-.18-.15-.18-.14-.19-.14-.19-.13-.2-.12-.2-.12-.2-.11-.2-.11-.2-.1-.22-.1-.21-.09-.22-.08-.22-.07-.22-.07-.22-.07-.23-.05-.22-.05m-9.46 31.41v-.49l-.03-.25-.02-.25-.04-.24-.04-.24-.05-.25-.06-.24-.06-.24-.08-.23-.08-.24-.09-.23-.09-.23-.1-.22-.11-.22-.11-.22-.13-.22-.13-.2-.13-.21-.15-.2-.14-.2-.16-.2-.16-.18-.16-.19-.18-.18-.18-.17-.18-.16-.19-.16-.19-.16-.2-.15-.2-.14-.2-.14-.22-.12-.21-.13-.22-.11-.22-.11-.23-.1-.23-.1-.23-.09-.23-.08-.24-.07-.24-.07-.24-.05-.24-.05-.24-.04-.25-.04-.24-.03-.25-.02h-.25l-.25-.01h-.24l-.25.01-.24.02-.25.03-.25.04-.24.04-.24.05-.24.05-.24.07-.24.07-.23.08-.23.1-.23.09-.23.1-.22.1-.22.12-.21.13-.22.12-.2.14-.2.14-.2.15-.2.16-.18.16-.18.16-.18.17-.17.18-.17.19-.16.18-.16.2-.14.2-.15.2-.13.2-.13.21-.12.22-.12.22-.1.22-.1.22-.1.23-.1.23-.07.24-.08.23-.06.24-.06.24-.05.25-.04.24-.04.24-.02.25-.02.25-.01.24v.74l.03.25.02.25.04.24.04.25.05.24.06.24.06.24.08.24.08.23.08.23.1.23.1.22.1.23.13.22.12.21.13.21.13.2.15.2.14.2.16.2.16.19.17.18.17.18.18.17.18.17.19.16.19.15.2.15.2.14.2.14.22.13.21.12.22.11.22.11.23.1.23.1.23.09.23.08.24.07.24.07.24.06.24.04.24.05.25.03.25.03.24.02.25.01h.49l.25-.01.25-.02.24-.03.25-.03.24-.05.24-.04.24-.06.24-.07.24-.07.23-.08.23-.09.23-.1.23-.1.22-.1.22-.12.21-.12.21-.13.2-.14.21-.14.2-.15.2-.15.18-.16.18-.17.18-.17.18-.18.16-.18.16-.2.16-.18.14-.2.15-.2.13-.2.13-.22.13-.21.1-.22.12-.23.1-.22.1-.23.08-.23.08-.23.08-.24.06-.24.06-.24.05-.24.04-.25.04-.24.02-.25.02-.25.01-.24z"/>
  <path fill="none" stroke="#000" stroke-linecap="round" stroke-linejoin="round" stroke-miterlimit="10" stroke-width="11.95" d="M199.56 454.66 199.56 454.66M357.21 691.94 357.21 691.94" transform="matrix(.09988 0 0 -.09988 327 470.81)"/>
  <path fill="none" stroke="#000" stroke-linecap="round" stroke-linejoin="round" stroke-miterlimit="10" stroke-width=".5" d="M354.8 425.4v-23.7m-15.74 23.7v-35.35m7.87 35.35v23.7m17.33-59.05v13.23m-3.16 0v-13.23m0 13.23h3.16m6.29 32.43v-34m-6.29-11.66v13.23h-3.15v-13.23M343 449.1h7.87v7.87H343Zm0 0"/>
  <g clip-path="url(#k)">
    <path fill="url(#l)" d="M327.25 390.05h48.82v-3.94h-48.82Zm0 0"/>
  </g>
  <g clip-path="url(#m)">
    <path fill="none" stroke="#000" stroke-linecap="round" stroke-linejoin="round" stroke-miterlimit="10" stroke-width=".5" d="M327.25 390.05h48.82"/>
  </g>
  <path fill="none" stroke="#000" stroke-linecap="round" stroke-linejoin="round" stroke-miterlimit="10" stroke-width=".5" d="M445.8 429.42h-71.76"/>
  <path d="M448.79 429.42q-3.06-.28-5.99-1.24l3 1.24-3 1.23a26 26 0 0 1 5.99-1.23"/>
  <path fill="none" stroke="#000" stroke-linecap="round" stroke-linejoin="round" stroke-miterlimit="10" stroke-width=".5" d="M448.79 429.42q-3.06-.28-5.99-1.24l3 1.24-3 1.23a26 26 0 0 1 5.99-1.23m0 0"/>
  <path d="M371.05 429.42q3.07.26 5.99 1.23l-3-1.23 3-1.24a26 26 0 0 1-5.99 1.24"/>
  <path fill="none" stroke="#000" stroke-linecap="round" stroke-linejoin="round" stroke-miterlimit="10" stroke-width=".5" d="M371.05 429.42q3.07.26 5.99 1.23l-3-1.23 3-1.24a26 26 0 0 1-5.99 1.24m-.5 3.99v-7.99m78.74 7.99v-7.99"/>
  <use xlink:href="#n" x="399.51" y="426.47"/>
  <use xlink:href="#o" x="407.9" y="426.47"/>
  <use xlink:href="#p" x="415.69" y="426.47"/>
  <use xlink:href="#q" x="368.11" y="469.5"/>
  <use xlink:href="#r" x="501.99" y="463.98"/>
  <use xlink:href="#s" x="344.5" y="466.38"/>
</svg>
