<svg xmlns="http://www.w3.org/2000/svg" xmlns:xlink="http://www.w3.org/1999/xlink" width="595.28" height="841.89" viewBox="0 0 595.28 841.89">
  <defs>
    <clipPath id="f">
      <path d="M 392 178 L 480 178 L 480 186.316406 L 392 186.316406 Z M 439.953125 186.316406 L 480 186.316406 L 480 197.460938 L 439.953125 197.460938 Z M 392 186.316406 L 429.082031 186.316406 L 429.082031 197.460938 L 392 197.460938 Z M 392 197.460938 L 480 197.460938 L 480 207 L 392 207 Z M 392 197.460938"/>
    </clipPath>
    <clipPath id="g">
      <path d="M 409.011719 181.917969 L 418.226562 179.585938 L 440.023438 178.542969 L 460.660156 180.394531 L 475.042969 183.988281 L 479.988281 188.4375 L 472.320312 199.640625 L 452.667969 203.988281 L 444.957031 202.746094 L 429.664062 206.890625 L 413.230469 205.382812 L 397.453125 198.984375 L 392.347656 189.78125 L 397.640625 186.160156 L 409.011719 181.917969"/>
    </clipPath>
    <clipPath id="b">
      <path d="M 0 0 L 13 0 L 13 9 L 0 9 Z M 0 0"/>
    </clipPath>
    <clipPath id="c">
      <path d="M 6 0 L 13 0 L 13 5 L 6 5 Z M 6 0"/>
    </clipPath>
    <clipPath id="d">
      <path d="M 0 4 L 7 4 L 7 9 L 0 9 Z M 0 4"/>
    </clipPath>
    <clipPath id="a">
      <path d="M0 0H13V9H0z"/>
    </clipPath>
    <clipPath id="i">
      <path d="M 392 178 L 481 178 L 481 186.316406 L 392 186.316406 Z M 439.953125 186.316406 L 481 186.316406 L 481 197.460938 L 439.953125 197.460938 Z M 392 186.316406 L 429.082031 186.316406 L 429.082031 197.460938 L 392 197.460938 Z M 392 197.460938 L 481 197.460938 L 481 208 L 392 208 Z M 392 197.460938"/>
    </clipPath>
    <clipPath id="j">
      <path d="M 367.101562 195 L 393 195 L 393 196 L 367.101562 196 Z M 367.101562 195"/>
    </clipPath>
    <clipPath id="k">
      <path d="M 392 195 L 398 195 L 398 197.460938 L 392 197.460938 Z M 392 197.460938 L 398 197.460938 L 398 206 L 392 206 Z M 392 197.460938"/>
    </clipPath>
    <clipPath id="l">
      <path d="M 472 195 L 481 195 L 481 197.460938 L 472 197.460938 Z M 472 197.460938 L 481 197.460938 L 481 207 L 472 207 Z M 472 197.460938"/>
    </clipPath>
    <clipPath id="m">
      <path d="M 392 195 L 393 195 L 393 197.460938 L 392 197.460938 Z M 392 197.460938 L 393 197.460938 L 393 205 L 392 205 Z M 392 197.460938"/>
    </clipPath>
    <clipPath id="n">
      <path d="M 479 195 L 481 195 L 481 197.460938 L 479 197.460938 Z M 479 197.460938 L 481 197.460938 L 481 206 L 479 206 Z M 479 197.460938"/>
    </clipPath>
    <clipPath id="o">
      <path d="M 429 216 L 449 216 L 449 221.785156 L 429 221.785156 Z M 429 216"/>
    </clipPath>
    <clipPath id="p">
      <path d="M 412 219 L 430 219 L 430 221.785156 L 412 221.785156 Z M 412 219"/>
    </clipPath>
    <clipPath id="q">
      <path d="M 493 173.203125 L 495 173.203125 L 495 184 L 493 184 Z M 493 173.203125"/>
    </clipPath>
    <clipPath id="r">
      <path d="M 496 191 L 509.839844 191 L 509.839844 203 L 496 203 Z M 496 191"/>
    </clipPath>
    <clipPath id="u">
      <path d="M 341 612 L 405 612 L 405 613.191406 L 341 613.191406 Z M 341 612"/>
    </clipPath>
    <clipPath id="v">
      <path d="M 403 594 L 405 594 L 405 613.191406 L 403 613.191406 Z M 403 594"/>
    </clipPath>
    <clipPath id="w">
      <path d="M 341 584 L 342 584 L 342 613.191406 L 341 613.191406 Z M 341 584"/>
    </clipPath>
    <clipPath id="x">
      <path d="M 366 587 L 367 587 L 367 613.191406 L 366 613.191406 Z M 366 587"/>
    </clipPath>
    <clipPath id="y">
      <path d="M 340.101562 577 L 344 577 L 344 581 L 340.101562 581 Z M 340.101562 577"/>
    </clipPath>
    <clipPath id="z">
      <path d="M 340.101562 583 L 344 583 L 344 587 L 340.101562 587 Z M 340.101562 583"/>
    </clipPath>
    <clipPath id="A">
      <path d="M 491 594 L 492 594 L 492 613.191406 L 491 613.191406 Z M 491 594"/>
    </clipPath>
    <clipPath id="B">
      <path d="M 466 612 L 492 612 L 492 613.191406 L 466 613.191406 Z M 466 612"/>
    </clipPath>
    <clipPath id="C">
      <path d="M 466 587 L 467 587 L 467 613.191406 L 466 613.191406 Z M 466 587"/>
    </clipPath>
    <clipPath id="D">
      <path d="M 428 612 L 467 612 L 467 613.191406 L 428 613.191406 Z M 428 612"/>
    </clipPath>
    <clipPath id="E">
      <path d="M 428 584 L 430 584 L 430 613.191406 L 428 613.191406 Z M 428 584"/>
    </clipPath>
    <path id="s" d="M 7.578125 -8.296875 C 7.578125 -8.40625 7.5 -8.40625 7.46875 -8.40625 C 7.421875 -8.40625 7.40625 -8.390625 7.265625 -8.21875 C 7.203125 -8.125 6.703125 -7.515625 6.703125 -7.5 C 6.296875 -8.265625 5.515625 -8.40625 5.015625 -8.40625 C 3.5 -8.40625 2.125 -7.015625 2.125 -5.671875 C 2.125 -4.78125 2.65625 -4.25 3.25 -4.046875 C 3.375 -4 4.078125 -3.8125 4.4375 -3.71875 C 5.046875 -3.5625 5.203125 -3.515625 5.453125 -3.25 C 5.5 -3.1875 5.734375 -2.90625 5.734375 -2.359375 C 5.734375 -1.234375 4.71875 -0.09375 3.515625 -0.09375 C 2.546875 -0.09375 1.453125 -0.515625 1.453125 -1.84375 C 1.453125 -2.078125 1.5 -2.359375 1.546875 -2.484375 C 1.546875 -2.515625 1.546875 -2.578125 1.546875 -2.609375 C 1.546875 -2.65625 1.53125 -2.703125 1.4375 -2.703125 C 1.328125 -2.703125 1.3125 -2.6875 1.265625 -2.484375 L 0.65625 -0.03125 C 0.65625 -0.03125 0.609375 0.125 0.609375 0.140625 C 0.609375 0.25 0.703125 0.25 0.734375 0.25 C 0.78125 0.25 0.78125 0.234375 0.9375 0.0625 L 1.484375 -0.65625 C 1.765625 -0.234375 2.390625 0.25 3.5 0.25 C 5.03125 0.25 6.453125 -1.234375 6.453125 -2.734375 C 6.453125 -3.234375 6.328125 -3.671875 5.875 -4.125 C 5.625 -4.375 5.40625 -4.421875 4.3125 -4.71875 C 3.515625 -4.9375 3.40625 -4.96875 3.1875 -5.15625 C 2.984375 -5.359375 2.828125 -5.640625 2.828125 -6.046875 C 2.828125 -7.0625 3.84375 -8.078125 4.984375 -8.078125 C 6.140625 -8.078125 6.703125 -7.359375 6.703125 -6.234375 C 6.703125 -5.921875 6.640625 -5.59375 6.640625 -5.546875 C 6.640625 -5.4375 6.734375 -5.4375 6.765625 -5.4375 C 6.875 -5.4375 6.890625 -5.484375 6.9375 -5.671875 Z M 7.578125 -8.296875"/>
    <path id="t" d="M 8.921875 -7.28125 C 9.03125 -7.6875 9.0625 -7.8125 9.90625 -7.8125 C 10.125 -7.8125 10.25 -7.8125 10.25 -8.015625 C 10.25 -8.15625 10.140625 -8.15625 10.0625 -8.15625 C 9.84375 -8.15625 9.59375 -8.125 9.375 -8.125 L 7.96875 -8.125 C 7.734375 -8.125 7.484375 -8.15625 7.265625 -8.15625 C 7.171875 -8.15625 7.03125 -8.15625 7.03125 -7.921875 C 7.03125 -7.8125 7.109375 -7.8125 7.34375 -7.8125 C 8.0625 -7.8125 8.0625 -7.71875 8.0625 -7.578125 C 8.0625 -7.5625 8.0625 -7.484375 8.015625 -7.3125 L 7.28125 -4.421875 L 3.671875 -4.421875 L 4.390625 -7.28125 C 4.5 -7.6875 4.53125 -7.8125 5.375 -7.8125 C 5.59375 -7.8125 5.703125 -7.8125 5.703125 -8.015625 C 5.703125 -8.15625 5.59375 -8.15625 5.53125 -8.15625 C 5.3125 -8.15625 5.0625 -8.125 4.828125 -8.125 L 3.421875 -8.125 C 3.203125 -8.125 2.953125 -8.15625 2.71875 -8.15625 C 2.640625 -8.15625 2.5 -8.15625 2.5 -7.921875 C 2.5 -7.8125 2.578125 -7.8125 2.8125 -7.8125 C 3.515625 -7.8125 3.515625 -7.71875 3.515625 -7.578125 C 3.515625 -7.5625 3.515625 -7.484375 3.46875 -7.3125 L 1.859375 -0.890625 C 1.75 -0.46875 1.734375 -0.34375 0.90625 -0.34375 C 0.625 -0.34375 0.546875 -0.34375 0.546875 -0.125 C 0.546875 0 0.6875 0 0.71875 0 C 0.9375 0 1.1875 -0.03125 1.40625 -0.03125 L 2.8125 -0.03125 C 3.046875 -0.03125 3.296875 0 3.515625 0 C 3.609375 0 3.75 0 3.75 -0.234375 C 3.75 -0.34375 3.640625 -0.34375 3.46875 -0.34375 C 2.734375 -0.34375 2.734375 -0.4375 2.734375 -0.5625 C 2.734375 -0.578125 2.734375 -0.65625 2.75 -0.75 L 3.578125 -4.078125 L 7.203125 -4.078125 C 7 -3.28125 6.390625 -0.78125 6.359375 -0.71875 C 6.234375 -0.359375 6.046875 -0.359375 5.34375 -0.34375 C 5.1875 -0.34375 5.078125 -0.34375 5.078125 -0.125 C 5.078125 0 5.21875 0 5.25 0 C 5.46875 0 5.71875 -0.03125 5.9375 -0.03125 L 7.359375 -0.03125 C 7.578125 -0.03125 7.828125 0 8.0625 0 C 8.15625 0 8.28125 0 8.28125 -0.234375 C 8.28125 -0.34375 8.171875 -0.34375 8 -0.34375 C 7.265625 -0.34375 7.265625 -0.4375 7.265625 -0.5625 C 7.265625 -0.578125 7.265625 -0.65625 7.296875 -0.75 Z M 8.921875 -7.28125"/>
    <path id="F" d="M 0.21875 -8.171875 L 0.21875 -7.8125 L 0.46875 -7.8125 C 0.734375 -7.8125 0.984375 -7.796875 1.15625 -7.640625 C 1.296875 -7.484375 1.359375 -7.234375 1.4375 -7.03125 L 1.875 -5.890625 C 2.59375 -4 3.296875 -2.109375 4.015625 -0.234375 L 4.125 0.03125 C 4.171875 0.15625 4.21875 0.234375 4.375 0.234375 C 4.625 0.234375 4.65625 -0.046875 4.734375 -0.234375 C 5.546875 -2.4375 6.453125 -4.625 7.234375 -6.84375 C 7.421875 -7.3125 7.640625 -7.8125 8.53125 -7.8125 L 8.53125 -8.171875 L 6.234375 -8.171875 L 6.234375 -7.8125 C 6.484375 -7.8125 6.703125 -7.734375 6.890625 -7.5625 L 6.953125 -7.453125 C 7 -7.390625 7 -7.3125 7 -7.265625 C 7 -7.109375 6.921875 -6.953125 6.875 -6.796875 L 6.65625 -6.203125 C 6.078125 -4.6875 5.515625 -3.15625 4.921875 -1.65625 C 4.84375 -1.46875 4.78125 -1.28125 4.703125 -1.09375 C 3.921875 -3.03125 3.1875 -5.03125 2.453125 -7 L 2.34375 -7.3125 C 2.3125 -7.359375 2.296875 -7.40625 2.296875 -7.46875 L 2.296875 -7.515625 C 2.359375 -7.8125 2.875 -7.8125 3.1875 -7.8125 L 3.1875 -8.171875 Z M 0.21875 -8.171875"/>
    <path id="G" d="M 0.375 -0.359375 L 0.375 -0.015625 L 2.734375 -0.015625 L 2.734375 -0.359375 C 2.40625 -0.359375 1.9375 -0.53125 1.9375 -0.9375 C 1.9375 -1.078125 2 -1.21875 2.046875 -1.375 C 2.125 -1.59375 2.203125 -1.828125 2.296875 -2.046875 C 2.40625 -2.359375 2.453125 -2.796875 2.65625 -2.796875 L 5.4375 -2.796875 C 5.59375 -2.796875 5.59375 -2.65625 5.640625 -2.546875 L 5.890625 -1.84375 C 5.984375 -1.5625 6.078125 -1.28125 6.171875 -1 C 6.203125 -0.921875 6.25 -0.8125 6.25 -0.71875 C 6.25 -0.375 5.6875 -0.359375 5.359375 -0.359375 L 5.359375 -0.015625 L 8.375 -0.015625 L 8.375 -0.359375 L 8.109375 -0.359375 C 7.828125 -0.359375 7.5625 -0.375 7.40625 -0.53125 C 7.265625 -0.6875 7.203125 -0.921875 7.140625 -1.125 C 6.296875 -3.421875 5.515625 -5.734375 4.71875 -8.046875 C 4.65625 -8.265625 4.625 -8.53125 4.375 -8.53125 C 4.21875 -8.53125 4.15625 -8.453125 4.125 -8.328125 L 4.03125 -8.0625 C 3.296875 -5.84375 2.5 -3.609375 1.703125 -1.390625 C 1.53125 -0.84375 1.296875 -0.359375 0.375 -0.359375 Z M 2.65625 -3.140625 L 4.046875 -7.109375 L 5.4375 -3.140625 Z M 2.65625 -3.140625"/>
    <path id="H" d="M 4.390625 -7.34375 C 4.5 -7.78125 4.546875 -7.8125 5.015625 -7.8125 L 5.875 -7.8125 C 6.90625 -7.8125 7.65625 -7.5 7.65625 -6.5625 C 7.65625 -5.953125 7.359375 -4.203125 4.953125 -4.203125 L 3.609375 -4.203125 Z M 6.046875 -4.0625 C 7.53125 -4.375 8.6875 -5.34375 8.6875 -6.359375 C 8.6875 -7.296875 7.75 -8.15625 6.09375 -8.15625 L 2.859375 -8.15625 C 2.609375 -8.15625 2.5 -8.15625 2.5 -7.921875 C 2.5 -7.8125 2.59375 -7.8125 2.8125 -7.8125 C 3.53125 -7.8125 3.53125 -7.71875 3.53125 -7.578125 C 3.53125 -7.5625 3.53125 -7.484375 3.484375 -7.3125 L 1.875 -0.890625 C 1.765625 -0.46875 1.75 -0.34375 0.921875 -0.34375 C 0.640625 -0.34375 0.5625 -0.34375 0.5625 -0.125 C 0.5625 0 0.6875 0 0.734375 0 C 0.9375 0 1.1875 -0.03125 1.421875 -0.03125 L 2.828125 -0.03125 C 3.046875 -0.03125 3.296875 0 3.515625 0 C 3.609375 0 3.734375 0 3.734375 -0.234375 C 3.734375 -0.34375 3.625 -0.34375 3.453125 -0.34375 C 2.71875 -0.34375 2.71875 -0.4375 2.71875 -0.5625 C 2.71875 -0.578125 2.71875 -0.65625 2.75 -0.75 L 3.546875 -3.96875 L 4.984375 -3.96875 C 6.109375 -3.96875 6.328125 -3.25 6.328125 -2.859375 C 6.328125 -2.671875 6.203125 -2.203125 6.125 -1.890625 C 6 -1.34375 5.953125 -1.21875 5.953125 -0.984375 C 5.953125 -0.140625 6.65625 0.25 7.453125 0.25 C 8.421875 0.25 8.828125 -0.9375 8.828125 -1.09375 C 8.828125 -1.1875 8.78125 -1.21875 8.703125 -1.21875 C 8.609375 -1.21875 8.578125 -1.140625 8.5625 -1.046875 C 8.265625 -0.203125 7.78125 0.015625 7.484375 0.015625 C 7.1875 0.015625 7 -0.125 7 -0.65625 C 7 -0.9375 7.140625 -2.03125 7.15625 -2.09375 C 7.203125 -2.53125 7.203125 -2.578125 7.203125 -2.671875 C 7.203125 -3.546875 6.5 -3.921875 6.046875 -4.0625 Z M 6.046875 -4.0625"/>
    <pattern id="h" width="13" height="9" x="0" y="0" patternTransform="matrix(.98339 0 0 -.94325 357.12 229.47)" patternUnits="userSpaceOnUse" viewBox="0 0 13 9">
      <use xlink:href="#e"/>
    </pattern>
    <g id="e" clip-path="url(#a)">
      <g clip-path="url(#b)">
        <path fill="none" stroke="#000" stroke-linecap="round" stroke-linejoin="round" stroke-miterlimit="10" stroke-width="5" d="M 0.000000000000014211 0 L -127.756 -85.1705" transform="matrix(.10176 0 0 .10567 13 9)"/>
      </g>
      <g clip-path="url(#c)">
        <path fill="none" stroke="#000" stroke-linecap="round" stroke-linejoin="round" stroke-miterlimit="10" stroke-width="5" d="M 63.878 -42.58525 L -63.878 -127.75575" transform="matrix(.10176 0 0 .10567 13 9)"/>
      </g>
      <g clip-path="url(#d)">
        <path fill="none" stroke="#000" stroke-linecap="round" stroke-linejoin="round" stroke-miterlimit="10" stroke-width="5" d="M -63.878 42.58525 L -191.634 -42.58525" transform="matrix(.10176 0 0 .10567 13 9)"/>
      </g>
    </g>
  </defs>
  <g clip-path="url(#f)">
    <g clip-path="url(#g)">
      <path fill="url(#h)" d="M 392.347656 206.890625 L 479.988281 206.890625 L 479.988281 178.542969 L 392.347656 178.542969 Z M 392.347656 206.890625"/>
    </g>
  </g>
  <g clip-path="url(#i)">
    <path fill="none" stroke="#000" stroke-linecap="round" stroke-linejoin="round" stroke-miterlimit="10" stroke-width="5" d="M 419.601762 399.147461 L 511.862274 422.496137 L 730.096127 432.938509 L 936.714307 414.400365 L 1080.717362 378.419156 L 1130.230634 333.872855 L 1053.457686 221.705348 L 856.695228 178.175907 L 779.492069 190.61289 L 626.376382 149.11717 L 461.840572 164.213634 L 303.875244 228.27583 L 252.758462 320.419012 L 305.752524 356.673991 Z M 419.601762 399.147461" transform="matrix(.09988 0 0 -.09988 367.1 221.78)"/>
  </g>
  <path fill="none" stroke="#000" stroke-linecap="round" stroke-linejoin="round" stroke-miterlimit="10" stroke-width="5" d="M1130.23 262.69 1130.23 333.87M252.76 262.69 252.76 320.42" transform="matrix(.09988 0 0 -.09988 367.1 221.78)"/>
  <g clip-path="url(#j)">
    <path fill="none" stroke="#000" stroke-linecap="round" stroke-linejoin="round" stroke-miterlimit="10" stroke-width="5" d="M 252.758462 262.692638 L 2.493511 262.692638" transform="matrix(.09988 0 0 -.09988 367.1 221.78)"/>
  </g>
  <path fill="none" stroke="#000" stroke-linecap="round" stroke-linejoin="round" stroke-miterlimit="10" stroke-width="5" d="M 1130.230634 262.692638 L 1414.716843 262.692638" transform="matrix(.09988 0 0 -.09988 367.1 221.78)"/>
  <g clip-path="url(#k)">
    <path fill="none" stroke="#000" stroke-linecap="round" stroke-linejoin="round" stroke-miterlimit="10" stroke-width="5" d="M 252.758462 262.692638 L 305.244094 168.046415" transform="matrix(.09988 0 0 -.09988 367.1 221.78)"/>
  </g>
  <path fill="none" stroke="#000" stroke-linecap="round" stroke-linejoin="round" stroke-miterlimit="10" stroke-width="5" d="M305.24 168.05 461.57 104.65M461.57 104.65 628.96 89.32M628.96 89.32 787.67 132.34M787.67 132.34 878.01 117.75M878.01 117.75 1058.39 157.64" transform="matrix(.09988 0 0 -.09988 367.1 221.78)"/>
  <g clip-path="url(#l)">
    <path fill="none" stroke="#000" stroke-linecap="round" stroke-linejoin="round" stroke-miterlimit="10" stroke-width="5" d="M 1058.385547 157.643152 L 1130.230634 262.692638" transform="matrix(.09988 0 0 -.09988 367.1 221.78)"/>
  </g>
  <g clip-path="url(#m)">
    <path fill="none" stroke="#000" stroke-dasharray="33.1275 22.085" stroke-linecap="round" stroke-linejoin="round" stroke-miterlimit="10" stroke-width="5" d="M 252.758462 262.692638 L 252.758462 174.343126" transform="matrix(.09988 0 0 -.09988 367.1 221.78)"/>
  </g>
  <g clip-path="url(#n)">
    <path fill="none" stroke="#000" stroke-dasharray="35.486 23.6573" stroke-linecap="round" stroke-linejoin="round" stroke-miterlimit="10" stroke-width="5" d="M 1130.230634 262.692638 L 1130.230634 168.046415" transform="matrix(.09988 0 0 -.09988 367.1 221.78)"/>
  </g>
  <path fill="none" stroke="#000" stroke-dasharray="37.8747 25.2498" stroke-linecap="round" stroke-linejoin="round" stroke-miterlimit="10" stroke-width="5" d="M 1130.230634 168.046415 L 1073.20824 84.702985" transform="matrix(.09988 0 0 -.09988 367.1 221.78)"/>
  <path fill="none" stroke="#000" stroke-dasharray="32.0453 21.3635" stroke-linecap="round" stroke-linejoin="round" stroke-miterlimit="10" stroke-width="5" d="M 1073.20824 84.702985 L 885.480195 43.207265" transform="matrix(.09988 0 0 -.09988 367.1 221.78)"/>
  <path fill="none" stroke="#000" stroke-dasharray="26.8255 17.8837" stroke-linecap="round" stroke-linejoin="round" stroke-miterlimit="10" stroke-width="5" d="M 885.480195 43.207265 L 814.847518 54.549167" transform="matrix(.09988 0 0 -.09988 367.1 221.78)"/>
  <g clip-path="url(#o)">
    <path fill="none" stroke="#000" stroke-dasharray="33.1327 22.0885" stroke-linecap="round" stroke-linejoin="round" stroke-miterlimit="10" stroke-width="5" d="M 814.847518 54.549167 L 622.973811 2.493745" transform="matrix(.09988 0 0 -.09988 367.1 221.78)"/>
  </g>
  <g clip-path="url(#p)">
    <path fill="none" stroke="#000" stroke-dasharray="27.0786 18.0524" stroke-linecap="round" stroke-linejoin="round" stroke-miterlimit="10" stroke-width="5" d="M 622.973811 2.493745 L 461.175702 17.394658" transform="matrix(.09988 0 0 -.09988 367.1 221.78)"/>
  </g>
  <path fill="none" stroke="#000" stroke-dasharray="28.1642 18.7762" stroke-linecap="round" stroke-linejoin="round" stroke-miterlimit="10" stroke-width="5" d="M 461.175702 17.394658 L 304.618334 80.948424" transform="matrix(.09988 0 0 -.09988 367.1 221.78)"/>
  <path fill="none" stroke="#000" stroke-dasharray="24.6505 16.4337" stroke-linecap="round" stroke-linejoin="round" stroke-miterlimit="10" stroke-width="5" d="M 304.618334 80.948424 L 252.758462 174.343126" transform="matrix(.09988 0 0 -.09988 367.1 221.78)"/>
  <path fill="none" stroke="#000" stroke-linecap="round" stroke-linejoin="round" stroke-miterlimit="10" stroke-width="5" d="M 1271.965309 118.220263 L 1271.965309 18.059529" transform="matrix(.09988 0 0 -.09988 367.1 221.78)"/>
  <path d="M 494.144531 205 C 493.902344 207.753906 493.207031 210.445312 492.082031 212.972656 L 494.144531 209.976562 L 496.207031 212.972656 C 495.082031 210.445312 494.386719 207.753906 494.144531 205"/>
  <path fill="none" stroke="#000" stroke-linecap="round" stroke-linejoin="round" stroke-miterlimit="10" stroke-width="5" d="M 1271.965309 168.046415 C 1269.540488 140.473858 1262.578906 113.527062 1251.315224 88.222886 L 1271.965309 118.220263 L 1292.615394 88.222886 C 1281.351711 113.527062 1274.390129 140.473858 1271.965309 168.046415 Z M 1271.965309 168.046415" transform="matrix(.09988 0 0 -.09988 367.1 221.78)"/>
  <g clip-path="url(#q)">
    <path fill="none" stroke="#000" stroke-linecap="round" stroke-linejoin="round" stroke-miterlimit="10" stroke-width="5" d="M 1271.965309 383.699007 L 1271.965309 483.859741" transform="matrix(.09988 0 0 -.09988 367.1 221.78)"/>
  </g>
  <path d="M 494.144531 188.4375 C 494.386719 185.683594 495.082031 182.988281 496.207031 180.464844 L 494.144531 183.460938 L 492.082031 180.464844 C 493.207031 182.988281 493.902344 185.683594 494.144531 188.4375"/>
  <path fill="none" stroke="#000" stroke-linecap="round" stroke-linejoin="round" stroke-miterlimit="10" stroke-width="5" d="M1271.97 333.87C1274.39 361.45 1281.35 388.43 1292.62 413.7L1271.97 383.7 1251.32 413.7C1262.58 388.43 1269.54 361.45 1271.97 333.87ZM1296.88 168.05 1247.05 168.05M1296.88 333.87 1247.05 333.87M1271.97 173.05 1271.97 328.87" transform="matrix(.09988 0 0 -.09988 367.1 221.78)"/>
  <g clip-path="url(#r)">
    <path fill="#fff" d="M 496.234375 202.292969 L 509.828125 202.292969 L 509.828125 191.144531 L 496.234375 191.144531 L 496.234375 202.292969"/>
  </g>
  <path fill="none" stroke="#000" stroke-dasharray="32.7049 21.8032" stroke-linecap="round" stroke-linejoin="round" stroke-miterlimit="10" stroke-width="5" d="M1271.97 333.87 1130.23 333.87M1271.97 168.05 1130.23 168.05" transform="matrix(.09988 0 0 -.09988 367.1 221.78)"/>
  <use xlink:href="#s" x="430.63" y="196.02"/>
  <use xlink:href="#t" x="497.74" y="200.81"/>
  <path fill="none" stroke="#000" stroke-linecap="round" stroke-linejoin="round" stroke-miterlimit="10" stroke-width="5" d="M327.6 315.09 327.56 317.04 327.44 319 327.28 320.95 327.09 322.91 326.82 324.87 326.46 326.78 326.07 328.74 325.6 330.61 325.09 332.53 324.51 334.41 323.88 336.25 323.18 338.08 322.44 339.92 321.61 341.72 320.75 343.48 319.85 345.2 318.88 346.92 317.86 348.57 316.76 350.21 315.63 351.85 314.46 353.42 313.24 354.94 311.95 356.43 310.62 357.87 309.25 359.28 307.85 360.65 306.4 361.98 304.91 363.27 303.39 364.48 301.82 365.66 300.18 366.79 298.58 367.89 296.9 368.9 295.18 369.88 293.45 370.78 291.69 371.64 289.9 372.46 288.06 373.21 286.22 373.91 284.38 374.54 282.5 375.12 280.63 375.63 278.71 376.1 276.75 376.49 274.84 376.84 272.88 377.12 270.93 377.31 268.97 377.47 267.02 377.59 263.11 377.59 261.15 377.47 259.19 377.31 257.24 377.12 255.28 376.84 253.37 376.49 251.41 376.1 249.49 375.63 247.62 375.12 245.74 374.54 243.9 373.91 242.06 373.21 240.23 372.46 238.43 371.64 236.67 370.78 234.95 369.88 233.23 368.9 231.58 367.89 229.94 366.79 228.3 365.66 226.73 364.48 225.21 363.27 223.72 361.98 222.27 360.65 220.87 359.28 219.5 357.87 218.17 356.43 216.88 354.94 215.66 353.42 214.49 351.85 213.36 350.21 212.26 348.57 211.25 346.92 210.27 345.2 209.37 343.48 208.51 341.72 207.69 339.92 206.94 338.08 206.24 336.25 205.61 334.41 205.03 332.53 204.52 330.61 204.05 328.74 203.66 326.78 203.31 324.87 203.03 322.91 202.84 320.95 202.68 319 202.56 317.04 202.52 315.09 202.56 313.13 202.68 311.14 202.84 309.18 203.03 307.27 203.31 305.31 203.66 303.35 204.05 301.44 204.52 299.52 205.03 297.64 205.61 295.77 206.24 293.89 206.94 292.05 207.69 290.25 208.51 288.45 209.37 286.69 210.27 284.97 211.25 283.25 212.26 281.57 213.36 279.93 214.49 278.32 215.66 276.76 216.88 275.23 218.17 273.75 219.5 272.3 220.87 270.89 222.27 269.52 223.72 268.2 225.21 266.9 226.73 265.69 228.3 264.52 229.94 263.38 231.58 262.29 233.23 261.27 234.95 260.29 236.67 259.4 238.43 258.53 240.23 257.71 242.06 256.97 243.9 256.27 245.74 255.64 247.62 255.05 249.49 254.55 251.41 254.08 253.37 253.69 255.28 253.33 257.24 253.06 259.19 252.82 263.11 252.59 265.06 252.55 267.02 252.59 270.93 252.82 272.88 253.06 274.84 253.33 276.75 253.69 278.71 254.08 280.63 254.55 282.5 255.05 284.38 255.64 286.22 256.27 288.06 256.97 289.9 257.71 291.69 258.53 293.45 259.4 295.18 260.29 296.9 261.27 298.58 262.29 300.18 263.38 301.82 264.52 303.39 265.69 304.91 266.9 306.4 268.2 307.85 269.52 309.25 270.89 310.62 272.3 311.95 273.75 313.24 275.23 314.46 276.76 315.63 278.32 316.76 279.93 317.86 281.57 318.88 283.25 319.85 284.97 320.75 286.69 321.61 288.45 322.44 290.25 323.18 292.05 323.88 293.89 324.51 295.77 325.09 297.64 325.6 299.52 326.07 301.44 326.46 303.35 326.82 305.31 327.09 307.27 327.28 309.18 327.44 311.14 327.56 313.13 327.6 315.09M515.13 627.66 515.09 629.65 515.01 631.61 514.86 633.56 514.62 635.52 514.35 637.43 514.03 639.39 513.17 643.22 512.08 646.98 511.41 648.85 510.75 650.69 509.19 654.29 508.32 656.05 507.39 657.77 506.41 659.49 505.39 661.17 504.3 662.82 503.2 664.42 501.99 665.98 500.78 667.51 498.2 670.48 496.83 671.89 495.42 673.26 493.97 674.55 492.45 675.84 490.92 677.05 489.36 678.26 487.75 679.36 486.11 680.45 484.43 681.47 482.75 682.45 480.99 683.39 479.23 684.25 475.63 685.81 473.79 686.48 471.91 687.14 468.16 688.24 464.33 689.1 462.41 689.41 460.45 689.68 458.5 689.92 456.54 690.07 454.59 690.15 452.59 690.19 450.64 690.15 448.68 690.07 446.73 689.92 444.77 689.68 442.82 689.41 440.9 689.1 437.07 688.24 435.15 687.69 433.31 687.14 431.43 686.48 429.6 685.81 426 684.25 424.24 683.39 422.48 682.45 420.8 681.47 419.11 680.45 417.47 679.36 415.87 678.26 414.3 677.05 412.78 675.84 411.25 674.55 409.81 673.26 408.4 671.89 407.03 670.48 405.7 668.99 404.45 667.51 403.2 665.98 402.02 664.42 400.89 662.82 399.83 661.17 398.82 659.49 397.84 657.77 396.9 656.05 396.04 654.29 395.22 652.49 394.48 650.69 393.77 648.85 393.15 646.98 392.56 645.1 392.05 643.22 391.19 639.39 390.88 637.43 390.6 635.52 390.37 633.56 390.21 631.61 390.13 629.65 390.1 627.66 390.13 625.7 390.21 623.74 390.37 621.79 390.6 619.83 390.88 617.88 391.19 615.96 392.05 612.13 392.56 610.21 393.15 608.33 393.77 606.5 394.48 604.66 395.22 602.86 396.04 601.06 396.9 599.3 397.84 597.54 398.82 595.86 399.83 594.18 400.89 592.53 402.02 590.93 403.2 589.37 404.45 587.8 405.7 586.32 407.03 584.87 408.4 583.46 409.81 582.09 411.25 580.76 414.3 578.26 415.87 577.09 417.47 575.95 419.11 574.9 420.8 573.84 422.48 572.9 424.24 571.96 426 571.1 427.8 570.28 429.6 569.54 431.43 568.83 433.31 568.21 435.15 567.62 437.07 567.11 438.98 566.64 440.9 566.25 442.82 565.94 444.77 565.63 446.73 565.43 448.68 565.27 450.64 565.2 452.59 565.16 454.59 565.2 456.54 565.27 458.5 565.43 460.45 565.63 462.41 565.94 464.33 566.25 466.24 566.64 468.16 567.11 470.04 567.62 471.91 568.21 473.79 568.83 475.63 569.54 477.43 570.28 479.23 571.1 480.99 571.96 482.75 572.9 484.43 573.84 486.11 574.9 487.75 575.95 489.36 577.09 490.92 578.26 493.97 580.76 495.42 582.09 496.83 583.46 498.2 584.87 499.49 586.32 500.78 587.8 503.2 590.93 504.3 592.53 505.39 594.18 506.41 595.86 507.39 597.54 508.32 599.3 509.19 601.06 510.75 604.66 512.08 608.33 512.63 610.21 513.17 612.13 514.03 615.96 514.35 617.88 514.62 619.83 514.86 621.79 515.01 623.74 515.09 625.7 515.13 627.66M1327.84 315.09 1327.84 317.04 1327.72 319 1327.56 320.95 1327.37 322.91 1327.09 324.87 1326.74 326.78 1326.35 328.74 1325.88 330.61 1325.37 332.53 1324.79 334.41 1324.16 336.25 1323.46 338.08 1322.71 339.92 1321.89 341.72 1321.03 343.48 1319.15 346.92 1317.04 350.21 1315.91 351.85 1314.73 353.42 1313.48 354.94 1312.23 356.43 1310.9 357.87 1309.53 359.28 1308.12 360.65 1306.68 361.98 1305.19 363.27 1303.67 364.48 1302.06 365.66 1300.46 366.79 1298.82 367.89 1297.13 368.9 1295.45 369.88 1293.69 370.78 1291.93 371.64 1290.17 372.46 1288.33 373.21 1286.5 373.91 1284.66 374.54 1282.78 375.12 1280.86 375.63 1278.99 376.1 1277.03 376.49 1275.12 376.84 1273.16 377.12 1271.2 377.31 1269.25 377.47 1267.29 377.59 1263.38 377.59 1261.43 377.47 1259.43 377.31 1257.52 377.12 1255.56 376.84 1253.61 376.49 1251.69 376.1 1249.77 375.63 1247.9 375.12 1246.02 374.54 1244.14 373.91 1242.3 373.21 1240.5 372.46 1238.7 371.64 1236.94 370.78 1235.22 369.88 1233.5 368.9 1231.82 367.89 1230.18 366.79 1228.57 365.66 1227.01 364.48 1225.49 363.27 1224 361.98 1222.55 360.65 1221.14 359.28 1219.78 357.87 1218.45 356.43 1217.15 354.94 1215.94 353.42 1214.77 351.85 1213.63 350.21 1212.54 348.57 1211.52 346.92 1210.55 345.2 1209.65 343.48 1208.75 341.72 1207.96 339.92 1207.18 338.08 1206.52 336.25 1205.89 334.41 1205.3 332.53 1204.8 330.61 1204.33 328.74 1203.94 326.78 1203.58 324.87 1203.31 322.91 1203.08 320.95 1202.84 317.04 1202.8 315.09 1202.84 313.13 1202.96 311.14 1203.08 309.18 1203.31 307.27 1203.58 305.31 1203.94 303.35 1204.33 301.44 1204.8 299.52 1205.3 297.64 1205.89 295.77 1206.52 293.89 1207.18 292.05 1208.75 288.45 1209.65 286.69 1210.55 284.97 1211.52 283.25 1212.54 281.57 1213.63 279.93 1214.77 278.32 1215.94 276.76 1217.15 275.23 1218.45 273.75 1219.78 272.3 1221.14 270.89 1222.55 269.52 1224 268.2 1225.49 266.9 1227.01 265.69 1228.57 264.52 1230.18 263.38 1231.82 262.29 1233.5 261.27 1235.22 260.29 1236.94 259.4 1238.7 258.53 1240.5 257.71 1242.3 256.97 1244.14 256.27 1246.02 255.64 1247.9 255.05 1249.77 254.55 1251.69 254.08 1253.61 253.69 1255.56 253.33 1257.52 253.06 1259.43 252.82 1261.43 252.71 1263.38 252.59 1265.34 252.55 1267.29 252.59 1271.2 252.82 1273.16 253.06 1275.12 253.33 1277.03 253.69 1278.99 254.08 1280.86 254.55 1282.78 255.05 1284.66 255.64 1286.5 256.27 1288.33 256.97 1290.17 257.71 1291.93 258.53 1293.69 259.4 1295.45 260.29 1297.13 261.27 1298.82 262.29 1300.46 263.38 1302.06 264.52 1303.67 265.69 1305.19 266.9 1306.68 268.2 1308.12 269.52 1309.53 270.89 1310.9 272.3 1312.23 273.75 1313.48 275.23 1314.73 276.76 1315.91 278.32 1317.04 279.93 1318.1 281.57 1319.15 283.25 1321.03 286.69 1321.89 288.45 1322.71 290.25 1323.46 292.05 1324.16 293.89 1324.79 295.77 1325.37 297.64 1325.88 299.52 1326.35 301.44 1326.74 303.35 1327.09 305.31 1327.37 307.27 1327.56 309.18 1327.72 311.14 1327.84 313.13 1327.84 315.09M1140.3 627.66 1140.26 629.65 1140.19 631.61 1140.03 633.56 1139.8 635.52 1139.52 637.43 1139.21 639.39 1138.35 643.22 1137.25 646.98 1136.59 648.85 1135.92 650.69 1134.36 654.29 1133.5 656.05 1132.56 657.77 1131.58 659.49 1130.57 661.17 1129.47 662.82 1128.37 664.42 1127.16 665.98 1125.95 667.51 1124.7 668.99 1123.37 670.48 1121.96 671.89 1120.55 673.26 1119.11 674.55 1117.62 675.84 1116.09 677.05 1114.53 678.26 1112.93 679.36 1111.28 680.45 1109.6 681.47 1107.88 682.45 1106.16 683.39 1104.4 684.25 1100.8 685.81 1098.96 686.48 1097.09 687.14 1093.33 688.24 1089.5 689.1 1087.54 689.41 1085.63 689.68 1083.67 689.92 1081.72 690.07 1079.72 690.15 1077.77 690.19 1075.81 690.15 1073.86 690.07 1071.9 689.92 1069.94 689.68 1067.99 689.41 1066.07 689.1 1062.24 688.24 1060.32 687.69 1058.45 687.14 1054.77 685.81 1052.93 685.03 1051.17 684.25 1049.41 683.39 1047.65 682.45 1045.97 681.47 1044.29 680.45 1042.65 679.36 1041.04 678.26 1037.91 675.84 1036.43 674.55 1034.98 673.26 1033.57 671.89 1032.2 670.48 1030.87 668.99 1029.62 667.51 1028.37 665.98 1027.2 664.42 1026.06 662.82 1025.01 661.17 1023.95 659.49 1022.07 656.05 1021.21 654.29 1020.39 652.49 1019.65 650.69 1018.95 648.85 1018.32 646.98 1017.73 645.1 1017.22 643.22 1016.76 641.3 1016.36 639.39 1016.01 637.43 1015.74 635.52 1015.54 633.56 1015.39 631.61 1015.31 629.65 1015.27 627.66 1015.31 625.7 1015.39 623.74 1015.54 621.79 1015.74 619.83 1016.01 617.88 1016.36 615.96 1016.76 614.04 1017.22 612.13 1017.73 610.21 1018.32 608.33 1018.95 606.5 1019.65 604.66 1020.39 602.86 1021.21 601.06 1022.07 599.3 1023.01 597.54 1023.95 595.86 1025.01 594.18 1026.06 592.53 1027.2 590.93 1028.37 589.37 1029.62 587.8 1030.87 586.32 1032.2 584.87 1033.57 583.46 1034.98 582.09 1036.43 580.76 1037.91 579.51 1039.48 578.26 1041.04 577.09 1042.65 575.95 1044.29 574.9 1045.97 573.84 1047.65 572.9 1049.41 571.96 1051.17 571.1 1052.93 570.28 1054.77 569.54 1056.61 568.83 1058.45 568.21 1060.32 567.62 1062.24 567.11 1064.16 566.64 1066.07 566.25 1067.99 565.94 1069.94 565.63 1071.9 565.43 1073.86 565.27 1075.81 565.2 1077.77 565.16 1079.72 565.2 1081.72 565.27 1083.67 565.43 1085.63 565.63 1087.54 565.94 1089.5 566.25 1091.42 566.64 1093.33 567.11 1095.21 567.62 1097.09 568.21 1098.96 568.83 1100.8 569.54 1102.6 570.28 1104.4 571.1 1106.16 571.96 1109.6 573.84 1111.28 574.9 1112.93 575.95 1114.53 577.09 1116.09 578.26 1117.62 579.51 1119.11 580.76 1120.55 582.09 1121.96 583.46 1123.37 584.87 1124.7 586.32 1125.95 587.8 1128.37 590.93 1129.47 592.53 1130.57 594.18 1131.58 595.86 1132.56 597.54 1133.5 599.3 1134.36 601.06 1135.92 604.66 1137.25 608.33 1137.8 610.21 1138.35 612.13 1139.21 615.96 1139.52 617.88 1139.8 619.83 1140.03 621.79 1140.19 623.74 1140.26 625.7 1140.3 627.66M596.4 446.38 683.93 446.38M683.93 446.38 683.93 183.8M683.93 183.8 596.4 183.8M596.4 183.8 596.4 446.38" transform="matrix(.09988 0 0 -.09988 340.1 613.2)"/>
  <g clip-path="url(#u)">
    <path fill="none" stroke="#000" stroke-linecap="round" stroke-linejoin="round" stroke-miterlimit="10" stroke-width="5" d="M 14.991219 2.481686 L 640.16472 2.481686" transform="matrix(.09988 0 0 -.09988 340.1 613.2)"/>
  </g>
  <g clip-path="url(#v)">
    <path fill="none" stroke="#000" stroke-linecap="round" stroke-linejoin="round" stroke-miterlimit="10" stroke-width="5" d="M 640.16472 2.481686 L 640.16472 183.795689" transform="matrix(.09988 0 0 -.09988 340.1 613.2)"/>
  </g>
  <path fill="none" stroke="#000" stroke-linecap="round" stroke-linejoin="round" stroke-miterlimit="10" stroke-width="5" d="M640.16 446.38 640.16 627.66M640.16 627.66 515.13 627.66M390.1 627.66 14.99 627.66M14.99 627.66 14.99 346.34" transform="matrix(.09988 0 0 -.09988 340.1 613.2)"/>
  <g clip-path="url(#w)">
    <path fill="none" stroke="#000" stroke-linecap="round" stroke-linejoin="round" stroke-miterlimit="10" stroke-width="5" d="M 14.991219 2.481686 L 14.991219 283.839094" transform="matrix(.09988 0 0 -.09988 340.1 613.2)"/>
  </g>
  <path fill="none" stroke="#000" stroke-linecap="round" stroke-linejoin="round" stroke-miterlimit="10" stroke-width="5" d="M 265.060619 627.655187 L 265.060619 377.585786" transform="matrix(.09988 0 0 -.09988 340.1 613.2)"/>
  <g clip-path="url(#x)">
    <path fill="none" stroke="#000" stroke-linecap="round" stroke-linejoin="round" stroke-miterlimit="10" stroke-width="5" d="M 265.060619 252.551086 L 265.060619 2.481686" transform="matrix(.09988 0 0 -.09988 340.1 613.2)"/>
  </g>
  <g clip-path="url(#y)">
    <path fill="none" stroke="#000" stroke-linecap="round" stroke-linejoin="round" stroke-miterlimit="10" stroke-width="29.99" d="M 14.991219 346.336889 L 14.991219 346.336889" transform="matrix(.09988 0 0 -.09988 340.1 613.2)"/>
  </g>
  <g clip-path="url(#z)">
    <path fill="none" stroke="#000" stroke-linecap="round" stroke-linejoin="round" stroke-miterlimit="10" stroke-width="29.99" d="M 14.991219 283.839094 L 14.991219 283.839094" transform="matrix(.09988 0 0 -.09988 340.1 613.2)"/>
  </g>
  <path fill="none" stroke="#000" stroke-linecap="round" stroke-linejoin="round" stroke-miterlimit="10" stroke-width="5" d="M890.23 627.66 1015.27 627.66M1140.3 627.66 1265.34 627.66M1265.34 627.66 1515.41 627.66M1515.41 627.66 1515.41 446.38" transform="matrix(.09988 0 0 -.09988 340.1 613.2)"/>
  <g clip-path="url(#A)">
    <path fill="none" stroke="#000" stroke-linecap="round" stroke-linejoin="round" stroke-miterlimit="10" stroke-width="5" d="M 1515.407622 183.795689 L 1515.407622 2.481686" transform="matrix(.09988 0 0 -.09988 340.1 613.2)"/>
  </g>
  <g clip-path="url(#B)">
    <path fill="none" stroke="#000" stroke-linecap="round" stroke-linejoin="round" stroke-miterlimit="10" stroke-width="5" d="M 1515.407622 2.481686 L 1265.338221 2.481686" transform="matrix(.09988 0 0 -.09988 340.1 613.2)"/>
  </g>
  <g clip-path="url(#C)">
    <path fill="none" stroke="#000" stroke-linecap="round" stroke-linejoin="round" stroke-miterlimit="10" stroke-width="5" d="M 1265.338221 2.481686 L 1265.338221 252.551086" transform="matrix(.09988 0 0 -.09988 340.1 613.2)"/>
  </g>
  <g clip-path="url(#D)">
    <path fill="none" stroke="#000" stroke-linecap="round" stroke-linejoin="round" stroke-miterlimit="10" stroke-width="5" d="M 1265.338221 2.481686 L 890.234121 2.481686" transform="matrix(.09988 0 0 -.09988 340.1 613.2)"/>
  </g>
  <g clip-path="url(#E)">
    <path fill="none" stroke="#000" stroke-linecap="round" stroke-linejoin="round" stroke-miterlimit="10" stroke-width="5" d="M 890.234121 2.481686 L 890.234121 283.839094" transform="matrix(.09988 0 0 -.09988 340.1 613.2)"/>
  </g>
  <path fill="none" stroke="#000" stroke-linecap="round" stroke-linejoin="round" stroke-miterlimit="10" stroke-width="5" d="M890.23 627.66 890.23 346.34M1265.34 627.66 1265.34 377.59M1471.64 446.38 1559.17 446.38M1559.17 446.38 1559.17 183.8M1559.17 183.8 1471.64 183.8M1471.64 183.8 1471.64 446.38" transform="matrix(.09988 0 0 -.09988 340.1 613.2)"/>
  <path fill="none" stroke="#000" stroke-linecap="round" stroke-linejoin="round" stroke-miterlimit="10" stroke-width="29.99" d="M890.23 346.34 890.23 346.34M890.23 283.84 890.23 283.84" transform="matrix(.09988 0 0 -.09988 340.1 613.2)"/>
  <use xlink:href="#F" x="362.27" y="586.71"/>
  <use xlink:href="#G" x="380.97" y="554.1"/>
  <use xlink:href="#F" x="462.11" y="586.71"/>
  <use xlink:href="#G" x="443.41" y="554.1"/>
  <use xlink:href="#H" x="412.01" y="585.75"/>
  <use xlink:href="#H" x="499.51" y="585.75"/>
</svg>
