<svg xmlns="http://www.w3.org/2000/svg" xmlns:xlink="http://www.w3.org/1999/xlink" width="595.32" height="841.92" viewBox="0 0 595.32 841.92">
  <defs>
    <path id="c" d="M2.58-4.1q.54-.82 1.08-1.21.52-.4 1.07-.4.57 0 .85.34.3.3.3.92v.17q.5-.72 1-1.06.49-.36 1.04-.36.53 0 .83.3.3.32.3.88 0 .38-.18 1.05l-.39 1.55q-.15.63-.15.89 0 .24.08.34.07.12.25.11a.6.6 0 0 0 .36-.14q.2-.15.57-.55l.33.33a5 5 0 0 1-.87.78Q8.67.1 8.19.1a.8.8 0 0 1-.61-.26 1 1 0 0 1-.24-.7q0-.38.2-1.13l.26-1q.14-.55.18-.81.05-.27.05-.44 0-.4-.14-.58-.13-.18-.44-.19a1 1 0 0 0-.53.2 3 3 0 0 0-.6.57q-.3.4-.5.77t-.3.92L4.98 0H3.97l.67-2.98.17-.8q.05-.27.05-.45 0-.43-.16-.6-.15-.18-.47-.19a1 1 0 0 0-.5.2q-.28.18-.6.59-.33.4-.52.78-.18.38-.3.92L1.77 0H.75l.84-3.72q.15-.56.14-.86a.6.6 0 0 0-.07-.34q-.09-.1-.25-.11a.6.6 0 0 0-.38.16q-.2.14-.56.53l-.33-.33q.51-.53.9-.78.36-.25.8-.25.38 0 .58.25.22.23.22.62 0 .33-.12.69Zm0 0"/>
    <path id="b" d="M1.44.5q-.12.14-.19.27a1 1 0 0 0-.14.55q0 .44.31.63.3.2.96.2.71 0 1.15-.32T4.28.8q.3-.72.61-2.2h-.08q-.58.78-1.06 1.13A1.7 1.7 0 0 1 2.7.1q-.64 0-1-.48a2.3 2.3 0 0 1-.34-1.38q0-.99.39-1.92.39-.91 1.08-1.47a2.5 2.5 0 0 1 2.26-.45q.33.08.66.3l.53-.4.38.1-.6 2.74-.3 1.43Q5.54-.2 5.39.31T5 1.23a2.6 2.6 0 0 1-1.42 1.22q-.5.17-1.19.17-2.22 0-2.22-1.3 0-.32.2-.59t.65-.56ZM3.13-.6q.29 0 .59-.21t.62-.64q.35-.45.54-.86.18-.4.3-1 .15-.6.15-1.05t-.2-.67q-.19-.2-.65-.2-.6 0-1.07.48t-.75 1.31a5 5 0 0 0-.27 1.63q0 .6.17.9.19.3.56.3m0 0"/>
    <path id="j" d="M2.02-1.37A6 6 0 0 1 1.22 0H.3L.06-.4q.39-.66 1.63-1.77a13 13 0 0 0 .42-2.16A1 1 0 0 0 2-4.8a.3.3 0 0 0-.3-.16 1 1 0 0 0-.3.1q-.15.1-.35.32l-.33-.33q.32-.3.58-.5.26-.18.47-.25t.51-.07q.6 0 .61.8 0 .18-.05.42l-.15.75-.33 1.18 2.52-1.7q.33-.8.78-1.36h.92l.28.38q-.31.61-1.66 1.76-.17.59-.3 1.22-.14.63-.13 1 0 .33.09.48t.31.15q.13 0 .25-.07.13-.07.4-.37l.34.33q-.33.32-.58.5-.26.17-.47.25T4.59.1t-.45-.18Q4-.3 3.98-.67q0-.2.04-.4.03-.23.17-.8t.36-1.25Zm0 0"/>
    <path id="d" d="M2.7 0v-.2q.27-.08.35-.2.1-.15.1-.52v-2.72h-.9q-.15 1.41-.4 2.31-.26.9-.54 1.14A1 1 0 0 1 .7.06Q.36.06.16 0v-.9h.36q.02.36.26.35.37 0 .64-1.03.28-1.05.28-1.64 0-.5-.39-.55v-.2H4.3v.2q-.27.06-.36.2t-.08.5v2.15q0 .36.08.5t.36.22V0Zm0 0"/>
    <path id="f" d="M4.06 1.34a6 6 0 0 0-.18-.86 1 1 0 0 0-.24-.37Q3.5 0 3.16 0H1.39a.7.7 0 0 0-.56.25 3 3 0 0 0-.3 1.1H.16v-1.7h.48a5 5 0 0 0 .94-2.9q0-.46-.38-.52v-.2h3.08v.2q-.27.06-.36.2-.1.14-.1.5v2.71h.63v1.7Zm-.95-4.98h-1a7 7 0 0 1-.94 3.28h1.94Zm0 0"/>
    <path id="g" d="m7.27-8-.41 1.8H6.3a5 5 0 0 0-.1-.75 1 1 0 0 0-.15-.36l-.22-.14q-.13-.03-.36-.03h-1.9l-.68 3.07h1.13q.42 0 .64-.2.21-.2.43-.64h.54L5.09-3h-.5q0-.46-.06-.64t-.17-.2a1 1 0 0 0-.4-.05H2.77L2.03-.52h1.74q.33 0 .54-.06.2-.08.38-.23t.36-.44q.18-.3.43-.78h.57L5.53 0H.33L.4-.28a1 1 0 0 0 .32-.13 1 1 0 0 0 .2-.22q.07-.13.13-.34l.19-.78 1-4.52q.13-.58.13-.93 0-.3-.15-.38a1 1 0 0 0-.42-.14L1.87-8Zm0 0"/>
    <path id="h" d="M4.1-.94q.3 0 .48-.03.16-.04.28-.12l.17-.2.16-.43h.48L5.57 0H.76v-.28q.26-.6.69-1.25.42-.66 1.22-1.53.67-.75.96-1.14.33-.42.49-.72a2.4 2.4 0 0 0 .31-1.13q0-.45-.14-.78t-.44-.53a1.3 1.3 0 0 0-.71-.19q-1.14 0-1.5 1.22h-.7v-1.12a6 6 0 0 1 2.44-.64q1.07 0 1.64.48.56.46.56 1.38 0 .3-.06.57-.07.28-.2.52-.14.25-.37.55T4.47-4l-.92 1Q2.42-1.8 1.9-.94Zm0 0"/>
    <path id="i" d="M2.58-4.1q.54-.82 1.08-1.21.52-.4 1.07-.4.57 0 .85.34.3.3.3.92v.17q.5-.72 1-1.06.49-.36 1.04-.36.53 0 .83.3.3.32.3.88 0 .38-.18 1.05l-.39 1.55q-.15.63-.15.89 0 .24.08.34.07.12.25.11a.6.6 0 0 0 .36-.14q.2-.15.57-.55l.33.33a5 5 0 0 1-.87.78Q8.67.1 8.19.1a.8.8 0 0 1-.61-.26 1 1 0 0 1-.24-.7q0-.38.2-1.13l.26-1q.14-.55.18-.81.05-.27.05-.44 0-.4-.14-.58-.13-.18-.44-.19a1 1 0 0 0-.53.2 3 3 0 0 0-.6.57q-.3.4-.5.77t-.3.92L4.98 0H3.97l.67-2.98.17-.8q.05-.27.05-.45 0-.43-.16-.6-.15-.18-.47-.19a1 1 0 0 0-.5.2q-.28.18-.6.59-.33.4-.52.78-.18.38-.3.92L1.77 0H.75l.84-3.72q.15-.56.14-.86a.6.6 0 0 0-.07-.34q-.09-.1-.25-.11a.6.6 0 0 0-.38.16q-.2.14-.56.53l-.33-.33q.51-.53.9-.78.36-.25.8-.25.38 0 .58.25.22.23.22.62 0 .33-.12.69Zm0 0"/>
    <clipPath id="a">
      <path d="M129 225h8v9.3h-8Zm0 0"/>
    </clipPath>
    <clipPath id="e">
      <path d="M116 264h5v6.61h-5Zm0 0"/>
    </clipPath>
  </defs>
  <path fill="#fff" fill-rule="evenodd" stroke="#000" stroke-linejoin="round" stroke-miterlimit="10" stroke-width="1.5" d="M88.75 278.88a3.1 3.1 0 0 1 3.1 3.1v12.45a3.1 3.1 0 0 1-3.1 3.1H73.62a3.1 3.1 0 0 1-3.1-3.1v-12.44a3.1 3.1 0 0 1 3.1-3.1Zm-3.02-20.22a7.66 7.66 0 0 1 2.1 10.63 7.65 7.65 0 0 1-10.63 2 7.65 7.65 0 0 1-2.1-10.63 7.65 7.65 0 0 1 10.63-2Zm0 0"/>
  <path d="M81.96 278.88v-13.73h-1.5v13.73Zm1.25-13.73a2 2 0 1 0-2 2 2 2 0 0 0 2-2m0 0"/>
  <path fill="none" stroke="#000" stroke-linejoin="round" stroke-miterlimit="10" d="M73.61 211.17v55.38"/>
  <path fill="none" stroke="#000" stroke-linejoin="round" stroke-miterlimit="10" stroke-width="1.5" d="M62.53 211.42h78.64"/>
  <path fill="none" stroke="#000" stroke-linejoin="round" stroke-miterlimit="10" stroke-width=".75" d="m67 211.45 13-5.85m-.43 5.9 13-5.93m11.77 5.9 13-5.94m-25.66 5.97 13.01-5.95m12.02 5.95 13.01-5.93m-.66 5.86 13-5.95"/>
  <g clip-path="url(#a)">
    <use xlink:href="#b" x="129.59" y="231.44"/>
  </g>
  <path d="M127.04 219.42v21.76h-1v-21.76Zm-.5 21.76 2-2-2 6-2-6Zm0 0"/>
  <path fill="#fff" fill-rule="evenodd" stroke="#000" stroke-linejoin="round" stroke-miterlimit="10" stroke-width="1.5" d="M93.59 237.78a7.65 7.65 0 0 1 2.1 10.62 7.65 7.65 0 0 1-10.64 2 7.65 7.65 0 0 1-2.1-10.62 7.65 7.65 0 0 1 10.64-2Zm0 0"/>
  <path fill="none" stroke="#000" stroke-linejoin="round" stroke-miterlimit="10" d="M81.21 210.52v33.97"/>
  <path d="M89.96 244.31v22.65h-1v-22.65Zm-2.5 0a2 2 0 1 1 2 2 2 2 0 0 1-2-2m0 0"/>
  <path fill="none" stroke="#000" stroke-linejoin="round" stroke-miterlimit="10" d="M112.7 223.73v31.11"/>
  <path fill="#fff" fill-rule="evenodd" stroke="#000" stroke-linejoin="round" stroke-miterlimit="10" stroke-width="1.5" d="M109.34 218.65a7.65 7.65 0 0 1 2.1 10.62 7.66 7.66 0 0 1-10.65 2 7.66 7.66 0 0 1-2.1-10.62 7.65 7.65 0 0 1 10.65-2Zm0 0"/>
  <path d="M105.65 211.5v13.74h-1.5v-13.73Zm1.25 13.74a2 2 0 1 1-3.99.01 2 2 0 0 1 3.99 0m0 0"/>
  <path fill="none" stroke="#000" stroke-linejoin="round" stroke-miterlimit="10" d="M97.02 223.07v22.63"/>
  <path fill="#fff" fill-rule="evenodd" stroke="#000" stroke-linejoin="round" stroke-miterlimit="10" stroke-width="1.5" d="M120.34 254.71a3.1 3.1 0 0 1 3.1 3.1v12.42a3.1 3.1 0 0 1-3.1 3.11h-15.11a3.1 3.1 0 0 1-3.1-3.1v-12.42a3.1 3.1 0 0 1 3.1-3.1Zm0 0"/>
  <use xlink:href="#c" x="74.58" y="290.44"/>
  <use xlink:href="#d" x="84.65" y="292.84"/>
  <use xlink:href="#c" x="105.86" y="266.47"/>
  <g clip-path="url(#e)">
    <use xlink:href="#f" x="115.93" y="268.86"/>
  </g>
  <path fill="none" stroke="#000" stroke-linejoin="round" stroke-miterlimit="10" stroke-width="1.5" d="M65.51 367.79h67.19"/>
  <path fill="none" stroke="#000" stroke-linejoin="round" stroke-miterlimit="10" stroke-width=".75" d="m69.33 367.82 11.1-5.85m-.36 5.91 11.11-5.94m10.05 5.9 11.11-5.94m-21.92 5.97 11.1-5.94m10.28 5.95 11.12-5.94m-.57 5.86 11.12-5.94"/>
  <use xlink:href="#b" x="122.04" y="392.08"/>
  <path d="M118.84 380v21.75h-1v-21.74Zm-.5 21.75 2-2-2 6-2-6Zm0 0"/>
  <path fill="none" stroke="#000" stroke-linejoin="round" stroke-miterlimit="10" d="M104.5 380.43v36.8"/>
  <path fill="#fff" fill-rule="evenodd" stroke="#000" stroke-linejoin="round" stroke-miterlimit="10" stroke-width="1.5" d="M101.3 375.68a7.65 7.65 0 0 1 2.1 10.62 7.66 7.66 0 0 1-10.64 2 7.65 7.65 0 0 1-2.1-10.62 7.64 7.64 0 0 1 10.63-2Zm0 0"/>
  <path d="M97.6 368.21v13.74h-1.49V368.2Zm1.26 13.74a2 2 0 0 1-2 2 2 2 0 0 1-2-2 2 2 0 0 1 4 0m0 0"/>
  <path fill="none" stroke="#000" stroke-linejoin="round" stroke-miterlimit="10" d="M88.98 379.78v14.15"/>
  <path fill="#fff" fill-rule="evenodd" stroke="#000" stroke-linejoin="round" stroke-miterlimit="10" stroke-width="1.5" d="M91.88 394.16c.78 0 1.41.64 1.41 1.42v5.66c0 .78-.63 1.42-1.41 1.42H86.2a1.4 1.4 0 0 1-1.4-1.42v-5.66c0-.78.62-1.42 1.4-1.42Zm15.19 21.87c.78 0 1.4.63 1.4 1.4v5.67a1.4 1.4 0 0 1-1.4 1.42h-5.67c-.79 0-1.42-.63-1.42-1.42v-5.67c0-.77.63-1.4 1.42-1.4Zm0 0"/>
  <use xlink:href="#g" x="83.45" y="429"/>
  <path d="M81.2 436.74V415h-1v21.75ZM80.7 415l2 2-2-6-2 6Zm0 0"/>
  <use xlink:href="#h" x="111.13" y="431.52"/>
  <use xlink:href="#i" x="117.73" y="431.52"/>
  <use xlink:href="#c" x="71.94" y="396.28"/>
  <path fill="none" stroke="#000" stroke-linejoin="round" stroke-miterlimit="10" stroke-width="1.5" d="M70.54 690.41v-26.57"/>
  <path fill="none" stroke="#000" stroke-linejoin="round" stroke-miterlimit="10" stroke-width=".75" d="m70.3 689.84-5.54-4.4m5.87.39-5.61-4.4m5.57-3.97-5.61-4.4m5.64 8.44L65 677.1m5.63-3.59-5.61-4.4m5.53.23-5.6-4.4"/>
  <path fill="none" stroke="#000" stroke-linejoin="round" stroke-miterlimit="10" stroke-width="1.5" d="M249.07 689.85H69.8"/>
  <path fill="none" stroke="#000" stroke-linejoin="round" stroke-miterlimit="10" d="m88.52 685 5.6-9.58m19.09 9.58 2.66-4.9m-10.94 4.98 5.6-9.55m-13.69 9.39 5.6-9.56m-13.69 9.56-3.03-9.4m11.23 9.23-3-9.37m11.14 9.39-3-9.37m11.2 9.5-3-9.37m-26.99 4.78 2.63-4.9m-2.43 4.79H71.24m56.62-.05h-12.22"/>
  <path fill="#fff" fill-rule="evenodd" stroke="#000" stroke-linejoin="round" stroke-miterlimit="10" stroke-width="1.5" d="M120.68 676.46a5.4 5.4 0 0 1 5.4-5.4h6.49a5.4 5.4 0 0 1 5.4 5.4v7.36a5.4 5.4 0 0 1-5.4 5.4h-6.5a5.4 5.4 0 0 1-5.39-5.4Zm0 0"/>
  <use xlink:href="#j" x="94.96" y="672.25"/>
  <use xlink:href="#S" x="102.14" y="672.25"/>
  <path fill="none" stroke="#000" stroke-linejoin="round" stroke-miterlimit="10" stroke-width="1.5" d="M248.52 664.02v25.95"/>
  <path fill="none" stroke="#000" stroke-linejoin="round" stroke-miterlimit="10" stroke-width=".75" d="m248.42 665.12 5.74 4.3m-5.73-.38 5.82 4.3m-5.79 3.88 5.83 4.28m-5.85-8.5 5.82 4.29m-5.83 3.78 5.82 4.29m-5.75-.21 5.83 4.28"/>
  <path fill="none" stroke="#000" stroke-linejoin="round" stroke-miterlimit="10" d="m208.36 685.26 5.6-9.55m19.09 9.55 2.66-4.88m-10.94 4.96 5.6-9.53m-13.67 9.36 5.6-9.52m-13.7 9.52-3.03-9.37m11.23 9.2-3-9.33m11.14 9.36-3-9.34m11.19 9.46-3-9.34m-26.98 4.77 2.64-4.87m-2.44 4.76h-12.26m56.63-.05h-12.23"/>
  <use xlink:href="#j" x="215.56" y="672.85"/>
  <path fill="#fff" fill-rule="evenodd" stroke="#000" stroke-linejoin="round" stroke-miterlimit="10" stroke-width="1.5" d="M181.05 676.34a5.4 5.4 0 0 1 5.4-5.4h6.5a5.4 5.4 0 0 1 5.38 5.4v7.33a5.4 5.4 0 0 1-5.39 5.4h-6.5a5.4 5.4 0 0 1-5.39-5.4Zm0 0"/>
</svg>
