<svg xmlns="http://www.w3.org/2000/svg" xmlns:xlink="http://www.w3.org/1999/xlink" width="595.32" height="841.92" viewBox="0 0 595.32 841.92">
  <defs>
    <path id="l" d="M4.83-3.62q.28.2.45.5t.28.8l.14.7.14.57q.08.25.2.4.1.17.26.24.14.09.42.13L6.66 0H5.03a8 8 0 0 1-.33-1.25l-.26-1.23q-.07-.33-.16-.55a1 1 0 0 0-.22-.33.6.6 0 0 0-.3-.16q-.15-.04-.38-.04H2.7L2.3-1.7q-.07.22-.08.36l-.05.54q0 .2.05.3.06.08.17.14.12.05.42.08L2.75 0H.33L.4-.28a1 1 0 0 0 .32-.13 1 1 0 0 0 .2-.22q.07-.13.13-.34l.19-.78 1-4.52q.13-.57.13-.92 0-.27-.15-.39a1 1 0 0 0-.42-.14L1.87-8h2.61q.61 0 1 .08a2 2 0 0 1 .68.22q.27.15.46.37.19.24.29.53t.09.61q0 .9-.55 1.55-.54.63-1.62.95ZM3.5-4.07q.86 0 1.34-.24.5-.23.79-.75a2.3 2.3 0 0 0 .23-1.56 1 1 0 0 0-.13-.33 1 1 0 0 0-.18-.23 1 1 0 0 0-.3-.17 2 2 0 0 0-.4-.11 5 5 0 0 0-1.29 0l-.75 3.39Zm0 0"/>
    <path id="r" d="M5.72-6.55a2 2 0 0 0-.63-.68q-.34-.2-.82-.2-.5 0-.88.2-.36.18-.55.54-.18.35-.18.8 0 .26.07.5.09.24.27.42.2.2.52.31.32.12.84.11.46 0 1.06-.03l-.14.55-.66.22q-.6 0-1.04.06t-.85.22q-.39.14-.64.36-.23.2-.37.5t-.13.7q0 .47.2.78.22.3.57.44.34.13.75.13.5 0 .94-.15t.8-.42q.4-.25.87-.72l.36.36v.27q-.72.6-1.2.86t-.99.39q-.52.12-1.14.12-.7 0-1.22-.23-.5-.24-.78-.66a1.6 1.6 0 0 1-.28-.92q0-.84.51-1.42.53-.6 1.65-.95l-.02-.08a2 2 0 0 1-.73-.72 2 2 0 0 1-.22-.99q0-.58.45-1.09t1.19-.81 1.42-.31q.81 0 1.26.25.46.24.75.8Zm0 0"/>
    <path id="m" d="M3.02-.67q.2 0 .3-.02.13 0 .2-.06t.12-.16l.14-.28h.4q-.05.3-.05.6L4.09 0H.56v-.22a7 7 0 0 1 .53-.87 7 7 0 0 1 .86-.97l.63-.66q.25-.28.39-.5a1.4 1.4 0 0 0 .25-.8q0-.2-.06-.37a1 1 0 0 0-.18-.31 1 1 0 0 0-.28-.2 1 1 0 0 0-.4-.07 1 1 0 0 0-.66.22q-.25.21-.39.6H.7v-.82a6 6 0 0 1 1.78-.42q.44 0 .74.1t.5.27q.18.16.26.4.1.23.1.5a2 2 0 0 1-.11.57q-.05.16-.14.28t-.24.29q-.1.14-.26.3-.16.19-.36.38l-.42.42-.42.43q-.21.2-.38.4-.16.2-.27.38Zm0 0"/>
    <path id="n" d="M.72-4.14v-.83q.48-.2.92-.31t.83-.11q.35 0 .62.08.3.06.5.22.22.13.33.36.13.2.13.48t-.08.47-.24.37-.39.32q-.22.12-.51.25v.04q.29.05.51.16a1.5 1.5 0 0 1 .72.67q.1.22.11.49 0 .34-.12.62a2 2 0 0 1-.38.5q-.25.21-.62.33-.37.1-.85.1A4 4 0 0 1 .66-.2v-.9h.53q.07.21.15.35a1 1 0 0 0 .5.38q.16.04.36.04.55 0 .82-.25.28-.26.28-.78 0-.56-.38-.84a1.7 1.7 0 0 0-1.06-.28h-.38v-.41q.44-.01.75-.11.33-.1.54-.27a1 1 0 0 0 .42-.84.8.8 0 0 0-.24-.62q-.23-.24-.68-.24-.38 0-.64.2t-.38.63Zm0 0"/>
    <path id="q" d="m2.2-2-.33-1.34-.09-.2-.1-.1-.13-.03q-.08 0-.14.03l-.13.08-.14.15-.17.27-.31-.2a4 4 0 0 1 .56-.7q.15-.12.28-.16.16-.05.34-.05.24 0 .38.1t.23.3.17.48l.13.64h.06l.42-.57.33-.42.25-.26a1 1 0 0 1 .24-.16l.22-.08a1 1 0 0 1 .64.05l-.22.83h-.35q0-.2-.12-.2l-.11.02-.13.08-.17.14a5 5 0 0 0-.92 1.07 18 18 0 0 0 .34 1.45q.08.18.16.23.08.07.17.07l.13-.02.12-.08.14-.15.2-.29.3.2a4 4 0 0 1-.6.73 1 1 0 0 1-.27.12 1 1 0 0 1-.6 0l-.21-.15-.13-.2-.1-.26-.09-.28-.06-.26-.03-.24-.02-.16H2.3l-.44.58a6 6 0 0 1-.84.9 1 1 0 0 1-.52.1A1 1 0 0 1 .14.02l.19-.81h.36q0 .18.12.19l.1-.02q.05 0 .09-.05l.16-.12.22-.24.34-.39zm0 0"/>
    <path id="j" d="M4.83-3.62q.28.2.45.5t.28.8l.14.7.14.57q.08.25.2.4.1.17.26.24.14.09.42.13L6.66 0H5.03a8 8 0 0 1-.33-1.25l-.26-1.23q-.07-.33-.16-.55a1 1 0 0 0-.22-.33.6.6 0 0 0-.3-.16q-.15-.04-.38-.04H2.7L2.3-1.7q-.07.22-.08.36l-.05.54q0 .2.05.3.06.08.17.14.12.05.42.08L2.75 0H.33L.4-.28a1 1 0 0 0 .32-.13 1 1 0 0 0 .2-.22q.07-.13.13-.34l.19-.78 1-4.52q.13-.57.13-.92 0-.27-.15-.39a1 1 0 0 0-.42-.14L1.87-8h2.61q.61 0 1 .08a2 2 0 0 1 .68.22q.27.15.46.37.19.24.29.53t.09.61q0 .9-.55 1.55-.54.63-1.62.95ZM3.5-4.07q.86 0 1.34-.24.5-.23.79-.75a2.3 2.3 0 0 0 .23-1.56 1 1 0 0 0-.13-.33 1 1 0 0 0-.18-.23 1 1 0 0 0-.3-.17 2 2 0 0 0-.4-.11 5 5 0 0 0-1.29 0l-.75 3.39Zm0 0"/>
    <path id="k" d="M3.05-1.1v.23l.03.15q0 .06.04.11l.08.08q.04.05.13.08t.22.04a4 4 0 0 0 .75.05V0H.98v-.36l.43-.02.48-.06q.08-.03.13-.08l.09-.07.08-.11q.03-.06.03-.16l.01-.23v-3q0-.15-.06-.22A.3.3 0 0 0 2-4.38a1 1 0 0 0-.4.15q-.24.12-.65.37l-.1-.19-.08-.18 1.01-.58 1.03-.55h.25l-.01.4v.69Zm0 0"/>
    <filter id="a" width="100%" height="100%" x="0%" y="0%">
      <feColorMatrix color-interpolation-filters="sRGB" values="0 0 0 0 1 0 0 0 0 1 0 0 0 0 1 0 0 0 1 0"/>
    </filter>
    <filter id="c" width="100%" height="100%" x="0%" y="0%">
      <feColorMatrix color-interpolation-filters="sRGB" values="0 0 0 0 1 0 0 0 0 1 0 0 0 0 1 0.2126 0.7152 0.0722 0 0"/>
    </filter>
    <mask id="h">
      <g filter="url(#a)">
        <use xlink:href="#b" filter="url(#c)" transform="matrix(.3615 0 0 .36244 70.24 242.32)"/>
      </g>
    </mask>
  </defs>
  <g mask="url(#h)">
    <use xlink:href="#i" transform="matrix(.3615 0 0 .36244 70.24 242.32)"/>
  </g>
  <use xlink:href="#j" x="75.9" y="253.73"/>
  <use xlink:href="#k" x="83.09" y="256.13"/>
  <use xlink:href="#l" x="111.25" y="230.24"/>
  <use xlink:href="#m" x="118.68" y="232.64"/>
  <use xlink:href="#l" x="75.9" y="184.33"/>
  <use xlink:href="#n" x="83.33" y="186.73"/>
  <path fill="none" stroke="#000" stroke-linejoin="round" stroke-miterlimit="10" stroke-width="1.5" d="M106.1 264.72v11.2"/>
  <path fill="none" stroke="#000" stroke-linejoin="round" stroke-miterlimit="10" stroke-width=".75" d="M110.7 261.43v17.96"/>
  <path fill="none" stroke="#000" stroke-linejoin="round" stroke-miterlimit="10" d="M147.08 164.61H68.61m78.23 106.31V164.27M68.6 270.92l.24-106.43m36.59 106.21h-36.5m77.91 0H111.1m36.1-55.8H68.72"/>
  <path fill="#fff" fill-rule="evenodd" stroke="#000" stroke-miterlimit="8" d="M63.68 204.44h10.07v-30.87H63.68ZM92 219.7h30.86v-10.06H91.99Zm-28.48 37.75h10.04v-30.86H63.52Zm28.49-88.08h30.81v-10.04h-30.8Zm0 0"/>
  <use xlink:href="#l" x="111.25" y="179.9"/>
  <use xlink:href="#q" x="118.68" y="182.29"/>
  <use xlink:href="#r" x="113.53" y="266.71"/>
</svg>
