<svg xmlns="http://www.w3.org/2000/svg" xmlns:xlink="http://www.w3.org/1999/xlink" width="300" height="150" viewBox="0 0 300 150">
  <defs>
    <path id="L" d="M3.9-8.1v6.5q0 .73.07.93.06.2.26.33.22.12.68.12h.17V0H.89v-.22h.22q.51 0 .72-.1.21-.13.3-.34.07-.2.07-.95v-4.12q0-.55-.06-.7a.5.5 0 0 0-.19-.23 1 1 0 0 0-.32-.09q-.3 0-.74.19l-.1-.22 2.93-1.33Zm0 0"/>
    <path id="K" d="M1.5-1.81q.4 0 .69.3.3.27.3.68t-.3.69a1 1 0 0 1-.69.28q-.4 0-.69-.28a1 1 0 0 1-.28-.69q0-.4.28-.69.28-.3.69-.3m0 0"/>
    <path id="F" d="M3.7 0v-.22q.53 0 .53-.78v-2.69L2.67-1q0 .77.53.78V0H.4v-.22q.35 0 .5-.19.13-.18.13-.65v-3.38q0-.83-.62-.83v-.21h2.8v.21q-.33.02-.43.2-.1.15-.1.63v2.67l1.55-2.71q0-.45-.12-.61-.13-.18-.4-.18v-.21H6.5v.21q-.32.02-.47.18-.15.14-.16.57v3.49q0 .48.15.66.13.15.48.15V0Zm0 0"/>
    <path id="D" d="M3.1-7.95h4.1v.22q-.67 0-.86.18-.18.16-.23.72 1.35 0 2.05.31.69.33 1.2.94.52.63.52 1.53 0 1.13-.85 1.99-.83.86-2.92.86 0 .42.1.6a.6.6 0 0 0 .29.27q.2.1.7.11V0H3.1v-.22q.73 0 .92-.22.18-.22.18-.76a5 5 0 0 1-2.17-.38Q1.25-1.97.84-2.6a2.65 2.65 0 0 1 .1-2.97q.5-.7 1.25-.97.76-.27 2.01-.28 0-.52-.22-.7-.2-.2-.89-.2Zm3 6.3q.6 0 .96-.16.38-.2.63-.75.25-.57.25-1.55 0-.8-.24-1.34-.22-.55-.58-.74t-1.01-.2ZM4.2-6.38a2 2 0 0 0-1.1.28q-.34.25-.54.78-.19.54-.19 1.36 0 .96.24 1.45.24.5.62.7.4.18.97.18Zm0 0"/>
    <path id="G" d="M.42-.22Q.76-.23.9-.39q.15-.15.14-.63V-4.5q0-.4-.12-.56-.13-.17-.49-.2v-.22h4.81v1.43h-.21q-.13-.66-.36-.86-.24-.2-.91-.2H2.67v4.13q0 .42.13.59.15.15.56.17V0H.42Zm0 0"/>
    <path id="n" d="M2.58-4.1q.54-.82 1.08-1.21.52-.4 1.07-.4.57 0 .85.34.3.3.3.92v.17q.5-.72 1-1.06.49-.36 1.04-.36.53 0 .83.3.3.32.3.88 0 .38-.18 1.05l-.39 1.55q-.15.63-.15.89 0 .24.08.34.07.12.25.11a.6.6 0 0 0 .36-.14q.2-.15.57-.55l.33.33a5 5 0 0 1-.87.78Q8.67.1 8.19.1a.8.8 0 0 1-.61-.26 1 1 0 0 1-.24-.7q0-.38.2-1.13l.26-1q.14-.55.18-.81.05-.27.05-.44 0-.4-.14-.58-.13-.18-.44-.19a1 1 0 0 0-.53.2 3 3 0 0 0-.6.57q-.3.4-.5.77t-.3.92L4.98 0H3.97l.67-2.98.17-.8q.05-.27.05-.45 0-.43-.16-.6-.15-.18-.47-.19a1 1 0 0 0-.5.2q-.28.18-.6.59-.33.4-.52.78-.18.38-.3.92L1.77 0H.75l.84-3.72q.15-.56.14-.86a.6.6 0 0 0-.07-.34q-.09-.1-.25-.11a.6.6 0 0 0-.38.16q-.2.14-.56.53l-.33-.33q.51-.53.9-.78.36-.25.8-.25.38 0 .58.25.22.23.22.62 0 .33-.12.69Zm0 0"/>
    <path id="p" d="M3.1-2.4a1 1 0 0 0-.13-.32.4.4 0 0 0-.14-.12l-.27-.04h-.4L1.55 0h-1l1.5-6.7.1-.52q.04-.2.04-.34 0-.25-.16-.35Q1.88-8 1.5-8l.08-.32 1.47-.04h.34l-1.14 5.1h.19q.43 0 .98-.37.55-.39.88-.72T4.63-5q0-.28-.41-.31l.08-.3h1.89l.1.3q-.48.44-1.02.86L3.8-3.33l.58 2.11q.06.29.13.4.05.12.12.18.08.05.2.05.16 0 .36-.16.21-.17.49-.47l.33.33q-.54.55-.88.77-.35.21-.66.21a1 1 0 0 1-.64-.21 2 2 0 0 1-.37-.77Zm0 0"/>
    <path id="s" d="M.88.22v-.9l6.35-2.74L.88-6.2v-.87L8.1-3.84v.82Zm0 0"/>
    <path id="t" d="M3.27.1Q2 .1 1.37-.9a6 6 0 0 1-.62-3.02q0-1.08.19-1.86.2-.8.54-1.3.34-.51.82-.76a2.3 2.3 0 0 1 1.06-.25q1.28 0 1.9 1 .63.98.63 2.98 0 2.08-.67 3.14A2.2 2.2 0 0 1 3.27.1M1.9-4.1q0 1.9.34 2.8.36.9 1.1.9.72 0 1.06-.85.34-.84.34-2.6 0-1.35-.19-2.18a3 3 0 0 0-.48-1.2 1 1 0 0 0-1.44-.1q-.27.21-.44.67-.15.45-.23 1.1-.06.64-.06 1.45m0 0"/>
    <path id="o" d="M3.02-.67q.2 0 .3-.02.13 0 .2-.06t.12-.16l.14-.28h.4q-.05.3-.05.6L4.09 0H.56v-.22a7 7 0 0 1 .53-.87 7 7 0 0 1 .86-.97l.63-.66q.25-.28.39-.5a1.4 1.4 0 0 0 .25-.8q0-.2-.06-.37a1 1 0 0 0-.18-.31 1 1 0 0 0-.28-.2 1 1 0 0 0-.4-.07 1 1 0 0 0-.66.22q-.25.21-.39.6H.7v-.82a6 6 0 0 1 1.78-.42q.44 0 .74.1t.5.27q.18.16.26.4.1.23.1.5a2 2 0 0 1-.11.57q-.05.16-.14.28t-.24.29q-.1.14-.26.3-.16.19-.36.38l-.42.42-.42.43q-.21.2-.38.4-.16.2-.27.38Zm0 0"/>
    <path id="j" d="M2.38-3.78q.5-.75.98-1.11t1-.36.78.3.27.86v.16q.45-.66.92-1 .47-.32.95-.32.5 0 .77.3.27.27.28.8 0 .34-.16.96l-.36 1.4q-.14.6-.14.85 0 .2.06.31.08.1.24.1t.33-.13.53-.51l.3.3q-.47.5-.8.73-.35.24-.8.23a.7.7 0 0 1-.56-.25q-.2-.26-.2-.64 0-.36.17-1.03l.23-.94A7 7 0 0 0 7.4-3.9q0-.37-.12-.53-.13-.17-.41-.17-.21 0-.49.17-.25.18-.54.53a3.4 3.4 0 0 0-.75 1.55L4.58 0h-.92l.6-2.73a9 9 0 0 0 .2-1.16q0-.39-.13-.55-.15-.17-.42-.17-.22 0-.49.17-.25.18-.54.55t-.47.72q-.15.34-.29.84L1.63 0H.7l.78-3.42q.12-.52.12-.8 0-.21-.07-.31t-.22-.1a.6.6 0 0 0-.36.15q-.18.12-.5.5L.13-4.3q.49-.5.82-.72.34-.23.75-.23.33 0 .53.23.2.22.2.58 0 .3-.12.63Zm0 0"/>
    <path id="u" d="M1.33.47Q1.2.59 1.14.7l-.1.24q-.02.12-.02.28 0 .4.3.58.28.18.87.18.66 0 1.06-.3t.69-.96.56-2l-.08-.02a5 5 0 0 1-.97 1.05Q3 .08 2.48.08q-.57 0-.9-.44a2 2 0 0 1-.33-1.27q0-.91.36-1.76a3.3 3.3 0 0 1 1-1.36q.64-.5 1.44-.5.33 0 .62.08.3.08.63.28l.48-.36.36.1-.56 2.5-.27 1.34Q5.1-.2 4.95.29q-.14.46-.34.85a2.3 2.3 0 0 1-1.33 1.11q-.45.16-1.08.16Q.16 2.4.16 1.2q0-.28.18-.54Q.53.4.94.15ZM2.88-.56q.26 0 .53-.19.27-.18.59-.6.3-.4.48-.77t.29-.93q.12-.56.12-.97 0-.42-.17-.6-.17-.2-.6-.2-.54 0-.98.45-.44.44-.69 1.2-.25.75-.25 1.5 0 .56.16.84t.52.27m0 0"/>
    <path id="k" d="M2.88-1.03v.2l.03.16q0 .06.04.1l.07.07q.04.05.12.08l.2.04.3.04h.4V0H.95v-.34a4 4 0 0 0 .84-.08l.13-.06L2-.55l.06-.1q.03-.07.03-.16l.02-.22v-2.83q0-.15-.06-.2-.05-.08-.16-.08a1 1 0 0 0-.37.14q-.24.13-.61.36l-.1-.17L.71-4l.96-.53.99-.53h.23q0 .22-.02.39v.63Zm0 0"/>
    <path id="y" d="M.67-3.92v-.77a5 5 0 0 1 1.67-.4 2 2 0 0 1 1.05.28 1 1 0 0 1 .44.8q0 .24-.08.45a1 1 0 0 1-.22.34q-.14.16-.36.28t-.5.25v.05q.27.05.5.16.24.1.4.26a1.2 1.2 0 0 1 .37.81 1.4 1.4 0 0 1-.47 1.07q-.24.18-.6.3-.35.1-.8.1-.37 0-.74-.06Q.95-.08.6-.2v-.85h.52q.05.2.14.35.08.15.2.23t.26.13q.16.03.36.03.51 0 .75-.24.27-.24.27-.73 0-.53-.34-.8a1.7 1.7 0 0 0-1.02-.26H1.4v-.4q.4 0 .7-.1t.52-.25a1 1 0 0 0 .39-.8.8.8 0 0 0-.24-.6q-.22-.21-.64-.21a1 1 0 0 0-.6.2q-.25.2-.37.58Zm0 0"/>
    <path id="z" d="M2.84-2.22a1 1 0 0 0-.1-.3.2.2 0 0 0-.13-.09l-.25-.03H2L1.44 0H.5l1.4-6.17.08-.49q.04-.18.04-.3 0-.24-.15-.34t-.48-.1l.06-.27 1.36-.05h.31l-1.06 4.7h.17q.4.01.91-.34t.81-.66q.32-.3.32-.59 0-.24-.38-.3l.06-.25H5.7l.11.25q-.45.42-.95.8L3.52-3.06l.53 1.94.1.37q.07.11.13.16.06.04.19.04.14 0 .33-.14.18-.15.43-.44l.32.3q-.5.52-.82.72-.3.2-.6.2a.8.8 0 0 1-.58-.2 1.5 1.5 0 0 1-.35-.7Zm0 0"/>
    <path id="B" d="M.81-3.92v-.72h6.64v.72Zm0 2.23v-.7h6.64v.7ZM7.7-3.16"/>
    <path id="C" d="M3 .1a1.9 1.9 0 0 1-1.73-.93 5.5 5.5 0 0 1-.57-2.8q0-.98.18-1.7.16-.73.48-1.2a2.1 2.1 0 0 1 1.73-.92q1.18 0 1.75.9t.58 2.77q0 1.9-.62 2.89Q4.2.1 3 .09M1.75-3.79q0 1.76.33 2.6.33.8 1.01.8.66 0 .97-.76.32-.78.32-2.4 0-1.26-.18-2.02a2.4 2.4 0 0 0-.45-1.1 1 1 0 0 0-.69-.34 1 1 0 0 0-.62.22q-.25.22-.4.64-.17.42-.23 1.01t-.06 1.35m0 0"/>
  </defs>
  <path fill="none" stroke="#000" stroke-linejoin="round" stroke-miterlimit="10" stroke-width=".75" d="M257.37 72.41v26.06"/>
  <path fill="#fff" fill-rule="evenodd" stroke="#000" stroke-linejoin="round" stroke-miterlimit="10" stroke-width="1.5" d="M242.06 28.9a7.7 7.7 0 0 1 9.45-5.36 7.7 7.7 0 0 1 5.26 9.5 7.7 7.7 0 0 1-9.45 5.37 7.7 7.7 0 0 1-5.26-9.51Zm0 0"/>
  <path d="m239.45 42.2 10.39-10.71-1.08-1.05-10.39 10.7Zm11.29-9.84a2 2 0 1 0-2.87-2.79 2 2 0 0 0 2.87 2.79m0 0"/>
  <path fill="#fff" fill-rule="evenodd" stroke="#000" stroke-miterlimit="8" stroke-width="1.5" d="M108.18 41.3h21.36v-17.17h-21.36Zm0 0"/>
  <use xlink:href="#j" x="112.34" y="35.1"/>
  <use xlink:href="#k" x="121.34" y="37.38"/>
  <path fill="none" stroke="#000" stroke-linejoin="round" stroke-miterlimit="8" stroke-width=".75" d="M257.08 32.29v26.07"/>
  <path fill="#fff" fill-rule="evenodd" stroke="#000" stroke-miterlimit="8" stroke-width="1.5" d="M244.68 74.07h25.07v-20.72h-25.07Zm0 0"/>
  <use xlink:href="#n" x="250.73" y="66.93"/>
  <use xlink:href="#o" x="260.81" y="69.33"/>
  <path fill="none" stroke="#000" stroke-linejoin="round" stroke-miterlimit="8" stroke-width="1.5" d="M239.07 41.14v85.91"/>
  <use xlink:href="#p" x="117.74" y="54.57"/>
  <use xlink:href="#s" x="128.06" y="54.57"/>
  <use xlink:href="#t" x="140.3" y="54.57"/>
  <path fill="none" stroke="#000" stroke-linejoin="round" stroke-miterlimit="8" stroke-width="1.5" d="M238.42 41.75H77.8"/>
  <path fill="#fff" fill-rule="evenodd" stroke="#000" stroke-linejoin="round" stroke-miterlimit="8" stroke-width="1.5" d="M181.7 22.64a7.7 7.7 0 0 1 7.64-7.72 7.7 7.7 0 0 1 7.65 7.72 7.7 7.7 0 0 1-7.65 7.73 7.7 7.7 0 0 1-7.64-7.73Zm0 0"/>
  <path d="M189.8 22.82h60.36v.75H189.8Zm0 2.37a2 2 0 1 1 0-4 2 2 0 0 1 0 4m0 0"/>
  <path fill="none" stroke="#000" stroke-linejoin="round" stroke-miterlimit="8" stroke-width=".75" d="M129.2 30.29h60.35"/>
  <path fill="none" stroke="#000" stroke-linejoin="round" stroke-miterlimit="8" stroke-width="1.5" d="M78.12 41.91V03.5"/>
  <path fill="none" stroke="#000" stroke-linejoin="round" stroke-miterlimit="8" stroke-width=".75" d="m77.88 41.08-5.32-6.35m5.64.54-5.4-6.35m5.36-5.74-5.39-6.35m5.42 12.19-5.4-6.35m5.41-5.2-5.4-6.35m5.66.32-5.4-6.35m4.85 9.82h111.3"/>
  <use xlink:href="#u" x="275.45" y="13.14"/>
  <path d="M271.65 01.07v21.78h-.75v-21.78Zm-.38 21.78 2-2-2 6-2-6Zm0 0"/>
  <path fill="#fff" fill-rule="evenodd" stroke="#000" stroke-miterlimit="8" stroke-width="1.5" d="M243.66 114.62h28.07V89.5h-28.07Zm0 0"/>
  <use xlink:href="#j" x="250.97" y="104.25"/>
  <use xlink:href="#y" x="260.21" y="106.53"/>
  <use xlink:href="#z" x="180.74" y="53.58"/>
  <use xlink:href="#B" x="190.22" y="53.58"/>
  <use xlink:href="#C" x="201.38" y="53.58"/>
  <use xlink:href="#D" x="141.5" y="121.53"/>
  <use xlink:href="#F" x="151.81" y="121.53"/>
  <use xlink:href="#G" x="158.77" y="121.53"/>
  <use xlink:href="#K" x="164.17" y="121.53"/>
  <use xlink:href="#L" x="170.17" y="121.53"/>
</svg>
