<svg xmlns="http://www.w3.org/2000/svg" xmlns:xlink="http://www.w3.org/1999/xlink" width="612" height="470" viewBox="0 0 612 470">
  <defs>
    <path id="t" d="m4.5-.33-.02.16-.04.1-.05.05-.06.02H1.05Q1 0 .98-.02L.92-.06.9-.17.87-.33l.05-.25q.02-.05.05-.06l.08-.03h1.3v-4.78l-1.2.72-.17.06q-.04.01-.07-.02t-.05-.1L.84-5v-.13q.01-.07.04-.1 0-.04.03-.06l.07-.06 1.46-.94.04-.02.07-.01.1-.02h.15l.3.03q.06.02.07.05l.02.05v5.53h1.14q.04 0 .08.03.03.02.04.06.03.04.03.1zm0 0"/>
    <path id="u" d="M3.3-4.2v.17l-.02.12-.05.07-.06.01-.1-.01-.12-.05-.15-.05-.2-.01-.24.04-.23.16q-.14.1-.27.3-.15.18-.31.45v2.88l-.03.07-.07.05-.1.02A1 1 0 0 1 .82 0L.77-.05.75-.12v-4.44q0-.03.06-.05l.11-.01a1 1 0 0 1 .47.01q.04.02.06.05l.02.06v.64a3 3 0 0 1 .64-.69 1 1 0 0 1 .27-.12q.13-.05.28-.05l.14.02.17.03.15.04q.1.02.11.05.04.02.04.05l.01.05.02.09zm0 0"/>
    <path id="v" d="M4.03-.1q0 .04-.05.07L3.9.02a1 1 0 0 1-.4 0l-.12-.05q-.03-.03-.03-.08v-.44q-.27.3-.64.47-.34.18-.73.17-.34 0-.63-.09a2 2 0 0 1-.48-.25 1 1 0 0 1-.3-.42q-.1-.25-.1-.56 0-.38.13-.64.15-.29.44-.46.28-.18.69-.26.4-.1.92-.1h.6v-.34q0-.25-.05-.44A.7.7 0 0 0 2.7-4a1.7 1.7 0 0 0-1 .02q-.24.06-.41.15-.18.08-.3.16l-.17.06q-.05 0-.08-.02L.7-3.68l-.03-.1-.01-.13.01-.19q.02-.08.08-.14l.23-.14q.16-.09.36-.16a3 3 0 0 1 .97-.17q.47 0 .8.11t.55.31q.2.2.28.52.1.32.1.72Zm-.8-2h-.67q-.35 0-.6.05-.23.05-.38.16a.7.7 0 0 0-.31.6q0 .35.21.56.22.2.61.2.31 0 .58-.16.27-.17.56-.5Zm0 0"/>
    <path id="x" d="m4.48-.12-.01.07L4.4 0l-.1.02a1 1 0 0 1-.33 0L3.86 0 3.8-.05l-.02-.07V-.7a3 3 0 0 1-.72.6q-.37.19-.81.2-.48 0-.83-.2a2 2 0 0 1-.56-.5 2 2 0 0 1-.3-.74 4 4 0 0 1 .02-1.93q.12-.46.36-.78.24-.33.6-.5.34-.17.82-.17.38 0 .69.17.33.17.64.5v-2.54l.01-.07q.01-.03.07-.04l.12-.03a1 1 0 0 1 .4 0l.12.03q.04 0 .06.04l.01.07Zm-.8-3.08a4 4 0 0 0-.63-.61q-.3-.22-.63-.22a1 1 0 0 0-.53.16q-.2.13-.34.39-.13.23-.2.53-.05.3-.05.6 0 .34.04.66.06.32.2.56.1.25.32.4.21.14.53.14.15 0 .3-.05T3-.78a3 3 0 0 0 .69-.67Zm0 0"/>
    <path id="A" d="M4.22-1.77q0 .45-.17.8-.16.34-.46.58-.28.24-.67.36a3 3 0 0 1-1.44.06 3 3 0 0 1-.82-.28l-.2-.14-.09-.14-.03-.25v-.17l.03-.13.07-.06.06-.02q.06 0 .19.1a3 3 0 0 0 .78.36 2.3 2.3 0 0 0 1.13 0q.23-.07.39-.2.16-.14.25-.33.1-.2.1-.45a1 1 0 0 0-.13-.46 2 2 0 0 0-.78-.6l-.52-.24-.53-.26Q1.14-3.4.94-3.6A1.6 1.6 0 0 1 .5-4.73q0-.4.14-.7.14-.32.4-.52.25-.2.6-.32a2.7 2.7 0 0 1 1.92.16l.19.13.06.07.02.07.01.09.02.16-.02.15-.01.11-.05.08-.05.02a.4.4 0 0 1-.17-.07l-.28-.15a2 2 0 0 0-.4-.16 1.5 1.5 0 0 0-.96 0 1 1 0 0 0-.31.19.8.8 0 0 0-.27.6q0 .28.13.46.12.2.33.34.2.15.45.27l.53.23q.27.13.52.29.26.13.47.34t.32.48q.13.27.13.64m0 0"/>
    <path id="B" d="M4.5-3.75q0 .2-.06.28a.2.2 0 0 1-.13.06H.64a.2.2 0 0 1-.14-.06 1 1 0 0 1-.05-.28q0-.17.05-.25.05-.1.14-.1h3.67q.08 0 .13.1.06.08.06.25m0 1.9q0 .2-.06.27a.2.2 0 0 1-.13.06H.64a.2.2 0 0 1-.14-.06 1 1 0 0 1-.05-.28q0-.17.05-.25.05-.1.14-.1h3.67q.08 0 .13.1.06.09.06.25m0 0"/>
    <path id="C" d="m5.03-.12-.01.06-.07.06-.14.02A2 2 0 0 1 4.25 0l-.08-.06-.04-.11-.58-1.49-.2-.45a2 2 0 0 0-.27-.37q-.16-.15-.36-.24t-.49-.08h-.56v2.68l-.03.06-.06.04-.13.04a1 1 0 0 1-.4 0L.92-.02.84-.06.83-.12v-5.83q0-.2.1-.25a.4.4 0 0 1 .21-.08h1.34a5 5 0 0 1 .68.03q.37.05.65.2.29.13.47.35.2.2.28.48a1.8 1.8 0 0 1-.23 1.6q-.15.18-.4.32-.2.15-.5.25.15.07.29.17.12.1.23.25.1.14.2.33.12.2.2.44l.57 1.38zM3.77-4.55q0-.36-.18-.6a1 1 0 0 0-.54-.38l-.27-.05-.4-.01h-.7v2.1h.8q.33 0 .57-.07t.4-.22.24-.33q.08-.2.08-.44m0 0"/>
    <path id="H" d="M2.4-3.86q.52-.72 1-1.05.5-.33 1-.34.39 0 .66.06L4.8-3.97h-.55a1 1 0 0 0-.1-.36.4.4 0 0 0-.13-.17.4.4 0 0 0-.2-.05 1 1 0 0 0-.44.17q-.23.16-.52.52a5 5 0 0 0-.45.69q-.15.33-.29.84L1.63 0H.7l.78-3.42.1-.5v-.3a1 1 0 0 0-.05-.31q-.07-.1-.22-.1a.6.6 0 0 0-.36.15q-.2.12-.5.5L.13-4.3q.5-.5.82-.73.35-.22.74-.22.33 0 .53.23.2.22.2.58 0 .27-.1.55Zm0 0"/>
    <path id="N" d="M1.4-.5h1.74q.28 0 .44-.05t.3-.12q.13-.1.26-.25.15-.16.28-.4.15-.22.31-.63h.52L4.85 0H.04L.1-.27 5-6.86H3.34q-.3 0-.48.05a1 1 0 0 0-.33.18q-.15.15-.31.4a4 4 0 0 0-.4.68h-.5l.38-1.8h4.68l-.05.24Zm0 0"/>
    <path id="X" d="M4.1-7.36q.63 0 1.04.11.41.09.69.3.25.19.39.53.14.3.14.73 0 .82-.4 1.4-.36.6-1.02.88-.66.27-1.57.27-.54 0-.92-.02l-.34 1.6-.08.34L2-.97v.24q0 .17.05.26.07.1.15.14.1.05.38.06L2.53 0H.31l.05-.27a1 1 0 0 0 .31-.09l.17-.2Q.92-.7.97-.9l.19-.72.92-4.16q.1-.52.1-.84 0-.27-.12-.36a1 1 0 0 0-.4-.12l.06-.27Zm-1 3.75q.67 0 1.06-.12.4-.15.65-.43.28-.27.4-.67.15-.38.15-.86 0-.62-.33-.9-.32-.3-1.05-.3l-.7.01-.73 3.27Zm0 0"/>
    <path id="ae" d="M3.17-4.9q-.8.57-1.26 1.35a3 3 0 0 0-.47 1.53q0 .7.31 1.11.3.41.94.54l.54-2.47a3.6 3.6 0 0 1 .88-1.82q.6-.6 1.34-.59.75 0 1.11.42.38.42.38 1.24 0 1.02-.44 1.87-.42.84-1.22 1.31-.78.48-1.83.49l-.51 2.25h-.85L2.6.06a2.5 2.5 0 0 1-1.54-.65 2 2 0 0 1-.53-1.46q0-1.8 2.37-3.22Zm.36 4.57q.76-.03 1.31-.5.57-.48.86-1.3.32-.8.32-1.68 0-.47-.18-.74a.5.5 0 0 0-.46-.26q-.45 0-.75.5-.3.48-.55 1.53Zm0 0"/>
    <path id="O" d="M2.88-1.03v.2l.03.16q0 .06.04.1l.07.07q.04.05.12.08l.2.04.3.04h.4V0H.95v-.34a4 4 0 0 0 .84-.08l.13-.06L2-.55l.06-.1q.03-.07.03-.16l.02-.22v-2.83q0-.15-.06-.2-.05-.08-.16-.08a1 1 0 0 0-.37.14q-.24.13-.61.36l-.1-.17L.71-4l.96-.53.99-.53h.23q0 .22-.02.39v.63Zm0 0"/>
    <path id="R" d="M2.86-.64q.16 0 .28-.02.1 0 .19-.06t.12-.14l.13-.26h.36l-.05.56-.03.56H.53v-.2a3 3 0 0 1 .5-.83q.15-.22.36-.44.2-.24.45-.48l.6-.63q.23-.26.36-.47a1.2 1.2 0 0 0 .17-1.1 1 1 0 0 0-.16-.29 1 1 0 0 0-.26-.18 1 1 0 0 0-.38-.08 1 1 0 0 0-.6.2q-.26.2-.4.58H.66v-.77q.5-.21.92-.31t.76-.1q.4 0 .7.1.28.1.46.25.19.15.27.38a1.2 1.2 0 0 1 .06.76q-.02.13-.08.27a3 3 0 0 1-.34.53l-.27.3-.34.34-.4.39-.38.4-.36.4q-.16.18-.25.34Zm0 0"/>
    <path id="U" d="M.67-3.92v-.77a5 5 0 0 1 1.67-.4 2 2 0 0 1 1.05.28 1 1 0 0 1 .44.8q0 .24-.08.45a1 1 0 0 1-.22.34q-.14.16-.36.28t-.5.25v.05q.27.05.5.16.24.1.4.26a1.2 1.2 0 0 1 .37.81 1.4 1.4 0 0 1-.47 1.07q-.24.18-.6.3-.35.1-.8.1-.37 0-.74-.06Q.95-.08.6-.2v-.85h.52q.05.2.14.35.08.15.2.23t.26.13q.16.03.36.03.51 0 .75-.24.27-.24.27-.73 0-.53-.34-.8a1.7 1.7 0 0 0-1.02-.26H1.4v-.4q.4 0 .7-.1t.52-.25a1 1 0 0 0 .39-.8.8.8 0 0 0-.24-.6q-.22-.21-.64-.21a1 1 0 0 0-.6.2q-.25.2-.37.58Zm0 0"/>
    <path id="aj" d="m2.06-.23.19-.05.14-.06.08-.08.05-.11.01-.19v-.76H.31v-.32l1.17-1.6 1.16-1.63h.63v3.12h.07l.25-.01q.1-.02.18-.06a.3.3 0 0 0 .09-.13l.1-.23h.32l-.01.42-.04.44h-.96v.86q0 .12.06.2.07.06.15.1l.27.09V0H2.06ZM1.02-1.91h1.51v-1.51l.02-.38q0-.18.03-.3h-.05L1.02-1.96Zm0 0"/>
    <mask id="r">
      <g filter="url(#a)">
        <use xlink:href="#b" filter="url(#c)" transform="matrix(.36189 0 0 .36414 499.08 400.32)"/>
      </g>
    </mask>
    <mask id="y">
      <g filter="url(#a)">
        <use xlink:href="#d" filter="url(#c)" transform="matrix(.3611 0 0 .36414 525 386.16)"/>
      </g>
    </mask>
    <mask id="D">
      <g filter="url(#a)">
        <use xlink:href="#e" filter="url(#c)" transform="matrix(.36375 0 0 .36414 504.96 422.16)"/>
      </g>
    </mask>
    <mask id="F">
      <g filter="url(#a)">
        <use xlink:href="#f" filter="url(#c)" transform="matrix(.36188 0 0 .364 196.92 194.04)"/>
      </g>
    </mask>
    <mask id="I">
      <g filter="url(#a)">
        <use xlink:href="#g" filter="url(#c)" transform="matrix(.36188 0 0 .364 299.28 225.24)"/>
      </g>
    </mask>
    <mask id="L">
      <g filter="url(#a)">
        <use xlink:href="#h" filter="url(#c)" transform="matrix(.36162 0 0 .36222 232.92 75.6)"/>
      </g>
    </mask>
    <mask id="P">
      <g filter="url(#a)">
        <use xlink:href="#i" filter="url(#c)" transform="matrix(.36162 0 0 .3668 291.6 87.96)"/>
      </g>
    </mask>
    <mask id="S">
      <g filter="url(#a)">
        <use xlink:href="#j" filter="url(#c)" transform="matrix(.36162 0 0 .36222 346.56 119.16)"/>
      </g>
    </mask>
    <mask id="V">
      <g filter="url(#a)">
        <use xlink:href="#k" filter="url(#c)" transform="matrix(.36162 0 0 .36222 263.28 76.56)"/>
      </g>
    </mask>
    <mask id="Y">
      <g filter="url(#a)">
        <use xlink:href="#l" filter="url(#c)" transform="matrix(.36162 0 0 .36222 321 95.52)"/>
      </g>
    </mask>
    <mask id="aa">
      <g filter="url(#a)">
        <use xlink:href="#m" filter="url(#c)" transform="matrix(.36162 0 0 .36 372.24 132.48)"/>
      </g>
    </mask>
    <mask id="ac">
      <g filter="url(#a)">
        <use xlink:href="#n" filter="url(#c)" transform="matrix(.36188 0 0 .366 282.24 89.76)"/>
      </g>
    </mask>
    <mask id="af">
      <g filter="url(#a)">
        <use xlink:href="#o" filter="url(#c)" transform="matrix(.36188 0 0 .364 388.32 157.08)"/>
      </g>
    </mask>
    <mask id="ah">
      <g filter="url(#a)">
        <use xlink:href="#p" filter="url(#c)" transform="matrix(.36162 0 0 .36222 388.32 169.32)"/>
      </g>
    </mask>
    <mask id="ak">
      <g filter="url(#a)">
        <use xlink:href="#q" filter="url(#c)" transform="matrix(.36188 0 0 .364 329.76 113.28)"/>
      </g>
    </mask>
    <filter id="a" width="100%" height="100%" x="0%" y="0%">
      <feColorMatrix color-interpolation-filters="sRGB" values="0 0 0 0 1 0 0 0 0 1 0 0 0 0 1 0 0 0 1 0"/>
    </filter>
    <filter id="c" width="100%" height="100%" x="0%" y="0%">
      <feColorMatrix color-interpolation-filters="sRGB" values="0 0 0 0 1 0 0 0 0 1 0 0 0 0 1 0.2126 0.7152 0.0722 0 0"/>
    </filter>
  </defs>
  <path fill="none" stroke="#000" stroke-linejoin="round" stroke-miterlimit="10" d="M444.95 418.44c0-25.1 20.1-45.45 44.89-45.45s44.89 20.35 44.89 45.45-20.1 45.45-44.89 45.45-44.9-20.35-44.9-45.45Zm69.57-38.17-24.07 38.91m44.01-.65h-44.01"/>
  <path fill="none" stroke="#000" stroke-linejoin="round" stroke-miterlimit="10" d="M496.73 410.72a10.3 10.3 0 0 1 2.58 6.85"/>
  <g mask="url(#r)">
    <use xlink:href="#s" transform="matrix(.36189 0 0 .36414 499.08 400.32)"/>
  </g>
  <use xlink:href="#t" x="506.38" y="409.85"/>
  <use xlink:href="#u" x="513.7" y="409.85"/>
  <use xlink:href="#v" x="517.18" y="409.85"/>
  <use xlink:href="#x" x="521.97" y="409.85"/>
  <g mask="url(#y)">
    <use xlink:href="#z" transform="matrix(.3611 0 0 .36414 525 386.16)"/>
  </g>
  <use xlink:href="#A" x="532.3" y="395.69"/>
  <use xlink:href="#B" x="539.12" y="395.69"/>
  <use xlink:href="#C" x="546.33" y="395.69"/>
  <g mask="url(#D)">
    <use xlink:href="#E" transform="matrix(.36375 0 0 .36414 504.96 422.16)"/>
  </g>
  <use xlink:href="#C" x="512.26" y="431.71"/>
  <path fill="none" stroke="#000" stroke-linejoin="round" stroke-miterlimit="10" stroke-width="1.5" d="M214.95 92.84h28m.41 0 28 6.25"/>
  <path fill="none" stroke="#000" stroke-dasharray="4 3" stroke-linejoin="round" stroke-miterlimit="10" d="M214.95 92.84v230.68M270.9 99.46l-55.95 222.05M324.79 120.3 213.05 323.6"/>
  <path fill="none" stroke="#000" stroke-linejoin="round" stroke-miterlimit="10" stroke-width="1.5" d="m271.78 99.46 28 6.26m-.52-.57 25.8 15.14"/>
  <path fill="none" stroke="#000" stroke-dasharray="8 3 1 3" stroke-linejoin="round" stroke-miterlimit="10" d="m242.95 92.84-28 228.29m83.99-215.98-84 214.19M350.4 136.41 214.94 320.7"/>
  <path fill="none" stroke="#000" stroke-linejoin="round" stroke-miterlimit="10" stroke-width="1.5" d="m324.83 120.3 25.8 15.15m-.22 0 22.38 18.6m.35.35L395.5 173"/>
  <path fill="none" stroke="#000" stroke-dasharray="4 3" stroke-linejoin="round" stroke-miterlimit="10" d="M372.78 154.4 214.95 321.36m79.17-227.33-53.6-1.19M350.8 120.1l-51.54-14.95m105.15 57.3-54-27"/>
  <g mask="url(#F)">
    <use xlink:href="#G" transform="matrix(.36188 0 0 .364 196.92 194.04)"/>
  </g>
  <use xlink:href="#H" x="205.85" y="204.74"/>
  <g mask="url(#I)">
    <use xlink:href="#J" transform="matrix(.36188 0 0 .364 299.28 225.24)"/>
  </g>
  <use xlink:href="#H" x="308.21" y="235.82"/>
  <g mask="url(#L)">
    <use xlink:href="#M" transform="matrix(.36162 0 0 .36222 232.92 75.6)"/>
  </g>
  <use xlink:href="#N" x="240.89" y="86.06"/>
  <use xlink:href="#O" x="246.77" y="88.34"/>
  <g mask="url(#P)">
    <use xlink:href="#Q" transform="matrix(.36162 0 0 .3668 291.6 87.96)"/>
  </g>
  <use xlink:href="#N" x="299.33" y="98.3"/>
  <use xlink:href="#R" x="305.45" y="100.58"/>
  <g mask="url(#S)">
    <use xlink:href="#T" transform="matrix(.36162 0 0 .36222 346.56 119.16)"/>
  </g>
  <use xlink:href="#N" x="354.31" y="129.62"/>
  <use xlink:href="#U" x="360.43" y="131.9"/>
  <g mask="url(#V)">
    <use xlink:href="#W" transform="matrix(.36162 0 0 .36222 263.28 76.56)"/>
  </g>
  <use xlink:href="#X" x="271.49" y="87.02"/>
  <use xlink:href="#O" x="276.89" y="89.3"/>
  <g mask="url(#Y)">
    <use xlink:href="#Z" transform="matrix(.36162 0 0 .36222 321 95.52)"/>
  </g>
  <use xlink:href="#X" x="329.09" y="105.98"/>
  <use xlink:href="#R" x="334.73" y="108.26"/>
  <g mask="url(#aa)">
    <use xlink:href="#ab" transform="matrix(.36162 0 0 .36 372.24 132.48)"/>
  </g>
  <use xlink:href="#X" x="380.35" y="142.94"/>
  <use xlink:href="#U" x="385.99" y="145.22"/>
  <path fill="none" stroke="#000" stroke-linejoin="round" stroke-miterlimit="10" stroke-width=".75" d="M266.23 92.83c0 1.49-.44 2.93-1.23 4.1m51.44 13.9c0 1.48-.44 2.93-1.23 4.1m57.8 31.98a6.6 6.6 0 0 1-2.39 3.59"/>
  <g mask="url(#ac)">
    <use xlink:href="#ad" transform="matrix(.36188 0 0 .366 282.24 89.76)"/>
  </g>
  <use xlink:href="#ae" x="289.97" y="100.34"/>
  <g mask="url(#af)">
    <use xlink:href="#ag" transform="matrix(.36188 0 0 .364 388.32 157.08)"/>
  </g>
  <use xlink:href="#ae" x="396.07" y="167.78"/>
  <path fill="none" stroke="#000" stroke-dasharray="4 3" stroke-linejoin="round" stroke-miterlimit="10" d="M244.3 104.78v-11"/>
  <g mask="url(#ah)">
    <use xlink:href="#ai" transform="matrix(.36162 0 0 .36222 388.32 169.32)"/>
  </g>
  <use xlink:href="#N" x="396.07" y="179.78"/>
  <use xlink:href="#aj" x="402.19" y="182.06"/>
  <g mask="url(#ak)">
    <use xlink:href="#al" transform="matrix(.36188 0 0 .364 329.76 113.28)"/>
  </g>
  <use xlink:href="#ae" x="337.49" y="123.86"/>
</svg>
