<svg xmlns="http://www.w3.org/2000/svg" xmlns:xlink="http://www.w3.org/1999/xlink" width="595.32" height="841.92" viewBox="0 0 595.32 841.92">
  <defs>
    <path id="a" d="M1.6-3.72q.13-.56.13-.86a.6.6 0 0 0-.07-.34q-.09-.1-.25-.11a.6.6 0 0 0-.38.16q-.2.14-.56.53l-.33-.33q.54-.56.9-.8.35-.24.8-.23.38 0 .58.25.22.23.22.62 0 .32-.14.7l.08.02q.55-.81 1.08-1.2.52-.4 1.07-.4t.83.34q.3.31.3.85 0 .38-.16 1.05l-.39 1.55q-.15.63-.15.89 0 .24.07.34.08.12.24.11.18 0 .37-.14.2-.15.57-.55l.34.33q-.51.54-.9.78a1.5 1.5 0 0 1-.83.25.8.8 0 0 1-.63-.26 1 1 0 0 1-.22-.7q0-.38.19-1.13l.26-1 .2-.81q.04-.27.04-.44 0-.4-.14-.58t-.44-.19a1 1 0 0 0-.53.2q-.3.2-.6.6-.33.4-.52.77a4 4 0 0 0-.32.92L1.77 0H.75Zm0 0"/>
    <path id="c" d="M1.92-3.17q-.66.3-1.54.64l-.15-.49q.94-.3 1.82-.73l.36-1.66q.32-1.48.92-2.2t1.42-.73q.39 0 .64.17.26.15.38.44.1.28.1.62 0 .55-.25 1.14-.25.6-.87 1.19-.6.58-1.78 1.19l-.38 1.7q-.12.58-.12.86 0 .24.08.34.07.12.25.11.15 0 .3-.08t.3-.21l.32-.35.36-.5.4.31q-.4.57-.7.86t-.64.47-.72.17q-.45 0-.69-.26A1 1 0 0 1 1.5-.9q0-.45.16-1.14Zm1.17-.99q.97-.6 1.49-1.4.53-.81.53-1.7 0-.3-.11-.46a.4.4 0 0 0-.33-.17.7.7 0 0 0-.5.23 2 2 0 0 0-.39.68q-.18.45-.33 1.2Zm0 0"/>
    <path id="d" d="m2.8-2.66-.38-1.67a2 2 0 0 0-.17-.48q-.06-.12-.14-.16a.3.3 0 0 0-.17-.05l-.24.07a1 1 0 0 0-.22.18l-.3.43L.8-4.6q.38-.57.72-.83a1.2 1.2 0 0 1 1.1-.24q.15.04.25.13.12.07.2.22.07.12.15.36t.14.58q.08.34.12.71h.07q.55-.8.84-1.15.3-.37.5-.55t.38-.25.5-.08q.25 0 .45.07l-.24 1.06h-.42q-.03-.25-.2-.25l-.11.03-.16.08q-.07.04-.25.22a11 11 0 0 0-.78.93l-.39.5.2.97.16.69.13.42.12.24q.06.08.13.1.07.04.17.04.15 0 .3-.11.15-.13.43-.57l.38.25q-.41.62-.74.86a1.3 1.3 0 0 1-.8.25A1 1 0 0 1 3.74 0a1 1 0 0 1-.3-.28A7 7 0 0 1 3-2.06h-.07Q2.3-1.2 1.98-.8q-.3.38-.5.57-.19.17-.37.25T.62.09A1 1 0 0 1 .18.02l.24-1.07h.42q.02.25.2.25l.17-.04q.1-.05.25-.2.18-.18.47-.54zm0 0"/>
  </defs>
  <use xlink:href="#a" x="105.86" y="132.31"/>
  <path fill="none" stroke="#000" stroke-linejoin="round" stroke-miterlimit="10" stroke-width="1.5" d="m80.3 157.81 40.11-70.97"/>
  <path fill="none" stroke="#000" stroke-linejoin="round" stroke-miterlimit="10" d="m117.28 141.52 30.44-3.18"/>
  <path d="m88.3 144.02 26.48-2.76.11.99-26.48 2.77Zm26.54-2.27-2.2-1.78 6.16 1.37-5.75 2.6Zm0 0"/>
  <path fill="none" stroke="#000" stroke-linejoin="round" stroke-miterlimit="10" stroke-width="1.5" d="m120.36 87.2 40.1 70.9m-80.86-.29h80.86"/>
  <path fill="none" stroke="#000" stroke-linejoin="round" stroke-miterlimit="10" d="m76.87 163.3 10.67-18.07"/>
  <path d="m66.24 180.18 8.65-14.59.86.51-8.65 14.58Zm9.08-14.34-2.73.7 4.77-4.13-1.34 6.17Zm0 0"/>
  <path fill="none" stroke="#000" stroke-linejoin="round" stroke-miterlimit="10" d="m160.44 144.69 16.04 8.72"/>
  <path d="m145.88 136.4 12.55 6.82-.48.88-12.54-6.81Zm12.3 7.26-.79-2.71 4.3 4.62-6.21-1.11Zm0 0"/>
  <path fill="none" stroke="#000" stroke-dasharray="3.99544 2.99658" stroke-linejoin="round" stroke-miterlimit="10" d="m151.53 140.18-46.2-25.42"/>
  <use xlink:href="#c" x="124.68" y="170.43"/>
  <use xlink:href="#a" x="128.75" y="264.55"/>
  <path fill="none" stroke="#000" stroke-linejoin="round" stroke-miterlimit="10" stroke-width="1.5" d="m94 295.4 38.8-68.67"/>
  <use xlink:href="#c" x="155.72" y="262.63"/>
  <path fill="none" stroke="#000" stroke-linejoin="round" stroke-miterlimit="10" stroke-width="1.5" d="m132.7 227.08 38.8 68.62m-78.2-.3h78.2"/>
  <path fill="none" stroke="#000" stroke-linejoin="round" stroke-miterlimit="10" d="m84.04 279.96 20.16-2.23"/>
  <path d="m64.8 281.56 16.2-1.79.1 1-16.19 1.79Zm16.25-1.29-2.2-1.77 6.17 1.33-5.74 2.65Zm0 0"/>
  <path fill="none" stroke="#000" stroke-linejoin="round" stroke-miterlimit="10" d="m136.2 286.27 33.56 8.48"/>
  <path d="m104.4 277.7 29.7 7.5-.25.96-29.7-7.5Zm29.57 7.98-1.45-2.43 5.32 3.4-6.29.47Zm0 0"/>
  <use xlink:href="#d" x="102.38" y="290.56"/>
</svg>
