<svg xmlns="http://www.w3.org/2000/svg" xmlns:xlink="http://www.w3.org/1999/xlink" width="595.32" height="841.92" viewBox="0 0 595.32 841.92">
  <defs>
    <path id="b" d="M2.58-4.1q.54-.82 1.08-1.21.52-.4 1.07-.4.57 0 .85.34.3.3.3.92v.17q.5-.72 1-1.06.49-.36 1.04-.36.53 0 .83.3.3.32.3.88 0 .38-.18 1.05l-.39 1.55q-.15.63-.15.89 0 .24.08.34.07.12.25.11a.6.6 0 0 0 .36-.14q.2-.15.57-.55l.33.33a5 5 0 0 1-.87.78Q8.67.1 8.19.1a.8.8 0 0 1-.61-.26 1 1 0 0 1-.24-.7q0-.38.2-1.13l.26-1q.14-.55.18-.81.05-.27.05-.44 0-.4-.14-.58-.13-.18-.44-.19a1 1 0 0 0-.53.2 3 3 0 0 0-.6.57q-.3.4-.5.77t-.3.92L4.98 0H3.97l.67-2.98.17-.8q.05-.27.05-.45 0-.43-.16-.6-.15-.18-.47-.19a1 1 0 0 0-.5.2q-.28.18-.6.59-.33.4-.52.78-.18.38-.3.92L1.77 0H.75l.84-3.72q.15-.56.14-.86a.6.6 0 0 0-.07-.34q-.09-.1-.25-.11a.6.6 0 0 0-.38.16q-.2.14-.56.53l-.33-.33q.51-.53.9-.78.36-.25.8-.25.38 0 .58.25.22.23.22.62 0 .33-.12.69Zm0 0"/>
    <path id="a" d="M.4-.28a1 1 0 0 0 .33-.13 1 1 0 0 0 .2-.22q.07-.13.13-.34l.19-.78 1-4.52q.13-.58.13-.93 0-.3-.15-.38a1 1 0 0 0-.42-.14L1.87-8h2.35l-.06.28q-.24.05-.33.11l-.17.19q-.08.11-.16.36t-.2.81L2.05-.55h1.43q.4 0 .61-.06.23-.07.44-.28.2-.2.4-.55.18-.33.38-.86h.58L5.3 0H.34Zm0 0"/>
    <path id="k" d="M1.44.5q-.12.14-.19.27a1 1 0 0 0-.14.55q0 .44.31.63.3.2.96.2.71 0 1.15-.32T4.28.8q.3-.72.61-2.2h-.08q-.58.78-1.06 1.13A1.7 1.7 0 0 1 2.7.1q-.64 0-1-.48a2.3 2.3 0 0 1-.34-1.38q0-.99.39-1.92.39-.91 1.08-1.47a2.5 2.5 0 0 1 2.26-.45q.33.08.66.3l.53-.4.38.1-.6 2.74-.3 1.43Q5.54-.2 5.39.31T5 1.23a2.6 2.6 0 0 1-1.42 1.22q-.5.17-1.19.17-2.22 0-2.22-1.3 0-.32.2-.59t.65-.56ZM3.13-.6q.29 0 .59-.21t.62-.64q.35-.45.54-.86.18-.4.3-1 .15-.6.15-1.05t-.2-.67q-.19-.2-.65-.2-.6 0-1.07.48t-.75 1.31a5 5 0 0 0-.27 1.63q0 .6.17.9.19.3.56.3m0 0"/>
    <path id="o" d="M4.83-3.62q.28.2.45.5t.28.8l.14.7.14.57q.08.25.2.4.1.17.26.24.14.09.42.13L6.66 0H5.03a8 8 0 0 1-.33-1.25l-.26-1.23q-.07-.33-.16-.55a1 1 0 0 0-.22-.33.6.6 0 0 0-.3-.16q-.15-.04-.38-.04H2.7L2.3-1.7q-.07.22-.08.36l-.05.54q0 .2.05.3.06.08.17.14.12.05.42.08L2.75 0H.33L.4-.28a1 1 0 0 0 .32-.13 1 1 0 0 0 .2-.22q.07-.13.13-.34l.19-.78 1-4.52q.13-.57.13-.92 0-.27-.15-.39a1 1 0 0 0-.42-.14L1.87-8h2.61q.61 0 1 .08a2 2 0 0 1 .68.22q.27.15.46.37.19.24.29.53t.09.61q0 .9-.55 1.55-.54.63-1.62.95ZM3.5-4.07q.86 0 1.34-.24.5-.23.79-.75a2.3 2.3 0 0 0 .23-1.56 1 1 0 0 0-.13-.33 1 1 0 0 0-.18-.23 1 1 0 0 0-.3-.17 2 2 0 0 0-.4-.11 5 5 0 0 0-1.29 0l-.75 3.39Zm0 0"/>
    <path id="d" d="M2.7 0v-.2q.27-.08.35-.2.1-.15.1-.52v-2.72h-.9q-.15 1.41-.4 2.31-.26.9-.54 1.14A1 1 0 0 1 .7.06Q.36.06.16 0v-.9h.36q.02.36.26.35.37 0 .64-1.03.28-1.05.28-1.64 0-.5-.39-.55v-.2H4.3v.2q-.27.06-.36.2t-.08.5v2.15q0 .36.08.5t.36.22V0Zm0 0"/>
    <path id="e" d="M4.06 1.34a6 6 0 0 0-.18-.86 1 1 0 0 0-.24-.37Q3.5 0 3.16 0H1.39a.7.7 0 0 0-.56.25 3 3 0 0 0-.3 1.1H.16v-1.7h.48a5 5 0 0 0 .94-2.9q0-.46-.38-.52v-.2h3.08v.2q-.27.06-.36.2-.1.14-.1.5v2.71h.63v1.7Zm-.95-4.98h-1a7 7 0 0 1-.94 3.28h1.94Zm0 0"/>
    <path id="h" d="M2.95 0v-.2q.25-.05.35-.2.1-.11.1-.52v-.97H1.6v.97q0 .38.09.51.1.14.37.2V0H.44v-.2Q.72-.28.8-.4q.1-.15.1-.52v-2.14q0-.37-.1-.52-.1-.14-.36-.19v-.2h1.6v.2q-.24.06-.34.2-.1.12-.1.5v.8h1.8v-.8q0-.4-.12-.52-.09-.13-.33-.18v-.2h1.61v.2q-.27.07-.36.2-.1.15-.1.5v2.15q0 .38.1.51.1.14.36.2V0Zm0 0"/>
    <path id="s" d="M3.02-.67q.2 0 .3-.02.13 0 .2-.06t.12-.16l.14-.28h.4q-.05.3-.05.6L4.09 0H.56v-.22a7 7 0 0 1 .53-.87 7 7 0 0 1 .86-.97l.63-.66q.25-.28.39-.5a1.4 1.4 0 0 0 .25-.8q0-.2-.06-.37a1 1 0 0 0-.18-.31 1 1 0 0 0-.28-.2 1 1 0 0 0-.4-.07 1 1 0 0 0-.66.22q-.25.21-.39.6H.7v-.82a6 6 0 0 1 1.78-.42q.44 0 .74.1t.5.27q.18.16.26.4.1.23.1.5a2 2 0 0 1-.11.57q-.05.16-.14.28t-.24.29q-.1.14-.26.3-.16.19-.36.38l-.42.42-.42.43q-.21.2-.38.4-.16.2-.27.38Zm0 0"/>
    <path id="p" d="M3.05-1.1v.23l.03.15q0 .06.04.11l.08.08q.04.05.13.08t.2.04a5 5 0 0 0 .75.05V0H.98v-.36l.43-.02.48-.06.13-.06.09-.08.06-.1a1 1 0 0 0 .06-.41v-2.99q0-.15-.06-.22A.2.2 0 0 0 2-4.38q-.15 0-.4.15-.24.12-.65.39l-.1-.2-.08-.2 1.01-.56 1.03-.56h.25l-.01.42v.67Zm0 0"/>
    <path id="l" d="M4.73-2.48h-2.5l-.2.56-.14.45q-.05.22-.05.47 0 .59.61.6V0h-2.5v-.4q.22 0 .38-.13.16-.14.3-.36t.3-.64l2.43-6.52h1.56l1.94 6.57q.13.45.22.64.1.17.23.3.15.1.4.15V0H4.46v-.4q.3-.02.44-.15a.5.5 0 0 0 .15-.39q0-.19-.04-.4l-.13-.57Zm-2.28-.7h2.11l-.93-3.29Zm0 0"/>
    <path id="m" d="M5.6-4.19q.82.25 1.26.75t.44 1.17q0 .6-.2 1.02-.21.44-.62.72-.39.27-.93.4Q5 .02 4.17 0H.57v-.4q.2-.05.34-.12a.4.4 0 0 0 .18-.18 1 1 0 0 0 .08-.3l.02-.47v-5.05l-.02-.46a1 1 0 0 0-.08-.3.4.4 0 0 0-.18-.19Q.78-7.55.56-7.6V-8h3.85q.65 0 1.06.06.56.1.95.32.37.18.58.54t.2.85q0 1.32-1.6 1.98ZM3.79-4.5q.6 0 .92-.16.34-.17.52-.48.17-.32.17-.88 0-.48-.19-.76-.18-.28-.54-.4a3 3 0 0 0-.86-.13q-.41 0-.8.03v2.78ZM3-.7l.8.01q.56 0 .92-.14t.56-.47.2-.95q0-.42-.1-.72a1.2 1.2 0 0 0-.83-.75q-.3-.1-.72-.1H3Zm0 0"/>
    <path id="u" d="M6.38-7.81v1.68h-.8q-.15-.64-.46-.96-.3-.32-.78-.32-.92 0-1.4.9a6 6 0 0 0-.47 2.62q0 1.62.42 2.47.44.83 1.28.83.42 0 .69-.14.28-.15.44-.43.16-.3.28-.8h.8V-.2a9 9 0 0 1-2.29.3Q2.9.1 2.11-.35 1.34-.8.97-1.67A6 6 0 0 1 .6-3.92q0-1.27.42-2.2A3.2 3.2 0 0 1 2.3-7.58a4 4 0 0 1 2.01-.51q.6 0 1.07.06.48.07 1 .22m0 0"/>
    <path id="v" d="M3.6-8q1 0 1.65.16.66.15 1.16.48a3 3 0 0 1 1.3 1.84q.15.6.15 1.35 0 .9-.22 1.64-.22.72-.64 1.23-.39.48-.94.77t-1.28.42q-.6.1-1.56.11H.56v-.4q.22-.05.35-.12a.4.4 0 0 0 .18-.18 1 1 0 0 0 .08-.3l.02-.47v-5.05l-.02-.46a1 1 0 0 0-.08-.3.4.4 0 0 0-.18-.19Q.78-7.55.56-7.6V-8ZM3-.7l.55.01q.63 0 1.08-.19.32-.13.56-.39.37-.4.56-1.04.21-.7.22-1.72 0-1.1-.3-1.84t-.84-1.08q-.55-.36-1.3-.36L3-7.3Zm0 0"/>
    <clipPath id="f">
      <path d="M138 193h5v4.64h-5Zm0 0"/>
    </clipPath>
    <clipPath id="i">
      <path d="M262 198h8v8.63h-8Zm0 0"/>
    </clipPath>
    <clipPath id="t">
      <path d="M114 681h6.6v9H114Zm0 0"/>
    </clipPath>
  </defs>
  <path fill="#fff" fill-rule="evenodd" d="M61.88 269.18h209.81v-91.34H61.88Zm0 0"/>
  <path fill="#fff" fill-rule="evenodd" stroke="#000" stroke-linecap="round" stroke-linejoin="round" stroke-miterlimit="10" stroke-width="1.5" d="M243.2 211.49a7.65 7.65 0 0 0-2.1-10.62 7.65 7.65 0 0 0-10.64 2 7.65 7.65 0 0 0 2.1 10.62 7.66 7.66 0 0 0 10.64-2m0 0"/>
  <path d="m226.21 213.99 10.6-7.45.85 1.22-10.59 7.44Zm9.87-8.47c.9-.63 2.15-.41 2.79.48.63.9.4 2.15-.5 2.8-.89.62-2.14.4-2.78-.5s-.41-2.14.5-2.78m-135.25-6.61h135.84v1H100.84Zm0 2.5-2-2 2-2 2 2Zm144.43 4.79v26.37h-1v-26.36Zm1.5 26.37-2 2-2-2 2-2Zm0 0"/>
  <path fill="none" stroke="#000" stroke-linejoin="round" stroke-miterlimit="10" stroke-width="1.5" d="M226.3 214.05v52.84"/>
  <use xlink:href="#a" x="201.78" y="195.96"/>
  <path fill="none" stroke="#000" stroke-linejoin="round" stroke-miterlimit="10" stroke-width="1.5" d="M226.14 214.14H65.73"/>
  <path fill="#fff" fill-rule="evenodd" stroke="#000" stroke-linecap="round" stroke-linejoin="round" stroke-miterlimit="10" stroke-width="1.5" d="M74.04 195.37a3 3 0 0 0-3.02 3.01v12.09a3 3 0 0 0 3.02 3.03h22.98a3 3 0 0 0 3.02-3.03v-12.09a3 3 0 0 0-3.02-3.01Zm0 0"/>
  <use xlink:href="#b" x="78.89" y="207.22"/>
  <use xlink:href="#d" x="88.96" y="209.62"/>
  <path fill="#fff" fill-rule="evenodd" stroke="#000" stroke-linecap="round" stroke-linejoin="round" stroke-miterlimit="10" stroke-width="1.5" d="M234.96 233.27a3.03 3.03 0 0 0-3.03 3.03v12.13a3.03 3.03 0 0 0 3.03 3.02h19.07a3.03 3.03 0 0 0 3.02-3.02V236.3a3.03 3.03 0 0 0-3.02-3.03Zm0 0"/>
  <use xlink:href="#b" x="237.5" y="244.86"/>
  <use xlink:href="#e" x="247.57" y="247.26"/>
  <use xlink:href="#b" x="128.03" y="194.76"/>
  <g clip-path="url(#f)">
    <use xlink:href="#h" x="138.1" y="197.16"/>
  </g>
  <g clip-path="url(#i)">
    <use xlink:href="#k" x="262.79" y="203.87"/>
  </g>
  <path d="M259.1 190.72v21.78a.5.5 0 0 1-.5.5.5.5 0 0 1-.5-.5v-21.78c0-.28.22-.5.5-.5s.5.22.5.5m-.5 21.78 2-2-2 6-2-6Zm0 0"/>
  <use xlink:href="#l" x="62.33" y="621.55"/>
  <use xlink:href="#m" x="207.65" y="637.37"/>
  <path fill="none" stroke="#000" stroke-linejoin="round" stroke-miterlimit="10" d="m138.34 549.36-66.02 75.62m-.45 1.25 40.2 52.84"/>
  <path d="M71.37 625.43h134.2v1H71.37Zm0 2.5a2 2 0 1 1 0-4 2 2 0 0 1 0 4m134.2-4a2 2 0 0 1 2 2 2 2 0 0 1-4 0c0-1.1.9-2 2-2m0 0"/>
  <path fill="none" stroke="#000" stroke-linejoin="round" stroke-miterlimit="10" d="m205.57 626.23-67.08-77.02"/>
  <use xlink:href="#o" x="78.53" y="664.1"/>
  <use xlink:href="#p" x="85.73" y="666.5"/>
  <path fill="#fff" fill-rule="evenodd" stroke="#000" stroke-linecap="round" stroke-miterlimit="8" d="m85.86 636.43-7.66 5.85 17.98 23.53 7.66-5.84Zm4.83-39.65 7.26 6.34 19.48-22.31-7.27-6.35Zm95.46-.3-7.26 6.34-19.48-22.31 7.26-6.35Zm0 0"/>
  <use xlink:href="#o" x="163.63" y="616.04"/>
  <use xlink:href="#p" x="170.82" y="618.43"/>
  <use xlink:href="#o" x="88" y="580.89"/>
  <use xlink:href="#s" x="95.43" y="583.31"/>
  <use xlink:href="#o" x="135.82" y="601.29"/>
  <use xlink:href="#s" x="143.26" y="603.69"/>
  <use xlink:href="#o" x="179.81" y="585.59"/>
  <use xlink:href="#s" x="187.25" y="587.99"/>
  <g clip-path="url(#t)">
    <use xlink:href="#u" x="113.65" y="689.39"/>
  </g>
  <use xlink:href="#v" x="141.7" y="548.4"/>
  <path fill="none" stroke="#000" stroke-linejoin="round" stroke-miterlimit="8" d="m206.07 625.93-93.5 53.14"/>
  <path d="m138.98 550.06-26.42 128.8-.98-.2L138 549.86Zm-2.44-.5a2 2 0 1 1 3.92.8 2 2 0 0 1-3.92-.8m-22.5 129.6a2 2 0 1 1-3.91-.8 2 2 0 0 1 3.9.8m0 0"/>
  <path fill="#fff" fill-rule="evenodd" stroke="#000" stroke-linecap="round" stroke-miterlimit="8" d="m120.1 615.09 9.46 1.85 5.7-29.07-9.46-1.85Zm22.94 40.96 4.68 8.37 25.83-14.48-4.68-8.37Zm0 0"/>
  <use xlink:href="#o" x="162.79" y="665.54"/>
  <use xlink:href="#p" x="169.99" y="667.94"/>
  <path fill="#fff" fill-rule="evenodd" stroke="#000" stroke-linecap="round" stroke-miterlimit="8" d="M148.13 630.77h29.57v-9.64h-29.57Zm0 0"/>
</svg>
