<svg xmlns="http://www.w3.org/2000/svg" xmlns:xlink="http://www.w3.org/1999/xlink" width="595.32" height="841.92" viewBox="0 0 595.32 841.92">
  <defs>
    <path id="a" d="M3.1-7.94h4.1v.22q-.69.02-.87.17-.2.15-.22.74 1.35 0 2.05.31t1.2.94.5 1.51q0 1.13-.84 1.99T6.1-1.2q0 .42.1.62.09.2.27.27.2.06.72.1V0H3.1v-.22q.73 0 .92-.22.18-.22.18-.76a5 5 0 0 1-2.17-.38Q1.25-1.97.84-2.6a2.7 2.7 0 0 1 .1-2.95q.5-.71 1.25-.97.75-.28 2.01-.28 0-.53-.22-.7-.21-.2-.89-.2Zm3 6.32q.6 0 .96-.18.38-.18.61-.75.25-.57.25-1.56 0-.78-.23-1.33-.22-.54-.58-.73-.36-.2-1-.2ZM4.2-6.37q-.78.01-1.1.26-.34.25-.54.78-.19.54-.19 1.36 0 .97.24 1.47t.62.69q.4.17.97.19Zm0 0"/>
    <path id="b" d="M3.7 0v-.22q.53 0 .53-.78v-2.69L2.66-1q0 .77.53.78V0H.4v-.22q.34 0 .48-.19.15-.18.14-.65v-3.38q0-.81-.62-.81v-.22h2.78v.22q-.3 0-.42.17-.12.15-.11.64v2.67l1.57-2.71q0-.45-.14-.6-.1-.17-.39-.17v-.22h2.78v.22q-.3 0-.46.16-.14.16-.14.57v3.49q0 .48.12.66.14.15.48.15V0Zm0 0"/>
    <path id="c" d="M.42-.22Q.76-.23.9-.39q.15-.15.14-.63v-3.46q0-.43-.12-.58-.13-.15-.49-.19v-.22h4.81v1.42h-.21q-.14-.65-.38-.86t-.89-.2H2.67v4.13q0 .42.13.59.14.15.54.17V0H.42Zm0 0"/>
    <path id="d" d="M1.5-1.8q.4 0 .69.28t.28.7-.28.68a1 1 0 0 1-.69.28q-.4 0-.69-.28a1 1 0 0 1-.28-.69q0-.4.28-.69a1 1 0 0 1 .69-.28m0 0"/>
    <path id="e" d="M4.97 0H.3v-.12a26 26 0 0 0 2.6-3.44q.45-.9.46-1.74 0-.6-.4-1.01-.37-.4-.91-.4-.9 0-1.4.88l-.2-.07q.3-1.1.95-1.64t1.49-.54q.6 0 1.1.28t.77.76q.28.5.28.92a3.4 3.4 0 0 1-.42 1.58Q4-3.47 2.03-1.53h1.7q.64 0 .83-.05t.32-.19q.12-.11.32-.53h.2Zm0 0"/>
    <path id="o" d="M4.81-1.33c-.1.11-.15.17-.26.33-.27.36-.4.47-.57.47q-.22 0-.35-.49l-.05-.18c-.3-1.24-.42-1.78-.42-1.96.53-.93.95-1.45 1.17-1.45q.1 0 .28.1.2.1.34.1c.24 0 .4-.18.4-.43 0-.27-.2-.44-.5-.44-.5 0-.96.42-1.79 1.7l-.14-.65c-.17-.82-.3-1.05-.62-1.05-.27 0-.66.1-1.4.34l-.13.05.04.19c.47-.13.55-.14.67-.14.3 0 .38.1.55.82l.35 1.47-.99 1.4c-.25.37-.48.59-.6.59a1 1 0 0 1-.32-.11 1 1 0 0 0-.4-.13.4.4 0 0 0-.4.43c0 .3.24.5.61.5C.64.13.8.02 1.4-.7c.33-.4.6-.76 1.08-1.42l.36 1.44c.15.62.31.8.69.8.46 0 .78-.29 1.46-1.36Zm0 0"/>
    <path id="g" d="M6.22-.17c-.63-.06-.69-.14-.83-.95L4.34-7.37h-.28l-3.2 5.5C-.02-.39-.12-.26-.56-.17V0H1.5v-.17C.94-.23.84-.28.84-.57c0-.2.04-.3.22-.68L1.7-2.5h2.42l.22 1.45q.04.15.04.28c0 .43-.16.52-.86.6V0h2.7ZM1.94-2.9l1.64-2.88.5 2.88Zm0 0"/>
    <path id="i" d="M-.1 0h3.12c1.73 0 2.93-.9 2.93-2.2 0-.82-.34-1.22-1.39-1.67.78-.2 1.1-.32 1.46-.63q.45-.41.46-1.08c0-1.04-.78-1.62-2.2-1.62H1.44v.17c.69.06.84.14.84.45 0 .17-.05.44-.12.7L.8-1c-.2.64-.28.72-.9.83Zm2.73-3.66q1.06 0 1.4.14c.45.2.72.66.72 1.27 0 1.19-.81 1.92-2.16 1.92q-.7 0-.7-.47 0-.22.38-1.54c.15-.47.23-.8.36-1.32m.82-2.9c.07-.25.2-.32.63-.32q1.32-.01 1.3 1.2c0 .63-.27 1.12-.74 1.38-.37.22-.92.3-1.9.3Zm0 0"/>
    <path id="k" d="m7.19-5.12.4-2.2h-.21c-.1.18-.2.24-.43.24-.1 0-.22-.03-.45-.08a5 5 0 0 0-1.3-.18C2.84-7.34.73-5.14.73-2.7.73-1 1.93.21 3.61.21c1.14 0 2.02-.5 3.02-1.65l-.2-.15C5.44-.62 4.8-.3 3.9-.3c-1.22 0-1.92-.83-1.92-2.27A5.2 5.2 0 0 1 3.37-6.1a2.7 2.7 0 0 1 1.95-.86q1.53 0 1.69 1.8Zm0 0"/>
    <path id="l" d="M1.44-7.03c.69.08.84.16.84.45 0 .17-.05.44-.12.7L.8-1c-.2.64-.28.72-.9.83V0h2.8C4 0 5.16-.34 6-.95c1.08-.8 1.7-2 1.7-3.28 0-1.82-1.24-2.97-3.21-2.97H1.44Zm2.01.48c.07-.25.24-.33.67-.33.63 0 1.2.15 1.54.41.54.4.84 1.1.84 1.95 0 1.22-.47 2.44-1.22 3.2q-.97 1-2.69 1c-.51 0-.71-.13-.71-.41 0-.15.06-.38.25-1.05Zm0 0"/>
    <path id="m" d="M6.25-.17c-.48-.03-.7-.22-.9-.8L4.3-3.67c.85-.19 1.22-.35 1.61-.7q.55-.5.56-1.24c0-1.03-.8-1.6-2.3-1.6H1.46v.18c.47.08.52.08.63.16q.15.1.15.3c0 .13-.04.4-.12.7L.75-1c-.2.66-.28.72-.9.83V0h2.7v-.17c-.7-.1-.75-.14-.75-.52 0-.12.01-.23.14-.64l.6-2.3.73.05L4.63 0h1.62Zm-2.86-6.4c.08-.23.22-.3.56-.3q1.38-.01 1.38 1.25 0 1.62-2.08 1.64c-.2 0-.3-.02-.56-.05Zm0 0"/>
    <path id="n" d="M1.77-4.7q-.56-.02-.94.36c-.4.39-.66 1.18-.66 2 0 .76.22 1.57.55 1.97q.4.46 1.01.46.54.01.91-.36c.4-.37.67-1.18.67-2.03 0-1.42-.64-2.4-1.54-2.4m-.02.18c.58 0 .9.79.9 2.24q0 2.19-.92 2.2-.9-.01-.9-2.2 0-2.22.92-2.24m0 0"/>
  </defs>
  <use xlink:href="#a" x="367.81" y="293.68"/>
  <use xlink:href="#b" x="378.11" y="293.68"/>
  <use xlink:href="#c" x="385.06" y="293.68"/>
  <use xlink:href="#d" x="390.45" y="293.68"/>
  <use xlink:href="#e" x="396.45" y="293.68"/>
  <path d="M305.4 218.2h158.72v1H305.4Zm0 3.49a3 3 0 1 1 0-5.99 3 3 0 0 1 0 5.99m158.72-6a3 3 0 1 1 .01 5.99 3 3 0 0 1 0-5.98M305.4 277.52h158.72v1H305.4Zm0 3.5a3 3 0 1 1 0-5.98 3 3 0 0 1 0 5.98m158.72-6a3 3 0 1 1 .01 6 3 3 0 0 1 0-6m0 0"/>
  <path fill="none" stroke="#000" stroke-linecap="round" stroke-linejoin="round" stroke-miterlimit="10" stroke-width=".75" d="M376.92 218.7v59.43"/>
  <use xlink:href="#g" x="299.95" y="291.52"/>
  <use xlink:href="#i" x="300.55" y="231.56"/>
  <use xlink:href="#k" x="459.15" y="289.84"/>
  <use xlink:href="#l" x="459.27" y="231.56"/>
  <path fill="#fff" fill-rule="evenodd" stroke="#000" stroke-linecap="round" stroke-miterlimit="8" stroke-width=".75" d="M373.47 263.74h7.2v-29.42h-7.2Zm0 0"/>
  <use xlink:href="#m" x="382.55" y="253.28"/>
  <use xlink:href="#n" x="389.27" y="254.84"/>
  <path fill="none" stroke="#000" stroke-linecap="round" stroke-linejoin="round" stroke-miterlimit="8" stroke-width=".75" d="M376.92 218.7c0 2.43-2.58 4.4-5.76 4.4h-23.04c-3.18 0-5.76 2-5.76 4.43 0-2.44-2.58-4.42-5.77-4.42h-23.03c-3.19 0-5.76-1.98-5.76-4.42"/>
  <use xlink:href="#o" x="340.24" y="235.99"/>
</svg>
