<?xml version="1.0" encoding="UTF-8"?>
<svg xmlns="http://www.w3.org/2000/svg" xmlns:xlink="http://www.w3.org/1999/xlink" width="312" height="300" viewBox="0 0 312 300">
<g fill="none" stroke="rgb(0%, 0%, 0%)" transform="matrix(0.2, 0, 0, -0.2, 0, 300)">
<path stroke-width="16.6677" d="M 13 1440 L 15 173 L 1006 171 L 1007 1431 "/> 
<path stroke-width="16.6677" d="M 520 1414 L 520 1179 L 479 1179 L 479 1414 "/> 
<path stroke-width="16.6677" d="M 364 179 C 356 223 366 242 349 270 C 337 288 373 323 367 350 C 359 387 344 421 361 463 C 377 502 615 517 641 490 C 686 444 755 450 734 360 C 726 325 716 290 705 260 C 686 211 702 171 636 171 C 618 172 364 167 364 179 Z M 364 179 "/>
<g stroke-width="8.33383">
<path d="M 476 1165 C 465 1051 473 928 457 814 C 449 753 450 488 389 489 "/>
<path d="M 513 1168 C 510 1039 519 905 517 779 C 516 711 526 636 551 579 C 559 562 618 508 618 503 "/> 
<path stroke-dasharray="8.33383 8.33383" d="M 488 1146 C 486 1015 495 869 479 740 C 474 704 480 633 469 599 C 460 572 454 540 457 502 "/> 
<path stroke-dasharray="8.33383 8.33383" d="M 498 1154 L 497 816 C 497 749 514 580 519 514 "/>
<path d="M 388 598 C 388 607 385 628 378 632 C 376 633 371 637 368 637 C 359 637 348 636 343 629 C 343 629 340 624 340 623 C 340 623 338 618 339 616 C 341 611 346 604 352 603 C 355 603 360 598 362 597 C 367 594 388 595 388 598 Z M 388 598 "/>
<path d="M 350 503 C 337 497 328 480 316 474 C 315 474 294 473 292 473 C 289 473 285 478 284 480 C 283 484 281 485 281 489 C 281 498 294 508 301 512 C 313 518 328 517 341 517 "/>
<path d="M 399 527 C 397 529 391 534 390 537 C 390 537 389 540 389 540 C 384 542 380 547 377 551 C 375 553 369 559 364 559 C 356 559 345 565 340 565 C 334 565 324 569 324 560 C 324 555 323 549 326 547 C 330 544 336 540 338 538 C 342 536 347 532 350 530 C 351 529 357 528 359 528 C 365 527 368 523 374 523 C 374 523 385 521 385 520 "/>
<path d="M 616 531 C 618 537 623 543 629 546 C 636 551 643 557 652 557 C 668 556 667 539 665 528 C 664 520 644 516 644 512 "/>
<path d="M 652 506 C 656 506 658 507 661 507 C 662 507 667 508 668 508 C 678 510 672 510 687 510 C 698 510 711 513 715 524 C 717 526 716 543 716 548 C 716 555 717 557 708 557 C 705 557 702 557 699 557 C 695 557 692 551 690 549 C 688 547 682 541 679 539 C 676 536 671 531 667 528 C 666 527 664 526 663 525 "/> 
<path d="M 683 476 C 690 476 708 478 713 484 C 721 495 718 506 703 507 C 698 507 687 507 682 507 C 681 507 680 506 679 506 C 678 506 668 502 667 502 "/> 
<path d="M 731 445 L 736 446 C 736 446 738 447 738 447 L 738 448 C 738 448 738 451 738 451 L 738 452 C 738 452 738 453 738 453 L 738 458 C 738 458 738 460 738 460 C 738 461 738 463 738 464 C 738 465 738 466 738 467 C 738 468 737 472 736 472 C 730 474 731 476 724 476 C 723 476 718 476 717 476 C 717 476 710 476 710 476 L 707 476 C 707 476 705 476 705 476 L 702 476 C 701 476 696 476 695 476 "/>
<path d="M 327 426 C 325 426 322 430 320 432 C 319 432 318 436 317 436 C 317 436 314 436 314 436 C 313 437 311 439 310 439 C 310 439 305 439 305 439 L 303 439 C 303 439 301 439 301 439 L 300 439 C 300 439 299 439 299 439 L 298 439 C 298 439 298 437 298 437 L 298 432 C 298 432 297 430 297 430 L 295 426 C 295 426 295 422 295 422 C 295 422 295 417 295 417 C 295 417 300 415 301 415 C 301 415 306 415 306 415 C 308 417 307 419 308 421 C 309 421 312 424 313 424 L 314 424 C 314 424 316 424 316 424 L 318 424 C 319 423 321 423 327 426 Z M 327 426 "/>
<path d="M 768 575 L 760 575 C 760 575 758 575 758 575 C 757 575 756 568 756 567 C 756 566 759 563 761 563 C 762 563 764 561 765 561 C 765 561 768 561 768 561 L 770 559 C 770 559 771 559 771 559 L 772 561 C 772 564 771 569 768 575 Z M 768 575 "/>
<path d="M 27 220 C 136 219 244 225 355 224 "/> 
<path stroke-dasharray="8.33383 8.33383" d="M 23 191 C 51 197 88 194 108 191 C 125 188 162 194 177 193 C 190 193 222 198 235 197 L 316 194 C 323 194 357 205 361 198 "/> 
<path d="M 691 217 C 755 216 824 218 883 217 C 923 217 968 224 1008 222 "/>
<path stroke-dasharray="8.33383 8.33383" d="M 1002 199 C 978 199 961 201 937 194 C 881 177 758 192 696 192 C 693 193 691 193 689 193 "/> 
<path d="M 1006 223 C 1102 225 1159 227 1236 200 C 1285 183 1521 114 1521 51 "/>
<path d="M 1010 168 C 1052 167 1090 160 1132 159 C 1158 159 1198 130 1233 120 C 1282 106 1403 57 1428 5 "/> 
<path stroke-dasharray="8.33383 25.0015" d="M 1001 206 C 1100 207 1189 189 1278 160 C 1343 138 1385 128 1434 78 C 1441 71 1483 51 1483 51 "/> 
<path stroke-dasharray="8.33383 25.0015" d="M 1010 182 C 1111 181 1238 170 1324 117 C 1347 103 1464 35 1464 19 "/>
</g>
</g>
</svg>
