<svg xmlns="http://www.w3.org/2000/svg" xmlns:xlink="http://www.w3.org/1999/xlink" width="595.32" height="841.92" viewBox="0 0 595.32 841.92">
  <defs>
    <path id="e" d="M6.1-7.83v1.63h-.57a3 3 0 0 0-.36-.82q-.23-.3-.51-.42-.29-.14-.7-.14-.59 0-1.07.4-.47.4-.73 1.21-.27.82-.27 1.95 0 1.15.22 1.96.21.81.66 1.23.42.41 1.06.4.48 0 .78-.13.3-.14.51-.44.23-.3.41-.87h.58V-.2q-.55.16-1.13.22-.56.07-1.28.07-1.49 0-2.25-1A5 5 0 0 1 .7-3.92q0-1.25.4-2.19.38-.95 1.15-1.47a3.3 3.3 0 0 1 1.84-.51 8 8 0 0 1 2.02.26m0 0"/>
    <path id="b" d="M3.31 0v-.2q.21-.05.3-.1a.3.3 0 0 0 .16-.14.4.4 0 0 0 .06-.23q0-.15-.05-.3l-.1-.37-.15-.55H1.6l-.14.42-.14.45-.03.3q0 .26.13.38.11.1.39.14V0H.03v-.2q.22-.03.4-.27t.34-.67L2.5-5.75h.66l1.4 4.64q.11.33.19.5t.19.27q.1.08.3.14V0Zm-1.6-2.25h1.74l-.8-2.67Zm0 0"/>
    <path id="c" d="M.5 0v-.2q.33-.08.4-.22t.08-.61v-3.6q0-.53-.09-.65-.1-.13-.39-.19v-.2h3.84v1.25h-.42a2 2 0 0 0-.33-.69q-.15-.2-.56-.2H1.77v2.1q.59-.05 1.04-.06 1.9 0 1.9 1.58Q4.7.01 2.62 0Zm1.27-2.83v2.44q.3.03.68.03.75 0 1.08-.31.33-.33.33-.97 0-1.23-1.28-1.24-.54 0-.81.05m0 0"/>
    <path id="a" d="m2.8-2.66-.38-1.67a2 2 0 0 0-.17-.48q-.06-.12-.14-.16a.3.3 0 0 0-.17-.05l-.24.07a1 1 0 0 0-.22.18l-.3.43L.8-4.6q.38-.57.72-.83a1.2 1.2 0 0 1 1.1-.24q.15.04.25.13.12.07.2.22.07.12.15.36t.14.58q.08.34.12.71h.07q.55-.8.84-1.15.3-.37.5-.55t.38-.25.5-.08q.25 0 .45.07l-.24 1.06h-.42q-.03-.25-.2-.25l-.11.03-.16.08q-.07.04-.25.22a11 11 0 0 0-.78.93l-.39.5.2.97.16.69.13.42.12.24q.06.08.13.1.07.04.17.04.15 0 .3-.11.15-.13.43-.57l.38.25q-.41.62-.74.86a1.3 1.3 0 0 1-.8.25A1 1 0 0 1 3.74 0a1 1 0 0 1-.3-.28A7 7 0 0 1 3-2.06h-.07Q2.3-1.2 1.98-.8q-.3.38-.5.57-.19.17-.37.25T.62.09A1 1 0 0 1 .18.02l.24-1.07h.42q.02.25.2.25l.17-.04q.1-.05.25-.2.18-.18.47-.54zm0 0"/>
    <path id="d" d="M4.42-4.17a1.3 1.3 0 0 0-.34-.8q-.28-.26-.88-.26-.46 0-.76.23a.8.8 0 0 0-.28.63q0 .2.07.37t.3.36.69.47q.37.22.6.4a2 2 0 0 1 .34.38q.13.18.18.37.07.2.07.49 0 .51-.29.89-.25.38-.75.56Q2.92.1 2.3.1q-.5 0-.96-.08A6 6 0 0 1 .3-.22L.58-1.5h.45q.03.56.31.86.3.28.94.28.57 0 .88-.25.3-.24.3-.7a1 1 0 0 0-.38-.83 5 5 0 0 0-.63-.44q-.45-.28-.72-.5-.24-.21-.37-.48a1.3 1.3 0 0 1-.13-.6q0-.46.25-.8.25-.37.7-.56.48-.18 1.09-.18a6 6 0 0 1 1.89.3l-.27 1.23Zm0 0"/>
  </defs>
  <path fill="none" stroke="#000" stroke-linejoin="round" stroke-miterlimit="10" stroke-width="1.5" d="m112.58 252.9 29.72 45.73m.1-.14 140.32.25M97.96 368.41l44.67-69.92"/>
  <text x="120.72" y="257.72" font-family="Times New Roman" font-size="12">дом Ана</text>
  <text x="107.06" y="369.91" font-family="Times New Roman" font-size="12">дом Борис</text>
  <text x="254.04" y="285.76" font-family="Times New Roman" font-size="12">училище</text>
  <text x="88" y="300.99" font-family="Times New Roman" font-size="12">място на</text>
  <text x="88" y="314.77" font-family="Times New Roman" font-size="12">среща</text>
  <use xlink:href="#a" x="132.71" y="275.34"/>
  <use xlink:href="#b" x="138.94" y="277.73"/>
  <use xlink:href="#o" x="144.81" y="275.34"/>
  <use xlink:href="#a" x="127.19" y="340.18"/>
  <use xlink:href="#c" x="133.43" y="342.58"/>
  <use xlink:href="#de" x="139.06" y="340.18"/>
  <use xlink:href="#d" x="207.17" y="293.08"/>
  <use xlink:href="#o" x="212.93" y="293.08"/>
  <text x="88.24" y="370.63" font-family="Times New Roman" font-size="12">Б</text>
  <text x="285.68" y="303.38" font-family="Times New Roman" font-size="12">У</text>
  <text x="102.74" y="258.44" font-family="Times New Roman" font-size="12">А</text>
  <use xlink:href="#e" x="144.1" y="313.57"/>
  <use xlink:href="#o" x="150.81" y="313.57"/>
</svg>
