<svg xmlns="http://www.w3.org/2000/svg" xmlns:xlink="http://www.w3.org/1999/xlink" width="595.32" height="841.92" viewBox="0 0 595.32 841.92">
  <defs>
    <clipPath id="a">
      <path d="M75 523h4v6.57h-4Zm0 0"/>
    </clipPath>
    <clipPath id="b">
      <path d="M79 523h5v6.57h-5Zm0 0"/>
    </clipPath>
    <clipPath id="c">
      <path d="M85 523h4v6.57h-4Zm0 0"/>
    </clipPath>
    <clipPath id="d">
      <path d="M89 523h5v6.57h-5Zm0 0"/>
    </clipPath>
    <clipPath id="e">
      <path d="M95 523h4v6.57h-4Zm0 0"/>
    </clipPath>
    <clipPath id="g">
      <path d="M99 523h5v6.57h-5Zm0 0"/>
    </clipPath>
    <clipPath id="h">
      <path d="M104 523h5v6.57h-5Zm0 0"/>
    </clipPath>
    <clipPath id="i">
      <path d="M109 523h5v6.57h-5Zm0 0"/>
    </clipPath>
    <clipPath id="j">
      <path d="M114 523h5v6.57h-5Zm0 0"/>
    </clipPath>
    <clipPath id="k">
      <path d="M119 523h5v6.57h-5Zm0 0"/>
    </clipPath>
    <clipPath id="l">
      <path d="M124 523h5v6.57h-5Zm0 0"/>
    </clipPath>
    <clipPath id="n">
      <path d="M129 523h5v6.57h-5Zm0 0"/>
    </clipPath>
    <clipPath id="o">
      <path d="M99 472.1h5v5.9h-5Zm0 0"/>
    </clipPath>
    <clipPath id="p">
      <path d="M72.27 519H76v6h-3.73Zm0 0"/>
    </clipPath>
    <clipPath id="q">
      <path d="M90 497h84.25v24H90Zm0 0"/>
    </clipPath>
    <clipPath id="t">
      <path d="M352 274h167.7v72H352Zm0 0"/>
    </clipPath>
    <path id="r" d="M5.53-5.4h.99l-.77 2.68-.25.8q.21.9.34 1.08.21.32.54.32.23 0 .43-.18.21-.2.27-.61h.23q-.07.84-.36 1.17-.26.33-.62.33A1 1 0 0 1 5.7-.1q-.27-.3-.48-1.22-.27.51-.52.78a2.2 2.2 0 0 1-1.67.72q-1.3 0-1.92-.86T.5-2.66a3 3 0 0 1 .72-2.09 2.2 2.2 0 0 1 1.69-.8q.67 0 1.18.4.52.42.93 1.53Zm-.72 2.43A4 4 0 0 0 4-4.66q-.5-.48-1.02-.48-.57 0-.96.64-.4.63-.4 2.02 0 .8.18 1.28.17.46.5.73.33.25.7.25.45 0 .83-.42a6 6 0 0 0 .98-2.33m0 0"/>
    <path id="s" d="M1.95-.45v.98q0 .95-.23 2.08h-1l.19-1Q.98.78.98.4v-6.03q0-1.05.2-1.55.22-.52.77-.86.55-.35 1.3-.35 1.05 0 1.69.57t.64 1.34q0 .5-.27.95-.25.46-.8.79 1.6.75 1.6 2.34 0 .7-.34 1.33A2.3 2.3 0 0 1 3.67.19q-.39 0-.78-.14t-.94-.5m0-.47q.57.39 1 .58.31.12.63.12.6 0 1-.48.4-.5.4-1.57 0-.66-.18-1.17a4 4 0 0 0-.67-1.1q-.42.13-.7.13-.37 0-.5-.1-.15-.11-.15-.24 0-.1.11-.19.11-.1.36-.1.28 0 .88.17.4-.84.4-1.57t-.37-1.14-.9-.4q-.68 0-1.06.57-.25.38-.25 1.24Zm0 0"/>
    <path id="u" d="M5.36-2.17q0 .53-.19.95-.18.4-.51.7-.35.3-.85.47a4 4 0 0 1-1.84.1l-.6-.14-.42-.18Q.8-.35.75-.4L.67-.48l-.03-.1-.03-.14v-.22q0-.21.03-.3.04-.07.13-.07.05 0 .2.1a3.5 3.5 0 0 0 1.69.5q.38 0 .68-.1t.49-.28q.2-.19.3-.44a1.4 1.4 0 0 0-.02-1.11 1 1 0 0 0-.38-.45 2 2 0 0 0-.59-.29 3 3 0 0 0-.81-.1H1.6l-.1-.02-.07-.08-.05-.12-.01-.2.01-.18q0-.08.05-.12l.06-.07.1-.01h.67q.38 0 .68-.1.32-.1.53-.3.22-.18.33-.43.1-.26.11-.6 0-.23-.08-.43a1 1 0 0 0-.6-.62q-.25-.1-.55-.1-.34 0-.63.11a4 4 0 0 0-.89.44q-.14.1-.19.1L.9-6.23l-.07-.05-.03-.13v-.36l.03-.12.04-.1.07-.09q.06-.07.24-.15.17-.1.42-.2.24-.12.58-.18a3 3 0 0 1 1.6.06q.42.13.68.38.25.23.39.58a2.3 2.3 0 0 1 .05 1.44q-.1.3-.29.53a1.7 1.7 0 0 1-1.04.64v.01q.39.04.72.19t.56.39.36.55q.14.3.14.67m0 0"/>
    <path id="w" d="m5.42-.44-.01.19-.05.14-.08.1-.1.01H1L.86-.02.75-.09a.2.2 0 0 1-.06-.13L.67-.44v-.2L.72-.8l.06-.14.13-.14 1.47-1.56q.5-.53.8-.95.31-.44.48-.79t.21-.64.07-.54-.08-.47a1 1 0 0 0-.62-.67q-.25-.1-.55-.1-.37 0-.64.1-.3.09-.5.22-.21.1-.36.21t-.2.1q-.06 0-.08-.02l-.07-.08-.03-.14v-.36l.02-.12q0-.05.03-.08l.1-.1q.07-.07.24-.16.19-.1.44-.2a3.4 3.4 0 0 1 2.19-.1q.41.14.69.42t.4.63q.14.37.14.76 0 .36-.06.72t-.27.78-.6.94q-.4.5-1.04 1.17L1.9-.86h3.3l.1.03.07.08.05.13zm0 0"/>
    <path id="x" d="M9.25-.16q0 .06-.03.1-.02.03-.08.04T9 .02a2 2 0 0 1-.47 0l-.15-.04-.08-.04-.02-.1v-6.59h-.01L5.57-.12l-.05.07-.1.05-.15.02a1 1 0 0 1-.41 0L4.7 0l-.08-.06-.04-.06L2-6.75h-.02v6.6q0 .04-.03.09-.01.03-.07.04l-.15.04a2 2 0 0 1-.48 0l-.16-.04q-.04 0-.06-.04l-.01-.1v-6.96q0-.26.12-.35.13-.1.28-.1h.61q.2 0 .33.02.15.04.25.11t.17.2q.08.12.13.27l2.2 5.49h.03l2.28-5.47q.06-.17.14-.3l.16-.19.2-.1q.12-.04.27-.04h.64l.15.03q.1.02.14.08.06.05.1.14l.03.2Zm0 0"/>
    <path id="y" d="M5.44-.4q0 .12-.03.2l-.05.1-.06.08-.08.02H1.27q-.06 0-.08-.02L1.1-.09 1.06-.2l-.01-.2.01-.18q.02-.08.05-.12l.06-.08.1-.03h1.57v-5.77l-1.46.88-.2.08q-.06 0-.1-.04l-.05-.12L1.02-6v-.17q0-.08.03-.13l.06-.08.08-.07 1.75-1.11.04-.03.1-.02.12-.01.17-.02.24.01.14.04q.06 0 .08.06l.01.06V-.8h1.38q.04 0 .08.03l.08.08.04.12zm0 0"/>
    <path id="v" d="M5.44-.4q0 .12-.03.2l-.05.1-.06.08-.08.02H1.27q-.06 0-.08-.02L1.1-.09 1.06-.2l-.01-.2.01-.18q.02-.08.05-.12l.06-.08.1-.03h1.57v-5.77l-1.46.88-.2.08q-.06 0-.1-.04l-.05-.12L1.02-6v-.17q0-.08.03-.13l.06-.08.08-.07 1.75-1.11.04-.03.1-.02.12-.01.17-.02.24.01.14.04q.06 0 .08.06l.01.06V-.8h1.38q.04 0 .08.03l.08.08.04.12zm0 0"/>
    <path id="z" d="M6.7-2.77q-.14.72-.45 1.27A3 3 0 0 1 4.53-.06a4 4 0 0 1-2.37-.02q-.5-.18-.82-.55-.3-.34-.39-.9-.1-.54.07-1.27l.92-4.64q0-.04.03-.08l.1-.04a1 1 0 0 1 .4-.07l.25.02.14.05q.06 0 .08.04v.08L2.02-2.8q-.1.52-.07.9.04.38.24.64.18.25.5.4a2.5 2.5 0 0 0 1.58 0q.37-.15.65-.41.3-.27.5-.64.2-.39.3-.88l.92-4.64q0-.04.05-.08l.1-.04q.04-.03.15-.05a2 2 0 0 1 .47 0l.15.05q.06 0 .08.04v.08Zm0 0"/>
    <path id="A" d="M3.7-2.48q0 .57-.1 1.04a2 2 0 0 1-.29.82q-.2.32-.54.51-.33.2-.83.19-.47 0-.8-.17a1.4 1.4 0 0 1-.51-.49 2 2 0 0 1-.27-.8 6 6 0 0 1 0-2.1q.09-.48.3-.82t.54-.53q.34-.18.83-.19.48 0 .8.18.3.17.5.5.2.3.28.78.1.46.1 1.08m-.67.04a7 7 0 0 0-.1-1.17A1 1 0 0 0 2.77-4a1 1 0 0 0-.19-.27 1 1 0 0 0-.26-.15q-.14-.05-.33-.05-.33 0-.53.16a1 1 0 0 0-.33.42q-.1.27-.16.62A8 8 0 0 0 1-1.57q.06.4.19.65.13.23.31.34.2.12.47.11a1 1 0 0 0 .37-.06q.17-.08.29-.2t.2-.3a2 2 0 0 0 .19-.88zm0 0"/>
  </defs>
  <path fill="#f2f2f2" fill-rule="evenodd" d="M140.71 502.52a10.2 10.2 0 0 1 3.63 9.46l-10.08-1.58Zm0 0"/>
  <path d="m140.86 502.37.5.45.48.48.45.5.42.54.37.55.34.59.3.6.26.61.22.63.18.65.14.65.08.67.06.67v.68l-.04.69-.08.68-.13-.02.08-.67.04-.67-.01-.68-.04-.66-.1-.66-.13-.65-.18-.63-.21-.63-.27-.6-.29-.6-.32-.57-.38-.55-.4-.53-.45-.5-.48-.47-.5-.45Zm-.18.2.5.45.48.47.43.5.4.51.37.55.33.56.29.59.25.6.21.61.17.63.14.64.09.65.05.65v.67l-.03.66-.09.67-.13-.02.08-.66.04-.65v-.66l-.05-.64-.09-.64-.13-.64-.17-.62-.21-.6-.25-.6-.29-.57-.32-.56-.36-.53-.4-.52-.43-.49-.46-.46-.51-.45Zm0 0"/>
  <path fill="#d9d9d9" fill-rule="evenodd" d="M80.33 515.91a10.2 10.2 0 0 1 4.54 8.47h-10.2Zm0 0"/>
  <path fill="none" stroke="#000" stroke-linejoin="round" stroke-miterlimit="10" stroke-width=".6" d="M12.1 20.52a15.3 15.3 0 0 0 6.8-12.73m-15-.29h90" transform="matrix(.66661 0 0 -.6655 72.27 529.57)"/>
  <g clip-path="url(#a)">
    <path fill="none" stroke="#000" stroke-linejoin="round" stroke-miterlimit="10" stroke-width=".6" d="M8.97 8.1 4.5.9" transform="matrix(.66661 0 0 -.6655 72.27 529.57)"/>
  </g>
  <g clip-path="url(#b)">
    <path fill="none" stroke="#000" stroke-linejoin="round" stroke-miterlimit="10" stroke-width=".6" d="M16.17 8.1 11.7.9" transform="matrix(.66661 0 0 -.6655 72.27 529.57)"/>
  </g>
  <g clip-path="url(#c)">
    <path fill="none" stroke="#000" stroke-linejoin="round" stroke-miterlimit="10" stroke-width=".6" d="M23.97 8.1 19.5.9" transform="matrix(.66661 0 0 -.6655 72.27 529.57)"/>
  </g>
  <g clip-path="url(#d)">
    <path fill="none" stroke="#000" stroke-linejoin="round" stroke-miterlimit="10" stroke-width=".6" d="M31.17 8.1 26.7.9" transform="matrix(.66661 0 0 -.6655 72.27 529.57)"/>
  </g>
  <g clip-path="url(#e)">
    <path fill="none" stroke="#000" stroke-linejoin="round" stroke-miterlimit="10" stroke-width=".6" d="M38.97 8.1 34.5.9" transform="matrix(.66661 0 0 -.6655 72.27 529.57)"/>
  </g>
  <g clip-path="url(#g)">
    <path fill="none" stroke="#000" stroke-linejoin="round" stroke-miterlimit="10" stroke-width=".6" d="M46.17 8.1 41.7.9" transform="matrix(.66661 0 0 -.6655 72.27 529.57)"/>
  </g>
  <g clip-path="url(#h)">
    <path fill="none" stroke="#000" stroke-linejoin="round" stroke-miterlimit="10" stroke-width=".6" d="M53.37 8.1 48.9.9" transform="matrix(.66661 0 0 -.6655 72.27 529.57)"/>
  </g>
  <g clip-path="url(#i)">
    <path fill="none" stroke="#000" stroke-linejoin="round" stroke-miterlimit="10" stroke-width=".6" d="M61.17 8.1 56.7.9" transform="matrix(.66661 0 0 -.6655 72.27 529.57)"/>
  </g>
  <g clip-path="url(#j)">
    <path fill="none" stroke="#000" stroke-linejoin="round" stroke-miterlimit="10" stroke-width=".6" d="M68.37 8.1 63.9.9" transform="matrix(.66661 0 0 -.6655 72.27 529.57)"/>
  </g>
  <g clip-path="url(#k)">
    <path fill="none" stroke="#000" stroke-linejoin="round" stroke-miterlimit="10" stroke-width=".6" d="M76.17 8.1 71.7.9" transform="matrix(.66661 0 0 -.6655 72.27 529.57)"/>
  </g>
  <g clip-path="url(#l)">
    <path fill="none" stroke="#000" stroke-linejoin="round" stroke-miterlimit="10" stroke-width=".6" d="M83.37 8.1 78.9.9" transform="matrix(.66661 0 0 -.6655 72.27 529.57)"/>
  </g>
  <g clip-path="url(#n)">
    <path fill="none" stroke="#000" stroke-linejoin="round" stroke-miterlimit="10" stroke-width=".6" d="M91.17 8.1 86.7.9" transform="matrix(.66661 0 0 -.6655 72.27 529.57)"/>
  </g>
  <path fill="none" stroke="#000" stroke-linejoin="round" stroke-miterlimit="10" stroke-width=".75" d="M47.9 83.07 2.9 5.12" transform="matrix(.66661 0 0 -.6655 72.27 529.57)"/>
  <g clip-path="url(#o)">
    <path fill="none" stroke="#000" stroke-linejoin="round" stroke-miterlimit="10" stroke-width=".75" d="m45.89 78.38-4 7.46" transform="matrix(.66661 0 0 -.6655 72.27 529.57)"/>
  </g>
  <path fill="none" stroke="#000" stroke-linejoin="round" stroke-miterlimit="10" stroke-width=".75" d="m42.16 71.93-4 7.47m.27-13.92-4 7.46m.28-13.91-4 7.47m.27-13.93-4 7.48m.28-13.93-4 7.48m.28-13.93-4 7.47m.28-13.92-4 7.47m.27-13.92-4 7.47m.28-13.92-4 7.47m.27-13.92-4 7.47" transform="matrix(.66661 0 0 -.6655 72.27 529.57)"/>
  <g clip-path="url(#p)">
    <path fill="none" stroke="#000" stroke-linejoin="round" stroke-miterlimit="10" stroke-width=".75" d="m4.92 7.42-4 7.47" transform="matrix(.66661 0 0 -.6655 72.27 529.57)"/>
  </g>
  <path fill="none" stroke="#000" stroke-linejoin="round" stroke-miterlimit="10" stroke-width=".75" d="m69.52 8.11 76.36 76.37" transform="matrix(.66661 0 0 -.6655 72.27 529.57)"/>
  <path d="m145.93 497.24-1.5 1.5-.36-.35 1.51-1.5Zm-1.68 1.33h1.88l-3.77 1.88 1.89-3.76Zm0 0"/>
  <path fill="none" stroke="#000" stroke-linejoin="round" stroke-miterlimit="10" stroke-width=".75" d="M27.52 47.88 68.25 7.15" transform="matrix(.66661 0 0 -.6655 72.27 529.57)"/>
  <path d="M105.17 512.23v1.89l-1.89-3.77 3.77 1.88Zm0 0"/>
  <g clip-path="url(#q)">
    <path fill="none" stroke="#000" stroke-linejoin="round" stroke-miterlimit="10" stroke-width=".75" d="M152.52 14.47 27.33 48.02" transform="matrix(.66661 0 0 -.6655 72.27 529.57)"/>
  </g>
  <path d="m149.89 513.18 2.99.8-.13.48-2.99-.8Zm2.92 1.04-.94-1.63 3.52 2.32-4.21.25Zm0 0"/>
  <use xlink:href="#r" x="85.92" y="520.19"/>
  <use xlink:href="#s" x="147.49" y="508.39"/>
  <g clip-path="url(#t)">
    <path fill="none" stroke="#000" stroke-linejoin="round" stroke-miterlimit="10" stroke-width="1.2" d="M1.2 30h165.6v70.2H1.2Zm0 0" transform="matrix(.99946 0 0 -.9957 351.8 374.71)"/>
  </g>
  <path fill="#fff" fill-rule="evenodd" d="M432.75 357.98h6V332.3h-6Zm0 0"/>
  <path fill="none" stroke="#000" stroke-linejoin="round" stroke-miterlimit="10" stroke-width="1.2" d="M80.4 40.8V19.2m7.2 16.2V24.6" transform="matrix(.99946 0 0 -.9957 351.8 374.71)"/>
  <path fill="#fff" fill-rule="evenodd" stroke="#000" stroke-linejoin="round" stroke-miterlimit="10" stroke-width="1.2" d="M121.2 94.2h33v12h-33Zm0 0" transform="matrix(.99946 0 0 -.9957 351.8 374.71)"/>
  <use xlink:href="#u" x="486.46" y="279.1"/>
  <path fill="none" stroke="#000" stroke-linejoin="round" stroke-miterlimit="10" stroke-width="1.2" d="M1.2 71.4H54v28.8H1.2Zm52.8 0h53.4v28.8H54Zm0 0" transform="matrix(.99946 0 0 -.9957 351.8 374.71)"/>
  <path fill="#fff" fill-rule="evenodd" stroke="#000" stroke-linejoin="round" stroke-miterlimit="10" stroke-width="1.2" d="M10.8 93.6h33v12.6h-33Zm0 0" transform="matrix(.99946 0 0 -.9957 351.8 374.71)"/>
  <use xlink:href="#v" x="375.91" y="279.5"/>
  <path fill="#fff" fill-rule="evenodd" stroke="#000" stroke-linejoin="round" stroke-miterlimit="10" stroke-width="1.2" d="M64.8 94.2h33v12h-33Zm0 0" transform="matrix(.99946 0 0 -.9957 351.8 374.71)"/>
  <use xlink:href="#w" x="430.08" y="279.3"/>
  <path fill="#fff" fill-rule="evenodd" stroke="#000" stroke-linejoin="round" stroke-miterlimit="10" stroke-width="1.2" d="M17.4 71.4a10.2 10.2 0 1 0 20.4 0 10.2 10.2 0 0 0-20.4 0Zm0 0" transform="matrix(.99946 0 0 -.9957 351.8 374.71)"/>
  <use xlink:href="#x" x="371.66" y="308.05"/>
  <use xlink:href="#y" x="381.88" y="308.05"/>
  <path fill="#fff" fill-rule="evenodd" stroke="#000" stroke-linejoin="round" stroke-miterlimit="10" stroke-width="1.2" d="M72 71.4a10.2 10.2 0 1 0 20.4 0 10.2 10.2 0 0 0-20.4 0Zm0 0" transform="matrix(.99946 0 0 -.9957 351.8 374.71)"/>
  <use xlink:href="#x" x="426.43" y="308.05"/>
  <use xlink:href="#w" x="436.65" y="308.05"/>
  <use xlink:href="#z" x="433.05" y="368.12"/>
  <use xlink:href="#A" x="440.88" y="370.51"/>
</svg>
