<svg xmlns="http://www.w3.org/2000/svg" xmlns:xlink="http://www.w3.org/1999/xlink" width="595.32" height="841.92" viewBox="0 0 595.32 841.92">
  <defs>
    <path id="a" d="m4.78-.14-.03.08-.1.06-.15.02A2 2 0 0 1 3.9 0q-.06-.03-.07-.06L3.8-.14l.66-3.27.05-.34.01-.33q0-.17-.03-.31a.6.6 0 0 0-.31-.4 1 1 0 0 0-.32-.07q-.3 0-.64.19-.32.19-.6.51a4 4 0 0 0-.49.75q-.22.44-.33.93L1.34-.14l-.03.08-.1.06-.15.02A2 2 0 0 1 .46 0Q.4-.03.38-.06L.37-.14l1.57-7.83q0-.04.03-.08l.1-.06q.05-.03.15-.03a2 2 0 0 1 .48 0q.1 0 .14.03.05.01.05.06l.02.08-.47 2.38-.08.3a4 4 0 0 1-.17.62l-.08.25q.09-.2.3-.42a3 3 0 0 1 1.06-.72 2 2 0 0 1 1.31-.02q.27.11.42.3.18.19.25.45a2 2 0 0 1 .05.99l-.06.4Zm0 0"/>
    <path id="t" d="m3.56-.17-.1.1-.12.07-.18.02a3 3 0 0 1-.61 0L2.35 0l-.08-.08-.05-.1-1.06-7.09-.03-.18q0-.08.06-.11l.14-.05a3 3 0 0 1 .56 0l.17.05q.06 0 .08.06l.03.1.9 6.37 3.38-6.4.05-.09.1-.04.18-.05a3 3 0 0 1 .58 0q.1.02.14.06.04.05.03.13l-.1.2Zm0 0"/>
    <path id="c" d="M2.9-8.08q-.55 1.2-.84 2.42a11.6 11.6 0 0 0 .83 7.43q.03.05.03.1t-.04.08Q2.84 2 2.75 2l-.22.02h-.19l-.14-.04-.08-.04-.06-.03Q1.75 1.29 1.5.69T1.1-.55a10.4 10.4 0 0 1 .02-5.18 12 12 0 0 1 .99-2.52l.08-.03.12-.02a1 1 0 0 1 .42 0q.09.02.13.05t.05.08zm0 0"/>
    <path id="d" d="m4.69-.95-.02.18-.01.11-.04.1-.09.1q-.08.08-.25.2l-.39.18q-.22.09-.48.13-.25.06-.54.06a3 3 0 0 1-1-.19q-.43-.18-.73-.55Q.84-.97.7-1.5.54-2.03.53-2.72q0-.78.19-1.34t.51-.9q.35-.37.79-.54a2.7 2.7 0 0 1 1.89 0 2 2 0 0 1 .57.34l.11.11.05.1.02.12a1 1 0 0 1-.05.5q-.04.08-.13.08-.1 0-.2-.1l-.3-.2a1.7 1.7 0 0 0-1-.31q-.7 0-1.07.53a2.7 2.7 0 0 0-.38 1.56q0 .51.1.9.1.37.3.64.18.24.45.37T3-.73a1.7 1.7 0 0 0 1.02-.33l.3-.22q.13-.1.21-.11.04 0 .06.03.03.02.05.08t.03.14zm0 0"/>
    <path id="e" d="m8.72-.14-.03.08L8.6 0l-.14.02A2 2 0 0 1 7.84 0l-.07-.06-.02-.08v-3.22q0-.32-.06-.6t-.19-.48a1 1 0 0 0-.33-.3q-.2-.1-.47-.1-.33 0-.67.26-.33.25-.73.75v3.69l-.03.08-.08.06-.14.02A2 2 0 0 1 4.42 0q-.06-.03-.08-.06l-.01-.08v-3.22q0-.32-.06-.6a1.4 1.4 0 0 0-.2-.48 1 1 0 0 0-.34-.3 1 1 0 0 0-.45-.1q-.34 0-.69.26-.32.25-.73.75v3.69l-.03.08-.06.06-.15.02A2 2 0 0 1 .99 0L.91-.06.89-.14v-5.28q0-.05.02-.08l.07-.05.13-.04a2 2 0 0 1 .44 0q.08 0 .14.04.04.02.06.05l.02.08v.7q.45-.5.86-.73.42-.24.85-.24.33 0 .58.08.26.09.47.22a1.5 1.5 0 0 1 .58.75q.26-.28.5-.49t.45-.32q.23-.13.42-.17.22-.07.43-.07.51 0 .86.19.33.17.54.47t.31.7q.1.42.1.85Zm0 0"/>
    <path id="f" d="M2.86-3.14q0 .66-.1 1.31-.07.65-.24 1.28a11 11 0 0 1-.94 2.46l-.06.03-.1.04-.12.04h-.2L.88 2a.2.2 0 0 1-.12-.05l-.03-.07q0-.06.03-.11a12 12 0 0 0 1.1-4.94q0-1.25-.29-2.49Q1.3-6.89.73-8.08l-.01-.1q0-.04.06-.07l.13-.05a2 2 0 0 1 .42 0l.12.02.07.03.04.05q.6 1.2.96 2.47.34 1.26.34 2.59m0 0"/>
    <path id="u" d="m1.86-.14-.03.08-.06.06-.15.02A2 2 0 0 1 .99 0L.91-.06.89-.14v-7.83l.02-.08.07-.06q.07-.03.16-.03a2 2 0 0 1 .63.03l.06.06q.03.04.03.08Zm0 0"/>
    <path id="i" d="M5.67-3.81q0 .87-.14 1.6-.14.71-.47 1.24-.3.52-.83.8Q3.72.1 2.97.1q-.72 0-1.22-.25A2 2 0 0 1 .97-.9a4 4 0 0 1-.42-1.22 10 10 0 0 1 .01-3.25q.14-.73.46-1.25a2.3 2.3 0 0 1 2.1-1.08q.72 0 1.2.25.5.25.79.75t.44 1.22q.12.72.12 1.66m-1.03.08a10 10 0 0 0-.17-1.82 3 3 0 0 0-.2-.6 2 2 0 0 0-.3-.41q-.18-.15-.4-.24a2 2 0 0 0-.5-.08q-.5 0-.82.24a1.6 1.6 0 0 0-.5.66q-.18.4-.23.95-.07.55-.07 1.19 0 .84.08 1.43.1.6.28.97.2.38.5.55t.72.17q.32 0 .56-.1t.43-.29.3-.48q.11-.3.18-.61.08-.33.1-.72.04-.39.04-.81m0 0"/>
    <path id="j" d="M5.38-2.44q-.01.61-.2 1.1A2.2 2.2 0 0 1 3.7-.06Q3.2.1 2.55.1A5 5 0 0 1 .9-.2L.7-.31.65-.4.62-.47.6-.6v-.36q.01-.08.04-.12l.06-.07.08-.03q.05 0 .17.08l.33.16.51.15A3 3 0 0 0 3.23-.8a1.4 1.4 0 0 0 .94-.8q.14-.3.14-.73 0-.36-.12-.64a1 1 0 0 0-.35-.47 2 2 0 0 0-.59-.27q-.36-.1-.87-.1-.37 0-.63.04l-.47.03q-.15 0-.23-.06-.07-.07-.07-.3v-3.1q0-.18.08-.27t.27-.1h3.36l.1.03q.03.02.05.08l.05.13.02.18a1 1 0 0 1-.07.35q-.04.1-.15.1H1.86v2.13q.2-.03.4-.03l.5-.01q.66 0 1.15.15.48.16.8.45.34.29.5.7.16.38.17.88m0 0"/>
    <path id="k" d="M5.44-.4q0 .12-.03.2l-.05.1-.06.08-.08.02H1.27q-.06 0-.08-.02L1.1-.09 1.06-.2l-.01-.2.01-.18q.02-.08.05-.12l.06-.08.1-.03h1.57v-5.77l-1.46.88-.2.08q-.06 0-.1-.04l-.05-.12L1.02-6v-.17q0-.08.03-.13l.06-.08.08-.07 1.75-1.11.04-.03.1-.02.12-.01.17-.02.24.01.14.04q.06 0 .08.06l.01.06V-.8h1.38q.04 0 .08.03l.08.08.04.12zm0 0"/>
    <path id="l" d="M5.44-.4q0 .12-.03.2l-.05.1-.06.08-.08.02H1.27q-.06 0-.08-.02L1.1-.09 1.06-.2l-.01-.2.01-.18q.02-.08.05-.12l.06-.08.1-.03h1.57v-5.77l-1.46.88-.2.08q-.06 0-.1-.04l-.05-.12L1.02-6v-.17q0-.08.03-.13l.06-.08.08-.07 1.75-1.11.04-.03.1-.02.12-.01.17-.02.24.01.14.04q.06 0 .08.06l.01.06V-.8h1.38q.04 0 .08.03l.08.08.04.12zm0 0"/>
    <path id="m" d="M5.38-2.44q-.01.61-.2 1.1A2.2 2.2 0 0 1 3.7-.06Q3.2.1 2.55.1A5 5 0 0 1 .9-.2L.7-.31.65-.4.62-.47.6-.6v-.36q.01-.08.04-.12l.06-.07.08-.03q.05 0 .17.08l.33.16.51.15A3 3 0 0 0 3.23-.8a1.4 1.4 0 0 0 .94-.8q.14-.3.14-.73 0-.36-.12-.64a1 1 0 0 0-.35-.47 2 2 0 0 0-.59-.27q-.36-.1-.87-.1-.37 0-.63.04l-.47.03q-.15 0-.23-.06-.07-.07-.07-.3v-3.1q0-.18.08-.27t.27-.1h3.36l.1.03q.03.02.05.08l.05.13.02.18a1 1 0 0 1-.07.35q-.04.1-.15.1H1.86v2.13q.2-.03.4-.03l.5-.01q.66 0 1.15.15.48.16.8.45.34.29.5.7.16.38.17.88m0 0"/>
    <path id="n" d="m5.42-.44-.01.19-.05.14-.08.1-.1.01H1L.86-.02.75-.09a.2.2 0 0 1-.06-.13L.67-.44v-.2L.72-.8l.06-.14.13-.14 1.47-1.56q.5-.53.8-.95.31-.44.48-.79t.21-.64.07-.54-.08-.47a1 1 0 0 0-.62-.67q-.25-.1-.55-.1-.37 0-.64.1-.3.09-.5.22-.21.1-.36.21t-.2.1q-.06 0-.08-.02l-.07-.08-.03-.14v-.36l.02-.12q0-.05.03-.08l.1-.1q.07-.07.24-.16.19-.1.44-.2a3.4 3.4 0 0 1 2.19-.1q.41.14.69.42t.4.63q.14.37.14.76 0 .36-.06.72t-.27.78-.6.94q-.4.5-1.04 1.17L1.9-.86h3.3l.1.03.07.08.05.13zm0 0"/>
    <path id="o" d="M5.67-3.81q0 .87-.14 1.6-.14.71-.47 1.24-.3.52-.83.8Q3.72.1 2.97.1q-.72 0-1.22-.25A2 2 0 0 1 .97-.9a4 4 0 0 1-.42-1.22 10 10 0 0 1 .01-3.25q.14-.73.46-1.25a2.3 2.3 0 0 1 2.1-1.08q.72 0 1.2.25.5.25.79.75t.44 1.22q.12.72.12 1.66m-1.03.08a10 10 0 0 0-.17-1.82 3 3 0 0 0-.2-.6 2 2 0 0 0-.3-.41q-.18-.15-.4-.24a2 2 0 0 0-.5-.08q-.5 0-.82.24a1.6 1.6 0 0 0-.5.66q-.18.4-.23.95-.07.55-.07 1.19 0 .84.08 1.43.1.6.28.97.2.38.5.55t.72.17q.32 0 .56-.1t.43-.29.3-.48q.11-.3.18-.61.08-.33.1-.72.04-.39.04-.81m0 0"/>
    <path id="p" d="M6.14-4.12q0 .94-.16 1.71-.14.79-.5 1.35-.35.56-.9.87-.55.32-1.36.32-.78 0-1.31-.29a2 2 0 0 1-.86-.8 4 4 0 0 1-.46-1.32 11 11 0 0 1 .02-3.53q.15-.78.5-1.35.34-.56.89-.86.56-.3 1.38-.3.77 0 1.3.27.54.27.85.82.33.53.47 1.3.14.8.14 1.8m-1.12.07a12 12 0 0 0-.18-1.97 3 3 0 0 0-.21-.64q-.14-.27-.33-.45-.2-.17-.44-.25a2 2 0 0 0-.55-.08q-.53 0-.87.25t-.53.7-.27 1.05a12 12 0 0 0 .03 2.85q.09.64.3 1.04t.51.6q.33.17.8.17.34 0 .61-.11.28-.11.47-.31.2-.22.33-.52a5 5 0 0 0 .3-1.45zm0 0"/>
    <path id="q" d="M5.83-2.64a3 3 0 0 1-.22 1.17A2.4 2.4 0 0 1 4-.07a4 4 0 0 1-1.98.13 4 4 0 0 1-1.26-.4L.7-.42l-.03-.1-.03-.14v-.38q0-.08.05-.13.03-.06.06-.08l.08-.03q.06 0 .19.08a3 3 0 0 0 .92.34A3.4 3.4 0 0 0 3.5-.88a1.6 1.6 0 0 0 1.02-.85q.15-.33.15-.82 0-.39-.12-.68-.13-.3-.4-.5a2 2 0 0 0-.63-.3q-.4-.1-.94-.1-.4 0-.67.04l-.52.03q-.18 0-.25-.08t-.08-.31V-7.8q0-.22.1-.3.09-.12.28-.12h3.64l.1.03.07.1q.03.04.05.14l.01.2q0 .24-.06.36-.06.13-.17.12H2.02v2.32q.22-.03.45-.03L3-5q.7 0 1.23.17.54.15.88.47.35.31.53.75.2.45.19.97m0 0"/>
    <path id="r" d="M5.9-.44q0 .13-.04.22l-.05.13-.08.07-.07.02h-4.3l-.08-.02-.08-.07-.04-.13a1 1 0 0 1 0-.4q0-.1.04-.15l.07-.07.09-.04h1.72v-6.24l-1.6.95-.18.08q-.09 0-.13-.04l-.04-.14-.02-.23v-.19q0-.08.03-.12 0-.06.05-.1l.1-.07 1.9-1.2q0-.04.04-.04.06 0 .1-.03l.14-.02h.19a2 2 0 0 1 .4.05q.06.01.08.06l.03.07v7.22h1.49q.04 0 .09.03l.08.07.04.15zm0 0"/>
    <path id="s" d="M5.86-.47q0 .12-.02.2L5.8-.1l-.07.08-.1.03H1.08L.92-.02l-.1-.07a.3.3 0 0 1-.09-.14 1 1 0 0 1 0-.47q.02-.1.05-.16L.86-1l.12-.17 1.6-1.69a9 9 0 0 0 1.39-1.89q.18-.37.23-.69.07-.3.07-.6 0-.25-.1-.5a1 1 0 0 0-.25-.43 1.3 1.3 0 0 0-1.01-.4q-.37 0-.7.1a4 4 0 0 0-.91.47q-.16.12-.24.11L.98-6.7l-.06-.08-.03-.16-.02-.23v-.16q.01-.08.04-.12 0-.06.03-.1l.1-.1q.09-.08.27-.2a4 4 0 0 1 1.8-.48q.6 0 1.05.17.45.15.75.46.3.28.43.67.14.4.14.83a4 4 0 0 1-.36 1.62q-.21.45-.65 1.02-.42.54-1.13 1.28L2.04-.92h3.59l.09.03q.04.02.08.08l.04.15zm0 0"/>
    <clipPath id="g">
      <path d="M240.48 372h240.35v178.74H240.48Zm0 0"/>
    </clipPath>
    <clipPath id="h">
      <path d="M268.63 382.82h191.64v139.44H268.63Zm0 0"/>
    </clipPath>
  </defs>
  <use xlink:href="#a" x="255.07" y="370.8"/>
  <use xlink:href="#cp" x="261.09" y="370.8"/>
  <use xlink:href="#c" x="263.49" y="370.8"/>
  <use xlink:href="#d" x="267.13" y="370.8"/>
  <use xlink:href="#e" x="272.31" y="370.8"/>
  <use xlink:href="#f" x="281.92" y="370.8"/>
  <g clip-path="url(#g)">
    <path fill="#fff" fill-rule="evenodd" d="M240.88 550.74h239.95V372.27H240.88Zm0 0"/>
  </g>
  <path fill="#fff" fill-rule="evenodd" d="M268.43 521.66h191.64V383.02H268.43Zm0 0"/>
  <path fill="none" stroke="#595959" stroke-linejoin="round" stroke-miterlimit="10" stroke-width=".6" d="M42.3 54.9h286.8M42.3 65.1h286.8M42.3 75.3h286.8M42.3 86.1h286.8M42.3 106.5h286.8M42.3 117.3h286.8M42.3 127.5h286.8M42.3 138.3h286.8M42.3 158.7h286.8M42.3 169.5h286.8M42.3 179.7h286.8M42.3 190.5h286.8M42.3 210.9h286.8M42.3 221.7h286.8M42.3 231.9h286.8M42.3 242.1h286.8" transform="matrix(.66544 0 0 -.66398 240.48 550.74)"/>
  <path fill="none" stroke="#000" stroke-linejoin="round" stroke-miterlimit="10" stroke-width=".6" d="M42.3 96.3h286.8M42.3 148.5h286.8M42.3 200.7h286.8M42.3 252.9h286.8" transform="matrix(.66544 0 0 -.66398 240.48 550.74)"/>
  <path fill="none" stroke="#595959" stroke-linejoin="round" stroke-miterlimit="10" stroke-width=".6" d="M56.7 252.9V44.1m13.8 208.8V44.1m14.4 208.8V44.1m14.4 208.8V44.1m28.8 208.8V44.1m14.4 208.8V44.1m14.4 208.8V44.1m14.4 208.8V44.1m28.8 208.8V44.1m14.4 208.8V44.1m14.4 208.8V44.1m14.4 208.8V44.1m28.8 208.8V44.1m14.4 208.8V44.1m13.8 208.8V44.1m14.4 208.8V44.1" transform="matrix(.66544 0 0 -.66398 240.48 550.74)"/>
  <path fill="none" stroke="#000" stroke-linejoin="round" stroke-miterlimit="10" stroke-width=".6" d="M113.7 252.9V44.1m72 208.8V44.1m72 208.8V44.1m71.4 208.8V44.1" transform="matrix(.66544 0 0 -.66398 240.48 550.74)"/>
  <path fill="none" stroke="#000" stroke-linejoin="round" stroke-miterlimit="10" stroke-width="1.2" d="M42 44.4v208.2M37.8 44.4H42m-4.2 10.2H42m-4.2 10.2H42m-4.2 10.8H42m-4.2 10.2H42m-4.2 10.8H42m-4.2 10.2H42M37.8 117H42m-4.2 10.8H42M37.8 138H42m-4.2 10.2H42M37.8 159H42m-4.2 10.2H42M37.8 180H42m-4.2 10.2H42m-4.2 10.2H42m-4.2 10.8H42m-4.2 10.2H42m-4.2 10.8H42m-4.2 10.2H42m-4.2 10.2H42M36.6 44.4H48M36.6 96.6H48m-11.4 51.6H48m-11.4 52.2H48m-11.4 52.2H48M42 44.4h287.4M42 44.4v-4.8m14.4 4.8v-4.8m14.4 4.8v-4.8m14.4 4.8v-4.8m14.4 4.8v-4.8m14.4 4.8v-4.8m14.4 4.8v-4.8m14.4 4.8v-4.8m14.4 4.8v-4.8m14.4 4.8v-4.8m13.8 4.8v-4.8m14.4 4.8v-4.8m14.4 4.8v-4.8m14.4 4.8v-4.8m14.4 4.8v-4.8m14.4 4.8v-4.8m14.4 4.8v-4.8m14.4 4.8v-4.8m14.4 4.8v-4.8m14.4 4.8v-4.8m14.4 4.8v-4.8M42 50.4V37.8m72 12.6V37.8m71.4 12.6V37.8m72 12.6V37.8m72 12.6V37.8" transform="matrix(.66544 0 0 -.66398 240.48 550.74)"/>
  <g clip-path="url(#h)">
    <path fill="none" stroke="#000" stroke-linecap="round" stroke-linejoin="round" stroke-miterlimit="10" stroke-width="1.8" d="M42.3 44.1h57l7.2 7.2 7.2 6.6 7.2 7.2 7.2 7.2 7.2 6.6 7.2 7.2 7.2 6.6 7.2 7.2 7.2 6.6 14.4 14.4 7.2 6.6 7.2 7.2 7.2 6.6 7.2 7.2 7.2 7.2 7.2 6.6 7.2 7.2 7.2 6.6 7.2 7.2 7.2 7.2 7.2 6.6 7.2 7.2 7.2 6.6 14.4 10.8 7.2 4.8 6.6 5.4 7.2 5.4 7.2 4.8 7.2 5.4 7.2 5.4h72" transform="matrix(.66544 0 0 -.66398 240.48 550.74)"/>
  </g>
  <use xlink:href="#i" x="251.14" y="525.34"/>
  <use xlink:href="#j" x="251.14" y="490.63"/>
  <use xlink:href="#k" x="245.3" y="455.93"/>
  <use xlink:href="#i" x="251.31" y="455.93"/>
  <use xlink:href="#l" x="245.3" y="421.22"/>
  <use xlink:href="#m" x="251.31" y="421.22"/>
  <use xlink:href="#n" x="245.3" y="386.51"/>
  <use xlink:href="#o" x="251.31" y="386.51"/>
  <use xlink:href="#p" x="264.91" y="542.96"/>
  <use xlink:href="#q" x="305.97" y="542.96"/>
  <use xlink:href="#p" x="312.76" y="542.96"/>
  <use xlink:href="#p" x="319.55" y="542.96"/>
  <use xlink:href="#r" x="350.66" y="542.96"/>
  <use xlink:href="#p" x="357.46" y="542.96"/>
  <use xlink:href="#p" x="364.27" y="542.96"/>
  <use xlink:href="#p" x="371.07" y="542.96"/>
  <use xlink:href="#r" x="398.52" y="542.96"/>
  <use xlink:href="#q" x="405.32" y="542.96"/>
  <use xlink:href="#p" x="412.13" y="542.96"/>
  <use xlink:href="#p" x="418.93" y="542.96"/>
  <use xlink:href="#s" x="446.39" y="542.96"/>
  <use xlink:href="#p" x="453.2" y="542.96"/>
  <use xlink:href="#p" x="460" y="542.96"/>
  <use xlink:href="#p" x="466.81" y="542.96"/>
  <use xlink:href="#t" x="468.76" y="523.56"/>
  <use xlink:href="#cp" x="475.58" y="523.56"/>
  <use xlink:href="#c" x="477.97" y="523.56"/>
  <use xlink:href="#e" x="481.62" y="523.56"/>
  <use xlink:href="#u" x="491.23" y="523.56"/>
  <use xlink:href="#f" x="494" y="523.56"/>
</svg>
