<svg xmlns="http://www.w3.org/2000/svg" xmlns:xlink="http://www.w3.org/1999/xlink" width="612" height="792" viewBox="0 0 612 792">
  <defs>
    <path id="e" d="M5.73-2.53h-.28c-.36.84-.48.92-1.72.94h-1.8l1.93-1.85c.95-.9 1.37-1.7 1.37-2.62 0-1.28-.92-2.19-2.21-2.19-.61 0-1.18.23-1.6.67A4 4 0 0 0 .38-5.8H.7c.38-.75.83-1.08 1.47-1.08q.8 0 1.19.66c.14.26.23.59.23.87 0 .52-.21 1.19-.6 1.77C2.36-2.66 1.94-2.14.2-.3V0h5Zm0 0"/>
    <path id="d" d="M1.5-1.87C.95-1.87.48-1.42.48-.86a1 1 0 0 0 1 1.02 1.02 1.02 0 1 0 .02-2.03m0 0"/>
    <path id="b" d="M3.7 0v-.22q.53 0 .53-.78v-2.69L2.67-1q0 .77.53.78V0H.4v-.22q.35 0 .5-.19.13-.18.13-.65v-3.38q0-.83-.62-.83v-.21h2.8v.21q-.33.02-.43.2-.1.15-.1.63v2.67l1.55-2.71q0-.45-.12-.61-.13-.18-.4-.18v-.21H6.5v.21q-.32.02-.47.18-.15.14-.16.57v3.49q0 .48.15.66.13.15.48.15V0Zm0 0"/>
    <path id="a" d="M3.1-7.95h4.1v.22q-.67 0-.86.18-.18.16-.23.72 1.35 0 2.05.31.69.33 1.2.94.52.63.52 1.53 0 1.13-.85 1.99-.83.86-2.92.86 0 .42.1.6a.6.6 0 0 0 .29.27q.2.1.7.11V0H3.1v-.22q.73 0 .92-.22.18-.22.18-.76a5 5 0 0 1-2.17-.38Q1.25-1.97.84-2.6a2.65 2.65 0 0 1 .1-2.97q.5-.7 1.25-.97.76-.27 2.01-.28 0-.52-.22-.7-.2-.2-.89-.2Zm3 6.3q.6 0 .96-.16.38-.2.63-.75.25-.57.25-1.55 0-.8-.24-1.34-.22-.55-.58-.74t-1.01-.2ZM4.2-6.38a2 2 0 0 0-1.1.28q-.34.25-.54.78-.19.54-.19 1.36 0 .96.24 1.45.24.5.62.7.4.18.97.18Zm0 0"/>
    <path id="c" d="M.42-.22Q.76-.23.9-.39q.15-.15.14-.63V-4.5q0-.4-.12-.56-.13-.17-.49-.2v-.22h4.81v1.43h-.21q-.13-.66-.36-.86-.24-.2-.91-.2H2.67v4.13q0 .42.13.59.15.15.56.17V0H.42Zm0 0"/>
    <path id="f" d="M6.83-.19c-.7-.06-.77-.15-.92-1.03l-1.14-6.8h-.32l-3.51 6C-.02-.42-.14-.28-.61-.19V0h2.25v-.19C1.04-.25.94-.3.94-.6c0-.23.03-.34.23-.75l.69-1.36h2.66l.25 1.58.03.31c0 .45-.17.56-.96.64V0h2.99ZM2.1-3.14l1.83-3.13.53 3.13Zm0 0"/>
    <path id="g" d="M-.1 0h3.41c1.9 0 3.2-.97 3.2-2.4 0-.88-.37-1.32-1.51-1.82.86-.2 1.2-.34 1.6-.67q.5-.45.5-1.19c0-1.14-.85-1.76-2.41-1.76H1.58v.2c.75.06.92.14.92.48 0 .2-.05.49-.12.77L.89-1.08c-.22.69-.31.77-.98.9Zm2.98-3.97q1.17 0 1.54.14c.49.2.8.72.8 1.38 0 1.3-.9 2.1-2.38 2.1q-.77-.01-.78-.5.02-.26.42-1.7c.18-.51.27-.87.4-1.42m.9-3.17c.08-.27.22-.33.69-.33.98 0 1.42.4 1.42 1.28 0 .69-.3 1.24-.81 1.52-.4.23-1 .33-2.08.31Zm0 0"/>
    <path id="i" d="M4.88-7.84h-3.3v.2c.75.06.92.17.92.51q0 .27-.12.74L.89-1.08c-.22.69-.31.77-.98.9V0h6.15l.7-2.14-.24-.08c-.43.86-.75 1.25-1.29 1.52-.42.2-.92.26-1.98.26-.9 0-1.2-.1-1.2-.4 0-.1.04-.35.12-.6l1.49-5.31c.17-.62.48-.84 1.21-.9Zm0 0"/>
    <path id="h" d="M5.7-1.6c-.43.65-.67.9-.87.9-.1 0-.17-.1-.17-.2 0-.16.14-.72.3-1.27L5.9-5.4H4.47C3.8-3.06 3.45-2.3 2.75-1.42q-.54.69-.87.67-.26 0-.25-.31c0-.17 0-.25.17-.78l1.14-3.7q-.1 0-.35.06c-.75.12-1.65.25-2.18.28v.3c.56.06.68.12.68.35 0 .2-.06.53-.17.88l-.48 1.6c-.17.6-.25 1-.25 1.29q0 .9.9.89C1.91.1 2.27-.2 3.5-1.94c-.2.67-.28.99-.28 1.33q0 .73.78.72c.73 0 1.33-.48 1.95-1.55Zm0 0"/>
  </defs>
  <use xlink:href="#a" x="288.67" y="463.39"/>
  <use xlink:href="#b" x="298.98" y="463.39"/>
  <use xlink:href="#c" x="305.94" y="463.39"/>
  <use xlink:href="#d" x="311.35" y="463.39"/>
  <use xlink:href="#R" x="314.35" y="463.39"/>
  <use xlink:href="#e" x="317.35" y="463.39"/>
  <use xlink:href="#R" x="323.35" y="463.39"/>
  <path fill="#bfbfbf" fill-rule="evenodd" d="M225.74 415.7H387.9v-23.75H225.74Zm0 0"/>
  <path fill="#0d0d0d" fill-rule="evenodd" d="M232.92 417.2c0 1.47 1.2 2.66 2.7 2.66 1.48 0 2.69-1.2 2.69-2.67 0-1.48-1.2-2.67-2.7-2.67a2.7 2.7 0 0 0-2.69 2.67m144.21.6a2.7 2.7 0 0 0 5.39 0 2.7 2.7 0 0 0-5.4 0m0 0"/>
  <use xlink:href="#f" x="230.75" y="429.24"/>
  <use xlink:href="#g" x="374.28" y="433.45"/>
  <path fill="#0d0d0d" d="M286.48 403.83h23.95v1.78h-23.95Zm18.41-3.34 7.32 4.23-7.32 4.23a.9.9 0 0 1-1.22-.32.9.9 0 0 1 .32-1.22l5.98-3.46v1.54l-5.98-3.47a.9.9 0 0 1-.32-1.21.9.9 0 0 1 1.22-.32m0 0"/>
  <use xlink:href="#h" x="293.8" y="402.82"/>
  <path fill="#0d0d0d" d="M237.4 418.08h139.83v.6H237.4Zm5.84 4.02-6.43-3.72 6.43-3.73a.3.3 0 0 1 .41.11.3.3 0 0 1-.1.4l-6 3.47v-.5l6 3.46a.3.3 0 0 1 .1.4.3.3 0 0 1-.4.11m128.14-7.45 6.44 3.73-6.44 3.72a.3.3 0 0 1-.4-.1.3.3 0 0 1 .1-.41l6-3.47v.51l-6-3.46a.3.3 0 0 1-.1-.4.3.3 0 0 1 .4-.12m0 0"/>
  <use xlink:href="#i" x="299.21" y="431.05"/>
</svg>
