<svg xmlns="http://www.w3.org/2000/svg" xmlns:xlink="http://www.w3.org/1999/xlink" width="595.32" height="841.92" viewBox="0 0 595.32 841.92">
  <defs>
    <path id="i" d="M1.42 0h3.3v-.19c-.92 0-1.13-.12-1.14-.7v-7.19l-.1-.01-2.15 1.07v.18q.7-.27.86-.27.37 0 .36.56v5.44c-.02.75-.22.92-1.13.92Zm0 0"/>
    <path id="j" d="M1.5-1.2c-.36 0-.66.3-.66.68 0 .35.3.65.64.65.38 0 .7-.29.7-.65a.7.7 0 0 0-.68-.68m0 0"/>
    <path id="E" d="M.08 0h2.81v-.19h-.23c-.52-.04-.66-.17-.68-.6v-2.23l1.7 2.25.1.16q.15.18.14.25-.01.17-.25.17h-.23V0h2.6v-.19c-.5-.03-.88-.25-1.38-.86L2.8-3.38l.35-.32c1.5-1.35 1.82-1.53 2.59-1.52v-.17H3.31v.17c.47 0 .6.05.6.2q-.01.18-.29.43L1.99-3.12v-5.04l-.04-.03c-.47.14-.81.25-1.5.44l-.36.1v.18l.39-.01c.4 0 .51.15.51.71v5.79c-.01.64-.04.67-.9.8Zm0 0"/>
    <path id="F" d="M.19 0h2.67v-.19c-.63 0-.81-.14-.83-.6v-3.4l.19-.22c.3-.28.81-.48 1.23-.48q.8 0 .8 1.26v2.6c-.03.69-.16.81-.83.84V0h2.69v-.19c-.67 0-.84-.18-.86-.95v-3.02c.36-.51.73-.73 1.31-.73.67 0 .9.33.9 1.31v2.53c-.02.72-.1.8-.8.86V0h2.62v-.19L8.97-.2c-.38-.07-.5-.24-.5-.7v-2.47q0-2.15-1.4-2.15c-.7 0-1.3.32-1.95 1.02q-.3-1.03-1.28-1.02c-.53 0-.86.16-1.86.93v-.9l-.07-.03c-.64.24-1.05.36-1.68.55v.2q.2-.05.38-.04c.31 0 .42.18.42.76v3.03C1-.34.84-.19.2-.19Zm0 0"/>
    <path id="m" d="M1.83-3.95c.72 0 .98.01 1.26.12.75.28 1.2.96 1.2 1.78 0 1.02-.66 1.78-1.54 1.78-.34 0-.58-.07-1.03-.37-.34-.2-.55-.3-.75-.3-.28 0-.45.17-.45.42 0 .43.51.7 1.36.7.9 0 1.85-.32 2.42-.82.56-.48.87-1.19.87-1.98 0-.63-.2-1.18-.53-1.55-.25-.27-.48-.4-1-.64.81-.57 1.11-1 1.11-1.64 0-.99-.75-1.64-1.86-1.64q-.9 0-1.56.57c-.36.35-.53.64-.78 1.36l.17.05C1.2-7 1.73-7.37 2.5-7.37c.78 0 1.31.51 1.31 1.28 0 .42-.19.84-.48 1.15-.36.36-.69.55-1.5.83Zm0 0"/>
    <path id="l" d="m5.69-1.64-.16-.06c-.44.7-.56.78-1.14.8H1.53l2.02-2.12C4.6-4.14 5.08-5.05 5.08-5.98c0-1.2-.97-2.11-2.22-2.11a2.3 2.3 0 0 0-1.72.73c-.39.4-.56.8-.76 1.64l.25.06c.48-1.17.89-1.56 1.73-1.56 1.02 0 1.69.69 1.69 1.69 0 .95-.55 2.06-1.55 3.12L.36-.14V0h4.67Zm0 0"/>
    <path id="r" d="M3.47-4.45c1.2-.64 1.6-1.13 1.6-1.96 0-.98-.84-1.68-2.05-1.68-1.3 0-2.27.8-2.27 1.89 0 .78.22 1.12 1.48 2.22C.93-2.98.67-2.64.67-1.81c0 1.17.94 1.98 2.3 1.98 1.44 0 2.36-.8 2.36-2.03 0-.92-.4-1.5-1.86-2.6m-.2 1.23c.87.63 1.15 1.06 1.15 1.74 0 .78-.53 1.3-1.31 1.3-.92 0-1.53-.68-1.53-1.71 0-.78.25-1.27.97-1.84Zm-.15-1.44c-1.06-.7-1.5-1.25-1.5-1.92 0-.7.55-1.19 1.3-1.19.81 0 1.33.54 1.33 1.36 0 .72-.31 1.2-1.12 1.75m0 0"/>
    <path id="G" d="M3.44-8.1h-.8L-.1.18h.8Zm0 0"/>
    <path id="H" d="M5.84-.19c-.65-.1-.71-.18-.71-1.03V-3.6q0-1.89-1.49-1.9c-.7 0-1.2.3-1.76 1.01v-3.66l-.05-.03c-.42.14-.72.24-1.4.44l-.3.1v.18l.14-.01c.51 0 .6.1.6.62v5.64C.85-.36.8-.27.12-.19V0h2.6v-.19C2-.23 1.9-.37 1.87-1.22V-4.1c.51-.55.87-.75 1.34-.75q.9 0 .89 1.27v2.37c-.02.85-.13.99-.81 1.03V0h2.54Zm0 0"/>
    <path id="k" d="M3.05-8.1c-.66 0-1.17.2-1.61.62C.75-6.81.28-5.42.28-4.03c0 1.33.4 2.72.97 3.39q.68.8 1.75.81.91 0 1.55-.62c.7-.66 1.15-2.05 1.15-3.5 0-2.46-1.1-4.14-2.65-4.14m-.03.3c1 0 1.53 1.36 1.53 3.86Q4.55-.15 3-.14 1.45-.16 1.44-3.92c0-2.55.54-3.88 1.58-3.88m0 0"/>
    <path id="n" d="M5.66-2.77H4.44v-5.32H3.9L.14-2.77V-2h3.38v2h.92v-2h1.22Zm-2.16 0H.63l2.87-4.1Zm0 0"/>
    <path id="o" d="M2.17-6.98h2.35c.2 0 .23-.02.28-.11l.45-1.07-.1-.09c-.18.25-.3.31-.56.31H2.08L.78-5.09l-.01.06q0 .1.14.1.6 0 1.36.23c1.37.45 2 1.18 2 2.37 0 1.16-.72 2.05-1.68 2.05-.23 0-.42-.08-.78-.34-.39-.29-.65-.4-.92-.4q-.5 0-.5.44c0 .45.55.75 1.45.75 1 0 1.86-.33 2.47-.94.55-.54.8-1.21.8-2.14 0-.86-.24-1.4-.81-2-.53-.53-1.22-.8-2.63-1.06Zm0 0"/>
    <path id="p" d="M5.34-8.2a5.3 5.3 0 0 0-2.93.97 4.6 4.6 0 0 0-2 3.89c0 1.04.32 2.09.84 2.7.45.52 1.1.81 1.84.81 1.49 0 2.52-1.14 2.52-2.8 0-1.54-.86-2.5-2.27-2.5-.53 0-.76.08-1.51.54A4.1 4.1 0 0 1 5.38-8ZM2.91-4.58c1.03 0 1.62.86 1.62 2.36 0 1.31-.47 2.05-1.31 2.05-1.05 0-1.7-1.13-1.7-2.99 0-.6.1-.93.34-1.12q.39-.3 1.05-.3m0 0"/>
    <path id="q" d="M5.38-7.94H.95L.23-6.17l.2.1c.5-.8.73-.96 1.4-.98h2.6L2.07.1h.78l2.54-7.82Zm0 0"/>
    <path id="s" d="M.7.27c1.35-.16 2-.4 2.82-.97A5 5 0 0 0 5.5-4.72c0-1.98-1.1-3.37-2.64-3.37-1.44 0-2.5 1.2-2.5 2.82 0 1.46.86 2.43 2.16 2.43.65 0 1.15-.2 1.8-.68A4.5 4.5 0 0 1 .66.03Zm3.64-4.52c0 .23-.04.34-.18.45a2 2 0 0 1-1.2.44c-.93 0-1.5-.89-1.5-2.33 0-.67.2-1.39.45-1.7q.32-.38.84-.38 1.59.02 1.6 3.05Zm0 0"/>
    <path id="D" d="M3.53-8.1a6 6 0 0 0-1.69 1.44A5.6 5.6 0 0 0 .58-3.02c0 1.54.44 2.7 1.5 3.93.48.56.8.82 1.42 1.21l.14-.2C2.7 1.17 2.34.75 2.04-.14c-.3-.81-.43-1.7-.43-2.92q0-1.88.47-2.99c.34-.73.7-1.17 1.56-1.86Zm0 0"/>
    <path id="I" d="M.45 2.13c.9-.6 1.25-.9 1.7-1.44a5.5 5.5 0 0 0 1.27-3.64c0-1.55-.45-2.7-1.5-3.92A5 5 0 0 0 .48-8.09l-.14.18a4 4 0 0 1 1.63 2.07c.28.8.42 1.7.42 2.92A7 7 0 0 1 1.91.05 4.5 4.5 0 0 1 .34 1.92Zm0 0"/>
    <path id="f" d="M3.9-8.1v6.5q0 .73.07.93.06.2.26.33.21.12.66.12h.19V0H.89v-.22h.22q.5 0 .72-.1.21-.13.3-.34.07-.2.07-.95v-4.1q0-.55-.06-.7a.5.5 0 0 0-.19-.23 1 1 0 0 0-.32-.1q-.3 0-.74.2l-.1-.23L3.7-8.09Zm0 0"/>
    <path id="e" d="M1.5-1.8q.4 0 .69.28t.28.7-.28.68a1 1 0 0 1-.69.28q-.4 0-.69-.28a1 1 0 0 1-.28-.69q0-.4.28-.69a1 1 0 0 1 .69-.28m0 0"/>
    <path id="d" d="M.42-.22Q.76-.23.9-.39q.15-.15.14-.63v-3.46q0-.43-.12-.58-.13-.15-.49-.19v-.22h4.81v1.42h-.21q-.14-.65-.38-.86t-.89-.2H2.67v4.13q0 .42.13.59.14.15.54.17V0H.42Zm0 0"/>
    <path id="c" d="M3.7 0v-.22q.53 0 .53-.78v-2.69L2.66-1q0 .77.53.78V0H.4v-.22q.34 0 .48-.19.15-.18.14-.65v-3.38q0-.81-.62-.81v-.22h2.78v.22q-.3 0-.42.17-.12.15-.11.64v2.67l1.57-2.71q0-.45-.14-.6-.1-.17-.39-.17v-.22h2.78v.22q-.3 0-.46.16-.14.16-.14.57v3.49q0 .48.12.66.14.15.48.15V0Zm0 0"/>
    <path id="a" d="M3.1-7.94h4.1v.22q-.69.02-.87.17-.2.15-.22.74 1.35 0 2.05.31t1.2.94.5 1.51q0 1.13-.84 1.99T6.1-1.2q0 .42.1.62.09.2.27.27.2.06.72.1V0H3.1v-.22q.73 0 .92-.22.18-.22.18-.76a5 5 0 0 1-2.17-.38Q1.25-1.97.84-2.6a2.7 2.7 0 0 1 .1-2.95q.5-.71 1.25-.97.75-.28 2.01-.28 0-.53-.22-.7-.21-.2-.89-.2Zm3 6.32q.6 0 .96-.18.38-.18.61-.75.25-.57.25-1.56 0-.78-.23-1.33-.22-.54-.58-.73-.36-.2-1-.2ZM4.2-6.37q-.78.01-1.1.26-.34.25-.54.78-.19.54-.19 1.36 0 .97.24 1.47t.62.69q.4.17.97.19Zm0 0"/>
    <path id="C" d="M.4-4.16H.15l.36-1 .14-.42.33-.06.31-.03q.22 0 .63.08.5.07.7.07.27 0 .66-.12l.09.16a9 9 0 0 0-1.28 2.03 5 5 0 0 0-.35 1.7q0 .63.27.95t.66.32q.9 0 1.57-1.2.68-1.17.68-2.45 0-.38-.14-.54a.4.4 0 0 0-.36-.17q-.15 0-.35.07l-.14-.2q.4-.34.67-.67l.3-.03q.34 0 .56.3.22.27.22.82 0 1-.62 2.22A6 6 0 0 1 3.48-.39q-.69.55-1.3.55-.6 0-.96-.41Q.86-.67.86-1.47q0-.82.45-1.72.27-.51 1.35-1.8a5 5 0 0 1-.96.04l-.37-.02-.22.02q-.13 0-.28.06-.18.27-.42.73m0 0"/>
    <path id="g" d="M3.05-8.12c-.66 0-1.16.18-1.61.62C.75-6.83.28-5.44.28-4.03c0 1.31.4 2.7.97 3.37.44.54 1.06.83 1.75.83q.91 0 1.56-.62c.7-.67 1.16-2.07 1.16-3.52 0-2.45-1.1-4.15-2.67-4.15m-.03.3c1.01 0 1.54 1.37 1.54 3.88S4.03-.14 3-.14s-1.56-1.3-1.56-3.78c0-2.56.54-3.9 1.58-3.9m0 0"/>
    <path id="h" d="M1.5-1.2c-.36 0-.66.3-.66.68 0 .35.3.65.64.65.38 0 .7-.29.7-.65a.7.7 0 0 0-.68-.68m0 0"/>
    <path id="t" d="M-7.64-1.75c.1-.69.2-.84.51-.84a4 4 0 0 1 .96.2l5.1 1.4c.71.22.79.3.88.99H0v-2.94h-.19c-.1.75-.14.82-.56.82-.14 0-.23-.02-.69-.15l-2.31-.64c.08-.3.1-.59.1-1.09 0-.98-.2-1.8-.58-2.3-.44-.6-1.1-.95-1.82-.95-1.14 0-1.78.9-1.78 2.53v2.97Zm.51-2.1c-.25-.09-.34-.23-.34-.56 0-.46.11-.92.3-1.17q.29-.45 1.12-.44 1.18.02 1.66.8c.2.38.3.84.3 1.6 0 .2 0 .26-.07.6Zm0 0"/>
    <path id="u" d="M-8.1-3.53a6 6 0 0 0 1.44 1.69A5.6 5.6 0 0 0-3.02-.58c1.54 0 2.7-.44 3.93-1.5.56-.48.82-.8 1.21-1.42l-.2-.14c-.75.95-1.17 1.3-2.06 1.6-.81.3-1.7.43-2.92.43a8 8 0 0 1-2.99-.47A5 5 0 0 1-7.9-3.64Zm0 0"/>
    <path id="v" d="M-7.94-3.52v3.38h.24c.06-.88.22-1.02 1.08-1.05h5.3c.89.03 1.05.19 1.1 1.05H0V-6.6l-2.08-.58v.31C-.83-6.3-.52-5.78-.47-4.25v.81c-.01.92-.06 1.02-.48 1.03h-5.67c-.88-.03-1.04-.18-1.08-1.1Zm0 0"/>
    <path id="w" d="M-8.1-3.44v.8L.18.1v-.8Zm0 0"/>
    <path id="x" d="M0-1.42v-3.3h-.19c0 .92-.12 1.13-.7 1.14h-7.19l-.01.1 1.07 2.15h.18a4 4 0 0 1-.27-.86q0-.37.56-.36h5.44c.75.02.92.22.92 1.13Zm0 0"/>
    <path id="y" d="M-8.1-3.05c0 .66.2 1.17.62 1.61.67.69 2.06 1.16 3.45 1.16 1.33 0 2.72-.4 3.39-.97Q.16-1.93.17-3q0-.9-.62-1.55c-.66-.7-2.05-1.15-3.5-1.15-2.46 0-4.14 1.1-4.14 2.65m.3.03c0-1 1.36-1.53 3.86-1.53q3.79 0 3.8 1.55-.02 1.55-3.78 1.56c-2.55 0-3.88-.54-3.88-1.58m0 0"/>
    <path id="z" d="M0-.08v-2.81h-.19v.23c-.04.52-.17.66-.6.68h-2.23l2.25-1.7.16-.1q.18-.15.25-.14.17.01.17.25v.23H0v-2.6h-.19c-.03.5-.25.88-.86 1.38L-3.38-2.8l-.32-.35c-1.35-1.5-1.53-1.82-1.52-2.59h-.17v2.44h.17c0-.47.05-.6.2-.6q.18.01.43.29l1.47 1.64h-5.04l-.03.04.44 1.5.1.36h.18l-.01-.39c0-.4.15-.51.71-.51h5.79c.64.01.67.04.8.9Zm0 0"/>
    <path id="A" d="M0-.19v-2.67h-.19c0 .63-.14.81-.6.83h-3.4l-.22-.19c-.28-.3-.48-.81-.48-1.23q0-.8 1.26-.8h2.6c.69.03.81.16.84.83H0v-2.69h-.19c0 .67-.18.84-.95.86h-3.02c-.51-.36-.73-.73-.73-1.31 0-.67.33-.9 1.31-.9h2.53c.72.02.8.1.86.8H0v-2.62h-.19l-.01.31c-.07.38-.24.5-.7.5h-2.47q-2.15 0-2.15 1.4c0 .7.32 1.3 1.02 1.95q-1.03.3-1.02 1.28c0 .53.16.86.93 1.86h-.9l-.03.07c.24.64.36 1.05.55 1.68h.2q-.05-.2-.04-.38c0-.31.18-.42.76-.42h3.03c.68.03.83.19.83.84Zm0 0"/>
    <path id="B" d="M2.13-.45a6 6 0 0 0-1.44-1.7 5.5 5.5 0 0 0-3.64-1.27c-1.55 0-2.7.45-3.92 1.5-.58.5-.85.81-1.22 1.44l.18.14a4 4 0 0 1 2.07-1.63 9 9 0 0 1 2.92-.42 7 7 0 0 1 2.97.48c.75.33 1.18.7 1.87 1.57Zm0 0"/>
  </defs>
  <use xlink:href="#a" x="279.93" y="750.42"/>
  <use xlink:href="#c" x="290.23" y="750.42"/>
  <use xlink:href="#d" x="297.18" y="750.42"/>
  <use xlink:href="#e" x="302.57" y="750.42"/>
  <use xlink:href="#ab" x="305.57" y="750.42"/>
  <use xlink:href="#f" x="308.57" y="750.42"/>
  <use xlink:href="#W" x="314.57" y="750.42"/>
  <path fill="#fff" fill-rule="evenodd" d="M106.68 731.25h293.3v-244.4h-293.3Zm0 0"/>
  <path fill="#fff" fill-rule="evenodd" d="M167.09 680.18h212.87V498.71H167.1Zm0 0"/>
  <path fill="none" stroke="#b7b7b7" stroke-linejoin="round" stroke-miterlimit="10" stroke-width=".72" d="M167.09 676.7h212.76m-212.76-3.23h212.76m-212.76-3.35h212.76m-212.76-3.24h212.76m-212.76-6.6h212.76m-212.76-3.35h212.76m-212.76-3.23h212.76m-212.76-3.36h212.76m-212.76-6.6h212.76m-212.76-3.23h212.76m-212.76-3.36h212.76m-212.76-3.23h212.76m-212.76-6.6h212.76m-212.76-3.35h212.76m-212.76-3.24h212.76m-212.76-3.35h212.76m-212.76-6.6h212.76m-212.76-3.23h212.76m-212.76-3.36h212.76m-212.76-3.24h212.76m-212.76-6.59h212.76M167.09 591h212.76m-212.76-3.23h212.76m-212.76-3.36h212.76m-212.76-6.59h212.76m-212.76-3.23h212.76m-212.76-3.36h212.76m-212.76-3.24h212.76m-212.76-6.6h212.76m-212.76-3.35h212.76m-212.76-3.23h212.76m-212.76-3.36h212.76m-212.76-6.6h212.76m-212.76-3.23h212.76m-212.76-3.35h212.76m-212.76-3.24h212.76m-212.76-6.6h212.76m-212.76-3.35h212.76m-212.76-3.24h212.76m-212.76-3.35h212.76m-212.76-6.6h212.76m-212.76-3.23h212.76m-212.76-3.36h212.76m-212.76-3.23h212.76"/>
  <path fill="none" stroke="#868686" stroke-linejoin="round" stroke-miterlimit="10" stroke-width=".72" d="M167.09 663.52h212.76M167.09 647.1h212.76m-212.76-16.54h212.76m-212.76-16.42h212.76M167.09 597.6h212.76m-212.76-16.42h212.76m-212.76-16.54h212.76M167.09 548.2h212.76m-212.76-16.54h212.76m-212.76-16.42h212.76M167.09 498.7h212.76"/>
  <path fill="none" stroke="#b7b7b7" stroke-linejoin="round" stroke-miterlimit="10" stroke-width=".72" d="M181.35 498.71v181.35m14.15-181.35v181.35m14.14-181.35v181.35m14.26-181.35v181.35m28.3-181.35v181.35m14.26-181.35v181.35m14.14-181.35v181.35m14.14-181.35v181.35m28.41-181.35v181.35m14.14-181.35v181.35m14.27-181.35v181.35m14.14-181.35v181.35"/>
  <path fill="none" stroke="#868686" stroke-linejoin="round" stroke-miterlimit="10" stroke-width=".72" d="M238.05 498.71v181.35M309 498.71v181.35m70.84-181.35v181.35"/>
  <path fill="none" stroke="#000" stroke-linejoin="round" stroke-miterlimit="10" stroke-width="1.2" d="M167.09 680.06V498.71m-2.64 181.35h2.64m-2.64-3.35h2.64m-2.64-3.24h2.64m-2.64-3.35h2.64m-2.64-3.24h2.64m-2.64-3.36h2.64m-2.64-3.23h2.64m-2.64-3.36h2.64m-2.64-3.23h2.64m-2.64-3.36h2.64m-2.64-3.24h2.64m-2.64-3.35h2.64m-2.64-3.24h2.64m-2.64-3.36h2.64m-2.64-3.23h2.64m-2.64-3.36h2.64m-2.64-3.24h2.64m-2.64-3.35h2.64m-2.64-3.24h2.64m-2.64-3.35h2.64m-2.64-3.24h2.64m-2.64-3.36h2.64m-2.64-3.23h2.64m-2.64-3.36h2.64m-2.64-3.24h2.64m-2.64-3.35h2.64m-2.64-3.24h2.64m-2.64-3.36h2.64m-2.64-3.23h2.64m-2.64-3.36h2.64m-2.64-3.23h2.64m-2.64-3.36h2.64m-2.64-3.23h2.64m-2.64-3.36h2.64m-2.64-3.24h2.64m-2.64-3.35h2.64m-2.64-3.24h2.64m-2.64-3.36h2.64m-2.64-3.23h2.64m-2.64-3.36h2.64m-2.64-3.24h2.64m-2.64-3.35h2.64m-2.64-3.24h2.64m-2.64-3.35h2.64m-2.64-3.24h2.64m-2.64-3.36h2.64m-2.64-3.23h2.64m-2.64-3.36h2.64m-2.64-3.24h2.64m-2.64-3.35h2.64m-2.64-3.24h2.64m-2.64-3.36h2.64m-2.64-3.23h2.64m-2.64-3.36h2.64m-2.64-3.23h2.64m-2.64-3.36h2.64m-3.48 181.35h3.48m-3.48-16.54h3.48m-3.48-16.42h3.48m-3.48-16.54h3.48m-3.48-16.42h3.48m-3.48-16.54h3.48m-3.48-16.42h3.48m-3.48-16.54h3.48m-3.48-16.43h3.48m-3.48-16.54h3.48m-3.48-16.42h3.48m-3.48-16.54h3.48m0 181.35h212.76m-212.76 0v2.64m14.26-2.64v2.64m14.15-2.64v2.64m14.14-2.64v2.64m14.26-2.64v2.64m14.15-2.64v2.64m14.14-2.64v2.64m14.27-2.64v2.64m14.14-2.64v2.64m14.14-2.64v2.64m14.27-2.64v2.64m14.14-2.64v2.64m14.14-2.64v2.64m14.27-2.64v2.64m14.14-2.64v2.64m14.15-2.64v2.64m-212.76-2.64v3.48m70.96-3.48v3.48m70.96-3.48v3.48m70.84-3.48v3.48"/>
  <path fill="none" stroke="#000" stroke-linecap="round" stroke-linejoin="round" stroke-miterlimit="10" stroke-width="1.2" d="M181.35 509.5c4.73 7.4 9.45 15.51 14.19 22.18a230 230 0 0 0 14.17 17.87 212 212 0 0 0 14.18 14.82 163 163 0 0 0 14.19 12q7.08 5.33 14.17 9.31t14.19 6.62a86 86 0 0 0 14.18 3.98 77 77 0 0 0 28.36 0q7.09-1.32 14.18-3.96t14.18-6.59 14.18-9.23c4.73-3.51 9.46-7.91 14.18-11.86"/>
  <use xlink:href="#g" x="141.94" y="684.04"/>
  <use xlink:href="#h" x="147.93" y="684.04"/>
  <use xlink:href="#g" x="150.92" y="684.04"/>
  <use xlink:href="#bX" x="156.92" y="684.04"/>
  <use xlink:href="#i" x="141.94" y="667.55"/>
  <use xlink:href="#j" x="147.93" y="667.55"/>
  <use xlink:href="#k" x="150.93" y="667.55"/>
  <use xlink:href="#b" x="156.92" y="667.55"/>
  <use xlink:href="#l" x="141.94" y="651.06"/>
  <use xlink:href="#j" x="147.93" y="651.06"/>
  <use xlink:href="#k" x="150.93" y="651.06"/>
  <use xlink:href="#b" x="156.92" y="651.06"/>
  <use xlink:href="#m" x="141.94" y="634.59"/>
  <use xlink:href="#j" x="147.93" y="634.59"/>
  <use xlink:href="#k" x="150.93" y="634.59"/>
  <use xlink:href="#b" x="156.92" y="634.59"/>
  <use xlink:href="#n" x="141.94" y="618.09"/>
  <use xlink:href="#j" x="147.93" y="618.09"/>
  <use xlink:href="#k" x="150.93" y="618.09"/>
  <use xlink:href="#b" x="156.92" y="618.09"/>
  <use xlink:href="#o" x="141.94" y="601.6"/>
  <use xlink:href="#j" x="147.93" y="601.6"/>
  <use xlink:href="#k" x="150.93" y="601.6"/>
  <use xlink:href="#b" x="156.92" y="601.6"/>
  <use xlink:href="#p" x="141.94" y="585.13"/>
  <use xlink:href="#j" x="147.93" y="585.13"/>
  <use xlink:href="#k" x="150.93" y="585.13"/>
  <use xlink:href="#b" x="156.92" y="585.13"/>
  <use xlink:href="#q" x="141.94" y="568.64"/>
  <use xlink:href="#j" x="147.93" y="568.64"/>
  <use xlink:href="#k" x="150.93" y="568.64"/>
  <use xlink:href="#b" x="156.92" y="568.64"/>
  <use xlink:href="#r" x="141.94" y="552.17"/>
  <use xlink:href="#j" x="147.93" y="552.17"/>
  <use xlink:href="#k" x="150.93" y="552.17"/>
  <use xlink:href="#b" x="156.92" y="552.17"/>
  <use xlink:href="#s" x="141.94" y="535.68"/>
  <use xlink:href="#j" x="147.93" y="535.68"/>
  <use xlink:href="#k" x="150.93" y="535.68"/>
  <use xlink:href="#b" x="156.92" y="535.68"/>
  <use xlink:href="#i" x="135.94" y="519.19"/>
  <use xlink:href="#k" x="141.94" y="519.19"/>
  <use xlink:href="#j" x="147.93" y="519.19"/>
  <use xlink:href="#k" x="150.93" y="519.19"/>
  <use xlink:href="#b" x="156.92" y="519.19"/>
  <use xlink:href="#i" x="136.4" y="502.72"/>
  <use xlink:href="#i" x="141.92" y="502.72"/>
  <use xlink:href="#j" x="147.91" y="502.72"/>
  <use xlink:href="#k" x="150.91" y="502.72"/>
  <use xlink:href="#b" x="156.9" y="502.72"/>
  <use xlink:href="#k" x="164.19" y="698.38"/>
  <use xlink:href="#b" x="170.19" y="698.38"/>
  <use xlink:href="#o" x="232.12" y="698.38"/>
  <use xlink:href="#k" x="238.12" y="698.38"/>
  <use xlink:href="#b" x="244.11" y="698.38"/>
  <use xlink:href="#i" x="300.07" y="698.38"/>
  <use xlink:href="#k" x="306.06" y="698.38"/>
  <use xlink:href="#k" x="312.05" y="698.38"/>
  <use xlink:href="#b" x="318.07" y="698.38"/>
  <use xlink:href="#i" x="371.03" y="698.38"/>
  <use xlink:href="#o" x="377.02" y="698.38"/>
  <use xlink:href="#k" x="383.01" y="698.38"/>
  <use xlink:href="#b" x="389.01" y="698.38"/>
  <use xlink:href="#t" x="130.39" y="622.07"/>
  <use xlink:href="#cf" x="130.39" y="614.76"/>
  <use xlink:href="#u" x="130.39" y="611.88"/>
  <use xlink:href="#v" x="130.39" y="607.89"/>
  <use xlink:href="#w" x="130.39" y="600.85"/>
  <use xlink:href="#x" x="130.39" y="597.52"/>
  <use xlink:href="#y" x="130.39" y="591.53"/>
  <use xlink:href="#y" x="130.39" y="585.54"/>
  <use xlink:href="#cf" x="130.39" y="579.54"/>
  <use xlink:href="#z" x="130.39" y="576.29"/>
  <use xlink:href="#A" x="130.39" y="570.3"/>
  <use xlink:href="#B" x="130.39" y="560.98"/>
  <use xlink:href="#cf" x="130.39" y="556.96"/>
  <use xlink:href="#C" x="252.96" y="715.4"/>
  <use xlink:href="#co" x="258.95" y="715.4"/>
  <use xlink:href="#D" x="261.59" y="715.4"/>
  <use xlink:href="#E" x="265.58" y="715.4"/>
  <use xlink:href="#F" x="271.58" y="715.4"/>
  <use xlink:href="#G" x="280.9" y="715.4"/>
  <use xlink:href="#H" x="284.23" y="715.4"/>
  <use xlink:href="#I" x="290.23" y="715.4"/>
  <use xlink:href="#b" x="294.19" y="715.4"/>
</svg>
