<svg xmlns="http://www.w3.org/2000/svg" xmlns:xlink="http://www.w3.org/1999/xlink" width="595.32" height="841.92" viewBox="0 0 595.32 841.92">
  <defs>
    <path id="d" d="M1.5-1.8q.4 0 .69.28t.28.7-.28.68a1 1 0 0 1-.69.28q-.4 0-.69-.28a1 1 0 0 1-.28-.69q0-.4.28-.69a1 1 0 0 1 .69-.28m0 0"/>
    <path id="b" d="M3.7 0v-.22q.53 0 .53-.78v-2.69L2.66-1q0 .77.53.78V0H.4v-.22q.34 0 .48-.19.15-.18.14-.65v-3.38q0-.81-.62-.81v-.22h2.78v.22q-.3 0-.42.17-.12.15-.11.64v2.67l1.57-2.71q0-.45-.14-.6-.1-.17-.39-.17v-.22h2.78v.22q-.3 0-.46.16-.14.16-.14.57v3.49q0 .48.12.66.14.15.48.15V0Zm0 0"/>
    <path id="e" d="M1.77-3.98v-.2q.66-.2.92-.35.26-.17.45-.52.2-.33.19-.7 0-.48-.36-.83a1.2 1.2 0 0 0-.88-.34q-.8 0-1.39.86l-.22-.08A3.5 3.5 0 0 1 1.56-7.6q.66-.5 1.47-.5.82 0 1.36.5.53.5.53 1.17 0 .44-.25.84-.23.41-.78.72.68.34 1.05.83a2 2 0 0 1 .36 1.22q0 1.25-.9 2.12T2 .17Q.98.17.53-.16a.7.7 0 0 1-.34-.6q0-.27.19-.46.2-.2.45-.2a1 1 0 0 1 .36.1q.1.04.65.5.59.46 1.08.46.44 0 .75-.34.3-.35.31-.86 0-.81-.56-1.49a3 3 0 0 0-1.65-.93m0 0"/>
    <path id="c" d="M.42-.22Q.76-.23.9-.39q.15-.15.14-.63v-3.46q0-.43-.12-.58-.13-.15-.49-.19v-.22h4.81v1.42h-.21q-.14-.65-.38-.86t-.89-.2H2.67v4.13q0 .42.13.59.14.15.54.17V0H.42Zm0 0"/>
    <path id="a" d="M3.1-7.94h4.1v.22q-.69.02-.87.17-.2.15-.22.74 1.35 0 2.05.31t1.2.94.5 1.51q0 1.13-.84 1.99T6.1-1.2q0 .42.1.62.09.2.27.27.2.06.72.1V0H3.1v-.22q.73 0 .92-.22.18-.22.18-.76a5 5 0 0 1-2.17-.38Q1.25-1.97.84-2.6a2.7 2.7 0 0 1 .1-2.95q.5-.71 1.25-.97.75-.28 2.01-.28 0-.53-.22-.7-.21-.2-.89-.2Zm3 6.32q.6 0 .96-.18.38-.18.61-.75.25-.57.25-1.56 0-.78-.23-1.33-.22-.54-.58-.73-.36-.2-1-.2ZM4.2-6.37q-.78.01-1.1.26-.34.25-.54.78-.19.54-.19 1.36 0 .97.24 1.47t.62.69q.4.17.97.19Zm0 0"/>
    <path id="f" d="M5.44-.4q0 .12-.03.2l-.05.1-.06.08-.08.02H1.27q-.06 0-.08-.02L1.1-.09 1.06-.2l-.01-.2.01-.18q.02-.08.05-.12l.06-.08.1-.03h1.57v-5.77l-1.46.88-.2.08q-.06 0-.1-.04l-.05-.12L1.02-6v-.17q0-.08.03-.13l.06-.08.08-.07 1.75-1.11.04-.03.1-.02.12-.01.17-.02.24.01.14.04q.06 0 .08.06l.01.06V-.8h1.38q.04 0 .08.03l.08.08.04.12zm0 0"/>
    <path id="h" d="m5.42-.44-.01.19-.05.14-.08.1-.1.01H1L.86-.02.75-.09a.2.2 0 0 1-.06-.13L.67-.44v-.2L.72-.8l.06-.14.13-.14 1.47-1.56q.5-.53.8-.95.31-.44.48-.79t.21-.64.07-.54-.08-.47a1 1 0 0 0-.62-.67q-.25-.1-.55-.1-.37 0-.64.1-.3.09-.5.22-.21.1-.36.21t-.2.1q-.06 0-.08-.02l-.07-.08-.03-.14v-.36l.02-.12q0-.05.03-.08l.1-.1q.07-.07.24-.16.19-.1.44-.2a3.4 3.4 0 0 1 2.19-.1q.41.14.69.42t.4.63q.14.37.14.76 0 .36-.06.72t-.27.78-.6.94q-.4.5-1.04 1.17L1.9-.86h3.3l.1.03.07.08.05.13zm0 0"/>
    <path id="j" d="M5.36-2.17q0 .53-.19.95-.18.4-.51.7-.35.3-.85.47a4 4 0 0 1-1.84.1l-.6-.14-.42-.18Q.8-.35.75-.4L.67-.48l-.03-.1-.03-.14v-.22q0-.21.03-.3.04-.07.13-.07.05 0 .2.1a3.5 3.5 0 0 0 1.69.5q.38 0 .68-.1t.49-.28q.2-.19.3-.44a1.4 1.4 0 0 0-.02-1.11 1 1 0 0 0-.38-.45 2 2 0 0 0-.59-.29 3 3 0 0 0-.81-.1H1.6l-.1-.02-.07-.08-.05-.12-.01-.2.01-.18q0-.08.05-.12l.06-.07.1-.01h.67q.38 0 .68-.1.32-.1.53-.3.22-.18.33-.43.1-.26.11-.6 0-.23-.08-.43a1 1 0 0 0-.6-.62q-.25-.1-.55-.1-.34 0-.63.11a4 4 0 0 0-.89.44q-.14.1-.19.1L.9-6.23l-.07-.05-.03-.13v-.36l.03-.12.04-.1.07-.09q.06-.07.24-.15.17-.1.42-.2.24-.12.58-.18a3 3 0 0 1 1.6.06q.42.13.68.38.25.23.39.58a2.3 2.3 0 0 1 .05 1.44q-.1.3-.29.53a1.7 1.7 0 0 1-1.04.64v.01q.39.04.72.19t.56.39.36.55q.14.3.14.67m0 0"/>
    <path id="k" d="M6.22-.36v.2q0 .09-.06.13a.3.3 0 0 1-.2.05A3 3 0 0 1 5.3 0l-.08-.06-.02-.08L4.92-2H1.77l-1 1.83-.08.1-.1.07-.17.02a3 3 0 0 1-.54 0l-.15-.05Q-.3-.07-.3-.16l.08-.2L3.73-7.4l.1-.09.1-.06.2-.05a3 3 0 0 1 .6 0q.13.02.2.05.07 0 .1.06.03.03.05.1ZM4.23-6.58 2.2-2.8h2.6Zm0 0"/>
    <path id="l" d="M6.16-6.1q0 .35-.1.68-.09.3-.28.58a2 2 0 0 1-1 .8q.23.06.45.18.23.13.36.31.15.2.24.44.1.25.1.55a2.6 2.6 0 0 1-.34 1.23 3 3 0 0 1-.42.53q-.25.24-.58.43A3.3 3.3 0 0 1 2.9 0H.88Q.69 0 .59-.1.5-.18.55-.4l1.34-6.77q.05-.24.19-.31.15-.1.31-.1h1.63q.57 0 .96.1.39.09.66.28.26.18.4.47.11.26.12.62m-1.07.18a1 1 0 0 0-.07-.35 1 1 0 0 0-.2-.26q-.15-.1-.37-.17a2 2 0 0 0-.58-.07H2.82L2.33-4.3h1.14q.45 0 .75-.14A1.5 1.5 0 0 0 5-5.37q.1-.29.1-.55m-.23 3.44a.9.9 0 0 0-.34-.75q-.35-.27-1.07-.27h-1.3L1.64-.83h1.4q.49 0 .81-.14t.55-.36q.24-.23.34-.53.13-.3.13-.62m0 0"/>
    <path id="m" d="M7.16-4.86q0 .39-.07.81-.04.41-.15.83a5 5 0 0 1-.75 1.56A3.8 3.8 0 0 1 3.83-.13q-.54.14-1.3.13H.86L.7-.02.6-.09a.2.2 0 0 1-.07-.13.4.4 0 0 1 .02-.19l1.34-6.76q.05-.24.17-.31.14-.1.33-.1H4q.87 0 1.43.19.57.18.97.53.39.35.58.86.18.5.19 1.14m-1.07.1q0-.45-.12-.8A1.6 1.6 0 0 0 4.92-6.6q-.38-.15-1.04-.16H2.8L1.64-.85h1.03q.72 0 1.2-.17.48-.16.85-.46.38-.3.62-.7.27-.38.43-.82a5 5 0 0 0 .32-1.77m0 0"/>
    <path id="n" d="M6.7-6.81q0 .12-.04.31a1 1 0 0 1-.1.28q-.06.12-.14.11-.1 0-.2-.1l-.3-.24A2.2 2.2 0 0 0 4.7-6.8q-.5 0-.9.18-.39.2-.72.5-.33.32-.58.72t-.4.86q-.17.45-.26.9-.07.47-.07.86 0 .48.1.85.13.36.35.6.22.26.55.4.32.12.73.12.47 0 .8-.1t.56-.22l.39-.22q.17-.1.27-.11.05 0 .09.04.03.05.03.14l-.01.08-.02.13-.03.14-.05.14-.05.12-.07.11q-.07.07-.27.18-.18.1-.47.21-.28.12-.64.18a4 4 0 0 1-1.84-.1q-.47-.18-.81-.53-.33-.36-.52-.87a4 4 0 0 1-.19-1.2A6 6 0 0 1 1.7-6q.35-.5.8-.87.45-.38 1.02-.58a3.6 3.6 0 0 1 2.06-.13q.38.1.62.25.26.15.38.25.12.12.12.27m0 0"/>
  </defs>
  <use xlink:href="#a" x="106.94" y="559.31"/>
  <use xlink:href="#b" x="117.23" y="559.31"/>
  <use xlink:href="#c" x="124.19" y="559.31"/>
  <use xlink:href="#d" x="129.58" y="559.31"/>
  <use xlink:href="#g" x="132.58" y="559.31"/>
  <use xlink:href="#e" x="135.57" y="559.31"/>
  <use xlink:href="#s" x="141.58" y="559.31"/>
  <path fill="none" stroke="#000" stroke-linejoin="round" stroke-miterlimit="10" stroke-width=".6" d="M12.3 76.5h84" transform="matrix(.99239 0 0 -.99414 70.77 542.18)"/>
  <path d="M83.27 406.48v114.53h-.59V406.48Zm-3.27 0a2.98 2.98 0 1 1 5.95 0 2.98 2.98 0 0 1-5.95 0m5.96 114.53a2.98 2.98 0 1 1-5.97 0 2.98 2.98 0 0 1 5.97 0m80.67-114.53v114.53h-.6V406.48Zm-3.27 0a2.98 2.98 0 1 1 5.96 0 2.98 2.98 0 0 1-5.96 0m5.96 114.53a2.98 2.98 0 1 1-5.97 0 2.98 2.98 0 0 1 5.97 0m0 0"/>
  <path fill="#fff" fill-rule="evenodd" stroke="#000" stroke-linejoin="round" stroke-miterlimit="10" stroke-width=".6" d="M6.3 82.5h12v42h-12Zm84-52.8h12v42h-12Zm-57 40.8h42v12h-42Zm0 0" transform="matrix(.99239 0 0 -.99414 70.77 542.18)"/>
  <use xlink:href="#f" x="80.35" y="443.59"/>
  <use xlink:href="#h" x="121.06" y="470.73"/>
  <use xlink:href="#j" x="163.38" y="497.87"/>
  <use xlink:href="#k" x="78.76" y="535.4"/>
  <use xlink:href="#l" x="164.18" y="535.4"/>
  <use xlink:href="#m" x="78.76" y="399.67"/>
  <use xlink:href="#n" x="162.59" y="399.67"/>
</svg>
