<svg xmlns="http://www.w3.org/2000/svg" xmlns:xlink="http://www.w3.org/1999/xlink" width="612" height="792" viewBox="0 0 612 792">
  <defs>
    <path id="a" d="M4.84-3.23a7 7 0 0 1-.12 1.36q-.11.6-.4 1.04-.25.45-.7.69Q3.2.1 2.54.09q-.6 0-1.03-.21Q1.1-.34.84-.77A3 3 0 0 1 .47-1.8a8 8 0 0 1 0-2.76q.12-.6.39-1.05.29-.45.72-.69.45-.25 1.1-.25.6 0 1.02.22t.67.64.36 1.05q.1.6.11 1.4m-.87.06a7 7 0 0 0-.31-2.05 1 1 0 0 0-.27-.36 1 1 0 0 0-.34-.2 2 2 0 0 0-.44-.06q-.42 0-.69.2t-.42.55-.2.8a10 10 0 0 0 .01 2.26q.07.49.24.83.17.3.42.45.24.14.62.14.27 0 .49-.08a1 1 0 0 0 .36-.26q.16-.18.25-.4a3 3 0 0 0 .25-1.13q.03-.33.03-.7m0 0"/>
    <path id="b" d="m4.64-.34-.01.17-.05.1-.05.05-.06.02h-3.4l-.05-.02-.07-.04-.04-.11A1 1 0 0 1 .94-.6L1-.66l.08-.03h1.36v-4.9l-1.27.75-.15.06q-.06 0-.1-.03l-.05-.1v-.34l.04-.1q0-.04.03-.07l.08-.06 1.5-.96.04-.01.08-.02.1-.01h.15l.2.01q.08 0 .13.02.04 0 .06.04t.02.05v5.67h1.17l.06.03a.1.1 0 0 1 .06.07q.04.03.04.1zm0 0"/>
    <path id="c" d="M4.6-2.08q0 .54-.18.94t-.5.67q-.3.29-.76.42a3 3 0 0 1-1.55.1 3 3 0 0 1-.83-.22l-.17-.1-.05-.06L.53-.4.5-.5v-.3q0-.08.03-.11l.05-.06a.1.1 0 0 1 .08-.04q.04 0 .14.07a2 2 0 0 0 .73.28A3 3 0 0 0 2.77-.7q.27-.07.48-.25t.31-.42q.13-.27.13-.64 0-.3-.1-.53a1 1 0 0 0-.3-.4 2 2 0 0 0-.5-.24 4 4 0 0 0-1.28-.05l-.42.03q-.14 0-.2-.06T.84-3.5v-2.62q0-.15.08-.24.08-.1.22-.1h2.88q.02 0 .06.04l.06.06q.03.04.05.13l.01.15q0 .18-.06.28-.04.1-.12.1H1.59v1.8l.35-.02h.44q.54 0 .96.14a1.8 1.8 0 0 1 1.11.95q.14.34.14.75m0 0"/>
    <path id="e" d="M2.48-6.86a9 9 0 0 0-.95 4.17A10 10 0 0 0 2.5 1.6q0 .04-.03.07l-.11.04-.2.02L2 1.7l-.1-.01-.09-.03-.04-.05A9 9 0 0 1 .95-.47Q.81-1 .73-1.57a10 10 0 0 1 .02-2.21A10 10 0 0 1 1.8-7.02l.06-.01.1-.02a1 1 0 0 1 .37 0q.07 0 .1.03.05.04.05.08zm0 0"/>
    <path id="g" d="M5.19-.9v.13l-.02.1-.03.1-.08.07-.2.16q-.15.09-.4.18-.25.1-.55.16-.3.08-.68.08-.62 0-1.14-.2a2.4 2.4 0 0 1-.86-.63 3 3 0 0 1-.56-1q-.18-.6-.19-1.4 0-.79.2-1.41.23-.64.6-1.07a2.6 2.6 0 0 1 2.06-.9q.29 0 .55.06t.48.13a2 2 0 0 1 .65.36l.09.1q0 .04.03.08l.02.11a1 1 0 0 1 0 .33l-.04.11-.04.08-.06.01q-.1 0-.2-.09a3 3 0 0 0-.8-.42 2 2 0 0 0-1.47.06 2 2 0 0 0-.61.52q-.25.33-.4.8-.12.48-.12 1.1 0 .6.13 1.08.14.47.39.8.24.3.6.48.36.15.82.16.39 0 .67-.1.3-.08.5-.2l.33-.22q.12-.1.2-.1h.05l.05.07.01.13zm0 0"/>
    <path id="h" d="M2.44-2.67q0 .56-.08 1.1A8 8 0 0 1 1.8.59a10 10 0 0 1-.51 1.08q-.04 0-.08.03l-.11.01-.16.02q-.12 0-.2-.02-.08 0-.1-.04Q.6 1.64.6 1.59q0-.04.03-.09a10 10 0 0 0 .94-4.19A10 10 0 0 0 .6-6.94q0-.04.05-.08l.1-.03a1 1 0 0 1 .54.03l.04.05q.52 1.02.8 2.1.3 1.07.3 2.2m0 0"/>
    <path id="d" d="M3.55-4.56v.1l-.02.12-.1.2-.06.06-.07.02H2.14l-.5 2.51-.05.24-.01.2q0 .26.1.38.12.1.37.1a1 1 0 0 0 .39-.06l.12-.04.11-.02q.04 0 .06.03.02.01.02.1l-.02.14q0 .07-.03.15l-.04.13-.07.1a.2.2 0 0 1-.12.07l-.19.06-.22.03-.23.02q-.28 0-.49-.06A.7.7 0 0 1 .8-.47a2 2 0 0 1-.07-.47v-.12l.02-.16.02-.17q0-.08.03-.14l.51-2.53H.7q-.07 0-.1-.03-.03-.04-.03-.13l.02-.16q0-.09.05-.17.02-.08.07-.12.05-.06.11-.06h.64l.22-1.07.02-.08.08-.04.14-.03a1 1 0 0 1 .4 0q.08 0 .11.03l.06.04v.08l-.2 1.07h1.14q.07 0 .1.06t.03.1m0 0"/>
    <path id="f" d="M3.6-5.37q0 .62-.46 1.07-.45.45-1.1.46-.63 0-1.09-.46Q.5-4.75.5-5.38t.45-1.07 1.1-.46 1.1.46q.44.44.44 1.08m-.44 0q0-.48-.33-.79a1 1 0 0 0-.78-.32q-.48 0-.8.32-.33.31-.33.79 0 .45.33.78.32.32.8.32.46 0 .78-.32.33-.33.33-.79m0 0"/>
    <path id="i" d="M1.55-.28v.6q0 1.23-.16 1.88H.53q.1-.3.14-.51.05-.35.05-.86v-3.19q0-1.03.66-1.69Q2-4.7 3.01-4.7a2 2 0 0 1 1.71.8q.45.64.46 1.43 0 .9-.55 1.64a2.25 2.25 0 0 1-2.6.86 2 2 0 0 1-.5-.31m0-1.5q0 .7.12.95.12.27.44.45a1.5 1.5 0 0 0 1.81-.3q.44-.47.44-1.32 0-.64-.28-1.17-.26-.55-.69-.8a1.6 1.6 0 0 0-.86-.26q-.58 0-.83.43-.15.27-.15 1.17Zm0 0"/>
    <path id="j" d="M3.44-.77q-.83.63-1.05.74-.31.15-.67.14Q1.16.1.8-.27a1.4 1.4 0 0 1-.36-1q0-.38.17-.68.24-.38.83-.74.6-.36 2-.86v-.22q0-.8-.27-1.09-.25-.3-.73-.3a1 1 0 0 0-.6.2.6.6 0 0 0-.22.46v.33q0 .29-.14.42-.12.15-.35.14a.5.5 0 0 1-.36-.14.6.6 0 0 1-.13-.42q0-.5.52-.92.5-.43 1.45-.43.72 0 1.17.24.36.19.52.58.1.24.1 1.01v1.83q0 .76.04.94.03.18.1.23.04.07.15.06.09 0 .17-.04.12-.08.47-.42v.32q-.66.88-1.27.88a.6.6 0 0 1-.45-.2q-.17-.2-.17-.68m0-.39v-2.03q-.9.35-1.16.49-.47.27-.67.54-.2.3-.19.61 0 .43.25.7.25.3.58.29.45 0 1.19-.6m0 0"/>
    <path id="k" d="M.27-8.08v-.25q.9.45 1.5 1.05.84.84 1.3 2A6.5 6.5 0 0 1 2.6.42 5 5 0 0 1 .27 2.56v-.22q.73-.4 1.2-1.09T2.16-.5t.23-2.2q0-1.26-.2-2.28-.15-.82-.36-1.3a4.4 4.4 0 0 0-1.56-1.8m0 0"/>
    <path id="l" d="M.9-3.83q.66-1.69 2.27-1.69 1.13 0 1.83.85.72.83.72 1.9 0 1.12-.72 2.02t-1.95.9Q1.77.16 1.1-.86A4.6 4.6 0 0 1 .44-3.4a6.6 6.6 0 0 1 1.07-3.65q.37-.5.87-.72a5 5 0 0 1 1.75-.25q.9 0 1.1-.05a1 1 0 0 0 .35-.25h.22q-.18.59-.47.83-.26.25-.59.33a6 6 0 0 1-1.14.1q-.89.03-1.22.13-.33.12-.7.53-.36.44-.56 1.11T.89-3.83m2.07-1.3q-.6 0-.97.49t-.37 1.53q0 1.4.5 2.14.51.72 1.17.72.62 0 .97-.5.35-.51.36-1.62 0-1.17-.47-1.96-.45-.8-1.2-.8m0 0"/>
    <path id="m" d="M3.8-2.83q1.48.3 1.48 1.38 0 .73-.62 1.1Q4.05 0 2.94 0H.28v-.22Q.8-.22.94-.4q.15-.2.14-.86V-4.1q0-.62-.06-.73a1 1 0 0 0-.2-.2q-.14-.1-.54-.1v-.22h2.49q.71 0 1.15.11.45.1.74.44.3.33.3.8-.01.91-1.16 1.18m-1.74-.14h.31q.8 0 1.18-.3.36-.3.36-.75 0-.5-.38-.73a2 2 0 0 0-1.15-.23h-.32Zm0 2.5q.3.1.7.1.7 0 1.04-.3t.34-.8a.9.9 0 0 0-.44-.81q-.44-.3-1.22-.3l-.42.02Zm0 0"/>
    <path id="o" d="m4.66-5.36.21 1.47h-.26q-.22-.74-.45-.9Q3.93-5 3.2-5H2.06v3.72q0 .63.06.75.06.13.2.22t.56.08V0H.17v-.22q.59-.01.74-.17.18-.16.17-.88V-4.1q0-.56-.07-.72a.4.4 0 0 0-.22-.22q-.15-.07-.61-.1v-.2Zm0 0"/>
    <path id="n" d="M.45 2.13c.9-.6 1.27-.9 1.7-1.44a5.5 5.5 0 0 0 1.29-3.64 5.6 5.6 0 0 0-1.5-3.92A5 5 0 0 0 .5-8.09l-.16.18a4 4 0 0 1 1.64 2.07c.29.8.43 1.7.43 2.92A7 7 0 0 1 1.92.05C1.6.8 1.22 1.23.34 1.92Zm0 0"/>
    <path id="p" d="m6.33-.14-.03.08-.08.06-.16.02A2 2 0 0 1 5.42 0l-.1-.06v-6.66H3.18a52 52 0 0 1-.66 4.19q-.17.75-.39 1.25-.21.5-.48.81-.28.32-.61.44Q.7.09.27.09L.16.06.08 0 .03-.14l-.01-.2a1 1 0 0 1 .04-.4L.13-.8l.09-.03a1 1 0 0 0 .4-.08q.2-.09.36-.33.19-.25.35-.69t.31-1.14.3-1.69.3-2.36q0-.25.1-.34t.27-.1h3.36q.17 0 .26.1.1.1.1.3Zm0 0"/>
    <path id="q" d="M5.44-.4q0 .12-.03.2l-.05.1-.06.08-.08.02H1.27q-.06 0-.08-.02L1.1-.09 1.06-.2l-.01-.2.01-.18q.02-.08.05-.12l.06-.08.1-.03h1.57v-5.77l-1.46.88-.2.08q-.06 0-.1-.04l-.05-.12L1.02-6v-.17q0-.08.03-.13l.06-.08.08-.07 1.75-1.11.04-.03.1-.02.12-.01.17-.02.24.01.14.04q.06 0 .08.06l.01.06V-.8h1.38q.04 0 .08.03l.08.08.04.12zm0 0"/>
    <path id="r" d="m5.42-.44-.01.19-.05.14-.08.1-.1.01H1L.86-.02.75-.09a.2.2 0 0 1-.06-.13L.67-.44v-.2L.72-.8l.06-.14.13-.14 1.47-1.56q.5-.53.8-.95.31-.44.48-.79t.21-.64.07-.54-.08-.47a1 1 0 0 0-.62-.67q-.25-.1-.55-.1-.37 0-.64.1-.3.09-.5.22-.21.1-.36.21t-.2.1q-.06 0-.08-.02l-.07-.08-.03-.14v-.36l.02-.12q0-.05.03-.08l.1-.1q.07-.07.24-.16.19-.1.44-.2a3.4 3.4 0 0 1 2.19-.1q.41.14.69.42t.4.63q.14.37.14.76 0 .36-.06.72t-.27.78-.6.94q-.4.5-1.04 1.17L1.9-.86h3.3l.1.03.07.08.05.13zm0 0"/>
    <path id="s" d="M6.7-2.77q-.14.72-.45 1.27A3 3 0 0 1 4.53-.06a4 4 0 0 1-2.37-.02q-.5-.18-.82-.55-.3-.34-.39-.9-.1-.54.07-1.27l.92-4.64q0-.04.03-.08l.1-.04a1 1 0 0 1 .4-.07l.25.02.14.05q.06 0 .08.04v.08L2.02-2.8q-.1.52-.07.9.04.38.24.64.18.25.5.4a2.5 2.5 0 0 0 1.58 0q.37-.15.65-.41.3-.27.5-.64.2-.39.3-.88l.92-4.64q0-.04.05-.08l.1-.04q.04-.03.15-.05a2 2 0 0 1 .47 0l.15.05q.06 0 .08.04v.08Zm0 0"/>
    <path id="t" d="m6.33-.14-.03.08-.08.06-.16.02A2 2 0 0 1 5.42 0l-.1-.06v-6.66H3.18a52 52 0 0 1-.66 4.19q-.17.75-.39 1.25-.21.5-.48.81-.28.32-.61.44Q.7.09.27.09L.16.06.08 0 .03-.14l-.01-.2a1 1 0 0 1 .04-.4L.13-.8l.09-.03a1 1 0 0 0 .4-.08q.2-.09.36-.33.19-.25.35-.69t.31-1.14.3-1.69.3-2.36q0-.25.1-.34t.27-.1h3.36q.17 0 .26.1.1.1.1.3Zm0 0"/>
    <path id="u" d="M5.44-.4q0 .12-.03.2l-.05.1-.06.08-.08.02H1.27q-.06 0-.08-.02L1.1-.09 1.06-.2l-.01-.2.01-.18q.02-.08.05-.12l.06-.08.1-.03h1.57v-5.77l-1.46.88-.2.08q-.06 0-.1-.04l-.05-.12L1.02-6v-.17q0-.08.03-.13l.06-.08.08-.07 1.75-1.11.04-.03.1-.02.12-.01.17-.02.24.01.14.04q.06 0 .08.06l.01.06V-.8h1.38q.04 0 .08.03l.08.08.04.12zm0 0"/>
    <path id="v" d="m5.42-.44-.01.19-.05.14-.08.1-.1.01H1L.86-.02.75-.09a.2.2 0 0 1-.06-.13L.67-.44v-.2L.72-.8l.06-.14.13-.14 1.47-1.56q.5-.53.8-.95.31-.44.48-.79t.21-.64.07-.54-.08-.47a1 1 0 0 0-.62-.67q-.25-.1-.55-.1-.37 0-.64.1-.3.09-.5.22-.21.1-.36.21t-.2.1q-.06 0-.08-.02l-.07-.08-.03-.14v-.36l.02-.12q0-.05.03-.08l.1-.1q.07-.07.24-.16.19-.1.44-.2a3.4 3.4 0 0 1 2.19-.1q.41.14.69.42t.4.63q.14.37.14.76 0 .36-.06.72t-.27.78-.6.94q-.4.5-1.04 1.17L1.9-.86h3.3l.1.03.07.08.05.13zm0 0"/>
    <path id="w" d="M6.7-2.77q-.14.72-.45 1.27A3 3 0 0 1 4.53-.06a4 4 0 0 1-2.37-.02q-.5-.18-.82-.55-.3-.34-.39-.9-.1-.54.07-1.27l.92-4.64q0-.04.03-.08l.1-.04a1 1 0 0 1 .4-.07l.25.02.14.05q.06 0 .08.04v.08L2.02-2.8q-.1.52-.07.9.04.38.24.64.18.25.5.4a2.5 2.5 0 0 0 1.58 0q.37-.15.65-.41.3-.27.5-.64.2-.39.3-.88l.92-4.64q0-.04.05-.08l.1-.04q.04-.03.15-.05a2 2 0 0 1 .47 0l.15.05q.06 0 .08.04v.08Zm0 0"/>
    <path id="x" d="M5.36-2.17q0 .53-.19.95-.18.4-.51.7-.35.3-.85.47a4 4 0 0 1-1.84.1l-.6-.14-.42-.18Q.8-.35.75-.4L.67-.48l-.03-.1-.03-.14v-.22q0-.21.03-.3.04-.07.13-.07.05 0 .2.1a3.5 3.5 0 0 0 1.69.5q.38 0 .68-.1t.49-.28q.2-.19.3-.44a1.4 1.4 0 0 0-.02-1.11 1 1 0 0 0-.38-.45 2 2 0 0 0-.59-.29 3 3 0 0 0-.81-.1H1.6l-.1-.02-.07-.08-.05-.12-.01-.2.01-.18q0-.08.05-.12l.06-.07.1-.01h.67q.38 0 .68-.1.32-.1.53-.3.22-.18.33-.43.1-.26.11-.6 0-.23-.08-.43a1 1 0 0 0-.6-.62q-.25-.1-.55-.1-.34 0-.63.11a4 4 0 0 0-.89.44q-.14.1-.19.1L.9-6.23l-.07-.05-.03-.13v-.36l.03-.12.04-.1.07-.09q.06-.07.24-.15.17-.1.42-.2.24-.12.58-.18a3 3 0 0 1 1.6.06q.42.13.68.38.25.23.39.58a2.3 2.3 0 0 1 .05 1.44q-.1.3-.29.53a1.7 1.7 0 0 1-1.04.64v.01q.39.04.72.19t.56.39.36.55q.14.3.14.67m0 0"/>
  </defs>
  <use xlink:href="#a" x="85.21" y="499.21"/>
  <use xlink:href="#b" x="123.32" y="499.21"/>
  <use xlink:href="#a" x="128.74" y="499.21"/>
  <use xlink:href="#c" x="106.22" y="499.21"/>
  <path d="M87.93 488.44h46.77v.6H87.93Zm42.93-2.44 4.4 2.74-4.4 2.74a.3.3 0 0 1-.41-.1.3.3 0 0 1 .1-.41l4-2.49v.51l-4-2.48a.3.3 0 0 1-.1-.42.3.3 0 0 1 .4-.09m0 0"/>
  <path d="M87.63 488.96v-40.17h.6v40.17Zm-2.45-36.35 2.75-4.38 2.76 4.38a.3.3 0 0 1-.1.4.3.3 0 0 1-.41-.09l-2.5-3.97h.5l-2.5 3.97a.3.3 0 0 1-.4.1.3.3 0 0 1-.1-.41m0 0"/>
  <path fill="none" stroke="#000" stroke-linejoin="round" stroke-miterlimit="10" stroke-width=".6" d="M17.1 26.86v1.64m20.4-1.64v1.64m20.4-1.64v1.64" transform="matrix(.99902 0 0 -.9929 70.85 517.04)"/>
  <use xlink:href="#d" x="136.84" y="493.5"/>
  <use xlink:href="#bO" x="140.43" y="493.5"/>
  <use xlink:href="#e" x="142.23" y="493.5"/>
  <use xlink:href="#f" x="145.25" y="493.5"/>
  <use xlink:href="#g" x="149.45" y="493.5"/>
  <use xlink:href="#h" x="154.84" y="493.5"/>
  <use xlink:href="#i" x="78.89" y="453.59"/>
  <use xlink:href="#a" x="170.75" y="499.21"/>
  <use xlink:href="#b" x="208.89" y="499.21"/>
  <use xlink:href="#a" x="214.29" y="499.21"/>
  <use xlink:href="#c" x="191.78" y="499.21"/>
  <path d="M173.65 488.44h46.76v.6h-46.76Zm42.93-2.44 4.4 2.74-4.4 2.74a.3.3 0 0 1-.42-.1.3.3 0 0 1 .1-.41l4-2.49v.51l-4-2.48a.3.3 0 0 1-.1-.42.3.3 0 0 1 .42-.09m0 0"/>
  <path d="M173.35 488.96v-40.17h.6v40.17Zm-2.46-36.35 2.76-4.38 2.76 4.38a.3.3 0 0 1-.1.4.3.3 0 0 1-.41-.09l-2.5-3.97h.5l-2.5 3.97a.3.3 0 0 1-.4.1.3.3 0 0 1-.1-.41m0 0"/>
  <path fill="none" stroke="#000" stroke-linejoin="round" stroke-miterlimit="10" stroke-width=".6" d="M102.9 26.86v1.64m20.4-1.64v1.64m20.4-1.64v1.64" transform="matrix(.99902 0 0 -.9929 70.85 517.04)"/>
  <use xlink:href="#d" x="222.4" y="493.5"/>
  <use xlink:href="#bO" x="226" y="493.5"/>
  <use xlink:href="#e" x="227.8" y="493.5"/>
  <use xlink:href="#f" x="230.79" y="493.5"/>
  <use xlink:href="#g" x="235.02" y="493.5"/>
  <use xlink:href="#h" x="240.41" y="493.5"/>
  <use xlink:href="#i" x="164.46" y="453.59"/>
  <use xlink:href="#a" x="256.32" y="499.21"/>
  <use xlink:href="#b" x="294.46" y="499.21"/>
  <use xlink:href="#a" x="299.86" y="499.21"/>
  <use xlink:href="#c" x="277.35" y="499.21"/>
  <path d="M258.77 488.44h46.76v.6h-46.76ZM301.7 486l4.4 2.74-4.4 2.74a.3.3 0 0 1-.43-.1.3.3 0 0 1 .1-.41l4-2.49v.51l-4-2.48a.3.3 0 0 1-.1-.42.3.3 0 0 1 .43-.09m0 0"/>
  <path d="M258.46 488.96v-40.17h.6v40.17Zm-2.45-36.35 2.76-4.38 2.75 4.38a.3.3 0 0 1-.1.4.3.3 0 0 1-.4-.09l-2.5-3.97h.5l-2.5 3.97a.3.3 0 0 1-.41.1.3.3 0 0 1-.1-.41m0 0"/>
  <path fill="none" stroke="#000" stroke-linejoin="round" stroke-miterlimit="10" stroke-width=".6" d="M188.1 26.86v1.64m20.4-1.64v1.64m20.4-1.64v1.64" transform="matrix(.99902 0 0 -.9929 70.85 517.04)"/>
  <use xlink:href="#d" x="307.97" y="493.5"/>
  <use xlink:href="#bO" x="311.56" y="493.5"/>
  <use xlink:href="#e" x="313.36" y="493.5"/>
  <use xlink:href="#f" x="316.36" y="493.5"/>
  <use xlink:href="#g" x="320.58" y="493.5"/>
  <use xlink:href="#h" x="325.98" y="493.5"/>
  <use xlink:href="#i" x="250.02" y="453.59"/>
  <use xlink:href="#a" x="341.88" y="499.21"/>
  <use xlink:href="#b" x="380.03" y="499.21"/>
  <use xlink:href="#a" x="385.42" y="499.21"/>
  <use xlink:href="#c" x="362.89" y="499.21"/>
  <path d="M344.48 488.44h46.77v.6h-46.77Zm42.93-2.44 4.4 2.74-4.4 2.74a.3.3 0 0 1-.42-.1.3.3 0 0 1 .1-.41l4-2.49v.51l-4-2.48a.3.3 0 0 1-.1-.42.3.3 0 0 1 .42-.09m0 0"/>
  <path d="M344.18 488.96v-40.17h.6v40.17Zm-2.46-36.35 2.76-4.38 2.76 4.38a.3.3 0 0 1-.1.4.3.3 0 0 1-.41-.09l-2.5-3.97h.5l-2.5 3.97a.3.3 0 0 1-.4.1.3.3 0 0 1-.1-.41m0 0"/>
  <path fill="none" stroke="#000" stroke-linejoin="round" stroke-miterlimit="10" stroke-width=".6" d="M273.9 26.86v1.64m20.4-1.64v1.64m20.4-1.64v1.64" transform="matrix(.99902 0 0 -.9929 70.85 517.04)"/>
  <use xlink:href="#d" x="393.53" y="493.5"/>
  <use xlink:href="#bO" x="397.13" y="493.5"/>
  <use xlink:href="#e" x="398.93" y="493.5"/>
  <use xlink:href="#f" x="401.92" y="493.5"/>
  <use xlink:href="#g" x="406.12" y="493.5"/>
  <use xlink:href="#h" x="411.52" y="493.5"/>
  <use xlink:href="#i" x="335.59" y="453.59"/>
  <path fill="none" stroke="#000" stroke-linejoin="round" stroke-miterlimit="10" stroke-width=".6" d="m17.1 49.5 39.6 4.8m45.6 2.4 39.6-4.8m132-2.4c5.1 2.6 10.2 5.21 16.9 5.3 6.7.1 15-2.3 23.3-4.7m-125.4 3c5.1-2.6 10.2-5.2 16.9-5.3s15 2.31 23.3 4.71" transform="matrix(.99902 0 0 -.9929 70.85 517.04)"/>
  <use xlink:href="#j" x="104.37" y="510.06"/>
  <use xlink:href="#k" x="109.76" y="510.06"/>
  <use xlink:href="#l" x="188.88" y="510.06"/>
  <use xlink:href="#k" x="194.9" y="510.06"/>
  <use xlink:href="#m" x="275.85" y="510.06"/>
  <use xlink:href="#n" x="281.24" y="510.06"/>
  <use xlink:href="#o" x="361.33" y="510.06"/>
  <use xlink:href="#k" x="366.13" y="510.06"/>
  <path fill="none" stroke="#000" stroke-linejoin="round" stroke-miterlimit="10" stroke-width=".6" d="M141.3 59.1h30.6v24h-30.6ZM.9 24.3h66v32.99H.9Zm0 0" transform="matrix(.99687 0 0 -.99327 365.75 638.76)"/>
  <path fill="#fff" fill-rule="evenodd" stroke="#000" stroke-linejoin="round" stroke-miterlimit="10" stroke-width=".6" d="M8.7 57.29a7.8 7.8 0 1 0 15.6 0 7.8 7.8 0 0 0-15.6 0Zm0 0" transform="matrix(.99687 0 0 -.99327 365.75 638.76)"/>
  <path fill="none" stroke="#000" stroke-linejoin="round" stroke-miterlimit="10" stroke-width=".6" d="m11.1 62.7 11.03-11.04m-11.03 0L22.13 62.7" transform="matrix(.99687 0 0 -.99327 365.75 638.76)"/>
  <path fill="#fff" fill-rule="evenodd" stroke="#000" stroke-linejoin="round" stroke-miterlimit="10" stroke-width=".6" d="M39.9 57.29a7.8 7.8 0 1 0 15.6 0 7.8 7.8 0 0 0-15.6 0Zm0 0" transform="matrix(.99687 0 0 -.99327 365.75 638.76)"/>
  <path fill="none" stroke="#000" stroke-linejoin="round" stroke-miterlimit="10" stroke-width=".6" d="m42.3 62.7 11.03-11.04m-11.03 0L53.33 62.7" transform="matrix(.99687 0 0 -.99327 365.75 638.76)"/>
  <path fill="#fff" fill-rule="evenodd" stroke="#000" stroke-linejoin="round" stroke-miterlimit="10" stroke-width=".6" d="M147.3 84.3a7.8 7.8 0 1 0 15.6 0 7.8 7.8 0 0 0-15.6 0Zm0 0" transform="matrix(.99687 0 0 -.99327 365.75 638.76)"/>
  <path fill="none" stroke="#000" stroke-linejoin="round" stroke-miterlimit="10" stroke-width=".6" d="m149.7 89.7 11.03-11.04m-11.03 0 11.03 11.03" transform="matrix(.99687 0 0 -.99327 365.75 638.76)"/>
  <path fill="#fff" fill-rule="evenodd" d="M396.85 621.48h4.19v-14.3h-4.19Zm0 0"/>
  <path fill="none" stroke="#000" stroke-linejoin="round" stroke-miterlimit="10" stroke-width=".6" d="M31.5 32.1V17.7m4.2 10.8v-7.21" transform="matrix(.99687 0 0 -.99327 365.75 638.76)"/>
  <use xlink:href="#p" x="375.67" y="569.93"/>
  <use xlink:href="#q" x="382.87" y="569.93"/>
  <use xlink:href="#p" x="406.27" y="569.93"/>
  <use xlink:href="#r" x="413.47" y="569.93"/>
  <use xlink:href="#s" x="394.01" y="632.01"/>
  <path fill="none" stroke="#000" stroke-linejoin="round" stroke-miterlimit="10" stroke-width=".6" d="M106.5 26.1h66.6v33h-66.6Zm0 0" transform="matrix(.99687 0 0 -.99327 365.75 638.76)"/>
  <path fill="#fff" fill-rule="evenodd" stroke="#000" stroke-linejoin="round" stroke-miterlimit="10" stroke-width=".6" d="M114.3 59.1a7.8 7.8 0 1 0 15.6 0 7.8 7.8 0 0 0-15.6 0Zm0 0" transform="matrix(.99687 0 0 -.99327 365.75 638.76)"/>
  <path fill="none" stroke="#000" stroke-linejoin="round" stroke-miterlimit="10" stroke-width=".6" d="m116.7 64.5 11.03-11.04m-11.03 0 11.03 11.03" transform="matrix(.99687 0 0 -.99327 365.75 638.76)"/>
  <path fill="#fff" fill-rule="evenodd" stroke="#000" stroke-linejoin="round" stroke-miterlimit="10" stroke-width=".6" d="M146.1 59.1a7.8 7.8 0 1 0 15.6 0 7.8 7.8 0 0 0-15.6 0Zm0 0" transform="matrix(.99687 0 0 -.99327 365.75 638.76)"/>
  <path fill="none" stroke="#000" stroke-linejoin="round" stroke-miterlimit="10" stroke-width=".6" d="m148.5 64.5 11.03-11.04m-11.03 0 11.03 11.03" transform="matrix(.99687 0 0 -.99327 365.75 638.76)"/>
  <path fill="#fff" fill-rule="evenodd" d="M502.12 619.7h4.19v-14.3h-4.19Zm0 0"/>
  <path fill="none" stroke="#000" stroke-linejoin="round" stroke-miterlimit="10" stroke-width=".6" d="M137.1 33.9V19.5m4.2 10.19v-7.2" transform="matrix(.99687 0 0 -.99327 365.75 638.76)"/>
  <use xlink:href="#t" x="481.54" y="568.2"/>
  <use xlink:href="#u" x="488.74" y="568.2"/>
  <use xlink:href="#t" x="512.97" y="598.89"/>
  <use xlink:href="#v" x="520.17" y="598.89"/>
  <use xlink:href="#w" x="499.88" y="630.28"/>
  <use xlink:href="#t" x="515.26" y="544.61"/>
  <use xlink:href="#x" x="522.46" y="544.61"/>
</svg>
