<svg xmlns="http://www.w3.org/2000/svg" xmlns:xlink="http://www.w3.org/1999/xlink" width="595.32" height="841.92" viewBox="0 0 595.32 841.92">
  <defs>
    <path id="f" d="M3.7 0v-.22q.53 0 .53-.78v-2.69L2.66-1q0 .77.53.78V0H.4v-.22q.34 0 .48-.19.15-.18.14-.65v-3.38q0-.81-.62-.81v-.22h2.78v.22q-.3 0-.42.17-.12.15-.11.64v2.67l1.57-2.71q0-.45-.14-.6-.1-.17-.39-.17v-.22h2.78v.22q-.3 0-.46.16-.14.16-.14.57v3.49q0 .48.12.66.14.15.48.15V0Zm0 0"/>
    <path id="i" d="M1.77-3.98v-.2q.66-.2.92-.35.26-.17.45-.52.2-.33.19-.7 0-.48-.36-.83a1.2 1.2 0 0 0-.88-.34q-.8 0-1.39.86l-.22-.08A3.5 3.5 0 0 1 1.56-7.6q.66-.5 1.47-.5.82 0 1.36.5.53.5.53 1.17 0 .44-.25.84-.23.41-.78.72.68.34 1.05.83a2 2 0 0 1 .36 1.22q0 1.25-.9 2.12T2 .17Q.98.17.53-.16a.7.7 0 0 1-.34-.6q0-.27.19-.46.2-.2.45-.2a1 1 0 0 1 .36.1q.1.04.65.5.59.46 1.08.46.44 0 .75-.34.3-.35.31-.86 0-.81-.56-1.49a3 3 0 0 0-1.65-.93m0 0"/>
    <path id="h" d="M1.5-1.8q.4 0 .69.28t.28.7-.28.68a1 1 0 0 1-.69.28q-.4 0-.69-.28a1 1 0 0 1-.28-.69q0-.4.28-.69a1 1 0 0 1 .69-.28m0 0"/>
    <path id="e" d="M3.1-7.94h4.1v.22q-.69.02-.87.17-.2.15-.22.74 1.35 0 2.05.31t1.2.94.5 1.51q0 1.13-.84 1.99T6.1-1.2q0 .42.1.62.09.2.27.27.2.06.72.1V0H3.1v-.22q.73 0 .92-.22.18-.22.18-.76a5 5 0 0 1-2.17-.38Q1.25-1.97.84-2.6a2.7 2.7 0 0 1 .1-2.95q.5-.71 1.25-.97.75-.28 2.01-.28 0-.53-.22-.7-.21-.2-.89-.2Zm3 6.32q.6 0 .96-.18.38-.18.61-.75.25-.57.25-1.56 0-.78-.23-1.33-.22-.54-.58-.73-.36-.2-1-.2ZM4.2-6.37q-.78.01-1.1.26-.34.25-.54.78-.19.54-.19 1.36 0 .97.24 1.47t.62.69q.4.17.97.19Zm0 0"/>
    <path id="g" d="M.42-.22Q.76-.23.9-.39q.15-.15.14-.63v-3.46q0-.43-.12-.58-.13-.15-.49-.19v-.22h4.81v1.42h-.21q-.14-.65-.38-.86t-.89-.2H2.67v4.13q0 .42.13.59.14.15.54.17V0H.42Zm0 0"/>
    <path id="a" d="M5.73-5.34 4.61-1.45l-.13.47-.01.14q0 .06.05.12.04.05.1.05.13 0 .35-.19.07-.07.42-.55l.2.11q-.41.77-.89 1.11a1.7 1.7 0 0 1-1 .35.7.7 0 0 1-.52-.18A.6.6 0 0 1 3-.44q0-.23.19-.86l.14-.47A6 6 0 0 1 2.03-.1q-.37.27-.78.27a.8.8 0 0 1-.78-.44 2 2 0 0 1-.24-1q0-.81.5-1.88t1.33-1.73a2 2 0 0 1 1.27-.53q.33 0 .51.19.21.18.3.68l.22-.72Zm-1.86 1.1q0-.45-.15-.68a.3.3 0 0 0-.28-.14q-.19 0-.38.17-.39.38-.84 1.48T1.77-1.5q0 .31.09.45.1.14.23.14.27 0 .54-.3.37-.44.68-1.07.56-1.1.56-1.95m0 0"/>
    <path id="c" d="M5.94-8.1h.22q-.33 1.42-2 1.57-.69.06-1.02.16t-.7.4-.64.77-.52 1.18q1.17-1.4 2.63-1.4.76 0 1.23.45.48.45.49 1.2 0 1.5-1.15 2.7A3.4 3.4 0 0 1 1.98.17Q1.23.16.8-.28t-.43-1.2q0-1.1.58-2.6.59-1.5 1.2-2.3.63-.8 1.24-1.07.62-.3 1.58-.33.54-.03.7-.08t.27-.25m-2.25 3q-.36 0-.69.43-.33.44-.77 1.73-.43 1.3-.43 2.16 0 .64.5.64.54 0 1.2-1.48.67-1.5.67-2.79 0-.7-.48-.7m0 0"/>
    <path id="d" d="M3.08-2.83q1.45.15 1.45 1.19 0 .77-.72 1.28-.72.52-1.68.52-.97 0-1.41-.47A1.7 1.7 0 0 1 .3-1.5q0-.92.5-1.9.51-.99 1.34-1.5a3 3 0 0 1 1.7-.52q.6 0 .91.25.33.25.33.62 0 .5-.56.97t-1.44.75m-.95.05q.9-.16 1.35-.81.44-.66.44-1.18 0-.35-.3-.36-.75 0-1.5 2.35m-.11.36q-.3 1.11-.3 1.64 0 .64.4.64.35 0 .65-.63t.3-1.26q0-.53-.48-.53-.22 0-.57.14m0 0"/>
    <path id="m" d="M3.86-2.58q0 .6-.1 1.08-.09.48-.3.84-.24.35-.58.55-.36.2-.86.19-.49 0-.83-.17T.66-.6q-.21-.34-.3-.83a7 7 0 0 1 .02-2.2q.1-.5.3-.85.23-.36.57-.55.36-.2.88-.2.48 0 .8.17.35.18.55.52.2.33.29.83t.09 1.12m-.7.05a7 7 0 0 0-.11-1.24 2 2 0 0 0-.14-.4 1 1 0 0 0-.2-.28 1 1 0 0 0-.29-.16 1 1 0 0 0-.34-.05q-.33 0-.55.16-.2.15-.33.44-.12.27-.17.65a6 6 0 0 0 .02 1.79q.06.4.18.65.14.26.33.38.2.1.5.1.22 0 .4-.06.16-.07.27-.2.13-.14.2-.33.1-.19.15-.4.04-.23.06-.5zm0 0"/>
    <path id="n" d="m3.7-.27-.01.13-.03.08-.05.04-.05.02H.86L.8-.02.75-.06.72-.14V-.4q0-.05.03-.08L.8-.53l.06-.02h1.08v-3.9l-1 .58-.13.06q-.05 0-.08-.02l-.03-.1-.01-.15v-.1l.06-.13.06-.07L2-5.12l.03-.01.06-.02.1-.01h.1l.16.01.11.02q.03 0 .05.03l.02.05v4.51h.93l.05.02.05.06.03.08zm0 0"/>
    <path id="q" d="M3.64-1.47q0 .36-.12.64t-.35.49q-.23.2-.58.3a2.5 2.5 0 0 1-1.25.07l-.4-.1a2 2 0 0 1-.44-.2L.47-.33.44-.39.4-.5v-.15q0-.15.03-.19Q.46-.9.51-.9l.14.06a3 3 0 0 0 .65.28 2 2 0 0 0 .96 0q.2-.07.34-.2.15-.12.2-.28t.06-.38a1 1 0 0 0-.09-.39 1 1 0 0 0-.25-.3 1 1 0 0 0-.4-.2 2 2 0 0 0-.54-.06h-.5l-.06-.02-.05-.04-.03-.08-.01-.14v-.13q0-.04.03-.07l.06-.05.06-.02h.46q.26 0 .47-.06a1 1 0 0 0 .57-.5q.08-.18.08-.4 0-.15-.06-.3a1 1 0 0 0-.16-.25 1 1 0 0 0-.26-.17q-.16-.07-.36-.07-.23 0-.44.08l-.34.14q-.15.08-.25.16-.1.06-.13.06H.61l-.03-.05-.03-.07v-.25q0-.05.03-.08l.03-.06.05-.07.14-.1q.12-.08.3-.15.16-.08.38-.12a2.3 2.3 0 0 1 1.11.04q.27.1.46.27.18.15.26.4.1.23.1.5 0 .25-.07.46-.06.2-.18.38-.14.15-.32.26t-.4.16v.01a1.3 1.3 0 0 1 .86.4q.17.15.25.37.1.2.1.45m0 0"/>
    <path id="s" d="M3.66-1.66q0 .42-.14.75-.13.31-.4.54-.25.22-.6.34a3 3 0 0 1-1.24.08L.9-.03.5-.22.43-.27.42-.33.41-.4v-.23q0-.06.03-.1 0-.05.03-.06L.52-.8q.05 0 .12.06l.22.1.36.12a2 2 0 0 0 .98-.02q.24-.05.4-.2a1 1 0 0 0 .34-.84q0-.26-.08-.44a1 1 0 0 0-.25-.31q-.16-.13-.4-.2a2.4 2.4 0 0 0-1-.02l-.33.01q-.12 0-.16-.04-.05-.06-.05-.2v-2.1q0-.12.06-.19.06-.06.18-.06h2.28l.06.01.05.07q.03.03.03.1l.01.12q0 .13-.04.21t-.11.08H1.27v1.44l.28-.02h.34q.44 0 .77.11t.56.3q.21.19.33.47.1.27.1.6m0 0"/>
    <path id="u" d="m3.77-4.84-.02.12q0 .06-.02.11 0 .05-.03.11l-.03.1L1.81-.13l-.04.07-.08.05-.13.02-.17.01-.22-.01-.1-.04q-.04-.02-.04-.06l.03-.1 1.97-4.37H.55q-.09 0-.13-.08l-.03-.21q0-.08.02-.13 0-.06.03-.1 0-.03.04-.05l.07-.02h3.01l.08.01q.04 0 .06.05l.05.1zm0 0"/>
    <path id="w" d="M3.81-1.31q0 .33-.12.6-.13.24-.36.43-.22.18-.55.26-.33.1-.75.1-.4 0-.72-.08a2 2 0 0 1-.53-.25 1 1 0 0 1-.34-.4Q.33-.9.33-1.2q0-.23.08-.44t.22-.38.37-.3q.21-.17.5-.3l-.42-.25q-.2-.15-.31-.3a2 2 0 0 1-.2-.35 1.3 1.3 0 0 1 .03-.9q.1-.25.3-.42t.5-.27.7-.1.68.08q.3.1.49.27.18.15.26.38.1.21.1.46 0 .2-.08.4a1.4 1.4 0 0 1-.5.65q-.2.15-.42.28a3 3 0 0 1 .87.6q.15.17.23.36t.08.42m-.87-2.64a1 1 0 0 0-.06-.3l-.16-.23a1 1 0 0 0-.28-.16q-.15-.05-.38-.05-.43 0-.65.2t-.22.54q0 .15.04.3.06.12.18.24t.3.22q.16.11.4.24.4-.2.6-.46a.8.8 0 0 0 .23-.54m.17 2.7a.8.8 0 0 0-.27-.6 3 3 0 0 0-.82-.5l-.44.24q-.2.13-.31.25a1 1 0 0 0-.2.28q-.05.15-.05.31 0 .4.26.61.27.2.8.2.52 0 .76-.2a.7.7 0 0 0 .27-.59m0 0"/>
    <path id="x" d="M3.73-2.78a5 5 0 0 1-.18 1.34q-.1.3-.27.6-.16.27-.4.48a2 2 0 0 1-.58.33A2.6 2.6 0 0 1 .9 0L.66-.06.55-.14l-.07-.1L.47-.4v-.12q0-.06.03-.08 0-.03.03-.05L.6-.67l.11.03.2.08.29.06.37.02q.39 0 .66-.15.28-.15.45-.4.19-.25.27-.58.1-.32.1-.69-.21.13-.5.22-.3.1-.68.1-.45 0-.74-.11-.28-.13-.46-.33a1 1 0 0 1-.25-.49q-.08-.28-.08-.6 0-.35.1-.65t.3-.54q.22-.24.55-.38t.78-.14q.32 0 .56.08.26.08.44.23.2.15.31.38.13.22.2.5.09.26.12.6.04.3.04.65m-.7-.06q0-.52-.08-.86-.06-.34-.2-.57a1 1 0 0 0-.31-.3 1 1 0 0 0-.44-.1 1 1 0 0 0-.45.1 1 1 0 0 0-.3.24q-.1.16-.17.36-.06.2-.06.4 0 .24.04.44.06.2.17.33.1.14.29.2.18.07.45.07.3 0 .58-.08.27-.1.48-.23m0 0"/>
    <path id="o" d="m3.69-.3-.02.14-.01.1-.05.04-.06.02H.69L.58-.02.52-.06l-.05-.1L.45-.3v-.14l.03-.1.05-.1.08-.1L1.63-1.8q.33-.36.54-.64.22-.3.33-.53a2 2 0 0 0 .19-.81 1 1 0 0 0-.06-.31.8.8 0 0 0-.42-.45 1 1 0 0 0-.38-.08q-.23 0-.44.07l-.34.14q-.15.08-.24.16-.08.06-.14.06L.61-4.2l-.03-.05-.03-.1v-.25l.01-.07.03-.06.07-.07.15-.12q.12-.08.3-.14a2 2 0 0 1 .86-.17q.38 0 .66.1.28.12.46.3a1.4 1.4 0 0 1 .36.94 3 3 0 0 1-.22 1.03q-.13.29-.42.63-.27.35-.7.8l-.83.85h2.25l.06.02q.03 0 .05.06.03.03.03.1zm0 0"/>
    <path id="p" d="M3.86-2.6q0 .6-.1 1.1-.09.48-.3.84-.21.35-.57.55t-.87.19q-.5 0-.82-.17Q.87-.27.66-.6q-.21-.34-.3-.83a7 7 0 0 1 .02-2.22q.1-.5.3-.84.23-.37.57-.55.36-.2.88-.2.5 0 .82.18.33.18.53.52.2.33.29.83t.09 1.1m-.7.05a7 7 0 0 0-.11-1.23 1 1 0 0 0-.14-.4 1 1 0 0 0-.2-.27 1 1 0 0 0-.6-.22 1 1 0 0 0-.58.17q-.2.15-.33.44-.12.27-.17.64a7 7 0 0 0 .02 1.8q.06.4.18.65.15.26.35.38.2.1.48.1.22 0 .4-.06a1 1 0 0 0 .29-.2q.12-.14.2-.33a2 2 0 0 0 .2-.9zm0 0"/>
    <path id="r" d="M3.9-1.47q.01.15-.04.22-.04.06-.1.06h-.59v1.1l-.01.04-.07.05L3 .02a1 1 0 0 1-.33 0L2.57 0l-.05-.05v-1.14H.3l-.07-.04-.03-.1-.01-.15v-.15l.01-.1.03-.1.07-.1 1.86-3.12.04-.06.11-.05.14-.01h.22l.22.01.16.02.1.05.02.06v3.28h.6q.05 0 .09.08.05.06.05.2m-1.38-3.1H2.5L.81-1.76h1.7Zm0 0"/>
    <path id="t" d="M3.83-1.67q0 .35-.11.65-.1.32-.31.57a1.8 1.8 0 0 1-1.33.53Q1.75.08 1.5 0a1 1 0 0 1-.44-.22Q.9-.37.76-.59a2 2 0 0 1-.2-.49q-.08-.28-.1-.6a7 7 0 0 1 0-1.37q.04-.33.13-.65.1-.3.25-.6.15-.27.4-.48.23-.2.56-.31.34-.13.78-.13l.3.02q.15 0 .28.04l.21.07q.1.03.11.06l.05.05.02.04.01.08v.22l-.01.08-.03.04q-.03.02-.07.02t-.1-.03l-.2-.06-.26-.05q-.16-.03-.36-.03a1.3 1.3 0 0 0-1.08.56q-.17.25-.25.6-.07.32-.1.68.12-.07.24-.1.13-.07.28-.12.16-.06.33-.08a2 2 0 0 1 1.08.08q.29.12.45.32.2.2.27.48t.08.58m-.7.06q0-.24-.05-.42a1 1 0 0 0-.16-.31.5.5 0 0 0-.28-.2 1 1 0 0 0-.44-.08q-.15 0-.3.03l-.3.07a2 2 0 0 0-.48.24q0 .51.07.86.06.35.19.56.12.21.3.3a1.2 1.2 0 0 0 .9-.02.9.9 0 0 0 .48-.6q.06-.2.06-.43m0 0"/>
    <path id="y" d="M1.47-.44q0 .29-.1.38-.09.1-.34.1T.7-.06Q.6-.14.6-.42T.7-.8q.09-.1.34-.1.23 0 .32.1.1.1.1.36m0 0"/>
    <path id="z" d="M3.67-1.66q0 .42-.14.74-.15.33-.4.55-.26.22-.61.34a3 3 0 0 1-1.24.08L.9-.03.5-.22.43-.27.42-.33.41-.4v-.23q0-.06.03-.1 0-.05.03-.06L.52-.8q.05 0 .12.06.09.05.24.1l.34.12a2.4 2.4 0 0 0 .98-.02q.24-.07.4-.2.16-.14.24-.34.1-.2.1-.5 0-.26-.08-.44a1 1 0 0 0-.23-.31q-.17-.13-.41-.2a3 3 0 0 0-1.02-.02l-.32.01q-.12 0-.16-.04-.05-.06-.05-.2v-2.1q0-.14.06-.2.06-.07.18-.07h2.3l.06.02q.03.02.04.06l.02.1.01.12q0 .15-.04.22t-.1.08H1.27v1.45l.28-.02.34-.01q.44 0 .77.1.33.12.56.3.21.2.33.47.12.3.12.61m0 0"/>
    <path id="B" d="m3.7-.27-.01.13-.03.08-.05.04q-.02.03-.05.02H.86L.8-.02.75-.06.72-.14V-.4q0-.06.03-.1L.8-.52l.06-.02h1.08v-3.92l-1 .6-.13.06q-.05 0-.08-.03L.7-3.92v-.28q0-.05.02-.08 0-.03.03-.05l.06-.04L2-5.14l.03-.02.06-.01.1-.02h.12l.16.02.1.01.04.04.02.04v4.53h.93l.06.02.05.05.02.09zm0 0"/>
    <path id="C" d="M3.66-1.47q0 .35-.13.64-.12.28-.36.49t-.58.3a2.5 2.5 0 0 1-1.25.07l-.4-.1-.28-.12-.14-.08-.05-.06-.03-.06L.4-.5v-.15q0-.15.03-.19Q.46-.9.51-.9q.04 0 .14.06a3 3 0 0 0 .65.28 2 2 0 0 0 .97 0 1 1 0 0 0 .33-.2q.15-.12.2-.28a.9.9 0 0 0-.26-1.08 2 2 0 0 0-.95-.27h-.57l-.05-.04-.03-.1-.01-.12v-.13l.03-.09.06-.03.06-.02h.46q.26 0 .47-.06.21-.08.36-.2a1 1 0 0 0 .3-.7q0-.15-.06-.3a1 1 0 0 0-.15-.27 1 1 0 0 0-.27-.15q-.16-.07-.37-.07a1.4 1.4 0 0 0-.77.22q-.16.08-.26.16-.1.06-.13.06L.6-4.24l-.03-.05-.02-.08v-.24q0-.05.02-.09l.03-.06.05-.06.15-.11q.11-.08.28-.14.18-.08.4-.13a2.5 2.5 0 0 1 1.1.05q.29.1.46.26t.28.4.1.51a1.4 1.4 0 0 1-.27.83q-.14.16-.32.28-.17.11-.4.16a1.6 1.6 0 0 1 .87.4q.16.15.25.38.1.2.1.45m0 0"/>
    <path id="D" d="M7.2-6.12H5.33v.14c.5.04.65.15.65.43 0 .14-.23 1.1-.68 2.7l-.13.46C4.77-.86 4.16-.22 3.13-.22c-.79 0-1.32-.44-1.32-1.1 0-.34.25-1.35.97-3.8.19-.66.33-.79.99-.86v-.14H1.19v.14c.64.06.73.1.73.39q0 .16-.06.42l-.5 1.8a9 9 0 0 0-.4 2C.95-.48 1.8.17 3.01.17c1.23 0 2-.67 2.42-2.08l.78-2.67c.36-1.22.39-1.26.98-1.4Zm0 0"/>
    <path id="E" d="M2.78-6.34A4.56 4.56 0 0 0 1.63.7c.39.46.62.66 1.12.96l.1-.14c-.74-.6-1-.94-1.26-1.63a6 6 0 0 1-.32-2.28q-.02-1.48.37-2.34c.27-.58.55-.93 1.22-1.47Zm0 0"/>
    <path id="F" d="M6.56-6.22H4.63v.19c.51.03.68.12.68.39 0 .14-.06.4-.17.69L3.75-1.52 2.33-4.69c-.31-.68-.38-.9-.38-1.04 0-.2.13-.27.43-.29l.28-.01v-.19H.16v.19c.45.01.59.14.98.98L3.47.11h.14l2.08-5.28c.31-.74.42-.85.87-.86Zm0 0"/>
    <path id="G" d="M.36 1.66c.69-.46.97-.7 1.33-1.13a4.3 4.3 0 0 0 1-2.84c0-1.2-.36-2.13-1.19-3.08a4 4 0 0 0-1.1-.95l-.13.14c.76.6 1.01.92 1.28 1.62.22.64.32 1.35.32 2.28Q1.88-.8 1.5.03C1.23.63.95.97.27 1.52Zm0 0"/>
    <path id="H" d="M-.08 0h2.3v-.16c-.53-.06-.64-.1-.64-.37 0-.19.03-.28.1-.6L2.85-5.3c.18-.54.24-.6.79-.68v-.16H1.3v.16c.54.06.65.14.65.39q0 .2-.1.59L.68-.84c-.17.54-.24.59-.77.68Zm0 0"/>
    <path id="I" d="M2.78-6.36c-.7.47-.98.7-1.33 1.13q-1 1.22-1 2.86C.45-1.17.8-.25 1.63.7c.39.46.64.66 1.12.97l.1-.15c-.74-.6-1-.94-1.26-1.63a7 7 0 0 1-.32-2.3q0-1.47.37-2.32c.27-.6.55-.93 1.22-1.47Zm0 0"/>
    <path id="J" d="M.16 0h2.09v-.14c-.48-.02-.64-.11-.64-.48v-2.66a1 1 0 0 1 .14-.19c.23-.2.64-.37.97-.37q.6-.01.6 1v2.03c0 .54-.1.64-.63.67V0H4.8v-.14c-.53 0-.67-.16-.68-.75v-2.38c.28-.4.57-.57 1.03-.57.53 0 .7.26.7 1.04v2c-.02.54-.08.6-.63.67V0H7.3v-.14l-.24-.02c-.31-.04-.4-.18-.4-.56v-1.94q-.01-1.66-1.1-1.67-.8-.01-1.54.8-.24-.81-.99-.8c-.44 0-.69.13-1.47.72v-.7l-.06-.02c-.5.19-.83.28-1.33.42v.16c.13-.02.2-.03.31-.03.24 0 .33.15.33.6V-.8C.8-.27.67-.14.16-.14Zm0 0"/>
    <path id="L" d="M6.66-.17C6.23-.2 6.14-.3 5.8-1L3.45-6.34h-.18L1.3-1.72C.71-.34.6-.2.14-.17V0H2v-.17q-.66 0-.64-.4 0-.16.08-.37l.44-1.1h2.46l.4.92c.1.25.17.5.17.62 0 .23-.16.31-.66.33V0h2.4ZM2.03-2.42 3.13-5l1.09 2.58Zm0 0"/>
    <path id="M" d="M.36 1.67c.7-.47.98-.7 1.33-1.14q1-1.2 1-2.86c0-1.2-.35-2.1-1.19-3.08a4 4 0 0 0-1.1-.95l-.13.16c.76.6 1.01.92 1.28 1.62.22.63.32 1.33.32 2.28Q1.88-.8 1.5.03C1.25.63.95.97.27 1.52Zm0 0"/>
    <path id="Q" d="M5.9-.17c-.46-.03-.67-.2-.87-.75l-.97-2.53c.82-.2 1.16-.33 1.53-.66q.53-.48.54-1.17c0-.97-.79-1.5-2.18-1.5H1.38v.16c.43.06.48.07.59.15q.13.1.14.28c0 .13-.05.38-.13.66L.7-.93c-.18.6-.25.66-.84.76V0H2.4v-.17c-.64-.08-.7-.13-.7-.49 0-.1 0-.2.12-.59l.58-2.17.67.06L4.36 0H5.9ZM3.2-6.2c.07-.22.2-.28.53-.28q1.3 0 1.3 1.17-.01 1.54-1.97 1.55c-.19 0-.28-.02-.53-.05Zm0 0"/>
    <clipPath id="j">
      <path d="M72.27 592h43.59v1h-43.6Zm0 0"/>
    </clipPath>
    <clipPath id="k">
      <path d="M128.31 505h245.34v146.95H128.3Zm0 0"/>
    </clipPath>
    <clipPath id="l">
      <path d="M152.97 513.57H344v119.07H152.97Zm0 0"/>
    </clipPath>
    <clipPath id="N">
      <path d="M385.06 563H524v47H385.06Zm0 0"/>
    </clipPath>
    <clipPath id="O">
      <path d="M385.06 562H524.4v48H385.06Zm0 0"/>
    </clipPath>
    <clipPath id="P">
      <path d="M450 597h2v23.78h-2Zm0 0"/>
    </clipPath>
  </defs>
  <use xlink:href="#a" x="90.16" y="677.53"/>
  <use xlink:href="#c" x="246.61" y="677.53"/>
  <use xlink:href="#d" x="451.11" y="677.53"/>
  <use xlink:href="#e" x="279.93" y="697.3"/>
  <use xlink:href="#f" x="290.23" y="697.3"/>
  <use xlink:href="#g" x="297.18" y="697.3"/>
  <use xlink:href="#h" x="302.57" y="697.3"/>
  <use xlink:href="#v" x="305.57" y="697.3"/>
  <use xlink:href="#i" x="308.57" y="697.3"/>
  <use xlink:href="#K" x="314.57" y="697.3"/>
  <use xlink:href="#b" x="70.74" y="716.84"/>
  <use xlink:href="#b" x="70.74" y="736.74"/>
  <use xlink:href="#b" x="214.6" y="736.74"/>
  <g clip-path="url(#j)">
    <path fill="none" stroke="#000" stroke-linejoin="round" stroke-miterlimit="10" stroke-width=".6" d="M.3 12.9h64.8" transform="matrix(.66649 0 0 -.66553 72.27 601.08)"/>
  </g>
  <path fill="#fff" fill-rule="evenodd" stroke="#000" stroke-linejoin="round" stroke-miterlimit="10" stroke-width=".6" d="m24.3 24.9 20.4-12L24.3.9Zm0 0" transform="matrix(.66649 0 0 -.66553 72.27 601.08)"/>
  <path fill="none" stroke="#000" stroke-linejoin="round" stroke-miterlimit="10" stroke-width=".6" d="M44.7 24.9V.9" transform="matrix(.66649 0 0 -.66553 72.27 601.08)"/>
  <path d="m96.32 582.6 7.81-8.31.3.27-7.82 8.33Zm3.46-7.05 4.77-1.42-1.11 4.85a.2.2 0 0 1-.24.15.2.2 0 0 1-.15-.24l1.03-4.51.26.23-4.45 1.32a.2.2 0 0 1-.25-.13.2.2 0 0 1 .14-.25m0 0"/>
  <g clip-path="url(#k)">
    <path fill="#fff" fill-rule="evenodd" d="M128.72 651.94h244.93v-146.7H128.72Zm0 0"/>
  </g>
  <path fill="#fff" fill-rule="evenodd" d="M153.17 632.43h207.84V513.77H153.17Zm0 0"/>
  <path fill="none" stroke="#868686" stroke-linejoin="round" stroke-miterlimit="10" stroke-width=".6" d="M36.3 47.1h306m-306 17.4h306m-306 17.4h306m-306 17.4h306m-306 17.4h306m-306 17.4h306m-306 18h306m-306 17.4h306m-306 17.41h306m-306 17.4h306m-262.2 0V29.11m43.8 175.2V29.11m43.8 175.2V29.11m43.2 175.2V29.11m43.8 175.2V29.11m43.8 175.2V29.11m43.8 175.2V29.11" transform="matrix(.67922 0 0 -.6773 128.31 651.94)"/>
  <path fill="none" stroke="#000" stroke-linejoin="round" stroke-miterlimit="10" stroke-width="1.2" d="M36.6 29.4v174.61M32.4 29.4h4.2m-4.2 17.4h4.2m-4.2 17.4h4.2m-4.2 17.4h4.2m-4.2 18h4.2M32.4 117h4.2m-4.2 17.4h4.2m-4.2 17.4h4.2m-4.2 17.4h4.2m-4.2 17.41h4.2m-4.2 17.4h4.2m0-174.61H342m-305.4 0v-3m8.4 3v-3m9 3v-3m8.4 3v-3m9 3v-3m9 3v-3m8.4 3v-3m9 3v-3m8.4 3v-3m9 3v-3m8.4 3v-3m9 3v-3m8.4 3v-3m9 3v-3m8.4 3v-3m9 3v-3m9 3v-3m8.4 3v-3m9 3v-3m8.4 3v-3m9 3v-3m8.4 3v-3m9 3v-3m8.4 3v-3m9 3v-3m9 3v-3m8.4 3v-3m9 3v-3m8.4 3v-3m9 3v-3m8.4 3v-3m9 3v-3m8.4 3v-3m9 3v-3m8.4 3v-3m9 3v-3m-305.4 3v-3.6m43.8 3.6v-3.6m43.2 3.6v-3.6m43.8 3.6v-3.6m43.8 3.6v-3.6m43.8 3.6v-3.6m43.2 3.6v-3.6m43.8 3.6v-3.6" transform="matrix(.67922 0 0 -.6773 128.31 651.94)"/>
  <g clip-path="url(#l)">
    <path fill="none" stroke="#000" stroke-linecap="round" stroke-linejoin="round" stroke-miterlimit="10" stroke-width="1.8" d="M36.3 29.1h166.2l113.4 175.21" transform="matrix(.67922 0 0 -.6773 128.31 651.94)"/>
  </g>
  <use xlink:href="#m" x="141.44" y="634.72"/>
  <use xlink:href="#n" x="137.33" y="622.83"/>
  <use xlink:href="#m" x="141.4" y="622.83"/>
  <use xlink:href="#o" x="137.33" y="610.96"/>
  <use xlink:href="#p" x="141.4" y="610.96"/>
  <use xlink:href="#q" x="137.33" y="599.08"/>
  <use xlink:href="#m" x="141.4" y="599.08"/>
  <use xlink:href="#r" x="137.33" y="587.21"/>
  <use xlink:href="#p" x="141.4" y="587.21"/>
  <use xlink:href="#s" x="137.33" y="575.32"/>
  <use xlink:href="#m" x="141.4" y="575.32"/>
  <use xlink:href="#t" x="137.33" y="563.45"/>
  <use xlink:href="#p" x="141.4" y="563.45"/>
  <use xlink:href="#u" x="137.33" y="551.56"/>
  <use xlink:href="#m" x="141.4" y="551.56"/>
  <use xlink:href="#w" x="137.33" y="539.68"/>
  <use xlink:href="#m" x="141.4" y="539.68"/>
  <use xlink:href="#x" x="137.33" y="527.81"/>
  <use xlink:href="#m" x="141.4" y="527.81"/>
  <use xlink:href="#n" x="133.22" y="515.92"/>
  <use xlink:href="#m" x="137.29" y="515.92"/>
  <use xlink:href="#m" x="141.37" y="515.92"/>
  <use xlink:href="#p" x="151.08" y="645.32"/>
  <use xlink:href="#p" x="177.52" y="645.32"/>
  <use xlink:href="#y" x="181.61" y="645.32"/>
  <use xlink:href="#z" x="183.65" y="645.32"/>
  <use xlink:href="#B" x="210.48" y="645.32"/>
  <use xlink:href="#B" x="236.91" y="645.32"/>
  <use xlink:href="#y" x="240.98" y="645.32"/>
  <use xlink:href="#z" x="243.02" y="645.32"/>
  <use xlink:href="#o" x="269.86" y="645.32"/>
  <use xlink:href="#o" x="296.3" y="645.32"/>
  <use xlink:href="#y" x="300.4" y="645.32"/>
  <use xlink:href="#z" x="302.46" y="645.32"/>
  <use xlink:href="#C" x="329.26" y="645.32"/>
  <use xlink:href="#C" x="355.68" y="645.32"/>
  <use xlink:href="#y" x="359.76" y="645.32"/>
  <use xlink:href="#z" x="361.8" y="645.32"/>
  <use xlink:href="#D" x="245.78" y="655.87"/>
  <use xlink:href="#bM" x="252.74" y="655.87"/>
  <use xlink:href="#E" x="254.78" y="655.87"/>
  <use xlink:href="#F" x="258.05" y="655.87"/>
  <use xlink:href="#G" x="265" y="655.87"/>
  <use xlink:href="#H" x="145.49" y="504.45"/>
  <use xlink:href="#I" x="150.8" y="504.45"/>
  <use xlink:href="#J" x="154.08" y="504.45"/>
  <use xlink:href="#L" x="161.43" y="504.45"/>
  <use xlink:href="#M" x="168.39" y="504.45"/>
  <g clip-path="url(#N)">
    <path fill="#fff" fill-rule="evenodd" d="M385.64 609.1h138.2v-46h-138.2Zm0 0"/>
  </g>
  <g clip-path="url(#O)">
    <path fill="none" stroke="#000" stroke-linejoin="round" stroke-miterlimit="10" stroke-width=".6" d="M.9 18.3h216v72H.9Zm0 0" transform="matrix(.6398 0 0 -.63874 385.06 620.78)"/>
  </g>
  <path fill="#fff" fill-rule="evenodd" d="M450.7 618.48h7.68v-19.16h-7.68Zm0 0"/>
  <g clip-path="url(#P)">
    <path fill="none" stroke="#000" stroke-linejoin="round" stroke-miterlimit="10" stroke-width=".6" d="M102.9 36.3V.3" transform="matrix(.6398 0 0 -.63874 385.06 620.78)"/>
  </g>
  <path fill="none" stroke="#000" stroke-linejoin="round" stroke-miterlimit="10" stroke-width=".6" d="M114.9 27.3v-18" transform="matrix(.6398 0 0 -.63874 385.06 620.78)"/>
  <path fill="#fff" fill-rule="evenodd" stroke="#000" stroke-linejoin="round" stroke-miterlimit="10" stroke-width=".6" d="M18.9 82.5h54v18h-54Zm87-20.4h92.4v56.4h-92.4Zm0 0" transform="matrix(.6398 0 0 -.63874 385.06 620.78)"/>
  <path fill="#fff" fill-rule="evenodd" stroke="#000" stroke-linejoin="round" stroke-miterlimit="10" stroke-width=".6" d="m143.1 130.5 20.4-12-20.4-12Zm0 0" transform="matrix(.6398 0 0 -.63874 385.06 620.78)"/>
  <path fill="none" stroke="#000" stroke-linejoin="round" stroke-miterlimit="10" stroke-width=".6" d="M163.5 130.5v-24" transform="matrix(.6398 0 0 -.63874 385.06 620.78)"/>
  <path fill="#fff" fill-rule="evenodd" stroke="#000" stroke-linejoin="round" stroke-miterlimit="10" stroke-width=".6" d="m144.3 74.7 21-12-21-12Zm0 0" transform="matrix(.6398 0 0 -.63874 385.06 620.78)"/>
  <path fill="none" stroke="#000" stroke-linejoin="round" stroke-miterlimit="10" stroke-width=".6" d="M165.3 74.7v-24" transform="matrix(.6398 0 0 -.63874 385.06 620.78)"/>
  <path d="m484.15 573.16 7.5-8 .29.27-7.5 8Zm3.33-6.78 4.58-1.36-1.07 4.65a.2.2 0 0 1-.23.15.2.2 0 0 1-.15-.23l1-4.33.24.22-4.26 1.27a.2.2 0 0 1-.24-.13.2.2 0 0 1 .13-.24m-6.02-29.63 7.5-8 .29.27-7.5 8Zm3.33-6.78 4.58-1.36-1.07 4.65a.2.2 0 0 1-.23.15.2.2 0 0 1-.14-.23l1-4.33.23.23-4.26 1.26a.2.2 0 0 1-.24-.13.2.2 0 0 1 .13-.24m0 0"/>
  <use xlink:href="#Q" x="413.29" y="554.54"/>
</svg>
