<svg xmlns="http://www.w3.org/2000/svg" xmlns:xlink="http://www.w3.org/1999/xlink" width="595.32" height="841.92" viewBox="0 0 595.32 841.92">
  <defs>
    <path id="e" d="M3.9-8.1v6.5q0 .73.07.93.06.2.26.33.21.12.66.12h.19V0H.89v-.22h.22q.5 0 .72-.1.21-.13.3-.34.07-.2.07-.95v-4.1q0-.55-.06-.7a.5.5 0 0 0-.19-.23 1 1 0 0 0-.32-.1q-.3 0-.74.2l-.1-.23L3.7-8.09Zm0 0"/>
    <path id="d" d="M1.5-1.8q.4 0 .69.28t.28.7-.28.68a1 1 0 0 1-.69.28q-.4 0-.69-.28a1 1 0 0 1-.28-.69q0-.4.28-.69a1 1 0 0 1 .69-.28m0 0"/>
    <path id="b" d="M3.7 0v-.22q.53 0 .53-.78v-2.69L2.66-1q0 .77.53.78V0H.4v-.22q.34 0 .48-.19.15-.18.14-.65v-3.38q0-.81-.62-.81v-.22h2.78v.22q-.3 0-.42.17-.12.15-.11.64v2.67l1.57-2.71q0-.45-.14-.6-.1-.17-.39-.17v-.22h2.78v.22q-.3 0-.46.16-.14.16-.14.57v3.49q0 .48.12.66.14.15.48.15V0Zm0 0"/>
    <path id="a" d="M3.1-7.94h4.1v.22q-.69.02-.87.17-.2.15-.22.74 1.35 0 2.05.31t1.2.94.5 1.51q0 1.13-.84 1.99T6.1-1.2q0 .42.1.62.09.2.27.27.2.06.72.1V0H3.1v-.22q.73 0 .92-.22.18-.22.18-.76a5 5 0 0 1-2.17-.38Q1.25-1.97.84-2.6a2.7 2.7 0 0 1 .1-2.95q.5-.71 1.25-.97.75-.28 2.01-.28 0-.53-.22-.7-.21-.2-.89-.2Zm3 6.32q.6 0 .96-.18.38-.18.61-.75.25-.57.25-1.56 0-.78-.23-1.33-.22-.54-.58-.73-.36-.2-1-.2ZM4.2-6.37q-.78.01-1.1.26-.34.25-.54.78-.19.54-.19 1.36 0 .97.24 1.47t.62.69q.4.17.97.19Zm0 0"/>
    <path id="c" d="M.42-.22Q.76-.23.9-.39q.15-.15.14-.63v-3.46q0-.43-.12-.58-.13-.15-.49-.19v-.22h4.81v1.42h-.21q-.14-.65-.38-.86t-.89-.2H2.67v4.13q0 .42.13.59.14.15.54.17V0H.42Zm0 0"/>
    <path id="f" d="M4.97 0H.3v-.12a26 26 0 0 0 2.6-3.44q.45-.9.46-1.74 0-.6-.4-1.01-.37-.4-.91-.4-.9 0-1.4.88l-.2-.07q.3-1.1.95-1.64t1.49-.54q.6 0 1.1.28t.77.76q.28.5.28.92a3.4 3.4 0 0 1-.42 1.58Q4-3.47 2.03-1.53h1.7q.64 0 .83-.05t.32-.19q.12-.11.32-.53h.2Zm0 0"/>
    <path id="i" d="M4.56-3.06q0 .7-.1 1.28-.12.58-.38 1-.26.4-.67.64T2.39.09a2 2 0 0 1-.97-.2 2 2 0 0 1-.64-.6q-.24-.41-.34-1a8 8 0 0 1 .01-2.6q.11-.6.36-1 .27-.42.67-.64a2 2 0 0 1 1.04-.24q.57 0 .96.2t.63.62q.25.38.34.98.1.58.11 1.33m-.83.04a10 10 0 0 0-.12-1.45q-.06-.29-.17-.48a1 1 0 0 0-.24-.33 1 1 0 0 0-.33-.19 1 1 0 0 0-.4-.06q-.41 0-.66.19-.25.18-.39.53-.15.33-.2.76a9 9 0 0 0 .01 2.13q.08.46.24.78.15.3.39.44.24.12.58.12.26 0 .47-.08t.34-.25q.15-.15.23-.37.1-.21.15-.49.05-.27.07-.59.03-.3.03-.66m0 0"/>
    <path id="j" d="M4.33-1.97q0 .5-.17.9Q4-.7 3.7-.45t-.72.4a3 3 0 0 1-1.46.09 3 3 0 0 1-.96-.3L.52-.31.5-.37.48-.48v-.3q0-.06.02-.1l.05-.06.06-.01q.05 0 .14.06l.27.12a3 3 0 0 0 1.01.2q.3 0 .58-.09t.45-.23q.21-.15.3-.4a1.6 1.6 0 0 0 .02-1.1 1 1 0 0 0-.29-.38q-.19-.15-.48-.21a4 4 0 0 0-1.19-.05l-.39.01q-.12 0-.19-.06-.06-.06-.06-.23V-5.8q0-.15.08-.22a.3.3 0 0 1 .22-.07h2.7l.06.01a.1.1 0 0 1 .07.06q.03.06.03.11l.01.16-.04.27q-.06.09-.13.09H1.5v1.7l.33-.01.4-.02q.53 0 .93.13.38.12.64.36.25.21.39.54t.14.72m0 0"/>
    <path id="k" d="m4.38-.31-.02.14-.05.1-.04.05L4.2 0H1.02Q.98 0 .95-.02L.9-.06.86-.17.84-.31.9-.56l.05-.06a.1.1 0 0 1 .08-.04h1.26v-4.62l-1.17.7-.16.06q-.05 0-.07-.03l-.05-.1v-.3l.01-.1.05-.08.06-.04 1.4-.9q.02-.02.06-.02l.06-.02.1-.01.15-.02.19.01.1.04q.06 0 .07.04L3.1-6v5.34h1.1l.07.04.06.06.03.1zm0 0"/>
    <path id="l" d="M4.56-3.06q0 .7-.1 1.28-.12.58-.38 1t-.67.66Q3 .09 2.39.09q-.58 0-.98-.2a1.5 1.5 0 0 1-.63-.6q-.24-.4-.34-.98A9 9 0 0 1 .45-4.3q.11-.58.36-.99.27-.42.67-.65a2 2 0 0 1 1.04-.24q.57 0 .96.22.39.2.63.61.25.4.34.97.1.58.11 1.33M3.73-3a6 6 0 0 0-.3-1.94 1 1 0 0 0-.24-.33 1 1 0 0 0-.33-.18 1 1 0 0 0-.4-.07q-.4 0-.65.2-.25.18-.4.5-.15.34-.2.79a9 9 0 0 0 .02 2.1q.08.48.24.79.15.3.39.44.24.12.58.12.26 0 .45-.08.2-.09.34-.25.16-.15.25-.37.1-.21.15-.49.05-.25.07-.57zm0 0"/>
    <path id="m" d="M4.33-1.95q0 .48-.17.87-.16.38-.47.64-.3.25-.72.4a3 3 0 0 1-1.45.09 3 3 0 0 1-.96-.3L.52-.31.5-.37.47-.48v-.29q0-.07.03-.1l.05-.07.06-.01q.05 0 .14.06l.27.12a3 3 0 0 0 1.01.2q.3 0 .58-.09t.45-.23q.2-.15.3-.4a1.6 1.6 0 0 0 .02-1.1 1 1 0 0 0-.29-.38q-.19-.15-.48-.21a4 4 0 0 0-1.19-.05l-.39.01q-.12 0-.19-.04-.06-.06-.06-.24v-2.48q0-.15.08-.24a.3.3 0 0 1 .2-.07h2.7q.06 0 .08.03.03 0 .05.06l.05.1.01.15-.04.27q-.06.09-.14.09H1.5v1.72q.15-.03.33-.03h.4q.52 0 .91.12.39.13.66.36.25.22.39.55.14.3.14.72m0 0"/>
    <path id="n" d="m4.36-.34-.02.15q0 .07-.03.11l-.06.06-.08.02H.81Q.73 0 .7-.02L.6-.06.55-.17.53-.36v-.16q0-.07.03-.12l.06-.11.1-.1L1.9-2.13q.4-.43.65-.77a4 4 0 0 0 .56-1.14q.05-.23.05-.44a1 1 0 0 0-.08-.37 1 1 0 0 0-.18-.33 1 1 0 0 0-.32-.22 1 1 0 0 0-.42-.08 1.7 1.7 0 0 0-.92.27l-.3.17q-.1.08-.17.08l-.06-.02-.03-.06-.03-.11v-.3l.01-.1.03-.05q.01-.06.07-.1l.2-.12q.14-.1.34-.17.22-.08.47-.14a2.3 2.3 0 0 1 1.31.06q.33.13.55.34t.33.52q.1.28.1.6a3 3 0 0 1-.27 1.2q-.15.34-.47.76-.32.4-.85.95l-.96 1h2.65l.06.03a.1.1 0 0 1 .07.07q.03.03.04.09zm0 0"/>
    <path id="o" d="M4.31-1.73q0 .4-.15.75-.15.32-.43.57-.27.24-.67.38A3 3 0 0 1 1.6.03l-.48-.1A2 2 0 0 1 .6-.33L.55-.39.52-.47l-.04-.1v-.18q0-.17.04-.23.03-.06.09-.07.05 0 .17.08l.31.16.46.15a2 2 0 0 0 .6.08q.3 0 .54-.08.22-.08.39-.21.17-.16.25-.36.08-.21.08-.44a1 1 0 0 0-.11-.46 1 1 0 0 0-.3-.35q-.19-.15-.48-.24t-.64-.08H1.3l-.08-.01-.06-.05-.03-.1-.02-.17v-.15q0-.06.05-.1l.06-.04.08-.02h.53q.3 0 .54-.08a1.1 1.1 0 0 0 .7-.59 1.2 1.2 0 0 0 .02-.83.9.9 0 0 0-.5-.5 1.3 1.3 0 0 0-.94.02A4 4 0 0 0 .79-5H.72l-.03-.05-.03-.1v-.29l.01-.1.03-.07.08-.08.17-.12q.15-.1.35-.17t.45-.14a2.6 2.6 0 0 1 1.31.04 1.4 1.4 0 0 1 .97 1.4q0 .3-.08.54-.08.23-.23.44-.15.18-.36.33-.21.12-.48.17v.01a1.7 1.7 0 0 1 1.03.47q.18.19.3.44.1.25.1.55m0 0"/>
    <path id="p" d="m-.14-5 .08.03.06.06.02.11a1 1 0 0 1-.02.5l-.06.08-.08.02h-.64q.42.4.66.8.23.42.23.9a2 2 0 0 1-.2.92q-.22.38-.58.61a3 3 0 0 1-.83.35 4.5 4.5 0 0 1-2.14-.04q-.5-.13-.88-.39-.35-.26-.54-.65-.2-.4-.2-.92 0-.43.18-.77.2-.36.55-.7h-2.83l-.08-.02-.04-.08-.04-.14a2 2 0 0 1 .04-.58l.04-.06.08-.03Zm-3.42.9q-.45.37-.69.7-.24.34-.23.71 0 .34.15.58.16.24.42.4a2.5 2.5 0 0 0 1.3.27q.36 0 .72-.06.35-.06.62-.2t.44-.36a1 1 0 0 0 .17-.6q0-.16-.04-.34-.06-.17-.18-.34a2 2 0 0 0-.28-.36 4 4 0 0 0-.45-.4Zm0 0"/>
    <path id="q" d="M-7.47-2.67a10.7 10.7 0 0 0 9.1 0l.1-.02q.05 0 .08.03.03.04.05.11a2 2 0 0 1-.02.52l-.04.08-.05.04q-.55.29-1.1.52a10 10 0 0 1-2.34.6 9 9 0 0 1-4.76-.63 12 12 0 0 1-1.17-.52l-.05-.08-.02-.1a1 1 0 0 1 0-.41l.05-.11q.03-.05.08-.05zm0 0"/>
    <path id="r" d="m-.14-8.05.08.03.06.07.02.14a1 1 0 0 1 0 .43L0-7.22l-.06.06-.08.01h-2.97q-.3 0-.55.07a1 1 0 0 0-.45.17 1 1 0 0 0-.28.3 1 1 0 0 0-.1.43q0 .31.24.63.25.3.7.67h3.4a.1.1 0 0 1 .09.03l.06.08.02.14a1 1 0 0 1 0 .42L0-4.08-.06-4l-.08.02h-2.97q-.3 0-.55.06a1 1 0 0 0-.45.17 1 1 0 0 0-.28.3 1 1 0 0 0-.1.42q0 .32.24.62.25.31.7.7h3.4a.1.1 0 0 1 .09.02l.06.06.02.15a2 2 0 0 1 0 .43L0-.9q-.03.06-.06.07l-.08.01h-4.88l-.07-.01q-.03-.02-.05-.07l-.03-.12a1 1 0 0 1 0-.4q0-.09.03-.12l.05-.06.07-.03h.64q-.45-.4-.67-.78a1.6 1.6 0 0 1-.14-1.33q.07-.24.2-.42.14-.2.3-.31.18-.15.4-.24a5 5 0 0 1-.76-.87 2 2 0 0 1-.22-.79q0-.46.18-.78.15-.32.43-.51.3-.2.66-.28.36-.1.78-.1Zm0 0"/>
    <path id="s" d="M-2.9-2.64a10 10 0 0 1 4.7 1.23l.04.1.02.12.01.16-.01.22-.05.12-.08.03-.1-.03A11 11 0 0 0-2.92-1.7q-1.17 0-2.31.26a11 11 0 0 0-2.33.78l-.08-.04-.05-.13a1 1 0 0 1 0-.39l.02-.12.04-.07.04-.03Q-6.48-2-5.31-2.3a9 9 0 0 1 2.4-.33m0 0"/>
    <path id="t" d="M3.84-4.95v.1l-.06.24-.06.1-.06.07q-.04.04-.1.03H2.31l-.54 2.72-.05.49q0 .28.1.4.14.13.38.13.16 0 .27-.02l.19-.06.14-.05.1-.03q.03 0 .05.03.03.04.03.11l-.01.17-.03.16-.05.14-.08.11-.14.08-.19.06-.25.05-.25.01q-.3 0-.53-.06a1 1 0 0 1-.37-.2 1 1 0 0 1-.22-.35 2 2 0 0 1-.08-.51v-.14l.03-.16.03-.17.04-.17.54-2.74H.73q-.06 0-.09-.03-.03-.05-.03-.14l.02-.17q0-.1.04-.19t.1-.15a.2.2 0 0 1 .12-.07h.67L1.8-6.3l.04-.07.08-.06.14-.03a2 2 0 0 1 .44 0q.08 0 .13.03l.06.07.01.06-.23 1.15h1.25q.07 0 .1.07zm0 0"/>
    <path id="u" d="M2.69-7.47a10 10 0 0 0-1.02 4.55A11 11 0 0 0 2.7 1.73q0 .05-.03.08l-.1.05a2 2 0 0 1-.52-.02l-.08-.04-.05-.05q-.3-.55-.53-1.1A10 10 0 0 1 .8-1.7a9 9 0 0 1 .63-4.76 11 11 0 0 1 .53-1.17l.07-.04.12-.01a1 1 0 0 1 .4 0l.12.04q.04.04.04.08zm0 0"/>
    <path id="v" d="M3.9-1.47q0 .38-.13.67-.15.3-.41.5-.25.2-.61.3a2.6 2.6 0 0 1-1.27.06 3 3 0 0 1-.93-.34L.47-.44.44-.7l.01-.18L.48-1q.01-.04.04-.06l.07-.02q.06 0 .18.08l.3.16.38.15Q1.7-.6 2-.6q.24 0 .4-.05.2-.04.33-.14.15-.1.2-.25.09-.14.09-.34a.6.6 0 0 0-.11-.34q-.12-.15-.29-.25l-.39-.2-.45-.18-.44-.2-.4-.28a1 1 0 0 1-.28-.41 1.5 1.5 0 0 1 .01-1.1q.1-.28.33-.46.23-.2.56-.32a2 2 0 0 1 1.16-.09l.36.08a1 1 0 0 1 .44.2l.07.08q.04.03.04.08l.01.1a1 1 0 0 1 0 .3l-.03.11q-.02.06-.05.07l-.04.01a.3.3 0 0 1-.16-.06l-.23-.12-.35-.13a2 2 0 0 0-.45-.06q-.22 0-.4.06a.7.7 0 0 0-.46.36 1 1 0 0 0-.05.28q0 .23.11.36.11.15.28.25t.4.2l.45.17.45.2q.24.12.4.29.17.15.29.39.1.22.1.53m0 0"/>
    <path id="w" d="M2.64-2.9a10 10 0 0 1-1.23 4.7l-.1.04-.12.02-.16.01-.22-.01L.7 1.8l-.03-.08q0-.05.04-.1a12 12 0 0 0 1-4.55q0-1.16-.26-2.3a11 11 0 0 0-.78-2.33q0-.04.06-.08l.1-.04a1 1 0 0 1 .4 0l.12.01.07.04q.03 0 .04.04.57 1.11.88 2.28.3 1.17.31 2.4m0 0"/>
    <path id="A" d="M4.52-3.03q0 .7-.11 1.28-.12.56-.38.98-.25.42-.66.65-.4.21-1.01.21-.57 0-.95-.2a1.6 1.6 0 0 1-.64-.6q-.24-.4-.33-.96a8 8 0 0 1 .01-2.6q.11-.57.36-.98.26-.42.66-.64.42-.24 1.01-.24.58.01.97.2.39.21.63.62.22.39.33.97.1.55.1 1.3m-.83.06a10 10 0 0 0-.13-1.44q-.06-.27-.17-.48a1 1 0 0 0-.23-.33 1 1 0 0 0-.33-.19 1 1 0 0 0-.4-.06q-.38 0-.63.19t-.4.51q-.14.33-.2.77a9 9 0 0 0 .02 2.1q.07.46.22.76t.39.44.58.14q.25 0 .45-.08.2-.1.34-.25.16-.15.25-.38.1-.21.14-.48.06-.27.08-.58zm0 0"/>
    <path id="C" d="m4.33-.31-.02.14-.04.1-.05.05-.06.02H1L.94-.02.89-.06.84-.17.83-.31l.01-.14.04-.1.06-.06L1-.64h1.27v-4.6l-1.18.7-.14.07q-.04 0-.1-.03l-.04-.1v-.31L.84-5q.01-.04.04-.06l.07-.07 1.4-.89.02-.01.08-.02.1-.01.14-.02.19.02q.07 0 .12.03t.05.05l.01.04v5.3h1.1q.04 0 .07.03t.05.06q.03.04.03.1zm0 0"/>
    <path id="E" d="m4.31-.34-.04.26-.07.06-.06.02H.8L.69-.02l-.1-.04-.04-.11-.02-.17V-.5q0-.08.03-.12l.06-.11.1-.13 1.17-1.23q.41-.44.64-.77a4 4 0 0 0 .56-1.12q.05-.23.05-.44a1 1 0 0 0-.08-.38 1 1 0 0 0-.19-.3 1 1 0 0 0-.3-.23 1 1 0 0 0-.43-.08q-.28 0-.52.08a3 3 0 0 0-.68.35q-.12.07-.16.07l-.06-.01-.05-.06-.03-.11v-.3l.02-.08q0-.04.03-.08l.08-.08.2-.12q.14-.1.34-.17.2-.1.46-.14a2.3 2.3 0 0 1 1.3.06q.32.13.54.34.21.23.31.5.1.3.11.61 0 .3-.05.58-.04.29-.21.61-.17.33-.47.75-.32.41-.85.94L1.5-.7h2.63q.04 0 .07.03l.07.07q.03.03.03.1zm0 0"/>
    <path id="B" d="M4.28-1.94a2 2 0 0 1-.62 1.5q-.3.25-.72.4A3 3 0 0 1 1.5.04l-.45-.1-.33-.1-.16-.1-.04-.06-.04-.06-.01-.11v-.29L.5-.86q0-.05.05-.06L.6-.94q.05 0 .14.06L1-.74q.17.07.42.13a3 3 0 0 0 1.16-.02q.26-.08.45-.23t.3-.4.1-.59q0-.3-.09-.51a1 1 0 0 0-.28-.36q-.19-.16-.48-.22A3 3 0 0 0 1.4-3l-.4.03q-.12 0-.18-.06t-.05-.24v-2.45q0-.15.06-.22a.3.3 0 0 1 .22-.08h2.67L3.8-6l.06.06q.03.05.03.11l.02.16q0 .15-.05.25-.04.1-.13.1H1.48v1.68l.33-.02.4-.01q.51 0 .9.12.39.13.64.36.26.22.4.55.13.31.13.7m0 0"/>
    <path id="D" d="m4.33-.31-.02.14-.04.1-.05.05-.06.02H1L.94-.02.88-.06.84-.17.83-.31l.01-.14.04-.1.06-.06L1-.64h1.27v-4.58l-1.18.69-.14.06q-.04 0-.1-.03l-.04-.1v-.31L.84-5l.04-.06.07-.07 1.38-.89.04-.01.08-.02.1-.01h.14l.19.01.1.02q.06.02.07.05l.01.04v5.3h1.1l.06.03.05.06.04.1zm0 0"/>
    <path id="F" d="M4.31-.34 4.3-.2a.4.4 0 0 1-.1.17L4.12 0H.8L.69-.02l-.1-.04-.04-.11-.02-.17V-.5q0-.08.03-.12l.06-.11.1-.13 1.17-1.23a6 6 0 0 0 1.02-1.4q.13-.27.17-.5t.04-.43a1 1 0 0 0-.25-.69 1 1 0 0 0-.3-.22 1 1 0 0 0-.43-.08q-.28 0-.52.08a3 3 0 0 0-.68.35q-.12.07-.16.07l-.06-.01-.05-.05-.03-.1v-.3l.02-.1.03-.06.08-.1.18-.12q.15-.1.35-.17a3 3 0 0 1 .98-.19q.45 0 .78.13t.53.34q.22.21.33.48.1.3.11.61 0 .3-.05.58-.04.29-.21.63-.18.32-.49.73t-.83.94l-.95 1h2.63l.06.01a.1.1 0 0 1 .06.07l.05.1zm0 0"/>
    <path id="G" d="M4.5-3.03q0 .7-.1 1.28-.12.56-.37.98t-.67.65q-.4.21-1 .21-.57 0-.95-.2a1.6 1.6 0 0 1-.64-.6q-.24-.4-.35-.96a8 8 0 0 1 .02-2.58q.12-.57.37-.98.26-.43.66-.64.42-.24 1.01-.24.57 0 .96.2.4.21.62.6.25.39.35.97t.09 1.3m-.81.06a10 10 0 0 0-.13-1.44 2 2 0 0 0-.4-.8 1 1 0 0 0-.33-.18 1 1 0 0 0-.4-.06q-.4 0-.65.18-.24.2-.37.52-.15.31-.2.75a9 9 0 0 0 0 2.1q.08.46.23.76t.39.44q.23.14.58.14.25 0 .45-.08.2-.1.34-.25t.24-.38q.08-.21.14-.48t.08-.58q.03-.3.03-.64m0 0"/>
    <path id="H" d="M4.56-1.72q0 .16-.04.25-.06.1-.13.1H3.7v1.26l-.01.06-.06.05-.13.02A1 1 0 0 1 3 0l-.06-.05-.02-.06v-1.26H.44q-.07 0-.1-.02l-.06-.05-.05-.1-.01-.2v-.15q0-.08.03-.13l.03-.1.06-.13 2.18-3.66q0-.03.06-.06l.1-.05.18-.01a2 2 0 0 1 .69.03q.07.02.1.05.05.03.05.06v3.84h.7q.06 0 .12.1.04.08.04.23M2.92-5.34.95-2.04h1.97Zm0 0"/>
    <path id="I" d="M4.47-1.95q0 .4-.13.78-.12.36-.37.64t-.64.45-.9.17q-.4 0-.7-.09a2 2 0 0 1-.5-.27A2 2 0 0 1 .9-.69Q.74-.93.66-1.27A6 6 0 0 1 .5-2.78q0-.39.03-.78a4 4 0 0 1 .45-1.46q.2-.32.46-.56.27-.25.67-.39a2.6 2.6 0 0 1 1.23-.1l.33.04a1 1 0 0 1 .4.16q.03 0 .05.04l.02.06.02.08v.27l-.02.1-.05.04-.06.01q-.05 0-.14-.03l-.22-.06a2 2 0 0 0-.72-.1q-.44 0-.75.18-.3.17-.51.47-.2.3-.28.68-.1.4-.11.83a2 2 0 0 1 .6-.26 3 3 0 0 1 .8-.13q.5 0 .83.13.34.12.55.37.2.24.3.55t.09.69m-.81.07q0-.25-.07-.48a1 1 0 0 0-.17-.37 1 1 0 0 0-.34-.24q-.2-.1-.52-.1a2 2 0 0 0-.68.13q-.16.05-.3.13-.15.06-.27.14 0 .6.08 1.01t.22.66.36.34A1.4 1.4 0 0 0 3-.67a1 1 0 0 0 .36-.3q.16-.18.22-.42.08-.24.08-.49m0 0"/>
    <path id="J" d="M4.45-1.55q0 .4-.14.7t-.4.52q-.27.2-.66.31T2.38.1 1.53 0a2 2 0 0 1-.62-.3 1.3 1.3 0 0 1-.4-.47 1.4 1.4 0 0 1-.13-.64 1.4 1.4 0 0 1 .35-.95q.19-.2.44-.37l.58-.35q-.29-.14-.5-.3a2 2 0 0 1-.36-.34 1.5 1.5 0 0 1-.3-.87q0-.31.11-.6.13-.28.35-.48.23-.2.6-.31.34-.13.82-.13.45 0 .78.11.34.1.56.3.22.18.31.45a1.4 1.4 0 0 1-.2 1.42q-.14.2-.36.36-.22.18-.5.31a4 4 0 0 1 1.03.72q.17.2.27.4.1.23.1.5m-1.01-3.1a1 1 0 0 0-.06-.33 1 1 0 0 0-.2-.27 1 1 0 0 0-.34-.17 2 2 0 0 0-.43-.06q-.51 0-.77.23a.8.8 0 0 0-.25.6q0 .2.06.35t.2.3.33.28.49.27q.46-.24.72-.53a1 1 0 0 0 .25-.66m.2 3.18a.9.9 0 0 0-.33-.7q-.16-.15-.4-.3t-.55-.3a4 4 0 0 0-.88.6q-.13.15-.21.31a1 1 0 0 0-.08.38q0 .45.31.7t.92.25.9-.25q.32-.25.32-.69m0 0"/>
    <path id="K" d="M3.4-4.9h-.93l.33-1.18v-.06q.01-.1-.1-.11-.08-.01-.15.1a4 4 0 0 1-1.53 1.26c-.29.1-.36.17-.36.3v.06h.86L.69-1.4l-.06.25c-.13.37-.2.73-.2.84 0 .24.23.43.54.43.53 0 .9-.32 1.62-1.4l-.14-.07c-.56.72-.75.9-.93.9q-.17 0-.18-.22l.02-.06 1.01-3.81h.96Zm0 0"/>
    <path id="L" d="M3.38-7.73c-.85.56-1.2.84-1.61 1.37A5.3 5.3 0 0 0 .55-2.87 5.3 5.3 0 0 0 1.98.86c.47.55.77.8 1.36 1.17l.14-.19C2.56 1.12 2.23.7 1.94-.14a8 8 0 0 1-.4-2.78q0-1.8.44-2.85c.33-.7.68-1.12 1.5-1.78Zm0 0"/>
    <path id="M" d="m3.6-3.6-.04-1.56h-.12q-.1.14-.19.13a1 1 0 0 1-.31-.08 2 2 0 0 0-.8-.16c-.9 0-1.56.6-1.56 1.43 0 .64.37 1.09 1.34 1.64l.66.39q.6.33.6.86c0 .5-.37.8-.95.8-.8 0-1.18-.43-1.45-1.58H.6V.05h.16C.83-.06.88-.1 1-.1c.13 0 .27.03.53.09q.48.1.85.1c.89 0 1.6-.65 1.6-1.44 0-.58-.28-.96-.96-1.36l-1.24-.74q-.47-.3-.48-.78c0-.47.34-.78.87-.78.66 0 1 .38 1.27 1.4Zm0 0"/>
    <path id="N" d="M.44 2.03A6 6 0 0 0 2.04.66Q3.28-.82 3.28-2.83c0-1.45-.43-2.58-1.44-3.73A5 5 0 0 0 .47-7.73l-.14.18a4 4 0 0 1 1.55 1.99c.28.76.4 1.6.4 2.76q0 1.8-.47 2.85c-.3.7-.65 1.12-1.48 1.8Zm0 0"/>
    <path id="O" d="M7.36-7.45H1.67v.17c.75.08.9.14.9.47a3 3 0 0 1-.13.73l-1.4 5.05c-.22.69-.3.75-.96.83V0h2.88v-.19c-.66-.03-.86-.15-.86-.5 0-.1.02-.23.1-.51l.7-2.55c.42.03.68.03.93.03.44 0 .52.02.63.06q.25.14.25.47c0 .19-.03.33-.1.67l.2.07.87-2.67-.2-.07c-.52 1.03-.55 1.05-2.47 1.07l.75-2.66c.07-.24.23-.3.7-.3 1.92 0 2.33.14 2.33.88l-.02.25-.01.22.23.01Zm0 0"/>
    <path id="P" d="M3.38-7.72a6 6 0 0 0-1.61 1.38A5.3 5.3 0 0 0 .55-2.87C.55-1.42.97-.31 1.97.86c.47.55.76.8 1.36 1.16l.14-.18C2.57 1.12 2.23.7 1.94-.14a8 8 0 0 1-.4-2.77q-.01-1.8.44-2.84a4.4 4.4 0 0 1 1.49-1.78Zm0 0"/>
    <path id="Q" d="M.08 0h2.67v-.17L2.53-.2c-.48-.03-.62-.15-.64-.58v-2.09L3.5-.73l.1.15q.14.15.13.24-.02.16-.23.17h-.22V0h2.49v-.17C5.27-.2 4.9-.42 4.44-1L2.69-3.22l.33-.31c1.42-1.28 1.73-1.45 2.46-1.44v-.17H3.16v.16c.43.01.56.06.56.2q0 .17-.27.4L1.9-2.97v-4.8l-.05-.02c-.43.13-.76.24-1.42.4l-.34.1v.2q.2-.04.37-.04c.38 0 .49.16.49.7v5.5c-.03.6-.06.63-.87.76Zm0 0"/>
    <path id="R" d="M8.08-7.56H5.39v.22c.92.06 1.06.25 1.1 1.47v3.84l-4.4-5.53H.14v.22c.49 0 .64.09 1.11.62v5.05C1.22-.47 1.08-.28.15-.22V0h2.68v-.22c-.9-.05-1.06-.28-1.08-1.45v-4.49L6.8.13h.18v-6c.05-1.2.2-1.4 1.1-1.47Zm0 0"/>
    <path id="S" d="M.44 2.02A6 6 0 0 0 2.04.66Q3.27-.82 3.26-2.83c0-1.45-.42-2.56-1.42-3.73-.47-.55-.77-.8-1.36-1.16l-.14.19c.92.72 1.22 1.1 1.55 1.97.26.76.39 1.62.39 2.78Q2.27-1 1.8.05a4.4 4.4 0 0 1-1.48 1.8Zm0 0"/>
    <clipPath id="g">
      <path d="M248.46 176.43h274.55v162.4H248.46Zm0 0"/>
    </clipPath>
    <clipPath id="h">
      <path d="M288.9 254H374v49.43h-85.1Zm0 0"/>
    </clipPath>
    <clipPath id="x">
      <path d="M248.46 176.43h274.55v162.4H248.46Zm0 0"/>
    </clipPath>
    <clipPath id="y">
      <path d="M283.52 541h246.64v149.56H283.52Zm0 0"/>
    </clipPath>
    <clipPath id="z">
      <path d="M307.13 568H501v40H307.13Zm0 0"/>
    </clipPath>
  </defs>
  <use xlink:href="#a" x="365.77" y="356"/>
  <use xlink:href="#b" x="376.07" y="356"/>
  <use xlink:href="#c" x="383.02" y="356"/>
  <use xlink:href="#d" x="388.41" y="356"/>
  <use xlink:href="#af" x="391.41" y="356"/>
  <use xlink:href="#e" x="394.41" y="356"/>
  <use xlink:href="#ar" x="400.41" y="356"/>
  <use xlink:href="#a" x="383.15" y="719"/>
  <use xlink:href="#b" x="393.45" y="719"/>
  <use xlink:href="#c" x="400.4" y="719"/>
  <use xlink:href="#d" x="405.79" y="719"/>
  <use xlink:href="#af" x="408.79" y="719"/>
  <use xlink:href="#f" x="411.79" y="719"/>
  <g clip-path="url(#g)">
    <path fill="#fff" fill-rule="evenodd" d="M239.27 347.2h289.6V173.6h-289.6Zm0 0"/>
  </g>
  <path fill="none" stroke="#bcbcbc" stroke-linejoin="round" stroke-miterlimit="10" stroke-width=".6" d="M50.65 49.87h277.8m-277.8 4.8h277.8m-277.8 5.4h277.8m-277.8 4.8h277.8m-277.8 10.2h277.8m-277.8 4.8h277.8m-277.8 4.8h277.8m-277.8 4.8h277.8m-277.8 10.2h277.8m-277.8 4.8h277.8m-277.8 4.8h277.8m-277.8 5.4h277.8m-277.8 9.6h277.8m-277.8 4.8h277.8m-277.8 5.4h277.8m-277.8 4.8h277.8m-277.8 10.2h277.8m-277.8 4.8h277.8m-277.8 4.8h277.8m-277.8 4.8h277.8m-277.8 10.2h277.8m-277.8 4.8h277.8m-277.8 4.8h277.8m-277.8 5.4h277.8" transform="matrix(.80312 0 0 -.80145 248.47 338.83)"/>
  <path fill="none" stroke="#7f7f7f" stroke-linejoin="round" stroke-miterlimit="10" stroke-width=".6" d="M50.65 69.68h277.8m-277.8 25.2h277.8m-277.8 24.59h277.8m-277.8 24.6h277.8m-277.8 25.2h277.8m-277.8 24.6h277.8" transform="matrix(.80312 0 0 -.80145 248.47 338.83)"/>
  <path fill="none" stroke="#bcbcbc" stroke-linejoin="round" stroke-miterlimit="10" stroke-width=".6" d="M57.25 193.87V45.07m7.2 148.8V45.07m7.2 148.8V45.07m6.6 148.8V45.07m7.2 148.8V45.07m6.6 148.8V45.07m7.2 148.8V45.07m6.6 148.8V45.07m7.2 148.8V45.07m13.8 148.8V45.07m7.2 148.8V45.07m6.6 148.8V45.07m7.2 148.8V45.07m6.6 148.8V45.07m7.2 148.8V45.07m7.2 148.8V45.07m6.6 148.8V45.07m7.2 148.8V45.07m13.8 148.8V45.07m7.2 148.8V45.07m6.6 148.8V45.07m7.2 148.8V45.07m6.6 148.8V45.07m7.2 148.8V45.07m6.6 148.8V45.07m7.2 148.8V45.07m7.2 148.8V45.07m13.8 148.8V45.07m6.6 148.8V45.07m7.2 148.8V45.07m6.6 148.8V45.07m7.2 148.8V45.07m7.2 148.8V45.07m6.6 148.8V45.07m7.2 148.8V45.07m6.6 148.8V45.07" transform="matrix(.80312 0 0 -.80145 248.47 338.83)"/>
  <path fill="none" stroke="#7f7f7f" stroke-linejoin="round" stroke-miterlimit="10" stroke-width=".6" d="M120.25 193.87V45.07m69 148.8V45.07m69.6 148.8V45.07m69.6 148.8V45.07" transform="matrix(.80312 0 0 -.80145 248.47 338.83)"/>
  <path fill="none" stroke="#000" stroke-linejoin="round" stroke-miterlimit="10" stroke-width="1.2" d="M50.35 44.77v148.8m-2.4-148.8h2.4m-2.4 5.4h2.4m-2.4 4.8h2.4m-2.4 4.8h2.4m-2.4 4.8h2.4m-2.4 5.4h2.4m-2.4 4.8h2.4m-2.4 4.8h2.4m-2.4 5.4h2.4m-2.4 4.8h2.4m-2.4 4.8h2.4m-2.4 4.8h2.4m-2.4 5.4h2.4m-2.4 4.8h2.4m-2.4 4.8h2.4m-2.4 4.8h2.4m-2.4 5.4h2.4m-2.4 4.8h2.4m-2.4 4.8h2.4m-2.4 5.4h2.4m-2.4 4.8h2.4m-2.4 4.8h2.4m-2.4 4.8h2.4m-2.4 5.4h2.4m-2.4 4.8h2.4m-2.4 4.8h2.4m-2.4 4.8h2.4m-2.4 5.4h2.4m-2.4 4.8h2.4m-2.4 4.8h2.4m-2.4 4.8h2.4m-3.6-148.8h3.6m-3.6 25.2h3.6m-3.6 24.6h3.6m-3.6 24.6h3.6m-3.6 25.2h3.6m-3.6 24.6h3.6m-3.6 24.6h3.6m0-148.8h277.8m-277.8 0v-2.4m7.2 2.4v-2.4m6.6 2.4v-2.4m7.2 2.4v-2.4m7.2 2.4v-2.4m6.6 2.4v-2.4m7.2 2.4v-2.4m6.6 2.4v-2.4m7.2 2.4v-2.4m6.6 2.4v-2.4m7.2 2.4v-2.4m7.2 2.4v-2.4m6.6 2.4v-2.4m7.2 2.4v-2.4m6.6 2.4v-2.4m7.2 2.4v-2.4m7.2 2.4v-2.4m6.6 2.4v-2.4m7.2 2.4v-2.4m6.6 2.4v-2.4m7.2 2.4v-2.4m6.6 2.4v-2.4m7.2 2.4v-2.4m7.2 2.4v-2.4m6.6 2.4v-2.4m7.2 2.4v-2.4m6.6 2.4v-2.4m7.2 2.4v-2.4m7.2 2.4v-2.4m6.6 2.4v-2.4m7.2 2.4v-2.4m6.6 2.4v-2.4m7.2 2.4v-2.4m6.6 2.4v-2.4m7.2 2.4v-2.4m7.2 2.4v-2.4m6.6 2.4v-2.4m7.2 2.4v-2.4m6.6 2.4v-2.4m7.2 2.4v-2.4m6.6 2.4v-2.4m-277.8 2.4v-3.6m69.6 3.6v-3.6m69.6 3.6v-3.6m69.6 3.6v-3.6m69 3.6v-3.6" transform="matrix(.80312 0 0 -.80145 248.47 338.83)"/>
  <g clip-path="url(#h)">
    <path fill="none" stroke="#000" stroke-linecap="round" stroke-linejoin="round" stroke-miterlimit="10" stroke-width="1.2" d="m50.35 44.77 83.4 60 21-60" transform="matrix(.80312 0 0 -.80145 248.47 338.83)"/>
  </g>
  <use xlink:href="#i" x="275.33" y="305.84"/>
  <use xlink:href="#j" x="270.47" y="285.93"/>
  <use xlink:href="#i" x="275.29" y="285.93"/>
  <use xlink:href="#k" x="265.61" y="265.99"/>
  <use xlink:href="#l" x="270.45" y="265.99"/>
  <use xlink:href="#l" x="275.29" y="265.99"/>
  <use xlink:href="#k" x="265.61" y="246.06"/>
  <use xlink:href="#m" x="270.45" y="246.06"/>
  <use xlink:href="#l" x="275.29" y="246.06"/>
  <use xlink:href="#n" x="265.61" y="226.12"/>
  <use xlink:href="#l" x="270.45" y="226.12"/>
  <use xlink:href="#l" x="275.29" y="226.12"/>
  <use xlink:href="#n" x="265.61" y="206.19"/>
  <use xlink:href="#m" x="270.45" y="206.19"/>
  <use xlink:href="#l" x="275.29" y="206.19"/>
  <use xlink:href="#o" x="265.61" y="186.25"/>
  <use xlink:href="#l" x="270.45" y="186.25"/>
  <use xlink:href="#l" x="275.29" y="186.25"/>
  <use xlink:href="#l" x="286.71" y="318.39"/>
  <use xlink:href="#m" x="340.2" y="318.39"/>
  <use xlink:href="#l" x="345.02" y="318.39"/>
  <use xlink:href="#k" x="393.7" y="318.39"/>
  <use xlink:href="#l" x="398.53" y="318.39"/>
  <use xlink:href="#l" x="403.37" y="318.39"/>
  <use xlink:href="#k" x="449.57" y="318.39"/>
  <use xlink:href="#m" x="454.39" y="318.39"/>
  <use xlink:href="#l" x="459.21" y="318.39"/>
  <use xlink:href="#n" x="505.47" y="318.39"/>
  <use xlink:href="#l" x="510.28" y="318.39"/>
  <use xlink:href="#l" x="515.1" y="318.39"/>
  <use xlink:href="#p" x="259.97" y="255.37"/>
  <use xlink:href="#cu" x="259.97" y="249.55"/>
  <use xlink:href="#q" x="259.97" y="247.17"/>
  <use xlink:href="#r" x="259.97" y="243.81"/>
  <use xlink:href="#s" x="259.97" y="235.13"/>
  <use xlink:href="#t" x="392.24" y="334.01"/>
  <use xlink:href="#u" x="398.03" y="334.01"/>
  <use xlink:href="#v" x="401.4" y="334.01"/>
  <use xlink:href="#w" x="405.75" y="334.01"/>
  <g clip-path="url(#x)">
    <path fill="none" stroke="#d9d9d9" stroke-linejoin="round" stroke-miterlimit="10" stroke-width=".6" d="M-11.15-10.13h360v216h-360Zm0 0" transform="matrix(.80312 0 0 -.80145 248.47 338.83)"/>
  </g>
  <g clip-path="url(#y)">
    <path fill="#fff" fill-rule="evenodd" d="M283.94 690.56h248.85V541.25H283.94Zm0 0"/>
  </g>
  <path fill="#fff" fill-rule="evenodd" d="M307.13 668.22h210.75V550.76H307.13Zm0 0"/>
  <path fill="none" stroke="#bcbcbc" stroke-linejoin="round" stroke-miterlimit="10" stroke-width=".6" d="M34.5 39.9h304.2M34.5 46.5h304.2M34.5 53.7h304.2M34.5 60.3h304.2M34.5 74.1h304.2M34.5 80.7h304.2M34.5 87.3h304.2M34.5 94.5h304.2M34.5 107.7h304.2m-304.2 7.21h304.2m-304.2 6.6h304.2m-304.2 6.6h304.2M34.5 141.9h304.2m-304.2 6.6h304.2m-304.2 7.2h304.2m-304.2 6.6h304.2M34.5 176.1h304.2m-304.2 6.6h304.2m-304.2 6.6h304.2m-304.2 7.2h304.2" transform="matrix(.6901 0 0 -.68932 283.52 690.56)"/>
  <path fill="none" stroke="#898989" stroke-linejoin="round" stroke-miterlimit="10" stroke-width=".6" d="M34.5 66.9h304.2M34.5 101.12h304.2m-304.2 34.2h304.2m-304.2 33.6h304.2M34.5 203.1h304.2" transform="matrix(.6901 0 0 -.68932 283.52 690.56)"/>
  <path fill="none" stroke="#bcbcbc" stroke-linejoin="round" stroke-miterlimit="10" stroke-width=".6" d="M47.1 203.1V33.3m12.6 169.8V33.3m12.6 169.8V33.3m25.2 169.8V33.3m13.2 169.8V33.3m12.6 169.8V33.3m25.2 169.8V33.3m12.6 169.8V33.3m12.6 169.8V33.3m25.8 169.8V33.3m12.6 169.8V33.3m12.6 169.8V33.3m25.2 169.8V33.3m12.6 169.8V33.3m13.2 169.8V33.3m25.2 169.8V33.3m12.6 169.8V33.3m12.6 169.8V33.3" transform="matrix(.6901 0 0 -.68932 283.52 690.56)"/>
  <path fill="none" stroke="#898989" stroke-linejoin="round" stroke-miterlimit="10" stroke-width=".6" d="M84.9 203.1V33.3m51 169.8V33.3m51 169.8V33.3m50.4 169.8V33.3m51 169.8V33.3m50.4 169.8V33.3" transform="matrix(.6901 0 0 -.68932 283.52 690.56)"/>
  <path fill="none" stroke="#000" stroke-linejoin="round" stroke-miterlimit="10" stroke-width="1.2" d="M34.2 33v169.8M31.2 33h3m-3 6.6h3m-3 7.2h3m-3 6.6h3m-3 6.6h3m-3 7.2h3m-3 6.6h3m-3 6.6h3m-3 7.2h3m-3 6.6h3m-3 6.61h3m-3 7.2h3m-3 6.6h3m-3 6.6h3m-3 7.2h3m-3 6.6h3m-3 6.6h3m-3 7.2h3m-3 6.6h3m-3 6.6h3m-3 7.2h3m-3 6.6h3m-3 6.6h3m-3 7.2h3m-3 6.6h3m-3 6.6h3M30 33h4.2M30 67.2h4.2M30 100.8h4.2M30 135h4.2M30 169.2h4.2M30 202.8h4.2m0-169.8H339M34.2 33v-3m12.6 3v-3m12.6 3v-3m13.2 3v-3m12.6 3v-3m12.6 3v-3m12.6 3v-3m12.6 3v-3m12.6 3v-3m13.2 3v-3m12.6 3v-3m12.6 3v-3m12.6 3v-3m12.6 3v-3m12.6 3v-3m13.2 3v-3m12.6 3v-3m12.6 3v-3m12.6 3v-3m12.6 3v-3m12.6 3v-3m12.6 3v-3m13.2 3v-3m12.6 3v-3m12.6 3v-3M34.2 33v-4.2m51 4.2v-4.2m50.4 4.2v-4.2m51 4.2v-4.2m51 4.2v-4.2M288 33v-4.2m51 4.2v-4.2" transform="matrix(.6901 0 0 -.68932 283.52 690.56)"/>
  <g clip-path="url(#z)">
    <path fill="none" stroke="#000" stroke-linecap="round" stroke-linejoin="round" stroke-miterlimit="10" stroke-width="1.2" d="M34.2 121.21h203.4l50.4 54.6h25.8" transform="matrix(.6901 0 0 -.68932 283.52 690.56)"/>
  </g>
  <use xlink:href="#A" x="293.3" y="670.79"/>
  <use xlink:href="#B" x="293.3" y="647.28"/>
  <use xlink:href="#C" x="288.35" y="623.8"/>
  <use xlink:href="#A" x="293.32" y="623.8"/>
  <use xlink:href="#D" x="288.35" y="600.29"/>
  <use xlink:href="#B" x="293.32" y="600.29"/>
  <use xlink:href="#E" x="288.35" y="576.8"/>
  <use xlink:href="#A" x="293.32" y="576.8"/>
  <use xlink:href="#F" x="288.35" y="553.3"/>
  <use xlink:href="#B" x="293.32" y="553.3"/>
  <use xlink:href="#G" x="304.73" y="683.37"/>
  <use xlink:href="#F" x="337.35" y="683.37"/>
  <use xlink:href="#G" x="342.34" y="683.37"/>
  <use xlink:href="#H" x="372.44" y="683.37"/>
  <use xlink:href="#G" x="377.41" y="683.37"/>
  <use xlink:href="#I" x="407.56" y="683.37"/>
  <use xlink:href="#G" x="412.54" y="683.37"/>
  <use xlink:href="#J" x="442.65" y="683.37"/>
  <use xlink:href="#G" x="447.62" y="683.37"/>
  <use xlink:href="#D" x="475.27" y="683.37"/>
  <use xlink:href="#G" x="480.25" y="683.37"/>
  <use xlink:href="#G" x="485.24" y="683.37"/>
  <use xlink:href="#D" x="510.36" y="683.37"/>
  <use xlink:href="#F" x="515.33" y="683.37"/>
  <use xlink:href="#G" x="520.3" y="683.37"/>
  <use xlink:href="#K" x="402.83" y="696.18"/>
  <use xlink:href="#cQ" x="405.8" y="696.18"/>
  <use xlink:href="#L" x="408.31" y="696.18"/>
  <use xlink:href="#M" x="412.26" y="696.18"/>
  <use xlink:href="#N" x="416.71" y="696.18"/>
  <use xlink:href="#O" x="302.21" y="545.67"/>
  <use xlink:href="#cV" x="309.15" y="545.67"/>
  <use xlink:href="#P" x="311.63" y="545.67"/>
  <use xlink:href="#Q" x="315.61" y="545.67"/>
  <use xlink:href="#R" x="321.56" y="545.67"/>
  <use xlink:href="#S" x="330" y="545.67"/>
</svg>
