<svg xmlns="http://www.w3.org/2000/svg" xmlns:xlink="http://www.w3.org/1999/xlink" width="595.28" height="841.89" viewBox="0 0 595.28 841.89">
  <defs>
    <path id="t" d="M-4.45-2.34A2.3 2.3 0 0 0-2.12-.28a2.2 2.2 0 1 0 0-4.4c-1.2 0-2.35.88-2.35 2.21zm2.56 1.23h-.44c-.75 0-1.9-.25-1.9-1.37 0-.8.67-1.27 1.42-1.35q.33-.04.65-.03c.64 0 1.46.08 1.82.72q.2.28.18.64c0 .73-.56 1.23-1.34 1.34l-.4.05m0 0"/>
    <path id="u" d="M-4.3-.3h.22v-.22c0-.3.05-.56.42-.56h2.63c.62 0 .8.35.8.78h.21v-1.82h-.21c0 .39-.14.76-.77.76h-2.95q.19-.06.39-.16Q-1.87-2.2-.2-2.95c.08-.02.18-.08.18-.17v-.02c-.01-.11-.14-.14-.23-.19l-.72-.3q-1.33-.54-2.67-1.12-.2-.1-.4-.17l3.4-.02c.4 0 .4.33.4.72v.06h.22v-2.17h-.21v.24c0 .26-.04.54-.44.54h-2.94c-.44 0-.47-.26-.47-.78h-.22v1.3c0 .22.14.25.32.31l.67.3 1.76.73c.27.13.55.22.8.36-1.08.42-2.16.92-3.23 1.38-.16.06-.32.07-.32.32Zm0 0"/>
    <path id="v" d="M-2.31-1.1v-2.88q0-.16-.17-.16c-1.07 0-1.97.64-1.97 1.76 0 1.22 1.08 2.1 2.26 2.1.9 0 1.74-.5 2.13-1.38q.15-.36.15-.75v-.03c0-.76-.42-1.4-1.18-1.67l-.1-.01q-.12 0-.12.1c0 .16.33.22.44.27.43.25.71.73.71 1.25 0 .38-.2.69-.46.95-.46.4-1.11.44-1.7.44m-.2-.02c-.77 0-1.72-.41-1.72-1.22v-.07c.07-.96 1.12-.95 1.71-1.06Zm0 0"/>
    <path id="w" d="m-4.3-.36 1.61.11V-.5c-.37 0-.86-.03-1.1-.23-.23-.2-.29-.52-.29-.79v-.2c0-.23.03-.4.4-.4h2.95c.45 0 .51.35.51.73l-.01.36h.21v-2.9h-.21l.01.38c0 .38-.06.72-.51.72H-3.7c-.22 0-.39 0-.39-.42v-.19c0-.62.2-.97 1.4-1.01v-.25l-1.62.1Zm0 0"/>
    <path id="x" d="m-4.3-.36 1.61.11V-.5c-.36-.02-.87-.03-1.1-.25-.23-.19-.29-.5-.29-.78v-.19c0-.23.03-.42.4-.42h3c.43 0 .45.27.45.78h.21v-2.76c-.03-.7-.43-1.63-1.23-1.63-.73 0-1.22.9-1.22 1.6v1.3h-1.25c-.33 0-.36-.17-.36-.37h-.22Zm2.03-2.48v-.88c0-.58.36-1.19 1.02-1.19h.03c.47 0 .86.46.94.88l.01.45v.52c0 .22-.2.22-.35.22Zm0 0"/>
    <path id="y" d="M-4.3-.27h.32v-.18c0-.3.03-.6.43-.6h4.77c.36 0 .39.27.39.55v.23h.31v-2.25h-.31v.24c0 .3-.03.55-.4.55L-.5-1.75c.4-.23.6-.78.6-1.22a2.25 2.25 0 0 0-2.26-2.22c-1.2 0-2.25.92-2.25 2.1 0 .54.25 1.03.66 1.37h-.66Zm2.32-4.07C-1.25-4.3-.2-3.91-.12-3v.06c0 .42-.24.82-.6 1.07q-.14.12-.34.14h-2.07c-.53 0-1.03-.68-1.03-1.27 0-1 1.32-1.34 2.02-1.34zm0 0"/>
    <path id="z" d="M.25-4.3v.22h.23c.29 0 .55.05.55.47v2.94c0 .42-.28.44-.78.44v.21h2.44v-.21h-.3c-.37 0-.67-.04-.67-.47v-3.02c0-.2.08-.36.3-.36h.64c.67 0 1.2.06 1.25 1.4h.25L4.05-4.3Zm0 0"/>
    <path id="A" d="M1.1-3.8c.26-.3.7-.43 1.07-.43.74 0 1.06.65 1.06 1.37v.25C2.1-2.6.41-2.25.41-.95v.1C.48-.1 1.45.08 2 .08c.52 0 1.16-.32 1.29-.84h.01c.06.44.33.8.78.8.41 0 .77-.33.82-.78v-.72h-.25v.5c0 .28-.05.68-.36.68-.32 0-.36-.39-.36-.65v-2.05c0-.97-.9-1.48-1.74-1.48-.62 0-1.5.3-1.5 1.1 0 .29.2.48.47.48s.44-.22.44-.46c0-.3-.22-.47-.5-.47m2.13 1.4v1c0 .7-.48 1.24-1.12 1.27h-.05a.87.87 0 0 1-.87-.84v-.05c.06-1 1.19-1.35 2.04-1.39m0 0"/>
    <path id="B" d="M.27-4.3v.32h.18c.3 0 .6.03.6.43v4.77c0 .36-.27.39-.55.39H.27v.31h2.25v-.31h-.24c-.3 0-.55-.03-.55-.4L1.75-.5c.23.4.78.6 1.22.6a2.25 2.25 0 0 0 2.22-2.26c0-1.2-.92-2.25-2.1-2.25-.54 0-1.03.25-1.37.66v-.66Zm4.07 2.32C4.3-1.25 3.91-.2 3-.12h-.06c-.42 0-.81-.24-1.06-.6q-.13-.14-.15-.34v-2.07c0-.53.68-1.03 1.27-1.03 1 0 1.34 1.32 1.34 2.02zm0 0"/>
    <path id="C" d="M1.22-4.3v.22h.2c.3 0 .56.05.56.44v.06c0 1.02-.07 2.44-.9 3.03-.3.25-.52.32-.9.32L.01 1.6h.25C.3 1.17.3.55.63.27c.3-.29.73-.29 1.1-.29H3.9c.48 0 1.08.07 1.22.72.1.3.1.6.14.9h.25L5.33-.22H5.1c-.33 0-.63-.04-.63-.47v-2.92c0-.43.27-.46.79-.46v-.22ZM3.78-.5c0 .23-.17.27-.34.27H1.45q-.1 0-.12-.11c0-.08.17-.24.26-.36.47-.7.6-1.67.63-2.53l-.02-.35c0-.26.07-.5.36-.5h.9q.34 0 .34.35v3.07q0 .1-.02.16m0 0"/>
    <path id="D" d="M1.1-2.31h2.88q.16 0 .16-.17c0-1.07-.64-1.97-1.76-1.97-1.22 0-2.1 1.08-2.1 2.26 0 .9.5 1.74 1.38 2.13q.36.15.75.15h.03c.76 0 1.4-.42 1.67-1.18l.01-.1q0-.12-.1-.12c-.16 0-.22.33-.27.44-.25.43-.73.71-1.25.71-.37 0-.69-.2-.95-.46-.4-.46-.44-1.11-.44-1.7m.02-.2c0-.77.41-1.72 1.22-1.72h.07c.96.07.95 1.12 1.06 1.71Zm0 0"/>
    <path id="E" d="M2.66-2.37c.42-.15 1.3-.33 1.3-.97 0-1.04-1.46-1.11-2.02-1.11q-.49-.02-.92.15c-.07.03-.13.1-.2.11-.12 0-.32-.26-.44-.26-.08 0-.11.08-.11.15l.01.13v.75c0 .08 0 .17.1.19h.01c.16 0 .17-.24.22-.35.25-.53.83-.65 1.36-.65.51 0 1.22.2 1.22.86 0 .59-.63.9-1.16.9h-.51q-.13 0-.15.11c.02.1.11.1.2.1h.3c.65 0 1.32.18 1.41 1.03 0 .84-.72 1.07-1.34 1.07C1.34-.16.67-.3.5-.96c-.05-.1.03-.34-.16-.34q-.13.04-.12.16C.22-.17 1.2.09 1.97.09c.86 0 2.1-.23 2.1-1.28 0-.75-.8-1.08-1.41-1.18m0 0"/>
    <path id="F" d="M.25-4.3v.22h.23c.29 0 .55.05.55.47v2.94c0 .42-.28.44-.78.44v.21H2.5v-.21h-.19c-.28 0-.6-.04-.6-.4.02-.09.12-.15.17-.23l.39-.48c.51-.63.98-1.3 1.53-1.91v2.58c0 .34-.14.44-.78.44v.21h2.25v-.21h-.24c-.28 0-.55-.04-.55-.44v-2.94c0-.44.27-.47.79-.47v-.22H3.02v.22h.17c.3 0 .6.03.6.4 0 .1-.1.16-.15.24l-.39.49c-.52.62-.98 1.3-1.53 1.89v-2.58c0-.33.14-.44.78-.44v-.22Zm0 0"/>
    <path id="G" d="M.25-4.3v.22h.23c.29 0 .55.05.55.47v2.94c0 .42-.28.44-.78.44v.21H2.5v-.21h-.23c-.3 0-.55-.04-.55-.44v-1.6H3.8v1.6c0 .44-.32.44-.78.44v.21h2.25v-.21h-.24c-.28 0-.55-.04-.55-.44v-2.94c0-.44.27-.47.79-.47v-.22H3.02v.22h.2c.3 0 .58.05.58.44v1.17H1.72v-1.17c0-.33.12-.44.78-.44v-.22Zm0 0"/>
    <path id="K" d="M1.27-.77 2.3-1.8c1.57-1.37 2.16-1.9 2.16-2.9 0-1.13-.9-1.92-2.11-1.92-1.13 0-1.86.9-1.86 1.8 0 .55.5.55.53.55.16 0 .52-.12.52-.53a.5.5 0 0 0-.53-.51H.89c.22-.64.77-1 1.34-1 .91 0 1.33.8 1.33 1.6s-.5 1.6-1.04 2.21L.6-.37C.5-.28.5-.23.5 0h3.69l.28-1.73h-.25c-.05.3-.13.73-.22.89-.06.07-.72.07-.94.07Zm0 0"/>
    <path id="L" d="M4.58-3.19c0-.8-.05-1.6-.4-2.33a1.86 1.86 0 0 0-3.43.08 5 5 0 0 0-.36 2.25c0 .75.03 1.64.45 2.4.43.8 1.14 1 1.64 1 .54 0 1.29-.2 1.72-1.15.33-.68.38-1.47.38-2.25M2.48 0C2.1 0 1.5-.25 1.33-1.2c-.11-.6-.11-1.52-.11-2.1 0-.64 0-1.3.08-1.84.18-1.17.93-1.27 1.18-1.27.33 0 .99.18 1.18 1.16.09.56.09 1.31.09 1.95 0 .74 0 1.42-.1 2.05C3.5-.3 2.91 0 2.47 0m0 0"/>
    <path id="M" d="M2.92-1.64v.86c0 .36-.01.47-.75.47h-.22V0c.43-.03.94-.03 1.35-.03s.95 0 1.36.03v-.31h-.2c-.74 0-.77-.11-.77-.47v-.86h1v-.31h-1v-4.53c0-.2 0-.25-.16-.25-.1 0-.12 0-.2.1L.28-1.95v.3Zm.06-.31H.56l2.42-3.7Zm0 0"/>
    <path id="N" d="M1.31-3.27v-.23c0-2.52 1.24-2.87 1.75-2.87.24 0 .66.06.88.39-.16 0-.55 0-.55.45 0 .31.23.45.45.45.16 0 .46-.1.46-.47 0-.6-.44-1.08-1.27-1.08-1.26 0-2.6 1.29-2.6 3.49C.42-.48 1.57.22 2.5.22c1.1 0 2.05-.94 2.05-2.25 0-1.27-.9-2.22-1.99-2.22-.68 0-1.04.5-1.25.98M2.5-.07c-.62 0-.92-.59-.98-.74-.2-.47-.2-1.25-.2-1.44 0-.78.34-1.77 1.23-1.77.15 0 .62 0 .92.61.19.38.19.88.19 1.36s0 .99-.18 1.35c-.3.6-.75.64-.98.64m0 0"/>
    <path id="O" d="M1.63-4.55c-.46-.3-.5-.64-.5-.8 0-.62.64-1.03 1.35-1.03s1.36.52 1.36 1.24c0 .56-.39 1.05-.98 1.39Zm1.45.94c.72-.36 1.2-.87 1.2-1.53 0-.92-.89-1.49-1.8-1.49-.98 0-1.8.74-1.8 1.66 0 .19.02.63.44 1.1.11.12.49.37.72.54-.56.28-1.42.85-1.42 1.83C.42-.45 1.44.22 2.48.22c1.13 0 2.07-.83 2.07-1.9 0-.35-.11-.8-.49-1.21-.18-.22-.34-.31-.98-.72m-1 .42 1.22.78c.28.2.75.49.75 1.1 0 .73-.75 1.25-1.57 1.25C1.63-.06.92-.67.92-1.5c0-.58.31-1.22 1.16-1.69m0 0"/>
    <path id="P" d="M2.92-6.37c0-.24 0-.25-.22-.25-.62.64-1.5.64-1.8.64v.3c.18 0 .77 0 1.29-.26v5.16c0 .36-.03.47-.92.47H.95V0c.35-.03 1.2-.03 1.61-.03.4 0 1.27 0 1.61.03v-.31h-.31c-.9 0-.94-.11-.94-.47Zm0 0"/>
    <path id="R" d="M3.3 2.4c0-.04 0-.06-.17-.23C1.88.92 1.56-.97 1.56-2.48c0-1.74.38-3.47 1.61-4.72.13-.11.13-.13.13-.16q-.01-.11-.11-.1c-.1 0-.99.68-1.58 1.93a7 7 0 0 0-.63 3.05c0 .76.11 1.98.66 3.09A4.3 4.3 0 0 0 3.2 2.48q.1 0 .1-.09m0 0"/>
    <path id="S" d="M1.1-3.42v2.67c0 .44-.12.44-.79.44V0a32 32 0 0 1 2.25 0v-.31c-.67 0-.78 0-.78-.44v-1.84c0-1.04.7-1.6 1.35-1.6.62 0 .73.55.73 1.11v2.33c0 .44-.11.44-.78.44V0a32 32 0 0 1 2.25 0v-.31c-.67 0-.78 0-.78-.44v-1.84c0-1.04.7-1.6 1.34-1.6.63 0 .74.55.74 1.11v2.33c0 .44-.11.44-.77.44V0a30 30 0 0 1 2.23 0v-.31c-.51 0-.76 0-.78-.3v-1.9c0-.85 0-1.16-.31-1.52-.12-.17-.45-.38-1.03-.38-.84 0-1.28.61-1.45.99-.14-.88-.88-.99-1.33-.99-.72 0-1.19.44-1.47 1.05V-4.4l-1.4.11v.32c.7 0 .77.07.77.56m0 0"/>
    <path id="T" d="m1.77-4.4-1.4.1v.32c.65 0 .74.06.74.54v2.69c0 .44-.11.44-.78.44V0a30 30 0 0 1 2.12 0v-.31c-.65 0-.68-.05-.68-.44Zm.03-1.72a.5.5 0 0 0-.52-.54.54.54 0 0 0-.53.54c0 .26.22.51.53.51a.5.5 0 0 0 .52-.51m0 0"/>
    <path id="U" d="M1.1-3.42v2.67c0 .44-.12.44-.79.44V0a32 32 0 0 1 2.25 0v-.31c-.67 0-.78 0-.78-.44v-1.84c0-1.04.7-1.6 1.35-1.6.62 0 .73.55.73 1.11v2.33c0 .44-.11.44-.78.44V0a32 32 0 0 1 2.25 0v-.31c-.52 0-.77 0-.78-.3v-1.9c0-.85 0-1.16-.32-1.52-.14-.17-.46-.38-1.04-.38-.72 0-1.19.44-1.47 1.05V-4.4l-1.4.11v.32c.7 0 .77.07.77.56m0 0"/>
    <path id="V" d="M2.88-2.48c0-.79-.11-1.99-.66-3.11A4.4 4.4 0 0 0 .67-7.47a.1.1 0 0 0-.1.11c0 .03 0 .05.18.22.98.98 1.55 2.58 1.55 4.66 0 1.7-.36 3.45-1.6 4.7-.14.12-.14.14-.14.17q.01.1.11.1c.1 0 .99-.68 1.58-1.94.5-1.1.63-2.2.63-3.03m0 0"/>
    <path id="Q" d="M2.05-3.98h.93c.2 0 .3 0 .3-.2 0-.12-.1-.12-.28-.12h-.87c.35-1.4.4-1.6.4-1.67q0-.25-.28-.26c-.03 0-.31.01-.4.36L1.46-4.3H.53c-.2 0-.3 0-.3.2 0 .12.08.12.27.12h.9C.66-1.16.62-.98.62-.81c0 .54.37.92.92.92 1.01 0 1.58-1.45 1.58-1.53 0-.1-.08-.1-.13-.1-.08 0-.1.02-.14.13C2.42-.34 1.9-.11 1.56-.11c-.2 0-.31-.12-.31-.45 0-.25.03-.31.06-.49Zm0 0"/>
    <path id="W" d="M1.9-.53a.53.53 0 0 0-.5-.53c-.3 0-.54.25-.54.53a.52.52 0 1 0 1.05 0m0 0"/>
    <path id="X" d="M-6.1-3.73c-.24-.07-.35-.1-.38-.29v-.6c0-.7 0-1.8.98-1.8.33 0 1.02.15 1.4.54.27.25.58.79.58 1.68v1.12Zm2.7-1.44c-.2-1-.9-2.19-1.91-2.19-.85 0-1.49.9-1.49 2.2v2.85c0 .19 0 .28.2.28.12 0 .12-.1.12-.28l.01-.38c.02-.17.03-.26.16-.26l.18.03 5.35 1.34c.39.1.47.11.47.9 0 .18 0 .27.2.27C0-.4 0-.53 0-.55L-.03-1.8 0-3.06c0-.08 0-.2-.2-.2-.11 0-.11.09-.11.28 0 .36 0 .64-.17.64q-.09 0-.18-.04l-2.64-.65V-4.2c0-.9.57-1.1.9-1.1.17 0 .46.08.7.14.28.07.64.16.84.16C.22-5 .22-6.19.22-6.31c0-.86-1-1.2-1.14-1.2s-.13.1-.13.12c0 .08.08.1.14.12.74.25.91.68.91.91 0 .33-.22.4-.6.4a9 9 0 0 1-1.13-.1l-.47-.03c-.77 0-1.08.65-1.2.92m0 0"/>
    <path id="Y" d="M2.4-3.3c-.04 0-.06 0-.23.17C.92-1.87-.97-1.55-2.48-1.55c-1.74 0-3.47-.38-4.72-1.61-.11-.13-.13-.13-.16-.13q-.11.01-.1.11c0 .1.68.99 1.93 1.58 1.1.5 2.2.63 3.05.63.76 0 1.98-.11 3.09-.66A4.3 4.3 0 0 0 2.48-3.2q0-.1-.09-.1m0 0"/>
    <path id="Z" d="M-1.6-6.73v.25c.24.04.48.07.7.17.17.04.26.08.26.65v.8a5 5 0 0 1-1.7-.89c-.7-.45-1.4-.87-2.18-.87-1.39 0-2.5 1.34-2.5 3.03 0 1.72 1.14 3.03 2.5 3.03.79 0 1.47-.4 2.18-.88a5 5 0 0 1 1.7-.87v.8c0 .56-.1.59-.23.65q-.36.12-.74.17v.25L0-.77v-1.59c0-.22 0-.25-.2-.25-.7 0-1.58.31-2.22.55-.58.2-1.36.48-2.11.48-1.6 0-2.27-1.1-2.27-2 0-.95.72-2.01 2.27-2.01.75 0 1.5.26 2.33.56.4.14 1.3.47 2 .47.2 0 .2-.03.2-.27V-6.4Zm0 0"/>
    <path id="aa" d="M-2.48-2.87c-.79 0-1.99.1-3.11.65A4.4 4.4 0 0 0-7.47-.67q.01.1.11.1c.03 0 .05 0 .22-.18.98-.98 2.58-1.55 4.66-1.55 1.7 0 3.45.36 4.7 1.6.12.14.14.14.17.14q.1-.01.1-.11c0-.1-.68-.99-1.94-1.58-1.1-.5-2.2-.62-3.03-.62m0 0"/>
    <clipPath id="a">
      <path d="M129 596h1v13.6h-1Zm0 13.6h1V620h-1Zm0 0"/>
    </clipPath>
    <clipPath id="b">
      <path d="M138 596h1v13.6h-1Zm0 13.6h1V620h-1Zm0 0"/>
    </clipPath>
    <clipPath id="c">
      <path d="M147 596h1v13.6h-1Zm0 13.6h1V620h-1Zm0 0"/>
    </clipPath>
    <clipPath id="d">
      <path d="M156 596h1v13.6h-1Zm0 13.6h1V620h-1Zm0 0"/>
    </clipPath>
    <clipPath id="e">
      <path d="M165 596h1v13.6h-1Zm0 13.6h1V620h-1Zm0 0"/>
    </clipPath>
    <clipPath id="f">
      <path d="M174 596h1v13.6h-1Zm0 13.6h1V620h-1Zm0 0"/>
    </clipPath>
    <clipPath id="g">
      <path d="M183 596h1v13.6h-1Zm0 13.6h1V620h-1Zm0 0"/>
    </clipPath>
    <clipPath id="h">
      <path d="M192 596h1v13.6h-1Zm0 13.6h1V620h-1Zm0 0"/>
    </clipPath>
    <clipPath id="i">
      <path d="M201 596h1v13.6h-1Zm0 13.6h1V620h-1Zm0 0"/>
    </clipPath>
    <clipPath id="j">
      <path d="M210 596h1v13.6h-1Zm0 13.6h1V620h-1Zm0 0"/>
    </clipPath>
    <clipPath id="k">
      <path d="M219 596h1v13.6h-1Zm0 13.6h1V620h-1Zm0 0"/>
    </clipPath>
    <clipPath id="l">
      <path d="M228 596h1v13.6h-1Zm0 13.6h1V620h-1Zm0 0"/>
    </clipPath>
    <clipPath id="m">
      <path d="M237 596h1v13.6h-1Zm0 13.6h1V620h-1Zm0 0"/>
    </clipPath>
    <clipPath id="n">
      <path d="M246 596h1v13.6h-1Zm0 13.6h1V620h-1Zm0 0"/>
    </clipPath>
    <clipPath id="o">
      <path d="M255 596h2v13.6h-2Zm0 13.6h2V620h-2Zm0 0"/>
    </clipPath>
    <clipPath id="p">
      <path d="M85 614h41v37.42H85Zm0 37.42h41v4.42H85Zm0 0"/>
    </clipPath>
    <clipPath id="q">
      <path d="M91 599h35v10.6H91Zm0 10.6h35V650H91Zm0 0"/>
    </clipPath>
    <clipPath id="r">
      <path d="M130 566.2h17v8.8h-17Zm0 0"/>
    </clipPath>
    <clipPath id="s">
      <path d="M144 566.2h16v8.8h-16Zm0 0"/>
    </clipPath>
    <clipPath id="H">
      <path d="M499 635h9.25v6H499Zm0 0"/>
    </clipPath>
    <clipPath id="I">
      <path d="M291 518.57h5V527h-5Zm0 0"/>
    </clipPath>
    <clipPath id="J">
      <path d="M291 518.57h6V528h-6Zm0 0"/>
    </clipPath>
  </defs>
  <g clip-path="url(#a)">
    <path fill="none" stroke="#000" stroke-dasharray="4.507973932 4.507973932" stroke-linecap="round" stroke-linejoin="round" stroke-miterlimit="10" stroke-width=".5" d="M129.54 619.06v-22.54"/>
  </g>
  <g clip-path="url(#b)">
    <path fill="none" stroke="#000" stroke-dasharray="4.507973932 4.507973932" stroke-linecap="round" stroke-linejoin="round" stroke-miterlimit="10" stroke-width=".5" d="M138.55 619.06v-22.54"/>
  </g>
  <g clip-path="url(#c)">
    <path fill="none" stroke="#000" stroke-dasharray="4.507973932 4.507973932" stroke-linecap="round" stroke-linejoin="round" stroke-miterlimit="10" stroke-width=".5" d="M147.57 619.06v-22.54"/>
  </g>
  <g clip-path="url(#d)">
    <path fill="none" stroke="#000" stroke-dasharray="4.507973932 4.507973932" stroke-linecap="round" stroke-linejoin="round" stroke-miterlimit="10" stroke-width=".5" d="M156.58 619.06v-22.54"/>
  </g>
  <g clip-path="url(#e)">
    <path fill="none" stroke="#000" stroke-dasharray="4.507973932 4.507973932" stroke-linecap="round" stroke-linejoin="round" stroke-miterlimit="10" stroke-width=".5" d="M165.6 619.06v-22.54"/>
  </g>
  <g clip-path="url(#f)">
    <path fill="none" stroke="#000" stroke-dasharray="4.507973932 4.507973932" stroke-linecap="round" stroke-linejoin="round" stroke-miterlimit="10" stroke-width=".5" d="M174.61 619.06v-22.54"/>
  </g>
  <g clip-path="url(#g)">
    <path fill="none" stroke="#000" stroke-dasharray="4.507973932 4.507973932" stroke-linecap="round" stroke-linejoin="round" stroke-miterlimit="10" stroke-width=".5" d="M183.63 619.06v-22.54"/>
  </g>
  <g clip-path="url(#h)">
    <path fill="none" stroke="#000" stroke-dasharray="4.507973932 4.507973932" stroke-linecap="round" stroke-linejoin="round" stroke-miterlimit="10" stroke-width=".5" d="M192.64 619.06v-22.54"/>
  </g>
  <g clip-path="url(#i)">
    <path fill="none" stroke="#000" stroke-dasharray="4.507973932 4.507973932" stroke-linecap="round" stroke-linejoin="round" stroke-miterlimit="10" stroke-width=".5" d="M201.66 619.06v-22.54"/>
  </g>
  <g clip-path="url(#j)">
    <path fill="none" stroke="#000" stroke-dasharray="4.507973932 4.507973932" stroke-linecap="round" stroke-linejoin="round" stroke-miterlimit="10" stroke-width=".5" d="M210.68 619.06v-22.54"/>
  </g>
  <g clip-path="url(#k)">
    <path fill="none" stroke="#000" stroke-dasharray="4.507973932 4.507973932" stroke-linecap="round" stroke-linejoin="round" stroke-miterlimit="10" stroke-width=".5" d="M219.7 619.06v-22.54"/>
  </g>
  <g clip-path="url(#l)">
    <path fill="none" stroke="#000" stroke-dasharray="4.507973932 4.507973932" stroke-linecap="round" stroke-linejoin="round" stroke-miterlimit="10" stroke-width=".5" d="M228.7 619.06v-22.54"/>
  </g>
  <g clip-path="url(#m)">
    <path fill="none" stroke="#000" stroke-dasharray="4.507973932 4.507973932" stroke-linecap="round" stroke-linejoin="round" stroke-miterlimit="10" stroke-width=".5" d="M237.72 619.06v-22.54"/>
  </g>
  <g clip-path="url(#n)">
    <path fill="none" stroke="#000" stroke-dasharray="4.507973932 4.507973932" stroke-linecap="round" stroke-linejoin="round" stroke-miterlimit="10" stroke-width=".5" d="M246.74 619.06v-22.54"/>
  </g>
  <g clip-path="url(#o)">
    <path fill="none" stroke="#000" stroke-dasharray="4.507973932 4.507973932" stroke-linecap="round" stroke-linejoin="round" stroke-miterlimit="10" stroke-width=".5" d="M255.75 619.06v-22.54"/>
  </g>
  <path fill="none" stroke="#000" stroke-linecap="round" stroke-linejoin="round" stroke-miterlimit="10" stroke-width="1.99" d="M125.03 601.03h139.74m-139.74 13.52h139.74"/>
  <path fill="none" stroke="#000" stroke-linecap="round" stroke-linejoin="round" stroke-miterlimit="10" stroke-width=".5" d="M82.64 619.4h12.02m0 0v22.23m0 0H82.64m0 0V619.4m1.5 1.85h9.02m0 0v9.02m0 0h-9.02m0 0v-9.02m2.33 4.61 1.26 4.41"/>
  <path d="M85.93 623.95q.47 2.48.57 5.01l-.03-3.1 1.62 2.65q-1.26-2.2-2.16-4.56"/>
  <path fill="none" stroke="#000" stroke-linecap="round" stroke-linejoin="round" stroke-miterlimit="10" stroke-width=".5" d="M85.93 623.95q.47 2.48.57 5.01l-.03-3.1 1.62 2.65q-1.26-2.2-2.16-4.56m0 0"/>
  <path fill="none" stroke="#000" stroke-linecap="round" stroke-linejoin="round" stroke-miterlimit="10" stroke-width=".5" d="m93.16 625.17-.04-.03-.04-.02-.04-.02-.04-.02-.05-.02-.04-.02-.04-.02-.04-.02-.04-.03-.18-.08-.04-.01-.17-.08-.04-.02-.05-.02-.04-.02-.04-.01-.05-.02-.04-.02-.04-.02-.05-.01-.09-.03-.04-.02-.05-.02-.08-.03-.05-.02-.04-.01-.04-.01-.05-.02-.04-.02-.05-.01-.04-.01-.05-.02-.04-.01-.05-.02h-.04l-.05-.02-.04-.01-.05-.02h-.04l-.1-.03-.04-.01-.14-.04h-.04l-.1-.03h-.04l-.05-.02h-.04l-.05-.02h-.04l-.05-.01-.05-.02-.18-.03h-.05l-.04-.01h-.05l-.1-.02h-.04l-.1-.02-.09-.01h-.04l-.14-.02h-.05l-.1-.02h-.04l-.19-.01h-.28l-.05-.01h-.7l-.2.02h-.04l-.1.01-.04.01h-.1l-.04.01-.04.01h-.1l-.09.02h-.05l-.09.02h-.05l-.04.01-.05.01-.18.03-.05.02h-.04l-.05.01-.05.01-.04.01-.05.01-.04.01-.1.02-.04.01-.14.04h-.04l-.05.02-.04.01-.1.03-.04.01-.05.01-.04.01-.05.02-.04.01-.05.02h-.04l-.05.02-.08.04h-.05l-.04.02-.05.02-.09.03-.04.02-.05.02-.08.03-.05.01-.04.02-.05.02-.04.02-.04.01-.09.04-.04.02-.04.02-.05.02-.04.02-.04.02-.22.1-.04.02-.04.02-.04.02-.04.02-.05.02-.04.02-.04.02-.04.02-.04.03"/>
  <g clip-path="url(#p)">
    <path fill="none" stroke="#000" stroke-linecap="round" stroke-linejoin="round" stroke-miterlimit="10" stroke-width=".5" d="M85.65 638.63a54 54 0 0 0 .29 3.92 29 29 0 0 0 1.12 5.16 16 16 0 0 0 1.77 3.66 10 10 0 0 0 2.76 2.71l.5.3q.26.14.53.26l.52.23.54.19a9 9 0 0 0 1.64.39 13 13 0 0 0 3.3.08l.54-.06.54-.06.52-.09q.26-.03.52-.09l.5-.1.5-.12.5-.13a11 11 0 0 0 .94-.29l.46-.16.46-.17.44-.18.43-.2.83-.4.4-.23.39-.23.37-.24.72-.5.35-.27q.16-.15.33-.28l.31-.28.31-.29.84-.91a5 5 0 0 0 .5-.64l.22-.34.21-.33.2-.35.18-.34.17-.36.16-.36a7 7 0 0 0 .27-.73l.11-.38.1-.37.1-.39.07-.38.06-.39.06-.39.04-.4.04-.4.02-.4.02-.4v-1.2l-.02-.41-.02-.41-.06-.81-.04-.41-.04-.41-.05-.4-.05-.4-.06-.41-.06-.4-.12-.8-.06-.4-.06-.4-.14-.77-.06-.38-.06-.39-.06-.37-.06-.37-.12-.74-.05-.36-.06-.35-.05-.36-.05-.34-.09-.7-.04-.33-.08-.67-.04-.33-.03-.32-.03-.32q0-.17-.03-.32l-.02-.32-.02-.31-.02-.31-.01-.3-.01-.31-.01-.3v-1.18l.02-.28v-.29l.03-.28.02-.28a7 7 0 0 1 .1-.82l.03-.27.05-.26.1-.53.06-.26.07-.26.07-.25.08-.25.08-.25.1-.24.09-.24.1-.24.12-.23.12-.23.13-.23.13-.22.15-.22.15-.22.17-.2a4 4 0 0 1 .54-.61l.2-.2.22-.18.22-.18a9 9 0 0 1 .73-.52l.27-.17.28-.15.29-.15.3-.15.32-.14.32-.14.34-.13.35-.12.35-.12.36-.12.36-.1.37-.11.37-.1.37-.1.37-.08.37-.09.37-.08.36-.07.36-.07.35-.07.34-.06.66-.11.31-.05.3-.05.29-.04.27-.04.25-.03.23-.03.41-.05.18-.02.15-.02.12-.02h.1l.07-.01h.07"/>
  </g>
  <g clip-path="url(#q)">
    <path fill="none" stroke="#000" stroke-linecap="round" stroke-linejoin="round" stroke-miterlimit="10" stroke-width=".5" d="m125.03 601.03-1.15-.15-1.09-.14-1.04-.12-.99-.1-.94-.1-.9-.08-.85-.06-.81-.05-.78-.04a23 23 0 0 0-1.43-.04h-.66l-.62.01a15 15 0 0 0-1.17.06l-.54.05-.52.05-.49.07-.47.07-.45.09a14 14 0 0 0-1.24.3q-.2.08-.39.13l-.37.13-.37.14-.35.14-.34.16-.34.16-.32.17-.31.17-.3.18-.59.4q-.14.09-.27.2l-.27.2-.26.22-.25.22-.24.23-.24.23-.23.24-.22.24-.21.25-.2.25-.2.27-.2.26-.19.27-.18.27-.18.27-.16.28a5 5 0 0 0-.33.57l-.3.59-.14.3-.14.3-.13.3-.13.3-.12.32-.12.31-.11.32-.11.32-.1.32-.1.33-.1.33-.09.33-.08.34-.09.34-.07.34-.08.35-.07.35-.06.35-.06.35-.06.36-.06.37-.05.36-.05.37-.04.37-.04.38q0 .19-.03.38t-.03.38l-.03.39-.03.39-.01.39-.03.8v1.21l.01.42.02.42a8 8 0 0 0 .05.84l.04.43.09.87.05.43.06.44.07.45.07.45.08.45.09.46.1.46.09.46.1.46.11.47.11.47.23.94.12.47.13.47.12.48.12.47.12.47.12.48.12.47.12.47.12.47.11.47.11.47.1.47.2.93.1.45.08.46.08.45.08.45.12.89.06.44.05.43.04.42.04.42.03.42.03.4.02.4.01.4v1.49l-.01.35-.02.34-.03.33-.03.32-.03.31-.04.3-.16.83-.06.26-.07.23-.07.23-.08.22-.09.2-.1.2-.1.19-.1.17-.11.16-.13.15-.13.15-.14.13a4 4 0 0 1-.48.34l-.17.1-.19.09-.2.08-.2.07a4 4 0 0 1-.7.17l-.52.07-.27.03-.3.02-.3.02h-.31a4 4 0 0 1-.66-.03l-.34-.05a5 5 0 0 1-1.01-.32 3 3 0 0 1-.67-.4 4 4 0 0 1-.94-.94 6 6 0 0 1-.82-1.47 12 12 0 0 1-.82-2.96 19 19 0 0 1-.25-1.98 37 37 0 0 1-.13-2.35"/>
  </g>
  <path fill="none" stroke="#000" stroke-linecap="round" stroke-linejoin="round" stroke-miterlimit="10" stroke-width=".5" d="M129.54 592.01h41.32m-39.07 0v-18.78m36.81 1.83v16.95m-9.76-18.78v18.78"/>
  <g clip-path="url(#r)">
    <path fill="none" stroke="#000" stroke-linecap="round" stroke-linejoin="round" stroke-miterlimit="10" stroke-width="1.99" d="m131.79 573.23 13.52-6.01"/>
  </g>
  <g clip-path="url(#s)">
    <path fill="none" stroke="#000" stroke-linecap="round" stroke-linejoin="round" stroke-miterlimit="10" stroke-width="1.99" d="m145.31 567.22 13.53 6.01"/>
  </g>
  <path fill="none" stroke="#000" stroke-linecap="round" stroke-linejoin="round" stroke-miterlimit="10" stroke-width="1.99" d="m158.84 573.23 12.02 2.25m-39.07-2.25-2.25 1"/>
  <path fill="#fff" d="M263.88 598.7v18.05h-24.04V598.7z"/>
  <path fill="none" stroke="#000" stroke-linecap="round" stroke-linejoin="round" stroke-miterlimit="10" stroke-width=".5" d="M263.88 598.7v18.05h-24.04V598.7Zm-22.54 14.85h4.5m0 0v1.9m0 0h-4.5m0 .02v-1.92m16.53 0h4.5m0 0v1.9m0 0h-4.5m0 0v-1.9M241.34 600h4.5m0 0v1.9m0 0h-4.5m0 0V600m16.53-.02h4.5m0 0v1.93m0 0h-4.5m0-.01v-1.92"/>
  <use xlink:href="#t" x="77.78" y="650.2"/>
  <use xlink:href="#u" x="77.78" y="645.17"/>
  <use xlink:href="#u" x="77.78" y="638.57"/>
  <use xlink:href="#v" x="77.78" y="631.97"/>
  <use xlink:href="#w" x="77.78" y="627.54"/>
  <use xlink:href="#x" x="77.78" y="622.51"/>
  <use xlink:href="#y" x="77.78" y="616.39"/>
  <use xlink:href="#z" x="135.55" y="583.8"/>
  <use xlink:href="#A" x="139.74" y="583.8"/>
  <use xlink:href="#B" x="144.78" y="583.8"/>
  <use xlink:href="#A" x="150.29" y="583.8"/>
  <use xlink:href="#C" x="233.95" y="632.94"/>
  <use xlink:href="#B" x="239.46" y="632.94"/>
  <use xlink:href="#D" x="244.97" y="632.94"/>
  <use xlink:href="#E" x="249.4" y="632.94"/>
  <use xlink:href="#F" x="253.83" y="632.94"/>
  <use xlink:href="#G" x="259.34" y="632.94"/>
  <use xlink:href="#A" x="264.85" y="632.94"/>
  <path fill="none" stroke="#000" stroke-linecap="round" stroke-linejoin="round" stroke-miterlimit="10" stroke-width=".5" d="M502.95 637.8h-212.2"/>
  <path d="M507.92 637.8a25 25 0 0 1-7.97-2.06l3 2.06-3 2.06a25 25 0 0 1 7.97-2.06"/>
  <g clip-path="url(#H)">
    <path fill="none" stroke="#000" stroke-linecap="round" stroke-linejoin="round" stroke-miterlimit="10" stroke-width=".5" d="M507.92 637.8a25 25 0 0 1-7.97-2.06l3 2.06-3 2.06a25 25 0 0 1 7.97-2.06m0 0"/>
  </g>
  <path fill="none" stroke="#000" stroke-linecap="round" stroke-linejoin="round" stroke-miterlimit="10" stroke-width=".5" d="M324.4 632.14v11.32m30.58-11.32v11.32m30.59-11.32v11.32m30.59-11.32v11.32m30.58-11.32v11.32m30.59-11.32v11.32m-168.23-8.49v5.66m30.59-5.66v5.66m30.58-5.66v5.66m30.59-5.66v5.66m30.59-5.66v5.66m30.59-5.66v5.66m30.58-5.66v5.66M293.8 523.84v117.93"/>
  <g clip-path="url(#I)">
    <path d="M293.8 518.87a25 25 0 0 1-2.05 7.97l2.05-3 2.07 3a25 25 0 0 1-2.07-7.97"/>
  </g>
  <g clip-path="url(#J)">
    <path fill="none" stroke="#000" stroke-linecap="round" stroke-linejoin="round" stroke-miterlimit="10" stroke-width=".5" d="M293.8 518.87a25 25 0 0 1-2.05 7.97l2.05-3 2.07 3a25 25 0 0 1-2.07-7.97m0 0"/>
  </g>
  <path fill="none" stroke="#000" stroke-linecap="round" stroke-linejoin="round" stroke-miterlimit="10" stroke-width=".5" d="M288.14 598.16h11.32m-11.32-39.65h11.32m-8.48 59.47h5.66m-5.66-39.65h5.66m-5.66-39.64h5.66"/>
  <path fill="none" stroke="#000" stroke-linecap="round" stroke-linejoin="round" stroke-miterlimit="10" stroke-width="1.49" d="M309.1 617.98h30.59l15.29-19.82 15.3-39.65 15.29-19.82h30.59l45.88 39.64h30.58"/>
  <path fill="none" stroke="#000" stroke-linecap="round" stroke-linejoin="round" stroke-miterlimit="10" stroke-width=".5" d="M310.3 617.98a1.2 1.2 0 1 0-2.4 0 1.2 1.2 0 0 0 2.4 0m30.58 0a1.2 1.2 0 1 0-2.39 0 1.2 1.2 0 0 0 2.4 0m15.29-19.82a1.2 1.2 0 1 0-2.4 0 1.2 1.2 0 0 0 2.4 0m15.29-39.65a1.2 1.2 0 1 0-2.4 0 1.2 1.2 0 0 0 2.4 0m15.3-19.82a1.2 1.2 0 1 0-2.4 0 1.2 1.2 0 0 0 2.4 0m30.58 0a1.2 1.2 0 1 0-2.39 0 1.2 1.2 0 0 0 2.4 0m45.87 39.64a1.2 1.2 0 1 0-2.39 0 1.2 1.2 0 0 0 2.4 0m30.58 0a1.2 1.2 0 1 0-2.4 0 1.2 1.2 0 0 0 2.4 0m0 0"/>
  <use xlink:href="#K" x="319.34" y="654.52"/>
  <use xlink:href="#L" x="324.37" y="654.52"/>
  <use xlink:href="#M" x="350.02" y="654.52"/>
  <use xlink:href="#L" x="355.05" y="654.52"/>
  <use xlink:href="#N" x="380.58" y="654.52"/>
  <use xlink:href="#L" x="385.62" y="654.52"/>
  <use xlink:href="#O" x="411.15" y="654.52"/>
  <use xlink:href="#L" x="416.18" y="654.52"/>
  <use xlink:href="#P" x="439.43" y="654.52"/>
  <use xlink:href="#L" x="444.47" y="654.52"/>
  <use xlink:href="#L" x="449.5" y="654.52"/>
  <use xlink:href="#P" x="469.99" y="654.52"/>
  <use xlink:href="#K" x="475.03" y="654.52"/>
  <use xlink:href="#L" x="480.06" y="654.52"/>
  <use xlink:href="#Q" x="475.51" y="626.35"/>
  <use xlink:href="#R" x="482.34" y="626.35"/>
  <use xlink:href="#S" x="486.17" y="626.35"/>
  <use xlink:href="#T" x="494.44" y="626.35"/>
  <use xlink:href="#U" x="497.2" y="626.35"/>
  <use xlink:href="#V" x="502.71" y="626.35"/>
  <use xlink:href="#L" x="272.47" y="602.14"/>
  <use xlink:href="#W" x="277.51" y="602.14"/>
  <use xlink:href="#K" x="280.26" y="602.14"/>
  <use xlink:href="#L" x="272.47" y="562.47"/>
  <use xlink:href="#W" x="277.51" y="562.47"/>
  <use xlink:href="#M" x="280.26" y="562.47"/>
  <use xlink:href="#X" x="310.11" y="546.05"/>
  <use xlink:href="#Y" x="310.11" y="535.02"/>
  <use xlink:href="#Z" x="310.11" y="531.19"/>
  <use xlink:href="#aa" x="310.11" y="524"/>
</svg>
