<svg xmlns="http://www.w3.org/2000/svg" xmlns:xlink="http://www.w3.org/1999/xlink" width="595.28" height="841.89" viewBox="0 0 595.28 841.89">
  <defs>
    <path id="a" d="M1.27-.77 2.3-1.8c1.57-1.37 2.16-1.9 2.16-2.9 0-1.13-.9-1.92-2.11-1.92-1.13 0-1.86.9-1.86 1.8 0 .55.5.55.53.55.16 0 .52-.12.52-.53a.5.5 0 0 0-.53-.51H.89c.22-.64.77-1 1.34-1 .91 0 1.33.8 1.33 1.6s-.5 1.6-1.04 2.21L.6-.37C.5-.28.5-.23.5 0h3.69l.28-1.73h-.25c-.05.3-.13.73-.22.89-.06.07-.72.07-.94.07Zm0 0"/>
    <path id="b" d="M4.58-3.19c0-.8-.05-1.6-.4-2.33a1.86 1.86 0 0 0-3.43.08 5 5 0 0 0-.36 2.25c0 .75.03 1.64.45 2.4.43.8 1.14 1 1.64 1 .54 0 1.29-.2 1.72-1.15.33-.68.38-1.47.38-2.25M2.48 0C2.1 0 1.5-.25 1.33-1.2c-.11-.6-.11-1.52-.11-2.1 0-.64 0-1.3.08-1.84.18-1.17.93-1.27 1.18-1.27.33 0 .99.18 1.18 1.16.09.56.09 1.31.09 1.95 0 .74 0 1.42-.1 2.05C3.5-.3 2.91 0 2.47 0m0 0"/>
    <path id="d" d="M2.92-1.64v.86c0 .36-.01.47-.75.47h-.22V0c.43-.03.94-.03 1.35-.03s.95 0 1.36.03v-.31h-.2c-.74 0-.77-.11-.77-.47v-.86h1v-.31h-1v-4.53c0-.2 0-.25-.16-.25-.1 0-.12 0-.2.1L.28-1.95v.3Zm.06-.31H.56l2.42-3.7Zm0 0"/>
    <path id="e" d="M1.31-3.27v-.23c0-2.52 1.24-2.87 1.75-2.87.24 0 .66.06.88.39-.16 0-.55 0-.55.45 0 .31.23.45.45.45.16 0 .46-.1.46-.47 0-.6-.44-1.08-1.27-1.08-1.26 0-2.6 1.29-2.6 3.49C.42-.48 1.57.22 2.5.22c1.1 0 2.05-.94 2.05-2.25 0-1.27-.9-2.22-1.99-2.22-.68 0-1.04.5-1.25.98M2.5-.07c-.62 0-.92-.59-.98-.74-.2-.47-.2-1.25-.2-1.44 0-.78.34-1.77 1.23-1.77.15 0 .62 0 .92.61.19.38.19.88.19 1.36s0 .99-.18 1.35c-.3.6-.75.64-.98.64m0 0"/>
    <path id="f" d="M1.63-4.55c-.46-.3-.5-.64-.5-.8 0-.62.64-1.03 1.35-1.03s1.36.52 1.36 1.24c0 .56-.39 1.05-.98 1.39Zm1.45.94c.72-.36 1.2-.87 1.2-1.53 0-.92-.89-1.49-1.8-1.49-.98 0-1.8.74-1.8 1.66 0 .19.02.63.44 1.1.11.12.49.37.72.54-.56.28-1.42.85-1.42 1.83C.42-.45 1.44.22 2.48.22c1.13 0 2.07-.83 2.07-1.9 0-.35-.11-.8-.49-1.21-.18-.22-.34-.31-.98-.72m-1 .42 1.22.78c.28.2.75.49.75 1.1 0 .73-.75 1.25-1.57 1.25C1.63-.06.92-.67.92-1.5c0-.58.31-1.22 1.16-1.69m0 0"/>
    <path id="h" d="M3.3 2.4c0-.04 0-.06-.17-.23C1.88.92 1.56-.97 1.56-2.48c0-1.74.38-3.47 1.61-4.72.13-.11.13-.13.13-.16q-.01-.11-.11-.1c-.1 0-.99.68-1.58 1.93a7 7 0 0 0-.63 3.05c0 .76.11 1.98.66 3.09A4.3 4.3 0 0 0 3.2 2.48q.1 0 .1-.09m0 0"/>
    <path id="i" d="M3.97-6.92c-.06-.14-.08-.2-.24-.2s-.18.06-.23.2L1.44-.97C1.25-.47.86-.3.3-.3V0a18 18 0 0 1 2.17 0v-.31c-.5 0-.75-.25-.75-.5 0-.03 0-.14.02-.16l.45-1.3h2.47L5.2-.75l.02.14c0 .3-.55.3-.81.3V0c.34-.03 1.04-.03 1.42-.03q.67 0 1.31.03v-.31h-.19c-.6 0-.73-.06-.84-.4Zm-.53 1.1 1.12 3.24H2.31Zm0 0"/>
    <path id="j" d="M2.88-2.48c0-.79-.11-1.99-.66-3.11A4.4 4.4 0 0 0 .67-7.47a.1.1 0 0 0-.1.11c0 .03 0 .05.18.22.98.98 1.55 2.58 1.55 4.66 0 1.7-.36 3.45-1.6 4.7-.14.12-.14.14-.14.17q.01.1.11.1c.1 0 .99-.68 1.58-1.94.5-1.1.63-2.2.63-3.03m0 0"/>
    <path id="l" d="M6.19-5.83c.12-.36.4-.65 1.08-.65v-.32a22 22 0 0 1-2.1 0v.32c.52 0 .72.26.72.5q-.01.1-.05.18L4.02-1l-1.9-5.02c-.06-.14-.06-.17-.06-.18 0-.28.56-.28.82-.28v-.32c-.36.03-1.05.03-1.43.03Q.73-6.77.2-6.8v.32c.65 0 .84 0 .98.37L3.47 0c.08.19.12.22.25.22.17 0 .19-.05.25-.19Zm0 0"/>
    <path id="c" d="M1.9-.53a.53.53 0 0 0-.5-.53c-.3 0-.54.25-.54.53a.52.52 0 1 0 1.05 0m0 0"/>
    <path id="g" d="M3.72-6.03c.1-.36.12-.45.9-.45.24 0 .33 0 .33-.2 0-.12-.1-.12-.15-.12l-1.32.03-1.32-.03c-.07 0-.2 0-.2.2 0 .12.09.12.27.12.43 0 .7 0 .7.18l-.02.16L1.56-.78c-.1.37-.12.47-.9.47-.24 0-.32 0-.32.2 0 .11.11.11.14.11L1.8-.03 3.13 0c.07 0 .2 0 .2-.19 0-.12-.08-.12-.3-.12-.19 0-.23 0-.44-.02-.2-.01-.25-.06-.25-.17l.05-.23Zm0 0"/>
    <path id="k" d="M6.31-5.75c.11-.4.28-.7 1.08-.73.05 0 .17-.02.17-.2 0-.02 0-.12-.12-.12l-1.02.03L5.4-6.8c-.06 0-.19 0-.19.2 0 .12.11.12.2.12.55 0 .66.21.66.43l-.03.2-.9 3.55C4.8-.95 3.66-.1 2.66-.1c-.68 0-1.22-.43-1.22-1.3 0 0 0-.32.1-.76l.98-3.87c.09-.36.1-.45.84-.45.25 0 .33 0 .33-.2 0-.12-.11-.12-.14-.12l-1.27.03L1-6.8c-.08 0-.19 0-.19.2 0 .12.08.12.27.12l.39.01c.17.02.26.03.26.16 0 .06-.1.48-.17.7l-.22.88-.6 2.46c-.07.29-.07.43-.07.58 0 1.2.9 1.9 1.96 1.9C3.88.22 5.1-.9 5.43-2.21Zm0 0"/>
  </defs>
  <path fill="none" stroke="#7f7f7f" stroke-linecap="round" stroke-linejoin="round" stroke-miterlimit="10" stroke-width=".5" d="M291.53 525.57V341.01m-20.51 164.05h194.82m-153.8 20.51V341.01m-41.02 143.54h194.82m-133.3 41.02V341.01m-61.52 123.04h194.82m-112.79 61.52V341.01m-82.03 102.53h194.82m-92.29 82.03V341.01m-102.53 82.03h194.82m-71.78 102.53V341.01m-123.04 61.52h194.82m-51.27 123.04V341.01m-143.55 41.01h194.82m-30.76 143.55V341.01m-164.06 20.5h194.82m-10.26 164.06V341.01M271.02 341h194.82"/>
  <path fill="none" stroke="#000" stroke-linecap="round" stroke-linejoin="round" stroke-miterlimit="10" stroke-width=".5" d="M312.04 523.52v4.1m-38.97-43.07h-4.1m84.08 38.97v4.1m-79.98-84.08h-4.1m125.09 79.98v4.1M273.07 402.53h-4.1m166.11 120.99v4.1M273.07 361.51h-4.1m2.05-25.78v189.84"/>
  <path d="M271.02 330.75a25 25 0 0 1-2.06 7.97l2.06-3 2.06 3a25 25 0 0 1-2.06-7.97"/>
  <path fill="none" stroke="#000" stroke-linecap="round" stroke-linejoin="round" stroke-miterlimit="10" stroke-width=".5" d="M271.02 330.75a25 25 0 0 1-2.06 7.97l2.06-3 2.06 3a25 25 0 0 1-2.06-7.97m200.1 194.82h-200.1"/>
  <path d="M476.09 525.57a25 25 0 0 1-7.97-2.06l3 2.06-3 2.06a25 25 0 0 1 7.97-2.06"/>
  <path fill="none" stroke="#000" stroke-linecap="round" stroke-linejoin="round" stroke-miterlimit="10" stroke-width=".5" d="M476.09 525.57a25 25 0 0 1-7.97-2.06l3 2.06-3 2.06a25 25 0 0 1 7.97-2.06m0 0"/>
  <path fill="none" stroke="#000" stroke-linecap="round" stroke-linejoin="round" stroke-miterlimit="10" stroke-width="1.49" d="m271.02 525.57 68.96-137.91m29.95-22.12-.19.03-.19.03-.2.04-.18.03-.19.04-.19.03-.19.04-.19.04-.19.04-.18.04-.2.04-.75.17-.75.2-.18.04-.2.05-.18.05-.18.05-.19.05-.37.11-.18.06-.19.05-.19.06-.55.18-.18.06-.18.06-.19.06-.18.06-.18.07-.18.06-.18.07-.19.07-.18.06-.18.07-.18.07-.18.07-.18.07-.18.07-.53.22-.18.08-.18.07-.35.16-.18.08-.18.07-.17.09-.18.07-.17.09-.18.08-.17.08-.17.09-.18.08-.34.17-.18.09-.17.09-.17.09-.17.08-.17.1-.17.09-.17.09-.17.1-.17.09-.17.1-.17.09-.16.1-.34.19-.17.1-.32.2-.17.1-.17.1-.16.1-.32.2-.17.11-.32.21-.16.11-.16.1-.16.12-.32.21-.16.12-.16.1-.78.57-.15.12-.16.12-.3.23-.15.12-.16.12-.15.12-.15.12-.15.12-.15.13-.3.24-.3.25-.14.13-.14.12-.15.13-.14.13-.3.26-.13.13-.15.13-.14.13-.42.4-.14.13-.14.14-.13.13-.14.13-.14.14-.13.14-.14.14-.13.14-.14.14-.13.13-.27.28-.13.15-.13.14-.13.14-.13.14-.38.44-.13.15-.13.14-.12.15-.13.14-.12.15-.12.15-.13.15-.24.3-.24.3-.12.16-.12.15-.12.15-.11.16-.12.15-.11.16-.12.15-.11.16-.11.16-.23.3-.1.17-.12.15-.11.16-.1.16-.12.16-.1.16-.11.16-.1.17-.11.16-.1.16-.11.17-.4.65-.1.17-.1.17-.1.16-.1.17-.2.33-.27.5-.1.18-.09.17-.36.68-.08.18-.1.17m29.95-22.11 95.9-15.98"/>
  <use xlink:href="#a" x="309.51" y="536.99"/>
  <use xlink:href="#b" x="253.29" y="487.73"/>
  <use xlink:href="#c" x="258.33" y="487.73"/>
  <use xlink:href="#a" x="261.09" y="487.73"/>
  <use xlink:href="#d" x="350.62" y="536.99"/>
  <use xlink:href="#b" x="253.29" y="446.74"/>
  <use xlink:href="#c" x="258.33" y="446.74"/>
  <use xlink:href="#d" x="261.09" y="446.74"/>
  <use xlink:href="#e" x="391.61" y="536.99"/>
  <use xlink:href="#b" x="253.29" y="405.75"/>
  <use xlink:href="#c" x="258.33" y="405.75"/>
  <use xlink:href="#e" x="261.09" y="405.75"/>
  <use xlink:href="#f" x="432.6" y="536.99"/>
  <use xlink:href="#b" x="253.29" y="364.76"/>
  <use xlink:href="#c" x="258.33" y="364.76"/>
  <use xlink:href="#f" x="261.09" y="364.76"/>
  <use xlink:href="#g" x="259.17" y="325.21"/>
  <use xlink:href="#h" x="267.68" y="325.21"/>
  <use xlink:href="#i" x="271.51" y="325.21"/>
  <use xlink:href="#j" x="278.94" y="325.21"/>
  <use xlink:href="#k" x="479.1" y="528"/>
  <use xlink:href="#h" x="490.25" y="528"/>
  <use xlink:href="#l" x="494.08" y="528"/>
  <use xlink:href="#j" x="501.51" y="528"/>
</svg>
