<svg xmlns="http://www.w3.org/2000/svg" xmlns:xlink="http://www.w3.org/1999/xlink" width="595.28" height="841.89" viewBox="0 0 595.28 841.89">
  <defs>
    <clipPath id="e">
      <path d="M25 .83h3V154h-3Zm0 0"/>
    </clipPath>
    <clipPath id="f">
      <path d="M25 .83h5V3h-5Zm0 0"/>
    </clipPath>
    <clipPath id="g">
      <path d="M28 .83h2V154h-2Zm0 0"/>
    </clipPath>
    <clipPath id="h">
      <path d="M53 .83h64V70H53Zm0 0"/>
    </clipPath>
    <clipPath id="w">
      <path d="M55 181h8v7.12h-8Zm0 0"/>
    </clipPath>
    <clipPath id="y">
      <path d="M64 187h2v1.12h-2Zm0 0"/>
    </clipPath>
    <clipPath id="A">
      <path d="M322 .83h2V154h-2Zm0 0"/>
    </clipPath>
    <clipPath id="B">
      <path d="M322 .83h5V3h-5Zm0 0"/>
    </clipPath>
    <clipPath id="C">
      <path d="M324 .83h3V154h-3Zm0 0"/>
    </clipPath>
    <clipPath id="D">
      <path d="M349 .83h64V70h-64Zm0 0"/>
    </clipPath>
    <clipPath id="E">
      <path d="M358 181h8v7.12h-8Zm0 0"/>
    </clipPath>
    <clipPath id="G">
      <path d="M366 186h3v2.12h-3Zm0 0"/>
    </clipPath>
    <clipPath id="I">
      <path d="M166 .83h2V154h-2Zm0 0"/>
    </clipPath>
    <clipPath id="J">
      <path d="M166 .83h5V3h-5Zm0 0"/>
    </clipPath>
    <clipPath id="K">
      <path d="M169 .83h2V154h-2Zm0 0"/>
    </clipPath>
    <clipPath id="L">
      <path d="M194 .83h63V70h-63Zm0 0"/>
    </clipPath>
    <clipPath id="M">
      <path d="M202 181h9v7.12h-9Zm0 0"/>
    </clipPath>
    <clipPath id="O">
      <path d="M211 186h3v2.12h-3Zm0 0"/>
    </clipPath>
    <clipPath id="U">
      <path d="M.46 168h429.48v2H.46Zm0 0"/>
    </clipPath>
    <clipPath id="V">
      <path d="M.74 168.52h428.92v5.99H.74Zm0 0"/>
    </clipPath>
    <clipPath id="b">
      <path d="M0 0h4v15H0Zm0 0"/>
    </clipPath>
    <clipPath id="a">
      <path d="M0 0h4v15H0z"/>
    </clipPath>
    <clipPath id="c">
      <path d="M0 0h430v189H0z"/>
    </clipPath>
    <path id="i" d="M.25 0c.58-.03.9-.03 1.05-.03h.04q.59 0 1.16.03v-.23h-.08c-.58 0-.69-.07-.69-.46v-3c0-.3.07-.39.38-.39H3.3c.43 0 .5.05.5.46v2.81c0 .47-.02.58-.72.58h-.05V0c.58-.03.9-.03 1.05-.03h.03q.57 0 1.16.03v-.23h-.08C4.6-.23 4.5-.3 4.5-.7v-2.9c0-.39.1-.47.7-.47h.07v-.22H.25v.22h.06c.6 0 .7.08.72.47v2.92c0 .4-.1.46-.7.46H.25Zm0 0"/>
    <path id="j" d="M.27 1.64v.31q.84-.04 1.04-.03h.05q.57 0 1.16.03v-.3h-.07c-.6 0-.7-.06-.7-.48V-.5c.13.16.48.6 1.23.6C4.08.1 5.2-.8 5.2-2.15c0-1.28-.98-2.25-2.1-2.25-.16 0-.85.02-1.38.66v-.66l-1.45.1v.32H.4c.48.01.64.03.64.56v4.55c0 .4-.02.51-.67.51Zm1.48-2.78v-2q-.02-.12 0-.2c.08-.24.56-.82 1.27-.82.78 0 1.36.94 1.36 2.02 0 1.1-.63 2.02-1.46 2.02-.58 0-1.17-.52-1.17-1.02m0 0"/>
    <path id="k" d="M.42-.95C.42-.15 1.4.1 2.02.1c.65 0 1.12-.4 1.3-.88.04.41.32.83.79.83.2 0 .81-.14.81-.95v-.56h-.25v.56c0 .58-.25.64-.36.64-.33 0-.37-.45-.37-.5v-2c0-.42 0-.8-.36-1.17-.4-.4-.88-.55-1.36-.55C1.39-4.47.7-4 .7-3.34c0 .3.2.46.47.46.28 0 .46-.2.46-.45 0-.12-.05-.45-.5-.47.26-.34.75-.45 1.07-.45.49 0 1.05.4 1.05 1.28v.36c-.5.03-1.2.06-1.83.36-.75.34-1 .86-1 1.3m.77 0c0-.55.42-1.4 2.06-1.44v1c0 .94-.72 1.28-1.16 1.28-.5 0-.9-.34-.9-.84m0 0"/>
    <path id="l" d="M.22-1.12C.22-.75.45.1 1.97.1c1.75 0 2.12-.78 2.12-1.3 0-.7-.76-1.06-1.42-1.18.66-.2 1.31-.46 1.31-.99 0-.44-.37-1.1-2-1.1-.71 0-1 .16-1.18.3-.14-.1-.32-.28-.43-.28q-.09-.01-.1.19v.58c0 .34.01.39.1.42h.04c.26 0 .06-.98 1.54-.98 1.02 0 1.25.53 1.25.87 0 .36-.3.9-1.2.9h-.31c-.14 0-.3 0-.3.1s.13.11.28.11h.17c1.25 0 1.46.63 1.46 1.05S3.05-.16 1.92-.16c-.5 0-.89-.07-1.15-.36-.4-.39-.2-.76-.43-.76q-.1 0-.12.16m0 0"/>
    <path id="m" d="M.28-2.2A2.25 2.25 0 0 0 2.47.1a1.7 1.7 0 0 0 1.67-1.28c0-.1-.08-.12-.12-.12-.1 0-.11.06-.13.14C3.53-.14 2.64-.14 2.53-.14c-.5 0-.89-.3-1.12-.67-.3-.47-.3-1.14-.3-1.5h2.78c.22 0 .25 0 .25-.2 0-.99-.53-1.96-1.78-1.96C1.2-4.47.28-3.44.28-2.2m.85-.32c.04-1.48.89-1.73 1.23-1.73 1.03 0 1.12 1.34 1.12 1.73Zm0 0"/>
    <path id="n" d="M.25 0c.58-.03.9-.03 1.05-.03h.04q.59 0 1.16.03v-.23h-.05c-.6 0-.72-.05-.72-.47v-1.55H3.8V-.7c0 .4-.13.47-.72.47h-.05V0c.58-.03.9-.03 1.05-.03h.03q.57 0 1.16.03v-.23h-.08C4.6-.23 4.5-.3 4.5-.7v-2.9c0-.39.1-.47.7-.47h.07v-.22q-.58.04-1.14.03-.57 0-1.1-.03v.22h.03c.58 0 .74.05.74.47v1.14H1.73V-3.6c0-.42.16-.47.74-.47h.03v-.22q-.6.04-1.14.03-.56 0-1.11-.03v.22h.06c.6 0 .7.08.72.47v2.92c0 .4-.1.46-.7.46H.25Zm0 0"/>
    <path id="o" d="M.34-2.16A2.2 2.2 0 0 0 2.48.11c1.35 0 1.66-1.2 1.66-1.3s-.1-.1-.12-.1c-.1 0-.11.04-.13.1-.3.92-.94 1.05-1.31 1.05-.53 0-1.4-.42-1.4-2.03 0-1.63.8-2.05 1.34-2.05.09 0 .71 0 1.06.36-.4.03-.47.33-.47.47 0 .25.19.45.47.45.25 0 .45-.17.45-.47 0-.67-.75-1.06-1.53-1.06C1.27-4.47.34-3.39.34-2.16m0 0"/>
    <path id="p" d="M.25-2.69H.5c.06-.98.13-1.39 1.13-1.39.4 0 .51 0 .51.4v3c0 .38-.1.45-.69.45h-.07V0h2.56c1.1 0 1.83-.56 1.83-1.25 0-.45-.41-1.22-1.91-1.22H2.84V-3.5l-.01-.17c0-.36.12-.4.39-.4v-.23H.36Zm2.58 2 .01-.19v-1.37h.86c.92 0 1.22.6 1.22.98 0 .41-.3 1.02-1.22 1.02h-.56c-.23 0-.31-.05-.31-.44m0 0"/>
    <path id="q" d="M.02 1.63h.25C.37.47.45 0 1.63 0h2.3c1.18 0 1.23.52 1.34 1.63h.25L5.36-.24h-.1c-.63 0-.74-.07-.76-.46v-2.9c.02-.39.1-.47.7-.47h.08v-.22H1.2v.22h.07c.53 0 .71.05.71.44 0 .1 0 .6-.04 1.02C1.78-.94 1.16-.6 1.08-.54c-.35.28-.47.3-.9.3ZM1.36-.31c0-.11.14-.27.23-.38.63-.92.61-2.28.64-2.95.02-.33.02-.44.46-.44h.75c.34 0 .36.14.36.47v2.99c0 .32-.1.39-.4.39H1.57c-.1 0-.2 0-.2-.08m0 0"/>
    <path id="r" d="M.25 0H3.8c.37 0 .8 0 1.1.27.3.3.32.96.37 1.36h.25L5.36-.24h-.11c-.62 0-.75-.07-.75-.46v-2.9c0-.39.13-.47.72-.47h.05v-.22q-.53.04-1.08.03-.59 0-1.16-.03v.22h.05c.6 0 .7.06.72.47v3c-.02.3-.08.38-.4.38H2.21c-.47 0-.49-.07-.49-.44v-2.81c0-.49.02-.6.72-.6h.05v-.22c-.55.03-.86.03-1.08.03q-.59 0-1.17-.03v.22H.3c.6 0 .7.06.72.47v2.92c0 .4-.1.46-.7.46H.25Zm0 0"/>
    <path id="s" d="M.25 0c.58-.03.9-.03 1.05-.03h.04q.59 0 1.16.03v-.23h-.14c-.25 0-.63.01-.63-.33 0-.13.08-.2.16-.3 1.53-1.9 1.72-2.16 1.9-2.39v2.58c0 .39-.15.44-.73.44h-.03V0c.58-.03.9-.03 1.05-.03h.03q.57 0 1.16.03v-.23h-.08C4.6-.23 4.5-.3 4.5-.7v-2.9c0-.39.1-.47.7-.47h.07v-.22q-.58.04-1.14.03-.57 0-1.1-.03v.22h.14c.31.02.63.03.63.35 0 .12-.1.2-.16.3-1.53 1.9-1.73 2.15-1.9 2.38v-2.6c0-.38.15-.43.71-.43h.05v-.22q-.6.04-1.14.03-.56 0-1.11-.03v.22h.06c.6 0 .7.08.72.47v2.92c0 .4-.1.46-.7.46H.25Zm0 0"/>
    <path id="t" d="M.19-.62c0 .46.36.78.83.78.73 0 1.12-.72 1.2-3.24.03-.83-.06-1 .47-1h.73c.38 0 .38.11.38.58v2.8c0 .39-.1.47-.7.47h-.07V0c.58-.03.9-.03 1.05-.03h.04q.59 0 1.16.03v-.23H5.2c-.6 0-.68-.07-.7-.46V-3.6c.02-.39.1-.47.72-.47h.06v-.22h-4.1v.22h.04c.56 0 .76.05.76.44v.6C1.9-.88 1.6-.1 1-.1a.6.6 0 0 1-.4-.14c.38-.05.43-.3.43-.43 0-.32-.3-.4-.4-.4a.42.42 0 0 0-.44.44m0 0"/>
    <path id="u" d="M.28-2.14a2.2 2.2 0 1 0 4.42 0c0-1.28-1-2.33-2.2-2.33A2.3 2.3 0 0 0 .28-2.14m.83-.08c0-.39 0-.92.23-1.36a1.3 1.3 0 0 1 2.27-.03c.26.44.26 1.02.26 1.4 0 .35 0 .9-.21 1.34-.22.45-.66.73-1.16.73-.44 0-.87-.2-1.14-.67-.25-.44-.25-1.05-.25-1.4m0 0"/>
    <path id="v" d="M.3 0a18 18 0 0 1 1.84 0v-.23c-.67-.02-.78-.35-.78-.82v-2.92L2.94-.25q.08.22.2.23c.05 0 .14-.06.19-.21l1.44-3.38.18-.44v3.32c0 .34-.01.5-.62.5h-.14V0l1.04-.03q.56 0 1.11.03v-.23h-.07c-.58 0-.7-.08-.7-.46V-3.6c0-.39.12-.47.71-.47h.06v-.22H5.08c-.25 0-.27.1-.36.33A88 88 0 0 0 3.34-.73c-.12-.33-.26-.66-1.36-3.24-.12-.25-.12-.33-.37-.33H.3v.22h.04c.7 0 .74.11.74.52v2.53c0 .47-.13.78-.78.8Zm0 0"/>
    <path id="P" d="M.25-4.08c.6 0 .78.03.78.49v.89c.1.56.7.8 1.35.8q.87 0 1.42-.24v1.4c0 .43-.07.5-.74.5h-.03V0c.58-.03.9-.03 1.05-.03h.03q.57 0 1.16.03v-.23h-.08C4.6-.23 4.5-.3 4.5-.7v-2.9c0-.39.1-.47.7-.47h.07v-.22q-.58.04-1.14.03-.57 0-1.1-.03v.22h.03c.63 0 .74.06.74.49v1.23c-.24.11-.49.22-1.25.25h-.16c-.17 0-.66-.03-.66-.78v-.69c0-.42.07-.5.72-.5h.05v-.22q-.6.04-1.14.03-.56 0-1.11-.03Zm0 0"/>
    <path id="Q" d="M.25 0h7.52v-.23h-.08c-.6 0-.69-.07-.7-.46V-3.6c.01-.39.1-.47.7-.47h.08v-.22q-.58.04-1.14.03-.57 0-1.11-.03v.22h.07c.6 0 .7.08.7.47v3c0 .36-.13.38-.41.38H4.86c-.5 0-.5-.08-.5-.44v-2.81c0-.49.01-.6.72-.6h.04v-.22q-.56.04-1.14.03-.55 0-1.09-.03v.22h.06c.6 0 .7.08.7.47v3c0 .36-.13.38-.4.38H2.22c-.49 0-.49-.1-.49-.44v-2.81c0-.49.02-.6.72-.6h.05v-.22q-.6.04-1.14.03-.56 0-1.11-.03v.22h.06c.6 0 .7.08.72.47v2.92c0 .4-.1.46-.7.46H.25Zm0 0"/>
    <path id="S" d="M.27 0h2.62l.4-.02c.79-.09 1.37-.62 1.37-1.21 0-.55-.7-.96-1.41-1.13.38-.1 1.19-.39 1.19-.92 0-.38-.4-1.02-1.82-1.02H.27v.22h.07c.58 0 .7.08.7.47v2.92c0 .4-.1.46-.7.46H.27Zm1.48-.69v-1.56h1.06c.83 0 1.03.66 1.03 1S3.61-.23 2.67-.23h-.45c-.31 0-.47.04-.47-.46m0-1.78v-1.17c0-.44.13-.44.45-.44h.5c.7 0 .94.5.94.8 0 .47-.5.81-1.2.81Zm0 0"/>
    <path id="T" d="M.25 0q.78-.04 1.1-.03L2.46 0v-.23h-.05c-.73 0-.72-.08-.72-.7v-.7c0-.2-.01-.15.7-.71C3.2-1.27 3.76-.77 3.76-.45c0 .18-.17.22-.34.22V0q.53-.03 1.06-.03l.9.03v-.23c-.65 0-.54-.04-2.48-2.5.8-.58 1.47-1.3 2.25-1.35v-.22l-.42.03-1.25-.03v.22c.08.03.17.08.17.19s-.08.22-.14.31c-.12.14-.12.14-1.8 1.47v-1.47c0-.44.13-.5.72-.5h.05v-.22c-.53.03-.86.03-1.08.03q-.56 0-1.14-.03v.22h.06c.6 0 .7.08.72.47v2.92c0 .4-.1.46-.7.46H.25Zm0 0"/>
    <path id="x" d="M.4 0a33 33 0 0 1 2.5 0v-.47c-.02 0-.9 0-.9-.12 0-.02.03-.11.05-.13l.5-1.2h2.67l.6 1.45h-.95V0c.38-.03 1.33-.03 1.76-.03.4 0 1.28 0 1.62.03v-.47h-.97L4.73-6.7c-.1-.27-.23-.27-.4-.27-.28 0-.31.08-.4.27l-2.46 6c-.06.15-.1.23-.84.23H.4Zm2.35-2.4 1.14-2.77L5.02-2.4Zm0 0"/>
    <path id="F" d="M.4 0h4.62c1.65 0 2.5-.87 2.5-1.86 0-.95-.86-1.62-2.05-1.72 1.08-.19 1.73-.78 1.73-1.54 0-.93-.87-1.72-2.48-1.72H.39v.46h1.08v5.91H.39Zm2.38-.47v-2.92h1.94c.19 0 .66 0 1 .44.33.42.33.97.33 1.1 0 .1 0 1.38-1.44 1.38Zm0-3.28v-2.62H4.6c1 0 1.2.78 1.2 1.25 0 .76-.5 1.37-1.46 1.37Zm0 0"/>
    <path id="N" d="M.4 0h4.4q.29 0 .57-.02C7.08-.17 7.52-1.28 7.52-2c0-.81-.57-2.03-2.8-2.03-.4 0-1.17.05-1.94.2v-2.54h1.53c1.6 0 1.92.57 2.1 1.93h.46l-.3-2.4H.4v.46h1.08v5.9H.39Zm2.38-.48v-2.88c.33-.05.97-.14 1.61-.14 1.3 0 1.6.9 1.6 1.52 0 .6-.27 1.5-1.38 1.5Zm0 0"/>
    <path id="z" d="M.84-.53c0 .26.22.53.54.53.26 0 .51-.22.51-.53a.5.5 0 0 0-.51-.52.5.5 0 0 0-.54.52m0 0"/>
    <path id="H" d="M.81-.78a.77.77 0 1 0 1.55 0 .77.77 0 0 0-.77-.78.8.8 0 0 0-.78.78m0 0"/>
    <g id="X" clip-path="url(#a)">
      <g clip-path="url(#b)">
        <path fill="none" stroke="#000" stroke-width="755.91" d="M281.08 7422.26 6571.92 249.74" transform="scale(.00058 .00196)"/>
      </g>
    </g>
    <g id="Y" clip-path="url(#c)">
      <path fill="none" stroke="#000" stroke-linecap="round" stroke-linejoin="round" stroke-miterlimit="10" stroke-width="1.42" d="M84.71 15.43v56.34M2.6 163.22h50.53m0 0v5.05m0 0H2.6m0 0v-5.05m22.74 0v-10.1m0-.01h5.06m0 0v10.11"/>
      <g clip-path="url(#e)">
        <path fill="none" stroke="#000" stroke-linecap="round" stroke-linejoin="round" stroke-miterlimit="10" stroke-width="1.42" d="M26.6 153.11V1.54"/>
      </g>
      <g clip-path="url(#f)">
        <path fill="none" stroke="#000" stroke-linecap="round" stroke-linejoin="round" stroke-miterlimit="10" stroke-width="1.42" d="M26.6 1.54h2.53"/>
      </g>
      <g clip-path="url(#g)">
        <path fill="none" stroke="#000" stroke-linecap="round" stroke-linejoin="round" stroke-miterlimit="10" stroke-width="1.42" d="M29.13 1.54V153.1"/>
      </g>
      <path fill="none" stroke="#000" stroke-linecap="round" stroke-linejoin="round" stroke-miterlimit="10" stroke-width="1.42" d="M15.24 12.91h101.05m0 0v2.52m0 0H15.24m0 0v-2.52m61.89 58.86H92.3m-.01 0v28.3m0 0H77.13m0 0v-28.3"/>
      <path fill-opacity=".3" stroke="#000" stroke-linecap="round" stroke-linejoin="round" stroke-miterlimit="10" stroke-width="1.42" d="M77.13 140.48H92.3v25.27H77.13Zm0 0"/>
      <path fill="none" stroke="#000" stroke-linecap="round" stroke-linejoin="round" stroke-miterlimit="10" stroke-width="1.42" d="M84.71 140.48v-40.41"/>
      <path fill="#fff" stroke="#000" stroke-linecap="round" stroke-linejoin="round" stroke-miterlimit="10" stroke-width="1.42" d="M25.34 11.64h5.06v5.06h-5.06Zm0 0"/>
      <g clip-path="url(#h)">
        <path fill="none" stroke="#000" stroke-width="5.52" d="m84.71 15.43.13 22.64"/>
      </g>
      <use xlink:href="#i" x="102.77" y="81.1"/>
      <use xlink:href="#j" x="108.31" y="81.1"/>
      <use xlink:href="#k" x="113.86" y="81.1"/>
      <use xlink:href="#l" x="118.85" y="81.1"/>
      <use xlink:href="#m" x="123.28" y="81.1"/>
      <use xlink:href="#n" x="127.72" y="81.1"/>
      <use xlink:href="#o" x="102.77" y="93.59"/>
      <use xlink:href="#p" x="107.2" y="93.59"/>
      <use xlink:href="#q" x="113.31" y="93.59"/>
      <use xlink:href="#r" x="102.75" y="156.5"/>
      <use xlink:href="#s" x="108.29" y="156.5"/>
      <use xlink:href="#t" x="113.84" y="156.5"/>
      <use xlink:href="#s" x="119.38" y="156.5"/>
      <use xlink:href="#n" x="124.92" y="156.5"/>
      <use xlink:href="#q" x="130.47" y="156.5"/>
      <use xlink:href="#p" x="136.01" y="156.5"/>
      <use xlink:href="#j" x="142.11" y="156.5"/>
      <use xlink:href="#o" x="102.68" y="28.02"/>
      <use xlink:href="#s" x="107.11" y="28.02"/>
      <use xlink:href="#t" x="112.66" y="28.02"/>
      <use xlink:href="#u" x="118.2" y="28.02"/>
      <use xlink:href="#v" x="123.19" y="28.02"/>
      <use xlink:href="#m" x="129.86" y="28.02"/>
      <use xlink:href="#j" x="134.29" y="28.02"/>
      <g clip-path="url(#w)">
        <use xlink:href="#x" x="54.59" y="188.12"/>
      </g>
      <g clip-path="url(#y)">
        <use xlink:href="#z" x="63.27" y="188.12"/>
      </g>
      <path fill="none" stroke="#000" stroke-linecap="round" stroke-linejoin="round" stroke-miterlimit="10" stroke-width="1.42" d="M298.95 163.22h50.53m0 0v5.05m0 0h-50.53m0 0v-5.05m22.75 0v-10.1m0-.01h5.04m0 0v10.11"/>
      <g clip-path="url(#A)">
        <path fill="none" stroke="#000" stroke-linecap="round" stroke-linejoin="round" stroke-miterlimit="10" stroke-width="1.42" d="M322.95 153.11V1.54"/>
      </g>
      <g clip-path="url(#B)">
        <path fill="none" stroke="#000" stroke-linecap="round" stroke-linejoin="round" stroke-miterlimit="10" stroke-width="1.42" d="M322.95 1.54h2.53"/>
      </g>
      <g clip-path="url(#C)">
        <path fill="none" stroke="#000" stroke-linecap="round" stroke-linejoin="round" stroke-miterlimit="10" stroke-width="1.42" d="M325.48 1.54V153.1"/>
      </g>
      <path fill="none" stroke="#000" stroke-linecap="round" stroke-linejoin="round" stroke-miterlimit="10" stroke-width="1.42" d="M311.59 12.91h101.05m0 0v2.52m0 0H311.59m0 0v-2.52m89.68 94.73h-40.42m40.42 10.11 15.15 12.63m0 0v7.58m0 0-15.15-7.58m0-12.63v-10.1M427.8 143v25.27m0 0h-15.16m0 0v-25.26m-39.16-71.24h15.16"/>
      <path fill-opacity=".3" stroke="#000" stroke-linecap="round" stroke-linejoin="round" stroke-miterlimit="10" stroke-width="1.42" d="M373.48 140.48h15.16v25.27h-15.16Zm0 0"/>
      <path fill="none" stroke="#000" stroke-linecap="round" stroke-linejoin="round" stroke-miterlimit="10" stroke-width="1.42" d="M381.06 140.48v-40.41m0-84.64v56.34M412.64 143v-3.02M427.8 143v-3.02m-15.16 0h15.15"/>
      <path fill="#0000c8" fill-opacity=".5" d="M360.85 130.38h40.42v37.9h-40.42Zm0 0"/>
      <path fill="none" stroke="#000" stroke-linecap="round" stroke-linejoin="round" stroke-miterlimit="10" stroke-width="1.42" d="M360.85 107.64v60.63m40.42 0v-37.9m-40.42 37.9h40.42"/>
      <path fill="#0000c8" fill-opacity=".5" d="M373.48 74.8h15.16v25.27h-15.16Zm0 0"/>
      <path fill="none" stroke="#000" stroke-linecap="round" stroke-linejoin="round" stroke-miterlimit="10" stroke-width="1.42" d="M388.64 71.77v28.3m0 0h-15.16m0 0v-28.3"/>
      <path fill="#fff" stroke="#000" stroke-linecap="round" stroke-linejoin="round" stroke-miterlimit="10" stroke-width="1.42" d="M321.7 11.64h5.04v5.06h-5.05Zm0 0"/>
      <g clip-path="url(#D)">
        <path fill="none" stroke="#000" stroke-width="5.52" d="m381.06 15.43.13 22.64"/>
      </g>
      <g clip-path="url(#E)">
        <use xlink:href="#F" x="357.91" y="188.12"/>
      </g>
      <g clip-path="url(#G)">
        <use xlink:href="#H" x="366.08" y="188.12"/>
      </g>
      <path fill="none" stroke="#000" stroke-linecap="round" stroke-linejoin="round" stroke-miterlimit="10" stroke-width="1.42" d="M143.2 163.22h50.53m0 0v5.05m0 0H143.2m0 0v-5.05m22.74 0v-10.1m0-.01h5.05m.01 0v10.11"/>
      <g clip-path="url(#I)">
        <path fill="none" stroke="#000" stroke-linecap="round" stroke-linejoin="round" stroke-miterlimit="10" stroke-width="1.42" d="M167.2 153.11V1.54"/>
      </g>
      <g clip-path="url(#J)">
        <path fill="none" stroke="#000" stroke-linecap="round" stroke-linejoin="round" stroke-miterlimit="10" stroke-width="1.42" d="M167.2 1.54h2.53"/>
      </g>
      <g clip-path="url(#K)">
        <path fill="none" stroke="#000" stroke-linecap="round" stroke-linejoin="round" stroke-miterlimit="10" stroke-width="1.42" d="M169.73 1.54V153.1"/>
      </g>
      <path fill="none" stroke="#000" stroke-linecap="round" stroke-linejoin="round" stroke-miterlimit="10" stroke-width="1.42" d="M155.83 12.91h101.05m0 0v2.52m0 0H155.83m0 0v-2.52m89.69 94.73h-40.43m40.43 10.11 15.15 12.63m0 0v7.58m0 0-15.15-7.58m0-12.63v-10.1"/>
      <path fill="#0000c8" fill-opacity=".5" stroke="#000" stroke-linecap="round" stroke-linejoin="round" stroke-miterlimit="10" stroke-width="1.42" d="M272.04 143v25.27h-15.16v-25.26"/>
      <path fill="none" stroke="#000" stroke-linecap="round" stroke-linejoin="round" stroke-miterlimit="10" stroke-width="1.42" d="M217.73 61.66h15.15m0 0v28.3m0 0h-15.15m0 0v-28.3"/>
      <path fill-opacity=".3" d="M217.73 133.38h15.15v25.26h-15.15Zm0 0"/>
      <path fill="none" stroke="#000" stroke-linecap="round" stroke-linejoin="round" stroke-miterlimit="10" stroke-width="1.42" d="M217.73 133.37h7.57m0-43.41v43.41h7.58v25.27h-15.15v-25.27m7.57-117.94v46.23M256.88 143v-3.02m15.16 3.02v-3.02m-15.16 0h15.16"/>
      <path fill="#fff" stroke="#000" stroke-linecap="round" stroke-linejoin="round" stroke-miterlimit="10" stroke-width="1.42" d="M165.94 11.64h5.05v5.06h-5.05Zm0 0"/>
      <path fill="#0000c8" fill-opacity=".5" d="M205.1 130.38h40.42v37.9h-40.43Zm0 0"/>
      <path fill="none" stroke="#000" stroke-linecap="round" stroke-linejoin="round" stroke-miterlimit="10" stroke-width="1.42" d="M205.1 107.64v60.63m0 0h40.42m0 0v-37.9"/>
      <g clip-path="url(#L)">
        <path fill="none" stroke="#000" stroke-width="5.52" d="m225.3 15.43.14 22.64"/>
      </g>
      <g clip-path="url(#M)">
        <use xlink:href="#N" x="202.56" y="188.12"/>
      </g>
      <g clip-path="url(#O)">
        <use xlink:href="#H" x="210.73" y="188.12"/>
      </g>
      <use xlink:href="#P" x="259.71" y="102.66"/>
      <use xlink:href="#k" x="265.26" y="102.66"/>
      <use xlink:href="#Q" x="270.25" y="102.66"/>
      <use xlink:href="#k" x="278.29" y="102.66"/>
      <use xlink:href="#R" x="283.29" y="102.66"/>
      <use xlink:href="#o" x="286.61" y="102.66"/>
      <use xlink:href="#i" x="259.71" y="115.15"/>
      <use xlink:href="#j" x="265.26" y="115.15"/>
      <use xlink:href="#m" x="270.8" y="115.15"/>
      <use xlink:href="#t" x="275.23" y="115.15"/>
      <use xlink:href="#s" x="280.78" y="115.15"/>
      <use xlink:href="#S" x="286.32" y="115.15"/>
      <use xlink:href="#n" x="291.32" y="115.15"/>
      <use xlink:href="#s" x="296.86" y="115.15"/>
      <use xlink:href="#T" x="302.4" y="115.15"/>
      <g clip-path="url(#U)">
        <path fill="none" stroke="#000" stroke-width=".71" d="M0 168.24h451.55" transform="matrix(.95112 0 0 .99879 .46 .83)"/>
      </g>
      <g clip-path="url(#V)">
        <path fill="url(#W)" d="M.74 168.52h428.92v5.99H.74Zm0 0"/>
      </g>
    </g>
    <pattern id="W" width="4" height="15" x="0" y="0" patternTransform="matrix(.93088 -.00684 -.31775 .89602 -.7 191.2)" patternUnits="userSpaceOnUse" viewBox="0 0 4 15">
      <use xlink:href="#X"/>
    </pattern>
  </defs>
  <use xlink:href="#Y" transform="translate(75 465)"/>
</svg>
