<svg xmlns="http://www.w3.org/2000/svg" xmlns:xlink="http://www.w3.org/1999/xlink" width="595.28" height="841.89" viewBox="0 0 595.28 841.89">
  <defs>
    <clipPath id="a">
      <path d="M394 394h43v7.6h-43Zm0 0"/>
    </clipPath>
    <clipPath id="b">
      <path d="M352 395h43v6.6h-43Zm0 0"/>
    </clipPath>
    <clipPath id="c">
      <path d="M305.63 252H320v5h-14.37Zm0 0"/>
    </clipPath>
    <clipPath id="d">
      <path d="M501 300h3.64v11H501Zm0 0"/>
    </clipPath>
    <clipPath id="e">
      <path d="M497 309h7.64v7H497Zm0 0"/>
    </clipPath>
    <clipPath id="f">
      <path d="M345 240.4h1V388h-1Zm0 0"/>
    </clipPath>
    <path id="g" d="M2.03-1.33c-.42.7-.83.96-1.4.99C.5-.33.4-.33.4-.12q.01.11.14.12l.97-.03L2.58 0c.08 0 .22 0 .22-.23 0-.1-.1-.11-.17-.11-.27-.03-.5-.13-.5-.41 0-.17.07-.3.23-.56l.9-1.5H6.3l.03.31c.03.3.17 1.55.17 1.77 0 .36-.6.39-.8.39-.12 0-.26 0-.26.22 0 .12.1.12.18.12l.65-.03h.68c.72 0 1.25.03 1.27.03.08 0 .2 0 .2-.23 0-.11-.1-.11-.28-.11-.66 0-.67-.11-.7-.47L6.7-8.27c-.01-.23-.06-.26-.2-.26-.1 0-.19.03-.3.2Zm1.44-1.83 2.39-4.01.4 4.01Zm0 0"/>
    <path id="h" d="M4.38-7.34c.1-.44.15-.47.6-.47h1.57c1.34 0 1.34 1.15 1.34 1.26 0 .96-.97 2.2-2.55 2.2H3.63Zm2.01 3.07C7.7-4.5 8.88-5.4 8.88-6.5c0-.94-.83-1.66-2.18-1.66H2.86c-.22 0-.33 0-.33.24 0 .1.11.1.28.1.74 0 .74.1.74.24q.01.02-.05.27L1.9-.9c-.12.42-.15.55-.98.55-.23 0-.34 0-.34.22 0 .12.06.12.31.12H5c1.8 0 3.23-1.4 3.23-2.6 0-.96-.86-1.57-1.83-1.67M4.7-.34H3.08c-.17 0-.19 0-.27-.02-.12-.02-.14-.03-.14-.12 0-.1.03-.16.05-.27l.84-3.37H5.8c1.4 0 1.4 1.3 1.4 1.42A2.5 2.5 0 0 1 4.7-.34m0 0"/>
    <path id="i" d="M8.92-8.3c0-.1-.1-.1-.1-.1-.04 0-.09 0-.18.12l-.83 1a2.1 2.1 0 0 0-1.97-1.13C3.27-8.4.6-5.8.6-2.98.6-.98 2 .25 3.73.25c.96 0 1.8-.4 2.49-.98a4 4 0 0 0 1.34-2.13c0-.1-.1-.1-.12-.1q-.15.01-.14.1A3.7 3.7 0 0 1 3.94-.09c-1.27 0-2.36-.82-2.36-2.52 0-.37.1-2.45 1.47-4.02a4 4 0 0 1 2.9-1.43c1.32 0 1.9 1.1 1.9 2.31 0 .31-.04.56-.04.6 0 .12.13.12.16.12.14 0 .16 0 .2-.22Zm0 0"/>
  </defs>
  <g clip-path="url(#a)">
    <path fill="none" stroke="#000" stroke-linecap="round" stroke-linejoin="round" stroke-miterlimit="10" stroke-width=".5" d="m436.27 394.67-42.02 6.69"/>
  </g>
  <g clip-path="url(#b)">
    <path fill="none" stroke="#000" stroke-linecap="round" stroke-linejoin="round" stroke-miterlimit="10" stroke-width=".5" d="m394.25 401.36-41.5-5.97"/>
  </g>
  <path fill="none" stroke="#000" stroke-linecap="round" stroke-linejoin="round" stroke-miterlimit="10" stroke-width=".5" d="m352.75 395.4-23.9-27.46m-.01 0 10.45-26.89m0 0v-38.53m0 0 6.43-8.35m0 0-4.84-17.4m0 0-4.26-7.35m0 0-17.42-13.28"/>
  <g clip-path="url(#c)">
    <path fill="none" stroke="#000" stroke-linecap="round" stroke-linejoin="round" stroke-miterlimit="10" stroke-width=".5" d="m319.2 256.14-13.32-2.93"/>
  </g>
  <path fill="none" stroke="#000" stroke-linecap="round" stroke-linejoin="round" stroke-miterlimit="10" stroke-width=".5" d="m412.03 276.15-7.15 18.02m0 0 10.87 26.73m0 0 22.64 5.76m.01 0 8.73-6.67m0 0-.14-29.74m0 0-21.27-14.1m0 0h-13.69m44.68 6.34.06 14.28m0 0 20.7 3.75m-.01 0 2.98-10.29m0 0-12.03-6.48m-.01 0-11.69-1.26m-2.19 21.26.09 17.76m-.01 0 19.71 13.13m0 0 20.56 3.39m0 0 2.59-13.59m0 0-13.83-15.4m0-.01-29.11-5.28m-11.14 29.75 8.3-6.34m.01 0 13.03 8.7m0 0-12.9 6.38m0 0-8.44-8.74"/>
  <g clip-path="url(#d)">
    <path fill="none" stroke="#000" stroke-linecap="round" stroke-linejoin="round" stroke-miterlimit="10" stroke-width=".5" d="m501.79 300.4 2.55 9.39"/>
  </g>
  <g clip-path="url(#e)">
    <path fill="none" stroke="#000" stroke-linecap="round" stroke-linejoin="round" stroke-miterlimit="10" stroke-width=".5" d="m504.34 309.79-6.76 5.35"/>
  </g>
  <path fill="none" stroke="#000" stroke-linecap="round" stroke-linejoin="round" stroke-miterlimit="10" stroke-width=".5" d="m497.58 315.14-8.78-9.79m0 0 12.99-4.96"/>
  <g clip-path="url(#f)">
    <path fill="none" stroke="#000" stroke-dasharray="3.9633782319999997 3.9633782319999997" stroke-linecap="round" stroke-linejoin="round" stroke-miterlimit="10" stroke-width=".5" d="M345.72 387.32V240.68"/>
  </g>
  <path fill="none" stroke="#000" stroke-dasharray="3.944121368 3.944121368" stroke-linecap="round" stroke-linejoin="round" stroke-miterlimit="10" stroke-width=".5" d="M345.72 294.17h59.16"/>
  <use xlink:href="#g" x="334.4" y="398.01"/>
  <use xlink:href="#h" x="332.72" y="298.17"/>
  <use xlink:href="#i" x="408.47" y="298.17"/>
</svg>
