<svg xmlns="http://www.w3.org/2000/svg" xmlns:xlink="http://www.w3.org/1999/xlink" width="612" height="792" viewBox="0 0 612 792">
  <defs>
    <path id="a" d="M2.05-3.53H5.1v-1.9q0-.48-.06-.65a.5.5 0 0 0-.2-.22q-.22-.1-.46-.1h-.22v-.2h2.81v.2h-.23q-.23 0-.44.1a.4.4 0 0 0-.22.24q-.04.15-.04.64v4.25q0 .5.06.67.05.1.19.2.22.12.45.11h.23V0h-2.8v-.19h.21q.4 0 .6-.23.12-.15.12-.75v-2H2.05v2q0 .5.06.67.05.1.2.2.2.12.44.11H3V0H.17v-.19h.24q.4 0 .59-.23.1-.15.1-.75v-4.25q0-.5-.05-.66a.5.5 0 0 0-.2-.22 1 1 0 0 0-.44-.1H.17v-.2H3v.2h-.25q-.23 0-.44.1a.4.4 0 0 0-.22.24q-.04.15-.04.64Zm0 0"/>
    <path id="b" d="M2.83-.64q-.7.53-.86.6a1 1 0 0 1-.55.13 1 1 0 0 1-.76-.3q-.3-.34-.3-.84 0-.32.14-.57.2-.34.69-.61.5-.3 1.64-.72v-.17q0-.67-.22-.91-.2-.25-.61-.25-.3 0-.48.16a.5.5 0 0 0-.18.39v.28q0 .22-.1.34a.4.4 0 0 1-.3.11q-.2 0-.3-.12-.1-.13-.1-.35 0-.42.41-.76.42-.35 1.2-.35.6 0 .98.19.27.15.42.48.1.2.1.85v2.29q.04.15.08.2.06.04.15.04.07 0 .12-.03.1-.06.4-.35v.27Q3.85.1 3.35.09a.5.5 0 0 1-.38-.17q-.13-.17-.15-.56m0-.31v-1.7q-.74.3-.94.42-.4.2-.56.43a1 1 0 0 0-.16.52q0 .34.2.58.22.23.49.23.37 0 .97-.48m0 0"/>
    <path id="c" d="m3.84-4.45.18 1.22h-.2q-.2-.62-.38-.75-.2-.15-.8-.16H1.7v3.1q0 .51.05.62t.17.17q.1.06.46.06V0H.15v-.19q.46 0 .6-.14.15-.14.15-.72V-3.4q0-.46-.06-.6a.3.3 0 0 0-.18-.2 1 1 0 0 0-.5-.07v-.18Zm0 0"/>
    <path id="d" d="m-.02-4.02 1.38-.54h.19v1.03q.33-.58.68-.81t.74-.24q.67 0 1.12.52.55.64.55 1.67 0 1.15-.67 1.9-.54.63-1.36.63-.36 0-.63-.1a1 1 0 0 1-.43-.29v1.34q0 .47.04.58.06.12.2.2t.5.08v.18H-.02v-.18H.1q.27 0 .46-.1a.3.3 0 0 0 .14-.18q.04-.11.04-.6v-4.21q0-.43-.04-.55t-.13-.17a.4.4 0 0 0-.22-.06q-.1 0-.3.06Zm1.57.79v1.65q0 .55.04.72.06.29.33.5.27.2.67.2.48 0 .79-.37.38-.5.39-1.4a2.5 2.5 0 0 0-.44-1.57.95.95 0 0 0-1.2-.27q-.18.1-.58.54m0 0"/>
    <path id="e" d="M1.06-2.78a2.2 2.2 0 0 0 .49 1.56q.48.57 1.14.56.44 0 .75-.23.33-.24.54-.83l.16.1q-.11.66-.6 1.21-.5.55-1.23.55-.8 0-1.37-.62a2.4 2.4 0 0 1-.56-1.7q0-1.12.57-1.77.6-.64 1.47-.64.75 0 1.24.5.48.5.48 1.3Zm0-.28h2.07a2 2 0 0 0-.11-.6q-.13-.28-.36-.43a1 1 0 0 0-.5-.16q-.41 0-.74.33-.3.31-.36.86m0 0"/>
    <path id="f" d="M3.14-2.36q1.22.27 1.22 1.16a1 1 0 0 1-.52.9q-.5.3-1.4.3H.24v-.19q.43 0 .54-.15.1-.16.11-.7v-2.37q0-.52-.05-.6L.7-4.2q-.12-.08-.46-.08v-.18h2.05q.6 0 .95.1.38.08.61.37.24.27.24.65 0 .75-.94.97m-1.44-.1h.25q.67 0 .97-.24.3-.27.3-.63 0-.42-.31-.6-.3-.21-.96-.21H1.7Zm0 2.07q.24.08.58.08.57 0 .86-.25.28-.27.28-.66 0-.45-.37-.69a2 2 0 0 0-1-.23H1.7Zm0 0"/>
    <path id="g" d="M.25-4.45h3.84l.2 1.2h-.23q-.05-.36-.18-.56a1 1 0 0 0-.32-.27 2 2 0 0 0-.6-.06h-.38v3.1q0 .5.06.63t.19.18q.14.04.62.04V0H1.03v-.19q.46 0 .6-.14t.14-.72v-3.1h-.4q-.42 0-.57.07-.15.04-.28.24-.15.18-.24.59H.06Zm0 0"/>
    <path id="h" d="M.77-4.45h3.98v.18q-.33 0-.44.07l-.17.17q-.06.1-.06.62v2.36q0 .53.04.63.06.1.16.17.12.06.47.06V0H2.44v-.19q.38 0 .51-.03.15-.03.24-.17t.08-.66v-3.1H1.78v1.88q0 1.08-.1 1.5a1 1 0 0 1-.37.65q-.27.2-.62.2-.63 0-.63-.52 0-.16.1-.28.09-.1.26-.1t.31.13q.19.18.29.17.22 0 .3-.35.12-.38.12-1.29v-.98q0-.76-.11-.92t-.56-.2Zm0 0"/>
    <path id="i" d="M1.7-1.37 3.63-3.6q-.02-.38-.15-.52-.12-.15-.45-.16v-.18h2.08v.18q-.33 0-.45.07l-.18.17q-.06.1-.06.62v2.36q0 .53.05.63t.17.17q.12.06.47.06V0H2.95v-.19q.4 0 .53-.14.15-.14.15-.72v-2.1L1.7-.9q0 .41.11.57t.47.15V0H.22v-.19q.44 0 .56-.15.13-.16.13-.7v-2.37q0-.51-.07-.6l-.17-.18q-.1-.08-.45-.08v-.18h2.15v.18q-.32 0-.43.07l-.17.17q-.07.1-.07.62Zm0 0"/>
  </defs>
  <path fill="none" stroke="#000" stroke-linecap="round" stroke-miterlimit="10" d="M67.6 314.7h106.9V198.5H67.6Zm0 0"/>
  <path fill-rule="evenodd" stroke="#000" stroke-miterlimit="10" d="m100.32 207.75-6.52 15.28 6.52 15.27 6.53-15.27Zm0 0"/>
  <path fill="none" stroke="#000" stroke-miterlimit="10" d="M93.8 223.03h13.05"/>
  <path fill-rule="evenodd" stroke="#000" stroke-linecap="round" stroke-miterlimit="10" d="m100.35 232.85-3.8 12.6h7.6Zm0 0"/>
  <path fill-rule="evenodd" stroke="#000" stroke-miterlimit="10" d="m100.32 251.4-6.52 15.28 6.52 15.27 6.53-15.27Zm0 0"/>
  <path fill="none" stroke="#000" stroke-miterlimit="10" d="M93.8 266.68h13.05"/>
  <path fill-rule="evenodd" stroke="#000" stroke-linecap="round" stroke-miterlimit="10" d="m100.35 276.5-3.8 12.6h7.6Zm0 0"/>
  <path fill-rule="evenodd" stroke="#000" stroke-miterlimit="10" d="m135.78 251.4-6.53 15.25 6.53 15.25 6.52-15.25Zm0 0"/>
  <path fill="none" stroke="#000" stroke-miterlimit="10" d="M129.25 266.65h13.05"/>
  <path fill-rule="evenodd" stroke="#000" stroke-linecap="round" stroke-miterlimit="10" d="m135.8 276.45-3.8 12.6h7.6Zm0 0"/>
  <path fill-rule="evenodd" stroke="#000" stroke-miterlimit="10" d="m135.78 207.75-6.53 15.28 6.53 15.27 6.52-15.27Zm0 0"/>
  <path fill="none" stroke="#000" stroke-miterlimit="10" d="M129.25 223.03h13.05"/>
  <path fill-rule="evenodd" stroke="#000" stroke-linecap="round" stroke-miterlimit="10" d="m135.8 232.85-3.8 12.6h7.6Zm-55.1 81.8h77.45v-4.85H80.7Zm0 0"/>
  <path fill="none" stroke="#000" stroke-miterlimit="10" d="M154.25 211.05c1.98 4.68 3.97 9.37 3.9 14.05s-4.08 9.66-4.34 14.05 2.82 12.3 2.82 12.3m-2.39 10.85c1.97 4.68 3.93 9.37 3.86 14.05s-4.04 9.66-4.3 14.05c-.24 4.4 2.8 12.3 2.8 12.3m-74.9-38.75c1.98 4.68 3.97 9.37 3.9 14.05-.07 4.7-4.08 9.66-4.33 14.05-.26 4.4 2.81 12.3 2.81 12.3m-6.23-93.3c2.01 4.68 4.02 9.37 3.95 14.05s-4.13 9.66-4.39 14.05 2.86 12.3 2.86 12.3m38.48-9.85c2.01 4.68 4.02 9.37 3.95 14.05s-4.13 9.66-4.4 14.05c-.24 4.4 2.86 12.3 2.86 12.3m-37.34 30.63 14.47 14.4m5.86 18.17h70.35v-22.35h-70.35Zm0 0"/>
  <use xlink:href="#a" x="111.86" y="336.05"/>
  <use xlink:href="#b" x="119.05" y="336.05"/>
  <use xlink:href="#c" x="123.47" y="336.05"/>
  <use xlink:href="#d" x="127.56" y="336.05"/>
  <use xlink:href="#e" x="132.61" y="336.05"/>
  <use xlink:href="#f" x="137.03" y="336.05"/>
  <use xlink:href="#b" x="141.73" y="336.05"/>
  <use xlink:href="#g" x="146.15" y="336.05"/>
  <use xlink:href="#e" x="150.5" y="336.05"/>
  <use xlink:href="#h" x="154.93" y="336.05"/>
  <use xlink:href="#i" x="159.96" y="336.05"/>
  <use xlink:href="#cr" x="165.38" y="336.05"/>
</svg>
