<svg xmlns="http://www.w3.org/2000/svg" xmlns:xlink="http://www.w3.org/1999/xlink" width="595.32" height="841.92" viewBox="0 0 595.32 841.92">
  <defs>
    <path id="a" d="M1.7-7.3h3.03l-.04.2q-.71 0-.96.22-.22.23-.51 1.2l-.47 1.66q.25.03.36.02.82 0 1.14-.14.33-.15.64-.52.3-.37.77-1.36.44-.96.8-1.17.35-.2.7-.2.38 0 .59.2t.22.42q0 .24-.14.43a.5.5 0 0 1-.4.18 1 1 0 0 1-.26-.06l-.25-.28q-.12-.17-.28-.17a.4.4 0 0 0-.28.12q-.11.13-.34.64a7 7 0 0 1-.91 1.57q-.37.45-.94.6.25.1.52.7l.87 1.93q.25.51.47.69.24.18.77.22l-.05.2H5.06l-1.1-2.47a4 4 0 0 0-.54-.92.7.7 0 0 0-.58-.23l-.21.01-.65 2.25q-.14.5-.14.7 0 .4.83.46l-.04.2H-.31l.08-.2q.42 0 .59-.07t.31-.2.35-.89l1.3-4.58q.15-.5.15-.65 0-.3-.2-.41a1.4 1.4 0 0 0-.64-.1Zm0 0"/>
    <path id="b" d="M.83 0h1.9v-.1c-.53 0-.64-.09-.65-.42v-4.17l-.06-.01-1.25.64v.1q.4-.17.5-.17.22 0 .21.33v3.16c-.01.44-.14.53-.65.53Zm0 0"/>
    <path id="c" d="m3.3-.95-.08-.03c-.27.4-.35.45-.67.45H.89l1.17-1.22c.61-.66.9-1.17.9-1.72 0-.7-.57-1.23-1.3-1.23-.38 0-.74.15-1 .43-.22.24-.33.46-.44.96l.14.03c.28-.69.53-.9 1.02-.9.57 0 .96.38.96.98 0 .54-.3 1.18-.89 1.8L.2-.07V0h2.72Zm0 0"/>
    <path id="d" d="M1.06-2.3c.4 0 .58.02.74.08.43.16.7.55.7 1.03 0 .6-.4 1.03-.9 1.03-.2 0-.33-.04-.6-.21C.8-.5.69-.55.56-.55A.25.25 0 0 0 .3-.3c0 .24.3.4.78.4.53 0 1.08-.18 1.42-.47Q3-.82 3-1.52q0-.56-.31-.9a1.4 1.4 0 0 0-.58-.36c.48-.33.66-.6.66-.97 0-.56-.44-.95-1.1-.95q-.52 0-.9.34c-.2.19-.32.38-.46.78l.11.03q.4-.75 1.03-.73c.46 0 .77.3.77.73q-.01.4-.28.7c-.22.2-.4.3-.88.46Zm0 0"/>
    <path id="e" d="M3.28-1.6h-.7v-3.1h-.31L.07-1.6v.44h1.96V0h.55v-1.16h.7Zm-1.25 0H.36l1.67-2.38Zm0 0"/>
    <path id="f" d="M1.27-4.05h1.36q.14 0 .15-.06l.27-.62-.07-.05c-.1.14-.17.17-.32.17H1.2L.45-2.95l-.01.03q0 .06.1.06.32 0 .77.14c.8.25 1.16.67 1.16 1.38 0 .65-.4 1.18-.95 1.18-.15 0-.25-.04-.47-.2Q.73-.6.52-.59q-.3 0-.3.26c0 .27.33.42.86.42A2 2 0 0 0 2.5-.44c.31-.33.47-.72.47-1.25 0-.5-.14-.81-.49-1.15-.3-.32-.7-.47-1.51-.63Zm0 0"/>
    <path id="g" d="M8.44-7.2H6.25v.17c.58.06.78.19.78.51 0 .18-.3 1.29-.83 3.16l-.14.55C5.58-1 4.88-.25 3.66-.25c-.91 0-1.53-.52-1.53-1.31 0-.38.3-1.58 1.12-4.46.22-.76.4-.92 1.16-1.01v-.17h-3v.17c.73.08.86.14.86.45q-.01.21-.08.5l-.6 2.13a10 10 0 0 0-.47 2.34C1.13-.56 2.13.2 3.54.2 4.97.2 5.9-.58 6.38-2.23L7.3-5.4c.4-1.42.45-1.49 1.14-1.64Zm0 0"/>
    <path id="h" d="M6.25-.17c-.48-.03-.7-.22-.9-.8L4.3-3.67c.85-.19 1.22-.35 1.61-.7q.55-.5.56-1.24c0-1.03-.8-1.6-2.3-1.6H1.46v.18c.47.08.52.08.63.16q.15.1.15.3c0 .13-.04.4-.12.7L.75-1c-.2.66-.28.72-.9.83V0h2.7v-.17c-.7-.1-.75-.14-.75-.52 0-.12.01-.23.14-.64l.6-2.3.73.05L4.63 0h1.62Zm-2.86-6.4c.08-.23.22-.3.56-.3q1.38-.01 1.38 1.25 0 1.62-2.08 1.64c-.2 0-.3-.02-.56-.05Zm0 0"/>
  </defs>
  <path fill="none" stroke="#000" stroke-linecap="round" stroke-linejoin="round" stroke-miterlimit="10" stroke-width=".5" d="M211.76 259.6v39.45M87.9 353.49h81.4"/>
  <path fill="none" stroke="#000" stroke-miterlimit="8" d="M169.3 349.5v9.43M83.4 349v9.43m4.5-13.93v20.88M174.8 344v20.88"/>
  <path fill="none" stroke="#000" stroke-linecap="round" stroke-linejoin="round" stroke-miterlimit="8" stroke-width=".5" d="M128.35 323.02V354m-71.92-93.9h26.48m-25.98 93.39h25.98m91.39-.5h36.96m-154.83.5v-34.46m.5-24.98V259.6m40.47.5h113.86m0 67.42v25.47"/>
  <use xlink:href="#a" x="41.59" y="308.18"/>
  <use xlink:href="#b" x="48.9" y="309.74"/>
  <use xlink:href="#bC" x="52.38" y="308.18"/>
  <use xlink:href="#a" x="70.62" y="310.1"/>
  <use xlink:href="#c" x="77.93" y="311.65"/>
  <use xlink:href="#bC" x="81.41" y="310.1"/>
  <use xlink:href="#a" x="133.55" y="312.61"/>
  <use xlink:href="#d" x="140.86" y="314.17"/>
  <use xlink:href="#bC" x="144.34" y="312.61"/>
  <path fill="none" stroke="#000" stroke-linecap="round" stroke-linejoin="round" stroke-miterlimit="8" stroke-width=".5" d="M127.86 260.1v42.45"/>
  <use xlink:href="#a" x="155.48" y="313.09"/>
  <use xlink:href="#e" x="162.79" y="314.65"/>
  <use xlink:href="#bC" x="166.27" y="313.09"/>
  <use xlink:href="#a" x="198.54" y="315.61"/>
  <use xlink:href="#f" x="205.85" y="317.17"/>
  <use xlink:href="#bC" x="209.33" y="315.61"/>
  <use xlink:href="#g" x="80.57" y="375.06"/>
  <use xlink:href="#b" x="88.48" y="376.62"/>
  <use xlink:href="#bC" x="91.96" y="375.06"/>
  <use xlink:href="#g" x="167.47" y="374.58"/>
  <use xlink:href="#c" x="175.38" y="376.14"/>
  <use xlink:href="#bC" x="178.86" y="374.58"/>
  <path fill="#fff" fill-rule="evenodd" stroke="#000" stroke-miterlimit="8" d="M90.64 254.6c-4 0-7.23 3.36-7.23 7.49s3.24 7.5 7.23 7.5 7.25-3.36 7.25-7.5a7.37 7.37 0 0 0-7.25-7.49Zm0 0"/>
  <path fill="none" stroke="#000" stroke-miterlimit="8" d="m85.52 256.8 10.25 10.59m-10.25 0 10.25-10.6"/>
  <path fill="none" stroke="#000" stroke-miterlimit="8" stroke-width="1.5" d="m56.93 320.52-5.49-24.47"/>
  <path fill="#5b9bd5" fill-rule="evenodd" stroke="#000" stroke-linecap="round" stroke-miterlimit="8" d="M164.5 265.92a8.48 8.48 0 1 1 15.68-.15Zm0 0"/>
  <path fill="none" stroke="#000" stroke-linecap="round" stroke-linejoin="round" stroke-miterlimit="8" stroke-width=".5" d="m57.43 354.48 21.98-28.96"/>
  <path fill="none" stroke="#000" stroke-miterlimit="8" stroke-width="1.5" d="m79.41 325.52 8.49-24.47"/>
  <path fill="none" stroke="#000" stroke-linecap="round" stroke-linejoin="round" stroke-miterlimit="8" stroke-width=".5" d="m95.4 309.54 32.95-47.95m0 93.39 34.46-29.46"/>
  <path fill="none" stroke="#000" stroke-miterlimit="8" stroke-width="1.5" d="m162.81 325.52 12-21.48"/>
  <path fill="none" stroke="#000" stroke-linecap="round" stroke-linejoin="round" stroke-miterlimit="8" stroke-width=".5" d="m178.8 309.54 32.96-47.95"/>
  <path fill="none" stroke="#000" stroke-miterlimit="8" stroke-width="1.5" d="m211.76 329.02 5.49-27.97m-88.4 21.47 5-21.47"/>
  <use xlink:href="#h" x="84.65" y="250.17"/>
  <use xlink:href="#b" x="91.36" y="251.72"/>
  <use xlink:href="#bC" x="94.84" y="250.17"/>
  <use xlink:href="#h" x="168.07" y="250.76"/>
  <use xlink:href="#c" x="174.78" y="252.32"/>
  <use xlink:href="#bC" x="178.26" y="250.76"/>
</svg>
