<svg xmlns="http://www.w3.org/2000/svg" xmlns:xlink="http://www.w3.org/1999/xlink" width="595.32" height="841.92" viewBox="0 0 595.32 841.92">
  <defs>
    <path id="d" d="M1.5-1.8q.4 0 .69.28t.28.7-.28.68a1 1 0 0 1-.69.28q-.4 0-.69-.28a1 1 0 0 1-.28-.69q0-.4.28-.69a1 1 0 0 1 .69-.28m0 0"/>
    <path id="b" d="M3.7 0v-.22q.53 0 .53-.78v-2.69L2.66-1q0 .77.53.78V0H.4v-.22q.34 0 .48-.19.15-.18.14-.65v-3.38q0-.81-.62-.81v-.22h2.78v.22q-.3 0-.42.17-.12.15-.11.64v2.67l1.57-2.71q0-.45-.14-.6-.1-.17-.39-.17v-.22h2.78v.22q-.3 0-.46.16-.14.16-.14.57v3.49q0 .48.12.66.14.15.48.15V0Zm0 0"/>
    <path id="a" d="M3.1-7.94h4.1v.22q-.69.02-.87.17-.2.15-.22.74 1.35 0 2.05.31t1.2.94.5 1.51q0 1.13-.84 1.99T6.1-1.2q0 .42.1.62.09.2.27.27.2.06.72.1V0H3.1v-.22q.73 0 .92-.22.18-.22.18-.76a5 5 0 0 1-2.17-.38Q1.25-1.97.84-2.6a2.7 2.7 0 0 1 .1-2.95q.5-.71 1.25-.97.75-.28 2.01-.28 0-.53-.22-.7-.21-.2-.89-.2Zm3 6.32q.6 0 .96-.18.38-.18.61-.75.25-.57.25-1.56 0-.78-.23-1.33-.22-.54-.58-.73-.36-.2-1-.2ZM4.2-6.37q-.78.01-1.1.26-.34.25-.54.78-.19.54-.19 1.36 0 .97.24 1.47t.62.69q.4.17.97.19Zm0 0"/>
    <path id="c" d="M.42-.22Q.76-.23.9-.39q.15-.15.14-.63v-3.46q0-.43-.12-.58-.13-.15-.49-.19v-.22h4.81v1.42h-.21q-.14-.65-.38-.86t-.89-.2H2.67v4.13q0 .42.13.59.14.15.54.17V0H.42Zm0 0"/>
    <path id="e" d="M4.97 0H.3v-.12a26 26 0 0 0 2.6-3.44q.45-.9.46-1.74 0-.6-.4-1.01-.37-.4-.91-.4-.9 0-1.4.88l-.2-.07q.3-1.1.95-1.64t1.49-.54q.6 0 1.1.28t.77.76q.28.5.28.92a3.4 3.4 0 0 1-.42 1.58Q4-3.47 2.03-1.53h1.7q.64 0 .83-.05t.32-.19q.12-.11.32-.53h.2Zm0 0"/>
    <path id="g" d="M5.67-3.81q0 .87-.14 1.6-.14.71-.47 1.24-.3.52-.83.8Q3.72.1 2.97.1q-.72 0-1.22-.25A2 2 0 0 1 .97-.9a4 4 0 0 1-.42-1.22 10 10 0 0 1 .01-3.25q.14-.73.46-1.25a2.3 2.3 0 0 1 2.1-1.08q.72 0 1.2.25.5.25.79.75t.44 1.22q.12.72.12 1.66m-1.03.08a10 10 0 0 0-.17-1.82 3 3 0 0 0-.2-.6 2 2 0 0 0-.3-.41q-.18-.15-.4-.24a2 2 0 0 0-.5-.08q-.5 0-.82.24a1.6 1.6 0 0 0-.5.66q-.18.4-.23.95-.07.55-.07 1.19 0 .84.08 1.43.1.6.28.97.2.38.5.55t.72.17q.32 0 .56-.1t.43-.29.3-.48q.11-.3.18-.61.08-.33.1-.72.04-.39.04-.81m0 0"/>
    <path id="h" d="M5.44-.4q0 .12-.03.2l-.05.1-.06.08-.08.02H1.27q-.06 0-.08-.02L1.1-.09 1.06-.2l-.01-.2.01-.18q.02-.08.05-.12l.06-.08.1-.03h1.57v-5.77l-1.46.88-.2.08q-.06 0-.1-.04l-.05-.12L1.02-6v-.17q0-.08.03-.13l.06-.08.08-.07 1.75-1.11.04-.03.1-.02.12-.01.17-.02.24.01.14.04q.06 0 .08.06l.01.06V-.8h1.38q.04 0 .08.03l.08.08.04.12zm0 0"/>
    <path id="i" d="m5.42-.44-.01.19-.05.14-.08.1-.1.01H1L.86-.02.75-.09a.2.2 0 0 1-.06-.13L.67-.44v-.2L.72-.8l.06-.14.13-.14 1.47-1.56q.5-.53.8-.95.31-.44.48-.79t.21-.64.07-.54-.08-.47a1 1 0 0 0-.62-.67q-.25-.1-.55-.1-.37 0-.64.1-.3.09-.5.22-.21.1-.36.21t-.2.1q-.06 0-.08-.02l-.07-.08-.03-.14v-.36l.02-.12q0-.05.03-.08l.1-.1q.07-.07.24-.16.19-.1.44-.2a3.4 3.4 0 0 1 2.19-.1q.41.14.69.42t.4.63q.14.37.14.76 0 .36-.06.72t-.27.78-.6.94q-.4.5-1.04 1.17L1.9-.86h3.3l.1.03.07.08.05.13zm0 0"/>
    <path id="k" d="m4.16-5.36-.02.11-.06.27-.06.1-.08.08q-.04.04-.1.03H2.5l-.6 2.94-.04.53q0 .3.12.44.13.13.41.13.16 0 .27-.02l.2-.06.27-.08q.04 0 .06.03.03.03.03.13l-.02.17q0 .07-.04.17l-.05.16-.08.1-.14.1-.22.06-.25.05-.28.01q-.32 0-.56-.07-.25-.06-.4-.2a1 1 0 0 1-.26-.38 2 2 0 0 1-.08-.55v-.14l.07-.37q0-.1.03-.2l.6-2.95H.8q-.07 0-.11-.03-.04-.04-.03-.15l.01-.2.06-.2.08-.15q.06-.08.14-.08h.74l.26-1.25q0-.04.03-.08l.1-.04.15-.05a2 2 0 0 1 .47 0q.1.02.14.05.05 0 .07.04v.08l-.25 1.25h1.36q.07 0 .1.08.04.06.04.14m0 0"/>
    <path id="l" d="M2.9-8.08q-.55 1.2-.84 2.42a11.6 11.6 0 0 0 .83 7.43q.03.05.03.1t-.04.08Q2.84 2 2.75 2l-.22.02h-.19l-.14-.04-.08-.04-.06-.03Q1.75 1.29 1.5.69T1.1-.55a10.4 10.4 0 0 1 .02-5.18 12 12 0 0 1 .99-2.52l.08-.03.12-.02a1 1 0 0 1 .42 0q.09.02.13.05t.05.08zm0 0"/>
    <path id="m" d="M4.2-1.58q0 .41-.15.72-.15.32-.42.53T2.97 0a3 3 0 0 1-1.38.06l-.45-.1A2 2 0 0 1 .6-.3a.4.4 0 0 1-.1-.18 1 1 0 0 1-.03-.29 1 1 0 0 1 .05-.3q0-.06.04-.07l.08-.03q.06 0 .19.08l.31.17.44.19q.24.07.58.07.24 0 .43-.04.2-.06.35-.16t.23-.26a1 1 0 0 0 .08-.38.6.6 0 0 0-.1-.37 1 1 0 0 0-.3-.27 2 2 0 0 0-.43-.22l-.48-.19-.5-.23a2 2 0 0 1-.42-.3A1.4 1.4 0 0 1 .6-4.12q0-.31.1-.6.14-.29.37-.48.25-.22.6-.35a2.3 2.3 0 0 1 1.26-.1l.39.09a1 1 0 0 1 .47.22l.08.09.03.08.01.1a1 1 0 0 1 0 .34l-.03.1-.05.08-.06.02-.15-.06-.25-.14Q3.2-4.81 3-4.87a2 2 0 0 0-.92 0 1 1 0 0 0-.31.15 1 1 0 0 0-.18.24q-.06.14-.06.3 0 .24.11.4.13.15.31.26.2.12.43.2l.98.43q.24.13.44.3a1.3 1.3 0 0 1 .4 1.01m0 0"/>
    <path id="n" d="M2.86-3.14q0 .66-.1 1.31-.07.65-.24 1.28a11 11 0 0 1-.94 2.46l-.06.03-.1.04-.12.04h-.2L.88 2a.2.2 0 0 1-.12-.05l-.03-.07q0-.06.03-.11a12 12 0 0 0 1.1-4.94q0-1.25-.29-2.49Q1.3-6.89.73-8.08l-.01-.1q0-.04.06-.07l.13-.05a2 2 0 0 1 .42 0l.12.02.07.03.04.05q.6 1.2.96 2.47.34 1.26.34 2.59m0 0"/>
    <path id="o" d="M5.44-.4q0 .12-.03.2l-.05.1-.06.08-.08.02H1.27q-.06 0-.08-.02L1.1-.09 1.06-.2l-.01-.2.01-.18q.02-.08.05-.12l.06-.08.1-.03h1.57v-5.77l-1.46.88-.2.08q-.06 0-.1-.04l-.05-.12L1.02-6v-.17q0-.08.03-.13l.06-.08.08-.07 1.75-1.11.04-.03.1-.02.12-.01.17-.02.24.01.14.04q.06 0 .08.06l.01.06V-.8h1.38q.04 0 .08.03l.08.08.04.12zm0 0"/>
    <path id="p" d="m5.42-.44-.01.19-.05.14-.08.1-.1.01H1L.86-.02.75-.09a.2.2 0 0 1-.06-.13L.67-.44v-.2L.72-.8l.06-.14.13-.14 1.47-1.56q.5-.53.8-.95.31-.44.48-.79t.21-.64.07-.54-.08-.47a1 1 0 0 0-.62-.67q-.25-.1-.55-.1-.37 0-.64.1-.3.09-.5.22-.21.1-.36.21t-.2.1q-.06 0-.08-.02l-.07-.08-.03-.14v-.36l.02-.12q0-.05.03-.08l.1-.1q.07-.07.24-.16.19-.1.44-.2a3.4 3.4 0 0 1 2.19-.1q.41.14.69.42t.4.63q.14.37.14.76 0 .36-.06.72t-.27.78-.6.94q-.4.5-1.04 1.17L1.9-.86h3.3l.1.03.07.08.05.13zm0 0"/>
    <path id="q" d="M5.36-2.17q0 .53-.19.95-.18.4-.51.7-.35.3-.85.47a4 4 0 0 1-1.84.1l-.6-.14-.42-.18Q.8-.35.75-.4L.67-.48l-.03-.1-.03-.14v-.22q0-.21.03-.3.04-.07.13-.07.05 0 .2.1a3.5 3.5 0 0 0 1.69.5q.38 0 .68-.1t.49-.28q.2-.19.3-.44a1.4 1.4 0 0 0-.02-1.11 1 1 0 0 0-.38-.45 2 2 0 0 0-.59-.29 3 3 0 0 0-.81-.1H1.6l-.1-.02-.07-.08-.05-.12-.01-.2.01-.18q0-.08.05-.12l.06-.07.1-.01h.67q.38 0 .68-.1.32-.1.53-.3.22-.18.33-.43.1-.26.11-.6 0-.23-.08-.43a1 1 0 0 0-.6-.62q-.25-.1-.55-.1-.34 0-.63.11a4 4 0 0 0-.89.44q-.14.1-.19.1L.9-6.23l-.07-.05-.03-.13v-.36l.03-.12.04-.1.07-.09q.06-.07.24-.15.17-.1.42-.2.24-.12.58-.18a3 3 0 0 1 1.6.06q.42.13.68.38.25.23.39.58a2.3 2.3 0 0 1 .05 1.44q-.1.3-.29.53a1.7 1.7 0 0 1-1.04.64v.01q.39.04.72.19t.56.39.36.55q.14.3.14.67m0 0"/>
    <path id="r" d="M5.73-2.16q0 .19-.06.32-.04.1-.15.1h-.86v1.6a.1.1 0 0 1-.04.08q0 .03-.07.06L4.4.02A2 2 0 0 1 3.77 0Q3.7-.03 3.7-.06v-1.68H.55l-.11-.01-.1-.08-.04-.12-.02-.24v-.19l.08-.3.06-.15 2.74-4.6.07-.09.15-.04.21-.05a4 4 0 0 1 .66 0q.14.02.22.05.08 0 .14.06.05.03.05.1v4.82h.86q.08 0 .15.11t.06.31M3.7-6.73h-.02L1.2-2.58h2.5Zm0 0"/>
  </defs>
  <use xlink:href="#a" x="56.58" y="737.58"/>
  <use xlink:href="#b" x="66.87" y="737.58"/>
  <use xlink:href="#c" x="73.82" y="737.58"/>
  <use xlink:href="#d" x="79.22" y="737.58"/>
  <use xlink:href="#aa" x="82.21" y="737.58"/>
  <use xlink:href="#e" x="85.21" y="737.58"/>
  <use xlink:href="#aa" x="91.2" y="737.58"/>
  <use xlink:href="#aa" x="94.2" y="737.58"/>
  <use xlink:href="#aa" x="97.2" y="737.58"/>
  <use xlink:href="#aa" x="100.19" y="737.58"/>
  <use xlink:href="#aa" x="103.19" y="737.58"/>
  <use xlink:href="#aa" x="106.19" y="737.58"/>
  <use xlink:href="#aa" x="109.18" y="737.58"/>
  <use xlink:href="#aa" x="112.18" y="737.58"/>
  <use xlink:href="#V" x="406.89" y="737.58"/>
  <path fill="#fff" fill-rule="evenodd" d="M123.78 712.7h238.58V590.78H123.78Zm0 0"/>
  <path fill="none" stroke="#868686" stroke-linejoin="round" stroke-miterlimit="10" stroke-width=".6" d="M9.27 58.93h329.39M9.26 87.13h329.4m-329.4 27.6h329.4m-329.4 28.2h329.4m-329.4 28.2h329.4m-329.4 28.2h329.4" transform="matrix(.72164 0 0 -.718 117.31 734.12)"/>
  <path fill="none" stroke="#b7b7b7" stroke-linejoin="round" stroke-miterlimit="10" stroke-width=".6" d="M25.47 199.33V30.73m16.8 168.6V30.73m16.2 168.6V30.73m16.8 168.6V30.73m16.2 168.6V30.73m16.79 168.6V30.73m16.2 168.6V30.73m16.8 168.6V30.73m16.2 168.6V30.73m33 168.6V30.73m16.2 168.6V30.73m16.8 168.6V30.73m16.2 168.6V30.73m16.8 168.6V30.73m16.2 168.6V30.73m16.8 168.6V30.73m16.2 168.6V30.73m16.8 168.6V30.73" transform="matrix(.72164 0 0 -.718 117.31 734.12)"/>
  <path fill="none" stroke="#868686" stroke-linejoin="round" stroke-miterlimit="10" stroke-width=".6" d="M173.66 199.33V30.73m165 168.6V30.73m-329.39 0v168.6m0-168.6h329.39m-329.39 0v-5.4m164.39 5.4v-5.4m165 5.4v-5.4" transform="matrix(.72164 0 0 -.718 117.31 734.12)"/>
  <use xlink:href="#g" x="120.81" y="730.6"/>
  <use xlink:href="#h" x="240.05" y="730.6"/>
  <use xlink:href="#i" x="359.28" y="730.6"/>
  <path d="M123.37 711.66H382.4v.57H123.37Zm253.4-3.32 6.2 3.6-6.2 3.62a.3.3 0 0 1-.4-.1.3.3 0 0 1 .1-.4l5.77-3.36v.5l-5.76-3.37a.3.3 0 0 1-.1-.39.3.3 0 0 1 .38-.1m0 0"/>
  <use xlink:href="#k" x="381.6" y="731.21"/>
  <use xlink:href="#cv" x="385.64" y="731.21"/>
  <use xlink:href="#l" x="387.37" y="731.21"/>
  <use xlink:href="#m" x="390.83" y="731.21"/>
  <use xlink:href="#n" x="395.43" y="731.21"/>
  <path fill="#4f81bd" fill-rule="evenodd" stroke="#385d8a" stroke-linejoin="round" stroke-miterlimit="10" stroke-width="1.8" d="M18.9 26.7h3.6v86.4h-3.6Zm24.6 0h3.6v86.4h-3.6Zm99 0h3.6v86.4h-3.6Zm24.6 0h3.6v86.4h-3.6Zm0 0" transform="matrix(.96146 0 0 -.95976 116.74 737.57)"/>
  <path fill="none" stroke="#000" stroke-linejoin="round" stroke-miterlimit="10" stroke-width=".6" d="M11.7 125.1a8.4 8.4 0 1 0 16.81-.01 8.4 8.4 0 0 0-16.81 0Zm0 0" transform="matrix(.96146 0 0 -.95976 116.74 737.57)"/>
  <use xlink:href="#o" x="132.82" y="621.61"/>
  <path fill="none" stroke="#000" stroke-linejoin="round" stroke-miterlimit="10" stroke-width=".6" d="M36.9 125.1a8.4 8.4 0 1 0 16.81-.01 8.4 8.4 0 0 0-16.81 0Zm0 0" transform="matrix(.96146 0 0 -.95976 116.74 737.57)"/>
  <use xlink:href="#p" x="156.85" y="621.61"/>
  <path fill="none" stroke="#000" stroke-linejoin="round" stroke-miterlimit="10" stroke-width=".6" d="M135.9 125.1a8.4 8.4 0 1 0 16.81-.01 8.4 8.4 0 0 0-16.81 0Zm0 0" transform="matrix(.96146 0 0 -.95976 116.74 737.57)"/>
  <use xlink:href="#q" x="252.56" y="621.61"/>
  <path fill="none" stroke="#000" stroke-linejoin="round" stroke-miterlimit="10" stroke-width=".6" d="M160.5 125.1a8.4 8.4 0 1 0 16.81-.01 8.4 8.4 0 0 0-16.81 0Zm0 0" transform="matrix(.96146 0 0 -.95976 116.74 737.57)"/>
  <use xlink:href="#r" x="276.15" y="621.61"/>
</svg>
