<svg xmlns="http://www.w3.org/2000/svg" xmlns:xlink="http://www.w3.org/1999/xlink" width="595.28" height="841.89" viewBox="0 0 595.28 841.89">
  <defs>
    <path id="a" d="M 1.953125 -1.265625 C 1.515625 -0.53125 1.09375 -0.375 0.609375 -0.34375 C 0.484375 -0.328125 0.390625 -0.328125 0.390625 -0.125 C 0.390625 -0.0625 0.4375 0 0.53125 0 C 0.828125 0 1.15625 -0.03125 1.46875 -0.03125 C 1.828125 -0.03125 2.21875 0 2.5625 0 C 2.625 0 2.765625 0 2.765625 -0.203125 C 2.765625 -0.328125 2.671875 -0.34375 2.59375 -0.34375 C 2.34375 -0.359375 2.078125 -0.453125 2.078125 -0.71875 C 2.078125 -0.859375 2.140625 -0.96875 2.234375 -1.125 L 3.0625 -2.53125 L 5.8125 -2.53125 C 5.84375 -2.296875 5.984375 -0.8125 5.984375 -0.703125 C 5.984375 -0.375 5.421875 -0.34375 5.203125 -0.34375 C 5.046875 -0.34375 4.9375 -0.34375 4.9375 -0.125 C 4.9375 0 5.078125 0 5.09375 0 C 5.546875 0 6.015625 -0.03125 6.46875 -0.03125 C 6.734375 -0.03125 7.421875 0 7.703125 0 C 7.765625 0 7.890625 0 7.890625 -0.21875 C 7.890625 -0.34375 7.78125 -0.34375 7.640625 -0.34375 C 6.96875 -0.34375 6.96875 -0.421875 6.9375 -0.734375 L 6.265625 -7.578125 C 6.25 -7.796875 6.25 -7.84375 6.0625 -7.84375 C 5.875 -7.84375 5.84375 -7.765625 5.765625 -7.65625 Z M 3.28125 -2.875 L 5.4375 -6.484375 L 5.78125 -2.875 Z M 3.28125 -2.875"/>
    <path id="b" d="M 1.75 -0.859375 C 1.640625 -0.421875 1.625 -0.34375 0.75 -0.34375 C 0.5625 -0.34375 0.453125 -0.34375 0.453125 -0.125 C 0.453125 0 0.5625 0 0.75 0 L 4.671875 0 C 6.390625 0 7.6875 -1.296875 7.6875 -2.359375 C 7.6875 -3.15625 7.046875 -3.796875 5.984375 -3.90625 C 7.125 -4.125 8.28125 -4.921875 8.28125 -5.96875 C 8.28125 -6.78125 7.5625 -7.484375 6.25 -7.484375 L 2.5625 -7.484375 C 2.359375 -7.484375 2.25 -7.484375 2.25 -7.265625 C 2.25 -7.140625 2.34375 -7.140625 2.546875 -7.140625 C 2.578125 -7.140625 2.78125 -7.140625 2.96875 -7.125 C 3.171875 -7.09375 3.265625 -7.09375 3.265625 -6.9375 C 3.265625 -6.90625 3.25 -6.875 3.21875 -6.734375 Z M 3.40625 -4.015625 L 4.078125 -6.71875 C 4.1875 -7.109375 4.203125 -7.140625 4.671875 -7.140625 L 6.09375 -7.140625 C 7.046875 -7.140625 7.28125 -6.5 7.28125 -6.015625 C 7.28125 -5.046875 6.34375 -4.015625 5 -4.015625 Z M 2.90625 -0.34375 C 2.765625 -0.34375 2.734375 -0.34375 2.671875 -0.34375 C 2.5625 -0.359375 2.53125 -0.375 2.53125 -0.453125 C 2.53125 -0.5 2.53125 -0.515625 2.578125 -0.71875 L 3.34375 -3.765625 L 5.40625 -3.765625 C 6.46875 -3.765625 6.671875 -2.953125 6.671875 -2.484375 C 6.671875 -1.40625 5.703125 -0.34375 4.40625 -0.34375 Z M 2.90625 -0.34375"/>
    <path id="c" d="M 8.328125 -7.609375 C 8.328125 -7.640625 8.296875 -7.71875 8.203125 -7.71875 C 8.171875 -7.71875 8.15625 -7.71875 8.046875 -7.59375 L 7.265625 -6.75 C 7.171875 -6.90625 6.671875 -7.71875 5.453125 -7.71875 C 3.015625 -7.71875 0.546875 -5.296875 0.546875 -2.765625 C 0.546875 -0.953125 1.84375 0.234375 3.515625 0.234375 C 4.46875 0.234375 5.296875 -0.203125 5.875 -0.703125 C 6.90625 -1.59375 7.09375 -2.59375 7.09375 -2.625 C 7.09375 -2.734375 6.984375 -2.734375 6.953125 -2.734375 C 6.890625 -2.734375 6.828125 -2.71875 6.8125 -2.625 C 6.71875 -2.3125 6.46875 -1.53125 5.703125 -0.890625 C 4.953125 -0.28125 4.265625 -0.09375 3.6875 -0.09375 C 2.703125 -0.09375 1.546875 -0.671875 1.546875 -2.375 C 1.546875 -3 1.78125 -4.78125 2.875 -6.0625 C 3.53125 -6.828125 4.5625 -7.375 5.546875 -7.375 C 6.65625 -7.375 7.3125 -6.53125 7.3125 -5.265625 C 7.3125 -4.828125 7.265625 -4.8125 7.265625 -4.703125 C 7.265625 -4.59375 7.390625 -4.59375 7.4375 -4.59375 C 7.578125 -4.59375 7.578125 -4.625 7.640625 -4.8125 Z M 8.328125 -7.609375"/>
    <path id="d" d="M 1.734375 -0.859375 C 1.625 -0.421875 1.609375 -0.34375 0.75 -0.34375 C 0.5625 -0.34375 0.4375 -0.34375 0.4375 -0.125 C 0.4375 0 0.53125 0 0.75 0 L 4.375 0 C 6.65625 0 8.8125 -2.3125 8.8125 -4.703125 C 8.8125 -6.25 7.875 -7.484375 6.234375 -7.484375 L 2.546875 -7.484375 C 2.34375 -7.484375 2.21875 -7.484375 2.21875 -7.265625 C 2.21875 -7.140625 2.328125 -7.140625 2.546875 -7.140625 C 2.6875 -7.140625 2.875 -7.125 3.015625 -7.125 C 3.1875 -7.09375 3.25 -7.0625 3.25 -6.9375 C 3.25 -6.90625 3.234375 -6.875 3.203125 -6.734375 Z M 4.109375 -6.71875 C 4.203125 -7.109375 4.234375 -7.140625 4.703125 -7.140625 L 5.875 -7.140625 C 6.9375 -7.140625 7.859375 -6.5625 7.859375 -5.109375 C 7.859375 -4.578125 7.640625 -2.78125 6.703125 -1.578125 C 6.390625 -1.171875 5.515625 -0.34375 4.171875 -0.34375 L 2.9375 -0.34375 C 2.78125 -0.34375 2.765625 -0.34375 2.6875 -0.34375 C 2.578125 -0.359375 2.546875 -0.375 2.546875 -0.453125 C 2.546875 -0.5 2.546875 -0.515625 2.609375 -0.71875 Z M 4.109375 -6.71875"/>
  </defs>
  <path fill="none" stroke="#000" stroke-linecap="round" stroke-linejoin="round" stroke-miterlimit="10" stroke-width="5" d="M 129.765447 110.927481 L 1150.614915 110.927481 L 1150.614915 1131.816058 L 129.765447 1131.816058 Z M 129.765447 110.927481" transform="matrix(.09988 0 0 -.09988 410.56 654.82)"/>
  <path fill="none" stroke="#000" stroke-linecap="round" stroke-linejoin="round" stroke-miterlimit="10" stroke-width="40" d="M196.92 178.12 196.92 178.12M1083.42 178.12 1083.42 178.12M1083.42 1064.63 1083.42 1064.63M196.92 1064.63 196.92 1064.63" transform="matrix(.09988 0 0 -.09988 410.56 654.82)"/>
  <use xlink:href="#a" x="413.07" y="653.46"/>
  <use xlink:href="#b" x="527.72" y="653.46"/>
  <use xlink:href="#c" x="527.72" y="539.53"/>
  <use xlink:href="#d" x="411.91" y="539.53"/>
</svg>
