<svg xmlns="http://www.w3.org/2000/svg" xmlns:xlink="http://www.w3.org/1999/xlink" width="170" height="180" viewBox="0 0 170 180">
  <defs>
    <path id="a" d="M1.95-1.27c-.43.74-.86.9-1.34.93-.13.01-.22.01-.22.22q0 .1.14.12l.94-.03 1.1.03c.06 0 .2 0 .2-.2 0-.13-.1-.14-.18-.14-.25-.02-.51-.11-.51-.38q0-.2.15-.4l.83-1.41h2.75c.03.23.17 1.72.17 1.83 0 .32-.56.36-.78.36-.15 0-.26 0-.26.22 0 .12.14.12.15.12l1.38-.03L7.7 0c.07 0 .2 0 .2-.22 0-.12-.12-.12-.26-.12-.67 0-.67-.08-.7-.4l-.67-6.84c-.02-.22-.02-.26-.2-.26-.2 0-.23.07-.3.18Zm1.33-1.6 2.16-3.61.34 3.6Zm0 0"/>
    <path id="b" d="M1.75-.86c-.1.44-.12.52-1 .52-.19 0-.3 0-.3.22 0 .12.11.12.3.12h3.92C6.4 0 7.7-1.3 7.7-2.36c0-.8-.64-1.44-1.7-1.55 1.13-.21 2.3-1.01 2.3-2.06 0-.81-.73-1.51-2.04-1.51H2.56c-.2 0-.31 0-.31.21 0 .13.1.13.3.13l.42.01c.2.04.3.04.3.2l-.05.2Zm1.66-3.16.67-2.7c.1-.39.12-.42.6-.42h1.41c.96 0 1.2.64 1.2 1.12 0 .97-.95 2-2.29 2ZM2.9-.34h-.24q-.15-.01-.14-.11c0-.05 0-.07.05-.27l.76-3.05h2.07c1.06 0 1.26.82 1.26 1.29 0 1.07-.97 2.14-2.26 2.14Zm0 0"/>
    <path id="c" d="M8.33-7.6c0-.04-.03-.12-.13-.12-.03 0-.04 0-.15.13l-.78.84c-.1-.16-.6-.97-1.82-.97-2.43 0-4.9 2.42-4.9 4.95 0 1.82 1.3 3 2.97 3C4.47.23 5.3-.2 5.88-.7a3.6 3.6 0 0 0 1.21-1.92c0-.11-.1-.11-.14-.11q-.1-.02-.14.1c-.1.32-.34 1.1-1.1 1.74-.76.6-1.44.8-2.02.8-.99 0-2.14-.58-2.14-2.28 0-.63.23-2.41 1.33-3.7a3.7 3.7 0 0 1 2.67-1.3c1.1 0 1.76.84 1.76 2.1 0 .44-.04.46-.04.57s.12.1.17.1c.14 0 .14-.03.2-.21Zm0 0"/>
    <path id="d" d="M1.73-.86c-.1.44-.12.52-.98.52-.19 0-.31 0-.31.22 0 .12.1.12.31.12h3.63C6.65 0 8.8-2.31 8.8-4.7c0-1.55-.94-2.78-2.58-2.78H2.55c-.2 0-.33 0-.33.21 0 .13.1.13.33.13l.47.01c.17.04.23.07.23.2l-.05.2Zm2.38-5.86c.1-.39.12-.42.6-.42h1.17c1.06 0 1.98.58 1.98 2.03 0 .53-.22 2.33-1.16 3.53A3.3 3.3 0 0 1 4.17-.34H2.7q-.15-.01-.14-.11c0-.05 0-.07.06-.27Zm0 0"/>
  </defs>
  <path fill="none" stroke="#000" stroke-linecap="round" stroke-linejoin="round" stroke-miterlimit="10" stroke-width=".4994" d="M23.52 143.74h101.96V41.77H23.52Zm0 0"/>
  <path fill="none" stroke="#000" stroke-linecap="round" stroke-linejoin="round" stroke-miterlimit="10" stroke-width="40" d="M196.92 178.12 196.92 178.12M1083.42 178.12 1083.42 178.12M1083.42 1064.63 1083.42 1064.63M196.92 1064.63 196.92 1064.63" transform="matrix(.09988 0 0 -.09988 10.56 154.82)"/>
  <use xlink:href="#a" x="13.07" y="153.46"/>
  <use xlink:href="#b" x="127.72" y="153.46"/>
  <use xlink:href="#c" x="127.72" y="39.53"/>
  <use xlink:href="#d" x="11.91" y="39.53"/>
</svg>
