<svg xmlns="http://www.w3.org/2000/svg" xmlns:xlink="http://www.w3.org/1999/xlink" width="595.32" height="841.92" viewBox="0 0 595.32 841.92">
  <defs>
    <path id="A" d="M5.72-6.55a2 2 0 0 0-.63-.68q-.34-.2-.82-.2-.5 0-.88.2-.36.18-.55.54-.18.35-.18.8 0 .26.07.5.09.24.27.42.2.2.52.31.32.12.84.11.46 0 1.06-.03l-.14.55-.66.22q-.6 0-1.04.06t-.85.22q-.39.14-.64.36-.23.2-.37.5t-.13.7q0 .47.2.78.22.3.57.44.34.13.75.13.5 0 .94-.15t.8-.42q.4-.25.87-.72l.36.36v.27q-.72.6-1.2.86t-.99.39q-.52.12-1.14.12-.7 0-1.22-.23-.5-.24-.78-.66a1.6 1.6 0 0 1-.28-.92q0-.84.51-1.42.53-.6 1.65-.95l-.02-.08a2 2 0 0 1-.73-.72 2 2 0 0 1-.22-.99q0-.58.45-1.09t1.19-.81 1.42-.31q.81 0 1.26.25.46.24.75.8Zm0 0"/>
    <path id="z" d="M4.1-.94q.3 0 .48-.03.16-.04.28-.12l.17-.2.16-.43h.48L5.57 0H.76v-.28q.26-.6.69-1.25.42-.66 1.22-1.53.67-.75.96-1.14.33-.42.49-.72a2.4 2.4 0 0 0 .31-1.13q0-.45-.14-.78t-.44-.53a1.3 1.3 0 0 0-.71-.19q-1.14 0-1.5 1.22h-.7v-1.12a6 6 0 0 1 2.44-.64q1.07 0 1.64.48.56.46.56 1.38 0 .3-.06.57-.07.28-.2.52-.14.25-.37.55T4.47-4l-.92 1Q2.42-1.8 1.9-.94Zm0 0"/>
    <path id="y" d="M4.67 0v-.28q.29-.06.42-.13.15-.07.22-.2.08-.12.08-.34 0-.2-.05-.43L5.2-1.9l-.22-.75H2.25l-.19.58q-.15.44-.2.66t-.05.4q0 .34.17.52.18.15.55.22V0H.03v-.28q.33-.06.56-.4.25-.31.49-.93l2.44-6.48h.93l1.99 6.53q.14.46.25.7t.26.38q.15.12.4.2V0ZM2.42-3.17h2.44L3.75-6.94Zm0 0"/>
    <path id="C" d="M2.78-8v.28q-.27.05-.4.13-.15.05-.22.2a1 1 0 0 0-.07.34q0 .2.05.44l.13.52 1.37 4.78 1.69-4.83.06-.24.06-.23.03-.2.02-.17q0-.35-.17-.5-.16-.18-.55-.24V-8h2.47v.28q-.24.06-.4.17-.13.12-.29.36-.14.25-.34.78L3.8.1h-.77L1.05-6.44Q.9-6.96.77-7.19a1 1 0 0 0-.25-.34 1 1 0 0 0-.4-.19V-8Zm0 0"/>
    <path id="o" d="M4.9-2.48H2.4l-.2.56-.14.45q-.04.22-.04.47 0 .59.6.6V0H.13v-.4Q.35-.4.5-.52.67-.67.8-.9q.14-.22.3-.64l2.45-6.52H5.1l1.92 6.57.22.64q.1.17.23.3.15.1.4.15V0H4.64v-.4q.3-.02.45-.15.14-.14.14-.39 0-.19-.04-.4l-.13-.57Zm-2.28-.7h2.11L3.8-6.46Zm0 0"/>
    <path id="p" d="M5.7-4.19q.81.25 1.24.75t.43 1.17q0 .6-.2 1.02-.18.44-.6.72-.38.27-.93.4Q5.1.02 4.27 0H.66v-.4q.3-.06.42-.18a.5.5 0 0 0 .15-.28q.06-.17.05-.6v-5.06q0-.44-.05-.62a.5.5 0 0 0-.15-.28 1 1 0 0 0-.42-.19V-8h3.82a7 7 0 0 1 1.7.22q.32.1.5.26.19.14.32.33.14.2.22.44t.08.52q0 1.32-1.6 1.98ZM3.87-4.5q.59 0 .91-.16.34-.17.52-.48.17-.32.17-.88 0-.66-.38-.98-.37-.3-1.2-.31-.4 0-.8.03v2.78ZM3.1-.7l.8.01q.56 0 .92-.14t.55-.47.2-.95q0-.49-.15-.83t-.5-.53-1-.2H3.1Zm0 0"/>
    <path id="r" d="M6.47-7.81v1.68h-.8q-.14-.64-.45-.96-.3-.32-.78-.32-.95 0-1.4.9a6 6 0 0 0-.48 2.62q0 1.62.42 2.47.44.83 1.29.83.42 0 .68-.14.3-.15.44-.43.15-.3.28-.8h.8V-.2a9 9 0 0 1-2.28.3q-1.22 0-2-.44-.77-.45-1.14-1.33a6 6 0 0 1-.36-2.25q0-1.27.42-2.2a3.2 3.2 0 0 1 1.28-1.46 4 4 0 0 1 2-.51q.6 0 1.08.06.49.07 1 .22m0 0"/>
    <path id="s" d="M3.7-8q.98 0 1.63.16.66.15 1.17.48t.83.78q.3.46.45 1.06t.16 1.35q0 1.24-.38 2.1-.35.8-.98 1.27-.64.47-1.53.66Q4.36 0 3.3 0H.66v-.4q.3-.06.42-.18a.5.5 0 0 0 .15-.28q.06-.17.05-.6v-5.06q0-.44-.05-.62a.5.5 0 0 0-.15-.28 1 1 0 0 0-.42-.19V-8ZM3.1-.7l.52.01q.9 0 1.41-.36.5-.37.75-1.1.27-.75.27-1.88 0-1.6-.63-2.44a2.1 2.1 0 0 0-1.81-.84l-.52.01Zm0 0"/>
    <path id="t" d="M4.83-3.62q.28.2.45.5t.28.8l.14.7.14.57q.08.25.2.4.1.17.26.24.14.09.42.13L6.66 0H5.03a8 8 0 0 1-.33-1.25l-.26-1.23q-.07-.33-.16-.55a1 1 0 0 0-.22-.33.6.6 0 0 0-.3-.16q-.15-.04-.38-.04H2.7L2.3-1.7q-.07.22-.08.36l-.05.54q0 .2.05.3.06.08.17.14.12.05.42.08L2.75 0H.33L.4-.28a1 1 0 0 0 .32-.13 1 1 0 0 0 .2-.22q.07-.13.13-.34l.19-.78 1-4.52q.13-.57.13-.92 0-.27-.15-.39a1 1 0 0 0-.42-.14L1.87-8h2.61q.61 0 1 .08a2 2 0 0 1 .68.22q.27.15.46.37.19.24.29.53t.09.61q0 .9-.55 1.55-.54.63-1.62.95ZM3.5-4.07q.86 0 1.34-.24.5-.23.79-.75a2.3 2.3 0 0 0 .23-1.56 1 1 0 0 0-.13-.33 1 1 0 0 0-.18-.23 1 1 0 0 0-.3-.17 2 2 0 0 0-.4-.11 5 5 0 0 0-1.29 0l-.75 3.39Zm0 0"/>
    <path id="v" d="M3.6-2.72q.23.15.35.38.13.22.2.6l.12.52.1.44q.07.18.15.31l.2.17q.1.05.31.08L4.98 0H3.77q-.15-.39-.25-.94l-.2-.92a2 2 0 0 0-.12-.4 1 1 0 0 0-.15-.26l-.22-.12-.31-.03h-.5l-.3 1.39a2 2 0 0 0-.1.48v.2q0 .15.04.22.04.1.14.11.09.04.3.05L2.04 0H.25L.3-.22q.17 0 .25-.08l.14-.15q.06-.1.1-.27.05-.15.15-.6l.75-3.37q.1-.44.1-.68 0-.23-.12-.3-.09-.1-.33-.1l.07-.21h1.95q.45 0 .75.06.3.04.5.15.21.12.36.29t.2.39q.08.21.08.46 0 .67-.42 1.15-.41.46-1.22.71Zm-.98-.33q.64 0 1-.17.38-.17.58-.56a1.7 1.7 0 0 0 .2-1.17l-.1-.25-.16-.16a1.4 1.4 0 0 0-.52-.22l-.46-.03-.49.03-.56 2.53Zm0 0"/>
    <path id="w" d="M3.08-.7q.21 0 .34-.02.15-.03.22-.1.08-.05.13-.15l.1-.31h.38L4.17 0H.57v-.2q.17-.47.5-.96.32-.48.91-1.14.5-.54.74-.84a3 3 0 0 0 .53-.98 1.4 1.4 0 0 0-.05-.99 1 1 0 0 0-.33-.39 1 1 0 0 0-.54-.16q-.8 0-1.1.91H.7v-.83a5 5 0 0 1 1.82-.48q.82 0 1.23.36t.42 1.04q0 .23-.04.43l-.16.39q-.09.18-.27.4-.15.22-.36.46l-.68.75Q1.8-1.36 1.42-.7Zm0 0"/>
  </defs>
  <path fill="none" stroke="#000" stroke-linejoin="round" stroke-miterlimit="10" d="M233.52 235.28H126.87m15.4-58.38v38.7m-15.17 20.26V157.4"/>
  <path fill="#fff" fill-rule="evenodd" stroke="#000" stroke-miterlimit="8" d="M165.59 239.94h26.43V229.5H165.6Zm0 0"/>
  <path fill="none" stroke="#000" stroke-linejoin="round" stroke-miterlimit="8" d="M126.87 157.53h106.38m0 77.97v-78.47"/>
  <path fill="#fff" fill-rule="evenodd" stroke="#000" stroke-miterlimit="8" d="M140.2 162.84h26.42v-10.38H140.2Zm52.8-.16h26.42v-10.4H193Zm0 0"/>
  <path fill-rule="evenodd" d="M231.34 235.05a1.77 1.77 0 1 1 3.55 0 1.77 1.77 0 0 1-3.55 0m-105.79.33a1.77 1.77 0 1 1 3.54 0 1.77 1.77 0 0 1-3.54 0m0 0"/>
  <use xlink:href="#o" x="129.35" y="232.75"/>
  <use xlink:href="#p" x="222.88" y="232.75"/>
  <path fill="none" stroke="#000" stroke-linejoin="round" stroke-miterlimit="8" d="M217.67 176.9v38.65m-75.65-19.98h-14.93m105.66.06h-14.88m-75.67-18.48h75.05m-74.73 38.57h75.01"/>
  <path fill="#fff" fill-rule="evenodd" stroke="#000" stroke-miterlimit="8" d="M147.8 182.33h26.42v-10.38H147.8Zm38.17-.03h26.42v-10.39h-26.42Zm-20.38 38.11h26.42v-10.39H165.6Zm0 0"/>
  <path fill="none" stroke="#000" stroke-linejoin="round" stroke-miterlimit="8" d="M180.13 177.06v-18.92"/>
  <path fill-rule="evenodd" d="M127.2 194.35c.91 0 1.65.69 1.65 1.55 0 .85-.74 1.55-1.65 1.55s-1.65-.7-1.65-1.55.75-1.55 1.65-1.55m14.98 0c.9 0 1.64.69 1.64 1.55 0 .85-.73 1.55-1.64 1.55s-1.65-.7-1.65-1.55.74-1.55 1.65-1.55m0 0"/>
  <use xlink:href="#r" x="117.61" y="199.43"/>
  <use xlink:href="#s" x="144.93" y="199.43"/>
  <path fill="none" stroke="#000" stroke-linejoin="round" stroke-miterlimit="8" d="M322.81 229.75H470.5m-37.9.17V161.7m37.94 68.22V161.7m-110.7 68.1v-68.22"/>
  <path fill="none" stroke="#000" stroke-linejoin="round" stroke-miterlimit="8" stroke-width="1.5" d="M328.75 210.94H318.4"/>
  <path fill="none" stroke="#000" stroke-linejoin="round" stroke-miterlimit="8" stroke-width=".75" d="M331.79 214.93h-16.61"/>
  <path fill="none" stroke="#000" stroke-linejoin="round" stroke-miterlimit="8" d="M396.65 229.82v-68.24m-73.42 48.6v-48.2m0 67.95v-14.38"/>
  <path fill="#fff" fill-rule="evenodd" stroke="#000" stroke-miterlimit="8" d="M353.53 205.88h12.86v-23.86h-12.86Zm0 0"/>
  <use xlink:href="#t" x="355.94" y="197.87"/>
  <path fill="#fff" fill-rule="evenodd" stroke="#000" stroke-miterlimit="8" d="M316.93 196.57h12.86v-23.85h-12.86Zm73.43 9.32h12.86v-23.85h-12.86Zm0 0"/>
  <use xlink:href="#v" x="394.06" y="190.44"/>
  <use xlink:href="#w" x="394.54" y="203.27"/>
  <path fill-rule="evenodd" d="M393.99 194.98h6v-.6h-6Zm0 0"/>
  <path fill="none" stroke="#000" stroke-linejoin="round" stroke-miterlimit="8" d="M322.9 161.96h147.72"/>
  <path fill="#fff" fill-rule="evenodd" stroke="#000" stroke-linejoin="round" stroke-miterlimit="8" d="M470.61 187.93c4.09 0 7.4 3.14 7.4 7.02s-3.31 7.03-7.4 7.03-7.4-3.15-7.4-7.03 3.32-7.02 7.4-7.02Zm0 0"/>
  <use xlink:href="#y" x="466.73" y="198.47"/>
  <path fill="#fff" fill-rule="evenodd" stroke="#000" stroke-miterlimit="8" d="M438.84 167.96h25.33V155.9h-25.33Zm0 0"/>
  <use xlink:href="#t" x="447.79" y="166.11"/>
  <path fill="#fff" fill-rule="evenodd" stroke="#000" stroke-miterlimit="8" d="M438.97 235.68h25.3v-12.04h-25.3Zm0 0"/>
  <use xlink:href="#z" x="445.03" y="233.71"/>
  <use xlink:href="#t" x="451.62" y="233.71"/>
  <use xlink:href="#A" x="308.48" y="211.9"/>
  <path fill="#fff" fill-rule="evenodd" stroke="#000" stroke-linejoin="round" stroke-miterlimit="8" d="M432.71 187.8c4.1 0 7.4 3.15 7.4 7.03s-3.3 7.03-7.4 7.03c-4.08 0-7.39-3.15-7.39-7.03s3.3-7.03 7.4-7.03Zm0 0"/>
  <use xlink:href="#C" x="429.09" y="199.43"/>
  <use xlink:href="#t" x="319.62" y="188.53"/>
</svg>
