<svg xmlns="http://www.w3.org/2000/svg" xmlns:xlink="http://www.w3.org/1999/xlink" width="595.32" height="841.92" viewBox="0 0 595.32 841.92">
  <defs>
    <path id="e" d="M3.05-1.1v.23l.03.15q0 .06.04.11l.08.08q.04.05.13.08t.2.04a5 5 0 0 0 .75.05V0H.98v-.36l.43-.02.48-.06.13-.06.09-.08.06-.1a1 1 0 0 0 .06-.41v-2.99q0-.15-.06-.22A.2.2 0 0 0 2-4.38q-.15 0-.4.15-.24.12-.65.39l-.1-.2-.08-.2 1.01-.56 1.03-.56h.25l-.01.42v.67Zm0 0"/>
    <path id="f" d="M3.02-.67q.2 0 .3-.02.13 0 .2-.06t.12-.16l.14-.28h.4q-.05.3-.05.6L4.09 0H.56v-.22a7 7 0 0 1 .53-.87 7 7 0 0 1 .86-.97l.63-.66q.25-.28.39-.5a1.4 1.4 0 0 0 .25-.8q0-.2-.06-.37a1 1 0 0 0-.18-.31 1 1 0 0 0-.28-.2 1 1 0 0 0-.4-.07 1 1 0 0 0-.66.22q-.25.21-.39.6H.7v-.82a6 6 0 0 1 1.78-.42q.44 0 .74.1t.5.27q.18.16.26.4.1.23.1.5a2 2 0 0 1-.11.57q-.05.16-.14.28t-.24.29q-.1.14-.26.3-.16.19-.36.38l-.42.42-.42.43q-.21.2-.38.4-.16.2-.27.38Zm0 0"/>
    <path id="d" d="M2.58-4.1q.54-.82 1.08-1.21.52-.4 1.07-.4.57 0 .85.34.3.3.3.92v.17q.5-.72 1-1.06.49-.36 1.04-.36.53 0 .83.3.3.32.3.88 0 .38-.18 1.05l-.39 1.55q-.15.63-.15.89 0 .24.08.34.07.12.25.11a.6.6 0 0 0 .36-.14q.2-.15.57-.55l.33.33a5 5 0 0 1-.87.78Q8.67.1 8.19.1a.8.8 0 0 1-.61-.26 1 1 0 0 1-.24-.7q0-.38.2-1.13l.26-1q.14-.55.18-.81.05-.27.05-.44 0-.4-.14-.58-.13-.18-.44-.19a1 1 0 0 0-.53.2 3 3 0 0 0-.6.57q-.3.4-.5.77t-.3.92L4.98 0H3.97l.67-2.98.17-.8q.05-.27.05-.45 0-.43-.16-.6-.15-.18-.47-.19a1 1 0 0 0-.5.2q-.28.18-.6.59-.33.4-.52.78-.18.38-.3.92L1.77 0H.75l.84-3.72q.15-.56.14-.86a.6.6 0 0 0-.07-.34q-.09-.1-.25-.11a.6.6 0 0 0-.38.16q-.2.14-.56.53l-.33-.33q.51-.53.9-.78.36-.25.8-.25.38 0 .58.25.22.23.22.62 0 .33-.12.69Zm0 0"/>
    <path id="l" d="M3.1-2.4a1 1 0 0 0-.13-.32.4.4 0 0 0-.14-.12l-.27-.04h-.4L1.55 0h-1l1.5-6.7.1-.52q.04-.2.04-.34 0-.25-.16-.35Q1.88-8 1.5-8l.08-.32 1.47-.04h.34l-1.14 5.1h.19q.43 0 .98-.37.55-.39.88-.72T4.63-5q0-.28-.41-.31l.08-.3h1.89l.1.3q-.48.44-1.02.86L3.8-3.33l.58 2.11q.06.29.13.4.05.12.12.18.08.05.2.05.16 0 .36-.16.21-.17.49-.47l.33.33q-.54.55-.88.77-.35.21-.66.21a1 1 0 0 1-.64-.21 2 2 0 0 1-.37-.77Zm0 0"/>
    <path id="o" d="M1.44.5q-.12.14-.19.27a1 1 0 0 0-.14.55q0 .44.31.63.3.2.96.2.71 0 1.15-.32T4.28.8q.3-.72.61-2.2h-.08q-.58.78-1.06 1.13A1.7 1.7 0 0 1 2.7.1q-.64 0-1-.48a2.3 2.3 0 0 1-.34-1.38q0-.99.39-1.92.39-.91 1.08-1.47a2.5 2.5 0 0 1 2.26-.45q.33.08.66.3l.53-.4.38.1-.6 2.74-.3 1.43Q5.54-.2 5.39.31T5 1.23a2.6 2.6 0 0 1-1.42 1.22q-.5.17-1.19.17-2.22 0-2.22-1.3 0-.32.2-.59t.65-.56ZM3.13-.6q.29 0 .59-.21t.62-.64q.35-.45.54-.86.18-.4.3-1 .15-.6.15-1.05t-.2-.67q-.19-.2-.65-.2-.6 0-1.07.48t-.75 1.31a5 5 0 0 0-.27 1.63q0 .6.17.9.19.3.56.3m0 0"/>
  </defs>
  <path fill="#fff" fill-rule="evenodd" stroke="#000" stroke-linejoin="round" stroke-miterlimit="10" stroke-width="1.5" d="M87.5 202.54a7.7 7.7 0 0 1 10.4 3.07c2 3.71.58 8.35-3.17 10.37a7.67 7.67 0 0 1-10.41-3.07c-2-3.7-.57-8.35 3.18-10.37Zm0 0"/>
  <path d="m76.14 210.2 14.9.05v-1.5l-14.9-.05Zm14.88 1.3a2 2 0 0 0 2.01-1.99 2 2 0 0 0-2-2 2 2 0 0 0-2 1.99 2 2 0 0 0 2 2m0 0"/>
  <path fill="#fff" fill-rule="evenodd" stroke="#000" stroke-linejoin="round" stroke-miterlimit="10" stroke-width="1.5" d="M151.3 223.8h61.46v-13.7H151.3Zm0 0"/>
  <use xlink:href="#d" x="176.01" y="219.21"/>
  <use xlink:href="#e" x="185.84" y="221.61"/>
  <path fill="#fff" fill-rule="evenodd" stroke="#000" stroke-linejoin="round" stroke-miterlimit="10" stroke-width="1.5" d="M160.94 209.82h19.79v-14.84h-19.8Zm0 0"/>
  <use xlink:href="#d" x="163.51" y="204.47"/>
  <use xlink:href="#f" x="173.61" y="206.86"/>
  <use xlink:href="#l" x="162.55" y="235.27"/>
  <path fill="none" stroke="#000" stroke-linejoin="round" stroke-miterlimit="10" stroke-width="1.5" d="M235.87 224.02H75.44"/>
  <path fill="none" stroke="#000" stroke-linejoin="round" stroke-miterlimit="10" stroke-width=".75" d="M90.97 216.73h60.29"/>
  <path fill="none" stroke="#000" stroke-linejoin="round" stroke-miterlimit="10" stroke-width="1.5" d="M75.75 224.68v-31.9"/>
  <path fill="none" stroke="#000" stroke-linejoin="round" stroke-miterlimit="10" stroke-width=".75" d="m75.84 223.32-5.3-5.26m5.3.45-5.38-5.26m5.34-4.78-5.38-5.27m5.4 10.46-5.37-5.28m5.39-4.64-5.38-5.28m5.3.27-5.38-5.27m20.64 8.06h70.25"/>
  <use xlink:href="#o" x="226.95" y="198.35"/>
  <path d="M223.23 185.32v21.75h-.75v-21.75Zm-.39 21.75 2-2-2 6-2-6Zm0 0"/>
  <use xlink:href="#l" x="183.32" y="207.22"/>
</svg>
