<svg xmlns="http://www.w3.org/2000/svg" xmlns:xlink="http://www.w3.org/1999/xlink" width="595.32" height="841.92" viewBox="0 0 595.32 841.92">
  <defs>
    <path id="h" d="M2.58-4.1q.54-.82 1.08-1.21.52-.4 1.07-.4.57 0 .85.34.3.3.3.92v.17q.5-.72 1-1.06.49-.36 1.04-.36.53 0 .83.3.3.32.3.88 0 .38-.18 1.05l-.39 1.55q-.15.63-.15.89 0 .24.08.34.07.12.25.11a.6.6 0 0 0 .36-.14q.2-.15.57-.55l.33.33a5 5 0 0 1-.87.78Q8.67.1 8.19.1a.8.8 0 0 1-.61-.26 1 1 0 0 1-.24-.7q0-.38.2-1.13l.26-1q.14-.55.18-.81.05-.27.05-.44 0-.4-.14-.58-.13-.18-.44-.19a1 1 0 0 0-.53.2 3 3 0 0 0-.6.57q-.3.4-.5.77t-.3.92L4.98 0H3.97l.67-2.98.17-.8q.05-.27.05-.45 0-.43-.16-.6-.15-.18-.47-.19a1 1 0 0 0-.5.2q-.28.18-.6.59-.33.4-.52.78-.18.38-.3.92L1.77 0H.75l.84-3.72q.15-.56.14-.86a.6.6 0 0 0-.07-.34q-.09-.1-.25-.11a.6.6 0 0 0-.38.16q-.2.14-.56.53l-.33-.33q.51-.53.9-.78.36-.25.8-.25.38 0 .58.25.22.23.22.62 0 .33-.12.69Zm0 0"/>
    <path id="j" d="M3.1-2.4a1 1 0 0 0-.13-.32.4.4 0 0 0-.14-.12l-.27-.04h-.4L1.55 0h-1l1.5-6.7.1-.52q.04-.2.04-.34 0-.25-.16-.35Q1.88-8 1.5-8l.08-.32 1.47-.04h.34l-1.14 5.1h.19q.43 0 .98-.37.55-.39.88-.72T4.63-5q0-.28-.41-.31l.08-.3h1.89l.1.3q-.48.44-1.02.86L3.8-3.33l.58 2.11q.06.29.13.4.05.12.12.18.08.05.2.05.16 0 .36-.16.21-.17.49-.47l.33.33q-.54.55-.88.77-.35.21-.66.21a1 1 0 0 1-.64-.21 2 2 0 0 1-.37-.77Zm0 0"/>
    <path id="k" d="M2.3-1.7a4 4 0 0 0-.13.9q0 .2.05.3.06.08.17.14.12.05.42.08L2.75 0H.33L.4-.28a1 1 0 0 0 .32-.13 1 1 0 0 0 .2-.22q.07-.13.13-.34l.19-.78 1-4.52q.13-.57.13-.92 0-.27-.15-.39a1 1 0 0 0-.42-.14L1.87-8h5.29l-.41 1.8h-.56q-.02-.46-.08-.7a1 1 0 0 0-.14-.38.4.4 0 0 0-.22-.16 1 1 0 0 0-.37-.04H3.56l-.7 3.18h1.1q.25 0 .43-.06a1 1 0 0 0 .31-.26q.16-.2.36-.63h.55l-.58 2.47h-.51q0-.6-.05-.74-.03-.15-.14-.2a1 1 0 0 0-.42-.06H2.75Zm0 0"/>
    <path id="l" d="M8.03-8h1.85l-.07.28a1 1 0 0 0-.31.11l-.19.19q-.07.11-.15.36-.09.25-.2.81l-1 4.55-.12.54-.01.36q0 .26.12.38.15.1.46.14L8.34 0H6l.06-.28a1 1 0 0 0 .33-.13.5.5 0 0 0 .19-.22q.08-.13.14-.34.08-.2.2-.78l.78-3.53q.15-.73.38-1.45H8q-.18.35-.83 1.4L4.5-.93h-.62l-.5-3.77q-.1-.8-.24-2.14h-.1q-.22 1.3-.46 2.43l-.6 2.7a4 4 0 0 0-.12.91q0 .26.12.38.15.1.46.14L2.38 0H.33l.06-.28a1 1 0 0 0 .33-.13A1 1 0 0 0 .9-.63q.08-.13.14-.34l.2-.78.98-4.52a6 6 0 0 0 .15-.93q0-.3-.15-.38a1 1 0 0 0-.43-.14L1.86-8h2.1l.67 5.69Zm0 0"/>
    <clipPath id="g">
      <path d="M178 592h10v6.68h-10Zm0 0"/>
    </clipPath>
    <clipPath id="i">
      <path d="M107 574h7v9.57h-7Zm0 0"/>
    </clipPath>
  </defs>
  <path fill="#fff" fill-rule="evenodd" stroke="#000" stroke-linejoin="round" stroke-miterlimit="10" stroke-width="1.5" d="M153.14 575.73c0-2.9 2.36-5.26 5.27-5.26h47.57c2.9 0 5.26 2.36 5.26 5.26v23.4a5.27 5.27 0 0 1-5.26 5.27H158.4a5.27 5.27 0 0 1-5.27-5.26Zm0 0"/>
  <path fill="none" stroke="#000" stroke-linejoin="round" stroke-miterlimit="10" stroke-width="1.5" d="M71.29 605.66v-37.5"/>
  <path fill="none" stroke="#000" stroke-linejoin="round" stroke-miterlimit="10" stroke-width=".75" d="m71.03 604.85-5.6-6.2m5.94.54-5.69-6.2m5.66-5.62-5.7-6.2m5.72 11.9-5.7-6.2m5.71-5.07-5.69-6.2m5.62.31-5.7-6.2"/>
  <path fill="none" stroke="#000" stroke-linejoin="round" stroke-miterlimit="10" stroke-width="1.5" d="M250.07 605.21H70.8"/>
  <path fill="none" stroke="#000" stroke-linejoin="round" stroke-miterlimit="10" d="m96.95 596.07 7.96-9.59m27.14 9.59 3.77-4.9m-15.54 4.97 7.96-9.55m-19.62 9.39 7.96-9.56m-19.28 9.56-4.32-9.4m15.47 9.22-4.27-9.36m16.33 9.39-4.26-9.37m15.91 9.5-4.26-9.37m-38.36 4.79 3.75-4.9m-3.46 4.79H72.4m80.49-.06H135.5"/>
  <path fill="#fff" fill-rule="evenodd" stroke="#000" stroke-linejoin="round" stroke-miterlimit="10" stroke-width="1.5" d="M167.69 591.43a5.66 5.66 0 0 1 5.66-5.67h17.71a5.66 5.66 0 0 1 5.67 5.67v6.8a5.67 5.67 0 0 1-5.67 5.67h-17.7a5.67 5.67 0 0 1-5.67-5.66Zm0 0"/>
  <g clip-path="url(#g)">
    <use xlink:href="#h" x="178.05" y="598.42"/>
  </g>
  <g clip-path="url(#i)">
    <use xlink:href="#j" x="107.42" y="583.04"/>
  </g>
  <path d="M211.63 590.52h21.23v1h-21.23Zm21.23.5-2-3 5.99 3-6 3Zm0 0"/>
  <use xlink:href="#k" x="235.82" y="585.68"/>
  <path fill="#fff" fill-rule="evenodd" d="M149.55 577.06h66.64v-11.19h-66.64Zm0 0"/>
  <use xlink:href="#l" x="198.3" y="579.09"/>
</svg>
