<svg xmlns="http://www.w3.org/2000/svg" xmlns:xlink="http://www.w3.org/1999/xlink" width="612" height="792" viewBox="0 0 612 792">
  <defs>
    <path id="x" d="M7.16-2.03h-.33C6.25-.75 5.72-.45 4-.43h-.33C2.42-.49 2.41-.49 2.41-.96v-2.97h1.86c1 .01 1.15.17 1.3 1.15h.29v-2.8h-.28c-.14 1-.31 1.13-1.31 1.15H2.4v-2.66c.01-.36.06-.4.4-.4h1.61c1.4.01 1.64.18 1.83 1.25h.3l-.03-1.7H.14v.21c.88.06 1.02.22 1.05 1.08v5.33C1.16-.44 1.02-.28.14-.23V0h6.49Zm0 0"/>
    <path id="k" d="m2.05-1.66 2.33-2.68q-.03-.45-.18-.61-.16-.2-.54-.2v-.22h2.5v.23q-.4 0-.54.08a1 1 0 0 0-.21.2q-.07.1-.07.75v2.84q0 .63.07.75.05.12.2.2.14.1.55.1V0h-2.6v-.22q.48 0 .64-.17t.17-.88v-2.51L2.06-1.1q0 .5.14.68.15.2.56.2V0H.27v-.22q.52 0 .67-.19.15-.18.14-.86V-4.1q0-.62-.06-.73a.5.5 0 0 0-.2-.2q-.14-.1-.55-.1v-.24h2.59v.24q-.4 0-.53.08a1 1 0 0 0-.2.2q-.08.1-.08.75Zm0 0"/>
    <path id="l" d="m4.63-5.37.21 1.46H4.6q-.22-.7-.45-.89-.22-.18-.95-.18H2.05v3.71q0 .63.06.75.08.12.2.2.15.1.55.1V0H.19v-.22Q.74-.23.9-.39t.17-.88V-4.1q0-.56-.06-.72a.4.4 0 0 0-.22-.23 2 2 0 0 0-.61-.08v-.24Zm0 0"/>
    <path id="m" d="M1.5-1.14q.28 0 .47.2t.19.46-.2.46a.66.66 0 0 1-.92 0 .7.7 0 0 1-.2-.46.64.64 0 0 1 .66-.66m0 0"/>
    <path id="n" d="m1.4-7.17 1.94-.94h.2v6.7q-.01.67.04.85.06.15.23.25.2.07.72.1V0H1.55v-.22q.56 0 .72-.1.16-.08.23-.23.06-.15.06-.86v-4.28q0-.87-.04-1.1a.5.5 0 0 0-.16-.29.4.4 0 0 0-.27-.1q-.21 0-.59.2Zm0 0"/>
    <path id="i" d="M6.45 0H3.03v-.22q.68-.01.9-.17.24-.17.24-.72-1.97 0-2.84-.83a2.7 2.7 0 0 1-.88-2.08q0-.93.52-1.59.51-.66 1.26-.92.77-.25 1.94-.25 0-.5-.14-.66a1 1 0 0 0-.31-.22 3 3 0 0 0-.69-.07v-.22h3.42v.22q-.69.03-.9.21t-.25.74q1.26 0 1.98.28.73.27 1.25.9.52.65.52 1.58-.01 1.22-.86 2.07-.84.84-2.9.84.03.54.26.7.21.18.9.2ZM5.3-1.53q.87 0 1.37-.22.52-.24.85-.81.34-.6.34-1.46 0-.8-.34-1.37a1.7 1.7 0 0 0-.85-.77 4 4 0 0 0-1.37-.2Zm-1.13 0v-4.83q-.9 0-1.4.24-.5.22-.82.75-.32.52-.32 1.35 0 .93.39 1.54.38.6.9.78.53.17 1.25.17m0 0"/>
    <path id="p" d="M6.8-.19c-.52-.04-.77-.25-.99-.87L4.7-4c.92-.2 1.33-.37 1.75-.75q.61-.52.62-1.36c0-1.1-.89-1.73-2.5-1.73H1.58v.2c.51.06.56.08.69.17.09.05.17.2.17.33 0 .14-.06.44-.14.75L.8-1.08c-.22.7-.3.78-.97.9V0h2.93v-.19c-.74-.1-.82-.15-.82-.56 0-.12.03-.25.14-.69l.68-2.51.78.06L5.03 0H6.8ZM3.7-7.14c.07-.25.22-.33.61-.33q1.49 0 1.49 1.34-.01 1.8-2.27 1.8c-.22 0-.31-.01-.6-.06Zm0 0"/>
    <path id="q" d="M3.22-1.12c-.19.4-.35.5-.8.51H.9v-.05L2.44-2.2c.94-.94 1.2-1.35 1.2-1.88 0-.76-.58-1.36-1.31-1.36q-.44 0-.83.2c-.4.24-.62.5-.86 1.08l.17.07c.3-.54.64-.77 1.13-.77.58 0 1 .42 1 .99q0 .26-.06.43-.3.65-1.1 1.5L.1-.14V0h2.86l.4-1.06Zm0 0"/>
    <path id="t" d="M2.05-5.44c-.46 0-.78.13-1.08.42C.5-4.58.19-3.64.19-2.7c0 .89.26 1.8.65 2.26q.46.55 1.18.55.6 0 1.04-.42c.47-.44.77-1.38.77-2.35 0-1.65-.74-2.78-1.78-2.78m-.03.2c.68 0 1.04.91 1.04 2.6Q3.05-.1 2.02-.1.97-.1.97-2.62q0-2.6 1.05-2.61m0 0"/>
    <path id="u" d="M1.23-2.66c.47 0 .66.02.85.1.5.19.81.62.81 1.19 0 .68-.45 1.2-1.05 1.2-.22 0-.39-.06-.68-.25-.24-.16-.38-.2-.5-.2q-.31 0-.32.28c0 .28.35.45.91.45.6 0 1.25-.2 1.64-.53q.58-.51.58-1.35 0-.64-.36-1.03a2 2 0 0 0-.66-.43c.55-.38.74-.68.74-1.11 0-.66-.5-1.1-1.25-1.1q-.6 0-1.05.4c-.23.23-.36.42-.53.9l.12.03c.32-.6.7-.84 1.2-.84.52 0 .88.34.88.86q0 .43-.33.78c-.23.23-.46.36-1.01.54Zm0 0"/>
    <path id="v" d="M.95 0h2.22v-.12c-.62 0-.76-.08-.76-.47v-4.83l-.07-.02L.9-4.7v.1q.48-.17.58-.17.25-.01.25.38v3.64c-.02.52-.16.63-.77.63Zm0 0"/>
  </defs>
  <use xlink:href="#i" x="357.43" y="689.74"/>
  <use xlink:href="#k" x="366.91" y="689.74"/>
  <use xlink:href="#l" x="373.38" y="689.74"/>
  <use xlink:href="#m" x="378.3" y="689.74"/>
  <use xlink:href="#n" x="384.3" y="689.74"/>
  <path fill="none" stroke="#000" stroke-linejoin="round" stroke-miterlimit="10" stroke-width=".75" d="M232.33 656.4h104.32m-104.32-77.75 104.32.04m-78.95-.04v77.74"/>
  <path fill="#fff" fill-rule="evenodd" stroke="#000" stroke-miterlimit="8" stroke-width="1.25" d="M253.36 637.64h9.8v-35.39h-9.8Zm24.66 24.21h30.43v-11.4h-30.43Zm0 0"/>
  <path fill="none" stroke="#000" stroke-linejoin="round" stroke-miterlimit="8" stroke-width=".75" d="M336.65 578.65v77.74"/>
  <path fill="#fff" fill-rule="evenodd" stroke="#000" stroke-miterlimit="8" stroke-width="1.25" d="M297.95 584.28h30.43v-11.4h-30.43Zm0 0"/>
  <path fill="none" stroke="#000" stroke-linejoin="round" stroke-miterlimit="8" stroke-width=".75" d="m232.33 578.65-.04 77.74m8.93-37.56H222.1"/>
  <path fill="none" stroke="#fff" stroke-linejoin="round" stroke-miterlimit="8" stroke-width="3" d="m236.77 620.4-9.65.04"/>
  <path fill="none" stroke="#000" stroke-linejoin="round" stroke-miterlimit="8" stroke-width="3" d="m236.99 622.12-9.65.04"/>
  <path fill="none" stroke="#000" stroke-linejoin="round" stroke-miterlimit="8" stroke-width=".75" d="m258 584.47 78.01 66.62m-34.52-13.23 14.43-16.9"/>
  <path fill="none" stroke="#fff" stroke-linejoin="round" stroke-miterlimit="8" stroke-width="3" d="m303.88 632.91 7.25-8.55"/>
  <path fill="none" stroke="#000" stroke-linejoin="round" stroke-miterlimit="8" stroke-width="3" d="m302.73 631.8 7.26-8.56"/>
  <path fill="#fff" fill-rule="evenodd" stroke="#000" stroke-miterlimit="8" stroke-width="1.25" d="m271.65 586.9 23.14 19.76-7.4 8.67-23.14-19.76Zm0 0"/>
  <use xlink:href="#p" x="310.49" y="569.71"/>
  <use xlink:href="#q" x="317.83" y="571.27"/>
  <use xlink:href="#p" x="286.61" y="598.66"/>
  <use xlink:href="#t" x="293.93" y="600.22"/>
  <use xlink:href="#p" x="290.93" y="676.3"/>
  <use xlink:href="#u" x="298.25" y="677.86"/>
  <use xlink:href="#p" x="268.25" y="626.74"/>
  <use xlink:href="#v" x="275.57" y="628.3"/>
  <use xlink:href="#x" x="315.91" y="635.62"/>
  <use xlink:href="#t" x="323.23" y="637.18"/>
  <use xlink:href="#x" x="217.25" y="614.02"/>
  <use xlink:href="#v" x="224.57" y="615.58"/>
</svg>
