<svg xmlns="http://www.w3.org/2000/svg" xmlns:xlink="http://www.w3.org/1999/xlink" width="250" height="200" viewBox="0 0 250 200">
  <defs>
    <path id="n" d="m5.22-1.3-.14-.04c-.4.54-.53.6-1.05.62H1.41l1.84-1.67c.98-.88 1.4-1.61 1.4-2.34 0-.96-.88-1.68-2.03-1.68-.59 0-1.17.2-1.57.58-.36.33-.52.63-.7 1.3l.23.05c.44-.93.81-1.22 1.6-1.22.93 0 1.54.53 1.54 1.33 0 .75-.5 1.62-1.44 2.46L.33-.1V0h4.3Zm0 0"/>
    <path id="d" d="M7.58-1.1q-.08.05-.14.15l-.3.3c-.25.23-.36.3-.5.3q-.14 0-.14-.17l.1-.42.76-2.37.03-.27c0-.34-.28-.6-.64-.6q-.32 0-.7.21c-.53.3-.99.75-1.75 1.8.3-.74.43-1.27.43-1.44 0-.34-.25-.58-.62-.58-.67 0-1.44.63-2.45 2l.64-1.97-.03-.03-1.77.3v.16c.52 0 .52 0 .6.04q.1.06.1.16c0 .1-.25.98-.64 2.17C.31-.64.28-.48.12 0h.83c.53-1.5.7-1.86 1.08-2.36.63-.81 1.27-1.33 1.64-1.33q.21 0 .22.24c0 .12-.33 1.25-.77 2.58-.09.28-.14.4-.28.87h.83c.44-1.48.66-1.97 1.22-2.62S6-3.7 6.3-3.7q.21.01.23.2 0 .07-.07.33L5.81-.98c-.1.37-.14.53-.14.64q0 .42.44.42c.51 0 1-.31 1.58-1L7.75-1Zm0 0"/>
    <path id="f" d="M4.55-1.03c-.4.58-.46.64-.66.64-.23 0-.45-.31-.89-1.22l-.4-.84C4.21-3.7 4.54-3.87 5.07-3.91v-.15H3.06v.15c.47.02.6.05.6.18q-.02.29-1.57 1.32-.25.15-.48.32l1.33-4.35-.06-.04c-.66.14-1.08.2-1.7.26v.16c.52-.02.73.04.73.23-.02.16-.1.4-.24.85l-.1.3-.02.1L.15 0h.83l.52-1.7.47-.32c.17.43.47 1.02.66 1.35.35.6.54.78.87.78.44 0 .72-.23 1.22-1.03Zm0 0"/>
    <path id="g" d="M5.92 0H2.78v-.17q.6-.02.81-.14.22-.14.24-.56Q2-.87 1.2-1.53T.4-3.17q0-.73.48-1.25.47-.53 1.17-.74t1.78-.2q-.02-.39-.14-.51a1 1 0 0 0-.28-.18 3 3 0 0 0-.63-.06v-.17h3.14v.17q-.64.02-.84.17t-.22.58q1.15 0 1.83.22.67.22 1.12.72.48.5.47 1.25 0 .95-.78 1.62-.77.68-2.64.68 0 .42.22.56.21.12.84.14ZM4.86-1.22q.8 0 1.26-.17.48-.17.77-.64t.31-1.14q0-.65-.3-1.08-.33-.45-.8-.6-.46-.17-1.24-.17Zm-1.03 0v-3.8q-.83 0-1.28.18-.45.16-.77.59-.3.4-.3 1.08 0 .72.36 1.2.36.49.85.63.48.12 1.14.12m0 0"/>
    <path id="h" d="M1.88-1.31 4-3.42q0-.35-.16-.5-.13-.14-.48-.14v-.17h2.28v.17q-.36 0-.48.06l-.2.16q-.07.1-.07.59V-1q0 .5.06.6.05.08.2.17.1.06.5.06V0H3.26v-.17q.43 0 .57-.14Q4-.45 4-1v-1.98L1.88-.86q0 .4.12.55t.52.14V0H.25v-.17q.47 0 .6-.14Q1-.46 1-1v-2.25q0-.48-.06-.58l-.19-.15a1 1 0 0 0-.5-.08v-.17h2.38v.17q-.36 0-.49.06l-.2.16q-.07.1-.06.59Zm0 0"/>
    <path id="j" d="m4.25-4.23.19 1.15H4.2q-.2-.57-.4-.72t-.88-.14H1.88V-1q0 .5.06.6.06.08.19.17.12.06.5.06V0H.17v-.17Q.7-.2.84-.31T1-1v-2.25q0-.45-.06-.58A.4.4 0 0 0 .72-4q-.15-.06-.55-.06v-.17Zm0 0"/>
    <path id="m" d="M1.38-.9q.24 0 .42.17.17.13.17.34t-.17.37a.7.7 0 0 1-.43.14.6.6 0 0 1-.42-.14.5.5 0 0 1-.17-.37q0-.23.17-.36.18-.14.43-.14m0 0"/>
  </defs>
  <path fill="none" stroke="#000" stroke-linecap="round" stroke-linejoin="round" stroke-miterlimit="10" stroke-width=".75" d="m77.2 189.46 45-.05m-23.25.05V178.3m0 .01-9-5.6m0-.01 18-5.59m0 0-18-5.6m0 0 18-5.55m-18-5.6 18-5.6m-18-5.6 18-5.55m0 22.35-18-5.6m18-5.6-18-5.6m18-5.56-18-5.59m0 0 18-5.6m-9-4.35v-9.6m9 13.95-9-4.75" transform="matrix(.91636 0 0 -.79085 61.96 195.91)"/>
  <path fill="#333" fill-rule="evenodd" stroke="#000" stroke-linecap="round" stroke-linejoin="round" stroke-miterlimit="10" stroke-width=".75" d="M98.95 108.46a4.5 4.5 0 1 1-.01-8.99 4.5 4.5 0 0 1 0 8.99m0 0" transform="matrix(.91636 0 0 -.79085 61.96 195.91)"/>
  <path fill="none" stroke="#00f" stroke-linejoin="round" stroke-miterlimit="10" stroke-width="4.5" d="M26.95 54.46h153" transform="matrix(.91636 0 0 -.79085 61.96 195.91)"/>
  <use xlink:href="#d" x="173.2" y="119.68"/>
  <use xlink:href="#f" x="173.2" y="84.08"/>
  <use xlink:href="#g" x="148.44" y="176.66"/>
  <use xlink:href="#h" x="157.12" y="176.66"/>
  <use xlink:href="#j" x="163.05" y="176.66"/>
  <use xlink:href="#m" x="167.56" y="176.66"/>
  <use xlink:href="#n" x="173.09" y="176.66"/>
</svg>
