<svg xmlns="http://www.w3.org/2000/svg" width="230" height="170" viewBox="0 0 230 170">
  <path fill="none" stroke="#7f7f7f" stroke-linecap="round" stroke-linejoin="round" stroke-miterlimit="10" stroke-width="5" d="M 219.91841 785.627603 L 116.198665 792.432745" transform="matrix(.1 0 0 -.1 73.72 154.16)"/>
  <path d="M75.34 77.43c-.42.7-.82.95-1.4.98-.13.02-.22.02-.22.23q.01.11.14.12l.97-.03 1.06.03c.07 0 .22 0 .22-.23 0-.1-.1-.12-.17-.12-.28-.02-.5-.12-.5-.4 0-.17.07-.3.22-.56l.91-1.5h3.04l.03.3c.03.31.18 1.55.18 1.78 0 .36-.61.38-.8.38-.13 0-.27 0-.27.22 0 .13.11.13.18.13l.65-.03h.68c.72 0 1.25.03 1.26.03.09 0 .22 0 .22-.23 0-.12-.11-.12-.29-.12-.65 0-.66-.1-.7-.46l-.73-7.45c-.02-.24-.07-.26-.2-.26-.12 0-.2.02-.3.2Zm1.43-1.83 2.4-4.01.4 4Zm0 0"/>
  <path fill="none" stroke="#7f7f7f" stroke-linecap="round" stroke-linejoin="round" stroke-miterlimit="10" stroke-width="5" d="M 1257.194081 717.771737 L 1360.913826 710.966595" transform="matrix(.1 0 0 -.1 73.72 154.16)"/>
  <path d="M217.03 80.38c.1-.44.15-.46.61-.46h1.56c1.35 0 1.35 1.15 1.35 1.25 0 .97-.97 2.2-2.55 2.2h-1.71Zm2.01 3.08c1.3-.23 2.48-1.14 2.48-2.24 0-.93-.82-1.65-2.17-1.65h-3.83c-.22 0-.33 0-.33.23 0 .12.1.12.29.12.72 0 .72.1.72.22q.01.03-.04.28l-1.62 6.42c-.1.42-.13.54-.96.54-.23 0-.35 0-.35.21 0 .13.07.13.31.13h4.1c1.82 0 3.23-1.38 3.23-2.58 0-.98-.86-1.58-1.83-1.68m-1.7 3.92h-1.6l-.26-.01c-.14-.01-.15-.04-.15-.14q.01-.1.05-.26l.83-3.36h2.25c1.4 0 1.4 1.3 1.4 1.4a2.5 2.5 0 0 1-2.51 2.37"/>
  <path fill="none" stroke="#7f7f7f" stroke-linecap="round" stroke-linejoin="round" stroke-miterlimit="10" stroke-width="5" d="M 738.556245 223.264777 L 738.556245 117.589531" transform="matrix(.1 0 0 -.1 73.72 154.16)"/>
  <path d="M144.37 153.28c-.1.42-.13.53-.97.53-.22 0-.34 0-.34.22 0 .13.07.13.3.13h3.79c2.41 0 4.76-2.5 4.76-5.16 0-1.71-1.02-3-2.73-3h-3.83c-.23 0-.33 0-.33.23 0 .13.1.13.28.13.73 0 .73.09.73.22q.01.03-.05.28Zm2.52-6.46c.1-.44.15-.46.62-.46h1.31c1.13 0 2.15.6 2.15 2.25 0 .6-.24 2.67-1.4 3.98a3.5 3.5 0 0 1-2.6 1.22h-1.63c-.13-.02-.15-.04-.15-.14q.01-.1.05-.26z"/>
  <path fill="none" stroke="#7f7f7f" stroke-linecap="round" stroke-linejoin="round" stroke-miterlimit="10" stroke-width="5" d="M 738.556245 1280.134563 L 738.556245 1385.809809" transform="matrix(.1 0 0 -.1 73.72 154.16)"/>
  <path d="M151.64 03.6c0-.1-.08-.1-.1-.1s-.08 0-.17.12l-.82 1a2.2 2.2 0 0 0-1.97-1.12c-2.58 0-5.26 2.61-5.26 5.42 0 1.99 1.4 3.23 3.14 3.23.96 0 1.8-.4 2.49-.99a4 4 0 0 0 1.34-2.12c0-.11-.1-.11-.13-.11-.1 0-.11.07-.14.12a3.7 3.7 0 0 1-3.35 2.75c-1.27 0-2.37-.8-2.37-2.5 0-.38.13-2.46 1.47-4.02a4 4 0 0 1 2.91-1.44c1.32 0 1.9 1.09 1.9 2.3 0 .32-.03.58-.03.63 0 .1.11.1.15.1.13 0 .14 0 .2-.22z"/>
  <path fill="none" stroke="#000" stroke-linecap="round" stroke-linejoin="round" stroke-miterlimit="10" stroke-width="10" d="M 582.976628 638.573968 C 869.379227 619.840273 1171.26939 655.273942 1257.194081 717.771737 C 1343.118772 780.230422 1180.577572 846.091678 894.135863 864.825372 C 607.694154 883.559067 305.843101 848.125398 219.91841 785.627603 C 133.993719 723.168918 296.534918 657.346772 582.976628 638.573968 Z M 582.976628 638.573968" transform="matrix(.1 0 0 -.1 73.72 154.16)"/>
  <path fill="none" stroke="#000" stroke-linecap="round" stroke-linejoin="round" stroke-miterlimit="10" stroke-width="10" d="M 582.976628 638.573968 C 582.976628 930.412858 652.631555 1217.675878 738.556245 1280.134563 C 824.480936 1342.593248 894.135863 1156.664263 894.135863 864.825372 C 894.135863 572.986482 824.480936 285.762572 738.556245 223.264777 C 652.631555 160.806092 582.976628 346.735077 582.976628 638.573968 Z M 582.976628 638.573968" transform="matrix(.1 0 0 -.1 73.72 154.16)"/>
  <path fill="none" stroke="#000" stroke-linecap="round" stroke-linejoin="round" stroke-miterlimit="10" stroke-width="10" d="M 738.556245 223.264777 C 1024.997955 204.531083 1257.194081 425.932846 1257.194081 717.771737 C 1257.194081 1009.610628 1024.997955 1261.400869 738.556245 1280.134563 C 452.114536 1298.868258 219.91841 1077.505604 219.91841 785.627603 C 219.91841 493.788713 452.114536 241.998472 738.556245 223.264777 Z M 738.556245 223.264777" transform="matrix(.1 0 0 -.1 73.72 154.16)"/>
  <path fill="none" stroke="#000" stroke-linecap="round" stroke-linejoin="round" stroke-miterlimit="10" stroke-width="10" d="M628.54 1045.4C831.09 1032.14 1044.51 1057.21 1105.29 1101.36 1166.07 1145.56 1051.12 1192.1 848.57 1205.36 646.02 1218.61 432.6 1193.55 371.82 1149.35 311.04 1105.2 425.99 1058.62 628.54 1045.4ZM628.54 298.04C831.09 284.82 1044.51 309.85 1105.29 354.05 1166.07 398.24 1051.12 444.78 848.57 458.04 646.02 471.3 432.6 446.23 371.82 402.04 311.04 357.88 425.99 311.3 628.54 298.04ZM628.54 298.04" transform="matrix(.1 0 0 -.1 73.72 154.16)"/>
  <path fill="none" stroke="#000" stroke-linecap="round" stroke-linejoin="round" stroke-miterlimit="10" stroke-width="40" d="M1105.29 1101.36 1105.29 1101.36M371.82 402.04 371.82 402.04M371.82 1149.35 371.82 1149.35M1105.29 354.05 1105.29 354.05M628.54 1045.4 628.54 1045.4M848.57 458.04 848.57 458.04M848.57 1205.36 848.57 1205.36M628.54 298.04 628.54 298.04M582.98 638.57 582.98 638.57M894.14 864.83 894.14 864.83M1257.19 717.77 1257.19 717.77M219.92 785.63 219.92 785.63M738.56 1280.13 738.56 1280.13M738.56 223.26 738.56 223.26" transform="matrix(.1 0 0 -.1 73.72 154.16)"/>
</svg>
