<svg xmlns="http://www.w3.org/2000/svg" width="595.28" height="841.89" viewBox="0 0 595.28 841.89">
  <defs>
    <clipPath id="a">
      <path d="M 373.71875 670 L 382 670 L 382 679 L 373.71875 679 Z M 373.71875 670"/>
    </clipPath>
    <clipPath id="b">
      <path d="M 513 679 L 521.527344 679 L 521.527344 688 L 513 688 Z M 513 679"/>
    </clipPath>
    <clipPath id="c">
      <path d="M 443 746 L 452 746 L 452 754.160156 L 443 754.160156 Z M 443 746"/>
    </clipPath>
    <clipPath id="d">
      <path d="M 443 603.503906 L 452 603.503906 L 452 613 L 443 613 Z M 443 603.503906"/>
    </clipPath>
  </defs>
  <path fill="none" stroke="#7f7f7f" stroke-linecap="round" stroke-linejoin="round" stroke-miterlimit="10" stroke-width="5" d="M 219.91841 785.627603 L 116.198665 792.432745" transform="matrix(.1 0 0 -.1 373.72 754.16)"/>
  <g clip-path="url(#a)">
    <path d="M 375.339844 677.433594 C 374.921875 678.136719 374.515625 678.378906 373.945312 678.414062 C 373.8125 678.425781 373.71875 678.425781 373.71875 678.640625 C 373.71875 678.710938 373.777344 678.757812 373.863281 678.757812 C 374.074219 678.757812 374.613281 678.734375 374.828125 678.734375 C 375.175781 678.734375 375.558594 678.757812 375.890625 678.757812 C 375.960938 678.757812 376.105469 678.757812 376.105469 678.53125 C 376.105469 678.425781 376.007812 678.414062 375.9375 678.414062 C 375.664062 678.390625 375.4375 678.292969 375.4375 678.007812 C 375.4375 677.839844 375.507812 677.710938 375.664062 677.445312 L 376.570312 675.941406 L 379.613281 675.941406 C 379.625 676.050781 379.625 676.144531 379.636719 676.253906 C 379.671875 676.5625 379.816406 677.804688 379.816406 678.03125 C 379.816406 678.390625 379.207031 678.414062 379.015625 678.414062 C 378.886719 678.414062 378.753906 678.414062 378.753906 678.628906 C 378.753906 678.757812 378.863281 678.757812 378.933594 678.757812 C 379.136719 678.757812 379.375 678.734375 379.578125 678.734375 L 380.257812 678.734375 C 380.984375 678.734375 381.511719 678.757812 381.523438 678.757812 C 381.605469 678.757812 381.738281 678.757812 381.738281 678.53125 C 381.738281 678.414062 381.628906 678.414062 381.453125 678.414062 C 380.796875 678.414062 380.785156 678.304688 380.746094 677.949219 L 380.019531 670.5 C 379.996094 670.261719 379.949219 670.238281 379.816406 670.238281 C 379.695312 670.238281 379.625 670.261719 379.519531 670.441406 Z M 376.773438 675.597656 L 379.171875 671.585938 L 379.578125 675.597656 Z M 376.773438 675.597656"/>
  </g>
  <path fill="none" stroke="#7f7f7f" stroke-linecap="round" stroke-linejoin="round" stroke-miterlimit="10" stroke-width="5" d="M 1257.194081 717.771737 L 1360.913826 710.966595" transform="matrix(.1 0 0 -.1 373.72 754.16)"/>
  <g clip-path="url(#b)">
    <path d="M 517.027344 680.382812 C 517.132812 679.941406 517.179688 679.917969 517.644531 679.917969 L 519.199219 679.917969 C 520.546875 679.917969 520.546875 681.066406 520.546875 681.171875 C 520.546875 682.136719 519.578125 683.367188 518.003906 683.367188 L 516.285156 683.367188 Z M 519.042969 683.464844 C 520.34375 683.226562 521.523438 682.316406 521.523438 681.21875 C 521.523438 680.289062 520.699219 679.574219 519.351562 679.574219 L 515.519531 679.574219 C 515.296875 679.574219 515.1875 679.574219 515.1875 679.800781 C 515.1875 679.917969 515.296875 679.917969 515.476562 679.917969 C 516.203125 679.917969 516.203125 680.015625 516.203125 680.144531 C 516.203125 680.167969 516.203125 680.242188 516.15625 680.421875 L 514.542969 686.839844 C 514.433594 687.257812 514.410156 687.378906 513.578125 687.378906 C 513.351562 687.378906 513.230469 687.378906 513.230469 687.59375 C 513.230469 687.722656 513.300781 687.722656 513.542969 687.722656 L 517.632812 687.722656 C 519.460938 687.722656 520.867188 686.339844 520.867188 685.136719 C 520.867188 684.15625 520.007812 683.558594 519.042969 683.464844 Z M 517.347656 687.378906 L 515.738281 687.378906 C 515.570312 687.378906 515.546875 687.378906 515.476562 687.367188 C 515.34375 687.355469 515.332031 687.332031 515.332031 687.234375 C 515.332031 687.152344 515.355469 687.078125 515.378906 686.972656 L 516.214844 683.605469 L 518.457031 683.605469 C 519.867188 683.605469 519.867188 684.917969 519.867188 685.015625 C 519.867188 686.160156 518.828125 687.378906 517.347656 687.378906"/>
  </g>
  <path fill="none" stroke="#7f7f7f" stroke-linecap="round" stroke-linejoin="round" stroke-miterlimit="10" stroke-width="5" d="M 738.556245 223.264777 L 738.556245 117.589531" transform="matrix(.1 0 0 -.1 373.72 754.16)"/>
  <g clip-path="url(#c)">
    <path d="M 444.371094 753.277344 C 444.261719 753.695312 444.238281 753.8125 443.402344 753.8125 C 443.175781 753.8125 443.058594 753.8125 443.058594 754.027344 C 443.058594 754.160156 443.128906 754.160156 443.367188 754.160156 L 447.148438 754.160156 C 449.5625 754.160156 451.910156 751.664062 451.910156 749.003906 C 451.910156 747.285156 450.886719 746.007812 449.179688 746.007812 L 445.347656 746.007812 C 445.121094 746.007812 445.015625 746.007812 445.015625 746.234375 C 445.015625 746.355469 445.121094 746.355469 445.300781 746.355469 C 446.027344 746.355469 446.027344 746.449219 446.027344 746.582031 C 446.027344 746.605469 446.027344 746.675781 445.980469 746.855469 Z M 446.886719 746.820312 C 446.996094 746.378906 447.042969 746.355469 447.507812 746.355469 L 448.820312 746.355469 C 449.945312 746.355469 450.96875 746.960938 450.96875 748.609375 C 450.96875 749.207031 450.730469 751.28125 449.574219 752.59375 C 449.238281 752.988281 448.332031 753.8125 446.960938 753.8125 L 445.597656 753.8125 C 445.433594 753.8125 445.410156 753.8125 445.335938 753.800781 C 445.207031 753.789062 445.191406 753.765625 445.191406 753.667969 C 445.191406 753.585938 445.21875 753.515625 445.242188 753.40625 L 446.886719 746.820312"/>
  </g>
  <path fill="none" stroke="#7f7f7f" stroke-linecap="round" stroke-linejoin="round" stroke-miterlimit="10" stroke-width="5" d="M 738.556245 1280.134563 L 738.556245 1385.809809" transform="matrix(.1 0 0 -.1 373.72 754.16)"/>
  <g clip-path="url(#d)">
    <path d="M 451.644531 603.605469 C 451.644531 603.5 451.558594 603.5 451.535156 603.5 C 451.511719 603.5 451.464844 603.5 451.367188 603.617188 L 450.546875 604.621094 C 450.128906 603.90625 449.472656 603.5 448.578125 603.5 C 446 603.5 443.324219 606.113281 443.324219 608.917969 C 443.324219 610.910156 444.722656 612.152344 446.464844 612.152344 C 447.417969 612.152344 448.253906 611.746094 448.945312 611.160156 C 449.984375 610.289062 450.292969 609.132812 450.292969 609.035156 C 450.292969 608.929688 450.199219 608.929688 450.164062 608.929688 C 450.054688 608.929688 450.046875 609 450.019531 609.046875 C 449.472656 610.910156 447.859375 611.804688 446.667969 611.804688 C 445.402344 611.804688 444.304688 610.992188 444.304688 609.300781 C 444.304688 608.917969 444.425781 606.839844 445.773438 605.277344 C 446.429688 604.515625 447.550781 603.84375 448.683594 603.84375 C 449.996094 603.84375 450.582031 604.929688 450.582031 606.148438 C 450.582031 606.457031 450.546875 606.71875 450.546875 606.769531 C 450.546875 606.875 450.664062 606.875 450.699219 606.875 C 450.832031 606.875 450.84375 606.863281 450.894531 606.648438 L 451.644531 603.605469"/>
  </g>
  <path fill="none" stroke="#000" stroke-linecap="round" stroke-linejoin="round" stroke-miterlimit="10" stroke-width="10" d="M 582.976628 638.573968 C 869.379227 619.840273 1171.26939 655.273942 1257.194081 717.771737 C 1343.118772 780.230422 1180.577572 846.091678 894.135863 864.825372 C 607.694154 883.559067 305.843101 848.125398 219.91841 785.627603 C 133.993719 723.168918 296.534918 657.346772 582.976628 638.573968 Z M 582.976628 638.573968" transform="matrix(.1 0 0 -.1 373.72 754.16)"/>
  <path fill="none" stroke="#000" stroke-linecap="round" stroke-linejoin="round" stroke-miterlimit="10" stroke-width="10" d="M 582.976628 638.573968 C 582.976628 930.412858 652.631555 1217.675878 738.556245 1280.134563 C 824.480936 1342.593248 894.135863 1156.664263 894.135863 864.825372 C 894.135863 572.986482 824.480936 285.762572 738.556245 223.264777 C 652.631555 160.806092 582.976628 346.735077 582.976628 638.573968 Z M 582.976628 638.573968" transform="matrix(.1 0 0 -.1 373.72 754.16)"/>
  <path fill="none" stroke="#000" stroke-linecap="round" stroke-linejoin="round" stroke-miterlimit="10" stroke-width="10" d="M 738.556245 223.264777 C 1024.997955 204.531083 1257.194081 425.932846 1257.194081 717.771737 C 1257.194081 1009.610628 1024.997955 1261.400869 738.556245 1280.134563 C 452.114536 1298.868258 219.91841 1077.505604 219.91841 785.627603 C 219.91841 493.788713 452.114536 241.998472 738.556245 223.264777 Z M 738.556245 223.264777" transform="matrix(.1 0 0 -.1 373.72 754.16)"/>
  <path fill="none" stroke="#000" stroke-linecap="round" stroke-linejoin="round" stroke-miterlimit="10" stroke-width="10" d="M628.54 1045.4C831.09 1032.14 1044.51 1057.21 1105.29 1101.36 1166.07 1145.56 1051.12 1192.1 848.57 1205.36 646.02 1218.61 432.6 1193.55 371.82 1149.35 311.04 1105.2 425.99 1058.62 628.54 1045.4ZM628.54 298.04C831.09 284.82 1044.51 309.85 1105.29 354.05 1166.07 398.24 1051.12 444.78 848.57 458.04 646.02 471.3 432.6 446.23 371.82 402.04 311.04 357.88 425.99 311.3 628.54 298.04ZM628.54 298.04" transform="matrix(.1 0 0 -.1 373.72 754.16)"/>
  <path fill="none" stroke="#000" stroke-linecap="round" stroke-linejoin="round" stroke-miterlimit="10" stroke-width="40" d="M1105.29 1101.36 1105.29 1101.36M371.82 402.04 371.82 402.04M371.82 1149.35 371.82 1149.35M1105.29 354.05 1105.29 354.05M628.54 1045.4 628.54 1045.4M848.57 458.04 848.57 458.04M848.57 1205.36 848.57 1205.36M628.54 298.04 628.54 298.04M582.98 638.57 582.98 638.57M894.14 864.83 894.14 864.83M1257.19 717.77 1257.19 717.77M219.92 785.63 219.92 785.63M738.56 1280.13 738.56 1280.13M738.56 223.26 738.56 223.26" transform="matrix(.1 0 0 -.1 373.72 754.16)"/>
</svg>
