<svg xmlns="http://www.w3.org/2000/svg" xmlns:xlink="http://www.w3.org/1999/xlink" width="250" height="250" viewBox="0 0 250 250">
  <defs>
    <path id="a" d="M3.1-7.94h4.1v.22q-.69.02-.87.17-.2.15-.22.74 1.35 0 2.05.31t1.2.94.5 1.51q0 1.13-.84 1.99T6.1-1.2q0 .42.1.62.09.2.27.27.2.06.72.1V0H3.1v-.22q.73 0 .92-.22.18-.22.18-.76a5 5 0 0 1-2.17-.38Q1.25-1.97.84-2.6a2.7 2.7 0 0 1 .1-2.95q.5-.71 1.25-.97.75-.28 2.01-.28 0-.53-.22-.7-.21-.2-.89-.2Zm3 6.32q.6 0 .96-.18.38-.18.61-.75.25-.57.25-1.56 0-.78-.23-1.33-.22-.54-.58-.73-.36-.2-1-.2ZM4.2-6.37q-.78.01-1.1.26-.34.25-.54.78-.19.54-.19 1.36 0 .97.24 1.47t.62.69q.4.17.97.19Zm0 0"/>
    <path id="b" d="M3.7 0v-.22q.53 0 .53-.78v-2.69L2.66-1q0 .77.53.78V0H.4v-.22q.34 0 .48-.19.15-.18.14-.65v-3.38q0-.81-.62-.81v-.22h2.78v.22q-.3 0-.42.17-.12.15-.11.64v2.67l1.57-2.71q0-.45-.14-.6-.1-.17-.39-.17v-.22h2.78v.22q-.3 0-.46.16-.14.16-.14.57v3.49q0 .48.12.66.14.15.48.15V0Zm0 0"/>
    <path id="c" d="M.42-.22Q.76-.23.9-.39q.15-.15.14-.63v-3.46q0-.43-.12-.58-.13-.15-.49-.19v-.22h4.81v1.42h-.21q-.14-.65-.38-.86t-.89-.2H2.67v4.13q0 .42.13.59.14.15.54.17V0H.42Zm0 0"/>
    <path id="d" d="M1.5-1.8q.4 0 .69.28t.28.7-.28.68a1 1 0 0 1-.69.28q-.4 0-.69-.28a1 1 0 0 1-.28-.69q0-.4.28-.69a1 1 0 0 1 .69-.28m0 0"/>
    <path id="e" d="M1.77-3.98v-.2q.66-.2.92-.35.26-.17.45-.52.2-.33.19-.7 0-.48-.36-.83a1.2 1.2 0 0 0-.88-.34q-.8 0-1.39.86l-.22-.08A3.5 3.5 0 0 1 1.56-7.6q.66-.5 1.47-.5.82 0 1.36.5.53.5.53 1.17 0 .44-.25.84-.23.41-.78.72.68.34 1.05.83a2 2 0 0 1 .36 1.22q0 1.25-.9 2.12T2 .17Q.98.17.53-.16a.7.7 0 0 1-.34-.6q0-.27.19-.46.2-.2.45-.2a1 1 0 0 1 .36.1q.1.04.65.5.59.46 1.08.46.44 0 .75-.34.3-.35.31-.86 0-.81-.56-1.49a3 3 0 0 0-1.65-.93m0 0"/>
    <path id="g" d="M3.84-8.1v.26q-.6.39-.89.78-.4.51-.62 1.34-.28 1.03-.28 2.86 0 1.74.25 2.7.25.95.7 1.55.3.4.84.72v.3A4.8 4.8 0 0 1 1.45.45a6 6 0 0 1-.97-3.34q0-1.87.97-3.31a4.7 4.7 0 0 1 2.4-1.9m0 0"/>
    <path id="h" d="M5.27-8.1h.2q-.06.43-.53 1.02-.48.58-1.3.58l-.4-.03-.38-.02q-.75 0-1.31.55T.89-4.2Q1.64-5.64 3-5.64q1.07 0 1.82.8t.75 2.1q0 1.21-.65 2.05Q4.25.16 3 .16A2.3 2.3 0 0 1 1.1-.7Q.42-1.54.42-3.3q0-1.37.38-2.5a3.3 3.3 0 0 1 1.03-1.66q.66-.52 1.98-.52l.36.02.38.01q.34 0 .72-.17M3-5.23q-.5 0-.67.58a8 8 0 0 0-.17 1.94q0 1.51.17 2 .19.46.67.47.3 0 .52-.25.2-.27.26-.82.06-.56.06-2 0-.9-.17-1.4-.16-.52-.67-.52m0 0"/>
    <path id="i" d="M.14 2.4v-.27q.6-.42.9-.79.4-.53.62-1.34.27-1.03.28-2.87 0-1.72-.25-2.68A5 5 0 0 0 1-7.1q-.32-.4-.86-.72v-.28q1.42.47 2.4 1.94.98 1.45.98 3.34 0 1.88-.99 3.31A4.7 4.7 0 0 1 .14 2.41m0 0"/>
    <path id="k" d="M3.31-2.22q0 .52-.1.94-.07.4-.26.72-.19.3-.48.47-.3.15-.74.15-.42 0-.71-.14T.56-.52Q.4-.82.31-1.23a7 7 0 0 1 .02-1.9q.08-.41.26-.71.2-.3.49-.47.3-.17.73-.17t.7.15q.3.14.47.44.18.28.25.7t.08.97m-.6.05a6 6 0 0 0-.1-1.06 1 1 0 0 0-.13-.35 1 1 0 0 0-.17-.23l-.23-.14a1 1 0 0 0-.3-.05 1 1 0 0 0-.47.14 1 1 0 0 0-.3.38q-.09.23-.13.56A6 6 0 0 0 .89-1.4q.06.35.17.56t.28.31q.18.1.43.1.18 0 .32-.05a1 1 0 0 0 .25-.17q.1-.12.18-.28.07-.18.1-.36.06-.2.07-.42zm0 0"/>
    <path id="n" d="m3.17-.23-.01.1-.04.08-.04.03q-.02.03-.03.02H.73L.7-.02.64-.05.61-.12v-.21l.06-.12.06-.02h.93v-3.36L.8-3.3l-.11.04-.06-.01-.04-.08v-.24l.02-.06q0-.03.03-.04l.05-.05 1.03-.66h.01l.07-.01.06-.02h.23l.1.02.04.03.02.05v3.87h.8q.03 0 .04.02.03 0 .05.04l.02.08zm0 0"/>
    <path id="o" d="m3.16-.25-.02.1q0 .06-.02.09l-.04.04q-.02.03-.05.02H.58Q.53 0 .5-.02L.44-.05.39-.12v-.25q0-.05.03-.08l.03-.08.08-.1.86-.9a5 5 0 0 0 .75-1.02 2 2 0 0 0 .16-.68q0-.15-.05-.29l-.14-.21-.23-.16a1 1 0 0 0-.32-.06q-.2 0-.37.06-.15.04-.28.12l-.22.13-.11.05q-.04 0-.05-.02L.5-3.66l-.03-.07v-.21L.48-4l.02-.05q0-.03.06-.06.05-.05.14-.1.11-.07.25-.12.15-.07.35-.1.19-.05.37-.05.32 0 .56.09.25.1.41.25t.23.37q.08.21.08.44a2 2 0 0 1-.2.88q-.11.23-.34.54-.23.3-.61.68l-.7.73h1.93l.05.02q.03 0 .04.04l.02.08zm0 0"/>
    <path id="p" d="M3.13-1.27q0 .32-.11.57-.12.23-.32.4-.19.17-.48.27t-.66.1A3 3 0 0 1 .8-.06l-.24-.1-.12-.08-.05-.05-.02-.06v-.2q0-.12.02-.17t.06-.05q.03 0 .12.07.09.05.24.1.14.08.32.13a2 2 0 0 0 .83 0q.18-.06.28-.17a1 1 0 0 0 .18-.25 1 1 0 0 0 .06-.31 1 1 0 0 0-.08-.33 1 1 0 0 0-.22-.27q-.14-.1-.34-.17a2 2 0 0 0-.47-.06H.88l-.04-.05-.03-.08-.01-.1.01-.12.03-.06.04-.04.06-.02h.39q.21 0 .39-.05t.31-.17a1 1 0 0 0 .19-.25.8.8 0 0 0 .03-.6l-.14-.23-.22-.14A1 1 0 0 0 1.56-4q-.18 0-.36.06l-.3.14-.21.13-.11.04H.53L.5-3.65l-.03-.07v-.21l.01-.08.04-.04.04-.07.13-.09q.1-.07.25-.1.14-.07.33-.12a2 2 0 0 1 .95.03q.23.09.39.24.15.14.23.34t.08.44a1.3 1.3 0 0 1-.22.7q-.1.14-.26.24-.15.08-.35.14.23.03.41.12a1 1 0 0 1 .33.22 1 1 0 0 1 .3.7m0 0"/>
    <path id="q" d="m3.34-1.25-.03.17q-.03.06-.1.06h-.5v.99L2.65 0h-.1l-.14.02L2.28 0H2.2l-.04-.03-.02-.05v-.94H.25L.2-1.06l-.03-.08v-.35l.03-.07.05-.08 1.6-2.69.04-.04.08-.04.12-.01a1 1 0 0 1 .38 0l.14.01.08.05q.03.02.03.05v2.81h.5q.06 0 .1.06zm-1.2-2.67L.7-1.5h1.44Zm0 0"/>
    <path id="t" d="M3.22-4.16v.11l-.02.1-.01.1-.05.07-1.6 3.67-.04.06-.06.05-.1.02H1.2L1.02 0q-.07 0-.1-.02T.9-.08l.03-.08L2.6-3.89H.47q-.06 0-.1-.06l-.03-.2v-.12l.03-.07.04-.05.06-.02h2.58l.08.02q.04 0 .06.03l.01.08zm0 0"/>
    <path id="u" d="M3.27-1.12q0 .27-.11.5a1 1 0 0 1-.3.37q-.19.15-.47.23t-.66.08q-.34 0-.6-.06a1 1 0 0 1-.46-.22 1 1 0 0 1-.3-.34 1 1 0 0 1-.09-.47q0-.2.06-.38.08-.17.2-.3.14-.16.32-.29.19-.15.42-.25l-.36-.22a1.4 1.4 0 0 1-.44-.56q-.04-.15-.04-.33 0-.23.08-.44t.25-.34q.16-.15.43-.25t.61-.1a1.7 1.7 0 0 1 .99.32q.15.13.23.31a1 1 0 0 1 .02.75 1.3 1.3 0 0 1-.44.56q-.16.13-.36.24.24.13.42.25.2.12.33.26.12.15.19.32.08.15.08.36M2.52-3.4q0-.16-.05-.27l-.14-.18a1 1 0 0 0-.24-.13q-.14-.05-.32-.05-.37 0-.57.18a.6.6 0 0 0-.18.45q0 .13.04.25l.14.22a2 2 0 0 0 .61.39q.34-.16.52-.4a.7.7 0 0 0 .19-.46m.15 2.31q0-.15-.06-.28a1 1 0 0 0-.19-.23l-.69-.44-.39.22q-.16.11-.26.22t-.16.23a1 1 0 0 0-.05.28q0 .34.22.52.24.17.7.17.42 0 .65-.17.23-.2.23-.52m0 0"/>
    <path id="v" d="m3.19-2.37-.03.57q-.04.3-.13.57a3 3 0 0 1-.22.51q-.12.25-.34.4-.2.18-.5.29-.29.1-.67.1L1.02.04a2 2 0 0 1-.44-.11L.47-.12.42-.2.41-.34v-.13l.01-.06.03-.03.05-.02q.05 0 .1.03.07.04.18.07l.25.06.31.01q.33 0 .57-.12.23-.14.39-.34.15-.23.22-.5.08-.3.09-.6l-.44.19q-.25.08-.58.08-.38 0-.62-.1-.25-.1-.4-.28a1 1 0 0 1-.23-.4 2 2 0 0 1 .02-1.1 1.3 1.3 0 0 1 .73-.78 1.7 1.7 0 0 1 1.16-.05q.21.07.38.2.15.14.26.32.1.19.17.42.07.24.1.52.03.27.03.58m-.6-.07q0-.43-.06-.73t-.17-.49a1 1 0 0 0-.28-.26 1 1 0 0 0-.38-.1 1 1 0 0 0-.37.1.8.8 0 0 0-.4.51q-.06.17-.06.35 0 .2.04.37t.14.28q.1.12.25.18t.39.06.48-.06q.25-.08.42-.2m0 0"/>
    <path id="r" d="M3.14-1.42q0 .36-.12.64-.12.27-.33.45-.23.2-.53.3a2 2 0 0 1-1.07.06L.77-.03.53-.11.41-.17.38-.22.36-.28.34-.34v-.22l.03-.08q.01-.03.04-.03L.45-.7l.1.05.18.08.3.1q.19.03.44.04.24 0 .42-.05.2-.06.33-.17a1 1 0 0 0 .3-.73q0-.21-.07-.36a1 1 0 0 0-.2-.29 1 1 0 0 0-.36-.15q-.2-.05-.5-.05a5 5 0 0 0-.64.03q-.08 0-.14-.03-.03-.05-.03-.19v-1.8q0-.1.05-.15.04-.06.15-.06h1.95l.05.01.05.05q.03.03.03.08l.02.1q0 .14-.05.21-.04.06-.1.06H1.08v1.24l.25-.02h.3q.37 0 .65.1a1.2 1.2 0 0 1 .77.65q.1.24.1.52m0 0"/>
    <path id="s" d="M3.28-1.44q0 .3-.1.58a1 1 0 0 1-.27.47q-.18.21-.47.33t-.66.12q-.28 0-.5-.06a2 2 0 0 1-.37-.2Q.75-.33.64-.5a4 4 0 0 1-.25-.94A5 5 0 0 1 .5-3.17q.08-.28.22-.52a1.6 1.6 0 0 1 1.48-.8l.27.02.23.05.2.04.08.07q.04 0 .04.03l.01.05.02.06.01.08v.1l-.01.08-.03.04-.05.01-.11-.02-.16-.06-.23-.04-.3-.04q-.3 0-.54.14t-.38.35q-.15.22-.22.51a3 3 0 0 0-.08.6 1 1 0 0 1 .44-.19l.28-.08a2 2 0 0 1 .92.08q.25.09.4.27.15.17.21.4.08.24.08.5m-.6.06q.01-.2-.04-.35a1 1 0 0 0-.12-.29 1 1 0 0 0-.25-.17 1 1 0 0 0-.64-.03q-.14.01-.25.06l-.22.1-.2.1q0 .45.06.74.06.3.17.49.1.17.26.25.15.07.38.07a1 1 0 0 0 .37-.07 1 1 0 0 0 .27-.22 1.2 1.2 0 0 0 .22-.67m0 0"/>
    <path id="w" d="M3.31-2.22q0 .5-.08.92t-.26.74q-.2.3-.5.47-.3.15-.74.15-.42 0-.7-.14T.56-.52Q.4-.82.31-1.23a7 7 0 0 1 .02-1.9q.08-.41.26-.71.2-.32.49-.47.3-.17.75-.17.42 0 .7.15.29.14.45.44.2.28.25.7.08.42.08.97m-.6.03a5 5 0 0 0-.1-1.04 1.4 1.4 0 0 0-.3-.6l-.23-.12a1 1 0 0 0-.3-.05 1 1 0 0 0-.47.14 1 1 0 0 0-.28.38q-.1.23-.16.56A6 6 0 0 0 .9-1.4q.06.35.17.56t.28.31q.18.1.43.1a.8.8 0 0 0 .75-.5q.07-.18.1-.36.06-.2.07-.42zm0 0"/>
    <path id="x" d="m3.17-.23-.01.1-.02.08-.05.03q0 .03-.04.02H.73L.7-.02.66-.05.62-.12v-.11q0-.06.02-.11 0-.04.03-.07 0-.03.03-.04l.04-.02h.93v-3.36l-.85.5-.12.05q-.05 0-.06-.02L.6-3.38v-.22l.02-.07q0-.03.03-.05l.06-.05 1.02-.64.03-.01q0-.02.05-.02l.07-.01h.11l.13.01.1.02q.02 0 .02.03l.02.03v3.9h.84l.05.05.02.07zm0 0"/>
    <path id="y" d="m3.17-.25-.01.1-.04.09q0 .03-.03.04L3.03 0H.58Q.53 0 .5-.02L.44-.05.4-.12.39-.25v-.12q0-.05.03-.08l.03-.08.08-.1.86-.9a6 6 0 0 0 .75-1.03l.13-.36.03-.33a1 1 0 0 0-.2-.5 1 1 0 0 0-.2-.16 1 1 0 0 0-.32-.06q-.22 0-.4.06-.16.06-.27.13l-.33.19q-.04 0-.05-.02L.5-3.66l-.03-.07v-.21l.01-.08.04-.04.04-.07.14-.09.25-.12.35-.1a1.6 1.6 0 0 1 .93.05q.25.08.41.23.17.15.25.38.08.2.08.44a2 2 0 0 1-.56 1.42q-.23.3-.6.69l-.7.73h1.92q.03 0 .05.02.03 0 .04.04l.04.08zm0 0"/>
    <path id="z" d="M3.13-1.27q0 .32-.11.57-.1.23-.3.4t-.5.27q-.28.1-.64.1A3 3 0 0 1 .8-.06l-.25-.1-.12-.08-.05-.05-.02-.06.01-.07v-.13q0-.12.02-.17t.07-.05l.11.07q.09.05.24.1.14.08.32.13a2 2 0 0 0 .83 0q.18-.06.28-.17a1 1 0 0 0 .18-.25q.06-.15.06-.31a1 1 0 0 0-.08-.35 1 1 0 0 0-.2-.26 1 1 0 0 0-.36-.16 2 2 0 0 0-.47-.06H.94l-.05-.02-.05-.03-.03-.08-.01-.1.01-.12.03-.06.04-.04.06-.02h.39q.21 0 .39-.05t.31-.17a1 1 0 0 0 .19-.26.8.8 0 0 0 .03-.61l-.14-.2-.22-.15A1 1 0 0 0 1.56-4q-.18 0-.36.06a3 3 0 0 0-.62.31H.53L.5-3.65l-.03-.07v-.23l.01-.06.04-.04.04-.07a1 1 0 0 1 .38-.21l.33-.1a2 2 0 0 1 .95.03q.23.09.39.22.15.14.23.35t.08.43-.06.41a1 1 0 0 1-.16.31q-.1.13-.25.24-.15.09-.36.12v.02a1 1 0 0 1 .75.34q.15.13.2.31.08.2.08.4m0 0"/>
    <path id="A" d="M3.84-2.53q0 .23-.04.51a4 4 0 0 1-.4 1.15q-.13.26-.34.48-.2.2-.48.34a1.5 1.5 0 0 1-1.22-.01L1.14-.2.95-.4.63 1.3l-.04.06-.06.05-.1.01-.16.02-.15-.02-.1-.01q-.04-.03-.04-.05l-.01-.06 1-4.94q0-.06.08-.08l.23-.03h.13l.09.02q.03 0 .03.04l.02.05-.14.67q.06-.12.18-.26.15-.15.32-.29.18-.12.4-.2.24-.1.47-.1.3 0 .5.12a.9.9 0 0 1 .5.67q.06.23.06.5m-.68.05q0-.17-.04-.32l-.09-.23a.4.4 0 0 0-.17-.16l-.25-.06q-.23 0-.44.13-.22.1-.4.32a2.3 2.3 0 0 0-.55 1.13l-.13.64q.18.29.4.42.21.13.48.13.2 0 .37-.1a1 1 0 0 0 .3-.25q.15-.17.23-.37a4 4 0 0 0 .29-1.28m0 0"/>
    <path id="H" d="m2.8-3.6-.02.08-.01.08q0 .04-.04.1l-.04.07-.05.05-.05.02h-.9l-.4 1.98-.04.19v.16q0 .2.08.3.07.08.28.09l.17-.02q.08 0 .14-.03l.1-.05.07-.01q.03 0 .05.03.03 0 .03.06l-.01.13-.04.1-.04.11-.03.08-.11.05-.14.05-.18.03-.18.01q-.22 0-.4-.04a1 1 0 0 1-.26-.14 1 1 0 0 1-.16-.25 1 1 0 0 1-.04-.38v-.22l.03-.12.02-.11.4-2h-.5q-.05 0-.08-.02l-.01-.1.01-.13.03-.14.07-.1q.04-.04.1-.04h.5l.16-.85q0-.03.02-.04l.06-.05.11-.02a1 1 0 0 1 .31 0l.1.02.03.04.01.05-.17.85h.9q.07 0 .09.04.03.04.03.1m0 0"/>
    <path id="B" d="m2.5-.06-.02.03-.04.03h-.06l-.11.02L2.16 0h-.08l-.03-.03v-2.19H.88v2.16l-.02.03L.8 0H.75l-.1.02L.52 0H.45L.42-.03v-2.41q0-.07.03-.1.03-.05.11-.05h1.8q.06 0 .1.04t.04.11Zm0 0"/>
    <path id="C" d="M1.95-5.42a8 8 0 0 0-.75 3.3 7.5 7.5 0 0 0 .74 3.3l.01.07q.01.04-.01.06l-.1.03h-.26l-.1-.01-.06-.02-.03-.04a7 7 0 0 1 .02-6.8l.06-.02.08-.01h.28q.06 0 .1.03l.02.05zm0 0"/>
    <path id="D" d="m6.22-.1-.02.05-.06.03-.1.04a1 1 0 0 1-.3 0l-.12-.04-.04-.03-.02-.06v-4.42h-.01L3.73-.08l-.03.05-.06.03-.1.02-.13.01-.14-.01L3.16 0l-.07-.03-.01-.05-1.74-4.45h-.01v4.42l-.02.06-.06.03-.1.04a1 1 0 0 1-.3 0L.72-.02.7-.05.67-.1v-4.67q0-.15.08-.22a.3.3 0 0 1 .2-.08h.4q.15 0 .23.03a.4.4 0 0 1 .3.2q.04.07.07.18L3.42-.98h.03l1.53-3.68.1-.2q.04-.08.1-.12a.3.3 0 0 1 .15-.08l.17-.02h.42l.11.02q.06 0 .1.06.04.03.06.1.03.04.03.12Zm0 0"/>
    <path id="E" d="M3.81-3.6q0 .39-.12.7-.13.3-.36.52a2 2 0 0 1-.58.33q-.34.12-.81.11h-.58V-.1l-.03.06-.05.03-.1.04a1 1 0 0 1-.34 0l-.1-.04-.05-.03L.67-.1v-4.7q0-.15.08-.22a.4.4 0 0 1 .19-.06h1.1a4 4 0 0 1 .66.06 1.4 1.4 0 0 1 .78.49q.15.18.24.42.1.24.1.52m-.72.05q0-.3-.12-.5a1 1 0 0 0-.28-.3 1 1 0 0 0-.36-.15l-.35-.03h-.62v2.05h.6q.3 0 .5-.08a1 1 0 0 0 .35-.22q.15-.14.2-.33.08-.2.08-.44m0 0"/>
    <path id="F" d="M3.27-.1a.1.1 0 0 1-.04.08l-.09.04-.16.01-.15-.01-.1-.04-.01-.07v-.36q-.24.25-.53.39t-.6.14q-.28 0-.51-.08A1 1 0 0 1 .7-.2Q.55-.34.45-.55T.35-1a1 1 0 0 1 .48-.87q.23-.16.56-.22.33-.08.75-.08h.48v-.28q0-.21-.04-.36a.5.5 0 0 0-.14-.25 1 1 0 0 0-.25-.16 1 1 0 0 0-.38-.06q-.23 0-.44.06a2 2 0 0 0-.56.25l-.14.05-.06-.02-.05-.04-.03-.08v-.11q0-.1.02-.16 0-.07.06-.1.06-.05.19-.12.12-.08.3-.12.16-.06.37-.1t.4-.04q.38 0 .65.1.28.07.43.24.18.18.24.42.08.24.08.57Zm-.64-1.6h-.55q-.28 0-.49.04a1 1 0 0 0-.3.13 1 1 0 0 0-.2.22 1 1 0 0 0-.06.28q0 .27.17.44.18.15.49.15.25 0 .48-.12t.46-.4Zm0 0"/>
    <path id="G" d="M1.92-2.1A7 7 0 0 1 1.7-.38q-.1.42-.28.82a8 8 0 0 1-.4.86l-.07.02-.1.01-.1.02q-.1 0-.17-.02-.05 0-.08-.03l-.02-.06.02-.08a8 8 0 0 0 .73-3.3 8 8 0 0 0-.73-3.3l-.02-.05q0-.03.04-.05l.07-.03.16-.02.13.02.09.01.06.02.02.03q.4.8.64 1.66.23.84.23 1.73m0 0"/>
    <path id="K" d="M4.08-.72v.11l-.02.1-.03.06-.06.06-.16.1q-.12.09-.31.16-.18.09-.44.13-.23.06-.51.06-.51 0-.9-.15a2 2 0 0 1-.68-.49 2 2 0 0 1-.44-.8 4 4 0 0 1-.16-1.09q0-.63.16-1.12.17-.5.47-.85t.7-.51a2.2 2.2 0 0 1 1.35-.14q.21.03.39.09l.31.14q.15.08.19.14l.08.08.01.08.02.08.01.12-.01.14-.02.08-.05.06-.04.02q-.07 0-.16-.08l-.25-.17a2 2 0 0 0-.39-.17A1.6 1.6 0 0 0 2-4.42q-.29.15-.48.4-.2.26-.3.64-.11.38-.11.86 0 .49.1.86.12.38.3.63.2.24.49.37t.64.13q.3 0 .52-.08t.39-.17.26-.16q.11-.08.16-.08l.05.02q.03 0 .03.05l.01.1zm0 0"/>
    <path id="I" d="M2.81-4.23q0 .5-.36.86-.34.34-.84.34t-.86-.35a1.2 1.2 0 0 1-.36-.85q0-.5.36-.86t.86-.36.84.36q.36.36.36.86m-.33-.02a.8.8 0 0 0-.26-.6.8.8 0 0 0-.61-.28 1 1 0 0 0-.64.27.8.8 0 0 0-.25.61q0 .38.25.63.26.25.64.25.36 0 .6-.25a.8.8 0 0 0 .27-.63m0 0"/>
  </defs>
  <use xlink:href="#a" x="87.47" y="226.52"/>
  <use xlink:href="#b" x="97.76" y="226.52"/>
  <use xlink:href="#c" x="104.72" y="226.52"/>
  <use xlink:href="#d" x="110.11" y="226.52"/>
  <use xlink:href="#e" x="116.1" y="226.52"/>
  <use xlink:href="#g" x="125.09" y="226.52"/>
  <use xlink:href="#h" x="129.08" y="226.52"/>
  <use xlink:href="#i" x="135.04" y="226.52"/>
  <path fill="none" stroke="#868686" stroke-linejoin="round" stroke-miterlimit="10" stroke-width=".6" d="M30.3 47.1h310.2M30.3 64.5h310.2m-310.2 18h310.2M30.3 99.9h310.2M30.3 117.91h310.2m-310.2 18h310.2M30.3 153.3h310.2m-310.2 18h310.2M30.3 188.7h310.2m-310.2 18h310.2m-258.6.01V29.11m51.6 177.6V29.11m51.6 177.6V29.11m52.2 177.6V29.11m51.6 177.6V29.11m51.6 177.6V29.11" transform="matrix(.58224 0 0 -.58066 05.25 209.2)"/>
  <path fill="none" stroke="#000" stroke-linejoin="round" stroke-miterlimit="10" stroke-width="1.2" d="M30.6 29.4v177m-3-177h3m-3 3.6h3m-3 3h3m-3 3.6h3m-3 3.6h3m-3 3.6h3m-3 3.6h3m-3 3.6h3m-3 3.6h3m-3 3.6h3m-3 3.6h3m-3 3.6h3m-3 3.6h3m-3 3.6h3m-3 3h3m-3 3.6h3m-3 3.6h3m-3 3.6h3m-3 3.6h3m-3 3.6h3m-3 3.6h3m-3 3.61h3m-3 3.6h3m-3 3.6h3m-3 3.6h3m-3 3.6h3m-3 3h3m-3 3.6h3m-3 3.6h3m-3 3.6h3m-3 3.6h3m-3 3.6h3m-3 3.6h3m-3 3.6h3m-3 3.6h3m-3 3.6h3m-3 3.6h3m-3 3.6h3m-3 3h3m-3 3.6h3m-3 3.6h3m-3 3.6h3m-3 3.6h3m-3 3.6h3m-3 3.6h3m-3 3.6h3m-3 3.6h3m-3 3.6h3m-3 3.6h3m-3 3.6h3m-3 3h3m-4.2-177h4.2m-4.2 17.4h4.2m-4.2 18h4.2m-4.2 17.4h4.2m-4.2 18h4.2m-4.2 18h4.2m-4.2 17.4h4.2m-4.2 18h4.2M26.4 171h4.2m-4.2 18h4.2m-4.2 17.4h4.2m0-177h309.6m-309.6 0v-3m10.2 3v-3m10.2 3v-3m10.2 3v-3m10.2 3v-3m10.8 3v-3m10.2 3v-3m10.2 3v-3m10.2 3v-3m10.8 3v-3m10.2 3v-3m10.2 3v-3m10.2 3v-3m10.2 3v-3m10.8 3v-3m10.2 3v-3m10.2 3v-3m10.2 3v-3m10.8 3v-3m10.2 3v-3m10.2 3v-3m10.2 3v-3m10.8 3v-3m10.2 3v-3m10.2 3v-3m10.2 3v-3m10.2 3v-3m10.8 3v-3m10.2 3v-3m10.2 3v-3m10.2 3v-3m-309.6 3v-4.2m51.6 4.2v-4.2m51.6 4.2v-4.2m51.6 4.2v-4.2m51.6 4.2v-4.2m51.6 4.2v-4.2m51.6 4.2v-4.2" transform="matrix(.58224 0 0 -.58066 05.25 209.2)"/>
  <g clip-path="url(#j)">
    <path fill="none" stroke="#000" stroke-linecap="round" stroke-linejoin="round" stroke-miterlimit="10" stroke-width="1.8" d="M30.3 29.1h5.16l1.03.01h4.14l1.04.01h6.19l1.04.01h2.07l1.03.01h3.1l1.04.01h1.04l1.03.01h3.1l1.03.01 1.04.01h1.04a53 53 0 0 0 2.06.01l1.04.01a53 53 0 0 1 2.06.01l1.04.01h1.03l1.04.01 1.03.01h1.03l1.04.01 1.03.02h1.03l1.04.01q.52 0 1.03.02h1.03q.53 0 1.04.02h1.04l1.03.02h1.03l1.04.02a52 52 0 0 1 2.06.03l1.04.01 1.04.02 1.03.01 1.03.02 1.04.01 1.03.02 1.03.02 1.04.02 1.03.02 1.04.02 1.03.02 1.03.02 1.04.02 1.03.03 1.04.02 1.03.03q.52 0 1.03.03.53 0 1.04.02l1.03.03q.52 0 1.04.03l1.03.03 1.03.03 1.04.03 1.03.03 1.04.04 1.03.04 1.03.03 1.04.04 1.03.04 1.04.04 1.03.04 1.03.05 1.04.04 1.03.05 1.04.05 1.03.05 1.03.05 1.04.05 1.03.05 1.04.06 1.03.06 1.04.06 1.03.06 1.03.07 1.04.06 1.03.06 1.04.08 1.03.07 1.03.07 1.04.08 1.03.07 1.04.08 1.03.09 1.03.08 1.04.08 1.03.1q.52.03 1.04.09l1.03.09 1.03.1 1.04.1 1.03.1 1.04.1 1.03.11 1.03.1 1.04.12 1.03.12 1.04.12 1.03.12 1.03.13 1.04.13 1.03.12 1.04.14 1.03.14 1.03.14 1.04.15 1.03.15 1.04.14 1.03.17 1.03.15 1.04.17q.52.07 1.03.17l1.04.16 1.03.18 1.03.18 1.04.18 1.03.2 1.04.19q.52.08 1.03.2l1.03.2 1.04.2 1.03.21 1.04.2 1.03.23 1.03.22 1.04.24 1.03.23 1.04.24 1.03.24 1.03.25 1.04.26q.51.11 1.03.26l1.04.26 1.03.27 1.04.28 1.03.28 1.03.29 1.04.3 1.03.29 1.04.3 1.03.32 1.03.31 1.04.33q.52.15 1.03.33l1.04.33 1.03.35 1.03.35 1.04.35 1.03.37 2.07.74 1.03.39 1.04.39 1.03.4 1.04.4 1.03.41 1.03.43 2.07.87 1.04.44 1.03.44 1.03.47 1.04.46 1.03.48 1.04.48 1.03.5q.51.23 1.03.5l1.04.5 1.03.52 1.04.53 1.03.53 1.03.56 1.04.55 1.03.56 1.04.57 1.03.58 1.03.59 1.04.6 1.03.61 1.04.62 1.03.64 1.03.64q.53.32 1.04.66l1.03.65 1.04.68 1.03.67q.53.34 1.03.7l1.04.7 1.03.71 1.04.73 1.03.73 1.04.74 1.03.76 1.03.79 1.04.78 1.03.78 1.04.81 1.03.82 1.03.82 1.04.85 1.03.85 1.04.87 1.03.87 1.03.89 1.04.9 1.03.93 1.04.92 1.03.94 1.03.95 1.04.99 1.03.97 1.04.99q.52.5 1.03 1.02l1.03 1.03q.53.5 1.04 1.02l1.03 1.05 1.04 1.07 1.03 1.08q.52.54 1.03 1.1a81 81 0 0 1 2.07 2.24l1.04 1.13 1.03 1.15 1.03 1.17 1.04 1.18 1.03 1.2 1.04 1.21 1.03 1.24 1.03 1.24 1.04 1.26 1.03 1.28 1.04 1.3 2.06 2.64 1.04 1.33 1.03 1.37 1.04 1.38 1.03 1.39 1.03 1.42 1.04 1.42 1.03 1.45 1.04 1.46 1.03 1.49q.53.74 1.03 1.5.52.74 1.04 1.52l1.03 1.54 1.04 1.54 1.03 1.58 1.04 1.6 1.03 1.6 1.03 1.63 1.04 1.65 1.03 1.67 1.04 1.7 1.03 1.7 1.03 1.73a199 199 0 0 1 2.07 3.51l1.04 1.8 1.03 1.8 1.03 1.83 1.04 1.85 1.03 1.86 1.04 1.9 1.03 1.92 1.03 1.93 1.04 1.95 1.03 2 2.07 4 1.03 2.04 1.04 2.08 1.03 2.09 1.04 2.12 1.03 2.13" transform="matrix(.58224 0 0 -.58066 05.25 209.2)"/>
  </g>
  <use xlink:href="#k" x="12.91" y="194.54"/>
  <use xlink:href="#n" x="12.91" y="184.2"/>
  <use xlink:href="#o" x="12.91" y="173.87"/>
  <use xlink:href="#p" x="12.91" y="163.53"/>
  <use xlink:href="#q" x="12.91" y="153.19"/>
  <use xlink:href="#r" x="12.91" y="142.86"/>
  <use xlink:href="#s" x="12.91" y="132.54"/>
  <use xlink:href="#t" x="12.91" y="122.2"/>
  <use xlink:href="#u" x="12.91" y="111.87"/>
  <use xlink:href="#v" x="12.91" y="101.53"/>
  <use xlink:href="#n" x="09.39" y="91.19"/>
  <use xlink:href="#k" x="12.88" y="91.19"/>
  <use xlink:href="#w" x="21.18" y="203.62"/>
  <use xlink:href="#r" x="49.58" y="203.62"/>
  <use xlink:href="#w" x="53.07" y="203.62"/>
  <use xlink:href="#x" x="77.96" y="203.62"/>
  <use xlink:href="#w" x="81.45" y="203.62"/>
  <use xlink:href="#w" x="84.94" y="203.62"/>
  <use xlink:href="#x" x="108.1" y="203.62"/>
  <use xlink:href="#r" x="111.61" y="203.62"/>
  <use xlink:href="#w" x="115.12" y="203.62"/>
  <use xlink:href="#y" x="138.24" y="203.62"/>
  <use xlink:href="#w" x="141.73" y="203.62"/>
  <use xlink:href="#w" x="145.22" y="203.62"/>
  <use xlink:href="#y" x="168.38" y="203.62"/>
  <use xlink:href="#r" x="171.87" y="203.62"/>
  <use xlink:href="#w" x="175.37" y="203.62"/>
  <use xlink:href="#z" x="198.53" y="203.62"/>
  <use xlink:href="#w" x="202.03" y="203.62"/>
  <use xlink:href="#w" x="205.54" y="203.62"/>
  <use xlink:href="#A" x="09.58" y="81.83"/>
  <use xlink:href="#B" x="13.78" y="83.58"/>
  <use xlink:href="#C" x="18" y="81.83"/>
  <use xlink:href="#D" x="20.45" y="81.83"/>
  <use xlink:href="#E" x="27.44" y="81.83"/>
  <use xlink:href="#F" x="31.63" y="81.83"/>
  <use xlink:href="#G" x="35.52" y="81.83"/>
  <use xlink:href="#H" x="106.33" y="211.17"/>
  <use xlink:href="#C" x="110.52" y="211.17"/>
  <use xlink:href="#I" x="112.97" y="211.17"/>
  <use xlink:href="#K" x="116.14" y="211.17"/>
  <use xlink:href="#G" x="120.34" y="211.17"/>
</svg>
