<svg xmlns="http://www.w3.org/2000/svg" xmlns:xlink="http://www.w3.org/1999/xlink" width="595.32" height="841.92" viewBox="0 0 595.32 841.92">
  <defs>
    <path id="a" d="M3.1-7.94h4.1v.22q-.69.02-.87.17-.2.15-.22.74 1.35 0 2.05.31t1.2.94.5 1.51q0 1.13-.84 1.99T6.1-1.2q0 .42.1.62.09.2.27.27.2.06.72.1V0H3.1v-.22q.73 0 .92-.22.18-.22.18-.76a5 5 0 0 1-2.17-.38Q1.25-1.97.84-2.6a2.7 2.7 0 0 1 .1-2.95q.5-.71 1.25-.97.75-.28 2.01-.28 0-.53-.22-.7-.21-.2-.89-.2Zm3 6.32q.6 0 .96-.18.38-.18.61-.75.25-.57.25-1.56 0-.78-.23-1.33-.22-.54-.58-.73-.36-.2-1-.2ZM4.2-6.37q-.78.01-1.1.26-.34.25-.54.78-.19.54-.19 1.36 0 .97.24 1.47t.62.69q.4.17.97.19Zm0 0"/>
    <path id="b" d="M3.7 0v-.22q.53 0 .53-.78v-2.69L2.66-1q0 .77.53.78V0H.4v-.22q.34 0 .48-.19.15-.18.14-.65v-3.38q0-.81-.62-.81v-.22h2.78v.22q-.3 0-.42.17-.12.15-.11.64v2.67l1.57-2.71q0-.45-.14-.6-.1-.17-.39-.17v-.22h2.78v.22q-.3 0-.46.16-.14.16-.14.57v3.49q0 .48.12.66.14.15.48.15V0Zm0 0"/>
    <path id="c" d="M.42-.22Q.76-.23.9-.39q.15-.15.14-.63v-3.46q0-.43-.12-.58-.13-.15-.49-.19v-.22h4.81v1.42h-.21q-.14-.65-.38-.86t-.89-.2H2.67v4.13q0 .42.13.59.14.15.54.17V0H.42Zm0 0"/>
    <path id="e" d="M1.5-1.8q.4 0 .69.28t.28.7-.28.68a1 1 0 0 1-.69.28q-.4 0-.69-.28a1 1 0 0 1-.28-.69q0-.4.28-.69a1 1 0 0 1 .69-.28m0 0"/>
    <path id="g" d="M1.77-3.98v-.2q.66-.2.92-.35.26-.17.45-.52.2-.33.19-.7 0-.48-.36-.83a1.2 1.2 0 0 0-.88-.34q-.8 0-1.39.86l-.22-.08A3.5 3.5 0 0 1 1.56-7.6q.66-.5 1.47-.5.82 0 1.36.5.53.5.53 1.17 0 .44-.25.84-.23.41-.78.72.68.34 1.05.83a2 2 0 0 1 .36 1.22q0 1.25-.9 2.12T2 .17Q.98.17.53-.16a.7.7 0 0 1-.34-.6q0-.27.19-.46.2-.2.45-.2a1 1 0 0 1 .36.1q.1.04.65.5.59.46 1.08.46.44 0 .75-.34.3-.35.31-.86 0-.81-.56-1.49a3 3 0 0 0-1.65-.93m0 0"/>
    <path id="h" d="M3.84-8.1v.26q-.6.39-.89.78-.4.51-.62 1.34-.28 1.03-.28 2.86 0 1.74.25 2.7.25.95.7 1.55.3.4.84.72v.3A4.8 4.8 0 0 1 1.45.45a6 6 0 0 1-.97-3.34q0-1.87.97-3.31a4.7 4.7 0 0 1 2.4-1.9m0 0"/>
    <path id="j" d="M.14 2.4v-.27q.6-.42.9-.79.4-.53.62-1.34.27-1.03.28-2.87 0-1.72-.25-2.68A5 5 0 0 0 1-7.1q-.32-.4-.86-.72v-.28q1.42.47 2.4 1.94.98 1.45.98 3.34 0 1.88-.99 3.31A4.7 4.7 0 0 1 .14 2.41m0 0"/>
    <path id="i" d="M.42-5.47h3.03q.94 0 1.53.34.61.36.61 1.02 0 .9-1.25 1.22 1.7.2 1.7 1.42 0 .74-.7 1.11A4 4 0 0 1 3.47 0H.42v-.22q.4-.03.5-.17t.11-.6v-3.24q0-.66-.1-.82-.12-.17-.5-.2Zm2.33 2.44q1.4-.05 1.4-1.03 0-1.02-1.4-1.05Zm0 .37v1.8q0 .26.08.4.09.1.39.1.48 0 .83-.34t.34-.88q0-.55-.39-.81-.38-.27-1.25-.27m0 0"/>
    <path id="n" d="m5.08-.14-.02.08L5-.02l-.14.04-.22.01-.28-.01-.17-.05-.08-.1-2.4-3.21v3.28q-.03.03-.08.04L1.5.02a1 1 0 0 1-.42 0L.95-.02.88-.06.86-.12v-6.2l.02-.05.07-.05.13-.03a2 2 0 0 1 .42 0q.08 0 .13.03l.07.04.02.07v2.86l2.3-2.86.06-.07.1-.04.13-.03a2 2 0 0 1 .44 0q.08 0 .13.03l.06.04.01.07-.03.14L4.8-6 2.66-3.45 4.96-.4q.1.13.1.17zm0 0"/>
    <path id="o" d="m4.64-.34-.01.17-.05.1-.05.05-.08.02H1.08q-.04 0-.06-.02L.95-.06.91-.17A1 1 0 0 1 .94-.6L1-.66l.08-.03h1.34v-4.89l-1.25.74-.15.06a.1.1 0 0 1-.1-.02l-.05-.1v-.33l.04-.1q0-.04.03-.08l.08-.06 1.48-.95.06-.02.06-.03.11-.01h.16l.33.04q.05.02.05.05l.01.05V-.7h1.17q.05 0 .08.03l.05.07q.03.03.04.1zm0 0"/>
    <path id="p" d="M4.63-.37 4.6-.2l-.05.1-.04.08-.08.02H.86Q.77 0 .73-.02L.64-.06.6-.2.58-.37v-.18q0-.08.03-.12l.06-.11.1-.14 1.26-1.31a8 8 0 0 0 1.1-1.49 2 2 0 0 0 .23-1q0-.21-.08-.4a1 1 0 0 0-.2-.33 1 1 0 0 0-.33-.24 1 1 0 0 0-.45-.1q-.31 0-.57.1a3 3 0 0 0-.71.38q-.13.08-.2.08l-.05-.02-.05-.08-.03-.1v-.32l.01-.1.03-.07.1-.08q.05-.06.2-.14.15-.1.38-.17a3 3 0 0 1 1.04-.22q.47 0 .83.14.36.13.58.36.24.22.34.53.13.3.13.64 0 .31-.06.63-.05.3-.24.65-.18.35-.51.78-.33.45-.88 1L1.61-.72h2.81q.05 0 .08.02l.06.06.05.12zm0 0"/>
    <path id="q" d="M2.48-6.86a9 9 0 0 0-.95 4.17A10 10 0 0 0 2.5 1.6q0 .04-.05.07l-.1.04a1 1 0 0 1-.46-.01l-.08-.03-.04-.05A9 9 0 0 1 .95-.47Q.81-1 .73-1.57a10 10 0 0 1 .02-2.21 9 9 0 0 1 .56-2.14q.2-.52.46-1.05L1.8-7l.06-.03.1-.02a1 1 0 0 1 .37 0q.07.02.1.05.05.02.05.06zm0 0"/>
    <path id="r" d="M2.44-2.67q0 .56-.08 1.1A8 8 0 0 1 1.8.59a10 10 0 0 1-.51 1.08q-.04 0-.08.03l-.11.01-.16.02q-.12 0-.2-.02-.08 0-.1-.04Q.6 1.64.6 1.59q0-.04.03-.09a11 11 0 0 0 .94-4.19q0-1.05-.25-2.1A10 10 0 0 0 .6-6.95q0-.04.05-.06l.1-.05a1 1 0 0 1 .47.02L1.3-7l.04.03q.52 1.04.8 2.11.3 1.07.3 2.19m0 0"/>
    <path id="s" d="M4.58-1.84q0 .45-.16.8a2 2 0 0 1-1.17 1 3.4 3.4 0 0 1-1.56.07l-.5-.1a3 3 0 0 1-.56-.27L.57-.41.55-.5.52-.6v-.2q0-.17.03-.23.03-.08.1-.08.06 0 .18.08a4 4 0 0 0 .83.34q.28.08.6.08.35 0 .6-.08a1.1 1.1 0 0 0 .66-.6 1.2 1.2 0 0 0-.02-.96 1 1 0 0 0-.31-.37q-.2-.18-.52-.25a3 3 0 0 0-.69-.08h-.6l-.08-.02-.07-.06-.04-.11-.02-.17.05-.25.06-.05.1-.03h.56q.32 0 .6-.08.25-.09.43-.25.18-.15.28-.37.1-.23.1-.5a1 1 0 0 0-.07-.38 1 1 0 0 0-.19-.31 1 1 0 0 0-.32-.22q-.21-.08-.47-.08-.3 0-.55.1a3 3 0 0 0-.73.37q-.13.08-.2.08H.78l-.05-.05-.02-.1v-.32q0-.06.02-.1 0-.04.03-.07l.08-.1.19-.12q.13-.1.36-.17a3 3 0 0 1 1.09-.22q.43 0 .78.12.34.12.56.32t.35.5.12.64a1.7 1.7 0 0 1-.33 1.03 1.5 1.5 0 0 1-.89.54 1.8 1.8 0 0 1 1.08.5 1.5 1.5 0 0 1 .44 1.04m0 0"/>
    <path id="t" d="M4.9-1.83q0 .16-.06.25-.04.1-.14.1h-.72v1.36l-.03.07L3.9 0l-.14.02A1.4 1.4 0 0 1 3.22 0l-.06-.05-.02-.07v-1.36H.36L.3-1.55l-.05-.1-.02-.2v-.17l.04-.14.03-.12.06-.13L2.7-6.3q.01-.04.07-.07l.12-.04.19-.03a2 2 0 0 1 .54 0q.13 0 .2.03l.12.04q.04.04.04.08v4.11h.72q.1 0 .14.1.07.08.07.26m-1.76-3.9-2.1 3.53h2.1Zm0 0"/>
    <path id="u" d="m4.56-.12-.01.07-.07.05-.12.02A1.4 1.4 0 0 1 3.83 0l-.08-.05-.02-.07v-3.91H1.6v3.9l-.03.08L1.5 0l-.12.02A1.4 1.4 0 0 1 .84 0L.78-.05.77-.12v-4.32q0-.15.06-.22a.3.3 0 0 1 .19-.07h3.3q.11 0 .18.07t.06.22Zm0 0"/>
    <path id="v" d="M4.16-.12q0 .06-.05.09L4 .02a1 1 0 0 1-.4 0Q3.5 0 3.47-.03t-.03-.1v-.43q-.3.3-.67.48T2.02.1a2 2 0 0 1-.64-.1 1.4 1.4 0 0 1-.82-.69 1.4 1.4 0 0 1-.1-.58q0-.37.15-.65t.44-.47q.3-.19.72-.27t.95-.09h.62v-.36q0-.25-.06-.45a1 1 0 0 0-.17-.33 1 1 0 0 0-.33-.2 2 2 0 0 0-1.03.02q-.24.05-.42.15l-.3.15-.19.07-.06-.02-.06-.05-.03-.1v-.15L.7-4.2q.02-.08.08-.14t.24-.16q.16-.09.37-.16a3 3 0 0 1 .99-.17q.5 0 .82.11a1.3 1.3 0 0 1 .86.84q.1.32.1.74Zm-.82-2.04h-.71q-.33 0-.58.07-.25.04-.42.15a.7.7 0 0 0-.32.63q0 .36.22.56t.63.2q.32 0 .59-.15.28-.18.6-.52Zm0 0"/>
    <path id="w" d="M4.9-2.44q0 .6-.12 1.07-.12.45-.37.8-.26.3-.63.5a2 2 0 0 1-1.2.12l-.33-.11-.33-.22Q1.77-.4 1.6-.6v2.25q0 .03-.03.06l-.06.05q-.03.03-.12.03a1 1 0 0 1-.41 0l-.13-.03-.06-.05-.01-.06V-4.6l.01-.08q0-.03.06-.05l.11-.01a1 1 0 0 1 .46.01q.04.02.06.05l.01.08v.6l.41-.36a2 2 0 0 1 .78-.4q.2-.07.42-.07.48 0 .83.19.36.19.56.51.22.33.32.77t.1.92m-.87.1q0-.35-.05-.66-.04-.33-.18-.58t-.35-.39a1 1 0 0 0-.53-.15 1 1 0 0 0-.62.2l-.35.26-.36.41v1.78q.35.42.64.64.32.22.65.22.3 0 .53-.14t.36-.4q.14-.25.2-.57.06-.3.06-.62m0 0"/>
    <clipPath id="d">
      <path d="M294 343h29v11.8h-29Zm0 0"/>
    </clipPath>
    <clipPath id="k">
      <path d="M170.19 285.98h5.38v30.33h-5.38Zm0 0"/>
    </clipPath>
    <clipPath id="x">
      <path d="M367.05 288.36h5.39v30.33h-5.39Zm0 0"/>
    </clipPath>
    <clipPath id="z">
      <path d="M254 261.3h41V300h-41Zm0 0"/>
    </clipPath>
    <clipPath id="A">
      <path d="M474 275h13.62v54H474Zm0 0"/>
    </clipPath>
    <linearGradient id="m" x1="66" x2="66" y1="61.98" y2="27.81" gradientTransform="matrix(.18817 0 0 -.88772 107.06 341)" gradientUnits="userSpaceOnUse">
      <stop offset="0" stop-color="#5e5e5e"/>
      <stop offset=".19" stop-color="#404040"/>
      <stop offset=".61" stop-color="#7e7e7e"/>
      <stop offset="1" stop-color="#484848"/>
    </linearGradient>
    <linearGradient id="y" x1="263.4" x2="263.4" y1="59.3" y2="25.13" gradientTransform="matrix(.18817 0 0 -.88772 107.06 341)" gradientUnits="userSpaceOnUse">
      <stop offset="0" stop-color="#5c5c5c"/>
      <stop offset=".19" stop-color="#404040"/>
      <stop offset=".64" stop-color="#7f7f7f"/>
      <stop offset="1" stop-color="#474747"/>
    </linearGradient>
  </defs>
  <use xlink:href="#a" x="271.18" y="352.05"/>
  <use xlink:href="#b" x="281.48" y="352.05"/>
  <use xlink:href="#c" x="288.43" y="352.05"/>
  <g clip-path="url(#d)">
    <use xlink:href="#e" x="293.82" y="352.05"/>
    <use xlink:href="#f" x="296.82" y="352.05"/>
    <use xlink:href="#g" x="299.82" y="352.05"/>
    <use xlink:href="#f" x="305.81" y="352.05"/>
    <use xlink:href="#h" x="308.81" y="352.05"/>
    <use xlink:href="#i" x="312.8" y="352.05"/>
    <use xlink:href="#j" x="319.27" y="352.05"/>
  </g>
  <path fill="none" stroke="#000" stroke-linejoin="round" stroke-miterlimit="10" stroke-width="1.8" d="M38.7 24.9h58.8v32.4H38.7Zm0 0" transform="matrix(.9973 0 0 -.99133 107.06 341)"/>
  <path d="M130.1 307.1h16.3v.99h-16.3Zm0 1.98h16.3v.99h-16.3Zm0 0"/>
  <path fill="none" stroke="#f2f2f2" stroke-linejoin="round" stroke-miterlimit="10" stroke-width="1.2" d="M33.6 33h8.59M31.8 49.8h8.58" transform="matrix(.9973 0 0 -.99133 107.06 341)"/>
  <g clip-path="url(#k)">
    <path fill="url(#m)" d="M170.19 316.31v-30.33h5.38v30.33Zm0 0"/>
  </g>
  <path fill="none" stroke="#000" stroke-linejoin="round" stroke-miterlimit="10" stroke-width=".6" d="M63.3 24.9h5.4v30.6h-5.4Zm-22.8 9.6 4.15-1.56M40.5 51.9v-5" transform="matrix(.9973 0 0 -.99133 107.06 341)"/>
  <use xlink:href="#n" x="155.3" y="310.59"/>
  <use xlink:href="#o" x="160.69" y="310.59"/>
  <use xlink:href="#n" x="149.92" y="295.99"/>
  <use xlink:href="#p" x="155.3" y="295.99"/>
  <path d="m175.5 300.88 77.16-16.38.12.58-77.14 16.38Zm76.6-19a2.98 2.98 0 1 1 1.26 5.82 2.98 2.98 0 1 1-1.26-5.82m0 0"/>
  <path fill="none" stroke="#000" stroke-linejoin="round" stroke-miterlimit="10" stroke-width="1.8" d="M110.1 39.9a36 36 0 1 0 72 0 36 36 0 0 0-72 0Zm0 0" transform="matrix(.9973 0 0 -.99133 107.06 341)"/>
  <path fill="none" stroke="#000" stroke-linejoin="round" stroke-miterlimit="10" stroke-width=".6" d="M146.1 75.9v-72" transform="matrix(.9973 0 0 -.99133 107.06 341)"/>
  <path fill="none" stroke="#000" stroke-linejoin="round" stroke-miterlimit="10" stroke-width=".75" d="m171.18 65.53-50.9-50.91m50.9 0-50.9 50.91" transform="matrix(.9973 0 0 -.99133 107.06 341)"/>
  <path fill="none" stroke="#000" stroke-linejoin="round" stroke-miterlimit="10" stroke-width=".6" d="M182.1 39.9h-72" transform="matrix(.9973 0 0 -.99133 107.06 341)"/>
  <path fill-rule="evenodd" stroke="#000" stroke-linejoin="round" stroke-miterlimit="10" stroke-width="1.8" d="M142.5 39.9a3.6 3.6 0 1 0 7.2 0 3.6 3.6 0 0 0-7.2 0Zm0 0" transform="matrix(.9973 0 0 -.99133 107.06 341)"/>
  <use xlink:href="#q" x="170.64" y="335.02"/>
  <use xlink:href="#o" x="173.65" y="335.02"/>
  <use xlink:href="#r" x="179.06" y="335.02"/>
  <use xlink:href="#q" x="186.47" y="275.1"/>
  <use xlink:href="#p" x="189.46" y="275.1"/>
  <use xlink:href="#r" x="194.87" y="275.1"/>
  <use xlink:href="#q" x="261.74" y="279.41"/>
  <use xlink:href="#s" x="264.73" y="279.41"/>
  <use xlink:href="#r" x="270.13" y="279.41"/>
  <use xlink:href="#q" x="205.17" y="276.07"/>
  <use xlink:href="#t" x="208.16" y="276.07"/>
  <use xlink:href="#r" x="213.54" y="276.07"/>
  <use xlink:href="#u" x="114.56" y="318.74"/>
  <use xlink:href="#v" x="119.94" y="318.74"/>
  <use xlink:href="#w" x="124.73" y="318.74"/>
  <use xlink:href="#v" x="130.11" y="318.74"/>
  <path fill="none" stroke="#000" stroke-linejoin="round" stroke-miterlimit="10" stroke-width="1.8" d="M236.7 22.5h58.8v32.4h-58.8Zm0 0" transform="matrix(.9973 0 0 -.99133 107.06 341)"/>
  <path d="M326.96 309.47h16.3v1h-16.3Zm0 1.99h16.3v.99h-16.3Zm0 0"/>
  <path fill="none" stroke="#f2f2f2" stroke-linejoin="round" stroke-miterlimit="10" stroke-width="1.2" d="M231 30.6h8.58m-9.78 16.8h8.58" transform="matrix(.9973 0 0 -.99133 107.06 341)"/>
  <g clip-path="url(#x)">
    <path fill="url(#y)" d="M367.05 318.7v-30.34h5.39v30.33Zm0 0"/>
  </g>
  <path fill="none" stroke="#000" stroke-linejoin="round" stroke-miterlimit="10" stroke-width=".6" d="M260.7 22.5h5.4v30.6h-5.4Zm-23.4 25.8 4.15-1.56M238.5 33.3v-5" transform="matrix(.9973 0 0 -.99133 107.06 341)"/>
  <path d="m372.5 302.94 75.4 18.36-.13.57-75.4-18.35Zm76.04 15.76a2.98 2.98 0 1 1-1.42 5.78 2.98 2.98 0 1 1 1.42-5.78m0 0"/>
  <path fill="none" stroke="#000" stroke-linejoin="round" stroke-miterlimit="10" stroke-width="1.8" d="M306.3 39.9a36 36 0 1 0 72 0 36 36 0 0 0-72 0Zm0 0" transform="matrix(.9973 0 0 -.99133 107.06 341)"/>
  <path fill="none" stroke="#000" stroke-linejoin="round" stroke-miterlimit="10" stroke-width=".6" d="M342.3 75.9v-72" transform="matrix(.9973 0 0 -.99133 107.06 341)"/>
  <path fill="none" stroke="#000" stroke-linejoin="round" stroke-miterlimit="10" stroke-width=".75" d="m367.18 65.53-50.91-50.91m50.91 0-50.91 50.91" transform="matrix(.9973 0 0 -.99133 107.06 341)"/>
  <path fill="none" stroke="#000" stroke-linejoin="round" stroke-miterlimit="10" stroke-width=".6" d="M378.3 39.9h-72" transform="matrix(.9973 0 0 -.99133 107.06 341)"/>
  <path fill-rule="evenodd" stroke="#000" stroke-linejoin="round" stroke-miterlimit="10" stroke-width="1.8" d="M338.7 39.9a3.6 3.6 0 1 0 7.2 0 3.6 3.6 0 0 0-7.2 0Zm0 0" transform="matrix(.9973 0 0 -.99133 107.06 341)"/>
  <path d="M120.52 308.29h5.19v.59h-5.19Zm5.19.3-2-2 4 2-4 1.98Zm211.42-12.79h-5.18v-.6h5.18Zm-5.18-.3 2 1.98-4-1.98 4-1.99Zm0 0"/>
  <path fill="none" stroke="#000" stroke-linejoin="round" stroke-miterlimit="10" stroke-width=".6" d="M73.5 14.46 83.58 25.5M66.9 42.9l12.03 24m27.54-17.99-2.37 14.4" transform="matrix(.9973 0 0 -.99133 107.06 341)"/>
  <use xlink:href="#u" x="319.11" y="291.01"/>
  <use xlink:href="#v" x="324.49" y="291.01"/>
  <use xlink:href="#w" x="329.28" y="291.01"/>
  <use xlink:href="#v" x="334.66" y="291.01"/>
  <g clip-path="url(#z)">
    <path d="m254.57 261.9 1.93.04 1.93.14 1.91.24 1.87.33 1.84.43 1.8.51 1.76.59 1.73.68 1.68.75 1.65.83 1.6.92 1.53.98 1.49 1.05 1.43 1.12 1.38 1.19 1.33 1.25 1.25 1.3 1.19 1.38 1.13 1.43 1.06 1.48 1 1.53.9 1.58.84 1.63.76 1.67.68 1.71.6 1.76.52 1.8.43 1.82.33 1.86.24 1.9.14 1.85-.6.05-.13-1.83-.24-1.87-.33-1.83-.42-1.8-.51-1.76-.58-1.73-.67-1.68-.74-1.65-.83-1.6-.9-1.56-.98-1.51-1.03-1.45-1.12-1.41-1.17-1.35-1.24-1.3-1.3-1.23-1.35-1.16-1.41-1.1-1.48-1.04-1.51-.97-1.56-.9-1.63-.82-1.64-.74-1.7-.66-1.74-.59-1.78-.5-1.8-.42-1.85-.33-1.87-.23-1.9-.14-1.94-.06Zm37.63 35.78 1.94-2.04-1.88 4.02-2.1-3.91Zm0 0"/>
  </g>
  <g clip-path="url(#A)">
    <path d="m477.3 275.6 1.23 1.44 1.17 1.5 1.08 1.54.98 1.57.91 1.61.82 1.65.74 1.67.64 1.7.56 1.71.5 1.74.38 1.76.3 1.76.23 1.78.14 1.78.05 1.78-.03 1.79-.1 1.78-.22 1.78-.28 1.77-.37 1.74-.45 1.74-.54 1.72-.61 1.7-.7 1.66-.78 1.64-.87 1.6-.95 1.58-1.04 1.53-1.12 1.5-1.2 1.44-1.21 1.33-.45-.4 1.2-1.31 1.18-1.42 1.1-1.47 1.03-1.51.93-1.55.85-1.58.78-1.6.69-1.65.6-1.67.53-1.69.45-1.7.36-1.73.28-1.74.2-1.75.1-1.75.04-1.76-.05-1.75-.14-1.76-.22-1.75-.3-1.73-.38-1.73-.48-1.71-.56-1.7-.63-1.66-.72-1.65-.8-1.62-.9-1.59-.96-1.54-1.07-1.52-1.14-1.47-1.24-1.45Zm-.97 51.09h2.83l-4.24 1.4 1.42-4.2Zm0 0"/>
  </g>
</svg>
