<svg xmlns="http://www.w3.org/2000/svg" xmlns:xlink="http://www.w3.org/1999/xlink" width="250" height="300" viewBox="0 0 250 300">
  <defs>
    <path id="g" d="M3.42-.81q-1 .9-1.8.89-.46 0-.78-.3-.3-.3-.3-.78 0-.62.52-1.12.55-.5 2.36-1.33v-.57q0-.6-.08-.76a.6.6 0 0 0-.25-.28 1 1 0 0 0-.4-.13q-.4 0-.64.17-.15.1-.14.24t.15.31q.22.25.22.49 0 .28-.22.48a.7.7 0 0 1-.54.2 1 1 0 0 1-.63-.22.7.7 0 0 1-.23-.51q0-.42.32-.8.33-.39.93-.6t1.25-.21q.78 0 1.23.34.46.34.58.7.1.25.1 1.15v2.59q.04.1.1.14t.14.05q.14 0 .32-.22l.17.14q-.3.44-.61.64-.32.2-.7.19-.47 0-.74-.22t-.33-.67m0-.42v-1.83q-.7.4-1.04.89-.24.3-.24.64 0 .27.19.47.15.15.42.15.28 0 .67-.32m0 0"/>
    <path id="b" d="M3.7 0v-.22q.53 0 .53-.78v-2.69L2.66-1q0 .77.53.78V0H.4v-.22q.34 0 .48-.19.15-.18.14-.65v-3.38q0-.81-.62-.81v-.22h2.78v.22q-.3 0-.42.17-.12.15-.11.64v2.67l1.57-2.71q0-.45-.14-.6-.1-.17-.39-.17v-.22h2.78v.22q-.3 0-.46.16-.14.16-.14.57v3.49q0 .48.12.66.14.15.48.15V0Zm0 0"/>
    <path id="a" d="M3.1-7.94h4.1v.22q-.69.02-.87.17-.2.15-.22.74 1.35 0 2.05.31t1.2.94.5 1.51q0 1.13-.84 1.99T6.1-1.2q0 .42.1.62.09.2.27.27.2.06.72.1V0H3.1v-.22q.73 0 .92-.22.18-.22.18-.76a5 5 0 0 1-2.17-.38Q1.25-1.97.84-2.6a2.7 2.7 0 0 1 .1-2.95q.5-.71 1.25-.97.75-.28 2.01-.28 0-.53-.22-.7-.21-.2-.89-.2Zm3 6.32q.6 0 .96-.18.38-.18.61-.75.25-.57.25-1.56 0-.78-.23-1.33-.22-.54-.58-.73-.36-.2-1-.2ZM4.2-6.37q-.78.01-1.1.26-.34.25-.54.78-.19.54-.19 1.36 0 .97.24 1.47t.62.69q.4.17.97.19Zm0 0"/>
    <path id="c" d="M.42-.22Q.76-.23.9-.39q.15-.15.14-.63v-3.46q0-.43-.12-.58-.13-.15-.49-.19v-.22h4.81v1.42h-.21q-.14-.65-.38-.86t-.89-.2H2.67v4.13q0 .42.13.59.14.15.54.17V0H.42Zm0 0"/>
    <path id="d" d="M1.5-1.8q.4 0 .69.28t.28.7-.28.68a1 1 0 0 1-.69.28q-.4 0-.69-.28a1 1 0 0 1-.28-.69q0-.4.28-.69a1 1 0 0 1 .69-.28m0 0"/>
    <path id="f" d="M3.84-8.1v.26q-.6.39-.89.78-.4.51-.62 1.34-.28 1.03-.28 2.86 0 1.74.25 2.7.25.95.7 1.55.3.4.84.72v.3A4.8 4.8 0 0 1 1.45.45a6 6 0 0 1-.97-3.34q0-1.87.97-3.31a4.7 4.7 0 0 1 2.4-1.9m0 0"/>
    <path id="h" d="M.14 2.4v-.27q.6-.42.9-.79.4-.53.62-1.34.27-1.03.28-2.87 0-1.72-.25-2.68A5 5 0 0 0 1-7.1q-.32-.4-.86-.72v-.28q1.42.47 2.4 1.94.98 1.45.98 3.34 0 1.88-.99 3.31A4.7 4.7 0 0 1 .14 2.41m0 0"/>
    <path id="e" d="M1.77-3.98v-.2q.66-.2.92-.35.26-.17.45-.52.2-.33.19-.7 0-.48-.36-.83a1.2 1.2 0 0 0-.88-.34q-.8 0-1.39.86l-.22-.08A3.5 3.5 0 0 1 1.56-7.6q.66-.5 1.47-.5.82 0 1.36.5.53.5.53 1.17 0 .44-.25.84-.23.41-.78.72.68.34 1.05.83a2 2 0 0 1 .36 1.22q0 1.25-.9 2.12T2 .17Q.98.17.53-.16a.7.7 0 0 1-.34-.6q0-.27.19-.46.2-.2.45-.2a1 1 0 0 1 .36.1q.1.04.65.5.59.46 1.08.46.44 0 .75-.34.3-.35.31-.86 0-.81-.56-1.49a3 3 0 0 0-1.65-.93m0 0"/>
    <path id="k" d="M3.31-2.22q0 .52-.1.94-.07.4-.26.72-.19.3-.48.47-.3.15-.74.15-.42 0-.71-.14T.56-.52Q.4-.82.31-1.23a7 7 0 0 1 .02-1.9q.08-.41.26-.71.2-.3.49-.47.3-.17.73-.17t.7.15q.3.14.47.44.18.28.25.7t.08.97m-.6.05a6 6 0 0 0-.1-1.06 1 1 0 0 0-.13-.35 1 1 0 0 0-.17-.23l-.23-.14a1 1 0 0 0-.3-.05 1 1 0 0 0-.47.14 1 1 0 0 0-.3.38q-.09.23-.13.56A6 6 0 0 0 .89-1.4q.06.35.17.56t.28.31q.18.1.43.1.18 0 .32-.05a1 1 0 0 0 .25-.17q.1-.12.18-.28.07-.18.1-.36.06-.2.07-.42zm0 0"/>
    <path id="A" d="m3.16-.25-.02.1q0 .06-.02.09l-.04.04q-.02.03-.05.02H.58Q.53 0 .5-.02L.44-.05.39-.12v-.25q0-.05.03-.08l.03-.08.08-.1.86-.9a5 5 0 0 0 .75-1.02 2 2 0 0 0 .16-.68q0-.15-.05-.29l-.14-.21-.23-.16a1 1 0 0 0-.32-.06q-.2 0-.37.06-.15.04-.28.12l-.22.13-.11.05q-.04 0-.05-.02L.5-3.66l-.03-.07v-.21L.48-4l.02-.05q0-.03.06-.06.05-.05.14-.1.11-.07.25-.12.15-.07.35-.1.19-.05.37-.05.32 0 .56.09.25.1.41.25t.23.37q.08.21.08.44a2 2 0 0 1-.2.88q-.11.23-.34.54-.23.3-.61.68l-.7.73h1.93l.05.02q.03 0 .04.04l.02.08zm0 0"/>
    <path id="B" d="M3.14-1.42q0 .36-.12.64-.12.27-.33.45-.23.2-.53.3a2 2 0 0 1-1.07.06L.77-.03.53-.11.41-.17.38-.22.36-.28.34-.34v-.22l.03-.08q.01-.03.04-.03L.44-.7q.04 0 .1.05l.2.08.3.1q.18.03.43.04.24 0 .42-.05.2-.06.33-.17a1 1 0 0 0 .3-.72 1 1 0 0 0-.08-.37.5.5 0 0 0-.2-.27 1 1 0 0 0-.35-.16q-.2-.06-.5-.06l-.37.03-.27.02q-.08 0-.14-.05-.03-.04-.03-.17v-1.8q0-.1.05-.15.04-.07.15-.07h1.95l.05.02.05.05.01.07.02.11q0 .13-.03.2-.04.05-.1.05H1.08v1.25q.12-.03.25-.03h.28q.39 0 .67.1t.47.26q.2.16.28.4.1.23.11.5m0 0"/>
    <path id="C" d="M3.13-1.27q0 .32-.11.57-.12.23-.32.4-.19.17-.48.27t-.66.1A3 3 0 0 1 .8-.06l-.24-.1-.12-.08-.05-.05-.02-.06v-.2q0-.12.02-.17t.06-.05.12.07q.09.05.24.1.14.08.32.13a2 2 0 0 0 .83 0q.18-.06.28-.17a1 1 0 0 0 .18-.25 1 1 0 0 0 .06-.31 1 1 0 0 0-.08-.33 1 1 0 0 0-.22-.27q-.14-.1-.34-.17a2 2 0 0 0-.47-.06H.88l-.04-.05-.03-.08-.01-.1.01-.12.03-.06.04-.04.06-.02h.39q.21 0 .39-.05t.31-.17a1 1 0 0 0 .19-.25.8.8 0 0 0 .03-.6l-.14-.23-.22-.14A1 1 0 0 0 1.56-4q-.18 0-.36.06l-.3.14-.21.13-.11.04H.53L.5-3.65l-.03-.07v-.21l.01-.08.04-.04.04-.07.13-.09q.1-.07.25-.1.14-.07.33-.12a2 2 0 0 1 .95.03q.23.09.39.24.15.14.23.34t.08.44a1.3 1.3 0 0 1-.22.7q-.1.14-.26.24-.15.08-.35.14.23.03.41.12a1 1 0 0 1 .33.22 1 1 0 0 1 .3.7m0 0"/>
    <path id="D" d="m3.17-.23-.01.1-.04.08-.04.03q-.02.03-.03.02H.73L.7-.02.64-.05.61-.12v-.21l.06-.12.06-.02h.93v-3.36L.8-3.3l-.11.04-.06-.01-.04-.08v-.24l.02-.06q0-.03.03-.04l.05-.05 1.03-.66h.01l.07-.01.06-.02h.23l.1.02.04.03.02.05v3.87h.8q.03 0 .04.02.03 0 .05.04l.02.08zm0 0"/>
    <path id="p" d="M3.14-1.42q0 .36-.12.64-.12.27-.33.45-.23.2-.53.3a2 2 0 0 1-1.07.06L.77-.03.53-.11.41-.17.38-.22.36-.28.34-.34v-.22l.03-.08q.01-.03.04-.03L.45-.7l.1.05.18.08.3.1q.19.03.44.04.24 0 .42-.05.2-.06.33-.17a1 1 0 0 0 .3-.73q0-.21-.07-.36a1 1 0 0 0-.2-.29 1 1 0 0 0-.36-.15q-.2-.05-.5-.05a5 5 0 0 0-.64.03q-.08 0-.14-.03-.03-.05-.03-.19v-1.8q0-.1.05-.15.04-.06.15-.06h1.95l.05.01.05.05q.03.03.03.08l.02.1q0 .14-.05.21-.04.06-.1.06H1.08v1.24l.25-.02h.3q.37 0 .65.1a1.2 1.2 0 0 1 .77.65q.1.24.1.52m0 0"/>
    <path id="t" d="m3.17-.23-.01.1-.02.08-.05.03q0 .03-.04.02H.73L.7-.02.66-.05.62-.12v-.11q0-.06.02-.11 0-.04.03-.07 0-.03.03-.04l.04-.02h.93v-3.36l-.85.5-.12.05q-.05 0-.06-.02L.6-3.38v-.22l.02-.07q0-.03.03-.05l.06-.05 1.02-.64.03-.01q0-.02.05-.02l.07-.01h.11l.13.01.1.02q.02 0 .02.03l.02.03v3.9h.84l.05.05.02.07zm0 0"/>
    <path id="u" d="M3.31-2.22q0 .5-.08.92t-.26.74q-.2.3-.5.47-.3.15-.74.15-.42 0-.7-.14T.56-.52Q.4-.82.31-1.23a7 7 0 0 1 .02-1.9q.08-.41.26-.71.2-.32.49-.47.3-.17.75-.17.42 0 .7.15.29.14.45.44.2.28.25.7.08.42.08.97m-.6.03a5 5 0 0 0-.1-1.04 1.4 1.4 0 0 0-.3-.6l-.23-.12a1 1 0 0 0-.3-.05 1 1 0 0 0-.47.14 1 1 0 0 0-.28.38q-.1.23-.16.56A6 6 0 0 0 .9-1.4q.06.35.17.56t.28.31q.18.1.43.1a.8.8 0 0 0 .75-.5q.07-.18.1-.36.06-.2.07-.42zm0 0"/>
    <path id="E" d="M1.2-.22v.47q0 .96-.12 1.48H.4l.1-.4q.04-.27.04-.67v-2.52q0-.8.51-1.33.52-.51 1.3-.51.9 0 1.34.62.36.5.36 1.13 0 .7-.43 1.3a1.74 1.74 0 0 1-2.04.68 2 2 0 0 1-.39-.25m0-1.19q0 .55.1.77.09.21.34.36.27.15.6.14.48 0 .82-.4.35-.38.35-1.04a2 2 0 0 0-.22-.92q-.2-.43-.53-.64-.33-.2-.7-.2-.44 0-.63.36-.13.2-.13.92Zm0 0"/>
    <path id="O" d="M2.81-4.23q0 .5-.36.86-.34.34-.84.34t-.86-.35a1.2 1.2 0 0 1-.36-.85q0-.5.36-.86t.86-.36.84.36q.36.36.36.86m-.33-.02a.8.8 0 0 0-.26-.6.8.8 0 0 0-.61-.28 1 1 0 0 0-.64.27.8.8 0 0 0-.25.61q0 .38.25.63.26.25.64.25.36 0 .6-.25a.8.8 0 0 0 .27-.63m0 0"/>
    <path id="F" d="m2.5-.06-.02.03-.04.03h-.06l-.11.02L2.16 0h-.08l-.03-.03v-2.19H.88v2.16l-.02.03L.8 0H.75l-.1.02L.52 0H.45L.42-.03v-2.41q0-.07.03-.1.03-.05.11-.05h1.8q.06 0 .1.04t.04.11Zm0 0"/>
    <path id="G" d="M1.95-5.42a8 8 0 0 0-.75 3.3 7.5 7.5 0 0 0 .74 3.3l.01.07q.01.04-.01.06l-.1.03h-.26l-.1-.01-.06-.02-.03-.04a7 7 0 0 1 .02-6.8l.06-.02.08-.01h.28q.06 0 .1.03l.02.05zm0 0"/>
    <path id="H" d="m3.52-.1-.02.05-.06.05-.11.02-.16.01-.19-.01a.4.4 0 0 1-.18-.05l-.05-.08-1.5-1.95V-.1q0 .03-.02.04L1.2 0l-.1.02a1 1 0 0 1-.32 0L.66 0 .6-.05v-5.34l.05-.05.1-.01a1 1 0 0 1 .33 0l.1.01.04.05.02.05v3.18l1.34-1.46.07-.05.07-.05.13-.03h.33l.1.02q.03 0 .05.04.04.02.04.05t-.04.1l-.07.1-1.3 1.28L3.42-.28l.06.1zm0 0"/>
    <path id="I" d="M3.56-3.47q0 .15-.04.2a.1.1 0 0 1-.1.05h-.5q.15.15.19.31.06.18.06.36a1.3 1.3 0 0 1-.39.96q-.18.15-.42.25a2 2 0 0 1-.98.01 1 1 0 0 1-.3-.14l-.11.16-.05.22q0 .12.13.22.13.09.34.09l.92.05a1.5 1.5 0 0 1 .86.26q.18.12.25.28.1.18.1.4 0 .26-.11.48a1 1 0 0 1-.32.37q-.19.17-.53.27-.3.1-.76.1-.42 0-.74-.07-.3-.08-.5-.2a1 1 0 0 1-.28-.3A1 1 0 0 1 .2.48L.23.23.33 0Q.4-.1.5-.2q.09-.1.22-.2a1 1 0 0 1-.28-.26 1 1 0 0 1-.1-.32q0-.24.1-.43.1-.18.25-.34a1 1 0 0 1-.2-.31 1 1 0 0 1-.07-.46q0-.3.1-.53a1.1 1.1 0 0 1 .71-.65q.27-.1.57-.1l.56.07h1.06q.08 0 .11.06t.03.2m-1.01.92a.8.8 0 0 0-.2-.56q-.2-.2-.57-.2a.7.7 0 0 0-.56.23 1 1 0 0 0-.14.27q-.04.15-.03.3 0 .33.18.54.2.2.57.2.18 0 .32-.06T2.37-2t.14-.25.05-.3M2.88.27a.4.4 0 0 0-.2-.36 1 1 0 0 0-.5-.13l-.91-.03-.22.19-.13.15-.06.18-.02.15q0 .26.25.38.27.14.74.14.3 0 .5-.06a1 1 0 0 0 .31-.15l.17-.21zm0 0"/>
    <path id="J" d="m.66.95-.05.08-.06.05-.1.01-.14.02-.15-.02-.11-.04L0 .98Q0 .95.03.91l2.38-6.53q0-.05.03-.08l.06-.05.1-.02a1 1 0 0 1 .3 0l.1.05q.05.02.05.06v.08Zm0 0"/>
    <path id="K" d="M5.86-.1q0 .05-.02.05L5.78 0l-.1.02a1 1 0 0 1-.3 0L5.27 0l-.05-.05-.02-.04v-2.16q0-.22-.04-.4a1 1 0 0 0-.13-.32.5.5 0 0 0-.22-.2 1 1 0 0 0-.31-.08q-.22 0-.45.17-.22.18-.49.52V-.1q0 .03-.03.04L3.48 0 3.4.02a1 1 0 0 1-.33 0L2.96 0l-.04-.05-.01-.04v-2.16q0-.22-.05-.4a1 1 0 0 0-.14-.32.5.5 0 0 0-.22-.2 1 1 0 0 0-.3-.08 1 1 0 0 0-.47.17q-.21.18-.48.52V-.1q0 .03-.02.04L1.2 0l-.1.02a1 1 0 0 1-.32 0L.66 0 .6-.05v-3.64l.05-.03.09-.03h.28q.06 0 .1.03l.04.03.02.05v.47q.3-.33.58-.49a1.2 1.2 0 0 1 1.26.05q.14.09.24.22l.15.28.35-.33q.15-.14.3-.22t.29-.1q.15-.05.28-.05.34 0 .58.12t.37.31q.14.2.2.49.07.27.07.56Zm0 0"/>
    <path id="M" d="M1.92-2.1A7 7 0 0 1 1.7-.38q-.1.42-.28.82a8 8 0 0 1-.4.86l-.07.02-.1.01-.1.02q-.1 0-.17-.02-.05 0-.08-.03l-.02-.06.02-.08a8 8 0 0 0 .73-3.3 8 8 0 0 0-.73-3.3l-.02-.05q0-.03.04-.05l.07-.03.16-.02.13.02.09.01.06.02.02.03q.4.8.64 1.66.23.84.23 1.73m0 0"/>
    <path id="P" d="M4.08-.72v.11l-.02.1-.03.06-.06.06-.16.1q-.12.09-.31.16-.18.09-.44.13-.23.06-.51.06-.51 0-.9-.15a2 2 0 0 1-.68-.49 2 2 0 0 1-.44-.8 4 4 0 0 1-.16-1.09q0-.63.16-1.12.17-.5.47-.85t.7-.51a2.2 2.2 0 0 1 1.35-.14q.21.03.39.09l.31.14q.15.08.19.14l.08.08.01.08.02.08.01.12-.01.14-.02.08-.05.06-.04.02q-.07 0-.16-.08l-.25-.17a2 2 0 0 0-.39-.17A1.6 1.6 0 0 0 2-4.42q-.29.15-.48.4-.2.26-.3.64-.11.38-.11.86 0 .49.1.86.12.38.3.63.2.24.49.37t.64.13q.3 0 .52-.08t.39-.17.26-.16q.11-.08.16-.08l.05.02q.03 0 .03.05l.01.1zm0 0"/>
    <path id="L" d="M2.5-1.02a1 1 0 0 1-.33.79q-.15.14-.39.21A2 2 0 0 1 .64-.03l-.19-.1-.1-.06L.3-.22v-.05L.28-.33v-.1q0-.1.02-.13 0-.05.06-.05l.1.05.18.1.25.09a2 2 0 0 0 .66 0q.15-.06.23-.13.1-.1.14-.2l.05-.27q0-.15-.06-.26a.4.4 0 0 0-.18-.2 1 1 0 0 0-.28-.15q-.15-.04-.36-.04H.7l-.03-.04-.03-.06v-.19q0-.03.03-.04l.03-.03L.75-2h.31a1 1 0 0 0 .56-.17q.1-.1.15-.2a.7.7 0 0 0 .03-.49.4.4 0 0 0-.11-.17l-.19-.13-.25-.04q-.15 0-.3.04a2 2 0 0 0-.4.22l-.1.05H.42L.4-2.92l-.02-.06v-.18L.4-3.2l.02-.05q0-.03.03-.05l.1-.08.21-.09.27-.08q.15-.04.32-.04a1.2 1.2 0 0 1 .74.25q.12.1.19.28a1 1 0 0 1 .01.65l-.12.25a.8.8 0 0 1-.48.3q.18.03.32.11.16.06.27.17.1.12.17.27.06.15.06.3m0 0"/>
    <path id="N" d="m2.8-3.6-.02.08-.01.08q0 .04-.04.1l-.04.07-.05.05-.05.02h-.9l-.4 1.98-.04.19v.16q0 .2.08.3.07.08.28.09l.17-.02q.08 0 .14-.03l.1-.05.07-.01q.03 0 .05.03.03 0 .03.06l-.01.13-.04.1-.04.11-.03.08-.11.05-.14.05-.18.03-.18.01q-.22 0-.4-.04a1 1 0 0 1-.26-.14 1 1 0 0 1-.16-.25 1 1 0 0 1-.04-.38v-.22l.03-.12.02-.11.4-2h-.5q-.05 0-.08-.02l-.01-.1.01-.13.03-.14.07-.1q.04-.04.1-.04h.5l.16-.85q0-.03.02-.04l.06-.05.11-.02a1 1 0 0 1 .31 0l.1.02.03.04.01.05-.17.85h.9q.07 0 .09.04.03.04.03.1m0 0"/>
    <clipPath id="i">
      <path d="M322.1 613h180.97v97.66H322.1Zm0 0"/>
    </clipPath>
  </defs>
  <use xlink:href="#a" x="87.47" y="245.01"/>
  <use xlink:href="#b" x="97.76" y="245.01"/>
  <use xlink:href="#c" x="104.72" y="245.01"/>
  <use xlink:href="#d" x="110.11" y="245.01"/>
  <use xlink:href="#e" x="116.1" y="245.01"/>
  <use xlink:href="#f" x="125.09" y="245.01"/>
  <use xlink:href="#g" x="129.08" y="245.01"/>
  <use xlink:href="#h" x="135.04" y="245.01"/>
  <path fill="none" stroke="#868686" stroke-linejoin="round" stroke-miterlimit="10" stroke-width=".6" d="M30.3 54.9h310.2M30.3 80.1h310.2M30.3 105.32h310.2m-310.2 25.8h310.2m-310.2 25.2h310.2m-310.2 25.2h310.2m-310.2 25.2h310.2m-258.6-.02v-177m51.6 177v-177m51.6 177v-177m52.2 177v-177m51.6 177v-177m51.6 177v-177" transform="matrix(.58227 0 0 -.58068 04.45 227.22)"/>
  <path fill="none" stroke="#000" stroke-linejoin="round" stroke-miterlimit="10" stroke-width="1.2" d="M30.6 29.4v177.61m-3-177.61h3m-3 5.4h3m-3 4.8h3m-3 4.8h3m-3 5.4h3m-3 4.8h3m-3 5.4h3m-3 4.8h3m-3 5.4h3m-3 4.8h3m-3 5.4h3m-3 4.8h3m-3 5.4h3m-3 4.8h3m-3 4.8h3m-3 5.4h3m-3 4.81h3m-3 5.4h3m-3 4.8h3m-3 5.4h3m-3 4.8h3m-3 5.4h3m-3 4.8h3m-3 4.8h3m-3 5.4h3m-3 4.8h3m-3 5.4h3m-3 4.8h3m-3 5.4h3m-3 4.8h3m-3 5.4h3m-3 4.8h3m-3 5.4h3m-3 4.8h3m-3 4.8h3m-3 5.4h3m-4.2-177.6h4.2m-4.2 25.2h4.2m-4.2 25.8h4.2m-4.2 25.2h4.2m-4.2 25.2h4.2M26.4 156h4.2m-4.2 25.8h4.2M26.4 207h4.2m0-177.6h309.6m-309.6 0v-3m10.2 3v-3m10.2 3v-3m10.2 3v-3m10.2 3v-3m10.8 3v-3m10.2 3v-3m10.2 3v-3m10.2 3v-3m10.8 3v-3m10.2 3v-3m10.2 3v-3m10.2 3v-3m10.2 3v-3m10.8 3v-3m10.2 3v-3m10.2 3v-3m10.2 3v-3m10.8 3v-3m10.2 3v-3m10.2 3v-3m10.2 3v-3m10.8 3v-3m10.2 3v-3m10.2 3v-3m10.2 3v-3m10.2 3v-3m10.8 3v-3m10.2 3v-3m10.2 3v-3m10.2 3v-3m-309.6 3v-3.6m51.6 3.6v-3.6m51.6 3.6v-3.6m51.6 3.6v-3.6m51.6 3.6v-3.6m51.6 3.6v-3.6m51.6 3.6v-3.6" transform="matrix(.58227 0 0 -.58068 04.45 227.22)"/>
  <g clip-path="url(#i)">
    <path fill="none" stroke="#000" stroke-linecap="round" stroke-linejoin="round" stroke-miterlimit="10" stroke-width="1.8" d="M30.3 29.7h3.09l1.04.01h2.06l1.04.01h3.1l1.04.01h2.06l1.04.01h2.06l1.04.02h3.1l1.03.02h3.1q.53.03 1.04.02a53 53 0 0 0 2.07 0l1.03.02h1.04q.52 0 1.03.02h2.07q.52.03 1.03.02l1.04.01 1.03.01 1.03.01 1.04.01 1.03.02 1.04.01h1.03l1.04.02 1.03.01 1.03.02 1.04.02 1.03.01 1.03.02 1.04.01 2.07.04 1.03.02 1.03.02 1.04.02 1.03.02 1.04.03 1.03.02 1.04.02 1.03.03 1.03.02 1.04.03 1.03.03q.52 0 1.04.03l1.03.02 1.04.04 1.03.03a53 53 0 0 1 2.06.07l1.04.03 1.03.04 1.04.04 1.03.04 1.04.04 1.03.04 1.03.04 1.04.05 1.03.05 1.04.05q.52.01 1.03.04l1.03.06 1.04.05 1.03.05 1.04.06 1.03.06 1.03.06 1.04.06 1.03.07 1.04.06 1.03.06 1.03.08 1.04.07 1.03.07 1.04.07 1.03.08 1.03.09 1.04.08 1.03.08 1.04.1 1.03.08 1.04.1 1.03.09 1.03.1 1.04.1 1.03.1 1.04.1 1.03.1q.51.07 1.03.12l1.04.12 1.03.11 1.04.12 1.03.12 1.03.13 1.04.13 1.03.13 1.04.13 1.03.14 1.03.14 1.04.15 1.03.15 1.04.15 1.03.16 1.03.15 1.04.17 1.03.16 1.04.18 1.03.17 1.03.18 1.04.19 1.03.19 2.07.38 1.03.2 1.04.2 1.03.21 1.04.2 1.03.23 1.03.22 1.04.23 1.03.23 1.04.24 1.03.24 1.03.24 1.04.26 1.03.25 1.04.26 1.03.27 1.03.27 1.04.28 1.03.28 1.04.29 1.03.29 1.03.3 1.04.3 1.03.31 1.04.32 1.03.32 1.03.33 1.04.33 1.03.35 1.04.34q.52.17 1.03.36l2.07.71 1.03.38 1.04.38 1.03.38 1.04.4 1.03.4 1.03.4 1.04.41 1.03.42 1.04.43 1.03.43 1.03.44 1.04.45 1.03.45 1.04.47q.51.22 1.03.47.52.23 1.03.48l1.04.48 1.03.5 1.04.5 1.03.5 1.03.52 1.04.53 1.03.54 1.04.54 1.03.54 1.03.56 1.04.56 1.03.58 1.04.57 1.03.6 1.03.6 1.04.61q.52.3 1.03.62.53.3 1.04.64.52.3 1.03.63.52.31 1.03.65l1.04.65 1.03.67 1.04.66q.52.34 1.03.7l1.03.68 1.04.7 1.03.7 1.04.72 1.03.75 1.03.74 1.04.75 1.03.76 1.04.78q.52.37 1.03.77l1.03.79 1.04.81 1.03.8 1.04.84q.52.4 1.03.82l1.04.84 1.03.86q.52.43 1.03.88l1.04.87 1.03.88 1.04.91 1.03.91 1.03.91q.53.46 1.04.94l1.03.94 1.04.97 1.03.95q.52.48 1.03.98l1.04 1 1.03 1 1.04 1.01 1.03 1.02 1.03 1.05 1.04 1.06 1.03 1.05 1.04 1.07 1.03 1.1 1.03 1.1 1.04 1.1 1.03 1.12 1.04 1.14a90 90 0 0 1 2.06 2.33l1.04 1.16 1.03 1.21 1.04 1.2 1.03 1.21 1.03 1.23 1.04 1.23 1.03 1.26 1.04 1.26 1.03 1.3 1.03 1.29 1.04 1.31 1.03 1.32 1.04 1.34 1.03 1.36q.53.68 1.03 1.37l1.04 1.36 1.03 1.4 1.04 1.42 1.03 1.4 1.03 1.46 1.04 1.44 1.03 1.48q.53.73 1.04 1.47l1.03 1.5 1.03 1.5q.53.76 1.04 1.54l1.03 1.55 1.04 1.54 1.03 1.58 1.04 1.6 1.03 1.58 1.03 1.63 1.04 1.63 1.03 1.65 1.04 1.66 1.03 1.7 1.03 1.7 1.04 1.7 1.03 1.74 1.04 1.75 1.03 1.76 1.03 1.78 1.04 1.79 1.03 1.8 1.04 1.84 1.03 1.85 1.03 1.87 1.04 1.87 1.03 1.9 1.04 1.91 1.03 1.94 1.03 1.94 1.04 1.98 1.03 1.99 1.04 2 1.03 2.02" transform="matrix(.58227 0 0 -.58068 04.45 227.22)"/>
  </g>
  <use xlink:href="#k" x="12.11" y="212.39"/>
  <use xlink:href="#p" x="12.11" y="197.63"/>
  <use xlink:href="#t" x="08.59" y="182.88"/>
  <use xlink:href="#u" x="12.08" y="182.88"/>
  <use xlink:href="#t" x="08.59" y="168.11"/>
  <use xlink:href="#p" x="12.08" y="168.11"/>
  <use xlink:href="#A" x="08.59" y="153.35"/>
  <use xlink:href="#k" x="12.08" y="153.35"/>
  <use xlink:href="#A" x="08.59" y="138.59"/>
  <use xlink:href="#B" x="12.08" y="138.59"/>
  <use xlink:href="#C" x="08.59" y="123.82"/>
  <use xlink:href="#k" x="12.08" y="123.82"/>
  <use xlink:href="#C" x="08.59" y="109.06"/>
  <use xlink:href="#B" x="12.08" y="109.06"/>
  <use xlink:href="#k" x="20.38" y="221.48"/>
  <use xlink:href="#B" x="48.78" y="221.48"/>
  <use xlink:href="#k" x="52.27" y="221.48"/>
  <use xlink:href="#D" x="77.16" y="221.48"/>
  <use xlink:href="#k" x="80.66" y="221.48"/>
  <use xlink:href="#k" x="84.15" y="221.48"/>
  <use xlink:href="#D" x="107.31" y="221.48"/>
  <use xlink:href="#B" x="110.82" y="221.48"/>
  <use xlink:href="#k" x="114.33" y="221.48"/>
  <use xlink:href="#A" x="137.44" y="221.48"/>
  <use xlink:href="#k" x="140.94" y="221.48"/>
  <use xlink:href="#k" x="144.43" y="221.48"/>
  <use xlink:href="#A" x="167.59" y="221.48"/>
  <use xlink:href="#B" x="171.08" y="221.48"/>
  <use xlink:href="#k" x="174.58" y="221.48"/>
  <use xlink:href="#C" x="197.74" y="221.48"/>
  <use xlink:href="#k" x="201.25" y="221.48"/>
  <use xlink:href="#k" x="204.76" y="221.48"/>
  <use xlink:href="#E" x="07.97" y="99.72"/>
  <use xlink:href="#F" x="12.52" y="101.47"/>
  <use xlink:href="#G" x="16.73" y="99.72"/>
  <use xlink:href="#H" x="19.17" y="99.72"/>
  <use xlink:href="#I" x="22.68" y="99.72"/>
  <use xlink:href="#J" x="26.88" y="99.72"/>
  <use xlink:href="#K" x="30.02" y="99.72"/>
  <use xlink:href="#L" x="36.36" y="97.27"/>
  <use xlink:href="#M" x="39.16" y="99.72"/>
  <use xlink:href="#N" x="103.32" y="229.53"/>
  <use xlink:href="#G" x="107.52" y="229.53"/>
  <use xlink:href="#O" x="109.97" y="229.53"/>
  <use xlink:href="#P" x="113.13" y="229.53"/>
  <use xlink:href="#M" x="117.33" y="229.53"/>
</svg>
