<svg xmlns="http://www.w3.org/2000/svg" xmlns:xlink="http://www.w3.org/1999/xlink" width="230" height="200" viewBox="0 0 230 200">
  <defs>
    <path id="a" d="M4.34-2.9q0 .65-.1 1.21-.12.56-.37.96-.23.39-.64.6-.39.2-.96.2T1.34-.1a1.5 1.5 0 0 1-.6-.56 3 3 0 0 1-.32-.94 8 8 0 0 1 0-2.48q.1-.57.35-.96.24-.4.64-.6.4-.22.98-.22.54 0 .92.2.38.18.6.56.23.37.32.94.1.56.11 1.26m-.8.04a9 9 0 0 0-.12-1.39q-.07-.27-.15-.45a1 1 0 0 0-.24-.32 1 1 0 0 0-.3-.17 1 1 0 0 0-.39-.06 1 1 0 0 0-.62.19q-.23.17-.38.48-.12.32-.18.74a8 8 0 0 0 .01 2.01q.08.45.22.74.14.27.36.42.23.12.56.12.25 0 .44-.07a1 1 0 0 0 .33-.22q.15-.16.23-.36.1-.22.14-.47.06-.27.08-.56zm0 0"/>
    <path id="c" d="m4.16-.3-.02.14-.03.1-.05.04L4 0H.97L.9-.02.84-.06l-.03-.1L.8-.3v-.14l.03-.1.05-.05a.1.1 0 0 1 .08-.04h1.2v-4.4l-1.12.67-.14.06q-.06 0-.08-.03l-.05-.1v-.29q0-.06.03-.1l.03-.05.07-.05 1.34-.86.03-.02.08-.01.1-.02h.13l.18.02.1.01q.06.02.07.05l.01.05v5.08H4q.03 0 .06.03.03 0 .05.06.03.03.03.1zm0 0"/>
    <path id="d" d="m4.14-.33-.01.14-.04.11-.04.06-.08.02H.77L.66-.02.58-.06.53-.17.52-.33v-.15q0-.09.03-.13 0-.04.04-.1.06-.05.1-.12L1.8-2.02q.39-.4.63-.73a4 4 0 0 0 .36-.6q.15-.27.17-.5.05-.2.05-.4 0-.18-.07-.36a1 1 0 0 0-.18-.3 1 1 0 0 0-.3-.21 1 1 0 0 0-.4-.08q-.3 0-.5.08a3 3 0 0 0-.66.32q-.12.08-.16.08l-.06-.01-.03-.05-.04-.11v-.28q0-.05.02-.08 0-.04.03-.08l.06-.08.2-.12.32-.16a3 3 0 0 1 .95-.18 2 2 0 0 1 .74.12q.3.11.51.31t.32.49q.1.27.1.58 0 .27-.04.56-.05.26-.2.6-.17.3-.47.7t-.8.9l-.92.95h2.53q.03 0 .06.04l.06.06q.04.03.04.1zm0 0"/>
    <path id="e" d="M4.1-1.66q0 .4-.15.72-.12.32-.39.55t-.64.36a3 3 0 0 1-1.86-.05L.73-.2.56-.31.52-.37.48-.45.47-.56v-.16q0-.15.03-.22Q.53-1 .58-1q.04 0 .15.08l.32.15q.19.09.43.16a2 2 0 0 0 1.07-.02q.22-.08.39-.21.15-.14.22-.33a1 1 0 0 0-.02-.85 1 1 0 0 0-.28-.34q-.19-.15-.47-.23a2 2 0 0 0-.6-.08h-.56l-.07-.02-.07-.04-.03-.1-.01-.15.01-.13.03-.1.07-.06.07-.01h.5q.3 0 .54-.06.23-.08.39-.22a1.1 1.1 0 0 0 .28-1.12 1 1 0 0 0-.17-.3 1 1 0 0 0-.3-.2 1 1 0 0 0-.42-.07q-.26 0-.47.08a3 3 0 0 0-.67.34q-.12.08-.16.08l-.06-.02-.03-.03-.04-.1v-.26q0-.06.02-.1 0-.04.03-.07l.06-.07.18-.12.32-.16q.19-.08.44-.12a2.3 2.3 0 0 1 1.24.04q.3.1.51.29.2.18.3.45.1.25.1.58 0 .26-.07.5a1.2 1.2 0 0 1-1.02.9v.02q.31.03.57.15a1.3 1.3 0 0 1 .68.7q.1.25.11.52m0 0"/>
    <path id="f" d="M4.4-1.64q0 .15-.06.23-.04.08-.12.08h-.66V-.1l-.01.06-.07.05-.12.02a1 1 0 0 1-.36 0L2.9 0l-.07-.05L2.8-.1v-1.22H.42l-.1-.01-.05-.05-.05-.1v-.32l.01-.13q.01-.07.04-.1l.06-.12 2.1-3.53q0-.03.05-.04l.11-.05q.07-.03.16-.03a2 2 0 0 1 .5 0q.1 0 .17.03t.11.05l.03.06v3.7h.66q.08 0 .12.08.05.08.05.25M2.8-5.14.92-1.97h1.9Zm0 0"/>
    <path id="g" d="M6.34-6.02H4.63v.16c.42.05.57.14.57.31s-.17.57-.47 1.1l-1.9 3.28-.61-4.08v-.14c0-.31.12-.4.7-.47v-.16H.7v.16c.52.06.53.08.72 1.24l.8 4.8h.17L5.83-5.5q.21-.37.51-.36Zm0 0"/>
    <path id="q" d="M3.22-.97c-.5.53-.86.74-1.31.74-.53 0-.85-.38-.85-1.05 0-.78.33-1.61.85-2.14a1.4 1.4 0 0 1 1-.44q.33 0 .34.17 0 .06-.05.19-.1.14-.1.27.02.33.37.34c.26 0 .45-.17.45-.42 0-.44-.4-.75-.97-.75C1.56-4.06.28-2.72.28-1.28.28-.41.78.09 1.63.09c.7 0 1.18-.26 1.75-.98Zm0 0"/>
    <path id="h" d="M2.72-6.22a4.6 4.6 0 0 0-2.28 3.9c0 1.18.34 2.07 1.15 3 .38.44.63.65 1.1.95l.1-.15C2.07.91 1.82.58 1.57-.1a7 7 0 0 1-.33-2.23q0-1.46.38-2.3c.25-.56.53-.9 1.19-1.44Zm0 0"/>
    <path id="m" d="M.34 1.63a4.4 4.4 0 0 0 2.28-3.9c0-1.18-.34-2.07-1.15-3.01a4 4 0 0 0-1.1-.94l-.1.14c.73.58.98.9 1.25 1.6.21.62.3 1.3.3 2.23Q1.84-.8 1.48.03C1.22.61.94.95.27 1.48Zm0 0"/>
    <path id="i" d="M.72-4.1h3.67v.15q-.3 0-.4.06l-.16.16q-.06.09-.06.57v2.2q0 .47.04.57l.16.16q.1.06.42.06V0H2.27v-.17q.34 0 .46-.03.15-.03.22-.17t.08-.6v-2.86H1.66v1.74q0 .98-.1 1.39a1 1 0 0 1-.34.6 1 1 0 0 1-.6.18Q.06.08.06-.41q0-.15.1-.25.08-.1.24-.1t.3.12q.17.18.25.17.2 0 .3-.34T1.32-2v-.9q0-.72-.11-.85-.1-.15-.5-.2Zm0 0"/>
    <path id="j" d="m1.58-1.27 1.78-2.06q-.02-.33-.14-.47t-.4-.15v-.16h1.9v.16q-.3 0-.4.06l-.16.16q-.07.09-.07.57v2.2q0 .47.05.57l.16.16q.1.06.42.06V0H2.73v-.17q.38 0 .5-.13.13-.14.13-.67V-2.9L1.58-.84q0 .39.1.53t.43.14V0H.2v-.17q.4 0 .5-.14.12-.14.12-.66v-2.19q0-.46-.05-.56a.4.4 0 0 0-.16-.15Q.54-3.95.2-3.95v-.16h2v.16q-.3 0-.4.06l-.18.16q-.04.09-.04.57Zm0 0"/>
    <path id="k" d="M.22-4.1H3.8L3.97-3h-.2q-.06-.34-.18-.52a.6.6 0 0 0-.3-.25q-.15-.05-.54-.06h-.36v2.86q0 .47.05.6.06.1.19.15.12.03.57.05V0H.95v-.17q.44 0 .57-.13.12-.14.12-.67v-2.86h-.37q-.4 0-.54.05a1 1 0 0 0-.26.23Q.34-3.37.25-3h-.2Zm0 0"/>
    <path id="l" d="m-.02-3.7 1.29-.52h.17v.95q.3-.53.62-.75.33-.21.69-.21.62 0 1.03.48.52.6.52 1.55 0 1.06-.61 1.76-.53.57-1.28.56-.33 0-.57-.09a1 1 0 0 1-.4-.26v1.25q0 .41.04.53.05.12.18.18.14.06.47.07v.17H-.04V1.8h.1q.25 0 .43-.1a.3.3 0 0 0 .14-.15Q.7 1.44.7.98V-2.9q0-.38-.05-.5a.3.3 0 0 0-.1-.15.4.4 0 0 0-.23-.06l-.26.06Zm1.46.7v1.55q0 .5.03.65.06.25.31.46.25.2.63.2.44 0 .71-.36.38-.45.38-1.28a2.2 2.2 0 0 0-.42-1.45.85.85 0 0 0-1.11-.25q-.15.09-.53.48m0 0"/>
    <path id="n" d="M.52-3.72h.21c.2-.01.4.11.4.25 0 .11-.33 1.4-.66 2.61Q.14.33-.08 1.2c-.1.43-.22.53-.6.55v.14H1.2v-.14c-.43 0-.6-.08-.6-.28 0-.13.17-.83.35-1.53.24.12.4.15.61.15 1.35 0 2.77-1.53 2.77-3 0-.71-.4-1.15-1.06-1.15-.6 0-1.05.3-1.58 1.04l.26-.93q.03-.06.02-.07 0-.04-.03-.04h-.02l-1.42.2Zm2.4.05q.59 0 .58.78c0 .62-.27 1.42-.67 1.98q-.58.84-1.3.83c-.26 0-.45-.14-.45-.34 0-.31.33-1.5.6-2.2.26-.63.79-1.08 1.24-1.05m0 0"/>
    <path id="o" d="m4.28-1.02-.25.27c-.3.3-.4.38-.48.38a.12.12 0 0 1-.13-.13c0-.19.38-1.77.81-3.34.04-.1.05-.11.07-.2l-.07-.02-.56.06-.03.03-.1.44c-.07-.35-.35-.53-.74-.53C1.56-4.06.16-2.4.16-.92c0 .64.36 1.01.93 1.01.66 0 1.05-.3 1.86-1.43-.18.75-.2.82-.2 1.06q-.01.38.36.37c.37 0 .6-.17 1.28-1.01ZM2.86-3.86c.31.02.52.23.52.56 0 .77-.47 1.86-1.11 2.55-.22.25-.54.4-.8.4-.33 0-.53-.26-.53-.68 0-.52.34-1.45.75-2.03.36-.53.78-.83 1.17-.8m0 0"/>
    <path id="p" d="M1.02-5.92c.54.01.59.04.59.25 0 .08-.02.17-.08.39l-.05.17-.01.06L.22-.42v.03c0 .22.7.48 1.22.48C2.83.1 4.38-1.5 4.38-2.95c0-.66-.46-1.11-1.08-1.11-.64 0-1.13.37-1.78 1.39.46-1.72.54-1.99.95-3.58l-.05-.05c-.47.08-.73.13-1.4.22Zm1.92 2.31c.4 0 .64.3.64.78 0 .61-.46 1.61-1.02 2.17q-.52.55-1.12.55Q.99-.1 1-.42c0-.56.28-1.44.67-2.13q.6-1.07 1.27-1.06m0 0"/>
    <path id="r" d="M4.73-3.17q0 .72-.12 1.33-.1.6-.38 1.03-.27.43-.7.67T2.48.09q-.6 0-1.01-.2T.8-.73a3 3 0 0 1-.36-1.02 9 9 0 0 1 .02-2.72q.12-.6.37-1.05.27-.43.7-.67.44-.23 1.07-.23.6 0 1 .22.42.2.67.62.25.41.34 1.02.12.6.11 1.39m-.86.04q0-.46-.03-.84a4 4 0 0 0-.28-1.15 1 1 0 0 0-.25-.35 1 1 0 0 0-.33-.2 1 1 0 0 0-.42-.06q-.41 0-.68.2-.26.18-.41.53t-.2.81A10 10 0 0 0 1.28-2q.07.5.24.81t.4.46.61.14Q2.8-.6 3-.67a1 1 0 0 0 .36-.25q.16-.18.25-.4.1-.25.16-.52.05-.3.07-.6.04-.33.04-.68m0 0"/>
  </defs>
  <path fill="none" stroke="#000" stroke-linejoin="round" stroke-miterlimit="10" stroke-width="1.2" d="M15 33v172.81M15 33h235.2M15 33v-4.2M73.8 33v-4.2m58.8 4.2v-4.2m58.8 4.2v-4.2m58.8 4.2v-4.2" transform="matrix(.66505 0 0 -.66361 52.95 178.1)"/>
  <path fill="none" stroke="#000" stroke-linecap="round" stroke-linejoin="round" stroke-miterlimit="10" stroke-width="1.2" d="M73.8 57.6h117.6l-12 3-11.4 3.6-12 4.8-11.4 5.4-12 7.2-12 9-11.4 12.6-12 17.4-11.4 25.8-12 40.21z" transform="matrix(.66505 0 0 -.66361 52.95 178.1)"/>
  <use xlink:href="#a" x="60.65" y="171.18"/>
  <use xlink:href="#c" x="99.79" y="171.18"/>
  <use xlink:href="#d" x="138.94" y="171.18"/>
  <use xlink:href="#e" x="178.08" y="171.18"/>
  <use xlink:href="#f" x="217.22" y="171.18"/>
  <use xlink:href="#g" x="123.74" y="181.68"/>
  <use xlink:href="#bU" x="129.34" y="181.68"/>
  <use xlink:href="#h" x="131.35" y="181.68"/>
  <use xlink:href="#i" x="134.56" y="181.68"/>
  <use xlink:href="#j" x="139.35" y="181.68"/>
  <use xlink:href="#k" x="144.15" y="181.68"/>
  <use xlink:href="#l" x="148.15" y="181.68"/>
  <use xlink:href="#j" x="152.95" y="181.68"/>
  <use xlink:href="#m" x="157.8" y="181.68"/>
  <use xlink:href="#n" x="52.15" y="44.87"/>
  <use xlink:href="#o" x="95.65" y="144.87"/>
  <use xlink:href="#p" x="95.1" y="56.79"/>
  <use xlink:href="#q" x="182.75" y="141.66"/>
  <path d="M142.14 140.18h-9.2v-.8h9.2Zm-5.4 2.27-4.6-2.68 4.6-2.67a.4.4 0 1 1 .4.69l-4 2.33v-.69l4 2.33a.4.4 0 0 1 .14.54.4.4 0 0 1-.55.15m-35.38-35.02v-9.2h.8v9.2Zm-2.28-5.4 2.68-4.58 2.68 4.58a.4.4 0 0 1-.7.4l-2.33-3.99h.69l-2.33 4a.4.4 0 0 1-.7-.4m22.62.78 3.71 5.53-.66.44-3.72-5.52Zm3.49 1.11.34 5.3-4.79-2.31a.4.4 0 0 1-.18-.53.4.4 0 0 1 .54-.2l4.16 2.02-.57.38-.3-4.6a.4.4 0 0 1 .38-.43.4.4 0 0 1 .42.37m0 0"/>
  <path fill="none" stroke="#000" stroke-linejoin="round" stroke-miterlimit="10" stroke-width="1.2" d="M25.2 45h-3.6" transform="matrix(.66656 0 0 -.66548 46.15 186.09)"/>
  <use xlink:href="#r" x="54.42" y="159.86"/>
</svg>
