<svg xmlns="http://www.w3.org/2000/svg" xmlns:xlink="http://www.w3.org/1999/xlink" width="330" height="80" viewBox="0 0 330 80">
  <defs>
    <path id="a" d="M8.28-7.8H6.05v.2c.54.05.76.18.76.4s-.23.73-.62 1.42L3.7-1.53l-.8-5.28V-7c0-.4.16-.52.91-.6v-.2H.92v.2c.67.08.69.1.96 1.6L2.89.22h.23l4.49-7.34q.28-.48.67-.49Zm0 0"/>
    <path id="d" d="m.67-4.81.28-.02c.27 0 .5.16.5.35 0 .14-.42 1.8-.84 3.37Q.18.42-.1 1.55c-.13.54-.3.7-.82.7v.2h2.47v-.18C1 2.27.8 2.17.8 1.9c0-.16.2-1.08.43-1.99.32.16.54.2.8.2 1.77 0 3.63-1.98 3.63-3.89 0-.93-.54-1.5-1.4-1.5-.78 0-1.35.4-2.06 1.36l.35-1.2.03-.1-.06-.06H2.5L.66-5Zm3.14.06c.53.02.75.33.75 1.02 0 .8-.34 1.82-.86 2.56Q2.92-.1 1.98-.1c-.32 0-.57-.2-.57-.44 0-.4.42-1.97.78-2.86.33-.81 1.03-1.4 1.62-1.36m0 0"/>
    <path id="e" d="M8.3-1.4q-.08.08-.16.2-.3.36-.33.37c-.26.3-.37.38-.54.38q-.14 0-.14-.2l.1-.54.83-2.98c.02-.06.03-.25.03-.35 0-.42-.3-.75-.7-.75q-.34 0-.76.27c-.6.38-1.08.95-1.93 2.27.33-.94.49-1.6.49-1.82 0-.43-.27-.72-.69-.72-.73 0-1.58.79-2.69 2.52l.7-2.48-.03-.04c-.65.13-.9.2-1.93.38v.19c.56.01.56.01.67.08q.1.03.1.18c0 .14-.29 1.24-.71 2.74C.34-.8.3-.6.14 0h.9c.59-1.9.77-2.34 1.18-2.95.69-1.03 1.39-1.7 1.81-1.7q.24.01.24.3a39 39 0 0 1-.85 3.26L3.12 0h.91c.47-1.86.72-2.47 1.33-3.31.6-.81 1.19-1.33 1.55-1.33.12 0 .23.1.23.25 0 .06-.01.17-.08.42l-.7 2.74c-.13.46-.16.67-.16.8q0 .53.49.54c.56 0 1.1-.4 1.73-1.28l.06-.08Zm0 0"/>
    <path id="f" d="m5.64-5.6.49-2.37h-.29c-.17.25-.28.31-.54.31-.16 0-.3-.03-.55-.12a3 3 0 0 0-1.03-.17c-1.25 0-2.14.83-2.14 2 0 .64.19.98.9 1.75.07.04.27.28.47.5l.47.5c.56.6.72.9.72 1.4 0 .9-.66 1.6-1.55 1.6C1.58-.2.83-1.05.83-2.22q0-.1.03-.23L.6-2.48.2.17h.21q.11-.39.46-.39c.14 0 .3.05.62.16.56.2.9.28 1.27.28a2.36 2.36 0 0 0 2.42-2.4c0-.77-.27-1.23-1.36-2.32-1.08-1.1-1.19-1.25-1.19-1.84 0-.75.5-1.22 1.31-1.22q.7 0 1.08.45c.27.3.36.69.4 1.49Zm0 0"/>
    <path id="b" d="M2-5.25q-.64 0-1.06.4C.48-4.4.19-3.51.19-2.6c0 .86.26 1.75.62 2.19Q1.27.1 1.95.1q.6 0 1.03-.4c.46-.43.75-1.33.75-2.27 0-1.6-.71-2.69-1.73-2.69m-.03.2c.66 0 1.01.88 1.01 2.5q0 2.45-1.03 2.46-1 0-1.01-2.46c0-1.64.36-2.5 1.03-2.5m0 0"/>
    <path id="h" d="M5.53-.14c-.34-.03-.42-.11-.7-.69l-1.95-4.4h-.16l-1.63 3.8C.6-.27.5-.15.12-.13V0h1.55v-.14q-.54 0-.53-.33 0-.15.06-.3l.36-.9h2.05l.33.73q.15.35.15.53c0 .2-.14.25-.56.27V0h2ZM1.7-2l.9-2.12L3.5-2Zm0 0"/>
    <path id="c" d="M1 1.69c.81-.4 1.34-1.13 1.34-1.85 0-.59-.42-1.06-.95-1.06-.42 0-.72.28-.72.69 0 .37.27.6.72.6l.24-.02.07-.02q.17 0 .18.16 0 .6-.99 1.26Zm0 0"/>
    <path id="g" d="M4.88-7.81H1.56v.2c.77.06.94.16.94.52q0 .25-.12.73L.88-1.08c-.2.7-.3.77-.97.9V0h6.14l.7-2.14-.23-.08c-.43.88-.75 1.25-1.29 1.52-.42.2-.92.26-1.98.26-.9 0-1.2-.1-1.2-.4 0-.1.04-.35.1-.6l1.5-5.3c.18-.6.5-.82 1.23-.87Zm0 0"/>
  </defs>
  <path fill="none" stroke="#000" stroke-linejoin="round" stroke-miterlimit="10" stroke-width="1.8" d="M70.5 24.9h145.2v7.2H70.5Zm0 0" transform="matrix(.99584 0 0 -.98623 79.93 69.92)"/>
  <path fill="#f2f2f2" fill-rule="evenodd" stroke="#000" stroke-linejoin="round" stroke-miterlimit="10" stroke-width="1.8" d="M1.5 30.1a11 11 0 0 0 11 11h48.8a11 11 0 0 0 11-11v-4.4a11 11 0 0 0-11-11H12.5a11 11 0 0 0-11 11Zm0 0" transform="matrix(.99584 0 0 -.98623 79.93 69.92)"/>
  <path fill="#fff" fill-rule="evenodd" d="M144.46 44.47H302.2v-5.33H144.46Zm0 0"/>
  <path fill="#1e1c11" fill-rule="evenodd" d="M151.63 41.8a2.69 2.69 0 0 1 5.38.01c0 1.47-1.2 2.66-2.69 2.66a2.7 2.7 0 0 1-2.7-2.66m0 0"/>
  <path fill="none" stroke="#000" stroke-linejoin="round" stroke-miterlimit="10" stroke-width=".6" d="m71.7 32.1-6-4.03" transform="matrix(.99584 0 0 -.98623 79.93 69.92)"/>
  <use xlink:href="#a" x="97.31" y="46.42"/>
  <use xlink:href="#b" x="104.48" y="48.81"/>
  <use xlink:href="#c" x="108.69" y="46.42"/>
  <use xlink:href="#d" x="114.06" y="46.42"/>
  <use xlink:href="#b" x="120.06" y="48.81"/>
  <use xlink:href="#e" x="154.42" y="34.07"/>
  <use xlink:href="#f" x="299.56" y="44.23"/>
  <use xlink:href="#g" x="222.51" y="63.33"/>
  <path d="1353.68 50.98h142.29v.6H353.68Zm3.84 3.02-4.4-2.72 4.4-2.72a.3.3 0 0 1 .4.1c.1.13.05.31-.09.4l-3.99 2.47v-.5l4 2.46a.3.3 0 0 1 .09.41.3.3 0 0 1-.41.1m134.61-5.44 4.4 2.72-4.4 2.72c-.14.08-.33.04-.4-.1a.3.3 0 0 1 .09-.4l3.99-2.47v.5l-4-2.47a.3.3 0 0 1-.08-.4c.07-.15.26-.19.4-.1m0 0"/>
  <use xlink:href="#d" x="115.28" y="23.32"/>
  <use xlink:href="#h" x="121.26" y="25.71"/>
</svg>
