<svg xmlns="http://www.w3.org/2000/svg" xmlns:xlink="http://www.w3.org/1999/xlink" width="250" height="120" viewBox="0 0 250 120">
  <defs>
    <path id="a" d="M6.4-1.3A6 6 0 0 1 4.88-.2q-.75.34-1.71.34-1.29 0-2.05-.6A2 2 0 0 1 .34-2.1q0-.88.63-1.53a3.5 3.5 0 0 1 1.94-.93q-1.25-.49-1.25-1.6 0-.9.86-1.55a3.3 3.3 0 0 1 2.07-.66q.88 0 1.27.34t.39.63q0 .18-.3.55-.28.36-.42.36-.15 0-.22-.44-.17-1-.81-1-.51 0-.9.56-.41.55-.41 1.25 0 1.14 1.1 1.14.18 0 .24.02.08 0 .08.1 0 .22-.1.5-.09.26-.21.26L4-4.13l-.44-.03q-.62 0-1.08.52-.43.5-.43 1.22A1.75 1.75 0 0 0 3.89-.61q.66 0 1.31-.34.66-.36 1.2-1.02Zm0 0"/>
    <path id="b" d="M8.69-7.84H6.02v.18l.32.04q.22.02.33.09.08.03.08.14c0 .3-.66.94-1.73 1.69L3.19-4.44l.64-2.33c.17-.59.5-.84 1.22-.89v-.18h-3.3v.18c.77.08.94.18.94.52q0 .27-.14.75L1.08-1.08c-.22.72-.28.78-1 .9V0h2.98v-.19c-.75-.1-.86-.15-.86-.53 0-.14.02-.22.1-.47l.08-.25.73-2.75 1.47 2.5c.28.5.45.92.45 1.14 0 .2-.17.28-.56.32-.05 0-.19.01-.34.04V0h3.3v-.19c-.76-.08-.82-.1-1.16-.67L4.17-4.5l3.61-2.72c.34-.25.61-.39.9-.44Zm0 0"/>
    <path id="c" d="M4.84-7.84H1.56v.18c.77.08.92.18.92.52q0 .27-.12.75L.88-1.08c-.22.69-.3.77-.97.9V0h6.12l.69-2.16-.24-.06C6.06-1.36 5.73-.97 5.2-.7c-.42.2-.9.26-1.97.26-.9 0-1.2-.1-1.2-.4 0-.1.05-.35.13-.6l1.48-5.33c.17-.6.48-.84 1.2-.89Zm0 0"/>
    <path id="d" d="m7.84-5.6.46-2.38h-.27c-.1.2-.2.26-.45.26-.11 0-.24-.01-.49-.08A6 6 0 0 0 5.67-8C3.11-8 .8-5.6.8-2.92.8-1.08 2.1.22 3.94.22c1.23 0 2.2-.52 3.28-1.8l-.2-.17C5.94-.69 5.23-.33 4.25-.33c-1.34 0-2.1-.89-2.1-2.45 0-1.44.57-2.9 1.5-3.86.58-.6 1.35-.92 2.13-.92q1.66 0 1.84 1.93Zm0 0"/>
    <path id="h" d="M1.56-7.66c.77.08.92.18.92.5 0 .18-.04.47-.12.77L.88-1.08c-.22.69-.3.77-.97.9V0h3.04c1.4 0 2.7-.37 3.61-1.05A4.4 4.4 0 0 0 8.42-4.6c0-1.97-1.37-3.23-3.51-3.23H1.56Zm2.2.52c.08-.27.26-.34.74-.34.69 0 1.28.15 1.67.43.6.42.92 1.2.92 2.13 0 1.33-.51 2.65-1.32 3.48A4 4 0 0 1 2.83-.36c-.55 0-.78-.14-.78-.45 0-.16.06-.4.26-1.14Zm0 0"/>
  </defs>
  <g clip-path="url(#f)">
    <path fill="#fff" fill-rule="evenodd" d="M77.1 90.12h152.97V31.64H377.1Zm0 0"/>
  </g>
  <g clip-path="url(#g)">
    <path fill="none" stroke="#000" stroke-linejoin="round" stroke-miterlimit="10" stroke-width=".6" d="M.9 26.7h153.6v58.8H.9Zm0 0" transform="matrix(.99593 0 0 -.99448 76.2 116.67)"/>
  </g>
  <path fill="#fff" fill-rule="evenodd" d="M173.6 101.76h13.75V77.89H173.6ZM119.82 40.9h9.56V21.8h-9.56Zm0 0"/>
  <path fill="none" stroke="#000" stroke-linejoin="round" stroke-miterlimit="10" stroke-width=".6" d="M53.7 95.1V75.9m-9.6 19.2V75.9" transform="matrix(.99593 0 0 -.99448 76.2 116.67)"/>
  <path fill="#fff" fill-rule="evenodd" d="M159.86 57.6h28.68V5.1h-28.68Zm0 0"/>
  <path fill="none" stroke="#000" stroke-linejoin="round" stroke-miterlimit="10" stroke-width=".6" d="M83.7 84.54c1.06 3.46 2.11 6.92 3.17 6.94 1.05.01 2.9-4.73 3.17-6.83.26-2.1-1-5.76-1.59-5.76-.58 0-1.24 2.88-1.9 5.76" transform="matrix(.99593 0 0 -.99448 76.2 116.67)"/>
  <path fill="none" stroke="#000" stroke-linejoin="round" stroke-miterlimit="10" stroke-width=".6" d="M86.1 84.54c1.15 3.46 2.3 6.92 3.45 6.94 1.16.01 3.17-4.73 3.46-6.83s-1.09-5.76-1.73-5.76-1.35 2.88-2.07 5.76" transform="matrix(.99593 0 0 -.99448 76.2 116.67)"/>
  <path fill="none" stroke="#000" stroke-linejoin="round" stroke-miterlimit="10" stroke-width=".6" d="M89.7 84.54c1.05 3.46 2.11 6.92 3.17 6.94 1.05.01 2.9-4.73 3.16-6.83s-1-5.76-1.58-5.76-1.24 2.88-1.9 5.76" transform="matrix(.99593 0 0 -.99448 76.2 116.67)"/>
  <path fill="none" stroke="#000" stroke-linejoin="round" stroke-miterlimit="10" stroke-width=".6" d="M92.7 84.54c1.06 3.46 2.11 6.92 3.17 6.94 1.05.01 2.9-4.73 3.16-6.83s-1-5.76-1.58-5.76-1.24 2.88-1.9 5.76" transform="matrix(.99593 0 0 -.99448 76.2 116.67)"/>
  <path fill="none" stroke="#000" stroke-linejoin="round" stroke-miterlimit="10" stroke-width=".6" d="M95.7 84.54c1.06 3.46 2.11 6.92 3.17 6.94 1.06.01 2.9-4.73 3.17-6.83.26-2.1-1-5.76-1.59-5.76-.58 0-1.24 2.88-1.9 5.76" transform="matrix(.99593 0 0 -.99448 76.2 116.67)"/>
  <path fill="none" stroke="#000" stroke-linejoin="round" stroke-miterlimit="10" stroke-width=".6" d="M98.7 84.54c1.06 3.46 2.11 6.92 3.17 6.94 1.05.01 2.9-4.73 3.17-6.83.26-2.1-1-5.76-1.59-5.76-.58 0-1.24 2.88-1.9 5.76" transform="matrix(.99593 0 0 -.99448 76.2 116.67)"/>
  <path fill="none" stroke="#000" stroke-linejoin="round" stroke-miterlimit="10" stroke-width=".6" d="M101.7 84.54c1.06 3.46 2.1 6.92 3.17 6.94 1.05.01 2.9-4.73 3.17-6.83.26-2.1-1.01-5.76-1.59-5.76s-1.24 2.88-1.9 5.76" transform="matrix(.99593 0 0 -.99448 76.2 116.67)"/>
  <path fill="none" stroke="#000" stroke-linejoin="round" stroke-miterlimit="10" stroke-width=".6" d="M104.7 84.54c1.06 3.46 2.1 6.92 3.17 6.94 1.05.01 2.9-4.73 3.17-6.83.26-2.1-1.01-5.76-1.6-5.76-.57 0-1.23 2.88-1.89 5.76" transform="matrix(.99593 0 0 -.99448 76.2 116.67)"/>
  <path fill="none" stroke="#000" stroke-linejoin="round" stroke-miterlimit="10" stroke-width=".6" d="M107.7 84.4c.69 3.55 1.38 7.1 2.21 7.07s2.34-5.98 2.77-7.18c.42-1.2-.23 0-.23 0h.34" transform="matrix(.99593 0 0 -.99448 76.2 116.67)"/>
  <path fill="#fff" fill-rule="evenodd" d="M132.97 104.74h7.17V74.91h-7.17Zm0 0"/>
  <path fill="none" stroke="#000" stroke-linejoin="round" stroke-miterlimit="10" stroke-width=".6" d="M64.5 41.7V11.44" transform="matrix(.99593 0 0 -.99448 76.2 116.67)"/>
  <path fill="none" stroke="#000" stroke-linejoin="round" stroke-miterlimit="10" stroke-width="1.8" d="M57.3 34.5V19.31" transform="matrix(.99593 0 0 -.99448 76.2 116.67)"/>
  <path fill="none" stroke="#000" stroke-linejoin="round" stroke-miterlimit="10" stroke-width=".6" d="m98.1 26.45 14.88 8.64" transform="matrix(.99593 0 0 -.99448 76.2 116.67)"/>
  <path fill="#fff" fill-rule="evenodd" stroke="#000" stroke-linejoin="round" stroke-miterlimit="10" stroke-width=".6" d="m11.7 35.1 16.2-8.71-16.2-8.7Zm0 0" transform="matrix(.99593 0 0 -.99448 76.2 116.67)"/>
  <path fill="none" stroke="#000" stroke-linejoin="round" stroke-miterlimit="10" stroke-width=".6" d="M27.9 35.1V17.45" transform="matrix(.99593 0 0 -.99448 76.2 116.67)"/>
  <use xlink:href="#a" x="128.98" y="110.09"/>
  <use xlink:href="#b" x="176.97" y="104.09"/>
  <use xlink:href="#c" x="172.78" y="53.1"/>
  <use xlink:href="#d" x="121.19" y="52.48"/>
  <use xlink:href="#h" x="91.19" y="110.09"/>
</svg>
