<svg xmlns="http://www.w3.org/2000/svg" xmlns:xlink="http://www.w3.org/1999/xlink" width="595.44" height="841.92" viewBox="0 0 595.44 841.92">
  <defs>
    <clipPath id="k">
      <path d="M473.74 380.93h5.98v11.91h-5.98Zm0 0"/>
    </clipPath>
    <clipPath id="m">
      <path d="M317.74 359.49h17.94v11.9h-17.94Zm0 0"/>
    </clipPath>
    <clipPath id="e">
      <path d="M0 0h123v122H0Zm0 0"/>
    </clipPath>
    <clipPath id="c">
      <path d="M0 0h123v122H0z"/>
    </clipPath>
    <clipPath id="o">
      <path d="M298.92 371.1h173.33v7.74H298.92Zm0 0"/>
    </clipPath>
    <clipPath id="i">
      <path d="M0 0h123v122H0Zm0 0"/>
    </clipPath>
    <clipPath id="g">
      <path d="M0 0h123v122H0z"/>
    </clipPath>
    <clipPath id="q">
      <path d="M298.02 370H473v10H298.02Zm0 0"/>
    </clipPath>
    <path id="r" d="m3.73-4.7.07.03a10 10 0 0 1 1.28-.83q.24-.1.45-.16.2-.04.4-.04.58 0 .85.28.29.27.24.83.59-.45.93-.66t.66-.33.66-.12q.4 0 .64.12a.7.7 0 0 1 .36.35q.11.23.09.59t-.22.97l-.75 2.2q-.14.45-.17.63v.25a.4.4 0 0 0 .1.17q.1.06.34.14l-.1.28H7.25l.1-.28.37-.13.22-.15q.09-.1.18-.28.12-.21.26-.6l.51-1.54a14 14 0 0 0 .34-1.33q.02-.2-.03-.32l-.12-.18a.4.4 0 0 0-.19-.14 1.3 1.3 0 0 0-.81.05q-.24.1-.55.32a2 2 0 0 0-.76.97l-.72 2.14q-.15.45-.17.63l-.02.25q.03.1.12.17.1.06.33.14l-.1.28h-2.3L4-.28l.38-.13.21-.15q.1-.1.2-.28.1-.21.24-.6l.52-1.54q.17-.52.25-.85t.08-.51a1 1 0 0 0-.05-.33.4.4 0 0 0-.14-.19l-.2-.1A1 1 0 0 0 5.2-5q-.23 0-.48.1-.25.13-.55.34-.28.2-.47.42t-.28.48l-.73 2.2a4 4 0 0 0-.17.79q0 .1.03.15.04.07.12.13.09.05.3.1l-.1.29H.58l.1-.28q.26-.08.36-.13t.2-.15a1 1 0 0 0 .2-.28q.12-.2.26-.61L2.55-4q.12-.37.17-.6a1 1 0 0 0 .03-.37.3.3 0 0 0-.14-.2 1 1 0 0 0-.36-.13l.1-.3 1.4-.06h.36Zm0 0"/>
    <path id="u" d="m3.7-4.69.02.02q.62-.46.95-.66.33-.18.61-.28a2 2 0 0 1 1.14-.01 1 1 0 0 1 .38.23q.14.15.17.39.04.22 0 .53-.05.32-.2.8l-.75 2.2q-.17.52-.2.7 0 .18.09.29.07.1.39.2L6.2 0H3.9l.08-.28.38-.13q.1-.06.2-.15a1 1 0 0 0 .2-.28q.12-.21.26-.6l.51-1.54q.25-.76.31-1.18t-.1-.62T5.16-5q-.22 0-.45.1a3 3 0 0 0-.55.3q-.3.2-.51.41-.19.22-.29.49l-.75 2.23-.15.58q-.03.15-.02.28.02.11.11.19.09.06.33.14L2.8 0H.48l.1-.28q.29-.08.41-.14a.8.8 0 0 0 .41-.45q.09-.2.22-.6l1.64-4.9.34-1.16q.01-.15-.03-.24a.3.3 0 0 0-.12-.14 1 1 0 0 0-.38-.1l.1-.32 1.43-.06h.36Zm0 0"/>
    <path id="v" d="m4.17-3.37 1.1-.97.3-.32q.11-.15.16-.3a.2.2 0 0 0-.01-.23q-.06-.09-.27-.12l.1-.3h1.92l-.1.3a2 2 0 0 0-.54.25q-.3.19-.77.6l-1.7 1.5.72 1.79q.17.39.33.6.15.2.36.29l-.1.28H3.31l.1-.28q.5-.06.6-.38l.04-.23-.07-.25-.45-1.19-1.28 1.17L2-.92a1 1 0 0 0-.14.25q-.05.16.03.26t.3.13l-.1.28H.14l.1-.28.4-.17q.2-.11.4-.28l.59-.49 1.73-1.51-.67-1.72q-.15-.35-.25-.5a1 1 0 0 0-.2-.24l-.2-.12.08-.3h2.3l-.1.3q-.49.06-.59.36l-.03.28q.01.13.1.28Zm0 0"/>
    <path id="s" d="m2.66-1 .01.34q.03.12.1.2.06.05.17.1l.3.06.48.02V0H.89v-.28q.42 0 .61-.05a1 1 0 0 0 .28-.1.3.3 0 0 0 .13-.18q.04-.12.04-.39v-3.08q0-.15-.04-.22-.05-.08-.16-.08-.13 0-.36.13l-.55.34-.17-.3 1.8-1.04h.2l-.01 1Zm0 0"/>
    <path id="t" d="M2.67-.6q.19 0 .3-.03l.19-.07.1-.14.12-.27h.32L3.62 0H.48v-.19Q.66-.58.94-1a9 9 0 0 1 .78-.98q.45-.48.64-.74a3 3 0 0 0 .47-.86 1.4 1.4 0 0 0-.05-.86 1 1 0 0 0-.28-.34 1 1 0 0 0-.47-.13q-.72 0-.97.8H.61v-.73a4 4 0 0 1 1.58-.41q.7 0 1.08.31.35.3.36.9 0 .2-.05.37-.04.18-.13.34-.07.15-.22.35l-.32.39-.61.64q-.72.76-1.07 1.34Zm0 0"/>
    <pattern id="n" width="123" height="122" x="0" y="0" patternTransform="matrix(.99518 0 0 -.9999 317.74 359.49)" patternUnits="userSpaceOnUse" viewBox="0 0 123 122">
      <use xlink:href="#a"/>
    </pattern>
    <pattern id="p" width="123" height="122" x="0" y="0" patternTransform="matrix(.99518 0 0 -.9999 298.92 371.1)" patternUnits="userSpaceOnUse" viewBox="0 0 123 122">
      <use xlink:href="#b"/>
    </pattern>
    <filter id="darkGrain">
        <feTurbulence type="fractalNoise" baseFrequency="0.01 0.4" numOctaves="3" stitchTiles="stitch" />
        <feColorMatrix values="0 0 0 0 0  0 0 0 0 0  0 0 0 0 0  0 0 0 0.6 0" />
    </filter>
    <g id="f">
    <rect width="100%" height="100%" fill="#7a4a2a" />
    <rect width="100%" height="100%" filter="url(#darkGrain)" opacity="0.5" />
    </g>
    <filter id="lightGrain">
        <feTurbulence type="fractalNoise" baseFrequency="0.015 0.3" numOctaves="2" stitchTiles="stitch" />
        <feColorMatrix values="0 0 0 0 0.3  0 0 0 0 0.2  0 0 0 0 0.1  0 0 0 0.4 0" />
    </filter>
    <g id="j">
    <rect width="100%" height="100%" fill="#c2956a" />
    <rect width="100%" height="100%" filter="url(#lightGrain)" opacity="0.3" />
    </g>
    <g id="a" clip-path="url(#c)">
      <g clip-path="url(#e)">
        <use xlink:href="#f" transform="matrix(.96094 0 0 -.95313 0 122)"/>
      </g>
    </g>
    <g id="b" clip-path="url(#g)">
      <g clip-path="url(#i)">
        <use xlink:href="#j" transform="matrix(.96094 0 0 -.95313 0 122)"/>
      </g>
    </g>
    <linearGradient id="l" x1="176.4" x2="182.4" y1="10.79" y2="10.79" gradientTransform="matrix(.99615 0 0 -.99274 298.02 397.6)" gradientUnits="userSpaceOnUse">
      <stop offset="0" stop-color="#272727"/>
      <stop offset=".01" stop-color="#272727"/>
      <stop offset=".01" stop-color="#272727"/>
      <stop offset=".02" stop-color="#282828"/>
      <stop offset=".02" stop-color="#282828"/>
      <stop offset=".02" stop-color="#292929"/>
      <stop offset=".03" stop-color="#292929"/>
      <stop offset=".03" stop-color="#2a2a2a"/>
      <stop offset=".04" stop-color="#2a2a2a"/>
      <stop offset=".04" stop-color="#2b2b2b"/>
      <stop offset=".04" stop-color="#2c2c2c"/>
      <stop offset=".05" stop-color="#2d2d2d"/>
      <stop offset=".05" stop-color="#2d2d2d"/>
      <stop offset=".06" stop-color="#2e2e2e"/>
      <stop offset=".06" stop-color="#2f2f2f"/>
      <stop offset=".07" stop-color="#303030"/>
      <stop offset=".07" stop-color="#303030"/>
      <stop offset=".07" stop-color="#313131"/>
      <stop offset=".08" stop-color="#323232"/>
      <stop offset=".08" stop-color="#333"/>
      <stop offset=".09" stop-color="#343434"/>
      <stop offset=".09" stop-color="#353535"/>
      <stop offset=".09" stop-color="#363636"/>
      <stop offset=".1" stop-color="#373737"/>
      <stop offset=".1" stop-color="#373737"/>
      <stop offset=".11" stop-color="#383838"/>
      <stop offset=".11" stop-color="#393939"/>
      <stop offset=".11" stop-color="#3a3a3a"/>
      <stop offset=".12" stop-color="#3b3b3b"/>
      <stop offset=".12" stop-color="#3c3c3c"/>
      <stop offset=".13" stop-color="#3d3d3d"/>
      <stop offset=".13" stop-color="#3e3e3e"/>
      <stop offset=".13" stop-color="#3f3f3f"/>
      <stop offset=".14" stop-color="#404040"/>
      <stop offset=".14" stop-color="#414141"/>
      <stop offset=".14" stop-color="#434343"/>
      <stop offset=".15" stop-color="#444"/>
      <stop offset=".15" stop-color="#454545"/>
      <stop offset=".16" stop-color="#464646"/>
      <stop offset=".16" stop-color="#474747"/>
      <stop offset=".16" stop-color="#484848"/>
      <stop offset=".17" stop-color="#494949"/>
      <stop offset=".17" stop-color="#4a4a4a"/>
      <stop offset=".18" stop-color="#4b4b4b"/>
      <stop offset=".18" stop-color="#4c4c4c"/>
      <stop offset=".18" stop-color="#4d4d4d"/>
      <stop offset=".19" stop-color="#4e4e4e"/>
      <stop offset=".19" stop-color="#505050"/>
      <stop offset=".2" stop-color="#515151"/>
      <stop offset=".2" stop-color="#525252"/>
      <stop offset=".2" stop-color="#535353"/>
      <stop offset=".21" stop-color="#545454"/>
      <stop offset=".21" stop-color="#555"/>
      <stop offset=".21" stop-color="#565656"/>
      <stop offset=".22" stop-color="#575757"/>
      <stop offset=".22" stop-color="#585858"/>
      <stop offset=".23" stop-color="#595959"/>
      <stop offset=".23" stop-color="#5a5a5a"/>
      <stop offset=".23" stop-color="#5b5b5b"/>
      <stop offset=".24" stop-color="#5c5c5c"/>
      <stop offset=".24" stop-color="#5d5d5d"/>
      <stop offset=".25" stop-color="#5e5e5e"/>
      <stop offset=".25" stop-color="#5f5f5f"/>
      <stop offset=".25" stop-color="#606060"/>
      <stop offset=".26" stop-color="#616161"/>
      <stop offset=".26" stop-color="#626262"/>
      <stop offset=".27" stop-color="#636363"/>
      <stop offset=".27" stop-color="#646464"/>
      <stop offset=".27" stop-color="#656565"/>
      <stop offset=".28" stop-color="#666"/>
      <stop offset=".28" stop-color="#676767"/>
      <stop offset=".29" stop-color="#686868"/>
      <stop offset=".29" stop-color="#696969"/>
      <stop offset=".29" stop-color="#6a6a6a"/>
      <stop offset=".3" stop-color="#6a6a6a"/>
      <stop offset=".3" stop-color="#6b6b6b"/>
      <stop offset=".3" stop-color="#6c6c6c"/>
      <stop offset=".31" stop-color="#6d6d6d"/>
      <stop offset=".31" stop-color="#6d6d6d"/>
      <stop offset=".32" stop-color="#6e6e6e"/>
      <stop offset=".32" stop-color="#6f6f6f"/>
      <stop offset=".32" stop-color="#6f6f6f"/>
      <stop offset=".33" stop-color="#707070"/>
      <stop offset=".33" stop-color="#707070"/>
      <stop offset=".34" stop-color="#717171"/>
      <stop offset=".34" stop-color="#727272"/>
      <stop offset=".34" stop-color="#737373"/>
      <stop offset=".35" stop-color="#737373"/>
      <stop offset=".35" stop-color="#747474"/>
      <stop offset=".36" stop-color="#747474"/>
      <stop offset=".36" stop-color="#757575"/>
      <stop offset=".36" stop-color="#757575"/>
      <stop offset=".37" stop-color="#767676"/>
      <stop offset=".37" stop-color="#767676"/>
      <stop offset=".38" stop-color="#777"/>
      <stop offset=".38" stop-color="#777"/>
      <stop offset=".38" stop-color="#787878"/>
      <stop offset=".39" stop-color="#787878"/>
      <stop offset=".39" stop-color="#797979"/>
      <stop offset=".4" stop-color="#797979"/>
      <stop offset=".4" stop-color="#797979"/>
      <stop offset=".41" stop-color="#7a7a7a"/>
      <stop offset=".41" stop-color="#7a7a7a"/>
      <stop offset=".41" stop-color="#7b7b7b"/>
      <stop offset=".42" stop-color="#7b7b7b"/>
      <stop offset=".43" stop-color="#7b7b7b"/>
      <stop offset=".43" stop-color="#7c7c7c"/>
      <stop offset=".44" stop-color="#7c7c7c"/>
      <stop offset=".44" stop-color="#7c7c7c"/>
      <stop offset=".45" stop-color="#7d7d7d"/>
      <stop offset=".45" stop-color="#7d7d7d"/>
      <stop offset=".46" stop-color="#7d7d7d"/>
      <stop offset=".47" stop-color="#7e7e7e"/>
      <stop offset=".48" stop-color="#7e7e7e"/>
      <stop offset=".48" stop-color="#7e7e7e"/>
      <stop offset=".48" stop-color="#7f7f7f"/>
      <stop offset=".5" stop-color="#7f7f7f"/>
      <stop offset=".52" stop-color="#7f7f7f"/>
      <stop offset=".52" stop-color="#7e7e7e"/>
      <stop offset=".52" stop-color="#7e7e7e"/>
      <stop offset=".53" stop-color="#7e7e7e"/>
      <stop offset=".54" stop-color="#7e7e7e"/>
      <stop offset=".54" stop-color="#7d7d7d"/>
      <stop offset=".55" stop-color="#7d7d7d"/>
      <stop offset=".56" stop-color="#7d7d7d"/>
      <stop offset=".58" stop-color="#7c7c7c"/>
      <stop offset=".59" stop-color="#7b7b7b"/>
      <stop offset=".59" stop-color="#7a7a7a"/>
      <stop offset=".59" stop-color="#7a7a7a"/>
      <stop offset=".6" stop-color="#7a7a7a"/>
      <stop offset=".61" stop-color="#797979"/>
      <stop offset=".61" stop-color="#787878"/>
      <stop offset=".62" stop-color="#787878"/>
      <stop offset=".62" stop-color="#777"/>
      <stop offset=".63" stop-color="#777"/>
      <stop offset=".63" stop-color="#767676"/>
      <stop offset=".63" stop-color="#767676"/>
      <stop offset=".64" stop-color="#757575"/>
      <stop offset=".64" stop-color="#757575"/>
      <stop offset=".64" stop-color="#747474"/>
      <stop offset=".65" stop-color="#747474"/>
      <stop offset=".65" stop-color="#737373"/>
      <stop offset=".66" stop-color="#737373"/>
      <stop offset=".66" stop-color="#727272"/>
      <stop offset=".66" stop-color="#717171"/>
      <stop offset=".67" stop-color="#717171"/>
      <stop offset=".67" stop-color="#707070"/>
      <stop offset=".68" stop-color="#6f6f6f"/>
      <stop offset=".68" stop-color="#6f6f6f"/>
      <stop offset=".68" stop-color="#6e6e6e"/>
      <stop offset=".69" stop-color="#6e6e6e"/>
      <stop offset=".69" stop-color="#6d6d6d"/>
      <stop offset=".7" stop-color="#6c6c6c"/>
      <stop offset=".7" stop-color="#6b6b6b"/>
      <stop offset=".7" stop-color="#6b6b6b"/>
      <stop offset=".71" stop-color="#6a6a6a"/>
      <stop offset=".71" stop-color="#696969"/>
      <stop offset=".71" stop-color="#686868"/>
      <stop offset=".72" stop-color="#676767"/>
      <stop offset=".72" stop-color="#666"/>
      <stop offset=".73" stop-color="#666"/>
      <stop offset=".73" stop-color="#656565"/>
      <stop offset=".73" stop-color="#646464"/>
      <stop offset=".74" stop-color="#636363"/>
      <stop offset=".74" stop-color="#626262"/>
      <stop offset=".75" stop-color="#616161"/>
      <stop offset=".75" stop-color="#606060"/>
      <stop offset=".75" stop-color="#5f5f5f"/>
      <stop offset=".76" stop-color="#5e5e5e"/>
      <stop offset=".76" stop-color="#5d5d5d"/>
      <stop offset=".77" stop-color="#5c5c5c"/>
      <stop offset=".77" stop-color="#5b5b5b"/>
      <stop offset=".77" stop-color="#5a5a5a"/>
      <stop offset=".78" stop-color="#585858"/>
      <stop offset=".78" stop-color="#575757"/>
      <stop offset=".79" stop-color="#565656"/>
      <stop offset=".79" stop-color="#555"/>
      <stop offset=".79" stop-color="#545454"/>
      <stop offset=".8" stop-color="#535353"/>
      <stop offset=".8" stop-color="#525252"/>
      <stop offset=".8" stop-color="#515151"/>
      <stop offset=".81" stop-color="#505050"/>
      <stop offset=".81" stop-color="#4f4f4f"/>
      <stop offset=".82" stop-color="#4e4e4e"/>
      <stop offset=".82" stop-color="#4d4d4d"/>
      <stop offset=".82" stop-color="#4b4b4b"/>
      <stop offset=".83" stop-color="#4a4a4a"/>
      <stop offset=".83" stop-color="#494949"/>
      <stop offset=".84" stop-color="#484848"/>
      <stop offset=".84" stop-color="#474747"/>
      <stop offset=".84" stop-color="#464646"/>
      <stop offset=".85" stop-color="#454545"/>
      <stop offset=".85" stop-color="#444"/>
      <stop offset=".86" stop-color="#434343"/>
      <stop offset=".86" stop-color="#424242"/>
      <stop offset=".86" stop-color="#404040"/>
      <stop offset=".87" stop-color="#3f3f3f"/>
      <stop offset=".87" stop-color="#3e3e3e"/>
      <stop offset=".88" stop-color="#3e3e3e"/>
      <stop offset=".88" stop-color="#3d3d3d"/>
      <stop offset=".88" stop-color="#3c3c3c"/>
      <stop offset=".89" stop-color="#3b3b3b"/>
      <stop offset=".89" stop-color="#3a3a3a"/>
      <stop offset=".89" stop-color="#393939"/>
      <stop offset=".9" stop-color="#383838"/>
      <stop offset=".9" stop-color="#373737"/>
      <stop offset=".91" stop-color="#363636"/>
      <stop offset=".91" stop-color="#353535"/>
      <stop offset=".91" stop-color="#343434"/>
      <stop offset=".92" stop-color="#333"/>
      <stop offset=".92" stop-color="#323232"/>
      <stop offset=".93" stop-color="#313131"/>
      <stop offset=".93" stop-color="#313131"/>
      <stop offset=".93" stop-color="#303030"/>
      <stop offset=".94" stop-color="#2f2f2f"/>
      <stop offset=".94" stop-color="#2e2e2e"/>
      <stop offset=".95" stop-color="#2d2d2d"/>
      <stop offset=".95" stop-color="#2d2d2d"/>
      <stop offset=".96" stop-color="#2c2c2c"/>
      <stop offset=".96" stop-color="#2b2b2b"/>
      <stop offset=".96" stop-color="#2a2a2a"/>
      <stop offset=".97" stop-color="#2a2a2a"/>
      <stop offset=".97" stop-color="#292929"/>
      <stop offset=".98" stop-color="#292929"/>
      <stop offset=".98" stop-color="#282828"/>
      <stop offset=".98" stop-color="#282828"/>
      <stop offset=".99" stop-color="#272727"/>
      <stop offset=".99" stop-color="#272727"/>
      <stop offset="1" stop-color="#272727"/>
    </linearGradient>
  </defs>
  <path fill="none" stroke="#000" stroke-linejoin="round" stroke-miterlimit="10" stroke-width=".6" d="M173.4 92.1 38.1 32.26" transform="matrix(.99615 0 0 -.99274 298.02 397.6)"/>
  <g clip-path="url(#k)">
    <path fill="url(#l)" d="M473.74 392.84v-11.91h5.98v11.91Zm0 0"/>
  </g>
  <path fill="none" stroke="#000" stroke-linejoin="round" stroke-miterlimit="10" stroke-width=".6" d="M178.5 88.5V16.2" transform="matrix(.99615 0 0 -.99274 298.02 397.6)"/>
  <g clip-path="url(#m)">
    <path fill="url(#n)" fill-rule="evenodd" d="M317.74 371.4h17.93v-11.92h-17.93Zm0 0"/>
  </g>
  <path fill="#7f7f7f" fill-rule="evenodd" stroke="#000" stroke-linejoin="round" stroke-miterlimit="10" stroke-width="1.8" d="M170.1 88.2a3.9 3.9 0 1 0 7.8-.01 3.9 3.9 0 0 0-7.8 0Zm0 0" transform="matrix(.99615 0 0 -.99274 298.02 397.6)"/>
  <path fill="none" stroke="#000" stroke-dasharray="2.4024 1.8018" stroke-linejoin="round" stroke-miterlimit="10" stroke-width=".6" d="M174.3 26.7v57.6" transform="matrix(.99615 0 0 -.99274 298.02 397.6)"/>
  <g clip-path="url(#o)">
    <path fill="url(#p)" fill-rule="evenodd" d="M298.92 378.84h173.33v-7.74H298.92Zm0 0"/>
  </g>
  <g clip-path="url(#q)">
    <path fill="none" stroke="#000" stroke-linejoin="round" stroke-miterlimit="10" stroke-width=".6" d="M.9 18.9h174v7.8H.9Zm0 0" transform="matrix(.99615 0 0 -.99274 298.02 397.6)"/>
  </g>
  <use xlink:href="#r" x="319.81" y="352.86"/>
  <use xlink:href="#s" x="330" y="355.24"/>
  <use xlink:href="#r" x="481.89" y="390.91"/>
  <use xlink:href="#t" x="492.07" y="393.29"/>
  <use xlink:href="#u" x="463.18" y="351.42"/>
  <use xlink:href="#v" x="392.7" y="369.17"/>
</svg>
