<svg xmlns="http://www.w3.org/2000/svg" xmlns:xlink="http://www.w3.org/1999/xlink" width="300" height="110" viewBox="0 0 300 110">
  <defs>
    <path id="l" d="m3.73-4.7.07.03a10 10 0 0 1 1.28-.83q.24-.1.45-.16.2-.04.4-.04.58 0 .85.28.29.27.24.83.59-.45.93-.66t.66-.33.66-.12q.4 0 .64.12a.7.7 0 0 1 .36.35q.11.23.09.59t-.22.97l-.75 2.2q-.14.45-.17.63v.25a.4.4 0 0 0 .1.17q.1.06.34.14l-.1.28H7.25l.1-.28.37-.13.22-.15q.09-.1.18-.28.12-.21.26-.6l.51-1.54a14 14 0 0 0 .34-1.33q.02-.2-.03-.32l-.12-.18a.4.4 0 0 0-.19-.14 1.3 1.3 0 0 0-.81.05q-.24.1-.55.32a2 2 0 0 0-.76.97l-.72 2.14q-.15.45-.17.63l-.02.25q.03.1.12.17.1.06.33.14l-.1.28h-2.3L4-.28l.38-.13.21-.15q.1-.1.2-.28.1-.21.24-.6l.52-1.54q.17-.52.25-.85t.08-.51a1 1 0 0 0-.05-.33.4.4 0 0 0-.14-.19l-.2-.1A1 1 0 0 0 5.2-5q-.23 0-.48.1-.25.13-.55.34-.28.2-.47.42t-.28.48l-.73 2.2a4 4 0 0 0-.17.79q0 .1.03.15.04.07.12.13.09.05.3.1l-.1.29H.58l.1-.28q.26-.08.36-.13t.2-.15a1 1 0 0 0 .2-.28q.12-.2.26-.61L2.55-4q.12-.37.17-.6a1 1 0 0 0 .03-.37.3.3 0 0 0-.14-.2 1 1 0 0 0-.36-.13l.1-.3 1.4-.06h.36Zm0 0"/>
    <path id="r" d="m3.7-4.69.02.02q.62-.46.95-.66.33-.18.61-.28a2 2 0 0 1 1.14-.01 1 1 0 0 1 .38.23q.14.15.17.39.04.22 0 .53-.05.32-.2.8l-.75 2.2q-.17.52-.2.7 0 .18.09.29.07.1.39.2L6.2 0H3.9l.08-.28.38-.13q.1-.06.2-.15a1 1 0 0 0 .2-.28q.12-.21.26-.6l.51-1.54q.25-.76.31-1.18t-.1-.62T5.16-5q-.22 0-.45.1a3 3 0 0 0-.55.3q-.3.2-.51.41-.19.22-.29.49l-.75 2.23-.15.58q-.03.15-.02.28.02.11.11.19.09.06.33.14L2.8 0H.48l.1-.28q.29-.08.41-.14a.8.8 0 0 0 .41-.45q.09-.2.22-.6l1.64-4.9.34-1.16q.01-.15-.03-.24a.3.3 0 0 0-.12-.14 1 1 0 0 0-.38-.1l.1-.32 1.43-.06h.36Zm0 0"/>
    <path id="s" d="m4.17-3.37 1.1-.97.3-.32q.11-.15.16-.3a.2.2 0 0 0-.01-.23q-.06-.09-.27-.12l.1-.3h1.92l-.1.3a2 2 0 0 0-.54.25q-.3.19-.77.6l-1.7 1.5.72 1.79q.17.39.33.6.15.2.36.29l-.1.28H3.31l.1-.28q.5-.06.6-.38l.04-.23-.07-.25-.45-1.19-1.28 1.17L2-.92a1 1 0 0 0-.14.25q-.05.16.03.26t.3.13l-.1.28H.14l.1-.28.4-.17q.2-.11.4-.28l.59-.49 1.73-1.51-.67-1.72q-.15-.35-.25-.5a1 1 0 0 0-.2-.24l-.2-.12.08-.3h2.3l-.1.3q-.49.06-.59.36l-.03.28q.01.13.1.28Zm0 0"/>
    <path id="n" d="m2.66-1 .01.34q.03.12.1.2.06.05.17.1l.3.06.48.02V0H.89v-.28q.42 0 .61-.05a1 1 0 0 0 .28-.1.3.3 0 0 0 .13-.18q.04-.12.04-.39v-3.08q0-.15-.04-.22-.05-.08-.16-.08-.13 0-.36.13l-.55.34-.17-.3 1.8-1.04h.2l-.01 1Zm0 0"/>
    <path id="p" d="M2.67-.6q.19 0 .3-.03l.19-.07.1-.14.12-.27h.32L3.62 0H.48v-.19Q.66-.58.94-1a9 9 0 0 1 .78-.98q.45-.48.64-.74a3 3 0 0 0 .47-.86 1.4 1.4 0 0 0-.05-.86 1 1 0 0 0-.28-.34 1 1 0 0 0-.47-.13q-.72 0-.97.8H.61v-.73a4 4 0 0 1 1.58-.41q.7 0 1.08.31.35.3.36.9 0 .2-.05.37-.04.18-.13.34-.07.15-.22.35l-.32.39-.61.64q-.72.76-1.07 1.34Zm0 0"/>
    <pattern id="j" width="123" height="122" x="0" y="0" patternTransform="matrix(.99518 0 0 -.9999 317.74 59.49)" patternUnits="userSpaceOnUse" viewBox="0 0 123 122">
      <use xlink:href="#a"/>
    </pattern>
    <pattern id="k" width="123" height="122" x="0" y="0" patternTransform="matrix(.99518 0 0 -.9999 298.92 71.1)" patternUnits="userSpaceOnUse" viewBox="0 0 123 122">
      <use xlink:href="#b"/>
    </pattern>
    <filter id="f">
      <feTurbulence baseFrequency="0.01 0.4" numOctaves="3" stitchTiles="stitch" type="fractalNoise"/>
      <feColorMatrix values="0 0 0 0 0 0 0 0 0 0 0 0 0 0 0 0 0 0 0.6 0"/>
    </filter>
    <filter id="h">
      <feTurbulence baseFrequency="0.015 0.3" numOctaves="2" stitchTiles="stitch" type="fractalNoise"/>
      <feColorMatrix values="0 0 0 0 0.3 0 0 0 0 0.2 0 0 0 0 0.1 0 0 0 0.4 0"/>
    </filter>
    <use xlink:href="#c" id="a" transform="matrix(.96094 0 0 -.95313 0 122)"/>
    <use xlink:href="#d" id="b" transform="matrix(.96094 0 0 -.95313 0 122)"/>
    <g id="c">
      <rect width="100%" height="100%" fill="#7a4a2a"/>
      <rect width="100%" height="100%" filter="url(#f)" opacity=".5"/>
    </g>
    <g id="d">
      <rect width="100%" height="100%" fill="#c2956a"/>
      <rect width="100%" height="100%" filter="url(#h)" opacity=".3"/>
    </g>
    <linearGradient id="i" x1="176.4" x2="182.4" y1="10.79" y2="10.79" gradientTransform="matrix(.99615 0 0 -.99274 298.02 97.6)" gradientUnits="userSpaceOnUse">
      <stop offset="0" stop-color="#272727"/>
      <stop offset=".5" stop-color="#7f7f7f"/>
      <stop offset="1" stop-color="#272727"/>
    </linearGradient>
  </defs>
  <path fill="none" stroke="#000" stroke-linejoin="round" stroke-miterlimit="10" stroke-width=".6" d="M173.4 92.1 38.1 32.26" transform="matrix(.99615 0 0 -.99274 98.02 97.6)"/>
  <path fill="url(#i)" d="M273.74 92.84V80.93h5.98v11.91Zm0 0"/>
  <path fill="none" stroke="#000" stroke-linejoin="round" stroke-miterlimit="10" stroke-width=".6" d="M178.5 88.5V16.2" transform="matrix(.99615 0 0 -.99274 98.02 97.6)"/>
  <path fill="url(#j)" fill-rule="evenodd" d="M117.74 71.4h17.93V59.48h-17.93Zm0 0"/>
  <path fill="#7f7f7f" fill-rule="evenodd" stroke="#000" stroke-linejoin="round" stroke-miterlimit="10" stroke-width="1.8" d="M170.1 88.2a3.9 3.9 0 1 0 7.8-.01 3.9 3.9 0 0 0-7.8 0Zm0 0" transform="matrix(.99615 0 0 -.99274 98.02 97.6)"/>
  <path fill="none" stroke="#000" stroke-dasharray="2.4024 1.8018" stroke-linejoin="round" stroke-miterlimit="10" stroke-width=".6" d="M174.3 26.7v57.6" transform="matrix(.99615 0 0 -.99274 98.02 97.6)"/>
  <path fill="url(#k)" fill-rule="evenodd" d="M98.92 78.84h173.33V71.1H98.92Zm0 0"/>
  <path fill="none" stroke="#000" stroke-linejoin="round" stroke-miterlimit="10" stroke-width=".6" d="M.9 18.9h174v7.8H.9Zm0 0" transform="matrix(.99615 0 0 -.99274 98.02 97.6)"/>
  <use xlink:href="#l" x="119.81" y="52.86"/>
  <use xlink:href="#n" x="130" y="55.24"/>
  <use xlink:href="#l" x="281.89" y="90.91"/>
  <use xlink:href="#p" x="292.07" y="93.29"/>
  <use xlink:href="#r" x="263.18" y="51.42"/>
  <use xlink:href="#s" x="192.7" y="69.17"/>
</svg>
