<svg xmlns="http://www.w3.org/2000/svg" xmlns:xlink="http://www.w3.org/1999/xlink" width="595.44" height="841.92" viewBox="0 0 595.44 841.92">
  <defs>
    <path id="a" d="M6.1-.17c-.6-.06-.66-.14-.8-.92L4.27-7.22h-.29L.84-1.82C-.02-.36-.12-.26-.55-.16V0h2.02v-.17C.92-.23.83-.28.83-.55c0-.2.05-.3.22-.67l.62-1.22h2.4l.2 1.4.03.29c0 .42-.16.52-.85.58V0h2.66ZM1.9-2.83l1.63-2.81L4-2.83Zm0 0"/>
    <path id="e" d="M6.14-.17c-.47-.03-.69-.22-.89-.78L4.23-3.6c.85-.2 1.2-.35 1.6-.7q.54-.47.54-1.21c0-1-.8-1.55-2.24-1.55h-2.7v.17c.46.07.5.08.62.16q.15.09.15.3c0 .12-.06.39-.12.67L.73-.97c-.18.64-.26.7-.87.8V0H2.5v-.17c-.67-.1-.73-.13-.73-.52 0-.1.03-.2.12-.6l.61-2.26.7.05L4.55 0h1.6Zm-2.8-6.25c.07-.24.2-.3.55-.3q1.35 0 1.34 1.22 0 1.59-2.04 1.6c-.19 0-.28 0-.55-.05Zm0 0"/>
    <path id="h" d="M7.83-7.05h-2.4v.17l.29.04q.19.01.3.07.05.04.06.13c0 .26-.6.84-1.56 1.51L2.88-3.97l.57-2.1c.16-.54.46-.75 1.1-.8v-.17H1.58v.17c.69.07.84.16.84.47q0 .24-.12.66L.97-.97c-.2.64-.25.7-.9.8V0h2.7v-.17c-.7-.08-.79-.14-.79-.47 0-.13.02-.2.1-.42l.06-.24.67-2.45 1.32 2.23q.39.7.4 1.04 0 .23-.5.28l-.31.03V0H6.7v-.17c-.68-.06-.75-.1-1.04-.61l-1.9-3.27 3.26-2.43q.43-.34.8-.4Zm0 0"/>
    <path id="i" d="M-.1 0h3.07c1.7 0 2.87-.87 2.87-2.16 0-.8-.32-1.18-1.36-1.64.77-.17 1.08-.3 1.43-.6q.45-.4.46-1.07c0-1.01-.76-1.58-2.17-1.58H1.4v.17c.7.05.85.13.85.44 0 .17-.05.44-.12.69L.8-.97c-.2.63-.28.69-.9.8Zm2.68-3.58q1.05 0 1.37.14c.46.17.72.64.72 1.24 0 1.17-.8 1.87-2.12 1.87q-.7 0-.7-.45 0-.23.38-1.5c.15-.47.24-.8.35-1.3m.81-2.84c.06-.24.2-.3.63-.3.87 0 1.26.36 1.26 1.16q-.01.95-.73 1.36c-.36.2-.9.3-1.86.28Zm0 0"/>
    <path id="b" d="M7.63-7.31 7.09-5h-.18l-.02-.58q-.03-.31-.12-.56-.1-.24-.3-.42a1 1 0 0 0-.49-.28q-.28-.1-.64-.11-.94 0-1.65.51a5 5 0 0 0-1.84 3.86q0 1.05.6 1.67t1.6.61q.73 0 1.3-.32.57-.34 1.07-1h.25q-.6.92-1.3 1.35t-1.7.43Q2.8.16 2.11-.2q-.68-.36-1.03-1.02a3 3 0 0 1-.35-1.44q0-1.17.63-2.28a4.5 4.5 0 0 1 1.72-1.73 4.4 4.4 0 0 1 2.23-.64q.52 0 1.17.25.29.1.41.1.13.01.22-.04.1-.06.33-.31Zm0 0"/>
    <path id="c" d="m3.27-.23-.02.1q0 .05-.02.08l-.04.03q-.02.03-.05.02H.77Q.73 0 .7-.02L.67-.05.64-.12.62-.23q0-.06.02-.11L.7-.47l.07-.01h.93v-3.46l-.87.52-.11.06-.06-.02-.06-.06v-.24l.02-.08q0-.03.03-.04l.06-.05 1.05-.67.03-.02.06-.01h.06l.11-.02.14.02.1.01.03.03.01.05v3.99h.83l.05.01.04.05.02.08zm0 0"/>
    <path id="d" d="M3.25-.27q0 .07-.02.13l-.01.08-.05.04q-.02.03-.04.02H.6L.5-.02.46-.05.41-.12v-.25l.01-.1.05-.08.08-.1.87-.93q.31-.32.5-.58A3 3 0 0 0 2.34-3q.04-.17.04-.33T2.3-3.6l-.14-.23a.7.7 0 0 0-.54-.24q-.22 0-.4.06a2 2 0 0 0-.53.27l-.1.05H.54l-.03-.05-.04-.08v-.22l.02-.08.03-.04.05-.06q.05-.06.14-.11l.26-.13.35-.1q.19-.04.4-.04.33 0 .58.1t.4.26q.18.15.26.38.08.2.08.45a2 2 0 0 1-.2.89q-.13.25-.37.56t-.62.7l-.72.75h1.99l.04.02.05.05.01.08zm0 0"/>
    <path id="f" d="M.86 0h2v-.1c-.56 0-.69-.09-.69-.43v-4.33l-.06-.01-1.3.65v.11q.42-.15.52-.16.22 0 .22.33v3.27c-.02.45-.14.56-.7.56Zm0 0"/>
    <path id="g" d="m3.44-.98-.1-.04c-.26.41-.34.47-.68.47H.92L2.14-1.8c.66-.67.94-1.22.94-1.78 0-.72-.6-1.28-1.35-1.28-.4 0-.78.17-1.04.45-.24.25-.35.47-.47.98l.16.03c.3-.7.54-.93 1.04-.93.63 0 1.03.42 1.03 1.01 0 .58-.34 1.24-.93 1.88L.22-.1V0h2.83Zm0 0"/>
    <path id="j" d="M5.77-1.17Q5.1-.5 4.4-.2q-.69.32-1.57.32Q1.7.13 1-.43A1.8 1.8 0 0 1 .31-1.9q0-.78.56-1.38.59-.59 1.74-.82-1.13-.43-1.13-1.44 0-.8.79-1.4.78-.59 1.87-.59.78 0 1.14.32.36.31.36.56 0 .15-.26.5-.27.33-.4.33-.14 0-.2-.4-.14-.9-.72-.9-.45 0-.83.5-.36.5-.35 1.13 0 1.01 1 1.01.15 0 .21.02.07 0 .07.1 0 .2-.08.43t-.2.23a5 5 0 0 1-.68-.04q-.56 0-.97.45-.39.45-.39 1.1 0 .72.47 1.18t1.19.45q.6 0 1.19-.3.6-.34 1.08-.92Zm0 0"/>
  </defs>
  <path fill="none" stroke="#000" stroke-linejoin="round" stroke-miterlimit="10" stroke-width=".6" d="M115.5 63.28h57.6" transform="matrix(.99911 0 0 -.99443 349.42 212.28)"/>
  <use xlink:href="#a" x="427.1" y="163.45"/>
  <path fill="none" stroke="#000" stroke-linejoin="round" stroke-miterlimit="10" stroke-width=".6" d="M47.1 74.08v-19.8m7.2 19.8v-19.8m54.6 20.4v-19.8m6.6 19.8v-19.8" transform="matrix(.99911 0 0 -.99443 349.42 212.28)"/>
  <path fill="#fff" fill-rule="evenodd" stroke="#000" stroke-miterlimit="8" stroke-width=".6" d="M15.9 97.48h47.4v12.6H15.9Zm93 0h47.4v12.6h-47.4Zm0 0" transform="matrix(.99911 0 0 -.99443 349.42 212.28)"/>
  <path fill="none" stroke="#000" stroke-linejoin="round" stroke-miterlimit="8" stroke-width=".6" d="M53.1 63.28h56.4m-46.2 42h45.6m64.2-42v42m0 0h-16.8m-109.2-42H.9m0 0v42m0 0h15m66-42v11.4m0 30.6v-18m0-12.6 3.6 12M.9 63.28v-38.4m0 0h75m6 0h91.2m0 0v38.4" transform="matrix(.99911 0 0 -.99443 349.42 212.28)"/>
  <path fill="none" stroke="#000" stroke-linejoin="round" stroke-miterlimit="8" stroke-width="3" d="M75.9 20.08v9.6" transform="matrix(.99911 0 0 -.99443 349.42 212.28)"/>
  <path fill="none" stroke="#000" stroke-linejoin="round" stroke-miterlimit="8" stroke-width=".6" d="M81.9 33.88v-18.6" transform="matrix(.99911 0 0 -.99443 349.42 212.28)"/>
  <use xlink:href="#b" x="394.76" y="170.43"/>
  <use xlink:href="#c" x="401.97" y="172.82"/>
  <use xlink:href="#b" x="457.18" y="170.43"/>
  <use xlink:href="#d" x="464.39" y="172.82"/>
  <use xlink:href="#e" x="378.17" y="129.46"/>
  <use xlink:href="#f" x="384.79" y="131.87"/>
  <use xlink:href="#e" x="475.93" y="129.46"/>
  <use xlink:href="#g" x="482.53" y="131.87"/>
  <use xlink:href="#h" x="439.74" y="132.82"/>
  <use xlink:href="#i" x="427.1" y="102.49"/>
  <use xlink:href="#j" x="424.98" y="210.48"/>
</svg>
