<svg version="1.1" xmlns="http://www.w3.org/2000/svg" viewBox="0 0 261.5827431481519 284.3274510163135" width="261.5827431481519" height="284.3274510163135">
  <rect x="0" y="0" width="261.5827431481519" height="284.3274510163135" fill="#ffffff"/><g stroke-linecap="round"><g transform="translate(10.078433183184188 187.2647705078125) rotate(0 120.75 0.21478271484375)"><path d="M-0.08 0.05 C40.16 0.15, 201.25 0.51, 241.5 0.57 M0.15 -0.05 C40.36 0.01, 201.19 0.28, 241.39 0.38" stroke="#1e1e1e" stroke-width="4" fill="none"/></g></g><mask/><g stroke-linecap="round" transform="translate(82.82843318318419 121.0147705078125) rotate(0 39.796875 32.8125)"><path d="M16.41 0 C35.54 1.06, 52.21 0.87, 63.19 0 M16.41 0 C33.79 -1.18, 51.4 -0.53, 63.19 0 M63.19 0 C72.35 0.24, 81.5 4.89, 79.59 16.41 M63.19 0 C75.56 0.11, 78.1 4.95, 79.59 16.41 M79.59 16.41 C78.71 29.82, 77.53 41.79, 79.59 49.22 M79.59 16.41 C78.85 25.23, 79.69 34.97, 79.59 49.22 M79.59 49.22 C79.02 60.35, 73.69 65.89, 63.19 65.63 M79.59 49.22 C78.54 60.57, 72.75 65.2, 63.19 65.63 M63.19 65.63 C46.84 66.05, 32.29 65.72, 16.41 65.63 M63.19 65.63 C44.63 66.12, 26.37 64.78, 16.41 65.63 M16.41 65.63 C4.52 66.78, 1.42 58.93, 0 49.22 M16.41 65.63 C7.38 64.37, 1.72 60.21, 0 49.22 M0 49.22 C-0.37 42.59, 0.2 34.96, 0 16.41 M0 49.22 C0.5 37.47, -0.31 26.38, 0 16.41 M0 16.41 C-1.24 4.76, 6.84 1.1, 16.41 0 M0 16.41 C-1.54 5.87, 5.16 0.49, 16.41 0" stroke="#1e1e1e" stroke-width="4" fill="none"/></g><g stroke-linecap="round"><g transform="translate(124.35968318318419 148.93145751953125) rotate(0 0 40.83332824707031)"><path d="M0.13 0.11 C0.14 13.71, 0.18 68.06, 0.14 81.64 M0.02 0.03 C0.02 13.66, 0.07 68.2, 0.1 81.82" stroke="#1971c2" stroke-width="4" fill="none"/></g><g transform="translate(124.35968318318419 148.93145751953125) rotate(0 0 40.83332824707031)"><path d="M-10.2 53.64 C-6.39 63.76, -3.04 73.16, 0.1 81.82 M-10.2 53.64 C-7.56 60.96, -4.96 68.41, 0.1 81.82" stroke="#1971c2" stroke-width="4" fill="none"/></g><g transform="translate(124.35968318318419 148.93145751953125) rotate(0 0 40.83332824707031)"><path d="M10.32 53.61 C6.95 63.77, 3.12 73.18, 0.1 81.82 M10.32 53.61 C7.59 60.93, 4.83 68.4, 0.1 81.82" stroke="#1971c2" stroke-width="4" fill="none"/></g></g><mask/><g transform="translate(78.10930171345763 220.63827514648438) rotate(0 63.35430908203125 26.84458793491457)"><text x="0" y="0" font-family="Virgil, Segoe UI Emoji" font-size="42.951340695863315px" fill="#1971c2" text-anchor="start" style="white-space: pre;" direction="ltr" dominant-baseline="text-before-edge">G=-mg</text></g><g transform="translate(79.583026078692 10) rotate(0 51.41767883300781 26.84458793491457)"><text x="0" y="0" font-family="Virgil, Segoe UI Emoji" font-size="42.951340695863315px" fill="#f08c00" text-anchor="start" style="white-space: pre;" direction="ltr" dominant-baseline="text-before-edge">N=mg</text></g><g stroke-linecap="round"><g transform="translate(124.74089351033263 145.80645751953125) rotate(0 -0.2889341434833508 -39.68751525878906)"><path d="M0.06 -0.05 C-0.03 -13.28, -0.39 -66.15, -0.51 -79.38 M-0.09 -0.2 C-0.2 -13.42, -0.48 -66.02, -0.59 -79.2" stroke="#f08c00" stroke-width="4" fill="none"/></g><g transform="translate(124.74089351033263 145.80645751953125) rotate(0 -0.2889341434833508 -39.68751525878906)"><path d="M9.86 -51.07 C6.29 -60.26, 2.9 -69.8, -0.59 -79.2 M9.86 -51.07 C7 -58.79, 4.08 -66.86, -0.59 -79.2" stroke="#f08c00" stroke-width="4" fill="none"/></g><g transform="translate(124.74089351033263 145.80645751953125) rotate(0 -0.2889341434833508 -39.68751525878906)"><path d="M-10.66 -50.94 C-7.42 -60.18, -4 -69.77, -0.59 -79.2 M-10.66 -50.94 C-7.79 -58.71, -4.96 -66.82, -0.59 -79.2" stroke="#f08c00" stroke-width="4" fill="none"/></g></g><mask/></svg>