<svg xmlns="http://www.w3.org/2000/svg" xmlns:xlink="http://www.w3.org/1999/xlink" width="595.32" height="841.92" viewBox="0 0 595.32 841.92">
  <defs>
    <path id="b" d="m2.05-1.66 2.3-2.67q0-.44-.16-.62-.15-.17-.53-.2v-.2h2.48v.2q-.4 0-.53.09a1 1 0 0 0-.2.2q-.08.1-.08.75v2.84q0 .63.06.75.06.13.2.22t.55.08V0h-2.6v-.22q.49 0 .65-.17t.17-.88v-2.51L2.05-1.1q0 .5.14.68.12.2.56.2V0H.27v-.22q.52 0 .67-.19.15-.18.14-.86V-4.1q0-.62-.06-.73a1 1 0 0 0-.2-.2q-.14-.1-.55-.1v-.22h2.59v.22q-.4 0-.53.08a1 1 0 0 0-.2.2q-.08.1-.08.75Zm0 0"/>
    <path id="d" d="M1.5-1.14a.6.6 0 0 1 .45.2q.2.2.2.46t-.2.45a.66.66 0 0 1-.92 0 .6.6 0 0 1-.19-.45.64.64 0 0 1 .66-.66m0 0"/>
    <path id="c" d="m4.63-5.36.21 1.47h-.26q-.22-.74-.46-.9Q3.9-5 3.2-5H2.05v3.72q0 .63.06.75.06.13.2.22t.55.08V0H.19v-.22Q.74-.23.9-.39t.17-.88V-4.1q0-.56-.06-.72a.4.4 0 0 0-.24-.22q-.15-.07-.6-.1v-.2Zm0 0"/>
    <path id="f" d="M.64 2v-.27q.6-.2.94-.62.33-.4.33-.88a.4.4 0 0 0-.05-.18Q1.82 0 1.76 0L1.5.1l-.23.06A.7.7 0 0 1 .8 0Q.64-.17.64-.47t.22-.5.55-.2q.37 0 .67.34.3.33.31.9 0 .59-.42 1.1Q1.55 1.7.64 2m0 0"/>
    <path id="e" d="m1.4-7.16 1.93-.93h.2v6.68q0 .67.05.85.06.15.23.25.17.07.72.1V0H1.55v-.22q.56 0 .72-.1.16-.07.23-.21.06-.16.06-.88v-4.28q0-.86-.06-1.1-.03-.2-.14-.27a.4.4 0 0 0-.27-.1q-.21 0-.59.2Zm0 0"/>
    <path id="a" d="M6.45 0H3.03v-.22q.67-.01.9-.17.23-.17.24-.7-1.99 0-2.86-.83a2.8 2.8 0 0 1-.87-2.1q0-.91.51-1.57.53-.68 1.28-.93.77-.26 1.94-.26-.01-.49-.15-.64a1 1 0 0 0-.32-.22 3 3 0 0 0-.67-.08v-.22h3.42v.22q-.69.03-.9.22-.22.18-.25.72 1.26 0 1.98.28.73.29 1.24.92t.51 1.56q0 1.23-.86 2.08-.84.85-2.87.85 0 .51.23.68t.92.2ZM5.3-1.53q.86 0 1.37-.22.52-.24.85-.81.34-.6.34-1.46 0-.8-.34-1.36a2 2 0 0 0-.86-.76q-.51-.2-1.36-.2Zm-1.13 0v-4.81q-.9 0-1.4.21-.5.23-.82.75-.32.54-.32 1.36 0 .93.39 1.54.38.6.9.78.53.17 1.25.17m0 0"/>
    <path id="g" d="M5.98-8.33h.24a1.7 1.7 0 0 1-.97 1.2q-.31.12-1.03.16-.69.05-1.05.17a2 2 0 0 0-.72.42q-.34.33-.7 1-.34.68-.7 1.7 1.23-1.6 2.78-1.62.75 0 1.25.5.5.51.5 1.38 0 1.4-1.02 2.48A3.2 3.2 0 0 1 2.2.14Q1.35.14.87-.42A2 2 0 0 1 .43-1.8q0-1.15.58-2.65T2.2-6.7t1.2-.95q.6-.22 1.65-.28.5-.03.67-.1.15-.05.26-.3m-2.2 3.3q-.97 0-1.7 1.2-.74 1.2-.74 2.5 0 .63.32.92.33.29.73.28.92 0 1.58-1.3.67-1.32.67-2.63 0-.5-.25-.74a1 1 0 0 0-.6-.23m0 0"/>
    <path id="I" d="M1.77-4.7q-.56-.02-.94.36c-.4.39-.66 1.18-.66 2 0 .76.22 1.57.55 1.97q.4.46 1.01.46.54.01.91-.36c.4-.37.67-1.18.67-2.03 0-1.42-.64-2.4-1.54-2.4m-.02.18c.58 0 .9.79.9 2.24q0 2.19-.92 2.2-.9-.01-.9-2.2 0-2.22.92-2.24m0 0"/>
    <path id="h" d="M-4.58-4.02v2.13h3.42q.56 0 .7-.05.1-.06.18-.19.08-.12.08-.51H0v2.39h-.2q0-.48-.17-.6Q-.55-1-1.16-1h-2.62q-.58 0-.67.06l-.2.19q-.08.13-.08.5h-.2v-5.4h.2q0 .36.07.48t.2.2q.08.06.68.06h2.62q.56 0 .7-.06.1-.06.18-.19.08-.12.08-.5H0v2.4h-.2q0-.45-.16-.6-.17-.16-.8-.16Zm0 0"/>
    <path id="i" d="M-4.94-.84v-4.43h.2q0 .38.08.5t.2.2q.08.05.68.05h2.62q.56 0 .7-.04.1-.06.18-.19.08-.15.08-.52H0v2.57h-.2q0-.42-.03-.58a.4.4 0 0 0-.2-.25q-.18-.1-.73-.1h-3.42v1.65h2.08q1.18 0 1.66.1.46.12.7.43.24.3.23.7 0 .69-.57.69A.5.5 0 0 1-.8-.17a.4.4 0 0 1-.12-.3.5.5 0 0 1 .15-.34q.2-.2.2-.31 0-.25-.4-.36a6 6 0 0 0-1.42-.11h-1.1q-.84 0-1.01.12t-.23.63Zm0 0"/>
    <path id="j" d="M-4.94-.28v-3.2h.2q0 .53.07.65t.15.2.74.08h1v-.47q0-.89.15-1.35.15-.49.47-.74.33-.27.77-.26.63 0 1.01.51.39.5.38 1.69v2.26h-.2q0-.45-.16-.59-.17-.16-.8-.16h-3.42q0 .66.19.94.17.27.8.4v.26Zm4.52-2.27q.08-.3.08-.58 0-.61-.32-.92-.3-.3-.71-.3-.45 0-.74.33-.3.34-.31.91l.03.56Zm0 0"/>
    <path id="u" d="M-4.94-.27v-4.26l1.35-.22v.23q-.4.09-.63.24a.7.7 0 0 0-.28.34q-.08.2-.08.66v.42h3.42q.55 0 .7-.06t.2-.22.06-.69H0v2.69h-.2q0-.53-.16-.67-.15-.15-.8-.14h-3.42v.43q0 .46.06.63.06.18.27.33t.66.25v.25Zm0 0"/>
    <path id="v" d="M-2.73-1.9v-2.12h-1.05q-.47 0-.61.05a.4.4 0 0 0-.24.19q-.1.14-.1.51h-.2v-2.39h.2q0 .33.07.49.09.15.22.22.15.04.66.04h2.62q.48 0 .63-.03.15-.05.23-.2.1-.15.1-.52H0v2.4h-.2q0-.45-.16-.6-.17-.16-.8-.16h-1.22v2.13h1.22q.48 0 .63-.03.15-.05.23-.2.1-.16.1-.52H0v2.39h-.2q0-.48-.17-.6Q-.55-1-1.16-1h-2.62q-.47 0-.61.05a.4.4 0 0 0-.25.18q-.1.16-.1.52h-.2v-2.4h.2q0 .36.08.5t.22.21q.15.05.66.05Zm0 0"/>
    <path id="w" d="M-5.08-2.77q0-1.1.85-1.8.73-.57 1.67-.57.67 0 1.36.33a2.3 2.3 0 0 1 1.36 2.1q0 1.14-.9 1.79-.75.55-1.68.55-.68 0-1.35-.33a2.3 2.3 0 0 1-1.3-2.07m.35.18q0 .28.17.57.17.3.6.47.43.18 1.09.18 1.07 0 1.85-.43.8-.44.79-1.14 0-.51-.43-.84-.43-.35-1.48-.35-1.32 0-2.08.57-.51.37-.51.97m0 0"/>
    <path id="x" d="M-1.87-4.53a2.6 2.6 0 0 1 1.5.78A1.85 1.85 0 0 1-.55-1q-.7.63-1.92.63a2.6 2.6 0 0 1-1.87-.7 2.2 2.2 0 0 1-.74-1.66q0-.72.4-1.2.36-.45.79-.46.21 0 .33.14.12.13.12.36 0 .32-.2.47-.1.09-.42.12a.8.8 0 0 0-.5.22q-.15.19-.16.53 0 .54.4.86.53.45 1.4.44.87 0 1.56-.42.67-.45.67-1.19 0-.52-.36-.94-.25-.3-.9-.58Zm0 0"/>
    <path id="y" d="M1.02-4.94h4.36v.2q-.38 0-.5.08a1 1 0 0 0-.2.2q-.05.08-.05.68v2.45q0 .77.12.94.14.18.63.19v1.58h-.2Q5.13.92 4.93.59q-.2-.32-.55-.46A3 3 0 0 0 3.36 0H2.09q-.6 0-.93.1T.6.52q-.22.34-.27.85h-.2V-.2q.44-.02.8-.35.36-.34.64-1.3.28-.98.28-1.93 0-.92-.84-.95Zm1.18.36v.3q0 2.64-.95 3.94h1.83q.5 0 .58-.08t.07-.63v-3.53Zm0 0"/>
    <path id="z" d="M.28-4.94h3.2v.2q-.53 0-.65.07l-.2.15q-.08.1-.08.74v1h.47q.88 0 1.36.15t.73.47q.27.33.26.77 0 .63-.51 1.01-.5.39-1.69.38H.91v-.2q.45 0 .59-.16.16-.17.16-.8v-3.42q-.66 0-.94.19-.27.17-.4.8H.05ZM2.55-.42q.3.08.58.08.61 0 .92-.32.3-.3.3-.71 0-.45-.33-.74-.33-.3-.91-.31l-.56.03Zm0 0"/>
    <path id="A" d="M.84-4.94h4.43v.2q-.38 0-.5.08a1 1 0 0 0-.2.2q-.05.08-.05.68v2.62q0 .56.04.7.06.1.19.18.15.08.52.08V0H2.7v-.2q.42 0 .58-.03.16-.05.25-.2.1-.18.1-.73v-3.42H1.98v2.08q0 1.18-.1 1.66-.12.46-.43.7-.3.24-.7.23Q.06.1.06-.48q0-.19.11-.32a.4.4 0 0 1 .3-.12.5.5 0 0 1 .34.15q.2.2.31.2.25 0 .36-.4t.11-1.42v-1.1q0-.84-.12-1.01t-.63-.23Zm0 0"/>
    <path id="B" d="M.81-3.52q.6-1.55 2.08-1.56 1.03 0 1.69.78.66.77.65 1.75 0 1.02-.67 1.86-.65.85-1.78.85-1.16 0-1.76-.96t-.6-2.34A6 6 0 0 1 1.4-6.5a2 2 0 0 1 .8-.67q.45-.22 1.6-.22.8 0 1-.05a1 1 0 0 0 .32-.22h.22q-.2.54-.44.77-.25.23-.55.3-.27.08-1.03.09-.82.01-1.12.13-.31.09-.64.48-.33.38-.52 1-.18.63-.22 1.37m1.9-1.2q-.54 0-.88.45-.35.46-.35 1.41 0 1.3.46 1.97t1.08.67a1 1 0 0 0 .87-.47q.33-.46.33-1.5a3.5 3.5 0 0 0-.42-1.8q-.42-.73-1.08-.73m0 0"/>
    <path id="C" d="M2.77-5.08q1.1 0 1.8.85.57.73.57 1.67 0 .67-.33 1.36A2.3 2.3 0 0 1 2.71.16a2.1 2.1 0 0 1-1.79-.9 2.8 2.8 0 0 1-.55-1.68q0-.68.33-1.35a2.3 2.3 0 0 1 2.07-1.3m-.18.35q-.28 0-.57.17a1.3 1.3 0 0 0-.47.6q-.18.43-.18 1.09 0 1.07.43 1.85.44.8 1.14.79.51 0 .84-.43.35-.43.35-1.48 0-1.32-.57-2.08a1.2 1.2 0 0 0-.97-.51m0 0"/>
    <path id="D" d="M3.66-2.72v-1.06q0-.5-.05-.64a.4.4 0 0 0-.2-.24q-.16-.07-.49-.07v-.2h2.4v.2q-.4 0-.5.07a1 1 0 0 0-.2.2q-.06.08-.06.68v2.62q0 .52.05.68.05.14.2.21.17.07.5.07V0H2.8v-.2q.43-.02.56-.05.14-.05.22-.2.08-.18.08-.7v-1.2q-.8.4-1.66.4-.48 0-.75-.13-.28-.12-.34-.28-.07-.15-.07-.52v-.9q0-.46-.04-.63a.4.4 0 0 0-.2-.23 1 1 0 0 0-.44-.1v-.2h2.32v.2q-.36 0-.48.08a1 1 0 0 0-.2.2q-.07.08-.07.68v.6q0 .37.05.5a.5.5 0 0 0 .24.21q.18.08.53.08.6 0 1.1-.33m0 0"/>
    <path id="E" d="m1.9-1.52 2.12-2.46q-.03-.43-.16-.58-.15-.15-.5-.17v-.2h2.3v.2q-.37 0-.49.07a1 1 0 0 0-.2.2q-.06.08-.06.68v2.62q0 .56.06.7.06.1.19.18.12.08.5.08V0h-2.4v-.2q.45 0 .6-.16.16-.17.16-.8v-2.32L1.89-1q0 .45.13.63.12.17.51.17V0H.25v-.2q.48 0 .6-.17Q1-.55 1-1.16v-2.62q0-.58-.06-.67l-.19-.2q-.13-.08-.5-.08v-.2h2.4v.2q-.4 0-.5.07a1 1 0 0 0-.2.2q-.06.08-.06.68Zm0 0"/>
    <path id="F" d="M1.9-2.73h2.12v-1.05q0-.47-.05-.61a.4.4 0 0 0-.19-.24q-.14-.1-.51-.1v-.2h2.39v.2q-.33 0-.49.07a.4.4 0 0 0-.22.22q-.04.15-.04.66v2.62q0 .48.03.63.05.15.2.23.15.1.52.1V0h-2.4v-.2q.45 0 .6-.16.16-.17.16-.8v-1.22H1.89v1.22q0 .48.03.63.05.15.2.23.16.1.52.1V0H.25v-.2q.48 0 .6-.17Q1-.55 1-1.16v-2.62q0-.47-.05-.61a.4.4 0 0 0-.18-.25q-.16-.1-.52-.1v-.2h2.4v.2q-.35 0-.5.08a.5.5 0 0 0-.21.22q-.05.15-.05.66Zm0 0"/>
    <path id="G" d="M3.14-.72q-.77.6-.95.69-.3.15-.63.14-.5 0-.84-.34a1.3 1.3 0 0 1-.33-.94q0-.36.17-.63.22-.36.77-.68.54-.33 1.81-.79v-.2q0-.73-.23-1-.24-.28-.7-.28-.32 0-.52.19a.5.5 0 0 0-.2.42v.31q0 .24-.13.38t-.33.14a.4.4 0 0 1-.33-.14q-.12-.15-.12-.4 0-.45.47-.84.48-.39 1.34-.39.66 0 1.08.22.3.18.47.52.1.23.1.95v2.55q.04.16.1.21.06.06.14.05t.16-.05q.11-.05.43-.39v.3Q4.28.1 3.73.1a.5.5 0 0 1-.42-.17q-.16-.18-.16-.64m0-.34v-1.88q-.81.31-1.05.46-.42.23-.6.5a1 1 0 0 0-.2.56q0 .4.24.65a.7.7 0 0 0 .53.25q.4 0 1.08-.54m0 0"/>
    <path id="H" d="M1.4 2.36H.49A7 7 0 0 0 .68.48v-3.03q-.01-1.3.73-1.9A2.4 2.4 0 0 1 3-5.08q.96 0 1.54.66t.58 1.72q0 1.16-.72 2.01T2.77.16q-.63 0-1.2-.41v.7q0 1.13-.16 1.9m.16-3.86q0 .66.35 1 .33.34.89.34.62 0 1.04-.54.43-.56.43-1.44 0-1.12-.58-1.78t-1.3-.65q-.49 0-.68.31-.17.3-.17.97Zm0 0"/>
    <path id="K" d="M2.8-7.45c-.61 0-1.07.17-1.47.56C.69-6.27.27-5 .27-3.7c0 1.2.36 2.48.87 3.1.42.5.99.76 1.61.76q.86 0 1.44-.58c.64-.61 1.06-1.9 1.06-3.22 0-2.27-1-3.81-2.45-3.81m-.03.28c.93 0 1.42 1.25 1.42 3.55S3.7-.12 2.75-.12c-.94 0-1.42-1.2-1.42-3.49 0-2.34.48-3.56 1.44-3.56m0 0"/>
    <path id="J" d="M8.45-7.2H5.73v.17c.64.08.79.17.79.48q0 .24-.13.67l-.51 1.82H2.73l.6-2.14c.17-.57.45-.78 1.12-.83v-.17H1.44v.17c.69.08.84.16.84.48q0 .24-.12.67L.8-1c-.2.64-.28.72-.9.83V0h2.72v-.17c-.66-.1-.79-.17-.79-.49l.03-.25.74-2.68h3.14L5.03-1c-.17.58-.39.75-1.1.83V0h3v-.17c-.73-.08-.87-.16-.87-.49q0-.12.03-.25l1.47-5.3c.19-.63.27-.71.9-.82Zm0 0"/>
    <path id="M" d="M4.44-1.22c-.1.1-.14.16-.25.3-.25.33-.38.44-.52.44q-.22 0-.33-.46L3.3-1.1a14 14 0 0 1-.4-1.8c.5-.86.88-1.34 1.08-1.34a1 1 0 0 1 .27.1c.13.07.2.09.31.09.22 0 .38-.16.38-.4s-.19-.4-.46-.4c-.48 0-.9.4-1.67 1.58L2.7-3.9c-.16-.75-.27-.97-.56-.97-.27 0-.61.08-1.3.31L.7-4.5l.05.17c.44-.12.5-.12.63-.12.26 0 .32.1.48.75l.33 1.36-.9 1.3q-.37.5-.57.52a1 1 0 0 1-.28-.1Q.2-.72.08-.73a.4.4 0 0 0-.38.39c0 .28.2.47.55.47.34 0 .48-.11 1.03-.77.3-.36.53-.69.99-1.3L2.6-.62c.14.57.28.75.64.75.4 0 .7-.27 1.34-1.27Zm0 0"/>
    <path id="L" d="M2.8-.77c-.07.07-.1.1-.16.2-.16.2-.23.26-.33.26q-.14.01-.2-.28L2.08-.7c-.17-.7-.25-1.03-.25-1.13q.48-.83.69-.84.05 0 .15.04c.1.05.14.07.2.07q.23-.01.24-.25c0-.16-.13-.25-.28-.25-.31 0-.56.25-1.06.98l-.07-.37c-.1-.47-.18-.61-.37-.61-.16 0-.38.04-.81.2l-.08.02.03.1C.75-2.8.8-2.8.86-2.8c.17 0 .22.06.31.48l.2.86-.56.81q-.23.32-.36.33a.4.4 0 0 1-.18-.06.4.4 0 0 0-.22-.06q-.22.02-.24.23.01.3.35.3C.38.08.46.02.8-.41c.19-.22.33-.43.63-.8l.2.82c.1.36.19.47.4.47.27 0 .44-.17.85-.8Zm0 0"/>
  </defs>
  <use xlink:href="#a" x="464.57" y="603.54"/>
  <use xlink:href="#b" x="474.04" y="603.54"/>
  <use xlink:href="#c" x="480.5" y="603.54"/>
  <use xlink:href="#d" x="485.41" y="603.54"/>
  <use xlink:href="#e" x="491.41" y="603.54"/>
  <use xlink:href="#f" x="497.4" y="603.54"/>
  <use xlink:href="#g" x="503.4" y="603.54"/>
  <use xlink:href="#h" x="292.78" y="570.77"/>
  <use xlink:href="#i" x="292.78" y="564.87"/>
  <use xlink:href="#j" x="292.78" y="559.37"/>
  <use xlink:href="#u" x="292.78" y="553.64"/>
  <use xlink:href="#v" x="292.78" y="548.82"/>
  <use xlink:href="#w" x="292.78" y="542.98"/>
  <use xlink:href="#x" x="292.78" y="537.47"/>
  <use xlink:href="#u" x="292.78" y="532.57"/>
  <path d="m302.34 581.96 148.55.06v.75l-148.55-.06Zm147.55-2.57 5.99 3-6 3Zm0 0"/>
  <path d="m315.44 589.08.05-83.36h-.75l-.05 83.36Zm2.67-82.35-2.99-6-3 6Zm0 0"/>
  <path fill="none" stroke="#000" stroke-linejoin="round" stroke-miterlimit="10" stroke-width="1.25" d="m315.07 555.96 107.86-35.2"/>
  <path fill="none" stroke="#000" stroke-dasharray="2.99658 2.247435" stroke-linejoin="round" stroke-miterlimit="10" stroke-width=".75" d="M422.93 582.34v-61.58m-107.86 0 107.86.04"/>
  <use xlink:href="#y" x="343.12" y="609.53"/>
  <use xlink:href="#z" x="348.73" y="609.53"/>
  <use xlink:href="#A" x="354.5" y="609.53"/>
  <use xlink:href="#B" x="359.89" y="609.53"/>
  <use xlink:href="#C" x="365.5" y="609.53"/>
  <use xlink:href="#D" x="371.02" y="609.53"/>
  <use xlink:href="#E" x="376.56" y="609.53"/>
  <use xlink:href="#F" x="382.42" y="609.53"/>
  <use xlink:href="#G" x="388.32" y="609.53"/>
  <use xlink:href="#H" x="301.63" y="558.71"/>
  <use xlink:href="#I" x="307.14" y="559.67"/>
  <use xlink:href="#J" x="418.15" y="596.35"/>
  <use xlink:href="#H" x="302.82" y="525.03"/>
  <use xlink:href="#K" x="304.62" y="594.79"/>
  <use xlink:href="#H" x="302.82" y="540.61"/>
  <use xlink:href="#L" x="308.34" y="541.57"/>
  <use xlink:href="#M" x="361.22" y="594.79"/>
  <path fill="none" stroke="#000" stroke-dasharray="2.99658 2.247435" stroke-linejoin="round" stroke-miterlimit="10" stroke-width=".75" d="M360.66 582.34v-41.5m-46.44-.06h46.44"/>
</svg>
