<svg xmlns="http://www.w3.org/2000/svg" xmlns:xlink="http://www.w3.org/1999/xlink" width="595.32" height="841.92" viewBox="0 0 595.32 841.92">
  <defs>
    <path id="d" d="M6.1-1.16q-.9.67-1.7.97-.78.32-1.63.32-1.15 0-1.64-.55-.5-.57-.2-1.45.27-.79 1.02-1.36.75-.6 1.99-.83-.97-.42-.64-1.42a2.6 2.6 0 0 1 1.23-1.38q.97-.6 2.05-.6.78 0 1.03.32.24.32.17.56-.06.15-.44.49-.37.32-.48.32-.15 0-.08-.4.15-.9-.4-.9-.46.01-.99.5a3 3 0 0 0-.73 1.13q-.33 1 .65 1 .15 0 .2.03t.05.08q-.08.21-.23.46-.15.23-.28.23l-.25-.03-.4-.03q-.56 0-1.1.45-.53.45-.75 1.1-.25.7.08 1.15.3.45 1.03.45.57 0 1.26-.3.69-.32 1.36-.9Zm0 0"/>
    <path id="g" d="M6-6.08q0 .12-.05.28l-.1.25q-.05.1-.12.1-.08 0-.18-.1l-.27-.2q-.15-.13-.42-.22-.27-.1-.66-.1-.44 0-.8.18-.37.15-.67.44-.27.27-.5.65-.21.37-.35.77a5 5 0 0 0-.3 1.56q0 .42.1.75.12.32.3.56.2.23.49.35.3.1.65.1A2.4 2.4 0 0 0 4.33-1l.37-.2q.15-.1.23-.1.06 0 .08.05.03.04.03.1l-.01.09-.02.1q0 .08-.02.15l-.03.12q0 .05-.04.11l-.08.1-.24.15a4 4 0 0 1-1.67.4q-.53 0-.97-.15a2 2 0 0 1-.72-.47q-.3-.3-.46-.76T.6-2.4q0-.48.1-1.02a5 5 0 0 1 .8-1.95 4 4 0 0 1 1.63-1.3 3.3 3.3 0 0 1 1.83-.09 2 2 0 0 1 .92.45q.1.1.11.22m0 0"/>
    <path id="h" d="M6.03-6.62q0 .07-.06.15l-.17.19-2.82 2.73L4.77-.39l.06.14.01.1q0 .04-.03.09l-.06.04-.14.04A2 2 0 0 1 3.98 0l-.07-.06-.05-.08-1.84-3.38-.68 3.38-.04.08q-.02.03-.08.04l-.16.04a1 1 0 0 1-.42 0L.5-.02q-.04 0-.06-.04v-.08l1.3-6.48q0-.05.04-.08l.08-.05.14-.03a2 2 0 0 1 .42 0l.14.03q.04.02.06.05l.02.08-.6 3 2.96-3 .1-.08.1-.05.17-.03a2 2 0 0 1 .43 0l.14.05q.04 0 .06.04zm0 0"/>
    <path id="i" d="M5.56-5.34q0 .36-.1.68-.1.31-.32.6-.2.27-.51.48-.32.2-.72.35.27.09.45.42.17.3.26.83l.29 1.5.01.18.02.16-.03.08-.08.06-.17.02a2 2 0 0 1-.46 0l-.12-.04q-.05-.02-.06-.06l-.04-.1-.26-1.6-.13-.49a1 1 0 0 0-.21-.39 1 1 0 0 0-.35-.26q-.2-.1-.51-.1h-.6l-.58 2.9-.04.06q-.02.03-.08.04l-.16.04a1 1 0 0 1-.42 0L.52 0 .44-.06v-.06L1.7-6.4q.03-.2.16-.28.13-.1.28-.1h1.47q.48 0 .84.1.36.09.61.28.26.17.38.44t.12.6m-.98.14a1 1 0 0 0-.06-.33 1 1 0 0 0-.2-.27 1 1 0 0 0-.35-.15 2 2 0 0 0-.52-.07h-.93l-.46 2.29h.8q.47 0 .8-.13.33-.14.53-.34t.3-.46.09-.54m0 0"/>
    <path id="j" d="m3.23-.23-.01.1-.03.08-.05.03q-.02.03-.03.02H.75Q.72 0 .7-.02L.66-.05.62-.12v-.22L.7-.47l.06-.01h.94v-3.43l-.88.52-.1.05q-.04 0-.07-.02l-.03-.06v-.24q0-.04.02-.07 0-.03.03-.05l.04-.05 1.05-.65.03-.02.05-.02.08-.01H2l.13.01.1.02.04.03.02.03v3.96h.8l.06.01.04.05.02.08zm0 0"/>
    <path id="k" d="M3.22-.25q0 .07-.02.1l-.01.09-.05.04Q3.12.01 3.1 0H.6a.3.3 0 0 1-.15-.05L.4-.12.39-.28v-.1q0-.06.03-.1l.05-.08.06-.1.88-.91a5 5 0 0 0 .76-1.03 2 2 0 0 0 .17-.7q0-.15-.04-.29l-.14-.23a.7.7 0 0 0-.57-.24q-.2 0-.37.07-.18.06-.3.14l-.22.12q-.08.06-.12.06l-.05-.01-.03-.05-.02-.08v-.28l.04-.06.04-.06.42-.22a2 2 0 0 1 .74-.14q.32 0 .56.1.25.07.4.24.18.15.26.38.08.2.08.43a2 2 0 0 1-.2.91q-.14.24-.37.55-.23.3-.6.7l-.73.73h1.96l.06.02q.03.02.05.06l.01.08zm0 0"/>
    <clipPath id="a">
      <path d="M384.16 199H420v2h-35.84Zm0 0"/>
    </clipPath>
    <clipPath id="b">
      <path d="M384.16 199H386v75h-1.84Zm0 0"/>
    </clipPath>
    <clipPath id="c">
      <path d="M458 253h3v38.46h-3Zm0 0"/>
    </clipPath>
    <clipPath id="e">
      <path d="M384.16 231H406v2h-21.84Zm0 0"/>
    </clipPath>
    <clipPath id="f">
      <path d="M384.16 272H453v2h-68.84Zm0 0"/>
    </clipPath>
  </defs>
  <path d="M403.73 225.21h42.11v14.2h-42.11Zm1.78 13.31-.89-.88h40.33l-.9.88v-12.41l.9.88h-40.33l.9-.88Zm0 0"/>
  <g clip-path="url(#a)">
    <path fill="none" stroke="#000" stroke-linejoin="round" stroke-miterlimit="10" stroke-width="1.2" d="M1.2 93h34.2" transform="matrix(.98843 0 0 -.9858 384.16 291.46)"/>
  </g>
  <path fill="none" stroke="#000" stroke-linejoin="round" stroke-miterlimit="10" stroke-width="1.2" d="M45.6 92.4h24.6" transform="matrix(.98843 0 0 -.9858 384.16 291.46)"/>
  <g clip-path="url(#b)">
    <path fill="none" stroke="#000" stroke-linejoin="round" stroke-miterlimit="10" stroke-width="1.2" d="M1.2 18.6V93" transform="matrix(.98843 0 0 -.9858 384.16 291.46)"/>
  </g>
  <g clip-path="url(#c)">
    <path fill="none" stroke="#000" stroke-linejoin="round" stroke-miterlimit="10" stroke-width="1.2" d="M76.2 38.4V.6" transform="matrix(.98843 0 0 -.9858 384.16 291.46)"/>
  </g>
  <path fill="none" stroke="#000" stroke-linejoin="round" stroke-miterlimit="10" stroke-width="3" d="M70.5 26.1V10.5" transform="matrix(.98843 0 0 -.9858 384.16 291.46)"/>
  <use xlink:href="#d" x="446.58" y="258.49"/>
  <path fill="none" stroke="#000" stroke-linejoin="round" stroke-miterlimit="10" stroke-width="1.2" d="M70.2 60v32.4m-9.6-31.8h19.2" transform="matrix(.98843 0 0 -.9858 384.16 291.46)"/>
  <path d="M463.63 225.8h42.1V240h-42.1Zm1.78 13.32-.89-.89h40.33l-.89.89V226.7l.89.88h-40.33l.89-.88Zm0 0"/>
  <g clip-path="url(#e)">
    <path fill="none" stroke="#000" stroke-linejoin="round" stroke-miterlimit="10" stroke-width="1.2" d="M1.2 60H21" transform="matrix(.98843 0 0 -.9858 384.16 291.46)"/>
  </g>
  <g clip-path="url(#f)">
    <path fill="none" stroke="#000" stroke-linejoin="round" stroke-miterlimit="10" stroke-width="1.2" d="M1.2 18.6H69" transform="matrix(.98843 0 0 -.9858 384.16 291.46)"/>
  </g>
  <path fill="none" stroke="#000" stroke-linejoin="round" stroke-miterlimit="10" stroke-width="1.2" d="M76.8 19.2h22.8m42.6-.6.6 42.6m-21 0 21-.6" transform="matrix(.98843 0 0 -.9858 384.16 291.46)"/>
  <path fill="none" stroke="#000" stroke-linejoin="round" stroke-miterlimit="10" stroke-width="3" d="M35.7 108.9V76.5m10.2 32.4V76.5" transform="matrix(.98843 0 0 -.9858 384.16 291.46)"/>
  <use xlink:href="#g" x="435.78" y="192.58"/>
  <path fill="none" stroke="#000" stroke-linejoin="round" stroke-miterlimit="10" stroke-width="1.2" d="M123 19.2h19.2m-42.6 0 23.4 9" transform="matrix(.98843 0 0 -.9858 384.16 291.46)"/>
  <use xlink:href="#h" x="488.31" y="262.48"/>
  <use xlink:href="#i" x="422.41" y="248.6"/>
  <use xlink:href="#j" x="428.37" y="250.97"/>
  <use xlink:href="#i" x="480.78" y="220.07"/>
  <use xlink:href="#k" x="486.71" y="222.43"/>
</svg>
