<svg xmlns="http://www.w3.org/2000/svg" xmlns:xlink="http://www.w3.org/1999/xlink" width="595.32" height="841.92" viewBox="0 0 595.32 841.92">
  <defs>
    <path id="g" d="M2.3-1.7q-.1.34-.11.54l-.02.36q0 .26.13.38.14.1.45.14L2.67 0H.33L.4-.28a1 1 0 0 0 .32-.13 1 1 0 0 0 .2-.22q.07-.13.13-.34l.19-.78 1-4.52q.13-.58.13-.93 0-.3-.15-.38a1 1 0 0 0-.42-.14L1.87-8h2.35l-.06.28q-.24.05-.33.11l-.17.19q-.08.11-.16.36t-.2.81Zm0 0"/>
    <path id="f" d="M1.92-3.17q-.66.3-1.54.64l-.15-.49q.94-.3 1.82-.73l.36-1.66q.32-1.48.92-2.2t1.42-.73q.39 0 .64.17.26.15.38.44.1.28.1.62 0 .55-.25 1.14-.25.6-.87 1.19-.6.58-1.78 1.19l-.38 1.7q-.12.58-.12.86 0 .24.08.34.07.12.25.11.15 0 .3-.08t.3-.21l.32-.35.36-.5.4.31q-.4.57-.7.86t-.64.47-.72.17q-.45 0-.69-.26A1 1 0 0 1 1.5-.9q0-.45.16-1.14Zm1.17-.99q.97-.6 1.49-1.4.53-.81.53-1.7 0-.3-.11-.46a.4.4 0 0 0-.33-.17.7.7 0 0 0-.5.23 2 2 0 0 0-.39.68q-.18.45-.33 1.2Zm0 0"/>
    <path id="a" d="M1-1.83q0 .72.33 1.08.33.34 1.03.34.79 0 1.25-.43.45-.45.45-1.2 0-.37-.12-.63a2 2 0 0 0-.38-.53 6 6 0 0 0-.73-.58 5 5 0 0 1-.74-.56q-.28-.3-.45-.64-.16-.36-.16-.79 0-.7.33-1.21.33-.54.94-.82.61-.3 1.4-.3a6 6 0 0 1 2.02.33l-.33 1.5h-.56q-.01-.5-.16-.78a1 1 0 0 0-.35-.4 1.4 1.4 0 0 0-.64-.13q-.49 0-.86.2t-.57.55q-.18.33-.18.75 0 .45.23.78t.9.78q.55.4.85.7.3.33.45.68.14.34.14.81 0 .71-.34 1.28-.34.55-.97.85-.6.3-1.4.3Q1.83.1 1.2 0A7 7 0 0 1 .1-.22l.34-1.6Zm0 0"/>
    <path id="c" d="m1.66-.22-.61 2.75H.09l1.2-5.3q.18-.93.59-1.56t1-1q.6-.37 1.4-.37.56 0 1 .23t.66.67q.21.45.22 1.08 0 1-.4 1.9a3.4 3.4 0 0 1-1.09 1.4q-.69.51-1.54.51a4 4 0 0 1-1.47-.3M2.2-2.5l-.2.95-.03.2-.02.2q0 .37.3.57t.83.2q.6 0 1.06-.48t.72-1.34.26-1.72q0-.37-.07-.66a1 1 0 0 0-.3-.47 1 1 0 0 0-.62-.18q-.23 0-.43.07t-.42.29q-.23.19-.42.51-.21.31-.36.75T2.2-2.5m0 0"/>
    <path id="e" d="M3.1-2.4a1 1 0 0 0-.13-.32.4.4 0 0 0-.14-.12l-.27-.04h-.4L1.55 0h-1l1.5-6.7.1-.52q.04-.2.04-.34 0-.25-.16-.35Q1.88-8 1.5-8l.08-.32 1.47-.04h.34l-1.14 5.1h.19q.43 0 .98-.37.55-.39.88-.72T4.63-5q0-.28-.41-.31l.08-.3h1.89l.1.3q-.48.44-1.02.86L3.8-3.33l.58 2.11q.06.29.13.4.05.12.12.18.08.05.2.05.16 0 .36-.16.21-.17.49-.47l.33.33q-.54.55-.88.77-.35.21-.66.21a1 1 0 0 1-.64-.21 2 2 0 0 1-.37-.77Zm0 0"/>
    <path id="d" d="M1.44.5q-.12.14-.19.27a1 1 0 0 0-.14.55q0 .44.31.63.3.2.96.2.71 0 1.15-.32T4.28.8q.3-.72.61-2.2h-.08q-.58.78-1.06 1.13A1.7 1.7 0 0 1 2.7.1q-.64 0-1-.48a2.3 2.3 0 0 1-.34-1.38q0-.99.39-1.92.39-.91 1.08-1.47a2.5 2.5 0 0 1 2.26-.45q.33.08.66.3l.53-.4.38.1-.6 2.74-.3 1.43Q5.54-.2 5.39.31T5 1.23a2.6 2.6 0 0 1-1.42 1.22q-.5.17-1.19.17-2.22 0-2.22-1.3 0-.32.2-.59t.65-.56ZM3.13-.6q.29 0 .59-.21t.62-.64q.35-.45.54-.86.18-.4.3-1 .15-.6.15-1.05t-.2-.67q-.19-.2-.65-.2-.6 0-1.07.48t-.75 1.31a5 5 0 0 0-.27 1.63q0 .6.17.9.19.3.56.3m0 0"/>
    <path id="j" d="M2.77 0v-.2q.25-.05.34-.2.1-.11.1-.52v-2.7H1.6v2.7q0 .42.1.55.1.1.35.17V0H.44v-.2Q.72-.28.8-.42q.1-.15.1-.5v-2.14q0-.37-.1-.52-.1-.14-.36-.19v-.2h3.94v.2q-.27.06-.36.2-.1.14-.1.5v2.15q0 .36.08.5.1.15.38.22V0Zm0 0"/>
    <clipPath id="b">
      <path d="M76 649h7v9.83h-7Zm0 0"/>
    </clipPath>
    <clipPath id="h">
      <path d="M106 592h7v8.82h-7Zm0 0"/>
    </clipPath>
    <clipPath id="i">
      <path d="M113 596h5v4.82h-5Zm0 0"/>
    </clipPath>
  </defs>
  <path fill="#fff" fill-rule="evenodd" d="M67.77 682.86h136.05V581.98H67.77Zm0 0"/>
  <path fill="none" stroke="#000" stroke-linejoin="round" stroke-miterlimit="10" stroke-width="1.5" d="M198.52 610.24h-84.95m60.83 53.49H69.67"/>
  <use xlink:href="#a" x="78.77" y="676.57"/>
  <use xlink:href="#cd" x="85.37" y="676.57"/>
  <g clip-path="url(#b)">
    <use xlink:href="#c" x="76.02" y="655.59"/>
  </g>
  <use xlink:href="#Z" x="82.97" y="655.59"/>
  <path fill="none" stroke="#000" stroke-linecap="round" stroke-linejoin="round" stroke-miterlimit="10" stroke-width=".75" d="M106.98 604.95 83.1 659.84"/>
  <use xlink:href="#d" x="78.77" y="597.34"/>
  <use xlink:href="#Z" x="86.33" y="597.34"/>
  <path d="m75.81 584.97.05 21.28a.5.5 0 0 1-1 0l-.04-21.28c0-.28.22-.5.5-.5.27 0 .5.22.5.5m-.45 21.28 2-2-2 6-2-6Zm0 0"/>
  <use xlink:href="#e" x="115.09" y="622.63"/>
  <use xlink:href="#cG" x="122.04" y="622.63"/>
  <path fill="none" stroke="#000" stroke-linecap="round" stroke-linejoin="round" stroke-miterlimit="10" stroke-width=".75" d="m114.87 607.9-23.82 54.89"/>
  <path fill="#fff" fill-rule="evenodd" stroke="#000" stroke-linecap="round" stroke-linejoin="round" stroke-miterlimit="10" stroke-width=".75" d="M87 657.54a4.25 4.25 0 1 0 0 8.49 4.25 4.25 0 0 0 0-8.5m0 0"/>
  <path fill="none" stroke="#000" stroke-linecap="round" stroke-linejoin="round" stroke-miterlimit="10" stroke-width=".75" d="M106.6 605.55a4.25 4.25 0 1 1 7.95 2.95"/>
  <path fill="none" stroke="#000" stroke-linejoin="round" stroke-miterlimit="10" stroke-width="1.5" d="M104.53 610.24H90.35"/>
  <use xlink:href="#f" x="88.84" y="627.42"/>
  <use xlink:href="#cH" x="95.08" y="627.42"/>
  <path d="m95.73 641.22 8.73-20.65a.5.5 0 0 1 .66-.27c.25.11.37.4.26.66l-8.73 20.64c-.1.26-.4.38-.65.27a.5.5 0 0 1-.27-.65m9.2-20.46-2.63 1.07 4.18-4.74-.5 6.3Zm0 0"/>
  <use xlink:href="#g" x="91" y="652.12"/>
  <use xlink:href="#cH" x="95.91" y="652.12"/>
  <g clip-path="url(#h)">
    <use xlink:href="#c" x="106.7" y="597.82"/>
  </g>
  <g clip-path="url(#i)">
    <use xlink:href="#j" x="112.93" y="600.22"/>
  </g>
  <use xlink:href="#cH" x="118.32" y="597.82"/>
  <path d="M102.98 635.96h19.43c.28 0 .5.22.5.5a.5.5 0 0 1-.5.5h-19.43a.5.5 0 0 1-.5-.5c0-.28.22-.5.5-.5m19.43.5-2-2 6 2-6 2Zm0 0"/>
</svg>
