<svg xmlns="http://www.w3.org/2000/svg" xmlns:xlink="http://www.w3.org/1999/xlink" width="445.04" height="637.8" viewBox="0 0 445.04 637.8">
  <defs>
    <path id="a" fill="none" stroke="#000" stroke-width=".5" d="m222.66 358.62 2.13-2.13m.63 2.13 2.13-2.13m.63 2.13 2.13-2.13m.63 2.13 2.13-2.13m.63 2.13 2.13-2.13m.63 2.13 2.13-2.13m.63 2.13 2.13-2.13m.63 2.13 2.13-2.13m-21.48 4.9 2.13-2.13m.63 2.13 2.13-2.13m.63 2.13 2.13-2.13m.63 2.13 2.13-2.13m.63 2.13 2.13-2.13m.63 2.13 2.13-2.13m.63 2.13 2.13-2.13m.63 2.13 2.13-2.13m-21.48 4.9 2.13-2.13m.63 2.13 2.13-2.13m.63 2.13 2.13-2.13m.63 2.13 2.13-2.13m.63 2.13 2.13-2.13m.63 2.13 2.13-2.13m.63 2.13 2.13-2.13m.63 2.13 2.13-2.13m-21.48 4.9 2.13-2.13m.63 2.13 2.13-2.13m.63 2.13 2.13-2.13m.63 2.13 2.13-2.13m.63 2.13 2.13-2.13m.63 2.13 2.13-2.13m.63 2.13 2.13-2.13m.63 2.13 2.13-2.13m-21.48 4.9 2.13-2.13m.63 2.13 2.13-2.13m.63 2.13 2.13-2.13m.63 2.13 2.13-2.13m.63 2.13 2.13-2.13m.63 2.13 2.13-2.13m.63 2.13 2.13-2.13m.63 2.13 2.13-2.13m-21.48 4.9 2.13-2.13m.63 2.13 2.13-2.13m.63 2.13 2.13-2.13m.63 2.13 2.13-2.13m.63 2.13 2.13-2.13m.63 2.13 2.13-2.13m.63 2.13 2.13-2.13m.63 2.13 2.13-2.13m-21.48 4.9 2.13-2.13m.63 2.13 2.13-2.13m.63 2.13 2.13-2.13m.63 2.13 2.13-2.13m.63 2.13 2.13-2.13m.63 2.13 2.13-2.13m.63 2.13 2.13-2.13m.63 2.13 2.13-2.13m-21.48 4.9 2.13-2.13m.63 2.13 2.13-2.13m.63 2.13 2.13-2.13m.63 2.13 2.13-2.13m.63 2.13 2.13-2.13m.63 2.13 2.13-2.13m.63 2.13 2.13-2.13m.63 2.13 2.13-2.13"/>
  </defs>
  <path fill="none" stroke="#000" d="m312.55 357.86-7.96-15.56 65.17 20.42 27.9 21.74Zm0 0 85.11 26.6"/>
  <path fill="none" stroke="#000" d="m310.88 384.51-7.64-21.82h66.52l27.62 21.82Zm0 0h86.5"/>
  <path fill="#fff" fill-rule="evenodd" d="m322.37 360.39 41.12.84 5.94 1.89 5.6 4.58-32.57-1z"/>
  <path fill="none" stroke="#000" stroke-width=".5" d="M377.64 384.23c0-1.93.3-4 .84-5.78"/>
  <path fill="none" stroke="#000" d="m346.16 341.36-7.8-6.59 19.35 6.1 11.2 7.66Zm0 0"/>
  <path fill="none" stroke="#000" d="m338.99 364.1-6.72-9.99 6.1-19.34 7.8 6.59Zm0 0"/>
  <path fill="none" stroke="#000" d="m346.16 341.36-7.8-6.59 19.35 6.1 11.2 7.66Zm0 0"/>
  <path fill="#fff" fill-rule="evenodd" d="m338.99 364.1-6.72-9.99 6.1-19.34 7.8 6.59z"/>
  <path fill="none" stroke="#000" d="m338.99 364.1-6.72-9.99 6.1-19.34 7.8 6.59Zm0 0"/>
  <path fill="#fff" fill-rule="evenodd" d="m346.16 341.36 22.76 7.17-7.17 22.76-22.76-7.18z"/>
  <path fill="none" stroke="#000" d="m346.16 341.36 22.76 7.17-7.17 22.76-22.76-7.18Zm0 0"/>
  <path fill="none" stroke="#000" stroke-width=".5" d="m346.18 344.98 2.68-1.39m-.04 2.22 2.68-1.4m-.05 2.23 2.68-1.39m-.04 2.23 2.68-1.4m-.04 2.22 2.68-1.39m-.05 2.23 2.68-1.4m-.04 2.23 2.68-1.4m-.05 2.23 2.68-1.4m-21.96-1.78 2.68-1.4m-.04 2.23 2.67-1.4m-.03 2.23 2.67-1.4m-.04 2.23 2.68-1.4m-.04 2.23 2.67-1.39m-.04 2.22 2.68-1.4m-.04 2.23 2.67-1.39m-.04 2.23 2.68-1.4m-21.96-1.79 2.68-1.4m-.04 2.24 2.68-1.4m-.04 2.23 2.67-1.4m-.04 2.23 2.68-1.4m-.05 2.23 2.68-1.4m-.04 2.23 2.68-1.4m-.04 2.23 2.68-1.4m-.05 2.23 2.68-1.39m-21.96-1.78 2.68-1.4m-.05 2.22 2.68-1.4m-.04 2.23 2.68-1.39m-.04 2.22 2.67-1.4m-.04 2.23 2.68-1.39m-.04 2.23 2.68-1.4m-.05 2.23 2.68-1.4m-.04 2.22 2.68-1.38m-21.96-1.79 2.68-1.4m-.04 2.23 2.67-1.4m-.04 2.23 2.68-1.4m-.04 2.23 2.68-1.4m-.05 2.23 2.68-1.4m-.04 2.23 2.67-1.4m-.03 2.24 2.67-1.4m-.05 2.22 2.69-1.4m-21.96-1.78 2.67-1.39m-.04 2.23 2.68-1.4m-.04 2.22 2.68-1.39m-.05 2.23 2.68-1.4m-.04 2.23 2.68-1.4m-.05 2.23 2.69-1.4m-.05 2.23 2.68-1.4m-.04 2.23 2.68-1.4m-21.96-1.78 2.68-1.4m-.05 2.23 2.68-1.4m-.04 2.23 2.67-1.4m-.04 2.24 2.68-1.4m-.04 2.22 2.68-1.39m-.04 2.22 2.67-1.39m-.04 2.23 2.68-1.4m-.04 2.23 2.67-1.4m-21.96-1.79 2.68-1.4m-.04 2.24 2.68-1.4m-.04 2.23 2.68-1.4m-.05 2.23 2.68-1.4m-.05 2.23 2.69-1.4m-.05 2.23 2.68-1.4m-.04 2.23 2.68-1.4m-.04 2.23 2.68-1.4"/>
  <path fill="#fff" fill-rule="evenodd" d="m345.55 341.6.32-.87.89.29-4.94-4.64-3.15-.97-.4 1.3zm-7.28 22.93 1.24-3.78-6.12-6.48-2.3-.62z"/>
  <path fill="none" stroke="#000" d="m332.37 353.49 9.24 2.47m-120.06-.8-.08-.03h23.62l.32.03Zm0 0"/>
  <path fill="none" stroke="#000" d="m221.55 379.02-.08-.27v-23.62l.08.03Zm0 0"/>
  <path fill="none" stroke="#000" d="m221.55 355.16-.08-.03h23.62l.32.03Zm0 0"/>
  <path fill="none" stroke="#000" d="m221.55 379.02-.08-.27v-23.62l.08.03Zm0-23.86h23.86v23.86h-23.86Zm0 0"/>
  <use xlink:href="#a"/>
  <path fill="none" stroke="#000" d="m245.56 355.16-.08-.03h23.63l.3.03Zm0 0"/>
  <path fill="none" stroke="#000" d="m245.56 379.02-.08-.27v-23.62l.08.03Zm0 0"/>
  <path fill="none" stroke="#000" d="m245.56 355.16-.08-.03h23.63l.3.03Zm0 0"/>
  <path fill="none" stroke="#000" d="m245.56 379.02-.08-.27v-23.62l.08.03Zm0-23.86h23.86v23.86h-23.86Zm0 0"/>
  <use xlink:href="#a" x="24"/>
  <path fill="none" stroke="#000" d="m269.6 355.16-.07-.03h23.62l.31.03Zm0 0"/>
  <path fill="none" stroke="#000" d="m269.6 379.02-.07-.27v-23.62l.07.03Zm0 0"/>
  <path fill="none" stroke="#000" d="m269.6 355.16-.07-.03h23.62l.31.03Zm0 0"/>
  <path fill="none" stroke="#000" d="m269.6 379.02-.07-.27v-23.62l.07.03Zm0-23.86h23.86v23.86H269.6Zm0 0"/>
  <use xlink:href="#a" x="48.05"/>
  <path fill-rule="evenodd" d="M367.71 379.86c0-1.73-1-2.3-1.8-2.3-1.5 0-2.94 1.58-2.94 3.09 0 1.08.65 1.87 1.8 1.87.64 0 1.44-.22 2.3-.94.14.58.5.94 1 .94.58 0 .87-.58.87-.8 0-.07-.08-.07-.15-.07s-.07 0-.14.08c-.15.57-.58.57-.58.57-.36 0-.36-.86-.36-1.15 0-.22 0-.22.15-.36 1-1.3 1.22-2.59 1.22-2.59s0-.07-.14-.07c-.08 0-.08 0-.15.22a7 7 0 0 1-1.08 2.15Zm-.71 1.43a3.3 3.3 0 0 1-2.23 1.01c-.65 0-1-.5-1-1.22 0-.5.28-1.72.64-2.23.5-.79 1.15-1 1.5-1 1.09 0 1.09 1.43 1.09 2.22zm-149.79-15.95c-.22-.44-.57-.72-1-.72-1.3 0-2.66 1.65-2.66 3.23 0 1 .57 1.72 1.43 1.72.22 0 .8-.07 1.44-.78.07.42.43.78 1 .78.37 0 .58-.28.8-.57.14-.43.28-1.08.28-1.08 0-.14-.07-.14-.07-.14-.14 0-.14.07-.14.21-.22.72-.43 1.37-.86 1.37-.3 0-.36-.29-.36-.5 0-.3.07-.36.14-.87.14-.43.14-.5.29-.93.14-.72.21-.94.36-1.5.07-.37.07-.37.07-.44a.3.3 0 0 0-.29-.29c-.29 0-.43.3-.43.5m-.72 2.8c-.07.21-.07.21-.21.43-.5.57-.94.79-1.23.79-.57 0-.71-.65-.71-1.08 0-.5.36-1.87.57-2.37.36-.65.86-1 1.3-1 .71 0 .86.86.86.93s-.08.14-.08.21zm18.14-20.77c-.22-.43-.5-.72-1-.72-1.3 0-2.67 1.65-2.67 3.23 0 1 .65 1.72 1.44 1.72.22 0 .8-.07 1.44-.79.07.43.5.8 1 .8.36 0 .65-.3.8-.58.21-.43.35-1.08.35-1.08 0-.14-.14-.14-.14-.14-.14 0-.14.07-.14.22-.22.71-.44 1.36-.87 1.36-.28 0-.28-.29-.28-.5 0-.29 0-.36.14-.86.07-.44.14-.5.22-.94.14-.72.21-.93.35-1.51.08-.36.08-.36.08-.43 0-.14-.08-.28-.3-.28-.28 0-.42.28-.42.5m-.72 2.8c-.07.21-.07.21-.21.43-.5.57-.94.79-1.23.79-.57 0-.72-.65-.72-1.08 0-.5.36-1.87.58-2.37.36-.64.86-1 1.3-1 .71 0 .85.86.85.93q.02.1-.07.21zm24.71-2.8c-.22-.43-.5-.72-1-.72-1.3 0-2.67 1.65-2.67 3.23 0 1 .65 1.72 1.44 1.72.22 0 .79-.07 1.44-.79.07.43.5.8 1 .8.36 0 .65-.3.8-.58.21-.43.35-1.08.35-1.08 0-.14-.14-.14-.14-.14-.14 0-.14.07-.14.22-.22.71-.43 1.36-.87 1.36-.28 0-.28-.29-.28-.5 0-.29 0-.36.14-.86.07-.44.14-.5.22-.94.21-.72.21-.93.36-1.51.14-.36.14-.36.14-.43 0-.14-.14-.28-.36-.28-.29 0-.43.28-.43.5m-.72 2.8c-.07.21-.07.21-.22.43-.5.57-.93.79-1.22.79-.57 0-.72-.65-.72-1.08 0-.5.36-1.87.58-2.37.36-.64.86-1 1.3-1 .71 0 .85.86.85.93q.02.1-.07.21zm24.78-2.8c-.22-.43-.5-.72-1-.72-1.3 0-2.66 1.65-2.66 3.23 0 1 .64 1.72 1.5 1.72.22 0 .73-.07 1.37-.79.07.43.5.8 1 .8.37 0 .65-.3.8-.58.21-.43.36-1.08.36-1.08 0-.14-.15-.14-.15-.14-.14 0-.14.07-.14.22-.22.71-.36 1.36-.86 1.36-.3 0-.3-.29-.3-.5 0-.29 0-.36.15-.86.07-.44.15-.5.22-.94.21-.72.21-.93.43-1.51.07-.36.07-.36.07-.43 0-.14-.14-.28-.36-.28s-.43.28-.43.5m-.72 2.8c-.07.21-.07.21-.21.43-.5.57-.94.79-1.22.79-.58 0-.72-.65-.72-1.08 0-.5.36-1.87.64-2.37.3-.64.8-1 1.23-1 .71 0 .86.86.86.93v.21z"/>
</svg>
