<svg xmlns="http://www.w3.org/2000/svg" xmlns:xlink="http://www.w3.org/1999/xlink" width="612" height="792" viewBox="0 0 612 792">
  <defs>
    <path id="a" d="m6.05-.42-.02.25-.06.12-.1.05-.17.05-.18.03a2 2 0 0 1-.6-.03 1 1 0 0 1-.34-.17q-.15-.14-.25-.32-.09-.2-.13-.51-.1.23-.26.42-.15.18-.38.34a2 2 0 0 1-1.03.3A1.8 1.8 0 0 1 .98-.64a3 3 0 0 1-.36-.83 5 5 0 0 1 .04-2.17q.14-.5.42-.84.28-.37.69-.55a2 2 0 0 1 1.57-.1q.31.12.54.33.22.22.39.55.15.31.2.73a10 10 0 0 0 .25-1.43q0-.1.03-.14.03 0 .05-.02l.08-.01.1-.02.16-.02.34.05q.06.02.08.05l.02.06-.03.28a5 5 0 0 1-.2.95l-.3 1.18-.2.51q0 .45.06.74.04.28.12.43.1.16.19.2.1.06.22.05l.18-.01.25-.06.08-.04.03.02q.04.02.04.06l.01.11zM3.95-2.6q0-.5-.1-.86a2 2 0 0 0-.27-.6 1.1 1.1 0 0 0-.86-.45q-.35 0-.6.17-.22.16-.39.42-.16.28-.21.61-.07.35-.07.7 0 .38.05.74.05.35.19.63.15.27.37.43.23.15.6.16.3 0 .54-.14t.4-.4q.18-.27.26-.62.1-.36.1-.78Zm0 0"/>
    <path id="q" d="M5.34-2.2q0 .48-.14.9A1.9 1.9 0 0 1 4.08-.08a3 3 0 0 1-2.13-.06Q1.8-.21 1.7-.33l.01.35.02.36V1.8l-.03.06-.06.06-.15.03a2 2 0 0 1-.43 0q-.08 0-.14-.03t-.07-.06L.83 1.8v-7.05q0-.55.14-.97.15-.43.42-.73.28-.3.67-.46.4-.15.86-.15.5 0 .86.15t.6.41.35.58q.1.3.11.67 0 .57-.26 1-.25.43-.75.63.38.04.65.21.3.18.47.44.2.25.28.58.1.33.11.69m-.95.08q0-.33-.08-.6a1.2 1.2 0 0 0-.68-.76 2 2 0 0 0-.66-.11H2.5q-.08 0-.14-.08a1 1 0 0 1-.05-.28q0-.1.02-.16 0-.08.03-.12l.06-.07.08-.03h.1q.37 0 .62-.1.24-.12.4-.29.16-.18.22-.44a1.7 1.7 0 0 0 .02-.93 1 1 0 0 0-.17-.38 1 1 0 0 0-.33-.25q-.19-.1-.47-.1-.3 0-.53.12a1 1 0 0 0-.36.3q-.15.22-.22.5-.06.3-.06.65v4.1q.3.25.62.37a2 2 0 0 0 1.29.01q.26-.1.43-.3.18-.2.25-.46.08-.27.08-.6m0 0"/>
    <path id="b" d="m7.6-1.3-.13.2-.3.33c-.25.27-.36.35-.51.35q-.13 0-.13-.17.01-.1.11-.5l.75-2.77c.02-.06.03-.23.03-.31 0-.4-.28-.7-.64-.7q-.32-.01-.7.25c-.55.34-1 .87-1.77 2.09.3-.86.46-1.47.46-1.67 0-.4-.27-.67-.64-.67-.68 0-1.44.73-2.46 2.32l.64-2.3-.03-.03c-.6.13-.83.18-1.76.35v.17c.5.02.5.02.59.08.06.01.1.1.1.17 0 .13-.26 1.16-.65 2.53L.12 0h.85c.51-1.75.69-2.17 1.06-2.73C2.66-3.7 3.31-4.3 3.7-4.3q.21 0 .22.28c0 .14-.33 1.44-.77 3C3.04-.7 3-.55 2.86 0h.83c.44-1.72.67-2.28 1.23-3.06.53-.75 1.1-1.24 1.4-1.24q.21.01.23.24l-.08.39-.64 2.53c-.11.44-.14.62-.14.73q0 .5.43.5c.54 0 1.02-.36 1.6-1.17l.06-.08Zm0 0"/>
    <path id="d" d="M2.52-1.36c-.72.92-.8 1-1.05 1q-.17 0-.17-.19 0-.14.1-.43v-.11l1.68-6.4-.05-.06c-.67.16-1.1.22-1.73.3v.19q.78-.02.76.25l-.04.2L.5-.78Q.45-.63.45-.5q.01.62.55.63c.56 0 .94-.32 1.66-1.4Zm0 0"/>
    <path id="f" d="M2.86-7.31h3.78v.2q-.63 0-.81.16-.18.15-.2.67 1.23 0 1.87.3.66.27 1.1.86.48.58.48 1.39 0 1.04-.77 1.84-.75.78-2.69.78 0 .39.08.58.1.18.27.23.18.07.67.1V0H2.86v-.2q.65-.02.83-.2.19-.2.19-.7a5 5 0 0 1-2-.35 2.6 2.6 0 0 1-1.1-.96Q.41-3 .41-3.73q0-.77.45-1.41.47-.64 1.16-.9a6 6 0 0 1 1.86-.24q-.01-.48-.2-.66-.2-.17-.82-.17ZM5.63-1.5q.52 0 .87-.16.34-.17.56-.68.24-.54.24-1.44 0-.73-.2-1.24a1.3 1.3 0 0 0-.55-.67 2 2 0 0 0-.92-.18ZM3.88-5.87q-.73 0-1.04.25-.3.21-.48.71t-.17 1.25q0 .9.22 1.36.21.45.57.63.36.15.9.17Zm0 0"/>
    <path id="g" d="M3.42 0v-.2q.48 0 .49-.72V-3.4L2.45-.92q0 .7.49.72V0H.38v-.2q.3 0 .43-.17t.13-.6v-3.12q0-.75-.56-.75v-.2h2.56v.2q-.27.01-.38.17-.1.15-.1.58v2.47l1.45-2.5a1 1 0 0 0-.13-.57q-.11-.15-.36-.15v-.2h2.56v.2q-.3 0-.43.14-.14.14-.14.54v3.2q0 .46.12.62.13.14.45.14V0Zm0 0"/>
    <path id="h" d="M.4-.2q.3-.02.43-.16.12-.14.12-.58v-3.2q0-.37-.12-.52t-.44-.18v-.2h4.44v1.3h-.2q-.14-.6-.35-.78-.22-.18-.83-.18h-1v3.8q0 .39.13.54.12.15.5.16V0H.39Zm0 0"/>
    <path id="i" d="M1.38-1.66q.38 0 .64.27t.26.62q0 .38-.26.65a.9.9 0 0 1-1.27 0 1 1 0 0 1-.27-.65q0-.35.27-.62a1 1 0 0 1 .63-.27m0 0"/>
    <path id="j" d="M4.58 0H.27v-.12a23 23 0 0 0 2.4-3.16 3.5 3.5 0 0 0 .42-1.6q0-.57-.36-.95a1.1 1.1 0 0 0-.84-.37q-.82 0-1.3.84l-.18-.08q.27-1.03.87-1.53a2.07 2.07 0 0 1 3.1.47q.26.46.26.84 0 .72-.39 1.46-.55 1-2.4 2.8h1.6q.58 0 .75-.05t.28-.18q.14-.12.32-.48h.18Zm0 0"/>
    <path id="o" d="M3.16-.75Q2.23.06 1.5.06q-.44 0-.72-.28a1 1 0 0 1-.28-.7q0-.57.48-1.03A9 9 0 0 1 3.16-3.2v-.5q0-.57-.07-.72a.6.6 0 0 0-.23-.26 1 1 0 0 0-.4-.11q-.33 0-.57.16-.15.09-.14.21 0 .13.16.29.2.22.2.45a.6.6 0 0 1-.2.45.7.7 0 0 1-.52.19.8.8 0 0 1-.56-.2.7.7 0 0 1-.24-.49q0-.39.32-.73.3-.36.86-.55.54-.18 1.14-.19.71 0 1.12.32.42.29.55.64.08.23.08 1.04v1.96q0 .34.03.43.03.1.08.14t.12.04q.15 0 .28-.2l.17.13q-.27.4-.56.58-.28.17-.66.17-.44 0-.68-.18-.24-.21-.28-.63m0-.4v-1.68q-.66.4-.97.83a1 1 0 0 0-.22.58q0 .25.19.44.12.14.37.14.26 0 .63-.3m0 0"/>
    <path id="l" d="M3.17-7.47h-.73L-.1.16h.75Zm0 0"/>
    <path id="n" d="m5.25-1.52-.14-.04c-.42.64-.53.72-1.06.72H1.4l1.86-1.94c.98-1.03 1.42-1.88 1.42-2.74 0-1.09-.9-1.95-2.05-1.95-.6 0-1.19.25-1.6.69-.34.37-.5.73-.7 1.51l.24.05c.44-1.08.83-1.44 1.6-1.44.93 0 1.55.64 1.55 1.57 0 .87-.51 1.89-1.43 2.87L.33-.12V0h4.31Zm0 0"/>
    <path id="r" d="M5.44-7.48q.73 0 1.3.32.55.32.87.94.3.6.31 1.27 0 1.17-.69 2.47A5 5 0 0 1 5.45-.5Q4.35.17 3.2.17q-.84 0-1.42-.37a2.3 2.3 0 0 1-.85-.99 3 3 0 0 1-.26-1.2q0-1.03.48-2.03.5-1 1.19-1.67a5 5 0 0 1 1.45-1.04 4 4 0 0 1 1.66-.35m-.17.34q-.55 0-1.07.26-.5.27-1.03.88-.5.6-.9 1.6a6 6 0 0 0-.49 2.28q0 .76.4 1.35.38.6 1.2.6.5 0 .96-.24.47-.24.99-.84.63-.73 1.08-1.87.43-1.16.43-2.16 0-.73-.4-1.3-.39-.56-1.17-.56m0 0"/>
  </defs>
  <path fill="none" stroke="#000" stroke-linejoin="round" stroke-miterlimit="10" stroke-width=".75" d="m142.25 88.7-62.8 86.95"/>
  <path fill="none" stroke="#000" stroke-dasharray="3 2.25" stroke-linejoin="round" stroke-miterlimit="10" stroke-width=".75" d="M142.25 88.7v116.9"/>
  <path fill="#fff" fill-rule="evenodd" stroke="#000" stroke-linecap="round" stroke-linejoin="round" stroke-miterlimit="10" stroke-width=".75" d="M75.98 173.25a7.08 7.08 0 1 0 0 14.16 7.08 7.08 0 0 0 0-14.16m0 0"/>
  <use xlink:href="#a" x="130.94" y="115.82"/>
  <use xlink:href="#b" x="63" y="172.7"/>
  <use xlink:href="#d" x="99.26" y="141.86"/>
  <path fill="none" stroke="#000" stroke-linejoin="round" stroke-miterlimit="10" stroke-width="2.75" d="M123.75 88.7h36.95"/>
  <path fill="none" stroke="#000" stroke-linejoin="round" stroke-miterlimit="10" stroke-width=".75" d="m131.25 101.75 12.2 3.1"/>
  <use xlink:href="#f" x="72.38" y="218.66"/>
  <use xlink:href="#g" x="81.75" y="218.66"/>
  <use xlink:href="#h" x="88.1" y="218.66"/>
  <use xlink:href="#i" x="93.12" y="218.66"/>
  <use xlink:href="#j" x="98.64" y="218.66"/>
  <path fill-rule="evenodd" stroke="#000" stroke-linecap="round" stroke-linejoin="round" stroke-miterlimit="10" stroke-width=".75" d="M161.05 478.7c-1.13 0-2.05.88-2.05 1.97 0 1.1.92 1.98 2.05 1.98s2.05-.88 2.05-1.98-.92-1.97-2.05-1.97m0 0"/>
  <path fill="none" stroke="#000" stroke-linejoin="round" stroke-miterlimit="10" stroke-width=".75" d="M162.5 416.2c2.22 0 4.02 2.33 4.02 5.21v20.83c0 2.88 1.8 5.2 4.03 5.2-2.22 0-4.03 2.34-4.03 5.22v20.83c0 2.88-1.8 5.2-4.02 5.2"/>
  <use xlink:href="#d" x="172.82" y="450.91"/>
  <use xlink:href="#l" x="175.94" y="450.91"/>
  <use xlink:href="#n" x="179.06" y="450.91"/>
  <path fill="none" stroke="#000" stroke-linejoin="round" stroke-miterlimit="10" stroke-width=".75" d="M161.3 416.2H64.35"/>
  <path fill="none" stroke="#000" stroke-dasharray="3 2.25" stroke-linejoin="round" stroke-miterlimit="10" stroke-width=".75" d="M161.3 416.2v116.9"/>
  <path fill="#fff" fill-rule="evenodd" stroke="#000" stroke-linecap="round" stroke-linejoin="round" stroke-miterlimit="10" stroke-width=".75" d="M57.27 410.3a7.07 7.07 0 1 0 0 14.15 7.07 7.07 0 0 0 0-14.15m0 0"/>
  <use xlink:href="#b" x="65.16" y="429.89"/>
  <use xlink:href="#d" x="102.86" y="429.89"/>
  <path fill="none" stroke="#000" stroke-linejoin="round" stroke-miterlimit="10" stroke-width="2.75" d="M142.8 416.2h36.95"/>
  <use xlink:href="#f" x="96.74" y="553.99"/>
  <use xlink:href="#g" x="106.11" y="553.99"/>
  <use xlink:href="#h" x="112.46" y="553.99"/>
  <use xlink:href="#i" x="117.48" y="553.99"/>
  <use xlink:href="#j" x="123" y="553.99"/>
  <use xlink:href="#o" x="128.52" y="553.99"/>
  <path fill="none" stroke="#000" stroke-linejoin="round" stroke-miterlimit="10" stroke-width=".75" d="m163.1 478.7 39.65-26"/>
  <path fill="#fff" fill-rule="evenodd" stroke="#000" stroke-linecap="round" stroke-linejoin="round" stroke-miterlimit="10" stroke-width=".75" d="M208.63 441.65a7.14 7.14 0 0 0-7.08 7.2c0 3.98 3.17 7.2 7.08 7.2 3.9 0 7.07-3.22 7.07-7.2s-3.17-7.2-7.07-7.2m0 0"/>
  <use xlink:href="#q" x="167.9" y="467.35"/>
  <path fill="none" stroke="#000" stroke-linejoin="round" stroke-miterlimit="10" stroke-width=".75" d="m162.5 468.8 8.05 5.75"/>
  <use xlink:href="#r" x="148.22" y="487.15"/>
</svg>
