<svg xmlns="http://www.w3.org/2000/svg" xmlns:xlink="http://www.w3.org/1999/xlink" width="250" height="200" viewBox="0 0 250 200">
  <defs>
    <path id="k" d="M5.58-1.4c-.64.8-.8.95-.99.95q-.16-.02-.18-.22c0-.13.18-.88.39-1.5.34-1.11.58-2.02.58-2.31 0-.49-.33-.82-.8-.82-.78 0-1.63.78-2.74 2.53l1.44-5.37-.06-.06c-.72.17-1.19.25-1.9.32v.2h.32c.28-.02.5.1.5.29q0 .26-.17.8-.03.06-.13.45L.24 0h.89c.48-1.84.64-2.25 1.12-2.98.63-.96 1.44-1.7 1.86-1.7.17 0 .33.15.33.3l-.08.4L3.7-1.5q-.24.89-.25 1.1.01.49.55.5c.6 0 1.02-.32 1.73-1.37Zm0 0"/>
    <path id="l" d="M.4-4.17H.15l.36-.99.14-.42.34-.06.3-.03q.22 0 .63.06.5.1.7.1.27 0 .66-.13l.09.14a9 9 0 0 0-1.28 2.05 5 5 0 0 0-.35 1.7q0 .63.27.95t.66.32q.9 0 1.57-1.2.68-1.17.68-2.45 0-.38-.14-.56a.4.4 0 0 0-.36-.17q-.14 0-.35.1l-.12-.2q.38-.37.65-.68l.3-.03q.34 0 .56.3.24.27.24.82 0 1-.63 2.2A6 6 0 0 1 3.5-.38q-.7.55-1.31.55-.6 0-.96-.41Q.88-.68.88-1.48q0-.81.43-1.7.27-.53 1.35-1.82a5 5 0 0 1-.96.03l-.36-.01q-.1 0-.23.03-.13 0-.28.04-.18.27-.42.74m0 0"/>
    <path id="m" d="M2.05-5.44c-.46 0-.78.13-1.08.42C.5-4.58.19-3.64.19-2.7c0 .89.26 1.8.65 2.26q.46.55 1.18.55.6 0 1.04-.42c.47-.44.77-1.38.77-2.35 0-1.65-.74-2.78-1.78-2.78m-.03.2c.68 0 1.04.91 1.04 2.6Q3.05-.1 2.02-.1.97-.1.97-2.62q0-2.6 1.05-2.61m0 0"/>
    <path id="n" d="M5.1-5.16h.88L4.73-2.3q.09 1.62.55 1.61.17 0 .31-.17a.7.7 0 0 0 .18-.44h.25Q5.83.14 5.2.14q-.23 0-.42-.23t-.33-1.64Q3.37.14 2.03.14 1.3.14.81-.37.36-.91.36-1.78q0-.84.42-1.64t1.06-1.33 1.43-.55q.54 0 .86.35.3.33.42 1.04Zm-.77 1.7q-.04-.43-.27-.96t-.7-.53q-.68 0-1.4 1.3-.7 1.33-.7 2.32 0 .55.24.88t.64.33q.42 0 .75-.44.35-.45.95-1.8Zm0 0"/>
    <path id="p" d="M.08 2.56H-.8q.45-.74.7-1.62l1.76-6q.37-1.27.67-1.9.3-.65.84-1a2.2 2.2 0 0 1 1.27-.37q.71 0 1.18.42.48.41.47 1.1 0 1.55-1.89 2.22 1.17.56 1.17 1.73a3 3 0 0 1-.8 2.06 2.6 2.6 0 0 1-2.71.85q-.31-.08-.72-.42A13 13 0 0 1 .08 2.56M1.3-.84q.4.67 1.13.67.87 0 1.44-1.1.56-1.09.56-1.9 0-.9-.58-1.31-.37.07-.55.07-.37 0-.37-.26 0-.24.31-.24.3 0 .67.18.55-.3.92-1.02.4-.71.4-1.4 0-.42-.22-.68a.7.7 0 0 0-.57-.25q-.38 0-.75.31-.34.33-.56.91-.22.6-.72 2.25Zm0 0"/>
    <path id="s" d="m3.95-5.3-.08.3q-1.3.04-1.9 1.36a6 6 0 0 0-.61 2.39q0 .48.2.75a.7.7 0 0 0 .58.27q.85 0 1.63-1.35-.04-.42-.04-.65A4 4 0 0 1 4-3.78q.27-.66.67-.66t.4.42q0 .82-1.05 2.49.14 1.25 1.01 1.25.88 0 1.42-1.24.57-1.23.57-2.3T5.9-5l.06-.25q1.04.1 1.5.67.47.57.47 1.35 0 1.13-.78 2.25T5.2.14q-1.25 0-1.4-1.33Q3 .14 2.02.14q-.7 0-1.16-.5t-.44-1.4q0-.8.31-1.54.33-.75.9-1.22.57-.48 1.06-.62t1.26-.16m0 0"/>
    <path id="d" d="M5.94 0H2.78v-.2q.63 0 .83-.16.21-.15.23-.66-1.82 0-2.64-.76-.8-.76-.8-1.9a2.36 2.36 0 0 1 1.66-2.34 6 6 0 0 1 1.78-.23q0-.45-.14-.6a1 1 0 0 0-.28-.2q-.15-.06-.64-.06v-.2h3.16v.2q-.63.01-.83.19-.21.18-.24.67 1.18 0 1.85.27.67.24 1.14.84.47.58.47 1.45 0 1.1-.78 1.9-.8.77-2.67.77 0 .5.21.66.22.15.85.16ZM4.87-1.4q.8 0 1.27-.2.48-.22.78-.76t.31-1.34q0-.74-.3-1.25a1.6 1.6 0 0 0-.79-.7 4 4 0 0 0-1.26-.2Zm-1.03 0v-4.44q-.83 0-1.28.2t-.76.69-.3 1.25q0 .84.36 1.4t.84.74q.48.15 1.14.15m0 0"/>
    <path id="f" d="m1.9-1.52 2.13-2.46q-.02-.43-.17-.58-.15-.17-.5-.17v-.2h2.3v.2q-.37 0-.49.07l-.2.18q-.06.1-.06.7v2.62q0 .56.06.7.06.1.19.18.12.08.5.08V0H3.28v-.2q.44 0 .6-.16.15-.17.15-.8v-2.32L1.9-1.02q0 .48.13.65.12.17.51.17V0H.25v-.2q.48 0 .6-.17Q1-.55 1-1.16v-2.62q0-.58-.06-.67l-.19-.2q-.13-.08-.5-.08v-.2h2.4v.2q-.37 0-.5.07l-.2.18q-.06.1-.06.7Zm0 0"/>
    <path id="g" d="m4.27-4.94.18 1.35h-.23q-.2-.68-.4-.83-.21-.17-.88-.17H1.89v3.43q0 .56.05.7.06.1.19.18t.51.08V0H.17v-.2Q.7-.2.84-.36 1-.5 1-1.16v-2.62q0-.52-.06-.66a.4.4 0 0 0-.22-.22 1 1 0 0 0-.55-.07v-.2Zm0 0"/>
    <path id="h" d="M1.38-1.05a.6.6 0 0 1 .6.6.6.6 0 0 1-.18.43.6.6 0 0 1-.43.18.6.6 0 0 1-.42-.18.6.6 0 0 1-.17-.43q0-.25.17-.42a.6.6 0 0 1 .43-.18m0 0"/>
    <path id="i" d="M5.14-2.7v.76h-.98V0h-.9v-1.94H.18v-.68l3.4-4.85h.59v4.77Zm-1.87 0v-3.63L.7-2.7Zm0 0"/>
  </defs>
  <use xlink:href="#d" x="112.58" y="157.39"/>
  <use xlink:href="#f" x="121.32" y="157.39"/>
  <use xlink:href="#g" x="127.23" y="157.39"/>
  <use xlink:href="#h" x="131.76" y="157.39"/>
  <use xlink:href="#i" x="137.28" y="157.39"/>
  <path fill="none" stroke="#000" stroke-linejoin="round" stroke-miterlimit="10" stroke-width="1.5" d="M76.2 138.1h162.65"/>
  <path fill="none" stroke="#000" stroke-linecap="round" stroke-miterlimit="8" stroke-width=".75" d="M87.55 138.1h7.15V98.05h-7.15Zm0 0"/>
  <path fill="none" stroke="#000" stroke-linecap="round" stroke-linejoin="round" stroke-miterlimit="8" stroke-width=".75" d="M94.7 98.05c14.65-21.8 29.35-43.6 47.35-36.95s39.3 41.8 60.65 77M87.55 98.05c-1.98 0-3.57 1.49-3.57 3.34v13.35c0 1.84-1.6 3.33-3.58 3.33 1.97 0 3.58 1.5 3.58 3.34v13.35c0 1.85 1.6 3.34 3.57 3.34"/>
  <use xlink:href="#k" x="72.14" y="120.43"/>
  <path d="m94.26 97.8 13.65-25.62a.5.5 0 0 1 .68-.21.5.5 0 0 1 .2.68L95.14 98.28a.5.5 0 0 1-.68.2.5.5 0 0 1-.2-.67m10.97-25.9 5.47-3.9-.17 6.71Zm0 0"/>
  <use xlink:href="#l" x="93.38" y="75.53"/>
  <use xlink:href="#m" x="99.38" y="77.09"/>
  <use xlink:href="#n" x="102.02" y="96.17"/>
  <path fill="none" stroke="#000" stroke-linecap="round" stroke-linejoin="round" stroke-miterlimit="8" stroke-width=".75" d="M94.7 98.05h10.45"/>
  <path d="m203.15 137.87 16.57 32.5a.5.5 0 0 1-.2.67.5.5 0 0 1-.7-.22l-16.57-32.5a.5.5 0 0 1 .22-.67.5.5 0 0 1 .68.22m18.35 30.47.05 6.71-5.4-3.98Zm0 0"/>
  <path fill="none" stroke="#000" stroke-dasharray="2.25 3" stroke-linecap="round" stroke-linejoin="round" stroke-miterlimit="8" stroke-width=".75" d="M202.7 119.95v48.2"/>
  <use xlink:href="#p" x="204.77" y="166.75"/>
  <path fill="none" stroke="#000" stroke-linecap="round" stroke-linejoin="round" stroke-miterlimit="8" stroke-width=".75" d="M202.7 152.8h6.3"/>
  <path fill="#fff" fill-rule="evenodd" stroke="#000" stroke-linecap="round" stroke-linejoin="round" stroke-miterlimit="8" stroke-width=".75" d="M188.6 105.8a8.23 8.23 0 1 0 0 16.45 8.23 8.23 0 1 0 0-16.45m0 0"/>
  <use xlink:href="#s" x="156.26" y="121.63"/>
  <use xlink:href="#l" x="225.05" y="171.43"/>
  <path fill="#fff" fill-rule="evenodd" stroke="#000" stroke-linecap="round" stroke-linejoin="round" stroke-miterlimit="8" stroke-width=".75" d="m172.4 118.66-.03-1.1c0-6.1 2.43-11.66 6.27-14.39l-1.08-3.06c-4.66 3.31-7.61 10.06-7.61 17.44l.03 1.35-3.43.33 4.96 6.12 4.32-7.03Zm0 0"/>
</svg>
