<svg xmlns="http://www.w3.org/2000/svg" xmlns:xlink="http://www.w3.org/1999/xlink" width="595.32" height="841.92" viewBox="0 0 595.32 841.92">
  <defs>
    <path id="s" d="M2.58-4.1q.54-.82 1.08-1.21.52-.4 1.07-.4.57 0 .85.34.3.3.3.92v.17q.5-.72 1-1.06.49-.36 1.04-.36.53 0 .83.3.3.32.3.88 0 .38-.18 1.05l-.39 1.55q-.15.63-.15.89 0 .24.08.34.07.12.25.11a.6.6 0 0 0 .36-.14q.2-.15.57-.55l.33.33a5 5 0 0 1-.87.78Q8.67.1 8.19.1a.8.8 0 0 1-.61-.26 1 1 0 0 1-.24-.7q0-.38.2-1.13l.26-1q.14-.55.18-.81.05-.27.05-.44 0-.4-.14-.58-.13-.18-.44-.19a1 1 0 0 0-.53.2 3 3 0 0 0-.6.57q-.3.4-.5.77t-.3.92L4.98 0H3.97l.67-2.98.17-.8q.05-.27.05-.45 0-.43-.16-.6-.15-.18-.47-.19a1 1 0 0 0-.5.2q-.28.18-.6.59-.33.4-.52.78-.18.38-.3.92L1.77 0H.75l.84-3.72q.15-.56.14-.86a.6.6 0 0 0-.07-.34q-.09-.1-.25-.11a.6.6 0 0 0-.38.16q-.2.14-.56.53l-.33-.33q.51-.53.9-.78.36-.25.8-.25.38 0 .58.25.22.23.22.62 0 .33-.12.69Zm0 0"/>
    <path id="q" d="M1.92-3.17q-.66.3-1.54.64l-.15-.49q.94-.3 1.82-.73l.36-1.66q.32-1.48.92-2.2t1.42-.73q.39 0 .64.17.26.15.38.44.1.28.1.62 0 .55-.25 1.14-.25.6-.87 1.19-.6.58-1.78 1.19l-.38 1.7q-.12.58-.12.86 0 .24.08.34.07.12.25.11.15 0 .3-.08t.3-.21l.32-.35.36-.5.4.31q-.4.57-.7.86t-.64.47-.72.17q-.45 0-.69-.26A1 1 0 0 1 1.5-.9q0-.45.16-1.14Zm1.17-.99q.97-.6 1.49-1.4.53-.81.53-1.7 0-.3-.11-.46a.4.4 0 0 0-.33-.17.7.7 0 0 0-.5.23 2 2 0 0 0-.39.68q-.18.45-.33 1.2Zm0 0"/>
    <path id="r" d="M2.6-4.19q.57-.78 1.1-1.14.52-.37 1.08-.37.42 0 .72.08l-.28 1.3H4.6a1 1 0 0 0-.1-.37q-.06-.14-.15-.18a.4.4 0 0 0-.22-.07q-.22 0-.47.19-.25.17-.56.56-.3.39-.48.75-.2.34-.32.9L1.77 0H.75l.84-3.72a5 5 0 0 0 .13-.86.6.6 0 0 0-.08-.34q-.06-.1-.23-.11a.7.7 0 0 0-.4.16q-.18.14-.54.53l-.33-.33q.53-.56.9-.8.36-.24.8-.23.36 0 .58.25.22.23.22.62 0 .3-.1.61Zm0 0"/>
    <path id="n" d="M1.44.5q-.12.14-.19.27a1 1 0 0 0-.14.55q0 .44.31.63.3.2.96.2.71 0 1.15-.32T4.28.8q.3-.72.61-2.2h-.08q-.58.78-1.06 1.13A1.7 1.7 0 0 1 2.7.1q-.64 0-1-.48a2.3 2.3 0 0 1-.34-1.38q0-.99.39-1.92.39-.91 1.08-1.47a2.5 2.5 0 0 1 2.26-.45q.33.08.66.3l.53-.4.38.1-.6 2.74-.3 1.43Q5.54-.2 5.39.31T5 1.23a2.6 2.6 0 0 1-1.42 1.22q-.5.17-1.19.17-2.22 0-2.22-1.3 0-.32.2-.59t.65-.56ZM3.13-.6q.29 0 .59-.21t.62-.64q.35-.45.54-.86.18-.4.3-1 .15-.6.15-1.05t-.2-.67q-.19-.2-.65-.2-.6 0-1.07.48t-.75 1.31a5 5 0 0 0-.27 1.63q0 .6.17.9.19.3.56.3m0 0"/>
    <path id="z" d="M2.05-6.7q.15-.62.14-.86 0-.25-.16-.35Q1.88-8 1.5-8l.08-.32 1.47-.04h.34l-1 4.06.06.01q.57-.73 1.05-1.06.5-.34 1-.34.54 0 .84.33.3.31.3.85 0 .38-.17 1.05l-.38 1.55a4 4 0 0 0-.17.89q0 .24.08.34.07.12.25.11a.6.6 0 0 0 .36-.14q.2-.15.58-.55l.33.33q-.57.58-.93.82-.35.21-.8.21a.8.8 0 0 1-.62-.26 1 1 0 0 1-.22-.7q0-.38.2-1.13l.24-1q.15-.54.19-.81.04-.28.04-.44 0-.42-.14-.6-.12-.16-.43-.17a1 1 0 0 0-.53.2q-.3.21-.63.62a3.6 3.6 0 0 0-.8 1.67L1.55 0h-1Zm0 0"/>
    <path id="v" d="M3.1-2.4a1 1 0 0 0-.13-.32.4.4 0 0 0-.14-.12l-.27-.04h-.4L1.55 0h-1l1.5-6.7.1-.52q.04-.2.04-.34 0-.25-.16-.35Q1.88-8 1.5-8l.08-.32 1.47-.04h.34l-1.14 5.1h.19q.43 0 .98-.37.55-.39.88-.72T4.63-5q0-.28-.41-.31l.08-.3h1.89l.1.3q-.48.44-1.02.86L3.8-3.33l.58 2.11q.06.29.13.4.05.12.12.18.08.05.2.05.16 0 .36-.16.21-.17.49-.47l.33.33q-.54.55-.88.77-.35.21-.66.21a1 1 0 0 1-.64-.21 2 2 0 0 1-.37-.77Zm0 0"/>
    <path id="x" d="M1-1.83q0 .72.33 1.08.33.34 1.03.34.79 0 1.25-.43.45-.45.45-1.2 0-.37-.12-.63a2 2 0 0 0-.38-.53 6 6 0 0 0-.73-.58 5 5 0 0 1-.74-.56q-.28-.3-.45-.64-.16-.36-.16-.79 0-.7.33-1.21.33-.54.94-.82.61-.3 1.4-.3a6 6 0 0 1 2.02.33l-.33 1.5h-.56q-.01-.5-.16-.78a1 1 0 0 0-.35-.4 1.4 1.4 0 0 0-.64-.13q-.49 0-.86.2t-.57.55q-.18.33-.18.75 0 .45.23.78t.9.78q.55.4.85.7.3.33.45.68.14.34.14.81 0 .71-.34 1.28-.34.55-.97.85-.6.3-1.4.3Q1.83.1 1.2 0A7 7 0 0 1 .1-.22l.34-1.6Zm0 0"/>
    <path id="w" d="m1.66-.22-.61 2.75H.09l1.2-5.3q.18-.93.59-1.56t1-1q.6-.37 1.4-.37.56 0 1 .23t.66.67q.21.45.22 1.08 0 1-.4 1.9a3.4 3.4 0 0 1-1.09 1.4q-.69.51-1.54.51a4 4 0 0 1-1.47-.3M2.2-2.5l-.2.95-.03.2-.02.2q0 .37.3.57t.83.2q.6 0 1.06-.48t.72-1.34.26-1.72q0-.37-.07-.66a1 1 0 0 0-.3-.47 1 1 0 0 0-.62-.18q-.23 0-.43.07t-.42.29q-.23.19-.42.51-.21.31-.36.75T2.2-2.5m0 0"/>
    <path id="A" d="M3.83.1q-.7 0-1.28-.24t-.99-.72A4 4 0 0 1 .92-2.1 7 7 0 0 1 .7-3.94q0-1.29.4-2.23T2.22-7.6q.75-.5 1.72-.5 1.05 0 1.75.46.72.46 1.08 1.35t.36 2.17q0 1.38-.4 2.33-.41.94-1.16 1.4Q4.83.1 3.83.1M1.9-4.1q0 1.8.51 2.74.53.94 1.55.94.62 0 1.06-.4t.67-1.2.24-1.84a7 7 0 0 0-.27-2.1q-.25-.86-.7-1.23-.45-.39-1.05-.39-.53 0-.92.25-.38.25-.62.7-.24.46-.36 1.1T1.9-4.1m0 0"/>
    <clipPath id="o">
      <path d="M119 204h7v9.32h-7Zm0 0"/>
    </clipPath>
  </defs>
  <path fill="#fff" fill-rule="evenodd" stroke="#000" stroke-linejoin="round" stroke-miterlimit="10" d="M67.93 257.67a35.39 35.39 0 1 1 70.8 0 35.4 35.4 0 0 1-70.8 0Zm0 0"/>
  <use xlink:href="#n" x="147.81" y="200.03"/>
  <path d="M144.41 187.69v21.74h-.75v-21.74Zm-.36 21.74 2-2-2 6-2-6Zm0 0"/>
  <path fill="none" stroke="#000" stroke-linejoin="round" stroke-miterlimit="10" stroke-width="1.5" d="M81.18 192.84h43.93"/>
  <path fill="none" stroke="#000" stroke-linejoin="round" stroke-miterlimit="10" stroke-width=".75" d="m84.87 192.95 8.17-7.42m7.39 7.37 8.19-7.42m-16.03 7.45 8.18-7.42m7.33 7.44 8.19-7.42m-.09 7.32 8.18-7.42"/>
  <path d="m134.26 240.42-30.97-46.88.63-.42 30.97 46.89Zm1.97-1.31c.92 1.37.91 3 0 3.6-.93.61-2.41-.01-3.32-1.4-.92-1.38-.91-2.99 0-3.6.93-.6 2.41.02 3.32 1.4m0 0"/>
  <g clip-path="url(#o)">
    <use xlink:href="#q" x="119.16" y="213.22"/>
  </g>
  <path d="M103.92 258.36v-3h-.75v3Zm0-5.25v-3h-.75v3Zm0-5.24v-3h-.75v3Zm0-5.25v-3h-.75v3Zm0-5.24v-3h-.75v3Zm0-5.24v-3h-.75v3Zm0-5.25v-3h-.75v3Zm0-5.24v-3h-.75v3Zm0-5.25v-3h-.75v3Zm0-5.24v-3h-.75v3Zm0-5.25v-3h-.75v3Zm0-5.24v-3h-.75v3Zm0-5.24v-3h-.75v3Zm-2.37 62.93 2 2 2-2-2-2Zm0 0"/>
  <use xlink:href="#r" x="118.68" y="243.66"/>
  <use xlink:href="#s" x="137.02" y="237.19"/>
  <path fill="none" stroke="#000" stroke-dasharray="2.99658 2.247435" stroke-linejoin="round" stroke-miterlimit="10" stroke-width=".75" d="m132.26 241.52-28.65 16.84"/>
  <path fill="none" stroke="#000" stroke-linejoin="round" stroke-miterlimit="10" d="M138.62 257.68c1.33 5-13.41 9.35-32.92 9.69s-36.4-3.46-37.72-8.46l-.07-.46"/>
  <path fill="none" stroke="#000" stroke-dasharray="3.99544 2.99658" stroke-linejoin="round" stroke-miterlimit="10" d="M68.14 259.32c-1.32-5.01 13.42-9.34 32.93-9.68s36.38 3.44 37.71 8.45q.06.23.07.46"/>
  <path fill="none" stroke="#000" stroke-linejoin="round" stroke-miterlimit="10" stroke-width="1.5" d="m80.12 510.47 26.24.07"/>
  <path fill="none" stroke="#000" stroke-linejoin="round" stroke-miterlimit="10" stroke-width=".75" d="m82.25 510.54 6.2-5.6m-.54 5.61 6.2-5.7m5.61 5.67 6.21-5.7m-12.24 5.72 6.2-5.7"/>
  <path fill="none" stroke="#000" stroke-linejoin="round" stroke-miterlimit="10" d="m86.27 531.43 14.35 6.37m-14.35 21.72 7.34 3.02m-7.45-12.44 14.3 6.38M86.4 540.77l14.31 6.37M86.08 531.7l14.08-3.44m-13.51 12.89 14.03-3.4m-14.06 12.53 14.04-3.4M86.1 559.94l14.04-3.42M93.3 525.5l7.32 3"/>
  <path d="M92.97 525.73v-13.94h1v13.94Zm-2.5-13.94c0-1.11 1.34-2 3-2s3 .89 3 2-1.34 2-3 2-3-.9-3-2m0 0"/>
  <path fill="none" stroke="#000" stroke-linejoin="round" stroke-miterlimit="10" d="M93.54 576.2v-13.92"/>
  <use xlink:href="#s" x="112.09" y="578.13"/>
  <use xlink:href="#v" x="76.62" y="548.64"/>
  <path fill="#d9d9d9" fill-rule="evenodd" d="M66.43 630.12h64.25v-40.4H66.43Zm0 0"/>
  <path fill="#7f7f7f" fill-rule="evenodd" stroke="#000" stroke-linejoin="round" stroke-miterlimit="10" stroke-width="1.5" d="M79.6 609.84h28.05v-34.3H79.6Zm0 0"/>
  <use xlink:href="#n" x="117.49" y="538.58"/>
  <path d="M114.03 525.77v21.76h-.75v-21.76Zm-.38 21.76 2-2-2 5.99-2-6Zm0 0"/>
  <use xlink:href="#w" x="116.41" y="621.16"/>
  <use xlink:href="#x" x="90.76" y="621.4"/>
  <use xlink:href="#z" x="83.69" y="596.23"/>
  <use xlink:href="#A" x="82.73" y="522.03"/>
</svg>
