<svg xmlns="http://www.w3.org/2000/svg" xmlns:xlink="http://www.w3.org/1999/xlink" width="230" height="330" viewBox="0 0 230 330">
  <defs>
    <path id="q" d="m1.66-.22-.61 2.75H.09l1.2-5.3q.18-.93.59-1.56t1-1q.6-.37 1.4-.37.56 0 1 .23t.66.67q.21.45.22 1.08 0 1-.4 1.9a3.4 3.4 0 0 1-1.09 1.4q-.69.51-1.54.51a4 4 0 0 1-1.47-.3M2.2-2.5l-.2.95-.03.2-.02.2q0 .37.3.57t.83.2q.6 0 1.06-.48t.72-1.34.26-1.72q0-.37-.07-.66a1 1 0 0 0-.3-.47 1 1 0 0 0-.62-.18q-.23 0-.43.07t-.42.29q-.23.19-.42.51-.21.31-.36.75T2.2-2.5m0 0"/>
    <path id="z" d="M4.1-.94q.3 0 .48-.03.16-.04.28-.12l.17-.2.16-.43h.48L5.57 0H.76v-.28q.26-.6.69-1.25.42-.66 1.22-1.53.67-.75.96-1.14.33-.42.49-.72a2.4 2.4 0 0 0 .31-1.13q0-.45-.14-.78t-.44-.53a1.3 1.3 0 0 0-.71-.19q-1.14 0-1.5 1.22h-.7v-1.12a6 6 0 0 1 2.44-.64q1.07 0 1.64.48.56.46.56 1.38 0 .3-.06.57-.07.28-.2.52-.14.25-.37.55T4.47-4l-.92 1Q2.42-1.8 1.9-.94Zm0 0"/>
    <path id="p" d="M1.92-3.17q-.66.3-1.54.64l-.15-.49q.94-.3 1.82-.73l.36-1.66q.32-1.48.92-2.2t1.42-.73q.39 0 .64.17.26.15.38.44.1.28.1.62 0 .55-.25 1.14-.25.6-.87 1.19-.6.58-1.78 1.19l-.38 1.7q-.12.58-.12.86 0 .24.08.34.07.12.25.11.15 0 .3-.08t.3-.21l.32-.35.36-.5.4.31q-.4.57-.7.86t-.64.47-.72.17q-.45 0-.69-.26A1 1 0 0 1 1.5-.9q0-.45.16-1.14Zm1.17-.99q.97-.6 1.49-1.4.53-.81.53-1.7 0-.3-.11-.46a.4.4 0 0 0-.33-.17.7.7 0 0 0-.5.23 2 2 0 0 0-.39.68q-.18.45-.33 1.2Zm0 0"/>
    <path id="m" d="M1.44.5q-.12.14-.19.27a1 1 0 0 0-.14.55q0 .44.31.63.3.2.96.2.71 0 1.15-.32T4.28.8q.3-.72.61-2.2h-.08q-.58.78-1.06 1.13A1.7 1.7 0 0 1 2.7.1q-.64 0-1-.48a2.3 2.3 0 0 1-.34-1.38q0-.99.39-1.92.39-.91 1.08-1.47a2.5 2.5 0 0 1 2.26-.45q.33.08.66.3l.53-.4.38.1-.6 2.74-.3 1.43Q5.54-.2 5.39.31T5 1.23a2.6 2.6 0 0 1-1.42 1.22q-.5.17-1.19.17-2.22 0-2.22-1.3 0-.32.2-.59t.65-.56ZM3.13-.6q.29 0 .59-.21t.62-.64q.35-.45.54-.86.18-.4.3-1 .15-.6.15-1.05t-.2-.67q-.19-.2-.65-.2-.6 0-1.07.48t-.75 1.31a5 5 0 0 0-.27 1.63q0 .6.17.9.19.3.56.3m0 0"/>
    <path id="w" d="M4.9-3.05V.33h-.84v-3.38H.88v-.78h3.18V-7.2h.85v3.37h3.18v.78Zm0 0"/>
    <path id="B" d="M4.9-1.17q-.56.63-1.15.95A3 3 0 0 1 2.39.1q-.84 0-1.31-.51A2 2 0 0 1 .6-1.87q0-.63.22-1.35.23-.71.69-1.28a3 3 0 0 1 1.1-.9q.64-.3 1.36-.3.7 0 1.05.3.36.28.36.88a1.6 1.6 0 0 1-.94 1.5q-.92.5-2.76.49-.07.37-.06.76 0 .6.23.9.23.28.78.28t.98-.24.93-.72ZM1.79-3.03q.82 0 1.42-.14t.9-.46q.34-.3.34-.85a1 1 0 0 0-.17-.55.6.6 0 0 0-.5-.2q-.6 0-1.14.59-.55.6-.85 1.6m0 0"/>
    <path id="E" d="M.88-3.05v-.78h7.21v.78Zm0 0"/>
    <path id="L" d="M4.1-1.5q-.55.83-1.07 1.22-.5.37-1.06.37-.64 0-1-.48A2.3 2.3 0 0 1 .6-1.77q0-.99.39-1.92a3.6 3.6 0 0 1 1.1-1.47 2.5 2.5 0 0 1 2.2-.46q.3.06.62.25l.3-1.36a5 5 0 0 0 .12-.83q0-.17-.07-.27a.3.3 0 0 0-.2-.12 2 2 0 0 0-.41-.07l.07-.3 1.47-.05h.35L5.09-1.9q-.14.58-.14.86 0 .24.08.34.07.12.25.11a.6.6 0 0 0 .36-.14q.2-.15.58-.55l.33.33q-.55.57-.92.8t-.79.23a.8.8 0 0 1-.57-.23 1 1 0 0 1-.22-.64q0-.33.12-.69Zm.4-2.06q.08-.42.08-.8 0-.46-.19-.67-.18-.2-.64-.2-.6 0-1.08.48-.46.48-.75 1.31a5 5 0 0 0-.26 1.63q0 .6.15.9.17.3.56.3.19 0 .38-.08t.4-.25q.19-.17.38-.42a7 7 0 0 0 .67-1.1q.14-.37.24-.85Zm0 0"/>
    <path id="F" d="M2.13-5.6 4.2-1.04l2.9-10h1.48v.78H7.53L4.38.5H3.8L1.38-4.72l-.99.44-.19-.44Zm0 0"/>
    <path id="K" d="M.94-6.34v-1.11q.66-.33 1.26-.49t1.14-.15q.68 0 1.16.2.5.21.77.6.26.36.26.92a1.9 1.9 0 0 1-.76 1.53 5 5 0 0 1-.93.54v.05q.36.08.7.23.31.15.57.4.27.24.42.59t.16.78q0 .68-.3 1.2-.3.54-.9.85T3 .1A6 6 0 0 1 .84-.34v-1.23h.7q.21.6.54.89.33.27.92.26.76 0 1.16-.4.38-.42.39-1.24 0-.85-.52-1.3t-1.51-.46H2v-.52q.78-.04 1.33-.3.54-.26.8-.67.26-.4.26-.9 0-.64-.34-.99-.35-.36-1-.36-.57 0-.9.3-.35.3-.5.9Zm0 0"/>
    <path id="u" d="M4.86-1.05v.38q0 .1.05.19l.06.12q.04.05.12.08l.25.08V0H3.6v-.2q.24-.06.33-.13a.4.4 0 0 0 .13-.22q.03-.14.03-.5v-1.73H1.77v1.73l.01.43q0 .12.06.2.04.06.13.12.1.05.28.1V0H.5v-.2q.27-.06.34-.14.1-.1.11-.24.03-.15.03-.47v-3.6l-.01-.4a.4.4 0 0 0-.06-.2.3.3 0 0 0-.14-.12l-.27-.1v-.2h1.75v.2q-.17.04-.27.1l-.12.1-.08.2-.01.43v1.47h2.3v-1.47q0-.36-.02-.49a.3.3 0 0 0-.13-.2 1 1 0 0 0-.33-.14v-.2h1.75v.2a1 1 0 0 0-.32.14q-.1.06-.13.2t-.03.49Zm0 0"/>
    <path id="v" d="M3.72-.7a4 4 0 0 1-.49.43q-.21.17-.48.25-.26.09-.6.08-.84 0-1.27-.5Q.43-.95.44-1.97q0-.6.22-1.08.21-.48.62-.73.42-.27.95-.27.43 0 .72.14.3.13.47.36.17.24.27.6.1.35.12.9H1.2v.08q0 .49.1.83.12.33.37.51.24.2.65.2.34 0 .61-.13.28-.13.55-.42Zm-.69-1.7a3 3 0 0 0-.12-.73 1 1 0 0 0-.25-.43.7.7 0 0 0-.46-.16q-.43 0-.7.35a2 2 0 0 0-.3.98Zm0 0"/>
    <path id="r" d="M.44 0v-.2Q.72-.28.8-.4q.1-.15.1-.52v-2.14q0-.39-.12-.52-.1-.14-.34-.19v-.2h1.81q.85 0 1.23.22.38.23.38.73 0 .6-.75.9v.04q.87.24.87.97 0 .55-.39.83Q3.21 0 2.27 0ZM1.6-3.66v1.43h.5q.56 0 .78-.2.22-.18.22-.54t-.23-.53-.79-.17Zm0 1.74v1.6h.53q.6 0 .84-.2a.8.8 0 0 0 .24-.6q0-.39-.24-.6-.21-.2-.78-.2Zm0 0"/>
    <path id="M" d="M4.1-1.5q-.55.83-1.07 1.22-.5.37-1.06.37-.64 0-1-.48A2.3 2.3 0 0 1 .6-1.77q0-.99.39-1.92a3.6 3.6 0 0 1 1.1-1.47 2.5 2.5 0 0 1 2.2-.46q.3.06.62.25l.3-1.36a5 5 0 0 0 .12-.83q0-.17-.07-.27a.3.3 0 0 0-.2-.12 2 2 0 0 0-.41-.07l.07-.3 1.47-.05h.35L5.09-1.9q-.14.58-.14.86 0 .24.08.34.07.12.25.11a.6.6 0 0 0 .36-.14q.2-.15.58-.55l.33.33q-.55.57-.92.8t-.79.23a.8.8 0 0 1-.57-.23 1 1 0 0 1-.22-.64q0-.33.12-.69Zm.4-2.06q.08-.42.08-.8 0-.46-.19-.67-.18-.2-.64-.2-.6 0-1.08.48-.46.48-.75 1.31a5 5 0 0 0-.26 1.63q0 .6.15.9.17.3.56.3.19 0 .38-.08t.4-.25q.19-.17.38-.42a7 7 0 0 0 .67-1.1q.14-.37.24-.85Zm0 0"/>
    <clipPath id="n">
      <path d="M99 117h7v8.82h-7Zm0 0"/>
    </clipPath>
    <clipPath id="A">
      <path d="M84 309h5.66v7H84Zm0 0"/>
    </clipPath>
  </defs>
  <path fill="none" stroke="#000" stroke-linejoin="round" stroke-miterlimit="10" stroke-width="1.5" d="M112.38 167.05H68.46"/>
  <path fill="none" stroke="#000" stroke-linejoin="round" stroke-miterlimit="10" stroke-width=".75" d="m109.03 166.94-8.19 7.42m-7.39-7.37-8.17 7.42m16.02-7.46-8.17 7.42m-7.03-7.43-8.16 7.42m.41-7.32-8.17 7.41"/>
  <use xlink:href="#m" x="79.85" y="95.99"/>
  <path d="M76.43 83.28v21.74h-.75V83.28Zm-.38 21.74 2-2-2 6-2-6Zm0 0"/>
  <path fill="none" stroke="#000" stroke-linejoin="round" stroke-miterlimit="10" stroke-width=".75" d="m115.1 107.83-25.4 58.4"/>
  <g clip-path="url(#n)">
    <use xlink:href="#p" x="99.39" y="125.72"/>
  </g>
  <path fill="#f2f2f2" fill-rule="evenodd" stroke="#000" stroke-linejoin="round" stroke-miterlimit="10" d="M109.54 91.24c2.4-7.56 8.91-12.24 14.56-10.45 5.64 1.79 8.28 9.36 5.9 16.92-2.4 7.55-8.92 12.22-14.56 10.45-5.65-1.79-8.28-9.36-5.9-16.92Zm0 0"/>
  <path fill="none" stroke="#000" stroke-dasharray="2.99658 2.247435" stroke-linejoin="round" stroke-miterlimit="10" stroke-width=".75" d="M89.65 108.55v58.93"/>
  <use xlink:href="#q" x="117.49" y="139.14"/>
  <use xlink:href="#r" x="123.72" y="141.54"/>
  <use xlink:href="#q" x="111.61" y="95.15"/>
  <use xlink:href="#u" x="117.97" y="97.55"/>
  <use xlink:href="#v" x="123.84" y="97.55"/>
  <path fill="none" stroke="#000" stroke-linejoin="round" stroke-miterlimit="10" stroke-width=".5" d="M89.98 146.68c2.42-.13 5.15.36 7.57 1.37"/>
  <path fill="none" stroke="#000" stroke-dasharray="2.99658 2.247435" stroke-linejoin="round" stroke-miterlimit="10" stroke-width=".75" d="M94.1 247.19h90.25m-93.37-1.29v54.29m.81 1.31h90.25"/>
  <use xlink:href="#w" x="68.11" y="315.13"/>
  <use xlink:href="#z" x="77.1" y="315.13"/>
  <g clip-path="url(#A)">
    <use xlink:href="#B" x="83.69" y="315.13"/>
  </g>
  <use xlink:href="#E" x="71.1" y="243.54"/>
  <use xlink:href="#B" x="80.09" y="243.54"/>
  <path fill="none" stroke="#000" stroke-dasharray="2.99658 2.247435" stroke-linejoin="round" stroke-miterlimit="10" stroke-width=".75" d="M184.86 247.23v54.3"/>
  <path fill="#fff" fill-rule="evenodd" stroke="#000" stroke-linejoin="round" stroke-miterlimit="10" stroke-width="1.5" d="M87.24 246.6a3.54 3.54 0 1 1 7.08 0 3.54 3.54 0 0 1-7.08 0Zm93.06.3a4.24 4.24 0 1 1 8.49-.02 4.24 4.24 0 0 1-8.49.01Zm-93.87 54.28a4.24 4.24 0 1 1 8.48 0 4.24 4.24 0 0 1-8.48 0Zm94.54.37a3.54 3.54 0 1 1 7.07 0 3.54 3.54 0 0 1-7.07 0Zm0 0"/>
  <use xlink:href="#F" x="127.07" y="316.45"/>
  <use xlink:href="#K" x="134.99" y="316.33"/>
  <path fill-rule="evenodd" d="M134.96 306.21h6.6v-.84h-6.6Zm0 0"/>
  <use xlink:href="#L" x="141.58" y="316.33"/>
  <use xlink:href="#M" x="79.85" y="276.74"/>
  <use xlink:href="#w" x="186.89" y="240.79"/>
  <use xlink:href="#z" x="195.91" y="240.79"/>
  <use xlink:href="#B" x="202.5" y="240.79"/>
  <use xlink:href="#E" x="188.44" y="312.01"/>
  <use xlink:href="#B" x="197.46" y="312.01"/>
</svg>
