<svg xmlns="http://www.w3.org/2000/svg" xmlns:xlink="http://www.w3.org/1999/xlink" width="595.32" height="841.92" viewBox="0 0 595.32 841.92">
  <defs>
    <path id="a" d="M2.55-7.56h5.78l-.06.2q-.46.02-.72.2t-.5 1.07L5.8-1.62q-.2.69-.2.95.01.45.8.47l-.06.2H3.58l.06-.2q.55-.03.73-.25.2-.23.46-1.11L6.4-7.17H3.83q-.21 1.2-.92 3.6T1.73-.54Q1.3.1.7.09.22.1-.08-.19a1 1 0 0 1-.3-.67q0-.23.16-.39.15-.16.38-.16.45 0 .59.66.06.34.23.34.25 0 .57-.51.33-.52 1.03-2.95.71-2.46.72-2.97 0-.25-.14-.36-.15-.13-.66-.16Zm0 0"/>
    <path id="c" d="m5.64-7.73-.56 6.3q-.04.44-.03.57 0 .23.08.33.08.18.26.25T6-.2l-.07.2H3.08l.04-.2h.13q.34 0 .56-.16.16-.11.25-.36.06-.16.11-.81l.08-.95H2.19l-.74 1.04q-.24.35-.32.5-.07.15-.07.28 0 .19.14.32.15.12.47.14l-.06.2H-.53l.06-.2q.39-.01.69-.27t.9-1.12l4.33-6.14ZM4.58-5.87 2.48-2.9H4.3Zm0 0"/>
    <path id="d" d="m3.55-7.16-.83 2.99h.67q.73 0 1.05-.22.33-.24.56-.86h.2l-.75 2.73h-.2q.1-.34.1-.57a1 1 0 0 0-.1-.4.5.5 0 0 0-.27-.2q-.15-.08-.67-.08h-.7l-.69 2.5q-.1.37-.1.55 0 .16.13.27.1.08.46.08h.64q1.03 0 1.65-.4.64-.38 1.14-1.34h.2L5.33 0H-.25l.08-.2q.4-.02.56-.08a1 1 0 0 0 .3-.27q.16-.21.34-.95l1.28-4.56q.15-.55.14-.85a.4.4 0 0 0-.14-.32q-.14-.13-.54-.13h-.11l.06-.2h5.2l-.45 1.83h-.2q.04-.26.04-.44 0-.3-.14-.5-.18-.25-.53-.4-.25-.08-1.19-.09Zm0 0"/>
    <path id="b" d="M-.1 0H3c1.72 0 2.9-.92 2.9-2.3 0-.83-.34-1.25-1.37-1.72.77-.2 1.1-.34 1.44-.65q.47-.43.47-1.13c0-1.1-.78-1.68-2.19-1.68H1.42v.18c.69.07.85.14.85.47 0 .17-.05.46-.13.74L.8-1.03C.6-.36.53-.3-.1-.2Zm2.7-3.8q1.07 0 1.4.14c.45.2.72.7.72 1.32 0 1.25-.81 2-2.14 2q-.7 0-.7-.49 0-.22.37-1.6c.16-.5.23-.84.36-1.37m.82-3.01c.08-.25.2-.33.63-.33.89 0 1.28.39 1.28 1.25 0 .64-.25 1.16-.74 1.44-.36.22-.9.3-1.87.3Zm0 0"/>
    <path id="e" d="M5.08-1.27c-.61.72-.72.82-.9.82q-.2-.01-.21-.24c0-.19.34-1.53.72-2.81.25-.92.47-1.75 1.08-4.27l-.05-.06c-.58.13-.97.19-1.67.27v.2c.6.02.67.05.67.3 0 .15-.02.18-.16.8L4.08-4.4c-.1-.49-.28-.66-.72-.66C1.94-5.05.17-2.89.17-1.17c0 .81.44 1.3 1.14 1.3.75 0 1.24-.36 1.97-1.52-.1.6-.14.76-.14 1.03 0 .3.19.52.47.52.45 0 1.03-.49 1.6-1.32ZM3.4-4.78q.49.02.5.64C3.9-2.4 2.77-.42 1.75-.42c-.37 0-.62-.3-.62-.75 0-.95.54-2.28 1.26-3.1.3-.32.7-.54 1.02-.51m0 0"/>
  </defs>
  <path fill="none" stroke="#000" stroke-miterlimit="10" stroke-width=".72" d="M94.75 79.39c3.86-17.26 3.9-38.63.12-56m-.38 56c-3.86-17.26-3.9-38.63-.12-56m75.79 58.93v-60.2" transform="matrix(.9111 0 0 -.9519 363.29 658.4)"/>
  <path fill="#fff" fill-rule="evenodd" stroke="#000" stroke-miterlimit="10" stroke-width=".24" d="M6.96 54.78a5.37 5.37 0 0 0 5.28 5.46 5.37 5.37 0 0 0 5.28-5.46 5.37 5.37 0 0 0-5.28-5.46 5.4 5.4 0 0 0-5.28 5.46Zm0 0" transform="matrix(.9111 0 0 -.9519 363.29 658.4)"/>
  <path fill="none" stroke="#000" stroke-miterlimit="10" stroke-width=".72" d="M12.24 58.8v-7.94" transform="matrix(.9111 0 0 -.9519 363.29 658.4)"/>
  <path fill="none" stroke="#000" stroke-miterlimit="10" stroke-width=".24" d="M11.9 58.32 6.6 56.1m5.06-4.81-5.3 2.23" transform="matrix(.9111 0 0 -.9519 363.29 658.4)"/>
  <path fill="#5b9bd5" fill-rule="evenodd" stroke="#000" stroke-miterlimit="10" stroke-width=".24" d="M1.44 51.84h5.52v5.52H1.44Zm0 0" transform="matrix(.9111 0 0 -.9519 363.29 658.4)"/>
  <use xlink:href="#a" x="446.09" y="576.95"/>
  <use xlink:href="#b" x="372.36" y="598.68"/>
  <use xlink:href="#c" x="369.87" y="621.28"/>
  <use xlink:href="#d" x="514.97" y="576.29"/>
  <path d="M374.73 638.98h143.52v-.46H374.73Zm3.54-2.8-3.95 2.57 3.95 2.58c.1.06.23.03.3-.08a.24.24 0 0 0-.07-.31l-3.64-2.38v.39l3.64-2.38c.1-.07.13-.21.07-.32a.2.2 0 0 0-.3-.07m136.44 5.15 3.94-2.58-3.94-2.57a.2.2 0 0 0-.3.07c-.07.1-.03.25.06.32l3.65 2.38v-.4l-3.65 2.39c-.1.06-.13.2-.06.31.06.1.2.14.3.08m0 0"/>
  <use xlink:href="#e" x="446.77" y="648.8"/>
  <path fill="none" stroke="#000" stroke-dasharray="1.92 1.44 0.48 1.44" stroke-miterlimit="10" stroke-width=".48" d="M12.36 51.12h158.87" transform="matrix(.9111 0 0 -.9519 363.29 658.4)"/>
</svg>
