<svg xmlns="http://www.w3.org/2000/svg" xmlns:xlink="http://www.w3.org/1999/xlink" width="595.32" height="841.92" viewBox="0 0 595.32 841.92">
  <defs>
    <path id="a" d="M5.7-7.98a4.7 4.7 0 0 0-3.06 1.36A5.6 5.6 0 0 0 .72-2.66C.72-.96 1.82.22 3.34.22c2.5 0 4.93-2.52 5.07-5.24.07-1.68-1.1-2.96-2.7-2.96m-.1.39c.95 0 1.54.7 1.54 1.82 0 1.3-.56 3.05-1.34 4.18Q4.8-.18 3.55-.2c-1.02.01-1.57-.7-1.57-2 0-1.14.6-2.92 1.32-3.96.68-.96 1.4-1.43 2.3-1.43m0 0"/>
    <path id="f" d="M6.81-.19c-.53-.04-.76-.25-1-.86l-1.1-2.93c.92-.2 1.3-.38 1.74-.77q.6-.53.61-1.34c0-1.13-.89-1.74-2.5-1.74H1.6v.19c.5.08.57.1.68.17.09.06.17.2.17.34s-.06.43-.14.75L.8-1.08c-.22.7-.3.78-.97.9V0h2.94v-.19c-.75-.1-.83-.14-.83-.56 0-.12.03-.25.16-.69l.67-2.5.78.05L5.03 0h1.78Zm-3.1-6.93c.06-.25.21-.35.6-.35q1.5 0 1.49 1.36-.01 1.77-2.27 1.78c-.22 0-.31-.01-.6-.06Zm0 0"/>
    <path id="g" d="M5.6-1.4c-.66.8-.8.95-1 .95-.1 0-.2-.1-.2-.22 0-.13.2-.88.41-1.5.35-1.11.58-2.02.58-2.31 0-.49-.33-.8-.8-.8-.78 0-1.64.78-2.75 2.53l1.44-5.37-.06-.07c-.72.17-1.19.24-1.9.33v.19l.32-.02c.28 0 .5.13.5.32 0 .15-.06.45-.17.8-.02 0-.06.18-.13.43L.24 0h.89c.48-1.84.64-2.25 1.12-2.98.63-.96 1.44-1.7 1.86-1.7.19 0 .34.15.34.3q0 .09-.1.4L3.7-1.5q-.24.89-.25 1.1c0 .32.22.5.55.5.6 0 1.02-.32 1.75-1.37Zm0 0"/>
    <path id="c" d="M5.7-7.97c-1.01 0-2.1.47-3.06 1.34a5.6 5.6 0 0 0-1.92 4C.72-.97 1.82.22 3.34.22 5.83.22 8.25-2.3 8.4-5c.08-1.69-1.08-2.97-2.69-2.97m-.12.4c.97 0 1.55.7 1.55 1.82 0 1.28-.57 3.03-1.35 4.16Q4.8-.17 3.55-.17C2.53-.17 1.98-.9 1.98-2.2c0-1.14.58-2.9 1.32-3.96.67-.96 1.4-1.42 2.28-1.42m0 0"/>
    <path id="d" d="m2.27-4.69.76-1.73q.33-.73.49-1 .22-.36.48-.52a1 1 0 0 1 .52-.17q.2 0 .28.13.09.1.03.3-.05.14-.16.29l-.76.97L2.53-4.7Zm0 0"/>
    <path id="e" d="m5.7-1.64-.15-.06c-.44.7-.58.78-1.14.8H1.53l2.03-2.12C4.63-4.14 5.1-5.05 5.1-5.98c0-1.2-.96-2.11-2.21-2.11-.68 0-1.29.25-1.74.73-.39.4-.56.8-.76 1.64l.25.06c.48-1.17.9-1.56 1.73-1.56 1.03 0 1.7.69 1.7 1.69 0 .95-.54 2.06-1.56 3.12L.36-.14V0h4.69Zm0 0"/>
    <path id="j" d="M1.42 0h3.31v-.19c-.92 0-1.12-.12-1.14-.7v-7.19l-.09-.01-2.17 1.07v.18q.7-.27.87-.27.37 0 .36.56v5.44c-.03.75-.23.92-1.14.92Zm0 0"/>
    <path id="k" d="m5.7-1.64-.15-.06c-.44.7-.58.78-1.14.8H1.53l2.03-2.12C4.63-4.14 5.1-5.05 5.1-5.98c0-1.2-.96-2.11-2.21-2.11-.68 0-1.29.25-1.74.73-.39.4-.56.8-.76 1.64l.25.06c.48-1.17.9-1.56 1.73-1.56 1.03 0 1.7.69 1.7 1.69 0 .95-.54 2.06-1.56 3.12L.36-.14V0h4.69Zm0 0"/>
    <linearGradient id="h" x1="131.96" x2="160.76" y1="20.49" y2="20.49" gradientTransform="matrix(.9989 0 0 -.99616 268.7 672.77)" gradientUnits="userSpaceOnUse">
      <stop offset="0" stop-color="#404040"/>
      <stop offset=".69" stop-color="#a6a6a6"/>
      <stop offset="1" stop-color="#404040"/>
    </linearGradient>
    <linearGradient id="i" x1="40.52" x2="69.33" y1="20.79" y2="20.79" gradientTransform="matrix(.9989 0 0 -.99616 268.7 672.77)" gradientUnits="userSpaceOnUse">
      <stop offset="0" stop-color="#404040"/>
      <stop offset=".69" stop-color="#a6a6a6"/>
      <stop offset="1" stop-color="#404040"/>
    </linearGradient>
  </defs>
  <path fill="#5b9bd5" fill-rule="evenodd" d="M142.32 603.47c0 2.65 16.1 4.8 35.98 4.8 19.86 0 35.97-2.15 35.97-4.8v28.73c0 2.64-16.1 4.78-35.97 4.78s-35.98-2.14-35.98-4.78Zm0 0"/>
  <path fill="#9dc3e6" fill-rule="evenodd" d="M142.32 603.47c0-2.64 16.1-4.78 35.98-4.78 19.86 0 35.97 2.14 35.97 4.78s-16.1 4.8-35.97 4.8-35.98-2.15-35.98-4.8m0 0"/>
  <path fill="none" stroke="#41719c" stroke-miterlimit="10" stroke-width=".96" d="M72.48 69.49c0-2.65-16.12-4.8-36-4.8s-36 2.15-36 4.8 16.12 4.8 36 4.8 36-2.15 36-4.8Zm0 0v-28.8c0-2.65-16.12-4.8-36-4.8s-36 2.15-36 4.8v28.8" transform="matrix(.99938 0 0 -.9973 141.84 672.77)"/>
  <path fill="#5b9bd5" fill-rule="evenodd" d="M160.3 575.55c0 1.3 8.06 2.36 18 2.36s17.99-1.05 17.99-2.36v26.76c0 1.3-8.06 2.36-18 2.36s-17.99-1.06-17.99-2.36Zm0 0"/>
  <path fill="#9dc3e6" fill-rule="evenodd" d="M160.3 575.55c0-1.3 8.06-2.35 18-2.35s17.99 1.05 17.99 2.35-8.06 2.36-18 2.36-17.99-1.05-17.99-2.36m0 0"/>
  <path fill="none" stroke="#41719c" stroke-miterlimit="10" stroke-width=".96" d="M54.48 97.48c0-1.3-8.06-2.37-18-2.37s-18 1.06-18 2.37c0 1.3 8.06 2.37 18 2.37s18-1.06 18-2.37Zm0 0V70.65c0-1.3-8.06-2.36-18-2.36s-18 1.06-18 2.36v26.83" transform="matrix(.99938 0 0 -.9973 141.84 672.77)"/>
  <path fill="none" stroke="#000" stroke-miterlimit="10" stroke-width=".24" d="M36.36 113.05v-14.4m.12-62.76v-14.4" transform="matrix(.99938 0 0 -.9973 141.84 672.77)"/>
  <path fill="none" stroke="#000" stroke-dasharray="0.96 0.72" stroke-miterlimit="10" stroke-width=".24" d="M36.48 103.81v-72" transform="matrix(.99938 0 0 -.9973 141.84 672.77)"/>
  <path d="M178.18 571.04h17.53v.48h-17.53Zm13.66-2.45 4.33 2.69-4.33 2.7a.24.24 0 0 1-.33-.08.24.24 0 0 1 .08-.33l4-2.5v.41l-4-2.49a.24.24 0 0 1-.08-.33.23.23 0 0 1 .33-.07m-13.54 72.94h35.52v.48H178.3Zm31.65-2.46 4.32 2.7-4.32 2.7a.24.24 0 0 1-.33-.08.24.24 0 0 1 .08-.33l4-2.5v.41l-4-2.49a.24.24 0 0 1-.08-.33.24.24 0 0 1 .33-.08m0 0"/>
  <use xlink:href="#a" x="173.81" y="558.09"/>
  <use xlink:href="#c" x="172.37" y="662.74"/>
  <use xlink:href="#d" x="181.01" y="662.74"/>
  <use xlink:href="#e" x="191.2" y="652.52"/>
  <use xlink:href="#f" x="197.2" y="652.52"/>
  <use xlink:href="#f" x="183.02" y="569.63"/>
  <path d="M220.5 603.92v27.83h-.47v-27.83Zm-2.93 3.87 2.7-4.32 2.7 4.32c.07.1.04.26-.08.32a.24.24 0 0 1-.33-.07l-2.5-3.99h.41l-2.5 3.99a.24.24 0 0 1-.33.07.24.24 0 0 1-.07-.32m5.4 20.1-2.7 4.3-2.7-4.3a.24.24 0 0 1 .4-.25l2.5 3.98h-.4l2.5-4c.07-.1.21-.14.32-.07s.15.22.08.33m0 0"/>
  <use xlink:href="#g" x="222.48" y="622.26"/>
  <path d="M202.16 575.08v27.82h-.48v-27.82Zm-2.94 3.86 2.7-4.31 2.7 4.31a.24.24 0 1 1-.4.26l-2.5-4h.4l-2.5 4a.24.24 0 0 1-.4-.26m5.4 20.1-2.7 4.32-2.7-4.32a.24.24 0 0 1 .08-.33c.1-.07.25-.03.32.08l2.5 3.99h-.4l2.5-4a.24.24 0 0 1 .33-.07c.11.07.14.22.07.33m0 0"/>
  <use xlink:href="#g" x="204.08" y="593.3"/>
  <path fill="#bdd7ee" fill-rule="evenodd" d="M269.26 580.7c0-19.8 16.1-35.86 35.96-35.86a35.9 35.9 0 0 1 35.96 35.86c0 19.8-16.1 35.86-35.96 35.86a35.9 35.9 0 0 1-35.96-35.86m0 0"/>
  <path fill="#223f59" d="m268.76 580.7.05-1.87.14-1.85.23-1.82.33-1.78.4-1.77.5-1.72.56-1.69.65-1.65.74-1.61.8-1.58.88-1.51.95-1.49 1.02-1.42 1.08-1.37 1.14-1.32 1.21-1.27 1.27-1.2 1.32-1.14 1.38-1.07 1.43-1.02 1.48-.94 1.52-.88 1.57-.8 1.62-.73 1.65-.65 1.7-.58 1.73-.49 1.76-.4 1.8-.33 1.82-.22 1.86-.14 1.87-.05 1.88.05 1.85.14 1.82.22 1.8.34 1.77.4 1.72.49 1.7.57 1.65.65 1.62.72 1.57.81 1.53.88 1.48.94 1.43 1.02 1.37 1.07 1.32 1.15 1.27 1.2 1.21 1.26 1.15 1.32 1.08 1.37 1.01 1.42.95 1.49.89 1.51.8 1.58.73 1.6.65 1.66.57 1.68.5 1.73.4 1.76.32 1.8.23 1.81.14 1.85.05 1.87-.04 1.87-.15 1.85-.22 1.82-.33 1.78-.4 1.77-.5 1.72-.57 1.69-.65 1.65-.73 1.61-.8 1.57-.89 1.52-.95 1.48-1.01 1.43-1.08 1.36-1.15 1.32-1.2 1.27-1.28 1.2-1.32 1.15-1.37 1.07-1.43 1.02-1.48.94-1.53.88-1.57.8-1.62.73-1.65.66-1.7.56-1.73.5-1.76.4-1.8.32-1.82.23-1.85.14-1.88.05-1.87-.04-1.86-.15-1.82-.23-1.8-.32-1.76-.4-1.73-.5-1.69-.56-1.65-.66-1.62-.72-1.58-.8-1.52-.89-1.48-.94-1.43-1.02-1.38-1.07-1.32-1.15-1.27-1.2-1.2-1.27-1.15-1.32-1.08-1.36-1.02-1.43-.95-1.48-.88-1.52-.8-1.57-.74-1.61-.65-1.65-.57-1.7-.49-1.72-.41-1.76-.32-1.79-.23-1.81-.14-1.85Zm1.05 1.83v-.02l.14 1.82v-.03l.22 1.8v-.03l.31 1.77v-.03l.4 1.73v-.02l.48 1.7v-.02l.55 1.67v-.03l.64 1.63v-.02l.71 1.6-.01-.03.8 1.55-.02-.02.87 1.5v-.02l.92 1.45v-.02l1 1.4-.02-.01 1.07 1.35-.02-.02 1.13 1.3-.02-.02 1.2 1.25-.02-.01 1.25 1.18-.01-.01 1.3 1.13-.02-.02 1.36 1.06-.02-.01 1.4 1-.02-.01 1.46.93-.02-.01 1.51.86h-.02l1.55.79-.02-.02 1.6.72h-.03l1.63.64-.02-.02 1.67.57-.02-.01 1.7.48h-.03l1.75.4-.02-.01 1.77.32h-.03l1.8.22h-.03l1.83.14h-.02l1.84.04h-.02l1.85-.05h-.02l1.82-.13h-.02l1.8-.23h-.03l1.77-.31h-.02l1.73-.4-.02.01 1.7-.48h-.02l1.68-.56-.03.02 1.64-.65H319l1.6-.7h-.02l1.55-.79-.03.01 1.51-.86h-.02l1.46-.92h-.02l1.4-1-.01.02 1.36-1.06-.02.02 1.3-1.13-.02.01 1.25-1.18-.01.01 1.19-1.25-.02.02 1.13-1.3-.01.02 1.06-1.35-.01.02 1-1.4v.01l.92-1.45v.02l.86-1.5v.02l.79-1.55-.02.02.72-1.6v.03l.64-1.63v.03l.55-1.67v.02l.48-1.7v.03l.4-1.74-.01.03.32-1.77v.03l.22-1.8v.03l.14-1.82v.02l.04-1.84v.02l-.05-1.84v.02l-.13-1.82v.02l-.23-1.79v.02l-.31-1.77v.03l-.4-1.74.01.03-.48-1.7v.02l-.56-1.67v.02l-.64-1.62.01.02-.72-1.58.02.01-.8-1.54.01.02-.87-1.5.01.02-.93-1.46.01.02-1-1.4.01.02-1.06-1.35.01.01-1.13-1.3.02.02-1.2-1.25.02.02-1.25-1.18h.02l-1.3-1.12.02.02-1.36-1.06h.02l-1.4-.99h.01l-1.46-.92.02.01-1.5-.86h.02l-1.55-.78h.02l-1.6-.7h.03l-1.64-.64h.03l-1.68-.55h.03l-1.7-.48h.02l-1.74-.4h.02l-1.77-.3h.03l-1.8-.23h.02l-1.82-.14h.02l-1.85-.05h.02l-1.84.05h.02l-1.83.14h.03l-1.8.22h.02l-1.77.31h.02l-1.74.4h.03l-1.71.48h.02l-1.67.55h.03l-1.64.64h.03l-1.59.7h.02l-1.55.79.02-.01-1.5.86h.01l-1.46.92h.03l-1.41.99.02-.01-1.36 1.06.02-.02-1.3 1.13.01-.01-1.25 1.18.02-.02-1.2 1.25.02-.01-1.13 1.3.02-.02-1.07 1.35.02-.02-1 1.4v-.02l-.93 1.46.01-.01-.87 1.5.01-.03-.79 1.54.01-.01-.72 1.59.01-.02-.64 1.62v-.01l-.55 1.66v-.02l-.49 1.7v-.04l-.39 1.75v-.03l-.32 1.77.01-.03-.22 1.8v-.03l-.15 1.82v-.02l-.04 1.84v-.02Zm0 0"/>
  <path fill="#bdd7ee" fill-rule="evenodd" d="M287.24 580.7c0-9.9 8.05-17.93 17.98-17.93s17.98 8.03 17.98 17.93-8.05 17.92-17.98 17.92a17.96 17.96 0 0 1-17.98-17.92m0 0"/>
  <path fill="#223f59" d="m286.74 580.7.03-.95.07-.94.28-1.83.45-1.76.63-1.7.78-1.61.92-1.51 1.06-1.43 1.2-1.3 1.3-1.19 1.43-1.07 1.52-.91 1.62-.78 1.7-.63 1.77-.45 1.83-.27.94-.07.95-.03.95.03.94.07 1.84.27 1.77.45 1.7.63 1.61.78 1.52.91 1.42 1.07 1.32 1.19 1.2 1.3 1.06 1.43.92 1.51.78 1.62.62 1.69.45 1.76.28 1.83.08.94.02.95-.02.94-.07.95-.29 1.82-.45 1.77-.62 1.7-.78 1.6-.92 1.52-1.07 1.42-1.2 1.31-1.3 1.2-1.43 1.05-1.52.92-1.62.78-1.7.62-1.77.45-1.82.28-.95.08-.95.02-.95-.02-.94-.07-1.83-.29-1.77-.45-1.7-.62-1.62-.78-1.52-.92-1.43-1.06-1.3-1.19-1.2-1.31-1.06-1.42-.92-1.52-.78-1.6-.63-1.7-.45-1.77-.28-1.82-.07-.95Zm1.03.9v-.02l.06.91v-.04l.28 1.78-.02-.05.45 1.72-.02-.04.6 1.65-.01-.05.76 1.57-.03-.04.9 1.48-.03-.04 1.04 1.37-.03-.03 1.16 1.27-.04-.03 1.28 1.16-.04-.03 1.39 1.03-.04-.03 1.48.9-.04-.02 1.57.75-.04-.02 1.65.6-.05-.01 1.72.44h-.05l1.8.27h-.04l.9.06h-.03l.93.02h-.02l.92-.02h-.02l.91-.07h-.04l1.79-.27-.05.01 1.72-.44-.05.02 1.66-.61-.05.02 1.58-.75-.04.02 1.48-.9-.04.03 1.38-1.03-.04.03 1.28-1.16-.03.03 1.16-1.27-.03.03 1.03-1.37-.03.04.9-1.48-.02.04.76-1.57-.02.04.6-1.64-.01.05.44-1.72v.05l.27-1.79v.04l.06-.9v.02l.02-.92v.02l-.02-.92v.02l-.07-.9v.04l-.27-1.8.01.06-.44-1.72.02.05-.61-1.65.02.05-.76-1.57.02.04-.9-1.48.03.04-1.03-1.38.03.04-1.16-1.27.03.03-1.28-1.16.04.03-1.38-1.03.04.03-1.48-.9.04.03-1.58-.76.05.02-1.65-.61.05.02-1.72-.45.04.01-1.79-.26h.04l-.91-.07h.02l-.92-.02h.02l-.93.02h.03l-.9.07h.03l-1.79.26h.05l-1.72.44.05-.02-1.65.6.04-.01-1.57.76.04-.02-1.48.9.04-.04-1.39 1.03.04-.03-1.28 1.15.04-.02-1.17 1.27.04-.04-1.04 1.38.03-.04-.9 1.48.03-.04-.76 1.57.02-.05-.61 1.65.02-.05-.45 1.72.02-.05-.29 1.79.01-.04-.07.9v-.02l-.02.92v-.02Zm0 0"/>
  <path fill-rule="evenodd" d="M303.42 580.7a1.8 1.8 0 1 1 3.6 0 1.8 1.8 0 0 1-3.6 0m0 0"/>
  <path fill="#223f59" d="m302.92 580.7.05-.46.14-.44.2-.38.28-.35.35-.27.38-.21.44-.14.46-.04.46.04.43.14.4.2.34.28.28.35.21.38.14.44.04.46-.04.46-.14.43-.2.39-.29.34-.35.29-.39.2-.43.14-.46.04-.46-.04-.44-.14-.38-.2-.35-.29-.28-.34-.2-.4-.14-.42Zm1.04.3-.02-.09.1.34-.03-.09.16.3-.05-.07.22.27-.08-.08.27.22-.07-.05.3.16-.1-.03.35.1-.1-.02.36.04h-.1l.36-.04-.1.02.34-.1-.09.03.31-.16-.08.05.27-.22-.07.08.21-.27-.05.07.17-.3-.04.09.1-.34-.01.1.03-.36v.1l-.03-.36.01.1-.1-.35.04.1-.16-.3.04.07-.21-.27.07.08-.27-.22.08.05-.3-.16.08.03-.34-.1.1.02-.36-.04h.1l-.36.04.1-.02-.35.1.1-.04-.3.17.07-.05-.27.22.08-.08-.22.27.05-.07-.17.3.05-.1-.1.34.01-.09-.04.36v-.1Zm0 0"/>
  <path fill="#bdd7ee" fill-rule="evenodd" d="M342.5 580.7c0-19.8 16.1-35.86 35.95-35.86a35.9 35.9 0 0 1 35.96 35.86 35.9 35.9 0 0 1-35.96 35.86 35.9 35.9 0 0 1-35.95-35.86m0 0"/>
  <path fill="#223f59" d="m342 580.7.05-1.87.14-1.85.23-1.82.33-1.78.4-1.77.5-1.72.56-1.69.66-1.65.72-1.61.81-1.58.88-1.51.95-1.49 1.02-1.42 1.08-1.37 1.14-1.32 1.21-1.27 1.27-1.2 1.32-1.14 1.37-1.07 1.43-1.02 1.48-.94 1.53-.88 1.58-.8 1.6-.73 1.66-.65 1.7-.58 1.72-.49 1.77-.4 1.8-.33 1.82-.22 1.86-.14 1.87-.05 1.88.05 1.85.14 1.83.22 1.78.34 1.77.4 1.73.49 1.7.57 1.65.65 1.62.72 1.57.81 1.53.88 1.48.94 1.43 1.02 1.38 1.07 1.32 1.15 1.26 1.2 1.21 1.26 1.15 1.32 1.08 1.37 1 1.42.96 1.49.89 1.51.8 1.58.72 1.6.66 1.66.58 1.68.48 1.73.41 1.76.31 1.8.24 1.81.14 1.85.05 1.87-.05 1.87-.14 1.85-.23 1.82-.33 1.78-.4 1.77-.48 1.72-.58 1.69-.66 1.65-.73 1.61-.8 1.57-.88 1.52-.95 1.48-1.01 1.43-1.08 1.36-1.15 1.32-1.2 1.27-1.27 1.2-1.32 1.15-1.38 1.07-1.43 1.02-1.48.94-1.53.88-1.57.8-1.62.73-1.65.66-1.7.56-1.73.5-1.77.4-1.78.32-1.83.23-1.85.14-1.88.05-1.87-.04-1.86-.15-1.82-.23-1.79-.32-1.77-.4-1.73-.5-1.69-.56-1.66-.66-1.61-.72-1.58-.8-1.53-.89-1.48-.94-1.43-1.02-1.37-1.07-1.32-1.15-1.27-1.2-1.2-1.27-1.15-1.32-1.08-1.36-1.02-1.43-.95-1.48-.88-1.52-.8-1.57-.73-1.61-.66-1.65-.57-1.7-.5-1.72-.4-1.76-.32-1.79-.23-1.81-.14-1.85Zm1.05 1.83v-.02l.14 1.82v-.03l.22 1.8v-.03l.3 1.77v-.03l.4 1.73v-.02l.5 1.7-.02-.02.57 1.67-.01-.03.64 1.63v-.02l.71 1.6v-.03l.79 1.55-.02-.02.87 1.5-.01-.02.94 1.45-.02-.02 1 1.4v-.01l1.06 1.35-.02-.02 1.13 1.3-.01-.02 1.19 1.25-.02-.01 1.25 1.18-.02-.01 1.3 1.13-.01-.02 1.35 1.06-.02-.01 1.41 1-.01-.01 1.46.93-.02-.01 1.5.86h-.02l1.55.79-.02-.02 1.6.72h-.03l1.64.64-.03-.02 1.67.57-.02-.01 1.7.48h-.03l1.75.4-.02-.01 1.77.32h-.03l1.8.22h-.02l1.82.14h-.02l1.84.04h-.02l1.85-.05h-.02l1.83-.13h-.03l1.8-.23h-.03l1.76-.31h-.02l1.74-.4-.02.01 1.71-.48h-.03l1.68-.56-.03.02 1.64-.65h-.03l1.6-.7h-.03l1.56-.79-.02.01 1.5-.86h-.02l1.46-.92h-.02l1.4-1-.01.02 1.36-1.06-.02.02 1.3-1.13-.01.01 1.24-1.18-.02.01 1.2-1.25-.02.02 1.13-1.3-.01.02 1.06-1.35v.02l1-1.4-.02.01.94-1.45-.02.02.87-1.5-.01.02.8-1.55-.01.02.71-1.6v.03l.64-1.63-.01.03.57-1.67-.02.02.5-1.7-.02.03.4-1.74v.03l.32-1.77v.03l.22-1.8v.03l.14-1.82v.02l.04-1.84v.02l-.05-1.84v.02l-.14-1.82.01.02-.24-1.79.01.02-.31-1.77v.03l-.4-1.74.01.03-.49-1.7.02.02-.57-1.67v.02l-.63-1.62v.02l-.71-1.58v.01l-.8-1.54.02.02-.87-1.5.02.02-.94-1.46.01.02-1-1.4.01.02-1.06-1.35.01.01-1.13-1.3.02.02-1.2-1.25.02.02-1.24-1.18-1.3-1.12.03.02-1.36-1.06h.02l-1.4-.99h.01l-1.46-.92.02.01-1.5-.86h.01l-1.55-.78h.02l-1.6-.7h.04l-1.64-.64h.03l-1.68-.55h.02l-1.7-.48h.03l-1.75-.4h.02l-1.76-.3h.02l-1.8-.23h.03l-1.83-.14h.03l-1.85-.05h.02l-1.85.05h.03l-1.82.14h.02l-1.8.22h.02l-1.77.31h.02l-1.74.4h.03l-1.7.48h.01l-1.67.55h.03l-1.64.64h.03l-1.6.7h.03l-1.55.79.02-.01-1.5.86h.02l-1.46.92h.01l-1.4.99.01-.01-1.35 1.06.02-.02-1.3 1.13v-.01l-1.24 1.18.02-.02-1.2 1.25.02-.01-1.13 1.3.02-.02-1.07 1.35.01-.02-1 1.4.02-.02-.94 1.46.01-.01-.87 1.5.02-.03-.8 1.54.01-.01-.72 1.59.01-.02-.64 1.62v-.01l-.56 1.66.01-.02-.49 1.7.01-.04-.4 1.75v-.03l-.31 1.77v-.03l-.23 1.8v-.03l-.14 1.82v-.02l-.04 1.84v-.02Zm0 0"/>
  <path fill="#bdd7ee" fill-rule="evenodd" d="M360.48 580.7c0-9.9 8.05-17.93 17.97-17.93 9.94 0 17.98 8.03 17.98 17.93s-8.04 17.92-17.98 17.92a17.95 17.95 0 0 1-17.97-17.92m0 0"/>
  <path fill="#223f59" d="m359.98 580.7.02-.95.07-.94.29-1.83.45-1.76.63-1.7.77-1.61.93-1.51 1.06-1.43 1.2-1.3 1.3-1.19 1.43-1.07 1.52-.91 1.62-.78 1.7-.63 1.76-.45 1.84-.27.94-.07.95-.03.95.03.94.07 1.84.27 1.77.45 1.7.63 1.61.78 1.53.91 1.41 1.07 1.32 1.19 1.2 1.3 1.06 1.43.92 1.51.77 1.62.63 1.69.45 1.76.28 1.83.08.94.02.95-.02.94-.07.95-.29 1.82-.45 1.77-.63 1.7-.77 1.6-.92 1.52-1.06 1.42-1.2 1.31-1.32 1.2-1.4 1.05-1.54.92-1.62.78-1.7.62-1.77.45-1.82.28-.95.08-.95.02-.95-.02-.94-.07-1.84-.29-1.76-.45-1.7-.62-1.62-.78-1.52-.92-1.43-1.06-1.3-1.19-1.2-1.31-1.06-1.42-.93-1.52-.77-1.6-.63-1.7-.45-1.77-.29-1.82-.07-.95Zm1.02.9v-.02l.07.91v-.04l.27 1.78v-.05l.43 1.72-.01-.04.6 1.65-.01-.05.76 1.57-.03-.04.9 1.48-.03-.04 1.04 1.37-.03-.03 1.16 1.27-.03-.03 1.27 1.16-.04-.03 1.38 1.03-.04-.03 1.5.9-.05-.02 1.57.75-.04-.02 1.65.6-.05-.01 1.72.44h-.04l1.78.27h-.04l.91.06h-.03l.93.02h-.02l.92-.02h-.03l.92-.07h-.04l1.79-.27-.05.01 1.72-.44-.04.02 1.65-.61-.04.02 1.56-.75-.04.02 1.5-.9-.06.03 1.38-1.03-.03.03 1.28-1.16-.03.03 1.16-1.27-.03.03 1.02-1.37-.01.04.9-1.48-.03.04.75-1.57-.02.04.61-1.64v.05l.43-1.72v.05l.27-1.79v.04l.06-.9v.02l.02-.92v.02l-.02-.92v.02l-.08-.9.01.04-.27-1.8.01.06-.44-1.72.01.05-.6-1.65.01.05-.75-1.57.02.04-.9-1.48.02.04-1.02-1.38.03.04-1.16-1.27.03.03-1.28-1.16.03.03-1.38-1.03.05.03-1.49-.9.04.03-1.56-.76.04.02-1.65-.61.05.02-1.72-.45.04.01-1.8-.26h.05l-.9-.07h.01l-.92-.02h.02l-.93.02h.03l-.9.07h.03l-1.78.26h.04l-1.72.44.05-.02-1.65.6.04-.01-1.57.76.04-.02-1.49.9.04-.04-1.38 1.03.04-.03-1.27 1.15.03-.02-1.16 1.27.03-.04-1.04 1.38.03-.04-.9 1.48.03-.04-.76 1.57.02-.05-.61 1.65.01-.05-.44 1.72.01-.05-.27 1.79v-.04l-.07.9v-.02l-.02.92v-.02Zm0 0"/>
  <path fill-rule="evenodd" d="M376.65 580.7a1.8 1.8 0 0 1 3.6 0 1.8 1.8 0 0 1-3.6 0m0 0"/>
  <path fill="#223f59" d="m376.16 580.7.05-.46.13-.44.21-.38.29-.35.34-.27.38-.21.44-.14.46-.04.46.04.43.14.4.2.34.28.28.35.2.38.14.44.05.46-.05.46-.13.43-.2.39-.29.34-.35.29-.39.2-.43.14-.46.04-.46-.04-.44-.14-.38-.2-.34-.29-.29-.34-.2-.4-.14-.42Zm1.04.3-.03-.09.12.34-.05-.09.17.3-.05-.07.21.27-.07-.08.27.22-.07-.05.3.16-.1-.03.35.1-.1-.02.36.04h-.1l.36-.04-.1.02.34-.1-.09.03.31-.16-.08.05.27-.22-.07.08.21-.27-.05.07.17-.3-.04.09.11-.34-.02.1.03-.36v.1l-.03-.36.01.1-.1-.35.04.1-.17-.3.05.07-.2-.27.06.08-.27-.22.08.05-.3-.16.08.03-.34-.1.1.02-.36-.04h.1l-.36.04.1-.02-.35.1.1-.04-.3.17.07-.05-.27.22.07-.08-.2.27.04-.07-.17.3.05-.1-.1.34v-.09l-.03.36v-.1Zm0 0"/>
  <path d="m414.66 580.7.01 64.55h-.5V580.7Zm0 0"/>
  <path fill="url(#h)" d="M400.5 659.47v-14.22h28.78v14.22Zm0 0"/>
  <path fill="#223f59" d="M400 644.75h29.78v15.22H400Zm1 14.72-.5-.5h28.78l-.5.5v-14.22l.5.5H400.5l.5-.5Zm0 0"/>
  <path d="M323.45 580.7v64.55h-.5V580.7Zm0 0"/>
  <path fill-rule="evenodd" d="M443.1 653.6q-.6 0-1.08.5-.48.48-.75 1.3a5 5 0 0 0-.27 1.62q0 .6.16.9.18.3.56.3t.76-.33a4.4 4.4 0 0 0 1.33-2.36l.05-.26q.06-.24.07-.41l.02-.38q0-.45-.19-.66-.2-.21-.66-.21m-.12-.45q.38 0 .72.08.32.09.68.3l.54-.38.37.1-.86 3.7q-.13.54-.13.86 0 .23.08.33t.24.11q.18 0 .37-.14.2-.15.57-.55l.33.33a5 5 0 0 1-.9.8 1.5 1.5 0 0 1-.81.23.8.8 0 0 1-.58-.24 1 1 0 0 1-.2-.63q0-.32.12-.69l-.07-.02q-.56.83-1.07 1.2-.5.38-1.07.38-.64 0-1-.49a2.4 2.4 0 0 1-.35-1.36q0-1 .4-1.93.39-.92 1.08-1.46t1.54-.53m1.23-3.74 1.47 1.27v.33l-1.47 1.27-.31-.35.94-.81h-3.58v-.55h3.58l-.94-.81Zm4.38 6.31h.25v.42l-.02.36v3.58q0 .14.02.23l.02.16q.02.08.05.12l.07.08.14.08.22.04.32.04h.44v.38h-3.38v-.37l.43-.02.5-.07.13-.06a.4.4 0 0 0 .17-.2l.03-.16q.02-.1.02-.25v-3.05q0-.17-.06-.24a.2.2 0 0 0-.18-.06q-.14 0-.4.13l-.67.4-.1-.19-.1-.2 1.05-.58zm0 0"/>
  <path fill="url(#i)" d="M309.17 659.11v-14.1h28.77v14.1Zm0 0"/>
  <path fill="#223f59" d="M308.68 644.5h29.76v15.1h-29.76Zm1 14.61-.5-.5h28.76l-.5.5v-14.1l.5.5h-28.77l.5-.5Zm0 0"/>
  <path fill-rule="evenodd" d="M349.53 651.06q-.6 0-1.08.48-.48.5-.75 1.3a5 5 0 0 0-.27 1.63q0 .6.16.9.17.3.56.3t.76-.33a4.7 4.7 0 0 0 1.32-2.37l.06-.25a4 4 0 0 0 .08-.79q0-.45-.19-.66t-.65-.21m-.12-.46q.39 0 .71.08.33.09.68.3l.54-.38.37.1-.85 3.7q-.13.54-.13.86 0 .23.07.33t.24.1.38-.13q.2-.15.56-.55l.33.33q-.52.56-.9.8-.36.23-.8.23a.7.7 0 0 1-.58-.24 1 1 0 0 1-.21-.63q0-.33.13-.69l-.08-.02q-.56.82-1.06 1.2-.51.38-1.07.38-.64 0-1-.49a2.3 2.3 0 0 1-.35-1.36q0-1 .4-1.93.39-.92 1.08-1.46t1.54-.53m1.23-3.73 1.47 1.27v.33l-1.47 1.27-.31-.35.94-.81h-3.57v-.55h3.57l-.94-.81Zm4.4 6.28q.45 0 .76.1t.5.27.3.41.08.52q0 .16-.02.3-.03.15-.09.29t-.15.28l-.23.3-.28.31-.37.38-.43.43-.43.44a11 11 0 0 0-.67.8h1.58l.32-.02.2-.07q.08-.04.14-.15l.12-.3h.4l-.04.62-.04.6h-3.62v-.21a4 4 0 0 1 .55-.91 7 7 0 0 1 .87-.99 13 13 0 0 0 1.05-1.18q.15-.23.2-.41a1.5 1.5 0 0 0-.01-.8 1 1 0 0 0-.18-.32 1 1 0 0 0-.3-.2 1 1 0 0 0-.4-.07q-.4 0-.67.22a1.4 1.4 0 0 0-.41.62h-.56v-.83a6 6 0 0 1 1.83-.43m0 0"/>
  <path d="M343 658.57V640.5h-1v18.07Zm-.5-18.07 2 2-2-5.98-2 5.98Zm91.59 4.5.01 18.07h-1v-18.06Zm-.5 18.07 2-2-1.99 5.98-2-5.97Zm0 0"/>
  <use xlink:href="#j" x="384.42" y="583.17"/>
  <use xlink:href="#k" x="311.34" y="584.96"/>
</svg>
