<svg xmlns="http://www.w3.org/2000/svg" xmlns:xlink="http://www.w3.org/1999/xlink" width="595.32" height="841.92" viewBox="0 0 595.32 841.92">
  <defs>
    <path id="b" d="m2.05-1.66 2.3-2.67q0-.44-.16-.62-.15-.17-.53-.2v-.2h2.48v.2q-.4 0-.53.09a1 1 0 0 0-.2.2q-.08.1-.08.75v2.84q0 .63.06.75.06.13.2.22t.55.08V0h-2.6v-.22q.49 0 .65-.17t.17-.88v-2.51L2.05-1.1q0 .5.14.68.12.2.56.2V0H.27v-.22q.52 0 .67-.19.15-.18.14-.86V-4.1q0-.62-.06-.73a1 1 0 0 0-.2-.2q-.14-.1-.55-.1v-.22h2.59v.22q-.4 0-.53.08a1 1 0 0 0-.2.2q-.08.1-.08.75Zm0 0"/>
    <path id="d" d="m4.63-5.36.21 1.47h-.26q-.22-.74-.46-.9Q3.9-5 3.2-5H2.05v3.72q0 .63.06.75.06.13.2.22t.55.08V0H.19v-.22Q.74-.23.9-.39t.17-.88V-4.1q0-.56-.06-.72a.4.4 0 0 0-.24-.22q-.15-.07-.6-.1v-.2Zm0 0"/>
    <path id="e" d="M1.5-1.14a.6.6 0 0 1 .45.2q.2.2.2.46t-.2.45a.66.66 0 0 1-.92 0 .6.6 0 0 1-.19-.45.64.64 0 0 1 .66-.66m0 0"/>
    <path id="f" d="m1.4-7.16 1.93-.93h.2v6.68q0 .67.05.85.06.15.23.25.17.07.72.1V0H1.55v-.22q.56 0 .72-.1.16-.07.23-.21.06-.16.06-.88v-4.28q0-.86-.06-1.1-.03-.2-.14-.27a.4.4 0 0 0-.27-.1q-.21 0-.59.2Zm0 0"/>
    <path id="a" d="M6.45 0H3.03v-.22q.67-.01.9-.17.23-.17.24-.7-1.99 0-2.86-.83a2.8 2.8 0 0 1-.87-2.1q0-.91.51-1.57.53-.68 1.28-.93.77-.26 1.94-.26-.01-.49-.15-.64a1 1 0 0 0-.32-.22 3 3 0 0 0-.67-.08v-.22h3.42v.22q-.69.03-.9.22-.22.18-.25.72 1.26 0 1.98.28.73.29 1.24.92t.51 1.56q0 1.23-.86 2.08-.84.85-2.87.85 0 .51.23.68t.92.2ZM5.3-1.53q.86 0 1.37-.22.52-.24.85-.81.34-.6.34-1.46 0-.8-.34-1.36a2 2 0 0 0-.86-.76q-.51-.2-1.36-.2Zm-1.13 0v-4.81q-.9 0-1.4.21-.5.23-.82.75-.32.54-.32 1.36 0 .93.39 1.54.38.6.9.78.53.17 1.25.17m0 0"/>
    <path id="i" d="M1.06 0h2.49v-.14c-.7 0-.86-.1-.86-.53v-5.4H2.6L1-5.26v.13q.52-.21.64-.2.28 0 .27.41v4.08c-.02.56-.16.69-.85.69Zm0 0"/>
    <path id="g" d="m9.14-6.53.53-2.78h-.3c-.1.22-.24.3-.53.3-.12 0-.28-.02-.57-.1a7 7 0 0 0-1.64-.23c-3 0-5.7 2.8-5.7 5.93A3.5 3.5 0 0 0 4.58.25c1.44 0 2.57-.6 3.83-2.1l-.23-.18C6.92-.8 6.1-.38 4.95-.38 3.4-.37 2.5-1.43 2.5-3.24a6.7 6.7 0 0 1 1.77-4.52 3.5 3.5 0 0 1 2.48-1.07q1.94 0 2.14 2.28Zm0 0"/>
    <path id="j" d="M7.95-.22c-.6-.05-.89-.28-1.15-1.01L5.48-4.67c1.08-.24 1.55-.44 2.05-.9q.71-.62.72-1.57c0-1.31-1.03-2.02-2.92-2.02H1.86v.22c.58.08.66.1.8.2.1.07.18.24.18.4 0 .15-.06.5-.15.87L.95-1.27C.7-.44.61-.34-.19-.22V0h3.42v-.22c-.85-.12-.95-.17-.95-.67 0-.14.03-.28.17-.8l.78-2.92.93.06L5.88 0h2.07ZM4.33-8.34c.08-.3.26-.4.7-.4q1.75 0 1.75 1.58-.01 2.09-2.65 2.1c-.25 0-.36-.02-.72-.08Zm0 0"/>
    <path id="k" d="M10.13-9.16H7.02v.22a4 4 0 0 1 .76.14q.09.05.1.18c0 .32-.79 1.09-2.04 1.95l-2.12 1.5.75-2.74c.2-.68.58-.96 1.4-1.03v-.22H2.06v.22c.89.08 1.08.2 1.08.61q.01.3-.16.86l-1.72 6.2C1-.42.92-.34.09-.22V0h3.49v-.22c-.9-.1-1.02-.19-1.02-.62 0-.16.02-.25.13-.55q.02-.13.08-.3l.87-3.2 1.69 2.92c.34.58.53 1.08.53 1.35q.02.29-.64.35l-.4.05V0h3.85v-.22c-.89-.1-.97-.12-1.36-.8L4.88-5.27l4.2-3.17c.39-.3.72-.44 1.05-.5Zm0 0"/>
  </defs>
  <use xlink:href="#a" x="395.62" y="327.48"/>
  <use xlink:href="#b" x="405.09" y="327.48"/>
  <use xlink:href="#d" x="411.55" y="327.48"/>
  <use xlink:href="#e" x="416.46" y="327.48"/>
  <use xlink:href="#f" x="422.46" y="327.48"/>
  <path fill="none" stroke="#000" stroke-linejoin="round" stroke-miterlimit="10" stroke-width="2" d="M211.5 254h28.82m-28.82 9.74h28.82"/>
  <path fill="none" stroke="#000" stroke-linejoin="round" stroke-miterlimit="10" stroke-width="1.5" d="M225.74 254v-32.21M347.65 254v-32.21"/>
  <path fill="none" stroke="#000" stroke-linejoin="round" stroke-miterlimit="10" stroke-width="2" d="M333.27 254h28.82m-28.82 9.74h28.82"/>
  <path fill="none" stroke="#000" stroke-linejoin="round" stroke-miterlimit="10" stroke-width="1.5" d="M225.74 316.18v-52.44m121.91 52.44v-52.44m-121.91-41.95h121.91m-121.91 93.64h80.9m23.58 0h17.38"/>
  <path fill="none" stroke="#000" stroke-linejoin="round" stroke-miterlimit="10" stroke-width="4" d="m306.65 315.43 23.57-12.73"/>
  <path fill="#a6a6a6" fill-rule="evenodd" stroke="#000" stroke-linecap="round" stroke-miterlimit="8" stroke-width="2" d="M240.32 323.67h54.2v-17.23h-54.2Zm0 0"/>
  <use xlink:href="#g" x="369.85" y="263.59"/>
  <use xlink:href="#g" x="248.29" y="262.87"/>
  <use xlink:href="#i" x="257.64" y="264.91"/>
  <use xlink:href="#j" x="262.55" y="339.22"/>
  <use xlink:href="#k" x="314.11" y="332.51"/>
</svg>
