<svg xmlns="http://www.w3.org/2000/svg" xmlns:xlink="http://www.w3.org/1999/xlink" width="250" height="200" viewBox="0 0 250 200">
  <defs>
    <path id="l" d="M1.44.5q-.12.14-.19.27a1 1 0 0 0-.14.55q0 .44.31.63.3.2.96.2.71 0 1.15-.32T4.28.8q.3-.72.61-2.2h-.08q-.58.78-1.06 1.13A1.7 1.7 0 0 1 2.7.1q-.64 0-1-.48a2.3 2.3 0 0 1-.34-1.38q0-.99.39-1.92.39-.91 1.08-1.47a2.5 2.5 0 0 1 2.26-.45q.33.08.66.3l.53-.4.38.1-.6 2.74-.3 1.43Q5.54-.2 5.39.31T5 1.23a2.6 2.6 0 0 1-1.42 1.22q-.5.17-1.19.17-2.22 0-2.22-1.3 0-.32.2-.59t.65-.56ZM3.13-.6q.29 0 .59-.21t.62-.64q.35-.45.54-.86.18-.4.3-1 .15-.6.15-1.05t-.2-.67q-.19-.2-.65-.2-.6 0-1.07.48t-.75 1.31a5 5 0 0 0-.27 1.63q0 .6.17.9.19.3.56.3m0 0"/>
    <path id="g" d="M2.58-4.1q.54-.82 1.08-1.21.52-.4 1.07-.4.57 0 .85.34.3.3.3.92v.17q.5-.72 1-1.06.49-.36 1.04-.36.53 0 .83.3.3.32.3.88 0 .38-.18 1.05l-.39 1.55q-.15.63-.15.89 0 .24.08.34.07.12.25.11a.6.6 0 0 0 .36-.14q.2-.15.57-.55l.33.33a5 5 0 0 1-.87.78Q8.67.1 8.19.1a.8.8 0 0 1-.61-.26 1 1 0 0 1-.24-.7q0-.38.2-1.13l.26-1q.14-.55.18-.81.05-.27.05-.44 0-.4-.14-.58-.13-.18-.44-.19a1 1 0 0 0-.53.2 3 3 0 0 0-.6.57q-.3.4-.5.77t-.3.92L4.98 0H3.97l.67-2.98.17-.8q.05-.27.05-.45 0-.43-.16-.6-.15-.18-.47-.19a1 1 0 0 0-.5.2q-.28.18-.6.59-.33.4-.52.78-.18.38-.3.92L1.77 0H.75l.84-3.72q.15-.56.14-.86a.6.6 0 0 0-.07-.34q-.09-.1-.25-.11a.6.6 0 0 0-.38.16q-.2.14-.56.53l-.33-.33q.51-.53.9-.78.36-.25.8-.25.38 0 .58.25.22.23.22.62 0 .33-.12.69Zm0 0"/>
    <path id="p" d="M3.1-2.4a1 1 0 0 0-.13-.32.4.4 0 0 0-.14-.12l-.27-.04h-.4L1.55 0h-1l1.5-6.7.1-.52q.04-.2.04-.34 0-.25-.16-.35Q1.88-8 1.5-8l.08-.32 1.47-.04h.34l-1.14 5.1h.19q.43 0 .98-.37.55-.39.88-.72T4.63-5q0-.28-.41-.31l.08-.3h1.89l.1.3q-.48.44-1.02.86L3.8-3.33l.58 2.11q.06.29.13.4.05.12.12.18.08.05.2.05.16 0 .36-.16.21-.17.49-.47l.33.33q-.54.55-.88.77-.35.21-.66.21a1 1 0 0 1-.64-.21 2 2 0 0 1-.37-.77Zm0 0"/>
    <path id="h" d="M2.7 0v-.2q.27-.08.35-.2.1-.15.1-.52v-2.72h-.9q-.15 1.41-.4 2.31-.26.9-.54 1.14A1 1 0 0 1 .7.06Q.36.06.16 0v-.9h.36q.02.36.26.35.37 0 .64-1.03.28-1.05.28-1.64 0-.5-.39-.55v-.2H4.3v.2q-.27.06-.36.2t-.08.5v2.15q0 .36.08.5t.36.22V0Zm0 0"/>
    <path id="m" d="M4.06 1.34a6 6 0 0 0-.18-.86 1 1 0 0 0-.24-.37Q3.5 0 3.16 0H1.39a.7.7 0 0 0-.56.25 3 3 0 0 0-.3 1.1H.16v-1.7h.48a5 5 0 0 0 .94-2.9q0-.46-.38-.52v-.2h3.08v.2q-.27.06-.36.2-.1.14-.1.5v2.71h.63v1.7Zm-.95-4.98h-1a7 7 0 0 1-.94 3.28h1.94Zm0 0"/>
    <clipPath id="k">
      <path d="M243 78h7v8.7h-7Zm0 0"/>
    </clipPath>
  </defs>
  <path fill="#fff" fill-rule="evenodd" stroke="#000" stroke-linejoin="round" stroke-miterlimit="10" stroke-width="1.5" d="M194.89 78.52c0-4.25 3.4-7.7 7.61-7.7 4.2 0 7.62 3.45 7.62 7.7s-3.42 7.7-7.62 7.7a7.65 7.65 0 0 1-7.61-7.7Zm0 0"/>
  <path d="m192.24 86.73 10.6-7.43-.86-1.23-10.6 7.43Zm11.32-6.41a2 2 0 0 0 .49-2.78 2 2 0 0 0-2.78-.49 2 2 0 0 0-.49 2.78 2 2 0 0 0 2.78.49m0 0"/>
  <path fill="none" stroke="#000" stroke-linejoin="round" stroke-miterlimit="10" stroke-width=".75" d="M154.77 70.5h48.14"/>
  <path fill="#fff" fill-rule="evenodd" stroke="#000" stroke-linejoin="round" stroke-miterlimit="10" stroke-width="1.5" d="M125.87 85.77h28.6v-20.4h-28.6Zm0 0"/>
  <use xlink:href="#g" x="133.43" y="78.85"/>
  <use xlink:href="#h" x="143.5" y="81.25"/>
  <path fill="none" stroke="#000" stroke-linejoin="round" stroke-miterlimit="10" stroke-width=".75" d="M210.3 78.47v29.63"/>
  <path fill="none" stroke="#000" stroke-linejoin="round" stroke-miterlimit="10" stroke-width="1.5" d="M191.16 86.21H73.94"/>
  <path fill="#fff" fill-rule="evenodd" stroke="#000" stroke-linejoin="round" stroke-miterlimit="10" stroke-width="1.5" d="M222.4 101.18a7.65 7.65 0 0 1 2.1 10.61 7.66 7.66 0 0 1-10.64 2 7.66 7.66 0 0 1-2.1-10.62 7.64 7.64 0 0 1 10.63-2Zm0 0"/>
  <path d="M218.95 121.4v-13.74h-1.5v13.73Zm1.25-13.74a2 2 0 1 0-4 0 2 2 0 0 0 4 0m0 0"/>
  <path fill="none" stroke="#000" stroke-linejoin="round" stroke-miterlimit="10" stroke-width=".75" d="M226.15 53v53.8"/>
  <path fill="none" stroke="#000" stroke-linejoin="round" stroke-miterlimit="10" stroke-width="1.5" d="M207.42 53.6h37.41"/>
  <path fill="none" stroke="#000" stroke-linejoin="round" stroke-miterlimit="10" stroke-width=".75" d="m209.55 53.63 6.18-6.56m-.19 6.63 6.17-6.66m5.59 6.61 6.2-6.65m-12.21 6.68 6.19-6.65m5.72 6.67 6.19-6.66m-.32 6.56 6.2-6.65"/>
    <use xlink:href="#l" x="243.25" y="83.88"/>
  <path d="M239.95 70.85v21.76h-.75v-21.76Zm-.37 21.76 2-2-2 5.99-2-6Zm0 0"/>
  <path fill="#fff" fill-rule="evenodd" stroke="#000" stroke-linejoin="round" stroke-miterlimit="10" stroke-width="1.5" d="M206.43 141.62h23.46v-20.68h-23.46Zm0 0"/>
  <use xlink:href="#g" x="211.13" y="133.99"/>
  <use xlink:href="#m" x="221.2" y="136.38"/>
  <path fill="none" stroke="#000" stroke-linejoin="round" stroke-miterlimit="10" stroke-width="1.5" d="m191.66 153.54-.02-67.95m-117.69 1.27v-34.2"/>
  <path fill="none" stroke="#000" stroke-linejoin="round" stroke-miterlimit="10" stroke-width=".75" d="m73.7 86.12-5.6-5.65m5.94.49-5.69-5.66m5.65-5.1-5.69-5.66m5.72 10.84-5.69-5.65m5.7-4.63-5.69-5.65m5.96.29-5.69-5.65"/>
  <path fill="none" stroke="#000" stroke-linejoin="round" stroke-miterlimit="10" d="m89.92 80.85 5.16-10.14m17.58 10.14 2.45-5.19m-10.07 5.27 5.16-10.11m-12.72 9.93 5.15-10.1m-12.49 10.1-2.8-9.94m10.36 9.77-2.77-9.91m10.27 9.93-2.78-9.91m10.32 10.04-2.77-9.91m-24.85 5.06 2.43-5.17m-2.25 5.05H74.01m52.15-.05H114.9"/>
  <use xlink:href="#p" x="95.79" y="67.46"/>
</svg>
