<svg xmlns="http://www.w3.org/2000/svg" xmlns:xlink="http://www.w3.org/1999/xlink" width="595.32" height="841.92" viewBox="0 0 595.32 841.92">
  <defs>
    <path id="j" d="M5.72-6.55a2 2 0 0 0-.63-.68q-.34-.2-.82-.2-.5 0-.88.2-.36.18-.55.54-.18.35-.18.8 0 .26.07.5.09.24.27.42.2.2.52.31.32.12.84.11.46 0 1.06-.03l-.14.55-.66.22q-.6 0-1.04.06t-.85.22q-.39.14-.64.36-.23.2-.37.5t-.13.7q0 .47.2.78.22.3.57.44.34.13.75.13.5 0 .94-.15t.8-.42q.4-.25.87-.72l.36.36v.27q-.72.6-1.2.86t-.99.39q-.52.12-1.14.12-.7 0-1.22-.23-.5-.24-.78-.66a1.6 1.6 0 0 1-.28-.92q0-.84.51-1.42.53-.6 1.65-.95l-.02-.08a2 2 0 0 1-.73-.72 2 2 0 0 1-.22-.99q0-.58.45-1.09t1.19-.81 1.42-.31q.81 0 1.26.25.46.24.75.8Zm0 0"/>
    <path id="g" d="m6.98-7.8-.34 1.6h-.56q-.04-.72-.33-1.03-.27-.33-.84-.33-.82 0-1.52.81a6 6 0 0 0-1.1 2.13 8 8 0 0 0-.4 2.46q0 .9.31 1.32.33.42.99.42.43 0 .76-.13.33-.14.61-.45.3-.3.58-.87h.56L5.34-.23Q4.24.1 3.04.1q-1.1 0-1.67-.63Q.79-1.17.8-2.4a8 8 0 0 1 1.17-3.95q.56-.85 1.33-1.3.76-.45 1.68-.45.53 0 .99.06t1.01.23m0 0"/>
    <path id="w" d="M4.1-.94q.3 0 .48-.03.16-.04.28-.12l.17-.2.16-.43h.48L5.57 0H.76v-.28q.26-.6.69-1.25.42-.66 1.22-1.53.67-.75.96-1.14.33-.42.49-.72a2.4 2.4 0 0 0 .31-1.13q0-.45-.14-.78t-.44-.53a1.3 1.3 0 0 0-.71-.19q-1.14 0-1.5 1.22h-.7v-1.12a6 6 0 0 1 2.44-.64q1.07 0 1.64.48.56.46.56 1.38 0 .3-.06.57-.07.28-.2.52-.14.25-.37.55T4.47-4l-.92 1Q2.42-1.8 1.9-.94Zm0 0"/>
    <path id="t" d="M5.55 0v-.28q-.24-.6-.4-1.05L4.7-2.52q-.22-.59-.4-.85t-.42-.38a1.4 1.4 0 0 0-.66-.12H2.5v2.42q0 .7.13.89.11.16.56.28V0H.7v-.28q.41-.1.55-.25.16-.17.16-.92v-5.08q0-.76-.16-.92a1 1 0 0 0-.55-.27V-8h2.5v.28q-.4.12-.55.27t-.14.92v2.14h.7q.48 0 .75-.28.26-.28.7-1.45.37-1.1.76-1.54.38-.43 1.26-.43.27 0 .72.12v1.36h-.58q-.06-.6-.5-.6-.27 0-.47.27-.18.25-.53 1.11-.26.7-.47 1.03t-.54.55v.05q.95.3 1.48 1.45l.53 1.2a4 4 0 0 0 .52.94q.24.27.73.33V0Zm0 0"/>
    <path id="s" d="M4.67 0v-.28q.29-.06.42-.13.15-.07.22-.2.08-.12.08-.34 0-.2-.05-.43L5.2-1.9l-.22-.75H2.25l-.19.58q-.15.44-.2.66t-.05.4q0 .34.17.52.18.15.55.22V0H.03v-.28q.33-.06.56-.4.25-.31.49-.93l2.44-6.48h.93l1.99 6.53q.14.46.25.7t.26.38q.15.12.4.2V0ZM2.42-3.17h2.44L3.75-6.94Zm0 0"/>
    <path id="h" d="M3.05-1.1v.23l.03.15q0 .06.04.11l.08.08q.04.05.13.08t.2.04a5 5 0 0 0 .75.05V0H.98v-.36l.43-.02.48-.06.13-.06.09-.08.06-.1a1 1 0 0 0 .06-.41v-2.99q0-.15-.06-.22A.2.2 0 0 0 2-4.38q-.15 0-.4.15-.24.12-.65.39l-.1-.2-.08-.2 1.01-.56 1.03-.56h.25l-.01.42v.67Zm0 0"/>
    <path id="i" d="M3.02-.67q.2 0 .3-.02.13 0 .2-.06t.12-.16l.14-.28h.4q-.05.3-.05.6L4.09 0H.56v-.22a7 7 0 0 1 .53-.87 7 7 0 0 1 .86-.97l.63-.66q.25-.28.39-.5a1.4 1.4 0 0 0 .25-.8q0-.2-.06-.37a1 1 0 0 0-.18-.31 1 1 0 0 0-.28-.2 1 1 0 0 0-.4-.07 1 1 0 0 0-.66.22q-.25.21-.39.6H.7v-.82a6 6 0 0 1 1.78-.42q.44 0 .74.1t.5.27q.18.16.26.4.1.23.1.5a2 2 0 0 1-.11.57q-.05.16-.14.28t-.24.29q-.1.14-.26.3-.16.19-.36.38l-.42.42-.42.43q-.21.2-.38.4-.16.2-.27.38Zm0 0"/>
    <path id="x" d="M4.08-1.53q0 .34.03.51.05.18.14.29t.27.17.45.1l.73.04V0H1.38v-.42q.65-.03.92-.08.28-.06.42-.16.15-.09.22-.28.08-.18.08-.6v-4.74q0-.24-.1-.34a.3.3 0 0 0-.23-.11q-.19 0-.53.2-.35.18-.86.53l-.25-.45L3.78-8.1h.33q-.03.56-.03 1.56Zm0 0"/>
    <path id="y" d="M4.1-.94q.3 0 .48-.03.16-.04.28-.12l.17-.2.16-.43h.48L5.57 0H.76v-.28q.26-.6.69-1.25.42-.66 1.22-1.53.67-.75.96-1.14.33-.42.49-.72a2.4 2.4 0 0 0 .31-1.13q0-.45-.14-.78t-.44-.53a1.3 1.3 0 0 0-.71-.19q-1.14 0-1.5 1.22h-.7v-1.12a6 6 0 0 1 2.44-.64q1.07 0 1.64.48.56.46.56 1.38 0 .3-.06.57-.07.28-.2.52-.14.25-.37.55T4.47-4l-.92 1Q2.42-1.8 1.9-.94Zm0 0"/>
  </defs>
  <use xlink:href="#g" x="80.93" y="500.94"/>
  <use xlink:href="#h" x="87.16" y="503.34"/>
  <use xlink:href="#g" x="110.53" y="440.03"/>
  <use xlink:href="#i" x="117.01" y="442.43"/>
  <path fill="none" stroke="#000" stroke-linejoin="round" stroke-miterlimit="10" stroke-width="1.5" d="M85.45 526.04v11.2"/>
  <path fill="none" stroke="#000" stroke-linejoin="round" stroke-miterlimit="10" stroke-width=".75" d="M89.39 522.75v17.97"/>
  <path fill="none" stroke="#000" stroke-linejoin="round" stroke-miterlimit="10" d="M121.07 425.95H64.44m77.9 106.3V425.61m-77.9 106.63V425.5m20.15 106.52H64.77m77.42 0h-14.15m14.12-66.34h-25.48"/>
  <use xlink:href="#j" x="79.73" y="522.87"/>
  <path fill="#fff" fill-rule="evenodd" stroke="#000" stroke-linejoin="round" stroke-miterlimit="10" d="M84.58 419.21c4.08 0 7.4 3.15 7.4 7.01 0 3.88-3.32 7.03-7.4 7.03s-7.39-3.15-7.39-7.03c0-3.86 3.31-7 7.4-7Zm0 0"/>
  <use xlink:href="#s" x="80.69" y="429.6"/>
  <path fill-rule="evenodd" d="M102.4 470.88"/>
  <use xlink:href="#t" x="90.76" y="470.49"/>
  <path fill="none" stroke="#000" stroke-linejoin="round" stroke-miterlimit="10" stroke-width="1.5" d="M121.23 417.06V435m6.79-18.14v17.87"/>
  <path fill="none" stroke="#000" stroke-linejoin="round" stroke-miterlimit="10" d="M123.62 532.08H89.64"/>
  <path fill="none" stroke="#000" stroke-linejoin="round" stroke-miterlimit="10" stroke-width="1.5" d="M123.76 526.07v11.18"/>
  <path fill="none" stroke="#000" stroke-linejoin="round" stroke-miterlimit="10" stroke-width=".75" d="M127.88 522.8v17.92"/>
  <path fill="none" stroke="#000" stroke-linejoin="round" stroke-miterlimit="10" d="M102.38 531.43v-28.31"/>
  <path fill="none" stroke="#000" stroke-linejoin="round" stroke-miterlimit="10" stroke-width="1.5" d="M111.28 496.32h-17.9m18.12 6.8H93.63"/>
  <path fill="none" stroke="#000" stroke-linejoin="round" stroke-miterlimit="10" d="M102.36 496.07v-22.65m-.13-16.18v-31.15m40.13-.25H128.2"/>
  <path fill-rule="evenodd" d="M102.14 455.71a1.42 1.42 0 1 1 .01 2.83 1.42 1.42 0 0 1 0-2.83m13.31 8.5c.78 0 1.42.64 1.42 1.42s-.64 1.42-1.42 1.42a1.42 1.42 0 1 1 0-2.84m0 0"/>
  <path fill="none" stroke="#000" stroke-linejoin="round" stroke-miterlimit="10" stroke-width="2.25" d="m114.55 465.63-12.46 6.8"/>
  <use xlink:href="#w" x="112.21" y="523.11"/>
  <use xlink:href="#j" x="118.8" y="523.11"/>
  <use xlink:href="#x" x="114.73" y="462.44"/>
  <use xlink:href="#y" x="93.28" y="456.69"/>
  <use xlink:href="#V" x="99.87" y="456.69"/>
</svg>
