<svg xmlns="http://www.w3.org/2000/svg" xmlns:xlink="http://www.w3.org/1999/xlink" width="180" height="180" viewBox="0 0 180 180">
  <defs>
    <path id="p" d="M3.42.1a4 4 0 0 1-1.3-.22A3 3 0 0 1 1.2-.7a2 2 0 0 1-.53-.89 3.6 3.6 0 0 1 .03-2.3 2.5 2.5 0 0 1 1.45-1.5q.56-.24 1.28-.28v-2.3l.02-.08.08-.06q.05-.03.15-.03a2 2 0 0 1 .47 0q.1 0 .14.03.06.01.08.06t.03.08v2.3q.75.03 1.3.23.54.21.9.57.37.36.55.87a4 4 0 0 1-.01 2.33q-.18.51-.55.89-.36.38-.92.6-.56.24-1.27.29v1.84q0 .05-.03.08t-.08.05l-.14.04a2 2 0 0 1-.47 0l-.15-.04-.08-.05-.02-.08Zm.97-.79q.47-.03.83-.17a1.6 1.6 0 0 0 .98-1.02q.13-.37.13-.87 0-.45-.1-.83a1.6 1.6 0 0 0-.92-1.1 3 3 0 0 0-.92-.21Zm-.95-4.2q-.49.05-.86.19a1.6 1.6 0 0 0-.97 1.03q-.1.36-.11.86 0 .45.1.83.09.37.3.65.23.27.6.44.37.18.94.2Zm0 0"/>
    <path id="h" d="M7.6-5.05q0 .45-.08 1.02-.08.56-.27 1.14-.18.57-.52 1.1-.3.54-.78.96a3.8 3.8 0 0 1-2.6.94Q2.7.1 2.2-.05a2 2 0 0 1-.85-.5q-.33-.34-.5-.82Q.67-1.86.67-2.5q0-.5.08-1.08a7 7 0 0 1 .83-2.26q.32-.54.8-.94.45-.42 1.09-.66a4 4 0 0 1 2.62-.08 2.1 2.1 0 0 1 1.35 1.35q.17.49.17 1.12m-1.07.08q0-.4-.1-.75a2 2 0 0 0-.29-.6 1.3 1.3 0 0 0-.55-.37 2 2 0 0 0-.82-.14q-.62 0-1.08.24a2.8 2.8 0 0 0-1.35 1.4 6 6 0 0 0-.59 2.6q0 .4.1.75.08.34.3.57.21.24.54.38.33.13.83.12a2.4 2.4 0 0 0 1.84-.8q.34-.35.56-.8t.36-.91a6 6 0 0 0 .25-1.69m0 0"/>
    <path id="k" d="M6.22-6q0 .4-.11.78a2.2 2.2 0 0 1-.94 1.2 3 3 0 0 1-.8.38 1 1 0 0 1 .5.48q.2.35.3.94l.31 1.67.04.22.01.16-.03.1-.1.07-.18.02a3 3 0 0 1-.52 0l-.14-.04-.08-.07-.03-.13L4.15-2q-.04-.3-.13-.55a1 1 0 0 0-.24-.43 1 1 0 0 0-.37-.29q-.25-.1-.58-.1h-.67L1.5-.15l-.05.08q0 .03-.1.04L1.2.01A2 2 0 0 1 .56 0L.5-.06v-.08l1.4-7.03q.06-.24.2-.31.13-.1.3-.1h1.65q.53 0 .93.11t.7.3q.27.2.4.5.14.3.14.67m-1.08.16a1 1 0 0 0-.3-.66q-.15-.12-.4-.19a2 2 0 0 0-.57-.06H2.84L2.3-4.2h.9q.51 0 .87-.14.38-.14.6-.36.24-.24.35-.53t.11-.61m0 0"/>
    <path id="l" d="m8.1-.14-.04.08q-.01.03-.08.06l-.17.02a2 2 0 0 1-.6-.02q-.06-.03-.07-.06v-.08l.64-3.27.08-.62q0-.37-.14-.6t-.5-.23q-.3 0-.61.19-.3.18-.6.48a3.4 3.4 0 0 0-.8 1.69L4.72-.14l-.04.08-.1.06-.15.02a2 2 0 0 1-.6-.02q-.05-.03-.06-.06l-.02-.08.66-3.27q.04-.16.06-.34l.01-.31a1 1 0 0 0-.15-.58q-.14-.22-.5-.22-.3 0-.61.19-.3.18-.6.48a3.4 3.4 0 0 0-.8 1.69L1.33-.14l-.03.08-.1.06-.15.02A2 2 0 0 1 .46 0Q.4-.03.38-.06L.37-.14l1.07-5.28q0-.05.03-.08l.08-.05.14-.04a2 2 0 0 1 .4 0q.1 0 .13.04.04.02.06.05v.08l-.19 1q.08-.2.29-.42a3 3 0 0 1 1.06-.72 1.8 1.8 0 0 1 1.25-.02 1 1 0 0 1 .65.66q.08.23.1.5a3 3 0 0 1 .8-.83q.25-.19.57-.31a2 2 0 0 1 1.32-.02q.25.12.42.31.17.2.23.46.08.25.08.56 0 .2-.03.4l-.06.41Zm0 0"/>
    <path id="m" d="M1.81-1.02q0 .35-.15.7-.15.32-.41.65L.19 1.53q-.06.09-.19.13a1 1 0 0 1-.34.04l-.18-.01q-.05-.02-.07-.05-.03-.02-.02-.06 0-.05.05-.11L.54-.14l.13-.7.08-.25q.05-.1.1-.14l.2-.07a2 2 0 0 1 .51 0q.1.01.14.07.06.03.08.09.03.04.03.12m0 0"/>
    <path id="n" d="m4.34 1.95-.04.08-.1.05-.14.04a2 2 0 0 1-.47 0l-.14-.04-.08-.05v-.08l.38-1.9.08-.32.08-.3.07-.3.1-.25q-.1.2-.3.42A3 3 0 0 1 2.7 0a2 2 0 0 1-1.37-.02Q1.03-.15.84-.4A2 2 0 0 1 .56-1q-.1-.36-.1-.78a5 5 0 0 1 .27-1.6 5 5 0 0 1 .88-1.57q.3-.33.72-.53t.95-.2q.52 0 .9.21.36.2.65.58l.12-.53q.01-.1.13-.14a1.4 1.4 0 0 1 .55-.03q.07 0 .12.04.05.02.05.05l.01.08Zm.24-6q-.29-.4-.61-.6a1.3 1.3 0 0 0-.7-.2q-.33 0-.6.15-.25.15-.45.42a2 2 0 0 0-.35.58 6 6 0 0 0-.35 1.3q-.04.3-.04.54 0 .58.2.86.23.28.62.28.33 0 .65-.17.33-.19.61-.5.28-.3.49-.74.21-.42.33-.95Zm0 0"/>
  </defs>
  <path fill="none" stroke="#7f7f7f" stroke-miterlimit="10" d="M37.33 95.97c0-23.63 20.38-42.8 45.5-42.8 25.14 0 45.51 19.17 45.51 42.8 0 23.64-20.37 42.8-45.5 42.8s-45.51-19.16-45.51-42.8Zm0 0"/>
  <path fill="none" stroke="#000" stroke-dasharray="1.99772 1.49829" stroke-miterlimit="10" stroke-width=".5" d="m82.84 95.97 40.1 18.69m-40.1-18.69v42.8"/>
  <path fill-rule="evenodd" stroke="#000" stroke-miterlimit="10" d="M119.62 115.8c0 1.98 1.64 3.6 3.68 3.6a3.64 3.64 0 0 0 3.68-3.6c0-1.98-1.65-3.6-3.68-3.6a3.64 3.64 0 0 0-3.68 3.6Zm-39.98 22.37c0 1.99 1.65 3.6 3.68 3.6a3.64 3.64 0 0 0 3.67-3.6c0-1.99-1.65-3.6-3.67-3.6a3.63 3.63 0 0 0-3.68 3.6Zm0 0"/>
  <use xlink:href="#h" x="73.22" y="97.64"/>
  <use xlink:href="#k" x="70.94" y="122.81"/>
  <use xlink:href="#l" x="133.17" y="119.09"/>
  <use xlink:href="#m" x="142.65" y="119.09"/>
  <use xlink:href="#n" x="145.65" y="119.09"/>
  <path fill="none" stroke="#000" stroke-miterlimit="10" stroke-width=".5" d="M94.68 101.74c.84 4.78-3.84 9.59-10.45 10.76"/>
  <use xlink:href="#p" x="90.36" y="119.09"/>
</svg>
