<svg xmlns="http://www.w3.org/2000/svg" xmlns:xlink="http://www.w3.org/1999/xlink" width="595.28" height="841.89" viewBox="0 0 595.28 841.89">
  <defs>
    <path id="b" d="M2.92-6.37c0-.24 0-.25-.22-.25-.62.64-1.5.64-1.8.64v.3c.18 0 .77 0 1.29-.26v5.16c0 .36-.03.47-.92.47H.95V0c.35-.03 1.2-.03 1.61-.03.4 0 1.27 0 1.61.03v-.31h-.31c-.9 0-.94-.11-.94-.47Zm0 0"/>
    <path id="c" d="M1.27-.77 2.3-1.8c1.57-1.37 2.16-1.9 2.16-2.9 0-1.13-.9-1.92-2.11-1.92-1.13 0-1.86.9-1.86 1.8 0 .55.5.55.53.55.16 0 .52-.12.52-.53a.5.5 0 0 0-.53-.51H.89c.22-.64.77-1 1.34-1 .91 0 1.33.8 1.33 1.6s-.5 1.6-1.04 2.21L.6-.37C.5-.28.5-.23.5 0h3.69l.28-1.73h-.25c-.05.3-.13.73-.22.89-.06.07-.72.07-.94.07Zm0 0"/>
    <path id="d" d="M2.9-3.5c.8-.27 1.38-.97 1.38-1.75 0-.83-.87-1.37-1.83-1.37C1.44-6.62.7-6.03.7-5.28c0 .33.22.53.5.53a.5.5 0 0 0 .51-.52c0-.5-.47-.5-.62-.5.31-.48.97-.6 1.33-.6.4 0 .95.21.95 1.1 0 .13-.02.7-.28 1.14a1 1 0 0 1-.88.52l-.39.03q-.13-.01-.15.11c0 .11.07.11.25.11h.43c.82 0 1.18.69 1.18 1.66 0 1.36-.68 1.64-1.11 1.64S1.2-.23.88-.81c.34.04.65-.17.65-.55a.54.54 0 0 0-.56-.56c-.24 0-.55.14-.55.58 0 .9.92 1.56 2 1.56 1.22 0 2.13-.9 2.13-1.92 0-.82-.63-1.6-1.66-1.8m0 0"/>
    <path id="e" d="M3.16-7.47c-.14.05-.32.25-.44.38A6.4 6.4 0 0 0 1-2.5c0 1.8.58 3.72 2.05 4.9.04.02.1.08.17.08.06 0 .08-.06.08-.1 0-.11-.27-.32-.38-.44a7 7 0 0 1-1.34-4.42c0-1.64.33-3.46 1.56-4.7.06-.04.16-.12.16-.2q-.01-.09-.11-.09zm0 0"/>
    <path id="f" d="M.31-.31v.3h2.16v-.3c-.31 0-.74-.16-.75-.5q.02-.16.08-.28.16-.5.34-.97c.03-.1.03-.22.17-.22h2.25c.13 0 .14.1.17.2l.22.63c.1.26.27.64.27.84v.05c-.08.23-.47.25-.77.25h-.04v.3h2.73v-.3h-.3c-.21 0-.46-.03-.57-.14q-.15-.21-.22-.44L4.52-5.36c-.2-.51-.43-1.06-.55-1.6q-.06-.18-.25-.18c-.2 0-.24.22-.3.4-.56 1.7-1.17 3.35-1.73 5.02l-.22.61c-.06.17-.11.36-.25.5-.24.24-.58.3-.9.3m2-2.28 1.13-3.24 1.12 3.24Zm0 0"/>
    <path id="m" d="M.6-7.47q-.04.04-.04.08c0 .12.22.3.33.4 1.06 1.24 1.4 2.93 1.4 4.5 0 1.6-.34 3.43-1.54 4.62-.06.07-.19.17-.19.25 0 .04.05.1.11.1.13-.03.33-.23.44-.35a6.4 6.4 0 0 0 1.75-4.65c0-1.82-.6-3.64-2.05-4.87q-.07-.06-.15-.08zm0 0"/>
    <path id="o" d="M2.92-6.37c0-.24 0-.25-.22-.25-.62.64-1.5.64-1.8.64v.3c.18 0 .77 0 1.29-.26v5.16c0 .36-.03.47-.92.47H.95V0c.35-.03 1.2-.03 1.61-.03.4 0 1.27 0 1.61.03v-.31h-.31c-.9 0-.94-.11-.94-.47Zm0 0"/>
    <path id="p" d="M1.27-.77 2.3-1.8c1.57-1.37 2.16-1.9 2.16-2.9 0-1.13-.9-1.92-2.11-1.92-1.13 0-1.86.9-1.86 1.8 0 .55.5.55.53.55.16 0 .52-.12.52-.53a.5.5 0 0 0-.53-.51H.89c.22-.64.77-1 1.34-1 .91 0 1.33.8 1.33 1.6s-.5 1.6-1.04 2.21L.6-.37C.5-.28.5-.23.5 0h3.69l.28-1.73h-.25c-.05.3-.13.73-.22.89-.06.07-.72.07-.94.07Zm0 0"/>
    <path id="q" d="M2.9-3.5c.8-.27 1.38-.97 1.38-1.75 0-.83-.87-1.37-1.83-1.37C1.44-6.62.7-6.03.7-5.28c0 .33.22.53.5.53a.5.5 0 0 0 .51-.52c0-.5-.47-.5-.62-.5.31-.48.97-.6 1.33-.6.4 0 .95.21.95 1.1 0 .13-.02.7-.28 1.14a1 1 0 0 1-.88.52l-.39.03q-.13-.01-.15.11c0 .11.07.11.25.11h.43c.82 0 1.18.69 1.18 1.66 0 1.36-.68 1.64-1.11 1.64S1.2-.23.88-.81c.34.04.65-.17.65-.55a.54.54 0 0 0-.56-.56c-.24 0-.55.14-.55.58 0 .9.92 1.56 2 1.56 1.22 0 2.13-.9 2.13-1.92 0-.82-.63-1.6-1.66-1.8m0 0"/>
    <path id="r" d="M3.16-7.47c-.14.05-.32.25-.44.38A6.4 6.4 0 0 0 1-2.5c0 1.8.58 3.72 2.05 4.9.04.02.1.08.17.08.06 0 .08-.06.08-.1 0-.11-.27-.32-.38-.44a7 7 0 0 1-1.34-4.42c0-1.64.33-3.46 1.56-4.7.06-.04.16-.12.16-.2q-.01-.09-.11-.09zm0 0"/>
    <path id="s" d="M.36-6.81v.31l.37-.02c.36 0 .66.07.66.46v5.31c0 .38-.33.44-.67.44H.36v.3h3.19l.58.01c.92 0 1.96-.37 2.3-1.45q.04-.2.05-.4v-.04c0-1.14-1.1-1.88-2.17-1.95h-.37c-.55 0-1.2.01-1.74.12v-2.44c0-.32.2-.34.4-.34h1.15c.7 0 1.47.06 1.75.94q.13.47.19 1h.25l-.28-2.25Zm1.84 3.4q.74-.09 1.46-.09h.17c.83 0 1.64.66 1.64 1.6 0 .9-.67 1.59-1.61 1.59H2.59c-.18 0-.39-.05-.39-.33Zm0 0"/>
    <path id="t" d="M.6-7.47q-.04.04-.04.08c0 .12.22.3.33.4 1.06 1.24 1.4 2.93 1.4 4.5 0 1.6-.34 3.43-1.54 4.62-.06.07-.19.17-.19.25 0 .04.05.1.11.1.13-.03.33-.23.44-.35a6.4 6.4 0 0 0 1.75-4.65c0-1.82-.6-3.64-2.05-4.87q-.07-.06-.15-.08zm0 0"/>
    <clipPath id="a">
      <path d="M353 583h48v41.52h-48Zm0 0"/>
    </clipPath>
    <clipPath id="n">
      <path d="M441 583h48v41.52h-48Zm0 0"/>
    </clipPath>
  </defs>
  <path fill="none" stroke="#000" stroke-linecap="round" stroke-linejoin="round" stroke-miterlimit="10" stroke-width=".5" d="M341.6 604.17h23.87l22.44-8.17h23.88m-23.88 16.34h23.88"/>
  <g clip-path="url(#a)">
    <path fill="none" stroke="#000" stroke-dasharray="3.932705084 3.932705084" stroke-linecap="round" stroke-linejoin="round" stroke-miterlimit="10" stroke-width=".5" d="M353.54 624.27h46.3v-40.2h-46.3Zm0 0"/>
  </g>
  <use xlink:href="#b" x="333.66" y="607.38"/>
  <use xlink:href="#c" x="414.8" y="599.23"/>
  <use xlink:href="#d" x="414.8" y="615.53"/>
  <use xlink:href="#e" x="369.14" y="575.62"/>
  <use xlink:href="#f" x="372.98" y="575.62"/>
  <use xlink:href="#m" x="380.41" y="575.62"/>
  <path fill="none" stroke="#000" stroke-linecap="round" stroke-linejoin="round" stroke-miterlimit="10" stroke-width=".5" d="M430.3 604.17h23.88l22.44 8.17h23.88M476.62 596h23.88"/>
  <g clip-path="url(#n)">
    <path fill="none" stroke="#000" stroke-dasharray="3.932705084 3.932705084" stroke-linecap="round" stroke-linejoin="round" stroke-miterlimit="10" stroke-width=".5" d="M442.25 624.27h46.3v-40.2h-46.3Zm0 0"/>
  </g>
  <use xlink:href="#o" x="422.38" y="607.38"/>
  <use xlink:href="#p" x="503.52" y="599.23"/>
  <use xlink:href="#q" x="503.52" y="615.53"/>
  <use xlink:href="#r" x="458.09" y="575.62"/>
  <use xlink:href="#s" x="461.93" y="575.62"/>
  <use xlink:href="#t" x="469" y="575.62"/>
</svg>
