<svg xmlns="http://www.w3.org/2000/svg" xmlns:xlink="http://www.w3.org/1999/xlink" width="595.28" height="841.89" viewBox="0 0 595.28 841.89">
  <defs>
    <path id="h" d="M2.92-6.37c0-.24 0-.25-.22-.25-.62.64-1.5.64-1.8.64v.3c.18 0 .77 0 1.29-.26v5.16c0 .36-.03.47-.92.47H.95V0c.35-.03 1.2-.03 1.61-.03.4 0 1.27 0 1.61.03v-.31h-.31c-.9 0-.94-.11-.94-.47Zm0 0"/>
    <path id="i" d="M2.9-3.5c.8-.27 1.38-.97 1.38-1.75 0-.83-.87-1.37-1.83-1.37C1.44-6.62.7-6.03.7-5.28c0 .33.22.53.5.53a.5.5 0 0 0 .51-.52c0-.5-.47-.5-.62-.5.31-.48.97-.6 1.33-.6.4 0 .95.21.95 1.1 0 .13-.02.7-.28 1.14a1 1 0 0 1-.88.52l-.39.03q-.13-.01-.15.11c0 .11.07.11.25.11h.43c.82 0 1.18.69 1.18 1.66 0 1.36-.68 1.64-1.11 1.64S1.2-.23.88-.81c.34.04.65-.17.65-.55a.54.54 0 0 0-.56-.56c-.24 0-.55.14-.55.58 0 .9.92 1.56 2 1.56 1.22 0 2.13-.9 2.13-1.92 0-.82-.63-1.6-1.66-1.8m0 0"/>
    <path id="j" d="M4.47-2c0-1.19-.81-2.19-1.9-2.19q-.72 0-1.26.52v-1.94c.2.06.53.13.85.13 1.23 0 1.92-.91 1.92-1.04q0-.1-.1-.1l-.07.03c-.2.07-.7.28-1.36.28q-.61.02-1.33-.28-.1-.05-.11-.04c-.11 0-.11.08-.11.25v2.94c0 .19 0 .27.14.27.08 0 .1-.03.14-.1.11-.15.47-.7 1.28-.7.52 0 .77.47.85.64.15.38.17.77.17 1.27 0 .34 0 .94-.24 1.36-.23.39-.6.64-1.06.64C1.55-.06.98-.6.81-1.17l.17.01c.33 0 .5-.25.5-.48a.5.5 0 0 0-.5-.49c-.14 0-.48.07-.48.52C.5-.75 1.19.22 2.3.22A2.2 2.2 0 0 0 4.47-2m0 0"/>
    <path id="k" d="M1.27-.77 2.3-1.8c1.57-1.37 2.16-1.9 2.16-2.9 0-1.13-.9-1.92-2.11-1.92-1.13 0-1.86.9-1.86 1.8 0 .55.5.55.53.55.16 0 .52-.12.52-.53a.5.5 0 0 0-.53-.51H.89c.22-.64.77-1 1.34-1 .91 0 1.33.8 1.33 1.6s-.5 1.6-1.04 2.21L.6-.37C.5-.28.5-.23.5 0h3.69l.28-1.73h-.25c-.05.3-.13.73-.22.89-.06.07-.72.07-.94.07Zm0 0"/>
    <path id="l" d="M2.92-1.64v.86c0 .36-.01.47-.75.47h-.22V0c.43-.03.94-.03 1.35-.03s.95 0 1.36.03v-.31h-.2c-.74 0-.77-.11-.77-.47v-.86h1v-.31h-1v-4.53c0-.2 0-.25-.16-.25-.1 0-.12 0-.2.1L.28-1.95v.3Zm.06-.31H.56l2.42-3.7Zm0 0"/>
    <path id="m" d="M1.31-3.27v-.23c0-2.52 1.24-2.87 1.75-2.87.24 0 .66.06.88.39-.16 0-.55 0-.55.45 0 .31.23.45.45.45.16 0 .46-.1.46-.47 0-.6-.44-1.08-1.27-1.08-1.26 0-2.6 1.29-2.6 3.49C.42-.48 1.57.22 2.5.22c1.1 0 2.05-.94 2.05-2.25 0-1.27-.9-2.22-1.99-2.22-.68 0-1.04.5-1.25.98M2.5-.07c-.62 0-.92-.59-.98-.74-.2-.47-.2-1.25-.2-1.44 0-.78.34-1.77 1.23-1.77.15 0 .62 0 .92.61.19.38.19.88.19 1.36s0 .99-.18 1.35c-.3.6-.75.64-.98.64m0 0"/>
    <path id="n" d="M3.16-7.47c-.14.05-.32.25-.44.38A6.4 6.4 0 0 0 1-2.5c0 1.8.58 3.72 2.05 4.9.04.02.1.08.17.08.06 0 .08-.06.08-.1 0-.11-.27-.32-.38-.44a7 7 0 0 1-1.34-4.42c0-1.64.33-3.46 1.56-4.7.06-.04.16-.12.16-.2q-.01-.09-.11-.09zm0 0"/>
    <path id="o" d="M.31-.31v.3h2.16v-.3c-.31 0-.74-.16-.75-.5q.02-.16.08-.28.16-.5.34-.97c.03-.1.03-.22.17-.22h2.25c.13 0 .14.1.17.2l.22.63c.1.26.27.64.27.84v.05c-.08.23-.47.25-.77.25h-.04v.3h2.73v-.3h-.3c-.21 0-.46-.03-.57-.14q-.15-.21-.22-.44L4.52-5.36c-.2-.51-.43-1.06-.55-1.6q-.06-.18-.25-.18c-.2 0-.24.22-.3.4-.56 1.7-1.17 3.35-1.73 5.02l-.22.61c-.06.17-.11.36-.25.5-.24.24-.58.3-.9.3m2-2.28 1.13-3.24 1.12 3.24Zm0 0"/>
    <path id="p" d="M.6-7.47q-.04.04-.04.08c0 .12.22.3.33.4 1.06 1.24 1.4 2.93 1.4 4.5 0 1.6-.34 3.43-1.54 4.62-.06.07-.19.17-.19.25 0 .04.05.1.11.1.13-.03.33-.23.44-.35a6.4 6.4 0 0 0 1.75-4.65c0-1.82-.6-3.64-2.05-4.87q-.07-.06-.15-.08zm0 0"/>
    <path id="r" d="M2.92-6.37c0-.24 0-.25-.22-.25-.62.64-1.5.64-1.8.64v.3c.18 0 .77 0 1.29-.26v5.16c0 .36-.03.47-.92.47H.95V0c.35-.03 1.2-.03 1.61-.03.4 0 1.27 0 1.61.03v-.31h-.31c-.9 0-.94-.11-.94-.47Zm0 0"/>
    <path id="s" d="M2.9-3.5c.8-.27 1.38-.97 1.38-1.75 0-.83-.87-1.37-1.83-1.37C1.44-6.62.7-6.03.7-5.28c0 .33.22.53.5.53a.5.5 0 0 0 .51-.52c0-.5-.47-.5-.62-.5.31-.48.97-.6 1.33-.6.4 0 .95.21.95 1.1 0 .13-.02.7-.28 1.14a1 1 0 0 1-.88.52l-.39.03q-.13-.01-.15.11c0 .11.07.11.25.11h.43c.82 0 1.18.69 1.18 1.66 0 1.36-.68 1.64-1.11 1.64S1.2-.23.88-.81c.34.04.65-.17.65-.55a.54.54 0 0 0-.56-.56c-.24 0-.55.14-.55.58 0 .9.92 1.56 2 1.56 1.22 0 2.13-.9 2.13-1.92 0-.82-.63-1.6-1.66-1.8m0 0"/>
    <path id="t" d="M4.47-2c0-1.19-.81-2.19-1.9-2.19q-.72 0-1.26.52v-1.94c.2.06.53.13.85.13 1.23 0 1.92-.91 1.92-1.04q0-.1-.1-.1l-.07.03c-.2.07-.7.28-1.36.28q-.61.02-1.33-.28-.1-.05-.11-.04c-.11 0-.11.08-.11.25v2.94c0 .19 0 .27.14.27.08 0 .1-.03.14-.1.11-.15.47-.7 1.28-.7.52 0 .77.47.85.64.15.38.17.77.17 1.27 0 .34 0 .94-.24 1.36-.23.39-.6.64-1.06.64C1.55-.06.98-.6.81-1.17l.17.01c.33 0 .5-.25.5-.48a.5.5 0 0 0-.5-.49c-.14 0-.48.07-.48.52C.5-.75 1.19.22 2.3.22A2.2 2.2 0 0 0 4.47-2m0 0"/>
    <path id="u" d="M1.27-.77 2.3-1.8c1.57-1.37 2.16-1.9 2.16-2.9 0-1.13-.9-1.92-2.11-1.92-1.13 0-1.86.9-1.86 1.8 0 .55.5.55.53.55.16 0 .52-.12.52-.53a.5.5 0 0 0-.53-.51H.89c.22-.64.77-1 1.34-1 .91 0 1.33.8 1.33 1.6s-.5 1.6-1.04 2.21L.6-.37C.5-.28.5-.23.5 0h3.69l.28-1.73h-.25c-.05.3-.13.73-.22.89-.06.07-.72.07-.94.07Zm0 0"/>
    <path id="v" d="M2.92-1.64v.86c0 .36-.01.47-.75.47h-.22V0c.43-.03.94-.03 1.35-.03s.95 0 1.36.03v-.31h-.2c-.74 0-.77-.11-.77-.47v-.86h1v-.31h-1v-4.53c0-.2 0-.25-.16-.25-.1 0-.12 0-.2.1L.28-1.95v.3Zm.06-.31H.56l2.42-3.7Zm0 0"/>
    <path id="w" d="M1.31-3.27v-.23c0-2.52 1.24-2.87 1.75-2.87.24 0 .66.06.88.39-.16 0-.55 0-.55.45 0 .31.23.45.45.45.16 0 .46-.1.46-.47 0-.6-.44-1.08-1.27-1.08-1.26 0-2.6 1.29-2.6 3.49C.42-.48 1.57.22 2.5.22c1.1 0 2.05-.94 2.05-2.25 0-1.27-.9-2.22-1.99-2.22-.68 0-1.04.5-1.25.98M2.5-.07c-.62 0-.92-.59-.98-.74-.2-.47-.2-1.25-.2-1.44 0-.78.34-1.77 1.23-1.77.15 0 .62 0 .92.61.19.38.19.88.19 1.36s0 .99-.18 1.35c-.3.6-.75.64-.98.64m0 0"/>
    <path id="x" d="M3.16-7.47c-.14.05-.32.25-.44.38A6.4 6.4 0 0 0 1-2.5c0 1.8.58 3.72 2.05 4.9.04.02.1.08.17.08.06 0 .08-.06.08-.1 0-.11-.27-.32-.38-.44a7 7 0 0 1-1.34-4.42c0-1.64.33-3.46 1.56-4.7.06-.04.16-.12.16-.2q-.01-.09-.11-.09zm0 0"/>
    <path id="y" d="M.36-6.81v.31l.37-.02c.36 0 .66.07.66.46v5.31c0 .38-.33.44-.67.44H.36v.3h3.19l.58.01c.92 0 1.96-.37 2.3-1.45q.04-.2.05-.4v-.04c0-1.14-1.1-1.88-2.17-1.95h-.37c-.55 0-1.2.01-1.74.12v-2.44c0-.32.2-.34.4-.34h1.15c.7 0 1.47.06 1.75.94q.13.47.19 1h.25l-.28-2.25Zm1.84 3.4q.74-.09 1.46-.09h.17c.83 0 1.64.66 1.64 1.6 0 .9-.67 1.59-1.61 1.59H2.59c-.18 0-.39-.05-.39-.33Zm0 0"/>
    <path id="z" d="M.6-7.47q-.04.04-.04.08c0 .12.22.3.33.4 1.06 1.24 1.4 2.93 1.4 4.5 0 1.6-.34 3.43-1.54 4.62-.06.07-.19.17-.19.25 0 .04.05.1.11.1.13-.03.33-.23.44-.35a6.4 6.4 0 0 0 1.75-4.65c0-1.82-.6-3.64-2.05-4.87q-.07-.06-.15-.08zm0 0"/>
    <path id="B" d="M2.92-6.37c0-.24 0-.25-.22-.25-.62.64-1.5.64-1.8.64v.3c.18 0 .77 0 1.29-.26v5.16c0 .36-.03.47-.92.47H.95V0c.35-.03 1.2-.03 1.61-.03.4 0 1.27 0 1.61.03v-.31h-.31c-.9 0-.94-.11-.94-.47Zm0 0"/>
    <path id="C" d="M2.9-3.5c.8-.27 1.38-.97 1.38-1.75 0-.83-.87-1.37-1.83-1.37C1.44-6.62.7-6.03.7-5.28c0 .33.22.53.5.53a.5.5 0 0 0 .51-.52c0-.5-.47-.5-.62-.5.31-.48.97-.6 1.33-.6.4 0 .95.21.95 1.1 0 .13-.02.7-.28 1.14a1 1 0 0 1-.88.52l-.39.03q-.13-.01-.15.11c0 .11.07.11.25.11h.43c.82 0 1.18.69 1.18 1.66 0 1.36-.68 1.64-1.11 1.64S1.2-.23.88-.81c.34.04.65-.17.65-.55a.54.54 0 0 0-.56-.56c-.24 0-.55.14-.55.58 0 .9.92 1.56 2 1.56 1.22 0 2.13-.9 2.13-1.92 0-.82-.63-1.6-1.66-1.8m0 0"/>
    <path id="D" d="M4.47-2c0-1.19-.81-2.19-1.9-2.19q-.72 0-1.26.52v-1.94c.2.06.53.13.85.13 1.23 0 1.92-.91 1.92-1.04q0-.1-.1-.1l-.07.03c-.2.07-.7.28-1.36.28q-.61.02-1.33-.28-.1-.05-.11-.04c-.11 0-.11.08-.11.25v2.94c0 .19 0 .27.14.27.08 0 .1-.03.14-.1.11-.15.47-.7 1.28-.7.52 0 .77.47.85.64.15.38.17.77.17 1.27 0 .34 0 .94-.24 1.36-.23.39-.6.64-1.06.64C1.55-.06.98-.6.81-1.17l.17.01c.33 0 .5-.25.5-.48a.5.5 0 0 0-.5-.49c-.14 0-.48.07-.48.52C.5-.75 1.19.22 2.3.22A2.2 2.2 0 0 0 4.47-2m0 0"/>
    <path id="E" d="M1.27-.77 2.3-1.8c1.57-1.37 2.16-1.9 2.16-2.9 0-1.13-.9-1.92-2.11-1.92-1.13 0-1.86.9-1.86 1.8 0 .55.5.55.53.55.16 0 .52-.12.52-.53a.5.5 0 0 0-.53-.51H.89c.22-.64.77-1 1.34-1 .91 0 1.33.8 1.33 1.6s-.5 1.6-1.04 2.21L.6-.37C.5-.28.5-.23.5 0h3.69l.28-1.73h-.25c-.05.3-.13.73-.22.89-.06.07-.72.07-.94.07Zm0 0"/>
    <path id="F" d="M2.92-1.64v.86c0 .36-.01.47-.75.47h-.22V0c.43-.03.94-.03 1.35-.03s.95 0 1.36.03v-.31h-.2c-.74 0-.77-.11-.77-.47v-.86h1v-.31h-1v-4.53c0-.2 0-.25-.16-.25-.1 0-.12 0-.2.1L.28-1.95v.3Zm.06-.31H.56l2.42-3.7Zm0 0"/>
    <path id="G" d="M1.31-3.27v-.23c0-2.52 1.24-2.87 1.75-2.87.24 0 .66.06.88.39-.16 0-.55 0-.55.45 0 .31.23.45.45.45.16 0 .46-.1.46-.47 0-.6-.44-1.08-1.27-1.08-1.26 0-2.6 1.29-2.6 3.49C.42-.48 1.57.22 2.5.22c1.1 0 2.05-.94 2.05-2.25 0-1.27-.9-2.22-1.99-2.22-.68 0-1.04.5-1.25.98M2.5-.07c-.62 0-.92-.59-.98-.74-.2-.47-.2-1.25-.2-1.44 0-.78.34-1.77 1.23-1.77.15 0 .62 0 .92.61.19.38.19.88.19 1.36s0 .99-.18 1.35c-.3.6-.75.64-.98.64m0 0"/>
    <path id="H" d="M3.16-7.47c-.14.05-.32.25-.44.38A6.4 6.4 0 0 0 1-2.5c0 1.8.58 3.72 2.05 4.9.04.02.1.08.17.08.06 0 .08-.06.08-.1 0-.11-.27-.32-.38-.44a7 7 0 0 1-1.34-4.42c0-1.64.33-3.46 1.56-4.7.06-.04.16-.12.16-.2q-.01-.09-.11-.09zm0 0"/>
    <path id="I" d="M.36-6.81v.31l.37-.02c.36 0 .66.07.66.46v5.31c0 .38-.33.44-.67.44H.36v.3H3.5l.6.01c1.07 0 2.38-.5 2.38-1.9 0-.94-1.12-1.65-1.92-1.65v-.03c.75-.08 1.64-.7 1.64-1.54v-.08c-.08-1.14-1.36-1.61-2.34-1.61h-.6ZM2.2-3.44h1.78c.97 0 1.5.74 1.5 1.57 0 .89-.64 1.56-1.65 1.56H2.59c-.21 0-.39-.06-.39-.33Zm0-.22v-2.46c0-.3.14-.36.36-.38h1.27c.58 0 1.01.2 1.3.8q.11.27.12.6c-.02.87-.8 1.46-1.64 1.46l-.33-.02Zm0 0"/>
    <path id="J" d="M.6-7.47q-.04.04-.04.08c0 .12.22.3.33.4 1.06 1.24 1.4 2.93 1.4 4.5 0 1.6-.34 3.43-1.54 4.62-.06.07-.19.17-.19.25 0 .04.05.1.11.1.13-.03.33-.23.44-.35a6.4 6.4 0 0 0 1.75-4.65c0-1.82-.6-3.64-2.05-4.87q-.07-.06-.15-.08zm0 0"/>
    <path id="Q" d="M2.4-6.58c-.09-.22-.12-.22-.35-.22H.38v.32H.6c.77 0 .78.1.78.46v4.97c0 .27 0 .74-1.01.74V0A29 29 0 0 1 2.7 0v-.31c-1.03 0-1.03-.47-1.03-.74V-6.4h.02L4.08-.2q.05.2.2.21c.11 0 .14-.08.17-.19l2.46-6.3h.01v5.7c0 .37-.03.48-.8.48H5.9V0c.38-.03 1.05-.03 1.44-.03s1.05 0 1.42.03v-.31h-.23c-.77 0-.8-.11-.8-.47v-5.24c0-.36.03-.46.8-.46h.23v-.32h-1.7c-.25 0-.25.02-.33.2L4.56-1Zm0 0"/>
    <path id="R" d="M5.8-2.56h-.25c-.11 1.01-.25 2.25-2 2.25h-.82c-.46 0-.5-.06-.5-.4V-6c0-.33 0-.47.96-.47h.33v-.32c-.36.03-1.27.03-1.68.03-.39 0-1.17 0-1.51-.03v.32h.23c.77 0 .8.1.8.46v5.24c0 .36-.03.47-.8.47H.33V0h5.19Zm0 0"/>
    <path id="S" d="M2.9-3.5c.8-.27 1.38-.97 1.38-1.75 0-.83-.87-1.37-1.83-1.37C1.44-6.62.7-6.03.7-5.28c0 .33.22.53.5.53a.5.5 0 0 0 .51-.52c0-.5-.47-.5-.62-.5.31-.48.97-.6 1.33-.6.4 0 .95.21.95 1.1 0 .13-.02.7-.28 1.14a1 1 0 0 1-.88.52l-.39.03q-.13-.01-.15.11c0 .11.07.11.25.11h.43c.82 0 1.18.69 1.18 1.66 0 1.36-.68 1.64-1.11 1.64S1.2-.23.88-.81c.34.04.65-.17.65-.55a.54.54 0 0 0-.56-.56c-.24 0-.55.14-.55.58 0 .9.92 1.56 2 1.56 1.22 0 2.13-.9 2.13-1.92 0-.82-.63-1.6-1.66-1.8m0 0"/>
    <path id="T" d="M6.63-6.73H.54L.35-4.5h.26c.14-1.6.28-1.92 1.8-1.92l.53.01c.2.04.2.14.2.38v5.25c0 .33 0 .47-1.05.47H1.7V0c.4-.03 1.43-.03 1.88-.03.47 0 1.48 0 1.89.03v-.31h-.4c-1.04 0-1.04-.14-1.04-.47v-5.25c0-.2 0-.34.17-.38l.58-.01c1.5 0 1.64.33 1.78 1.92h.25Zm0 0"/>
    <path id="U" d="M1.27-.77 2.3-1.8c1.57-1.37 2.16-1.9 2.16-2.9 0-1.13-.9-1.92-2.11-1.92-1.13 0-1.86.9-1.86 1.8 0 .55.5.55.53.55.16 0 .52-.12.52-.53a.5.5 0 0 0-.53-.51H.89c.22-.64.77-1 1.34-1 .91 0 1.33.8 1.33 1.6s-.5 1.6-1.04 2.21L.6-.37C.5-.28.5-.23.5 0h3.69l.28-1.73h-.25c-.05.3-.13.73-.22.89-.06.07-.72.07-.94.07Zm0 0"/>
    <path id="V" d="M2.92-6.37c0-.24 0-.25-.22-.25-.62.64-1.5.64-1.8.64v.3c.18 0 .77 0 1.29-.26v5.16c0 .36-.03.47-.92.47H.95V0c.35-.03 1.2-.03 1.61-.03.4 0 1.27 0 1.61.03v-.31h-.31c-.9 0-.94-.11-.94-.47Zm0 0"/>
    <path id="W" d="M2.92-1.64v.86c0 .36-.01.47-.75.47h-.22V0c.43-.03.94-.03 1.35-.03s.95 0 1.36.03v-.31h-.2c-.74 0-.77-.11-.77-.47v-.86h1v-.31h-1v-4.53c0-.2 0-.25-.16-.25-.1 0-.12 0-.2.1L.28-1.95v.3Zm.06-.31H.56l2.42-3.7Zm0 0"/>
    <path id="X" d="M3.97-6.92c-.06-.14-.08-.2-.24-.2s-.18.06-.23.2L1.44-.97C1.25-.47.86-.3.3-.3V0a18 18 0 0 1 2.17 0v-.31c-.5 0-.75-.25-.75-.5 0-.03 0-.14.02-.16l.45-1.3h2.47L5.2-.75l.02.14c0 .3-.55.3-.81.3V0c.34-.03 1.04-.03 1.42-.03q.67 0 1.31.03v-.31h-.19c-.6 0-.73-.06-.84-.4Zm-.53 1.1 1.12 3.24H2.31Zm0 0"/>
    <clipPath id="N">
      <path d="M445.43 402.07h23.88v7.25h-23.88Zm17.8 7.25h6.08v9.39h-6.08Zm-17.8 0h6.09v9.39h-6.09Zm0 9.39h23.88v7.24h-23.88Zm0 0"/>
    </clipPath>
    <pattern id="O" width="3" height="3" x="0" y="0" patternTransform="matrix(.93207 0 0 -.93207 404.74 425)" patternUnits="userSpaceOnUse" viewBox="0 0 3 3">
      <use xlink:href="#a"/>
    </pattern>
    <g id="a" fill="none" stroke="#000" stroke-linecap="round" stroke-linejoin="round" stroke-miterlimit="10" stroke-width=".53">
      <path d="m0 0 3 3"/>
      <path d="m-1.5 1.5 3 3"/>
      <path d="m1.5-1.5 3 3"/>
    </g>
  </defs>
  <path fill="none" stroke="#000" stroke-linecap="round" stroke-linejoin="round" stroke-miterlimit="10" stroke-width=".5" d="M252.96 214.18h23.88l22.43-8.17h23.88m-23.88 16.33h23.88m-70.19 24.5h23.88l22.43-8.16h23.88M299.27 255h23.88"/>
  <path fill="none" stroke="#000" stroke-dasharray="3.97277694 3.97277694" stroke-linecap="round" stroke-linejoin="round" stroke-miterlimit="10" stroke-width=".5" d="M264.9 266.95h46.31v-72.88H264.9Zm0 0"/>
  <use xlink:href="#h" x="245.03" y="217.34"/>
  <use xlink:href="#i" x="326.17" y="209.19"/>
  <use xlink:href="#j" x="326.17" y="225.49"/>
  <use xlink:href="#k" x="245.03" y="250.06"/>
  <use xlink:href="#l" x="326.17" y="241.91"/>
  <use xlink:href="#m" x="326.17" y="258.21"/>
  <use xlink:href="#n" x="280.5" y="185.58"/>
  <use xlink:href="#o" x="284.34" y="185.58"/>
  <use xlink:href="#p" x="291.77" y="185.58"/>
  <path fill="none" stroke="#000" stroke-linecap="round" stroke-linejoin="round" stroke-miterlimit="10" stroke-width=".5" d="M341.67 214.18h47.76m-1.45-8.17h23.88m-23.88 16.33h23.88m-70.19 24.5h47.76m-1.45-8.16h23.88M387.98 255h23.88"/>
  <path fill="none" stroke="#000" stroke-dasharray="3.97277694 3.97277694" stroke-linecap="round" stroke-linejoin="round" stroke-miterlimit="10" stroke-width=".5" d="M353.6 266.95h46.32v-72.88h-46.31Zm0 0"/>
  <use xlink:href="#r" x="333.74" y="217.34"/>
  <use xlink:href="#s" x="414.88" y="209.19"/>
  <use xlink:href="#t" x="414.88" y="225.49"/>
  <use xlink:href="#u" x="333.74" y="250.06"/>
  <use xlink:href="#v" x="414.88" y="241.91"/>
  <use xlink:href="#w" x="414.88" y="258.21"/>
  <use xlink:href="#x" x="369.46" y="185.58"/>
  <use xlink:href="#y" x="373.29" y="185.58"/>
  <use xlink:href="#z" x="380.36" y="185.58"/>
  <path fill="none" stroke="#000" stroke-linecap="round" stroke-linejoin="round" stroke-miterlimit="10" stroke-width=".5" d="M430.39 214.18h23.87l22.44 8.16h23.87m-23.87-16.33h23.87m-70.18 40.83h23.87l22.44 8.17h23.87m-23.87-16.33h23.87"/>
  <path fill="none" stroke="#000" stroke-dasharray="3.97277694 3.97277694" stroke-linecap="round" stroke-linejoin="round" stroke-miterlimit="10" stroke-width=".5" d="M442.32 266.95h46.31v-72.88h-46.3Zm0 0"/>
  <use xlink:href="#B" x="422.45" y="217.34"/>
  <use xlink:href="#C" x="503.59" y="209.19"/>
  <use xlink:href="#D" x="503.59" y="225.49"/>
  <use xlink:href="#E" x="422.45" y="250.06"/>
  <use xlink:href="#F" x="503.59" y="241.91"/>
  <use xlink:href="#G" x="503.59" y="258.21"/>
  <use xlink:href="#H" x="458.17" y="185.58"/>
  <use xlink:href="#I" x="462.01" y="185.58"/>
  <use xlink:href="#J" x="469.07" y="185.58"/>
  <path fill="none" stroke="#000" stroke-linecap="round" stroke-linejoin="round" stroke-miterlimit="10" stroke-width=".5" d="M421.55 366.25h23.88m23.87 0h23.9m-47.77 0 22.44-8.16M421.55 342.38h23.88m23.87 0h23.9m-47.77 0 22.44-8.17M421.55 318.5h23.88m23.87 0h23.9"/>
  <path fill="none" stroke="#000" stroke-linecap="round" stroke-linejoin="round" stroke-miterlimit="10" stroke-width=".5" d="m445.43 318.5 22.44-8.17"/>
  <path fill="none" stroke="#000" stroke-linecap="round" stroke-linejoin="round" stroke-miterlimit="10" stroke-width=".5" d="M421.55 390.13h23.88m23.87 0h23.9m-47.77 0 22.44-8.16m-46.32 32.05h23.88m23.87 0h23.9"/>
  <path fill="none" stroke="#000" stroke-linecap="round" stroke-linejoin="round" stroke-miterlimit="10" stroke-width="1.99" d="M456.65 314.41v87.66"/>
  <path fill="#fff" d="M445.43 425.95h23.88v-23.88h-23.88z"/>
  <path fill="none" stroke="#000" stroke-linecap="round" stroke-linejoin="round" stroke-miterlimit="10" stroke-width=".5" d="M445.43 425.95h23.88v-23.88h-23.88Zm0 0"/>
  <g clip-path="url(#N)">
    <path fill="url(#O)" d="M445.43 425.95h23.88v-23.88h-23.88Zm0 0"/>
  </g>
  <path fill="none" stroke="#000" stroke-linecap="round" stroke-linejoin="round" stroke-miterlimit="10" stroke-width=".5" d="M445.43 425.95h23.88v-23.88h-23.88Zm0 0"/>
  <use xlink:href="#Q" x="452.78" y="417.45"/>
  <use xlink:href="#R" x="407.35" y="369.63"/>
  <use xlink:href="#S" x="413.58" y="369.63"/>
  <use xlink:href="#T" x="496.16" y="369.63"/>
  <use xlink:href="#S" x="503.35" y="369.63"/>
  <use xlink:href="#R" x="407.35" y="345.78"/>
  <use xlink:href="#U" x="413.58" y="345.78"/>
  <use xlink:href="#T" x="496.16" y="345.78"/>
  <use xlink:href="#U" x="503.35" y="345.78"/>
  <use xlink:href="#R" x="407.35" y="321.93"/>
  <use xlink:href="#V" x="413.58" y="321.93"/>
  <use xlink:href="#T" x="496.16" y="321.93"/>
  <use xlink:href="#V" x="503.35" y="321.93"/>
  <use xlink:href="#V" x="408.67" y="393.36"/>
  <use xlink:href="#S" x="413.7" y="393.36"/>
  <use xlink:href="#V" x="496.16" y="393.36"/>
  <use xlink:href="#W" x="501.2" y="393.36"/>
  <use xlink:href="#X" x="406.15" y="417.45"/>
  <use xlink:href="#V" x="413.58" y="417.45"/>
  <use xlink:href="#X" x="496.16" y="417.45"/>
  <use xlink:href="#U" x="503.59" y="417.45"/>
  <path fill="none" stroke="#000" stroke-linecap="round" stroke-linejoin="round" stroke-miterlimit="10" stroke-width="30" d="M331.68 530.81 331.68 530.81M570.72 530.81 570.72 530.81M556.32 612.59 556.32 612.59M556.32 449.07 556.32 449.07M331.68 203.77 331.68 203.77M570.72 203.77 570.72 203.77M556.32 285.55 556.32 285.55M556.32 122.03 556.32 122.03" transform="matrix(.09988 0 0 -.09988 243.7 267.2)"/>
  <path fill="none" stroke="#000" stroke-linecap="round" stroke-linejoin="round" stroke-miterlimit="10" stroke-width="30" d="M331.7 530.81 331.7 530.81M570.74 530.81 570.74 530.81M556.31 612.59 556.31 612.59M556.31 449.07 556.31 449.07M331.7 203.77 331.7 203.77M570.74 203.77 570.74 203.77M556.31 285.55 556.31 285.55M556.31 122.03 556.31 122.03" transform="matrix(.09988 0 0 -.09988 332.42 267.2)"/>
  <path fill="none" stroke="#000" stroke-linecap="round" stroke-linejoin="round" stroke-miterlimit="10" stroke-width="30" d="M331.69 530.81 331.69 530.81M570.73 530.81 570.73 530.81M556.3 612.59 556.3 612.59M556.3 449.07 556.3 449.07M331.69 203.77 331.69 203.77M570.73 203.77 570.73 203.77M556.3 285.55 556.3 285.55M556.3 122.03 556.3 122.03" transform="matrix(.09988 0 0 -.09988 421.13 267.2)"/>
  <path fill="none" stroke="#000" stroke-linecap="round" stroke-linejoin="round" stroke-miterlimit="10" stroke-width="30" d="M406.44 600.23 406.44 600.23M645.52 600.23 645.52 600.23" transform="matrix(.09988 0 0 -.09988 404.83 426.2)"/>
  <path fill="none" stroke="#000" stroke-linecap="round" stroke-linejoin="round" stroke-miterlimit="10" stroke-width="30" d="M406.44 839.31 406.44 839.31M645.52 839.31 645.52 839.31" transform="matrix(.09988 0 0 -.09988 404.83 426.2)"/>
  <path fill="none" stroke="#000" stroke-linecap="round" stroke-linejoin="round" stroke-miterlimit="10" stroke-width="30" d="M406.44 1078.39 406.44 1078.39M645.52 1078.39 645.52 1078.39" transform="matrix(.09988 0 0 -.09988 404.83 426.2)"/>
  <path fill="none" stroke="#000" stroke-linecap="round" stroke-linejoin="round" stroke-miterlimit="10" stroke-width="30" d="M406.44 361.15 406.44 361.15M645.52 361.15 645.52 361.15" transform="matrix(.09988 0 0 -.09988 404.83 426.2)"/>
</svg>
