<svg xmlns="http://www.w3.org/2000/svg" xmlns:xlink="http://www.w3.org/1999/xlink" width="595.28" height="841.89" viewBox="0 0 595.28 841.89">
  <defs>
    <path id="ca" d="M-8.3-8.92c-.1 0-.1.1-.1.1 0 .04 0 .09.12.18l1 .83a2.1 2.1 0 0 0-1.13 1.97C-8.4-3.27-5.8-.6-2.98-.6-.98-.6.25-2 .25-3.73c0-.96-.4-1.8-.98-2.49a4 4 0 0 0-2.13-1.34c-.1 0-.1.1-.1.12 0 .11.05.13.1.14A3.7 3.7 0 0 1-.09-3.94c0 1.27-.82 2.36-2.52 2.36-.37 0-2.45-.1-4.02-1.47a4 4 0 0 1-1.43-2.9c0-1.32 1.1-1.9 2.31-1.9.31 0 .56.04.6.04.12 0 .12-.13.12-.16 0-.14 0-.16-.22-.2Zm0 0"/>
    <path id="cb" d="M-7.34-4.37c-.44-.11-.47-.16-.47-.61v-1.57c0-1.34 1.15-1.34 1.26-1.34.96 0 2.2.97 2.2 2.55v1.72Zm3.07-2.02C-4.5-7.7-5.4-8.88-6.5-8.88c-.94 0-1.66.83-1.66 2.18v3.84c0 .22 0 .33.24.33.1 0 .1-.11.1-.28 0-.74.1-.74.24-.74q.02-.01.27.05L-.9-1.9c.42.12.55.15.55.98 0 .23 0 .34.22.34C0-.58 0-.64 0-.89V-5c0-1.8-1.4-3.23-2.6-3.23-.96 0-1.57.86-1.67 1.83m3.93 1.7v1.61c0 .17 0 .19-.02.27-.02.12-.03.14-.12.14-.1 0-.16-.03-.27-.05l-3.37-.84V-5.8c0-1.4 1.3-1.4 1.42-1.4A2.5 2.5 0 0 1-.34-4.7m0 0"/>
    <path id="cc" d="M-1.33-2.03c.7.42.96.83.99 1.4.01.13.01.22.22.22q.11-.01.12-.14l-.03-.97L0-2.58c0-.08 0-.22-.23-.22-.1 0-.11.1-.11.17-.03.27-.13.5-.41.5-.17 0-.3-.07-.56-.23l-1.5-.9V-6.3l.31-.03c.3-.03 1.55-.17 1.77-.17.36 0 .39.6.39.8 0 .12 0 .26.22.26.12 0 .12-.1.12-.18l-.03-.65v-.68c0-.72.03-1.25.03-1.27 0-.08 0-.2-.23-.2-.11 0-.11.1-.11.28 0 .66-.11.67-.47.7l-7.46.74c-.23.01-.26.06-.26.2 0 .1.03.19.2.3Zm-1.83-1.44-4.01-2.39 4.01-.4Zm0 0"/>
    <path id="cf" d="M-5.23-8.67c-1.97 0-3.18 1.3-3.18 2.97 0 2.54 2.75 5.12 5.5 5.12C-1.03-.58.25-1.8.25-3.55c0-2.5-2.6-5.12-5.48-5.12m5.2 5.06c0 .97-.7 2.02-2.58 2.02-1.08 0-2.86-.41-4.05-1.38-1.06-.87-1.48-1.87-1.48-2.67 0-1.06.77-2.08 2.48-2.08 1.07 0 2.72.45 3.86 1.27C-.58-5.6-.03-4.5-.03-3.61m0 0"/>
    <path id="cm" d="M-2.77-8.3q-.08-.03-.17-.04a.12.12 0 0 0-.12.12q0 .06.04.1c.02.03.05.03.29.14 1.67.7 2.39 1.21 2.39 3.12v1.75c0 .16 0 .19-.02.25-.02.14-.03.16-.12.16-.1 0-.16-.03-.27-.05l-3.3-.83v-1.19c0-.92.2-1 .57-1 .12 0 .21 0 .57.08q.08.05.14.05.12-.01.11-.14c0-.11-.07-.11-.25-.16l-2.76-.68a.12.12 0 0 0-.13.12c0 .1.07.1.22.16.92.25 1.19.48 1.19 1.54v1.13l-2.94-.74c-.42-.1-.45-.12-.45-.62v-1.7c0-1.47.39-1.77 1.3-1.77a7 7 0 0 1 .89.08q.13-.01.12-.14c0-.08-.05-.13-.26-.16l-2.08-.25-.19-.01c-.12 0-.12.1-.12.3v5.84c0 .23 0 .34.2.34.14 0 .14-.08.14-.28 0-.74.08-.74.22-.74q.05-.01.23.05l6.44 1.61c.42.11.55.13.55.97 0 .22 0 .34.22.34C0-.55 0-.62 0-.85v-6c0-.26-.02-.28-.2-.35Zm0 0"/>
    <path id="co" d="M-7.23-4.37c-.46-.11-.58-.16-.58-1.2 0-.32 0-.41-.22-.41-.13 0-.13.14-.13.18 0 .24.04.52.04.75v1.6c0 .23-.04.5-.04.72 0 .09 0 .23.24.23.1 0 .1-.1.1-.3 0-.72.1-.72.24-.72q.02-.01.27.05L-.9-1.86c.42.11.55.13.55.97 0 .22 0 .34.22.34C0-.55 0-.62 0-.85V-6.2c0-.27-.02-.28-.23-.36l-2.54-.92-.17-.05a.12.12 0 0 0-.12.12s0 .07.04.1l.27.1c1.06.4 2.4.93 2.4 2.94v1.41c-.03.14-.04.16-.13.16-.1 0-.16-.03-.27-.05Zm0 0"/>
    <path id="cd" d="M-2-5.25v.27c.2.03.86.12 1.05.25.1.07.1.76.1 1.12v2.2c-.28-.32-1.04-1.04-1.32-1.36-1.67-1.8-2.3-2.48-3.47-2.48-1.38 0-2.3 1.08-2.3 2.47s1.19 2.2 2.2 2.2c.62 0 .62-.53.62-.56 0-.25-.18-.56-.57-.56-.33 0-.56.22-.56.56 0 .1 0 .12.02.16-.82-.22-1.36-.86-1.36-1.64 0-1.02.84-1.65 1.95-1.65 1.01 0 1.89.6 2.66 1.27l2.7 2.42H0v-4.36Zm0 0"/>
    <path id="ce" d="M-7.66-3.44c-.26 0-.28 0-.28.24.33.3.77.89.77 2.1h.34c0-.26 0-.85-.31-1.5h6.22c.44 0 .58.02.58 1.07v.37H0c-.03-.32-.03-1.48-.03-1.87s0-1.55.03-1.86h-.34v.36c0 1.06-.14 1.1-.58 1.1Zm0 0"/>
    <path id="ck" d="M-3.81-5.34c-1 0-1.97.06-2.88.48a2.13 2.13 0 0 0 .1 3.92 6.4 6.4 0 0 0 2.78.46c1.15 0 2.01-.1 2.87-.52.9-.47 1.19-1.3 1.19-1.9 0-1.05-.62-1.65-1.31-2a6.5 6.5 0 0 0-2.75-.44M.02-2.91c0 .38-.22 1.16-1.52 1.38-.72.14-1.62.14-2.47.14-.97 0-1.86 0-2.56-.2-.8-.2-1.17-.82-1.17-1.32 0-.45.28-1.15 1.3-1.37.68-.16 1.62-.16 2.43-.16s1.72 0 2.44.13c1.31.23 1.55.98 1.55 1.4m0 0"/>
    <path id="cl" d="M-2.9-8.56c-1.12 0-1.44 0-1.83.28-.46.34-.54.9-.54 1.31 0 .99.72 1.49 1.2 1.69-.93.16-1.2.8-1.2 1.56 0 1.16.99 1.61 1.24 1.7V-2h-1.24l.13 1.63h.36c0-.82.08-.93.66-.93H-.9c.55 0 .55.14.55.93H0c-.03-.32-.03-.97-.03-1.3 0-.35 0-.99.03-1.3h-.34c0 .77 0 .9-.55.9h-2.22c-1.25 0-1.92-.82-1.92-1.56s.6-.9 1.34-.9h2.8c.55 0 .55.12.55.9H0c-.03-.3-.03-.95-.03-1.3 0-.34 0-.98.03-1.29h-.34c0 .77 0 .9-.55.9h-2.22c-1.25 0-1.92-.82-1.92-1.55s.6-.91 1.34-.91h2.8c.55 0 .55.12.55.9H0c-.03-.3-.03-.95-.03-1.3 0-.34 0-.98.03-1.29h-.34c0 .6 0 .9-.36.9Zm0 0"/>
    <path id="ch" d="m-1.62-2.25-.49-.58c-.45-.5-.89-.97-1.62-.97-.94 0-1.55.8-1.55 1.8 0 .95.72 1.58 1.42 1.58.4 0 .45-.31.45-.42a.4.4 0 0 0-.42-.41c-.42 0-.42.4-.42.48a1.2 1.2 0 0 1-.78-1.15c0-.74.64-1.11 1.3-1.11.82 0 1.43.58 2.39 1.51l1.04 1c.08.1.1.1.3.1v-3.14l-1.42-.24v.25c.15.03.56.1.7.2.06.04.06.63.06.77v1.4Zm0 0"/>
    <path id="ci" d="M-5.06-2.5c-.22 0-.22.02-.22.23.31.33.5.75.5 1.5h.26c0-.21 0-.64-.21-1.1h4.07c.3 0 .4.03.4.78v.28H0c-.03-.33-.03-1.02-.03-1.36 0-.36 0-1.06.03-1.4h-.27v.29c0 .76-.09.78-.39.78Zm0 0"/>
    <path id="cp" d="M3-8.17v.36l.52-.02c.46 0 .89.06.89.52v.22c-1.02.09-1.96.14-2.82.73a2.5 2.5 0 0 0-.95 2.1c0 .78.27 1.6.9 2.07.59.46 1.34.64 2.07.74q.4 0 .8.04v.47c0 .42-.2.52-.47.55q-.47.04-.94.03v.34h3.72v-.34h-.45c-.6 0-.96-.02-.96-.58v-.47q.4-.03.8-.04c1.44-.18 2.97-.8 2.97-2.82 0-.8-.3-1.62-.95-2.09-.6-.42-1.32-.6-2.02-.69q-.4 0-.8-.04v-.22c0-.46.42-.52.88-.52l.53.02v-.36Zm2.31 6.51v-5.18c.74 0 1.58.18 2.1.71.48.49.57 1.25.57 1.88 0 .66-.09 1.34-.54 1.84-.53.57-1.4.75-2.13.75m-.9-5.18v5.18c-1.38 0-2.68-.51-2.68-2.59 0-.62.1-1.4.57-1.87.53-.54 1.37-.72 2.1-.72m0 0"/>
    <path id="cq" d="M.33-5.14v.22h.25c.34 0 .65.04.65.56V-.8c0 .46-.2.55-.9.55v.23H2.9v-.23h-.24C2.34-.25 2-.3 2-.73c.03-.11.14-.2.2-.3l.47-.61L4.25-3.7l.22-.28.01 3.19c0 .37-.12.53-.92.53v.23h2.6v-.23h-.24c-.34 0-.67-.05-.67-.55v-3.56c0-.47.22-.56.9-.56v-.22H3.57v.22h.24c.34 0 .68.04.68.5-.03.1-.14.2-.2.3l-.47.6-1.58 2.05q-.11.13-.21.28L2-4.37c0-.38.1-.55.9-.55v-.22Zm0 0"/>
    <path id="cr" d="M.33-5.14v.22h.25c.34 0 .65.04.65.56V-.8c0 .46-.2.55-.9.55v.23h2.81v-.23h-.33C2.36-.25 2-.3 2-.83v-3.65c0-.25.05-.4.36-.44h.77c.8 0 1.45.08 1.5 1.65h.26l-.12-1.87Zm0 0"/>
    <path id="cs" d="M.22-5.14v.22h.1c.4 0 .62.04.84.56.6 1.3 1.09 2.7 1.64 4 .04.1.1.25.1.33v.06c-.04.3-.24.67-.35.9-.24.55-.58 1.26-1.25 1.26-.27 0-.4-.11-.61-.22v-.02c.25-.01.45-.18.45-.45a.44.44 0 0 0-.45-.45.44.44 0 0 0-.46.45c0 .6.55.92 1.05.92C2.5 2.42 2.92.7 3.22 0l1.33-3.25.22-.53c.21-.52.46-1.14 1.17-1.14v-.22H4.08v.22c.36 0 .56.3.56.58 0 .25-.14.46-.22.7-.39.87-.7 1.75-1.08 2.62q-.2-.46-.39-.93c-.3-.75-.64-1.52-.92-2.28-.03-.11-.1-.22-.1-.33v-.07c.07-.28.45-.3.68-.3v-.21Zm0 0"/>
    <path id="ct" d="M.33-5.14v.36h.22c.36 0 .68.03.68.53v5.48l.02.25c0 .46-.36.47-.75.47H.33v.35h2.6v-.35h-.27c-.33 0-.64-.04-.64-.47l.01-2.14c.3.5.95.77 1.5.77 1.45 0 2.53-1.3 2.53-2.72 0-1.33-1-2.66-2.45-2.66-.66 0-1.19.33-1.61.8v-.8ZM5.14-2.4c-.06.8-.36 1.7-1.16 2.12q-.26.15-.56.15c-.56 0-1.4-.57-1.4-1.18v-1.98L2-3.73C2-4.41 2.81-5 3.52-5c1.21 0 1.62 1.58 1.62 2.4zm0 0"/>
    <path id="cu" d="M1.25-4.4c.3-.44.81-.68 1.34-.68.68 0 1.22.69 1.22 1.35v.64c-1.2 0-3.3.34-3.3 1.97V-1C.64-.19 1.62.13 2.32.13c.63 0 1.4-.4 1.58-1.05h.02c.03.56.43.97.92.97s.89-.42.94-.92v-.88H5.5v.6c0 .34-.06.85-.45.85-.38 0-.47-.51-.47-.8l.01-.4v-1.66l.02-.4c0-1.13-1.05-1.77-2.02-1.77-.76 0-1.73.46-1.73 1.4 0 .34.23.52.52.52.28 0 .48-.21.48-.5s-.22-.48-.52-.48Zm2.56 1.53v1.12c0 .86-.53 1.63-1.37 1.63-.46 0-1.06-.36-1.06-.97 0-1.07.95-1.6 1.93-1.74.17-.03.35-.01.5-.04m0 0"/>
    <path id="cv" d="M1.1-7.19v.35c.52 0 .98-.08 1.5-.32v6.27c0 .47-.46.55-.93.55l-.53-.02v.34h3.74v-.34l-.5.02c-.61 0-.96-.07-.96-.58v-6.85c0-.07-.01-.18-.14-.18-.17 0-.31.23-.47.3-.51.35-1.12.46-1.72.46m0 0"/>
    <path id="cw" d="M1.53-5.14c-.25.06-.5.26-.5.56s.27.6.58.6.6-.24.6-.58a.6.6 0 0 0-.58-.58zm0 3.98c-.25.05-.5.27-.5.57s.27.57.58.57.6-.23.6-.56a.6.6 0 0 0-.58-.6zm0 0"/>
    <path id="cx" d="M3.72-8.95C3.3-8.8 2.5-7.77 2.14-7.1A8.5 8.5 0 0 0 1.2-3c0 2.2.65 4.4 2.39 5.88.06.03.14.1.2.1s.1-.07.1-.1c0-.14-.33-.39-.46-.55-1.19-1.42-1.6-3.37-1.6-5.23 0-1.98.38-4.25 1.88-5.73.07-.08.17-.16.17-.26 0-.04-.06-.09-.1-.09q-.05 0-.05.02m0 0"/>
    <path id="cy" d="M.33-5.14v.22h.25c.34 0 .65.04.65.56V-.8c0 .46-.2.55-.9.55v.23h2.56v-.23h-.25c-.36 0-.66-.05-.66-.56v-1.25c0-.14.16-.24.27-.31q.3-.25.6-.47c.1.21.3.4.43.59l.97 1.28c.08.11.19.28.19.44 0 .17-.17.28-.42.28v.23H6.3v-.23c-.66 0-.9-.37-1.22-.78l-1.5-1.99q-.1-.12-.2-.28.28-.17.54-.42c.61-.5 1.38-1.2 2.11-1.2v-.22H4.11v.22l.1.04q.13.08.12.2c0 .45-.61.77-.95 1.05q-.7.54-1.4 1.13v-1.62l-.01-.27c0-.4.19-.53.92-.53v-.22Zm0 0"/>
    <path id="cz" d="M.42-5.14.28-3.25h.27c.03-.42.03-1.05.3-1.33.23-.26.6-.33.95-.33h.39c.3 0 .34.2.34.46v3.64c0 .48-.22.56-.9.56v.23h2.92c.83 0 2.18-.26 2.18-1.48 0-.9-1.03-1.4-1.86-1.45H3.32v-1.5c0-.25.03-.47.46-.47v-.22Zm2.9 2.42h1.06c.7 0 1.43.45 1.43 1.2v.08c-.1.69-.65 1.16-1.36 1.16h-.8c-.3 0-.34-.13-.34-.5Zm0 0"/>
    <path id="cA" d="M.38-5.14v.22H.6c.33 0 .67.04.67.51v2.74l.02.44c0 .71-.4.98-.92.98v.23h2.09v-.23c-.52 0-.9-.23-.9-.94v-3.6q.08.21.18.42l.33.8c.45 1.09.95 2.18 1.37 3.29.05.1.08.25.22.25.2 0 .4-.75.58-1.11l1.03-2.5.34-.8q.1-.22.18-.43L5.8-.75c0 .47-.34.5-.9.5v.23h2.5v-.23h-.24c-.34 0-.67-.05-.67-.55v-3.56c0-.47.22-.56.9-.56v-.22H5.93c-.26 0-.28.16-.36.34Q5-3.38 4.4-1.98q-.26.57-.47 1.14-.2-.48-.4-.96c-.43-.98-.82-2-1.25-2.98-.08-.19-.1-.36-.38-.36Zm0 0"/>
    <path id="cH" d="M.7-8.95q-.04.01-.04.07c0 .16.3.38.43.54C2.33-6.86 2.7-4.83 2.7-2.91c0 1.8-.37 3.74-1.53 5.2L.9 2.6c-.1.08-.23.17-.23.28q0 .08.1.08H.8c.14-.02.36-.27.51-.42a7.7 7.7 0 0 0 2.05-5.52c0-2.2-.67-4.42-2.42-5.9q-.08-.09-.17-.1-.04 0-.07.02m0 0"/>
    <path id="cB" d="M5.05-4.28c.84-.27 1.8-.42 2.15-1.45q.07-.23.07-.44c0-.88-.68-1.55-1.44-1.86A5 5 0 0 0 4-8.34c-.66 0-1.37.1-1.95.46-.05.02-.08.07-.13.07h-.01c-.2 0-.68-.53-.93-.53-.15 0-.15.12-.15.2v1.92l-.02.3c0 .15.02.28.25.28h.11c.27 0 .22-.31.28-.56.35-1.2 1.4-1.63 2.47-1.63.88 0 1.77.52 1.77 1.66 0 1.22-1.02 1.7-1.97 1.7h-.9q-.23 0-.21.2v.07c0 .12.12.12.23.12h.91c1.03 0 2.19.36 2.25 1.83v.06c0 .46-.19.94-.52 1.25-.42.44-1.01.56-1.6.56-1.16 0-2.5-.28-2.65-1.84 0-.12-.01-.22-.2-.22H.9q-.22-.02-.23.22c0 .53.23 1.13.59 1.52.67.73 1.8.83 2.72.83C4.94.13 6-.02 6.8-.62c.48-.38.83-.97.83-1.58 0-1.4-1.55-1.9-2.58-2.08m0 0"/>
    <path id="cC" d="M1.98-4.92v-.02q.44-.08.9-.1c.71 0 1.3.37 1.3 1.52v.4C2.74-3.12.4-2.78.4-1.27.4-.2 1.73.06 2.66.06h.14c.62-.03 1.34-.42 1.54-1 .04.16-.01.33.08.5.22.4.75.42 1.17.42h.72q.22-.01.2-.26.02-.24-.24-.25h-.08c-.27-.02-.67-.05-.7-.3v-2.65q.02-1.12-.96-1.63a4 4 0 0 0-1.6-.31c-.7 0-2.07.03-2.07 1.08 0 .32.22.64.6.7h.09c.37 0 .72-.27.72-.7q0-.38-.29-.58m2.2 2.12v1.11c0 .8-.6 1.36-1.37 1.36-.51 0-1.08-.36-1.08-.95 0-1.03 1.24-1.38 2.02-1.47q.22-.02.44-.05m0 0"/>
    <path id="cD" d="M1.73-5.31v.36l.36-.02c.25 0 .46.03.46.27v.23l-.05.86C2.45-2.34 1.86-.4.53-.4H.28l-.2 2.33h.51C.63 1.38.7.7 1.08.32c.33-.29.8-.34 1.22-.34H5c.66 0 1.47.05 1.7.96q.13.49.16.98h.5L7.16-.4l-.46.02c-.25 0-.47-.05-.47-.23v-3.94l-.01-.14c0-.24.23-.27.48-.27l.36.02v-.36ZM4.91-.48q-.07.06-.18.07H1.98c-.04-.01-.14-.01-.17-.06v-.01c0-.05.13-.16.17-.2C2.86-1.76 3-3.2 3.06-4.54v-.14c0-.22.08-.28.28-.28h1.33q.28-.01.27.23v4.08q0 .08-.03.16m0 0"/>
    <path id="cE" d="M.4-5.31v.36l.37-.02c.25 0 .45.03.45.28v.97c0 .3 0 .56.17.8.36.51 1.13.65 1.72.65.64 0 1.17-.14 1.83-.4v2.03c0 .2-.22.25-.46.25l-.37-.02V0h2.95v-.4l-.39.02c-.25 0-.45-.05-.45-.23l.01-.16v-3.8l-.01-.14c0-.22.25-.25.48-.25l.36.02v-.36H4.11v.36l.37-.02c.25 0 .46.05.46.3v1.49c0 .37-1.19.56-1.82.56-.5 0-.6-.58-.6-1.04v-1.07c0-.2.25-.24.5-.24l.32.02v-.36Zm0 0"/>
    <path id="cF" d="M1.52-6.72q.54-.6 1.36-.6c.85 0 1.6.63 1.6 1.76v.12C4.23-3.83 2.95-2.83 1.9-1.72 1.5-1.32.67-.62.67-.28v.26H5.7l.34-2.56h-.51c-.08.52-.08 1.13-.54 1.13q-.43.04-.87.03H2.17c.61-.47 1.17-1 1.78-1.47.88-.67 2.08-1.4 2.08-2.7 0-1.44-1.4-2.25-2.83-2.25-1.1 0-2.53.53-2.53 1.9 0 .5.38.8.78.8.49 0 .8-.36.8-.8 0-.42-.3-.76-.73-.78m0 0"/>
    <path id="cG" d="M1.75-1.73c-.42.09-.75.42-.75.84 0 .45.34.87.9.87h.07c.44-.07.75-.42.75-.84a.86.86 0 0 0-.88-.87Zm0 0"/>
  <pattern id="grid" width="7.8454" height="7.8454" patternUnits="userSpaceOnUse">
  <path d="M 7.8454 0 L 0 0 0 7.8454" fill="none" stroke="#7f7f7f" stroke-linecap="round" stroke-linejoin="round" stroke-miterlimit="10" stroke-width="1"/>
  </pattern>
  </defs>
  <rect width="455.52" height="675.22" x="0" y="0" fill="url(#grid)" transform="translate(69.77 72.09)"/>
  <path fill="none" stroke="#000" stroke-linecap="round" stroke-linejoin="round" stroke-miterlimit="10" stroke-width="1.49" d="M455.08 440.82H139.5"/>
  <g clip-path="url(#bQ)">
    <path d="M462.05 440.82a27 27 0 0 1-9.96-2.89l3 2.89-3 2.89a27 27 0 0 1 9.96-2.89"/>
  </g>
  <g clip-path="url(#bR)">
    <path fill="none" stroke="#000" stroke-linecap="round" stroke-linejoin="round" stroke-miterlimit="10" stroke-width="1.49" d="M462.05 440.82a27 27 0 0 1-9.96-2.89l3 2.89-3 2.89a27 27 0 0 1 9.96-2.89m0 0"/>
  </g>
  <g clip-path="url(#bS)">
    <path d="M132.54 440.82a27 27 0 0 1 9.96 2.89l-3-2.89 3-2.89a27 27 0 0 1-9.96 2.89"/>
  </g>
  <g clip-path="url(#bT)">
    <path fill="none" stroke="#000" stroke-linecap="round" stroke-linejoin="round" stroke-miterlimit="10" stroke-width="1.49" d="M132.54 440.82a27 27 0 0 1 9.96 2.89l-3-2.89 3-2.89a27 27 0 0 1-9.96 2.89m0 0"/>
  </g>
  <path fill="none" stroke="#000" stroke-linecap="round" stroke-linejoin="round" stroke-miterlimit="10" stroke-width="1.49" d="M132.54 95.62h329.5"/>
  <g clip-path="url(#bU)">
    <path fill="none" stroke="#000" stroke-dasharray="6.398292824 6.398292824" stroke-linecap="round" stroke-linejoin="round" stroke-miterlimit="10" stroke-width=".8" d="M297.3 738.95V79.93"/>
  </g>
  <g clip-path="url(#bV)">
    <path fill="none" stroke="#000" stroke-linecap="round" stroke-linejoin="round" stroke-miterlimit="10" stroke-width=".8" d="m218.84 691.88-47.07-251.06"/>
  </g>
  <path d="M194.66 562.93c.34 3.47 0 6.97-1 10.32l2.29-3.48 3.38 2.41a27 27 0 0 1-4.67-9.25"/>
  <path fill="none" stroke="#000" stroke-linecap="round" stroke-linejoin="round" stroke-miterlimit="10" stroke-width=".8" d="M194.66 562.93c.34 3.47 0 6.97-1 10.32l2.29-3.48 3.38 2.41a27 27 0 0 1-4.67-9.25m0 0"/>
  <g clip-path="url(#bW)">
    <path fill="none" stroke="#000" stroke-linecap="round" stroke-linejoin="round" stroke-miterlimit="10" stroke-width=".8" d="m221.82 369.48-50.05 71.34"/>
  </g>
  <path d="M225.82 363.78c-2.25 2.67-5 4.88-8.08 6.5l4.08-.8.64 4.11a27 27 0 0 1 3.36-9.81"/>
  <path fill="none" stroke="#000" stroke-linecap="round" stroke-linejoin="round" stroke-miterlimit="10" stroke-width=".8" d="M225.82 363.78c-2.25 2.67-5 4.88-8.08 6.5l4.08-.8.64 4.11a27 27 0 0 1 3.36-9.81m0 0"/>
  <g clip-path="url(#bX)">
    <path fill="none" stroke="#000" stroke-linecap="round" stroke-linejoin="round" stroke-miterlimit="10" stroke-width=".8" d="m421.86 447.72-38.27 275.53"/>
  </g>
  <g clip-path="url(#bY)">
    <path d="M422.82 440.82a27 27 0 0 1-4.23 9.47l3.27-2.57 2.44 3.36a27 27 0 0 1-1.48-10.26"/>
    <path fill="none" stroke="#000" stroke-linecap="round" stroke-linejoin="round" stroke-miterlimit="10" stroke-width=".8" d="M422.82 440.82a27 27 0 0 1-4.23 9.47l3.27-2.57 2.44 3.36a27 27 0 0 1-1.48-10.26m0 0"/>
  </g>
  <path fill="none" stroke="#000" stroke-linecap="round" stroke-linejoin="round" stroke-miterlimit="10" stroke-width="1.49" d="M498.4 731.1h-9.95M498.4 652.64h-9.95"/>
  <g clip-path="url(#bZ)">
    <path fill="none" stroke="#000" stroke-linecap="round" stroke-linejoin="round" stroke-miterlimit="10" stroke-width="1.49" d="M493.43 731.1v-78.46"/>
  </g>
  <path fill="#fff" d="M291 60h13v14h-13ZM281 421h13v16h-13ZM471 89.5h11.5v12h-11.5ZM211 347.5h11.5v12.5h-11.5ZM157 444h11.5v12h-11.5ZM213.5 697.5h11v9h-11ZM378 729h11v9h-11ZM292 744.5h11v10h-11ZM426 425h12v12h-12ZM471 435h11.5v11h-11.5ZM495.2 673h10.7v38h-10.7Z"/>
  <use xlink:href="#ca" x="436.01" y="435.77"/>
  <use xlink:href="#cb" x="220.75" y="358.71"/>
  <use xlink:href="#cc" x="166.69" y="454.59"/>
  <use xlink:href="#cd" x="387.47" y="736.25"/>
  <use xlink:href="#ce" x="222.67" y="704.85"/>
  <use xlink:href="#cf" x="290.38" y="435.77"/>
  <g clip-path="url(#cg)">
    <use xlink:href="#ch" x="292.18" y="426.78"/>
  </g>
  <use xlink:href="#cf" x="300.45" y="72.73"/>
  <use xlink:href="#ci" x="302.25" y="63.75"/>
  <use xlink:href="#cf" x="301.41" y="755.3"/>
  <g clip-path="url(#cj)">
    <use xlink:href="#cd" x="504.68" y="709.4"/>
  </g>
  <use xlink:href="#ck" x="504.68" y="703.53"/>
  <use xlink:href="#cl" x="504.68" y="693.82"/>
  <use xlink:href="#cl" x="504.68" y="684.11"/>
  <use xlink:href="#cm" x="480.95" y="100.18"/>
  <g clip-path="url(#cn)">
    <use xlink:href="#co" x="480.95" y="444.76"/>
  </g>
  <use xlink:href="#cp" x="223.02" y="781.24"/>
  <use xlink:href="#cq" x="232.77" y="781.24"/>
  <use xlink:href="#cr" x="239.26" y="781.24"/>
  <use xlink:href="#cs" x="244.45" y="781.24"/>
  <use xlink:href="#ct" x="250.62" y="781.24"/>
  <use xlink:href="#cu" x="257.12" y="781.24"/>
  <use xlink:href="#cv" x="266.86" y="781.24"/>
  <use xlink:href="#cw" x="272.7" y="781.24"/>
  <use xlink:href="#cx" x="279.85" y="781.24"/>
  <use xlink:href="#cy" x="284.4" y="781.24"/>
  <use xlink:href="#cz" x="290.89" y="781.24"/>
  <use xlink:href="#cA" x="298.03" y="781.24"/>
  <use xlink:href="#cB" x="309.72" y="781.24"/>
  <use xlink:href="#cC" x="317.93" y="781.24"/>
  <use xlink:href="#cD" x="324.45" y="781.24"/>
  <use xlink:href="#cC" x="331.91" y="781.24"/>
  <use xlink:href="#cE" x="338.07" y="781.24"/>
  <use xlink:href="#cC" x="345.53" y="781.24"/>
  <use xlink:href="#cF" x="356.54" y="781.24"/>
  <use xlink:href="#cG" x="363.25" y="781.24"/>
  <use xlink:href="#cH" x="366.98" y="781.24"/>
  <path fill="none" stroke="#000" stroke-linecap="round" stroke-linejoin="round" stroke-miterlimit="10" stroke-width="47.82" d="M650.66 3065.95 650.66 3065.95M336.49 1416.37 336.49 1416.37M3164.27 3537.22 3164.27 3537.22M3935.63 2996.02 3935.63 2996.02" transform="matrix(0 -.09988 -.09988 0 525.06 756.86)"/>
</svg>
