<svg xmlns="http://www.w3.org/2000/svg" xmlns:xlink="http://www.w3.org/1999/xlink" width="595.28" height="70" viewBox="0 0 595.28 70">
  <defs>
    <path id="h" d="M.48-8.17v.36h.47c.35 0 .68.01.68.2v6.34c0 .83-.61.91-1.15.91v.34h2.57v-.34c-.53 0-1.16-.1-1.16-.89l.02-.37v-5.93c.2.25.37.55.54.8Q3.68-4.86 4.92-3l.86 1.3c.36.53 1 1.7 1.2 1.68.13 0 .14-.1.14-.17v-6.76c0-.77.63-.86 1.15-.86v-.36H5.7v.36c.52 0 1.14.1 1.14.86v5.25L2.58-8.14l-.2-.03Zm0 0"/>
    <path id="i" d="M6.92-7.33a3 3 0 0 0-2.19-1.1C2.41-8.42.64-6.33.64-4.07S2.38.23 4.72.23h.17a3.1 3.1 0 0 0 2.88-2.85l.01-.18c0-.1-.01-.2-.12-.2-.2 0-.14.4-.2.6A2.7 2.7 0 0 1 4.89-.1C4-.1 3.13-.56 2.56-1.24a4.6 4.6 0 0 1-.81-2.93c0-.75.1-1.57.48-2.25a3 3 0 0 1 2.65-1.65c1.51 0 2.32 1.45 2.54 2.69.02.12-.01.34.19.34.14 0 .17-.05.17-.16v-3.08c0-.07-.03-.15-.12-.15-.1 0-.14.14-.2.2l-.33.55q-.12.15-.2.34m0 0"/>
    <path id="j" d="M0-3.31v.25h5.83v-.25Zm0 0"/>
    <path id="s" d="M4.33-8.42C2.34-8.22.64-6.52.64-4.06c0 1.95 1.34 4.3 3.92 4.3 2.32 0 3.86-2.16 3.86-4.32 0-2.12-1.51-4.34-3.89-4.34zm-2.58 4.5v-.2c0-1.41.31-2.96 1.72-3.75q.47-.28 1.05-.29c1.06 0 1.89.72 2.37 1.7.31.66.42 1.44.42 2.18 0 1.53-.4 3.72-2.28 4.19q-.24.05-.5.06C2.87-.03 2-1.81 1.81-3.23q-.02-.36-.06-.7m0 0"/>
    <path id="k" d="M1.1-1.02c.3 0 .59-.17.59-.53a.34.34 0 0 0-.36-.34c-.4 0-.56.39-.56.72C.77-.28 1.63.1 2.4.1c.98 0 2.57-.58 2.57-1.8 0-.45-.39-1.1-1.03-1.2.6-.2 1.38-.6 1.38-1.31 0-.67-.86-1.08-1.61-1.08s-1.58.34-1.97 1c-.03.06-.1.16-.1.25s.08.16.18.16q.06 0 .1-.05L2-4.08a2 2 0 0 1 1.67-.95c.35 0 .83.16.83.62 0 .74-.52 1.32-1.23 1.4h-.55l-.36-.02H2.3c-.1 0-.25.01-.25.12v.04c0 .07.08.09.16.09h.12l.5-.02c.63 0 1.32.1 1.32.88v.1a1.73 1.73 0 0 1-1.77 1.7c-.56 0-1.17-.3-1.28-.9m0 0"/>
    <path id="l" d="M3.9-.73c.1.46.4.84.93.84C5.69.1 5.88-1.1 6-1.55q.03-.07.03-.15 0-.14-.16-.13c-.18 0-.17.13-.21.24-.13.57-.35 1.47-.83 1.47-.22 0-.28-.29-.3-.46v-.05c0-.28.1-.56.16-.84l.72-2.86q.06-.18.07-.39v-.05c0-.17-.14-.26-.3-.26-.27 0-.41.25-.45.48-.25-.39-.46-.72-.98-.72a2 2 0 0 0-1.12.43l-.25.21A4 4 0 0 0 1.09-1.7c0 .75.35 1.8 1.36 1.8.6 0 1.07-.4 1.44-.83m.65-3.1q-.04.24-.13.47l-.4 1.66c-.04.1-.05.26-.1.37-.3.67-1.04 1.2-1.42 1.2h-.02c-.48 0-.65-.64-.65-1.06 0-.5.14-.97.26-1.45a4 4 0 0 1 .94-2.02c.19-.18.45-.37.74-.37h.01c.53.03.78.75.78 1.1zm0 0"/>
    <path id="m" d="M6.08-4.17h-.02c-.06-.77-.58-1.1-1.18-1.1-.66 0-1.4.4-1.72.99l-.04-.22a.9.9 0 0 0-.92-.77c-.8 0-1.04 1.13-1.17 1.64q-.03.07-.05.18.02.13.18.12c.43 0 .28-1.7 1.03-1.7q.07 0 .15.05l.07.07q.1.17.09.35-.01.38-.12.75-.33 1.38-.7 2.75l-.13.58q-.05.14-.07.3c0 .18.16.29.32.29h.03c.33-.03.37-.33.45-.6l.64-2.6c.22-.88.96-1.94 1.9-1.94.46 0 .57.4.57.76 0 .5-.16.96-.28 1.44L4.53-.5q-.05.16-.06.33c0 .17.16.28.31.28h.05c.36-.05.39-.4.45-.7l.64-2.57c.2-.82.96-1.86 1.88-1.87h.06c.42.1.5.45.5.81v.1c0 .3-.1.59-.16.85q-.18.67-.42 1.32c-.12.37-.31.76-.31 1.17v.06c.05.49.39.83.86.83.81 0 1.4-1.08 1.5-1.78v-.03c0-.1-.08-.11-.14-.11-.38 0-.4 1.69-1.3 1.69-.22 0-.28-.16-.3-.32v-.04a2 2 0 0 1 .16-.7c.23-.7.48-1.37.67-2.07q.11-.4.13-.81c0-.75-.5-1.2-1.24-1.2-.56 0-1.08.28-1.47.7q-.15.17-.26.39m0 0"/>
    <path id="n" d="M4.45-2.94c.64-.22 1.33-.51 1.33-1.31 0-.69-.73-1.02-1.42-1.02a3.25 3.25 0 0 0-3.19 3.18c0 1.01.52 2.2 1.9 2.2h.12c.98-.03 2.4-.67 2.4-1.8 0-.65-.54-1.12-1.14-1.25m-2.34.16h1.47c.47 0 1.2.08 1.2.83 0 .93-.67 1.83-1.67 1.83-.69 0-1.16-.57-1.16-1.57 0-.39.13-.72.16-1.1m.08-.24c.22-1.04 1.08-2.01 2.17-2.01.44 0 1.01.25 1.01.78 0 1.13-1.6 1.23-2.6 1.23zm0 0"/>
    <path id="o" d="M3.9-5.27c-1.68.2-2.8 2.04-2.8 3.43 0 .8.37 1.95 1.67 1.95h.14c1.53-.16 2.8-1.86 2.8-3.42 0-.86-.41-1.96-1.7-1.96ZM4.95-3.7c-.07 1-.49 3.3-2.08 3.58-.77 0-.98-.66-.98-1.27v-.11c.01-.36.1-.72.18-1.06.19-.77.46-1.52 1.07-2.06.23-.2.59-.41.92-.41h.03c.58.03.87.66.87 1.19zm0 0"/>
    <path id="p" d="M2.3-.64zc.19.42.56.77 1.05.77.52 0 1.03-.32 1.37-.61A4 4 0 0 0 6.1-3.44c0-.73-.36-1.83-1.43-1.83-.6 0-1.14.43-1.5.88-.13-.53-.44-.88-.96-.88-.84 0-1.06 1.2-1.17 1.66l-.05.14c0 .1.08.13.16.13q.15.02.2-.13c.14-.53.35-1.56.85-1.56.23 0 .31.28.31.47 0 .48-.19.97-.3 1.43L1.14 1.1c-.08.41-.08.83-.6.86H.4c-.11 0-.24.03-.24.22q0 .1.1.13h.35q.24-.03.47-.02h.75l.57.02q.16-.01.17-.2c0-.15-.17-.16-.38-.16h-.1c-.2 0-.37-.02-.37-.16v-.03q0-.14.05-.25l.38-1.53c.04-.2.12-.4.14-.61m3.03-3.08q-.08.6-.24 1.22c-.17.67-.39 1.4-.89 1.9-.23.22-.5.46-.84.48h-.02c-.56 0-.86-.74-.86-1.2q.05-.18.08-.37l.4-1.62c.12-.38.2-.67.6-1.11.27-.28.63-.61 1.05-.61h.05c.51.05.68.66.68 1.08zm0 0"/>
    <path id="q" d="M2.1-2.78c1.21 0 3.09-.06 3.09-1.5 0-.45-.35-.99-1.16-.99-.37 0-.76.13-1.08.29a3.4 3.4 0 0 0-1.8 3C1.16-1.05 1.57.1 2.8.1c.89 0 1.8-.48 2.34-1.17q.09-.1.1-.2c0-.08-.08-.18-.16-.18s-.14.1-.2.17l-.25.29c-.46.46-1.15.86-1.82.86s-.9-.77-.9-1.32c0-.47.14-.89.2-1.34m.09-.24c.17-.92.9-2.01 1.84-2.01.5 0 .75.36.75.75 0 1.25-1.8 1.26-2.6 1.26m0 0"/>
    <path id="r" d="M2.84-2.78h2.24l-.1.47-.21.83q-.08.27-.08.56c0 .3.15 1.03.84 1.03.75 0 .99-.63 1.17-1.22l.1-.44q.04-.07.04-.15v-.05q-.03-.07-.12-.06c-.27 0-.24.23-.3.42-.12.45-.33 1.26-.78 1.26-.19 0-.3-.21-.3-.48 0-.34.11-.69.2-1.03l.71-2.86q.06-.18.08-.37c-.02-.18-.16-.27-.31-.27-.29 0-.41.25-.47.5l-.3 1.19-.1.43H2.92c.06-.4.25-.82.25-1.23 0-.53-.4-1.02-.96-1.02-.84 0-1.03 1.14-1.17 1.66l-.05.14q.02.15.15.13c.25 0 .25-.24.28-.43.14-.46.34-1.26.8-1.26.21 0 .29.25.29.48 0 .35-.1.7-.2 1.05L1.55-.52q-.05.16-.07.33v.03c.02.18.16.27.32.27.37 0 .42-.4.5-.69l.42-1.67c.03-.17.1-.36.12-.53m0 0"/>
    <clipPath id="c">
      <path d="M0 0h3v3H0Zm0 0"/>
    </clipPath>
    <clipPath id="d">
      <path d="M0 1h2v2H0Zm0 0"/>
    </clipPath>
    <clipPath id="f">
      <path d="M1 0h2v2H1Zm0 0"/>
    </clipPath>
    <clipPath id="b">
      <path d="M0 0h3v3H0z"/>
    </clipPath>
    <clipPath id="g">
      <path d="M261 13.87h1V23h-1Zm0 0"/>
    </clipPath>
    <g id="a" clip-path="url(#b)">
      <g clip-path="url(#c)">
        <path fill="none" stroke="#000" stroke-linecap="round" stroke-linejoin="round" stroke-miterlimit="10" stroke-width=".53" d="m0 0 3 3"/>
      </g>
      <g clip-path="url(#d)">
        <path fill="none" stroke="#000" stroke-linecap="round" stroke-linejoin="round" stroke-miterlimit="10" stroke-width=".53" d="m-1.5 1.5 3 3"/>
      </g>
      <g clip-path="url(#f)">
        <path fill="none" stroke="#000" stroke-linecap="round" stroke-linejoin="round" stroke-miterlimit="10" stroke-width=".53" d="m1.5-1.5 3 3"/>
      </g>
    </g>
  </defs>
  <path fill="none" stroke="#000" stroke-linecap="round" stroke-linejoin="round" stroke-miterlimit="10" stroke-width=".5" d="M295.74 27.04h15.92m15.91 0h15.93m-31.84 1h15.91m-7.95 0v-7.97M295.74 46.94h15.92m15.91 0h15.93m-31.84 4.97h15.91m-7.95 0v-7.96M237.52 27.07h15.92m15.92 0h15.92m-31.84-4.98h15.92"/>
  <g clip-path="url(#g)">
    <path fill="none" stroke="#000" stroke-linecap="round" stroke-linejoin="round" stroke-miterlimit="10" stroke-width=".5" d="M261.4 22.09v-7.96"/>
  </g>
  <path fill="none" stroke="#000" stroke-linecap="round" stroke-linejoin="round" stroke-miterlimit="10" stroke-width=".5" d="M237.52 46.96h15.92m15.92 0h15.92m-31.84-.99h15.92m-7.96 0V38"/>
  <use xlink:href="#h" x="350.73" y="30"/>
  <use xlink:href="#i" x="359.48" y="30"/>
  <use xlink:href="#j" x="371.83" y="30"/>
  <use xlink:href="#k" x="381.53" y="30"/>
  <use xlink:href="#l" x="386.93" y="30"/>
  <use xlink:href="#m" x="392.68" y="30"/>
  <use xlink:href="#n" x="402.27" y="30"/>
  <use xlink:href="#o" x="408.02" y="30"/>
  <use xlink:href="#p" x="413.53" y="30"/>
  <use xlink:href="#q" x="419.4" y="30"/>
  <use xlink:href="#r" x="424.55" y="30"/>
  <use xlink:href="#h" x="350.73" y="50"/>
  <use xlink:href="#i" x="359.48" y="50"/>
  <use xlink:href="#j" x="371.83" y="50"/>
  <use xlink:href="#o" x="381.53" y="50"/>
  <use xlink:href="#m" x="387.05" y="50"/>
  <use xlink:href="#n" x="396.64" y="50"/>
  <use xlink:href="#o" x="402.39" y="50"/>
  <use xlink:href="#p" x="407.9" y="50"/>
  <use xlink:href="#q" x="413.78" y="50"/>
  <use xlink:href="#r" x="418.92" y="50"/>
  <use xlink:href="#h" x="153.93" y="30"/>
  <use xlink:href="#s" x="162.68" y="30"/>
  <use xlink:href="#j" x="175.74" y="30"/>
  <use xlink:href="#o" x="185.45" y="30"/>
  <use xlink:href="#m" x="190.97" y="30"/>
  <use xlink:href="#n" x="200.56" y="30"/>
  <use xlink:href="#o" x="206.3" y="30"/>
  <use xlink:href="#p" x="211.82" y="30"/>
  <use xlink:href="#q" x="217.69" y="30"/>
  <use xlink:href="#r" x="222.84" y="30"/>
  <use xlink:href="#h" x="148.3" y="50"/>
  <use xlink:href="#s" x="157.05" y="50"/>
  <use xlink:href="#j" x="170.11" y="50"/>
  <use xlink:href="#k" x="179.82" y="50"/>
  <use xlink:href="#l" x="185.21" y="50"/>
  <use xlink:href="#m" x="190.96" y="50"/>
  <use xlink:href="#n" x="200.55" y="50"/>
  <use xlink:href="#o" x="206.3" y="50"/>
  <use xlink:href="#p" x="211.81" y="50"/>
  <use xlink:href="#q" x="217.69" y="50"/>
  <use xlink:href="#r" x="222.84" y="50"/>
  <path fill="none" stroke="#000" stroke-linecap="round" stroke-linejoin="round" stroke-miterlimit="10" stroke-width="30" d="M1649.98 286.18 1649.98 286.18M1809.36 286.18 1809.36 286.18" transform="matrix(.1 0 0 -.1 146.86 55.62)"/>
  <path fill="none" stroke="#000" stroke-linecap="round" stroke-linejoin="round" stroke-miterlimit="10" stroke-width="30" d="M1649.98 86.91 1649.98 86.91M1809.36 86.91 1809.36 86.91" transform="matrix(.1 0 0 -.1 146.86 55.62)"/>
  <path fill="none" stroke="#000" stroke-linecap="round" stroke-linejoin="round" stroke-miterlimit="10" stroke-width="30" d="M1067.13 285.9 1067.13 285.9M1226.54 285.9 1226.54 285.9" transform="matrix(.1 0 0 -.1 146.86 55.62)"/>
  <path fill="none" stroke="#000" stroke-linecap="round" stroke-linejoin="round" stroke-miterlimit="10" stroke-width="30" d="M1067.13 86.68 1067.13 86.68M1226.54 86.68 1226.54 86.68" transform="matrix(.1 0 0 -.1 146.86 55.62)"/>
</svg>
