<svg xmlns="http://www.w3.org/2000/svg" xmlns:xlink="http://www.w3.org/1999/xlink" width="595.32" height="841.92" viewBox="0 0 595.32 841.92">
  <defs>
    <path id="t" d="M.2-7.7c1 .06 1.14.17 1.16 1.08v5.3C1.34-.4 1.19-.26.2-.22V0h4c.92 0 1.78-.25 2.24-.66.42-.39.67-.92.67-1.5q0-.8-.6-1.36a3 3 0 0 0-1.45-.65c.63-.16.88-.28 1.16-.53.3-.27.48-.7.48-1.2 0-1.33-1.08-2.04-3.14-2.04H.2Zm2.38 3.8c1.15 0 1.72.07 2.14.24a1.5 1.5 0 0 1 1.01 1.52q0 .96-.73 1.39c-.4.2-.87.31-1.67.31-.58 0-.75-.1-.75-.5Zm0-.48v-2.74c.01-.27.06-.35.26-.36h.54c1.32-.05 2.1.56 2.1 1.64 0 .93-.62 1.45-1.76 1.45Zm0 0"/>
    <path id="r" d="m7.44-5.4-.11-2.7h-.25q-.13.4-.52.4-.17 0-.47-.1-.87-.3-1.75-.3a4.2 4.2 0 0 0-2.71 1.02A4.2 4.2 0 0 0 .32-3.9C.33-1.47 1.93.17 4.3.17c1.36 0 2.55-.56 3.28-1.53l-.21-.2A3.7 3.7 0 0 1 4.7-.36a3 3 0 0 1-1.95-.69c-.66-.6-1.03-1.67-1.03-3.01 0-2.17 1.12-3.57 2.86-3.57.69 0 1.31.25 1.78.72.39.4.56.72.8 1.5Zm0 0"/>
    <path id="u" d="M4.95-7.7c.72.03.82.08.82.37 0 .25-.29.61-.94 1.24L2.7-4.17v-2.45c.02-.91.14-1.02 1.11-1.08v-.24H.41v.24c.92.06 1.06.2 1.07 1.08v5.18C1.47-.42 1.34-.28.41-.24V0h3.37v-.23c-.92-.05-1.06-.2-1.08-1.08v-2.24l.32-.25L4.3-2.55C5.22-1.63 5.84-.8 5.84-.5q.01.25-.5.27h-.32V0h3.65v-.23c-.62 0-.8-.13-1.89-1.29l-2.8-3 2.29-2.25c.8-.78 1.01-.87 1.82-.93v-.24H4.95Zm0 0"/>
    <path id="v" d="M8.47-.23c-.55-.04-.67-.16-1.1-1.04L4.4-8.07h-.23L1.67-2.2C.91-.44.75-.25.2-.23V0h2.36v-.23q-.84.02-.82-.49.01-.22.1-.47l.56-1.4h3.14l.49 1.15c.14.33.23.64.23.8 0 .31-.2.4-.84.4V0h3.06ZM2.59-3.08l1.38-3.3 1.39 3.3Zm0 0"/>
    <path id="x" d="M6.17-7.5H2.48v6.05q0 .8.2 1.01t.96.22V0H.22v-.22q.73 0 .94-.22.2-.21.2-1.01v-5.03q0-.8-.2-1-.2-.21-.94-.24v-.22h8.22v.22q-.74.03-.94.24t-.2 1v5.03q0 .8.2 1.01t.94.22V0h-3.4v-.22q.73 0 .93-.22.2-.21.2-1.01Zm0 0"/>
    <path id="q" d="M3.05-1.1v.23l.03.15q0 .06.04.11l.08.08q.04.05.13.08t.2.04a5 5 0 0 0 .75.05V0H.98v-.36l.43-.02.48-.06.13-.06.09-.08.06-.1a1 1 0 0 0 .06-.41v-2.99q0-.15-.06-.22A.2.2 0 0 0 2-4.38q-.15 0-.4.15-.24.12-.65.39l-.1-.2-.08-.2 1.01-.56 1.03-.56h.25l-.01.42v.67Zm0 0"/>
    <path id="m" d="M3.02-.67q.2 0 .3-.02.13 0 .2-.06t.12-.16l.14-.28h.4q-.05.3-.05.6L4.09 0H.56v-.22a7 7 0 0 1 .53-.87 7 7 0 0 1 .86-.97l.63-.66q.25-.28.39-.5a1.4 1.4 0 0 0 .25-.8q0-.2-.06-.37a1 1 0 0 0-.18-.31 1 1 0 0 0-.28-.2 1 1 0 0 0-.4-.07 1 1 0 0 0-.66.22q-.25.21-.39.6H.7v-.82a6 6 0 0 1 1.78-.42q.44 0 .74.1t.5.27q.18.16.26.4.1.23.1.5a2 2 0 0 1-.11.57q-.05.16-.14.28t-.24.29q-.1.14-.26.3-.16.19-.36.38l-.42.42-.42.43q-.21.2-.38.4-.16.2-.27.38Zm0 0"/>
    <path id="l" d="M4.83-3.62q.28.2.45.5t.28.8l.14.7.14.57q.08.25.2.4.1.17.26.24.14.09.42.13L6.66 0H5.03a8 8 0 0 1-.33-1.25l-.26-1.23q-.07-.33-.16-.55a1 1 0 0 0-.22-.33.6.6 0 0 0-.3-.16q-.15-.04-.38-.04H2.7L2.3-1.7q-.07.22-.08.36l-.05.54q0 .2.05.3.06.08.17.14.12.05.42.08L2.75 0H.33L.4-.28a1 1 0 0 0 .32-.13 1 1 0 0 0 .2-.22q.07-.13.13-.34l.19-.78 1-4.52q.13-.57.13-.92 0-.27-.15-.39a1 1 0 0 0-.42-.14L1.87-8h2.61q.61 0 1 .08a2 2 0 0 1 .68.22q.27.15.46.37.19.24.29.53t.09.61q0 .9-.55 1.55-.54.63-1.62.95ZM3.5-4.07q.86 0 1.34-.24.5-.23.79-.75a2.3 2.3 0 0 0 .23-1.56 1 1 0 0 0-.13-.33 1 1 0 0 0-.18-.23 1 1 0 0 0-.3-.17 2 2 0 0 0-.4-.11 5 5 0 0 0-1.29 0l-.75 3.39Zm0 0"/>
    <path id="p" d="M4.83-3.62q.28.2.45.5t.28.8l.14.7.14.57q.08.25.2.4.1.17.26.24.14.09.42.13L6.66 0H5.03a8 8 0 0 1-.33-1.25l-.26-1.23q-.07-.33-.16-.55a1 1 0 0 0-.22-.33.6.6 0 0 0-.3-.16q-.15-.04-.38-.04H2.7L2.3-1.7q-.07.22-.08.36l-.05.54q0 .2.05.3.06.08.17.14.12.05.42.08L2.75 0H.33L.4-.28a1 1 0 0 0 .32-.13 1 1 0 0 0 .2-.22q.07-.13.13-.34l.19-.78 1-4.52q.13-.57.13-.92 0-.27-.15-.39a1 1 0 0 0-.42-.14L1.87-8h2.61q.61 0 1 .08a2 2 0 0 1 .68.22q.27.15.46.37.19.24.29.53t.09.61q0 .9-.55 1.55-.54.63-1.62.95ZM3.5-4.07q.86 0 1.34-.24.5-.23.79-.75a2.3 2.3 0 0 0 .23-1.56 1 1 0 0 0-.13-.33 1 1 0 0 0-.18-.23 1 1 0 0 0-.3-.17 2 2 0 0 0-.4-.11 5 5 0 0 0-1.29 0l-.75 3.39Zm0 0"/>
  </defs>
  <path fill="none" stroke="#000" stroke-linejoin="round" stroke-miterlimit="10" stroke-width="2" d="M133.64 103.05h55.63V85h-55.63Zm1.16 46.13h55.63v-18.05H134.8Zm0 0"/>
  <use xlink:href="#l" x="155.24" y="79.67"/>
  <use xlink:href="#m" x="162.67" y="82.09"/>
  <use xlink:href="#p" x="158.12" y="162.16"/>
  <use xlink:href="#m" x="165.55" y="164.55"/>
  <path fill="none" stroke="#000" stroke-linejoin="round" stroke-miterlimit="10" d="M77.02 94.3h56.3m56.29-.53h19.17m-18.01 45.53h17.93M76.67 94.72l.35 46.25"/>
  <path fill="none" stroke="#000" stroke-linejoin="round" stroke-miterlimit="10" stroke-width="2" d="M209.22 103.72h55.63V85.67h-55.63Zm-.39 46.08h55.58v-18.03h-55.58Zm0 0"/>
  <use xlink:href="#p" x="231.27" y="80.65"/>
  <use xlink:href="#q" x="238.46" y="83.05"/>
  <use xlink:href="#p" x="230.91" y="162.52"/>
  <use xlink:href="#q" x="238.1" y="164.91"/>
  <path fill="none" stroke="#000" stroke-linejoin="round" stroke-miterlimit="10" d="M264.72 94.26h16.73m12.18-.49h16.74m.08-.29.3 46.23m-46.03-.12 45.8.06M60.25 117.37h16.77m233.38-2.45h16.39"/>
  <use xlink:href="#r" x="57.8" y="113.97"/>
  <use xlink:href="#t" x="365.29" y="109.42"/>
  <path fill="none" stroke="#000" stroke-linejoin="round" stroke-miterlimit="10" d="M200.23 93.09v46.6m80.52-45.07 11.69-9.74"/>
  <use xlink:href="#u" x="285.92" y="107.5"/>
  <path fill="none" stroke="#000" stroke-linejoin="round" stroke-miterlimit="10" stroke-width="1.5" d="M326.74 114.63c0-6.93 5.52-12.56 12.33-12.56s12.34 5.63 12.34 12.56-5.52 12.56-12.34 12.56a12.45 12.45 0 0 1-12.33-12.56Zm0 0"/>
  <path fill="none" stroke="#000" stroke-linejoin="round" stroke-miterlimit="10" d="M352.6 114.7h16.38"/>
  <use xlink:href="#v" x="334.49" y="117.21"/>
  <path fill="none" stroke="#000" stroke-linejoin="round" stroke-miterlimit="10" stroke-width="2" d="M86.4 147.17h37.7V135.2H86.4Zm0 0"/>
  <path fill="none" stroke="#000" stroke-linejoin="round" stroke-miterlimit="10" d="m76.61 141.06 58.19-.2"/>
  <use xlink:href="#x" x="102.38" y="130.99"/>
</svg>
