<svg xmlns="http://www.w3.org/2000/svg" xmlns:xlink="http://www.w3.org/1999/xlink" width="200" height="300" viewBox="0 0 200 300">
  <defs>
    <path id="k" d="M2.42.1Q1.5.1 1.05-.59A3.6 3.6 0 0 1 .59-2.6q0-.72.14-1.23.15-.52.4-.86.24-.34.59-.52.37-.17.76-.17.5 0 .85.19.36.18.58.53t.3.84q.12.5.12 1.11 0 1.4-.5 2.11-.5.7-1.4.7m-.97-2.82q0 .63.07 1.08.05.45.18.75.14.29.32.42.2.14.46.14t.44-.12q.19-.15.3-.4.12-.29.19-.7.06-.42.06-1 0-.63-.06-1.1-.06-.46-.2-.76-.12-.3-.3-.43a.7.7 0 0 0-.44-.14 1 1 0 0 0-.5.15q-.2.15-.3.46-.1.27-.17.7-.05.42-.05.95m0 0"/>
    <path id="l" d="M1.44.5q-.12.14-.19.27a1 1 0 0 0-.14.55q0 .44.31.63.3.2.96.2.71 0 1.15-.32T4.28.8q.3-.72.61-2.2h-.08q-.58.78-1.06 1.13A1.7 1.7 0 0 1 2.7.1q-.64 0-1-.48a2.3 2.3 0 0 1-.34-1.38q0-.99.39-1.92.39-.91 1.08-1.47a2.5 2.5 0 0 1 2.26-.45q.33.08.66.3l.53-.4.38.1-.6 2.74-.3 1.43Q5.54-.2 5.39.31T5 1.23a2.6 2.6 0 0 1-1.42 1.22q-.5.17-1.19.17-2.22 0-2.22-1.3 0-.32.2-.59t.65-.56ZM3.13-.6q.29 0 .59-.21t.62-.64q.35-.45.54-.86.18-.4.3-1 .15-.6.15-1.05t-.2-.67q-.19-.2-.65-.2-.6 0-1.07.48t-.75 1.31a5 5 0 0 0-.27 1.63q0 .6.17.9.19.3.56.3m0 0"/>
    <path id="n" d="M4.1-1.5q-.55.83-1.07 1.22-.5.37-1.06.37-.64 0-1-.48A2.3 2.3 0 0 1 .6-1.77q0-.99.39-1.92a3.6 3.6 0 0 1 1.1-1.47 2.5 2.5 0 0 1 2.2-.46q.3.06.62.25l.3-1.36a5 5 0 0 0 .12-.83q0-.17-.07-.27a.3.3 0 0 0-.2-.12 2 2 0 0 0-.41-.07l.07-.3 1.47-.05h.35L5.09-1.9q-.14.58-.14.86 0 .24.08.34.07.12.25.11a.6.6 0 0 0 .36-.14q.2-.15.58-.55l.33.33q-.55.57-.92.8t-.79.23a.8.8 0 0 1-.57-.23 1 1 0 0 1-.22-.64q0-.33.12-.69Zm.4-2.06q.08-.42.08-.8 0-.46-.19-.67-.18-.2-.64-.2-.6 0-1.08.48-.46.48-.75 1.31a5 5 0 0 0-.26 1.63q0 .6.15.9.17.3.56.3.19 0 .38-.08t.4-.25q.19-.17.38-.42a7 7 0 0 0 .67-1.1q.14-.37.24-.85Zm0 0"/>
    <path id="h" d="M6.94-5.3q-.75.99-1.72 2.4-.14 1.15-.14 1.6 0 .38.08.55t.3.17q.15 0 .37-.14.2-.14.45-.42l.33.31q-.48.54-.86.74-.36.18-.73.18-.8 0-.79-1.14 0-.24.04-.54H4.2q-.6.88-1.14 1.3-.53.38-1.15.38-.43 0-.72-.25Q.89-.4.75-.8t-.14-.88q0-1.05.39-2 .4-.93 1.1-1.47a2.6 2.6 0 0 1 1.62-.54q.65 0 1.01.42.38.4.43 1.2l.04-.01.78-1.52h1ZM4.39-2.84q.1-.62.1-1.08-.01-.68-.2-.99-.2-.32-.62-.32-.53 0-1 .48t-.75 1.31q-.27.82-.26 1.67 0 .6.17.88t.53.28q.5 0 1.03-.58.53-.6 1-1.65m0 0"/>
    <path id="i" d="M2.1.1a.5.5 0 0 1-.3-.1 1 1 0 0 1-.2-.22q-.05-.15-.08-.36-.04-.21-.04-.48 0-.33.05-.7l.11-.77.24-1.63.04-.26.02-.19a1 1 0 0 0-.06-.3.2.2 0 0 0-.2-.12l-.24.08q-.13.06-.27.17l-.25.22-.23.22-.28-.33a7 7 0 0 1 .8-.69q.25-.15.5-.25t.52-.1q.23 0 .36.08.15.07.22.2a1 1 0 0 1 .14.54l-.01.16-.02.14-.33 2.12-.09.66a5 5 0 0 0 0 .97q.03.14.1.14.2 0 .5-.16.3-.15.6-.42a5.3 5.3 0 0 0 1.66-2.36q.15-.48.16-.97 0-.21-.1-.33-.08-.1-.28-.1-.23 0-.45.18-.21.2-.42.5l-.35-.3a2.5 2.5 0 0 1 1.17-.96q.23-.1.46-.1.42 0 .6.22.2.22.2.58 0 .28-.12.65-.09.37-.28.77a8 8 0 0 1-.98 1.66q-.3.38-.64.75-.35.36-.72.62-.37.25-.77.4Q2.47.1 2.1.1m0 0"/>
    <path id="o" d="M4.97-8.1q1.13 0 1.73.66.63.67.63 1.9 0 .92-.31 2.06-.33 1.13-.91 1.95T4.77-.3 3.19.1Q2.02.1 1.4-.57.8-1.21.8-2.44a8 8 0 0 1 1.14-3.93q.56-.86 1.34-1.29a3.4 3.4 0 0 1 1.69-.43m1.25 2.32q0-1.8-1.31-1.8-.64 0-1.2.46-.54.45-.96 1.3a8.5 8.5 0 0 0-.86 3.59q0 1.8 1.33 1.8.8.01 1.47-.73a5.5 5.5 0 0 0 1.1-2.06q.42-1.35.43-2.56m0 0"/>
  </defs>
  <use xlink:href="#h" x="131.27" y="258.44"/>
  <path d="m81.3 210.25 13.46-20.37.83.55-13.46 20.37Zm2.08 1.38a2 2 0 0 1-3.33-2.2 2 2 0 0 1 3.33 2.2m11.8-21.48-2.77.57 4.97-3.9-1.64 6.1Zm0 0"/>
  <use xlink:href="#i" x="77.93" y="193.92"/>
  <use xlink:href="#k" x="84.29" y="196.32"/>
  <use xlink:href="#l" x="161.48" y="203.03"/>
  <path d="m158.02 190.33.02 20.73h-1l-.02-20.73Zm-.48 20.73 2-2-2 6-2-6Zm0 0"/>
  <path fill="none" stroke="#000" stroke-linejoin="round" stroke-miterlimit="10" d="M140.26 263.05c-.05-4.43 1.68-9.06 4.2-11.23"/>
  <path fill="none" stroke="#000" stroke-linejoin="round" stroke-miterlimit="10" stroke-width="1.5" d="m74.66 206.03 88.16 57.13"/>
  <use xlink:href="#n" x="116.65" y="229.28"/>
  <path fill="none" stroke="#1c334e" stroke-dasharray="2.99658 .99886" stroke-linejoin="round" stroke-miterlimit="10" d="M81.71 210.9c9.95-11.61 19.9-23.22 29.46-25.4s21.44.89 27.94 12.36c6.5 11.48 11.05 56.48 11.05 56.48"/>
  <path fill="none" stroke="#000" stroke-dasharray="3.99544 2.99658" stroke-linejoin="round" stroke-miterlimit="10" d="M68.1 262.87h96.28"/>
  <path fill-rule="evenodd" stroke="#000" stroke-linejoin="round" stroke-miterlimit="10" stroke-width="1.5" d="M129.9 188.96a1.13 1.13 0 1 1 2.26.02 1.13 1.13 0 0 1-2.27-.02Zm0 0"/>
  <use xlink:href="#o" x="121.08" y="198.59"/>
</svg>
