<svg xmlns="http://www.w3.org/2000/svg" xmlns:xlink="http://www.w3.org/1999/xlink" width="595.32" height="841.92" viewBox="0 0 595.32 841.92">
  <defs>
    <path id="p" d="M4.06 1.34a6 6 0 0 0-.18-.86 1 1 0 0 0-.24-.37Q3.5 0 3.16 0H1.39a.7.7 0 0 0-.56.25 3 3 0 0 0-.3 1.1H.16v-1.7h.48a5 5 0 0 0 .94-2.9q0-.46-.38-.52v-.2h3.08v.2q-.27.06-.36.2-.1.14-.1.5v2.71h.63v1.7Zm-.95-4.98h-1a7 7 0 0 1-.94 3.28h1.94Zm0 0"/>
    <path id="m" d="M3.17-2.83q-.12-.44-.3-.62-.15-.2-.48-.2h-.78v2.6q0 .5.1.64.09.15.42.2V0H.43v-.2q.3-.08.37-.2.1-.15.1-.52v-2.14q0-.37-.1-.52-.1-.14-.36-.19v-.2h3.12v1.14Zm0 0"/>
    <path id="j" d="M1.44.5q-.12.14-.19.27a1 1 0 0 0-.14.55q0 .44.31.63.3.2.96.2.71 0 1.15-.32T4.28.8q.3-.72.61-2.2h-.08q-.58.78-1.06 1.13A1.7 1.7 0 0 1 2.7.1q-.64 0-1-.48a2.3 2.3 0 0 1-.34-1.38q0-.99.39-1.92.39-.91 1.08-1.47a2.5 2.5 0 0 1 2.26-.45q.33.08.66.3l.53-.4.38.1-.6 2.74-.3 1.43Q5.54-.2 5.39.31T5 1.23a2.6 2.6 0 0 1-1.42 1.22q-.5.17-1.19.17-2.22 0-2.22-1.3 0-.32.2-.59t.65-.56ZM3.13-.6q.29 0 .59-.21t.62-.64q.35-.45.54-.86.18-.4.3-1 .15-.6.15-1.05t-.2-.67q-.19-.2-.65-.2-.6 0-1.07.48t-.75 1.31a5 5 0 0 0-.27 1.63q0 .6.17.9.19.3.56.3m0 0"/>
    <path id="h" d="M3.1-2.4a1 1 0 0 0-.13-.32.4.4 0 0 0-.14-.12l-.27-.04h-.4L1.55 0h-1l1.5-6.7.1-.52q.04-.2.04-.34 0-.25-.16-.35Q1.88-8 1.5-8l.08-.32 1.47-.04h.34l-1.14 5.1h.19q.43 0 .98-.37.55-.39.88-.72T4.63-5q0-.28-.41-.31l.08-.3h1.89l.1.3q-.48.44-1.02.86L3.8-3.33l.58 2.11q.06.29.13.4.05.12.12.18.08.05.2.05.16 0 .36-.16.21-.17.49-.47l.33.33q-.54.55-.88.77-.35.21-.66.21a1 1 0 0 1-.64-.21 2 2 0 0 1-.37-.77Zm0 0"/>
    <path id="k" d="m1.66-.22-.61 2.75H.09l1.2-5.3q.18-.93.59-1.56t1-1q.6-.37 1.4-.37.56 0 1 .23t.66.67q.21.45.22 1.08 0 1-.4 1.9a3.4 3.4 0 0 1-1.09 1.4q-.69.51-1.54.51a4 4 0 0 1-1.47-.3M2.2-2.5l-.2.95-.03.2-.02.2q0 .37.3.57t.83.2q.6 0 1.06-.48t.72-1.34.26-1.72q0-.37-.07-.66a1 1 0 0 0-.3-.47 1 1 0 0 0-.62-.18q-.23 0-.43.07t-.42.29q-.23.19-.42.51-.21.31-.36.75T2.2-2.5m0 0"/>
    <path id="l" d="M1-1.83q0 .72.33 1.08.33.34 1.03.34.79 0 1.25-.43.45-.45.45-1.2 0-.37-.12-.63a2 2 0 0 0-.38-.53 6 6 0 0 0-.73-.58 5 5 0 0 1-.74-.56q-.28-.3-.45-.64-.16-.36-.16-.79 0-.7.33-1.21.33-.54.94-.82.61-.3 1.4-.3a6 6 0 0 1 2.02.33l-.33 1.5h-.56q-.01-.5-.16-.78a1 1 0 0 0-.35-.4 1.4 1.4 0 0 0-.64-.13q-.49 0-.86.2t-.57.55q-.18.33-.18.75 0 .45.23.78t.9.78q.55.4.85.7.3.33.45.68.14.34.14.81 0 .71-.34 1.28-.34.55-.97.85-.6.3-1.4.3Q1.83.1 1.2 0A7 7 0 0 1 .1-.22l.34-1.6Zm0 0"/>
    <clipPath id="i">
      <path d="M138 462h8v8.9h-8Zm0 0"/>
    </clipPath>
    <clipPath id="n">
      <path d="M104 533h5v5.87h-5Zm0 0"/>
    </clipPath>
  </defs>
  <path fill="none" stroke="#000" stroke-linejoin="round" stroke-miterlimit="10" d="m99.1 475.26 9.27 6.43m-9.27 21.95 4.74 3.04m-4.8-12.56 9.23 6.43m-9.07-15.86 9.23 6.43m-9.23-15.59 9.08-3.49m-8.92 12.51 9.05-3.45m-9.07 13.2 9.05-3.44m-9.18 12.87 9.06-3.45m-4.63-31.03 4.73 3.04m-4.62-2.79v-14.1m.05 65.08v-14.06"/>
  <use xlink:href="#h" x="93.4" y="472.53"/>
  <g clip-path="url(#i)">
    <use xlink:href="#j" x="138.46" y="468.1"/>
  </g>
  <path d="M135.43 455v21.75h-.75v-21.76Zm-.38 21.75 2-2-2 6-2-6Zm0 0"/>
  <use xlink:href="#k" x="112.33" y="495.66"/>
  <path fill="none" stroke="#000" stroke-linejoin="round" stroke-miterlimit="10" stroke-width="4.49" d="M85.1 453.82h37"/>
  <path fill="none" stroke="#000" stroke-linejoin="round" stroke-miterlimit="10" stroke-width="1.5" d="M95.37 506.01v34.33m15.5-34.07h10.91"/>
  <path fill="none" stroke="#000" stroke-linejoin="round" stroke-miterlimit="10" stroke-width="4.49" d="M96.08 522.54h14.83"/>
  <path fill="none" stroke="#000" stroke-linejoin="round" stroke-miterlimit="10" stroke-width="1.5" d="M85.1 432.45v73.7m36.58-73.05v73.71m-10.36-.9v34.27m-26.89-33.8h10.89"/>
  <use xlink:href="#l" x="99.39" y="446.28"/>
  <use xlink:href="#m" x="105.26" y="448.68"/>
  <use xlink:href="#l" x="98.19" y="535.1"/>
  <g clip-path="url(#n)">
    <use xlink:href="#p" x="104.06" y="537.5"/>
  </g>
</svg>
