<svg xmlns="http://www.w3.org/2000/svg" xmlns:xlink="http://www.w3.org/1999/xlink" width="595.32" height="841.92" viewBox="0 0 595.32 841.92">
  <defs>
    <path id="r" d="M5.52-8.4 1.28 2.53H.36L4.6-8.4Zm0 0"/>
    <path id="s" d="M4.1-.94q.3 0 .48-.03.16-.04.28-.12l.17-.2.16-.43h.48L5.57 0H.76v-.28q.26-.6.69-1.25.42-.66 1.22-1.53.67-.75.96-1.14.33-.42.49-.72a2.4 2.4 0 0 0 .31-1.13q0-.45-.14-.78t-.44-.53a1.3 1.3 0 0 0-.71-.19q-1.14 0-1.5 1.22h-.7v-1.12a6 6 0 0 1 2.44-.64q1.07 0 1.64.48.56.46.56 1.38 0 .3-.06.57-.07.28-.2.52-.14.25-.37.55T4.47-4l-.92 1Q2.42-1.8 1.9-.94Zm0 0"/>
    <path id="k" d="M2.58-4.1q.54-.82 1.08-1.21.52-.4 1.07-.4.57 0 .85.34.3.3.3.92v.17q.5-.72 1-1.06.49-.36 1.04-.36.53 0 .83.3.3.32.3.88 0 .38-.18 1.05l-.39 1.55q-.15.63-.15.89 0 .24.08.34.07.12.25.11a.6.6 0 0 0 .36-.14q.2-.15.57-.55l.33.33a5 5 0 0 1-.87.78Q8.67.1 8.19.1a.8.8 0 0 1-.61-.26 1 1 0 0 1-.24-.7q0-.38.2-1.13l.26-1q.14-.55.18-.81.05-.27.05-.44 0-.4-.14-.58-.13-.18-.44-.19a1 1 0 0 0-.53.2 3 3 0 0 0-.6.57q-.3.4-.5.77t-.3.92L4.98 0H3.97l.67-2.98.17-.8q.05-.27.05-.45 0-.43-.16-.6-.15-.18-.47-.19a1 1 0 0 0-.5.2q-.28.18-.6.59-.33.4-.52.78-.18.38-.3.92L1.77 0H.75l.84-3.72q.15-.56.14-.86a.6.6 0 0 0-.07-.34q-.09-.1-.25-.11a.6.6 0 0 0-.38.16q-.2.14-.56.53l-.33-.33q.51-.53.9-.78.36-.25.8-.25.38 0 .58.25.22.23.22.62 0 .33-.12.69Zm0 0"/>
    <path id="m" d="M5.52-8.4 1.28 2.53H.36L4.6-8.4Zm0 0"/>
    <path id="n" d="M4.1-.94q.3 0 .48-.03.16-.04.28-.12l.17-.2.16-.43h.48L5.57 0H.76v-.28q.26-.6.69-1.25.42-.66 1.22-1.53.67-.75.96-1.14.33-.42.49-.72a2.4 2.4 0 0 0 .31-1.13q0-.45-.14-.78t-.44-.53a1.3 1.3 0 0 0-.71-.19q-1.14 0-1.5 1.22h-.7v-1.12a6 6 0 0 1 2.44-.64q1.07 0 1.64.48.56.46.56 1.38 0 .3-.06.57-.07.28-.2.52-.14.25-.37.55T4.47-4l-.92 1Q2.42-1.8 1.9-.94Zm0 0"/>
    <path id="i" d="M1.44.5q-.12.14-.19.27a1 1 0 0 0-.14.55q0 .44.31.63.3.2.96.2.71 0 1.15-.32T4.28.8q.3-.72.61-2.2h-.08q-.58.78-1.06 1.13A1.7 1.7 0 0 1 2.7.1q-.64 0-1-.48a2.3 2.3 0 0 1-.34-1.38q0-.99.39-1.92.39-.91 1.08-1.47a2.5 2.5 0 0 1 2.26-.45q.33.08.66.3l.53-.4.38.1-.6 2.74-.3 1.43Q5.54-.2 5.39.31T5 1.23a2.6 2.6 0 0 1-1.42 1.22q-.5.17-1.19.17-2.22 0-2.22-1.3 0-.32.2-.59t.65-.56ZM3.13-.6q.29 0 .59-.21t.62-.64q.35-.45.54-.86.18-.4.3-1 .15-.6.15-1.05t-.2-.67q-.19-.2-.65-.2-.6 0-1.07.48t-.75 1.31a5 5 0 0 0-.27 1.63q0 .6.17.9.19.3.56.3m0 0"/>
    <path id="j" d="M3.1-2.4a1 1 0 0 0-.13-.32.4.4 0 0 0-.14-.12l-.27-.04h-.4L1.55 0h-1l1.5-6.7.1-.52q.04-.2.04-.34 0-.25-.16-.35Q1.88-8 1.5-8l.08-.32 1.47-.04h.34l-1.14 5.1h.19q.43 0 .98-.37.55-.39.88-.72T4.63-5q0-.28-.41-.31l.08-.3h1.89l.1.3q-.48.44-1.02.86L3.8-3.33l.58 2.11q.06.29.13.4.05.12.12.18.08.05.2.05.16 0 .36-.16.21-.17.49-.47l.33.33q-.54.55-.88.77-.35.21-.66.21a1 1 0 0 1-.64-.21 2 2 0 0 1-.37-.77Zm0 0"/>
    <path id="p" d="M2.58-4.1q.54-.82 1.08-1.21.52-.4 1.07-.4.57 0 .85.34.3.3.3.92v.17q.5-.72 1-1.06.49-.36 1.04-.36.53 0 .83.3.3.32.3.88 0 .38-.18 1.05l-.39 1.55q-.15.63-.15.89 0 .24.08.34.07.12.25.11a.6.6 0 0 0 .36-.14q.2-.15.57-.55l.33.33a5 5 0 0 1-.87.78Q8.67.1 8.19.1a.8.8 0 0 1-.61-.26 1 1 0 0 1-.24-.7q0-.38.2-1.13l.26-1q.14-.55.18-.81.05-.27.05-.44 0-.4-.14-.58-.13-.18-.44-.19a1 1 0 0 0-.53.2 3 3 0 0 0-.6.57q-.3.4-.5.77t-.3.92L4.98 0H3.97l.67-2.98.17-.8q.05-.27.05-.45 0-.43-.16-.6-.15-.18-.47-.19a1 1 0 0 0-.5.2q-.28.18-.6.59-.33.4-.52.78-.18.38-.3.92L1.77 0H.75l.84-3.72q.15-.56.14-.86a.6.6 0 0 0-.07-.34q-.09-.1-.25-.11a.6.6 0 0 0-.38.16q-.2.14-.56.53l-.33-.33q.51-.53.9-.78.36-.25.8-.25.38 0 .58.25.22.23.22.62 0 .33-.12.69Zm0 0"/>
    <path id="q" d="M4.1-1.5q-.55.83-1.07 1.22-.5.37-1.06.37-.64 0-1-.48A2.3 2.3 0 0 1 .6-1.77q0-.99.39-1.92a3.6 3.6 0 0 1 1.1-1.47 2.5 2.5 0 0 1 2.2-.46q.3.06.62.25l.3-1.36a5 5 0 0 0 .12-.83q0-.17-.07-.27a.3.3 0 0 0-.2-.12 2 2 0 0 0-.41-.07l.07-.3 1.47-.05h.35L5.09-1.9q-.14.58-.14.86 0 .24.08.34.07.12.25.11a.6.6 0 0 0 .36-.14q.2-.15.58-.55l.33.33q-.55.57-.92.8t-.79.23a.8.8 0 0 1-.57-.23 1 1 0 0 1-.22-.64q0-.33.12-.69Zm.4-2.06q.08-.42.08-.8 0-.46-.19-.67-.18-.2-.64-.2-.6 0-1.08.48-.46.48-.75 1.31a5 5 0 0 0-.26 1.63q0 .6.15.9.17.3.56.3.19 0 .38-.08t.4-.25q.19-.17.38-.42a7 7 0 0 0 .67-1.1q.14-.37.24-.85Zm0 0"/>
    <clipPath id="l">
      <path d="M112 577h6v10.77h-6Zm0 0"/>
    </clipPath>
    <clipPath id="o">
      <path d="M91 608h11v6.74H91Zm0 0"/>
    </clipPath>
  </defs>
  <path fill="none" stroke="#000" stroke-dasharray="3.99544 2.99658" stroke-linejoin="round" stroke-miterlimit="10" d="M144.73 592.1h-82.1m82.08 28h-82.1"/>
  <path fill="none" stroke="#000" stroke-linejoin="round" stroke-miterlimit="10" stroke-width="1.5" d="M124.17 686.69h-37.4"/>
  <path fill="none" stroke="#000" stroke-linejoin="round" stroke-miterlimit="10" stroke-width=".75" d="m122.04 686.66-6.18 6.55m.2-6.62-6.19 6.65m-5.59-6.6-6.19 6.65m12.21-6.69-6.2 6.65m-5.7-6.66-6.2 6.65m.32-6.56-6.19 6.65"/>
  <use xlink:href="#i" x="131.51" y="645.28"/>
  <path d="m128.24 632.17.01 21.74h-.75v-21.74Zm-.37 21.74 2-2-2 6-2-6Zm0 0"/>
  <use xlink:href="#j" x="91.48" y="655.83"/>
  <path fill="none" stroke="#000" stroke-linejoin="round" stroke-miterlimit="10" d="m100.55 640.23 9.25 6.43m-9.25 21.94 4.74 3.05m-4.81-12.56 9.23 6.44m-9.07-15.87 9.22 6.44m-9.22-15.6 9.09-3.49m-8.93 12.51 9.04-3.45m-9.07 13.21 9.05-3.45m-9.16 12.87 9.05-3.45m-4.63-31.01 4.72 3.02"/>
  <path d="M104.7 634.46v-14.09h.99v14.1Zm-4.5-14.09a5 5 0 1 1 9.99.01 5 5 0 0 1-10 0m4.55 65.07V671.4h1v14.05Zm3.5 0c0 1.1-1.34 2-3 2s-3-.9-3-2 1.34-2 3-2 3 .9 3 2m0 0"/>
  <use xlink:href="#k" x="101.54" y="585.68"/>
  <g clip-path="url(#l)">
    <use xlink:href="#m" x="111.85" y="585.68"/>
  </g>
  <use xlink:href="#n" x="117.73" y="585.68"/>
  <g clip-path="url(#o)">
    <use xlink:href="#p" x="91.6" y="614.48"/>
  </g>
  <path fill-rule="evenodd" stroke="#000" stroke-linejoin="round" stroke-miterlimit="10" stroke-width="1.5" d="M102.13 592.41a2.83 2.83 0 1 1 5.67.01 2.83 2.83 0 0 1-5.67 0Zm0 0"/>
  <path fill="none" stroke="#000" stroke-dasharray="3.99544 2.99658" stroke-linejoin="round" stroke-miterlimit="10" d="M144.71 564.42h-82.1"/>
  <path d="M122.41 596.09v20.33h-.75v-20.33Zm-.37 0-2 2 2-6 2 6Zm0 20.33 2-2-2 6-2-6Zm-34.29-48.01v20.28H87V568.4Zm-.37 0-2 2 2-6 2 6Zm0 20.28 2-2-2 6-2-6Zm0 0"/>
  <use xlink:href="#q" x="125.16" y="609.68"/>
  <use xlink:href="#r" x="132.47" y="609.68"/>
  <use xlink:href="#s" x="138.34" y="609.68"/>
</svg>
