<svg xmlns="http://www.w3.org/2000/svg" xmlns:xlink="http://www.w3.org/1999/xlink" width="595.32" height="841.92" viewBox="0 0 595.32 841.92">
  <defs>
    <path id="n" d="M3.17-2.83q-.12-.44-.3-.62-.15-.2-.48-.2h-.78v2.6q0 .5.1.64.09.15.42.2V0H.43v-.2q.3-.08.37-.2.1-.15.1-.52v-2.14q0-.37-.1-.52-.1-.14-.36-.19v-.2h3.12v1.14Zm0 0"/>
    <path id="p" d="M4.06 1.34a6 6 0 0 0-.18-.86 1 1 0 0 0-.24-.37Q3.5 0 3.16 0H1.39a.7.7 0 0 0-.56.25 3 3 0 0 0-.3 1.1H.16v-1.7h.48a5 5 0 0 0 .94-2.9q0-.46-.38-.52v-.2h3.08v.2q-.27.06-.36.2-.1.14-.1.5v2.71h.63v1.7Zm-.95-4.98h-1a7 7 0 0 1-.94 3.28h1.94Zm0 0"/>
    <path id="i" d="m5.03-5.31.55-.4.37.1-.86 3.72q-.14.55-.14.86 0 .24.08.34.07.12.25.11a.6.6 0 0 0 .36-.14q.2-.15.58-.55l.33.33q-.54.57-.9.8-.38.24-.8.23a.8.8 0 0 1-.58-.23 1 1 0 0 1-.22-.64q0-.33.12-.69l-.06-.03q-.57.83-1.08 1.22-.5.37-1.06.37-.64 0-1-.48A2.3 2.3 0 0 1 .6-1.77q0-.99.39-1.92a3.6 3.6 0 0 1 1.1-1.47 2.5 2.5 0 0 1 2.24-.45q.34.08.7.3m-.51 1.75a3 3 0 0 0 .09-.8q0-.45-.2-.66t-.66-.21q-.6 0-1.08.48a3 3 0 0 0-.75 1.31 5 5 0 0 0-.26 1.63q0 .6.15.9.17.3.56.3.4 0 .77-.33.37-.32.77-.95.38-.63.56-1.42Zm0 0"/>
    <path id="j" d="M4.02 0q.13.43.25.7.12.29.23.46.1.17.2.25.11.1.22.1.11.04.25.04a1 1 0 0 0 .44-.13q.24-.12.51-.44l.32.33q-.47.5-.88.7-.4.22-.83.22-.48 0-.8-.21-.3-.2-.54-.7A7 7 0 0 1 2.97.1a2.2 2.2 0 0 1-1.63-.7A2.8 2.8 0 0 1 .8-2.44a8 8 0 0 1 1.14-3.93q.56-.86 1.34-1.29a3.4 3.4 0 0 1 1.69-.43q1.13 0 1.73.65.63.67.63 1.9 0 .82-.27 1.84-.25 1.01-.7 1.8-.45.76-1.05 1.24T4.01 0m2.2-5.78q0-.87-.33-1.33-.32-.47-.98-.47-.64 0-1.2.46-.54.45-.96 1.3a8.5 8.5 0 0 0-.86 3.59q0 1.8 1.33 1.8.8 0 1.48-.74.69-.76 1.1-2.11t.42-2.5m0 0"/>
    <path id="l" d="M4.02-1.36q-.5.7-1.04 1.08-.51.37-1.01.37-.64 0-1-.48A2.3 2.3 0 0 1 .6-1.77q0-.99.39-1.92a3.6 3.6 0 0 1 1.1-1.47 2.5 2.5 0 0 1 2.23-.45q.32.08.69.3l.53-.4.37.1-1.5 6.67q-.1.44-.1.66 0 .26.13.37.15.1.52.14l-.05.29H3.1l1.02-3.85Zm.48-2.2q.08-.42.08-.8 0-.46-.19-.67-.18-.2-.64-.2-.6 0-1.08.48-.46.48-.75 1.31a5 5 0 0 0-.26 1.63q0 .6.15.9.17.3.56.3.19 0 .38-.08t.4-.25q.19-.17.38-.42a7 7 0 0 0 .67-1.1q.14-.37.24-.85Zm0 0"/>
    <path id="m" d="M3.5 0H1.03l.06-.28q.23-.04.35-.1.1-.05.19-.18.08-.12.17-.4.1-.25.2-.79l1.27-5.73h-.75q-.37 0-.58.1-.23.11-.44.4-.22.27-.53.95H.4L.84-8h6.13l-.45 2.06h-.57q0-.56-.03-.84-.03-.3-.12-.44t-.2-.2a1 1 0 0 0-.41-.06H4.3L3.05-1.7q-.07.22-.08.36l-.05.54q0 .2.05.3.06.08.17.14.12.05.42.08Zm0 0"/>
  </defs>
  <use xlink:href="#i" x="80.81" y="119"/>
  <path fill="none" stroke="#000" stroke-linejoin="round" stroke-miterlimit="10" stroke-width=".75" d="m76.7 143.59 25.48-44.17"/>
  <path fill="#fff" fill-rule="evenodd" stroke="#000" stroke-linejoin="round" stroke-miterlimit="10" stroke-width="1.5" d="M70.11 146.98a4.25 4.25 0 1 1 8.5.01 4.25 4.25 0 0 1-8.5 0Zm0 0"/>
  <path fill="none" stroke="#000" stroke-linejoin="round" stroke-miterlimit="10" stroke-width=".75" d="M78.6 146.9h50.97"/>
  <use xlink:href="#j" x="110.05" y="93.11"/>
  <use xlink:href="#l" x="65.11" y="139.26"/>
  <path fill="#fff" fill-rule="evenodd" stroke="#000" stroke-linejoin="round" stroke-miterlimit="10" stroke-width="1.5" d="M129.57 147a4.25 4.25 0 1 1 8.5 0 4.25 4.25 0 0 1-8.5 0ZM99.96 95.75a4.25 4.25 0 1 1 8.5.01 4.25 4.25 0 0 1-8.5-.01Zm0 0"/>
  <path fill="none" stroke="#000" stroke-linejoin="round" stroke-miterlimit="10" stroke-width=".75" d="m132.13 143.57-25.47-44.15"/>
  <use xlink:href="#l" x="136.18" y="158.68"/>
  <use xlink:href="#m" x="121.44" y="119.72"/>
  <use xlink:href="#n" x="126.95" y="122.12"/>
  <use xlink:href="#m" x="101.54" y="157.96"/>
  <use xlink:href="#p" x="107.06" y="160.36"/>
</svg>
