<svg xmlns="http://www.w3.org/2000/svg" xmlns:xlink="http://www.w3.org/1999/xlink" width="595.32" height="841.92" viewBox="0 0 595.32 841.92">
  <defs>
    <path id="i" d="m5.69-1.64-.16-.06c-.44.7-.56.78-1.14.8H1.53l2.02-2.12C4.6-4.14 5.08-5.05 5.08-5.98c0-1.2-.97-2.11-2.22-2.11a2.3 2.3 0 0 0-1.72.73c-.39.4-.56.8-.76 1.64l.25.06c.48-1.17.89-1.56 1.73-1.56 1.02 0 1.69.69 1.69 1.69 0 .95-.55 2.06-1.55 3.12L.36-.14V0h4.67Zm0 0"/>
    <path id="h" d="M1.42 0h3.3v-.19c-.92 0-1.13-.12-1.14-.7v-7.19l-.1-.01-2.15 1.07v.18q.7-.27.86-.27.37 0 .36.56v5.44c-.02.75-.22.92-1.13.92Zm0 0"/>
    <path id="k" d="M1.83-3.95c.72 0 .98.01 1.26.12.75.28 1.2.96 1.2 1.78 0 1.02-.66 1.78-1.54 1.78-.34 0-.58-.07-1.03-.37-.34-.2-.55-.3-.75-.3-.28 0-.45.17-.45.42 0 .43.51.7 1.36.7.9 0 1.85-.32 2.42-.82.56-.48.87-1.19.87-1.98 0-.63-.2-1.18-.53-1.55-.25-.27-.48-.4-1-.64.81-.57 1.11-1 1.11-1.64 0-.99-.75-1.64-1.86-1.64q-.9 0-1.56.57c-.36.35-.53.64-.78 1.36l.17.05C1.2-7 1.73-7.37 2.5-7.37c.78 0 1.31.51 1.31 1.28 0 .42-.19.84-.48 1.15-.36.36-.69.55-1.5.83Zm0 0"/>
    <path id="l" d="M4.1-1.5q-.55.83-1.07 1.22-.5.37-1.06.37-.64 0-1-.48A2.3 2.3 0 0 1 .6-1.77q0-.99.39-1.92a3.6 3.6 0 0 1 1.1-1.47 2.5 2.5 0 0 1 2.2-.46q.3.06.62.25l.3-1.36a5 5 0 0 0 .12-.83q0-.17-.07-.27a.3.3 0 0 0-.2-.12 2 2 0 0 0-.41-.07l.07-.3 1.47-.05h.35L5.09-1.9q-.14.58-.14.86 0 .24.08.34.07.12.25.11a.6.6 0 0 0 .36-.14q.2-.15.58-.55l.33.33q-.55.57-.92.8t-.79.23a.8.8 0 0 1-.57-.23 1 1 0 0 1-.22-.64q0-.33.12-.69Zm.4-2.06q.08-.42.08-.8 0-.46-.19-.67-.18-.2-.64-.2-.6 0-1.08.48-.46.48-.75 1.31a5 5 0 0 0-.26 1.63q0 .6.15.9.17.3.56.3.19 0 .38-.08t.4-.25q.19-.17.38-.42a7 7 0 0 0 .67-1.1q.14-.37.24-.85Zm0 0"/>
  </defs>
  <path fill="none" stroke="#000" stroke-linejoin="round" stroke-miterlimit="10" d="M282.53 240.17h256.3"/>
  <path d="M476.82 181v114.18h-1.74V181Zm-6.63 8.55 5.77-10.36 5.75 10.36a.87.87 0 1 1-1.53.85l-5-8.99h1.53l-4.99 9a.87.87 0 0 1-1.19.33.9.9 0 0 1-.34-1.19m11.52 97.06-5.75 10.37-5.77-10.37a.9.9 0 0 1 .34-1.18.9.9 0 0 1 1.2.34l4.98 8.98h-1.52l4.99-8.98a.88.88 0 0 1 1.53.85m-141.23-104.7v114.2h-1.75v-114.2Zm-6.63 8.57 5.76-10.37 5.76 10.37c.24.42.08.95-.34 1.2a.9.9 0 0 1-1.2-.35l-4.99-8.99h1.53l-5 9a.9.9 0 0 1-1.18.33.9.9 0 0 1-.34-1.19m11.52 97.06-5.76 10.36-5.76-10.36a.9.9 0 0 1 .34-1.19.87.87 0 0 1 1.19.34l5 9h-1.54l5-9a.87.87 0 1 1 1.53.85m0 0"/>
  <path fill="none" stroke="#000" stroke-linejoin="round" stroke-miterlimit="10" stroke-width="1.75" d="M406.73 192.54v92.2m-4.67 11.17 4.87-11.38m.27-92.75 4.87-11.39m-10.94.47 5.62 11.62m-.02 92.05 5.63 11.61"/>
  <use xlink:href="#h" x="336.41" y="169.83"/>
  <use xlink:href="#i" x="403.17" y="170.91"/>
  <use xlink:href="#k" x="473.2" y="171.27"/>
  <path d="m345.61 307.14 56.39-.34v-.75l-56.39.34Zm.98-3.39-5.97 3.04 6.01 2.96Zm54.43 5.68 5.98-3.04-6.02-2.96Zm12.3-2.76 56.4-.34-.02-.75-56.38.34Zm.98-3.38-5.98 3.03 6.02 2.97Zm54.42 5.67 5.98-3.03-6-2.97Zm0 0"/>
  <use xlink:href="#l" x="372.84" y="295.59"/>
  <use xlink:href="#l" x="440.96" y="296.67"/>
</svg>
