<svg xmlns="http://www.w3.org/2000/svg" xmlns:xlink="http://www.w3.org/1999/xlink" width="595.32" height="400" viewBox="0 0 595.32 400">
  <defs>
    <path id="p" d="M2.05-6.7q.15-.62.14-.86 0-.25-.16-.35Q1.88-8 1.5-8l.08-.32 1.47-.04h.34l-1 4.06.06.01q.57-.73 1.05-1.06.5-.34 1-.34.54 0 .84.33.3.31.3.85 0 .38-.17 1.05l-.38 1.55a4 4 0 0 0-.17.89q0 .24.08.34.07.12.25.11a.6.6 0 0 0 .36-.14q.2-.15.58-.55l.33.33q-.57.58-.93.82-.35.21-.8.21a.8.8 0 0 1-.62-.26 1 1 0 0 1-.22-.7q0-.38.2-1.13l.24-1q.15-.54.19-.81.04-.28.04-.44 0-.42-.14-.6-.12-.16-.43-.17a1 1 0 0 0-.53.2q-.3.21-.63.62a3.6 3.6 0 0 0-.8 1.67L1.55 0h-1Zm0 0"/>
    <path id="v" d="M4.42-7.83 2.95-6.56l-.3-.36.93-.81H0v-.55h3.58l-.94-.81.31-.36 1.47 1.28Zm0 0"/>
    <path id="B" d="M2.42.1Q1.5.1 1.05-.59A3.6 3.6 0 0 1 .59-2.6q0-.72.14-1.23.15-.52.4-.86.24-.34.59-.52.37-.17.76-.17.5 0 .85.19.36.18.58.53t.3.84q.12.5.12 1.11 0 1.4-.5 2.11-.5.7-1.4.7m-.97-2.82q0 .63.07 1.08.05.45.18.75.14.29.32.42.2.14.46.14t.44-.12q.19-.15.3-.4.12-.29.19-.7.06-.42.06-1 0-.63-.06-1.1-.06-.46-.2-.76-.12-.3-.3-.43a.7.7 0 0 0-.44-.14 1 1 0 0 0-.5.15q-.2.15-.3.46-.1.27-.17.7-.05.42-.05.95m0 0"/>
    <path id="l" d="M6.48-1.7q-.08.34-.1.54t-.02.36q0 .26.12.38.15.1.46.14L6.87 0H4.54l.06-.28a1 1 0 0 0 .33-.13 1 1 0 0 0 .19-.22q.08-.13.14-.34l.19-.78.48-2.17H2.78L2.3-1.7l-.1.48q-.03.2-.03.42 0 .26.11.38.12.1.47.14L2.67 0H.33L.4-.28a1 1 0 0 0 .32-.13 1 1 0 0 0 .2-.22q.07-.13.13-.34l.19-.78 1-4.52a8 8 0 0 0 .13-.93q0-.3-.15-.38a1 1 0 0 0-.42-.14L1.87-8h2.35l-.06.28q-.24.05-.33.11l-.17.19q-.08.11-.16.36t-.2.81l-.4 1.8h3.15l.39-1.82a4 4 0 0 0 .12-.93q0-.3-.14-.38A1 1 0 0 0 6-7.72L6.06-8h2.35l-.07.28q-.23.05-.32.11l-.18.19q-.07.11-.15.36t-.2.81Zm0 0"/>
    <path id="q" d="M.4-.28a1 1 0 0 0 .33-.13 1 1 0 0 0 .2-.22q.07-.13.13-.34l.19-.78 1-4.52q.13-.58.13-.93 0-.3-.15-.38a1 1 0 0 0-.42-.14L1.87-8h2.35l-.06.28q-.24.05-.33.11l-.17.19q-.08.11-.16.36t-.2.81L2.05-.55h1.43q.4 0 .61-.06.23-.07.44-.28.2-.2.4-.55.18-.33.38-.86h.58L5.3 0H.34Zm0 0"/>
    <path id="r" d="M4.83-3.62q.28.2.45.5t.28.8l.14.7.14.57q.08.25.2.4.1.17.26.24.14.09.42.13L6.66 0H5.03a8 8 0 0 1-.33-1.25l-.26-1.23q-.07-.33-.16-.55a1 1 0 0 0-.22-.33.6.6 0 0 0-.3-.16q-.15-.04-.38-.04H2.7L2.3-1.7q-.07.22-.08.36l-.05.54q0 .2.05.3.06.08.17.14.12.05.42.08L2.75 0H.33L.4-.28a1 1 0 0 0 .32-.13 1 1 0 0 0 .2-.22q.07-.13.13-.34l.19-.78 1-4.52q.13-.57.13-.92 0-.27-.15-.39a1 1 0 0 0-.42-.14L1.87-8h2.61q.61 0 1 .08a2 2 0 0 1 .68.22q.27.15.46.37.19.24.29.53t.09.61q0 .9-.55 1.55-.54.63-1.62.95ZM3.5-4.07q.86 0 1.34-.24.5-.23.79-.75a2.3 2.3 0 0 0 .23-1.56 1 1 0 0 0-.13-.33 1 1 0 0 0-.18-.23 1 1 0 0 0-.3-.17 2 2 0 0 0-.4-.11 5 5 0 0 0-1.29 0l-.75 3.39Zm0 0"/>
    <path id="u" d="M1.44.5q-.12.14-.19.27a1 1 0 0 0-.14.55q0 .44.31.63.3.2.96.2.71 0 1.15-.32T4.28.8q.3-.72.61-2.2h-.08q-.58.78-1.06 1.13A1.7 1.7 0 0 1 2.7.1q-.64 0-1-.48a2.3 2.3 0 0 1-.34-1.38q0-.99.39-1.92.39-.91 1.08-1.47a2.5 2.5 0 0 1 2.26-.45q.33.08.66.3l.53-.4.38.1-.6 2.74-.3 1.43Q5.54-.2 5.39.31T5 1.23a2.6 2.6 0 0 1-1.42 1.22q-.5.17-1.19.17-2.22 0-2.22-1.3 0-.32.2-.59t.65-.56ZM3.13-.6q.29 0 .59-.21t.62-.64q.35-.45.54-.86.18-.4.3-1 .15-.6.15-1.05t-.2-.67q-.19-.2-.65-.2-.6 0-1.07.48t-.75 1.31a5 5 0 0 0-.27 1.63q0 .6.17.9.19.3.56.3m0 0"/>
    <path id="x" d="M6.94-5.3q-.75.99-1.72 2.4-.14 1.15-.14 1.6 0 .38.08.55t.3.17q.15 0 .37-.14.2-.14.45-.42l.33.31q-.48.54-.86.74-.36.18-.73.18-.8 0-.79-1.14 0-.24.04-.54H4.2q-.6.88-1.14 1.3-.53.38-1.15.38-.43 0-.72-.25Q.89-.4.75-.8t-.14-.88q0-1.05.39-2 .4-.93 1.1-1.47a2.6 2.6 0 0 1 1.62-.54q.65 0 1.01.42.38.4.43 1.2l.04-.01.78-1.52h1ZM4.39-2.84q.1-.62.1-1.08-.01-.68-.2-.99-.2-.32-.62-.32-.53 0-1 .48t-.75 1.31q-.27.82-.26 1.67 0 .6.17.88t.53.28q.5 0 1.03-.58.53-.6 1-1.65m0 0"/>
    <path id="y" d="M4.08-1.1q-.52.6-.99.9t-.98.3Q.88.1.88-1.15q0-.4.1-.83l.7-3.05h-1l.1-.4q.34 0 .52-.05a1 1 0 0 0 .3-.12 1 1 0 0 0 .21-.24 2 2 0 0 0 .2-.39q.1-.23.29-.83h.8L2.77-5.6h1.78l-.12.6H2.66l-.54 2.28q-.15.65-.2.95l-.03.47q0 .72.61.72.24 0 .53-.2.3-.19.7-.66Zm0 0"/>
    <path id="A" d="M2.1.1a.5.5 0 0 1-.3-.1 1 1 0 0 1-.2-.22q-.05-.15-.08-.36-.04-.21-.04-.48 0-.33.05-.7l.11-.77.24-1.63.04-.26.02-.19a1 1 0 0 0-.06-.3.2.2 0 0 0-.2-.12l-.24.08q-.13.06-.27.17l-.25.22-.23.22-.28-.33a7 7 0 0 1 .8-.69q.25-.15.5-.25t.52-.1q.23 0 .36.08.15.07.22.2a1 1 0 0 1 .14.54l-.01.16-.02.14-.33 2.12-.09.66a5 5 0 0 0 0 .97q.03.14.1.14.2 0 .5-.16.3-.15.6-.42a5.3 5.3 0 0 0 1.66-2.36q.15-.48.16-.97 0-.21-.1-.33-.08-.1-.28-.1-.23 0-.45.18-.21.2-.42.5l-.35-.3a2.5 2.5 0 0 1 1.17-.96q.23-.1.46-.1.42 0 .6.22.2.22.2.58 0 .28-.12.65-.09.37-.28.77a8 8 0 0 1-.98 1.66q-.3.38-.64.75-.35.36-.72.62-.37.25-.77.4Q2.47.1 2.1.1m0 0"/>
    <clipPath id="k">
      <path d="M485 232h9v8.64h-9Zm0 0"/>
    </clipPath>
    <clipPath id="o">
      <path d="M310 282h7v9.47h-7Zm0 0"/>
    </clipPath>
  </defs>
  <path fill="none" stroke="#000" stroke-linejoin="round" stroke-miterlimit="10" stroke-width="1.5" d="M452.87 261.62c-18.8 33.88-61.97 46.35-96.4 27.85a70.3 70.3 0 0 1-30.4-31.9M504.1 142.62 452.86 261.6"/>
  <path d="m432.09 160.75.23 32.88h-1l-.23-32.87Zm-.27 32.88 1.97-4.02-1.92 10.01-2.08-9.98Zm-43.39 31.08-56.86 30.53.47.89 56.85-30.54ZM331.8 255.7l2.58-3.66-7.86 6.49 9.75-2.96Zm0 0"/>
  <path fill="none" stroke="#000" stroke-linejoin="round" stroke-miterlimit="10" d="M388.73 238.09c-4.8-.01-9.04-2.79-10.37-6.82"/>
  <path d="M504.63 149.42v166.34h-1V149.42Zm-.5 0-2 4 2-10 2 10Zm0 166.34 2-4-2 10-2-10Zm-114.88-89.98v65.9h-1v-65.9Zm-.5 65.9 2-3.99-2 9.99-2-9.99Zm0 0"/>
  <path fill="none" stroke="#000" stroke-linejoin="round" stroke-miterlimit="10" d="m144.68 323.8 385.46-1.73"/>
  <path d="m325.72 264.84-.56 51.32h1l.56-51.31Zm.5 0 1.96 4.02-1.9-10-2.1 9.96Zm-.56 51.33-1.96-4.03 1.89 10.02 2.1-9.96Zm0 0"/>
  <path fill="none" stroke="#1c334e" stroke-dasharray="3.99544 2.99658" stroke-linejoin="round" stroke-miterlimit="10" d="M326.96 258.16c-4.07-5.59-6.94-9.76-12.62-14.56-5.7-4.78-14.22-11-21.5-14.18-7.29-3.18-14.22-5.04-22.17-4.88s-17.68 2.48-25.58 5.86c-7.9 3.37-15.58 8.79-21.84 14.4-6.25 5.63-10.62 12.58-15.69 19.29a290 290 0 0 0-14.66 21c-5.17 8.21-13.02 22.3-16.37 28.32-3.36 6.03-3.76 7.81-3.76 7.81-.56 1.3-.1.66.35 0"/>
  <g clip-path="url(#k)">
    <use xlink:href="#l" x="485.55" y="240.07"/>
  </g>
  <path d="M177.57 332h141.56v1H177.57Zm0 .5 4 2-10-2 10-2Zm141.56 0-4-2 9.99 2-10 2Zm0 0"/>
  <g clip-path="url(#o)">
    <use xlink:href="#p" x="309.78" y="290.92"/>
  </g>
  <use xlink:href="#q" x="246.13" y="316.57"/>
  <use xlink:href="#r" x="399.93" y="259.96"/>
  <path d="m326.33 258.3-12.55-21.59.87-.5 12.54 21.6Zm-12.1-21.84.26 4.45-3.29-9.63 6.75 7.64Zm0 0"/>
  <use xlink:href="#u" x="442.04" y="179.3"/>
  <use xlink:href="#v" x="444.79" y="179.3"/>
  <use xlink:href="#x" x="374.64" y="255.41"/>
  <use xlink:href="#y" x="211.73" y="235.87"/>
  <use xlink:href="#A" x="328.26" y="232.16"/>
  <use xlink:href="#v" x="330.29" y="232.16"/>
  <use xlink:href="#B" x="334.61" y="234.55"/>
</svg>
