<svg xmlns="http://www.w3.org/2000/svg" xmlns:xlink="http://www.w3.org/1999/xlink" width="240" height="180" viewBox="0 0 240 180">
  <defs>
    <path id="h" d="M1.42 0h3.31v-.19C3.8-.19 3.6-.3 3.6-.89v-7.2l-.1-.02L1.32-7v.15q.7-.25.87-.25.37-.01.36.56v5.44c-.03.75-.23.92-1.14.92Zm0 0"/>
    <path id="g" d="M3.42-.78q-.83.65-1.04.75-.33.15-.68.14-.54 0-.92-.38a1.4 1.4 0 0 1-.36-1q0-.4.19-.68.24-.38.83-.74.6-.36 1.98-.87v-.2q0-.82-.26-1.12t-.74-.3a1 1 0 0 0-.6.21.6.6 0 0 0-.21.45l.01.35a.6.6 0 0 1-.14.42q-.14.15-.35.14a.5.5 0 0 1-.36-.16.6.6 0 0 1-.13-.4q0-.52.52-.94a2.2 2.2 0 0 1 1.43-.42q.72 0 1.18.25.34.17.51.56.1.25.11 1.03v1.83q0 .76.02.94t.09.23.17.05q.1 0 .16-.03.12-.08.47-.44v.33q-.66.9-1.25.89a.6.6 0 0 1-.46-.2q-.17-.2-.17-.7m0-.38V-3.2q-.9.36-1.14.5-.47.27-.67.54-.2.3-.2.61 0 .43.25.7a.8.8 0 0 0 .59.29q.44 0 1.17-.6m0 0"/>
    <path id="c" d="m2.05-1.66 2.33-2.68q-.03-.45-.18-.61-.16-.2-.54-.2v-.22h2.5v.23q-.4 0-.54.08a1 1 0 0 0-.21.2q-.07.1-.07.75v2.84q0 .63.07.75.05.12.2.2.14.1.55.1V0h-2.6v-.22q.48 0 .64-.17t.17-.88v-2.51L2.06-1.1q0 .5.14.68.15.2.56.2V0H.27v-.22q.52 0 .67-.19.15-.18.14-.86V-4.1q0-.62-.06-.73a.5.5 0 0 0-.2-.2q-.14-.1-.55-.1v-.24h2.59v.24q-.4 0-.53.08a1 1 0 0 0-.2.2q-.08.1-.08.75Zm0 0"/>
    <path id="d" d="m4.63-5.37.21 1.46H4.6q-.22-.7-.45-.89-.22-.18-.95-.18H2.05v3.71q0 .63.06.75.08.12.2.2.15.1.55.1V0H.19v-.22Q.74-.23.9-.39t.17-.88V-4.1q0-.56-.06-.72a.4.4 0 0 0-.22-.23 2 2 0 0 0-.61-.08v-.24Zm0 0"/>
    <path id="f" d="m-.02-4.83 1.66-.67h.22v1.25q.42-.7.84-.98.42-.3.88-.3.81 0 1.34.64.67.76.67 2.01 0 1.4-.8 2.3-.65.75-1.65.75-.44 0-.75-.12a2 2 0 0 1-.53-.36v1.64q0 .55.06.69.07.15.24.23.17.1.6.1v.21h-2.8v-.22H.1q.3.02.55-.1a1 1 0 0 0 .17-.22q.06-.15.06-.72v-5.08q0-.53-.05-.67a.4.4 0 0 0-.15-.2.4.4 0 0 0-.27-.08q-.14 0-.36.09Zm1.88.92v2q0 .66.06.86.07.35.4.61.32.25.8.25.58 0 .96-.45.47-.6.47-1.69 0-1.23-.53-1.89a1.13 1.13 0 0 0-1.46-.31q-.22.1-.7.62m0 0"/>
    <path id="e" d="M.08-5.37h2.5v.21h-.13q-.26 0-.4.13a.4.4 0 0 0-.13.28q0 .23.19.63l1.31 2.71 1.2-2.96q.1-.25.1-.49l-.03-.16a.3.3 0 0 0-.16-.09 1 1 0 0 0-.34-.05v-.21h1.75v.21a1 1 0 0 0-.35.11 1 1 0 0 0-.25.25q-.05.08-.2.46L2.95 1.02a2.7 2.7 0 0 1-.83 1.17q-.51.4-.98.4a1 1 0 0 1-.58-.2.6.6 0 0 1-.22-.45q0-.25.16-.4a.7.7 0 0 1 .45-.15q.19 0 .53.13.23.09.29.09.18 0 .39-.19.2-.18.42-.7l.37-.94-1.92-4.05-.28-.45Q.6-4.92.5-4.98a1 1 0 0 0-.42-.18Zm0 0"/>
    <path id="b" d="M6.45 0H3.03v-.22q.68-.01.9-.17.24-.17.24-.72-1.97 0-2.84-.83a2.7 2.7 0 0 1-.88-2.08q0-.93.52-1.59.51-.66 1.26-.92.77-.25 1.94-.25 0-.5-.14-.66a1 1 0 0 0-.31-.22 3 3 0 0 0-.69-.07v-.22h3.42v.22q-.69.03-.9.21t-.25.74q1.26 0 1.98.28.73.27 1.25.9.52.65.52 1.58-.01 1.22-.86 2.07-.84.84-2.9.84.03.54.26.7.21.18.9.2ZM5.3-1.53q.87 0 1.37-.22.52-.24.85-.81.34-.6.34-1.46 0-.8-.34-1.37a1.7 1.7 0 0 0-.85-.77 4 4 0 0 0-1.37-.2Zm-1.13 0v-4.83q-.9 0-1.4.24-.5.22-.82.75-.32.52-.32 1.35 0 .93.39 1.54.38.6.9.78.53.17 1.25.17m0 0"/>
    <path id="i" d="M8.92-.25c-.69-.05-1-.33-1.31-1.16L6.16-5.34c1.2-.27 1.73-.49 2.3-1q.77-.72.79-1.82c0-1.5-1.16-2.3-3.27-2.3h-3.9v.24c.65.11.73.13.89.24.12.07.22.26.22.45s-.08.56-.19 1l-1.94 7.1C.78-.5.67-.42-.2-.26V0h3.84v-.25c-.98-.14-1.08-.2-1.08-.77 0-.15.03-.3.19-.9l.9-3.36 1 .1L6.6 0h2.33ZM4.84-9.53c.1-.35.3-.45.82-.45q1.94 0 1.93 1.8c0 1.57-1 2.4-2.96 2.4-.29 0-.41-.02-.8-.1Zm0 0"/>
    <path id="k" d="M2.31-5.05a11 11 0 0 1 2.72-4.67q1.3-1.23 2.56-1.23 1.23 0 1.72 1.18.68 1.66-.25 4.5a9.6 9.6 0 0 1-2.6 4.29Q5.17.22 3.9.23q-.67 0-1.12-.32-.46-.34-.7-.99a4 4 0 0 1-.21-1.36q0-1.23.45-2.6m5.4-.54q.67-2.02.68-3.24 0-.91-.31-1.33a.9.9 0 0 0-.7-.3q-.52 0-1.08.43-.55.41-1.1 1.36-.53.95-1.28 3.08Zm-3.96.51q-.4 1.36-.6 2.46-.14.84-.02 1.45.07.37.34.64.28.25.69.25.48 0 1.06-.45.58-.48 1.12-1.5.56-1.04 1.2-2.85Zm0 0"/>
    <path id="l" d="M14.1-10.44h-2.7L5.96-2.56l-.9-7.88H2.17v.25q1.2.07 1.2.6c0 .12-.06.37-.16.65q-.07.09-.15.49L3-8.28 1.3-2.33C.8-.67.55-.36-.3-.25V0h3.2v-.25c-.82-.06-1.13-.27-1.13-.7 0-.2.06-.57.14-.86l1.9-6.92L4.8 0h.26l6.1-8.97-2.08 7.52c-.27.84-.6 1.08-1.64 1.2V0h4.4v-.25c-1.09-.1-1.23-.2-1.23-.69 0-.28.03-.48.17-.98L12.77-9c.3-.95.37-1.03 1.32-1.19Zm0 0"/>
    <path id="m" d="M2.31-6.17c-.5 0-.87.14-1.22.47C.56-5.2.22-4.14.22-3.08.22-2.06.52-1 .95-.5c.33.4.8.63 1.33.63q.7 0 1.19-.47c.53-.5.87-1.57.87-2.68 0-1.87-.82-3.15-2.03-3.15m-.01.23c.76 0 1.17 1.03 1.17 2.94 0 1.9-.4 2.9-1.19 2.9S1.1-1.1 1.1-2.99q0-2.95 1.2-2.96m0 0"/>
    <path id="n" d="M10.88-10.33H7.94v.25c.7.08.98.25.98.55s-.3.95-.81 1.87L4.84-2.03l-1.03-7-.01-.24c0-.53.22-.68 1.2-.8v-.26H1.2v.25c.88.11.9.14 1.25 2.14L3.8.28h.3l5.88-9.72c.27-.42.52-.62.9-.64Zm0 0"/>
    <clipPath id="j">
      <path d="M336 67h11.9v12H336Zm0 0"/>
    </clipPath>
    <clipPath id="a">
      <path d="M0 0h612v792H0z"/>
    </clipPath>
    <g id="o" clip-path="url(#a)">
      <use xlink:href="#b" x="82.94" y="156.26"/>
      <use xlink:href="#c" x="92.53" y="156.26"/>
      <use xlink:href="#d" x="98.77" y="156.26"/>
      <use xlink:href="#e" x="103.57" y="156.26"/>
      <use xlink:href="#f" x="109.8" y="156.26"/>
      <use xlink:href="#g" x="116.02" y="156.26"/>
      <use xlink:href="#h" x="124.26" y="156.26"/>
      <path fill="none" stroke="#000" stroke-linecap="round" stroke-linejoin="round" stroke-miterlimit="10" stroke-width=".4992" d="M104.9 09.05a68 68 0 1 0 0 136c37.56 0 68-30.44 68-68s-30.44-68-68-68m0 0"/>
      <path fill-rule="evenodd" d="M183.45 55.05c-1.82 0-3.3 1.49-3.3 3.32a3.3 3.3 0 0 0 3.3 3.33c1.82 0 3.3-1.5 3.3-3.33a3.3 3.3 0 0 0-3.3-3.32"/>
      <path fill="none" stroke="#000" stroke-linecap="round" stroke-linejoin="round" stroke-miterlimit="10" stroke-width=".7512" d="M183.45 55.05c-1.82 0-3.3 1.49-3.3 3.32a3.3 3.3 0 0 0 3.3 3.33c1.82 0 3.3-1.5 3.3-3.33a3.3 3.3 0 0 0-3.3-3.32m0 0"/>
      <path d="m202.05 69.92-18.37-10.32.74-1.3 18.37 10.3Zm.37-.66-1.04-6.32 6.27 9.26-11.17-.54"/>
      <path fill="none" stroke="#000" stroke-linejoin="round" stroke-miterlimit="10" stroke-width="1.5" d="m170.95 90.55 13.1-31.6"/>
      <path fill="none" stroke="#000" stroke-dasharray="1.5 1.5" stroke-linejoin="round" stroke-miterlimit="10" stroke-width="1.5" d="m107.55 77.1 63.1 13.1"/>
      <use xlink:href="#i" x="135.59" y="101.73"/>
      <path fill="none" stroke="#000" stroke-linejoin="round" stroke-miterlimit="10" stroke-width="1.5" d="M168.37 54.34a67.8 67.8 0 0 0-63.94-45.29 67.75 67.75 0 0 0-67.78 67.72 67.75 67.75 0 0 0 67.78 67.73 67.76 67.76 0 0 0 66.22-53.3"/>
      <path fill="none" stroke="#000" stroke-dasharray="1.5 1.5" stroke-linejoin="round" stroke-miterlimit="10" stroke-width="1.5" d="m107.55 77 62.35-22.55"/>
      <g clip-path="url(#j)">
        <use xlink:href="#k" x="136.14" y="78.15"/>
      </g>
      <use xlink:href="#l" x="179.73" y="46.79"/>
      <path fill="none" stroke="#000" stroke-linecap="round" stroke-linejoin="round" stroke-miterlimit="10" stroke-width=".7512" d="M128.1 80.1a10.53 10.53 0 0 0 2.7-12.5"/>
      <use xlink:href="#m" x="226.67" y="73.27"/>
      <use xlink:href="#n" x="217.68" y="69.19"/>
    </g>
  </defs>
  <use xlink:href="#o"/>
</svg>
