<svg xmlns="http://www.w3.org/2000/svg" xmlns:xlink="http://www.w3.org/1999/xlink" width="450" height="260" viewBox="0 0 450 260">
  <defs>
    <path id="c" d="M1.84-3.95c.7 0 .97.01 1.25.12.77.28 1.22.96 1.22 1.78 0 1.02-.67 1.78-1.56 1.78-.34 0-.58-.07-1.02-.37-.35-.22-.56-.3-.76-.3-.27 0-.45.17-.45.42 0 .43.51.7 1.36.7.9 0 1.85-.32 2.43-.82.57-.48.86-1.19.86-1.98 0-.63-.19-1.18-.53-1.55-.25-.27-.48-.4-1-.64.83-.57 1.13-1 1.13-1.66 0-.98-.75-1.64-1.88-1.64q-.9 0-1.56.58C.97-7.2.8-6.9.55-6.17l.17.04c.48-.89 1.01-1.26 1.78-1.26.78 0 1.31.51 1.31 1.28 0 .44-.17.86-.47 1.17-.37.36-.7.53-1.51.83Zm0 0"/>
    <path id="k" d="m5.7-1.64-.15-.06c-.46.68-.58.78-1.14.8H1.53l2.02-2.13c1.08-1.11 1.54-2.02 1.54-2.95 0-1.2-.98-2.13-2.21-2.13-.68 0-1.3.27-1.74.73-.39.43-.56.8-.76 1.66l.25.06c.48-1.18.9-1.56 1.73-1.56 1.03 0 1.7.67 1.7 1.69 0 .95-.56 2.05-1.56 3.12L.36-.14V0h4.69Zm0 0"/>
    <path id="e" d="M6.45 0H3.03v-.22q.68-.01.9-.17.24-.17.24-.72-1.97 0-2.84-.83a2.7 2.7 0 0 1-.88-2.08q0-.93.52-1.59.51-.66 1.26-.92.77-.25 1.94-.25 0-.5-.14-.66a1 1 0 0 0-.31-.22 3 3 0 0 0-.69-.07v-.22h3.42v.22q-.69.03-.9.21t-.25.74q1.26 0 1.98.28.73.27 1.25.9.52.65.52 1.58-.01 1.22-.86 2.07-.84.84-2.9.84.03.54.26.7.21.18.9.2ZM5.3-1.53q.87 0 1.37-.22.52-.24.85-.81.34-.6.34-1.46 0-.8-.34-1.37a1.7 1.7 0 0 0-.85-.77 4 4 0 0 0-1.37-.2Zm-1.13 0v-4.83q-.9 0-1.4.24-.5.22-.82.75-.32.52-.32 1.35 0 .93.39 1.54.38.6.9.78.53.17 1.25.17m0 0"/>
    <path id="f" d="m2.05-1.66 2.33-2.68q-.03-.45-.18-.61-.16-.2-.54-.2v-.22h2.5v.23q-.4 0-.54.08a1 1 0 0 0-.21.2q-.07.1-.07.75v2.84q0 .63.07.75.05.12.2.2.14.1.55.1V0h-2.6v-.22q.48 0 .64-.17t.17-.88v-2.51L2.06-1.1q0 .5.14.68.15.2.56.2V0H.27v-.22q.52 0 .67-.19.15-.18.14-.86V-4.1q0-.62-.06-.73a.5.5 0 0 0-.2-.2q-.14-.1-.55-.1v-.24h2.59v.24q-.4 0-.53.08a1 1 0 0 0-.2.2q-.08.1-.08.75Zm0 0"/>
    <path id="g" d="m4.63-5.37.21 1.46H4.6q-.22-.7-.45-.89-.22-.18-.95-.18H2.05v3.71q0 .63.06.75.08.12.2.2.15.1.55.1V0H.19v-.22Q.74-.23.9-.39t.17-.88V-4.1q0-.56-.06-.72a.4.4 0 0 0-.22-.23 2 2 0 0 0-.61-.08v-.24Zm0 0"/>
    <path id="h" d="M.08-5.37h2.5v.21h-.13q-.26 0-.4.13a.4.4 0 0 0-.13.28q0 .23.19.63l1.31 2.71 1.2-2.96q.1-.25.1-.49l-.03-.16a.3.3 0 0 0-.16-.09 1 1 0 0 0-.34-.05v-.21h1.75v.21a1 1 0 0 0-.35.11 1 1 0 0 0-.25.25q-.05.08-.2.46L2.95 1.02a2.7 2.7 0 0 1-.83 1.17q-.51.4-.98.4a1 1 0 0 1-.58-.2.6.6 0 0 1-.22-.45q0-.25.16-.4a.7.7 0 0 1 .45-.15q.19 0 .53.13.23.09.29.09.18 0 .39-.19.2-.18.42-.7l.37-.94-1.92-4.05-.28-.45Q.6-4.92.5-4.98a1 1 0 0 0-.42-.18Zm0 0"/>
    <path id="i" d="m-.02-4.83 1.66-.67h.22v1.25q.42-.7.84-.98.42-.3.88-.3.81 0 1.34.64.67.76.67 2.01 0 1.4-.8 2.3-.65.75-1.65.75-.44 0-.75-.12a2 2 0 0 1-.53-.36v1.64q0 .55.06.69.07.15.24.23.17.1.6.1v.21h-2.8v-.22H.1q.3.02.55-.1a1 1 0 0 0 .17-.22q.06-.15.06-.72v-5.08q0-.53-.05-.67a.4.4 0 0 0-.15-.2.4.4 0 0 0-.27-.08q-.14 0-.36.09Zm1.88.92v2q0 .66.06.86.07.35.4.61.32.25.8.25.58 0 .96-.45.47-.6.47-1.69 0-1.23-.53-1.89a1.13 1.13 0 0 0-1.46-.31q-.22.1-.7.62m0 0"/>
    <path id="j" d="M3.42-.78q-.83.65-1.04.75-.33.15-.68.14-.54 0-.92-.38a1.4 1.4 0 0 1-.36-1q0-.4.19-.68.24-.38.83-.74.6-.36 1.98-.87v-.2q0-.82-.26-1.12t-.74-.3a1 1 0 0 0-.6.21.6.6 0 0 0-.21.45l.01.35a.6.6 0 0 1-.14.42q-.14.15-.35.14a.5.5 0 0 1-.36-.16.6.6 0 0 1-.13-.4q0-.52.52-.94a2.2 2.2 0 0 1 1.43-.42q.72 0 1.18.25.34.17.51.56.1.25.11 1.03v1.83q0 .76.02.94t.09.23.17.05q.1 0 .16-.03.12-.08.47-.44v.33q-.66.9-1.25.89a.6.6 0 0 1-.46-.2q-.17-.2-.17-.7m0-.38V-3.2q-.9.36-1.14.5-.47.27-.67.54-.2.3-.2.61 0 .43.25.7a.8.8 0 0 0 .59.29q.44 0 1.17-.6m0 0"/>
    <path id="m" d="M1.69 0H5.6v-.2c-1.1 0-1.33-.16-1.34-.85v-8.43l-.13-.02-2.56 1.28v.19q.84-.3 1.03-.31.43-.01.42.67v6.36C3-.42 2.77-.21 1.7-.21Zm0 0"/>
    <path id="n" d="M6.56-1.64c-.78.95-.95 1.1-1.17 1.1a.23.23 0 0 1-.23-.23q0-.13.2-.87l.81-2.9c.06-.3.13-.6.13-.8 0-.52-.4-.86-.94-.86-.9 0-1.81.86-3.28 3.1l.95-3.07L3-6.2c-.77.15-1.08.22-2.31.43v.22c.72.02.9.11.9.4q0 .12-.03.23L.2 0h1.07c.67-2.22.8-2.53 1.42-3.48.86-1.3 1.6-2 2.1-2q.35.01.35.4c0 .17-.08.64-.2 1.08L4.3-1.69c-.18.74-.22.92-.22 1.07 0 .53.2.75.68.75.64 0 .98-.29 1.98-1.6Zm0 0"/>
    <path id="o" d="M.25-5.22h7.31v.67H.25Zm0 2.56h7.31v.7H.25Zm0 0"/>
    <path id="p" d="M2.31-5.03A11 11 0 0 1 5.03-9.7q1.3-1.23 2.56-1.22 1.22 0 1.7 1.19.7 1.64-.23 4.48a10 10 0 0 1-2.6 4.28Q5.17.23 3.9.23q-.67 0-1.12-.32-.46-.34-.7-.99a4 4 0 0 1-.23-1.34q.02-1.24.47-2.61m5.4-.55q.67-2 .68-3.22 0-.91-.31-1.32a.9.9 0 0 0-.7-.3q-.52 0-1.08.4-.55.42-1.1 1.36-.53.96-1.28 3.08Zm-3.94.5a20 20 0 0 0-.61 2.47q-.14.83-.04 1.44.08.37.35.64.28.25.69.25.48 0 1.06-.45.58-.47 1.12-1.49.57-1.03 1.2-2.86Zm0 0"/>
    <path id="q" d="M1.69 0h3.97v-.22c-1.11 0-1.36-.14-1.38-.83v-8.43l-.1-.04-2.59 1.29v.2q.85-.32 1.03-.31.44-.01.44.65v6.38c-.03.89-.28 1.1-1.37 1.1Zm0 0"/>
    <path id="r" d="M6.6-1.64c-.77.95-.94 1.1-1.18 1.1a.24.24 0 0 1-.23-.23q0-.13.2-.87l.81-2.9c.08-.3.14-.62.14-.8 0-.54-.39-.86-.95-.86-.92 0-1.81.86-3.3 3.1l.97-3.09-.04-.01-2.33.43v.22c.73.02.92.1.92.38q0 .14-.03.25L.2 0h1.08c.67-2.22.8-2.53 1.44-3.48.86-1.3 1.58-2 2.1-2q.35.01.35.4c0 .17-.08.63-.19 1.06l-.64 2.33c-.18.74-.23.9-.23 1.05 0 .55.2.77.69.77.64 0 1-.29 2-1.6Zm0 0"/>
    <path id="s" d="M.27-5.22h7.36v.67H.26Zm0 2.56h7.36v.7H.26Zm0 0"/>
    <path id="t" d="M.27-3.95h7.36v.67H.26Zm0 0"/>
    <clipPath id="b">
      <path d="M303.12 745H309v10h-5.88Zm0 0"/>
    </clipPath>
    <clipPath id="d">
      <path d="M309 754h.36v1H309Zm0 0"/>
    </clipPath>
  </defs>
      <use xlink:href="#e" x="282.94" y="249.26"/>
      <use xlink:href="#f" x="292.53" y="249.26"/>
      <use xlink:href="#g" x="298.77" y="249.26"/>
      <use xlink:href="#h" x="303.57" y="249.26"/>
      <use xlink:href="#i" x="309.8" y="249.26"/>
      <use xlink:href="#j" x="316.02" y="249.26"/>
      <use xlink:href="#k" x="324.26" y="249.26"/>
      <use xlink:href="#l" transform="matrix(.62362 0 0 .624 108 344.15)"/>
      <path fill="none" stroke="#000" stroke-linejoin="round" stroke-miterlimit="10" stroke-width="3.4992" d="m293.2 74.25.05 162"/>
      <path fill="none" stroke="#000" stroke-dasharray="7.999992 6" stroke-linejoin="round" stroke-miterlimit="10" stroke-width="1.9991999999999999" d="m176.25 168.15 243 .05"/>
      <path fill="none" stroke="#000" stroke-linejoin="round" stroke-miterlimit="10" stroke-width="1.9991999999999999" d="m221.25 220.5 69.9-52.35"/>
      <path d="m227.85 214.25 18.9-14.15 1.2 1.6-18.9 14.15Zm15.7-16.76 11-1.99-5.01 10"/>
      <use xlink:href="#m" x="233.27" y="91.76"/>
      <use xlink:href="#n" x="213.79" y="91.76"/>
      <use xlink:href="#o" x="223.96" y="91.76"/>
      <use xlink:href="#p" x="252.49" y="183.86"/>
      <path fill="none" stroke="#000" stroke-linecap="round" stroke-linejoin="round" stroke-miterlimit="10" stroke-width=".7512" d="M271.01 168.15a11 11 0 0 0-.66 3.73c0 2.96 1.2 5.79 3.33 7.77"/>
      <use xlink:href="#q" x="377.94" y="87.78"/>
      <use xlink:href="#r" x="349.28" y="87.78"/>
      <use xlink:href="#s" x="359.43" y="87.78"/>
      <use xlink:href="#t" x="370.25" y="87.78"/>
      <path fill="gray" fill-opacity=".43" fill-rule="evenodd" d="M293.4 234.25H423v-162H293.4Zm0 0"/>
</svg>
