<svg xmlns="http://www.w3.org/2000/svg" xmlns:xlink="http://www.w3.org/1999/xlink" width="595.32" height="841.92" viewBox="0 0 595.32 841.92">
  <defs>
    <path id="l" d="M.98-1.2c-.35 0-.65.3-.65.68 0 .35.3.65.62.65.4 0 .7-.29.7-.65a.7.7 0 0 0-.67-.68m0 0"/>
    <path id="a" d="M4.69-7.94h3.14l-.06.22q-.61 0-.88.27-.26.25-.37.7 1.41 0 2.18.64a2 2 0 0 1 .78 1.63A2.9 2.9 0 0 1 8.33-2.2q-1.17.97-3.42 1.06-.08.3-.08.45 0 .24.19.36.2.12.7.11L5.64 0H2.56l.1-.22q.6 0 .8-.19.2-.2.35-.73-.97 0-1.6-.27-.6-.27-.98-.8a2 2 0 0 1-.35-1.2q0-.9.57-1.68.6-.78 1.64-1.22 1.07-.44 2.36-.44.08-.3.08-.5a.4.4 0 0 0-.19-.34 2 2 0 0 0-.71-.13Zm.28 6.5a3.3 3.3 0 0 0 2.47-1.04q.95-1.05.95-2.27 0-1.62-1.97-1.69Zm.39-4.98q-1.72.1-2.56 1.14a3.3 3.3 0 0 0-.85 2.1q0 .7.47 1.21.48.52 1.5.53Zm0 0"/>
    <path id="b" d="M5.64-5.16 4.63-1.67q-.24.78-.24.98 0 .12.03.16.05.05.11.05.11 0 .22-.08.13-.09.6-.74l.18.14Q5.07-.4 4.6-.08q-.32.22-.62.22-.24 0-.36-.12-.13-.13-.13-.35 0-.19.08-.51.1-.45.53-1.9A11 11 0 0 1 2.42-.46q-.67.6-1.23.61a.64.64 0 0 1-.66-.66q0-.42.27-1.34l.51-1.81q.2-.65.19-.81 0-.06-.06-.11-.05-.07-.11-.07a.4.4 0 0 0-.24.1 4 4 0 0 0-.56.64l-.19-.13q.46-.66.94-1 .38-.25.69-.25.21 0 .36.14t.14.36q0 .32-.24 1.13l-.56 1.89q-.22.76-.22.97 0 .1.07.19a.3.3 0 0 0 .2.06q.18 0 .5-.19.3-.2.83-.86.51-.66.86-1.25.33-.58.71-1.84l.13-.46Zm0 0"/>
    <path id="c" d="m1.16-4.3-.18-.14a3 3 0 0 1 2.05-.86q.78 0 1.17.32.4.3.4.76 0 .33-.24.66-.25.33-1.52.86a5 5 0 0 0-1.54.9q-.32.38-.32.7 0 .34.27.6.29.27.84.27.81 0 1.77-.79l.16.16Q3 .14 1.59.14a2 2 0 0 1-1.18-.3.9.9 0 0 1-.4-.76q0-.44.32-.83.33-.39 1.65-.87a4 4 0 0 0 1.38-.74q.33-.36.33-.78 0-.34-.27-.53-.27-.2-.72-.2-.73 0-1.54.57m0 0"/>
    <path id="g" d="M1.92-5.3q.2.35.27.64t.15 1.16l.27 2.88 1.02-1.33q.32-.45.8-1.22.27-.46.34-.66a.4.4 0 0 0 .04-.19.1.1 0 0 0-.04-.09l-.22-.1a.6.6 0 0 1-.28-.2.6.6 0 0 1-.11-.36.5.5 0 0 1 .14-.37q.14-.15.34-.16.26 0 .44.22.18.2.19.58 0 .47-.33 1.06-.32.6-1.22 1.83-.9 1.22-2.17 2.67A8 8 0 0 1 .23 2.33q-.42.26-.73.26a.4.4 0 0 1-.31-.14.5.5 0 0 1-.14-.33q0-.21.18-.4a.6.6 0 0 1 .43-.19q.1 0 .18.05.06.03.11.17t.1.19l.08.01.1-.04q.33-.21.75-.64.57-.57.85-.94l-.33-3.7q-.09-.93-.27-1.11-.15-.2-.53-.2l-.43.02-.07-.21Zm0 0"/>
    <path id="h" d="m2.66-5.3-.41 1.35Q2.89-4.7 3.39-5t1.02-.3.89.42.37 1.07q0 1.3-1.06 2.62Q3.56.14 2.17.14q-.29 0-.51-.06a2 2 0 0 1-.5-.24L.72 1.36q-.13.43-.13.58 0 .12.07.22.08.08.21.14.16.04.61.04l-.04.22h-2.77l.06-.22q.55 0 .74-.18.18-.16.4-.91l1.49-5.12q.12-.5.12-.61 0-.15-.09-.24-.08-.1-.26-.1t-.49.05V-5ZM1.28-.6q.38.4.99.41.3 0 .6-.15.33-.18.63-.5.3-.35.53-.78.25-.44.44-1.02.18-.6.19-1.19 0-.46-.22-.7a.6.6 0 0 0-.49-.25q-.65 0-1.26.73-.6.72-.9 1.7Zm0 0"/>
    <path id="i" d="M5.63-5.3 4.47-1.33l-.12.53-.02.13q0 .1.05.17.04.05.13.05.07 0 .18-.1.24-.16.61-.7l.2.14q-.4.6-.82.94-.42.3-.8.31-.26 0-.37-.12-.13-.13-.13-.36a3 3 0 0 1 .13-.77l.12-.44a6 6 0 0 1-1.4 1.4q-.48.3-.91.3A1 1 0 0 1 .59-.2a1.4 1.4 0 0 1-.3-.99q0-.93.55-1.97.57-1.02 1.43-1.64.66-.5 1.26-.5.36 0 .6.2.23.18.35.62l.2-.68Zm-2.08.32q-.38 0-.8.34-.6.5-1.08 1.48-.45.97-.45 1.75a1 1 0 0 0 .19.64.6.6 0 0 0 .47.24q.63 0 1.39-.95 1-1.26 1-2.57 0-.5-.2-.72a.7.7 0 0 0-.52-.21m0 0"/>
    <path id="j" d="M4.14 0H.2v-.22q3-2.64 3.98-4.14.45-.7.46-1.47 0-.6-.38-.98a1.3 1.3 0 0 0-.97-.4q-.82 0-1.36.8l-.2-.09q.3-.76.87-1.17.58-.42 1.24-.42.76 0 1.28.51.51.52.51 1.25 0 .52-.18.96-.28.68-1.03 1.53a39 39 0 0 1-3.07 3h1.99q.47 0 .8-.2.3-.21.43-.54h.24Zm0 0"/>
    <path id="k" d="M5.98-8.33h.24a1.7 1.7 0 0 1-.97 1.2q-.31.12-1.03.16-.69.05-1.05.17a2 2 0 0 0-.72.42q-.34.33-.7 1-.34.68-.7 1.7 1.23-1.6 2.78-1.62.75 0 1.25.5.5.51.5 1.38 0 1.4-1.02 2.48A3.2 3.2 0 0 1 2.2.14Q1.35.14.87-.42A2 2 0 0 1 .43-1.8q0-1.15.58-2.65T2.2-6.7t1.2-.95q.6-.22 1.65-.28.5-.03.67-.1.15-.05.26-.3m-2.2 3.3q-.97 0-1.7 1.2-.74 1.2-.74 2.5 0 .63.32.92.33.29.73.28.92 0 1.58-1.3.67-1.32.67-2.63 0-.5-.25-.74a1 1 0 0 0-.6-.23m0 0"/>
    <path id="m" d="M2.95-2.78q.77.03 1.14.39.4.36.4.86 0 .69-.66 1.19a2.6 2.6 0 0 1-1.6.48Q.38.14.38-1.75q0-1.4 1-2.47A3.1 3.1 0 0 1 3.73-5.3q.68 0 .99.25t.31.61q0 .93-2.08 1.66m-1.39.14q1.4-.34 2.02-.81t.64-1.03a.6.6 0 0 0-.16-.36q-.15-.2-.43-.2-1.25 0-2.07 2.4m-.12.36q-.18.51-.17 1.1 0 .57.26.84.29.25.69.25.54 0 .89-.46.36-.45.36-1.06a1 1 0 0 0-.27-.66.8.8 0 0 0-.65-.28q-.5 0-1.11.27m0 0"/>
    <path id="p" d="M7.48-.2c-.59-.05-.84-.27-1.1-.94l-1.22-3.2c1.01-.22 1.45-.41 1.92-.83q.66-.58.67-1.47c0-1.22-.97-1.88-2.73-1.88H1.73v.2c.57.09.63.1.77.2.1.06.17.21.17.35 0 .16-.06.47-.15.83L.89-1.17C.66-.41.56-.33-.17-.2V0h3.22v-.2c-.82-.11-.9-.16-.9-.63 0-.12.02-.25.16-.73l.74-2.74.86.07L5.53 0h1.95ZM4.06-7.77c.08-.26.25-.36.67-.36q1.64 0 1.64 1.47 0 1.95-2.5 1.96c-.23 0-.34-.02-.67-.08Zm0 0"/>
    <path id="q" d="M7.06-.19c-.54-.04-.8-.25-1.03-.89L4.87-4.06c.96-.2 1.36-.38 1.82-.77q.62-.55.64-1.39c0-1.12-.92-1.75-2.6-1.75H1.64v.19c.53.08.6.1.72.17.1.06.17.22.17.34q0 .25-.15.79L.84-1.1c-.21.72-.3.78-1 .9V0h3.04v-.19c-.77-.1-.85-.15-.85-.58 0-.12.03-.25.14-.7l.7-2.55.82.07L5.22 0h1.84ZM3.83-7.27c.08-.25.25-.34.64-.34q1.55-.01 1.55 1.4Q6-4.44 3.66-4.42a3 3 0 0 1-.63-.06Zm0 0"/>
    <path id="r" d="M7.48-.2c-.59-.05-.84-.27-1.1-.94l-1.22-3.2c1.01-.22 1.45-.41 1.92-.83q.66-.58.67-1.47c0-1.22-.97-1.88-2.73-1.88H1.73v.2c.57.09.63.1.77.2.1.06.17.21.17.35 0 .16-.06.47-.15.83L.89-1.17C.66-.41.56-.33-.17-.2V0h3.22v-.2c-.82-.11-.9-.16-.9-.63 0-.12.02-.25.16-.73l.74-2.74.86.07L5.53 0h1.95ZM4.06-7.77c.08-.26.25-.36.67-.36q1.64 0 1.64 1.47 0 1.95-2.5 1.96c-.23 0-.34-.02-.67-.08Zm0 0"/>
    <path id="s" d="M7.06-.19c-.54-.04-.8-.25-1.03-.89L4.87-4.06c.96-.2 1.36-.38 1.82-.77q.62-.55.64-1.39c0-1.12-.92-1.75-2.6-1.75H1.64v.19c.53.08.6.1.72.17.1.06.17.22.17.34q0 .25-.15.79L.84-1.1c-.21.72-.3.78-1 .9V0h3.04v-.19c-.77-.1-.85-.15-.85-.58 0-.12.03-.25.14-.7l.7-2.55.82.07L5.22 0h1.84ZM3.83-7.27c.08-.25.25-.34.64-.34q1.55-.01 1.55 1.4Q6-4.44 3.66-4.42a3 3 0 0 1-.63-.06Zm0 0"/>
    <path id="t" d="M7.06-.2c-.54-.03-.8-.24-1.03-.88l-1.16-3c.96-.2 1.36-.37 1.82-.76q.62-.56.64-1.4C7.33-7.36 6.4-8 4.73-8H1.64v.2c.53.07.6.08.72.17.1.05.17.2.17.35s-.06.44-.15.76L.84-1.1c-.21.74-.3.8-1 .9V0h3.04v-.2c-.77-.1-.85-.14-.85-.57 0-.12.03-.25.14-.7l.7-2.56.82.06L5.22 0h1.84ZM3.83-7.28c.08-.27.25-.34.64-.34q1.55 0 1.55 1.37Q6-4.43 3.66-4.42c-.22 0-.32-.02-.63-.06Zm0 0"/>
    <path id="u" d="M2.03-8.05h5.8l-.63 2.1h-.23q.08-.37.08-.7 0-.4-.17-.63a.7.7 0 0 0-.46-.3 6 6 0 0 0-1.1-.06H4.06L3.1-4.47h.83q1.06 0 1.6.22.53.23.86.73.34.5.34 1.1 0 .7-.5 1.34t-1.2.86Q4.3 0 3.32 0H-.35l.06-.22q.68 0 .9-.22.26-.2.53-1.04l1.43-4.8q.24-.8.24-1.08 0-.25-.2-.34a2 2 0 0 0-.63-.13Zm-.1 7.53q.47.08 1.04.08 1.28 0 1.87-.62.61-.62.61-1.4 0-.51-.3-.9a1.4 1.4 0 0 0-.71-.53q-.45-.16-1.17-.16h-.29Zm0 0"/>
    <path id="v" d="M7.06-.19c-.54-.04-.8-.25-1.03-.89L4.87-4.06c.96-.2 1.36-.38 1.82-.77q.62-.55.64-1.39c0-1.12-.92-1.75-2.6-1.75H1.64v.19c.53.08.6.1.72.17.1.06.17.22.17.34q0 .25-.15.79L.84-1.1c-.21.72-.3.78-1 .9V0h3.04v-.19c-.77-.1-.85-.15-.85-.58 0-.12.03-.25.14-.7l.7-2.55.82.07L5.22 0h1.84ZM3.83-7.27c.08-.25.25-.34.64-.34q1.55-.01 1.55 1.4Q6-4.44 3.66-4.42a3 3 0 0 1-.63-.06Zm0 0"/>
    <path id="w" d="M7.06-.19c-.54-.04-.8-.25-1.03-.89L4.87-4.06c.96-.2 1.36-.38 1.82-.77q.62-.55.64-1.39c0-1.12-.92-1.75-2.6-1.75H1.64v.19c.53.08.6.1.72.17.1.06.17.22.17.34q0 .25-.15.79L.84-1.1c-.21.72-.3.78-1 .9V0h3.04v-.19c-.77-.1-.85-.15-.85-.58 0-.12.03-.25.14-.7l.7-2.55.82.07L5.22 0h1.84ZM3.83-7.27c.08-.25.25-.34.64-.34q1.55-.01 1.55 1.4Q6-4.44 3.66-4.42a3 3 0 0 1-.63-.06Zm0 0"/>
    <path id="x" d="M7.06-.19c-.54-.04-.8-.25-1.03-.89L4.87-4.06c.96-.2 1.36-.38 1.82-.77q.62-.55.64-1.39c0-1.12-.92-1.75-2.6-1.75H1.64v.19c.53.08.6.1.72.17.1.06.17.22.17.34q0 .25-.15.79L.84-1.1c-.21.72-.3.78-1 .9V0h3.04v-.19c-.77-.1-.85-.15-.85-.58 0-.12.03-.25.14-.7l.7-2.55.82.07L5.22 0h1.84ZM3.83-7.27c.08-.25.25-.34.64-.34q1.55-.01 1.55 1.4Q6-4.44 3.66-4.42a3 3 0 0 1-.63-.06Zm0 0"/>
    <path id="y" d="M7.06-.19c-.54-.04-.8-.25-1.03-.89L4.87-4.06c.96-.2 1.36-.38 1.82-.77q.62-.55.64-1.39c0-1.12-.92-1.75-2.6-1.75H1.64v.19c.53.08.6.1.72.17.1.06.17.22.17.34q0 .25-.15.79L.84-1.1c-.21.72-.3.78-1 .9V0h3.04v-.19c-.77-.1-.85-.15-.85-.58 0-.12.03-.25.14-.7l.7-2.55.82.07L5.22 0h1.84ZM3.83-7.27c.08-.25.25-.34.64-.34q1.55-.01 1.55 1.4Q6-4.44 3.66-4.42a3 3 0 0 1-.63-.06Zm0 0"/>
    <path id="z" d="M7.06-.2c-.54-.03-.8-.24-1.03-.88l-1.16-3c.96-.2 1.36-.37 1.82-.76q.62-.56.64-1.4C7.33-7.36 6.4-8 4.73-8H1.64v.2c.53.07.6.08.72.17.1.05.17.2.17.35s-.06.44-.15.76L.84-1.1c-.21.74-.3.8-1 .9V0h3.04v-.2c-.77-.1-.85-.14-.85-.57 0-.12.03-.25.14-.7l.7-2.56.82.06L5.22 0h1.84ZM3.83-7.28c.08-.27.25-.34.64-.34q1.55 0 1.55 1.37Q6-4.43 3.66-4.42c-.22 0-.32-.02-.63-.06Zm0 0"/>
    <path id="A" d="M7.06-.2c-.54-.03-.8-.24-1.03-.88l-1.16-3c.96-.2 1.36-.37 1.82-.76q.62-.56.64-1.4C7.33-7.36 6.4-8 4.73-8H1.64v.2c.53.07.6.08.72.17.1.05.17.2.17.35s-.06.44-.15.76L.84-1.1c-.21.74-.3.8-1 .9V0h3.04v-.2c-.77-.1-.85-.14-.85-.57 0-.12.03-.25.14-.7l.7-2.56.82.06L5.22 0h1.84ZM3.83-7.28c.08-.27.25-.34.64-.34q1.55 0 1.55 1.37Q6-4.43 3.66-4.42c-.22 0-.32-.02-.63-.06Zm0 0"/>
    <path id="B" d="M7.06-.19c-.54-.04-.8-.25-1.03-.89L4.87-4.06c.96-.2 1.36-.38 1.82-.77q.62-.55.64-1.39c0-1.12-.92-1.75-2.6-1.75H1.64v.19c.53.08.6.1.72.17.1.06.17.22.17.34q0 .25-.15.79L.84-1.1c-.21.72-.3.78-1 .9V0h3.04v-.19c-.77-.1-.85-.15-.85-.58 0-.12.03-.25.14-.7l.7-2.55.82.07L5.22 0h1.84ZM3.83-7.27c.08-.25.25-.34.64-.34q1.55-.01 1.55 1.4Q6-4.44 3.66-4.42a3 3 0 0 1-.63-.06Zm0 0"/>
    <path id="C" d="M7.06-.19c-.54-.04-.8-.25-1.03-.89L4.87-4.06c.96-.2 1.36-.38 1.82-.77q.62-.55.64-1.39c0-1.12-.92-1.75-2.6-1.75H1.64v.19c.53.08.6.1.72.17.1.06.17.22.17.34q0 .25-.15.79L.84-1.1c-.21.72-.3.78-1 .9V0h3.04v-.19c-.77-.1-.85-.15-.85-.58 0-.12.03-.25.14-.7l.7-2.55.82.07L5.22 0h1.84ZM3.83-7.27c.08-.25.25-.34.64-.34q1.55-.01 1.55 1.4Q6-4.44 3.66-4.42a3 3 0 0 1-.63-.06Zm0 0"/>
    <path id="D" d="M7.06-.2c-.54-.03-.8-.24-1.03-.88l-1.16-3c.96-.2 1.36-.37 1.82-.76q.62-.56.64-1.4C7.33-7.36 6.4-8 4.73-8H1.64v.2c.53.07.6.08.72.17.1.05.17.2.17.35s-.06.44-.15.76L.84-1.1c-.21.74-.3.8-1 .9V0h3.04v-.2c-.77-.1-.85-.14-.85-.57 0-.12.03-.25.14-.7l.7-2.56.82.06L5.22 0h1.84ZM3.83-7.28c.08-.27.25-.34.64-.34q1.55 0 1.55 1.37Q6-4.43 3.66-4.42c-.22 0-.32-.02-.63-.06Zm0 0"/>
    <path id="E" d="M7.06-.19c-.54-.04-.8-.25-1.03-.87L4.87-4.05c.96-.2 1.36-.37 1.82-.76q.62-.55.64-1.38c0-1.12-.92-1.75-2.6-1.75H1.64v.19c.53.08.6.1.72.17.1.06.17.22.17.35 0 .14-.06.43-.15.76L.84-1.09c-.21.72-.3.8-1 .9V0h3.04v-.19c-.77-.1-.85-.15-.85-.58 0-.12.03-.25.14-.68L2.87-4l.82.06L5.22 0h1.84ZM3.83-7.23c.08-.25.25-.35.64-.35q1.55 0 1.55 1.38Q6-4.42 3.66-4.4c-.22 0-.32 0-.63-.05Zm0 0"/>
    <path id="F" d="m6.42-8.3-.64 6.75-.05.63q0 .23.1.36.13.17.31.26.2.08.67.08L6.75 0H3.5l.06-.22h.14q.4 0 .64-.17.19-.1.29-.38.05-.18.12-.87l.1-1.03H2.47l-.84 1.12q-.28.38-.36.55-.06.15-.06.3 0 .18.16.32.15.15.51.16L1.83 0H-.61l.06-.22q.45 0 .8-.3Q.59-.8 1.28-1.7L6.2-8.3Zm-1.2 2-2.4 3.2H4.9Zm0 0"/>
    <path id="G" d="M2.03-8.05h5.8l-.63 2.1h-.23q.08-.37.08-.7 0-.4-.17-.63a.7.7 0 0 0-.46-.3 6 6 0 0 0-1.1-.06H4.06L3.1-4.47h.83q1.06 0 1.6.22.53.23.86.73.34.5.34 1.1 0 .7-.5 1.34t-1.2.86Q4.3 0 3.32 0H-.35l.06-.22q.68 0 .9-.22.26-.2.53-1.04l1.43-4.8q.24-.8.24-1.08 0-.25-.2-.34a2 2 0 0 0-.63-.13Zm-.1 7.53q.47.08 1.04.08 1.28 0 1.87-.62.61-.62.61-1.4 0-.51-.3-.9a1.4 1.4 0 0 0-.71-.53q-.45-.16-1.17-.16h-.29Zm0 0"/>
    <path id="H" d="M7.06-.2c-.54-.03-.8-.24-1.03-.88l-1.16-3c.96-.2 1.36-.37 1.82-.76q.62-.56.64-1.4C7.33-7.36 6.4-8 4.73-8H1.64v.2c.53.07.6.08.72.17.1.05.17.2.17.35s-.06.44-.15.76L.84-1.1c-.21.74-.3.8-1 .9V0h3.04v-.2c-.77-.1-.85-.14-.85-.57 0-.12.03-.25.14-.7l.7-2.56.82.06L5.22 0h1.84ZM3.83-7.28c.08-.27.25-.34.64-.34q1.55 0 1.55 1.37Q6-4.43 3.66-4.42c-.22 0-.32-.02-.63-.06Zm0 0"/>
    <path id="I" d="M7.5-.2c-.58-.05-.84-.27-1.1-.94l-1.23-3.2c1.02-.22 1.46-.41 1.94-.83q.66-.58.67-1.47c0-1.22-.98-1.88-2.75-1.88H1.75v.2c.55.09.63.1.75.2.1.06.19.21.19.35 0 .16-.06.47-.16.83L.91-1.17C.66-.41.56-.33-.17-.2V0h3.23v-.2c-.83-.11-.9-.16-.9-.63 0-.12.03-.25.15-.73l.75-2.74.86.07L5.55 0H7.5ZM4.08-7.77c.08-.26.25-.36.67-.36q1.64 0 1.64 1.47 0 1.95-2.5 1.96c-.23 0-.34-.02-.67-.08Zm0 0"/>
    <path id="J" d="M7.1-.19c-.57-.04-.82-.25-1.05-.89L4.89-4.06c.95-.2 1.38-.38 1.83-.77q.61-.55.62-1.39c0-1.12-.92-1.75-2.59-1.75h-3.1v.19c.52.08.58.1.7.17.12.06.18.22.18.34q-.01.25-.14.79L.84-1.1c-.21.72-.3.78-1 .9V0H2.9v-.19c-.78-.1-.86-.15-.86-.58 0-.12.03-.25.16-.7l.7-2.55.81.07L5.23 0H7.1ZM3.83-7.27c.08-.25.25-.34.64-.34q1.56-.01 1.55 1.4-.01 1.78-2.36 1.8a3 3 0 0 1-.64-.06Zm0 0"/>
    <path id="K" d="M7.1-.19c-.57-.04-.82-.25-1.05-.87L4.89-4.05c.95-.2 1.38-.37 1.83-.76q.61-.55.62-1.38c0-1.12-.92-1.75-2.59-1.75h-3.1v.19c.52.08.58.1.7.17.12.06.18.22.18.35 0 .14-.06.43-.14.76L.84-1.09c-.21.72-.3.8-1 .9V0H2.9v-.19c-.78-.1-.86-.15-.86-.58 0-.12.03-.25.16-.68L2.89-4l.81.06L5.23 0H7.1ZM3.83-7.23c.08-.25.25-.35.64-.35q1.56 0 1.55 1.38-.01 1.78-2.36 1.8c-.22 0-.33 0-.64-.05Zm0 0"/>
    <path id="L" d="M7.5-.2c-.58-.05-.84-.27-1.1-.94l-1.23-3.2c1.02-.22 1.46-.41 1.94-.83q.66-.58.67-1.47c0-1.22-.98-1.88-2.75-1.88H1.75v.2c.55.09.63.1.75.2.1.06.19.21.19.35 0 .16-.06.47-.16.83L.91-1.17C.66-.41.56-.33-.17-.2V0h3.23v-.2c-.83-.11-.9-.16-.9-.63 0-.12.03-.25.15-.73l.75-2.74.86.07L5.55 0H7.5ZM4.08-7.77c.08-.26.25-.36.67-.36q1.64 0 1.64 1.47 0 1.95-2.5 1.96c-.23 0-.34-.02-.67-.08Zm0 0"/>
    <path id="M" d="M7.06-.2c-.54-.03-.8-.24-1.03-.88l-1.16-3c.96-.2 1.36-.37 1.82-.76q.62-.56.64-1.4C7.33-7.36 6.4-8 4.73-8H1.64v.2c.53.07.6.08.72.17.1.05.17.2.17.35s-.06.44-.15.76L.84-1.1c-.21.74-.3.8-1 .9V0h3.04v-.2c-.77-.1-.85-.14-.85-.57 0-.12.03-.25.14-.7l.7-2.56.82.06L5.22 0h1.84ZM3.83-7.28c.08-.27.25-.34.64-.34q1.55 0 1.55 1.37Q6-4.43 3.66-4.42c-.22 0-.32-.02-.63-.06Zm0 0"/>
    <path id="N" d="M7.06-.19c-.54-.04-.8-.25-1.03-.89L4.87-4.06c.96-.2 1.36-.38 1.82-.77q.62-.55.64-1.39c0-1.12-.92-1.75-2.6-1.75H1.64v.19c.53.08.6.1.72.17.1.06.17.22.17.34q0 .25-.15.79L.84-1.1c-.21.72-.3.78-1 .9V0h3.04v-.19c-.77-.1-.85-.15-.85-.58 0-.12.03-.25.14-.7l.7-2.55.82.07L5.22 0h1.84ZM3.83-7.27c.08-.25.25-.34.64-.34q1.55-.01 1.55 1.4Q6-4.44 3.66-4.42a3 3 0 0 1-.63-.06Zm0 0"/>
    <path id="O" d="M7.06-.19c-.54-.04-.8-.25-1.03-.89L4.87-4.06c.96-.2 1.36-.38 1.82-.77q.62-.55.64-1.39c0-1.12-.92-1.75-2.6-1.75H1.64v.19c.53.08.6.1.72.17.1.06.17.22.17.34q0 .25-.15.79L.84-1.1c-.21.72-.3.78-1 .9V0h3.04v-.19c-.77-.1-.85-.15-.85-.58 0-.12.03-.25.14-.7l.7-2.55.82.07L5.22 0h1.84ZM3.83-7.27c.08-.25.25-.34.64-.34q1.55-.01 1.55 1.4Q6-4.44 3.66-4.42a3 3 0 0 1-.63-.06Zm0 0"/>
    <path id="P" d="M7.06-.19c-.54-.04-.8-.25-1.03-.89L4.87-4.06c.96-.2 1.36-.38 1.82-.77q.62-.55.64-1.39c0-1.12-.92-1.75-2.6-1.75H1.64v.19c.53.08.6.1.72.17.1.06.17.22.17.34q0 .25-.15.79L.84-1.1c-.21.72-.3.78-1 .9V0h3.04v-.19c-.77-.1-.85-.15-.85-.58 0-.12.03-.25.14-.7l.7-2.55.82.07L5.22 0h1.84ZM3.83-7.27c.08-.25.25-.34.64-.34q1.55-.01 1.55 1.4Q6-4.44 3.66-4.42a3 3 0 0 1-.63-.06Zm0 0"/>
    <path id="Q" d="M7.06-.2c-.54-.03-.8-.24-1.03-.88l-1.16-3c.96-.2 1.36-.37 1.82-.76q.62-.56.64-1.4C7.33-7.36 6.4-8 4.73-8H1.64v.2c.53.07.6.08.72.17.1.05.17.2.17.35s-.06.44-.15.76L.84-1.1c-.21.74-.3.8-1 .9V0h3.04v-.2c-.77-.1-.85-.14-.85-.57 0-.12.03-.25.14-.7l.7-2.56.82.06L5.22 0h1.84ZM3.83-7.28c.08-.27.25-.34.64-.34q1.55 0 1.55 1.37Q6-4.43 3.66-4.42c-.22 0-.32-.02-.63-.06Zm0 0"/>
    <path id="R" d="M7.06-.19c-.54-.04-.8-.25-1.03-.89L4.87-4.06c.96-.2 1.36-.38 1.82-.77q.62-.55.64-1.39c0-1.12-.92-1.75-2.6-1.75H1.64v.19c.53.08.6.1.72.17.1.06.17.22.17.34q0 .25-.15.79L.84-1.1c-.21.72-.3.78-1 .9V0h3.04v-.19c-.77-.1-.85-.15-.85-.58 0-.12.03-.25.14-.7l.7-2.55.82.07L5.22 0h1.84ZM3.83-7.27c.08-.25.25-.34.64-.34q1.55-.01 1.55 1.4Q6-4.44 3.66-4.42a3 3 0 0 1-.63-.06Zm0 0"/>
    <path id="S" d="M7.06-.19c-.54-.04-.8-.25-1.03-.89L4.87-4.06c.96-.2 1.36-.38 1.82-.77q.62-.55.64-1.39c0-1.12-.92-1.75-2.6-1.75H1.64v.19c.53.08.6.1.72.17.1.06.17.22.17.34q0 .25-.15.79L.84-1.1c-.21.72-.3.78-1 .9V0h3.04v-.19c-.77-.1-.85-.15-.85-.58 0-.12.03-.25.14-.7l.7-2.55.82.07L5.22 0h1.84ZM3.83-7.27c.08-.25.25-.34.64-.34q1.55-.01 1.55 1.4Q6-4.44 3.66-4.42a3 3 0 0 1-.63-.06Zm0 0"/>
    <path id="T" d="M7.06-.19c-.54-.04-.8-.25-1.03-.89L4.87-4.06c.96-.2 1.36-.38 1.82-.77q.62-.55.64-1.39c0-1.12-.92-1.75-2.6-1.75H1.64v.19c.53.08.6.1.72.17.1.06.17.22.17.34q0 .25-.15.79L.84-1.1c-.21.72-.3.78-1 .9V0h3.04v-.19c-.77-.1-.85-.15-.85-.58 0-.12.03-.25.14-.7l.7-2.55.82.07L5.22 0h1.84ZM3.83-7.27c.08-.25.25-.34.64-.34q1.55-.01 1.55 1.4Q6-4.44 3.66-4.42a3 3 0 0 1-.63-.06Zm0 0"/>
    <path id="U" d="M7.06-.19c-.54-.04-.8-.25-1.03-.87L4.87-4.05c.96-.2 1.36-.37 1.82-.76q.62-.55.64-1.38c0-1.12-.92-1.75-2.6-1.75H1.64v.19c.53.08.6.1.72.17.1.06.17.22.17.35 0 .14-.06.43-.15.76L.84-1.09c-.21.72-.3.8-1 .9V0h3.04v-.19c-.77-.1-.85-.15-.85-.58 0-.12.03-.25.14-.68L2.87-4l.82.06L5.22 0h1.84ZM3.83-7.23c.08-.25.25-.35.64-.35q1.55 0 1.55 1.38Q6-4.42 3.66-4.4c-.22 0-.32 0-.63-.05Zm0 0"/>
    <path id="V" d="M7.06-.19c-.54-.04-.8-.25-1.03-.89L4.87-4.06c.96-.2 1.36-.38 1.82-.77q.62-.55.64-1.39c0-1.12-.92-1.75-2.6-1.75H1.64v.19c.53.08.6.1.72.17.1.06.17.22.17.34q0 .25-.15.79L.84-1.1c-.21.72-.3.78-1 .9V0h3.04v-.19c-.77-.1-.85-.15-.85-.58 0-.12.03-.25.14-.7l.7-2.55.82.07L5.22 0h1.84ZM3.83-7.27c.08-.25.25-.34.64-.34q1.55-.01 1.55 1.4Q6-4.44 3.66-4.42a3 3 0 0 1-.63-.06Zm0 0"/>
    <path id="W" d="m6.42-8.3-.64 6.75-.05.63q0 .23.1.36.13.17.31.26.2.08.67.08L6.75 0H3.5l.06-.22h.14q.4 0 .64-.17.19-.1.29-.38.05-.18.12-.87l.1-1.03H2.47l-.84 1.12q-.28.38-.36.55-.06.15-.06.3 0 .18.16.32.15.15.51.16L1.83 0H-.61l.06-.22q.45 0 .8-.3Q.59-.8 1.28-1.7L6.2-8.3Zm-1.2 2-2.4 3.2H4.9Zm0 0"/>
    <path id="X" d="M7.06-.2c-.54-.03-.8-.24-1.03-.88l-1.16-3c.96-.2 1.36-.37 1.82-.76q.62-.56.64-1.4C7.33-7.36 6.4-8 4.73-8H1.64v.2c.53.07.6.08.72.17.1.05.17.2.17.35s-.06.44-.15.76L.84-1.1c-.21.74-.3.8-1 .9V0h3.04v-.2c-.77-.1-.85-.14-.85-.57 0-.12.03-.25.14-.7l.7-2.56.82.06L5.22 0h1.84ZM3.83-7.28c.08-.27.25-.34.64-.34q1.55 0 1.55 1.37Q6-4.43 3.66-4.42c-.22 0-.32-.02-.63-.06Zm0 0"/>
    <path id="Y" d="M7.5-.2c-.58-.05-.84-.27-1.1-.94l-1.23-3.2c1.02-.22 1.46-.41 1.94-.83q.66-.58.67-1.47c0-1.22-.98-1.88-2.75-1.88H1.75v.2c.55.09.63.1.75.2.1.06.19.21.19.35 0 .16-.06.47-.16.83L.91-1.17C.66-.41.56-.33-.17-.2V0h3.23v-.2c-.83-.11-.9-.16-.9-.63 0-.12.03-.25.15-.73l.75-2.74.86.07L5.55 0H7.5ZM4.08-7.77c.08-.26.25-.36.67-.36q1.64 0 1.64 1.47 0 1.95-2.5 1.96c-.23 0-.34-.02-.67-.08Zm0 0"/>
    <path id="Z" d="M7.1-.19c-.57-.04-.82-.25-1.05-.89L4.89-4.06c.95-.2 1.38-.38 1.83-.77q.61-.55.62-1.39c0-1.12-.92-1.75-2.59-1.75h-3.1v.19c.52.08.58.1.7.17.12.06.18.22.18.34q-.01.25-.14.79L.84-1.1c-.21.72-.3.78-1 .9V0H2.9v-.19c-.78-.1-.86-.15-.86-.58 0-.12.03-.25.16-.7l.7-2.55.81.07L5.23 0H7.1ZM3.83-7.27c.08-.25.25-.34.64-.34q1.56-.01 1.55 1.4-.01 1.78-2.36 1.8a3 3 0 0 1-.64-.06Zm0 0"/>
    <path id="aa" d="M7.1-.19c-.57-.04-.82-.25-1.05-.87L4.89-4.05c.95-.2 1.38-.37 1.83-.76q.61-.55.62-1.38c0-1.12-.92-1.75-2.59-1.75h-3.1v.19c.52.08.58.1.7.17.12.06.18.22.18.35 0 .14-.06.43-.14.76L.84-1.09c-.21.72-.3.8-1 .9V0H2.9v-.19c-.78-.1-.86-.15-.86-.58 0-.12.03-.25.16-.68L2.89-4l.81.06L5.23 0H7.1ZM3.83-7.23c.08-.25.25-.35.64-.35q1.56 0 1.55 1.38-.01 1.78-2.36 1.8c-.22 0-.33 0-.64-.05Zm0 0"/>
    <path id="ab" d="M7.5-.2c-.58-.05-.84-.27-1.1-.94l-1.23-3.2c1.02-.22 1.46-.41 1.94-.83q.66-.58.67-1.47c0-1.22-.98-1.88-2.75-1.88H1.75v.2c.55.09.63.1.75.2.1.06.19.21.19.35 0 .16-.06.47-.16.83L.91-1.17C.66-.41.56-.33-.17-.2V0h3.23v-.2c-.83-.11-.9-.16-.9-.63 0-.12.03-.25.15-.73l.75-2.74.86.07L5.55 0H7.5ZM4.08-7.77c.08-.26.25-.36.67-.36q1.64 0 1.64 1.47 0 1.95-2.5 1.96c-.23 0-.34-.02-.67-.08Zm0 0"/>
    <path id="ac" d="M7.03-.19c-.55-.04-.8-.25-1.03-.89L4.84-4.06c.97-.2 1.38-.38 1.82-.77q.63-.55.64-1.39c0-1.12-.92-1.75-2.58-1.75H1.64v.19c.52.08.58.1.7.17.1.06.18.22.18.34q-.01.25-.15.79L.85-1.1c-.21.72-.3.78-1 .9V0h3.02v-.19c-.77-.1-.84-.15-.84-.58 0-.12.03-.25.15-.7l.69-2.55.81.07L5.2 0h1.83Zm-3.2-7.08c.06-.25.23-.34.62-.34Q6-7.62 6-6.2q-.01 1.78-2.36 1.8c-.22 0-.31-.01-.62-.06Zm0 0"/>
    <path id="ad" d="M7.06-.19c-.54-.04-.8-.25-1.03-.89L4.87-4.06c.96-.2 1.36-.38 1.82-.77q.62-.55.64-1.39c0-1.12-.92-1.75-2.6-1.75H1.64v.19c.53.08.6.1.72.17.1.06.17.22.17.34q0 .25-.15.79L.84-1.1c-.21.72-.3.78-1 .9V0h3.04v-.19c-.77-.1-.85-.15-.85-.58 0-.12.03-.25.14-.7l.7-2.55.82.07L5.22 0h1.84ZM3.83-7.27c.08-.25.25-.34.64-.34q1.55-.01 1.55 1.4Q6-4.44 3.66-4.42a3 3 0 0 1-.63-.06Zm0 0"/>
    <path id="ae" d="M7.1-.19c-.57-.04-.82-.25-1.05-.89L4.89-4.06c.95-.2 1.38-.38 1.83-.77q.61-.55.62-1.39c0-1.12-.92-1.75-2.59-1.75h-3.1v.19c.52.08.58.1.7.17.12.06.18.22.18.34q-.01.25-.14.79L.84-1.1c-.21.72-.3.78-1 .9V0H2.9v-.19c-.78-.1-.86-.15-.86-.58 0-.12.03-.25.16-.7l.7-2.55.81.07L5.23 0H7.1ZM3.83-7.27c.08-.25.25-.34.64-.34q1.56-.01 1.55 1.4-.01 1.78-2.36 1.8a3 3 0 0 1-.64-.06Zm0 0"/>
    <path id="af" d="M7.06-.19c-.54-.04-.8-.25-1.03-.87L4.87-4.05c.96-.2 1.36-.37 1.82-.76q.62-.55.64-1.38c0-1.12-.92-1.75-2.6-1.75H1.64v.19c.53.08.6.1.72.17.1.06.17.22.17.35 0 .14-.06.43-.15.76L.84-1.09c-.21.72-.3.8-1 .9V0h3.04v-.19c-.77-.1-.85-.15-.85-.58 0-.12.03-.25.14-.68L2.87-4l.82.06L5.22 0h1.84ZM3.83-7.23c.08-.25.25-.35.64-.35q1.55 0 1.55 1.38Q6-4.42 3.66-4.4c-.22 0-.32 0-.63-.05Zm0 0"/>
    <path id="ag" d="M7.03-.19c-.55-.04-.8-.25-1.03-.87L4.84-4.05c.97-.2 1.38-.37 1.82-.76q.63-.55.64-1.38c0-1.12-.92-1.75-2.58-1.75H1.64v.19c.52.08.58.1.7.17.1.06.18.22.18.35 0 .14-.07.43-.15.76L.85-1.09c-.21.72-.3.8-1 .9V0h3.02v-.19c-.77-.1-.84-.15-.84-.58 0-.12.03-.25.15-.68L2.86-4l.81.06L5.2 0h1.83Zm-3.2-7.04c.06-.25.23-.35.62-.35Q6-7.58 6-6.2q-.01 1.78-2.36 1.8c-.22 0-.31 0-.62-.05Zm0 0"/>
    <path id="ah" d="M7.1-.19c-.57-.04-.82-.25-1.05-.89L4.89-4.06c.95-.2 1.38-.38 1.83-.77q.61-.55.62-1.39c0-1.12-.92-1.75-2.59-1.75h-3.1v.19c.52.08.58.1.7.17.12.06.18.22.18.34q-.01.25-.14.79L.84-1.1c-.21.72-.3.78-1 .9V0H2.9v-.19c-.78-.1-.86-.15-.86-.58 0-.12.03-.25.16-.7l.7-2.55.81.07L5.23 0H7.1ZM3.83-7.27c.08-.25.25-.34.64-.34q1.56-.01 1.55 1.4-.01 1.78-2.36 1.8a3 3 0 0 1-.64-.06Zm0 0"/>
    <path id="ai" d="M7.1-.2c-.57-.03-.82-.24-1.05-.88l-1.16-3c.95-.2 1.38-.37 1.83-.76q.61-.56.62-1.4C7.34-7.36 6.42-8 4.75-8h-3.1v.2c.52.07.58.08.7.17.12.05.18.2.18.35s-.06.44-.14.76L.84-1.1c-.21.74-.3.8-1 .9V0H2.9v-.2c-.78-.1-.86-.14-.86-.57 0-.12.03-.25.16-.7l.7-2.56.81.06L5.23 0H7.1ZM3.83-7.28c.08-.27.25-.34.64-.34q1.56 0 1.55 1.37-.01 1.82-2.36 1.83c-.22 0-.33-.02-.64-.06Zm0 0"/>
    <path id="aj" d="M7.03-.19c-.55-.04-.8-.25-1.03-.89L4.84-4.06c.97-.2 1.38-.38 1.82-.77q.63-.55.64-1.39c0-1.12-.92-1.75-2.58-1.75H1.64v.19c.52.08.58.1.7.17.1.06.18.22.18.34q-.01.25-.15.79L.85-1.1c-.21.72-.3.78-1 .9V0h3.02v-.19c-.77-.1-.84-.15-.84-.58 0-.12.03-.25.15-.7l.69-2.55.81.07L5.2 0h1.83Zm-3.2-7.08c.06-.25.23-.34.62-.34Q6-7.62 6-6.2q-.01 1.78-2.36 1.8c-.22 0-.31-.01-.62-.06Zm0 0"/>
    <path id="ak" d="M7.06-.19c-.54-.04-.8-.25-1.03-.89L4.87-4.06c.96-.2 1.36-.38 1.82-.77q.62-.55.64-1.39c0-1.12-.92-1.75-2.6-1.75H1.64v.19c.53.08.6.1.72.17.1.06.17.22.17.34q0 .25-.15.79L.84-1.1c-.21.72-.3.78-1 .9V0h3.04v-.19c-.77-.1-.85-.15-.85-.58 0-.12.03-.25.14-.7l.7-2.55.82.07L5.22 0h1.84ZM3.83-7.27c.08-.25.25-.34.64-.34q1.55-.01 1.55 1.4Q6-4.44 3.66-4.42a3 3 0 0 1-.63-.06Zm0 0"/>
    <path id="al" d="M7.03-.19c-.55-.04-.8-.25-1.03-.89L4.84-4.06c.97-.2 1.38-.38 1.82-.77q.63-.55.64-1.39c0-1.12-.92-1.75-2.58-1.75H1.64v.19c.52.08.58.1.7.17.1.06.18.22.18.34q-.01.25-.15.79L.85-1.1c-.21.72-.3.78-1 .9V0h3.02v-.19c-.77-.1-.84-.15-.84-.58 0-.12.03-.25.15-.7l.69-2.55.81.07L5.2 0h1.83Zm-3.2-7.08c.06-.25.23-.34.62-.34Q6-7.62 6-6.2q-.01 1.78-2.36 1.8c-.22 0-.31-.01-.62-.06Zm0 0"/>
    <path id="am" d="M7.1-.19c-.57-.04-.82-.25-1.05-.89L4.89-4.06c.95-.2 1.38-.38 1.83-.77q.61-.55.62-1.39c0-1.12-.92-1.75-2.59-1.75h-3.1v.19c.52.08.58.1.7.17.12.06.18.22.18.34q-.01.25-.14.79L.84-1.1c-.21.72-.3.78-1 .9V0H2.9v-.19c-.78-.1-.86-.15-.86-.58 0-.12.03-.25.16-.7l.7-2.55.81.07L5.23 0H7.1ZM3.83-7.27c.08-.25.25-.34.64-.34q1.56-.01 1.55 1.4-.01 1.78-2.36 1.8a3 3 0 0 1-.64-.06Zm0 0"/>
    <path id="an" d="M7.03-.19c-.55-.04-.8-.25-1.03-.87L4.84-4.05c.97-.2 1.38-.37 1.82-.76q.63-.55.64-1.38c0-1.12-.92-1.75-2.58-1.75H1.64v.19c.52.08.58.1.7.17.1.06.18.22.18.35 0 .14-.07.43-.15.76L.85-1.09c-.21.72-.3.8-1 .9V0h3.02v-.19c-.77-.1-.84-.15-.84-.58 0-.12.03-.25.15-.68L2.86-4l.81.06L5.2 0h1.83Zm-3.2-7.04c.06-.25.23-.35.62-.35Q6-7.58 6-6.2q-.01 1.78-2.36 1.8c-.22 0-.31 0-.62-.05Zm0 0"/>
    <path id="ao" d="M7.06-.2c-.54-.03-.8-.24-1.03-.88l-1.16-3c.96-.2 1.36-.37 1.82-.76q.62-.56.64-1.4C7.33-7.36 6.4-8 4.73-8H1.64v.2c.53.07.6.08.72.17.1.05.17.2.17.35s-.06.44-.15.76L.84-1.1c-.21.74-.3.8-1 .9V0h3.04v-.2c-.77-.1-.85-.14-.85-.57 0-.12.03-.25.14-.7l.7-2.56.82.06L5.22 0h1.84ZM3.83-7.28c.08-.27.25-.34.64-.34q1.55 0 1.55 1.37Q6-4.43 3.66-4.42c-.22 0-.32-.02-.63-.06Zm0 0"/>
    <path id="ap" d="M7.1-.19c-.57-.04-.82-.25-1.05-.89L4.89-4.06c.95-.2 1.38-.38 1.83-.77q.61-.55.62-1.39c0-1.12-.92-1.75-2.59-1.75h-3.1v.19c.52.08.58.1.7.17.12.06.18.22.18.34q-.01.25-.14.79L.84-1.1c-.21.72-.3.78-1 .9V0H2.9v-.19c-.78-.1-.86-.15-.86-.58 0-.12.03-.25.16-.7l.7-2.55.81.07L5.23 0H7.1ZM3.83-7.27c.08-.25.25-.34.64-.34q1.56-.01 1.55 1.4-.01 1.78-2.36 1.8a3 3 0 0 1-.64-.06Zm0 0"/>
    <path id="aq" d="M2.03-8.08h5.83l-.63 2.11H7q.06-.4.06-.7a1 1 0 0 0-.17-.63.7.7 0 0 0-.44-.3 5 5 0 0 0-1.1-.07h-1.3L3.1-4.48h.83q1.06 0 1.6.21.52.23.87.74.34.5.34 1.1 0 .69-.5 1.35-.5.65-1.22.86Q4.31 0 3.34 0h-3.7l.06-.22q.68 0 .9-.22.26-.2.53-1.04L2.58-6.3q.23-.81.23-1.08 0-.26-.19-.35a2 2 0 0 0-.65-.13Zm-.1 7.55q.48.1 1.05.1 1.29 0 1.88-.63.6-.62.6-1.4 0-.51-.29-.9a1.4 1.4 0 0 0-.72-.55q-.43-.15-1.18-.15H3Zm0 0"/>
    <path id="ar" d="m8.83-9.98-.88 8.12-.06.75q0 .29.13.44.15.2.42.31.28.1.92.1l-.1.26H4.82l.1-.27h.18q.55 0 .9-.2.23-.14.37-.45.1-.23.17-1.05l.14-1.23H3.42L2.27-1.86q-.4.45-.5.66a1 1 0 0 0-.1.36q0 .23.22.4.22.16.72.17L2.5 0H-.83l.09-.27q.63 0 1.1-.34.46-.34 1.4-1.44l6.78-7.93Zm-1.66 2.4-3.3 3.85h2.86Zm0 0"/>
    <clipPath id="n">
      <path d="M299 498h17v8.7h-17Zm0 0"/>
    </clipPath>
    <clipPath id="o">
      <path d="M313 495h23v11.7h-23Zm0 0"/>
    </clipPath>
  </defs>
  <use xlink:href="#dP" x="44.95" y="342.82"/>
  <use xlink:href="#dd" x="44.95" y="652"/>
  <use xlink:href="#a" x="98.91" y="720.92"/>
  <use xlink:href="#b" x="108.5" y="720.92"/>
  <use xlink:href="#c" x="114.49" y="720.92"/>
  <use xlink:href="#g" x="119.17" y="720.92"/>
  <use xlink:href="#h" x="124.44" y="720.92"/>
  <use xlink:href="#i" x="130.44" y="720.92"/>
  <use xlink:href="#dW" x="136.43" y="720.92"/>
  <use xlink:href="#j" x="139.42" y="720.92"/>
  <use xlink:href="#dP" x="145.41" y="720.92"/>
  <use xlink:href="#k" x="148.41" y="720.92"/>
  <use xlink:href="#l" x="154.4" y="720.92"/>
  <use xlink:href="#a" x="403.32" y="720.92"/>
  <use xlink:href="#b" x="412.91" y="720.92"/>
  <use xlink:href="#c" x="418.9" y="720.92"/>
  <use xlink:href="#g" x="423.58" y="720.92"/>
  <use xlink:href="#h" x="428.85" y="720.92"/>
  <use xlink:href="#i" x="434.84" y="720.92"/>
  <use xlink:href="#dW" x="440.84" y="720.92"/>
  <use xlink:href="#j" x="443.83" y="720.92"/>
  <use xlink:href="#dP" x="449.83" y="720.92"/>
  <use xlink:href="#m" x="452.82" y="720.92"/>
  <use xlink:href="#l" x="457.98" y="720.92"/>
  <use xlink:href="#eb" x="461.09" y="720.92"/>
  <use xlink:href="#eb" x="44.95" y="734.7"/>
  <use xlink:href="#a" x="289.54" y="504.06"/>
  <g clip-path="url(#n)">
    <use xlink:href="#b" x="299.13" y="504.06"/>
    <use xlink:href="#c" x="305.12" y="504.06"/>
    <use xlink:href="#g" x="309.8" y="504.06"/>
  </g>
  <g clip-path="url(#o)">
    <use xlink:href="#h" x="315.07" y="504.06"/>
    <use xlink:href="#i" x="321.06" y="504.06"/>
    <use xlink:href="#dW" x="327.06" y="504.06"/>
    <use xlink:href="#j" x="330.05" y="504.06"/>
  </g>
  <use xlink:href="#dP" x="336.05" y="504.06"/>
  <use xlink:href="#i" x="339.04" y="504.06"/>
  <use xlink:href="#l" x="345.04" y="504.06"/>
  <use xlink:href="#dP" x="348.03" y="504.06"/>
  <use xlink:href="#dP" x="351.15" y="504.06"/>
  <use xlink:href="#p" x="419.48" y="546.21"/>
  <use xlink:href="#q" x="419.36" y="619.36"/>
  <use xlink:href="#r" x="122.82" y="519.25"/>
  <path fill="none" stroke="#000" stroke-linejoin="round" stroke-miterlimit="10" stroke-width="2" d="m120.46 570.14-8.99 22.77"/>
  <use xlink:href="#s" x="83.74" y="586.39"/>
  <use xlink:href="#t" x="123.69" y="613.35"/>
  <use xlink:href="#u" x="119.7" y="563.38"/>
  <path fill="none" stroke="#000" stroke-linecap="round" stroke-linejoin="round" stroke-miterlimit="10" stroke-width="2.25" d="M444.84 594.76h-38.16l-19.07 33.05 19.07 33.13h38.16l19.08-33.13Zm0 0"/>
  <use xlink:href="#v" x="380.1" y="606.02"/>
  <use xlink:href="#w" x="406.47" y="572.76"/>
  <use xlink:href="#q" x="362.07" y="615.76"/>
  <use xlink:href="#w" x="349.59" y="604.62"/>
  <use xlink:href="#x" x="363.47" y="550.53"/>
  <use xlink:href="#v" x="381.55" y="536.65"/>
  <use xlink:href="#y" x="461.96" y="535.25"/>
  <use xlink:href="#z" x="420.36" y="583.89"/>
  <use xlink:href="#A" x="437.04" y="570"/>
  <use xlink:href="#y" x="478.64" y="550.53"/>
  <use xlink:href="#B" x="518.89" y="572.76"/>
  <use xlink:href="#C" x="523.04" y="619.9"/>
  <use xlink:href="#C" x="520.29" y="640.73"/>
  <use xlink:href="#w" x="438.43" y="697.62"/>
  <use xlink:href="#C" x="482.78" y="714.25"/>
  <use xlink:href="#D" x="520.29" y="692.11"/>
  <use xlink:href="#E" x="421.8" y="679.54"/>
  <use xlink:href="#q" x="364.87" y="712.85"/>
  <path fill="none" stroke="#000" stroke-linecap="round" stroke-linejoin="round" stroke-miterlimit="10" stroke-width="2.25" d="M444.84 528.19h-38.16l-19.07 33.05 19.07 33.12h38.16l19.08-33.12Zm0 0"/>
  <path fill="#fff" fill-rule="evenodd" stroke="#000" stroke-linecap="round" stroke-miterlimit="8" stroke-width="2.25" d="m385.75 569 13.6 22.54 9.5-5.73-13.61-22.53Zm56.95-33.26 13.57 22.5 9.5-5.74L452.2 530Zm-3.85-13.33-26.31.47.19 11.08 26.3-.46Zm0 66.63-26.31.46.19 11.09 26.3-.46Zm16.81-25.84-12.6 23.11 9.74 5.3 12.6-23.11Zm-56.94-34.71-12.6 23.11 9.75 5.3 12.6-23.1Zm0 0"/>
  <path fill="#fff" fill-rule="evenodd" stroke="#000" stroke-linecap="round" stroke-miterlimit="8" stroke-width="2.25" d="m438.85 588.99-26.31.46.19 11.09 26.3-.47Zm0 66.62-26.31.46.19 11.09 26.3-.46Zm0 0"/>
  <path fill="none" stroke="#000" stroke-linecap="round" stroke-linejoin="round" stroke-miterlimit="8" stroke-width="2.25" d="M387.92 561.5h-38.13l-19.07 33.03 19.07 33.1h38.13l19.06-33.1Zm0 0"/>
  <path fill="#fff" fill-rule="evenodd" stroke="#000" stroke-linecap="round" stroke-miterlimit="8" stroke-width="2.25" d="m328.87 602.31 13.58 22.5 9.5-5.74-13.58-22.5Zm56.89-33.26 13.57 22.5 9.5-5.74-13.57-22.5Zm-3.85-13.32-26.26.45.2 11.1 26.26-.47Zm0 66.57-26.26.46.2 11.09 26.26-.46Zm16.8-25.8-12.57 23.07 9.74 5.3 12.57-23.06Zm-56.87-34.7-12.6 23.11 9.74 5.3 12.6-23.1Zm0 0"/>
  <path fill="none" stroke="#000" stroke-linecap="round" stroke-linejoin="round" stroke-miterlimit="8" stroke-width="2.25" d="M387.92 628.02h-38.13l-19.07 33.05 19.07 33.13h38.13l19.06-33.13Zm0 0"/>
  <path fill="#fff" fill-rule="evenodd" stroke="#000" stroke-linecap="round" stroke-miterlimit="8" stroke-width="2.25" d="m328.86 668.84 13.6 22.53 9.5-5.72-13.6-22.54Zm56.9-33.27 13.57 22.5 9.5-5.73-13.57-22.5Zm-3.85-13.32-26.26.46.2 11.09 26.26-.46Zm0 66.63-26.26.45.2 11.1 26.26-.47Zm16.81-25.84-12.6 23.1 9.75 5.3 12.6-23.1Zm-56.88-34.72-12.6 23.12 9.74 5.3 12.6-23.11Zm0 0"/>
  <path fill="none" stroke="#000" stroke-linecap="round" stroke-linejoin="round" stroke-miterlimit="8" stroke-width="2.25" d="M501.73 562.85h-38.16l-19.08 33.03 19.08 33.1h38.16l19.07-33.1Zm0 0"/>
  <path fill="#fff" fill-rule="evenodd" stroke="#000" stroke-linecap="round" stroke-miterlimit="8" stroke-width="2.25" d="m442.64 603.66 13.58 22.5 9.5-5.74-13.58-22.49Zm56.94-33.26 13.57 22.5 9.5-5.74-13.57-22.5Zm-3.85-13.33-26.3.47.18 11.08 26.31-.46Zm0 66.58-26.3.46.18 11.09 26.31-.47Zm16.81-25.79-12.58 23.06 9.74 5.3 12.57-23.06Zm-56.94-34.71-12.58 23.11 9.73 5.3 12.6-23.1Zm0 0"/>
  <path fill="none" stroke="#000" stroke-linecap="round" stroke-linejoin="round" stroke-miterlimit="8" stroke-width="2.25" d="M501.73 629.42h-38.16l-19.08 33.05 19.08 33.13h38.16l19.07-33.13Zm0 0"/>
  <path fill="#fff" fill-rule="evenodd" stroke="#000" stroke-linecap="round" stroke-miterlimit="8" stroke-width="2.25" d="m442.63 670.23 13.6 22.54 9.5-5.72-13.6-22.54Zm56.95-33.26 13.57 22.5 9.5-5.74-13.57-22.5Zm-3.85-13.32-26.3.46.18 11.09 26.31-.47Zm0 66.62-26.3.46.18 11.09 26.31-.46Zm16.81-25.84-12.6 23.12 9.75 5.3 12.6-23.12Zm-56.94-34.71-12.58 23.12 9.73 5.3 12.6-23.11Zm0 0"/>
  <path fill="none" stroke="#000" stroke-linejoin="round" stroke-miterlimit="8" stroke-width="2" d="m386.2 628.22-13.88 30.52m107.03-66.78-33.36 2.8"/>
  <use xlink:href="#F" x="366.78" y="667.14"/>
  <use xlink:href="#G" x="482.78" y="593.54"/>
  <use xlink:href="#H" x="406.47" y="639.38"/>
  <use xlink:href="#I" x="320.61" y="570.74"/>
  <use xlink:href="#J" x="434.25" y="621.25"/>
  <use xlink:href="#K" x="435.6" y="637.89"/>
  <use xlink:href="#L" x="320.61" y="687.25"/>
  <use xlink:href="#L" x="320.61" y="638.71"/>
  <use xlink:href="#M" x="405.07" y="692.11"/>
  <path fill="none" stroke="#000" stroke-linecap="round" stroke-linejoin="round" stroke-miterlimit="8" stroke-width="2.25" d="M148.18 594.76h-38.16l-19.07 33.05 19.07 33.13h38.16l19.08-33.13Zm0 0"/>
  <use xlink:href="#x" x="83.44" y="606.02"/>
  <use xlink:href="#N" x="65.41" y="615.76"/>
  <use xlink:href="#O" x="52.92" y="604.62"/>
  <use xlink:href="#s" x="66.81" y="550.53"/>
  <use xlink:href="#s" x="84.89" y="536.65"/>
  <use xlink:href="#P" x="165.3" y="535.25"/>
  <use xlink:href="#Q" x="140.38" y="570"/>
  <use xlink:href="#P" x="181.98" y="550.53"/>
  <use xlink:href="#R" x="222.23" y="572.76"/>
  <use xlink:href="#S" x="226.38" y="619.9"/>
  <use xlink:href="#S" x="223.63" y="640.73"/>
  <use xlink:href="#T" x="141.77" y="697.57"/>
  <use xlink:href="#S" x="186.12" y="714.2"/>
  <use xlink:href="#t" x="223.63" y="692.07"/>
  <use xlink:href="#U" x="125.14" y="679.49"/>
  <use xlink:href="#V" x="68.21" y="712.8"/>
  <path fill="none" stroke="#000" stroke-linecap="round" stroke-linejoin="round" stroke-miterlimit="8" stroke-width="2.25" d="M148.18 528.19h-38.16l-19.07 33.05 19.07 33.12h38.16l19.08-33.12Zm0 0"/>
  <path fill="#fff" fill-rule="evenodd" stroke="#000" stroke-linecap="round" stroke-miterlimit="8" stroke-width="2.25" d="m89.09 569 13.6 22.54 9.5-5.73-13.6-22.53Zm56.94-33.26 13.58 22.5 9.5-5.74-13.58-22.5Zm-3.84-13.33-26.31.47.19 11.08 26.3-.46Zm0 66.63-26.31.46.19 11.09 26.3-.46ZM159 563.2l-12.6 23.11 9.74 5.3 12.6-23.11Zm-56.94-34.71L89.47 551.6l9.74 5.3 12.6-23.1Zm0 0"/>
  <path fill="#fff" fill-rule="evenodd" stroke="#000" stroke-linecap="round" stroke-miterlimit="8" stroke-width="2.25" d="m142.19 588.99-26.31.46.19 11.09 26.3-.47Zm0 66.57-26.31.46.19 11.09 26.3-.46Zm0 0"/>
  <path fill="none" stroke="#000" stroke-linecap="round" stroke-linejoin="round" stroke-miterlimit="8" stroke-width="2.25" d="M91.26 561.5H53.12l-19.06 33.03 19.06 33.1h38.14l19.06-33.1Zm0 0"/>
  <path fill="#fff" fill-rule="evenodd" stroke="#000" stroke-linecap="round" stroke-miterlimit="8" stroke-width="2.25" d="m32.21 602.31 13.58 22.5 9.5-5.74-13.58-22.5Zm56.89-33.26 13.57 22.5 9.5-5.74-13.58-22.5Zm-3.85-13.32-26.26.45.19 11.1 26.27-.47Zm0 66.57-26.26.46.19 11.09 26.27-.46Zm16.8-25.8-12.57 23.07 9.74 5.3 12.57-23.06Zm-56.87-34.7-12.6 23.11 9.74 5.3 12.6-23.1Zm0 0"/>
  <path fill="none" stroke="#000" stroke-linecap="round" stroke-linejoin="round" stroke-miterlimit="8" stroke-width="2.25" d="M91.26 628.02H53.12l-19.06 33.05 19.06 33.13h38.14l19.06-33.13Zm0 0"/>
  <path fill="#fff" fill-rule="evenodd" stroke="#000" stroke-linecap="round" stroke-miterlimit="8" stroke-width="2.25" d="m32.2 668.84 13.6 22.53 9.5-5.72-13.6-22.54Zm56.9-33.27 13.57 22.5 9.5-5.73-13.58-22.5Zm-3.85-13.32-26.26.46.19 11.09 26.27-.46Zm0 66.63-26.26.45.19 11.1 26.27-.47Zm16.81-25.84-12.59 23.1 9.74 5.3 12.6-23.1Zm-56.88-34.72-12.6 23.12 9.74 5.3 12.6-23.11Zm0 0"/>
  <path fill="none" stroke="#000" stroke-linecap="round" stroke-linejoin="round" stroke-miterlimit="8" stroke-width="2.25" d="M205.07 562.85H166.9l-19.08 33.03 19.08 33.1h38.16l19.07-33.1Zm0 0"/>
  <path fill="#fff" fill-rule="evenodd" stroke="#000" stroke-linecap="round" stroke-miterlimit="8" stroke-width="2.25" d="m145.98 603.66 13.58 22.5 9.5-5.74-13.58-22.49Zm56.94-33.26 13.57 22.5 9.5-5.74-13.57-22.5Zm-3.85-13.33-26.3.47.18 11.08 26.31-.46Zm0 66.58-26.3.46.18 11.09 26.31-.47Zm16.8-25.79-12.57 23.06 9.74 5.3 12.57-23.06Zm-56.92-34.71-12.6 23.11 9.74 5.3 12.6-23.1Zm0 0"/>
  <path fill="none" stroke="#000" stroke-linecap="round" stroke-linejoin="round" stroke-miterlimit="8" stroke-width="2.25" d="M205.07 629.42H166.9l-19.08 33.05 19.08 33.13h38.16l19.07-33.13Zm0 0"/>
  <path fill="#fff" fill-rule="evenodd" stroke="#000" stroke-linecap="round" stroke-miterlimit="8" stroke-width="2.25" d="m145.97 670.23 13.6 22.54 9.5-5.72-13.6-22.54Zm56.95-33.26 13.57 22.5 9.5-5.74-13.57-22.5Zm-3.85-13.32-26.3.46.18 11.09 26.31-.47Zm0 66.62-26.3.46.18 11.09 26.31-.46Zm16.81-25.84-12.6 23.12 9.75 5.3 12.6-23.12Zm-56.93-34.71-12.6 23.12 9.74 5.3 12.6-23.11Zm0 0"/>
  <path fill="none" stroke="#000" stroke-linejoin="round" stroke-miterlimit="8" stroke-width="2" d="m89.55 628.22-13.89 30.52"/>
  <use xlink:href="#W" x="70.12" y="667.09"/>
  <use xlink:href="#X" x="109.81" y="639.38"/>
  <use xlink:href="#Y" x="23.94" y="570.74"/>
  <use xlink:href="#Z" x="137.59" y="621.25"/>
  <use xlink:href="#aa" x="138.94" y="637.89"/>
  <use xlink:href="#ab" x="23.94" y="687.2"/>
  <use xlink:href="#ab" x="23.94" y="638.71"/>
  <use xlink:href="#X" x="108.41" y="692.07"/>
  <path fill="none" stroke="#000" stroke-linejoin="round" stroke-miterlimit="8" stroke-width="2.25" d="M140.24 467.46h262.05m-244.12-29.82h269.2m-262.01-61.18 260.25-1.55m-231.53 31.32 32.26-29.77m-32.26 91 32.26-28.32m39.51-32.91 34.1-29.77m-34.1 91 32.31-29.82m43.1 28.22 32.31-28.22m-32.31-31.41 32.31-31.32m-179.49 31.32v62.73m32.26-92.5v62.68m39.51-32.91v62.73M298.16 378v59.64m43.1-31.41v59.63m32.31-89.4v61.18"/>
  <path fill="#fff" fill-rule="evenodd" stroke="#000" stroke-linecap="round" stroke-miterlimit="8" stroke-width="2.25" d="M222.8 431.35h7.19V384.3h-7.2Zm71.76 1.5h7.2v-47h-7.2Zm75.37 0h7.2v-47h-7.2Zm0 0"/>
  <path fill="none" stroke="#000" stroke-linejoin="round" stroke-miterlimit="8" stroke-width="2.25" d="M138.44 406.23H402.3"/>
  <path fill="#fff" fill-rule="evenodd" stroke="#000" stroke-linecap="round" stroke-miterlimit="8" stroke-width="2.25" d="m347.92 455.24 6.8 5.8 13.99-16.43-6.8-5.8Zm-75.42 1.6 6.81 5.8 13.99-16.43-6.8-5.8Zm-70.01-1.6 6.8 5.8 13.98-16.43-6.8-5.8Zm143.63-59.54 6.8 5.81 13.99-16.43-6.8-5.8Zm-75.41 1.56 6.8 5.8 13.99-16.43-6.8-5.8Zm-71.81 0 6.8 5.8 13.98-16.43-6.8-5.8Zm110.1-16.1h37.65v-7.85H309Zm-71.87-1.6h37.66v-7.85h-37.66Zm-3.55 62.78h37.66v-7.8h-37.66Zm75.42-1.6h37.65v-7.8H309Zm0 0"/>
  <path fill="#fff" fill-rule="evenodd" stroke="#000" stroke-linecap="round" stroke-miterlimit="8" stroke-width="2.25" d="M337.61 459.57h7.2v-47.05h-7.2Zm-75.31-1.6h7.2v-47.05h-7.2Zm-48.55 12.58h37.71v-7.79h-37.7Zm73.62 0h37.66v-7.79h-37.66Zm73.62 0h37.65v-7.79H361Zm-3.59-61.17h37.7v-7.85h-37.7Zm25.11 31.36h37.66v-7.8h-37.66Zm0-61.18h37.66v-7.85h-37.66Zm-233.33 90.99h37.7v-7.79h-37.7ZM169 442.29h37.66v-7.84h-37.65Zm0 0"/>
  <path fill="#fff" fill-rule="evenodd" stroke="#000" stroke-linecap="round" stroke-miterlimit="8" stroke-width="2.25" d="M190.53 459.57h7.2v-47.05h-7.2Zm-19.83-78.41h37.71v-7.85h-37.7Zm-21.52 28.22h37.7v-7.85h-37.7Zm0 0"/>
  <use xlink:href="#ac" x="181.97" y="364.2"/>
  <use xlink:href="#ad" x="249.9" y="364.2"/>
  <use xlink:href="#ad" x="320.17" y="364.2"/>
  <use xlink:href="#ad" x="395.23" y="364.2"/>
  <use xlink:href="#U" x="176.58" y="428.43"/>
  <use xlink:href="#ae" x="187.38" y="390.82"/>
  <use xlink:href="#af" x="165.75" y="395.52"/>
  <path fill="#fff" fill-rule="evenodd" stroke="#000" stroke-linecap="round" stroke-miterlimit="8" stroke-width="2.25" d="M215.6 409.38h37.66v-7.85h-37.65Zm73.57 0h37.7v-7.85h-37.7Zm0 0"/>
  <use xlink:href="#v" x="232.22" y="394.01"/>
  <use xlink:href="#ag" x="205.24" y="422.14"/>
  <use xlink:href="#ah" x="158.66" y="483.41"/>
  <use xlink:href="#T" x="223.23" y="483.41"/>
  <use xlink:href="#ai" x="298.65" y="484.95"/>
  <use xlink:href="#aj" x="373.95" y="483.41"/>
  <use xlink:href="#ak" x="395.23" y="426.92"/>
  <use xlink:href="#al" x="321.96" y="426.92"/>
  <use xlink:href="#am" x="384.51" y="397.11"/>
  <use xlink:href="#v" x="311.23" y="394.01"/>
  <use xlink:href="#al" x="368.26" y="453.59"/>
  <use xlink:href="#an" x="240.85" y="428.43"/>
  <use xlink:href="#z" x="292.95" y="452.04"/>
  <use xlink:href="#ao" x="221.13" y="452.04"/>
  <use xlink:href="#ap" x="343.2" y="386.17"/>
  <use xlink:href="#am" x="260.9" y="387.72"/>
  <use xlink:href="#al" x="269.57" y="426.92"/>
  <use xlink:href="#z" x="348.54" y="423.82"/>
  <path fill="none" stroke="#000" stroke-linejoin="round" stroke-miterlimit="8" stroke-width="2.25" d="m265.85 467.46-8.94 29.81m50.19-150.63-8.94 29.82"/>
  <use xlink:href="#aq" x="251.96" y="513.23"/>
  <use xlink:href="#ar" x="305.57" y="343"/>
</svg>
