<svg xmlns="http://www.w3.org/2000/svg" xmlns:xlink="http://www.w3.org/1999/xlink" width="595.32" height="841.92" viewBox="0 0 595.32 841.92">
  <defs>
    <path id="g" d="M1.42 0h3.3v-.19c-.92 0-1.13-.12-1.14-.7v-7.19l-.1-.01-2.15 1.07v.18q.7-.27.86-.27.37 0 .36.56v5.44c-.02.75-.22.92-1.13.92Zm0 0"/>
    <path id="a" d="M4.69-7.94h3.14l-.06.22q-.61 0-.88.27-.26.25-.37.7 1.41 0 2.18.64a2 2 0 0 1 .78 1.63A2.9 2.9 0 0 1 8.33-2.2q-1.17.97-3.42 1.06-.08.3-.08.45 0 .24.19.36.2.12.7.11L5.64 0H2.56l.1-.22q.6 0 .8-.19.2-.2.35-.73-.97 0-1.6-.27-.6-.27-.98-.8a2 2 0 0 1-.35-1.2q0-.9.57-1.68.6-.78 1.64-1.22 1.07-.44 2.36-.44.08-.3.08-.5a.4.4 0 0 0-.19-.34 2 2 0 0 0-.71-.13Zm.28 6.5a3.3 3.3 0 0 0 2.47-1.04q.95-1.05.95-2.27 0-1.62-1.97-1.69Zm.39-4.98q-1.72.1-2.56 1.14a3.3 3.3 0 0 0-.85 2.1q0 .7.47 1.21.48.52 1.5.53Zm0 0"/>
    <path id="b" d="M5.64-5.16 4.63-1.67q-.24.78-.24.98 0 .12.03.16.05.05.11.05.11 0 .22-.08.13-.09.6-.74l.18.14Q5.07-.4 4.6-.08q-.32.22-.62.22-.24 0-.36-.12-.13-.13-.13-.35 0-.19.08-.51.1-.45.53-1.9A11 11 0 0 1 2.42-.46q-.67.6-1.23.61a.64.64 0 0 1-.66-.66q0-.42.27-1.34l.51-1.81q.2-.65.19-.81 0-.06-.06-.11-.05-.07-.11-.07a.4.4 0 0 0-.24.1 4 4 0 0 0-.56.64l-.19-.13q.46-.66.94-1 .38-.25.69-.25.21 0 .36.14t.14.36q0 .32-.24 1.13l-.56 1.89q-.22.76-.22.97 0 .1.07.19a.3.3 0 0 0 .2.06q.18 0 .5-.19.3-.2.83-.86.51-.66.86-1.25.33-.58.71-1.84l.13-.46Zm0 0"/>
    <path id="c" d="m1.16-4.3-.18-.14a3 3 0 0 1 2.05-.86q.78 0 1.17.32.4.3.4.76 0 .33-.24.66-.25.33-1.52.86a5 5 0 0 0-1.54.9q-.32.38-.32.7 0 .34.27.6.29.27.84.27.81 0 1.77-.79l.16.16Q3 .14 1.59.14a2 2 0 0 1-1.18-.3.9.9 0 0 1-.4-.76q0-.44.32-.83.33-.39 1.65-.87a4 4 0 0 0 1.38-.74q.33-.36.33-.78 0-.34-.27-.53-.27-.2-.72-.2-.73 0-1.54.57m0 0"/>
    <path id="d" d="M1.92-5.3q.2.35.27.64t.15 1.16l.27 2.88 1.02-1.33q.32-.45.8-1.22.27-.46.34-.66a.4.4 0 0 0 .04-.19.1.1 0 0 0-.04-.09l-.22-.1a.6.6 0 0 1-.28-.2.6.6 0 0 1-.11-.36.5.5 0 0 1 .14-.37q.14-.15.34-.16.26 0 .44.22.18.2.19.58 0 .47-.33 1.06-.32.6-1.22 1.83-.9 1.22-2.17 2.67A8 8 0 0 1 .23 2.33q-.42.26-.73.26a.4.4 0 0 1-.31-.14.5.5 0 0 1-.14-.33q0-.21.18-.4a.6.6 0 0 1 .43-.19q.1 0 .18.05.06.03.11.17t.1.19l.08.01.1-.04q.33-.21.75-.64.57-.57.85-.94l-.33-3.7q-.09-.93-.27-1.11-.15-.2-.53-.2l-.43.02-.07-.21Zm0 0"/>
    <path id="e" d="m2.66-5.3-.41 1.35Q2.89-4.7 3.39-5t1.02-.3.89.42.37 1.07q0 1.3-1.06 2.62Q3.56.14 2.17.14q-.29 0-.51-.06a2 2 0 0 1-.5-.24L.72 1.36q-.13.43-.13.58 0 .12.07.22.08.08.21.14.16.04.61.04l-.04.22h-2.77l.06-.22q.55 0 .74-.18.18-.16.4-.91l1.49-5.12q.12-.5.12-.61 0-.15-.09-.24-.08-.1-.26-.1t-.49.05V-5ZM1.28-.6q.38.4.99.41.3 0 .6-.15.33-.18.63-.5.3-.35.53-.78.25-.44.44-1.02.18-.6.19-1.19 0-.46-.22-.7a.6.6 0 0 0-.49-.25q-.65 0-1.26.73-.6.72-.9 1.7Zm0 0"/>
    <path id="f" d="M5.63-5.3 4.47-1.33l-.12.53-.02.13q0 .1.05.17.04.05.13.05.07 0 .18-.1.24-.16.61-.7l.2.14q-.4.6-.82.94-.42.3-.8.31-.26 0-.37-.12-.13-.13-.13-.36a3 3 0 0 1 .13-.77l.12-.44a6 6 0 0 1-1.4 1.4q-.48.3-.91.3A1 1 0 0 1 .59-.2a1.4 1.4 0 0 1-.3-.99q0-.93.55-1.97.57-1.02 1.43-1.64.66-.5 1.26-.5.36 0 .6.2.23.18.35.62l.2-.68Zm-2.08.32q-.38 0-.8.34-.6.5-1.08 1.48-.45.97-.45 1.75a1 1 0 0 0 .19.64.6.6 0 0 0 .47.24q.63 0 1.39-.95 1-1.26 1-2.57 0-.5-.2-.72a.7.7 0 0 0-.52-.21m0 0"/>
    <path id="l" d="M5.1-5.16h.87L4.72-2.3q.1 1.62.56 1.61.15 0 .3-.17t.19-.42H6Q5.82.14 5.19.14q-.22 0-.4-.23-.2-.23-.34-1.64Q3.37.14 2.03.14 1.3.14.81-.37a2 2 0 0 1-.47-1.4q0-.85.43-1.65.42-.8 1.07-1.33.65-.54 1.41-.55.54 0 .86.35.33.35.44 1.04Zm-.77 1.7a3 3 0 0 0-.28-.96q-.25-.53-.7-.53-.7 0-1.4 1.3a5 5 0 0 0-.68 2.32q0 .56.21.9.23.3.65.3t.76-.43q.34-.45.94-1.8Zm0 0"/>
    <path id="h" d="M4.81-1.33c-.1.11-.15.17-.26.33-.27.36-.4.47-.57.47q-.22 0-.35-.49l-.05-.18c-.3-1.24-.42-1.78-.42-1.96.53-.93.95-1.45 1.17-1.45q.1 0 .28.1.2.1.34.1c.24 0 .4-.18.4-.43 0-.27-.2-.44-.5-.44-.5 0-.96.42-1.79 1.7l-.14-.65c-.17-.82-.3-1.05-.62-1.05-.27 0-.66.1-1.4.34l-.13.05.04.19c.47-.13.55-.14.67-.14.3 0 .38.1.55.82l.35 1.47-.99 1.4c-.25.37-.48.59-.6.59a1 1 0 0 1-.32-.11 1 1 0 0 0-.4-.13.4.4 0 0 0-.4.43c0 .3.24.5.61.5C.64.13.8.02 1.4-.7c.33-.4.6-.76 1.08-1.42l.36 1.44c.15.62.31.8.69.8.46 0 .78-.29 1.46-1.36Zm0 0"/>
    <path id="i" d="M.19-4.8c.14-.03.23-.04.36-.04.5 0 .72.18.97.84.3.9.93 3.45.93 3.9 0 .2-.08.38-.25.62-.33.43-.6.78-.75.93-.25.27-.39.36-.54.36q-.1.01-.29-.14-.25-.2-.43-.2c-.27 0-.47.2-.47.47 0 .31.25.53.6.53.77 0 2.34-1.78 3.63-4.17.82-1.47 1.16-2.33 1.16-2.92 0-.36-.3-.66-.66-.66-.28 0-.47.17-.47.44 0 .18.1.3.33.46.24.13.32.24.32.41 0 .49-.44 1.4-1.47 3.11l-.24-1.39c-.17-1.06-.84-3.03-1.03-3.03h-.05l-.1.01c-.1 0-.54.08-1.18.2-.06 0-.22.05-.37.07Zm0 0"/>
    <path id="j" d="M5.66-4.86h-.74q-.05.02-.19-.1a2 2 0 0 0-1.17-.32c-1.33 0-2.4.92-2.4 2.05 0 .62.25.98.93 1.3-.7.46-.92.71-.92 1q0 .22.33.46C.31.31.1.55.1 1.11c0 .81.8 1.36 2 1.36 1.5 0 2.5-.7 2.5-1.75Q4.62-.4 2.9-.86c-.52-.14-.84-.33-.84-.5 0-.19.28-.5.44-.5l.08.02.37.03c1.1 0 2.22-.97 2.22-1.9q0-.3-.1-.68h.59ZM1.78-.33l.05.02.36.1c1.28.41 1.7.74 1.7 1.29 0 .64-.69 1.12-1.6 1.12C1.3 2.2.74 1.75.74.98c0-.3.08-.5.27-.71.17-.22.65-.6.76-.6m1.77-4.69q.66 0 .67.85c0 .44-.14.95-.38 1.36q-.4.73-1.04.75c-.46 0-.72-.33-.72-.9 0-1.1.69-2.06 1.47-2.06m0 0"/>
    <path id="k" d="M2.73-1.47C1.95-.48 1.86-.39 1.6-.39q-.18 0-.17-.2 0-.15.1-.47l.01-.1v-.03l1.81-6.93-.06-.07c-.72.17-1.17.24-1.86.33v.19q.82-.01.81.28l-.04.22L.55-.84a1 1 0 0 0-.07.3q0 .67.6.67C1.7.13 2.1-.2 2.89-1.36Zm0 0"/>
  </defs>
  <use xlink:href="#a" x="260.75" y="545.53"/>
  <use xlink:href="#b" x="270.34" y="545.53"/>
  <use xlink:href="#c" x="276.33" y="545.53"/>
  <use xlink:href="#d" x="281.01" y="545.53"/>
  <use xlink:href="#e" x="286.28" y="545.53"/>
  <use xlink:href="#f" x="292.38" y="545.53"/>
  <use xlink:href="#aX" x="298.38" y="545.53"/>
  <use xlink:href="#g" x="301.41" y="545.53"/>
  <path fill="none" stroke="#000" stroke-dasharray=".749145 .99886" stroke-linecap="round" stroke-linejoin="round" stroke-miterlimit="10" stroke-width=".25" d="M282.68 451.97v37.11"/>
  <path d="M342.36 430.5h26.52c.28 0 .5.22.5.5a.5.5 0 0 1-.5.5h-26.52a.5.5 0 0 1-.5-.5c0-.28.22-.5.5-.5m20.78-3.43 6.73 3.93-6.73 3.93a.5.5 0 0 1-.68-.18.5.5 0 0 1 .18-.68l5.99-3.5v.86l-6-3.5a.5.5 0 0 1-.17-.68.5.5 0 0 1 .68-.18m0 0"/>
  <path d="M342.86 431v18.98a.5.5 0 0 1-.5.5.5.5 0 0 1-.5-.5V431c0-.28.22-.5.5-.5s.5.22.5.5m3.43 13.23-3.93 6.73-3.93-6.73a.5.5 0 0 1 .18-.68.5.5 0 0 1 .68.18l3.5 6h-.86l3.5-6a.5.5 0 0 1 .68-.18.5.5 0 0 1 .18.68m0 0"/>
  <use xlink:href="#h" x="369.97" y="441.85"/>
  <use xlink:href="#ba" x="375.24" y="441.85"/>
  <use xlink:href="#i" x="347.07" y="455.27"/>
  <use xlink:href="#ba" x="352.35" y="455.27"/>
  <path d="m218.4 434.95.04 22.92a.5.5 0 0 1-1 0l-.04-22.92c0-.29.22-.5.5-.5s.5.21.5.5m2.54 21.9-3 6.01-3-5.98Zm0 0"/>
  <use xlink:href="#j" x="225.15" y="451.44"/>
  <use xlink:href="#ba" x="231.15" y="451.44"/>
  <path fill="none" stroke="#000" stroke-linecap="round" stroke-linejoin="round" stroke-miterlimit="10" stroke-width=".75" d="m211.46 477.14 151.23.06"/>
  <path fill="none" stroke="#000" stroke-linejoin="round" stroke-miterlimit="10" stroke-width="4.49" d="M282.68 489.08v34.06"/>
  <use xlink:href="#k" x="289.9" y="508.85"/>
  <use xlink:href="#ba" x="293.26" y="508.85"/>
  <path fill="#fff" fill-rule="evenodd" stroke="#000" stroke-linecap="round" stroke-linejoin="round" stroke-miterlimit="10" d="M282.78 419.11c-20.36 0-36.86 15.66-36.86 34.98 0 19.33 16.5 35 36.86 35s36.86-15.67 36.86-35-16.5-34.98-36.86-34.98m0 0"/>
  <path fill="none" stroke="#000" stroke-linecap="round" stroke-linejoin="round" stroke-miterlimit="10" stroke-width=".25" d="m282.68 451.97-26.92 25.17m26.92-25.17 27.52 25.23"/>
  <use xlink:href="#l" x="284.86" y="466.9"/>
  <use xlink:href="#ba" x="291.1" y="466.9"/>
  <path fill="none" stroke="#000" stroke-dasharray=".749145 .99886" stroke-linecap="round" stroke-linejoin="round" stroke-miterlimit="10" stroke-width=".25" d="M282.68 451.97v37.11"/>
  <use xlink:href="#l" x="273.7" y="466.9"/>
  <use xlink:href="#ba" x="279.93" y="466.9"/>
</svg>
