<svg xmlns="http://www.w3.org/2000/svg" xmlns:xlink="http://www.w3.org/1999/xlink" width="550" height="200" viewBox="0 0 550 200">
  <defs>
    <path id="b" d="M.6-6.42q.36-.8.87-1.24t1.28-.43q.95 0 1.45.62.4.46.4.99 0 .87-1.1 1.8.74.27 1.1.8.38.54.38 1.25 0 1.05-.65 1.79-.84.98-2.47.98-.8 0-1.1-.19Q.5-.25.49-.48a.4.4 0 0 1 .15-.3Q.77-.9.95-.91q.15 0 .3.05l.44.22q.35.18.5.2.22.07.45.07.6 0 1.03-.46.45-.46.46-1.1-.01-.45-.2-.9-.17-.33-.35-.48-.25-.24-.69-.42-.44-.2-.89-.2h-.19v-.18q.47-.06.92-.33.48-.27.68-.65.21-.4.21-.86 0-.6-.37-.97a1.3 1.3 0 0 0-.94-.38q-.9 0-1.51.97Zm0 0"/>
    <path id="w" d="M6.16-6.6q0-.74-.24-.92t-.94-.18v-.22h3.44v.22q-.73.01-.95.23-.2.21-.2.99v5.04q0 .8.2 1t.95.22V0H4.98v-.22q.77 0 .97-.23t.2-.99v-4.54l-3.67 4.7q0 .51.07.69.06.17.28.26.23.1.8.11V0H.21v-.22q.73 0 .94-.22.2-.2.2-1v-5.04q0-.78-.2-.99T.22-7.7v-.22h3.4v.22q-.73.01-.93.23-.2.21-.2.99v4.56Zm0 0"/>
    <path id="x" d="M3.83-1.4 5.5-5.35h1.8v.24q-.4 0-.53.07a1 1 0 0 0-.2.2q-.09.12-.09.76v2.84q0 .55.05.72.06.15.24.23t.53.08V0H4.72v-.22q.47 0 .62-.17.18-.19.18-.86v-3.23L3.62 0h-.2L1.5-4.48v3.23q0 .55.05.72.06.15.23.23t.53.08V0H.27v-.22q.51 0 .65-.19.15-.18.16-.84v-2.84q0-.62-.06-.74a.5.5 0 0 0-.2-.2q-.14-.1-.55-.1v-.23h1.87Zm0 0"/>
    <path id="y" d="M4.36-4.97H2.05v3.72q0 .6.06.73t.2.22.55.08V0H.26v-.22q.52 0 .66-.19.15-.18.16-.84v-2.84q0-.62-.06-.74a.5.5 0 0 0-.2-.2q-.14-.1-.55-.1v-.23h5.86v.24q-.4 0-.54.07a1 1 0 0 0-.2.2q-.08.12-.08.76v2.84q0 .6.07.73t.2.22.54.08V0H3.56v-.22q.48 0 .64-.17.17-.19.17-.86Zm0 0"/>
    <path id="z" d="M.06-5.36h2.5v.22h-.12q-.27 0-.4.12a.4.4 0 0 0-.12.29q0 .21.19.62l1.3 2.7 1.2-2.95q.1-.25.1-.48A.3.3 0 0 0 4.65-5a.3.3 0 0 0-.14-.1 1 1 0 0 0-.35-.04v-.22h1.74v.22a1 1 0 0 0-.35.1 1 1 0 0 0-.25.26q-.05.08-.18.45l-2.2 5.35q-.3.75-.82 1.15-.5.4-.98.4a.8.8 0 0 1-.57-.2.6.6 0 0 1-.22-.45q0-.23.16-.39a.7.7 0 0 1 .45-.14q.2 0 .52.13.23.07.3.07.16 0 .37-.18.22-.18.42-.7l.38-.91-1.92-4.05a3 3 0 0 0-.52-.72 1 1 0 0 0-.44-.17Zm0 0"/>
    <path id="A" d="M.92-5.36H5.7v.24q-.38 0-.53.07a1 1 0 0 0-.2.2q-.08.12-.08.76v2.84q0 .6.06.73t.2.22.55.08V0H2.94v-.22q.44 0 .62-.05.17-.04.27-.21a2 2 0 0 0 .1-.77v-3.72H2.13v2.25q0 1.28-.1 1.8-.12.52-.46.76Q1.25.1.8.1.06.1.06-.53q0-.2.13-.33A.4.4 0 0 1 .5-1q.2 0 .38.17.22.22.34.22.25 0 .39-.44.12-.45.12-1.54v-1.2q0-.9-.14-1.1-.12-.2-.67-.24Zm0 0"/>
    <path id="B" d="M4.92-2.03a3 3 0 0 1-.86 1.62q-.63.57-1.39.57-.9 0-1.6-.77a3 3 0 0 1-.66-2.06q0-1.27.75-2.05.75-.8 1.8-.8.78 0 1.29.43.51.42.52.87 0 .23-.14.36t-.41.13q-.34 0-.52-.22-.1-.13-.14-.47a.8.8 0 0 0-.23-.52.8.8 0 0 0-.56-.18q-.59 0-.94.43-.47.59-.47 1.52 0 .95.47 1.69.46.73 1.26.73.58 0 1.04-.4.3-.26.62-.96Zm0 0"/>
    <path id="C" d="M.3-5.36h3.48v.24q-.6 0-.72.06a1 1 0 0 0-.2.17q-.1.1-.1.8v1.07h.5q.96 0 1.47.16.54.16.8.52.28.36.28.84 0 .67-.54 1.1-.55.4-1.83.4H.98v-.22q.48 0 .65-.17.16-.19.17-.86v-3.72q-.7 0-1.02.2-.3.2-.45.88H.06Zm2.47 4.9q.3.09.62.09.67 0 .98-.33a1.1 1.1 0 0 0-.03-1.6 1.3 1.3 0 0 0-.96-.34q-.2 0-.61.05Zm0 0"/>
    <path id="D" d="M.3-5.36h4.62l.22 1.45H4.9a2 2 0 0 0-.25-.67.7.7 0 0 0-.37-.31 2 2 0 0 0-.7-.08h-.48v3.72q0 .6.07.75t.23.22q.17.04.77.06V0H1.25v-.22q.55-.01.7-.17.18-.17.18-.86v-3.72h-.49q-.5 0-.69.06a1 1 0 0 0-.34.3q-.15.22-.28.7H.06Zm0 0"/>
    <path id="L" d="m2.05-1.64 2.3-2.69q0-.44-.16-.62t-.55-.17v-.24h2.49v.24q-.4 0-.54.07a1 1 0 0 0-.2.2q-.08.12-.08.76v2.84q0 .6.07.73t.2.22.54.08V0H3.56v-.22q.48 0 .64-.17.17-.19.17-.86v-2.53L2.05-1.1q0 .5.12.68.15.2.56.2V0H.27v-.22q.51 0 .65-.19.15-.18.16-.84v-2.84q0-.62-.06-.74a.5.5 0 0 0-.2-.2q-.14-.1-.55-.1v-.23h2.59v.24q-.4 0-.53.07a1 1 0 0 0-.22.2q-.06.12-.06.76Zm0 0"/>
    <path id="M" d="M1.27-3.34q0 1.2.57 1.87.6.69 1.38.69.52 0 .9-.3.39-.3.66-.98l.19.1A3 3 0 0 1 4.25-.5q-.58.66-1.47.66-.97 0-1.65-.75a2.9 2.9 0 0 1-.7-2.02q0-1.37.71-2.14a2.3 2.3 0 0 1 1.77-.77 2 2 0 0 1 1.48.6q.58.6.58 1.58Zm0-.33h2.48a3 3 0 0 0-.12-.74q-.15-.32-.44-.51-.29-.2-.61-.19-.49 0-.86.4-.37.37-.45 1.04m0 0"/>
    <path id="N" d="M2.05-2.97h2.3v-1.12q.01-.52-.04-.68a.5.5 0 0 0-.2-.25q-.16-.1-.56-.1v-.24h2.58v.24q-.37 0-.54.07a.4.4 0 0 0-.21.24q-.07.15-.07.72v2.84q0 .5.05.67.04.16.22.27.17.1.54.1V0H3.56v-.22q.48 0 .64-.17.17-.19.17-.86v-1.33H2.05v1.33q0 .5.03.67.04.16.22.27.17.1.56.1V0H.26v-.22q.52 0 .66-.19.15-.18.16-.84v-2.84q0-.52-.05-.68a.4.4 0 0 0-.2-.26q-.18-.1-.56-.1v-.23h2.59v.24q-.37 0-.55.07a.4.4 0 0 0-.22.24q-.04.15-.04.72Zm0 0"/>
    <path id="O" d="m-.02-4.83 1.66-.65h.22v1.25q.4-.7.83-.99t.87-.3q.82 0 1.35.64.65.77.65 2 0 1.4-.78 2.3-.66.75-1.66.74-.42 0-.75-.11a2 2 0 0 1-.51-.36v1.64q0 .55.06.69.06.15.24.23.17.1.6.1v.21h-2.8v-.22H.1q.3 0 .55-.12.1-.06.17-.2.06-.15.06-.74v-5.06q0-.52-.05-.66a.4.4 0 0 0-.15-.2.4.4 0 0 0-.27-.08q-.14 0-.36.08Zm1.88.94v2q0 .65.05.84.08.35.39.61.33.25.8.25.6 0 .96-.45.48-.6.47-1.67a3 3 0 0 0-.55-1.9q-.36-.45-.87-.45-.29 0-.56.14-.2.1-.7.63m0 0"/>
    <path id="P" d="m4.6-5.36.23 1.47h-.27q-.22-.71-.43-.9-.22-.18-.96-.18H2.05v3.72q0 .6.06.73t.2.22.55.08V0H.19v-.22Q.74-.23.9-.39q.17-.17.17-.86v-2.84q0-.57-.06-.72a.4.4 0 0 0-.24-.24q-.15-.08-.6-.08v-.23Zm0 0"/>
    <path id="Q" d="M5.23-5.36v.24q-.36 0-.54.09a.4.4 0 0 0-.22.25q-.05.15-.05.69v2.84q0 .5.05.67.04.16.22.27.18.1.54.1V0H2.64v-.22q.48 0 .64-.17.17-.19.17-.86v-1.17l-.23.01-.19-.01L1.33 0H0v-.22q.28 0 .4-.08T.82-.8l1.25-1.77Q.73-3.05.73-4.02q0-.53.47-.93.48-.4 1.66-.4Zm-1.78.45q-.22-.06-.43-.06-.59 0-.88.3a1 1 0 0 0-.3.69q0 .51.41.86a1.7 1.7 0 0 0 1.2.3Zm0 0"/>
    <path id="R" d="M3.4-.77q-.83.63-1.02.74-.33.15-.68.14-.56 0-.92-.38a1.4 1.4 0 0 1-.36-1q0-.38.17-.68.25-.38.85-.74t1.97-.86v-.2q0-.81-.27-1.1-.25-.3-.73-.3a.8.8 0 0 0-.58.2.6.6 0 0 0-.22.45v.34a.6.6 0 0 1-.14.43q-.13.14-.34.14a.5.5 0 0 1-.36-.16.6.6 0 0 1-.15-.42q0-.5.52-.92a2.2 2.2 0 0 1 1.44-.43q.71 0 1.17.25.34.17.52.57.09.24.09 1.03v1.81q0 .76.03.94t.1.23q.07.07.15.06.1 0 .17-.04.12-.08.47-.42v.32q-.65.88-1.25.88a.6.6 0 0 1-.45-.2Q3.4-.3 3.4-.77m0-.39v-2.03q-.89.35-1.13.5-.48.26-.68.53-.18.3-.18.61 0 .43.25.7.25.3.57.29.44 0 1.18-.6m0 0"/>
    <path id="U" d="M3.97-2.95V-4.1q0-.57-.06-.72a.4.4 0 0 0-.22-.24 1.4 1.4 0 0 0-.53-.08v-.23h2.59v.24q-.4 0-.53.07a1 1 0 0 0-.2.2q-.08.12-.08.76v2.84q0 .55.04.72.06.15.24.23t.53.08V0H3.03v-.22q.47 0 .61-.06.15-.04.23-.22.1-.18.1-.75v-1.31q-.87.44-1.81.44-.52 0-.82-.13-.27-.15-.36-.31-.06-.17-.06-.56v-.97q0-.52-.05-.68a.4.4 0 0 0-.21-.26 1 1 0 0 0-.49-.1v-.23H2.7v.24q-.4 0-.53.07a1 1 0 0 0-.2.2q-.08.12-.08.76v.65q0 .4.04.53.06.13.27.22.2.1.58.1.62 0 1.2-.36m0 0"/>
    <path id="V" d="M6.13-.22v1.7H5.9A1.5 1.5 0 0 0 5.45.4Q5.03 0 3.91 0H.27v-.22q.51 0 .65-.19.15-.18.16-.84v-2.84q0-.62-.06-.74a.5.5 0 0 0-.2-.2q-.14-.1-.55-.1v-.23h2.59v.24q-.4 0-.53.07a1 1 0 0 0-.22.2q-.06.12-.06.76v3.01q0 .52.08.61.08.1.59.1h.94q.54 0 .62-.1t.08-.65V-4.1q0-.57-.06-.72a.5.5 0 0 0-.24-.24q-.15-.08-.51-.08v-.23h2.58v.24q-.4 0-.54.07a1 1 0 0 0-.2.2q-.08.12-.08.76v2.75q0 .74.13.93.14.18.68.2m0 0"/>
    <path id="W" d="M3.77-2.83q1.46.3 1.46 1.38 0 .73-.6 1.1Q4 0 2.93 0H.27v-.22Q.8-.22.94-.4q.15-.2.14-.84v-2.84q0-.64-.06-.75a1 1 0 0 0-.2-.2q-.14-.08-.54-.08v-.24h2.47q.7 0 1.14.13.45.1.73.43.3.31.29.78 0 .93-1.14 1.2m-1.72-.14.3.02q.8 0 1.15-.32.36-.3.36-.75 0-.5-.36-.71a2 2 0 0 0-1.16-.24h-.3Zm0 2.5q.27.1.68.1.7 0 1.04-.3t.34-.8a.9.9 0 0 0-.44-.81q-.45-.3-1.22-.3l-.4.02Zm0 0"/>
    <path id="X" d="M2.98-5.52q1.23 0 1.96.93.62.8.62 1.8 0 .73-.34 1.48-.35.74-.95 1.1T2.92.17Q1.72.16 1-.8a3 3 0 0 1-.6-1.82q0-.75.37-1.46a2.4 2.4 0 0 1 2.21-1.44m-.17.4q-.31 0-.62.18-.32.18-.52.64-.19.45-.19 1.2 0 1.15.47 2t1.22.85q.57 0 .94-.47t.37-1.6q0-1.43-.62-2.24a1.2 1.2 0 0 0-1.05-.57m0 0"/>
    <path id="aa" d="M.48-3.67v-1.69h.25q.1.1.24.1.08 0 .44-.1.54-.15.9-.16.77 0 1.28.36.52.37.52.96 0 .9-1.38 1.3 1.6.34 1.61 1.5 0 .62-.51 1.09-.53.47-1.5.47-.64 0-1.13-.22A4 4 0 0 1 .14-.84L.3-1q.95.75 1.8.75.5 0 .8-.33.34-.34.33-.87 0-1.18-1.5-1.24v-.34q.7 0 1.02-.38.3-.38.31-.8a1 1 0 0 0-.26-.66 1 1 0 0 0-.72-.3q-1.05 0-1.38 1.5Zm0 0"/>
    <path id="ah" d="M.88-3.83q.67-1.69 2.26-1.69 1.1 0 1.81.85.72.83.72 1.9 0 1.12-.72 2.02t-1.93.9Q1.77.16 1.1-.86a4.6 4.6 0 0 1-.66-2.54q0-1.15.33-2.15a6 6 0 0 1 .72-1.5q.38-.5.86-.72a5 5 0 0 1 1.75-.25q.9 0 1.08-.05.18-.04.34-.23h.24q-.2.57-.47.83-.27.23-.6.32a6 6 0 0 1-1.12.11q-.89.02-1.22.13t-.69.53a3 3 0 0 0-.56 1.1Q.9-4.64.87-3.84M2.94-5.1q-.58 0-.96.49-.37.48-.37 1.51 0 1.42.5 2.14t1.17.72q.59 0 .94-.5.36-.5.36-1.6a4 4 0 0 0-.46-1.98q-.46-.78-1.18-.78m0 0"/>
    <path id="ai" d="M3.36-2.6H2.03v1.35q0 .6.06.72.06.13.2.22.15.1.55.1V0H.27v-.22q.4 0 .51-.06.12-.04.2-.22.1-.18.1-.75v-2.84q0-.7-.14-.86t-.67-.17v-.24h2.57v.24q-.38 0-.53.09a1 1 0 0 0-.22.2q-.06.13-.06.74v1.12h1.35q.16-1.12.85-1.83a2.4 2.4 0 0 1 1.72-.72q1.13 0 1.85.83.71.82.72 1.9 0 .75-.36 1.5A2.4 2.4 0 0 1 5.88.15q-1.1 0-1.8-.82a3 3 0 0 1-.72-1.93m2.4-2.52q-.57 0-.95.5-.36.48-.36 1.51 0 1.17.46 2.02.46.84 1.23.84 1.3 0 1.3-2.08 0-1.21-.47-2-.45-.8-1.2-.8m0 0"/>
    <path id="aj" d="M1.1-5.36h4.71v.24q-.38 0-.53.07a1 1 0 0 0-.2.2Q5-4.72 5-4.08v2.64q0 .84.14 1.03.16.19.67.2v1.7H5.6Q5.58 1 5.36.64q-.22-.35-.6-.5A3 3 0 0 0 3.65 0H2.27q-.65 0-1 .1a1.2 1.2 0 0 0-.61.5 2 2 0 0 0-.29.88H.17v-1.7q.46 0 .86-.37.38-.35.68-1.43.3-1.06.3-2.07t-.9-1.04Zm1.3.4v.3q0 2.88-1.04 4.29h1.98q.54 0 .61-.1.08-.09.08-.67v-3.83Zm0 0"/>
    <path id="am" d="M5.63-7.48H3.17v2.21q0 3.37-.58 4.36Q2.02.1 1 .1a1 1 0 0 1-.66-.2.7.7 0 0 1-.23-.5q0-.21.14-.37.15-.15.38-.16.18 0 .4.17.27.2.49.19.5 0 .8-.84.34-.85.34-3.2v-1.66q0-.78-.2-.99t-.94-.23v-.22h6.37v.22q-.74.01-.95.23-.2.21-.2.99v5.04q0 .8.2 1t.95.22V0H4.5v-.22q.73 0 .93-.22.2-.2.2-1Zm0 0"/>
    <path id="an" d="m2.48-7.66 1.58-.65h.27v3.3q.52-.5 1.08-.5.74 0 1.28.84.54.83.54 2a3.6 3.6 0 0 1-.54 2q-.55.83-1.33.83-.58 0-1.03-.5V1.3q0 .6.06.75t.24.22.75.07v.22h-2.9v-.22q.6 0 .77-.17.17-.16.17-.87V-.34q-.44.5-1.03.5-.81 0-1.36-.83A4 4 0 0 1 .5-2.73q0-1.1.52-1.94.5-.84 1.34-.85.62 0 1.06.57v-1.46q0-.73-.1-.93A.3.3 0 0 0 3-7.56q-.19 0-.42.1Zm.94 3.22q-.33-.68-.84-.68t-.78.65a5 5 0 0 0-.27 1.94q0 1.14.27 1.72.27.57.78.58.45 0 .84-.54Zm.9 3.58a.9.9 0 0 0 .85.63q.45 0 .74-.57.3-.57.3-1.78 0-2.55-1.02-2.54-.42 0-.86.48Zm0 0"/>
    <path id="ao" d="M1.69-5.52q.26 0 .45.2.2.18.19.45a.64.64 0 0 1-.64.65.64.64 0 0 1-.66-.66q0-.26.19-.45a.7.7 0 0 1 .47-.19m-.02 4.38q.29 0 .47.2.2.2.19.46a.6.6 0 0 1-.2.45.6.6 0 0 1-.46.19.6.6 0 0 1-.45-.2.6.6 0 0 1-.19-.44q0-.27.19-.46a.6.6 0 0 1 .45-.2m0 0"/>
    <path id="av" d="M6.16-7.48H2.48v6.04q0 .8.2 1t.94.22V0H.23v-.22q.73 0 .94-.22.2-.2.2-1v-5.04q0-.78-.2-.99T.22-7.7v-.22h8.2v.22q-.73.01-.95.23-.2.21-.2.99v5.04q0 .8.2 1t.95.22V0h-3.4v-.22q.73 0 .93-.22.2-.2.2-1Zm0 0"/>
    <path id="aw" d="M.64 2v-.27q.6-.2.94-.62.33-.4.33-.88a.3.3 0 0 0-.07-.18Q1.81 0 1.77 0a1 1 0 0 0-.29.1 1 1 0 0 1-.21.06A.7.7 0 0 1 .8 0Q.64-.17.64-.47t.22-.5q.21-.2.53-.2a1 1 0 0 1 .69.34q.3.33.3.9 0 .59-.43 1.1-.4.52-1.3.83m0 0"/>
    <path id="ax" d="M5.73 0H4.16Q3.4-1.06 2.83-2.19q-.15-.25-.25-.39a.4.4 0 0 0-.31-.12l-.22.01v1.44q0 .58.06.73.06.17.23.24.19.06.6.06V0H.27v-.22q.51 0 .65-.19.15-.18.16-.84v-2.84q0-.62-.06-.74a.5.5 0 0 0-.2-.2q-.14-.1-.55-.1v-.23h2.67v.24q-.5 0-.6.07a1 1 0 0 0-.2.17q-.1.1-.1.79v1.04l.18.02q.36 0 .67-.2t.56-.86q.23-.61.36-.83.15-.22.42-.36t.57-.14.5.15q.18.16.18.4 0 .21-.14.35-.12.14-.36.14-.14 0-.32-.07-.26-.08-.38-.08-.26 0-.44.45-.2.54-.3.69-.1.16-.35.42.18.04.39.27.2.22.8 1.23.45.82.68 1.03.24.2.67.22Zm0 0"/>
    <path id="az" d="M1.27-3.34q0 1.2.57 1.87.6.69 1.38.69.52 0 .9-.3.39-.3.66-.98l.19.1A3 3 0 0 1 4.25-.5q-.58.66-1.47.66-.97 0-1.65-.75a2.9 2.9 0 0 1-.7-2.02q0-1.37.71-2.14a2.3 2.3 0 0 1 1.77-.77 2 2 0 0 1 1.48.6q.58.6.58 1.58Zm0-.33h2.48a3 3 0 0 0-.12-.74q-.15-.32-.44-.51-.29-.2-.61-.19-.49 0-.86.4-.37.37-.45 1.04m0 0"/>
    <path id="aH" d="M1.5-1.14a.6.6 0 0 1 .45.2q.2.2.2.46t-.2.45a.6.6 0 0 1-.45.19.6.6 0 0 1-.47-.2.6.6 0 0 1-.19-.44.64.64 0 0 1 .66-.66m0 0"/>
    <path id="aI" d="M.27-8.06v-.25q.88.43 1.48 1.03.83.86 1.28 2.01A6.5 6.5 0 0 1 2.6.43Q1.7 1.92.27 2.55v-.22q.71-.4 1.18-1.09t.7-1.73q.2-1.06.2-2.22 0-1.26-.18-2.28-.14-.8-.36-1.29a4.4 4.4 0 0 0-1.54-1.8m0 0"/>
    <path id="aJ" d="M1.28-7.5q0-.2.11-.33a.4.4 0 0 1 .3-.12q.39 0 .69.72.15.42.37.53.23.1.44.1.36 0 .54-.17.2-.16.36-.57.25-.61.6-.61.18 0 .3.12.12.13.12.31 0 .46-.6.85-.58.39-1.3.39a2.5 2.5 0 0 1-1.46-.34 1 1 0 0 1-.47-.88m.77 5.86 2.3-2.69q0-.44-.16-.62t-.55-.17v-.24h2.49v.24q-.4 0-.54.07a1 1 0 0 0-.2.2q-.08.12-.08.76v2.84q0 .6.07.73t.2.22.54.08V0H3.56v-.22q.48 0 .64-.17.17-.19.17-.86v-2.53L2.05-1.1q0 .5.12.68.15.2.56.2V0H.27v-.22q.51 0 .65-.19.15-.18.16-.84v-2.84q0-.62-.06-.74a.5.5 0 0 0-.2-.2q-.14-.1-.55-.1v-.23h2.59v.24q-.4 0-.53.07a1 1 0 0 0-.22.2q-.06.12-.06.76Zm0 0"/>
    <path id="aK" d="M2.81 0v-.22q.56-.04.69-.28.15-.24.14-.97v-1.22q-.38 0-.5.1-.13.08-.42.65L1.7 0H.14v-.22q.4-.03.61-.23t.56-.92a6 6 0 0 1 .8-1.32 1 1 0 0 1 .55-.26q-.37-.14-.68-.96a2 2 0 0 0-.25-.48.3.3 0 0 0-.23-.13q-.1 0-.3.07-.24.1-.4.1a.5.5 0 0 1-.38-.15.6.6 0 0 1-.12-.4q0-.24.2-.38t.48-.14a1 1 0 0 1 .75.3q.3.27.57 1 .24.7.56.92.33.2.78.2v-.87q0-.76-.16-.99-.14-.21-.67-.26v-.24h2.64v.24q-.53.04-.68.28-.16.21-.16.96V-3q.46 0 .78-.2.31-.23.56-.92.33-.9.66-1.1.34-.2.66-.2.34 0 .51.15.2.16.19.38 0 .24-.14.39-.13.15-.36.16-.15 0-.4-.11a1 1 0 0 0-.29-.07q-.18 0-.26.13-.09.1-.24.48-.31.82-.67.96.3.03.55.28.25.23.78 1.28.35.74.56.94t.63.23V0H6.55l-1-1.94q-.3-.57-.42-.65-.14-.1-.52-.1v1.22q0 .84.17 1.02.2.18.67.23V0Zm0 0"/>
    <path id="aS" d="M1.4-7.92h6.54v.22q-.74.01-.94.23-.2.21-.2.99v4.39q0 1.28.14 1.57t.95.3v2.5h-.2A4 4 0 0 0 7.12.9Q6.75.36 6.24.17A4 4 0 0 0 5.06 0H3.05Q1.72 0 1.09.72a3 3 0 0 0-.75 1.56H.16v-2.5q.94-.07 1.51-1.12.6-1.04.81-2.57.24-1.53.24-2.5 0-.6-.14-.86-.15-.27-.35-.34a3 3 0 0 0-.82-.1Zm1.91.44q-.15 3.45-.56 4.86a6 6 0 0 1-1.1 2.18H4.6q.78 0 .93-.12.15-.15.15-.9v-6.02Zm0 0"/>
    <path id="aT" d="M3.72 2.34v.22q-.9-.45-1.49-1.04a6 6 0 0 1-1.75-4.4q0-1.8.9-3.3T3.72-8.3v.25q-.72.38-1.19 1.1-.45.68-.69 1.74-.23 1.05-.23 2.2 0 1.26.2 2.27.16.8.36 1.3.22.48.58.93.37.45.97.86m0 0"/>
    <path id="bd" d="M2.45-4.25h3.7v-2.27q0-.6-.09-.8a.5.5 0 0 0-.25-.24q-.25-.14-.53-.14H5v-.22h3.4v.22h-.3q-.28 0-.52.12a.5.5 0 0 0-.27.3 3 3 0 0 0-.06.76v5.11q0 .62.08.8.06.15.23.25.27.14.55.14h.28V0H5v-.22h.28q.49 0 .7-.28.15-.19.16-.9v-2.41H2.45v2.4q0 .62.08.8.06.15.25.25.26.14.53.14h.28V0H.2v-.22h.28q.49 0 .72-.28.15-.19.14-.9v-5.12q0-.6-.07-.8a.5.5 0 0 0-.25-.24Q.77-7.7.48-7.7H.2v-.22h3.4v.22H3.3q-.28 0-.53.12a.5.5 0 0 0-.26.3 3 3 0 0 0-.07.76Zm0 0"/>
    <path id="bv" d="M.6-5.8v-2.3h.2q.09.4.43.4.13 0 .55-.16.66-.25 1.38-.25.98 0 1.57.6a1.9 1.9 0 0 1 .14 2.6q-.43.52-1.18.75.8.14 1.3.74t.5 1.37q0 1-.77 1.61Q3.97.2 2.84.2 1.17.19.25-1.41l.2-.12q.3.48.86.84.57.35 1.22.35.78 0 1.2-.52.44-.53.44-1.28t-.54-1.3q-.55-.53-1.8-.53v-.39q.89 0 1.33-.19a1.6 1.6 0 0 0 1.01-1.58q0-.63-.39-1.04-.4-.4-1.06-.4-.84 0-1.3.5Q.95-6.6.8-5.8Zm0 0"/>
    <path id="bz" d="M.27 0v-.22q.48 0 .64-.17.17-.19.17-.86v-2.84q0-.62-.06-.74a.5.5 0 0 0-.2-.2q-.14-.1-.55-.1v-.23h2.59v.24q-.4 0-.53.07a1 1 0 0 0-.22.2q-.06.12-.06.76v2.95q0 .55.1.66.08.1.66.1h.63q.37 0 .48-.04.12-.05.16-.14t.04-.7V-4.1q0-.62-.07-.74a.5.5 0 0 0-.2-.2q-.14-.1-.54-.1v-.23H5.8v.24a1 1 0 0 0-.47.1.4.4 0 0 0-.2.25q-.05.14-.05.68v3.01q0 .5.1.61t.62.1h.7q.57 0 .6-.13.06-.12.06-.73V-4.1q0-.62-.07-.74a.5.5 0 0 0-.2-.2q-.12-.1-.55-.1v-.23h2.6v.24q-.41 0-.53.07a1 1 0 0 0-.2.2q-.09.12-.09.76v2.51q0 .8.05.99.05.17.2.26.16.1.57.11v1.7h-.22a1.6 1.6 0 0 0-.45-1.1Q7.87 0 6.78 0Zm0 0"/>
    <path id="bH" d="M5.52-4.05q.82.17 1.23.57.56.53.56 1.3 0 .6-.37 1.15-.36.53-1.02.78A6 6 0 0 1 3.94 0H.2v-.22h.3q.5 0 .7-.31.15-.2.14-.88v-5.1q0-.76-.17-.94Q.95-7.7.5-7.7H.2v-.22h3.43q.94 0 1.53.14.87.21 1.32.75a1.8 1.8 0 0 1 .11 2.3q-.36.46-1.07.68m-3.05-.3q.2.04.48.05l.61.02q.86 0 1.28-.17.44-.2.66-.57.24-.37.23-.84 0-.69-.57-1.17-.57-.5-1.64-.5-.6 0-1.05.12Zm0 3.77q.67.15 1.33.16 1.06 0 1.6-.47.57-.48.57-1.17 0-.46-.25-.9a1.6 1.6 0 0 0-.83-.66 4 4 0 0 0-1.39-.25l-.62.01-.41.03Zm0 0"/>
    <path id="bI" d="M.48-3.12H3.5v.87H.48Zm0 0"/>
    <path id="bJ" d="M5.28-4.06v-2.4q0-.67-.08-.85-.07-.2-.33-.28-.24-.1-.73-.11v-.22h3.4v.22q-.48 0-.73.1a.6.6 0 0 0-.33.3q-.07.2-.07.85v4.98q0 .69.09.88a.6.6 0 0 0 .33.28q.23.07.72.1V0h-3.4v-.22q.5-.01.72-.1a.5.5 0 0 0 .32-.29q.1-.18.1-.86v-2.12q-1.49.65-2.4.65-.7 0-1.14-.26-.42-.3-.53-.61-.11-.33-.11-1.3v-1.34q0-.66-.1-.86a.5.5 0 0 0-.32-.3q-.25-.1-.72-.1v-.21h3.42v.22q-.5 0-.77.1-.26.12-.32.33-.07.22-.07.82v1.1q0 .77.08 1.1.09.31.36.48.26.18.69.18.87 0 1.92-.47m0 0"/>
    <path id="bK" d="M7.94-.22V0H5.89a40 40 0 0 0-1.4-2 11 11 0 0 0-1.3-1.64 1.4 1.4 0 0 0-.7-.17v2.37q0 .8.2 1t.94.22V0H.21v-.22q.73 0 .94-.22.2-.2.2-1v-5.04q0-.78-.2-.99T.22-7.7v-.22h3.4v.22q-.73.01-.93.23-.2.21-.2.99v2.21q.6 0 .87-.09.25-.07.55-.36t.48-.6q.19-.32.47-1.07.27-.68.42-.95.17-.3.53-.47.37-.2.88-.2.9 0 .9.62 0 .23-.18.39a.6.6 0 0 1-.4.16q-.17 0-.54-.2a2 2 0 0 0-.49-.15q-.18 0-.32.2a6 6 0 0 0-.43.99Q4.7-4.5 3.81-4.1q.53.08 1.47 1.46 1 1.44 1.47 1.92.46.5 1.19.5m0 0"/>
    <path id="ci" d="M2.66-1.87H2.4q.04-.75.18-1.22.15-.48.6-1.35.34-.65.45-1t.11-.72q0-.76-.4-1.18a1.2 1.2 0 0 0-.96-.44q-.52 0-.81.25-.28.24-.28.51 0 .23.17.54.17.3.17.48 0 .2-.14.34a.4.4 0 0 1-.31.14q-.25 0-.46-.23-.2-.25-.2-.67 0-.68.56-1.17.58-.52 1.55-.52 1.2 0 1.77.7.42.52.42 1.14 0 .43-.19.88-.19.46-.72 1.06a7 7 0 0 0-1.04 1.36q-.2.4-.22 1.1m-.1.73a.64.64 0 0 1 .66.66q0 .26-.19.45a.6.6 0 0 1-.47.19.6.6 0 0 1-.45-.2.6.6 0 0 1-.19-.44q0-.3.19-.47a.6.6 0 0 1 .45-.2m0 0"/>
    <path id="d" d="M3.7-1.03 3.33 0H.17v-.14q1.4-1.28 1.96-2.08T2.7-3.7q0-.5-.3-.83a1 1 0 0 0-.76-.33q-.4 0-.7.24a1.3 1.3 0 0 0-.47.67H.33q.08-.75.5-1.13.42-.39 1.03-.39.64 0 1.08.42t.44.99q0 .4-.2.81-.29.64-.95 1.36A24 24 0 0 1 1.02-.6H2.4q.43 0 .59-.04a1 1 0 0 0 .31-.12q.15-.1.25-.28Zm0 0"/>
    <path id="e" d="M3.92-9.72.56.18H.02l3.36-9.9Zm0 0"/>
    <path id="f" d="M1.08-5.48.7-7.52Q.55-8.36.55-8.64q0-.43.17-.64.18-.2.5-.2.3 0 .5.2t.2.53q0 .26-.17 1.25l-.37 2.02Zm0 0"/>
    <path id="g" d="M.75 2.33v-.3q.7-.23 1.08-.72T2.22.28q0-.15-.06-.22Q2.1 0 2.06 0a1 1 0 0 0-.33.13 1 1 0 0 1-.25.06A.8.8 0 0 1 .94 0a.8.8 0 0 1-.19-.55q0-.34.25-.57a1 1 0 0 1 .63-.25q.45 0 .8.4.35.39.35 1.03 0 .7-.48 1.32-.49.6-1.55.95m0 0"/>
    <path id="h" d="m1.64-8.36 2.25-1.1h.22v7.82q0 .78.06.98.08.2.28.3t.83.11V0H1.8v-.25q.65-.01.84-.1a.6.6 0 0 0 .27-.28q.07-.16.07-1.01v-5q0-1.02-.06-1.3a.5.5 0 0 0-.17-.31.5.5 0 0 0-.31-.1q-.25 0-.7.2Zm0 0"/>
    <path id="j" d="M1.75-1.33q.3 0 .53.24.22.21.22.53 0 .3-.22.53a.78.78 0 0 1-1.08 0 .7.7 0 0 1-.22-.53q0-.33.22-.55a.8.8 0 0 1 .55-.22m0 0"/>
    <path id="k" d="M3.64-7.87 3.1-6.02h1.08l-.1.43H3L1.81-1.56q-.19.66-.19.84 0 .12.05.17.06.07.14.07.18 0 .46-.24.15-.14.73-.84l.22.17A5 5 0 0 1 2.03-.1q-.37.26-.76.26a.7.7 0 0 1-.5-.19.7.7 0 0 1-.2-.48q0-.37.23-1.14L1.94-5.6H.9l.06-.27q.75-.2 1.25-.6.5-.42 1.1-1.41Zm0 0"/>
    <path id="l" d="M2.44-6.19q.33.36.5.72.13.24.4 1.28l.6-.9a4 4 0 0 1 1.19-1.04 1 1 0 0 1 .35-.06q.3 0 .47.16.17.15.17.39t-.1.34a.6.6 0 0 1-.44.17q-.15 0-.3-.06-.33-.1-.44-.1-.15 0-.39.2-.42.34-1 1.37l.57 2.35q.12.54.2.65t.19.1q.14 0 .32-.16.38-.3.64-.81l.25.1Q5.2-.65 4.54-.13q-.37.3-.64.31-.38 0-.6-.44a17 17 0 0 1-.6-2.3 10 10 0 0 1-1.7 2.4Q.57.17.18.17a.7.7 0 0 1-.5-.2.5.5 0 0 1-.17-.4q0-.23.15-.38.16-.15.36-.16.22 0 .47.22.2.15.28.16.08 0 .2-.11.33-.26.88-1.11.54-.87.72-1.25l-.46-1.75q-.16-.45-.4-.64a1.3 1.3 0 0 0-.75-.2l-.36.03v-.24Zm0 0"/>
    <path id="m" d="M6.58-6.02 5.39-1.95q-.26.9-.26 1.15 0 .13.04.2.05.04.11.04.12 0 .27-.1t.7-.86l.2.16q-.54.86-1.1 1.27-.39.26-.72.26A.6.6 0 0 1 4.2.02a.6.6 0 0 1-.14-.4q0-.22.08-.6.1-.52.63-2.2A13 13 0 0 1 2.83-.56q-.8.72-1.45.72a.7.7 0 0 1-.54-.22.8.8 0 0 1-.21-.56q0-.51.3-1.58l.59-2.1q.21-.76.21-.94 0-.08-.06-.14t-.1-.07q-.17 0-.3.11-.15.09-.64.75L.4-4.72q.5-.8 1.09-1.17.43-.3.8-.3.25 0 .4.17.17.17.17.41 0 .36-.28 1.31l-.64 2.22q-.27.9-.26 1.14 0 .13.08.2.1.08.23.08.23 0 .6-.21.35-.24.95-1 .6-.78 1-1.46.38-.69.84-2.17l.14-.52Zm0 0"/>
    <path id="n" d="M5.4-1.48A5 5 0 0 1 3.94-.23q-.72.4-1.51.4-.97 0-1.52-.55a2 2 0 0 1-.55-1.48q0-1.05.58-2.05.6-1 1.58-1.64t1.94-.64q.73 0 1.1.32.36.3.37.76 0 .42-.25.72a.6.6 0 0 1-.47.23.5.5 0 0 1-.5-.48 1 1 0 0 1 .05-.24q.04-.1.21-.26l.2-.22a.2.2 0 0 0 .04-.14q0-.15-.14-.25a1 1 0 0 0-.55-.12q-.67 0-1.33.46-.64.48-1.12 1.35-.55 1.05-.55 2.1 0 .7.4 1.1.37.4 1.07.4.51 0 1.03-.26.51-.27 1.16-.95Zm0 0"/>
    <path id="q" d="M2.23-6.19q.24.39.33.75.1.35.17 1.35l.32 3.37q.4-.5 1.18-1.56a21 21 0 0 0 1.33-2.19 1 1 0 0 0 .05-.22q0-.08-.05-.12a1 1 0 0 0-.25-.11.7.7 0 0 1-.34-.24 1 1 0 0 1-.13-.4q0-.28.16-.46a.6.6 0 0 1 .4-.17q.32 0 .52.25.22.26.22.69 0 .55-.37 1.23-.37.7-1.43 2.13Q3.3-.45 1.81 1.25A8 8 0 0 1 .28 2.7q-.5.32-.86.32a.5.5 0 0 1-.36-.16.5.5 0 0 1-.17-.38q0-.27.24-.48.22-.22.46-.22.15 0 .24.06.05.03.1.2.07.16.13.21.03.05.08.05t.14-.08q.37-.23.88-.74Q1.8.82 2.13.4l-.38-4.33q-.09-1.08-.3-1.31-.19-.24-.64-.23-.15 0-.5.04l-.06-.25Zm0 0"/>
    <path id="s" d="M1.17-6.02h4.35v.16L.78-.94h2q.72 0 .9-.04a1 1 0 0 0 .35-.24q.17-.17.36-.64h.27L4.06 0H-.39v-.2l4.72-4.92H2.38q-.63 0-.75.03a1 1 0 0 0-.4.21q-.19.18-.37.58H.59Zm0 0"/>
    <path id="K" d="M2.19-9.27h3.64q1.41 0 2.12.63.72.6.72 1.5 0 .7-.45 1.37-.45.66-1.33 1.08-.9.41-1.92.4-.64 0-1.63-.23l-.73 2.54q-.27.89-.27 1.18 0 .23.2.36.17.15.87.19L3.34 0H-.33l.06-.25Q.47-.25.75-.5q.3-.24.6-1.37L2.9-7.16a6 6 0 0 0 .27-1.26.5.5 0 0 0-.2-.4q-.2-.16-.85-.2Zm1.26 4.32q.78.2 1.25.2.74 0 1.35-.3.6-.3.95-.92.36-.62.36-1.3t-.44-1.07q-.41-.4-1.28-.41-.45 0-1.12.1Zm0 0"/>
    <path id="at" d="M4.52-8.77 3.47-5.1h.86q.93 0 1.34-.28t.72-1.05h.25L5.7-3.08h-.27q.13-.42.13-.72a1 1 0 0 0-.13-.47.6.6 0 0 0-.33-.26q-.2-.1-.87-.1h-.88l-.89 3.08q-.15.45-.14.68 0 .17.17.3.13.1.58.1h.83q1.33 0 2.13-.47a4 4 0 0 0 1.43-1.64h.25L6.83 0H-.31l.1-.25q.51 0 .7-.1a1 1 0 0 0 .4-.3q.19-.3.44-1.2l1.62-5.59q.2-.66.2-1.03 0-.25-.2-.39-.17-.15-.7-.16h-.14l.08-.25h6.64l-.56 2.24H8q.06-.3.06-.53a1 1 0 0 0-.19-.61q-.23-.31-.67-.47a6 6 0 0 0-1.51-.13Zm0 0"/>
    <path id="bf" d="m3.08-6.19-.9 3.11a15 15 0 0 1 1.94-2.5q.69-.6 1.32-.6.33 0 .56.23a.8.8 0 0 1 .22.58q0 .4-.2 1.09l-.83 2.87q-.14.5-.14.61t.04.18q.07.06.13.06.08 0 .2-.1.36-.27.78-.87l.22.12q-.65.9-1.2 1.3-.4.28-.7.28a.6.6 0 0 1-.43-.15.6.6 0 0 1-.14-.43q0-.33.24-1.12l.8-2.75q.13-.51.13-.8 0-.14-.09-.22a.3.3 0 0 0-.2-.1 1 1 0 0 0-.47.18q-.5.3-1.05 1.02-.54.7-1.15 1.8-.31.6-.54 1.27L1.3 0H.27L1.5-4.28q.22-.76.22-.92t-.13-.27a.4.4 0 0 0-.28-.1h-.3l-.24.05-.05-.25Zm0 0"/>
    <path id="t" d="M.25-3.94h7.16v.67H.25Zm0 0"/>
    <path id="u" d="M.25-5.19h7.16v.66H.25Zm0 2.55h7.16v.67H.25Zm0 0"/>
    <path id="bF" d="M.4 0v-.75l5.76-2.84L.4-6.45v-.72l6.86 3.39v.36Zm0 0"/>
    <path id="ch" d="M7.27-7.17v.75L1.53-3.6 7.27-.72V0L.4-3.4v-.35Zm0 0"/>
    <path id="F" d="M1.4-3.58q.2.21.29.4.08.16.23.76l.35-.52q.14-.18.32-.36.21-.17.36-.23a.4.4 0 0 1 .2-.05q.17 0 .27.1.1.09.11.21 0 .17-.06.2a.3.3 0 0 1-.25.12.4.4 0 0 1-.17-.05l-.25-.06q-.1 0-.22.1a3 3 0 0 0-.6.8L2.31-.8q.08.32.13.38.04.06.1.06.08 0 .2-.1.2-.16.37-.46l.14.06q-.25.47-.64.78-.23.18-.36.17-.23 0-.36-.25-.08-.15-.34-1.32Q.95-.4.56-.11A.7.7 0 0 1 .1.1Q-.06.1-.19 0a.3.3 0 0 1-.1-.24q0-.14.1-.22.09-.1.2-.1.14 0 .27.13.11.1.16.1t.12-.07q.2-.13.5-.64.33-.5.42-.72-.23-.96-.26-1.01-.09-.27-.24-.36a.7.7 0 0 0-.42-.11H.34v-.14Zm0 0"/>
    <path id="H" d="M1.3-3.58q.12.23.17.44.06.19.1.78l.18 1.94q.23-.28.69-.9a18 18 0 0 0 .76-1.26l.03-.14q0-.03-.03-.06l-.14-.06a1 1 0 0 1-.19-.14.4.4 0 0 1-.07-.24q0-.16.1-.25a.3.3 0 0 1 .23-.1q.15 0 .3.15.11.14.12.39 0 .31-.22.72T2.5-1.1Q1.9-.26 1.03.7q-.6.68-.89.85a1 1 0 0 1-.48.19.3.3 0 0 1-.2-.1.3.3 0 0 1-.1-.21q0-.16.12-.28a.4.4 0 0 1 .29-.13q.07 0 .12.03l.08.11.06.13q0 .03.05.03l.08-.05q.2-.13.5-.42.38-.4.56-.64L1-2.28q-.05-.63-.17-.75-.12-.15-.36-.14l-.3.03-.03-.16Zm0 0"/>
    <path id="I" d="M.67-3.48H3.2v.09L.45-.53h1.16q.4 0 .51-.03a.4.4 0 0 0 .2-.14q.1-.1.23-.38h.14L2.34 0H-.22v-.1L2.5-2.96H1.38l-.44.01a.4.4 0 0 0-.22.13 1 1 0 0 0-.22.33H.34Zm0 0"/>
    <path id="T" d="M4.5-8.72 3.45-5.08h.86q.93 0 1.33-.28.42-.28.72-1.05h.25l-.95 3.35h-.27q.13-.42.13-.72a1 1 0 0 0-.13-.47.7.7 0 0 0-.33-.25q-.2-.1-.86-.1h-.87l-.9 3.05q-.12.45-.12.68 0 .19.16.3.12.1.58.1h.8q1.34 0 2.13-.47.8-.47 1.43-1.62h.26L6.8 0H-.31l.1-.25q.51 0 .7-.1a1 1 0 0 0 .39-.3q.18-.29.43-1.18l1.63-5.56q.19-.67.19-1.03 0-.25-.2-.4-.16-.15-.7-.15H2.1l.08-.25h6.61L8.22-7h-.25q.05-.3.05-.52a1 1 0 0 0-.2-.6q-.21-.32-.66-.47a5 5 0 0 0-1.5-.13Zm0 0"/>
    <path id="Z" d="m4.44-5.23 2.28 3.51q.6.94 1 1.2.4.27 1.06.27L8.7 0H4.78l.06-.25q.48-.04.66-.22.2-.19.2-.4 0-.2-.08-.4-.04-.13-.39-.67L3.37-4.87l-.9 3.06q-.22.74-.22.98 0 .25.19.4.19.14.94.18L3.27 0H-.37l.09-.25q.52 0 .7-.1a1 1 0 0 0 .4-.3q.18-.3.45-1.16l1.6-5.56q.2-.64.2-1.04 0-.27-.18-.42t-.67-.14h-.14l.08-.25H5.6l-.06.25q-.42 0-.64.1a1 1 0 0 0-.43.37q-.14.22-.4 1.13l-.7 2.35 3.26-2.46q.66-.49.86-.79.1-.16.1-.3t-.12-.24a.7.7 0 0 0-.37-.16l.06-.25h2.96l-.07.25a4 4 0 0 0-1.48.58q-.12.06-1.33 1.02Zm0 0"/>
    <path id="af" d="M1.08-5.45.7-7.47Q.55-8.3.55-8.59q0-.44.17-.63.18-.2.48-.2.32 0 .5.2.2.2.2.52 0 .24-.17 1.23l-.35 2.02Zm0 0"/>
    <path id="ap" d="M1.4-3.58q.2.21.29.4.08.16.23.76l.35-.52q.14-.18.32-.36.21-.17.36-.23a.4.4 0 0 1 .2-.05q.17 0 .27.1.1.09.11.21 0 .17-.06.2a.3.3 0 0 1-.25.12.4.4 0 0 1-.17-.05l-.25-.06q-.1 0-.22.1a3 3 0 0 0-.6.8L2.31-.8q.08.32.13.38.04.06.1.06.08 0 .2-.1.2-.16.37-.46l.14.06q-.25.47-.64.78-.23.18-.36.17-.23 0-.36-.25-.08-.15-.34-1.32Q.95-.4.56-.11A.7.7 0 0 1 .1.1Q-.06.1-.19 0a.3.3 0 0 1-.1-.24q0-.14.1-.22.09-.1.2-.1.14 0 .27.13.11.1.16.1t.12-.07q.2-.13.5-.64.33-.5.42-.72-.23-.96-.26-1.01-.09-.27-.24-.36a.7.7 0 0 0-.42-.11H.34v-.14Zm0 0"/>
    <path id="ar" d="M1.3-3.58q.12.23.17.44.06.19.1.78l.18 1.94q.23-.28.69-.9a18 18 0 0 0 .76-1.26l.03-.14q0-.03-.03-.06l-.14-.06a1 1 0 0 1-.19-.14.4.4 0 0 1-.07-.24q0-.16.1-.25a.3.3 0 0 1 .23-.1q.15 0 .3.15.11.14.12.39 0 .31-.22.72T2.5-1.1Q1.9-.26 1.03.7q-.6.68-.89.85a1 1 0 0 1-.48.19.3.3 0 0 1-.2-.1.3.3 0 0 1-.1-.21q0-.16.12-.28a.4.4 0 0 1 .29-.13q.07 0 .12.03l.08.11.06.13q0 .03.05.03l.08-.05q.2-.13.5-.42.38-.4.56-.64L1-2.28q-.05-.63-.17-.75-.12-.15-.36-.14l-.3.03-.03-.16Zm0 0"/>
    <path id="as" d="M.67-3.48H3.2v.09L.45-.53h1.16q.4 0 .51-.03a.4.4 0 0 0 .2-.14q.1-.1.23-.38h.14L2.34 0H-.22v-.1L2.5-2.96H1.38l-.44.01a.4.4 0 0 0-.22.13 1 1 0 0 0-.22.33H.34Zm0 0"/>
    <path id="ay" d="m2.64-5.28-.78 2.66a12 12 0 0 1 1.67-2.15q.57-.51 1.13-.51.27 0 .46.19.2.18.2.5 0 .35-.16.93L4.44-1.2q-.13.44-.13.53 0 .08.05.14.05.05.1.05.07 0 .18-.08.3-.25.67-.75l.17.1q-.54.8-1.01 1.12-.34.23-.61.23A.4.4 0 0 1 3.52 0q-.13-.12-.13-.34 0-.29.19-.97l.69-2.35q.12-.44.12-.68a.3.3 0 0 0-.08-.2.3.3 0 0 0-.18-.07 1 1 0 0 0-.4.14q-.44.27-.9.88-.45.6-.99 1.54-.26.51-.45 1.08L1.11 0H.23L1.3-3.66q.18-.65.18-.8a.3.3 0 0 0-.1-.21.4.4 0 0 0-.25-.11l-.25.03-.22.03-.04-.2Zm0 0"/>
    <path id="aA" d="m2.64-5.28-.4 1.34q.63-.75 1.13-1.04.51-.3 1.02-.3.53 0 .9.4.36.42.37 1.08 0 1.29-1.05 2.61Q3.56.14 2.17.14q-.3 0-.51-.06a2 2 0 0 1-.5-.24L.72 1.36q-.13.43-.13.58 0 .12.07.22.08.08.21.14.16.04.61.04l-.04.22h-2.75l.04-.22q.55-.03.74-.18.18-.16.4-.91l1.47-5.12q.15-.49.14-.6 0-.15-.09-.23-.1-.1-.28-.1l-.47.03v-.21ZM1.28-.61q.36.42.99.42.3 0 .6-.15.32-.18.61-.5.32-.35.55-.78t.42-1.02q.2-.6.2-1.17 0-.46-.21-.72-.23-.25-.5-.25-.63 0-1.25.73-.6.72-.9 1.7Zm0 0"/>
    <path id="aC" d="M1.17-5.16h6.3v.47h-6.3Zm0 1.91h6.3v.47h-6.3Zm0 0"/>
    <path id="aD" d="M3.06-6.75h1.77l-.13.47H2.92L1.88-2.64a10 10 0 0 1 1.71-2.17q.62-.48 1.05-.47.3 0 .49.2.18.19.18.53t-.15.9L4.44-1.2q-.13.44-.13.5 0 .18.14.18.3 0 .86-.8l.17.12Q4.56.15 3.88.14q-.26 0-.38-.16a.6.6 0 0 1-.1-.35q0-.24.2-.94l.67-2.33q.12-.44.12-.67 0-.28-.26-.28-.54 0-1.46 1.26a8 8 0 0 0-1.22 2.24L1.11 0H.23l1.82-6.28h-.99l.13-.47h1q.17-.62.17-.75 0-.3-.38-.3l-.5.05v-.22l1.85-.34h.17Zm0 0"/>
    <path id="aE" d="m3.94-5.28-.08.3q-1.28.05-1.9 1.34a6 6 0 0 0-.6 2.39q0 .48.2.75a.7.7 0 0 0 .58.27q.84 0 1.61-1.35l-.03-.65a4 4 0 0 1 .26-1.55q.27-.64.68-.64.38 0 .39.4 0 .82-1.05 2.5.12 1.24 1.02 1.24.87 0 1.42-1.22.54-1.24.54-2.31 0-1.04-1.09-1.17l.06-.25q1.01.09 1.49.67.47.56.47 1.33 0 1.14-.77 2.26T5.2.14q-1.25 0-1.4-1.33Q2.98.14 2 .14q-.69 0-1.14-.5t-.44-1.4q0-.77.31-1.52.33-.75.9-1.22.57-.48 1.06-.62t1.25-.16m0 0"/>
    <path id="aF" d="M4.56-8.31.11.19h-.52l4.49-8.5Zm0 0"/>
    <path id="aG" d="M4.63-1.28Q4-.54 3.39-.2q-.6.34-1.3.34-.82 0-1.3-.47a1.7 1.7 0 0 1-.46-1.25q0-.9.5-1.76t1.34-1.4a3 3 0 0 1 1.66-.54q.63 0 .95.26.3.28.31.64 0 .37-.21.63a.5.5 0 0 1-.41.2.4.4 0 0 1-.3-.1.4.4 0 0 1-.12-.32q0-.1.04-.2.05-.09.2-.22.13-.12.15-.19l.03-.12q0-.13-.11-.2a1 1 0 0 0-.47-.13q-.58 0-1.14.4-.57.42-.95 1.15-.5.9-.49 1.8 0 .6.33.95.34.34.94.34.45 0 .89-.22.44-.21.98-.81Zm0 0"/>
    <path id="aM" d="m7.64-6.2.1-.25q1.13 0 1.73.4t.75 1.27-.2 1.9q-.3.9-.9 1.61-.6.74-1.34 1.11T6.5.22q-.6 0-.9-.34T5.2-1.2q-.62.72-1.22 1.07a2.3 2.3 0 0 1-1.17.34q-.51 0-.95-.36a1.7 1.7 0 0 1-.53-1.14 4 4 0 0 1 .22-1.66 5.6 5.6 0 0 1 2.1-2.76q.6-.4 1.18-.58.6-.17 1.4-.17l-.09.25q-.99.09-1.87.9a5.4 5.4 0 0 0-1.43 2.36q-.51 1.55-.3 2.25.15.45.66.44.44 0 .94-.36.5-.35 1.1-1.28-.02-.8.01-1.19.05-.38.17-.75.22-.65.7-1.14.23-.24.44-.23t.28.23q.14.45-.07 1.1-.3.8-1.14 1.98-.06.94.2 1.26.25.32.7.32.53 0 1-.4.63-.57 1.16-2.12.62-1.86.1-2.75-.3-.54-1.15-.62m0 0"/>
    <path id="aQ" d="M7.23-3.64a3.4 3.4 0 0 1-2.03-.5q-.72-.51-.95-1.53a3.4 3.4 0 0 1 .1-1.9q.29-.92 1.17-1.52a3.3 3.3 0 0 1 1.93-.63q.83 0 1.33.49.52.46.6 1.51t-.66 3.14q.48.1.6.38.13.44-.15 1.26l-.1.27h-.26q.2-.57.06-.75-.1-.2-.53-.22a10 10 0 0 1-.67 1.47A7 7 0 0 1 6.5-.67a3.7 3.7 0 0 1-2.52.89q-.94 0-1.42-.31-.45-.33-.51-.85-.02-.33.2-1.1.23-.79.16-1-.09-.21-.33-.21-.13 0-.38.08l-.01-.24q.56-.18.95-.18.4 0 .6.15.24.23.26.6.03.3-.22 1.07-.22.79 0 1.15.22.37.81.37.55 0 1.11-.31t1.02-.94a9 9 0 0 0 1.01-2.14m.35-.95.19-.47q.43-1.28.57-2.35.15-1.07-.14-1.46-.28-.4-.84-.4-.66 0-1.22.49-.57.48-.95 1.65-.48 1.35-.13 1.97t1.4.61q.33 0 1.12-.04m0 0"/>
    <path id="aO" d="m2.44-7.7.14-.58q.15-.53.01-.61a2 2 0 0 0-.75-.08v-.25l2.04-.36q0 .35-.1.67l-.33 1.2h2v.57H3.3L2.22-3.22q1.42-2.35 2.86-2.95.7-.3 1.08.31.25.42.1.95l-.92 3.38q-.18.63-.18.87 0 .25.4.1.24-.08.52-.5l.34-.47q.15-.15.17 0 .01.13-.14.34-.37.54-.67.83-.3.3-.72.45-.43.16-.76-.12-.32-.3-.11-1.05l1.03-3.7q.15-.56-.08-.72-.26-.15-.6.05-.78.46-1.66 1.8-.89 1.35-1.24 2.63L1.36 0H.33l1.95-7.14H.84l.04-.56Zm0 0"/>
    <path id="aY" d="M1.25 2.19V-7.95h2.34v.25h-.25q-.38 0-.53.08a1 1 0 0 0-.2.23q-.06.15-.06.75V.92q0 .57.03.66.05.2.19.3.16.1.57.1h.25v.2Zm0 0"/>
    <path id="aZ" d="M4.95 0H.3v-.12a26 26 0 0 0 2.6-3.44q.45-.9.46-1.74 0-.61-.4-1.03-.37-.4-.91-.4-.9 0-1.4.9L.45-5.9q.3-1.12.95-1.65.64-.55 1.49-.55a2.14 2.14 0 0 1 2.15 1.97q0 .78-.44 1.58-.57 1.1-2.57 3.03h1.71q.63 0 .82-.05.2-.06.3-.19.14-.11.34-.53h.22Zm0 0"/>
    <path id="ba" d="M1.5 0v-.22q.36 0 .48-.17.15-.2.15-.73v-3.99h-.55q-.58 0-.8.2t-.34.86H.22v-1.43h5.44v1.43h-.2q-.12-.6-.32-.83t-.83-.23h-.56v3.99q0 .56.13.73.13.18.5.17V0Zm0 0"/>
    <path id="bb" d="M2.73-7.95V2.19H.4v-.22h.27q.38 0 .51-.08a.5.5 0 0 0 .19-.23q.08-.16.08-.74v-7.58q0-.55-.02-.64a1 1 0 0 0-.2-.3q-.15-.12-.56-.12H.39v-.23Zm0 0"/>
    <path id="bl" d="M5.55-3.97q0 1.2-.33 2.22-.2.63-.55 1.03-.33.41-.76.66-.44.23-.93.23-.57 0-1.04-.3a3 3 0 0 1-.8-.84A4 4 0 0 1 .7-2.03Q.44-2.92.44-3.88q0-1.3.36-2.39.3-.88.9-1.36t1.28-.48q.69 0 1.29.47t.89 1.26q.38 1.1.39 2.41m-1.8-.01q0-2.1-.03-2.44-.05-.8-.28-1.1-.15-.18-.47-.18-.25 0-.4.14-.21.2-.29.72-.08.51-.08 3.62 0 1.7.11 2.25.1.42.25.56.17.15.44.14.3 0 .44-.18.25-.33.28-1.02Zm0 0"/>
    <path id="bm" d="M1.5-1.81q.4 0 .69.3.28.27.28.68t-.28.69a1 1 0 0 1-.69.28q-.4 0-.69-.28a1 1 0 0 1-.28-.69q0-.4.28-.69.28-.3.69-.3m0 0"/>
    <path id="bn" d="m2.13.17 2.15-6.56H2.64a3 3 0 0 0-1.45.25q-.35.18-.56.66H.4l.56-2.47H5.7L3.03.17Zm0 0"/>
    <path id="bo" d="M1.83-7.95h3.7l-.6 1.51h-3.1l-.3.8q2.02.08 3.1 1 .89.76.89 1.92 0 .72-.43 1.42A3 3 0 0 1 3.94-.2q-.75.37-1.66.37A2.5 2.5 0 0 1 .8-.2Q.43-.45.44-.78a.6.6 0 0 1 .19-.44q.18-.2.43-.2.23 0 .47.1.23.08.8.48.36.25.6.34a1 1 0 0 0 .41.08q.48 0 .82-.35t.34-.85q0-1.04-1.03-1.68a5 5 0 0 0-2.6-.64H.42Zm0 0"/>
    <path id="bN" d="M6.03-7.95h2.64v.22q-.41.04-.67.3-.26.27-.67 1.09L4.88-1.5A4 4 0 0 1 3.86-.08q-.42.27-1 .27-.64 0-.97-.35-.31-.35-.31-.78 0-.33.22-.56a.8.8 0 0 1 .56-.23q.33 0 .47.17.15.16.2.58.08.51.42.51.4 0 .78-.8l.11-.23L1.5-6.66a3 3 0 0 0-.62-.84 1.6 1.6 0 0 0-.77-.23v-.22h3.95v.22h-.15q-.7 0-.7.32 0 .13.13.38l1.99 3.6 1.5-2.94q.3-.61.31-.88 0-.2-.19-.33-.18-.14-.92-.15Zm0 0"/>
    <path id="bO" d="M6.48-5.48v.21q-.39.06-.51.22-.12.15-.11.7v3.27q0 .52.12.69.14.15.5.17V0H3.7v-.22q.36 0 .44-.19.08-.2.08-.64V-5.1H2.66v4.03q0 .54.1.7.12.16.43.16V0H.4v-.22q.35 0 .48-.17.13-.19.13-.77v-3.26q0-.55-.15-.69-.13-.15-.46-.16v-.21Zm0 0"/>
    <path id="bP" d="M3.31-3.03h.42q1.4 0 2.13.4.75.4.75 1.15 0 .46-.31.8t-.88.5A5 5 0 0 1 4.06 0H1.1v-.22q.34-.04.46-.22t.12-.67v-4h-.12q-.51 0-.77.24-.25.23-.36.82H.2v-1.43h3.7v.21q-.36.07-.48.25-.1.18-.1.66Zm0 .37v1.7q0 .33.08.46.1.14.38.14.45 0 .78-.31.34-.31.34-.86 0-1.13-1.58-1.13m0 0"/>
    <path id="bQ" d="M.42-5.48h3.02q.95 0 1.54.34.61.35.61 1.01 0 .91-1.25 1.24 1.7.19 1.7 1.4 0 .75-.7 1.13Q4.65 0 3.47 0H.42v-.22q.4-.05.5-.19.1-.13.1-.57v-3.27q0-.65-.11-.81t-.49-.2Zm2.31 2.45q1.4-.04 1.4-1.05T2.73-5.1Zm0 .36v1.8q0 .28.1.4t.37.11q.5 0 .85-.34.34-.36.34-.9 0-.56-.39-.8-.37-.27-1.27-.27m0 0"/>
    <path id="bR" d="M3.42-.81q-1 .9-1.8.89-.46 0-.78-.31Q.54-.55.54-1q0-.62.52-1.12.55-.51 2.36-1.35v-.55q0-.62-.08-.78a.75.75 0 0 0-.67-.4q-.38 0-.62.17-.15.11-.14.25 0 .12.15.3.22.26.22.5 0 .28-.22.48a.7.7 0 0 1-.54.2 1 1 0 0 1-.63-.22.7.7 0 0 1-.23-.53q0-.41.32-.8.33-.38.93-.59.59-.2 1.25-.2.75 0 1.21.33t.6.72q.08.25.08 1.12v2.13q0 .37.03.48t.08.14q.06.05.14.05.15 0 .3-.22l.18.14q-.29.44-.6.64-.3.2-.71.19-.47 0-.74-.22a1 1 0 0 1-.3-.67m0-.42v-1.85q-.7.42-1.06.9-.22.32-.22.63 0 .29.19.49.16.15.4.15.3 0 .7-.32m0 0"/>
    <path id="bS" d="M.4 0v-.22q.35 0 .48-.17.14-.17.14-.66V-4.4q0-.51-.15-.68-.12-.18-.46-.18v-.21h2.78v.21q-.29.03-.4.16-.14.14-.13.64v1.44h1.56v-1.44q0-.4-.1-.6-.07-.2-.42-.2v-.21h2.77v.21q-.33 0-.47.18t-.14.56v3.48q0 .52.12.68.15.13.49.15V0H3.7v-.22q.29 0 .4-.12.12-.14.12-.68v-1.64H2.66v1.61q0 .52.12.68.13.15.4.15V0Zm0 0"/>
    <path id="bT" d="M5.03-2.94h-3q.07 1.1.58 1.72.41.5.97.49.36 0 .64-.2.29-.19.6-.7l.21.13q-.44.9-.98 1.3Q3.5.17 2.8.17 1.6.17.97-.78q-.5-.75-.5-1.88 0-1.36.73-2.17a2.3 2.3 0 0 1 1.74-.81q.82 0 1.44.69.6.68.65 2.01M3.6-3.33q0-.93-.1-1.28a1 1 0 0 0-.32-.55.5.5 0 0 0-.33-.1q-.3 0-.5.3Q2-4.44 2-3.54v.2Zm0 0"/>
    <path id="bU" d="M2-5.64q.4 0 .69.3.28.28.28.67 0 .4-.28.7a1 1 0 0 1-.69.28q-.4 0-.69-.28a1 1 0 0 1-.28-.7q0-.4.28-.67.29-.3.69-.3m0 3.83q.4 0 .69.3.28.27.28.68t-.3.69A1 1 0 0 1 2 .14q-.4 0-.7-.28a1 1 0 0 1-.28-.69q0-.4.28-.69.3-.3.7-.3m0 0"/>
    <path id="bw" d="M.3-2.64q0-.92.26-1.58.28-.65.74-.98.36-.25.73-.25.6 0 1.11.62.6.77.61 2.11 0 .93-.28 1.58-.26.64-.69.94-.4.3-.8.3Q1.23.1.72-.82.3-1.56.3-2.64m.76.1q0 1.11.27 1.8.23.59.67.58.21 0 .44-.18.23-.2.36-.64a8 8 0 0 0-.02-3.44q-.14-.45-.36-.64a.6.6 0 0 0-.39-.14q-.27 0-.48.25-.29.33-.4 1.03-.09.7-.09 1.37m0 0"/>
    <path id="cn" d="M3.7-1.03 3.33 0H.17v-.14q1.4-1.28 1.96-2.08.57-.81.57-1.47 0-.51-.3-.84a1 1 0 0 0-.76-.33q-.4 0-.7.24-.32.23-.47.67H.33q.08-.72.5-1.11.4-.4 1.01-.4.65 0 1.1.43.44.41.44.97 0 .4-.2.81-.29.64-.95 1.36A33 33 0 0 1 1.02-.6H2.4q.42 0 .59-.04a1 1 0 0 0 .31-.12q.14-.1.24-.28Zm0 0"/>
    <path id="by" d="M4.52-8.75 3.45-5.09h.88q.91 0 1.33-.29.42-.27.71-1.04h.25L5.7-3.06H5.4q.12-.44.12-.74a1 1 0 0 0-.12-.45.6.6 0 0 0-.33-.27q-.2-.09-.86-.09h-.9l-.88 3.06q-.13.45-.13.68 0 .17.17.3.11.1.58.1h.82Q5.2-.47 6-.94a4 4 0 0 0 1.44-1.64h.25L6.8 0H-.3l.1-.25q.51 0 .7-.1a1 1 0 0 0 .4-.3q.17-.29.42-1.18l1.63-5.6q.19-.66.19-1a.5.5 0 0 0-.2-.41Q2.77-9 2.26-9h-.14l.08-.25H8.8l-.58 2.23h-.25q.05-.3.05-.53 0-.36-.17-.6-.24-.32-.67-.47a6 6 0 0 0-1.5-.13Zm0 0"/>
    <path id="bC" d="M6.56-6.02 5.38-1.94q-.27.9-.27 1.14 0 .13.05.2.04.04.12.04.11 0 .25-.1t.7-.84l.2.16Q5.9-.5 5.34-.1q-.36.25-.72.25A.6.6 0 0 1 4.19 0a.5.5 0 0 1-.14-.37q0-.24.1-.61.09-.52.6-2.2A13 13 0 0 1 2.81-.57q-.76.72-1.43.72a.8.8 0 0 1-.54-.2.8.8 0 0 1-.21-.57q0-.51.3-1.56l.59-2.11q.21-.76.21-.94 0-.08-.06-.14a.2.2 0 0 0-.12-.06q-.16 0-.28.1-.15.1-.64.76L.4-4.72q.51-.78 1.07-1.16.45-.3.82-.3.25 0 .4.16t.16.43q0 .36-.27 1.3l-.64 2.21q-.27.9-.26 1.14 0 .13.08.2.1.08.23.08.21 0 .58-.21.37-.24.97-1 .6-.78 1-1.46.38-.68.83-2.15l.15-.54Zm0 0"/>
    <path id="bD" d="M5.38-1.48q-.7.84-1.43 1.25-.72.38-1.53.39-.97 0-1.51-.53a2 2 0 0 1-.53-1.47q0-1.05.57-2.05a5 5 0 0 1 1.57-1.64q.98-.64 1.93-.64.75 0 1.11.31.38.31.38.75 0 .45-.27.74a.6.6 0 0 1-.47.23.5.5 0 0 1-.36-.14.5.5 0 0 1-.12-.34 1 1 0 0 1 .05-.24q.05-.1.2-.26.17-.15.2-.22l.03-.14a.3.3 0 0 0-.12-.25 1 1 0 0 0-.56-.13q-.68 0-1.33.47-.64.47-1.11 1.33-.56 1.05-.56 2.1 0 .7.39 1.1.4.4 1.07.4.53 0 1.05-.24.51-.27 1.16-.97Zm0 0"/>
    <path id="bE" d="m3.08-6.17-.9 3.1q1.26-1.9 1.93-2.5.7-.6 1.31-.6.35 0 .56.23a.8.8 0 0 1 .22.58q0 .4-.18 1.1L5.17-1.4q-.14.48-.14.6 0 .09.05.17.06.06.12.06.08 0 .2-.1.36-.27.79-.87l.22.14q-.65.9-1.2 1.28-.4.27-.71.27A.6.6 0 0 1 4.1 0q-.15-.15-.15-.4 0-.33.22-1.13l.8-2.74q.15-.5.16-.8 0-.13-.1-.21a.3.3 0 0 0-.22-.1 1 1 0 0 0-.45.16q-.5.31-1.05 1.02-.54.7-1.15 1.8-.31.6-.54 1.27L1.29 0H.27L1.5-4.27q.22-.78.22-.93t-.13-.25a.4.4 0 0 0-.28-.13l-.3.03-.24.05-.05-.25Zm0 0"/>
    <path id="bW" d="M3.9-9.7.57.19H.02l3.34-9.9Zm0 0"/>
    <path id="bX" d="m1.64-8.34 2.24-1.1h.23v7.82q0 .76.06.96a.5.5 0 0 0 .27.3q.19.1.83.11V0H1.8v-.25q.65-.01.84-.1a.6.6 0 0 0 .27-.28q.07-.15.07-1v-5q0-1-.07-1.3a.5.5 0 0 0-.18-.3.5.5 0 0 0-.3-.11q-.25 0-.7.21Zm0 0"/>
    <path id="cd" d="M.5-4.56q0-1.6.47-2.74.48-1.14 1.28-1.7.6-.44 1.27-.44 1.05 0 1.9 1.08Q6.47-7 6.47-4.72A7 7 0 0 1 6-1.98Q5.54-.85 4.83-.34q-.72.5-1.4.5-1.3 0-2.18-1.55A6.3 6.3 0 0 1 .5-4.56m1.34.15q0 1.93.47 3.13Q2.7-.26 3.47-.27q.36 0 .75-.32.4-.33.6-1.11.33-1.17.32-3.32a9 9 0 0 0-.33-2.64 2.4 2.4 0 0 0-.64-1.1q-.27-.22-.67-.22-.45 0-.81.4-.5.59-.67 1.8-.18 1.2-.18 2.37m0 0"/>
    <path id="cr" d="M6.4-1.78 5.74 0H.3v-.25a24 24 0 0 0 3.37-3.6q.99-1.38.99-2.54 0-.87-.54-1.44a1.7 1.7 0 0 0-1.28-.56q-.69 0-1.23.4-.53.4-.8 1.16H.56q.17-1.26.88-1.94a2.5 2.5 0 0 1 1.76-.67q1.13 0 1.88.72t.75 1.7q0 .7-.33 1.41a9 9 0 0 1-1.64 2.34 42 42 0 0 1-2.11 2.24h2.4q.75 0 1.04-.05t.53-.22.42-.48Zm0 0"/>
    <path id="bZ" d="m7.63-6.19.09-.25q1.16 0 1.73.4.6.41.74 1.27T10-2.87q-.32.88-.9 1.62-.6.72-1.33 1.1-.74.37-1.29.37-.6 0-.9-.34A2 2 0 0 1 5.2-1.2q-.62.72-1.22 1.07-.6.34-1.17.34-.51 0-.97-.36-.44-.37-.51-1.14t.22-1.64a5.4 5.4 0 0 1 3.28-3.35q.6-.16 1.4-.17l-.09.25q-.99.1-1.87.9a5.4 5.4 0 0 0-1.43 2.35q-.53 1.55-.3 2.25.15.45.66.44.42 0 .92-.36.53-.35 1.11-1.28 0-.8.02-1.19.04-.39.16-.73.23-.68.68-1.14.25-.25.46-.25t.26.25q.15.43-.08 1.1a8 8 0 0 1-1.1 1.96q-.05.94.18 1.26.25.32.7.32.55 0 1-.4.63-.57 1.15-2.1.63-1.86.1-2.75-.3-.55-1.13-.63m0 0"/>
    <path id="cb" d="m2.42-7.69.16-.56q.15-.53.01-.6-.12-.1-.75-.1v-.25l2.02-.35q0 .33-.08.66l-.34 1.2h2v.57H3.3l-1.08 3.9q1.42-2.32 2.86-2.94.7-.3 1.06.32.24.42.11.95l-.92 3.37q-.2.62-.19.86 0 .25.4.1.25-.08.52-.5.3-.42.35-.46.15-.14.17 0 0 .14-.14.33-.38.54-.67.83-.3.3-.72.45-.44.16-.77-.12-.31-.3-.1-1.05l1.04-3.7q.14-.57-.1-.7-.26-.16-.57.03-.79.48-1.67 1.83-.89 1.32-1.25 2.6L1.36 0H.33l1.94-7.12H.84l.04-.57Zm0 0"/>
    <path id="ck" d="m4.4-3.58.05-.14q.67 0 1 .24a1 1 0 0 1 .42.71q.1.5-.1 1.11-.18.5-.52.93a2.2 2.2 0 0 1-1.5.86q-.34 0-.52-.2A1 1 0 0 1 3-.68q-.37.43-.7.63a1.4 1.4 0 0 1-.67.19 1 1 0 0 1-.57-.2Q.81-.3.76-.74T.9-1.7a3 3 0 0 1 1.2-1.6q.36-.24.7-.33t.8-.1l-.04.14q-.57.06-1.08.53-.52.45-.83 1.35T1.48-.4q.06.27.36.26.25 0 .55-.2.3-.23.64-.75v-.68q.03-.23.1-.43.13-.4.4-.67.15-.13.25-.13.12 0 .17.13.06.26-.06.64-.15.45-.64 1.14-.02.54.1.73.15.2.42.19.3 0 .57-.25.36-.3.66-1.2.37-1.08.08-1.6-.2-.3-.67-.36m0 0"/>
    <path id="cv" d="M2.23-9.8h6.79v.27L1.77-.47h1.12q1.83 0 2.58-.17.76-.2 1.26-.64.5-.45.83-1.27h.28L7 0H-.03v-.2l7.26-9.07H5.2q-1.32 0-1.87.13-.54.1-.92.48-.38.36-.64 1.1H1.5Zm0 0"/>
    <path id="cz" d="m5.16-5.2 1.86-2.61q.73-1.04.73-1.32 0-.15-.16-.24-.15-.12-.89-.16l.08-.27h3.06l-.04.27q-.45.06-.63.12-.25.12-.5.35-.35.3-.98 1.19l-2.4 3.3-.71 2.43q-.28.9-.28 1.25 0 .22.08.34a1 1 0 0 0 .3.2q.27.08.84.08L5.44 0H1.33l.08-.27q.62 0 .82-.1.32-.13.47-.35.25-.32.52-1.19l.86-2.86-1.05-3.39q-.29-.89-.51-1.1-.24-.23-.83-.27l.08-.27h3.6l-.07.27q-.69.04-.78.1a.5.5 0 0 0-.27.2q-.1.13-.1.34 0 .3.22 1.02Zm0 0"/>
    <path id="cC" d="M7.63-9.8h3.3l-.07.27q-.7.1-1.23.44a8 8 0 0 0-1.41 1.26L5.67-5.22l.72 2.63q.1.37.38 1.15.15.51.34.72.17.21.44.33.26.11.8.12L8.26 0H4.42l.08-.27q.6 0 .86-.21.18-.15.19-.38 0-.2-.2-.89l-.68-2.47L2.4-1.9q-.67.7-.8.91-.09.15-.09.25 0 .23.22.36.1.07.62.12L2.27 0H-.98l.07-.27q.62-.05 1-.28.57-.34 1.58-1.36L4.5-4.77l-.77-2.82a5 5 0 0 0-.62-1.6q-.27-.3-.92-.34l.08-.27h3.5l-.1.27q-.48 0-.65.06t-.25.19a.5.5 0 0 0-.1.28q0 .18.17.81l.68 2.42L7.05-7.3q.9-.91 1.25-1.47a1 1 0 0 0 .1-.36.3.3 0 0 0-.12-.24q-.2-.15-.73-.16Zm0 0"/>
    <path id="cx" d="M1.14-5.8.75-7.94q-.18-.9-.17-1.2 0-.47.19-.67t.51-.2.53.21q.22.2.22.55 0 .27-.19 1.31L1.45-5.8Zm0 0"/>
    <path id="cE" d="M1.14-5.84.75-8Q.6-8.9.59-9.2q0-.47.2-.68.18-.21.5-.21.34 0 .54.21t.22.57q0 .27-.2 1.33l-.38 2.14Zm0 0"/>
    <path id="cG" d="M7.33-10.1q.98 0 1.73.43.76.42 1.17 1.26.45.84.44 1.72a7 7 0 0 1-.92 3.35A6.7 6.7 0 0 1 7.35-.7q-1.47.9-3.05.9-1.14 0-1.9-.5-.78-.48-1.15-1.32a4 4 0 0 1-.36-1.6q0-1.4.66-2.74a8 8 0 0 1 1.6-2.27A7 7 0 0 1 5.1-9.6q1.05-.48 2.22-.48m-.25.47q-.72 0-1.42.36-.69.37-1.38 1.2a8 8 0 0 0-1.22 2.12 8 8 0 0 0-.67 3.08q0 1.04.53 1.84t1.63.8q.64 0 1.3-.33.63-.33 1.32-1.13a8 8 0 0 0 1.44-2.54q.6-1.55.6-2.9 0-.98-.54-1.73-.5-.76-1.6-.77m0 0"/>
    <path id="cI" d="M6.98-6.4 5.72-2.07a6 6 0 0 0-.28 1.22q0 .12.04.18.05.07.13.07.12 0 .26-.11.15-.14.77-.9l.22.16q-.58.9-1.17 1.33-.41.28-.77.28-.3 0-.45-.15a.6.6 0 0 1-.16-.43q0-.22.1-.64.1-.54.65-2.34A14 14 0 0 1 3-.6q-.82.76-1.53.76a.8.8 0 0 1-.58-.23.8.8 0 0 1-.22-.58q0-.54.31-1.67l.63-2.25q.23-.82.23-1a.2.2 0 0 0-.06-.16q-.06-.06-.12-.06-.15 0-.32.1-.14.12-.68.82l-.22-.16q.55-.83 1.15-1.25.46-.3.85-.3a.6.6 0 0 1 .44.16.6.6 0 0 1 .17.44q0 .4-.28 1.4l-.7 2.35A6 6 0 0 0 1.8-1q0 .15.1.22.08.08.23.08.24 0 .62-.24.39-.22 1.03-1.06.64-.83 1.05-1.55.42-.7.89-2.3l.17-.56Zm0 0"/>
    <clipPath id="c">
      <path d="M304.46 753h.24v1h-.24Zm0 0"/>
    </clipPath>
    <clipPath id="i">
      <path d="M103.23 119H106v5h-2.77Zm0 0"/>
    </clipPath>
    <clipPath id="o">
      <path d="M94.95 122H102v8h-7.05Zm0 0"/>
    </clipPath>
    <clipPath id="p">
      <path d="M196 122h8v10.35h-8Zm0 0"/>
    </clipPath>
    <clipPath id="r">
      <path d="M221 122h8v10.35h-8Zm0 0"/>
    </clipPath>
    <clipPath id="v">
      <path d="M108.27 123H116v5h-7.73Zm0 0"/>
    </clipPath>
    <clipPath id="E">
      <path d="M138.27 214H143v5h-4.73Zm0 0"/>
    </clipPath>
    <clipPath id="G">
      <path d="M155 214h5v6.42h-5Zm0 0"/>
    </clipPath>
    <clipPath id="J">
      <path d="M131.67 205H141v10h-9.33Zm0 0"/>
    </clipPath>
    <clipPath id="S">
      <path d="M255.5 205h9.5v10h-9.5Zm0 0"/>
    </clipPath>
    <clipPath id="Y">
      <path d="M443.64 205H455v10h-11.36Zm0 0"/>
    </clipPath>
    <clipPath id="ab">
      <path d="M141.27 226H144v5h-2.73Zm0 0"/>
    </clipPath>
    <clipPath id="ac">
      <path d="M134.79 235H139v5h-4.21Zm0 0"/>
    </clipPath>
    <clipPath id="ad">
      <path d="M155 235h5v6.42h-5Zm0 0"/>
    </clipPath>
    <clipPath id="ae">
      <path d="M128.07 226H137v10h-8.93Zm0 0"/>
    </clipPath>
    <clipPath id="ag">
      <path d="M277.7 226h9.3v10h-9.3Zm0 0"/>
    </clipPath>
    <clipPath id="ak">
      <path d="M416.4 226h2.6v5h-2.6Zm0 0"/>
    </clipPath>
    <clipPath id="al">
      <path d="M404.05 226H415v10h-10.95Zm0 0"/>
    </clipPath>
    <clipPath id="aq">
      <path d="M206.18 281H210v5h-3.82Zm0 0"/>
    </clipPath>
    <clipPath id="au">
      <path d="M199.59 272H209v10h-9.41Zm0 0"/>
    </clipPath>
    <clipPath id="aL">
      <path d="M239.54 370H249v11h-9.46Zm0 0"/>
    </clipPath>
    <clipPath id="aN">
      <path d="M252.14 374H260v5h-7.86Zm0 0"/>
    </clipPath>
    <clipPath id="aP">
      <path d="M386 370h11.2v11H386Zm0 0"/>
    </clipPath>
    <clipPath id="aR">
      <path d="M470.52 373H478v8h-7.48Zm0 0"/>
    </clipPath>
    <clipPath id="aU">
      <path d="M394.2 388H406v8h-11.8Zm0 0"/>
    </clipPath>
    <clipPath id="aV">
      <path d="M511.56 385H523v11h-11.44Zm0 0"/>
    </clipPath>
    <clipPath id="aW">
      <path d="M125.07 403H137v8h-11.93Zm0 0"/>
    </clipPath>
    <clipPath id="aX">
      <path d="M231.62 400H243v11h-11.38Zm0 0"/>
    </clipPath>
    <clipPath id="be">
      <path d="M309.62 423H317v7h-7.38Zm0 0"/>
    </clipPath>
    <clipPath id="bg">
      <path d="M319.7 424h8.3v4h-8.3Zm0 0"/>
    </clipPath>
    <clipPath id="bh">
      <path d="M190.59 435H202v10h-11.41Zm0 0"/>
    </clipPath>
    <clipPath id="bi">
      <path d="M410.29 438H422v7h-11.71Zm0 0"/>
    </clipPath>
    <clipPath id="bj">
      <path d="M222.5 450H233v10h-10.5Zm0 0"/>
    </clipPath>
    <clipPath id="bk">
      <path d="M514.92 450H526v10h-11.08Zm0 0"/>
    </clipPath>
    <clipPath id="bp">
      <path d="M309.38 486H316v8h-6.62Zm0 0"/>
    </clipPath>
    <clipPath id="bq">
      <path d="M319.45 487H327v5h-7.55Zm0 0"/>
    </clipPath>
    <clipPath id="br">
      <path d="M186.27 498H197v11h-10.73Zm0 0"/>
    </clipPath>
    <clipPath id="bs">
      <path d="M419.29 498H422v5h-2.71Zm0 0"/>
    </clipPath>
    <clipPath id="bt">
      <path d="M222.5 513H233v10h-10.5Zm0 0"/>
    </clipPath>
    <clipPath id="bu">
      <path d="M514.92 513H526v10h-11.08Zm0 0"/>
    </clipPath>
    <clipPath id="bx">
      <path d="M280.1 543h9.9v10h-9.9Zm0 0"/>
    </clipPath>
    <clipPath id="bA">
      <path d="M152.55 563H157v11h-4.45Zm0 0"/>
    </clipPath>
    <clipPath id="bB">
      <path d="M119.07 566H126v7h-6.93Zm0 0"/>
    </clipPath>
    <clipPath id="bG">
      <path d="M437.16 566H444v7h-6.84Zm0 0"/>
    </clipPath>
    <clipPath id="bL">
      <path d="M276.14 595h11.52v11h-11.52Zm0 0"/>
    </clipPath>
    <clipPath id="bV">
      <path d="M267.38 640H272v11h-4.62Zm0 0"/>
    </clipPath>
    <clipPath id="bY">
      <path d="M254.18 643H266v8h-11.82Zm0 0"/>
    </clipPath>
    <clipPath id="ca">
      <path d="M247.22 640H254v11h-6.78Zm0 0"/>
    </clipPath>
    <clipPath id="cc">
      <path d="M169.1 658h6.9v11h-6.9Zm0 0"/>
    </clipPath>
    <clipPath id="ce">
      <path d="M148.47 662H155v7h-6.53Zm0 0"/>
    </clipPath>
    <clipPath id="cf">
      <path d="M158.55 661H166v8h-7.45Zm0 0"/>
    </clipPath>
    <clipPath id="cg">
      <path d="M232.34 658H239v11h-6.66Zm0 0"/>
    </clipPath>
    <clipPath id="cj">
      <path d="M443.04 688H450v5h-6.96Zm0 0"/>
    </clipPath>
    <clipPath id="cl">
      <path d="M508.44 682H520v8h-11.56Zm0 0"/>
    </clipPath>
    <clipPath id="cm">
      <path d="M357.01 706H361v6h-3.99Zm0 0"/>
    </clipPath>
    <clipPath id="co">
      <path d="M350.3 701h6.7v8h-6.7Zm0 0"/>
    </clipPath>
    <clipPath id="cp">
      <path d="M361.09 707H368v5h-6.91Zm0 0"/>
    </clipPath>
    <clipPath id="cq">
      <path d="M430.2 698h6.8v10h-6.8Zm0 0"/>
    </clipPath>
    <clipPath id="cs">
      <path d="M335.53 716H342v10h-6.47Zm0 0"/>
    </clipPath>
    <clipPath id="ct">
      <path d="M342 719h11.77v8H342Zm0 0"/>
    </clipPath>
    <clipPath id="cu">
      <path d="M284.66 156H294v11h-9.34Zm0 0"/>
    </clipPath>
    <clipPath id="cw">
      <path d="M405.37 170H408v5h-2.63Zm0 0"/>
    </clipPath>
    <clipPath id="cy">
      <path d="M393.97 170H403v11h-9.03Zm0 0"/>
    </clipPath>
    <clipPath id="cA">
      <path d="M437.04 32H440v6h-2.96Zm0 0"/>
    </clipPath>
    <clipPath id="cB">
      <path d="M451.92 100H464v11h-12.08Zm0 0"/>
    </clipPath>
    <clipPath id="cD">
      <path d="M515.4 101H528v10h-12.6Zm0 0"/>
    </clipPath>
    <clipPath id="cF">
      <path d="M391.09 103H402v11h-10.91Zm0 0"/>
    </clipPath>
    <clipPath id="cH">
      <path d="M447 127h7v8h-7Zm0 0"/>
    </clipPath>
  </defs>
  <path d="M345.01 118.2V39.83h3v78.35Zm1.44-78.36-7.44 6 7.44-15 7.56 15"/>
  <path d="m348.25 119.51-43.68 60.83-2.52-1.8 43.8-60.7Zm-44.87 60 9.48-.49-14.77 7.8 2.64-16.55"/>
  <path d="M346.45 117.23h105.71v3h-105.7Zm105.71 1.44-6-7.44 15 7.44-15 7.56"/>
  <path d="M413.05 118.2V39.83h3v78.35Zm1.56-78.36-7.56 6 7.56-15 7.44 15"/>
  <path d="m416.29 119.51-43.68 60.83-2.52-1.8 43.8-60.7Zm-44.88 60 9.6-.49-14.88 7.8 2.64-16.55"/>
  <path d="M414.6 117.23h105.6v3H414.6Zm105.6 1.44-6-7.44 15 7.44-15 7.56"/>
  <g clip-path="url(#cu)">
    <use xlink:href="#cv" x="284.66" y="166.43"/>
  </g>
  <g clip-path="url(#cw)">
    <use xlink:href="#cx" x="405.37" y="180.71"/>
  </g>
  <g clip-path="url(#cy)">
    <use xlink:href="#cv" x="393.97" y="180.71"/>
  </g>
  <use xlink:href="#cz" x="359.17" y="42.84"/>
  <g clip-path="url(#cA)">
    <use xlink:href="#cx" x="437.04" y="42.84"/>
  </g>
  <use xlink:href="#cz" x="425.28" y="42.84"/>
  <g clip-path="url(#cB)">
    <use xlink:href="#cC" x="452.88" y="110.03"/>
  </g>
  <use xlink:href="#cx" x="529.56" y="110.87"/>
  <g clip-path="url(#cD)">
    <use xlink:href="#cC" x="516.36" y="110.87"/>
  </g>
  <use xlink:href="#cE" x="403.69" y="113.27"/>
  <g clip-path="url(#cF)">
    <use xlink:href="#cG" x="391.09" y="113.27"/>
  </g>
  <use xlink:href="#cG" x="327.61" y="112.91"/>
  <g clip-path="url(#cH)">
    <use xlink:href="#cI" x="447" y="134.03"/>
  </g>
</svg>
