<svg xmlns="http://www.w3.org/2000/svg" viewBox="0 0 550 550">
<defs>
<pattern id="grid-fine" width="5" height="4" patternUnits="userSpaceOnUse" stroke="#808080">
<path d="M 10 0 L 0 0 0 10" stroke-width="0.55" fill="none"/>
</pattern>
<pattern id="grid-thick" width="50" height="40" patternUnits="userSpaceOnUse">
<rect width="50" height="40" fill="url(#grid-fine)"/>
<path d="M 50 0 L 0 0 0 50" stroke="#000000" stroke-width="1.3" fill="none"/>
</pattern>
<pattern id="tick-fine" width="5" height="8" patternUnits="userSpaceOnUse">
<line stroke="#000000" stroke-width="2" x1="0" y1="0" x2="0" y2="4" />
</pattern>
<pattern id="tick-thick" width="50" height="8" patternUnits="userSpaceOnUse">
<rect width="50" height="8" fill="url(#tick-fine)"/>
<line stroke="#000000" stroke-width="2" x1="0" y1="0" x2="0" y2="8" />
</pattern>
<pattern id="vtick-fine" width="10" height="4" patternUnits="userSpaceOnUse">
<line stroke="#000000" stroke-width="2" x1="5" y1="0" x2="10" y2="0" />
</pattern>
<pattern id="vtick-thick" width="10" height="40" patternUnits="userSpaceOnUse">
<rect width="10" height="40" fill="url(#vtick-fine)"/>
<line stroke="#000000" stroke-width="2" x1="0" y1="0" x2="10" y2="0" />
</pattern>
</defs>
<rect width="501" height="401" fill="url(#grid-thick)"/>
<line stroke="#000000" stroke-width="2" x1="0" y1="400" x2="500" y2="400"/>
<line stroke="#000000" stroke-width="2" x1="0" y1="0" x2="0" y2="400"/>
<rect x="0" y="400" width="501" height="8" fill="url(#tick-thick)"/>
<rect x="-10" y="0" width="10" height="401" fill="url(#vtick-thick)"/>
</svg>
