<svg xmlns="http://www.w3.org/2000/svg" xmlns:xlink="http://www.w3.org/1999/xlink" width="595.32" height="200" viewBox="0 0 595.32 200">
  <defs>
    <path id="a" d="m5.6-1.33-.33.35c-.38.37-.52.48-.63.48q-.16 0-.17-.16c0-.23.51-2.3 1.08-4.36l.08-.25-.1-.04-.73.1-.03.02-.14.58c-.1-.44-.44-.7-.96-.7-1.6 0-3.47 2.2-3.47 4.1C.2-.35.67.14 1.44.14c.84 0 1.37-.4 2.44-1.88a5 5 0 0 0-.29 1.38q-.02.5.49.5c.48 0 .76-.24 1.67-1.33ZM3.74-5.05c.41.03.7.32.7.74 0 1.01-.63 2.43-1.46 3.33-.28.32-.69.53-1.05.53-.44 0-.7-.35-.7-.9 0-.67.45-1.88.98-2.65.49-.69 1.03-1.08 1.53-1.05m0 0"/>
    <path id="b" d="M1.33-7.73c.73.01.78.06.78.32 0 .11-.02.24-.11.52-.02.06-.05.16-.05.22l-.03.1L.28-.56v.05c0 .27.92.63 1.61.63 1.83 0 3.83-2.1 3.83-3.99 0-.84-.6-1.45-1.4-1.45-.85 0-1.48.5-2.34 1.83.61-2.25.72-2.6 1.25-4.68l-.04-.06c-.63.11-.97.17-1.86.28Zm2.51 3.01c.54 0 .85.4.85 1.03 0 .8-.6 2.1-1.33 2.83-.44.47-.97.72-1.48.72q-.57 0-.57-.4c0-.74.38-1.9.88-2.79q.8-1.4 1.65-1.39m0 0"/>
    <path id="c" d="M4.88-7.86h-3.3v.2c.75.07.92.16.92.52q0 .26-.12.73L.89-1.08c-.22.69-.31.77-.98.9V0h6.15l.7-2.16-.24-.06c-.43.86-.75 1.25-1.29 1.52-.42.2-.92.26-1.98.26-.9 0-1.2-.1-1.2-.4 0-.1.04-.35.12-.6l1.49-5.34c.17-.61.48-.83 1.21-.88Zm0 0"/>
    <path id="d" d="M.53-3.84q0-2.31.94-3.57.72-.95 1.72-.95.97 0 1.65.9.96 1.28.96 3.44 0 2.1-.94 3.27-.74.94-1.72.94-.56 0-.98-.25-.45-.27-.79-.75a4 4 0 0 1-.53-1.05 6 6 0 0 1-.3-1.98m4.13-.43q0-1.53-.3-2.45a2 2 0 0 0-.6-1.03 1 1 0 0 0-.62-.22q-.4 0-.75.31a2 2 0 0 0-.5 1.05 13 13 0 0 0-.23 2.34Zm-3 .4A15 15 0 0 0 1.8-2q.11.65.36 1.1.15.3.42.5.3.18.61.18.38 0 .72-.34.34-.36.52-1.14.17-.79.2-2.17Zm0 0"/>
    <path id="f" d="M3.98-5.37h1l-.98 2q-.36.75-.52 1.14l-.17.34-.67 1.45.06.69.02.58q0 .8-.13 1.23-.08.32-.21.42a.5.5 0 0 1-.3.11.5.5 0 0 1-.35-.17.6.6 0 0 1-.14-.4q0-.46.18-1.05T2.3-.36q-.41-3-.68-3.62-.25-.63-.7-.63a.6.6 0 0 0-.46.17q-.15.16-.24.75H0v-.26q0-.81.31-1.22a.8.8 0 0 1 .66-.31.8.8 0 0 1 .58.21q.3.3.54 1.3.31 1.32.49 2.85l.51-1.75q.34-1.18.9-2.5m0 0"/>
    <path id="e" d="M3.02-3.44H.36v.8h2.66V0h.8v-2.64h2.63v-.8H3.81v-2.65h-.8Zm0 0"/>
    <path id="g" d="M6.14-2.66H-.1v-.43h6.25Zm0 0"/>
    <path id="h" d="M.52-3.83q0-2.29.93-3.53.72-.94 1.7-.94a2 2 0 0 1 1.65.9q.95 1.26.95 3.42 0 2.04-.94 3.25-.72.92-1.7.92-.56 0-.98-.25-.45-.27-.79-.75-.33-.48-.51-1.03a6 6 0 0 1-.31-1.99m4.09-.4q0-1.53-.28-2.46-.24-.7-.6-1a1 1 0 0 0-.62-.23q-.41 0-.73.31-.33.31-.52 1.05-.18.72-.22 2.33Zm-2.97.37q0 1.05.16 1.88.09.62.34 1.09.14.28.42.48.29.2.61.2.38 0 .7-.35.34-.36.52-1.13.17-.78.22-2.17Zm0 0"/>
    <path id="i" d="M5.31-5.5q1.13.14 1.47.92a2.6 2.6 0 0 1-.01 1.88q-.18.5-.49.97A5 5 0 0 1 4.91-.31q-.38.22-.77.34-.27.08-.72.13l-.81 2.42h-.66L2.77.16Q1.89.07 1.5-.4q-.67-.81-.19-2.27a4.4 4.4 0 0 1 2.63-2.71q.26-.09.72-.13l.93-2.8h.66Zm-.78.36q-.42.1-.67.25-.44.27-.8.75t-.64 1.33q-.3.92-.26 1.51.02.58.3.88.09.15.42.23Zm-1 4.95q.39-.08.64-.23.45-.26.81-.77.36-.5.66-1.39.28-.81.28-1.37.02-.57-.22-.86-.14-.2-.51-.33Zm0 0"/>
  </defs>
  <use xlink:href="#a" x="203.39" y="50.91"/>
  <path d="M195.94 30.16v13.8h-.6v-13.8Zm2.47 9.97-2.77 4.4-2.76-4.4a.3.3 0 0 1 .09-.42.3.3 0 0 1 .42.1l2.5 3.99h-.5l2.5-4a.3.3 0 0 1 .42-.1.3.3 0 0 1 .1.42m0 0"/>
  <use xlink:href="#b" x="130.38" y="127.97"/>
  <path fill="#7f7f7f" fill-rule="evenodd" stroke="#000" stroke-linejoin="round" stroke-miterlimit="10" stroke-width="1.8" d="M67.5 111.7c0 5.64 4.43 10.2 9.9 10.2s9.9-4.56 9.9-10.2-4.43-10.2-9.9-10.2-9.9 4.57-9.9 10.2ZM67.5 28.6a9.9 9.9 0 1 0 19.8 0 9.9 9.9 0 0 0-19.8 0Zm0 0" transform="matrix(1.00356 0 0 -.99791 100.8 167.97)"/>
  <path d="M195.94 55.86v85.1h-.6v-85.1Zm-3.06 3.84 2.76-4.4 2.77 4.4a.3.3 0 0 1-.1.41.3.3 0 0 1-.41-.09l-2.51-4h.5l-2.5 4a.3.3 0 0 1-.42.1.3.3 0 0 1-.1-.42m5.53 77.42-2.77 4.4-2.76-4.4a.3.3 0 0 1 .09-.41.3.3 0 0 1 .42.1l2.5 3.99h-.5l2.5-4a.3.3 0 1 1 .5.32m0 0"/>
  <use xlink:href="#c" x="204.19" y="84.36"/>
  <path d="M141.15 104.96v34.8h-.6v-34.8Zm-3.07 3.84 2.77-4.4 2.76 4.4a.3.3 0 0 1-.09.41.3.3 0 0 1-.42-.1l-2.51-3.99h.51l-2.51 4a.3.3 0 0 1-.51-.32m5.53 27.13-2.76 4.4-2.77-4.4a.3.3 0 0 1 .1-.42.3.3 0 0 1 .41.1l2.51 4h-.51l2.51-4a.3.3 0 0 1 .42-.1.3.3 0 0 1 .1.42m0 0"/>
  <path d="M147.67 104.7H101.1v-.6h46.56Zm0-.3-2.01-2 6.02 2-6.02 2Zm0 0"/>
  <g clip-path="url(#clip-0)">
    <path fill="none" stroke="#000" stroke-dasharray="2.4024 1.8018" stroke-linejoin="round" stroke-miterlimit="10" stroke-width=".6" d="m163.5 63.75-115.2.55" transform="matrix(1.00356 0 0 -.99791 100.8 167.97)"/>
  </g>
  <path fill="none" stroke="#000" stroke-linejoin="round" stroke-miterlimit="10" stroke-width=".6" d="M159.7 42.75 110.1 56.5" transform="matrix(1.00356 0 0 -.99791 100.8 167.97)"/>
  <path d="m151.09 104.1 6.13.13 3.02.07 2.98.08 2.91.1 2.83.11 2.74.14 2.61.15 1.26.08 1.2.09 2.26.16 2.15.18 2.07.2 2.06.23 2.1.28 2.2.34 1.15.18 1.2.21 2.47.47 2.54.54 2.6.6 2.66.63 5.43 1.38 1.63.43-.15.58-1.62-.43-5.43-1.37-2.65-.64-2.6-.59-2.53-.54-2.46-.47-1.19-.2-1.14-.2-2.18-.33-2.1-.28-2.04-.23-2.07-.2-2.15-.17-2.26-.17-1.2-.08-1.24-.08-2.61-.16-2.73-.13-2.83-.11-2.9-.1-2.98-.08-3.02-.07-6.13-.13Zm58.13 7.07-1.43-2.44 5.31 3.46-6.34.4Zm0 0"/>
  <path fill="none" stroke="#000" stroke-dasharray="2.4024 1.8018" stroke-linejoin="round" stroke-miterlimit="10" stroke-width=".6" d="m147.9 27.15-115.2.55M98.7 112.9H77.1M97.5 123.1H75.9" transform="matrix(1.00356 0 0 -.99791 100.8 167.97)"/>
  <path fill="none" stroke="#000" stroke-linejoin="round" stroke-miterlimit="10" stroke-width=".6" d="M122.09 64.23c.11-3.57-.5-7.13-1.75-10.47" transform="matrix(1.00356 0 0 -.99791 100.8 167.97)"/>
  <use xlink:href="#d" x="230.79" y="115.22"/>
  <use xlink:href="#e" x="173.39" y="163.32"/>
  <use xlink:href="#f" x="180.04" y="163.32"/>
  <use xlink:href="#g" x="167.94" y="37.69"/>
  <use xlink:href="#f" x="176.4" y="37.69"/>
  <path fill="#f2f2f2" fill-rule="evenodd" d="m402.71 139.52 10.45-97.46 10.45 97.46Zm0 0"/>
  <g clip-path="url(#clip-1)">
    <path fill="none" stroke="#000" stroke-linejoin="round" stroke-miterlimit="10" stroke-width=".6" d="m45.3.9 10.5 98.4L66.3.9Zm0 0" transform="matrix(.99499 0 0 -.99044 357.64 140.4)"/>
  </g>
  <g clip-path="url(#clip-2)">
    <path d="M404.1 93.46h-46.16v-.59h46.16Zm0-.3-1.99-1.98 5.98 1.99-5.98 1.98Zm0 0"/>
  </g>
  <path d="m462.91 110.21-44.17-14.38.19-.57 44.17 14.39Zm.09-.28-1.27-2.5 5.06 3.73-6.3.04Zm0 0"/>
  <path fill="none" stroke="#000" stroke-dasharray="2.4024 1.8018" stroke-linejoin="round" stroke-miterlimit="10" stroke-width=".6" d="m101.1 47.14-50.4.56" transform="matrix(.99499 0 0 -.99044 357.64 140.4)"/>
  <use xlink:href="#h" x="451.32" y="104.48"/>
  <path fill="none" stroke="#000" stroke-linejoin="round" stroke-miterlimit="10" stroke-width=".6" d="M89.69 47.02c.1-3.57-.49-7.12-1.75-10.47M59.1 70.1a27 27 0 0 0-6.82.03" transform="matrix(.99499 0 0 -.99044 357.64 140.4)"/>
  <use xlink:href="#i" x="409.6" y="83.86"/>
  <path fill="none" stroke="#000" stroke-linejoin="round" stroke-miterlimit="10" stroke-width=".6" d="m50.1 47.7 11.38-1.95" transform="matrix(.99499 0 0 -.99044 357.64 140.4)"/>
</svg>
