<svg xmlns="http://www.w3.org/2000/svg" xmlns:xlink="http://www.w3.org/1999/xlink" width="654.7" height="446.62" viewBox="0 0 654.7 446.62">
  <defs>
    <path id="a" d="M1.75.15Q.9.15.58-.55a4 4 0 0 1-.3-1.68q0-.6.1-1.14t.44-.91q.33-.38.93-.38.46 0 .75.23.3.23.45.57.15.36.21.77a7 7 0 0 1-.05 1.98q-.12.54-.45.9-.32.35-.91.36m0-.18q.39 0 .58-.4.18-.39.23-.88a12 12 0 0 0 0-2q-.04-.44-.23-.8a.6.6 0 0 0-.58-.37.6.6 0 0 0-.59.37q-.18.36-.24.8A11 11 0 0 0 1-.89q.08.36.27.6.18.27.48.26m0 0"/>
    <path id="c" d="M.35 0v-.19l.01-.03 1.09-1.2.4-.46q.15-.17.3-.4t.24-.49.09-.52q0-.29-.1-.54a1 1 0 0 0-.33-.42 1 1 0 0 0-.5-.16q-.3 0-.55.18a1 1 0 0 0-.34.48l.07-.01q.16 0 .27.1.1.1.11.27T1-3.1A.4.4 0 0 1 .73-3a.4.4 0 0 1-.27-.11.4.4 0 0 1-.1-.28q0-.25.09-.48t.28-.42a1.3 1.3 0 0 1 .92-.37q.4 0 .74.17t.55.48A1.3 1.3 0 0 1 3-2.7q-.14.27-.35.5a6 6 0 0 1-.53.5l-.42.38-.8.76h1.5q.34 0 .36-.03.08-.1.17-.65h.2L2.94 0Zm0 0"/>
    <path id="e" d="M.2-1.15v-.25l2.16-3.22q.01-.04.07-.04h.1q.08 0 .08.08v3.18h.68v.25h-.68v.68q0 .15.2.19t.48.03V0H1.36v-.25q.26 0 .47-.03.21-.05.21-.19v-.68Zm.23-.25h1.66v-2.47Zm0 0"/>
    <path id="g" d="M1.75.15q-.44 0-.73-.23-.3-.22-.45-.6-.15-.36-.21-.76a6 6 0 0 1-.07-.82q0-.54.22-1.11.21-.56.63-.92.42-.37 1-.37.23 0 .43.1a1 1 0 0 1 .33.26q.12.18.12.42 0 .15-.1.24a.3.3 0 0 1-.23.1q-.15 0-.24-.1a.3.3 0 0 1-.1-.23q0-.14.1-.24.09-.1.24-.1h.03a.5.5 0 0 0-.25-.18.87.87 0 0 0-.73.03q-.17.09-.32.25-.14.15-.24.34t-.15.43q-.06.25-.07.46v.53q.12-.28.34-.47A1 1 0 0 1 1.81-3a1.3 1.3 0 0 1 1 .48 1.8 1.8 0 0 1 .2 1.87q-.19.37-.51.58-.34.22-.75.22m0-.22q.27 0 .43-.12t.24-.33q.07-.2.1-.4a6 6 0 0 0-.02-1.2 1 1 0 0 0-.2-.48q-.19-.22-.51-.22a.6.6 0 0 0-.47.2q-.19.18-.27.48a2 2 0 0 0-.08.7v.03q0 .3.06.61t.24.52q.16.21.48.21m0 0"/>
    <path id="i" d="M.3-1.06q0-.42.27-.74.26-.33.71-.54l-.26-.17a1.1 1.1 0 0 1-.54-.97q0-.32.18-.6t.47-.42.62-.16q.3 0 .6.13.28.12.47.36.2.24.19.56 0 .23-.12.44t-.3.36q-.2.17-.4.27l.4.26q.26.19.44.48.17.3.17.61-.01.37-.2.7-.2.3-.55.47-.33.17-.7.17T1.05 0Q.72-.13.5-.42.3-.69.3-1.06m.37 0q0 .28.15.5a1 1 0 0 0 .4.36q.26.13.53.13.4 0 .73-.24a.7.7 0 0 0 .34-.63.83.83 0 0 0-.2-.5l-.21-.18-.94-.6q-.22.12-.4.3t-.3.4-.1.46m.48-2.14.85.55q.3-.16.48-.41a.83.83 0 0 0-.29-1.28 1 1 0 0 0-.87-.03 1 1 0 0 0-.36.25q-.15.15-.14.37 0 .34.33.55m0 0"/>
    <path id="b" d="M.65 0v-.25q.87 0 .87-.22v-3.67a2 2 0 0 1-.91.18v-.25q.85 0 1.3-.45H2q.03 0 .05.02l.02.05v4.12q0 .22.88.22V0Zm0 0"/>
    <path id="d" d="M.66-.54q.17.24.45.36.27.1.59.11.4 0 .57-.34.18-.35.18-.8 0-.18-.04-.38a1 1 0 0 0-.12-.37 1 1 0 0 0-.24-.28.6.6 0 0 0-.36-.1h-.46q-.06 0-.06-.07v-.06q0-.05.06-.05l.39-.03a.5.5 0 0 0 .4-.18q.17-.2.24-.46.08-.26.08-.5 0-.33-.16-.55a.6.6 0 0 0-.48-.22q-.27 0-.51.1a1 1 0 0 0-.39.3h.05q.16 0 .27.11.1.11.1.26t-.1.27a.4.4 0 0 1-.27.1q-.16 0-.26-.1a.4.4 0 0 1-.1-.27q0-.3.17-.51.19-.22.47-.34a1.5 1.5 0 0 1 1.02-.05q.23.06.42.18t.32.3.12.42a1.2 1.2 0 0 1-.49.97 2 2 0 0 1-.5.27q.3.06.57.23.28.17.44.43.17.28.17.58 0 .4-.22.7-.21.31-.55.49a1.7 1.7 0 0 1-1.39.04Q.71-.09.5-.34a1 1 0 0 1-.2-.6q0-.17.1-.29a.4.4 0 0 1 .5-.06q.1.05.15.14.06.1.06.2 0 .19-.13.3a.4.4 0 0 1-.28.11Zm0 0"/>
    <path id="f" d="M.6-.8a1.05 1.05 0 0 0 1 .73q.5 0 .7-.4.19-.38.19-.94v-.41q-.01-.17-.06-.32a1 1 0 0 0-.23-.43.5.5 0 0 0-.4-.18q-.22 0-.4.06-.16.07-.27.17l-.2.2-.09.12H.76l-.05-.02-.02-.05V-4.6q0-.03.02-.04l.05-.02H.8q.46.24 1 .23.5 0 1-.23h.01q.02 0 .05.02l.02.04v.06l-.01.04q-.25.31-.6.5-.37.16-.75.17-.28 0-.57-.08v1.32q.22-.17.41-.27.17-.08.47-.08.38 0 .68.23.3.22.47.58t.17.72q0 .42-.21.78A1.6 1.6 0 0 1 1.6.15q-.34 0-.64-.18Q.68-.2.51-.5t-.16-.64q0-.15.1-.26.1-.1.26-.1.15 0 .25.1.12.12.11.26t-.1.25a.4.4 0 0 1-.26.1H.6m0 0"/>
    <path id="l" d="M.79-.3q.19.24.66.23.27 0 .5-.18t.36-.44q.15-.3.19-.64.03-.33.04-.83-.13.28-.34.46a.8.8 0 0 1-.52.18q-.41 0-.73-.21a1.5 1.5 0 0 1-.49-.59Q.3-2.67.3-3.09q0-.4.2-.78a1.5 1.5 0 0 1 1.3-.79q.4 0 .7.23.28.24.43.6t.21.77q.07.4.07.8-.01.55-.2 1.1-.21.57-.6.94-.4.37-.95.37-.4 0-.7-.2Q.46-.22.47-.62q0-.13.1-.24t.23-.1q.14 0 .24.1t.1.24-.1.24a.3.3 0 0 1-.24.1Zm.92-1.4q.27 0 .47-.19.17-.2.26-.48t.08-.58v-.16q0-.51-.15-.93t-.58-.42a1 1 0 0 0-.46.12q-.17.14-.25.32-.1.21-.1.44a5 5 0 0 0 0 1.17q.05.3.22.5t.5.21m0 0"/>
    <path id="k" d="M1.22-.18a4.5 4.5 0 0 1 1-2.87l.63-.89h-.8Q.8-3.94.77-3.9q-.09.12-.18.64H.4l.23-1.47h.2v.02q0 .12.43.17.42.04.84.04h1.3v.19l-.97 1.36q-.37.53-.45 1.16-.08.66-.08 1.6a.3.3 0 0 1-.1.24.3.3 0 0 1-.24.1.3.3 0 0 1-.23-.1q-.1-.08-.1-.23m0 0"/>
    <path id="h" d="M.59-.38q0-.15.1-.28a.4.4 0 0 1 .28-.11q.1 0 .19.06t.14.14.06.19q0 .16-.11.27A.4.4 0 0 1 .97 0Q.81 0 .7-.11a.4.4 0 0 1-.11-.27m0 0"/>
    <path id="j" d="M.71-1.6a.1.1 0 0 1-.1-.05q-.03-.04-.03-.1-.01-.04.04-.09.03-.05.1-.05h4q.06 0 .1.05.03.05.04.09 0 .06-.04.1t-.1.04Zm0 0"/>
  </defs>
  <g stroke="#b0b0b0" stroke-linecap="square" stroke-linejoin="round" stroke-miterlimit="10" stroke-width=".5">
    <path stroke-width=".499575" d="M29.3 425.26V9.85M49.75 425.26V9.85M70.19 425.26V9.85M90.63 425.26V9.85M111.07 425.26V9.85M131.52 425.26V9.85M151.96 425.26V9.85M172.4 425.26V9.85M192.84 425.26V9.85M213.29 425.26V9.85M233.73 425.26V9.85M254.17 425.26V9.85M274.61 425.26V9.85M295.06 425.26V9.85M315.5 425.26V9.85M335.94 425.26V9.85M356.39 425.26V9.85M376.83 425.26V9.85M397.27 425.26V9.85M417.71 425.26V9.85M438.16 425.26V9.85M458.6 425.26V9.85M479.04 425.26V9.85M499.48 425.26V9.85M519.93 425.26V9.85M540.37 425.26V9.85M560.81 425.26V9.85M581.25 425.26V9.85M601.7 425.26V9.85M622.14 425.26V9.85M642.58 425.26V9.85M34.41 425.26V9.85M39.52 425.26V9.85M44.63 425.26V9.85M54.86 425.26V9.85M59.96 425.26V9.85M65.08 425.26V9.85M75.3 425.26V9.85M80.41 425.26V9.85M85.52 425.26V9.85M95.74 425.26V9.85M100.85 425.26V9.85M105.96 425.26V9.85M116.18 425.26V9.85M121.3 425.26V9.85M126.4 425.26V9.85M136.62 425.26V9.85M141.74 425.26V9.85M146.85 425.26V9.85M157.07 425.26V9.85M162.18 425.26V9.85M167.29 425.26V9.85M177.51 425.26V9.85M182.62 425.26V9.85M187.73 425.26V9.85M197.95 425.26V9.85M203.07 425.26V9.85M208.18 425.26V9.85M218.4 425.26V9.85M223.5 425.26V9.85M228.62 425.26V9.85M238.84 425.26V9.85M243.95 425.26V9.85M249.06 425.26V9.85M259.28 425.26V9.85M264.4 425.26V9.85M269.5 425.26V9.85M279.73 425.26V9.85M284.84 425.26V9.85M289.95 425.26V9.85M300.17 425.26V9.85M305.28 425.26V9.85M310.4 425.26V9.85M320.6 425.26V9.85M325.72 425.26V9.85M330.83 425.26V9.85M341.05 425.26V9.85M346.16 425.26V9.85M351.27 425.26V9.85M361.5 425.26V9.85M366.6 425.26V9.85M371.72 425.26V9.85M381.94 425.26V9.85M387.05 425.26V9.85M392.16 425.26V9.85M402.38 425.26V9.85M407.5 425.26V9.85M412.6 425.26V9.85M422.82 425.26V9.85M427.93 425.26V9.85M433.05 425.26V9.85M443.27 425.26V9.85M448.38 425.26V9.85M453.49 425.26V9.85M463.71 425.26V9.85M468.82 425.26V9.85M473.93 425.26V9.85M484.15 425.26V9.85M489.26 425.26V9.85M494.37 425.26V9.85M504.6 425.26V9.85M509.7 425.26V9.85M514.82 425.26V9.85M525.04 425.26V9.85M530.15 425.26V9.85M535.26 425.26V9.85M545.48 425.26V9.85M550.59 425.26V9.85M555.7 425.26V9.85M565.92 425.26V9.85M571.04 425.26V9.85M576.14 425.26V9.85M586.37 425.26V9.85M591.48 425.26V9.85M596.59 425.26V9.85M606.8 425.26V9.85M611.92 425.26V9.85M617.03 425.26V9.85M627.25 425.26V9.85M632.36 425.26V9.85M637.47 425.26V9.85M29.3 425.26h613.28M29.3 404.52h613.28M29.3 383.75h613.28M29.3 362.98h613.28M29.3 342.2h613.28M29.3 321.43h613.28M29.3 300.66h613.28M29.3 279.9h613.28M29.3 259.12h613.28M29.3 238.34h613.28M29.3 217.57h613.28M29.3 196.8h613.28M29.3 176.03h613.28M29.3 155.25h613.28M29.3 134.48h613.28M29.3 113.71h613.28M29.3 92.94h613.28M29.3 72.16h613.28M29.3 51.4h613.28M29.3 30.62h613.28M29.3 9.85h613.28M29.3 421.14h613.28M29.3 416.99h613.28M29.3 412.83h613.28M29.3 408.68h613.28M29.3 400.37h613.28M29.3 396.21h613.28M29.3 392.06h613.28M29.3 387.9h613.28M29.3 379.6h613.28M29.3 375.44h613.28M29.3 371.29h613.28M29.3 367.13h613.28M29.3 358.82h613.28M29.3 354.67h613.28M29.3 350.52h613.28M29.3 346.36h613.28M29.3 338.05h613.28M29.3 333.9h613.28M29.3 329.74h613.28M29.3 325.59h613.28M29.3 317.28h613.28M29.3 313.13h613.28M29.3 308.97h613.28M29.3 304.82h613.28M29.3 296.5h613.28M29.3 292.35h613.28M29.3 288.2h613.28M29.3 284.04h613.28M29.3 275.73h613.28M29.3 271.58h613.28M29.3 267.43h613.28M29.3 263.27h613.28M29.3 254.96h613.28M29.3 250.8h613.28M29.3 246.65h613.28M29.3 242.5h613.28M29.3 234.2h613.28M29.3 230.04h613.28M29.3 225.88h613.28M29.3 221.73h613.28M29.3 213.42h613.28M29.3 209.26h613.28M29.3 205.1h613.28M29.3 200.95h613.28M29.3 192.64h613.28M29.3 188.5h613.28M29.3 184.34h613.28M29.3 180.18h613.28M29.3 171.87h613.28M29.3 167.72h613.28M29.3 163.56h613.28M29.3 159.41h613.28M29.3 151.1h613.28M29.3 146.95h613.28M29.3 142.8h613.28M29.3 138.64h613.28M29.3 130.33h613.28M29.3 126.17h613.28M29.3 122.02h613.28M29.3 117.86h613.28M29.3 109.55h613.28M29.3 105.4h613.28M29.3 101.25h613.28M29.3 97.1h613.28M29.3 88.78h613.28M29.3 84.63h613.28M29.3 80.47h613.28M29.3 76.32h613.28M29.3 68.01h613.28M29.3 63.86h613.28M29.3 59.7h613.28M29.3 55.55h613.28M29.3 47.24h613.28M29.3 43.08h613.28M29.3 38.93h613.28M29.3 34.77h613.28M29.3 26.46h613.28M29.3 22.31h613.28M29.3 18.16h613.28M29.3 14h613.28"/>
  </g>
  <g stroke="#000" stroke-linejoin="round" stroke-miterlimit="10" stroke-width=".8">
    <path stroke-width=".79932" d="M29.3 425.26v3.53M49.75 425.26v3.53M70.19 425.26v3.53M90.63 425.26v3.53M111.07 425.26v3.53M131.52 425.26v3.53M151.96 425.26v3.53M172.4 425.26v3.53M192.84 425.26v3.53M213.29 425.26v3.53M233.73 425.26v3.53M254.17 425.26v3.53M274.61 425.26v3.53M295.06 425.26v3.53M315.5 425.26v3.53M335.94 425.26v3.53M356.39 425.26v3.53M376.83 425.26v3.53M397.27 425.26v3.53M417.71 425.26v3.53M438.16 425.26v3.53M458.6 425.26v3.53M479.04 425.26v3.53M499.48 425.26v3.53M519.93 425.26v3.53M540.37 425.26v3.53M560.81 425.26v3.53M581.25 425.26v3.53M601.7 425.26v3.53M622.14 425.26v3.53M642.58 425.26v3.53M29.3 404.52h-3.5M29.3 383.75h-3.5M29.3 362.98h-3.5M29.3 342.2h-3.5M29.3 321.43h-3.5M29.3 300.66h-3.5M29.3 279.9h-3.5M29.3 259.12h-3.5M29.3 238.34h-3.5M29.3 217.57h-3.5M29.3 196.8h-3.5M29.3 176.03h-3.5M29.3 155.25h-3.5M29.3 134.48h-3.5M29.3 113.71h-3.5M29.3 92.94h-3.5M29.3 72.16h-3.5M29.3 51.4h-3.5M29.3 30.62h-3.5M29.3 9.85h-3.5M233.73 88.27h3.5M233.73 155.67h3.5M233.73 210.34h3.5M233.73 251.66h3.5M233.73 280.13h3.5M233.73 297.19h3.5M29.3 425.26h-3.5M233.73 9.85h3.5"/>
  </g>
  <g stroke="#000" stroke-linejoin="round" stroke-miterlimit="10" stroke-width=".6">
    <path stroke-width=".59949" d="M34.41 425.26v2.03M39.52 425.26v2.03M44.63 425.26v2.03M54.86 425.26v2.03M59.96 425.26v2.03M65.08 425.26v2.03M75.3 425.26v2.03M80.41 425.26v2.03M85.52 425.26v2.03M95.74 425.26v2.03M100.85 425.26v2.03M105.96 425.26v2.03M116.18 425.26v2.03M121.3 425.26v2.03M126.4 425.26v2.03M136.62 425.26v2.03M141.74 425.26v2.03M146.85 425.26v2.03M157.07 425.26v2.03M162.18 425.26v2.03M167.29 425.26v2.03M177.51 425.26v2.03M182.62 425.26v2.03M187.73 425.26v2.03M197.95 425.26v2.03M203.07 425.26v2.03M208.18 425.26v2.03M218.4 425.26v2.03M223.5 425.26v2.03M228.62 425.26v2.03M238.84 425.26v2.03M243.95 425.26v2.03M249.06 425.26v2.03M259.28 425.26v2.03M264.4 425.26v2.03M269.5 425.26v2.03M279.73 425.26v2.03M284.84 425.26v2.03M289.95 425.26v2.03M300.17 425.26v2.03M305.28 425.26v2.03M310.4 425.26v2.03M320.6 425.26v2.03M325.72 425.26v2.03M330.83 425.26v2.03M341.05 425.26v2.03M346.16 425.26v2.03M351.27 425.26v2.03M361.5 425.26v2.03M366.6 425.26v2.03M371.72 425.26v2.03M381.94 425.26v2.03M387.05 425.26v2.03M392.16 425.26v2.03M402.38 425.26v2.03M407.5 425.26v2.03M412.6 425.26v2.03M422.82 425.26v2.03M427.93 425.26v2.03M433.05 425.26v2.03M443.27 425.26v2.03M448.38 425.26v2.03M453.49 425.26v2.03M463.71 425.26v2.03M468.82 425.26v2.03M473.93 425.26v2.03M484.15 425.26v2.03M489.26 425.26v2.03M494.37 425.26v2.03M504.6 425.26v2.03M509.7 425.26v2.03M514.82 425.26v2.03M525.04 425.26v2.03M530.15 425.26v2.03M535.26 425.26v2.03M545.48 425.26v2.03M550.59 425.26v2.03M555.7 425.26v2.03M565.92 425.26v2.03M571.04 425.26v2.03M576.14 425.26v2.03M586.37 425.26v2.03M591.48 425.26v2.03M596.59 425.26v2.03M606.8 425.26v2.03M611.92 425.26v2.03M617.03 425.26v2.03M627.25 425.26v2.03M632.36 425.26v2.03M637.47 425.26v2.03M29.3 421.14h-2M29.3 416.99h-2M29.3 412.83h-2M29.3 408.68h-2M29.3 400.37h-2M29.3 396.21h-2M29.3 392.06h-2M29.3 387.9h-2M29.3 379.6h-2M29.3 375.44h-2M29.3 371.29h-2M29.3 367.13h-2M29.3 358.82h-2M29.3 354.67h-2M29.3 350.52h-2M29.3 346.36h-2M29.3 338.05h-2M29.3 333.9h-2M29.3 329.74h-2M29.3 325.59h-2M29.3 317.28h-2M29.3 313.13h-2M29.3 308.97h-2M29.3 304.82h-2M29.3 296.5h-2M29.3 292.35h-2M29.3 288.2h-2M29.3 284.04h-2M29.3 275.73h-2M29.3 271.58h-2M29.3 267.43h-2M29.3 263.27h-2M29.3 254.96h-2M29.3 250.8h-2M29.3 246.65h-2M29.3 242.5h-2M29.3 234.2h-2M29.3 230.04h-2M29.3 225.88h-2M29.3 221.73h-2M29.3 213.42h-2M29.3 209.26h-2M29.3 205.1h-2M29.3 200.95h-2M29.3 192.64h-2M29.3 188.5h-2M29.3 184.34h-2M29.3 180.18h-2M29.3 171.87h-2M29.3 167.72h-2M29.3 163.56h-2M29.3 159.41h-2M29.3 151.1h-2M29.3 146.95h-2M29.3 142.8h-2M29.3 138.64h-2M29.3 130.33h-2M29.3 126.17h-2M29.3 122.02h-2M29.3 117.86h-2M29.3 109.55h-2M29.3 105.4h-2M29.3 101.25h-2M29.3 97.1h-2M29.3 88.78h-2M29.3 84.63h-2M29.3 80.47h-2M29.3 76.32h-2M29.3 68.01h-2M29.3 63.86h-2M29.3 59.7h-2M29.3 55.55h-2M29.3 47.24h-2M29.3 43.08h-2M29.3 38.93h-2M29.3 34.77h-2M29.3 26.46h-2M29.3 22.31h-2M29.3 18.16h-2M29.3 14h-2M233.73 30.35h2M233.73 50.29h2M233.73 69.6h2M233.73 106.24h2M233.73 123.48h2M233.73 139.97h2M233.73 170.57h2M233.73 184.66h2M233.73 197.91h2M233.73 221.92h2M233.73 232.66h2M233.73 242.57h2M233.73 259.95h2M233.73 267.44h2M233.73 274.16h2M233.73 285.4h2M233.73 289.96h2M233.73 293.88h2"/>
  </g>
  <path fill="none" stroke="#000" stroke-linecap="square" stroke-linejoin="round" stroke-miterlimit="10" stroke-width=".499575" d="m29.3 9.85 3.22.1 3.21.3 3.22.52 3.21.72 3.21.92 3.22 1.13 3.21 1.32 3.86 1.85 3.86 2.15 3.85 2.42 3.86 2.7 3.86 2.98 3.86 3.26 3.85 3.51 4.5 4.44 4.5 4.78 4.5 5.12 4.5 5.45 4.5 5.77 5.15 6.96 5.14 7.36 5.14 7.7 5.79 9.1 5.78 9.5 6.43 10.98 7.07 12.58 7.07 13.03 8.36 15.89 9 17.6 11.57 23.14 39.86 80.25 9 17.38 7.72 14.45 7.07 12.81 6.43 11.23 6.42 10.79 5.8 9.3 5.78 8.87 5.14 7.5 5.14 7.15 5.15 6.74 4.5 5.56 4.5 5.24 4.5 4.9 4.5 4.57 4.5 4.2 3.85 3.32 3.86 3.05 3.86 2.77 3.85 2.5 3.86 2.2 3.86 1.94 3.86 1.63 3.21 1.15 3.22.94 3.2.74 3.22.53 3.22.33 3.21.1 3.22-.06 3.21-.28 3.22-.5 3.21-.7 3.21-.9 3.22-1.1 3.21-1.3 3.86-1.84 3.86-2.11 3.86-2.4 3.85-2.69 3.86-2.95 3.86-3.23 3.85-3.5 4.5-4.4 4.5-4.76 4.5-5.1 4.5-5.43 4.5-5.74 5.15-6.94 5.14-7.33 5.14-7.69 5.79-9.07 5.79-9.47 6.42-10.97 6.43-11.4 7.07-12.96 7.72-14.6 9-17.52 10.93-21.78 18-36.49 16.71-33.7 10.29-20.24 8.36-16 7.71-14.31 7.07-12.67 6.43-11.07 6.43-10.63 5.79-9.14 5.78-8.7 5.14-7.35 5.15-6.96 5.14-6.57 4.5-5.4 4.5-5.07 4.5-4.73 4.5-4.4 3.86-3.46 3.86-3.21 3.85-2.93 3.86-2.66 3.86-2.38 3.85-2.1 3.86-1.8 3.22-1.29 2.38-.82"/>
  <g stroke="#000" stroke-linecap="square" stroke-miterlimit="10" stroke-width=".8">
    <path stroke-width=".79932" d="M29.3 425.26V9.85M642.58 425.26V9.85M29.3 425.26h613.28M29.3 9.85h613.28M233.73 425.26V9.85"/>
  </g>
  <use xlink:href="#a" x="24.81" y="437.25"/>
  <use xlink:href="#a" x="45.25" y="437.25"/>
  <use xlink:href="#a" x="65.69" y="437.25"/>
  <use xlink:href="#a" x="86.13" y="437.25"/>
  <use xlink:href="#a" x="106.58" y="437.25"/>
  <use xlink:href="#b" x="127.02" y="437.25"/>
  <use xlink:href="#b" x="147.46" y="437.25"/>
  <use xlink:href="#b" x="167.9" y="437.25"/>
  <use xlink:href="#b" x="188.35" y="437.25"/>
  <use xlink:href="#b" x="208.79" y="437.25"/>
  <use xlink:href="#c" x="229.23" y="437.25"/>
  <use xlink:href="#c" x="249.68" y="437.25"/>
  <use xlink:href="#c" x="270.12" y="437.25"/>
  <use xlink:href="#c" x="290.56" y="437.25"/>
  <use xlink:href="#c" x="311" y="437.25"/>
  <use xlink:href="#d" x="331.45" y="437.25"/>
  <use xlink:href="#d" x="351.89" y="437.25"/>
  <use xlink:href="#d" x="372.33" y="437.25"/>
  <use xlink:href="#d" x="392.77" y="437.25"/>
  <use xlink:href="#d" x="413.22" y="437.25"/>
  <use xlink:href="#e" x="433.66" y="437.25"/>
  <use xlink:href="#e" x="454.1" y="437.25"/>
  <use xlink:href="#e" x="474.55" y="437.25"/>
  <use xlink:href="#e" x="494.99" y="437.25"/>
  <use xlink:href="#e" x="515.43" y="437.25"/>
  <use xlink:href="#f" x="535.87" y="437.25"/>
  <use xlink:href="#f" x="556.32" y="437.25"/>
  <use xlink:href="#f" x="576.76" y="437.25"/>
  <use xlink:href="#f" x="597.2" y="437.25"/>
  <use xlink:href="#f" x="617.64" y="437.25"/>
  <use xlink:href="#g" x="638.09" y="437.25"/>
  <use xlink:href="#h" x="28.3" y="437.25"/>
  <use xlink:href="#h" x="48.75" y="437.25"/>
  <use xlink:href="#h" x="69.19" y="437.25"/>
  <use xlink:href="#h" x="89.63" y="437.25"/>
  <use xlink:href="#h" x="110.07" y="437.25"/>
  <use xlink:href="#h" x="130.52" y="437.25"/>
  <use xlink:href="#h" x="150.96" y="437.25"/>
  <use xlink:href="#h" x="171.4" y="437.25"/>
  <use xlink:href="#h" x="191.84" y="437.25"/>
  <use xlink:href="#h" x="212.29" y="437.25"/>
  <use xlink:href="#h" x="232.73" y="437.25"/>
  <use xlink:href="#h" x="253.17" y="437.25"/>
  <use xlink:href="#h" x="273.62" y="437.25"/>
  <use xlink:href="#h" x="294.06" y="437.25"/>
  <use xlink:href="#h" x="314.5" y="437.25"/>
  <use xlink:href="#h" x="334.94" y="437.25"/>
  <use xlink:href="#h" x="355.39" y="437.25"/>
  <use xlink:href="#h" x="375.83" y="437.25"/>
  <use xlink:href="#h" x="396.27" y="437.25"/>
  <use xlink:href="#h" x="416.71" y="437.25"/>
  <use xlink:href="#h" x="437.16" y="437.25"/>
  <use xlink:href="#h" x="457.6" y="437.25"/>
  <use xlink:href="#h" x="478.04" y="437.25"/>
  <use xlink:href="#h" x="498.49" y="437.25"/>
  <use xlink:href="#h" x="518.93" y="437.25"/>
  <use xlink:href="#h" x="539.37" y="437.25"/>
  <use xlink:href="#h" x="559.81" y="437.25"/>
  <use xlink:href="#h" x="580.26" y="437.25"/>
  <use xlink:href="#h" x="600.7" y="437.25"/>
  <use xlink:href="#h" x="621.14" y="437.25"/>
  <use xlink:href="#h" x="641.58" y="437.25"/>
  <use xlink:href="#a" x="30.24" y="437.25"/>
  <use xlink:href="#c" x="50.68" y="437.25"/>
  <use xlink:href="#e" x="71.12" y="437.25"/>
  <use xlink:href="#g" x="91.57" y="437.25"/>
  <use xlink:href="#i" x="112.01" y="437.25"/>
  <use xlink:href="#a" x="132.45" y="437.25"/>
  <use xlink:href="#c" x="152.9" y="437.25"/>
  <use xlink:href="#e" x="173.34" y="437.25"/>
  <use xlink:href="#g" x="193.78" y="437.25"/>
  <use xlink:href="#i" x="214.22" y="437.25"/>
  <use xlink:href="#a" x="234.67" y="437.25"/>
  <use xlink:href="#c" x="255.11" y="437.25"/>
  <use xlink:href="#e" x="275.55" y="437.25"/>
  <use xlink:href="#g" x="295.99" y="437.25"/>
  <use xlink:href="#i" x="316.44" y="437.25"/>
  <use xlink:href="#a" x="336.88" y="437.25"/>
  <use xlink:href="#c" x="357.32" y="437.25"/>
  <use xlink:href="#e" x="377.77" y="437.25"/>
  <use xlink:href="#g" x="398.21" y="437.25"/>
  <use xlink:href="#i" x="418.65" y="437.25"/>
  <use xlink:href="#a" x="439.09" y="437.25"/>
  <use xlink:href="#c" x="459.54" y="437.25"/>
  <use xlink:href="#e" x="479.98" y="437.25"/>
  <use xlink:href="#g" x="500.42" y="437.25"/>
  <use xlink:href="#i" x="520.86" y="437.25"/>
  <use xlink:href="#a" x="541.31" y="437.25"/>
  <use xlink:href="#c" x="561.75" y="437.25"/>
  <use xlink:href="#e" x="582.19" y="437.25"/>
  <use xlink:href="#g" x="602.63" y="437.25"/>
  <use xlink:href="#i" x="623.08" y="437.25"/>
  <use xlink:href="#a" x="643.52" y="437.25"/>
  <use xlink:href="#j" x="7.32" y="427.61"/>
  <use xlink:href="#b" x="12.75" y="427.61"/>
  <use xlink:href="#h" x="16.25" y="427.61"/>
  <use xlink:href="#a" x="18.19" y="427.61"/>
  <use xlink:href="#j" x="7.32" y="406.83"/>
  <use xlink:href="#j" x="7.32" y="386.06"/>
  <use xlink:href="#j" x="7.32" y="365.37"/>
  <use xlink:href="#j" x="7.32" y="344.52"/>
  <use xlink:href="#j" x="7.32" y="323.74"/>
  <use xlink:href="#j" x="7.32" y="302.97"/>
  <use xlink:href="#j" x="7.32" y="282.2"/>
  <use xlink:href="#j" x="7.32" y="261.43"/>
  <use xlink:href="#j" x="7.32" y="240.66"/>
  <use xlink:href="#j" x="7.32" y="219.88"/>
  <use xlink:href="#a" x="13.32" y="199.11"/>
  <use xlink:href="#a" x="13.32" y="178.34"/>
  <use xlink:href="#a" x="13.32" y="157.57"/>
  <use xlink:href="#a" x="13.32" y="136.79"/>
  <use xlink:href="#a" x="13.32" y="116.02"/>
  <use xlink:href="#a" x="13.32" y="95.25"/>
  <use xlink:href="#a" x="13.32" y="74.55"/>
  <use xlink:href="#a" x="13.32" y="53.7"/>
  <use xlink:href="#a" x="13.32" y="32.93"/>
  <use xlink:href="#b" x="13.32" y="12.16"/>
  <use xlink:href="#a" x="12.75" y="406.83"/>
  <use xlink:href="#a" x="12.75" y="386.06"/>
  <use xlink:href="#a" x="12.75" y="365.37"/>
  <use xlink:href="#a" x="12.75" y="344.52"/>
  <use xlink:href="#a" x="12.75" y="323.74"/>
  <use xlink:href="#a" x="12.75" y="302.97"/>
  <use xlink:href="#a" x="12.75" y="282.2"/>
  <use xlink:href="#a" x="12.75" y="261.43"/>
  <use xlink:href="#a" x="12.75" y="240.66"/>
  <use xlink:href="#a" x="12.75" y="219.88"/>
  <use xlink:href="#h" x="16.81" y="199.11"/>
  <use xlink:href="#h" x="16.81" y="178.34"/>
  <use xlink:href="#h" x="16.81" y="157.57"/>
  <use xlink:href="#h" x="16.81" y="136.79"/>
  <use xlink:href="#h" x="16.81" y="116.02"/>
  <use xlink:href="#h" x="16.81" y="95.25"/>
  <use xlink:href="#h" x="16.81" y="74.55"/>
  <use xlink:href="#h" x="16.81" y="53.7"/>
  <use xlink:href="#h" x="16.81" y="32.93"/>
  <use xlink:href="#h" x="16.81" y="12.16"/>
  <use xlink:href="#h" x="16.25" y="406.83"/>
  <use xlink:href="#h" x="16.25" y="386.06"/>
  <use xlink:href="#h" x="16.25" y="365.37"/>
  <use xlink:href="#h" x="16.25" y="344.52"/>
  <use xlink:href="#h" x="16.25" y="323.74"/>
  <use xlink:href="#h" x="16.25" y="302.97"/>
  <use xlink:href="#h" x="16.25" y="282.2"/>
  <use xlink:href="#h" x="16.25" y="261.43"/>
  <use xlink:href="#h" x="16.25" y="240.66"/>
  <use xlink:href="#h" x="16.25" y="219.88"/>
  <use xlink:href="#b" x="18.75" y="199.11"/>
  <use xlink:href="#c" x="18.75" y="178.34"/>
  <use xlink:href="#d" x="18.75" y="157.57"/>
  <use xlink:href="#e" x="18.75" y="136.79"/>
  <use xlink:href="#f" x="18.75" y="116.02"/>
  <use xlink:href="#g" x="18.75" y="95.25"/>
  <use xlink:href="#k" x="18.75" y="74.55"/>
  <use xlink:href="#i" x="18.75" y="53.7"/>
  <use xlink:href="#l" x="18.75" y="32.93"/>
  <use xlink:href="#a" x="18.75" y="12.16"/>
  <use xlink:href="#l" x="18.19" y="406.83"/>
  <use xlink:href="#i" x="18.19" y="386.06"/>
  <use xlink:href="#k" x="18.19" y="365.37"/>
  <use xlink:href="#g" x="18.19" y="344.52"/>
  <use xlink:href="#f" x="18.19" y="323.74"/>
  <use xlink:href="#e" x="18.19" y="302.97"/>
  <use xlink:href="#d" x="18.19" y="282.2"/>
  <use xlink:href="#c" x="18.19" y="261.43"/>
  <use xlink:href="#b" x="18.19" y="240.66"/>
  <use xlink:href="#a" x="18.19" y="219.88"/>
  <use xlink:href="#a" x="240.72" y="12.16"/>
  <use xlink:href="#a" x="240.72" y="90.58"/>
  <use xlink:href="#a" x="240.72" y="157.98"/>
  <use xlink:href="#a" x="240.72" y="212.65"/>
  <use xlink:href="#a" x="240.72" y="253.97"/>
  <use xlink:href="#b" x="240.72" y="282.44"/>
  <use xlink:href="#b" x="240.72" y="299.5"/>
  <use xlink:href="#h" x="244.22" y="12.16"/>
  <use xlink:href="#h" x="244.22" y="90.58"/>
  <use xlink:href="#h" x="244.22" y="157.98"/>
  <use xlink:href="#h" x="244.22" y="212.65"/>
  <use xlink:href="#h" x="244.22" y="253.97"/>
  <use xlink:href="#h" x="244.22" y="282.44"/>
  <use xlink:href="#h" x="244.22" y="299.5"/>
  <use xlink:href="#a" x="246.16" y="12.16"/>
  <use xlink:href="#c" x="246.16" y="90.58"/>
  <use xlink:href="#e" x="246.16" y="157.98"/>
  <use xlink:href="#g" x="246.16" y="212.65"/>
  <use xlink:href="#i" x="246.16" y="253.97"/>
  <use xlink:href="#a" x="246.16" y="282.44"/>
  <use xlink:href="#c" x="246.16" y="299.5"/>
</svg>
