<svg xmlns="http://www.w3.org/2000/svg" xmlns:xlink="http://www.w3.org/1999/xlink" width="595.32" height="842.04" viewBox="0 0 595.32 842.04">
  <defs>
    <path id="b" d="M6.45 0H3.03v-.22q.67-.01.9-.17.23-.17.24-.7-1.99 0-2.86-.83a2.8 2.8 0 0 1-.87-2.1q0-.91.51-1.57.53-.68 1.28-.93.77-.26 1.94-.26-.01-.49-.15-.64a1 1 0 0 0-.32-.22 3 3 0 0 0-.67-.08v-.22h3.42v.22q-.69.03-.9.22-.22.18-.25.72 1.26 0 1.98.28.73.29 1.24.92t.51 1.56q0 1.23-.86 2.08-.84.85-2.87.85 0 .51.23.68t.92.2ZM5.3-1.53q.86 0 1.37-.22.52-.24.85-.81.34-.6.34-1.46 0-.8-.34-1.36a2 2 0 0 0-.86-.76q-.51-.2-1.36-.2Zm-1.13 0v-4.81q-.9 0-1.4.21-.5.23-.82.75-.32.54-.32 1.36 0 .93.39 1.54.38.6.9.78.53.17 1.25.17m0 0"/>
    <path id="c" d="m2.05-1.66 2.3-2.67q0-.44-.16-.62-.15-.17-.53-.2v-.2h2.48v.2q-.4 0-.53.09a1 1 0 0 0-.2.2q-.08.1-.08.75v2.84q0 .63.06.75.06.13.2.22t.55.08V0h-2.6v-.22q.49 0 .65-.17t.17-.88v-2.51L2.05-1.1q0 .5.14.68.12.2.56.2V0H.27v-.22q.52 0 .67-.19.15-.18.14-.86V-4.1q0-.62-.06-.73a1 1 0 0 0-.2-.2q-.14-.1-.55-.1v-.22h2.59v.22q-.4 0-.53.08a1 1 0 0 0-.2.2q-.08.1-.08.75Zm0 0"/>
    <path id="d" d="m4.63-5.36.21 1.47h-.26q-.22-.74-.46-.9Q3.9-5 3.2-5H2.05v3.72q0 .63.06.75.06.13.2.22t.55.08V0H.19v-.22Q.74-.23.9-.39t.17-.88V-4.1q0-.56-.06-.72a.4.4 0 0 0-.24-.22q-.15-.07-.6-.1v-.2Zm0 0"/>
    <path id="e" d="M1.5-1.14a.6.6 0 0 1 .45.2q.2.2.2.46t-.2.45a.66.66 0 0 1-.92 0 .6.6 0 0 1-.19-.45.64.64 0 0 1 .66-.66m0 0"/>
    <path id="f" d="m1.4-7.16 1.93-.93h.2v6.68q0 .67.05.85.06.15.23.25.17.07.72.1V0H1.55v-.22q.56 0 .72-.1.16-.07.23-.21.06-.16.06-.88v-4.28q0-.86-.06-1.1-.03-.2-.14-.27a.4.4 0 0 0-.27-.1q-.21 0-.59.2Zm0 0"/>
    <path id="l" d="M10.6-7.81H8.57l-4.1 5.89-.65-5.9h-2.2v.2q.9.04.9.43 0 .17-.12.5-.05.07-.11.36l-.03.13-1.3 4.45C.59-.5.4-.27-.22-.19V0h2.4v-.19c-.62-.04-.85-.2-.85-.53 0-.12.04-.42.1-.64l1.43-5.17L3.6 0h.2l4.6-6.72-1.57 5.63c-.2.64-.44.8-1.24.9V0h3.32v-.19c-.83-.08-.94-.14-.94-.51 0-.2.03-.36.14-.74l1.5-5.3c.22-.71.27-.78.98-.88Zm0 0"/>
    <path id="k" d="M4.83-1.31c-.42.75-.49.83-.7.83-.25 0-.49-.41-.94-1.55L2.75-3.1c1.72-1.57 2.06-1.82 2.63-1.85v-.18H3.23v.18c.5.02.65.07.65.22 0 .24-.58.81-1.66 1.67l-.5.4L3.1-8.13l-.06-.07c-.7.17-1.14.24-1.82.33v.19c.58-.02.79.08.8.3q-.03.28-.26 1.07l-.1.4-.03.12L.16 0h.87l.56-2.16.5-.39c.18.53.49 1.28.7 1.7.37.76.59.98.91.98.47 0 .77-.3 1.3-1.3Zm0 0"/>
    <path id="j" d="M5.42-1.4c-.62.8-.76.95-.95.95q-.18-.02-.19-.22c0-.13.19-.88.38-1.5.34-1.11.56-2.02.56-2.31 0-.49-.31-.8-.77-.8-.76 0-1.58.78-2.67 2.53l1.4-5.37-.06-.07c-.7.17-1.15.24-1.82.33v.19l.3-.02c.26 0 .48.13.48.32 0 .15-.06.45-.17.8l-.11.43L.22 0h.87c.47-1.84.63-2.25 1.1-2.98.6-.96 1.39-1.7 1.8-1.7.17 0 .32.15.32.3l-.08.4L3.6-1.5q-.23.89-.23 1.1c0 .32.2.5.52.5.59 0 1-.32 1.7-1.37Zm0 0"/>
    <path id="i" d="M8.36-1.4q-.08.07-.16.18-.33.37-.32.4c-.27.27-.4.37-.57.37q-.14 0-.14-.2l.11-.54.83-3.03c.02-.06.03-.25.03-.34 0-.44-.3-.75-.7-.75q-.35 0-.77.26c-.6.38-1.1.96-1.94 2.28a8 8 0 0 0 .49-1.82c0-.44-.27-.72-.69-.72-.73 0-1.58.78-2.7 2.53l.7-2.52-.03-.01-1.94.36v.2c.55.02.55.02.66.06q.1.06.1.2a28 28 0 0 1-.7 2.77L.15 0h.92c.58-1.9.75-2.36 1.17-2.98.7-1.05 1.41-1.7 1.82-1.7q.24 0 .25.29c0 .16-.38 1.58-.86 3.28L3.14 0h.9c.5-1.87.74-2.5 1.35-3.34C6-4.16 6.6-4.7 6.95-4.7c.13 0 .24.11.24.25 0 .07-.02.17-.08.42l-.7 2.77a4 4 0 0 0-.16.8q0 .56.48.56c.57 0 1.1-.4 1.74-1.3l.06-.08Zm0 0"/>
    <path id="g" d="M7.33-5.37h.98L6.66-2.7l-.52.8q-.06.89-.01 1.07.1.31.42.31.24 0 .5-.18.26-.2.47-.61h.25Q7.39-.47 7-.14q-.38.33-.73.33a.6.6 0 0 1-.54-.28q-.17-.3-.07-1.22-.43.51-.77.78a3.3 3.3 0 0 1-1.92.72q-1.3 0-1.63-.86t.05-1.97q.44-1.29 1.42-2.1.98-.8 1.96-.8.67 0 1.04.42.38.4.44 1.51ZM5.8-2.95q.07-1.2-.26-1.67-.33-.5-.85-.49-.57 0-1.17.63a5.5 5.5 0 0 0-1.06 2.01q-.27.81-.27 1.28.02.46.25.72.25.25.63.25.45 0 .98-.42A10 10 0 0 0 5.8-2.95m0 0"/>
    <path id="h" d="M5.6-4.86h-.72q-.05 0-.2-.1a2 2 0 0 0-1.16-.34c-1.32 0-2.38.92-2.38 2.05 0 .63.25.98.94 1.3-.7.48-.92.73-.92 1.01q-.01.23.32.47C.31.31.1.55.1 1.11c0 .83.79 1.36 1.99 1.36 1.48 0 2.48-.7 2.48-1.75q0-1.12-1.69-1.58-.82-.23-.83-.51c0-.18.26-.49.42-.49l.08.02.37.03c1.1 0 2.19-.97 2.19-1.9q0-.31-.11-.68h.6ZM1.74-.34q.04 0 .06.03l.35.1c1.26.41 1.7.74 1.7 1.29 0 .65-.69 1.12-1.61 1.12C1.3 2.2.75 1.75.75.98.75.7.81.5 1.02.27c.15-.22.64-.61.73-.61m1.77-4.7q.65 0 .65.85a3 3 0 0 1-.36 1.36c-.26.5-.64.77-1.03.77-.45 0-.72-.35-.72-.9 0-1.12.67-2.07 1.46-2.07m0 0"/>
  </defs>
  <use xlink:href="#b" x="274.66" y="282.93"/>
  <use xlink:href="#c" x="284.13" y="282.93"/>
  <use xlink:href="#d" x="290.59" y="282.93"/>
  <use xlink:href="#e" x="295.5" y="282.93"/>
  <use xlink:href="#f" x="301.49" y="282.93"/>
  <use xlink:href="#g" x="222.78" y="259.09"/>
  <use xlink:href="#a" x="233.9" y="259.07"/>
  <use xlink:href="#h" x="240.28" y="186.76"/>
  <use xlink:href="#a" x="248.89" y="186.65"/>
  <use xlink:href="#i" x="325.99" y="175.92"/>
  <use xlink:href="#a" x="337.12" y="175.86"/>
  <use xlink:href="#j" x="345.27" y="192.74"/>
  <use xlink:href="#a" x="353.43" y="192.64"/>
  <use xlink:href="#k" x="392.37" y="257.12"/>
  <use xlink:href="#a" x="400.53" y="257.04"/>
  <path fill="none" stroke="#000" stroke-linecap="round" stroke-linejoin="round" stroke-miterlimit="10" stroke-width=".75" d="m368.23 191.48-170.86 69.97h170.86Zm0 0"/>
  <path fill-rule="evenodd" stroke="#000" stroke-linecap="round" stroke-linejoin="round" stroke-miterlimit="10" stroke-width=".75" d="M338.06 174.45c-.99 0-1.8.8-1.8 1.78s.81 1.77 1.8 1.77c1 0 1.8-.8 1.8-1.77 0-.99-.8-1.78-1.8-1.78m0 0"/>
  <path d="m338.36 180 .01 3a.5.5 0 0 1-.5.5.5.5 0 0 1-.5-.5v-3a.5.5 0 0 1 1 0m.02 6.99v3a.5.5 0 0 1-.5.5.5.5 0 0 1-.5-.5v-3a.5.5 0 0 1 1 0m.01 6.99.01 3a.5.5 0 0 1-.5.5.5.5 0 0 1-.5-.5v-3c0-.28.21-.5.5-.5.27 0 .5.22.5.5m.01 7 .01.99a.5.5 0 0 1-1 0v-1a.5.5 0 1 1 1 0m-4.45-15.23 3.91-6.74 3.95 6.72a.5.5 0 0 1-.18.68.5.5 0 0 1-.69-.17l-3.5-6h.86l-3.48 6.01a.5.5 0 0 1-.7.18.5.5 0 0 1-.17-.68m7.88 10.46-3.92 6.75-3.94-6.72a.5.5 0 0 1 .18-.68.5.5 0 0 1 .69.17l3.5 5.99h-.87l3.5-6a.5.5 0 0 1 .86.5m0 0"/>
  <path fill="none" stroke="#000" stroke-linecap="round" stroke-linejoin="round" stroke-miterlimit="10" stroke-width=".75" d="m158.52 261.45 38.85.05"/>
  <use xlink:href="#l" x="329.03" y="244.15"/>
  <path d="m250.91 174.45.04 20.38a.5.5 0 0 1-.5.5.5.5 0 0 1-.5-.5l-.04-20.38c0-.28.22-.5.5-.5s.5.22.5.5m2.54 19.37-2.99 6-3-5.98Zm0 0"/>
  <path fill="none" stroke="#000" stroke-linecap="round" stroke-linejoin="round" stroke-miterlimit="10" stroke-width=".75" d="M217 253.6c2.56 0 4.65 3.35 4.75 7.55m146.48.25 54.74.1"/>
</svg>
