<svg xmlns="http://www.w3.org/2000/svg" xmlns:xlink="http://www.w3.org/1999/xlink" width="612" height="792" viewBox="0 0 612 792">
  <defs>
    <path id="s" d="M1 1.69c.8-.4 1.34-1.13 1.34-1.85 0-.59-.42-1.06-.96-1.06-.43 0-.7.27-.7.67s.26.63.7.63q.13 0 .25-.03L1.7.03q.17 0 .18.16-.02.6-.99 1.28Zm0 0"/>
    <path id="g" d="m2.05-1.66 2.33-2.68q-.03-.45-.18-.61-.16-.2-.54-.2v-.22h2.5v.23q-.4 0-.54.08a1 1 0 0 0-.21.2q-.07.1-.07.75v2.84q0 .63.07.75.05.12.2.2.14.1.55.1V0h-2.6v-.22q.48 0 .64-.17t.17-.88v-2.51L2.06-1.1q0 .5.14.68.15.2.56.2V0H.27v-.22q.52 0 .67-.19.15-.18.14-.86V-4.1q0-.62-.06-.73a.5.5 0 0 0-.2-.2q-.14-.1-.55-.1v-.24h2.59v.24q-.4 0-.53.08a1 1 0 0 0-.2.2q-.08.1-.08.75Zm0 0"/>
    <path id="h" d="m4.63-5.37.21 1.46H4.6q-.22-.7-.45-.89-.22-.18-.95-.18H2.05v3.71q0 .63.06.75.08.12.2.2.15.1.55.1V0H.19v-.22Q.74-.23.9-.39t.17-.88V-4.1q0-.56-.06-.72a.4.4 0 0 0-.22-.23 2 2 0 0 0-.61-.08v-.24Zm0 0"/>
    <path id="i" d="M1.5-1.14q.28 0 .47.2t.19.46-.2.46a.66.66 0 0 1-.92 0 .7.7 0 0 1-.2-.46.64.64 0 0 1 .66-.66m0 0"/>
    <path id="j" d="m1.4-7.17 1.94-.94h.2v6.7q-.01.67.04.85.06.15.23.25.2.07.72.1V0H1.55v-.22q.56 0 .72-.1.16-.08.23-.23.06-.15.06-.86v-4.28q0-.87-.04-1.1a.5.5 0 0 0-.16-.29.4.4 0 0 0-.27-.1q-.21 0-.59.2Zm0 0"/>
    <path id="n" d="M5.48-2.66H2.42L1.88-1.4q-.2.48-.2.7 0 .18.16.32.18.13.75.17V0H.1v-.22q.5-.1.64-.23.3-.3.68-1.14l2.8-6.53h.2l2.76 6.6q.33.8.6 1.04.28.23.76.26V0H5.4v-.22q.49 0 .64-.15.17-.14.17-.33 0-.27-.23-.82Zm-.15-.43L3.98-6.31 2.6-3.1Zm0 0"/>
    <path id="m" d="M7.97-.22V0H5.9a44 44 0 0 0-2.7-3.66q-.24-.15-.73-.17v2.38q0 .8.2 1.01t.96.22V0H.22v-.22q.73 0 .94-.22.2-.21.2-1.01V-6.5q0-.78-.2-.98-.2-.22-.94-.25v-.22h3.42v.22q-.75.03-.95.25-.2.2-.2.98v2.22q.63 0 .88-.1.25-.08.55-.35.3-.3.49-.6.18-.33.46-1.08a7 7 0 0 1 .43-.96q.17-.27.54-.47t.88-.2q.9 0 .9.63 0 .22-.18.4a.6.6 0 0 1-.4.15q-.17 0-.56-.19a1 1 0 0 0-.46-.17q-.2 0-.33.2t-.42 1Q4.7-4.52 3.83-4.1q.53.1 1.47 1.45A18 18 0 0 0 6.78-.72q.46.5 1.19.5m0 0"/>
    <path id="f" d="M6.45 0H3.03v-.22q.68-.01.9-.17.24-.17.24-.72-1.97 0-2.84-.83a2.7 2.7 0 0 1-.88-2.08q0-.93.52-1.59.51-.66 1.26-.92.77-.25 1.94-.25 0-.5-.14-.66a1 1 0 0 0-.31-.22 3 3 0 0 0-.69-.07v-.22h3.42v.22q-.69.03-.9.21t-.25.74q1.26 0 1.98.28.73.27 1.25.9.52.65.52 1.58-.01 1.22-.86 2.07-.84.84-2.9.84.03.54.26.7.21.18.9.2ZM5.3-1.53q.87 0 1.37-.22.52-.24.85-.81.34-.6.34-1.46 0-.8-.34-1.37a1.7 1.7 0 0 0-.85-.77 4 4 0 0 0-1.37-.2Zm-1.13 0v-4.83q-.9 0-1.4.24-.5.22-.82.75-.32.52-.32 1.35 0 .93.39 1.54.38.6.9.78.53.17 1.25.17m0 0"/>
    <path id="a" d="M10.58-7.55H8.56l-4.08 5.7-.67-5.7H1.63v.2q.9.03.89.41-.01.16-.11.47-.05.07-.11.36l-.05.13-1.28 4.3C.59-.49.4-.26-.22-.19V0h2.4v-.19c-.62-.04-.85-.18-.85-.5 0-.14.04-.4.1-.62l1.43-5L3.59 0h.22l4.56-6.48-1.56 5.43c-.18.61-.43.78-1.22.86V0h3.32v-.19c-.83-.06-.94-.14-.94-.5 0-.19.01-.34.12-.7l1.5-5.13c.22-.68.29-.75.99-.84Zm0 0"/>
    <path id="d" d="M4.7-1.3c-.4.74-.47.82-.67.82-.25 0-.48-.4-.92-1.54l-.42-1.04c1.69-1.56 2.01-1.8 2.56-1.85v-.18h-2.1v.18c.5.02.63.07.63.22q-.01.38-1.62 1.67-.26.19-.49.4l1.36-5.44-.05-.06a16 16 0 0 1-1.78.32v.2c.57-.03.77.07.78.29-.03.2-.1.51-.25 1.06l-.1.4-.02.1L.16 0h.86l.54-2.14.47-.38c.19.52.49 1.25.69 1.68.36.75.56.97.9.97.46 0 .74-.3 1.25-1.3Zm0 0"/>
    <path id="e" d="M5.63-4.66h-.74q-.05 0-.19-.09a2 2 0 0 0-1.17-.33c-1.31 0-2.39.9-2.39 1.97 0 .6.25.94.94 1.25-.7.45-.9.69-.9.97q0 .2.3.44C.31.3.1.53.1 1.06c0 .8.79 1.32 1.99 1.32 1.5 0 2.5-.7 2.5-1.7q.01-1.06-1.7-1.5c-.52-.13-.83-.32-.83-.5 0-.16.28-.46.42-.46l.1.01q.16.04.35.04c1.11 0 2.2-.94 2.2-1.83q0-.29-.09-.66h.6ZM1.77-.33l.06.03q.04.03.34.1c1.27.4 1.7.7 1.7 1.23 0 .63-.7 1.1-1.6 1.1C1.3 2.13.75 1.69.75.93q0-.37.27-.68c.15-.2.65-.58.75-.58m1.76-4.5q.66 0 .66.83c0 .4-.14.9-.36 1.3q-.42.71-1.05.72c-.45 0-.7-.32-.7-.86 0-1.07.67-1.99 1.45-1.99m0 0"/>
    <path id="p" d="M5.56-1.33c-.67.75-.78.85-.98.85q-.2-.01-.22-.24c0-.19.37-1.6.78-2.95.27-.95.52-1.85 1.19-4.47l-.06-.06c-.63.14-1.07.2-1.85.28v.2c.67.03.75.06.75.31 0 .18-.01.2-.19.85L4.47-4.6c-.1-.5-.31-.7-.78-.7-1.56 0-3.5 2.26-3.5 4.06C.19-.4.66.13 1.44.13c.81 0 1.34-.38 2.15-1.58-.12.6-.15.8-.15 1.06 0 .33.2.55.51.55.5 0 1.14-.5 1.75-1.38ZM3.73-5.02q.54.04.54.7c0 1.8-1.24 3.88-2.35 3.88-.42 0-.7-.31-.7-.8 0-.98.6-2.38 1.39-3.23.34-.34.78-.58 1.12-.55m0 0"/>
    <path id="t" d="M1.75-7.64c.69.08.86.19.86.5 0 .19-.05.39-.2.95L.98-1.08c-.21.72-.3.8-.98.9V0h2.94v-.19c-.75-.1-.81-.15-.81-.56 0-.14.01-.23.14-.69l.64-2.31c.3.06.59.1 1.1.1.97 0 1.8-.2 2.3-.58.6-.46.96-1.11.96-1.82 0-1.15-.91-1.8-2.54-1.8H1.75Zm2.1.5c.09-.25.23-.33.57-.33.47 0 .92.1 1.16.28q.46.32.45 1.14 0 1.17-.81 1.64c-.38.2-.84.3-1.58.3-.22 0-.28 0-.62-.05Zm0 0"/>
    <path id="c" d="M10.58-7.52H8.56L4.48-1.84l-.67-5.68H1.63v.2q.9.03.89.41-.01.16-.11.47-.05.07-.11.35l-.05.12L.97-1.69C.59-.49.4-.25-.22-.19V0h2.4v-.19c-.62-.04-.85-.18-.85-.5 0-.12.04-.4.1-.6l1.43-5L3.59 0h.22l4.56-6.45-1.56 5.4c-.18.61-.43.78-1.22.86V0h3.32v-.19c-.83-.06-.94-.14-.94-.48a2 2 0 0 1 .12-.7l1.5-5.11c.22-.7.29-.75.99-.85Zm0 0"/>
    <path id="k" d="m8.53-1.4-.17.18-.33.4c-.26.27-.39.37-.56.37q-.16 0-.16-.2c0-.05.05-.26.13-.54l.84-3.03c.02-.06.03-.25.03-.33 0-.43-.31-.76-.72-.76-.25 0-.48.08-.78.26-.6.4-1.12.97-1.97 2.28a9 9 0 0 0 .49-1.82c0-.44-.28-.72-.7-.72-.75 0-1.63.8-2.75 2.54l.71-2.51-.04-.03-1.99.37v.19c.58.02.58.02.69.08.06.01.1.1.1.19 0 .14-.29 1.25-.73 2.76L.16 0h.92c.6-1.9.78-2.36 1.2-2.98.7-1.05 1.44-1.7 1.86-1.7q.24 0 .24.29c0 .16-.36 1.58-.86 3.28L3.2 0h.94c.49-1.87.74-2.5 1.36-3.34.6-.82 1.23-1.35 1.6-1.35.13 0 .24.11.24.25q0 .09-.09.42l-.72 2.79c-.12.46-.16.67-.16.78q.01.56.5.56C7.46.1 8-.3 8.66-1.2l.06-.08Zm0 0"/>
    <path id="l" d="M7.23-4.98q0 1.31-.92 2.23-.92.93-2.23.92-1.32 0-2.24-.92a3 3 0 0 1-.92-2.23q0-1.31.92-2.24a3 3 0 0 1 2.24-.92q1.31 0 2.23.92.92.93.92 2.24m0 0"/>
    <path id="r" d="M3.3-4.1 1.33 0H.28l2.69-5.53-.11-.52q-.17-.84-.47-1.14a1 1 0 0 0-.66-.3.8.8 0 0 0-.57.24q-.24.24-.32.78H.63q0-.91.45-1.47.3-.39.75-.39.4 0 .69.31.42.48.68 1.68l.94 4.12q.2.93.49 1.2.24.3.6.29.34 0 .57-.24.21-.24.26-.73h.22l.02.23q0 .76-.4 1.24a.9.9 0 0 1-.74.36 1 1 0 0 1-.74-.35q-.3-.36-.6-1.6Zm0 0"/>
    <path id="v" d="M2.05-5.44c-.46 0-.78.13-1.08.42C.5-4.58.19-3.64.19-2.7c0 .89.26 1.8.65 2.26q.46.55 1.18.55.6 0 1.04-.42c.47-.44.77-1.38.77-2.35 0-1.65-.74-2.78-1.78-2.78m-.03.2c.68 0 1.04.91 1.04 2.6Q3.05-.1 2.02-.1.97-.1.97-2.62q0-2.6 1.05-2.61m0 0"/>
    <path id="q" d="m9.47-25.41.65.6.59.63.26.34.21.33.04.09.12.3.02.1.04.31v.15l-.06.3-.04.13-.14.3-.04.07-.2.3-.3.34-.61.62-.27.28-.23.28-.24.3-.3.32-.59.61-.25.28-.18.26.05-.08-.15.3.04-.13-.05.3v-.17l.05.3-.04-.13.15.3-.05-.07.21.3.23.26.57.57.3.31.25.32.25.3.26.28.58.59.28.32.24.33.04.08.14.3q.04.06.04.13l.06.3v.17l-.06.3q0 .06-.04.13l-.14.3-.04.07-.2.3-.3.34-.61.62-.27.28-.23.28-.24.3-.3.32-.59.61-.25.28-.18.26.05-.08-.15.3.04-.13-.05.3v-.17l.05.3-.04-.13.15.3-.05-.07.21.3.23.26.57.57.3.31.25.32.25.3.26.28.58.59.28.32.24.33.04.08.14.3q.04.06.04.13l.06.3q.02.1-.01.2l-.07.27a.4.4 0 0 1-.08.18l-.17.22-.08.1-.25.2-.32.22-.28.23.05-.05-.29.32.06-.09-.24.4.05-.1-.17.52.02-.08-.1.66v1.46a.5.5 0 0 1-.5.49.5.5 0 0 1-.5-.5l.02-1.6.09-.64.02-.09.17-.52.04-.11.24-.4.07-.09.29-.3q.02-.04.05-.06l.33-.26.27-.19.25-.21-.09.09.17-.22-.1.18.08-.27v.2l-.06-.29.04.13-.14-.3.04.07-.18-.25-.24-.28-.59-.61-.3-.32-.25-.3-.23-.28-.26-.3-.61-.6-.3-.35-.2-.3-.05-.07-.14-.3-.04-.13-.05-.3v-.17l.05-.3.04-.13.14-.3.05-.07.24-.33.28-.32.58-.6.25-.27.25-.3.27-.32.29-.32.56-.57.23-.25.2-.3-.03.07.14-.3-.04.13.05-.3v.17l-.05-.3.04.13-.14-.3.04.07-.18-.25-.24-.28-.59-.61-.3-.32-.25-.3-.23-.28-.26-.29-.61-.61-.3-.35-.2-.3-.05-.07-.14-.3-.04-.13-.05-.3v-.17l.05-.3.04-.13.14-.3.05-.07.24-.33.28-.32.58-.6.25-.27.25-.3.27-.32.29-.32.56-.57.23-.25.2-.3-.03.07.14-.3-.04.13.05-.3v.14l-.04-.3.03.12-.1-.3.03.08-.16-.25-.18-.26-.55-.57-.65-.6a.5.5 0 1 1 .68-.74M12 0 9.13 6.06 6 .13Z"/>
  </defs>
  <use xlink:href="#a" x="129.5" y="317.94"/>
  <use xlink:href="#c" x="128.9" y="255.65"/>
  <use xlink:href="#d" x="93.02" y="286.59"/>
  <use xlink:href="#b" x="100.94" y="286.49"/>
  <path fill="#fff" fill-rule="evenodd" stroke="#000" stroke-linecap="round" stroke-miterlimit="10" d="M100.65 265.6h23.25v-15h-23.25Zm.15 61.6h23.25v-15H100.8Zm0 0"/>
  <use xlink:href="#e" x="142.01" y="217.37"/>
  <use xlink:href="#f" x="100.1" y="358.37"/>
  <use xlink:href="#g" x="109.58" y="358.37"/>
  <use xlink:href="#h" x="116.05" y="358.37"/>
  <use xlink:href="#i" x="120.97" y="358.37"/>
  <use xlink:href="#ad" x="123.97" y="358.37"/>
  <use xlink:href="#j" x="126.97" y="358.37"/>
  <use xlink:href="#b" x="132.98" y="358.37"/>
  <path d="m137.15 206.1.04 20.4a.5.5 0 0 1-.5.5.5.5 0 0 1-.5-.5l-.04-20.4c0-.28.22-.5.5-.5s.5.22.5.5m1.54 19.4-2 6-2-6Zm0 0"/>
  <path fill="none" stroke="#000" stroke-linecap="round" stroke-linejoin="round" stroke-miterlimit="10" stroke-width=".5" d="m111 265.75 9.6 2.85m0 0-16.8 3.35m16.8 3.35-16.8-3.35m16.8 3.65-16.8 3.35m16.8 3.35-16.8-3.35m16.8 3.35-16.8 3.35m16.8 3.3-16.8-3.3m16.8 3.3-16.8 3.35m16.8 3.35-16.8-3.35m16.8 3.35L103.8 299m16.8 3.35L103.8 299m16.8 3.35-16.8 3.35m16.8 3.35-16.8-3.35m7.2 6.25 9.6-2.9"/>
  <use xlink:href="#k" x="119.75" y="202.99"/>
  <use xlink:href="#bR" x="131.06" y="202.94"/>
  <path fill="none" stroke="#000" stroke-linejoin="round" stroke-miterlimit="10" stroke-width="1.5" d="m78.8 328.25 66.4-.05"/>
  <path fill="none" stroke="#000" stroke-linecap="round" stroke-linejoin="round" stroke-miterlimit="10" stroke-width=".75" d="m79.45 335.6 13.05-7.25m-1.05 7.1 13.05-7.25m-1.05 7.55 13.05-7.25m-1.05 7.1 13.05-7.25m-1.05 7.1 13.05-7.25"/>
  <use xlink:href="#l" x="109.08" y="206.34"/>
  <path fill-rule="evenodd" stroke="#000" stroke-linecap="round" stroke-miterlimit="8" stroke-width=".75" d="M419.9 571.75h90v-4.55h-90Zm0 0"/>
  <path fill="#fff" fill-rule="evenodd" stroke="#000" stroke-linecap="round" stroke-miterlimit="8" stroke-width=".75" d="M419.9 549.2h90v-3.55h-90Zm0 0"/>
  <use xlink:href="#m" x="409.18" y="572.83"/>
  <use xlink:href="#b" x="417.22" y="572.83"/>
  <use xlink:href="#n" x="409.18" y="545.83"/>
  <use xlink:href="#b" x="417.82" y="545.83"/>
  <path d="M519.4 551.2v14a.5.5 0 0 1-.5.5.5.5 0 0 1-.5-.5v-14c0-.28.22-.5.5-.5s.5.22.5.5m-4.43 5.75 3.93-6.74 3.93 6.74a.5.5 0 0 1-.18.68.5.5 0 0 1-.68-.18l-3.5-6h.86l-3.5 6a.5.5 0 0 1-.68.18.5.5 0 0 1-.18-.68m7.86 2.5-3.93 6.74-3.93-6.74a.5.5 0 0 1 .18-.68.5.5 0 0 1 .68.18l3.5 6h-.86l3.5-6a.5.5 0 0 1 .68-.18.5.5 0 0 1 .18.68m0 0"/>
  <use xlink:href="#p" x="526.2" y="563.83"/>
  <use xlink:href="#bR" x="532.2" y="563.83"/>
  <use xlink:href="#q" x="424.35" y="552.14"/>
  <use xlink:href="#q" x="436.35" y="552.14"/>
  <use xlink:href="#q" x="448.35" y="552.14"/>
  <use xlink:href="#q" x="460.35" y="552.14"/>
  <use xlink:href="#q" x="472.35" y="552.14"/>
  <use xlink:href="#q" x="484.35" y="552.14"/>
  <use xlink:href="#r" x="502.54" y="539.95"/>
  <use xlink:href="#s" x="509.26" y="539.95"/>
  <use xlink:href="#b" x="512.26" y="539.95"/>
  <use xlink:href="#t" x="515.26" y="539.95"/>
  <use xlink:href="#v" x="522.48" y="541.51"/>
  <use xlink:href="#ce" x="526.44" y="541.51"/>
</svg>
