<svg xmlns="http://www.w3.org/2000/svg" xmlns:xlink="http://www.w3.org/1999/xlink" width="612" height="792" viewBox="0 0 612 792">
  <defs>
    <path id="a" d="m4.5-.55-.02.13-.03.14-.1.25-.16.08-.27.04q-.27 0-.44-.06a.5.5 0 0 1-.26-.17 1 1 0 0 1-.17-.31l-.08-.47-.31-2.9-2 3.65-.08.1L.47 0 .3.02a2 2 0 0 1-.5 0Q-.28 0-.3-.03l-.02-.11.08-.16 2.77-4.72-.13-1.06-.05-.19a.4.4 0 0 0-.2-.23l-.17-.03a1 1 0 0 0-.3.05l-.15.03q-.05 0-.08-.02l-.02-.1.02-.1.03-.16q0-.1.05-.17l.07-.1q.06-.07.2-.1.16-.05.34-.05.25 0 .45.06t.34.19.22.34.13.52l.54 4.98a1 1 0 0 0 .11.44.2.2 0 0 0 .11.06h.28l.1-.01q.04 0 .06.03.03.01.03.1M0-4.94"/>
    <path id="k" d="M5.25-.23a.4.4 0 0 1-.14.17.3.3 0 0 1-.2.06H.13q-.14 0-.2-.06t-.05-.19l.01-.06q0-.06.02-.11l.01-.11.02-.1.08-.15q.05-.12.2-.36l3.01-5.42.07-.08.1-.06.18-.03a3 3 0 0 1 .72.03l.06.03.05.04.01.08.86 5.4.03.3.02.16-.02.11-.01.13zM3.67-5.81.94-.73h3.48Zm0 0"/>
    <path id="l" d="m2.9-2.52 1 2.29q.04.07.02.12 0 .05-.06.08L3.7.02A2 2 0 0 1 3.1 0q-.06 0-.07-.05L3-.1l-.78-1.84L.75-.11l-.06.06-.1.05-.17.02a2 2 0 0 1-.48 0L-.2-.03q-.04-.03-.03-.08 0-.05.04-.1l1.96-2.32L.8-4.7l-.03-.13q0-.04.06-.08l.14-.03a2 2 0 0 1 .62.02l.07.04q0 .02.03.05l.73 1.75 1.4-1.75.07-.04.08-.05.14-.02a2 2 0 0 1 .64.03q.04.03.03.08 0 .05-.08.11Zm0 0"/>
    <path id="b" d="M4.22-.12Q4.2-.04 4.1 0t-.3.03L3.6.02 3.5 0l-.05-.05v-.07L3.61-1q-.06.17-.23.38a3 3 0 0 1-.96.62 2 2 0 0 1-1.14.02 1 1 0 0 1-.37-.2Q.75-.34.66-.5L.5-.87l-.06-.38a4 4 0 0 1 .22-1.78 5 5 0 0 1 .3-.74q.21-.35.48-.62.28-.29.64-.45a2 2 0 0 1 1.6.01q.15.08.29.2t.25.25l.51-2.64.04-.07.07-.05.14-.03a2 2 0 0 1 .41 0l.14.03q.05.02.05.05l.01.07Zm-.17-3.43a2 2 0 0 0-.53-.54 1.1 1.1 0 0 0-1.13-.07q-.22.13-.4.35-.18.2-.3.48-.13.27-.2.56a6 6 0 0 0-.18 1.1q0 .51.17.78t.55.27q.3 0 .58-.16.28-.15.53-.42.24-.28.44-.66t.3-.83Zm0 0"/>
    <path id="c" d="M6.33-4.28a6 6 0 0 1-.2 1.44 4 4 0 0 1-.66 1.39q-.23.3-.53.57a3 3 0 0 1-1.57.77Q2.92 0 2.26 0H.75Q.68 0 .63-.02a.2.2 0 0 1-.11-.06l-.05-.1a.3.3 0 0 1 .01-.18l1.2-5.97q.02-.2.15-.28a.5.5 0 0 1 .28-.08h1.4q.79 0 1.29.16.51.15.84.47.34.3.52.76.17.45.17 1.02m-.95.08q0-.4-.11-.7-.1-.33-.33-.55a1.5 1.5 0 0 0-.58-.36q-.37-.14-.94-.14h-.94L1.45-.75h.93q.61 0 1.04-.14a2.5 2.5 0 0 0 1.3-1.03q.24-.34.37-.72a4 4 0 0 0 .29-1.56m0 0"/>
    <path id="d" d="m4.23-6.9-.01.06-.02.1-.01.12-.03.1-.05.08q-.03.04-.06.03l-.1-.01-.12-.03-.17-.05-.22-.03q-.23 0-.38.06a1 1 0 0 0-.28.22q-.11.14-.19.36t-.12.5l-.1.47h1.05q.05 0 .08.04.05.04.05.13l-.02.1-.03.13-.05.13-.04.1-.07.06-.06.03H2.23L1.34.2a3 3 0 0 1-.23.74q-.15.33-.38.53a1.3 1.3 0 0 1-.5.31 2 2 0 0 1-1.01.06l-.19-.06-.03-.05-.02-.09.02-.06.02-.11.03-.11.03-.13.05-.07.06-.02h.15l.1.02.12.01q.23 0 .38-.06T.2.9.4.55L.52.02l.85-4.22H.72q-.06 0-.1-.03l-.01-.14v-.1l.02-.12q0-.06.03-.11l.12-.2.08-.02h.66l.12-.64q.1-.42.25-.74.15-.33.38-.53.2-.21.5-.31.29-.1.64-.1l.23.02q.12 0 .23.03l.2.05.1.06.05.08zm0 0"/>
    <path id="f" d="M4.9-3.75q0 .17-.04.36l-.05.36-.58 2.9-.04.07L4.1 0l-.14.02A1.4 1.4 0 0 1 3.44 0q-.05-.03-.06-.06v-.06L3.95-3 4-3.31l.02-.27q0-.3-.14-.5t-.46-.2q-.27 0-.56.16-.29.15-.53.43t-.46.66q-.18.38-.26.83L1.19-.12l-.03.06-.08.06-.14.02a1 1 0 0 1-.42 0L.39 0 .34-.06v-.06l.94-4.68.02-.06.07-.05.13-.01a1 1 0 0 1 .45.01l.07.05v.06l-.18.9q.08-.18.25-.37a2.5 2.5 0 0 1 .96-.64q.3-.1.6-.1.37 0 .58.1.24.1.38.29.15.17.22.4.06.22.06.47m0 0"/>
    <path id="h" d="m5.27-.12-.05.06q-.02.03-.08.04T5 .02a2 2 0 0 1-.44 0l-.12-.04q-.05 0-.07-.04v-.06l.6-2.99H1.92l-.6 2.99-.04.06q-.02.03-.08.04l-.14.04a2 2 0 0 1-.44 0L.5-.02q-.04 0-.06-.04v-.06l1.28-6.44q0-.03.03-.07l.1-.04.13-.03a2 2 0 0 1 .43 0q.08 0 .14.03.04.02.04.04l.02.07-.53 2.68h3.05l.53-2.68.03-.07.1-.04.13-.03a2 2 0 0 1 .42 0q.1 0 .14.03.06.02.07.04v.07Zm0 0"/>
    <path id="i" d="m1.19-.12-.03.06-.08.06-.14.02a1 1 0 0 1-.42 0L.39 0 .34-.06v-.06l1.38-6.93.01-.06.08-.05.14-.03a2 2 0 0 1 .44 0q.08 0 .11.03l.06.05v.06Zm0 0"/>
    <path id="j" d="M5.06-3.33a5 5 0 0 1-.25 1.44q-.12.38-.31.73a2.6 2.6 0 0 1-1.1 1.1 2 2 0 0 1-1.62-.02 2 2 0 0 1-.6-.5l-.09.45q0 .09-.1.13-.1.03-.32.03L.4 0Q.31-.05.34-.12l1.38-6.93.01-.06.08-.05.14-.03a2 2 0 0 1 .43 0q.07 0 .12.03l.06.05v.06l-.4 2.1-.07.28-.07.28-.08.26-.06.22q.07-.18.25-.37a3 3 0 0 1 .95-.63 1.6 1.6 0 0 1 1.1-.03q.23.09.38.22.15.14.25.33.1.17.14.36.06.17.08.36zm-.9.06a2 2 0 0 0-.13-.65 1 1 0 0 0-.22-.25.6.6 0 0 0-.37-.11q-.29 0-.58.16-.29.15-.53.43a3 3 0 0 0-.74 1.5l-.15.86q.23.36.51.53a1.2 1.2 0 0 0 1.13.05q.21-.13.39-.33.17-.21.3-.48t.21-.55q.1-.3.13-.6.05-.29.05-.56m0 0"/>
    <path id="e" d="m3.98-.6-.01.08q0 .07-.02.13l-.03.14-.04.13-.08.09-.08.03H.73l-.1-.02-.1-.06-.06-.1a.3.3 0 0 1 .01-.18l1.24-6.22q0-.04.05-.08l.07-.04.14-.03a2 2 0 0 1 .43 0q.08 0 .14.03.04 0 .06.04v.08L1.45-.77h2.4q.1 0 .1.05.03.05.03.13m0 0"/>
    <path id="ad" d="M4.9-3.77a5 5 0 0 1-.09.72L4.23-.12l-.04.06L4.1 0l-.13.02A2 2 0 0 1 3.44 0q-.05-.03-.06-.06v-.06l.57-2.9.05-.3.02-.27q0-.32-.14-.5-.14-.2-.46-.2-.27 0-.56.15t-.53.44a3.4 3.4 0 0 0-.72 1.48l-.42 2.1-.03.06-.08.06-.14.02a1 1 0 0 1-.42 0L.39 0 .34-.06v-.06l.94-4.68.02-.08.07-.04.13-.02a1 1 0 0 1 .47.02l.05.04v.08l-.18.9q.08-.2.25-.38a2.5 2.5 0 0 1 .96-.64q.3-.1.62-.11.34 0 .58.1.24.12.38.29.14.18.2.4t.06.47m0 0"/>
    <path id="g" d="M4.63-4.2q-.54 0-.94-.05A4 4 0 0 1 3-4.41a2 2 0 0 1-.47-.23 1 1 0 0 1-.31-.31 1 1 0 0 1-.16-.36 2 2 0 0 1-.04-.4q0-.3.1-.57.13-.28.35-.49.23-.2.56-.34.34-.12.78-.12.45 0 .78.14.35.13.57.42.23.27.32.65.1.38.11.88v.22h.54q.05 0 .09.04t.03.13l-.02.1-.01.1-.03.11-.05.13-.08.08q-.03.03-.1.03h-.44a13 13 0 0 1-.55 2.04q-.19.47-.44.9-.25.4-.6.71A2.5 2.5 0 0 1 1.56 0a1 1 0 0 1-.47-.3Q.88-.5.8-.8q-.1-.3-.1-.65 0-.33.05-.63t.1-.56l.12-.48q.05-.24.05-.4t-.07-.21A.2.2 0 0 0 .8-3.8l-.24.03-.15.02q-.04 0-.07-.02l-.01-.09.01-.1.03-.15.05-.17.08-.11.08-.05.14-.04.19-.04.18-.01a.8.8 0 0 1 .58.2q.22.21.22.63 0 .2-.05.47l-.1.53a8 8 0 0 0-.16 1.1q0 .28.04.46.07.17.16.3.11.1.25.17.14.05.35.05.35 0 .65-.16.3-.17.52-.44.23-.29.4-.62a6 6 0 0 0 .52-1.57zm.09-.72v-.19q0-.3-.06-.58a1 1 0 0 0-.18-.45 1 1 0 0 0-.3-.28 1 1 0 0 0-.45-.11q-.23 0-.4.06a.8.8 0 0 0-.44.42 1 1 0 0 0-.05.28q0 .2.07.35.07.16.28.26.2.12.56.18t.97.06m0 0"/>
    <path id="m" d="M4.73-.12q0 .03-.03.06L4.64 0l-.12.02a1 1 0 0 1-.43 0L3.97 0l-.08-.06-.02-.06V-4.2h-2.2v4.08l-.03.06-.07.06-.14.02a1 1 0 0 1-.42 0L.88 0Q.82-.03.8-.06v-4.56q0-.15.06-.24a.3.3 0 0 1 .2-.08h3.42q.13 0 .2.08a.4.4 0 0 1 .05.24Zm0 0"/>
    <path id="n" d="M5.1-2.53q0 .6-.15 1.1-.12.49-.39.82-.25.34-.64.53a2 2 0 0 1-1.6.02L2-.3l-.34-.3v2.32q0 .04-.03.08l-.07.04-.14.03a1.4 1.4 0 0 1-.54-.03q-.06 0-.07-.04L.8 1.72V-4.8l.01-.08.06-.04.11-.02a1 1 0 0 1 .49.02l.06.04.02.08v.63q.21-.22.4-.38.2-.15.4-.26t.4-.16q.22-.06.45-.06.52 0 .88.2.36.19.58.53t.32.8.11.97m-.91.1q0-.37-.07-.7-.04-.33-.18-.59t-.36-.42a1 1 0 0 0-.55-.16q-.15 0-.33.05-.15.05-.33.16l-.34.28-.37.44v1.84q.33.44.65.67.33.22.67.22.33 0 .55-.16.24-.15.38-.4.14-.27.2-.58.08-.33.08-.66m0 0"/>
    <path id="o" d="M5.14-2.52q0 .57-.16 1.05-.15.49-.45.83t-.75.55q-.45.18-1.03.18T1.73-.08A1.8 1.8 0 0 1 .61-1.36Q.47-1.82.47-2.42q0-.58.14-1.05t.45-.83q.3-.36.74-.54.45-.2 1.04-.2.58 0 1 .18.45.17.72.5.29.33.42.8.15.45.16 1.04m-.9.07q0-.39-.08-.72a2 2 0 0 0-.24-.6 1 1 0 0 0-.44-.39q-.27-.15-.67-.15-.38 0-.65.14-.27.12-.46.37-.17.25-.26.6-.08.33-.08.72t.06.73q.07.33.24.58t.43.4q.3.15.7.15.38 0 .65-.13.28-.15.45-.37.17-.25.25-.58.1-.34.1-.75m0 0"/>
    <path id="p" d="M5.6 1.6q0 .04-.1.07l-.25.03q-.2 0-.3-.03-.08-.03-.08-.08V0h-3.8Q.92 0 .85-.08T.8-.3v-4.5l.01-.06.06-.05.13-.03a2 2 0 0 1 .42 0q.1 0 .14.03l.06.05q.04.02.04.06v4.07h2.23V-4.8q0-.04.02-.06 0-.02.06-.05l.14-.03a1 1 0 0 1 .42 0q.08 0 .13.03l.06.05q.03.02.03.06v4.07h.64q.12 0 .17.04.05.05.05.16Zm0 0"/>
    <path id="q" d="M4.78-2.67q0 .2-.1.3a.3.3 0 0 1-.23.07H1.4q0 .4.08.7.07.33.25.55t.47.35q.3.1.72.1a3 3 0 0 0 1.53-.35q.04 0 .06.03l.05.05.01.1.02.15v.12l-.02.1q0 .03-.03.06l-.05.06q0 .03-.15.1-.14.06-.38.12a4 4 0 0 1-1.14.15Q2.24.1 1.8-.06a2 2 0 0 1-.72-.47q-.3-.33-.46-.8a4 4 0 0 1 .02-2.19q.15-.48.44-.8.3-.34.7-.52.43-.2.94-.2a2 2 0 0 1 1.58.67q.24.3.36.7t.12.84Zm-.86-.25q.01-.67-.3-1.05-.3-.39-.93-.39-.32 0-.56.13-.25.11-.4.3-.15.2-.25.46-.09.27-.09.55Zm0 0"/>
    <path id="v" d="m4.63-.12-.02.06-.06.06-.14.02a1 1 0 0 1-.43 0L3.86 0l-.08-.06-.01-.06V-4.2H2.48a19 19 0 0 1-.46 2.6q-.14.46-.33.79a2 2 0 0 1-.4.53Q1.08-.1.84 0 .57.1.3.1L.2.07.16.02.12-.1v-.4q0-.08.03-.12L.2-.7h.07a1 1 0 0 0 .32-.08q.15-.08.29-.27.13-.18.25-.48t.21-.74.2-1.01l.16-1.35q.02-.15.08-.21.06-.08.19-.08h2.39q.12 0 .19.08.08.06.08.21Zm0 0"/>
    <path id="w" d="M4.31-.12q0 .06-.04.09l-.11.05a2 2 0 0 1-.44 0Q3.62 0 3.6-.03q-.03-.03-.03-.1v-.46q-.31.32-.69.51-.38.18-.8.17A2 2 0 0 1 1.42 0q-.3-.09-.51-.27a1 1 0 0 1-.32-.45q-.1-.26-.1-.6 0-.4.15-.68.15-.3.45-.48.32-.21.74-.3.44-.1.98-.1h.64v-.35q0-.27-.06-.47a1 1 0 0 0-.17-.36 1 1 0 0 0-.33-.2q-.2-.08-.5-.08-.32 0-.56.07a4 4 0 0 0-.77.35l-.19.06q-.04 0-.07-.02-.04 0-.07-.06l-.03-.1v-.15l.02-.2q0-.08.08-.14a3 3 0 0 1 1.67-.5q.5 0 .84.12.36.12.58.33t.31.55.11.75Zm-.86-2.13h-.72q-.36 0-.62.06-.25.06-.42.17a.6.6 0 0 0-.25.29 1 1 0 0 0-.08.37q0 .36.22.58.23.2.65.2.34 0 .61-.15.3-.18.61-.54Zm0 0"/>
    <path id="x" d="M6.69-.17q0 .1-.08.15a1 1 0 0 1-.31.05L5.95 0q-.04 0-.06-.03l-.01-.08-.35-2.73-.06-.64-.03-.35-.03-.33v-.1l-.11.3-.11.35-.11.34-.1.32L4-.2l-.05.11-.08.06-.12.04A1 1 0 0 1 3.27 0l-.08-.08-.06-.1-.94-2.77-.13-.3-.1-.34-.1-.36-.08-.32-.01.11-.04.33q0 .17-.03.35l-.03.34-.03.3-.33 2.68-.01.11Q1.28 0 1.22 0l-.14.02a1 1 0 0 1-.42 0L.55-.02.5-.08v-.1l.52-4.41q.03-.18.1-.25.1-.1.29-.1h.4q.16 0 .25.03.11.03.19.08t.13.16l.1.23.7 1.99.1.37.11.36.11.35.1.32.21-.7.11-.36q.06-.19.13-.34l.68-1.99.1-.22.1-.15.18-.1q.1-.03.26-.03h.41q.2 0 .28.08.1.09.11.25Zm0 0"/>
    <path id="ab" d="M6.94-3.55q0 .55-.19 1.02-.18.45-.52.8-.34.32-.87.53-.54.18-1.22.23v.85l-.03.06-.06.06-.14.02a1 1 0 0 1-.43 0L3.36 0l-.08-.05-.01-.07v-.85q-.72-.03-1.25-.2A2 2 0 0 1 .65-2.44a3 3 0 0 1 0-2.04q.16-.46.5-.79.37-.33.88-.54.53-.2 1.24-.24v-.8l.01-.07.08-.05L3.5-7a1 1 0 0 1 .4 0l.15.03q.04.02.06.05l.03.06v.81q.73.02 1.24.2.52.15.87.5.34.3.52.76.16.45.17 1.04m-.92.05q0-.4-.1-.72-.1-.33-.31-.56a2 2 0 0 0-.6-.38q-.36-.15-.87-.18v3.64q.51-.02.86-.18.36-.15.58-.39.23-.24.33-.56.1-.3.1-.67M3.27-5.34q-.52.03-.88.18t-.58.4q-.22.22-.33.54-.09.31-.09.67 0 .42.1.74.09.32.3.56.22.24.59.38t.89.17ZM0-6.72"/>
    <path id="ac" d="M4.9-.12q0 .03-.04.06L4.8 0l-.13.02a1 1 0 0 1-.42 0L4.13 0l-.08-.06-.02-.06v-2.05H1.66v2.05l-.03.06-.07.06-.14.02a1 1 0 0 1-.42 0L.88 0Q.82-.03.8-.06V-4.8l.01-.06.06-.05.13-.03a2 2 0 0 1 .42 0q.1 0 .14.03l.06.05q.04.02.04.06v1.9h2.37v-1.9q0-.04.02-.06l.08-.05.12-.03a2 2 0 0 1 .42 0q.08 0 .13.03l.06.05q.03.02.03.06Zm0 0"/>
    <path id="r" d="M4.63-.12q0 .03-.04.06L4.53 0l-.12.02a1 1 0 0 1-.43 0L3.84 0l-.06-.06-.01-.06V-4.2h-1.3a17 17 0 0 1-.45 2.58q-.14.47-.33.8-.2.33-.4.53a1.4 1.4 0 0 1-1 .37H.2L.16.02.12-.1v-.4q0-.08.03-.12L.2-.7h.07a1 1 0 0 0 .32-.08 1 1 0 0 0 .29-.25q.13-.2.25-.49.12-.3.21-.73.1-.44.2-1.02L1.7-4.6q.02-.15.08-.23t.19-.08h2.39q.12 0 .19.08t.08.23Zm0 0"/>
    <path id="s" d="M4.77-2.66q0 .21-.11.3a.3.3 0 0 1-.22.08H1.39q0 .4.06.7.08.3.27.53.18.22.47.35.3.1.72.1a3 3 0 0 0 1.03-.17l.31-.12.19-.06q.03 0 .06.03l.05.05.01.1.02.16-.02.11-.01.1-.02.06-.05.06-.17.1-.36.12a4 4 0 0 1-1.14.15Q2.24.1 1.8-.06a2 2 0 0 1-.72-.47q-.3-.33-.46-.8a4 4 0 0 1 .02-2.19q.15-.48.44-.8.3-.35.7-.5.43-.2.94-.2.54 0 .94.18.38.17.62.46.26.3.36.7.13.42.13.87ZM3.9-2.9q0-.67-.3-1.04-.32-.4-.92-.4a1.2 1.2 0 0 0-.97.44 1.5 1.5 0 0 0-.33 1Zm0 0"/>
    <path id="t" d="m7.78 1.58-.01.04-.07.05-.1.02-.16.01-.19-.01-.1-.02-.07-.04-.02-.04V0h-6q-.12 0-.2-.08Q.8-.15.8-.3v-4.48l.01-.08.06-.05.15-.01a1 1 0 0 1 .4 0l.14.01.06.05.02.08v4.05h1.8v-4.05l.01-.08.08-.05.13-.01a1 1 0 0 1 .4 0l.13.01.06.05q.03.03.03.08v4.05h1.8v-4.05l.01-.08.08-.05.13-.01a1 1 0 0 1 .4 0l.14.01.07.05q.03.03.03.08v4.05h.62q.12 0 .17.04.06.05.05.17Zm0 0"/>
    <path id="u" d="M4.31-.12q0 .06-.04.09l-.13.05-.2.01-.22-.01-.13-.05q-.03-.03-.03-.1v-.46q-.3.32-.67.51-.38.18-.8.17-.37 0-.67-.09T.91-.27a1 1 0 0 1-.32-.45q-.1-.26-.1-.6 0-.4.15-.68.15-.3.45-.48.32-.19.74-.29.44-.09.98-.09h.64v-.37q0-.27-.06-.47a1 1 0 0 0-.17-.35 1 1 0 0 0-.33-.2q-.2-.08-.5-.08a2 2 0 0 0-1.02.25q-.19.08-.3.16-.15.08-.2.08-.04 0-.07-.02l-.07-.06-.03-.11v-.14l.02-.2q0-.08.08-.15a3 3 0 0 1 1.67-.5q.5 0 .84.11.36.12.58.35t.31.54.11.75Zm-.86-2.13h-.73q-.34 0-.61.06-.25.07-.42.19a1 1 0 0 0-.25.27 1 1 0 0 0-.08.37q0 .36.22.58.23.22.65.22.34 0 .61-.17.3-.18.61-.54Zm0 0"/>
    <path id="P" d="m4.6-.1-.02.07L4.5 0l-.12.02a1 1 0 0 1-.44 0L3.78 0 3.7-.05l-.03-.07-.5-1.2a2 2 0 0 0-.2-.4 1 1 0 0 0-.56-.42A2 2 0 0 0 2-2.2h-.37v2.1l-.03.04Q1.59 0 1.53 0l-.12.02a1 1 0 0 1-.4 0L.9 0 .81-.05.8-.09v-4.74l.01-.04a.1.1 0 0 1 .08-.04l.13-.01a2 2 0 0 1 .51.01q.06 0 .08.04.03 0 .03.04v1.96h.38q.18 0 .34-.05a1 1 0 0 0 .55-.4 2 2 0 0 0 .2-.4l.42-1.06q0-.05.03-.08l.08-.05.14-.01a2 2 0 0 1 .56.01q.05 0 .07.04l.01.04-.01.11-.05.11-.44 1.03a3 3 0 0 1-.47.74 1 1 0 0 1-.26.17l-.24.1q.18.07.33.16t.28.22q.15.13.25.3l.22.4.5 1.2.03.06.02.06.01.05zm0 0"/>
    <path id="Q" d="M7.19-2.52q0 .57-.16 1.05A2.2 2.2 0 0 1 5.87-.09q-.42.18-.96.18-.57 0-.97-.14-.42-.15-.67-.45a2 2 0 0 1-.43-.72q-.13-.43-.15-.97H1.64v2.07l-.01.06-.07.06-.14.02a1 1 0 0 1-.42 0L.88 0Q.82-.03.8-.06v-4.72l.01-.08.06-.05.13-.01a2 2 0 0 1 .56.01l.06.05.02.08v1.9H2.7q.05-.46.2-.85.18-.4.46-.7.28-.27.69-.43t.93-.16q.55 0 .96.18a1.8 1.8 0 0 1 1.1 1.3q.15.45.15 1.02m-.9.05q0-.36-.06-.69a2 2 0 0 0-.21-.59q-.16-.24-.43-.4-.24-.15-.65-.15-.36 0-.63.14-.25.13-.42.38t-.27.6a4 4 0 0 0-.02 1.45q.07.32.23.57t.4.4q.27.14.68.14.33 0 .59-.11.26-.13.44-.35.17-.23.26-.58.1-.35.1-.8m0 0"/>
    <path id="R" d="M4.63-1.47q0 .36-.15.66-.13.28-.42.48-.27.2-.68.3t-.96.1H2.1L1.8.04 1.5.02 1.2 0Q.98 0 .9-.12a.5.5 0 0 1-.1-.33v-4.02q0-.21.1-.33.08-.1.29-.12l.28-.03.31-.02.33-.01h.34q.52 0 .88.07.38.09.6.25.26.15.37.4.12.21.12.53a1.1 1.1 0 0 1-.83 1.06q.52.1.77.42.26.31.26.78M3.59-3.63a1 1 0 0 0-.06-.3.5.5 0 0 0-.2-.23q-.15-.08-.38-.14a3 3 0 0 0-.54-.04 7 7 0 0 0-.79.03v1.45h.86q.56 0 .83-.2a.7.7 0 0 0 .28-.56m.16 2.18a1 1 0 0 0-.08-.36 1 1 0 0 0-.23-.27 1 1 0 0 0-.4-.15 3 3 0 0 0-.59-.05h-.83v1.64l.2.03.23.02.22.01h.2q.34 0 .58-.06.22-.06.39-.17.15-.1.23-.27a1 1 0 0 0 .08-.37m0 0"/>
    <path id="S" d="m4.06-4.53-.01.19-.05.1-.05.08-.08.02H2.49v4.01q0 .04-.03.07L2.4 0l-.12.02a2 2 0 0 1-.43 0L1.7 0l-.06-.06-.01-.06v-4.02H.23q-.04 0-.07-.02l-.07-.07-.03-.13-.01-.17.01-.17.03-.13.07-.06.07-.03h3.65q.04 0 .07.03t.05.06l.05.13zm0 0"/>
    <path id="T" d="M4.14-.84v.15l-.01.11-.04.08L4-.4a1.7 1.7 0 0 1-.98.45q-.24.04-.47.04-.51 0-.9-.15A2 2 0 0 1 1-.55a2 2 0 0 1-.4-.78A4 4 0 0 1 .46-2.4q0-.68.16-1.17.16-.5.46-.81.3-.3.7-.47a2.4 2.4 0 0 1 1.27-.1q.22.04.4.1t.3.16.2.14l.09.1.04.08.02.11.01.16q0 .2-.04.28-.05.08-.11.08a.3.3 0 0 1-.19-.08l-.25-.19q-.16-.1-.37-.18-.22-.1-.54-.1-.6 0-.93.49-.33.46-.33 1.36 0 .45.08.8.09.34.25.57.17.23.4.33.25.1.57.1.3 0 .51-.08.22-.1.38-.2l.28-.21q.1-.1.17-.1.04 0 .06.04.03 0 .05.06l.01.12zm0 0"/>
    <path id="U" d="M5.14-2.53q0 .6-.17 1.08-.15.46-.47.83a2 2 0 0 1-.73.53q-.45.18-.99.18-.56 0-.98-.17a2 2 0 0 1-.7-.56q-.28-.38-.4-.92a6 6 0 0 1-.12-1.31q0-.62.05-1.16T.8-5q.1-.44.26-.73a2 2 0 0 1 .61-.75 3 3 0 0 1 .77-.36l.53-.13 1.67-.26.14-.02q.06 0 .1.05.02.03.03.12a2 2 0 0 1 0 .42l-.04.11-.07.08q-.05.03-.14.03l-1.55.27a4 4 0 0 0-.72.19 2 2 0 0 0-.45.3 1 1 0 0 0-.19.27q-.08.16-.14.36a4 4 0 0 0-.17.96 3 3 0 0 1 .75-.57q.22-.1.45-.15a2.2 2.2 0 0 1 1.4.1q.36.17.6.48t.38.75q.12.43.12.95m-.89.08q0-.35-.06-.66-.07-.3-.2-.55-.15-.23-.4-.37-.23-.14-.59-.14-.22 0-.4.06a1.5 1.5 0 0 0-.74.44l-.4.37v.43q0 .54.07.98.07.42.24.7.16.29.42.44.26.14.65.14.35 0 .6-.12.26-.15.44-.38t.28-.58q.09-.33.09-.76M0-4.92"/>
    <path id="V" d="m4.94-.12-.02.06-.06.06-.14.02a1 1 0 0 1-.4 0L4.16 0 4.1-.06l-.01-.06V-2.8a5 5 0 0 1 .04-.83l-.26.41-.3.4L1.6-.13l-.07.07-.07.05-.1.02a1 1 0 0 1-.37 0L.88 0Q.82-.03.8-.06V-4.8l.01-.06.06-.05.13-.01a2 2 0 0 1 .55.01q.1.04.1.11v2.7a7 7 0 0 1-.04.8l.23-.39.27-.36L4.13-4.8l.06-.06.08-.05.1-.01a1 1 0 0 1 .49.01l.06.05.02.08Zm0 0"/>
    <path id="W" d="M4.73-.12q0 .03-.03.06L4.64 0 4.5.02a1 1 0 0 1-.4 0L3.94 0 3.9-.06l-.02-.06V-4.2H1.65v4.07l-.01.06-.08.06-.13.02a1 1 0 0 1-.42 0L.88 0Q.82-.03.8-.06v-4.55q0-.15.06-.23a.3.3 0 0 1 .2-.08h3.4q.14 0 .2.08.07.08.07.23Zm0 0"/>
    <path id="X" d="M5.08-2.53q0 .6-.14 1.1-.13.49-.38.82-.25.34-.64.53a2 2 0 0 1-1.6.02 3 3 0 0 1-.68-.55v2.33l-.01.08-.07.04-.14.03a1 1 0 0 1-.42 0q-.08 0-.12-.03-.06 0-.07-.04L.8 1.72v-6.5l.01-.08.06-.05.11-.01a1 1 0 0 1 .47.01l.07.05q.03.03.03.08v.62a3 3 0 0 1 .8-.64q.2-.1.4-.15.22-.07.45-.07.5 0 .86.2t.58.54q.24.35.33.8t.1.95m-.9.1q0-.35-.05-.68-.05-.35-.2-.6-.12-.26-.35-.41a1 1 0 0 0-.55-.16 1 1 0 0 0-.65.2 4 4 0 0 0-.74.7v1.86q.36.43.67.66.31.22.67.22.32 0 .55-.16.24-.15.38-.4.14-.27.2-.58.08-.33.08-.66m0 0"/>
    <path id="Y" d="M4.02-1.42q0 .36-.14.64t-.41.48q-.25.2-.64.3a4 4 0 0 1-1.36.05l-.44-.08L.7-.16.53-.28.45-.36l-.04-.1-.02-.1v-.3q0-.06.03-.1l.03-.06.07-.01q.05 0 .15.08l.28.15q.18.08.43.16a3 3 0 0 0 1.07.02q.2-.06.35-.18.15-.1.23-.26.08-.15.08-.38a1 1 0 0 0-.08-.31A1 1 0 0 0 2.78-2a1 1 0 0 0-.42-.16 3 3 0 0 0-.63-.06h-.51l-.08-.01-.06-.05-.03-.11v-.3q0-.06.03-.1l.06-.05.08-.02h.5q.32 0 .56-.05t.4-.15.23-.25.07-.35a1 1 0 0 0-.07-.3.5.5 0 0 0-.2-.21 1.2 1.2 0 0 0-.66-.17q-.33 0-.58.07t-.42.16-.3.16l-.16.06-.04-.02-.05-.04-.02-.1v-.14q0-.14.02-.23.01-.1.08-.16l.22-.14q.15-.08.36-.14t.47-.1a3 3 0 0 1 1.18.02q.33.09.55.25.23.15.36.4t.12.56q0 .2-.06.37a1.4 1.4 0 0 1-.47.58q-.17.1-.37.17h-.02q.2.02.4.13.2.09.35.25.16.13.25.36.1.2.1.45m0 0"/>
    <path id="Z" d="M6.67-.17q.01.1-.06.15a1 1 0 0 1-.53.03L5.95 0l-.08-.03-.01-.08-.34-2.72-.04-.31-.03-.33-.04-.67-.02-.11-.1.31-.1.33-.13.34-.1.33L4-.19l-.06.11q-.02.04-.08.06l-.13.04a1 1 0 0 1-.35 0L3.25 0l-.08-.08-.04-.1-.94-2.76-.13-.31-.1-.34-.1-.35-.1-.31v.1l-.03.34-.03.34q0 .16-.04.33-.03.18-.02.31L1.31-.16l-.01.11Q1.28 0 1.22 0l-.14.02a1 1 0 0 1-.42 0L.55-.02.5-.08v-.1l.52-4.4q.03-.17.1-.25.1-.1.29-.1h.4q.16 0 .25.04.11.02.19.08.08.04.13.15l.09.24.7 1.98.11.36.11.38.11.34q.04.18.1.31l.2-.68.25-.72.68-1.97.08-.22.13-.16.17-.1.25-.02h.4q.19 0 .29.08t.1.25Zm0 0"/>
    <path id="aa" d="m4.88-.12-.02.06L4.8 0l-.14.02a1 1 0 0 1-.43 0L4.11 0q-.05-.03-.06-.06l-.02-.06v-2.05H1.64v2.05l-.01.06-.07.06-.14.02a1 1 0 0 1-.42 0L.88 0Q.82-.03.8-.06v-4.72l.01-.08.06-.05.13-.01a2 2 0 0 1 .56.01l.06.05.02.08v1.89h2.4v-1.97l.07-.05.12-.01a2 2 0 0 1 .57.01l.06.05.01.08Zm0 0"/>
    <path id="y" d="M5.36-.95v.15q0 .07-.02.11 0 .05-.03.08l-.08.1-.21.15-.41.2q-.25.1-.58.16-.31.08-.69.08a3 3 0 0 1-1.18-.22 2.5 2.5 0 0 1-.9-.64A3 3 0 0 1 .7-1.83a5 5 0 0 1-.2-1.44q0-.82.22-1.46.21-.65.6-1.11.38-.46.93-.7a3 3 0 0 1 2.27-.04q.23.09.42.19t.25.19l.1.1.02.08.02.11.01.16-.01.19-.03.1-.05.08-.06.02q-.09 0-.22-.1t-.33-.21A2.4 2.4 0 0 0 3.44-6 1.8 1.8 0 0 0 2-5.3q-.25.34-.4.85-.12.5-.13 1.14 0 .64.12 1.12.15.5.4.82.26.32.64.5t.84.17a2.4 2.4 0 0 0 1.55-.53q.13-.1.21-.11l.05.01q.03.02.05.06l.01.13zm0 0"/>
    <path id="z" d="M6.05-3.44a5 5 0 0 1-.24 1.52q-.22.65-.64 1.08T4.13-.2 2.64 0H1.22A.4.4 0 0 1 1-.08Q.9-.15.9-.36v-5.97q0-.2.1-.28a.4.4 0 0 1 .22-.08h1.51q.88 0 1.47.22.6.22 1.02.64.4.42.6 1.03.23.6.23 1.36m-.94.03q0-.54-.14-1.01a2 2 0 0 0-.42-.81q-.3-.35-.74-.54-.44-.18-1.12-.18h-.9v5.2h.91q.65 0 1.08-.16.44-.15.74-.48.3-.34.43-.83.15-.5.16-1.19m0 0"/>
    <path id="A" d="m-.84-4.14.15.01.11.02.08.03.1.08.17.22a2.4 2.4 0 0 1 .32 1.23q0 .52-.15.9-.18.39-.49.65-.32.27-.78.4-.46.14-1.08.13-.68 0-1.17-.16a2 2 0 0 1-.81-.46q-.33-.3-.47-.7a2.3 2.3 0 0 1 .16-1.98q.08-.14.14-.2l.1-.08.08-.04.11-.02.16-.01q.2 0 .28.04.08.05.08.13t-.08.18l-.19.25q-.1.15-.18.38-.1.22-.1.52 0 .6.47.93t1.38.33q.45 0 .8-.08.32-.09.56-.25.23-.17.34-.4.1-.25.1-.57 0-.27-.08-.5a2 2 0 0 0-.4-.67q-.1-.1-.1-.17 0-.03.03-.06l.06-.05.12-.01zm0 0"/>
    <path id="B" d="m-4.53-4.05.17.02.11.03.08.05.01.08v1.39h4.04q.03 0 .06.03.03 0 .06.06l.02.14a1 1 0 0 1 0 .4L0-1.7l-.06.06-.06.01h-4.04v1.4l-.01.07-.08.07-.1.03a1 1 0 0 1-.35 0l-.13-.03-.06-.07-.03-.07v-3.64q0-.06.03-.08l.06-.05.13-.03zm0 0"/>
    <path id="C" d="m-3.16-2.4-.01-.4-.02-.43q0-.57.13-.97.11-.41.31-.66t.5-.37q.28-.13.64-.13a1.6 1.6 0 0 1 1.22.55q.23.27.36.7t.12 1.02l-.01.3-.02.27-.01.29-.02.26q-.03.22-.14.33-.11.1-.34.1h-3.7v1.3l-.02.08-.08.07-.1.03-.2.01a1 1 0 0 1-.28-.04q-.1-.05-.1-.14v-1.93q0-.1.07-.17.06-.06.2-.06Zm1.61-2.05q-.21 0-.39.06a1 1 0 0 0-.3.22 1 1 0 0 0-.18.39 3 3 0 0 0-.06.6 7 7 0 0 0 .03.79h1.8l.04-.83q0-.64-.25-.94a1 1 0 0 0-.69-.3m0 0"/>
    <path id="D" d="M-.1-4.6q.04 0 .07.04L0-4.5l.02.13a1 1 0 0 1 0 .43L0-3.78l-.05.08q-.03.03-.07.03l-1.2.5q-.25.1-.4.2-.16.12-.28.25a1 1 0 0 0-.16.31q-.04.17-.04.41v.36h2.1q.02 0 .05.03t.05.08l.02.12a1 1 0 0 1 0 .4L0-.9q0 .05-.05.08l-.04.01h-4.74l-.04-.01-.05-.08-.02-.13a2 2 0 0 1 .02-.51l.04-.08q.02-.03.05-.03h1.96V-2q0-.2-.05-.36a1 1 0 0 0-.4-.55q-.16-.1-.4-.18l-1.08-.44-.06-.03-.05-.08-.03-.14a2 2 0 0 1 .02-.55l.04-.06.05-.02.1.02.12.03 1.02.44a2 2 0 0 1 .73.48 1 1 0 0 1 .28.5h.02q.07-.18.15-.33t.2-.28q.15-.14.32-.25.18-.12.4-.22l1.2-.51.06-.03.06-.02h.05zm0 0"/>
    <path id="E" d="M-.12-4.6h.06l.06.07.02.14a1 1 0 0 1 0 .42L0-3.84l-.06.07-.06.02H-4.2v1.28a16 16 0 0 1 2.6.45q.46.14.79.33.33.2.53.4a1.4 1.4 0 0 1 .37 1L.08-.2l-.06.04-.11.04-.2.01H-.5l-.12-.03L-.7-.2v-.07a1 1 0 0 0-.08-.32 1 1 0 0 0-.27-.29q-.18-.13-.48-.24-.3-.13-.72-.22a29 29 0 0 0-2.36-.36.4.4 0 0 1-.23-.08.2.2 0 0 1-.08-.17v-2.4q0-.12.08-.18a.3.3 0 0 1 .23-.08Zm0 0"/>
    <path id="F" d="M-2.52-5.12q.6 0 1.07.15.46.15.8.45.36.3.56.75.18.44.18 1.04 0 .55-.17 1A1.8 1.8 0 0 1-1.36-.61q-.46.14-1.06.14-.56 0-1.05-.14-.48-.15-.83-.45-.33-.3-.53-.74-.2-.45-.2-1.04 0-.56.17-.99.17-.44.5-.72.33-.3.8-.43.47-.14 1.04-.14m.07.9q-.38 0-.7.08-.35.06-.6.22-.27.15-.4.44-.15.27-.16.68a1.4 1.4 0 0 0 .51 1.1q.25.17.6.26.33.08.73.08.38 0 .72-.06.33-.07.58-.24t.4-.43q.15-.29.15-.7 0-.36-.13-.63-.15-.28-.37-.46a2 2 0 0 0-.58-.26 3 3 0 0 0-.75-.08m0 0"/>
    <path id="G" d="m-4.53-4.05.19.02.1.03.08.05q.03.03.02.08v1.4h4.01q.04 0 .07.02.03 0 .06.06l.02.14a1 1 0 0 1 0 .42L0-1.7l-.06.06-.06.01h-4.02v1.4q0 .04-.02.07l-.07.07-.11.03a1 1 0 0 1-.35 0L-4.8-.1l-.07-.07-.03-.07v-3.64l.04-.07.06-.06.12-.03zm0 0"/>
    <path id="H" d="M-2.66-4.75q.21 0 .3.1.08.08.08.23v3.05q.4 0 .7-.08t.53-.25q.22-.19.35-.47.1-.3.1-.72a3 3 0 0 0-.17-1.03l-.12-.31-.05-.2.02-.05.05-.05.1-.02.16-.01.11.01.1.02.06.01.06.05.1.17.12.36A4 4 0 0 1 .09-2.8q0 .57-.15 1t-.47.72q-.33.3-.8.46A4 4 0 0 1-3.5-.64q-.49-.15-.81-.44-.34-.3-.52-.7-.18-.43-.19-.94a2 2 0 0 1 .66-1.56q.3-.26.7-.36t.85-.11Zm-.25.84q-.67 0-1.04.3-.4.31-.4.94 0 .3.13.54.12.24.31.41.2.16.46.25.27.09.54.1Zm0 0"/>
    <path id="I" d="m-.12-4.17.06.03.06.06.02.13a1 1 0 0 1 0 .42L0-3.41l-.06.08-.06.02H-2A3 3 0 0 1-1.72-2q0 .47-.12.8-.13.3-.35.51-.21.2-.51.27t-.75.08h-1.33l-.06-.02q-.03 0-.05-.06l-.03-.14a1 1 0 0 1 0-.4q0-.1.03-.15l.05-.06.06-.03h1.19q.42 0 .62-.07.21-.06.33-.17a1 1 0 0 0 .17-.3q.05-.16.05-.4 0-.3-.08-.6-.07-.29-.22-.57h-2.06l-.06-.02-.05-.08-.03-.12a2 2 0 0 1 0-.42q0-.08.03-.13l.05-.06.06-.03Zm0 0"/>
    <path id="J" d="m-.12-4.86.06.02q.03 0 .06.06l.02.14a1 1 0 0 1 0 .42L0-4.09l-.06.06-.06.01h-2.05v2.38h2.05l.06.03.06.06.02.13a1 1 0 0 1 0 .42L0-.87l-.06.06-.06.01h-4.66l-.06-.01q-.03-.02-.05-.06L-4.92-1a2 2 0 0 1 0-.42q0-.09.03-.13l.05-.06.06-.03h1.89v-2.38h-1.9l-.05-.01q-.03 0-.05-.06l-.03-.13a2 2 0 0 1 0-.42q0-.1.03-.14l.05-.06.06-.02Zm0 0"/>
    <path id="K" d="M-2.5-5.1q.57 0 1.05.15.46.15.8.43.36.3.56.75.18.44.18 1.04 0 .55-.17 1A1.8 1.8 0 0 1-1.36-.61q-.47.14-1.05.14-.57 0-1.04-.14t-.83-.45q-.34-.3-.53-.74-.2-.43-.2-1.03 0-.58.17-1 .17-.44.5-.72t.8-.42q.45-.14 1.04-.14m.05.88q-.38 0-.7.08-.35.06-.6.23-.24.15-.4.44-.15.27-.15.67 0 .38.14.66.13.27.38.44t.6.26q.32.08.71.08t.72-.06q.33-.07.58-.24t.4-.43q.15-.29.15-.7 0-.36-.13-.63-.15-.28-.37-.46-.25-.16-.58-.25-.34-.09-.75-.09m0 0"/>
    <path id="L" d="M-.84-4.12h.15l.11.01.08.03.1.08q.07.06.17.22a2.4 2.4 0 0 1 .32 1.25q0 .5-.15.89-.18.37-.49.64-.32.27-.78.4a4 4 0 0 1-1.06.13q-.69 0-1.17-.16a2 2 0 0 1-.81-.46q-.33-.3-.47-.7a2.3 2.3 0 0 1 .15-1.98l.14-.2.1-.08.1-.03.1-.01a1 1 0 0 1 .44.03q.08.05.08.1 0 .08-.08.2-.1.09-.19.24-.1.16-.19.38-.1.22-.1.52 0 .6.48.93.47.33 1.37.33.45 0 .78-.08.35-.09.58-.25.23-.17.33-.4t.1-.55q0-.3-.08-.52a2 2 0 0 0-.2-.39l-.21-.26q-.1-.12-.1-.19 0-.03.04-.05l.06-.04.12-.02zm0 0"/>
    <path id="M" d="m-3.14-2.4-.02-.38-.01-.45q0-.57.1-.96.13-.4.34-.65.2-.26.48-.38t.64-.12.67.12q.32.13.55.4.23.28.36.71t.12 1.03l-.01.28-.02.28-.01.29-.02.26q-.03.22-.14.33-.11.1-.34.1h-3.7v1.38l-.08.07-.11.03-.2.01-.27-.04q-.1-.05-.1-.14v-1.93q0-.09.07-.15.05-.08.2-.08Zm1.6-2.05a1 1 0 0 0-.4.08 1 1 0 0 0-.28.21 1 1 0 0 0-.19.4q-.07.23-.07.59l.01.42.03.36h1.78l.05-.83q0-.64-.25-.94a1 1 0 0 0-.69-.3m0 0"/>
    <path id="N" d="m-.1-4.58.07.02.03.06.02.14a1 1 0 0 1 0 .44L0-3.78l-.05.1-.07.02-1.2.49q-.25.1-.4.2a1 1 0 0 0-.26.25q-.11.15-.16.31-.05.17-.05.41v.36h2.1l.04.03q.04.02.05.08l.02.12a1 1 0 0 1 0 .4L0-.9q0 .05-.05.08l-.04.01h-4.72l-.05-.01-.05-.08-.01-.13a2 2 0 0 1 .01-.51q.02-.06.05-.08.02-.03.05-.03h1.93V-2q0-.2-.03-.36a1 1 0 0 0-.14-.3 1 1 0 0 0-.26-.23l-.4-.2-1.07-.44q-.03 0-.06-.03l-.05-.08-.03-.13a2 2 0 0 1 .01-.56l.05-.06.05-.02.1.02.1.03 1.03.45q.25.1.44.22l.3.25a1 1 0 0 1 .26.5h.02q.07-.18.15-.33.09-.16.22-.28.13-.14.31-.25.18-.12.4-.22l1.18-.51.07-.02.06-.01.05-.02zm0 0"/>
    <path id="O" d="m-.12-4.6.06.02.06.06.02.13a1 1 0 0 1 0 .42L0-3.84l-.06.07-.06.02H-4.2v1.28A17 17 0 0 1-1.6-2q.47.14.8.33a2 2 0 0 1 .53.39A1.4 1.4 0 0 1 .1-.3l-.01.1-.06.04-.11.04-.2.01H-.5l-.12-.03L-.7-.2v-.07a1 1 0 0 0-.08-.32 1 1 0 0 0-.25-.29q-.2-.13-.49-.24-.3-.13-.73-.22a25 25 0 0 0-2.36-.36.3.3 0 0 1-.22-.07.3.3 0 0 1-.08-.18v-2.4q0-.12.08-.18a.3.3 0 0 1 .22-.08Zm0 0"/>
    <path id="ae" d="m2.02-4.17.67-1.53q.3-.66.42-.88.2-.33.44-.47.22-.15.45-.15.19 0 .25.1a.3.3 0 0 1 .03.27q-.05.13-.14.27a11 11 0 0 1-.67.86L2.25-4.17Zm0 0"/>
  </defs>
  <path fill="none" stroke="#000" stroke-linejoin="round" stroke-miterlimit="10" stroke-width="1.8" d="M432.9 140.1V27.3" transform="matrix(.97994 0 0 -.97926 72 707.1)"/>
  <path d="M495.92 598.4h10v52.89h-10Zm1.77 52-.89-.87h8.24l-.89.88v-51.12l.89.88h-8.24l.89-.88Zm0 0"/>
  <path fill="none" stroke="#000" stroke-dasharray="1.8018 0.6006" stroke-linejoin="round" stroke-miterlimit="10" stroke-width=".6" d="M27.9 82.5h402" transform="matrix(.97994 0 0 -.97926 72 707.1)"/>
  <path d="M253.68 569.03h19.4v113.99h-19.4Zm1.77 113.1-.89-.88h17.64l-.88.89V569.9l.88.88h-17.64l.89-.88Zm0 0"/>
  <path fill="none" stroke="#000" stroke-linejoin="round" stroke-miterlimit="10" stroke-width="1.8" d="M203.7 140.1h49.2M204.3 25.5h49.2m-.6 0v114.6m-8.4 0-17.4-58.2m17.4-56.4-17.4 57m-80.5 68.9c4.41 1.84 8.18-26.43 8.48-63.59q.04-4.7 0-9.4c-.3-36.66-3.97-64.78-8.32-63.68" transform="matrix(.97994 0 0 -.97926 72 707.1)"/>
  <path fill="none" stroke="#000" stroke-linejoin="round" stroke-miterlimit="10" stroke-width="1.8" d="M147 14.89c-4.23 2.65-7.5 32.4-7.5 68.2 0 35.36 3.19 64.89 7.36 68.12M47.7 85.5v60.6m0-127.2v60.6" transform="matrix(.97994 0 0 -.97926 72 707.1)"/>
  <path d="m106.25 626.6-7.35 2.46v-4.89Zm-6.75-.37 1.16-.84v2.45L99.5 627l3.68-1.22v1.67Zm3.2-7.46-3.33 6.56-3.67-3.43Zm-5.07 4.2.24-1.45 1.84 1.72-1.39.25 1.68-3.3 1.15 1.2Zm-3.29-7.37 2.59 6.82h-5.16Zm-.47 6.25-.83-1.2h2.61l-.82 1.2-1.31-3.44h1.65Zm-7.88-3.08 7 3.13-3.67 3.43Zm4.38 4.72-1.4-.25 1.85-1.72.25 1.44-3.53-1.57 1.15-1.2Zm-7.94 3.12 7.36-2.44v4.9Zm6.76.39-1.16.84v-2.45l1.16.84-3.68 1.22v-1.67Zm-3.2 7.46 3.33-6.56 3.68 3.43Zm5.08-4.2-.25 1.45-1.84-1.72 1.39-.25-1.68 3.3-1.15-1.2Zm3.27 7.36-2.57-6.8h5.16Zm.49-6.24.82 1.2h-2.6l.82-1.2 1.3 3.44h-1.65Zm7.87 3.08-7-3.13 3.67-3.43Zm-4.38-4.72 1.4.25-1.85 1.72-.24-1.44 3.52 1.57-1.15 1.2Zm-9.42-3.13.03-.53.1-.54.3-.95.52-.88.67-.76.8-.62.93-.46.98-.3.56-.07.55-.03.55.03.56.08 1 .29.92.46.8.63.67.75.5.88.32.95.1.54.02.53-.03.53-.09.54-.31.95-.51.89-.66.75-.81.62-.92.48-1 .28-.56.08-.55.02-.55-.02-.55-.08-1-.29-.92-.47-.8-.62-.67-.75-.51-.89-.32-.95-.09-.54Zm1.79.39-.01-.1.07.42-.03-.12.26.8-.07-.17.42.73-.1-.15.55.63-.12-.11.68.52-.14-.1.78.4-.17-.06.85.25-.1-.03.45.07-.09-.01.47.02h-.09l.47-.02h-.09l.45-.06-.1.02.85-.24-.16.07.77-.4-.13.09.67-.52-.12.1.55-.62-.1.15.41-.73-.07.17.26-.8-.03.12.08-.43-.01.11.02-.43v.09l-.02-.44v.1l-.07-.42.03.13-.26-.8.08.16-.42-.71.1.13-.56-.63.13.12-.67-.52.14.09-.78-.4.16.07-.86-.25.11.02-.45-.06h.09l-.47-.02h.09l-.47.02h.09l-.46.06.12-.02-.85.25.15-.06-.77.39.14-.1-.68.53.13-.12-.56.64.1-.14-.42.71.07-.16-.26.8.03-.13-.07.43v-.1l-.01.43v-.1Zm0 0"/>
  <path fill="none" stroke="#000" stroke-linejoin="round" stroke-miterlimit="10" stroke-width="1.8" d="M432.9 63.9c-4.7.89-9.43 1.78-9.45 2.67-.03.89 9.3 1.78 9.3 2.67s-9.3 1.8-9.3 2.67c0 .88 9.33 1.72 9.3 2.6-.02.9-9.45 1.84-9.45 2.74s9.43 1.8 9.45 2.68c.03.87-9.3 1.71-9.3 2.6s9.3 1.85 9.3 2.74-9.28 1.72-9.3 2.6 9.13 1.79 9.15 2.67c.03.9-8.98 1.8-9 2.68-.03.86 8.88 1.63 8.86 2.53s-9.04 1.99-9 2.88c.01.89 4.58 1.68 9.14 2.47" transform="matrix(.97994 0 0 -.97926 72 707.1)"/>
  <path d="m128.34 665.2-.47-35.07 1.18-.01.46 35.06Zm-3.74-29.44 3.85-6.8 4.02 6.7a.59.59 0 0 1-1 .6l-3.51-5.83 1.01-.02-3.35 5.93a.6.6 0 0 1-.8.21.6.6 0 0 1-.22-.8m3.14-13.43-.47-35.07 1.18-.02.46 35.07Zm4.45-5.64-3.85 6.8-4.02-6.7a.6.6 0 0 1 .2-.8.6.6 0 0 1 .8.2l3.51 5.82-1.01.02 3.34-5.92a.6.6 0 0 1 .8-.23.6.6 0 0 1 .23.8m-12.58 82.8 95.3.05v1.17l-95.3-.05Zm5.59 4.52-6.75-3.94 6.75-3.92a.59.59 0 1 1 .59 1.01l-5.88 3.42v-1l5.88 3.42a.59.59 0 1 1-.6 1.01m84.12-7.83 6.75 3.94-6.75 3.94a.6.6 0 0 1-.8-.22.6.6 0 0 1 .2-.8l5.89-3.43v1.02l-5.88-3.43a.6.6 0 0 1-.21-.8.6.6 0 0 1 .8-.22m113.15-7.86H495.1v1.18H322.46Zm5.59 4.53-6.75-3.94 6.75-3.93a.6.6 0 0 1 .8.2.6.6 0 0 1-.21.81l-5.88 3.43v-1.02l5.88 3.43a.6.6 0 0 1 .21.8.6.6 0 0 1-.8.22m161.46-7.87 6.76 3.93-6.76 3.94a.6.6 0 0 1-.8-.21.6.6 0 0 1 .22-.8l5.87-3.44v1.02l-5.87-3.43a.6.6 0 0 1-.22-.8.6.6 0 0 1 .8-.21m23.9-37.08-.43-48.3 1.18-.01.43 48.3Zm4.47-5.62-3.87 6.78-4-6.7a.6.6 0 0 1 .2-.81.6.6 0 0 1 .81.2l3.48 5.85h-1l3.36-5.9a.6.6 0 0 1 .8-.22c.29.16.4.52.22.8m-8.2-37.08 3.88-6.77 4 6.7a.6.6 0 0 1-.2.82.6.6 0 0 1-.8-.2l-3.5-5.86h1.02l-3.38 5.9a.57.57 0 0 1-.8.21.6.6 0 0 1-.22-.8m-38.45 40.45v-37.24h1.17v37.24Zm4.52-5.59-3.93 6.75-3.94-6.75a.6.6 0 0 1 .21-.8.6.6 0 0 1 .8.21l3.43 5.88h-1.02l3.43-5.88a.6.6 0 0 1 .8-.2c.3.15.4.51.22.8m-7.87-26.08 3.94-6.74 3.93 6.74c.17.29.07.65-.21.81a.6.6 0 0 1-.8-.21l-3.44-5.88h1.02l-3.43 5.88a.59.59 0 0 1-1.02-.6M330.7 681.04V570.78h1.18v110.26Zm4.53-5.58-3.94 6.75-3.94-6.75a.6.6 0 0 1 .22-.8.6.6 0 0 1 .8.21l3.43 5.88h-1.02l3.43-5.88a.6.6 0 0 1 .8-.21c.3.16.39.52.22.8m-7.88-99.1 3.94-6.74 3.94 6.74c.17.28.07.64-.21.8a.6.6 0 0 1-.8-.21l-3.44-5.88h1.02l-3.43 5.88a.59.59 0 1 1-1.02-.59m153.12 32.41-.42-35.03 1.17-.01.42 35.02Zm4.46-5.64-3.86 6.8-4.01-6.7a.6.6 0 0 1 .2-.8.6.6 0 0 1 .8.19l3.5 5.83-1.01.01 3.36-5.9a.6.6 0 0 1 .8-.24c.29.17.38.52.22.8m-4.29 19.84v-8.11h1.17v8.1Zm-3.35-2.53 3.93-6.75 3.94 6.75c.17.28.07.64-.21.8a.6.6 0 0 1-.8-.21l-3.44-5.88h1.02l-3.43 5.88a.6.6 0 0 1-.8.21.6.6 0 0 1-.21-.8m-278.88 70.66V559.62h1.18v131.47Zm4.53-5.58-3.94 6.74-3.94-6.74a.6.6 0 0 1 .22-.8.6.6 0 0 1 .8.2l3.43 5.88h-1.02l3.43-5.88a.6.6 0 0 1 .8-.2c.29.16.39.52.22.8m-7.88-120.31 3.94-6.75 3.94 6.75a.59.59 0 0 1-1.02.59l-3.43-5.88h1.02l-3.43 5.88a.6.6 0 0 1-.8.21.6.6 0 0 1-.22-.8m0 0"/>
  <path fill="none" stroke="#000" stroke-linejoin="round" stroke-miterlimit="10" d="M251.5 124.08c-4.83-.53-9.45.87-11.94 3.63" transform="matrix(.97994 0 0 -.97926 72 707.1)"/>
  <use xlink:href="#a" x="92.28" y="608.98"/>
  <use xlink:href="#b" x="130.21" y="609.55"/>
  <use xlink:href="#c" x="187.07" y="591.14"/>
  <use xlink:href="#d" x="166.39" y="694.69"/>
  <use xlink:href="#e" x="410.55" y="683.78"/>
  <use xlink:href="#f" x="259.88" y="664.22"/>
  <use xlink:href="#f" x="308.85" y="663.63"/>
  <use xlink:href="#g" x="310.01" y="600.93"/>
  <use xlink:href="#h" x="336.44" y="600.93"/>
  <use xlink:href="#i" x="518" y="624.51"/>
  <use xlink:href="#j" x="460.53" y="622.79"/>
  <use xlink:href="#k" x="465.69" y="589.43"/>
  <use xlink:href="#l" x="471.57" y="589.43"/>
  <use xlink:href="#m" x="102.62" y="554.91"/>
  <use xlink:href="#n" x="107.92" y="554.91"/>
  <use xlink:href="#o" x="113.21" y="554.91"/>
  <use xlink:href="#p" x="119.08" y="554.91"/>
  <use xlink:href="#q" x="124.95" y="554.91"/>
  <use xlink:href="#m" x="130.25" y="554.91"/>
  <use xlink:href="#r" x="203.73" y="549.72"/>
  <use xlink:href="#s" x="209.03" y="549.72"/>
  <use xlink:href="#t" x="214.31" y="549.72"/>
  <use xlink:href="#u" x="222.54" y="549.72"/>
  <use xlink:href="#v" x="79.64" y="649.26"/>
  <use xlink:href="#w" x="84.96" y="649.26"/>
  <use xlink:href="#x" x="90.27" y="649.26"/>
  <use xlink:href="#m" x="97.35" y="649.26"/>
  <use xlink:href="#w" x="102.66" y="649.26"/>
  <use xlink:href="#y" x="500.53" y="590.75"/>
  <use xlink:href="#y" x="506.41" y="590.75"/>
  <use xlink:href="#z" x="512.29" y="590.75"/>
  <use xlink:href="#A" x="266.52" y="618.09"/>
  <use xlink:href="#B" x="266.52" y="613.38"/>
  <use xlink:href="#C" x="266.52" y="609.25"/>
  <use xlink:href="#D" x="266.52" y="603.36"/>
  <use xlink:href="#E" x="266.52" y="598.63"/>
  <use xlink:href="#F" x="266.52" y="593.32"/>
  <use xlink:href="#G" x="285.46" y="618.68"/>
  <use xlink:href="#H" x="285.46" y="614.56"/>
  <use xlink:href="#I" x="285.46" y="609.26"/>
  <use xlink:href="#J" x="285.46" y="604.53"/>
  <use xlink:href="#K" x="285.46" y="598.64"/>
  <use xlink:href="#L" x="285.46" y="592.75"/>
  <use xlink:href="#G" x="285.46" y="588.03"/>
  <use xlink:href="#L" x="311.67" y="645.12"/>
  <use xlink:href="#G" x="311.67" y="640.43"/>
  <use xlink:href="#M" x="311.67" y="636.34"/>
  <use xlink:href="#N" x="311.67" y="630.43"/>
  <use xlink:href="#O" x="311.67" y="625.73"/>
  <use xlink:href="#K" x="311.67" y="620.45"/>
  <use xlink:href="#P" x="250.84" y="546.85"/>
  <use xlink:href="#Q" x="255.54" y="546.85"/>
  <use xlink:href="#R" x="263.2" y="546.85"/>
  <use xlink:href="#s" x="268.46" y="546.85"/>
  <use xlink:href="#S" x="273.74" y="546.85"/>
  <use xlink:href="#u" x="277.85" y="546.85"/>
  <use xlink:href="#cl" x="283.15" y="546.85"/>
  <use xlink:href="#T" x="285.51" y="546.85"/>
  <use xlink:href="#cl" x="290.19" y="546.85"/>
  <use xlink:href="#U" x="292.55" y="546.85"/>
  <use xlink:href="#V" x="298.42" y="546.85"/>
  <use xlink:href="#W" x="304.28" y="546.85"/>
  <use xlink:href="#X" x="309.57" y="546.85"/>
  <use xlink:href="#V" x="314.87" y="546.85"/>
  <use xlink:href="#Y" x="320.73" y="546.85"/>
  <use xlink:href="#Z" x="325.42" y="546.85"/>
  <use xlink:href="#u" x="332.48" y="546.85"/>
  <use xlink:href="#cl" x="337.76" y="546.85"/>
  <use xlink:href="#aa" x="340.69" y="546.85"/>
  <use xlink:href="#u" x="346.55" y="546.85"/>
  <use xlink:href="#cl" x="351.84" y="546.85"/>
  <use xlink:href="#ab" x="250.84" y="559.82"/>
  <use xlink:href="#n" x="258.47" y="559.82"/>
  <use xlink:href="#q" x="263.77" y="559.82"/>
  <use xlink:href="#ac" x="269.06" y="559.82"/>
  <use xlink:href="#q" x="274.93" y="559.82"/>
  <use xlink:href="#v" x="280.23" y="559.82"/>
  <use xlink:href="#cw" x="285.51" y="559.82"/>
  <use xlink:href="#ad" x="282.77" y="668.21"/>
  <use xlink:href="#ae" x="288.06" y="668.21"/>
</svg>
