<svg xmlns="http://www.w3.org/2000/svg" xmlns:xlink="http://www.w3.org/1999/xlink" width="612" height="792" viewBox="0 0 612 792">
  <defs>
    <path id="i" d="M1.42 0h3.31v-.19C3.8-.19 3.6-.3 3.6-.89v-7.2l-.1-.02L1.32-7v.15q.7-.25.87-.25.37-.01.36.56v5.44c-.03.75-.23.92-1.14.92Zm0 0"/>
    <path id="h" d="m5.7-1.64-.15-.06c-.46.68-.58.78-1.14.8H1.53l2.02-2.13c1.08-1.11 1.54-2.02 1.54-2.95 0-1.2-.98-2.13-2.21-2.13-.68 0-1.3.27-1.74.73-.39.43-.56.8-.76 1.66l.25.06c.48-1.18.9-1.56 1.73-1.56 1.03 0 1.7.67 1.7 1.69 0 .95-.56 2.05-1.56 3.12L.36-.14V0h4.69Zm0 0"/>
    <path id="n" d="M3.05-8.1c-.66 0-1.16.18-1.61.62C.75-6.81.28-5.44.28-4.03c0 1.31.4 2.72.97 3.39q.68.8 1.75.81.9 0 1.56-.62c.69-.66 1.16-2.07 1.16-3.5 0-2.47-1.1-4.16-2.67-4.16m-.03.3c1 0 1.54 1.36 1.54 3.86Q4.56-.15 3-.14 1.45-.16 1.44-3.92q.01-3.86 1.58-3.88m0 0"/>
    <path id="g" d="M5-2.27H2.19l-.33.79q-.18.37-.17.64 0 .32.26.48.16.1.78.14V0H.1v-.22q.43-.06.7-.34.29-.3.7-1.2l2.8-6.36h.13L7.3-1.59q.4.92.67 1.17.2.18.56.2V0H4.7v-.22h.15q.48 0 .66-.12a.3.3 0 0 0 .13-.27L5.6-.83l-.17-.44Zm-.2-.43L3.6-5.44 2.4-2.7Zm0 0"/>
    <path id="a" d="M3.1-7.95h4.1v.22q-.67 0-.86.18-.18.16-.23.72 1.35 0 2.05.31.69.33 1.2.94.52.63.52 1.53 0 1.13-.85 1.99-.83.86-2.92.86 0 .42.1.6a.6.6 0 0 0 .29.27q.2.1.7.11V0H3.1v-.22q.73 0 .92-.22.18-.22.18-.76a5 5 0 0 1-2.17-.38Q1.25-1.97.84-2.6a2.65 2.65 0 0 1 .1-2.97q.5-.7 1.25-.97.76-.27 2.01-.28 0-.52-.22-.7-.2-.2-.89-.2Zm3 6.3q.6 0 .96-.16.38-.2.63-.75.25-.57.25-1.55 0-.8-.24-1.34-.22-.55-.58-.74t-1.01-.2ZM4.2-6.38a2 2 0 0 0-1.1.28q-.34.25-.54.78-.19.54-.19 1.36 0 .96.24 1.45.24.5.62.7.4.18.97.18Zm0 0"/>
    <path id="c" d="M3.7 0v-.22q.53 0 .53-.78v-2.69L2.67-1q0 .77.53.78V0H.4v-.22q.35 0 .5-.19.13-.18.13-.65v-3.38q0-.83-.62-.83v-.21h2.8v.21q-.33.02-.43.2-.1.15-.1.63v2.67l1.55-2.71q0-.45-.12-.61-.13-.18-.4-.18v-.21H6.5v.21q-.32.02-.47.18-.15.14-.16.57v3.49q0 .48.15.66.13.15.48.15V0Zm0 0"/>
    <path id="d" d="M.42-.22Q.76-.23.9-.39q.15-.15.14-.63V-4.5q0-.4-.12-.56-.13-.17-.49-.2v-.22h4.81v1.43h-.21q-.13-.66-.36-.86-.24-.2-.91-.2H2.67v4.13q0 .42.13.59.15.15.56.17V0H.42Zm0 0"/>
    <path id="e" d="M1.5-1.81q.4 0 .69.3.3.27.3.68t-.3.69a1 1 0 0 1-.69.28q-.4 0-.69-.28a1 1 0 0 1-.28-.69q0-.4.28-.69.28-.3.69-.3m0 0"/>
    <path id="C" d="M3.9-8.1v6.5q0 .73.07.93.06.2.26.33.22.12.68.12h.17V0H.89v-.22h.22q.51 0 .72-.1.21-.13.3-.34.07-.2.07-.95v-4.12q0-.55-.06-.7a.5.5 0 0 0-.19-.23 1 1 0 0 0-.32-.09q-.3 0-.74.19l-.1-.22 2.93-1.33Zm0 0"/>
    <path id="f" d="M4.97 0H.3v-.12a26 26 0 0 0 2.6-3.44q.45-.9.46-1.74 0-.61-.38-1.03-.37-.4-.93-.4-.9 0-1.4.9l-.2-.07q.3-1.12.95-1.65A2.3 2.3 0 0 1 4-7.83q.5.29.78.78.27.5.28.9 0 .8-.44 1.59a15 15 0 0 1-2.58 3.03h1.72q.62 0 .81-.05t.32-.19q.12-.11.32-.53h.22Zm0 0"/>
    <path id="G" d="M7.9-1.83A4.4 4.4 0 0 1 6.2-.56c-.34.14-.75.22-1.08.22-.8 0-1.54-.43-1.89-1.05a5.5 5.5 0 0 1-.51-2.7c0-2.49.76-3.8 2.2-3.8.56 0 1.06.2 1.6.67.51.45.8.88 1.21 1.77h.3v-2.8H7.7c-.17.42-.28.55-.54.55q-.14 0-.54-.17a5 5 0 0 0-1.84-.43A4.14 4.14 0 0 0 .6-4 4.06 4.06 0 0 0 4.84.23c1.38 0 2.2-.42 3.41-1.76Zm0 0"/>
    <path id="E" d="M8.27-.3c-.54 0-.66-.17-1.32-1.67L4.28-8.28h-.33L1.28-1.7C.83-.58.68-.4.11-.3V0h2.44v-.3c-.72-.04-.99-.18-.99-.5 0-.15.08-.43.35-1.1l.18-.46h2.7c.41.94.55 1.36.55 1.63s-.15.37-.57.39l-.4.04V0h3.9Zm-6-2.53 1.12-2.92 1.22 2.92Zm0 0"/>
    <path id="D" d="M.19 0h3.87c2.02 0 3.36-.9 3.36-2.25q0-.84-.64-1.4a3.3 3.3 0 0 0-1.67-.73c1.39-.4 1.9-.9 1.9-1.8 0-1.24-1.09-1.93-3.1-1.93H.19v.3c.81.03 1.03.22 1.06.86v5.8c-.03.62-.2.77-1.06.85Zm2.98-4.1h.36q1.85-.02 1.83 1.96Q5.36-.4 3.9-.4c-.54 0-.74-.2-.74-.72Zm0-3.06c0-.43.17-.59.64-.59.85 0 1.24.52 1.24 1.64 0 1.27-.4 1.6-1.88 1.64Zm0 0"/>
    <path id="q" d="M.64 2v-.27q.6-.18.94-.6.33-.43.33-.9a.4.4 0 0 0-.05-.18Q1.8 0 1.78 0a1 1 0 0 0-.28.1l-.23.07A.6.6 0 0 1 .8 0Q.64-.17.64-.47t.22-.5.55-.2q.37 0 .67.34.3.33.31.9 0 .59-.42 1.1Q1.55 1.7.64 2m0 0"/>
    <path id="j" d="m2.9-4.52-.18 1.7q-.05.43-.05.87 0 .84.2 1.03.2.18.46.17.56 0 .65-.72h.22Q4.02.18 2.9.17q-1.13 0-1.13-1.33 0-.66.12-1.67l.22-1.69h-.58q-.48 0-.75.18-.26.15-.5.64h-.2q.18-.64.44-1.02.26-.39.5-.51.23-.14.68-.14h2.9v.85Zm0 0"/>
    <path id="s" d="m1.97-4.4.69-.66q.26-.22.56-.35t.6-.12q.52 0 .88.3t.49.84q.6-.7 1.01-.92t.86-.22q.42 0 .75.22.34.22.53.72.13.35.13 1.07v2.3q0 .52.08.7.06.13.22.22.15.08.51.08V0H6.64v-.22h.11q.34 0 .53-.12.14-.1.2-.3l.02-.58v-2.3q0-.65-.16-.93-.23-.38-.73-.38-.31 0-.63.16-.3.15-.75.58l-.01.06.01.25v2.56q0 .57.05.7a.5.5 0 0 0 .24.22q.16.08.57.08V0H3.4v-.22q.44 0 .61-.1.18-.1.23-.32.04-.09.04-.58v-2.3q0-.65-.2-.95a.8.8 0 0 0-.73-.37q-.3 0-.62.17-.5.27-.75.58v2.87q0 .54.06.69.08.15.22.23t.6.08V0H.18v-.22Q.57-.22.7-.3q.15-.07.22-.25Q1-.7 1-1.22v-2.05Q1-4.15.95-4.4a.5.5 0 0 0-.14-.26.3.3 0 0 0-.23-.08q-.15 0-.4.1L.1-4.88l1.63-.66h.25Zm0 0"/>
    <path id="t" d="M1.73-8.33a.6.6 0 0 1 .6.6q0 .23-.17.42a.6.6 0 0 1-.43.17.6.6 0 0 1-.42-.17.6.6 0 0 1-.17-.42q0-.25.17-.43a.6.6 0 0 1 .42-.17m.5 2.8v4.31q0 .52.07.69.07.15.22.23t.53.08V0H.44v-.22q.39 0 .51-.06.15-.07.22-.25.08-.19.08-.69v-2.06q0-.87-.05-1.13a.5.5 0 0 0-.14-.26.3.3 0 0 0-.23-.08q-.15 0-.4.1l-.07-.22 1.6-.66Zm0 0"/>
    <path id="u" d="M1.94-4.4q.94-1.13 1.8-1.13.42 0 .74.22.34.22.52.73.13.35.13 1.08v2.28q0 .52.07.7.08.15.22.22t.53.08V0H3.3v-.22h.1q.39 0 .52-.1.15-.12.22-.34l.02-.56V-3.4q0-.72-.2-1.06-.18-.34-.63-.34-.7 0-1.4.76v2.83A2 2 0 0 0 2-.55q.1.18.23.25.15.08.58.08V0H.16v-.22h.12q.4 0 .55-.2.14-.2.14-.8V-3.2q0-.97-.05-1.17Q.9-4.6.8-4.67a.4.4 0 0 0-.25-.08q-.15 0-.4.1l-.07-.22 1.6-.66h.26Zm0 0"/>
    <path id="x" d="M1.9-8.1q.72 0 1.2.5.47.47.48 1.2 0 .73-.53 1.26-.52.53-1.22.53T.64-5.08A1.7 1.7 0 0 1 .17-6.3q0-.8.49-1.3.47-.5 1.25-.5m-.17.24q-.3 0-.51.27T1-6.75q0 .93.4 1.5.23.34.6.34.33 0 .55-.26.21-.27.22-.83 0-.92-.41-1.5-.27-.36-.63-.36m0 0"/>
    <path id="z" d="m7.22-8.12.19 2.7h-.2A3.4 3.4 0 0 0 6.2-7.17a2.5 2.5 0 0 0-1.61-.53q-.8 0-1.44.4-.65.4-1.02 1.28a6 6 0 0 0-.35 2.18q-.01 1.07.34 1.87T3.16-.75q.68.42 1.57.42.78 0 1.38-.33.6-.34 1.3-1.32l.18.12A4 4 0 0 1 6.2-.3a3.6 3.6 0 0 1-1.9.49 3.6 3.6 0 0 1-3.04-1.47 4 4 0 0 1-.81-2.56q0-1.2.53-2.2.52-.99 1.47-1.54a4 4 0 0 1 2.04-.54q.86 0 1.7.42a1 1 0 0 0 .35.12q.16 0 .27-.1.15-.16.22-.45Zm0 0"/>
    <path id="A" d="M6.8-.2c-.53-.03-.77-.25-1-.9L4.69-4.11c.92-.22 1.31-.4 1.75-.79q.6-.55.6-1.4c0-1.14-.88-1.78-2.5-1.78H1.59v.2c.5.08.56.08.69.17.09.06.17.2.17.34 0 .16-.06.46-.16.79L.81-1.11c-.22.72-.3.8-.97.9V0h2.93v-.2c-.74-.1-.82-.14-.82-.58 0-.13.03-.25.14-.7l.68-2.6.78.06L5.02 0H6.8ZM3.69-7.37c.08-.25.23-.35.6-.35q1.5-.01 1.5 1.4-.01 1.83-2.27 1.85c-.2 0-.3-.01-.61-.06Zm0 0"/>
    <path id="v" d="M3.55-5.14h-.96l.33-1.24q.03-.02.02-.06.01-.11-.1-.1c-.07 0-.1 0-.18.1-.46.6-1.2 1.2-1.6 1.32-.3.09-.37.17-.37.3l.01.07h.88l-.86 3.3A6 6 0 0 0 .44-.31c0 .25.26.44.58.44.56 0 .95-.33 1.7-1.44l-.16-.1c-.58.77-.78.96-.97.96q-.16-.01-.17-.25v-.05l1.06-4h1Zm0 0"/>
    <path id="k" d="M.95 0h2.22v-.12c-.62 0-.76-.08-.76-.47v-4.83l-.07-.02L.9-4.7v.1q.48-.17.58-.17.25-.01.25.38v3.64c-.02.52-.16.63-.77.63Zm0 0"/>
    <path id="o" d="m3.83-1.1-.11-.04c-.3.47-.4.51-.77.53H1.03l1.35-1.42C3.09-2.78 3.4-3.4 3.4-4.02c0-.8-.64-1.42-1.49-1.42-.44 0-.86.17-1.15.5-.27.27-.38.53-.52 1.1l.17.04c.31-.8.6-1.04 1.16-1.04.69 0 1.14.45 1.14 1.14 0 .62-.38 1.37-1.05 2.08L.23-.1V0h3.15Zm0 0"/>
    <path id="p" d="M1.23-2.66c.47 0 .66.02.85.1.5.19.81.62.81 1.19 0 .68-.45 1.2-1.05 1.2-.22 0-.39-.06-.68-.25-.24-.16-.38-.2-.5-.2q-.31 0-.32.28c0 .28.35.45.91.45.6 0 1.25-.2 1.64-.53q.58-.51.58-1.35 0-.64-.36-1.03a2 2 0 0 0-.66-.43c.55-.38.74-.68.74-1.11 0-.66-.5-1.1-1.25-1.1q-.6 0-1.05.4c-.23.23-.36.42-.53.9l.12.03c.32-.6.7-.84 1.2-.84.52 0 .88.34.88.86q0 .43-.33.78c-.23.23-.46.36-1.01.54Zm0 0"/>
    <path id="w" d="M.67 1.14c.53-.26.9-.76.9-1.25 0-.39-.29-.72-.65-.72a.45.45 0 0 0-.47.47q.02.39.47.4h.17l.05-.02q.1 0 .11.1 0 .42-.66.86Zm0 0"/>
    <path id="B" d="m6.6-5.36.06-.22q1 0 1.51.35.52.34.66 1.09.12.75-.17 1.66A4.2 4.2 0 0 1 6.75-.14q-.63.33-1.1.33-.52 0-.8-.3-.26-.3-.35-.92-.51.63-1.03.92T2.44.2Q2 .19 1.6-.12q-.37-.33-.47-.99-.08-.66.17-1.42.29-.84.86-1.53.43-.53.94-.88a4 4 0 0 1 2.25-.64l-.06.22q-.87.08-1.64.78a5 5 0 0 0-1.22 2.03q-.45 1.33-.22 1.96.1.37.56.37.38 0 .81-.3t.94-1.12q-.03-.69 0-1.02t.14-.65q.19-.58.6-.99.2-.2.37-.2.19 0 .25.2.11.39-.08.96a7 7 0 0 1-.93 1.7q-.06.8.17 1.1.21.27.6.27.47 0 .87-.35.55-.49 1-1.82.54-1.62.07-2.39-.27-.47-1-.53m0 0"/>
    <path id="F" d="M5.67-5.02h-.73q-.05 0-.19-.1a2 2 0 0 0-1.17-.35c-1.35 0-2.42.95-2.42 2.13 0 .64.25 1.01.95 1.34-.72.48-.94.73-.94 1.03q0 .23.33.49C.31.32.1.56.1 1.14c0 .86.8 1.4 2 1.4 1.53 0 2.53-.71 2.53-1.79q0-1.16-1.72-1.64c-.54-.14-.85-.34-.85-.52s.28-.51.44-.51l.1.01q.15.03.35.03c1.11 0 2.24-1 2.24-1.96q0-.3-.11-.7h.6ZM1.78-.34l.06.01.35.13C3.49.2 3.9.55 3.9 1.1c0 .68-.7 1.18-1.63 1.18-.95 0-1.51-.47-1.51-1.26 0-.3.06-.5.25-.75.17-.22.67-.61.76-.61M3.56-5.2q.67 0 .67.88c0 .45-.14.98-.37 1.4-.27.5-.64.79-1.05.79-.45 0-.72-.36-.72-.94 0-1.14.7-2.13 1.47-2.13m0 0"/>
    <path id="H" d="M7.6-5.25q0 1.38-.96 2.36a3.2 3.2 0 0 1-2.34.97 3.2 3.2 0 0 1-2.36-.97 3.2 3.2 0 0 1-.97-2.36q0-1.37.97-2.34a3.2 3.2 0 0 1 2.36-.99q1.37 0 2.34.99.97.97.97 2.34m0 0"/>
  </defs>
  <use xlink:href="#a" x="252.05" y="710.04"/>
  <use xlink:href="#c" x="262.36" y="710.04"/>
  <use xlink:href="#d" x="269.32" y="710.04"/>
  <use xlink:href="#e" x="274.72" y="710.04"/>
  <use xlink:href="#f" x="280.73" y="710.04"/>
  <use xlink:href="#g" x="286.73" y="710.04"/>
  <path d="M206.6 665.5h167.15c.28 0 .5.22.5.5a.5.5 0 0 1-.5.5H206.6a.5.5 0 0 1-.5-.5c0-.28.22-.5.5-.5m166.15-2.5 6 3-6 3Zm0 0"/>
  <path d="m213.1 666-.1-113.35c0-.28.23-.5.5-.5.28 0 .5.22.5.5l.1 113.35a.5.5 0 0 1-.5.5.5.5 0 0 1-.5-.5m-2.59-112.35 2.99-6 3.01 6Zm0 0"/>
  <path fill="none" stroke="#000" stroke-dasharray="2.25 3" stroke-linecap="round" stroke-linejoin="round" stroke-miterlimit="10" stroke-width=".75" d="M213.6 624.05h106.85M213.6 584.6h106.85m-67.55 0V666m19.7-41.95.05 41.95m47.8-81.4V666"/>
  <path fill="none" stroke="#000" stroke-linejoin="round" stroke-miterlimit="10" stroke-width="1.5" d="m213.6 666 39.3-81.4m67.55 39.45 20.1-39.45M213.6 666l59-41.95m47.85-39.45 20.1-19.15M252.9 584.6h67.55m-47.85 39.45 47.85.05"/>
  <use xlink:href="#h" x="346.51" y="569.62"/>
  <use xlink:href="#b" x="352.51" y="569.62"/>
  <use xlink:href="#b" x="343.37" y="590.62"/>
  <use xlink:href="#i" x="346.39" y="590.62"/>
  <use xlink:href="#b" x="352.39" y="590.62"/>
  <use xlink:href="#b" x="245.93" y="679.68"/>
  <use xlink:href="#j" x="248.93" y="679.68"/>
  <use xlink:href="#k" x="253.73" y="681.24"/>
  <use xlink:href="#bC" x="257.81" y="681.24"/>
  <use xlink:href="#b" x="207.41" y="680.16"/>
  <use xlink:href="#n" x="210.41" y="680.16"/>
  <use xlink:href="#b" x="216.41" y="680.16"/>
  <use xlink:href="#b" x="266.93" y="679.68"/>
  <use xlink:href="#j" x="269.93" y="679.68"/>
  <use xlink:href="#o" x="274.73" y="681.24"/>
  <use xlink:href="#bC" x="278.81" y="681.24"/>
  <use xlink:href="#b" x="314.33" y="679.68"/>
  <use xlink:href="#j" x="317.33" y="679.68"/>
  <use xlink:href="#p" x="322.13" y="681.24"/>
  <use xlink:href="#bC" x="326.21" y="681.24"/>
  <use xlink:href="#b" x="351.91" y="680.16"/>
  <use xlink:href="#j" x="354.91" y="680.16"/>
  <use xlink:href="#q" x="359.73" y="680.16"/>
  <use xlink:href="#am" x="362.73" y="680.16"/>
  <use xlink:href="#s" x="365.73" y="680.16"/>
  <use xlink:href="#t" x="375.07" y="680.16"/>
  <use xlink:href="#u" x="378.41" y="680.16"/>
  <use xlink:href="#b" x="384.43" y="680.16"/>
  <use xlink:href="#b" x="194.42" y="625.66"/>
  <use xlink:href="#v" x="197.42" y="625.66"/>
  <use xlink:href="#k" x="200.78" y="627.22"/>
  <use xlink:href="#bC" x="204.74" y="627.22"/>
  <use xlink:href="#b" x="194.9" y="586.54"/>
  <use xlink:href="#v" x="197.9" y="586.54"/>
  <use xlink:href="#o" x="201.26" y="588.1"/>
  <use xlink:href="#bC" x="205.22" y="588.1"/>
  <use xlink:href="#b" x="187.22" y="559.54"/>
  <use xlink:href="#v" x="190.22" y="559.54"/>
  <use xlink:href="#w" x="193.58" y="561.1"/>
  <use xlink:href="#bC" x="195.62" y="561.1"/>
  <use xlink:href="#x" x="197.66" y="559.54"/>
  <use xlink:href="#z" x="201.38" y="559.54"/>
  <use xlink:href="#bC" x="209.33" y="561.1"/>
  <path fill="#fff" fill-rule="evenodd" d="M91.45 309.6h26.45v-33.05H91.45Zm0 0"/>
  <use xlink:href="#A" x="100.92" y="292.2"/>
  <use xlink:href="#b" x="110.54" y="292.01"/>
  <path fill="#fff" fill-rule="evenodd" d="M96.05 225.45h26.45V192.4H96.05Zm0 0"/>
  <use xlink:href="#B" x="104.33" y="206.97"/>
  <use xlink:href="#b" x="115.1" y="206.78"/>
  <path fill="none" stroke="#000" stroke-linecap="round" stroke-linejoin="round" stroke-miterlimit="10" d="M150.4 204.65c-26.65 0-48.25 21.75-48.25 48.57s21.6 48.58 48.25 48.58 48.25-21.75 48.25-48.58-21.6-48.57-48.25-48.57m0 0"/>
  <use xlink:href="#a" x="188.78" y="321.53"/>
  <use xlink:href="#c" x="199.09" y="321.53"/>
  <use xlink:href="#d" x="206.05" y="321.53"/>
  <use xlink:href="#e" x="211.45" y="321.53"/>
  <use xlink:href="#l" x="214.45" y="321.53"/>
  <use xlink:href="#C" x="217.45" y="321.53"/>
  <use xlink:href="#r" x="223.49" y="321.53"/>
  <use xlink:href="#D" x="203.9" y="257.21"/>
  <use xlink:href="#r" x="211.97" y="257.21"/>
  <use xlink:href="#E" x="146.66" y="197.9"/>
  <use xlink:href="#r" x="155.3" y="197.9"/>
  <path fill-rule="evenodd" stroke="#000" stroke-linecap="round" stroke-linejoin="round" stroke-miterlimit="10" stroke-width=".75" d="M198.63 251.2c-1.2 0-2.18 1.04-2.18 2.32 0 1.29.97 2.33 2.18 2.33 1.2 0 2.17-1.04 2.17-2.33 0-1.28-.97-2.32-2.17-2.32m-48.05-48.95c-1.2 0-2.18 1.04-2.18 2.33 0 1.28.97 2.32 2.18 2.32 1.2 0 2.17-1.04 2.17-2.32 0-1.3-.97-2.33-2.17-2.33m0 0"/>
  <path d="m106.55 217.71 2.1-2.76 2.26-2.63 2.38-2.47 2.5-2.32 2.62-2.15 2.72-1.99 2.27-1.45a.5.5 0 1 1 .54.84l-2.22 1.41-2.68 1.96-2.57 2.11-2.46 2.28-2.35 2.43-2.21 2.59-2.11 2.75a.5.5 0 0 1-.7.1.5.5 0 0 1-.09-.7m17.12-15.35-2.73-.74 6.2-1.24-4.22 4.71Zm0 0"/>
  <path fill="#fff" fill-rule="evenodd" d="M207.95 213.5h21.55v-21.4h-21.55Zm0 0"/>
  <use xlink:href="#F" x="217.61" y="204"/>
  <path d="m212.7 192.15.04 21.4a.5.5 0 0 1-.5.5.5.5 0 0 1-.5-.5l-.04-21.4c0-.28.22-.5.5-.5s.5.22.5.5m-.46 21.4 2-2-1.99 6-2.01-6Zm0 0"/>
  <path fill="none" stroke="#000" stroke-linejoin="round" stroke-miterlimit="10" stroke-width="2.25" d="m79.1 302.85 153.25.05"/>
  <path fill-rule="evenodd" stroke="#000" stroke-linecap="round" stroke-linejoin="round" stroke-miterlimit="10" stroke-width=".75" d="M150.58 299.75c-1.2 0-2.18 1.04-2.18 2.33 0 1.28.97 2.32 2.18 2.32 1.2 0 2.17-1.04 2.17-2.32 0-1.3-.97-2.33-2.17-2.33m0 0"/>
  <use xlink:href="#G" x="146.78" y="318.17"/>
  <use xlink:href="#r" x="155.42" y="318.17"/>
  <use xlink:href="#H" x="147.24" y="257.96"/>
</svg>
