<svg xmlns="http://www.w3.org/2000/svg" xmlns:xlink="http://www.w3.org/1999/xlink" width="595.28" height="841.89" viewBox="0 0 595.28 841.89">
  <defs>
    <path id="a" d="M5.38-6.22h1.07q-.4 1.3-.75 3.11.4 2.27.75 3.11H5.41q-.26-.58-.38-1.14Q4.55.14 3 .14a2.3 2.3 0 0 1-1.87-.87 3.7 3.7 0 0 1-.7-2.4q0-1.51.7-2.37a2.4 2.4 0 0 1 1.9-.86q.72 0 1.17.3.47.3.88.9.03-.2.3-1.06m-2.18.74q-.75 0-1.18.6-.45.62-.44 1.76 0 1.12.4 1.76.43.64 1.16.64.72 0 1.2-.62a3 3 0 0 0 .49-1.83q0-1.14-.46-1.72-.45-.6-1.17-.6m0 0"/>
    <path id="b" d="M1.86-.8v3.18H.8V-5.9q0-.98.27-1.55.25-.56.9-.92.66-.36 1.46-.36 1.17 0 1.76.67.6.68.61 1.47 0 .8-.48 1.28-.49.48-1.13.58 1.02.12 1.57.74.56.62.56 1.56 0 .98-.66 1.78-.64.78-1.87.78-1.28 0-1.94-.94m.92-4.26q1.08 0 1.56-.38.5-.37.5-1.08 0-.57-.42-.95a1.5 1.5 0 0 0-1.04-.39q-.54 0-.94.3-.39.28-.49.64-.1.34-.1 1.22v2.36q0 1 .15 1.48.14.47.6.86.45.38 1.06.38.72 0 1.15-.5t.42-1.25q0-.62-.3-1.08a1.6 1.6 0 0 0-.77-.66q-.45-.18-1.22-.19h-.16Zm0 0"/>
    <path id="k" d="m2.9-6.34-.2.92q-1.2.4-1.2 2.1 0 .92.47 1.63.48.7 1.42.92v-3.87q0-.6.08-.94a1 1 0 0 1 .4-.56q.32-.22.86-.22.83 0 1.35.34t.89 1.08a3.5 3.5 0 0 1 .06 2.97q-.29.7-.92 1.3-.65.6-1.67.81v2.24H3.39V.13Q2.31.14 1.36-.8a3.4 3.4 0 0 1-.94-2.46q0-1.37.75-2.23t1.74-.84M4.45-.81q.73-.15 1.25-.83.53-.7.53-1.83 0-1.04-.4-1.53-.36-.48-.79-.48-.32 0-.45.21-.14.2-.14.94Zm0 0"/>
    <path id="m" d="M2.52-1.9q.98.22.98.93a.8.8 0 0 1-.4.74Q2.67 0 1.94 0H.2v-.14q.33 0 .44-.13.09-.13.09-.57v-1.91q0-.42-.05-.5a.3.3 0 0 0-.12-.12Q.47-3.43.2-3.44v-.15h1.65q.47 0 .77.07.3.09.48.3a.8.8 0 0 1 .2.53q-.01.6-.77.8m-1.14-.08h.2q.52 0 .76-.2.25-.2.25-.5 0-.35-.25-.5-.23-.16-.76-.16h-.2Zm0 1.67q.18.06.45.06.46 0 .69-.2a.7.7 0 0 0 .23-.53q0-.36-.3-.55a1.4 1.4 0 0 0-.8-.2l-.27.01Zm0 0"/>
    <path id="n" d="M.2-3.6h2.33v.16q-.4 0-.47.05l-.15.1q-.07.07-.07.54v.72h.35q.63 0 .98.1.36.12.53.37.2.23.2.54 0 .45-.38.74-.37.28-1.2.28H.65v-.14q.32 0 .43-.13.1-.12.11-.57v-2.5q-.46 0-.67.14-.2.14-.31.6H.05ZM1.84-.3q.22.06.43.06.45 0 .67-.22A.8.8 0 0 0 3.16-1q0-.33-.24-.55a1 1 0 0 0-.67-.22l-.4.02Zm0 0"/>
    <path id="o" d="M.33-2.47v-1.12H.5q.06.06.16.06l.28-.06q.38-.1.6-.11.53 0 .87.25.34.23.34.62 0 .6-.92.9 1.08.2 1.08 1 0 .41-.35.73-.34.3-1 .3Q1.13.1.8-.04.48-.2.1-.56l.1-.11q.65.5 1.2.5.34 0 .54-.22a.8.8 0 0 0 .22-.58q0-.78-1-.83v-.23q.46 0 .68-.25a.8.8 0 0 0 .22-.55.6.6 0 0 0-.19-.44.6.6 0 0 0-.48-.2q-.68 0-.92 1Zm0 0"/>
    <path id="p" d="M.73-3.6H3.9v.16a1 1 0 0 0-.36.05l-.12.12q-.05.09-.05.52v1.78q0 .56.1.69.09.12.43.14V1h-.14A1 1 0 0 0 3.6.44a1 1 0 0 0-.4-.35Q2.94 0 2.44 0h-.92q-.43 0-.68.08a1 1 0 0 0-.4.31Q.29.64.25 1H.11V-.14Q.4-.15.69-.4q.26-.24.45-.95.2-.72.2-1.41t-.6-.69Zm.88.26v.21q0 1.94-.7 2.88h1.32q.36 0 .41-.06.06-.06.06-.46v-2.57Zm0 0"/>
    <path id="q" d="M.05-3.6h1.67v.15h-.08q-.19 0-.28.08a.3.3 0 0 0-.08.18q0 .15.13.44l.87 1.81.8-1.98a1 1 0 0 0 .08-.33l-.04-.1-.1-.07-.22-.03v-.14h1.15v.14l-.22.06q-.07.05-.17.19l-.14.3L1.97.66q-.2.53-.55.8a1 1 0 0 1-.65.26.6.6 0 0 1-.4-.14.4.4 0 0 1-.14-.3q0-.17.11-.27t.3-.1q.12 0 .34.1l.2.06q.12 0 .26-.13.15-.12.28-.47l.25-.62-1.28-2.7a4 4 0 0 0-.35-.5 1 1 0 0 0-.3-.11Zm0 0"/>
    <path id="r" d="M.1-3.6h1.7v.15q-.18 0-.24.06t-.06.14.14.3l.13.18.25.41.3-.4q.27-.4.27-.49t-.06-.14-.22-.06v-.14h1.22v.14a1 1 0 0 0-.34.1q-.2.15-.52.58l-.48.66.89 1.3q.33.47.47.56t.36.1V0H2.2v-.14q.18 0 .27-.08.08-.05.08-.14T2.31-.8l-.51-.8-.58.78Q.95-.46.95-.4q0 .1.08.17.09.06.27.08V0H.14v-.14a.4.4 0 0 0 .24-.1q.15-.12.5-.57l.75-1-.68-1q-.3-.42-.45-.53a1 1 0 0 0-.4-.11Zm0 0"/>
    <path id="e" d="m2.63-5.28-.77 2.66q1.09-1.63 1.67-2.15.58-.51 1.11-.51.3 0 .49.2.18.2.18.49 0 .36-.17.93l-.7 2.46q-.13.44-.13.53 0 .08.05.14.04.05.1.05.05 0 .17-.08.3-.25.67-.75l.18.1q-.54.8-1.03 1.12-.35.23-.6.23A.4.4 0 0 1 3.5 0q-.13-.12-.12-.34a4 4 0 0 1 .2-.97l.67-2.35q.13-.44.13-.68a.2.2 0 0 0-.08-.18.3.3 0 0 0-.2-.07 1 1 0 0 0-.38.14 3 3 0 0 0-.9.86q-.45.6-.98 1.54-.26.51-.45 1.08L1.1 0H.23l1.05-3.66q.2-.65.19-.8a.3.3 0 0 0-.11-.21.3.3 0 0 0-.24-.1l-.25.02-.21.05-.05-.22Zm0 0"/>
    <path id="j" d="M3.5-8.3 1.86-2.62a11 11 0 0 1 1.66-2.13q.58-.53 1.14-.53.27 0 .45.2t.19.5q0 .4-.16.94l-.7 2.44q-.14.45-.14.5 0 .08.04.14.06.04.11.04.08 0 .2-.07.31-.27.65-.72l.17.1A4 4 0 0 1 4.3 0a1 1 0 0 1-.45.14.5.5 0 0 1-.34-.14.5.5 0 0 1-.15-.34q0-.27.2-.97l.68-2.33q.13-.44.13-.69a.2.2 0 0 0-.08-.19.2.2 0 0 0-.2-.07q-.15 0-.37.14a4 4 0 0 0-.92.9q-.15.17-.92 1.46-.25.4-.4.89L1.1 0H.23l1.93-6.67.2-.74q0-.13-.13-.25a.4.4 0 0 0-.3-.12l-.32.03-.13.02v-.24Zm0 0"/>
    <path id="l" d="m6.45-8.3-2 6.9q-.17.54-.17.73 0 .05.05.1.07.06.1.05.09 0 .18-.07.2-.15.67-.7l.2.12q-.42.6-.86.95-.41.36-.8.36A.4.4 0 0 1 3.5 0q-.13-.14-.12-.4 0-.33.17-.9l.23-.72A7 7 0 0 1 2.23-.2q-.46.34-.9.34a1 1 0 0 1-.77-.39 1.6 1.6 0 0 1-.33-1.08q0-.86.55-1.84.54-1 1.45-1.61.73-.5 1.33-.5.32 0 .53.12.23.13.46.43l.56-2.04a3 3 0 0 0 .19-.71.3.3 0 0 0-.1-.2.5.5 0 0 0-.3-.12q-.15 0-.45.05v-.22ZM4.3-4.16a.8.8 0 0 0-.22-.59.7.7 0 0 0-.55-.23Q2.8-4.98 2-3.77q-.8 1.2-.8 2.32 0 .43.2.67a.6.6 0 0 0 .46.23q.6 0 1.52-1.3.91-1.32.92-2.3m0 0"/>
    <path id="t" d="m1.4-7.14 1.93-.95h.19v6.7q0 .65.04.83.06.15.24.25.17.07.72.1V0H1.53v-.22q.56 0 .72-.1.18-.07.23-.21.06-.16.07-.86v-4.28q0-.87-.05-1.11a.5.5 0 0 0-.16-.27.4.4 0 0 0-.25-.1q-.22 0-.6.18Zm0 0"/>
    <path id="s" d="M.22-5.16H6.5v.47H.22Zm0 1.91H6.5v.47H.22Zm0 0"/>
    <path id="f" d="M2.98 0h-.7v-4.5q-.25.26-.67.5a5 5 0 0 1-.74.36v-.69q.6-.28 1.04-.67.44-.4.62-.77h.45Zm0 0"/>
    <path id="g" d="M4.03-.67V0H.25a1 1 0 0 1 .08-.48q.14-.4.45-.77.33-.37.92-.87.94-.77 1.27-1.22t.33-.85q0-.42-.3-.7-.3-.3-.78-.3-.5 0-.81.32-.3.3-.32.84l-.72-.08q.08-.81.57-1.23a2 2 0 0 1 1.3-.43q.82 0 1.3.46.47.45.48 1.14 0 .34-.14.67t-.47.7a9 9 0 0 1-1.08 1.02q-.63.53-.81.72t-.3.39Zm0 0"/>
    <path id="h" d="M.53 0v-5.75h.7v3.28l1.68-1.7h.9l-1.6 1.55L3.98 0H3.1L1.73-2.12l-.5.46V0Zm0 0"/>
    <path id="i" d="M.6 0v-5.75h.8l3 4.52v-4.52h.72V0h-.78l-3-4.52V0Zm0 0"/>
    <clipPath id="d">
      <path d="M193.47 314h.53v1h-.53Zm0 0"/>
    </clipPath>
  </defs>
  <path fill="none" stroke="#000" stroke-linecap="round" stroke-linejoin="round" stroke-miterlimit="10" stroke-width=".75" d="m105.62 146.23 26 39.31"/>
  <path d="m105.86 146.12 10.2 15.58.11.23-.24.25h-.24l-.24-.13-10.18-15.57v-.25l.11-.23.36-.12Zm11.87 13.3.72 6.59-5.75-3.35m18.7 22.64 23.24-35.1.24-.25.36.12.12.24-.12.24-23.25 35.11-.24.24-.24-.11-.24-.25Zm20.48-35.71 5.88-3.36-.84 6.6m-12.94 32.47 23.24-35.1.24-.25.36.12.12.24-.12.24-23.25 35.11-.23.24-.25-.11-.23-.25Zm20.49-35.71 5.87-3.36-.84 6.6"/>
  <use xlink:href="#a" x="121.2" y="161.58"/>
  <use xlink:href="#c" x="129.11" y="161.58"/>
  <use xlink:href="#b" x="185.56" y="314.5"/>
  <g clip-path="url(#d)">
    <use xlink:href="#c" x="193.47" y="314.5"/>
  </g>
  <path fill="none" stroke="#000" stroke-linecap="round" stroke-linejoin="round" stroke-miterlimit="10" stroke-width=".75" d="m80.1 185.54 158.8.12m-158.8 17.5 158.8.12M80.1 218.02h158.8M80.1 233.36l158.8.12M80.1 185.54l.12 32.48m158.68-32.36v32.36M80.1 286.81h158.8M80.1 269.8h158.8M80.1 249.3l158.8.12M80.22 286.81l-.12-17.01"/>
  <path fill="none" stroke="#000" stroke-dasharray=".0007550544741999999 1.49813014" stroke-linecap="round" stroke-linejoin="round" stroke-miterlimit="10" stroke-width=".75" d="M80.1 218.02v15.34"/>
  <path fill="none" stroke="#000" stroke-linecap="round" stroke-linejoin="round" stroke-miterlimit="10" stroke-width=".75" d="M80.1 233.36v15.94"/>
  <path fill="none" stroke="#000" stroke-dasharray=".0007550544741999999 1.49813014" stroke-linecap="round" stroke-linejoin="round" stroke-miterlimit="10" stroke-width=".75" d="M80.1 249.3v20.5m158.8-51.78v15.46m0 15.94v20.38"/>
  <path fill="none" stroke="#000" stroke-linecap="round" stroke-linejoin="round" stroke-miterlimit="10" stroke-width=".75" d="M238.9 286.81V269.8m0-36.32v15.94"/>
  <path d="m181.96 286.57 15.59 24.33v.24l-.12.24-.25.12-.23-.24-15.58-24.2-.12-.36.23-.13.25-.12Zm17.26 22.06.72 6.7-5.75-3.47"/>
  <path fill="none" stroke="#000" stroke-dasharray="2.247183224 2.996248294" stroke-linecap="round" stroke-linejoin="round" stroke-miterlimit="10" stroke-width=".75" d="M131.63 185.66V152"/>
  <path d="m132 185.54 4.54 12.83v.36l-.24.12h-.23l-.25-.24-4.55-12.82v-.36l.24-.13h.24Zm6.7 11.03-.84 6.71-4.79-4.67"/>
  <path fill="none" stroke="#000" stroke-linecap="round" stroke-linejoin="round" stroke-miterlimit="10" stroke-width=".75" d="m144.21 185.66-6.35 17.62"/>
  <path d="M180.29 282.02 178 269.8v-.25l.24-.11h.36l.12.24 2.4 12.22-.12.24-.24.12h-.24Zm3.11-1.68-1.8 6.47-4.07-5.27M158 233.24l5.63 11.39v.36l-.24.24h-.24l-.24-.24-5.51-11.39-.12-.36.24-.12.24-.12Zm7.55 9.35-.12 6.71-5.28-4.07m-21.93-42.19 4.32 10.19v.36l-.12.24h-.36l-.12-.24-4.32-10.19v-.24l.12-.24h.36Zm6.35 8.27-.36 6.71-5.15-4.31"/>
  <path fill="none" stroke="#000" stroke-dasharray="2.247183224 2.996248294" stroke-linecap="round" stroke-linejoin="round" stroke-miterlimit="10" stroke-width=".75" d="M181.6 310.78v-23.97"/>
  <path fill="none" stroke="#000" stroke-linecap="round" stroke-linejoin="round" stroke-miterlimit="10" stroke-width=".75" d="M131.63 167.8c-5.15 0-9.35 1.68-9.35 3.6m59.32 130.15c4.2 0 7.56-.84 7.56-1.8"/>
  <use xlink:href="#e" x="87.29" y="195.61"/>
  <use xlink:href="#f" x="94.24" y="197.17"/>
  <use xlink:href="#c" x="99.63" y="195.61"/>
  <use xlink:href="#e" x="87.29" y="211.79"/>
  <use xlink:href="#g" x="94.24" y="213.35"/>
  <use xlink:href="#c" x="99.63" y="211.79"/>
  <use xlink:href="#e" x="87.29" y="243.55"/>
  <use xlink:href="#h" x="94.24" y="245.11"/>
  <use xlink:href="#c" x="99.27" y="243.55"/>
  <use xlink:href="#e" x="85.85" y="278.9"/>
  <use xlink:href="#i" x="92.8" y="280.46"/>
  <use xlink:href="#c" x="99.51" y="278.9"/>
  <use xlink:href="#j" x="225.35" y="197.29"/>
  <use xlink:href="#c" x="232.3" y="197.29"/>
  <path d="M230.86 171.4v9.23l-.12.24-.24.12-.24-.12-.12-.24v-9.23l.12-.24.24-.12.24.12Zm2.64 8.27-3 6-3-6m2.64 35.47v-6.94l.12-.24.24-.12.24.12.12.24v6.94l-.12.25-.24.12-.24-.12Zm-2.63-5.87 3-5.99 2.99 6"/>
  <path fill="none" stroke="#000" stroke-dasharray=".0007550544741999999 1.49813014" stroke-linecap="round" stroke-linejoin="round" stroke-miterlimit="10" stroke-width=".75" d="m144.21 218.02 13.43 15.46m7.79 15.94 12.94 20.38"/>
  <path fill="none" stroke="#000" stroke-dasharray="2.247183224 2.996248294" stroke-linecap="round" stroke-linejoin="round" stroke-miterlimit="10" stroke-width=".75" d="M157.64 233.48v22.41"/>
  <use xlink:href="#k" x="141.22" y="246.07"/>
  <use xlink:href="#h" x="149.97" y="247.62"/>
  <path fill="none" stroke="#000" stroke-linecap="round" stroke-linejoin="round" stroke-miterlimit="10" stroke-width=".75" d="M157.64 240.67a7 7 0 0 0 3.11-.6"/>
  <path d="m140.26 151.63 6.23 4.2.12.23v.24l-.24.12h-.36l-6.23-4.2-.12-.23v-.24l.24-.12Zm5.99 4.43-.6-2.76 3.96 5.04-6.11-1.68m34.63 22.54-17.5-13.2-.12-.23.12-.24.24-.12h.24l17.5 13.18.12.24-.12.24-.24.13Zm-17.26-13.43.36 2.76-3.6-5.16 6 1.92"/>
  <use xlink:href="#l" x="171.18" y="170.56"/>
  <use xlink:href="#c" x="178.13" y="170.56"/>
  <use xlink:href="#e" x="60.92" y="180.03"/>
  <use xlink:href="#m" x="67.87" y="181.59"/>
  <use xlink:href="#n" x="72.67" y="181.59"/>
  <use xlink:href="#o" x="77.82" y="181.59"/>
  <use xlink:href="#p" x="81.89" y="181.59"/>
  <use xlink:href="#q" x="87.05" y="181.59"/>
  <use xlink:href="#r" x="91.96" y="181.59"/>
  <use xlink:href="#dg" x="97" y="180.03"/>
  <use xlink:href="#s" x="100.95" y="180.03"/>
  <use xlink:href="#dg" x="108.74" y="180.03"/>
  <use xlink:href="#t" x="112.7" y="180.03"/>
  <use xlink:href="#c" x="119.65" y="180.03"/>
  <use xlink:href="#e" x="61.28" y="299.28"/>
  <use xlink:href="#m" x="68.23" y="300.84"/>
  <use xlink:href="#n" x="73.03" y="300.84"/>
  <use xlink:href="#o" x="78.18" y="300.84"/>
  <use xlink:href="#p" x="82.25" y="300.84"/>
  <use xlink:href="#q" x="87.41" y="300.84"/>
  <use xlink:href="#r" x="92.32" y="300.84"/>
  <use xlink:href="#dg" x="97.35" y="299.28"/>
  <use xlink:href="#s" x="101.31" y="299.28"/>
  <use xlink:href="#dg" x="109.1" y="299.28"/>
  <use xlink:href="#t" x="113.05" y="299.28"/>
  <use xlink:href="#c" x="120" y="299.28"/>
</svg>
