<svg xmlns="http://www.w3.org/2000/svg" xmlns:xlink="http://www.w3.org/1999/xlink" width="595.28" height="841.89" viewBox="0 0 595.28 841.89">
  <defs>
    <path id="c" d="M3.77-2.83q1.46.3 1.46 1.38 0 .73-.6 1.1Q4 0 2.93 0H.27v-.22Q.8-.22.94-.4q.15-.2.14-.84v-2.84q0-.64-.06-.75a1 1 0 0 0-.2-.2q-.14-.08-.54-.08v-.24h2.47q.7 0 1.14.13.45.1.73.43.3.31.29.78 0 .93-1.14 1.2m-1.72-.14.3.02q.8 0 1.17-.32.35-.3.36-.75 0-.5-.38-.71a2 2 0 0 0-1.16-.24h-.3Zm0 2.5q.3.1.68.1.7 0 1.04-.3t.34-.8a.9.9 0 0 0-.44-.81q-.45-.3-1.22-.3l-.4.02Zm0 0"/>
    <path id="d" d="M.3-5.36h3.48v.24q-.58 0-.7.06l-.22.17q-.1.1-.1.8v1.07h.5q.98 0 1.49.16.5.16.8.52.27.36.28.84 0 .67-.56 1.1-.55.4-1.82.4H.98v-.22q.48 0 .65-.17.16-.19.17-.86v-3.72q-.7 0-1.02.2-.3.2-.45.88H.06Zm2.47 4.9q.3.09.62.09.69 0 1-.33a1.13 1.13 0 0 0-.03-1.6 1.4 1.4 0 0 0-.99-.34l-.6.05Zm0 0"/>
    <path id="e" d="M.48-3.67v-1.69h.25q.1.1.24.1.08 0 .44-.1.54-.15.9-.16.77 0 1.28.36.52.37.52.96 0 .9-1.38 1.3 1.6.34 1.61 1.5 0 .62-.51 1.09-.53.47-1.5.47-.64 0-1.13-.22A4 4 0 0 1 .14-.84L.3-1q.95.75 1.8.75.5 0 .8-.33.34-.34.33-.87 0-1.18-1.5-1.24v-.34q.7 0 1.02-.38t.33-.8a1 1 0 0 0-.28-.66 1 1 0 0 0-.72-.3q-1.04 0-1.38 1.5Zm0 0"/>
    <path id="f" d="M1.1-5.36h4.73v.24q-.41 0-.53.07a1 1 0 0 0-.2.2q-.08.12-.08.76v2.64q0 .84.14 1.03.13.19.67.2v1.7H5.6Q5.58 1 5.36.64q-.21-.35-.6-.5Q4.4 0 3.67 0h-1.4q-.63 0-1 .1a1.2 1.2 0 0 0-.6.5 2 2 0 0 0-.29.88H.17v-1.7q.46 0 .86-.37.4-.35.7-1.43.3-1.06.3-2.07T1.1-5.13Zm1.3.4v.3q0 2.88-1.04 4.29h1.98q.54 0 .61-.1.1-.09.1-.67v-3.83Zm0 0"/>
    <path id="g" d="M.06-5.36h2.5v.22h-.12q-.25 0-.4.12a.4.4 0 0 0-.12.29q0 .21.19.62l1.3 2.7 1.2-2.95q.1-.25.1-.48L4.66-5a.3.3 0 0 0-.15-.1 1 1 0 0 0-.35-.04v-.22h1.75v.22a1 1 0 0 0-.34.1 1 1 0 0 0-.25.26q-.06.08-.2.45L2.95 1.02q-.33.75-.84 1.15-.5.4-.97.4a.8.8 0 0 1-.58-.2.6.6 0 0 1-.22-.45q0-.23.16-.39a.7.7 0 0 1 .45-.14q.2 0 .52.13.23.07.3.07.16 0 .37-.18.22-.18.42-.7l.4-.91-1.94-4.05a3 3 0 0 0-.27-.45Q.6-4.91.5-4.97a1 1 0 0 0-.44-.17Zm0 0"/>
    <path id="h" d="M.16-5.36h2.51v.22q-.22 0-.33.1a.3.3 0 0 0-.09.2q0 .14.2.43l.2.3.37.61.43-.6q.42-.6.42-.74a.3.3 0 0 0-.09-.2q-.09-.1-.33-.1v-.22h1.82v.22a1 1 0 0 0-.49.16q-.3.2-.8.87l-.71.97 1.32 1.92q.48.7.7.85.2.14.55.17V0H3.31v-.2q.27 0 .4-.13.12-.07.12-.22 0-.12-.38-.67l-.78-1.14-.86 1.14q-.39.53-.39.63 0 .14.13.26.14.12.4.13V0H.2v-.2a1 1 0 0 0 .36-.16q.23-.17.75-.86l1.13-1.5-1.02-1.47Q.98-4.8.75-4.97a1 1 0 0 0-.6-.17Zm0 0"/>
    <path id="k" d="M4.92-2.03a3 3 0 0 1-.86 1.62q-.63.57-1.39.57-.9 0-1.6-.77a3 3 0 0 1-.66-2.06q0-1.27.75-2.05.75-.8 1.8-.8.79 0 1.29.43.51.42.52.87 0 .23-.14.36t-.41.13q-.34 0-.52-.22-.09-.13-.12-.47a.8.8 0 0 0-.24-.52 1 1 0 0 0-.57-.18q-.59 0-.94.43-.47.59-.47 1.52 0 .95.47 1.69.46.73 1.26.73.58 0 1.04-.4.32-.26.62-.96Zm0 0"/>
    <path id="l" d="M.3-5.36h4.62l.24 1.45h-.27a2 2 0 0 0-.23-.67.7.7 0 0 0-.38-.31 2 2 0 0 0-.72-.08H3.1v3.72q0 .6.08.75t.24.22q.17.04.75.06V0H1.25v-.22q.56-.01.72-.17.16-.17.16-.86v-3.72h-.49q-.5 0-.69.06a1 1 0 0 0-.34.3q-.15.22-.28.7H.06Zm0 0"/>
    <path id="m" d="M5.75 0H4.17q-.74-1.06-1.34-2.19l-.25-.39a.4.4 0 0 0-.31-.12l-.22.01v1.44q0 .58.06.73.07.17.25.24t.6.06V0H.25v-.22q.52 0 .66-.19.15-.18.16-.84v-2.84q0-.62-.06-.74a.5.5 0 0 0-.2-.2q-.14-.1-.55-.1v-.23h2.68v.24q-.5 0-.6.07l-.2.17q-.1.1-.1.79v1.04l.18.02q.35 0 .66-.2t.56-.86q.24-.61.38-.83t.42-.36q.27-.14.55-.14.33 0 .51.15.2.16.19.4 0 .21-.14.35a.5.5 0 0 1-.38.14 1 1 0 0 1-.32-.07 1 1 0 0 0-.36-.08q-.29 0-.46.45-.2.54-.3.69-.09.16-.34.42a1 1 0 0 1 .38.27q.21.22.81 1.23.45.82.69 1.03.23.2.67.22Zm0 0"/>
    <path id="n" d="M.92-5.36H5.7v.24q-.38 0-.53.07a1 1 0 0 0-.2.2q-.08.12-.08.76v2.84q0 .6.06.73.08.13.2.22.15.08.55.08V0H2.94v-.22q.44 0 .62-.05.17-.04.27-.21.1-.19.1-.77v-3.72H2.17v2.25q0 1.28-.13 1.8-.11.52-.45.76Q1.25.1.8.1.06.1.06-.53q0-.2.13-.33A.4.4 0 0 1 .5-1q.2 0 .38.17.23.22.35.22.26 0 .38-.44.12-.45.12-1.54v-1.2q0-.9-.14-1.1-.12-.2-.67-.24Zm0 0"/>
    <path id="o" d="M3-5.52q1.2 0 1.94.93.62.8.62 1.8 0 .73-.34 1.48-.35.74-.95 1.1T2.92.17Q1.72.16 1-.8a3 3 0 0 1-.6-1.82q0-.75.37-1.46A2.5 2.5 0 0 1 3-5.52m-.19.4q-.31 0-.62.18-.32.18-.52.64-.19.45-.19 1.2 0 1.15.47 2t1.22.85q.58 0 .94-.47.37-.47.37-1.6 0-1.43-.6-2.24a1.3 1.3 0 0 0-1.07-.57m0 0"/>
    <path id="q" d="m2.5-7.66 1.58-.65h.25v3.3q.52-.5 1.08-.5.75 0 1.3.84.54.83.54 2 0 1.16-.56 2-.55.83-1.33.83-.58 0-1.03-.5V1.3q0 .6.06.75.07.15.25.22t.74.07v.22H2.5v-.22q.57 0 .75-.17.17-.16.17-.87V-.34q-.44.5-1.03.5-.82 0-1.34-.83a4 4 0 0 1-.53-2.06q0-1.1.5-1.94t1.34-.85q.62 0 1.06.57v-1.46q0-.73-.1-.93A.3.3 0 0 0 3-7.56q-.19 0-.42.1Zm.92 3.22q-.33-.68-.84-.68-.49 0-.77.65a5 5 0 0 0-.28 1.94q0 1.14.28 1.72.28.57.77.58.45 0 .84-.54Zm.9 3.58q.14.3.38.47.25.15.47.16.45 0 .74-.57.3-.57.3-1.78 0-2.55-1-2.54-.45 0-.88.48Zm0 0"/>
    <path id="r" d="m2.05-1.64 2.3-2.69q0-.44-.16-.62t-.55-.17v-.24h2.5v.24q-.4 0-.53.07a1 1 0 0 0-.22.2q-.06.12-.06.76v2.84q0 .6.06.73t.2.22.55.08V0h-2.6v-.22q.49 0 .65-.17.17-.19.17-.86v-2.53L2.05-1.1q0 .5.14.68.12.2.54.2V0H.27v-.22q.51 0 .65-.19.15-.18.16-.84v-2.84q0-.62-.06-.74a.5.5 0 0 0-.2-.2q-.14-.1-.55-.1v-.23h2.59v.24q-.4 0-.53.07a1 1 0 0 0-.2.2q-.08.12-.08.76Zm0 0"/>
    <path id="s" d="m4.6-5.36.23 1.47h-.25q-.22-.71-.46-.9-.21-.18-.95-.18H2.05v3.72q0 .6.06.73t.2.22.55.08V0H.19v-.22Q.74-.23.9-.39q.17-.17.17-.86v-2.84q0-.57-.06-.72a.4.4 0 0 0-.24-.24q-.15-.08-.6-.08v-.23Zm0 0"/>
    <path id="t" d="M1.5-1.14a.6.6 0 0 1 .45.2q.2.2.2.46t-.2.45a.66.66 0 0 1-.92 0 .6.6 0 0 1-.19-.45.64.64 0 0 1 .66-.66m0 0"/>
    <path id="u" d="M5.48-1.53 4.94 0H.25v-.22a21 21 0 0 0 2.9-3.06Q4-4.48 4-5.47q0-.74-.47-1.23-.45-.48-1.1-.49-.57 0-1.04.35-.47.32-.69 1H.48q.15-1.1.75-1.68.61-.57 1.52-.57.96 0 1.6.62A2 2 0 0 1 5-6q0 .6-.28 1.2-.42.95-1.4 2A44 44 0 0 1 1.5-.88h2.08q.62 0 .87-.04.25-.05.46-.19t.36-.42Zm0 0"/>
    <path id="i" d="m2.64-5.28-.78 2.66a12 12 0 0 1 1.67-2.15q.6-.51 1.13-.51.3 0 .48.19.2.18.19.5 0 .35-.17.93l-.7 2.46q-.14.44-.13.53 0 .08.04.14.06.05.1.05.07 0 .17-.08.3-.25.67-.75l.19.1q-.55.8-1.03 1.12-.34.23-.61.23A.4.4 0 0 1 3.52 0q-.13-.12-.13-.34a4 4 0 0 1 .2-.97l.68-2.35q.12-.44.12-.68a.3.3 0 0 0-.08-.2.2.2 0 0 0-.18-.07 1 1 0 0 0-.4.14 4 4 0 0 0-.89.88q-.46.6-.98 1.54-.28.51-.47 1.08L1.11 0H.23L1.3-3.66q.18-.65.18-.8a.3.3 0 0 0-.1-.21.3.3 0 0 0-.25-.11l-.25.03-.22.03-.04-.2Zm0 0"/>
    <path id="j" d="m.94-4.78 1.3-.64h.12v4.48q0 .46.03.56.04.12.16.18.12.04.48.06V0h-2v-.14q.37 0 .49-.06.1-.06.15-.16.05-.09.05-.58V-3.8q0-.57-.05-.75-.04-.12-.1-.17a.2.2 0 0 0-.16-.06q-.16 0-.41.1Zm0 0"/>
    <path id="p" d="M3.67-1.02 3.3 0H.17v-.14Q1.55-1.4 2.11-2.2q.58-.8.58-1.46 0-.5-.31-.82a1 1 0 0 0-.75-.33q-.4 0-.7.23-.3.22-.46.66H.33q.08-.72.5-1.11.4-.4 1.01-.4.64 0 1.07.43.43.41.43.97 0 .4-.18.81-.29.65-.94 1.35Q1.24-.82 1-.6h1.4q.41 0 .58-.04a1 1 0 0 0 .3-.12q.15-.09.25-.27Zm0 0"/>
    <path id="v" d="M5.47-5.36h.97l-.75 2.67-.25.78q.21.9.33 1.08.21.31.54.31.23 0 .42-.18A1 1 0 0 0 7-1.3h.23q-.07.84-.36 1.16-.26.33-.62.33a1 1 0 0 1-.6-.28 3 3 0 0 1-.5-1.2q-.24.5-.5.76a2.2 2.2 0 0 1-1.67.72Q1.7.19 1.1-.67.5-1.52.5-2.62q0-1.3.7-2.1a2.2 2.2 0 0 1 1.69-.8q.65 0 1.15.41.52.4.94 1.52Zm-.7 2.42a3.6 3.6 0 0 0-.82-1.67q-.5-.48-1.01-.48-.58 0-.96.62a4 4 0 0 0-.37 2q0 .81.16 1.28t.5.72q.32.25.7.25.44 0 .81-.4.52-.57.99-2.32m0 0"/>
    <clipPath id="a">
      <path d="M368.8 232h.2v1h-.2Zm0 0"/>
    </clipPath>
  </defs>
  <g clip-path="url(#a)">
    <use xlink:href="#b" x="368.8" y="232.88"/>
  </g>
  <path fill="silver" fill-rule="evenodd" stroke="#000" stroke-linecap="round" stroke-miterlimit="8" stroke-width=".75" d="M198.38 152.11H315v-35.95H198.4Zm0 0"/>
  <path fill="#dedede" fill-rule="evenodd" stroke="#000" stroke-linecap="round" stroke-miterlimit="8" stroke-width=".75" d="M198.38 188.06H315v-35.95H198.4Zm0 0"/>
  <path fill="none" stroke="#000" stroke-dasharray="2.244006934 2.9920172359999997" stroke-linecap="round" stroke-linejoin="round" stroke-miterlimit="10" stroke-width=".75" d="M234.22 80.32v35.84"/>
  <path d="M198.63 80.08 213 94.46l.13.24-.13.24-.23.12-.24-.12-14.39-14.38-.12-.24.12-.24.24-.12Zm15.57 11.87 2.16 6.35-6.35-2.16"/>
  <path fill="none" stroke="#000" stroke-linecap="round" stroke-linejoin="round" stroke-miterlimit="10" stroke-width=".75" d="m216.36 98.3 17.86 17.86m-.24-11.99a8.9 8.9 0 0 0-8.15 3.96"/>
  <use xlink:href="#b" x="280.48" y="110.28"/>
  <use xlink:href="#c" x="283.47" y="110.28"/>
  <use xlink:href="#d" x="289.1" y="110.28"/>
  <use xlink:href="#e" x="295.34" y="110.28"/>
  <use xlink:href="#f" x="300.13" y="110.28"/>
  <use xlink:href="#g" x="306.36" y="110.28"/>
  <use xlink:href="#h" x="312" y="110.28"/>
  <use xlink:href="#b" x="318.11" y="110.28"/>
  <use xlink:href="#b" x="280.48" y="200.05"/>
  <use xlink:href="#c" x="283.47" y="200.05"/>
  <use xlink:href="#d" x="289.1" y="200.05"/>
  <use xlink:href="#e" x="295.34" y="200.05"/>
  <use xlink:href="#f" x="300.13" y="200.05"/>
  <use xlink:href="#g" x="306.36" y="200.05"/>
  <use xlink:href="#h" x="312" y="200.05"/>
  <use xlink:href="#b" x="318.11" y="200.05"/>
  <use xlink:href="#b" x="298.45" y="137.13"/>
  <use xlink:href="#i" x="301.45" y="137.13"/>
  <use xlink:href="#j" x="307.44" y="138.69"/>
  <use xlink:href="#b" x="311.52" y="137.13"/>
  <use xlink:href="#b" x="314.51" y="137.13"/>
  <use xlink:href="#b" x="317.51" y="137.13"/>
  <use xlink:href="#k" x="320.39" y="137.13"/>
  <use xlink:href="#l" x="325.66" y="137.13"/>
  <use xlink:href="#d" x="330.93" y="137.13"/>
  <use xlink:href="#m" x="337.17" y="137.13"/>
  <use xlink:href="#n" x="343.04" y="137.13"/>
  <use xlink:href="#o" x="349.03" y="137.13"/>
  <use xlink:href="#b" x="355.02" y="137.13"/>
  <use xlink:href="#b" x="298.46" y="173.08"/>
  <use xlink:href="#i" x="301.45" y="173.08"/>
  <use xlink:href="#p" x="307.44" y="174.64"/>
  <use xlink:href="#b" x="311.52" y="173.08"/>
  <use xlink:href="#b" x="314.51" y="173.08"/>
  <use xlink:href="#b" x="317.51" y="173.08"/>
  <use xlink:href="#k" x="320.39" y="173.08"/>
  <use xlink:href="#l" x="325.66" y="173.08"/>
  <use xlink:href="#d" x="330.93" y="173.08"/>
  <use xlink:href="#m" x="337.17" y="173.08"/>
  <use xlink:href="#n" x="343.04" y="173.08"/>
  <use xlink:href="#o" x="349.03" y="173.08"/>
  <use xlink:href="#b" x="355.02" y="173.08"/>
  <use xlink:href="#q" x="226.67" y="217.9"/>
  <use xlink:href="#r" x="234.46" y="217.9"/>
  <use xlink:href="#s" x="240.81" y="217.9"/>
  <use xlink:href="#b" x="245.72" y="217.9"/>
  <use xlink:href="#t" x="248.72" y="217.9"/>
  <use xlink:href="#b" x="251.71" y="217.9"/>
  <use xlink:href="#u" x="254.71" y="217.9"/>
  <use xlink:href="#b" x="260.7" y="217.9"/>
  <use xlink:href="#v" x="223.67" y="101.77"/>
  <use xlink:href="#b" x="231.1" y="101.77"/>
  <use xlink:href="#b" x="405.12" y="233.84"/>
  <use xlink:href="#w" x="70.87" y="244.87"/>
</svg>
