<svg xmlns="http://www.w3.org/2000/svg" xmlns:xlink="http://www.w3.org/1999/xlink" width="595.28" height="841.89" viewBox="0 0 595.28 841.89">
  <defs>
    <path id="d" d="M6.44 0H3.02v-.22q.67-.01.9-.17.24-.17.25-.7-1.99 0-2.86-.83A2.7 2.7 0 0 1 .44-4q0-.94.51-1.6.53-.64 1.28-.9.77-.27 1.94-.27-.01-.48-.15-.64a1 1 0 0 0-.32-.21 3 3 0 0 0-.68-.08v-.22h3.42v.22q-.69.03-.9.22-.24.17-.26.71 1.26 0 1.99.29t1.23.92q.52.62.52 1.56 0 1.21-.85 2.06-.84.85-2.89.85.03.51.25.68.23.18.9.2ZM5.28-1.53q.86 0 1.38-.22.51-.24.84-.81.34-.58.34-1.44 0-.82-.34-1.36a1.7 1.7 0 0 0-.84-.76 4 4 0 0 0-1.38-.2Zm-1.1 0v-4.8q-.91 0-1.41.22-.5.23-.82.75-.32.51-.32 1.36 0 .9.37 1.52.4.6.92.78.53.17 1.25.17m0 0"/>
    <path id="e" d="m2.05-1.64 2.3-2.67q0-.45-.16-.63t-.55-.18v-.22h2.5v.21q-.4 0-.53.08a1 1 0 0 0-.22.2q-.06.12-.06.76v2.84q0 .6.06.73t.2.22.55.08V0h-2.6v-.22q.49 0 .65-.17.17-.19.17-.86v-2.52L2.05-1.09q0 .5.14.68.12.2.54.2V0H.27v-.22q.51 0 .65-.19.15-.18.16-.84v-2.84q0-.62-.06-.74a1 1 0 0 0-.2-.2q-.14-.1-.55-.1v-.21h2.59v.21q-.4 0-.53.08a1 1 0 0 0-.2.2q-.08.12-.08.76Zm0 0"/>
    <path id="f" d="m4.6-5.34.23 1.45h-.25q-.22-.71-.46-.9-.21-.18-.95-.18H2.05v3.72q0 .6.06.73t.2.22.55.08V0H.19v-.22Q.74-.23.9-.39q.17-.17.17-.86v-2.84q0-.57-.06-.72a.4.4 0 0 0-.24-.24q-.15-.08-.6-.08v-.21Zm0 0"/>
    <path id="g" d="M1.5-1.12q.27 0 .45.18.2.2.2.46t-.2.45a.66.66 0 0 1-.92 0 .6.6 0 0 1-.19-.45q0-.29.2-.46a.7.7 0 0 1 .46-.19m0 0"/>
    <path id="h" d="m1.4-7.14 1.93-.94h.2v6.69q0 .65.05.83.06.15.23.25.18.07.7.1V0H1.56v-.22q.56 0 .72-.1.16-.07.23-.21.06-.16.06-.86v-4.28q0-.86-.06-1.11a.5.5 0 0 0-.16-.27.3.3 0 0 0-.25-.1q-.22 0-.6.2Zm0 0"/>
    <path id="a" d="m5.67-5.28-1.9 6.6q-.13.44-.13.57 0 .14.06.24.06.08.2.14.16.07.46.07l-.06.22H1.5l.06-.22q.58-.05.7-.1a1 1 0 0 0 .38-.29q.15-.2.31-.82l.82-2.88Q2.99-.62 2.33-.17q-.46.3-.9.31a1 1 0 0 1-.87-.47Q.26-.8.26-1.36q0-.87.54-1.84t1.43-1.6q.7-.48 1.25-.48.42 0 .7.2.25.2.4.64l.17-.65ZM4.34-4.14a.8.8 0 0 0-.23-.61.7.7 0 0 0-.56-.25q-.7 0-1.5 1.23a4.3 4.3 0 0 0-.78 2.32q0 .43.18.67.2.22.49.22.36 0 .8-.4.68-.6 1.13-1.54.48-.95.47-1.64m0 0"/>
    <path id="b" d="m3.56-8.3-2 6.94q-.15.54-.14.64t.05.16q.06.04.14.04.1 0 .23-.09.32-.24.64-.75l.18.19Q2.1-.4 1.64-.07q-.34.2-.66.2A.5.5 0 0 1 .61 0a.5.5 0 0 1-.14-.36q0-.21.19-.86L2.23-6.7q.2-.67.2-.77a.3.3 0 0 0-.12-.23q-.11-.1-.34-.1-.15 0-.4.05v-.22Zm0 0"/>
    <path id="c" d="M3.5.19 2 1.4a4 4 0 0 1 1.19-.03q.25.02 1.06.21.82.2 1.44.2.63 0 1.1-.24.45-.22.87-.75l.2.1q-.6.85-1.44 1.23-.82.38-1.72.39-.5 0-1.39-.2-1.36-.3-1.89-.29-.2 0-.34.02-.13.02-.38.14l-.14-.16L2.96.14Q1.87 0 1.29-.83A3 3 0 0 1 .7-2.58q0-1.28.77-2.64a6 6 0 0 1 1.98-2.12q1.22-.75 2.38-.75.88 0 1.48.36.6.35.94 1.01a3 3 0 0 1 .33 1.36q0 1.34-.77 2.72a6 6 0 0 1-1.9 2.1Q4.78.14 3.5.18m2.19-7.9q-.58 0-1.14.29-.57.28-1.11.94-.56.64-.99 1.71a7 7 0 0 0-.53 2.47q0 .84.42 1.47.44.64 1.32.64.53 0 1.04-.26.52-.27 1.07-.9.7-.8 1.17-2.04t.46-2.3q0-.8-.43-1.4-.42-.62-1.3-.62m0 0"/>
  </defs>
  <use xlink:href="#bt" x="351.07" y="427.87"/>
  <path fill="none" stroke="#000" stroke-dasharray="2.24246074 2.9899556439999997" stroke-linecap="round" stroke-linejoin="round" stroke-miterlimit="10" stroke-width=".75" d="m292.82 285.98.12 98.63"/>
  <path fill="none" stroke="#000" stroke-linecap="round" stroke-linejoin="round" stroke-miterlimit="10" stroke-width=".75" d="M248.72 306.95h89.76"/>
  <path fill-rule="evenodd" d="M292.82 302.4a4.53 4.53 0 0 0-4.43 4.55 4.5 4.5 0 0 0 4.43 4.43 4.53 4.53 0 0 0 4.56-4.43 4.55 4.55 0 0 0-4.56-4.56"/>
  <path fill="none" stroke="#000" stroke-linecap="round" stroke-linejoin="round" stroke-miterlimit="10" stroke-width=".75" d="M292.82 302.4a4.53 4.53 0 0 0-4.43 4.55 4.5 4.5 0 0 0 4.43 4.43 4.53 4.53 0 0 0 4.55-4.43 4.55 4.55 0 0 0-4.55-4.56m0 0"/>
  <use xlink:href="#bt" x="271.73" y="296.4"/>
  <use xlink:href="#bt" x="274.73" y="296.4"/>
  <use xlink:href="#bt" x="277.72" y="296.4"/>
  <use xlink:href="#a" x="280.72" y="296.4"/>
  <use xlink:href="#bv" x="286.71" y="296.4"/>
  <use xlink:href="#bt" x="298.69" y="341.22"/>
  <use xlink:href="#bt" x="301.69" y="341.22"/>
  <use xlink:href="#bt" x="304.69" y="341.22"/>
  <use xlink:href="#b" x="307.68" y="341.22"/>
  <use xlink:href="#bv" x="311.04" y="341.22"/>
  <use xlink:href="#bt" x="271.73" y="377.18"/>
  <use xlink:href="#bt" x="274.73" y="377.18"/>
  <use xlink:href="#c" x="277.72" y="377.18"/>
  <use xlink:href="#bv" x="286.35" y="377.18"/>
  <use xlink:href="#bt" x="271.73" y="413.01"/>
  <use xlink:href="#d" x="274.73" y="413.01"/>
  <use xlink:href="#e" x="284.19" y="413.01"/>
  <use xlink:href="#f" x="290.66" y="413.01"/>
  <use xlink:href="#g" x="295.57" y="413.01"/>
  <use xlink:href="#bt" x="298.57" y="413.01"/>
  <use xlink:href="#h" x="301.57" y="413.01"/>
  <use xlink:href="#bt" x="307.56" y="413.01"/>
  <path fill="silver" fill-rule="evenodd" d="M292.82 355.48a4.5 4.5 0 0 0-4.43 4.44 4.53 4.53 0 0 0 4.43 4.55 4.55 4.55 0 0 0 4.56-4.55c0-2.4-2.04-4.44-4.56-4.44"/>
  <path fill="none" stroke="#000" stroke-linecap="round" stroke-linejoin="round" stroke-miterlimit="10" stroke-width=".75" d="M292.82 355.48a4.5 4.5 0 0 0-4.43 4.44 4.53 4.53 0 0 0 4.43 4.55 4.55 4.55 0 0 0 4.55-4.55c0-2.4-2.03-4.44-4.55-4.44m0 0"/>
  <use xlink:href="#bt" x="360.06" y="437.82"/>
</svg>
