<svg xmlns="http://www.w3.org/2000/svg" xmlns:xlink="http://www.w3.org/1999/xlink" width="595.28" height="841.89" viewBox="0 0 595.28 841.89">
  <defs>
    <path id="i" d="M4.34-8.08Q5.87-8.08 7-6.9A4 4 0 0 1 8.13-4q0 1.81-1.15 3A3.6 3.6 0 0 1 4.25.19Q2.62.19 1.52-.97a4.2 4.2 0 0 1-1.1-3q0-1.88 1.27-3.08a3.8 3.8 0 0 1 2.65-1.03m-.1.42q-1.08 0-1.7.8-.79.97-.79 2.86 0 1.94.81 2.97.65.8 1.67.8 1.11 0 1.83-.86.74-.88.74-2.75 0-2.02-.8-3.02a2.1 2.1 0 0 0-1.77-.8m0 0"/>
    <path id="b" d="M7.8-5.73h1.04L7.06-2.9l-.54.84A6 6 0 0 0 6.47-.9q.1.34.45.34.26 0 .53-.2.29-.2.5-.64h.25q-.38.9-.8 1.23Q7 .2 6.63.2a.6.6 0 0 1-.54-.3q-.2-.3-.1-1.28-.45.55-.8.83-.51.38-1 .56-.5.2-1.04.2-1.38 0-1.72-.92-.33-.91.06-2.1Q1.95-4.17 3-5.04t2.1-.86q.7 0 1.09.44.4.45.43 1.63ZM6.17-3.14q.09-1.29-.26-1.8T5-5.45q-.62 0-1.24.67-.63.67-1.13 2.14-.3.88-.3 1.37t.25.77q.27.27.66.27.48 0 1.03-.44.75-.6 1.9-2.47m0 0"/>
    <path id="d" d="M6.25-8.06 4.31-1.37q-.15.54-.15.71 0 .07.04.11.05.05.1.05.08 0 .18-.08.2-.12.64-.67l.2.1a5 5 0 0 1-.84.95q-.4.34-.76.34A.4.4 0 0 1 3.39 0a.6.6 0 0 1-.1-.4q0-.3.15-.85l.23-.7A7 7 0 0 1 2.17-.2q-.46.34-.89.34a1 1 0 0 1-.75-.37 1.6 1.6 0 0 1-.31-1.05q0-.84.53-1.8.54-.96 1.42-1.56.7-.49 1.28-.49.3 0 .52.13.21.13.44.4l.56-1.96.1-.35q.05-.21.05-.36a.3.3 0 0 0-.07-.2.5.5 0 0 0-.3-.1l-.44.04v-.2Zm-2.1 4.03a1 1 0 0 0-.2-.6.7.7 0 0 0-.53-.21q-.72 0-1.48 1.18a4 4 0 0 0-.77 2.25q0 .42.19.66.18.22.44.22.6 0 1.47-1.27.89-1.28.89-2.23m0 0"/>
    <path id="e" d="m.78-3.97 1.06-.53h.11v3.72q0 .37.03.47.04.09.13.14.1.05.4.05V0H.87v-.12q.3 0 .39-.05.09-.04.13-.13.04-.07.04-.48v-2.38q0-.48-.03-.6a.3.3 0 0 0-.1-.16q-.04-.05-.13-.05a1 1 0 0 0-.33.1Zm0 0"/>
    <path id="g" d="M3.05-.84 2.73 0H.14v-.12q1.14-1.05 1.61-1.7.47-.67.47-1.23 0-.41-.27-.68a.8.8 0 0 0-.6-.27 1 1 0 0 0-.58.19q-.26.18-.38.56H.27q.07-.6.4-.92.35-.33.86-.33.52 0 .9.34.35.34.35.82 0 .34-.15.67-.25.53-.79 1.1-.81.9-1.01 1.09h1.15q.35 0 .49-.04.14-.03.25-.1a1 1 0 0 0 .2-.22Zm0 0"/>
    <path id="f" d="m2.52-5.05-.74 2.53q1.03-1.54 1.58-2.03.56-.5 1.08-.5.26 0 .45.2.2.18.19.46 0 .35-.17.9l-.68 2.35q-.12.4-.12.5 0 .08.05.12.04.05.09.05.07 0 .17-.06.28-.24.64-.72l.17.1q-.51.75-.98 1.07-.31.22-.58.22a.4.4 0 0 1-.33-.12q-.12-.13-.12-.35 0-.26.2-.92l.64-2.23q.13-.43.13-.66a.2.2 0 0 0-.08-.17.3.3 0 0 0-.17-.08 1 1 0 0 0-.38.12q-.42.26-.86.83-.44.59-.93 1.49a5 5 0 0 0-.44 1.03L1.05 0H.22l1.01-3.48q.18-.64.18-.77a.3.3 0 0 0-.1-.22.3.3 0 0 0-.25-.1l-.23.04-.2.03-.04-.2Zm0 0"/>
    <clipPath id="a">
      <path d="M242 417h8.88v7H242Zm0 0"/>
    </clipPath>
    <clipPath id="c">
      <path d="M283.23 451h6.6v9h-6.6Zm0 0"/>
    </clipPath>
    <clipPath id="h">
      <path d="M337.52 451H344v9h-6.48Zm0 0"/>
    </clipPath>
  </defs>
  <g clip-path="url(#a)">
    <use xlink:href="#b" x="242.01" y="423.2"/>
  </g>
  <path fill="none" stroke="#000" stroke-linejoin="round" stroke-miterlimit="10" d="M260.34 349.38v100.9M315 349.38v100.9"/>
  <path d="M262.26 445.37h50.7l.11.12-.11.12h-50.7l-.12-.12Zm5.87 3.72-6.1-3.6 6.1-3.6.25.12-.13.12-5.99 3.48v-.24l6 3.6.12.12Zm38.83-7.2 6.24 3.6-6.24 3.6h-.12v-.13l6-3.6v.25l-6-3.48v-.12z"/>
  <g clip-path="url(#c)">
    <use xlink:href="#d" x="283.23" y="459.75"/>
  </g>
  <path fill="none" stroke="#000" stroke-linecap="round" stroke-linejoin="round" stroke-miterlimit="10" stroke-width=".25" d="m250.64 429.79 9.7-16.3"/>
  <path fill="none" stroke="#000" stroke-dasharray=".7490506868 .9987454359999999" stroke-linecap="round" stroke-linejoin="round" stroke-miterlimit="10" stroke-width=".25" d="m228.23 413.37 61.72.12"/>
  <use xlink:href="#e" x="288.03" y="351.77"/>
  <use xlink:href="#f" x="283.23" y="348.89"/>
  <path fill="none" stroke="#000" stroke-linejoin="round" stroke-miterlimit="10" d="M369.28 349.38v100.9"/>
  <use xlink:href="#g" x="343.16" y="351.77"/>
  <use xlink:href="#f" x="337.52" y="348.89"/>
  <path d="M316.91 445.37h50.7l.12.12-.12.12h-50.7l-.12-.12Zm6 3.72-6.24-3.6 6.23-3.6.12.12v.12l-5.99 3.48v-.24l6 3.6v.12Zm38.82-7.2 6.11 3.6-6.1 3.6h-.25l.12-.13 6-3.6v.25l-6-3.48-.12-.12z"/>
  <g clip-path="url(#h)">
    <use xlink:href="#d" x="337.52" y="459.75"/>
  </g>
  <use xlink:href="#i" x="264.3" y="409.3"/>
  <path d="m238.9 450.16 9.22-16.18h.12l.12.12-9.23 16.18-.24.12Zm6.22-16.66 5.52-3.71-.36 6.59"/>
</svg>
