<svg xmlns="http://www.w3.org/2000/svg" xmlns:xlink="http://www.w3.org/1999/xlink" width="595.32" height="841.92" viewBox="0 0 595.32 841.92">
  <defs>
    <path id="B" d="M8.66-7.83H5.98v.19q.24.02.33.05a1 1 0 0 1 .35.07.2.2 0 0 1 .06.14c0 .3-.66.94-1.72 1.7L3.17-4.43l.64-2.33c.17-.6.5-.84 1.2-.9v-.18H1.76v.19c.75.08.92.17.92.51q0 .29-.12.75l-1.49 5.3C.84-.36.8-.3.08-.18V0h2.98v-.19c-.76-.1-.87-.15-.87-.53 0-.12.01-.22.1-.47l.07-.25.75-2.73 1.44 2.5c.3.48.47.9.47 1.12 0 .2-.18.28-.57.32q-.1 0-.34.04V0h3.3v-.19c-.75-.08-.83-.1-1.16-.67L4.15-4.5l3.6-2.7c.34-.25.6-.4.9-.44Zm0 0"/>
    <path id="q" d="M1.45 0c.63-2.05.83-2.55 1.38-3.47q.61-1.02.94-1.03.1 0 .18.16c.1.2.2.26.44.26q.54-.02.55-.6c0-.35-.24-.6-.57-.6q-.43 0-.9.5A6 6 0 0 0 2.3-3.09l-.16.43.63-2.6-.04-.02c-.87.16-.98.17-1.85.31v.22c.26-.06.3-.06.4-.06q.41 0 .42.33c0 .17 0 .17-.18.98L.55 0Zm0 0"/>
    <path id="v" d="m7.81-5.58.44-2.37H8c-.1.18-.2.26-.45.26-.11 0-.24-.03-.49-.1a7 7 0 0 0-1.4-.2C3.09-7.98.8-5.57.8-2.9A3 3 0 0 0 3.92.22C5.16.22 6.11-.3 7.2-1.56L7-1.73C5.9-.7 5.21-.33 4.22-.33c-1.32 0-2.09-.89-2.09-2.45 0-1.42.56-2.88 1.5-3.84.58-.6 1.33-.93 2.13-.93q1.64 0 1.82 1.94Zm0 0"/>
    <path id="D" d="M6.8-.19c-.53-.04-.77-.25-1-.86L4.69-3.98c.92-.2 1.31-.38 1.75-.77q.6-.53.6-1.34c0-1.13-.88-1.74-2.5-1.74H1.59v.19c.5.08.56.1.69.17.09.06.17.2.17.34s-.06.43-.16.75L.81-1.08c-.22.7-.3.78-.97.9V0h2.93v-.19c-.74-.1-.82-.14-.82-.56 0-.12.03-.25.14-.69l.68-2.5.78.05L5.02 0H6.8ZM3.69-7.12c.08-.25.23-.35.6-.35q1.5 0 1.5 1.36-.01 1.77-2.27 1.78c-.2 0-.3-.01-.61-.06Zm0 0"/>
    <path id="z" d="M4.05-4.08Q3.2-4.44 3-4.86q-.18-.41 0-.98.24-.78 1.08-1.3 1.1-.7 2.55-.7.86 0 1.46.2.63.2.75.53.14.3.05.6a1 1 0 0 1-.36.46 1 1 0 0 1-.56.2q-.46 0-.58-.59-.1-.6-.25-.72a1 1 0 0 0-.73-.21q-.76 0-1.33.43-.59.45-.83 1.19-.25.72-.02 1.1.24.4.88.4.21 0 .48-.03.44-.06.68-.06.34 0 .43.09.11.1.07.22a.3.3 0 0 1-.18.19q-.17.1-.56.1l-.26-.01a5 5 0 0 0-.7-.06q-.7 0-1.29.45t-.84 1.2q-.3.88 0 1.36.3.5 1.04.49.6 0 1.08-.36.29-.2.75-.86.3-.42.42-.53.36-.27.68-.27.34 0 .5.25.15.24.04.6-.2.57-1.01 1.04-1.17.69-2.66.69-1.56 0-2.19-.69-.6-.68-.32-1.51.2-.6.82-1.14.64-.56 1.96-.99m0 0"/>
    <path id="o" d="m5.69-1.77-.16-.06c-.44.75-.58.85-1.14.85H1.53l2.02-2.27C4.6-4.44 5.08-5.42 5.08-6.42A2.23 2.23 0 0 0 1.14-7.9c-.39.43-.56.84-.76 1.76l.25.06c.46-1.26.89-1.67 1.73-1.67 1.02 0 1.69.73 1.69 1.81 0 1.02-.55 2.2-1.57 3.35L.36-.16V0h4.67Zm0 0"/>
    <path id="a" d="M3.77-3.05q1.46.33 1.46 1.49 0 .78-.6 1.17Q4 0 2.93 0H.27v-.23q.52 0 .66-.2.15-.22.14-.93V-4.4q0-.66-.06-.8a1 1 0 0 0-.2-.21q-.14-.1-.54-.1v-.25h2.47q.7 0 1.14.13.45.13.73.48.3.35.29.85 0 .98-1.14 1.26m-1.72-.14h.3q.8 0 1.17-.33.35-.32.36-.8 0-.54-.38-.77a2 2 0 0 0-1.16-.25h-.3Zm0 2.67q.3.12.68.11.7 0 1.04-.32.34-.33.34-.85a1 1 0 0 0-.44-.87q-.45-.32-1.22-.32h-.4Zm0 0"/>
    <path id="b" d="M3-5.92q1.2 0 1.94.98.62.85.62 1.96 0 .76-.34 1.56t-.95 1.2-1.35.4Q1.72.17 1-.87a3.4 3.4 0 0 1-.6-1.97q0-.78.37-1.56.37-.79.96-1.16.6-.37 1.27-.37m-.19.4q-.31 0-.62.2-.32.2-.52.7-.19.5-.19 1.28 0 1.24.47 2.17.47.9 1.22.9.58 0 .94-.5.37-.51.37-1.73 0-1.53-.6-2.42-.43-.6-1.07-.6m0 0"/>
    <path id="c" d="M1.1-5.77h4.73v.25q-.41 0-.53.1a1 1 0 0 0-.2.2q-.08.13-.08.81v2.85q0 .9.14 1.1.13.21.67.23v1.82H5.6q-.03-.51-.25-.9a1 1 0 0 0-.6-.53A3 3 0 0 0 3.67 0h-1.4q-.63 0-1 .13Q.9.25.67.64q-.23.4-.29.95H.17V-.23q.46-.02.86-.41t.7-1.53q.3-1.13.3-2.24 0-1.07-.91-1.1Zm1.3.43V-5q0 3.08-1.04 4.6h1.98q.54 0 .61-.1.1-.1.1-.72v-4.12Zm0 0"/>
    <path id="d" d="M3.4-.83q-.83.7-1.02.8-.33.16-.68.16-.56 0-.92-.41a1.6 1.6 0 0 1-.36-1.08q0-.42.19-.73.24-.43.83-.8.6-.4 1.97-.92v-.24q0-.86-.25-1.17-.25-.33-.75-.33a.8.8 0 0 0-.58.22.6.6 0 0 0-.22.49l.01.37q0 .29-.14.44t-.35.16a.5.5 0 0 1-.36-.16.7.7 0 0 1-.15-.45q0-.53.52-.99t1.45-.45q.7 0 1.16.25.36.2.52.6.1.27.1 1.12V-2q0 .83.04 1.02.03.17.09.25.06.06.16.06.09 0 .15-.05.12-.1.47-.47v.36q-.64.94-1.25.94a.6.6 0 0 1-.45-.2Q3.4-.32 3.4-.83m0-.4v-2.2q-.87.37-1.13.54-.46.27-.66.58t-.2.65q0 .46.25.75.25.3.57.3.46 0 1.18-.62m0 0"/>
    <path id="e" d="m4.6-5.77.23 1.58h-.25q-.22-.78-.46-.97-.21-.18-.95-.18H2.05v3.98q0 .67.06.81.06.13.2.22.15.1.55.1V0H.19v-.23q.55-.01.72-.2.17-.18.17-.93V-4.4q0-.6-.06-.78a.5.5 0 0 0-.24-.25q-.15-.08-.6-.08v-.25Zm0 0"/>
    <path id="f" d="M.92-5.77H5.7v.25q-.38 0-.53.1a1 1 0 0 0-.2.2q-.08.13-.08.81v3.05q0 .67.06.81.08.13.2.22.15.1.55.1V0H2.94v-.23q.44 0 .62-.05t.27-.24q.1-.2.1-.84v-3.98H2.17v2.42q0 1.38-.13 1.94-.11.54-.45.8A1.2 1.2 0 0 1 .8.1Q.06.1.06-.56q0-.23.13-.38a.4.4 0 0 1 .31-.14q.2 0 .38.17.23.25.35.25.26 0 .38-.46.12-.49.12-1.68v-1.26q0-.98-.14-1.19-.12-.21-.67-.27Zm0 0"/>
    <path id="g" d="m2.05-1.77 2.3-2.89q0-.48-.16-.67-.16-.18-.55-.19v-.25h2.5v.25q-.4 0-.53.1a1 1 0 0 0-.22.2q-.06.13-.06.81v3.05q0 .67.06.81.06.13.2.22.15.1.55.1V0h-2.6v-.23q.49 0 .65-.2.17-.18.17-.93v-2.7L2.05-1.17q0 .53.14.73.12.2.54.2V0H.27v-.23q.51 0 .65-.2t.16-.93V-4.4q0-.66-.06-.8a1 1 0 0 0-.2-.21q-.14-.1-.55-.1v-.25h2.59v.25q-.4 0-.53.1a1 1 0 0 0-.2.2q-.08.13-.08.81Zm0 0"/>
    <path id="h" d="M6.14-.23v1.82h-.22Q5.9.86 5.47.42 5.05 0 3.92 0H.27v-.23q.51 0 .65-.2t.16-.93V-4.4q0-.66-.06-.8a1 1 0 0 0-.2-.21q-.14-.1-.55-.1v-.25h2.59v.25q-.4 0-.53.1a1 1 0 0 0-.2.2q-.08.13-.08.81v3.25q0 .55.1.66.08.1.57.1h.95q.53 0 .61-.12.08-.1.08-.68v-3.2q0-.6-.06-.77a.4.4 0 0 0-.22-.25q-.18-.1-.53-.1v-.25h2.6v.25q-.4 0-.54.1a1 1 0 0 0-.22.2q-.06.13-.06.81v2.96q0 .81.12 1.01.14.2.7.2m0 0"/>
    <path id="i" d="M1.28-3.6q-.02 1.29.58 2.02.57.74 1.36.74.53 0 .92-.32.39-.3.66-1.06l.17.13a3 3 0 0 1-.72 1.56q-.58.7-1.47.7a2.1 2.1 0 0 1-1.65-.8 3.2 3.2 0 0 1-.7-2.17q0-1.48.71-2.3a2.3 2.3 0 0 1 1.78-.84q.9 0 1.47.64.58.65.58 1.7Zm0-.35h2.47a3 3 0 0 0-.12-.78q-.15-.34-.44-.55-.29-.2-.6-.2-.48 0-.87.4-.38.42-.44 1.13m0 0"/>
    <path id="j" d="m-.02-5.19 1.66-.72h.22v1.35q.4-.75.83-1.05t.89-.31q.79 0 1.34.67.66.82.66 2.16 0 1.5-.8 2.47-.66.8-1.66.8A2 2 0 0 1 2.4.04a2 2 0 0 1-.53-.38v1.75q0 .6.06.75.07.16.24.25.17.1.6.1v.23h-2.8v-.23H.1q.3 0 .55-.13a1 1 0 0 0 .17-.23q.06-.15.06-.77v-5.45q0-.57-.05-.7A1 1 0 0 0 .7-5a.4.4 0 0 0-.27-.08q-.14 0-.36.1Zm1.88 1v2.16q0 .69.05.9.1.38.4.66.32.27.8.27.6 0 .95-.49.48-.63.47-1.81 0-1.3-.53-2.03-.37-.49-.9-.49-.28 0-.55.16-.2.11-.7.67m0 0"/>
    <path id="k" d="M2.05-3.19h2.3V-4.4q.01-.54-.04-.7a.4.4 0 0 0-.2-.28q-.16-.13-.56-.13v-.25h2.6v.25q-.37 0-.54.1a.4.4 0 0 0-.24.25q-.04.16-.04.76v3.05q0 .55.03.74.04.16.22.28.17.1.56.1V0h-2.6v-.23q.49 0 .65-.2.17-.18.17-.93v-1.42H2.05v1.42q0 .55.04.74.06.16.2.28.17.1.57.1V0H.26v-.23q.52 0 .66-.2t.16-.93V-4.4q0-.54-.05-.71a.4.4 0 0 0-.2-.29q-.18-.1-.56-.1v-.26h2.59v.25q-.36 0-.53.1a.4.4 0 0 0-.24.25q-.04.16-.04.76Zm0 0"/>
    <path id="m" d="M6.44 0H3.02v-.23q.67-.01.9-.2.24-.18.25-.76-1.99 0-2.86-.89A3 3 0 0 1 .44-4.3 2.8 2.8 0 0 1 2.24-7q.75-.28 1.93-.28-.01-.53-.15-.69a1 1 0 0 0-.32-.23 2 2 0 0 0-.68-.1v-.23h3.42v.23q-.69.04-.9.24-.24.18-.26.78 1.26 0 1.99.3a2.9 2.9 0 0 1 1.75 2.67q0 1.3-.85 2.22-.84.9-2.89.9.03.58.25.77.23.18.9.19ZM5.28-1.64q.86 0 1.38-.24t.84-.87q.34-.65.34-1.56 0-.87-.34-1.47-.33-.6-.84-.81-.52-.22-1.38-.22Zm-1.1 0v-5.17q-.91 0-1.41.23t-.82.8a3 3 0 0 0-.32 1.47q0 .98.37 1.64.4.66.92.84.53.2 1.25.19m0 0"/>
    <path id="n" d="M1.5-1.22a.6.6 0 0 1 .45.2q.2.2.2.5t-.2.49a.6.6 0 0 1-.45.2.7.7 0 0 1-.47-.2.7.7 0 0 1-.19-.49q0-.3.2-.5.19-.2.46-.2m0 0"/>
    <path id="l" d="M3.95-5.77h.97L3.97-3.6A21 21 0 0 0 3.28-2L2.61-.48l.06.74.02.62q0 .84-.11 1.31a1 1 0 0 1-.24.46.4.4 0 0 1-.28.12q-.19 0-.34-.19a.7.7 0 0 1-.14-.43q0-.49.17-1.13T2.3-.39a27 27 0 0 0-.7-3.88q-.24-.66-.7-.67a.5.5 0 0 0-.43.19q-.15.17-.24.8H0v-.28q0-.85.31-1.3a.8.8 0 0 1 .64-.33.8.8 0 0 1 .58.22q.3.33.55 1.39.3 1.4.47 3.05l.51-1.88q.34-1.24.9-2.69m0 0"/>
    <path id="s" d="M1.52-6.5q0-.72.5-1.22.51-.51 1.21-.51.74 0 1.24.51.51.5.51 1.22 0 .73-.51 1.23-.5.5-1.22.5A1.7 1.7 0 0 1 1.52-6.5m0 0"/>
    <path id="E" d="M.95 0h2.22v-.12c-.62 0-.76-.08-.76-.47v-4.82l-.07-.01L.9-4.7v.12q.46-.18.58-.19.24 0 .23.38v3.64c-.01.52-.14.63-.75.63Zm0 0"/>
    <path id="F" d="m3.81-1.1-.1-.04c-.3.47-.38.51-.76.53H1.03l1.35-1.42C3.09-2.77 3.4-3.38 3.4-4c0-.81-.66-1.42-1.49-1.42-.44 0-.86.17-1.15.48-.27.28-.38.53-.52 1.11l.17.03c.31-.78.6-1.03 1.16-1.03.69 0 1.14.46 1.14 1.13 0 .64-.38 1.37-1.05 2.1L.23-.1V0h3.15Zm0 0"/>
    <path id="G" d="M1.23-2.66c.47 0 .66.02.85.1.5.19.81.64.81 1.19 0 .68-.45 1.2-1.05 1.2-.23 0-.39-.06-.68-.25q-.34-.2-.5-.2-.31 0-.32.28c0 .28.35.45.91.45.6 0 1.25-.2 1.64-.53q.58-.51.58-1.35c0-.4-.14-.78-.36-1.03a2 2 0 0 0-.67-.42c.54-.37.75-.67.75-1.1 0-.66-.5-1.1-1.25-1.1q-.6 0-1.05.39c-.23.22-.36.42-.53.9l.12.04q.46-.88 1.2-.86c.52 0 .87.34.87.86q0 .46-.32.78c-.25.25-.46.36-1.01.56Zm0 0"/>
    <clipPath id="p">
      <path d="M199 326h6v5.8h-6Zm0 0"/>
    </clipPath>
    <clipPath id="r">
      <path d="M204 331h1v.8h-1Zm0 0"/>
    </clipPath>
    <clipPath id="t">
      <path d="M135 274h1v.98h-1Zm0 0"/>
    </clipPath>
    <clipPath id="u">
      <path d="M242 258h9v8.35h-9Zm0 0"/>
    </clipPath>
    <clipPath id="w">
      <path d="M249 266h1v.35h-1Zm0 0"/>
    </clipPath>
    <clipPath id="x">
      <path d="M199 326h6v5.8h-6Zm0 0"/>
    </clipPath>
    <clipPath id="y">
      <path d="M204 331h1v.8h-1Zm0 0"/>
    </clipPath>
    <clipPath id="A">
      <path d="M174 222h9v8.6h-9Zm0 0"/>
    </clipPath>
    <clipPath id="C">
      <path d="M182 230h1v.6h-1Zm0 0"/>
    </clipPath>
  </defs>
  <path fill="#fff" fill-rule="evenodd" stroke="#000" stroke-linecap="round" stroke-linejoin="round" stroke-miterlimit="10" stroke-width="1.5" d="M34.45 137.89a18 18 0 0 1-18-18v-72a18 18 0 0 1 18-18h162a18 18 0 0 1 18 18v72a18 18 0 0 1-18 18Zm0 0" transform="matrix(.99798 0 0 -1.07317 77.32 636.87)"/>
  <path fill="none" stroke="#000" stroke-linecap="round" stroke-linejoin="round" stroke-miterlimit="10" stroke-width=".75" d="M16.45 110.89h198" transform="matrix(.99798 0 0 -1.07317 77.32 636.87)"/>
  <path fill="silver" fill-opacity=".59" fill-rule="evenodd" stroke="#000" stroke-linecap="round" stroke-linejoin="round" stroke-miterlimit="10" stroke-width=".75" d="m115.45 110.89-45-81h90Zm0 0" transform="matrix(.99798 0 0 -1.07317 77.32 636.87)"/>
  <path fill="#fff" fill-rule="evenodd" d="M84.76 507.4h215.56v-19.3H84.76Zm0 0"/>
  <use xlink:href="#cP" x="113.15" y="530.77"/>
  <use xlink:href="#a" x="116.15" y="530.77"/>
  <use xlink:href="#b" x="121.8" y="530.77"/>
  <use xlink:href="#c" x="127.79" y="530.77"/>
  <use xlink:href="#d" x="133.88" y="530.77"/>
  <use xlink:href="#cP" x="139.14" y="530.77"/>
  <use xlink:href="#cP" x="220.96" y="530.77"/>
  <use xlink:href="#e" x="223.96" y="530.77"/>
  <use xlink:href="#f" x="228.87" y="530.77"/>
  <use xlink:href="#g" x="234.84" y="530.77"/>
  <use xlink:href="#h" x="241.31" y="530.77"/>
  <use xlink:href="#i" x="247.76" y="530.77"/>
  <use xlink:href="#j" x="253.03" y="530.77"/>
  <use xlink:href="#g" x="259.02" y="530.77"/>
  <use xlink:href="#k" x="265.37" y="530.77"/>
  <use xlink:href="#cP" x="271.76" y="530.77"/>
  <use xlink:href="#cP" x="185.03" y="541.23"/>
  <use xlink:href="#cP" x="188.03" y="541.23"/>
  <use xlink:href="#l" x="191.02" y="541.23"/>
  <use xlink:href="#cP" x="195.93" y="541.23"/>
  <path fill="none" stroke="#000" stroke-linecap="round" stroke-linejoin="round" stroke-miterlimit="10" stroke-width=".75" d="M121.73 98.76c-4.78-1.04-9.26-.94-12.36.28" transform="matrix(.99798 0 0 -1.07317 77.32 636.87)"/>
  <use xlink:href="#cP" x="167.07" y="627.43"/>
  <use xlink:href="#m" x="170.06" y="627.43"/>
  <use xlink:href="#g" x="179.52" y="627.43"/>
  <use xlink:href="#e" x="185.98" y="627.43"/>
  <use xlink:href="#n" x="190.89" y="627.43"/>
  <use xlink:href="#de" x="193.88" y="627.43"/>
  <use xlink:href="#o" x="196.89" y="627.43"/>
  <use xlink:href="#cP" x="202.88" y="627.43"/>
  <path fill="#fff" fill-rule="evenodd" stroke="#000" stroke-linecap="round" stroke-miterlimit="10" stroke-width=".75" d="M114.97 207.2h51.24v-17.18h-51.24Zm92.34 0h51.24v-17.18h-51.24Zm-92.34 52.9h51.24v-17.24h-51.24Zm0 0"/>
  <path fill="none" stroke="#000" stroke-linecap="round" stroke-linejoin="round" stroke-miterlimit="10" stroke-width=".75" d="M85.4 198.61h29.57m51.24 0h41.1m51.24 0h29.57M85.4 250.8h29.57m51.24 0h121.91M85.4 198.61v137.5m202.72-137.5v137.5"/>
  <path fill="none" stroke="#000" stroke-linejoin="round" stroke-miterlimit="10" stroke-width="1.25" d="M236.88 237.62v25.77m-8.64-25.77v25.77"/>
  <path fill="#fff" fill-rule="evenodd" stroke="#fff" stroke-linecap="round" stroke-miterlimit="8" stroke-width=".75" d="M228.94 263.4h6.9v-25.78h-6.9Zm0 0"/>
  <g clip-path="url(#p)">
    <use xlink:href="#q" x="199.38" y="331.43"/>
  </g>
  <g clip-path="url(#r)">
    <use xlink:href="#bh" x="204.06" y="331.43"/>
  </g>
  <path fill="none" stroke="#000" stroke-linecap="round" stroke-linejoin="round" stroke-miterlimit="8" stroke-width=".75" d="M187.84 198.61v52.2"/>
  <use xlink:href="#s" x="184.97" y="206.74"/>
  <use xlink:href="#s" x="184.97" y="259.03"/>
  <use xlink:href="#s" x="184.97" y="240.46"/>
  <use xlink:href="#s" x="184.97" y="225.92"/>
  <path fill="none" stroke="#000" stroke-linecap="round" stroke-linejoin="round" stroke-miterlimit="8" stroke-width=".75" d="M85.4 336.1h202.72"/>
  <g clip-path="url(#t)">
    <use xlink:href="#bh" x="135.94" y="274.62"/>
  </g>
  <use xlink:href="#bh" x="137.38" y="221.73"/>
  <use xlink:href="#bh" x="227.55" y="221.73"/>
  <g clip-path="url(#u)">
    <use xlink:href="#v" x="241.93" y="266.11"/>
  </g>
  <g clip-path="url(#w)">
    <use xlink:href="#bh" x="249.96" y="266.11"/>
  </g>
  <g clip-path="url(#x)">
    <use xlink:href="#q" x="199.38" y="331.43"/>
  </g>
  <g clip-path="url(#y)">
    <use xlink:href="#bh" x="204.06" y="331.43"/>
  </g>
  <path fill="none" stroke="#000" stroke-linecap="round" stroke-linejoin="round" stroke-miterlimit="8" stroke-width=".75" d="M85.4 336.1h202.72"/>
  <use xlink:href="#z" x="166.99" y="331.43"/>
  <use xlink:href="#bc" x="174.42" y="331.43"/>
  <g clip-path="url(#A)">
    <use xlink:href="#B" x="174.18" y="230.36"/>
  </g>
  <g clip-path="url(#C)">
    <use xlink:href="#bh" x="182.21" y="230.36"/>
  </g>
  <use xlink:href="#D" x="137.38" y="256.04"/>
  <use xlink:href="#E" x="144.69" y="257.6"/>
  <use xlink:href="#ad" x="148.65" y="256.04"/>
  <use xlink:href="#D" x="137.38" y="202.79"/>
  <use xlink:href="#F" x="144.69" y="204.35"/>
  <use xlink:href="#du" x="148.65" y="204.35"/>
  <use xlink:href="#D" x="228.99" y="203.15"/>
  <use xlink:href="#G" x="236.3" y="204.71"/>
  <use xlink:href="#ad" x="240.26" y="203.15"/>
  <path fill="none" stroke="#000" stroke-linecap="round" stroke-linejoin="round" stroke-miterlimit="8" stroke-width=".75" d="m183.24 323.52.7 25.12"/>
  <path fill="none" stroke="#000" stroke-linejoin="round" stroke-miterlimit="8" stroke-width="1.5" d="M189.29 329.16v12.59"/>
  <path fill="none" stroke="#fff" stroke-linejoin="round" stroke-miterlimit="8" stroke-width="4" d="M186.24 329.16v12.59"/>
</svg>
