<svg xmlns="http://www.w3.org/2000/svg" xmlns:xlink="http://www.w3.org/1999/xlink" width="595.32" height="841.92" viewBox="0 0 595.32 841.92">
  <defs>
    <path id="a" d="M1.92-3.17q-.66.3-1.54.64l-.15-.49q.94-.3 1.82-.73l.36-1.66q.32-1.48.92-2.2t1.42-.73q.39 0 .64.17.26.15.38.44.1.28.1.62 0 .55-.25 1.14-.25.6-.87 1.19-.6.58-1.78 1.19l-.38 1.7q-.12.58-.12.86 0 .24.08.34.07.12.25.11.15 0 .3-.08t.3-.21l.32-.35.36-.5.4.31q-.4.57-.7.86t-.64.47-.72.17q-.45 0-.69-.26A1 1 0 0 1 1.5-.9q0-.45.16-1.14Zm1.17-.99q.97-.6 1.49-1.4.53-.81.53-1.7 0-.3-.11-.46a.4.4 0 0 0-.33-.17.7.7 0 0 0-.5.23 2 2 0 0 0-.39.68q-.18.45-.33 1.2Zm0 0"/>
    <path id="h" d="M4.02 0q.13.43.25.7.12.29.23.46.1.17.2.25.11.1.22.1.11.04.25.04a1 1 0 0 0 .44-.13q.24-.12.51-.44l.32.33q-.47.5-.88.7-.4.22-.83.22-.48 0-.8-.21-.3-.2-.54-.7A7 7 0 0 1 2.97.1a2.2 2.2 0 0 1-1.63-.7A2.8 2.8 0 0 1 .8-2.44a8 8 0 0 1 1.14-3.93q.56-.86 1.34-1.29a3.4 3.4 0 0 1 1.69-.43q1.13 0 1.73.65.63.67.63 1.9 0 .82-.27 1.84-.25 1.01-.7 1.8-.45.76-1.05 1.24T4.01 0m2.2-5.78q0-.87-.33-1.33-.32-.47-.98-.47-.64 0-1.2.46-.54.45-.96 1.3a8.5 8.5 0 0 0-.86 3.59q0 1.8 1.33 1.8.8 0 1.48-.74.69-.76 1.1-2.11t.42-2.5m0 0"/>
    <path id="i" d="M4.02-1.36q-.5.7-1.04 1.08-.51.37-1.01.37-.64 0-1-.48A2.3 2.3 0 0 1 .6-1.77q0-.99.39-1.92a3.6 3.6 0 0 1 1.1-1.47 2.5 2.5 0 0 1 2.23-.45q.32.08.69.3l.53-.4.37.1-1.5 6.67q-.1.44-.1.66 0 .26.13.37.15.1.52.14l-.05.29H3.1l1.02-3.85Zm.48-2.2q.08-.42.08-.8 0-.46-.19-.67-.18-.2-.64-.2-.6 0-1.08.48-.46.48-.75 1.31a5 5 0 0 0-.26 1.63q0 .6.15.9.17.3.56.3.19 0 .38-.08t.4-.25q.19-.17.38-.42a7 7 0 0 0 .67-1.1q.14-.37.24-.85Zm0 0"/>
    <path id="c" d="M5.2-1.31v.01q0 .55.11.74.12.16.6.28V0H3.45v-.28q.4-.1.53-.25.15-.15.15-.77v-.01q-1.8-.05-2.66-.74Q.6-2.72.6-4.15q0-1.34.89-2.12a4.3 4.3 0 0 1 2.63-.84q0-.5-.13-.67t-.55-.27v-.28H5.9v.28q-.42.1-.56.25-.13.15-.13.67 3.52.1 3.52 2.79 0 1.4-.9 2.17-.88.77-2.62.86m0-5.31v4.8q2.36-.1 2.36-2.41 0-1.2-.56-1.79-.56-.57-1.8-.6m-1.08.01q-2.35.09-2.35 2.4 0 1.2.54 1.79.56.58 1.82.6Zm0 0"/>
    <path id="d" d="M4.22 0v-.28q.36-.09.48-.27.13-.18.13-.75v-2.48L2.25-1.11q0 .4.13.56.12.16.48.27V0H.63v-.28q.36-.1.5-.3.12-.2.12-.72v-3q0-.53-.14-.72-.13-.2-.49-.28v-.3h2.24v.3q-.35.08-.5.26-.13.19-.13.74v2.43l2.58-2.67q0-.67-.6-.76v-.3h2.23v.3q-.36.08-.5.26-.13.19-.13.74v3.01q0 .54.13.72.14.2.5.3V0Zm0 0"/>
    <path id="e" d="M4.47-3.98q-.2-.61-.42-.88-.22-.26-.67-.26H2.26v3.64q0 .7.14.9t.59.3V0H.63v-.28q.36-.1.5-.3.12-.2.12-.72v-3q0-.53-.14-.72-.13-.2-.49-.28v-.3h4.4v1.63Zm0 0"/>
    <path id="f" d="M1.83-1.36V0H.64v-1.36Zm0 0"/>
    <path id="g" d="M4.1-.94q.3 0 .48-.03.16-.04.28-.12l.17-.2.16-.43h.48L5.57 0H.76v-.28q.26-.6.69-1.25.42-.66 1.22-1.53.67-.75.96-1.14.33-.42.49-.72a2.4 2.4 0 0 0 .31-1.13q0-.45-.14-.78t-.44-.53a1.3 1.3 0 0 0-.71-.19q-1.14 0-1.5 1.22h-.7v-1.12a6 6 0 0 1 2.44-.64q1.07 0 1.64.48.56.46.56 1.38 0 .3-.06.57-.07.28-.2.52-.14.25-.37.55T4.47-4l-.92 1Q2.42-1.8 1.9-.94Zm0 0"/>
  </defs>
  <use xlink:href="#a" x="163.06" y="162.99"/>
  <use xlink:href="#aA" x="169.3" y="162.99"/>
  <use xlink:href="#c" x="119.4" y="215.25"/>
  <use xlink:href="#d" x="128.74" y="215.25"/>
  <use xlink:href="#e" x="135.81" y="215.25"/>
  <use xlink:href="#f" x="141.21" y="215.25"/>
  <use xlink:href="#bA" x="143.71" y="215.25"/>
  <use xlink:href="#g" x="146.35" y="215.25"/>
  <use xlink:href="#aA" x="152.97" y="215.25"/>
  <use xlink:href="#h" x="166.18" y="196.08"/>
  <use xlink:href="#aA" x="174.69" y="196.08"/>
  <use xlink:href="#i" x="167.5" y="129.55"/>
  <use xlink:href="#aA" x="174.33" y="129.55"/>
  <use xlink:href="#i" x="94.12" y="195.72"/>
  <use xlink:href="#b" x="100.94" y="195.72"/>
  <use xlink:href="#h" x="92.44" y="129.07"/>
  <use xlink:href="#aA" x="100.94" y="129.07"/>
  <path fill="none" stroke="#000" stroke-linejoin="round" stroke-miterlimit="10" stroke-width=".75" d="m106.33 132.54 53.69-.45m-53.34 54.79 53.19.25m-.4-55.09.35 55.09m-52.84-55.34.35 55.09"/>
  <path fill="#fff" fill-rule="evenodd" stroke="#000" stroke-linecap="round" stroke-linejoin="round" stroke-miterlimit="10" stroke-width="1.5" d="M106.95 127.3c-2.47 0-4.47 2.13-4.47 4.76 0 2.64 2 4.78 4.47 4.78 2.48 0 4.47-2.14 4.47-4.78 0-2.63-2-4.76-4.47-4.76m52.62-.25c-2.46 0-4.45 2.12-4.45 4.74s1.99 4.75 4.45 4.75 4.44-2.13 4.44-4.75-1.99-4.74-4.44-4.74m-52.94 54.93c-2.46 0-4.45 2.13-4.45 4.75 0 2.61 2 4.74 4.45 4.74s4.44-2.13 4.44-4.74-1.98-4.75-4.44-4.75m52.94.1c-2.46 0-4.45 2.13-4.45 4.75s1.99 4.74 4.45 4.74 4.44-2.12 4.44-4.74-1.99-4.75-4.44-4.75m0 0"/>
  <path fill="none" stroke="#000" stroke-linejoin="round" stroke-miterlimit="10" stroke-width=".75" d="m156.42 183.48-46.3-48.04"/>
</svg>
