<svg xmlns="http://www.w3.org/2000/svg" xmlns:xlink="http://www.w3.org/1999/xlink" width="595.32" height="841.92" viewBox="0 0 595.32 841.92">
  <defs>
    <path id="d" d="M1.83-3.95c.72 0 .98.01 1.26.12.75.28 1.2.96 1.2 1.78 0 1.02-.66 1.78-1.54 1.78-.34 0-.58-.07-1.03-.37-.34-.2-.55-.3-.75-.3-.28 0-.45.17-.45.42 0 .43.51.7 1.36.7.9 0 1.85-.32 2.42-.82.56-.48.87-1.19.87-1.98 0-.63-.2-1.18-.53-1.55-.25-.27-.48-.4-1-.64.81-.57 1.11-1 1.11-1.64 0-.99-.75-1.64-1.86-1.64q-.9 0-1.56.57c-.36.35-.53.64-.78 1.36l.17.05C1.2-7 1.73-7.37 2.5-7.37c.78 0 1.31.51 1.31 1.28 0 .42-.19.84-.48 1.15-.36.36-.69.55-1.5.83Zm0 0"/>
    <path id="c" d="m5.69-1.64-.16-.06c-.44.7-.56.78-1.14.8H1.53l2.02-2.12C4.6-4.14 5.08-5.05 5.08-5.98c0-1.2-.97-2.11-2.22-2.11a2.3 2.3 0 0 0-1.72.73c-.39.4-.56.8-.76 1.64l.25.06c.48-1.17.89-1.56 1.73-1.56 1.02 0 1.69.69 1.69 1.69 0 .95-.55 2.06-1.55 3.12L.36-.14V0h4.67Zm0 0"/>
    <path id="g" d="M3.05-8.1c-.66 0-1.17.2-1.61.62C.75-6.81.28-5.42.28-4.03c0 1.33.4 2.72.97 3.39q.68.8 1.75.81.91 0 1.55-.62c.7-.66 1.15-2.05 1.15-3.5 0-2.46-1.1-4.14-2.65-4.14m-.03.3c1 0 1.53 1.36 1.53 3.86Q4.55-.15 3-.14 1.45-.16 1.44-3.92c0-2.55.54-3.88 1.58-3.88m0 0"/>
    <path id="a" d="M1.42 0h3.3v-.19c-.92 0-1.13-.12-1.14-.7v-7.19l-.1-.01-2.15 1.07v.18q.7-.27.86-.27.37 0 .36.56v5.44c-.02.75-.22.92-1.13.92Zm0 0"/>
    <path id="i" d="M2.92-1.97c.14-.81.35-1.3.78-1.84.55-.67.55-.67.72-.92.4-.6.55-1.02.55-1.52 0-.45-.16-.87-.44-1.16-.4-.42-1.1-.68-1.78-.68-1.1 0-1.94.73-1.94 1.73q0 .74.58.74c.3 0 .49-.2.49-.49 0-.17-.07-.31-.25-.51-.16-.18-.2-.27-.2-.38 0-.37.55-.73 1.12-.73.73 0 1.3.62 1.3 1.43 0 .55-.15 1.2-.43 1.86l-.34.77q-.34.9-.36 1.7Zm-.08.81a.64.64 0 0 0-.64.66c0 .34.27.6.64.6.38 0 .66-.26.66-.62 0-.35-.3-.64-.66-.64m0 0"/>
    <path id="e" d="M5.58-1.4c-.66.8-.8.95-.99.95-.1 0-.2-.1-.2-.22 0-.13.2-.88.4-1.5.35-1.11.59-2.02.59-2.31 0-.49-.33-.8-.8-.8-.78 0-1.63.78-2.75 2.53l1.44-5.37-.05-.07c-.72.17-1.19.24-1.9.33v.19l.32-.02c.28 0 .5.13.5.32 0 .15-.06.45-.17.8-.02 0-.06.18-.13.43L.24 0h.89c.48-1.84.64-2.25 1.1-2.98.63-.96 1.44-1.7 1.86-1.7.2 0 .35.15.35.3q-.01.09-.1.4L3.7-1.5q-.24.89-.24 1.1.02.49.53.5c.61 0 1.04-.32 1.75-1.37Zm0 0"/>
    <path id="f" d="M1.56-7.64c.75.08.92.17.92.5 0 .17-.04.47-.14.76L.88-1.08c-.22.69-.3.77-.97.9V0h3.03c1.4 0 2.69-.37 3.6-1.05A4.4 4.4 0 0 0 8.4-4.6c0-1.95-1.37-3.22-3.5-3.22H1.56Zm2.19.51c.08-.25.25-.34.73-.34.7 0 1.29.16 1.66.45.6.41.92 1.18.92 2.11 0 1.33-.5 2.66-1.33 3.47A4 4 0 0 1 2.81-.36c-.54 0-.78-.12-.78-.44 0-.15.06-.4.27-1.14Zm0 0"/>
    <path id="h" d="M2.2-4.6q-.52 0-.9-.21a2 2 0 0 1-.6-.63q-.2-.4-.2-.92 0-.48.22-.89.21-.4.62-.62a1.9 1.9 0 0 1 1.82.01q.4.23.62.63.22.38.22.89 0 .5-.23.9-.25.39-.64.63a2 2 0 0 1-.93.22m.03-2.92q-.32 0-.59.16-.25.15-.39.4-.15.28-.14.62 0 .35.14.6.14.28.4.43t.58.14.6-.14q.26-.15.4-.42t.15-.61-.15-.61a1 1 0 0 0-.4-.4q-.25-.17-.6-.17m0 0"/>
  </defs>
  <path fill="none" stroke="#000" stroke-linecap="round" stroke-miterlimit="10" stroke-width="1.5" d="M307.15 343.6h5.74V160.4h-5.74Zm68.41-171.06L312.9 344.68l5.45 1.98L381 174.5Zm0 0"/>
  <path fill="none" stroke="#000" stroke-linecap="round" stroke-miterlimit="10" stroke-width="1.5" d="M435.67 206.6 317.92 346.92l4.44 3.72 117.76-140.33Zm0 0"/>
  <path d="m313.78 157.51 5.4.06.62.02-.05 1.5-.6-.02-5.38-.06Zm10.5.26.28.01 5.35.4.4.03-.15 1.49-.35-.04-5.31-.38-.27-.01Zm10.5.9.46.05 5.28.7.25.04-.24 1.48-.2-.04-5.24-.7-.45-.04Zm10.43 1.52.56.09 5.21 1.02.16.03-.33 1.46-.11-.02-5.16-1.01-.58-.1Zm10.31 2.13.62.14 5.12 1.34.1.03-.41 1.44-.07-.02-5.07-1.32-.63-.14Zm10.16 2.77.63.18 5 1.64.12.04-.5 1.4-.08-.02-4.96-1.62-.63-.18Zm9.98 3.38.59.21 4.88 1.92.16.06-.6 1.38-.1-.04-4.85-1.9-.59-.22Zm9.76 3.96.52.23 4.74 2.21.21.11-.68 1.34-.17-.09-4.69-2.19-.53-.23Zm9.49 4.57.44.22 4.6 2.49.27.16-.76 1.3-.23-.15-4.55-2.46-.44-.22Zm9.2 5.13.34.2 4.42 2.75.36.24-.83 1.25-.32-.21-4.38-2.74-.35-.2Zm8.86 5.69.25.16 4.24 3.02.42.32-.9 1.2-.37-.3-4.22-3-.25-.15Zm8.5 6.22.15.12 4.05 3.27.48.41-.97 1.14-.45-.37-4.01-3.26-.16-.12Zm8.09 6.73.08.07 3.84 3.54.52.5-1.04 1.07-.48-.47-3.82-3.51-.07-.06Zm7.66 7.24.02.01 3.63 3.78.52.58-1.11 1-.5-.54-3.59-3.75h-.02Zm7.2 7.72 3.38 3.98.5.63-1.18.93-.47-.59-3.38-3.98Zm6.69 8.15 3.13 4.2.44.63-1.23.86-.42-.6-3.12-4.2Zm6.14 8.53.02.02 3.12 4.84.13.21-1.29.77-.1-.17-3.1-4.8-.01-.03Zm5.58 8.93.51.84 2.43 4.41-1.3.73-2.42-4.37-.5-.84Zm5 9.27.83 1.62 1.77 3.8-1.36.64-1.74-3.76-.82-1.62Zm4.41 9.57 1 2.36 1.24 3.23-1.4.54-1.23-3.18-.99-2.36Zm3.78 9.84 1.03 3.05.82 2.68-1.42.43-.8-2.62-1.05-3.05Zm3.11 10.07 1 3.7.5 2.14-1.48.32-.48-2.08-.99-3.7Zm2.47 10.24.84 4.3.25 1.62-1.48.23-.25-1.55-.84-4.31Zm1.79 10.39.6 4.86.1 1.11-1.5.14-.08-1.06-.61-4.86Zm1.1 10.48.3 5.4v.6l-1.5.04v-.54l-.29-5.43Zm.4 10.5v.43l-.06 5.53-.01.09-1.5-.07v-.04l.08-5.48-.01-.43Zm-.3 10.53-.04.95-.41 5.05-1.5-.12.42-5 .04-.95Zm-.96 10.5-.18 1.47-.68 4.48-1.49-.23.68-4.43.18-1.47Zm-1.67 10.4-.38 2.01-.87 3.88-1.47-.33.87-3.82.38-2.01Zm-2.35 10.28-.67 2.57-.96 3.22-1.43-.43.95-3.17.66-2.57Zm-3 10.1-1.07 3.16-.94 2.5-1.4-.52.92-2.45 1.07-3.18Zm-3.65 9.88-1.59 3.79-.79 1.74-1.37-.63.78-1.68 1.58-3.8Zm-4.3 9.63-.79 1.53-1.32-.68.78-1.54Zm3.43 2.64-9.07 6.5.24-11.16Zm0 0"/>
  <use xlink:href="#a" x="308.24" y="156.64"/>
  <use xlink:href="#b" x="314.23" y="156.64"/>
  <use xlink:href="#c" x="382.94" y="168.27"/>
  <use xlink:href="#b" x="388.94" y="168.27"/>
  <use xlink:href="#d" x="439.76" y="206.86"/>
  <use xlink:href="#b" x="445.75" y="206.86"/>
  <use xlink:href="#e" x="296.13" y="187.33"/>
  <use xlink:href="#N" x="302.12" y="187.33"/>
  <use xlink:href="#f" x="460.73" y="317.77"/>
  <use xlink:href="#N" x="469.36" y="317.77"/>
  <use xlink:href="#c" x="335.57" y="206.27"/>
  <use xlink:href="#g" x="341.56" y="206.27"/>
  <use xlink:href="#h" x="347.55" y="206.27"/>
  <use xlink:href="#b" x="352.11" y="206.27"/>
  <use xlink:href="#i" x="326.58" y="242.01"/>
  <use xlink:href="#b" x="332.09" y="242.01"/>
  <path d="m293.6 193.37 11.9-.26.01 1-11.88.26Zm6.08-3.56 6.8 3.78-6.63 4.07a.5.5 0 0 1-.69-.16.5.5 0 0 1 .17-.68l5.91-3.63.02.86-6.07-3.37a.5.5 0 0 1-.19-.68.5.5 0 0 1 .68-.19m25.45 4.26h-9.04v-1h9.04Zm-3.3 3.43-6.73-3.93 6.73-3.93a.5.5 0 0 1 .68.18.5.5 0 0 1-.18.68l-5.99 3.5v-.86l6 3.5a.5.5 0 0 1 .17.68.5.5 0 0 1-.68.18m0 0"/>
  <path fill="none" stroke="#000" stroke-linejoin="round" stroke-miterlimit="10" d="M313.2 207.74c16.28-.44 32.21 3.05 44.41 9.71"/>
  <path d="M235.23 304.5h39.16v1h-39.16Zm38.16-2.5 6 3-6 2.99Zm0 0"/>
  <path fill="none" stroke="#000" stroke-linejoin="round" stroke-miterlimit="10" d="M251.01 305h77.11"/>
  <path d="M458.68 319.73h37.1v1h-37.1Zm36.1-2.5 6 3-6 3Zm0 0"/>
  <path fill="none" stroke="#000" stroke-dasharray="7.99088 2.99658" stroke-linejoin="round" stroke-miterlimit="10" d="M334.07 305h163.31m-79.71 15.23h41.06"/>
  <path d="M464.47 338.5v-15.73h1v15.73Zm-3.43-9.98 3.93-6.73 3.92 6.73a.5.5 0 0 1-.18.68.5.5 0 0 1-.67-.18l-3.5-6h.86l-3.5 6a.5.5 0 0 1-.68.18.5.5 0 0 1-.18-.68m0 0"/>
  <path fill="none" stroke="#000" stroke-linejoin="round" stroke-miterlimit="10" d="m327.87 305-13.78-9.8m0 0 25.62-27.16"/>
  <path d="m339.6 268.36-6.44-18.27.94-.34 6.43 18.27Zm-8.47-16.5.84-6.65 4.82 4.66Zm134.34 37.4v13.63h-1v-13.63Zm3.42 7.9-3.92 6.72-3.93-6.73a.5.5 0 0 1 .18-.68.5.5 0 0 1 .68.18l3.5 6h-.86l3.5-6a.5.5 0 0 1 .67-.18.5.5 0 0 1 .18.68m0 0"/>
</svg>
