<svg xmlns="http://www.w3.org/2000/svg" xmlns:xlink="http://www.w3.org/1999/xlink" width="612" height="792" viewBox="0 0 612 792">
  <defs>
    <path id="a" d="M3.1-7.95h4.1v.22q-.67 0-.86.18-.18.16-.23.72 1.35 0 2.05.31.69.33 1.2.94.52.63.52 1.53 0 1.13-.85 1.99-.83.86-2.92.86 0 .42.1.6a.6.6 0 0 0 .29.27q.2.1.7.11V0H3.1v-.22q.73 0 .92-.22.18-.22.18-.76a5 5 0 0 1-2.17-.38Q1.25-1.97.84-2.6a2.65 2.65 0 0 1 .1-2.97q.5-.7 1.25-.97.76-.27 2.01-.28 0-.52-.22-.7-.2-.2-.89-.2Zm3 6.3q.6 0 .96-.16.38-.2.63-.75.25-.57.25-1.55 0-.8-.24-1.34-.22-.55-.58-.74t-1.01-.2ZM4.2-6.38a2 2 0 0 0-1.1.28q-.34.25-.54.78-.19.54-.19 1.36 0 .96.24 1.45.24.5.62.7.4.18.97.18Zm0 0"/>
    <path id="e" d="M1.5-1.81q.4 0 .69.3.3.27.3.68t-.3.69a1 1 0 0 1-.69.28q-.4 0-.69-.28a1 1 0 0 1-.28-.69q0-.4.28-.69.28-.3.69-.3m0 0"/>
    <path id="f" d="M4.97 0H.3v-.12a26 26 0 0 0 2.6-3.44q.45-.9.46-1.74 0-.61-.38-1.03-.37-.4-.93-.4-.9 0-1.4.9l-.2-.07q.3-1.12.95-1.65A2.3 2.3 0 0 1 4-7.83q.5.29.78.78.27.5.28.9 0 .8-.44 1.59a15 15 0 0 1-2.58 3.03h1.72q.62 0 .81-.05t.32-.19q.12-.11.32-.53h.22Zm0 0"/>
    <path id="d" d="M.42-.22Q.76-.23.9-.39q.15-.15.14-.63V-4.5q0-.4-.12-.56-.13-.17-.49-.2v-.22h4.81v1.43h-.21q-.13-.66-.36-.86-.24-.2-.91-.2H2.67v4.13q0 .42.13.59.15.15.56.17V0H.42Zm0 0"/>
    <path id="c" d="M3.7 0v-.22q.53 0 .53-.78v-2.69L2.67-1q0 .77.53.78V0H.4v-.22q.35 0 .5-.19.13-.18.13-.65v-3.38q0-.83-.62-.83v-.21h2.8v.21q-.33.02-.43.2-.1.15-.1.63v2.67l1.55-2.71q0-.45-.12-.61-.13-.18-.4-.18v-.21H6.5v.21q-.32.02-.47.18-.15.14-.16.57v3.49q0 .48.15.66.13.15.48.15V0Zm0 0"/>
    <path id="u" d="M3.42-.78q-.83.65-1.04.75-.33.15-.68.14-.54 0-.92-.38a1.4 1.4 0 0 1-.36-1q0-.4.19-.68.24-.38.83-.74.6-.36 1.98-.87v-.2q0-.82-.26-1.12t-.74-.3a1 1 0 0 0-.6.21.6.6 0 0 0-.21.45l.01.35a.6.6 0 0 1-.14.42q-.14.15-.35.14a.5.5 0 0 1-.36-.16.6.6 0 0 1-.13-.4q0-.52.52-.94a2.2 2.2 0 0 1 1.43-.42q.72 0 1.18.25.34.17.51.56.1.25.11 1.03v1.83q0 .76.02.94t.09.23.17.05.16-.03q.12-.08.47-.44v.33q-.66.9-1.25.89a.6.6 0 0 1-.46-.2q-.17-.2-.17-.7m0-.38V-3.2q-.9.36-1.14.5-.47.27-.67.54-.2.3-.2.61 0 .43.25.7a.8.8 0 0 0 .59.29q.44 0 1.17-.6m0 0"/>
    <path id="A" d="M1.28-3.34q-.02 1.18.58 1.87.57.67 1.37.67.53 0 .93-.28.38-.3.65-1l.17.13a3 3 0 0 1-.71 1.47q-.6.65-1.47.65-.97 0-1.66-.75A3 3 0 0 1 .45-2.6q0-1.37.7-2.14a2.3 2.3 0 0 1 1.77-.78 2 2 0 0 1 1.49.6q.57.6.57 1.59Zm0-.35h2.49a2 2 0 0 0-.13-.72q-.15-.32-.44-.51-.3-.2-.6-.19-.5 0-.88.38T1.28-3.7m0 0"/>
    <path id="x" d="M.3-5.37h4.64l.23 1.45h-.26a2 2 0 0 0-.25-.67 1 1 0 0 0-.38-.32 2 2 0 0 0-.7-.07H3.1v3.71q0 .62.06.77.07.15.24.22.16.04.76.06V0H1.25v-.22q.56-.01.72-.17.17-.16.17-.88v-3.71h-.48q-.5 0-.7.06a1 1 0 0 0-.35.3q-.15.21-.28.7H.08Zm0 0"/>
    <path id="q" d="m2.05-1.66 2.33-2.68q-.03-.45-.18-.61-.16-.2-.54-.2v-.22h2.5v.23q-.4 0-.54.08a1 1 0 0 0-.21.2q-.07.1-.07.75v2.84q0 .63.07.75.05.12.2.2.14.1.55.1V0h-2.6v-.22q.48 0 .64-.17t.17-.88v-2.51L2.06-1.1q0 .5.14.68.15.2.56.2V0H.27v-.22q.52 0 .67-.19.15-.18.14-.86V-4.1q0-.62-.06-.73a.5.5 0 0 0-.2-.2q-.14-.1-.55-.1v-.24h2.59v.24q-.4 0-.53.08a1 1 0 0 0-.2.2q-.08.1-.08.75Zm0 0"/>
    <path id="t" d="M5.77 0h-1.6q-.73-1.08-1.33-2.2-.14-.26-.26-.38a.4.4 0 0 0-.3-.12h-.23v1.43q0 .6.06.75.07.17.25.24t.6.06V0H.25v-.22q.55 0 .7-.18t.14-.86V-4.1q0-.62-.06-.73a.5.5 0 0 0-.2-.2q-.14-.1-.55-.1v-.24h2.68v.24q-.48 0-.6.08l-.2.17q-.1.09-.1.78v1.06h.18q.36 0 .68-.2.31-.2.56-.86.21-.6.36-.83.15-.21.42-.36.29-.14.56-.14.34 0 .52.16.18.15.19.4 0 .2-.14.35A.5.5 0 0 1 5-4.4q-.13 0-.33-.06-.23-.1-.37-.1-.27 0-.44.47-.2.54-.3.69-.09.16-.36.4.2.06.4.27t.8 1.24q.46.83.7 1.04.22.2.67.22Zm0 0"/>
    <path id="z" d="M.92-5.37h4.8v.23q-.4 0-.53.08a1 1 0 0 0-.2.2q-.08.1-.08.75v2.84q0 .63.06.75.08.12.2.2.15.1.55.1V0H2.95v-.22q.45 0 .63-.05.17-.04.26-.21.1-.2.1-.79v-3.71H2.16v2.26q0 1.28-.13 1.8-.11.52-.45.76Q1.25.1.83.1.08.1.08-.53q0-.2.1-.34a.4.4 0 0 1 .32-.15q.2 0 .4.18.21.23.33.23.27 0 .38-.44.12-.45.12-1.56V-3.8q0-.9-.14-1.1-.12-.21-.67-.24Zm0 0"/>
    <path id="B" d="M2.05-2.97h2.33V-4.1q0-.51-.05-.66a.4.4 0 0 0-.2-.26q-.17-.1-.57-.11v-.24h2.6v.24q-.37 0-.54.08a.4.4 0 0 0-.23.23q-.05.16-.05.72v2.84q0 .52.04.7.04.15.21.26.17.1.57.1V0h-2.6v-.22q.48 0 .64-.17t.17-.88v-1.32H2.06v1.32q0 .52.04.7.05.15.22.26.18.1.55.1V0H.26v-.22Q.8-.22.95-.4t.14-.86V-4.1q0-.52-.05-.67a.4.4 0 0 0-.2-.27q-.18-.1-.56-.1v-.22h2.59v.23q-.36 0-.53.08a.4.4 0 0 0-.22.23q-.06.16-.06.72Zm0 0"/>
    <path id="G" d="M3-5.53q1.21 0 1.95.94.63.78.63 1.8 0 .73-.35 1.46-.34.75-.95 1.13T2.94.17Q1.72.17 1.02-.8A3 3 0 0 1 .4-2.62q0-.76.36-1.47A2.5 2.5 0 0 1 3-5.53m-.19.39q-.3 0-.62.19a1.2 1.2 0 0 0-.5.64q-.2.46-.19 1.18 0 1.19.45 2.04.48.84 1.24.84.56 0 .94-.47t.37-1.6q0-1.45-.62-2.26a1.3 1.3 0 0 0-1.07-.56m0 0"/>
    <path id="v" d="M4.94-2.05A3 3 0 0 1 4.08-.4a2 2 0 0 1-1.4.58 2.1 2.1 0 0 1-1.6-.76A3 3 0 0 1 .4-2.67q0-1.27.75-2.06.76-.8 1.8-.8.8 0 1.3.42.52.42.52.88 0 .21-.14.36t-.4.14q-.35 0-.52-.24-.11-.1-.14-.45-.04-.36-.24-.53a.8.8 0 0 0-.56-.2q-.6 0-.95.45-.47.58-.47 1.51 0 .98.47 1.7.47.74 1.28.74.58 0 1.03-.4.3-.26.63-.98Zm0 0"/>
    <path id="I" d="M4.38-4.98H2.05v3.71q0 .63.06.75.08.12.2.2.15.1.55.1V0H.26v-.22Q.8-.22.95-.4t.14-.86V-4.1q0-.62-.06-.73a.5.5 0 0 0-.2-.2q-.14-.1-.55-.1v-.24h5.89v.24q-.4 0-.54.08a1 1 0 0 0-.21.2q-.07.1-.07.75v2.84q0 .63.07.75.05.12.2.2.14.1.55.1V0h-2.6v-.22q.48 0 .64-.17t.17-.88Zm0 0"/>
    <path id="p" d="M2.83 0v-.22q.55-.04.69-.28t.14-.98V-2.7q-.38 0-.5.1a3 3 0 0 0-.44.65L1.72 0H.14v-.22q.4-.03.61-.23.22-.2.58-.92.54-1.1.8-1.33a1 1 0 0 1 .54-.25q-.36-.16-.67-.97a2 2 0 0 0-.25-.49.3.3 0 0 0-.23-.12 1 1 0 0 0-.3.06q-.27.12-.42.11a.5.5 0 0 1-.38-.16.6.6 0 0 1-.12-.39q0-.25.2-.39t.48-.14q.48 0 .77.3.3.29.56 1.01.25.7.56.91.31.2.79.2v-.87q0-.75-.16-.97-.15-.24-.67-.28v-.24h2.64v.24q-.54.04-.69.28-.14.22-.14.97v.87q.45 0 .77-.2t.57-.9q.31-.9.66-1.11.35-.2.66-.2.34 0 .51.16.2.17.19.36 0 .24-.14.4-.13.15-.36.15-.16 0-.42-.1a1 1 0 0 0-.28-.07.3.3 0 0 0-.25.12q-.1.12-.24.49-.33.82-.68.97.3.01.56.26.24.25.78 1.3.35.74.56.94t.63.23V0H6.58l-1-1.95q-.3-.57-.44-.66-.13-.1-.5-.1v1.23q0 .84.17 1.03.17.18.66.23V0Zm0 0"/>
    <path id="s" d="M3.98-2.95v-1.16q0-.56-.06-.72a.4.4 0 0 0-.22-.23 1.4 1.4 0 0 0-.53-.08v-.24h2.6v.24q-.4 0-.54.08a1 1 0 0 0-.2.2q-.08.1-.08.75v2.84q0 .57.05.74.06.15.23.23.19.08.54.08V0H3.05v-.22q.46 0 .6-.06.15-.04.24-.22a2 2 0 0 0 .1-.77v-1.3q-.87.43-1.82.43-.53 0-.81-.13-.28-.12-.36-.3a2 2 0 0 1-.08-.56v-.98q0-.52-.05-.67a.4.4 0 0 0-.21-.27 1 1 0 0 0-.49-.1v-.22H2.7v.23q-.38 0-.53.08a1 1 0 0 0-.2.2q-.08.1-.08.75v.66q0 .38.05.53.06.12.26.22t.57.1q.63 0 1.21-.35m0 0"/>
    <path id="H" d="m3.84-1.4 1.68-3.97h1.8v.23q-.38 0-.52.08a1 1 0 0 0-.2.2q-.09.1-.08.75v2.84q0 .57.04.74.06.15.24.23t.53.08V0h-2.6v-.22q.49 0 .64-.17.18-.18.18-.88v-3.21L3.65 0h-.21L1.5-4.48v3.21q0 .57.06.74.06.15.24.23t.53.08V0H.27v-.22q.52 0 .67-.19.15-.18.14-.86V-4.1q0-.62-.06-.73a.5.5 0 0 0-.2-.2q-.14-.1-.55-.1v-.24h1.89Zm0 0"/>
    <path id="D" d="M.88-3.83q.66-1.7 2.28-1.7 1.1 0 1.82.84.72.85.72 1.92 0 1.12-.73 2.04-.72.9-1.94.9-1.26 0-1.92-1.04a4.7 4.7 0 0 1-.66-2.54 6.6 6.6 0 0 1 1.07-3.67q.37-.5.86-.72a5 5 0 0 1 1.75-.25q.89 0 1.07-.04.2-.05.36-.24h.24q-.2.57-.49.81-.26.26-.6.35a6 6 0 0 1-1.12.1q-.87.03-1.21.13-.33.12-.7.53a3 3 0 0 0-.57 1.1q-.19.67-.24 1.48m2.07-1.3q-.57 0-.95.49-.37.49-.37 1.53 0 1.4.5 2.14.5.72 1.15.72.6 0 .95-.5.36-.51.36-1.62a4 4 0 0 0-.45-1.97q-.45-.79-1.19-.79m0 0"/>
    <path id="y" d="M.3-5.37h3.5v.23q-.6 0-.72.06t-.22.17-.1.8v1.08h.52q.97 0 1.49.17.5.16.8.52.27.34.27.84 0 .67-.56 1.1-.55.4-1.83.4H.98v-.22q.48 0 .65-.17.16-.18.17-.88v-3.71q-.7 0-1 .2t-.47.87H.08ZM2.77-.46q.32.08.64.08.66 0 .98-.35a1.1 1.1 0 0 0-.03-1.58 1.4 1.4 0 0 0-.99-.34l-.6.03Zm0 0"/>
    <path id="o" d="M5.56-1.33c-.67.75-.78.85-.98.85q-.2-.01-.22-.24c0-.19.37-1.6.78-2.95.27-.95.52-1.85 1.19-4.47l-.06-.06c-.63.14-1.07.2-1.85.28v.2c.67.03.75.06.75.31 0 .18-.01.2-.19.85L4.47-4.6c-.1-.5-.31-.7-.78-.7-1.56 0-3.5 2.26-3.5 4.06C.19-.4.66.13 1.44.13c.81 0 1.34-.38 2.15-1.58-.12.6-.15.8-.15 1.06 0 .33.2.55.51.55.5 0 1.14-.5 1.75-1.38ZM3.73-5.02q.54.04.54.7c0 1.8-1.24 3.88-2.35 3.88-.42 0-.7-.31-.7-.8 0-.98.6-2.38 1.39-3.23.34-.34.78-.58 1.12-.55m0 0"/>
    <path id="n" d="M4.02-1.3q-.8.75-1.41 1.1-.6.34-1.14.34Q.84.14.45-.34a2 2 0 0 1-.37-1.32q0-1.23.53-2.95.52-1.71 1.3-3.17l1.48-.56.11-.02q.16 0 .27.25.1.26.1.67 0 1.2-.54 2.32-.55 1.1-1.72 2.39l-.05.82q0 .52.19.82t.5.3q.3 0 .67-.23.36-.23 1.1-.95ZM1.77-3.6q.75-.8 1.2-1.84.47-1.02.47-1.76a1 1 0 0 0-.06-.35q-.07-.14-.18-.14-.22 0-.64 1.08-.4 1.08-.8 3.02m0 0"/>
    <linearGradient id="h" x1="216.5" x2="216.5" y1="115.3" y2="92.35" gradientTransform="matrix(1 0 0 -1 0 792)" gradientUnits="userSpaceOnUse">
      <stop offset="0" stop-color="#767676"/>
      <stop offset=".5" stop-color="#fff"/>
      <stop offset="1" stop-color="#767676"/>
    </linearGradient>
    <linearGradient id="j" x1="319.42" x2="319.42" y1="115.3" y2="92.35" gradientTransform="matrix(1 0 0 -1 0 792)" gradientUnits="userSpaceOnUse">
      <stop offset="0" stop-color="#767676"/>
      <stop offset=".5" stop-color="#fff"/>
      <stop offset="1" stop-color="#767676"/>
    </linearGradient>
    <linearGradient id="m" x1="268.52" x2="268.52" y1="105.3" y2="100.75" gradientTransform="matrix(1 0 0 -1 0 792)" gradientUnits="userSpaceOnUse">
      <stop offset="0" stop-color="#767676"/>
      <stop offset=".5" stop-color="#fff"/>
      <stop offset="1" stop-color="#767676"/>
    </linearGradient>
    <clipPath id="g">
      <path d="M212.1 676.7h8.8v22.95h-8.8Zm0 0"/>
    </clipPath>
    <clipPath id="i">
      <path d="M315.05 676.7h8.75v22.95h-8.75Zm0 0"/>
    </clipPath>
    <clipPath id="k">
      <path d="M221.45 686.7h94.15v4.55h-94.15Zm0 0"/>
    </clipPath>
  </defs>
  <use xlink:href="#a" x="234.29" y="736.78"/>
  <use xlink:href="#c" x="244.6" y="736.78"/>
  <use xlink:href="#d" x="251.56" y="736.78"/>
  <use xlink:href="#e" x="256.96" y="736.78"/>
  <use xlink:href="#l" x="259.96" y="736.78"/>
  <use xlink:href="#f" x="262.96" y="736.78"/>
  <use xlink:href="#r" x="268.97" y="736.78"/>
  <path fill="#fff" fill-rule="evenodd" stroke="#000" stroke-linecap="round" stroke-miterlimit="10" stroke-width=".75" d="M212.1 699.65h111.7V676.7H212.1Zm0 0"/>
  <g clip-path="url(#g)">
    <path fill="url(#h)" d="M212.1 699.65V676.7h8.8v22.95Zm0 0"/>
  </g>
  <path fill="none" stroke="#000" stroke-linecap="round" stroke-miterlimit="10" stroke-width=".75" d="M212.1 699.65h8.8V676.7h-8.8Zm0 0"/>
  <g clip-path="url(#i)">
    <path fill="url(#j)" d="M315.05 699.65V676.7h8.75v22.95Zm0 0"/>
  </g>
  <path fill="none" stroke="#000" stroke-linecap="round" stroke-miterlimit="10" stroke-width=".75" d="M315.05 699.65h8.75V676.7h-8.75Zm0 0"/>
  <g clip-path="url(#k)">
    <path fill="url(#m)" d="M221.45 691.25v-4.55h94.15v4.55Zm0 0"/>
  </g>
  <path fill="none" stroke="#000" stroke-linecap="round" stroke-miterlimit="10" stroke-width=".25" d="M221.45 691.25h94.15v-4.55h-94.15Zm0 0"/>
  <path d="M222.9 706.2h90.15v1H222.9Zm5.75 4.43-6.74-3.93 6.74-3.93a.5.5 0 0 1 .68.18.5.5 0 0 1-.18.68l-6 3.5v-.86l6 3.5a.5.5 0 0 1 .18.68.5.5 0 0 1-.68.18m78.65-7.86 6.74 3.93-6.74 3.93a.5.5 0 0 1-.68-.18.5.5 0 0 1 .18-.68l6-3.5v.86l-6-3.5a.5.5 0 0 1-.18-.68.5.5 0 0 1 .68-.18m0 0"/>
  <use xlink:href="#n" x="257.21" y="718.42"/>
  <use xlink:href="#cd" x="261.05" y="718.42"/>
  <path d="M267.35 676.7v8.75h-1v-8.75Zm3.43 3-3.93 6.74-3.93-6.74a.5.5 0 0 1 .18-.68.5.5 0 0 1 .68.18l3.5 6h-.86l3.5-6a.5.5 0 0 1 .68-.18.5.5 0 0 1 .18.68m-3.43 12.4v8.75h-1v-8.75Zm-4.43 5.75 3.93-6.74 3.93 6.74a.5.5 0 1 1-.86.5l-3.5-6h.86l-3.5 6a.5.5 0 0 1-.68.18.5.5 0 0 1-.18-.68m0 0"/>
  <use xlink:href="#o" x="269.57" y="685.42"/>
  <use xlink:href="#be" x="275.57" y="685.42"/>
  <use xlink:href="#p" x="202.94" y="666.58"/>
  <use xlink:href="#q" x="211.23" y="666.58"/>
  <use xlink:href="#s" x="217.69" y="666.58"/>
  <use xlink:href="#t" x="223.69" y="666.58"/>
  <use xlink:href="#u" x="229.56" y="666.58"/>
  <use xlink:href="#b" x="234.89" y="666.58"/>
  <path fill="none" stroke="#000" stroke-linejoin="round" stroke-miterlimit="10" stroke-width=".25" d="m227 671.4 13.05 16.05"/>
  <use xlink:href="#v" x="283.49" y="661.42"/>
  <use xlink:href="#x" x="288.77" y="661.42"/>
  <use xlink:href="#y" x="294.01" y="661.42"/>
  <use xlink:href="#t" x="300.28" y="661.42"/>
  <use xlink:href="#z" x="306.15" y="661.42"/>
  <use xlink:href="#A" x="312.13" y="661.42"/>
  <use xlink:href="#B" x="317.43" y="661.42"/>
  <use xlink:href="#as" x="323.89" y="661.42"/>
  <use xlink:href="#D" x="326.89" y="661.42"/>
  <use xlink:href="#u" x="333" y="661.42"/>
  <use xlink:href="#z" x="338.29" y="661.42"/>
  <use xlink:href="#G" x="344.28" y="661.42"/>
  <use xlink:href="#B" x="350.28" y="661.42"/>
  <use xlink:href="#b" x="356.71" y="661.42"/>
  <path fill="none" stroke="#000" stroke-linejoin="round" stroke-miterlimit="10" stroke-width=".25" d="m308.55 668.55-13.95 8.15"/>
  <use xlink:href="#H" x="338.09" y="683.26"/>
  <use xlink:href="#A" x="345.65" y="683.26"/>
  <use xlink:href="#x" x="350.93" y="683.26"/>
  <use xlink:href="#u" x="356.17" y="683.26"/>
  <use xlink:href="#z" x="361.5" y="683.26"/>
  <use xlink:href="#B" x="367.49" y="683.26"/>
  <use xlink:href="#q" x="373.96" y="683.26"/>
  <use xlink:href="#as" x="380.43" y="683.26"/>
  <use xlink:href="#t" x="383.47" y="683.26"/>
  <use xlink:href="#u" x="389.34" y="683.26"/>
  <use xlink:href="#I" x="394.62" y="683.26"/>
  <use xlink:href="#u" x="401.09" y="683.26"/>
  <use xlink:href="#s" x="406.37" y="683.26"/>
  <use xlink:href="#t" x="412.37" y="683.26"/>
  <use xlink:href="#q" x="418.23" y="683.26"/>
  <use xlink:href="#b" x="424.63" y="683.26"/>
  <path fill="none" stroke="#000" stroke-linejoin="round" stroke-miterlimit="10" stroke-width=".25" d="M340.9 683.85 323.8 692"/>
</svg>
