<svg xmlns="http://www.w3.org/2000/svg" xmlns:xlink="http://www.w3.org/1999/xlink" width="595.32" height="841.92" viewBox="0 0 595.32 841.92">
  <defs>
    <path id="b" d="M3.7 0v-.22q.53 0 .53-.78v-2.69L2.66-1q0 .77.53.78V0H.4v-.22q.34 0 .48-.19.15-.18.14-.65v-3.38q0-.81-.62-.81v-.22h2.78v.22q-.3 0-.42.17-.12.15-.11.64v2.67l1.57-2.71q0-.45-.14-.6-.1-.17-.39-.17v-.22h2.78v.22q-.3 0-.46.16-.14.16-.14.57v3.49q0 .48.12.66.14.15.48.15V0Zm0 0"/>
    <path id="e" d="M1.77-3.98v-.2q.66-.2.92-.35.26-.17.45-.52.2-.33.19-.7 0-.48-.36-.83a1.2 1.2 0 0 0-.88-.34q-.8 0-1.39.86l-.22-.08A3.5 3.5 0 0 1 1.56-7.6q.66-.5 1.47-.5.82 0 1.36.5.53.5.53 1.17 0 .44-.25.84-.23.41-.78.72.68.34 1.05.83a2 2 0 0 1 .36 1.22q0 1.25-.9 2.12T2 .17Q.98.17.53-.16a.7.7 0 0 1-.34-.6q0-.27.19-.46.2-.2.45-.2a1 1 0 0 1 .36.1q.1.04.65.5.59.46 1.08.46.44 0 .75-.34.3-.35.31-.86 0-.81-.56-1.49a3 3 0 0 0-1.65-.93m0 0"/>
    <path id="a" d="M3.1-7.94h4.1v.22q-.69.02-.87.17-.2.15-.22.74 1.35 0 2.05.31t1.2.94.5 1.51q0 1.13-.84 1.99T6.1-1.2q0 .42.1.62.09.2.27.27.2.06.72.1V0H3.1v-.22q.73 0 .92-.22.18-.22.18-.76a5 5 0 0 1-2.17-.38Q1.25-1.97.84-2.6a2.7 2.7 0 0 1 .1-2.95q.5-.71 1.25-.97.75-.28 2.01-.28 0-.53-.22-.7-.21-.2-.89-.2Zm3 6.32q.6 0 .96-.18.38-.18.61-.75.25-.57.25-1.56 0-.78-.23-1.33-.22-.54-.58-.73-.36-.2-1-.2ZM4.2-6.37q-.78.01-1.1.26-.34.25-.54.78-.19.54-.19 1.36 0 .97.24 1.47t.62.69q.4.17.97.19Zm0 0"/>
    <path id="c" d="M.42-.22Q.76-.23.9-.39q.15-.15.14-.63v-3.46q0-.43-.12-.58-.13-.15-.49-.19v-.22h4.81v1.42h-.21q-.14-.65-.38-.86t-.89-.2H2.67v4.13q0 .42.13.59.14.15.54.17V0H.42Zm0 0"/>
    <path id="d" d="M1.5-1.8q.4 0 .69.28t.28.7-.28.68a1 1 0 0 1-.69.28q-.4 0-.69-.28a1 1 0 0 1-.28-.69q0-.4.28-.69a1 1 0 0 1 .69-.28m0 0"/>
    <path id="f" d="M.6 2.1v-.26q.68-.3.98-.76t.31-.94q0-.1-.05-.16-.03-.04-.07-.04t-.11.04q-.16.1-.43.1A.8.8 0 0 1 .64-.2 1 1 0 0 1 .4-.83q0-.39.28-.67.3-.3.72-.3.5 0 .86.4.36.39.36 1.06a2.3 2.3 0 0 1-.52 1.48q-.5.66-1.5.95m0 0"/>
    <path id="j" d="M5.94-8.1h.22q-.33 1.42-2 1.57-.69.06-1.02.16t-.7.4-.64.77-.52 1.18q1.17-1.4 2.63-1.4.76 0 1.23.45.48.45.49 1.2 0 1.5-1.15 2.7A3.4 3.4 0 0 1 1.98.17Q1.23.16.8-.28t-.43-1.2q0-1.1.58-2.6.59-1.5 1.2-2.3.63-.8 1.24-1.07.62-.3 1.58-.33.54-.03.7-.08t.27-.25m-2.25 3q-.36 0-.69.43-.33.44-.77 1.73-.43 1.3-.43 2.16 0 .64.5.64.54 0 1.2-1.48.67-1.5.67-2.79 0-.7-.48-.7m0 0"/>
    <path id="g" d="M5.73-5.34 4.61-1.45l-.13.47-.01.14q0 .06.05.12.04.05.1.05.13 0 .35-.19.07-.07.42-.55l.2.11q-.41.77-.89 1.11a1.7 1.7 0 0 1-1 .35.7.7 0 0 1-.52-.18A.6.6 0 0 1 3-.44q0-.23.19-.86l.14-.47A6 6 0 0 1 2.03-.1q-.37.27-.78.27a.8.8 0 0 1-.78-.44 2 2 0 0 1-.24-1q0-.81.5-1.88t1.33-1.73a2 2 0 0 1 1.27-.53q.33 0 .51.19.21.18.3.68l.22-.72Zm-1.86 1.1q0-.45-.15-.68a.3.3 0 0 0-.28-.14q-.19 0-.38.17-.39.38-.84 1.48T1.77-1.5q0 .31.09.45.1.14.23.14.27 0 .54-.3.37-.44.68-1.07.56-1.1.56-1.95m0 0"/>
    <path id="k" d="M1.1 0h2.54v-.14c-.72 0-.87-.1-.87-.55v-5.53l-.08-.01-1.66.84v.12q.54-.2.66-.2.29 0 .28.44v4.17c-.02.58-.17.72-.88.72Zm0 0"/>
    <path id="m" d="M2.67-3.42c.92-.5 1.25-.88 1.25-1.5 0-.77-.65-1.31-1.6-1.31-1 0-1.74.62-1.74 1.45 0 .6.17.87 1.14 1.72C.72-2.3.52-2.03.52-1.4.52-.5 1.23.13 2.3.13c1.1 0 1.8-.61 1.8-1.55 0-.72-.3-1.16-1.43-2m-.15.95c.67.49.89.81.89 1.33A1 1 0 0 1 2.39-.13c-.7 0-1.17-.53-1.17-1.32 0-.61.19-.99.73-1.42ZM2.4-3.59c-.82-.54-1.16-.96-1.16-1.47 0-.53.42-.9 1-.9.63 0 1.03.4 1.03 1.02 0 .57-.25.94-.87 1.35m0 0"/>
    <path id="n" d="M2.34-6.23q-.73 0-1.23.48A4 4 0 0 0 .2-3.09C.2-2.08.52-1.02.94-.5q.54.62 1.36.63.7 0 1.2-.47c.54-.52.88-1.58.88-2.7 0-1.9-.83-3.2-2.05-3.2m-.03.25c.78 0 1.2 1.03 1.2 2.95q0 2.92-1.2 2.92-1.2-.01-1.2-2.9.01-2.96 1.2-2.97m0 0"/>
    <path id="s" d="m4.4-1.27-.13-.04c-.35.53-.44.6-.88.6H1.2l1.54-1.62c.83-.86 1.2-1.54 1.2-2.26 0-.93-.76-1.64-1.73-1.64-.5 0-.98.2-1.33.57-.3.32-.43.61-.59 1.27l.2.05c.36-.91.7-1.2 1.33-1.2.8 0 1.32.5 1.32 1.29 0 .73-.43 1.58-1.2 2.4L.27-.12V0h3.6Zm0 0"/>
    <path id="t" d="M4.14-6.1H.74L.18-4.76l.15.08c.38-.63.55-.74 1.07-.75h2.01L1.6.08h.6l1.95-6.03Zm0 0"/>
    <path id="o" d="M3.23-4.86q0 .58-.4.99-.41.4-.99.4-.57 0-.98-.4-.4-.4-.4-.99 0-.56.4-.97t.98-.4.99.4q.4.42.4.97m-.39 0q0-.42-.3-.7a1 1 0 0 0-.7-.3 1 1 0 0 0-1 1q0 .42.29.72a1 1 0 0 0 .71.28q.43 0 .7-.28.3-.3.3-.72m0 0"/>
    <path id="p" d="M2.34-6.22c-.51 0-.89.14-1.23.47-.53.52-.9 1.58-.9 2.66 0 1.01.32 2.07.74 2.59Q1.5.12 2.3.13q.71 0 1.2-.47c.53-.52.9-1.58.9-2.7 0-1.88-.85-3.18-2.06-3.18m-.03.24c.78 0 1.19 1.04 1.19 2.96q0 2.9-1.2 2.91Q1.12-.12 1.1-3q.01-2.95 1.21-2.97m0 0"/>
    <path id="r" d="M.55.2a3.8 3.8 0 0 0 3.69-3.83c0-1.51-.85-2.59-2.05-2.59-1.1 0-1.9.92-1.9 2.17 0 1.13.65 1.86 1.65 1.86.5 0 .89-.14 1.37-.51A3.4 3.4 0 0 1 .51.02Zm2.8-3.47c0 .2-.05.27-.15.35-.25.22-.6.34-.93.34-.7 0-1.14-.69-1.14-1.78 0-.53.14-1.08.34-1.31q.25-.3.66-.3 1.2.01 1.21 2.34Zm0 0"/>
    <path id="q" d="M3.22-4.84q0 .56-.4.96-.4.42-.98.41-.57 0-.98-.4-.4-.41-.4-.97 0-.58.4-.99.4-.4.98-.4t.97.4.4.99m-.38-.02q0-.4-.3-.7a1 1 0 0 0-.7-.3q-.42 0-.72.3t-.3.7q0 .42.3.72t.72.3.7-.3q.3-.3.3-.72m0 0"/>
    <path id="w" d="M.92-5.37h4.81v.21q-.38 0-.53.08a1 1 0 0 0-.2.2q-.08.12-.08.77v2.84q0 .63.06.75t.2.2q.15.1.55.1V0H2.95v-.22q.45 0 .63-.05.17-.04.26-.21.1-.2.11-.79V-5h-1.8v2.27q0 1.29-.1 1.8-.12.53-.46.77A1.3 1.3 0 0 1 .83.1Q.08.1.08-.53q0-.2.1-.34a.4.4 0 0 1 .32-.15q.2 0 .4.18.21.23.33.23.27 0 .38-.44.12-.45.12-1.56V-3.8q0-.92-.14-1.1-.12-.2-.67-.26Zm0 0"/>
    <path id="x" d="M3.42-.78q-.83.65-1.03.75-.33.15-.69.14-.54 0-.92-.38a1.4 1.4 0 0 1-.36-1q0-.4.19-.68.24-.4.83-.75.6-.36 1.98-.86v-.2q0-.82-.26-1.12t-.74-.3a.8.8 0 0 0-.58.21.6.6 0 0 0-.23.45l.01.35a.6.6 0 0 1-.14.42q-.14.15-.35.14a.5.5 0 0 1-.36-.16.6.6 0 0 1-.13-.42q0-.5.52-.92.5-.42 1.45-.42.7 0 1.17.23.35.2.5.58.1.25.11 1.03v1.83q0 .76.03.94t.1.23.15.05q.1 0 .17-.03.13-.08.47-.44v.33q-.65.9-1.25.89a.6.6 0 0 1-.47-.2q-.15-.2-.17-.7m0-.38V-3.2q-.9.36-1.14.5-.47.24-.67.53t-.19.62q0 .43.25.7.25.3.58.29.46 0 1.17-.6m0 0"/>
    <path id="y" d="M.5-3.69v-1.68h.23q.1.09.24.09.1 0 .44-.1.56-.15.92-.15.76 0 1.28.36.53.36.53.95 0 .9-1.39 1.31 1.6.35 1.6 1.52 0 .6-.5 1.1-.53.46-1.5.46-.65 0-1.15-.23A4 4 0 0 1 .14-.84L.3-1a3 3 0 0 0 1.83.73q.47 0 .8-.32.32-.33.32-.86 0-1.17-1.52-1.25v-.35q.71 0 1.04-.37.32-.37.32-.81a1 1 0 0 0-.28-.66 1 1 0 0 0-.72-.3q-1.05 0-1.39 1.5Zm0 0"/>
    <path id="z" d="M1.28-3.34q0 1.18.58 1.87.6.67 1.39.67.51 0 .9-.28.39-.3.66-1l.19.13a3 3 0 0 1-.72 1.47q-.6.65-1.48.65-.97 0-1.66-.75A3 3 0 0 1 .45-2.6q0-1.39.7-2.16.72-.76 1.79-.76a2 2 0 0 1 1.48.6q.58.6.58 1.59Zm0-.35h2.49a3 3 0 0 0-.13-.73q-.15-.34-.44-.52a1 1 0 0 0-.6-.18q-.5 0-.88.39-.38.38-.44 1.04m0 0"/>
    <path id="A" d="m-.02-4.84 1.66-.68h.24v1.27q.4-.72.82-1t.9-.28q.8 0 1.34.62.66.79.67 2.04 0 1.38-.8 2.3-.68.75-1.65.74-.44 0-.77-.12a2 2 0 0 1-.52-.36v1.64q0 .55.07.69.06.15.23.25.18.09.61.09v.2H-.05v-.2h.16q.3 0 .55-.13l.17-.21q.06-.15.06-.72v-5.1q0-.51-.05-.65a.4.4 0 0 0-.15-.2.4.4 0 0 0-.27-.08q-.14 0-.36.07Zm1.9.93v2q0 .66.04.86.07.35.4.61.32.25.8.25.6 0 .96-.45.48-.6.48-1.69a3 3 0 0 0-.54-1.89 1.1 1.1 0 0 0-1.46-.33q-.2.13-.68.64m0 0"/>
    <linearGradient id="v" x1="103.8" x2="121.2" y1="54" y2="54" gradientTransform="matrix(.66636 0 0 -.66526 128.62 714.23)" gradientUnits="userSpaceOnUse">
      <stop offset="0" stop-color="#1e1c11"/>
      <stop offset=".51" stop-color="#c3bc96"/>
      <stop offset="1" stop-color="#4a452a"/>
    </linearGradient>
    <linearGradient id="C" x1="103.8" x2="121.2" y1="54" y2="54" gradientTransform="matrix(.66636 0 0 -.66526 320.78 714.23)" gradientUnits="userSpaceOnUse">
      <stop offset="0" stop-color="#1e1c11"/>
      <stop offset=".51" stop-color="#c3bc96"/>
      <stop offset="1" stop-color="#4a452a"/>
    </linearGradient>
    <clipPath id="u">
      <path d="M197.8 660.34h11.59v35.93h-11.6Zm0 0"/>
    </clipPath>
    <clipPath id="B">
      <path d="M389.95 660.34h11.6v35.93h-11.6Zm0 0"/>
    </clipPath>
  </defs>
  <use xlink:href="#a" x="178.26" y="725.47"/>
  <use xlink:href="#b" x="188.55" y="725.47"/>
  <use xlink:href="#c" x="195.5" y="725.47"/>
  <use xlink:href="#d" x="200.9" y="725.47"/>
  <use xlink:href="#H" x="203.9" y="725.47"/>
  <use xlink:href="#e" x="206.89" y="725.47"/>
  <use xlink:href="#f" x="212.88" y="725.47"/>
  <use xlink:href="#H" x="215.88" y="725.47"/>
  <use xlink:href="#g" x="218.92" y="725.47"/>
  <use xlink:href="#bb" x="224.91" y="725.47"/>
  <use xlink:href="#as" x="466.73" y="714.32"/>
  <use xlink:href="#a" x="370.45" y="731.47"/>
  <use xlink:href="#b" x="380.74" y="731.47"/>
  <use xlink:href="#c" x="387.7" y="731.47"/>
  <use xlink:href="#d" x="393.09" y="731.47"/>
  <use xlink:href="#H" x="396.09" y="731.47"/>
  <use xlink:href="#e" x="399.08" y="731.47"/>
  <use xlink:href="#f" x="405.08" y="731.47"/>
  <use xlink:href="#H" x="408.07" y="731.47"/>
  <use xlink:href="#j" x="411.08" y="731.47"/>
  <use xlink:href="#bb" x="417.07" y="731.47"/>
  <path fill="none" stroke="#000" stroke-linejoin="round" stroke-miterlimit="10" stroke-width=".75" d="M124.75 245.02 99.4 101.3m37.63 140.43L87.12 104.6m61.44 131.76-72.97-126.4m83.39 119.1-93.8-111.8" transform="matrix(.66636 0 0 -.66526 128.62 714.23)"/>
  <path fill="none" stroke="#000" stroke-linejoin="round" stroke-miterlimit="10" stroke-width=".6" d="M112.5 245.7V99.75" transform="matrix(.66636 0 0 -.66526 128.62 714.23)"/>
  <path fill="none" stroke="#000" stroke-linejoin="round" stroke-miterlimit="10" stroke-width=".75" d="m167.98 220.07-111.8-93.82m119.09 83.4L48.88 136.67m131.77 61.45L43.5 148.2m140.44 37.63L40.2 160.5" transform="matrix(.66636 0 0 -.66526 128.62 714.23)"/>
  <path fill="none" stroke="#000" stroke-linejoin="round" stroke-miterlimit="10" stroke-width=".6" d="M185.25 173.1H39.3" transform="matrix(.66636 0 0 -.66526 128.62 714.23)"/>
  <path fill="none" stroke="#000" stroke-linejoin="round" stroke-miterlimit="10" stroke-width=".75" d="M183.94 160.49 40.2 185.83m140.45-37.63L43.5 198.12m131.77-61.45L48.88 209.65m119.1-83.4-111.8 93.82m102.8-102.81-93.8 111.8m83.38-119.1-72.97 126.4m61.44-131.76L87.12 241.72m37.63-140.42L99.4 245.02" transform="matrix(.66636 0 0 -.66526 128.62 714.23)"/>
  <path fill="#fff" fill-rule="evenodd" stroke="#000" stroke-linejoin="round" stroke-miterlimit="10" stroke-width="1.8" d="M47.7 173.1a64.8 64.8 0 1 0 129.62-.01 64.8 64.8 0 0 0-129.62.01Zm0 0" transform="matrix(.66636 0 0 -.66526 128.62 714.23)"/>
  <use xlink:href="#k" x="196.36" y="546.61"/>
  <use xlink:href="#m" x="201.17" y="546.61"/>
  <use xlink:href="#n" x="205.99" y="546.61"/>
  <use xlink:href="#o" x="210.79" y="546.61"/>
  <use xlink:href="#p" x="201.6" y="656.75"/>
  <use xlink:href="#q" x="206.42" y="656.75"/>
  <use xlink:href="#r" x="255.56" y="602.33"/>
  <use xlink:href="#p" x="260.38" y="602.33"/>
  <use xlink:href="#q" x="265.19" y="602.33"/>
  <use xlink:href="#s" x="134.5" y="601.53"/>
  <use xlink:href="#t" x="139.3" y="601.53"/>
  <use xlink:href="#n" x="144.12" y="601.53"/>
  <use xlink:href="#o" x="148.93" y="601.53"/>
  <path fill="#bfbfbf" fill-opacity=".5" fill-rule="evenodd" stroke="#000" stroke-linejoin="round" stroke-miterlimit="10" stroke-width=".6" d="M133.85 183.26a23.52 23.52 0 0 0-40.72-23.55Zm0 0" transform="matrix(.66636 0 0 -.66526 128.62 714.23)"/>
  <path fill="none" stroke="#c00000" stroke-linejoin="round" stroke-miterlimit="10" stroke-width="3" d="m113.1 36.4.48 134.9" transform="matrix(.66636 0 0 -.66526 128.62 714.23)"/>
  <g clip-path="url(#u)">
    <path fill="url(#v)" d="M197.8 696.27v-35.93h11.59v35.93Zm0 0"/>
  </g>
  <use xlink:href="#w" x="191.96" y="709.02"/>
  <use xlink:href="#x" x="197.96" y="709.02"/>
  <use xlink:href="#y" x="203.19" y="709.02"/>
  <use xlink:href="#z" x="207.99" y="709.02"/>
  <use xlink:href="#A" x="213.21" y="709.02"/>
  <path fill="none" stroke="#c00000" stroke-linejoin="round" stroke-miterlimit="10" stroke-width="1.8" d="m113.1 170.7 78-42m-36 119.4-42-78" transform="matrix(.66636 0 0 -.66526 128.62 714.23)"/>
  <path fill="none" stroke="#000" stroke-linejoin="round" stroke-miterlimit="10" stroke-width=".75" d="M124.75 245.02 99.4 101.3m37.63 140.43L87.12 104.6m61.44 131.76-72.97-126.4m83.39 119.1-93.8-111.8" transform="matrix(.66636 0 0 -.66526 320.78 714.23)"/>
  <path fill="none" stroke="#000" stroke-linejoin="round" stroke-miterlimit="10" stroke-width=".6" d="M112.5 245.7V99.75" transform="matrix(.66636 0 0 -.66526 320.78 714.23)"/>
  <path fill="none" stroke="#000" stroke-linejoin="round" stroke-miterlimit="10" stroke-width=".75" d="m167.98 220.07-111.8-93.82m119.09 83.4L48.88 136.67m131.77 61.45L43.5 148.2m140.44 37.63L40.21 160.5" transform="matrix(.66636 0 0 -.66526 320.78 714.23)"/>
  <path fill="none" stroke="#000" stroke-linejoin="round" stroke-miterlimit="10" stroke-width=".6" d="M185.25 173.1H39.3" transform="matrix(.66636 0 0 -.66526 320.78 714.23)"/>
  <path fill="none" stroke="#000" stroke-linejoin="round" stroke-miterlimit="10" stroke-width=".75" d="M183.94 160.49 40.21 185.83m140.44-37.63L43.5 198.12m131.77-61.45L48.88 209.65m119.1-83.4-111.8 93.82m102.8-102.81-93.8 111.8m83.38-119.1-72.97 126.4m61.44-131.76L87.12 241.72m37.63-140.42L99.4 245.02" transform="matrix(.66636 0 0 -.66526 320.78 714.23)"/>
  <path fill="#fff" fill-rule="evenodd" stroke="#000" stroke-linejoin="round" stroke-miterlimit="10" stroke-width="1.8" d="M47.7 173.1a64.8 64.8 0 1 0 129.62-.01 64.8 64.8 0 0 0-129.62.01Zm0 0" transform="matrix(.66636 0 0 -.66526 320.78 714.23)"/>
  <use xlink:href="#k" x="388.52" y="546.61"/>
  <use xlink:href="#m" x="393.33" y="546.61"/>
  <use xlink:href="#n" x="398.15" y="546.61"/>
  <use xlink:href="#o" x="402.95" y="546.61"/>
  <use xlink:href="#p" x="393.76" y="656.75"/>
  <use xlink:href="#q" x="398.58" y="656.75"/>
  <use xlink:href="#r" x="447.72" y="602.33"/>
  <use xlink:href="#p" x="452.54" y="602.33"/>
  <use xlink:href="#q" x="457.35" y="602.33"/>
  <use xlink:href="#s" x="326.66" y="601.53"/>
  <use xlink:href="#t" x="331.46" y="601.53"/>
  <use xlink:href="#n" x="336.28" y="601.53"/>
  <use xlink:href="#o" x="341.09" y="601.53"/>
  <path fill="#bfbfbf" fill-opacity=".5" fill-rule="evenodd" stroke="#000" stroke-linejoin="round" stroke-miterlimit="10" stroke-width=".6" d="M96.6 188.17a23.53 23.53 0 0 1 33.23-33.29Zm0 0" transform="matrix(.66636 0 0 -.66526 320.78 714.23)"/>
  <path fill="none" stroke="#c00000" stroke-linejoin="round" stroke-miterlimit="10" stroke-width="3" d="m113.1 36.37.2 134.93" transform="matrix(.66636 0 0 -.66526 320.78 714.23)"/>
  <g clip-path="url(#B)">
    <path fill="url(#C)" d="M389.95 696.27v-35.93h11.6v35.93Zm0 0"/>
  </g>
  <use xlink:href="#w" x="384.12" y="709.02"/>
  <use xlink:href="#x" x="390.12" y="709.02"/>
  <use xlink:href="#y" x="395.35" y="709.02"/>
  <use xlink:href="#z" x="400.15" y="709.02"/>
  <use xlink:href="#A" x="405.37" y="709.02"/>
  <path fill="none" stroke="#c00000" stroke-linejoin="round" stroke-miterlimit="10" stroke-width="1.8" d="m31.5 173.1 81-2.4" transform="matrix(.66636 0 0 -.66526 320.78 714.23)"/>
</svg>
