<svg xmlns="http://www.w3.org/2000/svg" xmlns:xlink="http://www.w3.org/1999/xlink" width="612" height="792" viewBox="0 0 612 792">
  <defs>
    <path id="g" d="M2.75-1.48C1.97-.48 1.88-.4 1.61-.4q-.2 0-.19-.2 0-.17.1-.47l.03-.11v-.02l1.8-6.95-.05-.06c-.72.17-1.17.23-1.88.32v.2c.58 0 .81.05.81.27q0 .07-.03.2L.55-.85q-.06.2-.05.31 0 .69.58.68c.62 0 1.05-.33 1.83-1.5Zm0 0"/>
    <path id="i" d="m8.3-1.4-.16.18-.33.4c-.26.27-.37.37-.54.37q-.14 0-.14-.2l.1-.54.83-3.01c.02-.07.03-.25.03-.35 0-.42-.3-.75-.7-.75q-.34 0-.76.27c-.6.37-1.08.95-1.93 2.28.33-.94.49-1.6.49-1.83 0-.44-.27-.72-.69-.72-.73 0-1.58.8-2.69 2.53l.7-2.51-.03-.02-1.93.38v.19c.56.01.56.01.67.07q.1.05.1.2c0 .13-.29 1.24-.71 2.74C.34-.82.3-.6.14 0h.9c.59-1.9.77-2.36 1.18-2.98.69-1.04 1.39-1.7 1.81-1.7q.24.01.24.3c0 .16-.36 1.58-.85 3.27L3.12 0h.91c.47-1.87.72-2.48 1.33-3.33.6-.81 1.19-1.34 1.55-1.34.12 0 .23.1.23.25q.01.08-.08.42l-.7 2.77c-.13.46-.16.67-.16.8q0 .53.49.54c.56 0 1.1-.4 1.73-1.28l.06-.1Zm0 0"/>
    <path id="h" d="m8.31-1.4-.15.18-.33.4c-.27.27-.4.37-.55.37q-.15 0-.16-.2c0-.05.05-.26.13-.54l.81-3.03c.02-.05.05-.25.05-.33 0-.43-.31-.76-.7-.76q-.35.01-.77.26c-.6.4-1.1.97-1.92 2.3.31-.94.48-1.6.48-1.83 0-.44-.28-.73-.68-.73-.74 0-1.58.8-2.7 2.54l.7-2.51-.04-.03c-.65.14-.9.18-1.92.37v.2c.55 0 .55 0 .66.07q.1.05.1.2c0 .14-.29 1.25-.71 2.75C.34-.82.3-.6.14 0h.9c.59-1.9.77-2.36 1.18-2.98.69-1.04 1.4-1.7 1.81-1.7q.24 0 .24.3c0 .16-.36 1.58-.85 3.27L3.12 0h.91c.49-1.87.72-2.48 1.34-3.33.58-.83 1.2-1.36 1.54-1.36.14 0 .25.11.25.27l-.1.42-.68 2.77c-.13.46-.16.67-.16.8q0 .53.47.54c.58 0 1.1-.4 1.75-1.28l.04-.1Zm0 0"/>
    <path id="k" d="M4.72 2.3H4.5c-.44 0-.69-.13-.67-.35l.01-.14 1.99-6.93h-.88l-.18.56c-.2-.55-.44-.75-.94-.75C2.25-5.31.3-3.1.3-1.27.3-.4.77.13 1.53.13c.86 0 1.4-.43 2.49-1.97L2.94 1.69c-.16.48-.35.6-1.13.64v.19h2.9Zm-.84-7.35c.39 0 .7.33.7.74 0 1-.81 2.72-1.64 3.39q-.48.4-.92.42c-.43 0-.68-.36-.68-.94 0-.89.63-2.2 1.41-3.01q.58-.58 1.13-.6m0 0"/>
    <path id="l" d="M3.67-3.44H1.03v.8h2.64V0h.8v-2.64H7.1v-.8H4.47v-2.65h-.8Zm0 0"/>
    <path id="j" d="M6.13-2.66H-.12v-.43h6.24Zm0 0"/>
    <path id="m" d="M6.48 0H3.05v-.22q.67-.01.9-.17.24-.17.24-.72-2 0-2.86-.83a2.7 2.7 0 0 1-.88-2.08q0-.93.52-1.59.51-.66 1.28-.92.76-.27 1.94-.27 0-.48-.14-.64a1 1 0 0 0-.33-.23 3 3 0 0 0-.67-.06v-.22h3.43v.22q-.7 0-.92.2-.2.18-.23.73 1.26 0 1.98.28.74.27 1.25.91.52.64.52 1.6-.01 1.21-.86 2.06-.84.84-2.9.84.03.54.24.7.23.18.92.2ZM5.33-1.53q.86 0 1.37-.22.52-.24.85-.81.34-.6.34-1.47 0-.8-.34-1.36a1.7 1.7 0 0 0-.85-.77 4 4 0 0 0-1.37-.2Zm-1.14 0v-4.83q-.91 0-1.4.22-.5.23-.84.75-.32.52-.32 1.36 0 .92.39 1.53.38.6.92.8.53.17 1.25.17m0 0"/>
    <path id="n" d="M2.06-1.66 4.4-4.34q-.02-.45-.17-.63-.15-.16-.55-.19v-.21h2.5v.21q-.4 0-.53.08a1 1 0 0 0-.2.2q-.09.12-.08.77v2.84q0 .63.06.75t.2.2q.15.1.55.1V0h-2.6v-.22q.49 0 .65-.17t.17-.88V-3.8L2.06-1.1q.02.5.14.7.13.18.57.18V0H.27v-.22q.52 0 .67-.19.15-.18.15-.86V-4.1q0-.62-.07-.73a1 1 0 0 0-.2-.22q-.14-.1-.55-.1v-.21h2.6v.21q-.38 0-.53.08a1 1 0 0 0-.2.2q-.08.12-.08.77Zm0 0"/>
    <path id="o" d="m4.64-5.37.22 1.46H4.6q-.24-.73-.47-.9-.22-.2-.94-.19H2.06v3.73q0 .63.06.75t.2.2q.15.1.56.1V0H.17v-.22q.59-.01.74-.17.18-.16.17-.88V-4.1q0-.58-.07-.73a.4.4 0 0 0-.22-.22q-.15-.07-.61-.1v-.21Zm0 0"/>
    <path id="p" d="M1.5-1.14q.28 0 .47.2t.19.46-.2.46a.6.6 0 0 1-.46.2.6.6 0 0 1-.45-.2.7.7 0 0 1-.2-.46q0-.3.2-.47a.6.6 0 0 1 .45-.2m0 0"/>
    <path id="q" d="m1.4-7.17 1.96-.95h.19v6.71q0 .67.04.85.06.15.24.25.18.07.72.1V0h-3v-.22q.58 0 .73-.1.17-.08.24-.23.05-.15.06-.86v-4.3q0-.84-.06-1.1a.5.5 0 0 0-.16-.27.3.3 0 0 0-.25-.1q-.22 0-.61.18Zm0 0"/>
    <clipPath id="a">
      <path d="M257 444h12v11h-12Zm0 0"/>
    </clipPath>
    <clipPath id="b">
      <path d="M257.98 449.35a5.1 5.1 0 0 1 5.18-4.98 5.1 5.1 0 0 1 5.2 4.98 5.1 5.1 0 0 1-5.2 4.98 5.1 5.1 0 0 1-5.18-4.98m0 0" clip-rule="evenodd"/>
    </clipPath>
    <clipPath id="d">
      <path d="M346 444h11v11h-11Zm0 0"/>
    </clipPath>
    <clipPath id="e">
      <path d="M346.22 449.35a5.1 5.1 0 0 1 5.19-4.98 5.1 5.1 0 0 1 5.19 4.98 5.1 5.1 0 0 1-5.2 4.98 5.1 5.1 0 0 1-5.18-4.98m0 0" clip-rule="evenodd"/>
    </clipPath>
    <radialGradient id="c" cx="0" cy="0" r="7.19" fx="0" fy="0" gradientTransform="matrix(1.00099 0 0 -.99901 263.17 449.35)" gradientUnits="userSpaceOnUse">
      <stop offset="0" stop-color="#bfbfbf"/>
      <stop offset="1" stop-color="#404040"/>
    </radialGradient>
    <radialGradient id="f" cx="0" cy="0" r="7.19" fx="0" fy="0" gradientTransform="matrix(1.00099 0 0 -.99901 351.4 449.35)" gradientUnits="userSpaceOnUse">
      <stop offset="0" stop-color="#bfbfbf"/>
      <stop offset="1" stop-color="#404040"/>
    </radialGradient>
  </defs>
  <g clip-path="url(#a)">
    <g clip-path="url(#b)">
      <path fill="url(#c)" d="M257.98 454.33v-9.96h10.38v9.96Zm0 0"/>
    </g>
  </g>
  <path fill="none" stroke="#000" stroke-linejoin="round" stroke-miterlimit="10" stroke-width=".6" d="M21.3 61.8c0 4.15 3.49 7.5 7.8 7.5s7.8-3.35 7.8-7.5c0-4.14-3.5-7.5-7.8-7.5s-7.8 3.36-7.8 7.5Zm0 0" transform="matrix(.66548 0 0 -.66417 243.8 490.4)"/>
  <g clip-path="url(#d)">
    <g clip-path="url(#e)">
      <path fill="url(#f)" d="M346.22 454.33v-9.96h10.38v9.96Zm0 0"/>
    </g>
  </g>
  <path fill="none" stroke="#000" stroke-linejoin="round" stroke-miterlimit="10" stroke-width=".6" d="M153.9 61.8c0 4.15 3.49 7.5 7.8 7.5s7.8-3.35 7.8-7.5c0-4.14-3.49-7.5-7.8-7.5s-7.8 3.36-7.8 7.5Zm0 0" transform="matrix(.66548 0 0 -.66417 243.8 490.4)"/>
  <path d="M263.96 455.73h89.12v.4h-89.12Zm3.9 2.7-4.3-2.5 4.3-2.5a.2.2 0 0 1 .27.07.2.2 0 0 1-.07.27l-4 2.33v-.35l4 2.33c.1.06.12.18.07.27a.2.2 0 0 1-.27.08m81.32-5 4.3 2.5-4.3 2.5a.2.2 0 1 1-.2-.34l4-2.34v.35l-4-2.33a.2.2 0 1 1 .2-.34m0 0"/>
  <use xlink:href="#g" x="304.97" y="469.44"/>
  <use xlink:href="#h" x="251.95" y="461.77"/>
  <use xlink:href="#i" x="355.02" y="460.61"/>
  <use xlink:href="#j" x="251.24" y="438.67"/>
  <use xlink:href="#k" x="259.66" y="438.67"/>
  <use xlink:href="#cH" x="265.66" y="438.67"/>
  <use xlink:href="#l" x="339.81" y="438.67"/>
  <use xlink:href="#cH" x="347.83" y="438.67"/>
  <use xlink:href="#k" x="350.64" y="438.67"/>
  <use xlink:href="#cH" x="356.67" y="438.67"/>
  <use xlink:href="#m" x="287.42" y="484.83"/>
  <use xlink:href="#n" x="297.02" y="484.83"/>
  <use xlink:href="#o" x="303.43" y="484.83"/>
  <use xlink:href="#p" x="307.04" y="484.83"/>
  <use xlink:href="#cN" x="310.25" y="484.83"/>
  <use xlink:href="#q" x="312.66" y="484.83"/>
</svg>
