<svg xmlns="http://www.w3.org/2000/svg" xmlns:xlink="http://www.w3.org/1999/xlink" width="612" height="792" viewBox="0 0 612 792">
  <defs>
    <path id="b" d="M9.23-7.86h-2.4v.2c.64.05.86.2.86.55 0 .19-.32 1.4-.9 3.45l-.15.6C6.11-1.1 5.33-.28 4-.28c-1 0-1.69-.56-1.69-1.42 0-.43.35-1.72 1.25-4.86.24-.85.44-1 1.27-1.1v-.2h-3.3v.2c.81.07.94.14.94.49q0 .22-.08.54L1.75-4.3a11 11 0 0 0-.52 2.56C1.23-.61 2.33.22 3.86.22c1.58 0 2.58-.86 3.1-2.66l1-3.43c.48-1.57.52-1.63 1.27-1.79Zm0 0"/>
    <path id="e" d="m5.6-1.33-.33.35c-.4.37-.54.48-.64.48q-.15 0-.16-.16c0-.23.5-2.3 1.06-4.36.05-.12.05-.14.08-.25l-.08-.04-.75.1-.03.02-.12.58c-.1-.44-.46-.7-.97-.7C2.05-5.31.2-3.11.2-1.21.2-.35.66.14 1.44.14c.84 0 1.36-.4 2.42-1.88-.25.98-.28 1.08-.28 1.38q0 .5.48.5c.49 0 .78-.24 1.67-1.33ZM3.72-5.05c.41.03.68.32.68.74 0 1.01-.63 2.43-1.44 3.33-.3.32-.7.53-1.05.53-.44 0-.7-.35-.7-.9 0-.67.45-1.88.98-2.65.47-.69 1.03-1.08 1.53-1.05m0 0"/>
    <path id="c" d="m5.56-3.37-.01.18-.05.14-.08.08-.08.02H3.42v2.12l-.03.1-.06.06-.14.03h-.4l-.13-.03-.08-.06-.02-.1v-2.12H.64l-.1-.02-.07-.08-.05-.14-.01-.19.01-.18.05-.13.06-.08.1-.03h1.93v-2.12q0-.05.02-.08l.08-.06.12-.05a2 2 0 0 1 .4 0q.1.02.15.05l.06.06q.03.03.03.08v2.12h1.92q.05 0 .08.03.05.03.08.08l.05.13zm0 0"/>
    <path id="d" d="M6.02-3.31a1 1 0 0 1-.07.33.2.2 0 0 1-.15.09H.16Q.04-2.9 0-3a1 1 0 0 1-.06-.32q0-.22.06-.31.04-.12.16-.11H5.8q.04 0 .1.03l.05.06q.03.05.05.14zm0 0"/>
    <path id="f" d="M1.33-7.75c.72.03.78.06.78.33 0 .1-.02.23-.11.51l-.06.24-.02.08L.28-.55v.05c0 .27.92.63 1.61.63 1.81 0 3.83-2.1 3.83-3.99 0-.84-.6-1.45-1.4-1.45-.85 0-1.48.5-2.34 1.81l1.25-4.67-.06-.06c-.6.1-.97.17-1.84.28Zm2.51 3.03c.54 0 .85.4.85 1.03 0 .8-.61 2.08-1.33 2.83a2 2 0 0 1-1.48.72q-.57 0-.57-.4c0-.74.36-1.9.88-2.8q.8-1.39 1.65-1.38m0 0"/>
    <path id="g" d="M6.48 0H3.05v-.22q.67-.01.9-.17.24-.17.25-.72-2 0-2.87-.83a2.8 2.8 0 0 1-.88-2.1q0-.93.52-1.58.51-.68 1.28-.93.76-.25 1.95-.25 0-.5-.15-.65a1 1 0 0 0-.32-.22 3 3 0 0 0-.68-.08v-.22h3.43v.22q-.69.03-.9.22-.22.18-.25.73 1.28 0 2 .28.73.27 1.25.91.51.64.51 1.58 0 1.21-.86 2.08-.86.84-2.9.84 0 .54.23.7.23.18.92.2ZM5.33-1.55q.88 0 1.39-.22.51-.21.84-.8.35-.6.35-1.46 0-.81-.35-1.38a2 2 0 0 0-.86-.76 4 4 0 0 0-1.37-.2Zm-1.13 0v-4.82q-.92 0-1.42.23-.48.23-.83.75-.32.51-.32 1.36 0 .92.39 1.53.4.6.92.78.53.18 1.26.17m0 0"/>
    <path id="h" d="M2.06-1.66 4.4-4.34q-.02-.45-.17-.63t-.55-.19v-.21H6.2v.21q-.4 0-.53.08a1 1 0 0 0-.22.2q-.09.12-.08.75v2.86q0 .63.06.75.08.12.2.2.15.1.57.1V0H3.58v-.22q.48 0 .64-.17t.17-.88V-3.8L2.06-1.1q.02.5.14.7.13.18.57.18V0H.27v-.22q.52 0 .67-.19.15-.18.15-.86v-2.85q0-.63-.07-.74a1 1 0 0 0-.2-.2q-.14-.1-.55-.1v-.21h2.6v.21q-.38 0-.53.08a1 1 0 0 0-.2.2q-.08.12-.08.75Zm0 0"/>
    <path id="i" d="m4.66-5.37.21 1.46h-.26q-.22-.73-.45-.9-.23-.2-.96-.19H2.06v3.73q0 .63.06.75t.2.2q.15.1.56.1V0H.17v-.22q.59-.01.74-.17.18-.16.17-.88v-2.85q0-.57-.07-.72a.4.4 0 0 0-.22-.24 2 2 0 0 0-.61-.08v-.21Zm0 0"/>
    <path id="j" d="M1.52-1.14q.25 0 .45.19.19.18.19.47 0 .27-.2.46a.6.6 0 0 1-.44.2.64.64 0 0 1-.66-.66.64.64 0 0 1 .66-.66m0 0"/>
    <path id="k" d="M5.53-1.53 4.97 0H.27v-.22A21 21 0 0 0 3.19-3.3q.84-1.2.84-2.2 0-.75-.47-1.23-.45-.5-1.1-.5-.6 0-1.07.34-.45.35-.69 1.01H.48q.15-1.08.77-1.67.6-.58 1.52-.58.96 0 1.62.63.66.61.66 1.45 0 .61-.28 1.22A8 8 0 0 1 3.34-2.8 48 48 0 0 1 1.52-.9h2.07q.64 0 .9-.05t.46-.19q.21-.13.36-.4Zm0 0"/>
    <path id="l" d="M3.75 2.36v.22q-.9-.45-1.48-1.05A6 6 0 0 1 .95-.48 7 7 0 0 1 .5-2.9q0-1.8.9-3.31.9-1.5 2.35-2.16v.25Q3-7.7 2.55-7q-.45.69-.7 1.76a12 12 0 0 0-.03 4.5q.16.8.38 1.3t.58.93q.37.46.97.88m0 0"/>
    <path id="m" d="M3.44-.78q-.83.65-1.05.75-.31.15-.67.14Q1.16.1.8-.27.43-.65.44-1.28q0-.4.17-.67.24-.4.83-.75.6-.36 2-.86v-.22q0-.8-.27-1.1-.25-.3-.73-.3a1 1 0 0 0-.6.2.6.6 0 0 0-.22.45v.34q0 .29-.14.42-.12.15-.35.15a.5.5 0 0 1-.36-.15.6.6 0 0 1-.13-.42q0-.5.52-.92a2.2 2.2 0 0 1 1.45-.44q.72 0 1.17.25.36.2.52.57.1.26.1 1.04v1.82q0 .78.04.95.03.18.1.23.04.05.15.05.09 0 .17-.03.12-.08.47-.44v.33q-.66.9-1.27.89a.6.6 0 0 1-.45-.2q-.17-.2-.17-.7m0-.38V-3.2q-.9.35-1.16.5-.47.24-.67.53t-.19.62q0 .43.25.7.25.3.58.29.45 0 1.19-.6m0 0"/>
    <path id="n" d="M.27-8.1v-.26q.9.45 1.5 1.05a6 6 0 0 1 1.3 2.01A6.6 6.6 0 0 1 2.6.42Q1.7 1.92.27 2.58v-.22q.73-.4 1.2-1.11.46-.69.69-1.75t.23-2.22q0-1.25-.2-2.28-.15-.8-.36-1.3A4 4 0 0 0 .27-8.1m0 0"/>
    <path id="o" d="M1.33-7.75c.72.02.78.05.78.31 0 .11-.02.25-.11.53l-.06.22-.02.1L.28-.56v.06c0 .27.92.63 1.61.63 1.81 0 3.83-2.1 3.83-4 0-.85-.6-1.44-1.4-1.44-.85 0-1.48.48-2.34 1.81l1.25-4.67-.06-.06c-.6.1-.97.17-1.84.26Zm2.51 3.02c.54 0 .85.4.85 1.04 0 .8-.61 2.08-1.33 2.83a2 2 0 0 1-1.48.72q-.57 0-.57-.42c0-.72.36-1.88.88-2.78q.8-1.4 1.65-1.4m0 0"/>
    <path id="p" d="M4.97-2.05A3 3 0 0 1 4.1-.4q-.65.58-1.4.58a2.1 2.1 0 0 1-1.62-.76 3 3 0 0 1-.68-2.1q0-1.28.75-2.06.75-.8 1.82-.8a2 2 0 0 1 1.32.42q.51.42.51.86 0 .24-.15.38t-.4.14a.6.6 0 0 1-.53-.23q-.09-.13-.12-.47a1 1 0 0 0-.23-.53 1 1 0 0 0-.58-.18q-.6 0-.96.44-.46.59-.47 1.52 0 .97.47 1.72.47.73 1.29.73.57 0 1.03-.4.32-.27.64-.98Zm0 0"/>
    <path id="q" d="M.3-5.4h4.67l.23 1.46h-.26a2 2 0 0 0-.25-.67 1 1 0 0 0-.38-.33 2 2 0 0 0-.72-.08h-.46v3.75q0 .6.06.77.07.15.25.22.17.04.75.06V0H1.25v-.22q.57 0 .73-.19.16-.17.16-.86v-3.75h-.48q-.5 0-.7.07a1 1 0 0 0-.33.3q-.18.24-.29.71H.08Zm0 0"/>
    <path id="r" d="m-.02-4.86 1.68-.67h.22v1.26q.42-.7.84-1 .42-.27.89-.28.81 0 1.34.63.67.78.67 2.03 0 1.4-.8 2.31-.66.75-1.66.75-.45 0-.75-.12a2 2 0 0 1-.54-.36v1.64q0 .55.07.7t.23.24.63.09v.22H-.05v-.22h.16q.33.01.55-.13.1-.06.17-.2.06-.15.06-.73v-5.11q0-.52-.05-.66a.4.4 0 0 0-.15-.2.4.4 0 0 0-.27-.08q-.14 0-.36.08Zm1.9.94v2.01q0 .66.04.86.1.35.4.61.34.25.82.25.6 0 .95-.45.49-.6.49-1.7a3 3 0 0 0-.55-1.9 1.1 1.1 0 0 0-1.45-.32 3 3 0 0 0-.7.64m0 0"/>
    <path id="s" d="M3.44-.78q-.83.65-1.05.75-.31.15-.67.14Q1.16.1.8-.27.43-.65.44-1.28q0-.39.17-.69.24-.39.83-.73.6-.36 2-.88v-.2q0-.81-.27-1.11-.25-.3-.73-.3a1 1 0 0 0-.6.19.6.6 0 0 0-.22.47l.02.34a.6.6 0 0 1-.14.42.5.5 0 0 1-.37.15.4.4 0 0 1-.35-.16.6.6 0 0 1-.14-.42q0-.5.52-.92.5-.43 1.45-.43.71 0 1.19.24.34.19.51.58.1.24.1 1.03v1.83q0 .78.03.95.03.18.1.23t.15.05.17-.03q.12-.08.48-.44v.33q-.68.9-1.26.89a.6.6 0 0 1-.47-.2q-.17-.2-.17-.7m0-.38v-2.06q-.9.36-1.16.5-.45.27-.65.55t-.2.6q0 .45.24.73.25.26.6.26.43 0 1.17-.58m0 0"/>
    <path id="t" d="M2.06-2.98h2.35v-1.14q0-.52-.05-.68a.5.5 0 0 0-.2-.26q-.15-.1-.58-.11v-.22h2.6v.22q-.35 0-.52.1a.4.4 0 0 0-.24.23q-.04.15-.04.71v2.86q0 .52.04.7.05.15.2.26.17.1.57.1V0H3.58v-.22q.48 0 .65-.17t.18-.88V-2.6H2.06v1.34q0 .52.05.7.04.15.22.26.17.1.56.1V0H.27v-.22q.52 0 .67-.19.15-.18.15-.86v-2.85q0-.52-.04-.68a.4.4 0 0 0-.22-.26q-.18-.1-.56-.11v-.22h2.62v.22q-.37 0-.55.1a.4.4 0 0 0-.21.23q-.07.15-.07.71Zm0 0"/>
    <path id="u" d="m2.06-1.66 2.35-2.7q-.02-.44-.2-.62-.15-.2-.52-.2v-.21h2.5v.22q-.4 0-.53.08a1 1 0 0 0-.2.2q-.09.11-.08.76v2.86q0 .63.06.75t.2.2q.14.1.55.1V0H3.58v-.22q.48 0 .65-.17t.18-.88V-3.8L2.06-1.1q.02.5.14.68.13.2.57.2V0H.27v-.22q.52 0 .67-.19.15-.18.15-.86v-2.85q0-.64-.06-.75a1 1 0 0 0-.2-.2q-.15-.1-.56-.1v-.22h2.62v.22q-.4 0-.55.08a1 1 0 0 0-.2.2q-.08.11-.08.76Zm0 0"/>
    <path id="v" d="M4.02-2.97v-1.15q0-.57-.07-.72a.5.5 0 0 0-.23-.25 1 1 0 0 0-.52-.08v-.22h2.61v.22q-.4 0-.54.08a1 1 0 0 0-.2.2q-.09.11-.09.76v2.86q0 .57.05.72t.24.25q.18.08.54.08V0H3.06v-.22q.47 0 .61-.06.16-.04.25-.22a2 2 0 0 0 .1-.77v-1.3q-.89.43-1.83.43-.54 0-.83-.13-.28-.14-.36-.3a1.4 1.4 0 0 1-.08-.57v-.98q0-.54-.05-.7a.4.4 0 0 0-.21-.26 1 1 0 0 0-.49-.1v-.21h2.55v.22q-.4 0-.53.08a1 1 0 0 0-.22.2 2 2 0 0 0-.06.76v.66q0 .4.04.53.06.14.27.24.2.08.58.08.63 0 1.22-.35m0 0"/>
    <path id="w" d="M1.28-3.36q0 1.2.6 1.88.57.69 1.37.68.53 0 .92-.28.41-.3.67-1l.18.11A3 3 0 0 1 4.3-.48q-.6.65-1.5.65-.98 0-1.67-.75-.69-.76-.69-2.04 0-1.4.7-2.16a2.3 2.3 0 0 1 1.79-.78q.9 0 1.48.6.6.6.6 1.6Zm0-.34h2.5a3 3 0 0 0-.12-.74q-.15-.33-.44-.51-.29-.2-.61-.2-.48 0-.88.4-.39.38-.45 1.05m0 0"/>
    <path id="x" d="M.5-3.7v-1.7h.25q.1.1.23.1.1 0 .44-.1.56-.15.9-.15.8 0 1.3.36.54.36.54.96 0 .9-1.4 1.3 1.62.36 1.62 1.52 0 .64-.52 1.11-.51.48-1.5.47A3 3 0 0 1 1.2-.06a4 4 0 0 1-1.06-.8L.3-1q.96.74 1.83.73.5 0 .8-.32.34-.34.34-.88 0-1.17-1.52-1.23v-.35q.7 0 1.03-.37.33-.4.33-.83a1 1 0 0 0-.28-.66 1 1 0 0 0-.74-.3Q1.04-5.2.7-3.7Zm0 0"/>
    <path id="y" d="m4.66-5.4.21 1.48h-.25q-.22-.74-.46-.9-.23-.2-.96-.2H2.06v3.75q0 .63.06.75t.2.2q.15.1.57.1V0H.2v-.22q.58-.01.73-.17.18-.16.17-.88v-2.85q0-.58-.06-.74a.4.4 0 0 0-.23-.23 2 2 0 0 0-.61-.08v-.22Zm0 0"/>
    <path id="z" d="M.94-5.4h4.83v.23q-.42 0-.55.08a1 1 0 0 0-.2.2q-.08.11-.08.76v2.86q0 .63.06.75.08.12.2.2.14.1.57.1V0h-2.8v-.22q.44 0 .62-.05.17-.04.27-.21.1-.2.1-.79v-3.75H2.18v2.29q0 1.28-.12 1.8-.12.53-.46.77Q1.26.1.83.1.08.1.08-.53q0-.2.1-.34a.4.4 0 0 1 .32-.15q.2 0 .4.18.23.21.33.21.26 0 .4-.43.12-.45.12-1.56v-1.2q0-.91-.14-1.1-.13-.2-.67-.25Zm0 0"/>
    <path id="A" d="M1.1-5.4h4.78v.23q-.4 0-.54.08a1 1 0 0 0-.2.2q-.08.11-.08.76v2.68q0 .83.14 1.03.15.19.67.2V1.5h-.21q-.03-.48-.25-.84a1.2 1.2 0 0 0-.6-.52A3 3 0 0 0 3.7 0H2.3q-.65 0-1 .1a1.2 1.2 0 0 0-.62.5 2 2 0 0 0-.3.9H.17V-.22q.48 0 .87-.37t.69-1.44q.3-1.05.31-2.1 0-1-.92-1.04Zm1.32.38v.33q0 2.9-1.04 4.3h2q.54 0 .62-.08t.08-.69v-3.86Zm0 0"/>
    <path id="B" d="M5.8 0H4.2q-.73-1.08-1.34-2.2a2 2 0 0 0-.27-.4.4.4 0 0 0-.3-.12l-.23.02v1.43q0 .6.06.75.09.17.25.24.18.06.6.06V0H.27v-.22q.52 0 .67-.19.15-.18.15-.86v-2.85q0-.64-.06-.75a1 1 0 0 0-.2-.2q-.15-.1-.56-.1v-.22h2.7v.22q-.5 0-.61.08l-.2.17q-.1.1-.1.8v1.06h.19q.36 0 .67-.2t.56-.87q.24-.6.38-.84.15-.21.42-.34t.56-.14q.34 0 .52.15t.19.4q0 .2-.14.35a.5.5 0 0 1-.38.14 1 1 0 0 1-.33-.07q-.25-.1-.37-.1-.27 0-.46.47-.18.55-.3.7-.08.16-.35.41.18.07.4.28.23.2.8 1.24.47.8.7 1.03.24.22.68.23Zm0 0"/>
    <path id="C" d="M.3-5.4h3.53v.23q-.6 0-.74.06l-.2.17q-.1.12-.1.82v1.07h.5q.97 0 1.5.17.52.16.8.52.3.36.29.84 0 .68-.57 1.1Q4.77 0 3.48 0H1v-.22q.48 0 .64-.17t.17-.88v-3.75q-.7 0-1.01.2-.3.21-.46.9H.08ZM2.8-.44q.3.06.62.06.7 0 1-.33a1.1 1.1 0 0 0-.03-1.6 1.4 1.4 0 0 0-.98-.34l-.61.04Zm0 0"/>
    <path id="D" d="m3.88-1.4 1.68-4h1.82v.23q-.4 0-.54.08a1 1 0 0 0-.2.2q-.08.11-.08.76v2.86q0 .57.05.72t.23.25q.18.08.54.08V0H4.77v-.22q.48 0 .64-.17t.17-.88v-3.25L3.68 0h-.21L1.52-4.52v3.25q0 .57.06.72t.22.25q.17.08.53.08V0H.27v-.22q.52 0 .67-.19.15-.18.15-.86v-2.85q0-.64-.06-.75a1 1 0 0 0-.2-.2q-.15-.1-.56-.1v-.22h1.9Zm0 0"/>
    <path id="E" d="M6.5 0H3.05v-.22q.68 0 .9-.19.24-.16.25-.7-1.98 0-2.87-.83a2.8 2.8 0 0 1-.88-2.1q0-.94.52-1.6.51-.67 1.28-.92a6 6 0 0 1 1.95-.27q0-.48-.15-.64a.6.6 0 0 0-.32-.22 3 3 0 0 0-.68-.08v-.21H6.5v.21q-.7.03-.92.2-.23.2-.24.74 1.27 0 2 .28.74.3 1.24.92.51.65.51 1.6 0 1.21-.86 2.08-.84.84-2.89.84.02.54.24.7.23.18.92.2ZM5.34-1.55q.86 0 1.38-.22.51-.23.86-.8.34-.6.34-1.48 0-.81-.34-1.37a2 2 0 0 0-.86-.77 4 4 0 0 0-1.38-.2Zm-1.14 0v-4.84q-.9 0-1.4.23t-.83.75q-.33.54-.33 1.36 0 .94.4 1.55.38.6.91.78t1.25.17m0 0"/>
    <path id="F" d="M1.52-1.14q.25 0 .45.19.2.18.2.47 0 .27-.2.46a.6.6 0 0 1-.45.2.64.64 0 0 1-.66-.66.64.64 0 0 1 .66-.66m0 0"/>
    <path id="G" d="M5.53-1.53 4.98 0H.27v-.22a21 21 0 0 0 2.92-3.1q.86-1.2.86-2.2 0-.74-.47-1.23a1.5 1.5 0 0 0-1.13-.5q-.57 0-1.04.34T.7-5.89H.47q.15-1.1.77-1.67.6-.6 1.52-.6.98 0 1.62.63.66.62.66 1.47 0 .6-.28 1.22a8 8 0 0 1-1.43 2.01A45 45 0 0 1 1.52-.89H3.6q.62 0 .87-.05.27-.05.47-.19.22-.13.36-.4Zm0 0"/>
    <path id="H" d="M3.75 2.36v.22q-.9-.45-1.48-1.05A6.2 6.2 0 0 1 .5-2.89q0-1.83.9-3.33t2.35-2.16v.26q-.71.39-1.19 1.09a5 5 0 0 0-.7 1.76q-.22 1.07-.22 2.22 0 1.27.19 2.3.15.8.37 1.3a4.3 4.3 0 0 0 1.55 1.8m0 0"/>
    <path id="I" d="M.9-3.86q.66-1.69 2.27-1.69 1.13 0 1.85.85.7.83.71 1.92 0 1.11-.73 2.03-.72.93-1.95.92Q1.77.17 1.1-.87a4.7 4.7 0 0 1-.66-2.55 6.6 6.6 0 0 1 1.07-3.69q.38-.5.87-.73a5 5 0 0 1 1.75-.25q.9 0 1.1-.05.18-.05.35-.23h.24q-.2.58-.49.82-.26.25-.59.35a6 6 0 0 1-1.12.1q-.9.02-1.24.13a1.6 1.6 0 0 0-.7.52q-.36.42-.56 1.1-.21.7-.24 1.5m2.07-1.3q-.6 0-.97.5t-.37 1.54q0 1.41.5 2.15.5.72 1.18.72.6 0 .96-.5.35-.52.36-1.64 0-1.19-.47-1.97-.45-.8-1.2-.8m0 0"/>
    <path id="J" d="M.27-8.12v-.26a5.4 5.4 0 0 1 2.8 3.07q.45 1.15.46 2.4 0 1.83-.9 3.33A5 5 0 0 1 .27 2.58v-.22q.73-.4 1.2-1.1.46-.69.69-1.74.23-1.08.23-2.25 0-1.26-.2-2.29-.15-.8-.36-1.3a4 4 0 0 0-1.56-1.8m0 0"/>
    <path id="K" d="M5.72-8a4.7 4.7 0 0 0-3.08 1.36A5.6 5.6 0 0 0 .72-2.66C.72-.96 1.82.22 3.34.22c2.5 0 4.94-2.53 5.07-5.24C8.5-6.72 7.33-8 5.7-8m-.13.4c.97 0 1.55.7 1.55 1.82a8.3 8.3 0 0 1-1.34 4.19Q4.82-.2 3.55-.2c-1.02.01-1.57-.7-1.57-2 0-1.16.6-2.92 1.33-3.97.67-.99 1.4-1.44 2.28-1.44m0 0"/>
    <path id="L" d="M7.88-7.84h-2.5v.18c.59.08.73.16.73.44q.02.22-.24.49L4.14-4.72l-.7-1.76a2 2 0 0 1-.2-.68c0-.3.2-.4.86-.5v-.18H.92v.18c.69.07.88.2 1.1.74L3.3-3.77l-.61.7-.72.87-.34.37C1.05-1.16.69-.77.47-.59c-.3.23-.5.34-.81.4V0h2.56v-.19c-.58 0-.78-.1-.78-.4q.01-.29.26-.58l1.82-2.06.8 1.98q.13.32.13.6c0 .34-.12.4-.92.46V0h3.3v-.19c-.85-.1-.95-.17-1.25-.89l-1.24-3.1 2.04-2.34c.62-.68.98-.96 1.5-1.14Zm0 0"/>
    <path id="M" d="M1.1-7.64c.67.1.7.12.9.78l.94 3.24-.74 2.54c-.2.64-.47.85-1.26.9V0H4.4v-.19a6 6 0 0 1-.93-.15q-.12-.09-.14-.33c0-.25.08-.61.38-1.55l.06-.23.36-1.22 2.63-3.24c.39-.48.48-.56.84-.73v-.2H5.33v.2c.58.06.58.06.72.14q.1.06.1.23c0 .32-.54 1.1-1.8 2.55l-.44.56c-.14-.53-.2-.73-.38-1.32-.3-1.04-.44-1.55-.44-1.74 0-.3.16-.36.88-.42v-.2H1.09Zm0 0"/>
    <path id="N" d="M.19-4.8c.14-.04.23-.04.36-.04.5 0 .73.18.97.82.32.9.95 3.47.95 3.93q0 .26-.27.6c-.33.44-.6.79-.75.94-.25.27-.39.36-.54.36q-.1 0-.29-.12-.25-.23-.43-.22a.47.47 0 0 0-.47.47c0 .31.25.53.6.53.77 0 2.34-1.78 3.65-4.17.81-1.49 1.15-2.35 1.15-2.92a.7.7 0 0 0-.67-.68c-.26 0-.47.2-.47.46 0 .18.1.3.35.46.22.13.31.24.31.41 0 .49-.44 1.4-1.47 3.11l-.23-1.39C2.75-3.33 2.08-5.3 1.9-5.3h-.07q-.02.02-.09.02c-.1.01-.55.08-1.19.2L.2-5Zm0 0"/>
    <path id="O" d="M4.38-5H2.06v3.73q0 .63.06.75t.2.2q.15.1.56.1V0H.27v-.22q.52 0 .67-.19.15-.18.15-.86V-4.1q0-.62-.07-.73a1 1 0 0 0-.2-.22q-.14-.1-.55-.1v-.21h5.9v.21q-.4 0-.53.08a1 1 0 0 0-.22.2 2 2 0 0 0-.06.77v2.84q0 .63.06.75t.19.2q.14.1.56.1V0h-2.6v-.22q.47 0 .63-.17t.17-.88Zm0 0"/>
    <path id="P" d="M3.42-.78q-.83.65-1.03.75-.33.15-.69.14-.54 0-.92-.38a1.4 1.4 0 0 1-.36-1q0-.4.19-.68.24-.4.83-.75.6-.36 1.98-.86v-.2q0-.82-.26-1.12t-.74-.3a.8.8 0 0 0-.58.21.6.6 0 0 0-.23.45l.01.35a.6.6 0 0 1-.14.42q-.14.15-.35.14a.5.5 0 0 1-.36-.16.6.6 0 0 1-.13-.42q0-.5.52-.92.5-.42 1.45-.42.7 0 1.17.23.35.2.5.58.1.25.11 1.03v1.83q0 .76.03.94t.1.23.15.05q.1 0 .17-.03.13-.08.47-.44v.33q-.65.9-1.25.89a.6.6 0 0 1-.47-.2q-.15-.2-.17-.7m0-.38V-3.2q-.9.36-1.14.5-.47.24-.67.53t-.19.62q0 .43.25.7.25.3.58.29.46 0 1.17-.6m0 0"/>
    <path id="Q" d="M1.1-5.37h4.76v.21q-.4 0-.55.08a1 1 0 0 0-.2.2 2 2 0 0 0-.06.77v2.66q0 .84.14 1.03t.67.2v1.7h-.22q-.03-.46-.25-.82a1.2 1.2 0 0 0-.6-.52A3 3 0 0 0 3.68 0h-1.4q-.64 0-1.01.1a1.2 1.2 0 0 0-.61.5 2 2 0 0 0-.29.88h-.2v-1.7q.48 0 .87-.37t.69-1.44.3-2.08-.91-1.05ZM2.4-5v.33q0 2.88-1.04 4.3h2q.54 0 .62-.1.08-.09.08-.67V-5Zm0 0"/>
    <path id="R" d="M.27 0v-.22q.5 0 .65-.17.18-.18.17-.88V-4.1q0-.62-.07-.73a1 1 0 0 0-.2-.22q-.14-.1-.55-.1v-.21h2.6v.21q-.38 0-.53.08a1 1 0 0 0-.21.2 2 2 0 0 0-.07.77v2.95q0 .56.1.68.09.1.67.1h.62q.4 0 .5-.04a.2.2 0 0 0 .16-.16q.03-.1.03-.69V-4.1q0-.62-.06-.73a1 1 0 0 0-.2-.22q-.15-.1-.55-.1v-.21h2.5v.21q-.32.02-.47.11a.4.4 0 0 0-.2.25q-.05.15-.05.7v3.02q0 .5.1.61t.62.1h.7q.58 0 .63-.13.04-.12.04-.73V-4.1q0-.62-.06-.73a1 1 0 0 0-.2-.22q-.13-.1-.55-.1v-.21H9v.21q-.4 0-.55.08a1 1 0 0 0-.2.2q-.08.12-.08.77v2.53q0 .8.05.97.05.2.2.28.15.1.58.11v1.7h-.22a1.6 1.6 0 0 0-.45-1.1Q7.9 0 6.83 0Zm0 0"/>
    <path id="S" d="M.92-5.37h4.81v.21q-.38 0-.53.08a1 1 0 0 0-.2.2q-.08.12-.08.77v2.84q0 .63.06.75t.2.2q.15.1.55.1V0H2.95v-.22q.45 0 .63-.05.17-.04.26-.21.1-.2.11-.79V-5h-1.8v2.27q0 1.29-.1 1.8-.12.53-.46.77A1.3 1.3 0 0 1 .83.1Q.08.1.08-.53q0-.2.1-.34a.4.4 0 0 1 .32-.15q.2 0 .4.18.21.23.33.23.27 0 .38-.44.12-.45.12-1.56V-3.8q0-.92-.14-1.1-.12-.2-.67-.26Zm0 0"/>
    <path id="T" d="M.3-5.37h3.5v.21q-.6 0-.72.08l-.21.17q-.1.1-.1.8v1.08h.52q.95 0 1.47.17.53.16.8.52.3.34.29.82 0 .7-.56 1.11-.55.42-1.83.41H1v-.22q.47 0 .63-.17t.17-.88V-5q-.7 0-1 .2t-.47.9H.08ZM2.78-.46q.33.08.63.08.68 0 1-.35t.32-.76q0-.5-.36-.83-.34-.33-.98-.33l-.6.03Zm0 0"/>
    <path id="U" d="M4-2.97V-4.1q0-.56-.06-.72Q3.9-5 3.7-5.08a1 1 0 0 0-.51-.08v-.21h2.6v.21q-.4 0-.54.08a1 1 0 0 0-.2.2q-.08.12-.08.77v2.84q0 .57.05.74.05.15.23.23t.53.08V0H3.06v-.22q.47 0 .61-.06.14-.04.24-.22A2 2 0 0 0 4-1.27v-1.3q-.89.43-1.83.43-.52 0-.81-.13-.28-.14-.36-.3a1.4 1.4 0 0 1-.08-.57v-.97q0-.53-.05-.69a.4.4 0 0 0-.21-.26 1 1 0 0 0-.49-.1v-.21H2.7v.21q-.38 0-.53.08a1 1 0 0 0-.2.2q-.08.12-.08.77v.66q0 .38.05.53.06.12.26.22t.58.1q.64 0 1.22-.37m0 0"/>
    <path id="W" d="M6.47 0H3.03v-.22q.68-.01.9-.17.24-.17.26-.72-2 0-2.86-.83a2.7 2.7 0 0 1-.88-2.08q0-.93.52-1.59.51-.66 1.28-.92.76-.25 1.94-.25-.02-.5-.16-.66a1 1 0 0 0-.31-.22 3 3 0 0 0-.69-.07v-.22h3.44v.22q-.7.03-.92.21-.21.18-.24.74 1.26 0 1.99.28.73.27 1.23.9.52.65.52 1.58-.01 1.22-.86 2.07t-2.88.84q.01.54.24.7.23.18.92.2ZM5.3-1.53q.86 0 1.38-.22.51-.24.84-.81.34-.6.34-1.46 0-.8-.34-1.37a2 2 0 0 0-.86-.77q-.5-.2-1.36-.2Zm-1.12 0v-4.83q-.91 0-1.4.24-.51.22-.84.75-.32.52-.32 1.35 0 .93.39 1.54.38.6.92.78.53.17 1.25.17m0 0"/>
    <path id="X" d="m2.05-1.66 2.33-2.68q-.03-.45-.18-.61-.16-.2-.54-.2v-.22h2.5v.23q-.4 0-.54.08a1 1 0 0 0-.2.2q-.08.1-.08.75v2.84q0 .63.07.75.05.12.2.2.14.1.55.1V0h-2.6v-.22q.48 0 .64-.17t.17-.88v-2.51L2.06-1.1q0 .5.14.68.15.2.56.2V0H.27v-.22q.52 0 .67-.19.15-.18.14-.86V-4.1q0-.62-.06-.73a.5.5 0 0 0-.2-.2q-.14-.1-.55-.1v-.24h2.6v.24q-.4 0-.54.08a1 1 0 0 0-.2.2q-.08.1-.08.75Zm0 0"/>
    <path id="Y" d="m4.64-5.37.22 1.46h-.27q-.22-.7-.45-.89-.22-.18-.95-.18H2.05v3.71q0 .63.06.75.08.12.2.2.15.1.56.1V0H.2v-.22q.54-.01.7-.17t.17-.88V-4.1q0-.56-.06-.72a.4.4 0 0 0-.22-.23 2 2 0 0 0-.61-.08v-.24Zm0 0"/>
    <path id="Z" d="M1.5-1.14q.28 0 .47.2t.19.46-.2.46a.66.66 0 0 1-.92 0 .7.7 0 0 1-.2-.46.64.64 0 0 1 .66-.66m0 0"/>
    <path id="aa" d="M.6-6.44q.36-.8.87-1.23.5-.45 1.3-.44.95 0 1.46.63.4.45.4.98 0 .88-1.1 1.8.74.28 1.11.8.38.55.38 1.27 0 1.05-.66 1.79-.85.98-2.49.98-.8 0-1.1-.2T.48-.48a.4.4 0 0 1 .15-.3q.14-.14.32-.14.15 0 .3.05.1.03.45.21.36.2.49.22.21.07.47.07.59 0 1.03-.46t.45-1.1a2.2 2.2 0 0 0-.53-1.4 2.7 2.7 0 0 0-1.6-.6h-.18v-.2q.45-.05.92-.32.47-.29.67-.66.22-.4.22-.86 0-.6-.37-.97a1.3 1.3 0 0 0-.94-.37q-.93 0-1.53.97Zm0 0"/>
    <path id="ab" d="M3.73 2.34v.22q-.89-.43-1.48-1.03Q1.41.68.95-.48a6 6 0 0 1-.45-2.4q0-1.8.9-3.3a5 5 0 0 1 2.33-2.15v.24Q3.01-7.7 2.55-7a5 5 0 0 0-.7 1.75q-.23 1.06-.23 2.22 0 1.25.2 2.28.15.8.37 1.3.2.48.58.93t.96.86m0 0"/>
    <path id="ac" d="M3.42-.78q-.83.65-1.04.75-.33.15-.68.14-.54 0-.92-.38a1.4 1.4 0 0 1-.36-1q0-.4.19-.68.24-.38.83-.74.6-.36 1.98-.87v-.2q0-.82-.26-1.12t-.74-.3a.8.8 0 0 0-.58.21q-.23.21-.23.45l.01.35a.6.6 0 0 1-.14.42q-.14.15-.35.14a.5.5 0 0 1-.36-.16.6.6 0 0 1-.13-.4q0-.52.52-.94a2.2 2.2 0 0 1 1.43-.42q.72 0 1.18.25.35.17.51.56.1.25.11 1.03v1.83q0 .76.03.94t.1.23q.05.05.15.05t.16-.03q.12-.08.48-.44v.33q-.65.9-1.26.89a.6.6 0 0 1-.46-.2q-.17-.2-.17-.7m0-.38V-3.2q-.9.36-1.14.5-.47.27-.67.54-.2.3-.2.61 0 .43.25.7a.8.8 0 0 0 .59.29q.44 0 1.17-.6m0 0"/>
    <path id="ae" d="M.88-3.83q.67-1.7 2.28-1.7 1.13 0 1.82.84.72.85.72 1.92 0 1.12-.72 2.04-.72.9-1.95.9-1.26 0-1.92-1.04a4.7 4.7 0 0 1-.66-2.54 6.6 6.6 0 0 1 1.07-3.67q.37-.5.86-.72a5 5 0 0 1 1.75-.25q.89 0 1.07-.04.2-.05.36-.24h.24q-.19.57-.47.81-.29.26-.6.35a6 6 0 0 1-1.12.1q-.9.03-1.23.13-.33.12-.7.53a3 3 0 0 0-.57 1.1q-.19.67-.24 1.48m2.07-1.3q-.57 0-.95.49-.37.49-.37 1.53 0 1.4.5 2.14.5.72 1.17.72.6 0 .95-.5.34-.51.34-1.62a4 4 0 0 0-.45-1.97q-.45-.79-1.19-.79m0 0"/>
    <path id="ad" d="M.45 2.13c.9-.6 1.25-.9 1.7-1.44a5.6 5.6 0 0 0 1.27-3.66c0-1.53-.44-2.69-1.5-3.92A5 5 0 0 0 .5-8.11l-.16.19c.97.76 1.3 1.17 1.63 2.08.3.8.42 1.7.42 2.92A7 7 0 0 1 1.91.05 4.4 4.4 0 0 1 .34 1.94Zm0 0"/>
    <clipPath id="a">
      <path d="M186.02 327H427v5H186.02Zm0 0"/>
    </clipPath>
    <clipPath id="V">
      <path d="M409 520h52v30h-52Zm0 0"/>
    </clipPath>
  </defs>
  <path d="m449.98 298.52 18.27-17.98 1.13 1.14-18.27 17.98Zm2.25 2.28a2.4 2.4 0 0 1-3.37-3.42 2.4 2.4 0 0 1 3.37 3.42m14.9-21.4a2.4 2.4 0 0 1 3.4.03 2.4 2.4 0 1 1-3.42 3.36 2.4 2.4 0 0 1 .01-3.4m-45.15 49.09 18.27-17.98 1.12 1.14-18.27 17.99Zm2.25 2.28a2.4 2.4 0 0 1-3.38-3.41 2.4 2.4 0 0 1 3.38 3.41m14.9-21.4a2.4 2.4 0 0 1 3.37 3.42 2.4 2.4 0 0 1-3.38-3.41m0 0"/>
  <path fill="#d9d9d9" fill-rule="evenodd" stroke="#000" stroke-linejoin="round" stroke-miterlimit="10" stroke-width=".6" d="m72.9 98.7 6.78 5.99H432.9l-6.78-6Zm0 0" transform="matrix(.66698 0 0 -.66595 186.02 349.03)"/>
  <g clip-path="url(#a)">
    <path fill="#d9d9d9" fill-rule="evenodd" stroke="#000" stroke-linejoin="round" stroke-miterlimit="10" stroke-width=".6" d="m.9 26.7 6.78 6H360.9l-6.78-6Zm0 0" transform="matrix(.66698 0 0 -.66595 186.02 349.03)"/>
  </g>
  <path fill="#7f7f7f" fill-rule="evenodd" d="M294.67 331.25h13.4v-13.38h-13.4Zm0 0"/>
  <path fill="#666" fill-rule="evenodd" d="m308.07 317.87 50.63-50.55v13.38l-50.63 50.55Zm0 0"/>
  <path fill="#989898" fill-rule="evenodd" d="m294.67 317.87 50.63-50.55h13.4l-50.63 50.55Zm0 0"/>
  <path fill="none" stroke="#000" stroke-miterlimit="8" stroke-width=".6" d="m162.9 46.79 75.9 75.9h20.1V102.6L183 26.7h-20.1Zm0 0h20.09l75.91 75.9M183 46.8V26.7" transform="matrix(.66698 0 0 -.66595 186.02 349.03)"/>
  <use xlink:href="#b" x="447.71" y="313.31"/>
  <use xlink:href="#c" x="439.94" y="300.87"/>
  <use xlink:href="#d" x="431.67" y="313.52"/>
  <use xlink:href="#e" x="243.33" y="277.18"/>
  <use xlink:href="#f" x="195.24" y="325.36"/>
  <use xlink:href="#g" x="283.67" y="343.57"/>
  <use xlink:href="#h" x="293.27" y="343.57"/>
  <use xlink:href="#i" x="299.72" y="343.57"/>
  <use xlink:href="#j" x="303.29" y="343.57"/>
  <use xlink:href="#bB" x="306.49" y="343.57"/>
  <use xlink:href="#k" x="308.89" y="343.57"/>
  <use xlink:href="#l" x="314.91" y="343.57"/>
  <use xlink:href="#m" x="318.93" y="343.57"/>
  <use xlink:href="#n" x="324.15" y="343.57"/>
  <path fill="#d9d9d9" fill-rule="evenodd" stroke="#000" stroke-linejoin="round" stroke-miterlimit="10" stroke-width=".6" d="M9.3 61.5h360v6H9.3Zm0 0" transform="matrix(.66722 0 0 -.66605 182.27 422.47)"/>
  <path fill="#7f7f7f" fill-rule="evenodd" stroke="#000" stroke-linejoin="round" stroke-miterlimit="10" stroke-width=".6" d="M170.7 68.1h20.4v19.8h-20.4Zm0 0" transform="matrix(.66722 0 0 -.66605 182.27 422.47)"/>
  <use xlink:href="#o" x="189.99" y="373.89"/>
  <use xlink:href="#p" x="208.27" y="398.21"/>
  <use xlink:href="#q" x="213.49" y="398.21"/>
  <use xlink:href="#r" x="218.71" y="398.21"/>
  <use xlink:href="#s" x="224.75" y="398.21"/>
  <use xlink:href="#t" x="229.95" y="398.21"/>
  <use xlink:href="#u" x="236.38" y="398.21"/>
  <use xlink:href="#v" x="242.8" y="398.21"/>
  <use xlink:href="#w" x="248.83" y="398.21"/>
  <use xlink:href="#t" x="254.05" y="398.21"/>
  <use xlink:href="#bP" x="260.47" y="398.21"/>
  <use xlink:href="#u" x="263.68" y="398.21"/>
  <use xlink:href="#x" x="270.11" y="398.21"/>
  <use xlink:href="#y" x="274.91" y="398.21"/>
  <use xlink:href="#z" x="278.94" y="398.21"/>
  <use xlink:href="#w" x="284.96" y="398.21"/>
  <use xlink:href="#A" x="290.18" y="398.21"/>
  <use xlink:href="#bP" x="296.2" y="398.21"/>
  <use xlink:href="#B" x="299.42" y="398.21"/>
  <use xlink:href="#C" x="305.43" y="398.21"/>
  <use xlink:href="#D" x="311.84" y="398.21"/>
  <use xlink:href="#bP" x="319.49" y="398.21"/>
  <use xlink:href="#r" x="322.29" y="398.21"/>
  <use xlink:href="#w" x="328.33" y="398.21"/>
  <use xlink:href="#z" x="333.53" y="398.21"/>
  <use xlink:href="#p" x="339.56" y="398.21"/>
  <use xlink:href="#s" x="344.78" y="398.21"/>
  <use xlink:href="#q" x="349.6" y="398.21"/>
  <use xlink:href="#s" x="354.81" y="398.21"/>
  <use xlink:href="#bP" x="360.03" y="398.21"/>
  <use xlink:href="#o" x="363.85" y="398.21"/>
  <use xlink:href="#E" x="282.81" y="417.09"/>
  <use xlink:href="#u" x="292.42" y="417.09"/>
  <use xlink:href="#y" x="298.82" y="417.09"/>
  <use xlink:href="#F" x="302.42" y="417.09"/>
  <use xlink:href="#bP" x="305.61" y="417.09"/>
  <use xlink:href="#G" x="308.01" y="417.09"/>
  <use xlink:href="#H" x="314.05" y="417.09"/>
  <use xlink:href="#I" x="318.02" y="417.09"/>
  <use xlink:href="#J" x="324.02" y="417.09"/>
  <path fill="#d9d9d9" fill-rule="evenodd" stroke="#000" stroke-linejoin="round" stroke-miterlimit="10" stroke-width=".6" d="M53.1 101.7a36 36 0 1 0 72 0 36 36 0 0 0-72 0Zm0 0" transform="matrix(.99885 0 0 -.99728 108 636.95)"/>
  <path d="M125.08 535.23h143.85v.6H125.08Zm137.99-3.45 6.44 3.75-6.44 3.75a.3.3 0 0 1-.41-.1c-.08-.15-.04-.33.11-.41l6-3.5v.52l-6-3.5a.3.3 0 0 1-.11-.4.3.3 0 0 1 .41-.11m0 0"/>
  <path d="M196.7 607.93V464.32h.6v143.61Zm-3.46-137.77 3.76-6.44 3.76 6.44a.3.3 0 0 1-.11.4.3.3 0 0 1-.41-.1l-3.5-5.99h.52l-3.5 6a.3.3 0 0 1-.41.1.3.3 0 0 1-.11-.41m0 0"/>
  <use xlink:href="#K" x="183.64" y="548.69"/>
  <use xlink:href="#L" x="263.5" y="548.69"/>
  <use xlink:href="#M" x="183.64" y="470.65"/>
  <path fill="none" stroke="#000" stroke-linejoin="round" stroke-miterlimit="10" stroke-width="1.2" d="M1.8 130.2h64.8" transform="matrix(.99885 0 0 -.99728 108 636.95)"/>
  <path d="m138.4 507.1-4-2 9.99 2-10 2Zm15.75.28v27.59h-.6v-27.6Zm-3.06 3.82 2.76-4.4 2.75 4.4a.3.3 0 0 1-.1.42.3.3 0 0 1-.4-.1l-2.5-3.98h.5l-2.5 3.98a.3.3 0 0 1-.41.1.3.3 0 0 1-.1-.42m5.51 19.93-2.75 4.4-2.76-4.4a.3.3 0 0 1 .1-.41.3.3 0 0 1 .41.1l2.5 3.99h-.5l2.5-3.99a.3.3 0 0 1 .4-.1.3.3 0 0 1 .1.4m0 0"/>
  <use xlink:href="#N" x="145.23" y="525.28"/>
  <use xlink:href="#O" x="115.82" y="496.48"/>
  <use xlink:href="#P" x="122.4" y="496.48"/>
  <use xlink:href="#Q" x="127.78" y="496.48"/>
  <use xlink:href="#P" x="133.77" y="496.48"/>
  <use xlink:href="#R" x="139.15" y="496.48"/>
  <use xlink:href="#cl" x="148.14" y="496.48"/>
  <use xlink:href="#S" x="150.54" y="496.48"/>
  <use xlink:href="#T" x="156.55" y="496.48"/>
  <use xlink:href="#U" x="162.53" y="496.48"/>
  <path fill="#d9d9d9" fill-rule="evenodd" stroke="#000" stroke-linejoin="round" stroke-miterlimit="10" stroke-width=".6" d="M233.7 102.3a36 36 0 1 0 72 0 36 36 0 0 0-72 0Zm0 0" transform="matrix(.99885 0 0 -.99728 108 636.95)"/>
  <path fill="none" stroke="#000" stroke-linejoin="round" stroke-miterlimit="10" stroke-width="1.2" d="M182.4 130.8h64.8" transform="matrix(.99885 0 0 -.99728 108 636.95)"/>
  <path d="m318.79 506.5-4-1.99 10 2-10 1.99Zm0 0"/>
  <use xlink:href="#O" x="296.51" y="495.87"/>
  <use xlink:href="#P" x="303.1" y="495.87"/>
  <use xlink:href="#Q" x="308.48" y="495.87"/>
  <use xlink:href="#P" x="314.47" y="495.87"/>
  <use xlink:href="#R" x="319.85" y="495.87"/>
  <use xlink:href="#cl" x="328.84" y="495.87"/>
  <use xlink:href="#S" x="331.24" y="495.87"/>
  <use xlink:href="#T" x="337.24" y="495.87"/>
  <use xlink:href="#U" x="343.22" y="495.87"/>
  <path fill="none" stroke="#000" stroke-linejoin="round" stroke-miterlimit="10" d="m247.7 131.38 55.64-14.91" transform="matrix(.99885 0 0 -.99728 108 636.95)"/>
  <path d="m379.4 512.34-3.34-2.96 9.13 4.5-10.17-.64Zm0 0"/>
  <g clip-path="url(#V)">
    <path fill="none" stroke="#000" stroke-linejoin="round" stroke-miterlimit="10" d="m302.78 116.73 49.88-28.8" transform="matrix(.99885 0 0 -.99728 108 636.95)"/>
  </g>
  <path d="m431.94 532.93-2.47-3.72 7.65 6.72-9.65-3.27Zm0 0"/>
  <path fill="none" stroke="#000" stroke-linejoin="round" stroke-miterlimit="10" d="m302.83 117.23-28.22-50.2" transform="matrix(.99885 0 0 -.99728 108 636.95)"/>
  <path d="m398.32 541.64 3.7-2.5-6.64 7.72 3.16-9.67Zm0 0"/>
  <path fill="none" stroke="#000" stroke-linejoin="round" stroke-miterlimit="10" d="m273.93 66.65-40-41.44" transform="matrix(.99885 0 0 -.99728 108 636.95)"/>
  <path d="m364.36 588.32 4.22-1.49-8.38 5.8 5.5-8.57Zm0 0"/>
  <path fill="none" stroke="#000" stroke-linejoin="round" stroke-miterlimit="10" d="m274.9 66.96-15.3 15.28" transform="matrix(.99885 0 0 -.99728 108 636.95)"/>
  <path d="m378.64 566.24 1.4 4.23-5.65-8.46 8.48 5.64Zm0 0"/>
  <path fill="none" stroke="#000" stroke-dasharray="4 3" stroke-linejoin="round" stroke-miterlimit="10" d="m258.69 83.36-20.37 20.37m10.91-10.91-1.45 1.45" transform="matrix(.99885 0 0 -.99728 108 636.95)"/>
  <use xlink:href="#W" x="169.2" y="630.15"/>
  <use xlink:href="#X" x="178.8" y="630.15"/>
  <use xlink:href="#Y" x="185.41" y="630.15"/>
  <use xlink:href="#Z" x="189" y="630.15"/>
  <use xlink:href="#cu" x="192" y="630.15"/>
  <use xlink:href="#aa" x="193.79" y="630.15"/>
  <use xlink:href="#ab" x="199.8" y="630.15"/>
  <use xlink:href="#ac" x="203.99" y="630.15"/>
  <use xlink:href="#ad" x="209.43" y="630.15"/>
  <use xlink:href="#W" x="371.08" y="630.15"/>
  <use xlink:href="#X" x="380.67" y="630.15"/>
  <use xlink:href="#Y" x="387.26" y="630.15"/>
  <use xlink:href="#Z" x="390.85" y="630.15"/>
  <use xlink:href="#cu" x="393.85" y="630.15"/>
  <use xlink:href="#aa" x="395.64" y="630.15"/>
  <use xlink:href="#ab" x="401.64" y="630.15"/>
  <use xlink:href="#ae" x="405.81" y="630.15"/>
  <use xlink:href="#ad" x="411.9" y="630.15"/>
</svg>
