<svg xmlns="http://www.w3.org/2000/svg" xmlns:xlink="http://www.w3.org/1999/xlink" width="595.32" height="841.92" viewBox="0 0 595.32 841.92">
  <defs>
    <path id="m" d="M4.1-.94q.3 0 .48-.03.16-.04.28-.12l.17-.2.16-.43h.48L5.57 0H.76v-.28q.26-.6.69-1.25.42-.66 1.22-1.53.67-.75.96-1.14.33-.42.49-.72a2.4 2.4 0 0 0 .31-1.13q0-.45-.14-.78t-.44-.53a1.3 1.3 0 0 0-.71-.19q-1.14 0-1.5 1.22h-.7v-1.12a6 6 0 0 1 2.44-.64q1.07 0 1.64.48.56.46.56 1.38 0 .3-.06.57-.07.28-.2.52-.14.25-.37.55T4.47-4l-.92 1Q2.42-1.8 1.9-.94Zm0 0"/>
    <path id="h" d="M5.52-8.4 1.28 2.53H.36L4.6-8.4Zm0 0"/>
    <path id="o" d="M1.6-3.72q.13-.56.13-.86a.6.6 0 0 0-.07-.34q-.09-.1-.25-.11a.6.6 0 0 0-.38.16q-.2.14-.56.53l-.33-.33q.54-.56.9-.8.35-.24.8-.23.38 0 .58.25.22.23.22.62 0 .32-.14.7l.08.02q.55-.81 1.08-1.2.52-.4 1.07-.4t.83.34q.3.31.3.85 0 .38-.16 1.05l-.39 1.55q-.15.63-.15.89 0 .24.07.34.08.12.24.11.18 0 .37-.14.2-.15.57-.55l.34.33q-.51.54-.9.78a1.5 1.5 0 0 1-.83.25.8.8 0 0 1-.63-.26 1 1 0 0 1-.22-.7q0-.38.19-1.13l.26-1 .2-.81q.04-.27.04-.44 0-.4-.14-.58t-.44-.19a1 1 0 0 0-.53.2q-.3.2-.6.6-.33.4-.52.77a4 4 0 0 0-.32.92L1.77 0H.75Zm0 0"/>
    <path id="f" d="M1.92-3.17q-.66.3-1.54.64l-.15-.49q.94-.3 1.82-.73l.36-1.66q.32-1.48.92-2.2t1.42-.73q.39 0 .64.17.26.15.38.44.1.28.1.62 0 .55-.25 1.14-.25.6-.87 1.19-.6.58-1.78 1.19l-.38 1.7q-.12.58-.12.86 0 .24.08.34.07.12.25.11.15 0 .3-.08t.3-.21l.32-.35.36-.5.4.31q-.4.57-.7.86t-.64.47-.72.17q-.45 0-.69-.26A1 1 0 0 1 1.5-.9q0-.45.16-1.14Zm1.17-.99q.97-.6 1.49-1.4.53-.81.53-1.7 0-.3-.11-.46a.4.4 0 0 0-.33-.17.7.7 0 0 0-.5.23 2 2 0 0 0-.39.68q-.18.45-.33 1.2Zm0 0"/>
    <path id="r" d="M6.94-5.3q-.75.99-1.72 2.4-.14 1.15-.14 1.6 0 .38.08.55t.3.17q.15 0 .37-.14.2-.14.45-.42l.33.31q-.48.54-.86.74-.36.18-.73.18-.8 0-.79-1.14 0-.24.04-.54H4.2q-.6.88-1.14 1.3-.53.38-1.15.38-.43 0-.72-.25Q.89-.4.75-.8t-.14-.88q0-1.05.39-2 .4-.93 1.1-1.47a2.6 2.6 0 0 1 1.62-.54q.65 0 1.01.42.38.4.43 1.2l.04-.01.78-1.52h1ZM4.39-2.84q.1-.62.1-1.08-.01-.68-.2-.99-.2-.32-.62-.32-.53 0-1 .48t-.75 1.31q-.27.82-.26 1.67 0 .6.17.88t.53.28q.5 0 1.03-.58.53-.6 1-1.65m0 0"/>
    <path id="t" d="M1.92-3.17q-.66.3-1.54.64l-.15-.49q.94-.3 1.82-.73l.36-1.66q.32-1.48.92-2.2t1.42-.73q.39 0 .64.17.26.15.38.44.1.28.1.62 0 .55-.25 1.14-.25.6-.87 1.19-.6.58-1.78 1.19l-.38 1.7q-.12.58-.12.86 0 .24.08.34.07.12.25.11.15 0 .3-.08t.3-.21l.32-.35.36-.5.4.31q-.4.57-.7.86t-.64.47-.72.17q-.45 0-.69-.26A1 1 0 0 1 1.5-.9q0-.45.16-1.14Zm1.17-.99q.97-.6 1.49-1.4.53-.81.53-1.7 0-.3-.11-.46a.4.4 0 0 0-.33-.17.7.7 0 0 0-.5.23 2 2 0 0 0-.39.68q-.18.45-.33 1.2Zm0 0"/>
    <clipPath id="d">
      <path d="M174.15 629.7h2.17v72.39h-2.17Zm0 0"/>
    </clipPath>
    <clipPath id="g">
      <path d="M115 677h6v9.54h-6Zm0 0"/>
    </clipPath>
    <clipPath id="n">
      <path d="M152 674h8v6.06h-8Zm0 0"/>
    </clipPath>
    <clipPath id="p">
      <path d="M100.25 700.43h75.56v2.05h-75.56Zm0 0"/>
    </clipPath>
    <clipPath id="s">
      <path d="M134 639h7v9.9h-7Zm0 0"/>
    </clipPath>
    <linearGradient id="e" x1="174.35" x2="176.52" y1="175.7" y2="175.7" gradientTransform="matrix(.99886 0 0 -.99886 0 841.4)" gradientUnits="userSpaceOnUse">
      <stop offset="0" stop-color="#7f7f7f"/>
      <stop offset=".5" stop-color="#7f7f7f"/>
      <stop offset=".5" stop-color="gray"/>
      <stop offset=".51" stop-color="#818181"/>
      <stop offset=".51" stop-color="#828282"/>
      <stop offset=".52" stop-color="#838383"/>
      <stop offset=".52" stop-color="#858585"/>
      <stop offset=".52" stop-color="#868686"/>
      <stop offset=".53" stop-color="#878787"/>
      <stop offset=".53" stop-color="#888"/>
      <stop offset=".54" stop-color="#8a8a8a"/>
      <stop offset=".54" stop-color="#8b8b8b"/>
      <stop offset=".54" stop-color="#8c8c8c"/>
      <stop offset=".55" stop-color="#8d8d8d"/>
      <stop offset=".55" stop-color="#8f8f8f"/>
      <stop offset=".55" stop-color="#909090"/>
      <stop offset=".56" stop-color="#919191"/>
      <stop offset=".56" stop-color="#929292"/>
      <stop offset=".57" stop-color="#939393"/>
      <stop offset=".57" stop-color="#959595"/>
      <stop offset=".57" stop-color="#969696"/>
      <stop offset=".58" stop-color="#979797"/>
      <stop offset=".58" stop-color="#989898"/>
      <stop offset=".59" stop-color="#9a9a9a"/>
      <stop offset=".59" stop-color="#9b9b9b"/>
      <stop offset=".59" stop-color="#9c9c9c"/>
      <stop offset=".6" stop-color="#9d9d9d"/>
      <stop offset=".6" stop-color="#9f9f9f"/>
      <stop offset=".61" stop-color="#a0a0a0"/>
      <stop offset=".61" stop-color="#a1a1a1"/>
      <stop offset=".61" stop-color="#a2a2a2"/>
      <stop offset=".62" stop-color="#a4a4a4"/>
      <stop offset=".62" stop-color="#a5a5a5"/>
      <stop offset=".63" stop-color="#a6a6a6"/>
      <stop offset=".63" stop-color="#a7a7a7"/>
      <stop offset=".63" stop-color="#a8a8a8"/>
      <stop offset=".64" stop-color="#aaa"/>
      <stop offset=".64" stop-color="#ababab"/>
      <stop offset=".64" stop-color="#acacac"/>
      <stop offset=".65" stop-color="#adadad"/>
      <stop offset=".65" stop-color="#afafaf"/>
      <stop offset=".66" stop-color="#b0b0b0"/>
      <stop offset=".66" stop-color="#b1b1b1"/>
      <stop offset=".66" stop-color="#b2b2b2"/>
      <stop offset=".67" stop-color="#b4b4b4"/>
      <stop offset=".67" stop-color="#b5b5b5"/>
      <stop offset=".68" stop-color="#b6b6b6"/>
      <stop offset=".68" stop-color="#b7b7b7"/>
      <stop offset=".68" stop-color="#b9b9b9"/>
      <stop offset=".69" stop-color="#bababa"/>
      <stop offset=".69" stop-color="#bbb"/>
      <stop offset=".7" stop-color="#bcbcbc"/>
      <stop offset=".7" stop-color="#bdbdbd"/>
      <stop offset=".7" stop-color="#bfbfbf"/>
      <stop offset=".71" stop-color="silver"/>
      <stop offset=".71" stop-color="#c1c1c1"/>
      <stop offset=".71" stop-color="#c2c2c2"/>
      <stop offset=".72" stop-color="#c4c4c4"/>
      <stop offset=".72" stop-color="#c5c5c5"/>
      <stop offset=".73" stop-color="#c6c6c6"/>
      <stop offset=".73" stop-color="#c7c7c7"/>
      <stop offset=".73" stop-color="#c9c9c9"/>
      <stop offset=".74" stop-color="#cacaca"/>
      <stop offset=".74" stop-color="#cbcbcb"/>
      <stop offset=".75" stop-color="#ccc"/>
      <stop offset=".75" stop-color="#cecece"/>
      <stop offset="1" stop-color="#cecece"/>
    </linearGradient>
    <linearGradient id="q" x1="138.18" x2="138.18" y1="141.13" y2="139.08" gradientTransform="matrix(.99886 0 0 -.99886 0 841.4)" gradientUnits="userSpaceOnUse">
      <stop offset="0" stop-color="#7f7f7f"/>
      <stop offset=".5" stop-color="#7f7f7f"/>
      <stop offset=".5" stop-color="gray"/>
      <stop offset=".51" stop-color="#818181"/>
      <stop offset=".51" stop-color="#828282"/>
      <stop offset=".52" stop-color="#838383"/>
      <stop offset=".52" stop-color="#858585"/>
      <stop offset=".52" stop-color="#868686"/>
      <stop offset=".53" stop-color="#878787"/>
      <stop offset=".53" stop-color="#888"/>
      <stop offset=".54" stop-color="#898989"/>
      <stop offset=".54" stop-color="#8a8a8a"/>
      <stop offset=".54" stop-color="#8b8b8b"/>
      <stop offset=".55" stop-color="#8c8c8c"/>
      <stop offset=".55" stop-color="#8d8d8d"/>
      <stop offset=".55" stop-color="#8e8e8e"/>
      <stop offset=".56" stop-color="#8f8f8f"/>
      <stop offset=".56" stop-color="#909090"/>
      <stop offset=".57" stop-color="#919191"/>
      <stop offset=".57" stop-color="#939393"/>
      <stop offset=".57" stop-color="#949494"/>
      <stop offset=".58" stop-color="#959595"/>
      <stop offset=".58" stop-color="#969696"/>
      <stop offset=".59" stop-color="#979797"/>
      <stop offset=".59" stop-color="#989898"/>
      <stop offset=".59" stop-color="#999"/>
      <stop offset=".6" stop-color="#9a9a9a"/>
      <stop offset=".6" stop-color="#9b9b9b"/>
      <stop offset=".61" stop-color="#9c9c9c"/>
      <stop offset=".61" stop-color="#9d9d9d"/>
      <stop offset=".61" stop-color="#9e9e9e"/>
      <stop offset=".62" stop-color="#9f9f9f"/>
      <stop offset=".62" stop-color="#a1a1a1"/>
      <stop offset=".63" stop-color="#a2a2a2"/>
      <stop offset=".63" stop-color="#a3a3a3"/>
      <stop offset=".63" stop-color="#a4a4a4"/>
      <stop offset=".64" stop-color="#a5a5a5"/>
      <stop offset=".64" stop-color="#a6a6a6"/>
      <stop offset=".64" stop-color="#a7a7a7"/>
      <stop offset=".65" stop-color="#a8a8a8"/>
      <stop offset=".65" stop-color="#a9a9a9"/>
      <stop offset=".66" stop-color="#aaa"/>
      <stop offset=".66" stop-color="#ababab"/>
      <stop offset=".66" stop-color="#acacac"/>
      <stop offset=".67" stop-color="#adadad"/>
      <stop offset=".67" stop-color="#afafaf"/>
      <stop offset=".68" stop-color="#b0b0b0"/>
      <stop offset=".68" stop-color="#b1b1b1"/>
      <stop offset=".68" stop-color="#b2b2b2"/>
      <stop offset=".69" stop-color="#b3b3b3"/>
      <stop offset=".69" stop-color="#b4b4b4"/>
      <stop offset=".7" stop-color="#b5b5b5"/>
      <stop offset=".7" stop-color="#b6b6b6"/>
      <stop offset=".7" stop-color="#b7b7b7"/>
      <stop offset=".71" stop-color="#b8b8b8"/>
      <stop offset=".71" stop-color="#b9b9b9"/>
      <stop offset=".71" stop-color="#bababa"/>
      <stop offset=".72" stop-color="#bbb"/>
      <stop offset=".72" stop-color="#bdbdbd"/>
      <stop offset=".73" stop-color="#bebebe"/>
      <stop offset=".73" stop-color="#bfbfbf"/>
      <stop offset=".73" stop-color="silver"/>
      <stop offset=".74" stop-color="#c1c1c1"/>
      <stop offset=".74" stop-color="#c2c2c2"/>
      <stop offset=".75" stop-color="#c3c3c3"/>
      <stop offset=".75" stop-color="#c4c4c4"/>
      <stop offset="1" stop-color="#c4c4c4"/>
    </linearGradient>
  </defs>
  <g clip-path="url(#d)">
    <path fill="url(#e)" d="M174.15 702.09v-72.4h2.17v72.4Zm0 0"/>
  </g>
  <use xlink:href="#f" x="108.62" y="685.68"/>
  <g clip-path="url(#g)">
    <use xlink:href="#h" x="114.85" y="685.68"/>
  </g>
  <use xlink:href="#m" x="120.72" y="685.68"/>
  <path d="M106.3 668.69v26.6h-.74v-26.6Zm-.37 0-2 2 2-6 2 6Zm0 26.6 2-1.99-2 6-2-6Zm0 0"/>
  <path fill="none" stroke="#000" stroke-linejoin="round" stroke-miterlimit="10" stroke-width="1.5" d="M173.8 629.67H99.95"/>
  <g clip-path="url(#n)">
    <use xlink:href="#o" x="152.37" y="679.92"/>
  </g>
  <path fill="none" stroke="#000" stroke-dasharray="5.99316 2.247435" stroke-linejoin="round" stroke-miterlimit="10" stroke-width=".75" d="M73.81 664.42h34.64"/>
  <path fill="none" stroke="#000" stroke-linejoin="round" stroke-miterlimit="10" stroke-width="1.5" d="M100.29 700.27v-70.7"/>
  <g clip-path="url(#p)">
    <path fill="url(#q)" d="M100.25 702.48v-2.05h75.56v2.05Zm0 0"/>
  </g>
  <path fill="none" stroke="#000" stroke-linejoin="round" stroke-miterlimit="10" d="m82.93 651.78 16.96 12.37"/>
  <path d="m66.52 640.4 13.73 10.03.59-.81-13.73-10.03Zm14.02 9.63-2.79.43 6.02 1.91-3.66-5.14Zm0 0"/>
  <path fill="none" stroke="#000" stroke-linejoin="round" stroke-miterlimit="10" stroke-width=".5" d="M87.93 664.65c-1.02-2.25-.22-5.11 2-7.14"/>
  <use xlink:href="#r" x="78.77" y="661.82"/>
  <path d="M169.38 635.77h-64.44v.75h64.44Zm0 .38-2 2 6-2-6-2Zm-64.44 0 2-2-6 2 6 2Zm0 0"/>
  <g clip-path="url(#s)">
    <use xlink:href="#t" x="134.27" y="648.13"/>
  </g>
  <path fill="none" stroke="#000" stroke-linejoin="round" stroke-miterlimit="10" stroke-width="1.5" d="M173.32 700.27v-70.7m.39 70.04H99.9m-.67-239.25v10.85"/>
</svg>
