<svg xmlns="http://www.w3.org/2000/svg" xmlns:xlink="http://www.w3.org/1999/xlink" width="200" height="300" viewBox="0 0 200 300">
  <defs>
    <path id="j" d="M.94-6.34v-1.11q.66-.33 1.26-.49t1.14-.15q.68 0 1.16.2.5.21.77.6.26.36.26.92a1.9 1.9 0 0 1-.76 1.53 5 5 0 0 1-.93.54v.05q.36.08.7.23.31.15.57.4.27.24.42.59t.16.78q0 .68-.3 1.2-.3.54-.9.85T3 .1A6 6 0 0 1 .84-.34v-1.23h.7q.21.6.54.89.33.27.92.26.76 0 1.16-.4.38-.42.39-1.24 0-.85-.52-1.3t-1.51-.46H2v-.52q.78-.04 1.33-.3.54-.26.8-.67.26-.4.26-.9 0-.64-.34-.99-.35-.36-1-.36-.57 0-.9.3-.35.3-.5.9Zm0 0"/>
    <path id="l" d="M4.1-.94q.3 0 .48-.03.16-.04.28-.12l.17-.2.16-.43h.48L5.57 0H.76v-.28q.26-.6.69-1.25.42-.66 1.22-1.53.67-.75.96-1.14.33-.42.49-.72a2.4 2.4 0 0 0 .31-1.13q0-.45-.14-.78t-.44-.53a1.3 1.3 0 0 0-.71-.19q-1.14 0-1.5 1.22h-.7v-1.12a6 6 0 0 1 2.44-.64q1.07 0 1.64.48.56.46.56 1.38 0 .3-.06.57-.07.28-.2.52-.14.25-.37.55T4.47-4l-.92 1Q2.42-1.8 1.9-.94Zm0 0"/>
    <path id="n" d="M3.5 0H1.03l.06-.28q.23-.04.35-.1.1-.05.19-.18.08-.12.17-.4.1-.25.2-.79l1.27-5.73h-.75q-.37 0-.58.1-.23.11-.44.4-.22.27-.53.95H.4L.84-8h6.13l-.45 2.06h-.57q0-.56-.03-.84-.03-.3-.12-.44t-.2-.2a1 1 0 0 0-.41-.06H4.3L3.05-1.7q-.07.22-.08.36l-.05.54q0 .2.05.3.06.08.17.14.12.05.42.08Zm0 0"/>
    <path id="p" d="M1.6-3.7q.14-.53.13-.88a.6.6 0 0 0-.07-.34q-.09-.1-.25-.11a.6.6 0 0 0-.38.16q-.2.14-.56.53l-.33-.33q.53-.55.9-.78.36-.25.8-.25.36 0 .58.25.22.23.22.62a2 2 0 0 1-.14.7l.08.02q1.08-1.6 2.15-1.6.64 0 .99.5.36.49.36 1.37 0 .97-.4 1.9A4 4 0 0 1 4.62-.45q-.7.54-1.55.54-.78 0-1.3-.34L1.5 1.03q-.1.41-.1.69 0 .26.13.37.15.1.52.14L2 2.52H.19Zm.6 1.65a4 4 0 0 0-.1.8q0 .47.2.67t.68.2q.3 0 .55-.1.25-.13.47-.35.24-.21.4-.53.2-.33.33-.73.15-.43.22-.86.08-.45.08-.85 0-.6-.17-.9a.6.6 0 0 0-.55-.32q-.3 0-.6.2-.27.21-.62.66t-.54.88q-.2.44-.3 1Zm0 0"/>
    <path id="o" d="M4.08-1.53q0 .34.03.51.05.18.14.29t.27.17.45.1l.73.04V0H1.38v-.42q.65-.03.92-.08.28-.06.42-.16.15-.09.22-.28.08-.18.08-.6v-4.74q0-.24-.1-.34a.3.3 0 0 0-.23-.11q-.19 0-.53.2-.35.18-.86.53l-.25-.45L3.78-8.1h.33q-.03.56-.03 1.56Zm0 0"/>
    <path id="q" d="M3.03-.28q.36-.1.49-.2.12-.13.15-.33.03-.23.03-.66v-.95H.45v-.44l3.43-5.19h.84V-3h.12q.35 0 .49-.05.14-.04.23-.17.11-.12.19-.42h.44l-.07 1.22h-1.4v.95l.01.58q.04.19.1.3t.19.17q.11.06.39.14V0H3.03ZM1.43-3H3.7v-1.45a48 48 0 0 1 .07-2.27H3.7L1.42-3.08Zm0 0"/>
    <clipPath id="i">
      <path d="M97 225h6v8.45h-6Zm0 0"/>
    </clipPath>
    <clipPath id="k">
      <path d="M175 182h6v8.9h-6Zm0 0"/>
    </clipPath>
    <clipPath id="m">
      <path d="M182 224h7v8.14h-7Zm0 0"/>
    </clipPath>
  </defs>
  <path d="m93.53 216.04.01 8.6h-1v-8.6Zm-.5 0-2 2 2-6 2 5.98Zm2 8.6a2 2 0 1 1-3.98.01 2 2 0 0 1 3.99-.02m0 0"/>
  <path fill="none" stroke="#000" stroke-dasharray="2.99658 2.247435" stroke-linejoin="round" stroke-miterlimit="10" stroke-width=".75" d="M93.02 236.25v-27"/>
  <path fill="none" stroke="#000" stroke-linejoin="round" stroke-miterlimit="10" d="M93.02 207.02v15.18"/>
  <g clip-path="url(#i)">
    <use xlink:href="#j" x="96.39" y="233.23"/>
  </g>
  <path fill="none" stroke="#000" stroke-dasharray="2.99658 2.247435" stroke-linejoin="round" stroke-miterlimit="10" stroke-width=".75" d="M150.66 187.43H67.79m24.58 37.37L68.2 236.15"/>
  <g clip-path="url(#k)">
    <use xlink:href="#l" x="175.02" y="190.8"/>
  </g>
  <g clip-path="url(#m)">
    <use xlink:href="#n" x="181.85" y="232.04"/>
  </g>
  <path d="m68.97 236.59.01-60.8h-1l-.01 60.8Zm-.48-60.8 2 2-2-6-2 6Zm0 0"/>
  <path d="M68.82 236.48h112.52v-1H68.82Zm112.52-.5-2 1.99 6-2-6-2Zm0 0"/>
  <use xlink:href="#o" x="103.94" y="183.37"/>
  <use xlink:href="#p" x="72.78" y="175.46"/>
  <path d="M109.86 186.8h20.64v1h-20.64Zm0 2.5a2 2 0 0 1 0-4 2 2 0 1 1 0 4m20.64-2-2-2 6 2-6 2Zm0 0"/>
  <path d="M131.4 186.89h39.94v1h-39.95Zm39.94-1.5a2 2 0 1 1 0 4 2 2 0 0 1 0-4m0 0"/>
  <use xlink:href="#q" x="84.77" y="204.95"/>
  <path fill="none" stroke="#000" stroke-linejoin="round" stroke-miterlimit="10" d="m132.53 205.88-39.5 18.26"/>
  <path fill="none" stroke="#000" stroke-dasharray="2.99658 2.247435" stroke-linejoin="round" stroke-miterlimit="10" stroke-width=".75" d="m92.65 207.97-23.52 27.77"/>
  <path d="m169.8 188.07-35.84 16.57.41.9 35.84-16.56Zm-35.63 17.03.97-2.66-4.6 4.33 6.27-.7Zm-35.07-5.55-6.44 7.6.77.64 6.43-7.59Zm.38.33.23 2.82 2.35-5.86-5.4 3.27Zm-7.96 6.3a2 2 0 1 0 3.05 2.58 2 2 0 0 0-3.05-2.58m0 0"/>
  <path fill="none" stroke="#000" stroke-linejoin="round" stroke-miterlimit="10" d="m108.87 188.75-9 10.6"/>
</svg>
