<svg xmlns="http://www.w3.org/2000/svg" xmlns:xlink="http://www.w3.org/1999/xlink" width="200" height="200" viewBox="0 0 200 200">
  <defs>
    <path id="f" d="M.88-3.05v-.78h7.21v.78Zm0 0"/>
    <path id="g" d="M4.83-3.62q.28.2.45.5t.28.8l.14.7.14.57q.08.25.2.4.1.17.26.24.14.09.42.13L6.66 0H5.03a8 8 0 0 1-.33-1.25l-.26-1.23q-.07-.33-.16-.55a1 1 0 0 0-.22-.33.6.6 0 0 0-.3-.16q-.15-.04-.38-.04H2.7L2.3-1.7q-.07.22-.08.36l-.05.54q0 .2.05.3.06.08.17.14.12.05.42.08L2.75 0H.33L.4-.28a1 1 0 0 0 .32-.13 1 1 0 0 0 .2-.22q.07-.13.13-.34l.19-.78 1-4.52q.13-.57.13-.92 0-.27-.15-.39a1 1 0 0 0-.42-.14L1.87-8h2.61q.61 0 1 .08a2 2 0 0 1 .68.22q.27.15.46.37.19.24.29.53t.09.61q0 .9-.55 1.55-.54.63-1.62.95ZM3.5-4.07q.86 0 1.34-.24.5-.23.79-.75a2.3 2.3 0 0 0 .23-1.56 1 1 0 0 0-.13-.33 1 1 0 0 0-.18-.23 1 1 0 0 0-.3-.17 2 2 0 0 0-.4-.11 5 5 0 0 0-1.29 0l-.75 3.39Zm0 0"/>
    <path id="e" d="M4.9-3.05V.33h-.84v-3.38H.88v-.78h3.18V-7.2h.85v3.37h3.18v.78Zm0 0"/>
    <path id="B" d="M2.78-8v.28q-.27.05-.4.13-.15.05-.22.2a1 1 0 0 0-.07.34q0 .2.05.44l.13.52 1.37 4.78 1.69-4.83.06-.24.06-.23.03-.2.02-.17q0-.35-.17-.5-.16-.18-.55-.24V-8h2.47v.28q-.24.06-.4.17-.13.12-.29.36-.14.25-.34.78L3.8.1h-.77L1.05-6.44Q.9-6.96.77-7.19a1 1 0 0 0-.25-.34 1 1 0 0 0-.4-.19V-8Zm0 0"/>
    <path id="P" d="M4.67 0v-.28q.29-.06.42-.13.15-.07.22-.2.08-.12.08-.34 0-.2-.05-.43L5.2-1.9l-.22-.75H2.25l-.19.58q-.15.44-.2.66t-.05.4q0 .34.17.52.18.15.55.22V0H.03v-.28q.33-.06.56-.4.25-.31.49-.93l2.44-6.48h.93l1.99 6.53q.14.46.25.7t.26.38q.15.12.4.2V0ZM2.42-3.17h2.44L3.75-6.94Zm0 0"/>
    <path id="i" d="M.72-4.14v-.83q.48-.2.92-.31t.83-.11q.35 0 .62.08.3.06.5.22.22.13.33.36.13.2.13.48t-.08.47-.24.37-.39.32q-.22.12-.51.25v.04q.29.05.51.16a1.5 1.5 0 0 1 .72.67q.1.22.11.49 0 .34-.12.62a2 2 0 0 1-.38.5q-.25.21-.62.33-.37.1-.85.1A4 4 0 0 1 .66-.2v-.9h.53q.07.21.15.35a1 1 0 0 0 .5.38q.16.04.36.04.55 0 .82-.25.28-.26.28-.78 0-.56-.38-.84a1.7 1.7 0 0 0-1.06-.28h-.38v-.41q.44-.01.75-.11.33-.1.54-.27a1 1 0 0 0 .42-.84.8.8 0 0 0-.24-.62q-.23-.24-.68-.24-.38 0-.64.2t-.38.63Zm0 0"/>
    <path id="l" d="m2.17-.25.2-.06.16-.06.08-.08.05-.13.01-.19v-.81H.34v-.33l1.22-1.7L2.8-5.33h.65v3.31h.08l.28-.01q.1 0 .17-.06l.11-.16q.06-.1.1-.23h.34a8 8 0 0 1-.05.9H3.45v.55q0 .24.02.37 0 .14.06.2.05.09.14.13t.3.08V0h-1.8Zm-1.1-1.77h1.6v-1.17l.02-.42.01-.4.02-.35h-.05l-.8 1.16-.8 1.14Zm0 0"/>
    <path id="k" d="M3.05-1.1v.23l.03.15q0 .06.04.11l.08.08q.04.05.13.08t.2.04a5 5 0 0 0 .75.05V0H.98v-.36l.43-.02.48-.06.13-.06.09-.08.06-.1a1 1 0 0 0 .06-.41v-2.99q0-.15-.06-.22A.2.2 0 0 0 2-4.38q-.15 0-.4.15-.24.12-.65.39l-.1-.2-.08-.2 1.01-.56 1.03-.56h.25l-.01.42v.67Zm0 0"/>
    <path id="j" d="M3.02-.67q.2 0 .3-.02.13 0 .2-.06t.12-.16l.14-.28h.4q-.05.3-.05.6L4.09 0H.56v-.22a7 7 0 0 1 .53-.87 7 7 0 0 1 .86-.97l.63-.66q.25-.28.39-.5a1.4 1.4 0 0 0 .25-.8q0-.2-.06-.37a1 1 0 0 0-.18-.31 1 1 0 0 0-.28-.2 1 1 0 0 0-.4-.07 1 1 0 0 0-.66.22q-.25.21-.39.6H.7v-.82a6 6 0 0 1 1.78-.42q.44 0 .74.1t.5.27q.18.16.26.4.1.23.1.5a2 2 0 0 1-.11.57q-.05.16-.14.28t-.24.29q-.1.14-.26.3-.16.19-.36.38l-.42.42-.42.43q-.21.2-.38.4-.16.2-.27.38Zm0 0"/>
    <path id="E" d="M5.72-6.55a2 2 0 0 0-.63-.68q-.34-.2-.82-.2-.5 0-.88.2-.36.18-.55.54-.18.35-.18.8 0 .26.07.5.09.24.27.42.2.2.52.31.32.12.84.11.46 0 1.06-.03l-.14.55-.66.22q-.6 0-1.04.06t-.85.22q-.39.14-.64.36-.23.2-.37.5t-.13.7q0 .47.2.78.22.3.57.44.34.13.75.13.5 0 .94-.15t.8-.42q.4-.25.87-.72l.36.36v.27q-.72.6-1.2.86t-.99.39q-.52.12-1.14.12-.7 0-1.22-.23-.5-.24-.78-.66a1.6 1.6 0 0 1-.28-.92q0-.84.51-1.42.53-.6 1.65-.95l-.02-.08a2 2 0 0 1-.73-.72 2 2 0 0 1-.22-.99q0-.58.45-1.09t1.19-.81 1.42-.31q.81 0 1.26.25.46.24.75.8Zm0 0"/>
    <path id="G" d="M3.4-.78q.25 0 .4-.02.14-.03.22-.1.08-.06.14-.18t.14-.34h.4L4.62 0h-4v-.23q.21-.52.57-1.05T2.2-2.53q.57-.63.82-.95a4 4 0 0 0 .59-1.08q.06-.23.06-.46 0-.37-.12-.64a1 1 0 0 0-.97-.6q-.9 0-1.22 1.01h-.6v-.94q.6-.28 1.12-.4.5-.13.92-.13.9 0 1.36.4.45.4.46 1.15 0 .27-.06.48-.04.23-.15.44-.12.21-.3.45l-.4.49-.77.83Q2-1.5 1.58-.78Zm0 0"/>
    <path id="H" d="M3.38-1.27q0 .29.03.43t.1.23.24.14q.15.05.38.08.22.03.6.03V0H1.14v-.36q.54 0 .77-.06.23-.04.36-.13a.4.4 0 0 0 .17-.22q.06-.15.06-.5V-5.2q0-.2-.08-.28a.2.2 0 0 0-.19-.1q-.15 0-.45.16-.28.15-.7.44l-.22-.38 2.28-1.36h.27q-.04.47-.04 1.3Zm0 0"/>
    <path id="M" d="M2.5-.23q.3-.08.4-.18a.5.5 0 0 0 .15-.26q.03-.19.03-.55v-.8H.38v-.35l2.84-4.3h.69v4.19H4q.3 0 .41-.04a.4.4 0 0 0 .2-.15q.08-.1.15-.35h.37l-.06 1H3.9v.8l.01.49q.03.14.08.23.06.1.16.16t.32.1V0H2.5ZM1.17-2.48h1.9v-1.2a33 33 0 0 1 .06-1.88h-.05l-1.9 3.01Zm0 0"/>
    <path id="O" d="M.77-5.27v-.92q.57-.25 1.06-.39.48-.14.95-.14.54 0 .95.17.43.17.65.5.21.31.21.75 0 .42-.17.74-.17.3-.47.54t-.76.46v.04q.3.06.56.2a1.7 1.7 0 0 1 .83.8q.14.3.14.66a2 2 0 0 1-.25 1q-.25.44-.75.69T2.48.08q-.4 0-.89-.1A5 5 0 0 1 .7-.27V-1.3h.58q.17.5.45.74.3.23.77.23.62 0 .94-.34.33-.36.33-1.03 0-.7-.43-1.08-.42-.38-1.25-.38h-.43v-.43q.65-.03 1.09-.24.45-.22.67-.54.22-.35.22-.77 0-.54-.28-.83-.29-.3-.84-.3-.46 0-.75.25-.3.25-.41.75Zm0 0"/>
  </defs>
  <path fill="none" stroke="#000" stroke-linejoin="round" stroke-miterlimit="10" stroke-width="1.5" d="M99.23 160.36v10.85"/>
  <path fill="none" stroke="#000" stroke-linejoin="round" stroke-miterlimit="10" stroke-width=".75" d="M102.95 157.18v17.41"/>
  <use xlink:href="#e" x="105.14" y="178.04"/>
  <use xlink:href="#f" x="88.24" y="176.97"/>
  <use xlink:href="#g" x="76.5" y="148.78"/>
  <use xlink:href="#i" x="83.93" y="151.18"/>
  <use xlink:href="#g" x="104.54" y="137.51"/>
  <use xlink:href="#j" x="111.97" y="139.91"/>
  <use xlink:href="#g" x="90.04" y="97.72"/>
  <use xlink:href="#k" x="97.23" y="100.11"/>
  <path fill="none" stroke="#000" stroke-linejoin="round" stroke-miterlimit="10" d="M132.49 82.16h-63.7m63.5 83.83V81.9m-63.02 84.43v-83.84m29.41 83.31H69.05m63.24 0h-29.02m29.31-43.98h-63.7"/>
  <path fill="#fff" fill-rule="evenodd" stroke="#000" stroke-miterlimit="8" d="M87.77 127.18h25.05v-10.5H87.77Zm0 0"/>
  <use xlink:href="#g" x="167.11" y="97.48"/>
  <use xlink:href="#l" x="174.54" y="99.87"/>
  <path fill="none" stroke="#000" stroke-linejoin="round" stroke-miterlimit="8" d="M195.43 82.1h-63.7m63.33 83.81v-84.09m.29 39.85h-63.69"/>
  <path fill="#fff" fill-rule="evenodd" stroke="#000" stroke-linejoin="round" stroke-miterlimit="8" d="M156.2 121.77a7.9 7.9 0 0 1 7.93-7.91 7.9 7.9 0 0 1 7.94 7.91 7.93 7.93 0 0 1-15.88 0Zm0 0"/>
  <use xlink:href="#B" x="160.52" y="126.36"/>
  <path fill="none" stroke="#000" stroke-linejoin="round" stroke-miterlimit="8" d="M195.55 165.73h-63.64"/>
  <use xlink:href="#E" x="105.62" y="160.05"/>
  <path fill="#fff" fill-rule="evenodd" stroke="#000" stroke-miterlimit="8" d="M87.98 87.32h25v-10.47h-25Zm0 0"/>
  <use xlink:href="#G" x="97.95" y="125.52"/>
  <use xlink:href="#H" x="98.31" y="85.85"/>
  <path fill="#fff" fill-rule="evenodd" stroke="#000" stroke-miterlimit="8" d="M151.3 87.32h25v-10.47h-25Zm0 0"/>
  <use xlink:href="#M" x="161.12" y="85.85"/>
  <path fill="#fff" fill-rule="evenodd" stroke="#000" stroke-miterlimit="8" d="M64.26 158.04h10.12v-25.87H64.26Zm0 0"/>
  <use xlink:href="#O" x="66.91" y="148.3"/>
  <path fill="#fff" fill-rule="evenodd" stroke="#000" stroke-linejoin="round" stroke-miterlimit="8" d="M124.7 143.77c0-4.36 3.56-7.9 7.95-7.9a7.9 7.9 0 1 1 0 15.8 7.9 7.9 0 0 1-7.94-7.9Zm0 0"/>
  <use xlink:href="#B" x="128.87" y="148.54"/>
  <path fill="#fff" fill-rule="evenodd" stroke="#000" stroke-linejoin="round" stroke-miterlimit="8" d="M156.12 165.65c0-4.36 3.55-7.9 7.93-7.9a7.9 7.9 0 0 1 7.94 7.9c0 4.37-3.55 7.9-7.94 7.9a7.9 7.9 0 0 1-7.93-7.9Zm0 0"/>
  <use xlink:href="#P" x="160.88" y="169.06"/>
  <path fill="#fff" fill-rule="evenodd" stroke="#000" stroke-linejoin="round" stroke-miterlimit="8" d="M124.7 102.68c0-4.36 3.56-7.9 7.95-7.9a7.9 7.9 0 1 1 0 15.8 7.9 7.9 0 0 1-7.94-7.9Zm0 0"/>
  <use xlink:href="#P" x="129.11" y="106.23"/>
</svg>
