<svg xmlns="http://www.w3.org/2000/svg" xmlns:xlink="http://www.w3.org/1999/xlink" width="220" height="100" viewBox="0 0 220 100">
  <defs>
    <text id="a" font-family="Times New Roman" font-size="12" font-style="italic">v</text>
    <text id="e" font-family="Times New Roman" font-size="12" font-style="italic">y</text>
    <text id="c" font-family="Times New Roman" font-size="12" font-style="italic">g</text>
    <text id="f" font-family="Times New Roman" font-size="12" font-style="italic">d</text>
    <text id="d" font-family="Times New Roman" font-size="12" font-style="italic">x</text>
    <text id="b" font-family="Times New Roman" font-size="9">0</text>
  </defs>
  <path d="m74.21 70.82 131.13.1v1l-131.13-.1Zm131.13.6-2-2 6 2.01-6 2Zm0 0"/>
  <path d="m74.58 71.47 15.55-17.38-.74-.66-15.55 17.36Zm-1.86-1.67a2 2 0 0 0 .16 2.82 2 2 0 0 0 2.82-.16 2 2 0 0 0-.16-2.82 2 2 0 0 0-2.82.16m17.04-16.05.16 2.83 2.5-5.8-5.48 3.13Zm0 0"/>
  <use xlink:href="#a" x="84.29" y="46.04"/>
  <use xlink:href="#b" x="90.64" y="48.44"/>
  <use xlink:href="#c" x="185.21" y="26.63"/>
  <path d="m181.96 13.82.03 20.73h-1l-.02-20.73Zm-.47 20.73 1.99-2.01-1.99 6-2-6Zm0 0"/>
  <path fill="none" stroke="#000" stroke-linejoin="round" stroke-miterlimit="10" d="M93.06 59.34c2.93 4 4.14 9.4 2.8 12.52"/>
  <path fill="none" stroke="#000" stroke-dasharray="3.99544 2.99658" stroke-linejoin="round" stroke-miterlimit="10" d="M75.47 69.93c21.32-19.17 42.64-38.35 61.14-38.13 18.51.23 49.9 39.5 49.9 39.5"/>
  <use xlink:href="#d" x="207.41" y="67.14"/>
  <path d="M74.93 71.3v-59h-1v59Zm-.5-59 2 1.99-2-6-2 6Zm0 0"/>
  <use xlink:href="#e" x="65.47" y="10.8"/>
  <path fill="none" stroke="#000" stroke-linejoin="round" stroke-miterlimit="10" stroke-width="1.5" d="m161.72 14.16-88.16 57.15"/>
  <use xlink:href="#f" x="119.52" y="50.96"/>
</svg>
