<svg xmlns="http://www.w3.org/2000/svg" xmlns:xlink="http://www.w3.org/1999/xlink" width="160" height="150" viewBox="0 0 160 150">
  <defs>
    <text id="a" font-family="Times New Roman" font-size="12" font-style="italic">Q</text>
    <text id="c" font-family="Times New Roman" font-size="12" font-style="italic">l</text>
    <text id="b" font-family="Times New Roman" font-size="12" font-style="italic">q</text>
  </defs>
  <path fill="none" stroke="#000" stroke-linejoin="round" stroke-miterlimit="10" stroke-width=".75" d="m72.34 76.49 30.64-31.56m-27.89 33.2 29 27.62m30.69-30.22-57.92-.03m31.98 30.28 27.18-28.11m-27.54-32.19 27.84 26.22"/>
  <path fill="#fff" fill-rule="evenodd" stroke="#000" stroke-linejoin="round" stroke-miterlimit="10" stroke-width="1.5" d="M70.79 75.57c0-1.79 1.36-3.24 3.03-3.24 1.68 0 3.04 1.45 3.04 3.24s-1.36 3.24-3.04 3.24c-1.67 0-3.03-1.45-3.03-3.24Zm63.99-.48c0-1.78 1.35-3.23 3.02-3.23s3.02 1.45 3.02 3.23-1.35 3.22-3.02 3.22-3.02-1.44-3.02-3.22Zm-32.31-32.2c0-1.77 1.35-3.22 3.02-3.22s3.02 1.45 3.02 3.23-1.35 3.21-3.02 3.21-3.02-1.43-3.02-3.21Zm.51 64.11c0-1.77 1.35-3.21 3.02-3.21 1.68 0 3.03 1.44 3.03 3.21s-1.35 3.23-3.03 3.23-3.02-1.45-3.02-3.23Zm0 0"/>
  <use xlink:href="#a" x="67.75" y="66.98"/>
  <use xlink:href="#a" x="134.63" y="89.63"/>
  <use xlink:href="#b" x="111.01" y="40.58"/>
  <use xlink:href="#b" x="93.16" y="112.53"/>
  <use xlink:href="#c" x="126.59" y="58.83"/>
</svg>
