<svg xmlns="http://www.w3.org/2000/svg" xmlns:xlink="http://www.w3.org/1999/xlink" width="200" height="100" viewBox="0 0 200 100">
  <defs>
    <text id="f" font-family="Times New Roman" font-size="12">З</text>
    <text id="e" font-family="Times New Roman" font-size="12" font-style="italic">V</text>
    <text id="b" font-family="Times New Roman" font-size="12" font-style="italic">T</text>
    <text id="g" font-family="Times New Roman" font-size="12">4</text>
    <text id="c" font-family="Times New Roman" font-size="9">1</text>
    <text id="h" font-family="Times New Roman" font-size="9">2</text>
    <text id="a" font-family="Times New Roman" font-size="12">2</text>
    <text id="d" font-family="Times New Roman" font-size="12">1</text>
  </defs>
  <path fill="none" stroke="#000" stroke-dasharray=".99886 .99886" stroke-linejoin="round" stroke-miterlimit="10" d="m88.48 66.13-13.7 11.49"/>
  <use xlink:href="#a" x="134.51" y="65.32"/>
  <use xlink:href="#b" x="84.29" y="89.79"/>
  <use xlink:href="#c" x="89.92" y="92.19"/>
  <use xlink:href="#b" x="159.08" y="89.43"/>
  <path d="m74.77 78.34.02-61.68h-1l-.02 61.66Zm-.48-61.68 2 2-2-6-2 6Zm0 0"/>
  <path d="M73.79 78.52h83.19v-1H73.79Zm83.19-.5-2 2 6-2-6-2Zm0 0"/>
  <use xlink:href="#d" x="79.13" y="64.36"/>
  <use xlink:href="#e" x="65.35" y="17.73"/>
  <path d="m131.3 55.97.02 10.42h-1v-10.41Zm-.49.01-2 2 2-6 2 5.99Zm-43.05-21.66-.05 16.47h1l.05-16.47Zm.45 16.47-1.99-2.01 1.98 6 2.02-6Zm0 0"/>
  <path fill="none" stroke="#000" stroke-linejoin="round" stroke-miterlimit="10" d="M88.09 30.84v34.66"/>
  <path d="M88.2 65.63h24.47v1H88.2Zm0 2.5a2 2 0 0 1-2-2 2 2 0 1 1 4 0 2 2 0 0 1-2 2m24.47-2-2-2 6 2-6 2Zm0 0"/>
  <path d="M110.38 65.63h20.42v1h-20.43Zm20.42-1.5a2 2 0 0 1 2 2 2 2 0 0 1-2 2 2 2 0 0 1 0-4m-42.6-34.17h25.47v1H88.2Zm0 2.5a2 2 0 0 1-2-2 2 2 0 1 1 4 0 2 2 0 0 1-2 2m0 0"/>
  <path d="M108.4 29.96h22.4v1h-22.4Zm0 .5 2 2-6-2 6-2Zm0 0"/>
  <path fill="none" stroke="#000" stroke-linejoin="round" stroke-miterlimit="10" d="M130.85 66.13v-35.38"/>
  <use xlink:href="#f" x="133.79" y="29.84"/>
  <use xlink:href="#g" x="78.89" y="28.76"/>
  <use xlink:href="#b" x="126.72" y="89.55"/>
  <use xlink:href="#h" x="132.59" y="91.95"/>
  <path fill="none" stroke="#000" stroke-dasharray=".99886 .99886" stroke-linejoin="round" stroke-miterlimit="10" d="M130.8 78.15V42.8m-42.63 35.3v-35.34"/>
  <path d="m111.97 45.58-23.49 19.53.64.77 23.5-19.53Zm.32.4-.26 2.8 3.33-5.37-5.88 2.3Zm0 0"/>
  <path d="m130.32 30.45-26.52 22.04.63.77 26.52-22.04Zm1.59 1.93a2 2 0 0 0 .26-2.82 2 2 0 0 0-2.8-.26 2 2 0 0 0 2.54 3.08m0 0"/>
</svg>
