<svg xmlns="http://www.w3.org/2000/svg" xmlns:xlink="http://www.w3.org/1999/xlink" width="200" height="200" viewBox="0 0 200 200">
  <defs>
    <path id="a" d="M9.34-7.05H6.92v.18c.64.04.86.17.86.5 0 .17-.31 1.25-.9 3.09l-.16.53C6.19-.98 5.4-.25 4.06-.25c-1.01 0-1.72-.5-1.72-1.27 0-.39.35-1.54 1.27-4.37.23-.75.44-.9 1.28-.99v-.17H1.55v.18c.82.06.95.12.95.43q0 .22-.08.49l-.65 2.07a9 9 0 0 0-.52 2.3C1.25-.55 2.36.2 3.91.2c1.6 0 2.62-.77 3.15-2.38l1.02-3.08c.47-1.4.51-1.45 1.26-1.6Zm0 0"/>
    <path id="d" d="M5.66-1.2c-.68.68-.8.76-1 .76q-.2-.01-.22-.2c0-.19.37-1.45.8-2.66.28-.87.51-1.65 1.2-4.01l-.07-.06c-.62.12-1.07.17-1.86.25v.18c.68.02.75.05.75.28 0 .14-.01.18-.18.75l-.53 1.77c-.1-.45-.32-.62-.8-.62-1.6 0-3.56 2.03-3.56 3.65C.19-.34.67.13 1.47.13c.83 0 1.36-.36 2.2-1.44-.14.56-.17.72-.17.97 0 .3.22.48.52.48.51 0 1.17-.44 1.78-1.23ZM3.8-4.52q.55.05.54.63c0 1.64-1.26 3.48-2.39 3.48-.42 0-.7-.28-.7-.7 0-.89.61-2.16 1.4-2.9.35-.32.8-.52 1.15-.5m0 0"/>
    <path id="e" d="M.44-1.58.2.14h.2c.1-.19.15-.23.29-.23q.2 0 .6.1c.27.08.46.12.66.12 1.03 0 1.77-.6 1.77-1.41 0-.42-.27-.9-.83-1.52-.47-.5-.67-.84-.67-1.14 0-.36.26-.58.69-.58q.95 0 1.12 1.25h.2l.24-1.5H4.3c-.11.15-.17.2-.36.2-.1 0-.2-.02-.44-.09a3 3 0 0 0-.69-.1c-.9 0-1.48.46-1.48 1.18q0 .52.78 1.4c.47.55.67.93.67 1.24 0 .5-.36.83-.9.83C1.2-.1.83-.55.64-1.58Zm0 0"/>
    <path id="k" d="M-.1 0h3.44c1.93 0 3.24-.87 3.24-2.16 0-.8-.38-1.18-1.53-1.64a3.5 3.5 0 0 0 1.6-.6q.53-.4.54-1.07c0-1.01-.88-1.58-2.46-1.58H1.6v.17c.77.05.94.13.94.44 0 .17-.05.44-.14.69L.9-.97c-.22.63-.3.69-.98.8Zm3-3.58q1.2 0 1.55.14c.5.17.82.64.82 1.24 0 1.17-.91 1.87-2.4 1.87q-.77 0-.78-.45 0-.23.43-1.5c.15-.47.26-.8.39-1.3m.92-2.84c.06-.24.22-.3.69-.3 1 0 1.43.36 1.43 1.16 0 .62-.3 1.1-.82 1.36-.41.2-1 .3-2.1.28Zm0 0"/>
    <path id="b" d="M7.25-.27c-.81-.06-.87-.1-1.03-.93L5.05-7.37h-.32L.2-1.04c-.4.53-.58.67-1.01.76V0h2.39v-.27q-.82 0-.8-.37 0-.23.19-.5l.72-1.1H4.3Q4.5-1.06 4.5-.9c0 .44-.19.56-.97.62V0h3.72Zm-5.28-2.4L3.78-5.3l.45 2.63Zm0 0"/>
    <path id="c" d="M3.63-.17c-.75-.02-.9-.13-.9-.69v-4.12H2.6l-2.06.8V-4l.17-.06q.35-.12.53-.13.29 0 .28.5v2.8c.02.58-.15.7-.97.72V0h3.08Zm0 0"/>
    <path id="j" d="M3.9-1.53h-.18c-.23.51-.33.56-1.17.56H1.3l1.33-1.1c.64-.55.92-1.04.92-1.59 0-.76-.6-1.32-1.5-1.32q-.65.01-1.1.4C.65-4.3.49-4.05.26-3.5h.23q.36-.67 1-.66.55 0 .82.41a1 1 0 0 1 .15.52c0 .3-.15.71-.42 1.07-.4.55-.7.86-1.89 1.99V0h3.4Zm0 0"/>
    <path id="g" d="M1.97-.4v.88q0 .85-.24 1.85H.72q.15-.66.19-.9Q.98.7.98.37v-5.4q0-.93.2-1.38.22-.47.77-.77.56-.31 1.33-.31 1.08 0 1.7.52.64.5.64 1.2 0 .44-.26.84-.25.41-.8.7 1.61.68 1.61 2.1 0 .64-.34 1.19-.33.54-.92.83a3 3 0 0 1-1.2.28q-.4 0-.79-.13-.39-.1-.95-.44m0-.42q.58.36 1 .52.33.12.66.12.59 0 1-.44.4-.45.4-1.4 0-.6-.19-1.05t-.68-.98a3 3 0 0 1-.7.1q-.37 0-.52-.09-.14-.09-.14-.2 0-.1.1-.17.13-.08.38-.08.3 0 .88.13.42-.74.42-1.38 0-.67-.38-1.03a1.2 1.2 0 0 0-.9-.38q-.7 0-1.08.54-.25.33-.25 1.09Zm0 0"/>
    <path id="l" d="M6.58 0h-3.5v-.19Q3.77-.2 4-.36q.24-.15.25-.62-2.01 0-2.9-.75t-.9-1.88q0-.84.53-1.44a3 3 0 0 1 1.3-.83q.78-.23 1.97-.23-.02-.44-.16-.58a1 1 0 0 0-.3-.19q-.18-.06-.71-.07v-.2h3.5v.2q-.7.01-.94.18-.22.18-.23.66 1.27 0 2.01.25.75.25 1.27.83.51.58.51 1.42 0 1.1-.87 1.86-.86.77-2.92.76 0 .48.23.63t.94.17ZM5.4-1.37q.87 0 1.39-.2.53-.2.86-.74.34-.53.34-1.3 0-.73-.34-1.23a1.8 1.8 0 0 0-.88-.7q-.52-.18-1.37-.18Zm-1.16 0v-4.35q-.92 0-1.42.2t-.85.68q-.32.47-.32 1.23 0 .83.39 1.38.4.55.93.7.53.16 1.27.15m0 0"/>
    <path id="m" d="m2.1-1.48 2.35-2.43q-.02-.4-.18-.56-.17-.15-.55-.16v-.2h2.55v.2q-.42 0-.55.08a1 1 0 0 0-.2.18q-.08.1-.08.67v2.56q0 .56.06.67t.2.2q.14.08.57.08V0H3.63v-.19q.48 0 .65-.15.17-.17.17-.8v-2.27L2.1-.98q0 .45.13.62.14.16.58.17V0H.28v-.19q.53 0 .67-.17.16-.17.16-.78V-3.7q0-.57-.08-.66a1 1 0 0 0-.2-.19 1 1 0 0 0-.55-.07v-.2h2.64v.2q-.4 0-.55.07a1 1 0 0 0-.2.18q-.08.1-.08.67Zm0 0"/>
    <path id="o" d="m4.72-4.83.22 1.31h-.27q-.23-.65-.47-.8-.22-.16-.95-.16H2.09v3.34q0 .56.07.67.06.11.2.2.14.08.56.08V0H.2v-.19q.57 0 .75-.15.17-.16.17-.8V-3.7q0-.5-.08-.64a.4.4 0 0 0-.23-.22q-.16-.06-.61-.07v-.2Zm0 0"/>
    <path id="p" d="M1.53-1.02q.28 0 .47.18a.5.5 0 0 1 .19.4q0 .25-.2.42a.7.7 0 0 1-.46.16 1 1 0 0 1-.48-.16.6.6 0 0 1-.2-.42q0-.25.2-.4a.7.7 0 0 1 .48-.18m0 0"/>
    <path id="q" d="M1.44-6.45 3.4-7.3h.18v6.03q0 .62.07.77.05.14.23.22t.73.1V0H1.59v-.19q.56 0 .73-.1a.5.5 0 0 0 .24-.2q.06-.12.06-.78v-3.85q0-.78-.06-1a.4.4 0 0 0-.14-.25.5.5 0 0 0-.27-.08q-.22 0-.62.17Zm0 0"/>
  </defs>
  <path fill="none" stroke="#969696" stroke-linejoin="round" stroke-miterlimit="10" stroke-width="3.03" d="M26.18 161.5V76.04" transform="matrix(.99307 0 0 -.87754 40.84 169.91)"/>
  <path fill="none" stroke="#000" stroke-linejoin="round" stroke-miterlimit="10" stroke-width="3.03" d="M29.19 127.68v-21.43m3.02 14.34v-7.25" transform="matrix(.99307 0 0 -.87754 40.84 169.91)"/>
  <path stroke="#000" stroke-linejoin="round" stroke-miterlimit="10" stroke-width=".14" d="m71.73 158.67-.13-5.29v-.12l-.24-.24h-.25l-.12.12-.13.12v5.4l.13.13v.12h.12l.12.12.25-.12h.12v-.12Zm-.13-8.3v-5.44l-.24-.24h-.25l-.12.12-.13.12v5.56l.13.12.12.12h.25l.24-.24Zm0-8.32v-5.3l-.12-.12v-.12l-.12-.12h-.37l-.13.12v.12l-.12.12.12 5.3v.12l.13.12.12.12h.25l.12-.12.12-.12Zm0-8.3-.12-5.18v-.24l-.12-.12h-.13l-.12-.12-.12.12h-.13l-.12.12v5.42l.12.24v.12h.62v-.12Zm-.12-8.18v-5.42l-.12-.12-.13-.12H71l-.13.12-.12.12v5.54l.12.12H71l.12.12.12-.12h.13l.12-.12Zm.25-13.26v-5.29l-.25-.24h-.25l-.24.24v5.53l.12.12h.12l.13.12.12-.12h.12l.13-.12Zm0-8.18v-5.41l-.25-.24h-.25l-.24.24v5.53l.24.24h.25l.25-.24Zm0-8.3v-5.41l-.25-.24h-.25l-.24.24v5.53l.24.24h.25l.25-.24Zm0-8.3v-5.44l-.13-.12h-.12l-.12-.12-.13.12h-.12l-.12.12v5.56l.24.24h.25l.25-.24Zm0-8.33v-2.64l-.13-.12h-.12l-.12-.12-.13.12h-.12l-.12.12v2.89l.12.12h.12l.13.12.12-.12h.12l.13-.12Zm-39.08 38.31h1.92v-2.07h-1.92Zm3.96 0h2.07v-2.07h-2.07Zm3.99 0h2.04v-2.07H40.6Zm4.11 0h1.92v-2.07h-1.92Zm3.96 0h2.07v-2.07h-2.07Zm3.99 0h2.06v-2.07h-2.07Zm4.1 0h1.93v-2.07h-1.92Zm4 0h2.04v-2.07h-2.05Zm3.96 0h2.06v-2.07h-2.06Zm4.1 0h.6v-2.07h-.6Zm0 0" transform="matrix(.99307 0 0 -.87754 40.84 169.91)"/>
  <path stroke="#000" stroke-linejoin="round" stroke-miterlimit="10" stroke-width=".14" d="M68.95 117.51h1.91l.13-1.95-.13-.12h-1.91Zm3.98.12 1.55.12h.37l.25-1.95h-.37l-1.7-.24Zm3.84.36 1.45.24.5.12.37-2.07h-.62l-1.33-.24Zm3.87.72 1.08.24.86.24.47-2.04-.84-.12-1.08-.25Zm3.86.96.71.12 1.2.48.62-1.92-1.2-.48-.72-.12Zm3.86 1.2.25.13 1.55.6.74-1.93-1.58-.6-.37-.12Zm3.62 1.45 1.45.72.24.12.96-1.8-.36-.12-1.46-.73Zm3.5 1.8 1.07.48.62.49 1.08-1.8-.74-.37-1.08-.6Zm3.36 1.93.62.36 1.08.84 1.08-1.68-1.08-.85-.62-.36Zm3.28 2.28v.12l1.32.97.1.12 1.33-1.45-.12-.24-1.43-1.08Zm3 2.53.83.84.5.6 1.45-1.44-.62-.6-.83-.84Zm2.78 2.77.24.48.96 1.08 1.58-1.32-1-1.21-.33-.36Zm2.41 3 .96 1.33.25.36 1.69-1.2-.37-.37-.83-1.2Zm2.17 3.25.49.72.59 1.1 1.7-.98-.62-1.08-.34-.72Zm1.94 3.49v.12l1.8-.84v-.12Zm3.71 17.71v-5.42l-.1-.12-.12-.12h-.24l-.13.12-.12.12v5.54l.12.12h.13l.12.12.12-.12h.13l.09-.12Zm0-8.3v-5.44l-.1-.12-.12-.12h-.24l-.13.12-.12.12v5.56l.12.12.13.12h.24l.13-.12.09-.12Zm0-8.33v-5.41l-.1-.12-.12-.12h-.24l-.13.12-.12.12v5.53l.12.12.13.12h.24l.13-.12.09-.12Zm0-8.3v-5.4l-.1-.13h-.12l-.12-.12-.12.12h-.13l-.12.12v5.65l.12.12h.5l.09-.12Zm0-8.18v-5.41l-.1-.12-.12-.12h-.24l-.13.12-.12.12v5.53l.12.12h.13l.12.12.12-.12h.13l.09-.12Zm0-8.3v-5.44l-.1-.12-.12-.12h-.24l-.13.12-.12.12v5.56l.12.12.13.12h.24l.13-.12.09-.12Zm0-8.32v-5.42l-.1-.12-.12-.12h-.24l-.13.12-.12.12v5.54l.12.12.13.12h.24l.13-.12.09-.12Zm0-8.3v-5.42l-.1-.12h-.12l-.12-.12-.12.12h-.13l-.12.12v5.66l.12.12h.5l.09-.12Zm0-8.18v-5.41l-.1-.12-.12-.12h-.24l-.13.12-.12.12v5.53l.12.12h.13l.12.12.12-.12h.13l.09-.12Zm0-8.3v-5.44l-.1-.12-.12-.13h-.24l-.13.12-.12.13v5.56l.12.12.13.12h.24l.13-.12.09-.12Zm0-8.33v-1.68l-.1-.12h-.12l-.12-.12-.12.12h-.13l-.12.12v1.8l.12.12.13.12h.24l.13-.12.09-.12Zm-89 83.2H68l.12-.12h.1l.12-.12v-.36l-.12-.12h-.1l-.12-.12H29.13l-.1.12h-.12l-.12.12v.36l.12.12h.12Zm5.93-3.25-6.89 2.9 6.9 2.76.12.12.22-.12h.12v-.61h-.12l-6.03-2.52v.6l6.03-2.41.12-.12v-.48l-.12-.12Zm27 5.66 6.89-2.77-6.9-2.9h-.21l-.13.13-.12.12v.24l.12.12.13.12 6.02 2.41v-.6l-6.02 2.52h-.13l-.12.12v.36l.12.13h.13l.12.12Zm12.54-2.4h38.71l.13-.13h.12l.12-.12v-.36l-.12-.12h-.12l-.13-.12h-38.7l-.25.12h-.12v.12l-.1.24.1.12v.12h.12Zm5.79-3.26-6.87 2.9 6.87 2.76.24.12.13-.12h.12v-.13l.13-.24-.13-.12v-.12h-.12l-6.03-2.52v.6l6.03-2.41.12-.12v-.12l.13-.12-.13-.12v-.12l-.12-.12Zm27.02 5.66 6.89-2.77-6.89-2.9h-.25l-.1.13-.12.12v.24l.12.12.1.12 6.05 2.41v-.6l-6.05 2.52h-.1l-.12.12v.36l.12.13h.1l.12.12Zm0 0" transform="matrix(.99307 0 0 -.87754 40.84 169.91)"/>
  <path stroke="#000" stroke-linejoin="round" stroke-miterlimit="10" stroke-width=".14" d="m116.83 144.93 6.87 16.75v.12h.12l.24.12.13-.12h.1v-.12l.12-.12-.12-.24-6.87-16.75v-.12h-.12l-.12-.12-.25.12h-.1v.12l-.12.24Zm4.95 16.4 4.08 4.8-.37-6.25Zm0 0" transform="matrix(.99307 0 0 -.87754 40.84 169.91)"/>
  <path stroke="#000" stroke-linejoin="round" stroke-miterlimit="10" stroke-width=".14" d="M117.8 145.17h2.28l.12-.12h.12l.13-.12v-.36l-.13-.12h-.12l-.12-.12h-2.29l-.12.12h-.13l-.12.12v.36l.12.12h.13Zm5.28 0h2.19l.22-.12h.13v-.12l.12-.12-.12-.24v-.12h-.13l-.22-.12h-2.19l-.22.12h-.12v.6h.12Zm5.2 0h2.28l.12-.12h.13l.12-.12v-.36l-.12-.12h-.13l-.12-.12h-2.29l-.12.12h-.12v.12l-.13.24.13.12v.12h.12Zm5.3 0h.13l.12-.12h.13l.1-.12v-.36l-.1-.12h-.13l-.12-.12h-.12l-.13.12h-.12l-.12.12v.36l.12.12h.12Zm0 0" transform="matrix(.99307 0 0 -.87754 40.84 169.91)"/>
  <path fill="none" stroke="#000" stroke-linejoin="round" stroke-miterlimit="10" stroke-width=".71" d="M19.04 79.64h7.14m43.4.6h7.12m-57.66-.6V54.59M76.7 79.63V54.6m-57.66 0h28.6m0 10.13V43.4m7.1 14.7v-7.12m0 3.61h21.49" transform="matrix(.99307 0 0 -.87754 40.84 169.91)"/>
  <use xlink:href="#a" x="97.73" y="132.99"/>
  <use xlink:href="#b" x="84.92" y="95.28"/>
  <use xlink:href="#c" x="92.94" y="96.65"/>
  <use xlink:href="#d" x="84.92" y="23.75"/>
  <use xlink:href="#e" x="128.03" y="23.75"/>
  <use xlink:href="#g" x="166.46" y="39.58"/>
  <use xlink:href="#b" x="128.03" y="95.81"/>
  <use xlink:href="#j" x="136.04" y="97.18"/>
  <use xlink:href="#k" x="121.43" y="53.11"/>
  <path fill="none" stroke="#000" stroke-linejoin="round" stroke-miterlimit="10" stroke-width=".71" d="m119.88 153.33.47-.36.49-.36.5-.36.34-.36.74-.96.34-.5.37-.47.25-.6.24-.48.13-.63.22-.6.12-.6.12-.6v-1.32" transform="matrix(.99307 0 0 -.87754 40.84 169.91)"/>
  <use xlink:href="#l" x="99.93" y="153.07"/>
  <use xlink:href="#m" x="109.38" y="153.07"/>
  <use xlink:href="#o" x="115.86" y="153.07"/>
  <use xlink:href="#p" x="120.77" y="153.07"/>
  <use xlink:href="#q" x="126.78" y="153.07"/>
</svg>
