<svg xmlns="http://www.w3.org/2000/svg" xmlns:xlink="http://www.w3.org/1999/xlink" width="260" height="100" viewBox="0 0 260 100">
  <defs>
    <path id="a" d="M.3-2.62q0-.9.26-1.57.28-.65.74-.98.34-.25.73-.25.6 0 1.1.62.6.76.6 2.1 0 .92-.26 1.58-.26.64-.69.93-.4.28-.8.28Q1.22.1.72-.8A4 4 0 0 1 .3-2.62m.76.09q0 1.1.27 1.8.22.57.67.57.2 0 .42-.18.24-.2.36-.64a8 8 0 0 0-.01-3.43q-.15-.43-.36-.64a.6.6 0 0 0-.4-.12q-.26 0-.46.25-.29.3-.4 1.01-.09.7-.09 1.38m0 0"/>
  </defs>
  <text x="226.06" y="79.06" font-family="Times New Roman" font-size="12">фиг. 4</text>
  <path fill="none" stroke="#000" stroke-miterlimit="10" stroke-width="1.25" d="M38.18 31.2h141.06m-141.06 49.89h141.06"/>
  <path fill="none" stroke="#000" stroke-miterlimit="10" stroke-width="2" d="M90.39 52.7v-21.5m0 49.89v-23.8m37.54 4.11v-30.2m0 49.89v-16.03"/>
  <text x="51.16" y="48.01" font-family="Times New Roman" font-size="13">He</text>
  <text x="141.44" y="48.01" font-family="Times New Roman" font-size="13">He</text>
  <text x="95.15" y="54.84" font-family="Times New Roman" font-size="12" font-style="italic">S</text>
  <text x="117.11" y="72.82" font-family="Times New Roman" font-size="12" font-style="italic">S</text>
  <text x="139.16" y="73.18" font-family="Times New Roman" font-size="12" font-style="italic">p</text>
  <use xlink:href="#a" x="145.16" y="74.14"/>
  <text x="149.23" y="73.18" font-family="Times New Roman" font-size="12">, 2</text>
  <text x="161.22" y="73.18" font-family="Times New Roman" font-size="12" font-style="italic">T</text>
  <use xlink:href="#a" x="167.81" y="74.14"/>
  <text x="48.41" y="72.82" font-family="Times New Roman" font-size="12" font-style="italic">p</text>
  <use xlink:href="#a" x="54.4" y="73.78"/>
  <text x="58.47" y="72.82" font-family="Times New Roman" font-size="12">,</text>
  <text x="64.47" y="72.82" font-family="Times New Roman" font-size="12" font-style="italic">T</text>
  <use xlink:href="#a" x="71.06" y="73.78"/>
</svg>
