<svg xmlns="http://www.w3.org/2000/svg" xmlns:xlink="http://www.w3.org/1999/xlink" width="595.28" height="841.89" viewBox="0 0 595.28 841.89">
  <defs>
    <clipPath id="b">
      <path d="M10 123h5v6.03h-5Zm0 0"/>
    </clipPath>
    <clipPath id="c">
      <path d="M14 123h5v6.03h-5Zm0 0"/>
    </clipPath>
    <clipPath id="d">
      <path d="M18 123h4v6.03h-4Zm0 0"/>
    </clipPath>
    <clipPath id="e">
      <path d="M21 123h5v6.03h-5Zm0 0"/>
    </clipPath>
    <clipPath id="f">
      <path d="M25 123h5v6.03h-5Zm0 0"/>
    </clipPath>
    <clipPath id="g">
      <path d="M29 123h4v6.03h-4Zm0 0"/>
    </clipPath>
    <clipPath id="h">
      <path d="M32 123h5v6.03h-5Zm0 0"/>
    </clipPath>
    <clipPath id="i">
      <path d="M36 123h5v6.03h-5Zm0 0"/>
    </clipPath>
    <clipPath id="j">
      <path d="M40 123h4v6.03h-4Zm0 0"/>
    </clipPath>
    <clipPath id="k">
      <path d="M43 123h5v6.03h-5Zm0 0"/>
    </clipPath>
    <clipPath id="l">
      <path d="M47 123h4v6.03h-4Zm0 0"/>
    </clipPath>
    <clipPath id="m">
      <path d="M51 123h4v6.03h-4Zm0 0"/>
    </clipPath>
    <clipPath id="n">
      <path d="M107 123h4v6.03h-4Zm0 0"/>
    </clipPath>
    <clipPath id="o">
      <path d="M110 123h5v6.03h-5Zm0 0"/>
    </clipPath>
    <clipPath id="p">
      <path d="M114 123h5v6.03h-5Zm0 0"/>
    </clipPath>
    <clipPath id="q">
      <path d="M118 123h4v6.03h-4Zm0 0"/>
    </clipPath>
    <clipPath id="r">
      <path d="M121 123h5v6.03h-5Zm0 0"/>
    </clipPath>
    <clipPath id="s">
      <path d="M125 123h5v6.03h-5Zm0 0"/>
    </clipPath>
    <clipPath id="t">
      <path d="M129 123h4v6.03h-4Zm0 0"/>
    </clipPath>
    <clipPath id="u">
      <path d="M132 123h5v6.03h-5Zm0 0"/>
    </clipPath>
    <clipPath id="v">
      <path d="M136 123h5v6.03h-5Zm0 0"/>
    </clipPath>
    <clipPath id="w">
      <path d="M140 123h4v6.03h-4Zm0 0"/>
    </clipPath>
    <clipPath id="x">
      <path d="M143 123h5v6.03h-5Zm0 0"/>
    </clipPath>
    <clipPath id="y">
      <path d="M147 123h5v6.03h-5Zm0 0"/>
    </clipPath>
    <clipPath id="z">
      <path d="M106 121h46.19v2H106Zm0 0"/>
    </clipPath>
    <clipPath id="A">
      <path d="M102 .18h5V5h-5Zm0 0"/>
    </clipPath>
    <clipPath id="B">
      <path d="M6 .18h5V5H6Zm0 0"/>
    </clipPath>
    <clipPath id="C">
      <path d="M.99 16H7v8H.99Zm0 0"/>
    </clipPath>
    <clipPath id="a">
      <path d="M0 0h153v130H0z"/>
    </clipPath>
    <clipPath id="E">
      <path d="M68 128h14v9.68H68Zm0 0"/>
    </clipPath>
    <clipPath id="F">
      <path d="M.71 87H24v9H.71Zm0 0"/>
    </clipPath>
    <clipPath id="L">
      <path d="M83 129h8v8.68h-8Zm0 0"/>
    </clipPath>
    <clipPath id="P">
      <path d="M112 131h9v6.68h-9Zm0 0"/>
    </clipPath>
    <clipPath id="R">
      <path d="M84 .8h5V6h-5Zm0 0"/>
    </clipPath>
    <clipPath id="S">
      <path d="M81 .8h5V6h-5Zm0 0"/>
    </clipPath>
    <clipPath id="T">
      <path d="M78 .8h5V6h-5Zm0 0"/>
    </clipPath>
    <clipPath id="U">
      <path d="M76 .8h4V6h-4Zm0 0"/>
    </clipPath>
    <clipPath id="V">
      <path d="M73 .8h4V6h-4Zm0 0"/>
    </clipPath>
    <clipPath id="W">
      <path d="M70 .8h4V6h-4Zm0 0"/>
    </clipPath>
    <clipPath id="X">
      <path d="M67 .8h4V6h-4Zm0 0"/>
    </clipPath>
    <clipPath id="Y">
      <path d="M64 .8h4V6h-4Zm0 0"/>
    </clipPath>
    <clipPath id="Z">
      <path d="M167 108h5.06v5H167Zm0 0"/>
    </clipPath>
    <clipPath id="aa">
      <path d="M167 105h5.06v5H167Zm0 0"/>
    </clipPath>
    <clipPath id="ab">
      <path d="M167 102h5.06v5H167Zm0 0"/>
    </clipPath>
    <clipPath id="ac">
      <path d="M167 99h5.06v5H167Zm0 0"/>
    </clipPath>
    <clipPath id="ad">
      <path d="M167 97h5.06v4H167Zm0 0"/>
    </clipPath>
    <clipPath id="ae">
      <path d="M167 94h5.06v4H167Zm0 0"/>
    </clipPath>
    <clipPath id="af">
      <path d="M167 91h5.06v4H167Zm0 0"/>
    </clipPath>
    <clipPath id="ag">
      <path d="M167 88h5.06v4H167Zm0 0"/>
    </clipPath>
    <clipPath id="D">
      <path d="M0 0h173v138H0z"/>
    </clipPath>
    <path id="G" d="M4.52-6H2.55v1.78q0 2.7-.47 3.5-.45.8-1.28.8A.8.8 0 0 1 .27-.1a.5.5 0 0 1-.2-.4q0-.18.13-.3a.4.4 0 0 1 .3-.13q.14 0 .33.14.21.15.39.16.4 0 .66-.68.25-.66.25-2.56V-5.2q0-.62-.16-.8-.16-.16-.75-.18v-.17h5.1v.17q-.59.01-.76.19-.15.17-.15.8v4.02q0 .63.15.8.18.18.75.19V0H3.6v-.17q.6-.01.75-.19.18-.17.18-.8Zm0 0"/>
    <path id="H" d="M2.73-.62q-.66.51-.82.59a1 1 0 0 1-.55.12Q.9.1.62-.2T.35-1q0-.32.14-.55.2-.3.66-.6.48-.27 1.6-.68V-3q0-.65-.22-.87a.7.7 0 0 0-.58-.25q-.3 0-.47.15a.5.5 0 0 0-.19.38l.02.26q0 .22-.11.35a.4.4 0 0 1-.3.1A.3.3 0 0 1 .61-3a.5.5 0 0 1-.11-.33q0-.4.4-.73.43-.35 1.18-.35a2 2 0 0 1 .92.2q.29.13.42.44.08.21.08.83v1.46q0 .6.02.75.03.14.07.18a.2.2 0 0 0 .13.05q.08 0 .14-.03.1-.06.37-.34v.25q-.52.7-1 .7a.5.5 0 0 1-.37-.16q-.13-.15-.13-.55m0-.3v-1.63q-.71.29-.92.4-.38.2-.53.43t-.16.49q0 .34.2.56a.6.6 0 0 0 .48.22q.34 0 .93-.47m0 0"/>
    <path id="I" d="M.4-2.94v-1.34h.2q.06.08.18.08.08 0 .35-.08.43-.12.71-.13.63 0 1.03.29.43.27.43.75 0 .73-1.11 1.06 1.28.27 1.28 1.2 0 .48-.4.86-.42.38-1.21.38a2 2 0 0 1-.9-.18 4 4 0 0 1-.85-.62L.23-.8Q1-.2 1.7-.2q.39 0 .64-.27a1 1 0 0 0 .26-.7q0-.92-1.2-.99v-.26q.57 0 .81-.3t.25-.65q0-.3-.22-.54a.7.7 0 0 0-.56-.23q-.84 0-1.1 1.2Zm0 0"/>
    <path id="J" d="M1.02-2.67q0 .94.46 1.5.48.55 1.1.54.42 0 .73-.23t.52-.8l.15.1q-.1.65-.57 1.17T2.2.13.9-.47a2.3 2.3 0 0 1-.55-1.6q0-1.12.56-1.73.57-.62 1.4-.62.72 0 1.2.48.45.47.46 1.27Zm0-.27H3a2 2 0 0 0-.1-.58 1 1 0 0 0-.35-.4 1 1 0 0 0-.47-.16 1 1 0 0 0-.7.3q-.3.3-.36.84m0 0"/>
    <path id="K" d="m-.02-3.86 1.33-.53h.17v1q.33-.56.66-.78.34-.24.72-.24.64 0 1.08.5.53.63.53 1.61 0 1.12-.64 1.83-.54.6-1.33.6-.35 0-.6-.1a1 1 0 0 1-.42-.28v1.31q0 .45.05.55.06.12.19.19.15.07.5.07v.18H-.03v-.17h.1a1 1 0 0 0 .46-.1q.08-.06.13-.17.04-.11.04-.58v-4.05q0-.41-.03-.53a.3.3 0 0 0-.12-.17.4.4 0 0 0-.22-.06 1 1 0 0 0-.28.08Zm1.5.75v1.6q0 .51.05.68.06.27.31.47.27.2.66.2.45 0 .75-.36.38-.45.38-1.34 0-.99-.43-1.51a.9.9 0 0 0-1.15-.25q-.17.09-.57.51m0 0"/>
    <path id="M" d="M1.13-6.34h5.23v.17q-.6.01-.77.19-.15.17-.15.8v3.5q0 1.03.1 1.27.13.24.77.24v2h-.15Q6 1.13 5.7.7A1.6 1.6 0 0 0 5 .14Q4.61 0 4.06 0H2.44Q1.38 0 .88.58q-.51.57-.6 1.25H.12v-2q.75-.06 1.22-.9.47-.83.66-2.05t.19-2q0-.47-.13-.7a.6.6 0 0 0-.28-.27q-.15-.06-.65-.08ZM2.66-6a19 19 0 0 1-.46 3.9 5 5 0 0 1-.87 1.76h2.34q.63 0 .75-.11.13-.11.13-.72V-6Zm0 0"/>
    <path id="N" d="M.23-4.28h3.7l.2 1.16h-.2a1.3 1.3 0 0 0-.21-.54.6.6 0 0 0-.3-.26 2 2 0 0 0-.56-.06h-.38V-1q0 .47.05.6.06.14.19.18.15.03.6.05V0H1v-.17q.44-.02.56-.14.15-.14.14-.69v-2.98h-.39q-.39 0-.54.06-.15.04-.29.23-.12.17-.21.56h-.2Zm0 0"/>
    <path id="O" d="M4.6 0H3.32q-.58-.86-1.06-1.75a1 1 0 0 0-.2-.3.3.3 0 0 0-.26-.1h-.17V-1q0 .45.05.6.06.12.2.18t.47.05V0H.22v-.17q.4 0 .51-.16Q.86-.49.86-1v-2.28q0-.5-.05-.6a.4.4 0 0 0-.15-.15q-.11-.08-.44-.08v-.17h2.14v.17q-.39 0-.48.06l-.18.14q-.06.09-.06.63v.84l.14.02q.28 0 .53-.16.25-.17.46-.7.18-.48.3-.66a1 1 0 0 1 .77-.39q.25 0 .4.13.15.11.15.3 0 .16-.1.3-.1.1-.3.1l-.26-.06-.3-.06q-.21 0-.35.35-.16.44-.24.57l-.28.33q.15.03.31.2.18.18.63 1 .38.65.56.81.19.18.53.19Zm0 0"/>
    <path id="Q" d="M2.4-4.4q.98 0 1.55.73.5.63.5 1.45 0 .59-.28 1.17A2 2 0 0 1 2.34.13Q1.38.13.8-.64A2.4 2.4 0 0 1 .33-2.1q0-.6.28-1.18A2 2 0 0 1 2.39-4.4m-.15.3a1 1 0 0 0-.5.15q-.25.14-.4.51t-.16.94q0 .94.37 1.63.38.67.99.67.45 0 .75-.38.3-.37.3-1.28 0-1.14-.5-1.8a1 1 0 0 0-.85-.45m0 0"/>
    <g id="ah" clip-path="url(#a)">
      <g clip-path="url(#b)">
        <path fill="none" stroke="#000" stroke-linejoin="round" stroke-width=".35" d="m14.37 123.5-3.26 5.44"/>
      </g>
      <g clip-path="url(#c)">
        <path fill="none" stroke="#000" stroke-linejoin="round" stroke-width=".35" d="m18 123.5-3.25 5.44"/>
      </g>
      <g clip-path="url(#d)">
        <path fill="none" stroke="#000" stroke-linejoin="round" stroke-width=".35" d="m21.65 123.5-3.26 5.44"/>
      </g>
      <g clip-path="url(#e)">
        <path fill="none" stroke="#000" stroke-linejoin="round" stroke-width=".35" d="m25.3 123.5-3.26 5.44"/>
      </g>
      <g clip-path="url(#f)">
        <path fill="none" stroke="#000" stroke-linejoin="round" stroke-width=".35" d="m28.94 123.5-3.26 5.44"/>
      </g>
      <g clip-path="url(#g)">
        <path fill="none" stroke="#000" stroke-linejoin="round" stroke-width=".35" d="m32.58 123.5-3.26 5.44"/>
      </g>
      <g clip-path="url(#h)">
        <path fill="none" stroke="#000" stroke-linejoin="round" stroke-width=".35" d="m36.22 123.5-3.25 5.44"/>
      </g>
      <g clip-path="url(#i)">
        <path fill="none" stroke="#000" stroke-linejoin="round" stroke-width=".35" d="m39.87 123.5-3.26 5.44"/>
      </g>
      <g clip-path="url(#j)">
        <path fill="none" stroke="#000" stroke-linejoin="round" stroke-width=".35" d="m43.5 123.5-3.25 5.44"/>
      </g>
      <g clip-path="url(#k)">
        <path fill="none" stroke="#000" stroke-linejoin="round" stroke-width=".35" d="m47.15 123.5-3.26 5.44"/>
      </g>
      <g clip-path="url(#l)">
        <path fill="none" stroke="#000" stroke-linejoin="round" stroke-width=".35" d="m50.8 123.5-3.26 5.44"/>
      </g>
      <g clip-path="url(#m)">
        <path fill="none" stroke="#000" stroke-linejoin="round" stroke-width=".35" d="m54.44 123.5-3.26 5.44"/>
      </g>
      <path fill="none" stroke="#000" stroke-linejoin="round" stroke-width="1.05" d="M10.42 121.8h45.36"/>
      <g clip-path="url(#n)">
        <path fill="none" stroke="#000" stroke-linejoin="round" stroke-width=".35" d="m110.77 123.5-3.26 5.44"/>
      </g>
      <g clip-path="url(#o)">
        <path fill="none" stroke="#000" stroke-linejoin="round" stroke-width=".35" d="m114.41 123.5-3.25 5.44"/>
      </g>
      <g clip-path="url(#p)">
        <path fill="none" stroke="#000" stroke-linejoin="round" stroke-width=".35" d="m118.06 123.5-3.26 5.44"/>
      </g>
      <g clip-path="url(#q)">
        <path fill="none" stroke="#000" stroke-linejoin="round" stroke-width=".35" d="m121.7 123.5-3.26 5.44"/>
      </g>
      <g clip-path="url(#r)">
        <path fill="none" stroke="#000" stroke-linejoin="round" stroke-width=".35" d="m125.34 123.5-3.25 5.44"/>
      </g>
      <g clip-path="url(#s)">
        <path fill="none" stroke="#000" stroke-linejoin="round" stroke-width=".35" d="m128.99 123.5-3.26 5.44"/>
      </g>
      <g clip-path="url(#t)">
        <path fill="none" stroke="#000" stroke-linejoin="round" stroke-width=".35" d="m132.63 123.5-3.25 5.44"/>
      </g>
      <g clip-path="url(#u)">
        <path fill="none" stroke="#000" stroke-linejoin="round" stroke-width=".35" d="m136.27 123.5-3.26 5.44"/>
      </g>
      <g clip-path="url(#v)">
        <path fill="none" stroke="#000" stroke-linejoin="round" stroke-width=".35" d="m139.91 123.5-3.25 5.44"/>
      </g>
      <g clip-path="url(#w)">
        <path fill="none" stroke="#000" stroke-linejoin="round" stroke-width=".35" d="m143.56 123.5-3.26 5.44"/>
      </g>
      <g clip-path="url(#x)">
        <path fill="none" stroke="#000" stroke-linejoin="round" stroke-width=".35" d="m147.2 123.5-3.25 5.44"/>
      </g>
      <g clip-path="url(#y)">
        <path fill="none" stroke="#000" stroke-linejoin="round" stroke-width=".35" d="m150.84 123.5-3.25 5.44"/>
      </g>
      <g clip-path="url(#z)">
        <path fill="none" stroke="#000" stroke-linejoin="round" stroke-width="1.05" d="M106.83 121.8h45.36"/>
      </g>
      <path fill="none" stroke="#000" stroke-dasharray="1.57659220827 1.57659220827" stroke-linecap="round" stroke-linejoin="round" stroke-width=".53" d="M43.88 110.52a10.77 10.77 0 1 1-21.55-.01 10.77 10.77 0 0 1 21.55.01m-6.92-15.68a3.9 3.9 0 1 1-7.8 0 3.9 3.9 0 0 1 7.8 0m0 0"/>
      <path fill="none" stroke="#000" stroke-linecap="round" stroke-linejoin="round" stroke-width=".53" d="M43.88 36.36a10.77 10.77 0 1 1-21.55 0 10.77 10.77 0 0 1 21.55 0m-6.92-15.68a3.9 3.9 0 1 1-7.8 0 3.9 3.9 0 0 1 7.8 0m0 0"/>
      <path fill="none" stroke="#000" stroke-dasharray="1.57659220827 1.57659220827" stroke-linecap="round" stroke-linejoin="round" stroke-width=".53" d="M135.4 115.03a5.94 5.94 0 0 1-5.9 5.99 5.94 5.94 0 0 1-5.89-5.99c0-3.3 2.64-5.99 5.9-5.99a5.94 5.94 0 0 1 5.89 6m-2.03-10.62a3.9 3.9 0 0 1-3.87 3.92 3.9 3.9 0 0 1-3.86-3.92 3.9 3.9 0 0 1 3.86-3.92 3.9 3.9 0 0 1 3.87 3.92m-1.22-7.32a2.66 2.66 0 0 1-2.65 2.69 2.66 2.66 0 0 1-2.64-2.68 2.66 2.66 0 0 1 2.64-2.68c1.46 0 2.65 1.2 2.65 2.68m-.92-5.15c0 .97-.77 1.76-1.73 1.76-.95 0-1.72-.79-1.72-1.76 0-.96.77-1.75 1.72-1.75.96 0 1.73.79 1.73 1.75m-.71-3.49c0 .57-.45 1.04-1.02 1.04-.55 0-1.01-.47-1.01-1.04s.46-1.03 1.01-1.03c.57 0 1.02.46 1.02 1.03m0 0"/>
      <path fill="none" stroke="#000" stroke-linecap="round" stroke-linejoin="round" stroke-width=".53" d="M135.4 41.15c0 3.3-2.64 5.98-5.9 5.98a5.94 5.94 0 0 1-5.89-5.98 5.94 5.94 0 0 1 5.9-5.99 5.94 5.94 0 0 1 5.89 5.99m-2.03-10.62a3.9 3.9 0 0 1-3.87 3.93 3.9 3.9 0 0 1-3.86-3.93 3.9 3.9 0 0 1 3.86-3.92 3.9 3.9 0 0 1 3.87 3.92m-1.22-7.31a2.67 2.67 0 0 1-2.65 2.69 2.66 2.66 0 0 1-2.64-2.69 2.66 2.66 0 0 1 2.64-2.68c1.46 0 2.65 1.2 2.65 2.68m-.92-5.14c0 .97-.77 1.75-1.73 1.75-.95 0-1.72-.78-1.72-1.75s.77-1.75 1.72-1.75c.96 0 1.73.78 1.73 1.75m-.71-3.49c0 .57-.45 1.03-1.02 1.03-.55 0-1.01-.46-1.01-1.03s.46-1.04 1.01-1.04c.57 0 1.02.47 1.02 1.04m0 0"/>
      <path fill="none" stroke="#000" stroke-linecap="round" stroke-linejoin="round" stroke-width=".7" d="M10.42 99.15V9"/>
      <path fill-rule="evenodd" d="m10.42 9 1.75 1.76-1.75-6.13-1.75 6.13Zm0 0"/>
      <path fill="none" stroke="#000" stroke-linecap="round" stroke-linejoin="round" stroke-width=".7" d="M106.83 99.15V9"/>
      <path fill-rule="evenodd" d="m106.83 9 1.74 1.76-1.74-6.13-1.76 6.13Zm0 0"/>
      <path fill="none" stroke="#000" stroke-linecap="round" stroke-linejoin="round" stroke-width=".7" d="M8 94.85h4.84M8 20.68h4.84m91.56 67.79h4.85m-4.85-73.88h4.85"/>
      <path fill="none" stroke="#000" stroke-dasharray=".7007072361300001 1.4014144722600002" stroke-linecap="round" stroke-linejoin="round" stroke-width=".35" d="M9.28 94.86h30.49M9.28 20.68h30.49"/>
      <path fill="none" stroke="#000" stroke-dasharray=".70070352822 1.40140829241" stroke-linecap="round" stroke-linejoin="round" stroke-width=".35" d="M105.66 88.47h27.81m-27.81-73.88h27.81"/>
      <g clip-path="url(#A)">
        <path d="M103.44 3.68c.35-.37.46-.48 1.33-1.2.1-.1.8-.66 1.06-.93.62-.6 1-1.14 1-1.25q-.01-.12-.15-.12c-.1 0-.1.02-.2.18-.3.44-.51.52-.7.52s-.3-.08-.5-.27c-.26-.25-.45-.43-.76-.43-.8 0-1.3.89-1.3 1.16 0 0 0 .12.16.12q.14.01.17-.16c.12-.29.54-.38.83-.38q.35.01.72.13c.4.12.5.12.71.12-.19.2-.48.48-1.23 1.1-.4.35-.83.68-1.1.94a5 5 0 0 0-1.05 1.3q.02.13.16.12c.1 0 .11-.02.17-.1.2-.3.5-.6.87-.6.23 0 .33.08.52.27.31.3.48.42.78.42 1.02 0 1.64-1.21 1.64-1.52q0-.15-.16-.14c-.1 0-.11.06-.15.18-.2.48-.74.75-1.22.75-.2 0-.4-.06-.72-.13-.4-.1-.5-.1-.65-.1q-.13 0-.23.02m0 0"/>
      </g>
      <path d="M102.17 88.32a5 5 0 0 0-.42-2.32 1.9 1.9 0 0 0-1.78-1.08c-1.24 0-1.7.93-1.83 1.2-.35.71-.37 1.7-.37 2.2 0 .66.02 1.64.5 2.43.44.73 1.18.93 1.7.93.48 0 1.32-.16 1.82-1.12a5 5 0 0 0 .38-2.24m-2.2 3.07c-.33 0-1-.16-1.22-1.18-.1-.56-.1-1.49-.1-2 0-.68 0-1.38.1-1.92.21-1 .97-1.1 1.22-1.1.33 0 1.03.17 1.22 1.06.11.54.11 1.3.11 1.95 0 .58 0 1.47-.11 2.03-.21 1.02-.89 1.16-1.22 1.16m-.26-80.33.04-.15a.15.15 0 0 0-.16-.14l-.57.06-.55.04c-.23.02-.33.02-.33.2 0 .14.14.14.28.14.46 0 .46.06.46.14 0 .04 0 .06-.04.23l-1.41 5.6-.04.21c0 .18.14.31.33.31q.25-.02.37-.23a3 3 0 0 0 .15-.56l.23-.89c.04-.13.14-.52.16-.65.16-.58.16-.6.37-.9.34-.5.8-.94 1.46-.94q.54 0 .56.68c0 .54-.42 1.66-.6 2.14-.13.33-.13.39-.13.52 0 .56.46.83.89.83.96 0 1.37-1.37 1.37-1.5q-.02-.15-.16-.14c-.11 0-.13.08-.17.17-.23.82-.63 1.2-1.02 1.2q-.24 0-.24-.32.02-.33.18-.7c.15-.37.58-1.5.58-2.05 0-.75-.5-1.1-1.22-1.1q-.82-.01-1.52.76Zm0 0"/>
      <g clip-path="url(#B)">
        <path d="M7.15 3.68c.35-.37.46-.48 1.33-1.2.1-.1.8-.66 1.06-.93.62-.6 1-1.14 1-1.25q-.02-.12-.15-.12c-.1 0-.1.02-.2.18-.3.44-.51.52-.7.52S9.18.8 8.98.6C8.72.36 8.53.18 8.22.18c-.8 0-1.3.89-1.3 1.16 0 0 0 .12.16.12q.13.01.18-.16c.1-.29.53-.38.82-.38q.35.01.72.13c.4.12.5.12.71.12-.19.2-.48.48-1.23 1.1-.4.35-.83.68-1.1.94a5 5 0 0 0-1.05 1.3c0 .1.08.12.16.12.1 0 .11-.02.17-.1.2-.3.5-.6.87-.6.23 0 .33.08.52.27.31.3.48.42.78.42 1.02 0 1.64-1.21 1.64-1.52q0-.15-.16-.14c-.1 0-.11.06-.15.18-.2.48-.74.75-1.22.75-.2 0-.4-.06-.71-.13-.41-.1-.5-.1-.66-.1q-.13 0-.23.02m0 0"/>
      </g>
      <path d="M5.77 94.52a5 5 0 0 0-.43-2.32 1.9 1.9 0 0 0-1.77-1.08c-1.24 0-1.7.93-1.84 1.2-.35.72-.37 1.7-.37 2.2 0 .66.02 1.64.5 2.44.45.73 1.18.92 1.7.92.5 0 1.32-.15 1.82-1.12.37-.71.39-1.6.39-2.24m-2.2 3.07c-.33 0-1-.15-1.22-1.18-.12-.55-.12-1.48-.12-2 0-.68 0-1.37.12-1.91.21-1.01.97-1.1 1.22-1.1.32 0 1.02.17 1.21 1.06.12.54.12 1.29.12 1.95 0 .57 0 1.47-.12 2.02-.21 1.03-.89 1.16-1.21 1.16m0 0"/>
      <g clip-path="url(#C)">
        <path d="m3.3 17.27.04-.16a.14.14 0 0 0-.15-.13l-.58.05-.54.04c-.23.02-.33.02-.33.2 0 .15.14.15.27.15.46 0 .46.06.46.13l-.03.24-1.41 5.6-.04.2c0 .18.13.32.33.32q.24-.02.36-.23c.04-.06.12-.37.16-.56l.23-.9c.04-.13.13-.51.15-.65.16-.58.16-.6.37-.9.35-.49.81-.94 1.47-.94q.54 0 .56.68c0 .54-.42 1.66-.6 2.14-.14.33-.14.4-.14.53 0 .56.47.83.9.83.96 0 1.36-1.37 1.36-1.5q-.02-.15-.15-.14c-.12 0-.13.07-.17.17-.23.81-.64 1.2-1.03 1.2q-.23 0-.23-.33.02-.33.17-.7c.16-.36.58-1.5.58-2.04 0-.76-.5-1.1-1.21-1.1q-.83-.02-1.53.75Zm0 0"/>
      </g>
      <path d="m139.13 114.9.15-.65c.04-.1.1-.35.11-.45.02-.03.36-.67.78-1 .33-.27.65-.35.94-.35.35 0 .57.23.57.68 0 .23-.06.46-.18.9l-.29 1.18-.15.6c-.06.16-.12.47-.12.5 0 .24.2.31.31.31.18 0 .33-.11.4-.23.03-.05.1-.4.16-.6l.21-.88.18-.66c.13-.54.13-.54.34-.87.33-.48.8-.93 1.45-.93q.57-.01.58.68c0 .54-.42 1.68-.62 2.14-.1.25-.11.33-.11.52 0 .57.46.83.89.83.96 0 1.37-1.37 1.37-1.5 0-.1-.1-.14-.16-.14-.11 0-.13.08-.17.18-.23.8-.64 1.2-1.02 1.2q-.23 0-.23-.33.01-.34.17-.7c.15-.37.58-1.5.58-2.04 0-.76-.5-1.1-1.22-1.1q-1.01.02-1.68.96c-.08-.8-.71-.97-1.22-.97-.46 0-1.06.16-1.6.87-.08-.6-.54-.87-1-.87-.35 0-.6.21-.76.54-.25.47-.34.95-.34.97q.01.14.15.13c.13 0 .13-.03.21-.3.12-.49.3-1.07.7-1.07.27 0 .33.25.33.47 0 .19-.06.37-.14.69l-.21.8-.37 1.48-.1.43c0 .23.2.3.34.3.17 0 .32-.11.38-.23.04-.05.12-.4.15-.6Zm9.93-1.7c0-.23-.02-.23-.26-.23-.48.48-1.23.48-1.5.48v.3c.2 0 .7 0 1.14-.22v3.73c0 .25 0 .35-.77.35h-.31v.28c.4-.03.98-.03 1.39-.03s.98 0 1.4.03v-.28h-.32c-.77 0-.77-.1-.77-.35Zm-12.08-8.66c.04-.14.13-.52.15-.66.04-.1.1-.35.12-.45.02-.04.34-.67.77-1 .33-.27.66-.35.95-.35.34 0 .56.24.56.68 0 .23-.06.46-.18.9l-.29 1.18-.15.6c-.06.16-.12.47-.12.5 0 .24.2.31.31.31.18 0 .33-.11.4-.23.03-.06.1-.4.16-.6l.22-.88.17-.66c.13-.54.13-.54.34-.87.34-.48.8-.93 1.45-.93q.57-.01.59.68c0 .54-.43 1.68-.63 2.14-.1.25-.1.33-.1.52 0 .56.45.83.88.83.96 0 1.37-1.37 1.37-1.5 0-.1-.1-.14-.16-.14-.11 0-.13.08-.17.18-.23.8-.64 1.2-1.02 1.2q-.23 0-.23-.33.01-.34.17-.7c.16-.37.58-1.5.58-2.05 0-.75-.5-1.1-1.22-1.1q-1 .02-1.68.97c-.08-.8-.71-.97-1.22-.97-.46 0-1.05.16-1.6.87-.08-.6-.54-.87-1-.87-.35 0-.6.21-.76.54-.25.47-.34.95-.34.97q.01.14.15.13c.14 0 .14-.04.21-.3.12-.49.3-1.07.7-1.07.27 0 .33.25.33.47 0 .19-.06.36-.14.7l-.21.78-.37 1.49-.1.43c0 .23.2.3.33.3.18 0 .34-.11.39-.23.04-.06.12-.4.16-.6Zm11.27 1.59h-.27c-.02.12-.1.6-.2.68-.05.06-.66.06-.77.06h-1.37l.95-.78c.25-.2.9-.67 1.14-.9.2-.22.52-.6.52-1.12 0-.93-.83-1.47-1.84-1.47-.95 0-1.6.64-1.6 1.33a.4.4 0 1 0 .79.02.4.4 0 0 0-.42-.4c.17-.37.61-.66 1.14-.66.77 0 1.17.58 1.17 1.18 0 .52-.35 1.06-.85 1.54l-1.75 1.6c-.08.08-.08.08-.08.31h3.2Zm-12.93-20.17c.05-.13.14-.52.16-.66.04-.1.1-.34.12-.44.02-.04.35-.68.77-1 .33-.27.65-.35.95-.35.34 0 .56.23.56.67 0 .24-.06.47-.18.91l-.29 1.18-.15.6c-.06.15-.12.46-.12.5 0 .23.2.31.3.31a.5.5 0 0 0 .42-.23l.15-.6.21-.89.18-.66c.13-.53.13-.53.35-.86.32-.49.79-.93 1.44-.93q.57-.01.58.67c0 .55-.42 1.68-.61 2.15-.1.25-.12.33-.12.52 0 .56.46.83.89.83.96 0 1.37-1.37 1.37-1.5 0-.1-.1-.14-.16-.14-.11 0-.13.08-.17.17-.23.81-.64 1.2-1.02 1.2q-.24 0-.24-.33a2 2 0 0 1 .18-.7c.15-.36.58-1.5.58-2.04 0-.75-.5-1.1-1.22-1.1-.68 0-1.23.35-1.68.96-.08-.79-.71-.96-1.21-.96-.47 0-1.07.15-1.61.87-.07-.6-.54-.87-1-.87-.35 0-.6.21-.76.54a4 4 0 0 0-.35.97c0 .09.08.13.16.13.13 0 .13-.04.21-.31.12-.48.3-1.06.7-1.06.27 0 .33.25.33.46 0 .2-.06.37-.14.7l-.21.8-.37 1.48-.1.42c0 .23.2.31.33.31.18 0 .33-.11.4-.23.03-.06.1-.4.14-.6Zm13.8-.95c.08-.33.23-.5.79-.52.04 0 .16-.02.16-.17q0-.13-.12-.14l-.79.04h-.4l-.41-.04c-.14 0-.18.1-.18.2s.14.1.2.1q.5 0 .48.3l-.02.11-.81 3.25-2.03-3.82c-.06-.12-.08-.14-.25-.14h-1.06c-.14 0-.25 0-.25.2 0 .1.1.1.27.1.04 0 .29 0 .48.05l-.98 3.88c-.08.29-.2.52-.8.54-.1 0-.17.04-.17.2.02.01.02.1.13.1.18 0 .6-.05.8-.05l.4.02.4.02c.16 0 .18-.15.18-.2-.03-.1-.1-.1-.2-.1q-.5 0-.48-.3l.02-.15.95-3.77 2.34 4.39c.04.11.06.13.15.13.14 0 .16-.04.18-.17Zm-98 25.38.15-.66c.04-.1.1-.35.12-.44.02-.04.34-.68.77-1 .33-.28.66-.36.95-.36q.53 0 .55.68c0 .23-.05.46-.17.91-.08.25-.23.9-.29 1.18l-.15.6c-.06.15-.12.46-.12.5 0 .23.2.3.31.3a.5.5 0 0 0 .4-.22l.16-.6.21-.9.18-.65c.13-.54.13-.54.35-.87.32-.48.79-.93 1.44-.93q.57 0 .58.68a8 8 0 0 1-.61 2.14c-.1.25-.12.33-.12.52 0 .57.46.84.89.84.96 0 1.37-1.38 1.37-1.51 0-.1-.1-.14-.16-.14-.11 0-.13.08-.17.18-.23.8-.64 1.2-1.03 1.2q-.23 0-.23-.33.01-.34.18-.7c.15-.36.58-1.5.58-2.04 0-.76-.5-1.1-1.22-1.1q-1.02.02-1.68.96c-.07-.79-.72-.97-1.22-.97-.46 0-1.06.16-1.6.87-.08-.6-.54-.87-1-.87-.35 0-.6.22-.75.54-.26.47-.35.95-.35.97 0 .1.08.13.15.13.14 0 .14-.03.21-.3.12-.49.3-1.07.7-1.07.27 0 .33.25.33.47 0 .19-.06.37-.14.7l-.21.79-.37 1.48-.1.43c0 .23.2.3.33.3.18 0 .33-.11.39-.22.04-.06.12-.41.15-.6Zm9.93-1.71c0-.23-.02-.23-.25-.23-.49.48-1.24.48-1.51.48v.3c.2 0 .7 0 1.14-.22v3.73c0 .25 0 .35-.77.35h-.31v.28c.4-.03.98-.03 1.39-.03s.98 0 1.39.03v-.28h-.31c-.77 0-.77-.1-.77-.35ZM43.32 93.36c.04-.14.14-.52.16-.66.04-.1.1-.34.11-.44.02-.04.35-.68.78-1 .33-.28.65-.35.94-.35q.54 0 .56.67c0 .23-.05.46-.17.9-.08.26-.23.92-.29 1.19l-.16.6c-.05.15-.1.46-.1.5 0 .23.18.3.3.3q.27-.02.4-.23l.16-.6.21-.88.17-.66c.14-.54.14-.54.35-.87.33-.48.8-.92 1.45-.92q.57-.02.58.67a8 8 0 0 1-.62 2.15c-.1.25-.11.32-.11.52 0 .56.46.83.89.83.96 0 1.37-1.37 1.37-1.51 0-.1-.1-.14-.16-.14-.11 0-.13.08-.17.18-.24.81-.64 1.2-1.02 1.2q-.24 0-.24-.33.02-.33.18-.7c.15-.36.57-1.5.57-2.05 0-.75-.5-1.1-1.21-1.1q-1.02.02-1.68.97c-.08-.8-.71-.96-1.22-.96-.46 0-1.06.15-1.6.86-.08-.6-.54-.86-1-.86q-.52.02-.76.54a4 4 0 0 0-.35.96q.02.14.16.14c.13 0 .13-.04.21-.31.12-.49.3-1.06.7-1.06.27 0 .33.25.33.46 0 .2-.06.36-.14.7l-.21.79-.37 1.48-.1.43c0 .23.2.3.33.3q.28-.02.39-.23c.04-.05.11-.4.15-.6Zm11.27 1.6h-.27c-.02.12-.1.6-.2.68-.05.06-.65.06-.77.06h-1.37l.95-.78c.25-.2.9-.67 1.14-.9.2-.22.52-.6.52-1.13 0-.92-.83-1.46-1.84-1.46-.94 0-1.6.64-1.6 1.33 0 .36.31.42.39.42.19 0 .4-.13.4-.4a.4.4 0 0 0-.42-.4c.17-.37.62-.66 1.14-.66.77 0 1.18.58 1.18 1.17 0 .53-.35 1.07-.86 1.55l-1.75 1.6c-.08.08-.08.08-.08.31h3.2Zm85.91-3.36a.43.43 0 0 0-.44-.45c-.23 0-.44.2-.44.45s.21.44.44.44c.25 0 .45-.2.45-.44m-.01 3.15a.43.43 0 0 0-.44-.45c-.23 0-.44.2-.44.45s.21.44.44.44c.25 0 .45-.2.45-.44m-.01 3.15a.43.43 0 0 0-.44-.45c-.23 0-.44.2-.44.45s.21.44.44.44c.25 0 .45-.2.45-.44m0 0"/>
    </g>
    <g id="ai" clip-path="url(#D)">
      <path fill="none" stroke="red" stroke-linecap="round" stroke-linejoin="round" stroke-width="1.03" d="M29.93 98.7h137.8m-92.98 30.96V5.13"/>
      <path fill="#fff" fill-opacity=".66" stroke="#000" stroke-linecap="round" stroke-linejoin="round" stroke-width="1.36" d="m84.84 88.6-20.16 20.17"/>
      <path fill="none" stroke="#000" stroke-linecap="round" stroke-linejoin="round" stroke-width="1.36" d="M167.73 88.27v20.84M64.33 5.13h20.85"/>
      <path fill="none" stroke="#000" stroke-linecap="round" stroke-linejoin="round" stroke-width=".67" d="M79.96 104.2h82.57"/>
      <path fill-rule="evenodd" d="m79.96 104.2 1.69-1.7-5.94 1.7 5.94 1.7Zm82.57 0-1.7 1.7 5.94-1.7-5.94-1.7Zm0 0"/>
      <path fill="#fff" fill-opacity=".66" d="M71.2 129.66h7.1a2.3 2.3 0 0 1 2.3 2.3v2.74a2.3 2.3 0 0 1-2.3 2.3h-7.1a2.3 2.3 0 0 1-2.29-2.3v-2.75a2.3 2.3 0 0 1 2.29-2.29m0 0"/>
      <g clip-path="url(#E)">
        <path fill="none" stroke="#000" stroke-linecap="round" stroke-linejoin="round" stroke-width="1.36" d="M71.2 129.66h7.1a2.3 2.3 0 0 1 2.3 2.3v2.74a2.3 2.3 0 0 1-2.3 2.3h-7.1a2.3 2.3 0 0 1-2.29-2.3v-2.75a2.3 2.3 0 0 1 2.29-2.29m0 0"/>
      </g>
      <path fill="none" stroke="#000" stroke-linecap="round" stroke-linejoin="round" stroke-width=".67" d="M68.41 93.8V10.1"/>
      <path fill-rule="evenodd" d="m68.41 93.8-1.69-1.7 1.7 5.94 1.7-5.94Zm0-83.7 1.7 1.7-1.7-5.93-1.69 5.94Zm0 0"/>
      <path fill="none" stroke="red" stroke-linecap="round" stroke-linejoin="round" stroke-width="1.03" d="m32.18 97.12-3.14 3.14m0-3.14 3.14 3.14m-1.58 0v-3.14m-1.56 1.58h3.14"/>
      <path fill="#fff" fill-opacity=".66" stroke="#000" stroke-linecap="round" stroke-linejoin="round" stroke-width="1.36" d="M29.93 98.7a2.43 2.43 0 0 1-2.43 2.42H6.44a2.43 2.43 0 1 1 0-4.86H27.5a2.4 2.4 0 0 1 2.43 2.43m0 0"/>
      <path d="M119.8 108.57c.08-.34.12-.45 1.01-.45.29 0 .36 0 .36-.18 0-.12-.1-.12-.15-.12l-1.4.03-1.27-.03c-.07 0-.19 0-.19.2 0 .1.1.1.27.1.02 0 .2 0 .37.02.15.03.25.03.25.16l-.03.18-1.29 5.12c-.1.37-.1.45-.87.45-.16 0-.25 0-.25.2 0 .1.1.1.25.1h4.43c.23 0 .23 0 .28-.17l.77-2.07.03-.13c0-.03-.03-.1-.1-.1-.1 0-.11.05-.17.2-.33.87-.75 1.97-2.4 1.97h-1.1q-.15-.01-.14-.1c0-.04 0-.05.05-.22Zm5.16 2.95c0-.18 0-.18-.2-.18-.44.43-1.04.43-1.3.43v.23c.15 0 .6 0 .95-.18v3.4c0 .22 0 .31-.65.31h-.26v.25l1.18-.04 1.2.04v-.25h-.25c-.67 0-.67-.09-.67-.32ZM57.38 48.73c.07-.34.1-.45 1-.45.28 0 .35 0 .35-.19 0-.1-.1-.1-.15-.1l-1.4.02-1.27-.03c-.06 0-.18 0-.18.19 0 .11.08.11.27.11l.36.01c.16.03.25.03.25.17l-.03.18-1.29 5.11c-.08.38-.1.45-.86.45-.16 0-.26 0-.26.2 0 .1.1.1.26.1h4.42c.23 0 .23 0 .3-.16l.75-2.07.03-.14c0-.02-.03-.1-.1-.1-.09 0-.1.07-.16.22-.34.86-.75 1.95-2.4 1.95h-1.11q-.14 0-.13-.1c0-.03 0-.05.05-.2Zm6.28 5.98h-.23c-.02.15-.09.54-.17.6-.05.05-.56.05-.67.05h-1.22c.7-.61.94-.8 1.33-1.13.49-.38.96-.8.96-1.43 0-.8-.7-1.3-1.57-1.3-.82 0-1.38.59-1.38 1.2 0 .33.28.37.36.37.15 0 .34-.11.34-.36 0-.12-.04-.35-.39-.35.22-.47.66-.62.97-.62.68 0 1.02.53 1.02 1.06 0 .59-.42 1.03-.62 1.28l-1.6 1.6c-.08.05-.08.07-.08.25h2.75ZM38.72 92.68c.38 1 .85 2.45 1 2.68.15.2.24.2.5.2h.22c.08 0 .1-.06.1-.09q0-.03-.06-.1-.12-.15-.21-.42l-1.94-5.43c-.2-.55-.72-.7-1.17-.7-.04 0-.18 0-.18.12 0 .08.08.1.1.1.3.05.38.1.62.76l.92 2.6-2.64 2.6c-.1.13-.17.18-.17.3 0 .17.14.28.3.28.14 0 .23-.1.3-.2ZM162.54 82c0-1.55-1.02-2.57-2.44-2.57-2.05 0-4.16 2.16-4.16 4.39 0 1.59 1.08 2.54 2.46 2.54 2.02 0 4.14-2.09 4.14-4.36m-4.1 4.1c-.94 0-1.6-.75-1.6-2.01a6 6 0 0 1 .87-2.93c.66-1 1.59-1.5 2.34-1.5.79 0 1.64.54 1.64 1.96 0 .7-.25 2.17-1.2 3.36-.47.58-1.24 1.13-2.04 1.13m6.53-2.77c0-.18 0-.18-.2-.18-.43.42-1.03.42-1.3.42v.24c.15 0 .6 0 .96-.18v3.4c0 .22 0 .3-.66.3h-.25v.25l1.18-.03 1.2.03v-.25h-.26c-.67 0-.67-.08-.67-.3ZM93.95 8.38c0-1.54-1-2.57-2.43-2.57-2.06 0-4.16 2.17-4.16 4.4 0 1.58 1.08 2.54 2.45 2.54 2.02 0 4.14-2.09 4.14-4.37m-4.1 4.11c-.94 0-1.6-.76-1.6-2.02 0-.43.14-1.82.88-2.92.65-1 1.58-1.5 2.35-1.5s1.62.54 1.62 1.96c0 .69-.25 2.17-1.2 3.35-.45.58-1.24 1.13-2.04 1.13m7.67.26h-.23c0 .15-.08.55-.17.6-.05.05-.55.05-.65.05h-1.23c.7-.6.93-.8 1.33-1.12.5-.39.95-.8.95-1.43 0-.82-.7-1.31-1.55-1.31-.82 0-1.4.59-1.4 1.2 0 .33.3.37.37.37.15 0 .34-.11.34-.36 0-.12-.04-.35-.39-.35.2-.47.66-.62.98-.62.67 0 1.01.52 1.01 1.07 0 .58-.41 1.03-.63 1.27l-1.6 1.6c-.07.05-.07.07-.07.25h2.75Zm0 0"/>
      <g fill="#060606" clip-path="url(#F)">
        <use xlink:href="#G" x=".63" y="93.53"/>
        <use xlink:href="#H" x="7.12" y="93.53"/>
        <use xlink:href="#I" x="11.37" y="93.53"/>
        <use xlink:href="#J" x="15.15" y="93.53"/>
        <use xlink:href="#K" x="19.4" y="93.53"/>
      </g>
      <g clip-path="url(#L)">
        <use xlink:href="#M" x="83.84" y="135.48" fill="#060606"/>
      </g>
      <g fill="#060606">
        <use xlink:href="#J" x="90.49" y="135.48"/>
        <use xlink:href="#N" x="94.74" y="135.48"/>
        <use xlink:href="#J" x="98.92" y="135.48"/>
        <use xlink:href="#O" x="103.17" y="135.48"/>
      </g>
      <use xlink:href="#N" x="107.69" y="135.48" fill="#060606"/>
      <g fill="#060606" clip-path="url(#P)">
        <use xlink:href="#Q" x="111.75" y="135.48"/>
        <use xlink:href="#K" x="116.54" y="135.48"/>
      </g>
      <g clip-path="url(#R)">
        <path fill="none" stroke="#000" stroke-linejoin="round" stroke-width=".67" d="M85.18 5.13 87.8.98"/>
      </g>
      <g clip-path="url(#S)">
        <path fill="none" stroke="#000" stroke-linejoin="round" stroke-width=".67" d="M82.24 5.13 84.87.98"/>
      </g>
      <g clip-path="url(#T)">
        <path fill="none" stroke="#000" stroke-linejoin="round" stroke-width=".67" d="M79.3 5.13 81.93.98"/>
      </g>
      <g clip-path="url(#U)">
        <path fill="none" stroke="#000" stroke-linejoin="round" stroke-width=".67" d="M76.36 5.13 78.99.98"/>
      </g>
      <g clip-path="url(#V)">
        <path fill="none" stroke="#000" stroke-linejoin="round" stroke-width=".67" d="M73.43 5.13 76.05.98"/>
      </g>
      <g clip-path="url(#W)">
        <path fill="none" stroke="#000" stroke-linejoin="round" stroke-width=".67" d="M70.49 5.13 73.12.98"/>
      </g>
      <g clip-path="url(#X)">
        <path fill="none" stroke="#000" stroke-linejoin="round" stroke-width=".67" d="M67.55 5.13 70.17.98"/>
      </g>
      <g clip-path="url(#Y)">
        <path fill="none" stroke="#000" stroke-linejoin="round" stroke-width=".67" d="M64.6 5.13 67.25.98"/>
      </g>
      <g clip-path="url(#Z)">
        <path fill="none" stroke="#000" stroke-linejoin="round" stroke-width=".67" d="m167.73 109.11 4.16 2.63"/>
      </g>
      <g clip-path="url(#aa)">
        <path fill="none" stroke="#000" stroke-linejoin="round" stroke-width=".67" d="m167.73 106.17 4.16 2.62"/>
      </g>
      <g clip-path="url(#ab)">
        <path fill="none" stroke="#000" stroke-linejoin="round" stroke-width=".67" d="m167.73 103.23 4.16 2.63"/>
      </g>
      <g clip-path="url(#ac)">
        <path fill="none" stroke="#000" stroke-linejoin="round" stroke-width=".67" d="m167.73 100.3 4.16 2.63"/>
      </g>
      <g clip-path="url(#ad)">
        <path fill="none" stroke="#000" stroke-linejoin="round" stroke-width=".67" d="m167.73 97.36 4.16 2.62"/>
      </g>
      <g clip-path="url(#ae)">
        <path fill="none" stroke="#000" stroke-linejoin="round" stroke-width=".67" d="m167.73 94.42 4.16 2.63"/>
      </g>
      <g clip-path="url(#af)">
        <path fill="none" stroke="#000" stroke-linejoin="round" stroke-width=".67" d="m167.73 91.48 4.16 2.62"/>
      </g>
      <g clip-path="url(#ag)">
        <path fill="none" stroke="#000" stroke-linejoin="round" stroke-width=".67" d="m167.73 88.54 4.16 2.63"/>
      </g>
    </g>
  </defs>
  <use xlink:href="#ah" transform="translate(390 143)"/>
  <use xlink:href="#ai" transform="translate(355 616)"/>
</svg>
