<svg xmlns="http://www.w3.org/2000/svg" xmlns:xlink="http://www.w3.org/1999/xlink" width="595.28" height="841.89" viewBox="0 0 595.28 841.89">
  <defs>
    <path id="t" d="M2.4-4.8h1.1c.22 0 .34 0 .34-.22 0-.12-.07-.12-.3-.12H2.47l.44-1.75c.05-.17.05-.19.05-.27a.3.3 0 0 0-.31-.3c-.1 0-.36.04-.46.41l-.47 1.9H.61c-.23 0-.34 0-.34.23 0 .12.07.12.3.12h1.07l-.8 3.16c-.09.4-.12.53-.12.69C.72-.4 1.1.13 1.78.13c1.2 0 1.85-1.75 1.85-1.83q-.01-.11-.11-.11-.07-.01-.1.04c-.01.02-.03.02-.1.22-.26.6-.82 1.43-1.5 1.43-.37 0-.38-.3-.38-.57 0 0 0-.23.03-.37Zm0 0"/>
    <path id="i" d="M2.2-.58a.59.59 0 0 0-1.17 0 .59.59 0 0 0 1.17 0m0 0"/>
    <path id="r" d="M2.5-5.06c0-.22-.02-.22-.23-.22-.33.31-.75.5-1.5.5v.26c.21 0 .64 0 1.1-.21v4.07c0 .3-.03.4-.78.4H.81V0c.33-.03 1.02-.03 1.36-.03.36 0 1.06 0 1.4.03v-.27h-.29c-.76 0-.78-.09-.78-.39Zm0 0"/>
    <path id="q" d="m2.25-1.62.58-.49c.5-.45.97-.89.97-1.62 0-.94-.8-1.55-1.8-1.55-.95 0-1.58.72-1.58 1.42 0 .4.31.45.42.45a.4.4 0 0 0 .41-.42c0-.42-.4-.42-.48-.42.23-.58.76-.78 1.15-.78.74 0 1.11.64 1.11 1.3 0 .82-.58 1.43-1.51 2.39L.52-.3c-.1.08-.1.1-.1.3h3.14l.24-1.42h-.25c-.03.15-.1.56-.2.7-.04.06-.63.06-.77.06h-1.4Zm0 0"/>
    <path id="n" d="M3.44-7.66c0-.26 0-.28-.24-.28-.3.33-.89.77-2.1.77v.34c.26 0 .85 0 1.5-.31v6.22c0 .44-.02.58-1.07.58h-.37V0c.32-.03 1.48-.03 1.87-.03s1.55 0 1.86.03v-.34h-.36c-1.06 0-1.1-.14-1.1-.58Zm0 0"/>
    <path id="m" d="M5.25-2h-.27c-.03.2-.12.86-.25 1.05-.07.1-.76.1-1.12.1H1.4c.32-.28 1.04-1.04 1.36-1.32 1.8-1.67 2.48-2.3 2.48-3.47 0-1.38-1.08-2.3-2.47-2.3S.58-6.75.58-5.74c0 .62.53.62.56.62.25 0 .56-.18.56-.57 0-.33-.22-.56-.56-.56-.1 0-.12 0-.16.02.22-.82.86-1.36 1.65-1.36 1.01 0 1.64.84 1.64 1.95 0 1.01-.6 1.89-1.27 2.66L.58-.28V0h4.36Zm0 0"/>
    <path id="k" d="M4.31-7.77c0-.23 0-.3-.17-.3-.1 0-.12 0-.22.15L.32-2.34V-2h3.15v1.1c0 .43-.03.56-.9.56h-.24V0c.28-.03 1.22-.03 1.55-.03s1.3 0 1.56.03v-.34H5.2c-.86 0-.89-.13-.89-.57V-2h1.2v-.34h-1.2Zm-.8.93v4.5H.64Zm0 0"/>
    <path id="v" d="M3.92-5.05c0-.22 0-.28-.12-.28-.1 0-.33.27-.4.38a1.7 1.7 0 0 0-1.13-.38c-1.44 0-1.88.8-1.88 1.46 0 .12 0 .54.45.96.4.33.8.41 1.35.52.65.14.81.17 1.1.4a1 1 0 0 1 .38.79c0 .51-.31 1.08-1.36 1.08C1.53-.12.95-.58.7-1.77L.63-2q-.04-.06-.1-.05C.4-2.05.4-2 .4-1.78v1.62C.4.06.4.13.52.13.58.13.58.1.78-.15c.06-.1.06-.11.25-.3.45.56 1.1.56 1.3.56 1.25 0 1.87-.7 1.87-1.64a1.6 1.6 0 0 0-.5-1.14c-.43-.36-.75-.43-1.54-.57C1.8-3.31.94-3.47.94-4.2c0-.37.25-.92 1.31-.92 1.31 0 1.38 1.11 1.4 1.49.02.09.1.09.13.09.14 0 .14-.06.14-.28Zm0 0"/>
    <path id="h" d="M5.34-3.81c0-1-.06-1.97-.48-2.88a2.13 2.13 0 0 0-3.92.1 6.4 6.4 0 0 0-.46 2.78c0 1.15.1 2.01.52 2.87.47.9 1.3 1.19 1.9 1.19 1.05 0 1.65-.62 2-1.31.43-.9.44-2.06.44-2.75M2.91.02C2.53.02 1.75-.2 1.53-1.5c-.14-.72-.14-1.62-.14-2.47 0-.97 0-1.86.2-2.56.2-.8.82-1.17 1.32-1.17.45 0 1.15.28 1.37 1.3.16.68.16 1.62.16 2.43s0 1.72-.13 2.44C4.08-.22 3.33.02 2.91.02m0 0"/>
    <path id="j" d="M1.53-6.84c.52.17.92.18 1.06.18 1.35 0 2.2-1 2.2-1.15 0-.05 0-.11-.09-.11-.03 0-.04 0-.15.04a4 4 0 0 1-3.13-.01l-.12-.03c-.1 0-.1.06-.1.26v3.54c0 .21 0 .3.14.3.07 0 .08-.02.2-.16.34-.5.9-.79 1.5-.79.63 0 .93.6 1.04.8.2.45.2 1.05.2 1.5s0 1.13-.33 1.67a1.5 1.5 0 0 1-1.25.72c-.8 0-1.56-.53-1.78-1.4q.1.04.19.04c.2 0 .53-.12.53-.53a.5.5 0 0 0-.53-.53c-.22 0-.53.1-.53.58C.58-.91 1.39.25 2.72.25a2.6 2.6 0 0 0 2.53-2.66C5.25-3.8 4.3-5 3.05-5c-.7 0-1.2.3-1.52.63Zm0 0"/>
    <path id="l" d="M2.2-4.28c-.2 0-.25.01-.25.12 0 .13.05.13.27.13h.55c1.01 0 1.46.83 1.46 1.98 0 1.57-.8 1.97-1.39 1.97-.57 0-1.54-.26-1.9-1.06.39.06.73-.16.73-.58a.56.56 0 0 0-.58-.58c-.3 0-.6.16-.6.61C.48-.62 1.54.25 2.86.25c1.43 0 2.47-1.08 2.47-2.3 0-1.1-.87-1.95-2.03-2.15 1.05-.3 1.72-1.17 1.72-2.1 0-.95-.98-1.64-2.14-1.64-1.2 0-2.08.74-2.08 1.6 0 .48.38.57.55.57.25 0 .53-.17.53-.53 0-.39-.28-.56-.55-.56q-.08 0-.12.02c.45-.82 1.58-.82 1.64-.82.39 0 1.16.2 1.16 1.36 0 .22-.04.9-.38 1.4a1.2 1.2 0 0 1-1.1.57Zm0 0"/>
    <path id="u" d="M2.98 2.98v-.43H1.83V-8.52h1.15v-.43H1.4V2.98Zm0 0"/>
    <path id="w" d="M1.84-8.95H.25v.43h1.16V2.55H.25v.43h1.6Zm0 0"/>
    <path id="g" d="M7.86-2.75c.2 0 .42 0 .42-.23s-.22-.24-.42-.24H1.4c-.2 0-.43 0-.43.24s.22.23.43.23Zm0 0"/>
    <path id="o" d="M2.3-2.98c0-.35-.3-.63-.64-.63a.63.63 0 0 0-.63.63c0 .34.28.62.63.62s.64-.28.64-.62m0 0"/>
    <path id="p" d="M5.56-1.81c.13 0 .3 0 .3-.17 0-.2-.17-.2-.3-.2H1c-.12 0-.3 0-.3.2 0 .17.18.17.3.17Zm0 0"/>
    <path id="x" d="M-7.27-4.4c-.42-.1-.54-.13-.54-1 0-.26 0-.35-.22-.35-.13 0-.13.13-.13.16 0 .21.04.48.04.7v1.47c0 .23-.04.51-.04.75 0 .1 0 .22.24.22.1 0 .1-.1.1-.33 0-.74.1-.74.24-.74q.11 0 .27.05L-.9-1.86c.42.11.55.13.55 1 0 .27 0 .38.22.38C0-.48 0-.61 0-.68l-.03-.68v-1.47L0-3.56c0-.11 0-.25-.22-.25-.12 0-.12.08-.12.34 0 .74-.1.74-.24.74q-.03.01-.28-.05Zm0 0"/>
    <path id="z" d="M-4.8-2.4v-1.1c0-.22 0-.34-.22-.34-.12 0-.12.07-.12.3v1.06l-1.75-.44c-.17-.05-.19-.05-.27-.05a.3.3 0 0 0-.3.31c0 .1.04.36.41.46l1.9.47v1.12c0 .24 0 .34.23.34.12 0 .12-.07.12-.3v-1.07l3.16.8c.4.09.53.12.69.12C-.4-.72.13-1.1.13-1.78c0-1.2-1.75-1.84-1.83-1.84q-.11 0-.11.1-.01.07.04.1c.02.01.02.03.22.1.6.26 1.43.82 1.43 1.5 0 .37-.3.38-.57.38 0 0-.23 0-.37-.03Zm0 0"/>
    <path id="B" d="m-8.52-5.12-.2-.07c-.15 0-.23.11-.23.2 0 .07 0 .18.26.27l11.24 4 .2.08c.16 0 .23-.13.23-.22s-.01-.17-.26-.26Zm0 0"/>
    <path id="y" d="M2.9-3.87c-.04 0-.06 0-.26.2-1.2 1.19-3.17 1.86-5.6 1.86-2.32 0-4.32-.56-5.73-1.96-.1-.1-.14-.1-.17-.1-.06 0-.1.06-.1.1 0 .16.87 1.13 2.04 1.72 1.2.61 2.48.88 3.95.88 1.06 0 2.49-.17 3.75-.78A5 5 0 0 0 3-3.77q0-.08-.1-.1m0 0"/>
    <path id="A" d="M-2.97-3.36c-.9 0-2.39.11-3.78.78a5 5 0 0 0-2.2 1.81q0 .1.1.11c.02 0 .05 0 .26-.2C-7.4-2.05-5.42-2.72-3-2.72c2.32 0 4.32.56 5.72 1.94.11.12.13.12.18.12q.09-.02.09-.1C3-.93 2.14-1.9.97-2.49a8.6 8.6 0 0 0-3.94-.88m0 0"/>
    <path id="C" d="M-2.53-3.9c-.86 0-1.38.1-1.88.35-.7.36-.87 1-.87 1.44 0 1 .73 1.38.97 1.49.58.28 1.36.3 1.78.3.51 0 1.33-.02 1.95-.41.6-.36.75-.96.75-1.38a1.6 1.6 0 0 0-.9-1.47 4 4 0 0 0-1.8-.31m2.47 1.8c0 .26-.13.82-.96.98-.45.09-1.2.09-1.6.09-.57 0-1.11 0-1.55-.1-.81-.15-.9-.78-.9-.98 0-.27.13-.81.87-.97.43-.1 1.03-.1 1.58-.1.46 0 1.17 0 1.62.1.83.16.94.7.94.97m0 0"/>
    <clipPath id="s">
      <path d="M117.18 448.98H355.5v125.1H117.18Zm0 0"/>
    </clipPath>
    <clipPath id="b">
      <path d="M13 120h35v34.46H13Zm0 0"/>
    </clipPath>
    <clipPath id="c">
      <path d="M13 119h35v35.46H13Zm0 0"/>
    </clipPath>
    <clipPath id="d">
      <path d="M.07 146H14v8.46H.07Zm0 0"/>
    </clipPath>
    <clipPath id="e">
      <path d="M128 15h13.2v9H128Zm0 0"/>
    </clipPath>
    <clipPath id="f">
      <path d="M71 .71h9V6h-9Zm0 0"/>
    </clipPath>
    <clipPath id="a">
      <path d="M0 0h142v155H0z"/>
    </clipPath>
    <g id="D" clip-path="url(#a)">
      <path fill="none" stroke="#000" stroke-dasharray="2.48767043096 2.48767043096" stroke-linecap="round" stroke-linejoin="round" stroke-width=".84" d="M122.54 125.36A65.66 65.66 0 1 1 18.73 44.92a65.66 65.66 0 0 1 103.8 80.44m0 0"/>
      <g clip-path="url(#b)">
        <path fill="#fff" fill-opacity=".66" d="M43.87 147.46a16.99 16.99 0 1 1-26.88-20.79 16.99 16.99 0 0 1 26.88 20.79m0 0"/>
      </g>
      <g clip-path="url(#c)">
        <path fill="none" stroke="#000" stroke-linecap="round" stroke-linejoin="round" stroke-width=".84" d="M43.87 147.46a16.99 16.99 0 1 1-26.88-20.79 16.99 16.99 0 0 1 26.88 20.79m0 0"/>
      </g>
      <path fill="#fff" fill-opacity=".66" d="M124.27 43.66a16.99 16.99 0 1 1-26.87-20.8 16.99 16.99 0 0 1 26.87 20.8m0 0"/>
      <path fill="none" stroke="#000" stroke-linecap="round" stroke-linejoin="round" stroke-width=".84" d="M124.27 43.65A16.99 16.99 0 1 1 97.4 22.87a16.99 16.99 0 0 1 26.87 20.78m0 0"/>
      <path d="M71.59 86.1a1.16 1.16 0 1 1-1.84-1.42c.38-.51 1.12-.6 1.63-.2s.6 1.12.2 1.63m-40.23 51.63a1.16 1.16 0 0 1-1.85-1.43c.4-.5 1.13-.6 1.64-.21.5.4.6 1.13.2 1.64m80.42-103.81a1.17 1.17 0 1 1-1.85-1.42 1.17 1.17 0 0 1 1.85 1.42m0 0"/>
      <path fill="#fff" fill-opacity=".66" stroke="#000" stroke-linecap="round" stroke-linejoin="round" stroke-width=".55" d="m34.64 131.6 71.98-93"/>
      <path fill-rule="evenodd" d="m34.64 131.6-.5-3.87-3.73 9.34 8.11-5.96Zm71.98-93 .49 3.88 3.73-9.35-8.1 5.97Zm0 0"/>
      <g clip-path="url(#d)">
        <path d="M11.59 147.42c.12-.37.12-.46 1.06-.46.22 0 .37 0 .37-.3 0-.19-.15-.19-.37-.19h-1.64c-.33 0-.37.03-.55.3l-4.63 6.62-1.31-6.58c-.06-.34-.12-.34-.43-.34H2.36c-.25 0-.4 0-.4.3 0 .2.15.2.36.2.22 0 .52 0 .77.05 0 .12 0 .22-.06.4l-1.44 5.73c-.12.49-.33.82-1.28.85-.15 0-.24.13-.24.3 0 .04.03.16.21.16.28 0 .95-.06 1.25-.06l.64.03c.22 0 .46.03.64.03.24 0 .28-.25.28-.3-.06-.16-.16-.16-.3-.16-.56-.03-.77-.18-.77-.48 0-.07 0-.1.03-.25l1.55-6.22h.03L5 154.12c.07.22.1.34.28.34s.27-.12.34-.25l5.08-7.25-1.64 6.52c-.1.43-.12.52-1 .52-.25 0-.28 0-.31.03-.06.03-.12.18-.12.27.03.04.03.16.21.16l.73-.03.76-.03.83.03c.2 0 .48.03.73.03.06 0 .15 0 .21-.1 0-.02.06-.15.06-.2-.03-.16-.15-.16-.4-.16l-.45-.03c-.22-.03-.3-.03-.3-.15 0-.06.02-.1.05-.21Zm0 0"/>
      </g>
      <path d="m69.41 98.26.03-.18c0-.19-.24-.19-.37-.15l-1.3.09c-.22 0-.37.03-.37.3 0 .18.15.18.33.18.34 0 .43 0 .58.07 0 .18 0 .2-.03.36-.24 1-.46 1.8-.67 2.62a1.5 1.5 0 0 0-1.28-.7c-1.49 0-3.1 1.56-3.1 3.3 0 1.24.88 1.97 1.85 1.97.8 0 1.46-.55 1.74-.82.24.73 1 .82 1.28.82.43 0 .73-.24.94-.6.28-.47.46-1.13.46-1.2 0-.03-.03-.18-.24-.18-.16 0-.19.1-.25.28-.18.73-.42 1.3-.88 1.3-.4 0-.43-.42-.43-.57s0-.19.06-.4Zm-2.53 6.22c-.06.2-.06.2-.22.4-.63.73-1.24.85-1.52.85-.48 0-.94-.3-.94-1.13 0-.49.24-1.65.64-2.29.33-.63.94-1.06 1.5-1.06.87 0 1.09.91 1.09 1l-.03.16Zm0 0"/>
      <g clip-path="url(#e)">
        <path d="M139.76 16.79c.12-.37.12-.46 1.07-.46.2 0 .36 0 .36-.3 0-.19-.15-.19-.36-.19h-1.65c-.33 0-.36.03-.55.3L134 22.76l-1.3-6.58c-.07-.34-.13-.34-.43-.34h-1.74c-.24 0-.4 0-.4.3 0 .19.16.19.37.19s.52 0 .76.06c0 .12 0 .21-.06.4l-1.43 5.73c-.13.48-.34.82-1.28.85q-.24.02-.25.3c0 .03.03.15.22.15.27 0 .94-.06 1.25-.06l.64.03.63.03c.25 0 .28-.24.28-.3-.06-.15-.15-.15-.3-.15-.55-.03-.76-.19-.76-.5l.02-.23 1.56-6.22h.03l1.37 7.07c.06.21.09.33.27.33s.28-.12.34-.24l5.09-7.25-1.65 6.52c-.09.42-.12.52-1 .52-.25 0-.28 0-.3.03-.07.03-.13.18-.13.27.03.03.03.15.21.15l.74-.03.76-.03.82.03.73.03c.06 0 .15 0 .21-.09 0-.03.07-.15.07-.21-.04-.15-.16-.15-.4-.15l-.46-.03c-.21-.04-.3-.04-.3-.16q0-.05.06-.2Zm0 0"/>
      </g>
      <path fill="none" stroke="#000" stroke-linecap="round" stroke-linejoin="round" stroke-width=".84" d="M59.4 10.66a75 75 0 0 1 27.6.38"/>
      <path fill-rule="evenodd" d="m86.33 8.53 5.8 3.54-6.72 1a3.5 3.5 0 0 0 .92-4.54m0 0"/>
      <g clip-path="url(#f)">
        <path d="M79.5 1.66c0-.37-.14-.95-.6-.95-.33 0-.67.27-.67.64 0 .4.64.46.64 1.28 0 .85-.89 2.38-2.07 2.38-.61 0-1-.34-1.28-.85.18-.34.43-.98.43-1.35 0-.18-.1-.42-.3-.42-.7 0-.7 1.25-.7 1.7-.47.5-.93.92-1.66.92-.76 0-1.22-.55-1.22-1.31 0-1.25.86-2.04 1.13-2.5.06-.1.1-.15.1-.25 0-.09-.2-.18-.28-.18-.22 0-.46.37-.58.55a5 5 0 0 0-.85 2.71c0 1.1.45 1.92 1.55 1.92.86 0 1.5-.55 1.95-1.1.25.68.76 1.13 1.55 1.13 2.08 0 2.87-3.35 2.87-4.32m0 0"/>
      </g>
    </g>
  </defs>
  <path fill="none" stroke="#d9d9d9" stroke-miterlimit="10" stroke-width=".4" d="M127.1 574.08v-125.1m9.94 125.1v-125.1m9.93 125.1v-125.1m19.86 125.1v-125.1m9.93 125.1v-125.1m9.93 125.1v-125.1m19.86 125.1v-125.1m9.93 125.1v-125.1m9.93 125.1v-125.1m19.86 125.1v-125.1m9.94 125.1v-125.1m9.93 125.1v-125.1M286 574.08v-125.1m9.93 125.1v-125.1m9.93 125.1v-125.1m19.86 125.1v-125.1m9.93 125.1v-125.1m9.93 125.1v-125.1"/>
  <path fill="none" stroke="#9f9f9f" stroke-miterlimit="10" stroke-width=".4" d="M117.18 574.08v-125.1m39.72 125.1v-125.1m39.72 125.1v-125.1m39.72 125.1v-125.1m39.73 125.1v-125.1m39.72 125.1v-125.1m39.72 125.1v-125.1"/>
  <path fill="none" stroke="#d9d9d9" stroke-miterlimit="10" stroke-width=".4" d="M117.18 566.26H355.5m-238.33-7.82H355.5m-238.33-7.81H355.5m-238.33-15.64H355.5m-238.33-7.82H355.5m-238.33-7.82H355.5m-238.33-15.64H355.5m-238.33-7.82H355.5m-238.33-7.81H355.5m-238.33-15.64H355.5m-238.33-7.82H355.5m-238.33-7.82H355.5"/>
  <path fill="none" stroke="#9f9f9f" stroke-miterlimit="10" stroke-width=".4" d="M117.18 574.08H355.5M117.18 542.8H355.5m-238.33-31.27H355.5m-238.33-31.27H355.5m-238.33-31.28H355.5"/>
  <path fill="none" stroke="#7f7f7f" stroke-miterlimit="10" stroke-width=".2" d="M127.1 575.5v-2.84m9.94 2.84v-2.84m9.93 2.84v-2.84m19.86 2.84v-2.84m9.93 2.84v-2.84m9.93 2.84v-2.84m19.86 2.84v-2.84m9.93 2.84v-2.84m9.93 2.84v-2.84m19.86 2.84v-2.84m9.94 2.84v-2.84m9.93 2.84v-2.84M286 575.5v-2.84m9.93 2.84v-2.84m9.93 2.84v-2.84m19.86 2.84v-2.84m9.93 2.84v-2.84m9.93 2.84v-2.84M127.11 447.57v2.83m9.93-2.83v2.83m9.93-2.83v2.83m19.86-2.83v2.83m9.93-2.83v2.83m9.93-2.83v2.83m19.86-2.83v2.83m9.93-2.83v2.83m9.93-2.83v2.83m19.86-2.83v2.83m9.94-2.83v2.83m9.93-2.83v2.83m19.86-2.83v2.83m9.93-2.83v2.83m9.93-2.83v2.83m19.86-2.83v2.83m9.93-2.83v2.83m9.93-2.83v2.83m-228.4 125.8v-4.24m39.72 4.24v-4.24m39.72 4.24v-4.24m39.72 4.24v-4.24m39.73 4.24v-4.24m39.72 4.24v-4.24m39.72 4.24v-4.24m-238.33-125.1v4.25m39.72-4.25v4.25m39.72-4.25v4.25m39.72-4.25v4.25m39.73-4.25v4.25m39.72-4.25v4.25m39.72-4.25v4.25M115.76 566.26h2.83m-2.83-7.82h2.83m-2.83-7.81h2.83m-2.83-15.64h2.83m-2.83-7.82h2.83m-2.83-7.82h2.83m-2.83-15.64h2.83m-2.83-7.82h2.83m-2.83-7.81h2.83m-2.83-15.64h2.83m-2.83-7.82h2.83m-2.83-7.82h2.83m238.34 109.46h-2.83m2.83-7.82h-2.83m2.83-7.81h-2.83m2.83-15.64h-2.83m2.83-7.82h-2.83m2.83-7.82h-2.83m2.83-15.64h-2.83m2.83-7.82h-2.83m2.83-7.81h-2.83m2.83-15.64h-2.83m2.83-7.82h-2.83m2.83-7.82h-2.83M115.05 574.08h4.25m-4.25-31.28h4.25m-4.25-31.27h4.25m-4.25-31.27h4.25m-4.25-31.28h4.25m238.34 125.1h-4.25m4.25-31.28h-4.25m4.25-31.27h-4.25m4.25-31.27h-4.25m4.25-31.28h-4.25"/>
  <path fill="none" stroke="#000" stroke-miterlimit="10" stroke-width=".8" d="M117.18 574.08v-125.1H355.5v125.1Zm0 0"/>
  <use xlink:href="#g" x="102.14" y="587.99"/>
  <use xlink:href="#h" x="111.43" y="587.99"/>
  <use xlink:href="#i" x="117.27" y="587.99"/>
  <use xlink:href="#h" x="120.52" y="587.99"/>
  <use xlink:href="#j" x="126.37" y="587.99"/>
  <use xlink:href="#g" x="141.86" y="587.99"/>
  <use xlink:href="#h" x="151.15" y="587.99"/>
  <use xlink:href="#i" x="156.99" y="587.99"/>
  <use xlink:href="#h" x="160.24" y="587.99"/>
  <use xlink:href="#k" x="166.09" y="587.99"/>
  <use xlink:href="#g" x="181.58" y="587.99"/>
  <use xlink:href="#h" x="190.87" y="587.99"/>
  <use xlink:href="#i" x="196.72" y="587.99"/>
  <use xlink:href="#h" x="199.96" y="587.99"/>
  <use xlink:href="#l" x="205.81" y="587.99"/>
  <use xlink:href="#g" x="221.31" y="587.99"/>
  <use xlink:href="#h" x="230.59" y="587.99"/>
  <use xlink:href="#i" x="236.44" y="587.99"/>
  <use xlink:href="#h" x="239.69" y="587.99"/>
  <use xlink:href="#m" x="245.53" y="587.99"/>
  <use xlink:href="#g" x="261.03" y="587.99"/>
  <use xlink:href="#h" x="270.32" y="587.99"/>
  <use xlink:href="#i" x="276.16" y="587.99"/>
  <use xlink:href="#h" x="279.41" y="587.99"/>
  <use xlink:href="#n" x="285.26" y="587.99"/>
  <use xlink:href="#h" x="312.86" y="587.99"/>
  <use xlink:href="#h" x="345.12" y="587.99"/>
  <use xlink:href="#i" x="350.96" y="587.99"/>
  <use xlink:href="#h" x="354.21" y="587.99"/>
  <use xlink:href="#n" x="360.06" y="587.99"/>
  <use xlink:href="#h" x="105.11" y="577.93"/>
  <use xlink:href="#n" x="69.26" y="547.54"/>
  <use xlink:href="#o" x="77.76" y="547.54"/>
  <use xlink:href="#n" x="83.73" y="547.54"/>
  <use xlink:href="#h" x="89.57" y="547.54"/>
  <use xlink:href="#p" x="95.42" y="543.2"/>
  <use xlink:href="#q" x="102" y="543.2"/>
  <use xlink:href="#r" x="106.23" y="543.2"/>
  <use xlink:href="#m" x="69.26" y="516.26"/>
  <use xlink:href="#o" x="77.76" y="516.26"/>
  <use xlink:href="#n" x="83.73" y="516.26"/>
  <use xlink:href="#h" x="89.57" y="516.26"/>
  <use xlink:href="#p" x="95.42" y="511.93"/>
  <use xlink:href="#q" x="102" y="511.93"/>
  <use xlink:href="#r" x="106.23" y="511.93"/>
  <use xlink:href="#l" x="69.26" y="484.99"/>
  <use xlink:href="#o" x="77.76" y="484.99"/>
  <use xlink:href="#n" x="83.73" y="484.99"/>
  <use xlink:href="#h" x="89.57" y="484.99"/>
  <use xlink:href="#p" x="95.42" y="480.66"/>
  <use xlink:href="#q" x="102" y="480.66"/>
  <use xlink:href="#r" x="106.23" y="480.66"/>
  <use xlink:href="#k" x="69.26" y="453.72"/>
  <use xlink:href="#o" x="77.76" y="453.72"/>
  <use xlink:href="#n" x="83.73" y="453.72"/>
  <use xlink:href="#h" x="89.57" y="453.72"/>
  <use xlink:href="#p" x="95.42" y="449.39"/>
  <use xlink:href="#q" x="102" y="449.39"/>
  <use xlink:href="#r" x="106.23" y="449.39"/>
  <g clip-path="url(#s)">
    <path fill="none" stroke="red" stroke-miterlimit="10" stroke-width=".8" d="m117.18 529.85.26.88.26.95.27 1.07.26 1.03.27 1.18.27 1.27.26 1.25.27 1.33.26 1.4.26 1.47.27 1.42.27 1.49.26 1.62.27 1.42.26 1.6.27 1.56.26 1.53.27 1.6.26 1.49.27 1.57.26 1.39.27 1.47.26 1.43.27 1.34.26 1.28.27 1.32.26 1.16.27 1.07.26 1.1.27.93.26.89.27.81.26.7.27.6.26.53.27.44.26.29.27.22.27.12h.26l.26-.1.27-.21.26-.31.27-.41.27-.53.26-.59.26-.76.27-.8.26-.88.27-1.02.27-1.05.26-1.14.27-1.25.26-1.32.26-1.35.27-1.42.27-1.5.26-1.48.27-1.57.26-1.62.27-1.6.26-1.64.26-1.68.27-1.66.27-1.68.26-1.6.27-1.7.26-1.6.27-1.56.26-1.56.27-1.53.26-1.42.27-1.42.26-1.29.27-1.32.26-1.2.27-1.1.26-1.01.27-.93.26-.88.27-.72.26-.67.27-.53.27-.42.26-.34.26-.21.27-.1.26.01.27.12.27.24.26.35.26.45.27.59.26.67.27.76.26.9.27.98.27 1.04.26 1.16.26 1.22.27 1.31.26 1.45.27 1.43.27 1.45.26 1.58.27 1.61.26 1.67.26 1.6.27 1.74.27 1.72.26 1.69.27 1.74.26 1.75.27 1.71.26 1.63.27 1.64.26 1.58.27 1.53.26 1.51.27 1.44.26 1.34.27 1.31.26 1.23.27 1.13.26.99.27.95.26.84.27.71.26.6.27.51.26.37.27.26.26.15.27.02.26-.1.27-.21.27-.35.26-.45.26-.58.27-.7.26-.8.27-.92.27-1.03.26-1.13.26-1.21.27-1.31.26-1.4.27-1.45.27-1.61.26-1.6.27-1.68.26-1.64.26-1.8.27-1.82.27-1.78.26-1.86.27-1.89.26-1.84.27-1.79.26-1.86.27-1.77.26-1.8.53-3.39.27-1.53.26-1.58.27-1.44.26-1.37.27-1.3.26-1.18.27-1.13.26-.95.27-.88.26-.78.27-.62.26-.52.27-.38.26-.26.27-.13h.26l.27.14.27.26.26.4.26.51.27.64.26.8.27.9.27 1.01.26 1.08.27 1.26.26 1.32.26 1.41.27 1.5.27 1.58.26 1.64.27 1.76.26 1.75.26 1.82.27 1.88.27 1.88.26 1.89.27 1.87.26 1.92.27 1.95.26 1.85.53 3.7.27 1.71.26 1.74.27 1.65.26 1.57.27 1.5.26 1.34.27 1.31.26 1.18.27 1.08.26.97.27.85.26.7.27.56.26.45.27.3.26.17.27.02.26-.12.27-.26.27-.42.26-.55.26-.67.27-.82.26-.94.27-1.08.27-1.2.26-1.3.27-1.4.26-1.54.26-1.59.54-3.53.26-1.8.27-1.97.26-1.95.27-2.03.26-2.05.26-2.03.27-2.08.27-2.03.26-2.14.27-1.95.26-2.02.26-1.94.27-1.9.27-1.84.26-1.77.27-1.68.26-1.58.27-1.48.26-1.37.27-1.26.26-1.12.27-1.02.26-.85.27-.76.26-.57.27-.42.26-.3.27-.13.26.04.27.18.26.33.27.48.27.62.26.82.26.94.27 1.03.26 1.19.27 1.36.26 1.44.27 1.54.27 1.68.26 1.75.26 1.83.27 1.91.26 2.02.27 2.03.27 2.04.26 2.16.27 2.17.26 2.1.26 2.16.27 2.13.27 2.1.26 2.08.27 2.03.26 1.92.26 1.86.27 1.78.27 1.7.26 1.6.27 1.64.26 1.32.27 1.13.26 1.17.27.85.26.87.27.58.26.45.27.3.26.13.27-.03.26-.2.27-.37.26-.56.27-.68.26-.9.27-1.01.26-1.17.27-1.33.26-1.42.27-1.7.26-1.65.27-1.75.26-2.03.27-1.96.27-2.23.26-2.07.26-2.16.27-2.36.26-2.27.27-2.34.27-2.33.26-2.46.27-2.22.26-2.16.26-2.35.27-2.14.27-2.18.26-1.9.53-3.78.27-1.61.26-1.6.27-1.4.26-1.22.27-1.12.26-.94.27-.77.26-.6.27-.4.26-.25.27-.06.26.14.27.3.26.48.27.69.26.83.27 1.09.26 1.14.27 1.34.26 1.54.27 1.58.26 1.86.27 1.9.26 1.93.27 2.22.26 2.1.27 2.44.26 2.25.27 2.3.27 2.48.26 2.46.26 2.45.27 2.35.26 2.35.27 2.39.27 2.24.26 2.32.27 2.08.26 2 .26 1.96.27 1.72.27 1.73.26 1.47.27 1.32.26 1.18.27.97.26.82.27.6.26.41.27.23.26.01.27-.19.26-.38.27-.58.26-.82.27-.98.26-1.17.27-1.33.26-1.6.27-1.66.26-1.84.27-2.05.26-2.07.27-2.27.26-2.42.27-2.41.26-2.54.27-2.57.27-2.68.26-2.68.26-2.6.27-2.72.26-2.58.27-2.65.27-2.48.26-2.48.26-2.38.27-2.27.26-2.23.27-1.9.27-1.87.26-1.7.27-1.53.26-1.36.26-1.12.27-.91.26-.75.27-.52.27-.3.26-.06.27.15.26.38.26.58.27.85.27 1 .26 1.26.27 1.46.26 1.6.27 1.86.26 1.93.27 2.06.53 4.78.26 2.53.27 2.58.26 2.66.27 2.71.26 2.8.27 2.85.26 2.78.27 2.82.26 2.7.27 2.63.27 2.6.26 2.48.26 2.43.27 2.22.26 2.08.27 1.94.26 1.7.27 1.58.27 1.34.26 1.12.26.92.27.67.26.43.27.18.27-.06.26-.33.26-.55.27-.82.26-1.04.27-1.27.27-1.54.26-1.72.27-1.92.26-2.14.26-2.33.27-2.48.27-2.61.26-2.81.27-2.84.26-2.9.27-3.02.26-3.09.27-3.1.26-3.07.27-3.1.26-3 .27-2.97.26-2.9.27-2.77.26-2.61.27-2.51.26-2.36.27-2.13.26-1.94.27-1.68.26-1.5.27-1.25.26-.98.27-.7.26-.46.27-.17.26.12.27.38.27.65.26.93.26 1.19.27 1.49.26 1.68.27 1.93.27 2.18.26 2.38.27 2.53.26 2.78.26 2.78.27 3.04.27 3.1.26 3.13.27 3.24.26 3.28.26 3.27.27 3.24.27 3.12.26 3.11.27 3.02.26 2.89.27 2.73.26 2.53.27 2.35.26 2.11.27 1.9.26 1.65.27 1.39.26 1.08.27.8.26.5.27.18.26-.13.27-.44.26-.74.27-1.06.26-1.34.27-1.66.26-1.95.27-2.17.26-2.49.27-2.67.26-2.88.27-3.09.27-3.24.26-3.4.26-3.44.27-3.6.26-3.64.27-3.68.27-3.63.26-3.63.27-3.5.26-3.45.26-3.34.27-3.16.27-2.95.26-2.8.27-2.5.26-2.29.26-2 .27-1.68.27-1.35.26-1.04.27-.7.26-.35h.27l.26.34.26.72.27 1.04.27 1.4.26 1.72.27 2.05.26 2.32.27 2.6.26 2.9.27 3.1.26 3.33.27 3.43.26 3.64.27 3.76.26 3.81.27 3.88.26 3.86.27 3.83.26 3.8.27 3.64.26 3.57.27 3.34.27 3.17.26 2.9.26 2.65.27 2.51.26 2.06.27 1.6.27 1.33.26.97.27.55.26.16.26-.23.27-.64.26-1.07.27-1.44.27-1.82.26-2.14.27-2.6.26-2.87.26-3.2.27-3.52.27-3.62.26-3.93.27-4.17.26-4.2.26-4.36.27-4.24.27-4.52.26-4.41.27-4.34.26-4.23.27-4.05.26-3.7.27-3.6.26-3.4.27-3 .26-2.67.27-2.22.26-1.93.27-1.47.26-1.05.27-.56.26-.1.27.35.26.8.27 1.3.26 1.72.27 2.1.26 2.6.27 2.99.26 3.3.27 3.66.26 3.86.27 4.23.27 4.34.26 4.56.26 4.72.27 4.67.26 4.64.27 4.68.27 4.59.26 4.42.27 4.23.26 3.87.26 3.71.27 3.28.27 2.93.26 2.53.27 2.02.26 1.56.27 1.06.26.53.27-.02.26-.55.27-1.07.26-1.67.27-2.14.26-2.68.27-3.14.26-3.55.27-4.03.26-4.43.27-4.68.26-4.95.27-5.18.26-5.34.27-5.47.26-5.52.27-5.44.26-5.34.27-5.18.26-5.04.27-4.69.26-4.35.27-3.95.26-3.49.27-3.03.26-2.52.27-1.88.27-1.29.26-.68.26-.06.27.61.26 1.2.27 1.85.27 2.49.26 3.03.27 3.62.26 4.15.26 4.52.27 4.9.27 5.36.26 5.56.27 5.74.26 5.87.27 5.93.26 5.88.27 5.83.26 5.55.27 5.27.26 4.92.27 4.5.26 4 .27 3.44.26 2.81.27 2.16.26 1.45.27.7.26-.04.27-.83.26-1.58.27-2.34.26-3.09.27-3.8.26-4.46.27-5.07.26-5.58.27-6.07.27-6.46.26-6.79.26-6.9.27-7.08.26-7.14.27-7.02.27-6.77.26-6.51.26-6.04.27-5.64.26-4.98.27-4.34.27-3.58.26-2.77.27-1.93.26-1.04.26 2.05.27 4.82.27 7 .26 8.9.27 10.35.26 11.38.27 11.91.26 11.93.26 11.48.27 10.55.27 9.25.26 7.58.27 5.67.26 3.59.27 1.44.26-.7.27-2.7.26-4.52.27-6.07.26-7.28.27-8.13.26-8.56.27-8.6.26-8.23.27-7.5.26-6.4.27-5.08.26-3.53.27-1.82.27-.09.26 1.64.26 3.27.27 4.75.26 6 .27 6.96.27 7.65.26 7.99.27 8 .26 7.67.26 7.06.27 6.16.26 5.04.27 3.76.27 2.36.26.92.26-.51.27-1.86.26-3.06.27-4.1.27-4.9.26-5.47.27-5.74.26-5.76.26-5.5.27-5 .27-4.29.26-3.36.27-2.32.26-1.2.27-.02.26 1.13.27 2.25.26 3.2.27 4.04.26 4.7.27 5.13.26 5.36.27 5.35.26 5.14.27 4.7.26 4.11.27 3.36.26 2.49.27 1.55.26.58.27-.37.26-1.27.27-2.08.26-2.76.27-3.3.26-3.68.27-3.85.27-3.86.26-3.68.26-3.33.27-2.86.26-2.23.27-1.54.27-.78.26.02.26.78.27 1.53.26 2.17.27 2.73.27 3.15.26 3.44.27 3.6.26 3.59.26 3.44.27 3.14.27 2.74.26 2.23.27 1.65.26 1.02.27.37.26-.27.27-.87.26-1.41.27-1.87.26-2.23.27-2.46.26-2.58.27-2.6.26-2.45.27-2.23.26-1.9.27-1.49.26-1 .27-.5.26.01.27.55.26 1.04.27 1.46.26 1.85.27 2.12.26 2.32.54 4.8.26 2.3.26 2.1.27 1.83.26 1.48.27 1.1.27.66.26.24.27-.2.26-.6.26-.95.27-1.26.27-1.5.26-1.65.27-1.74.26-1.73.26-1.64.27-1.49.27-1.27.26-.98.27-.67.26-.33.27.04"/>
  </g>
  <use xlink:href="#t" x="227.68" y="605.93"/>
  <use xlink:href="#u" x="233.9" y="605.93"/>
  <use xlink:href="#v" x="237.15" y="605.93"/>
  <use xlink:href="#w" x="241.76" y="605.93"/>
  <use xlink:href="#x" x="58.28" y="529.1"/>
  <use xlink:href="#y" x="58.28" y="523"/>
  <use xlink:href="#z" x="58.28" y="518.45"/>
  <use xlink:href="#A" x="58.28" y="514.23"/>
  <use xlink:href="#B" x="58.28" y="509.69"/>
  <use xlink:href="#x" x="58.28" y="503.84"/>
  <use xlink:href="#C" x="60.07" y="498.69"/>
  <use xlink:href="#D" transform="translate(401 449)"/>
</svg>
