<svg xmlns="http://www.w3.org/2000/svg" xmlns:xlink="http://www.w3.org/1999/xlink" width="212" height="70" viewBox="0 0 212 70">
  <defs>
  </defs>
      <path fill="none" stroke="#000" stroke-linecap="round" stroke-linejoin="round" stroke-width=".5" d="M34.21 49.49V26.62"/>
      <path fill-rule="evenodd" d="m34.21 49.49-1.25-1.26 1.25 4.4 1.27-4.4Zm0-22.87 1.27 1.25-1.27-4.4-1.25 4.4Zm0 0"/>
      <path fill="none" stroke="#000" stroke-dasharray="1.00573806252 2.01147789906" stroke-linecap="round" stroke-linejoin="round" stroke-width=".5" d="M30.3 52.59h32.58M30.3 23.32h32.58"/>
      <path fill="none" stroke="#000" stroke-linejoin="round" stroke-width=".5" d="m6.07 61.74-4.68 7.8"/>
      <path fill="none" stroke="#000" stroke-linejoin="round" stroke-width=".5" d="m11.3 61.74-4.68 7.8"/>
      <path fill="none" stroke="#000" stroke-linejoin="round" stroke-width=".5" d="m16.52 61.74-4.68 7.8"/>
      <path fill="none" stroke="#000" stroke-linejoin="round" stroke-width=".5" d="m21.75 61.74-4.67 7.8"/>
      <path fill="none" stroke="#000" stroke-linejoin="round" stroke-width=".5" d="m26.98 61.74-4.67 7.8"/>
      <path fill="none" stroke="#000" stroke-linejoin="round" stroke-width=".5" d="m32.21 61.74-4.67 7.8"/>
      <path fill="none" stroke="#000" stroke-linejoin="round" stroke-width=".5" d="m37.44 61.74-4.67 7.8"/>
      <path fill="none" stroke="#000" stroke-linejoin="round" stroke-width=".5" d="m42.67 61.74-4.68 7.8"/>
      <path fill="none" stroke="#000" stroke-linejoin="round" stroke-width=".5" d="m47.9 61.74-4.68 7.8"/>
      <path fill="none" stroke="#000" stroke-linejoin="round" stroke-width=".5" d="m53.13 61.74-4.68 7.8"/>
      <path fill="none" stroke="#000" stroke-linejoin="round" stroke-width=".5" d="m58.35 61.74-4.67 7.8"/>
      <path fill="none" stroke="#000" stroke-linejoin="round" stroke-width=".5" d="m63.58 61.74-4.67 7.8"/>
      <path fill="none" stroke="#000" stroke-linejoin="round" stroke-width="1.51" d="M.4 59.3h65.11"/>
      <path fill="none" stroke="#000" stroke-linejoin="round" stroke-width=".5" d="m63.58 61.74-4.67 7.8"/>
      <path fill="none" stroke="#000" stroke-linejoin="round" stroke-width=".5" d="m68.8 61.74-4.66 7.8"/>
      <path fill="none" stroke="#000" stroke-linejoin="round" stroke-width=".5" d="m74.04 61.74-4.67 7.8"/>
      <path fill="none" stroke="#000" stroke-linejoin="round" stroke-width=".5" d="m79.27 61.74-4.68 7.8"/>
      <path fill="none" stroke="#000" stroke-linejoin="round" stroke-width=".5" d="m84.5 61.74-4.67 7.8"/>
      <path fill="none" stroke="#000" stroke-linejoin="round" stroke-width=".5" d="m89.73 61.74-4.68 7.8"/>
      <path fill="none" stroke="#000" stroke-linejoin="round" stroke-width=".5" d="m94.95 61.74-4.66 7.8"/>
      <path fill="none" stroke="#000" stroke-linejoin="round" stroke-width=".5" d="m100.19 61.74-4.68 7.8"/>
      <path fill="none" stroke="#000" stroke-linejoin="round" stroke-width=".5" d="m105.41 61.74-4.67 7.8"/>
      <path fill="none" stroke="#000" stroke-linejoin="round" stroke-width=".5" d="m110.64 61.74-4.68 7.8"/>
      <path fill="none" stroke="#000" stroke-linejoin="round" stroke-width=".5" d="m115.87 61.74-4.67 7.8"/>
      <path fill="none" stroke="#000" stroke-linejoin="round" stroke-width=".5" d="m121.1 61.74-4.67 7.8"/>
      <path fill="none" stroke="#000" stroke-linejoin="round" stroke-width="1.51" d="M57.92 59.3h65.1"/>
      <path fill="none" stroke="#000" stroke-linejoin="round" stroke-width=".5" d="m121.1 61.74-4.67 7.8"/>
      <path fill="none" stroke="#000" stroke-linejoin="round" stroke-width=".5" d="m126.33 61.74-4.67 7.8"/>
      <path fill="none" stroke="#000" stroke-linejoin="round" stroke-width=".5" d="m131.56 61.74-4.67 7.8"/>
      <path fill="none" stroke="#000" stroke-linejoin="round" stroke-width=".5" d="m136.79 61.74-4.68 7.8"/>
      <path fill="none" stroke="#000" stroke-linejoin="round" stroke-width=".5" d="m142.02 61.74-4.68 7.8"/>
      <path fill="none" stroke="#000" stroke-linejoin="round" stroke-width=".5" d="m147.25 61.74-4.68 7.8"/>
      <path fill="none" stroke="#000" stroke-linejoin="round" stroke-width=".5" d="m152.47 61.74-4.67 7.8"/>
      <path fill="none" stroke="#000" stroke-linejoin="round" stroke-width=".5" d="m157.7 61.74-4.67 7.8"/>
      <path fill="none" stroke="#000" stroke-linejoin="round" stroke-width=".5" d="m162.93 61.74-4.67 7.8"/>
      <path fill="none" stroke="#000" stroke-linejoin="round" stroke-width=".5" d="m168.16 61.74-4.67 7.8"/>
      <path fill="none" stroke="#000" stroke-linejoin="round" stroke-width=".5" d="m173.4 61.74-4.69 7.8"/>
      <path fill="none" stroke="#000" stroke-linejoin="round" stroke-width=".5" d="m178.62 61.74-4.67 7.8"/>
      <path fill="none" stroke="#000" stroke-linejoin="round" stroke-width="1.51" d="M115.44 59.3h65.11"/>
      <path fill="none" stroke="#000" stroke-linecap="round" stroke-linejoin="round" stroke-width="1.01" d="M179.93 21.37h18.81m-14.46 2.66h10.11m-14.46 2.67h18.81m-14.46 2.66h10.11m-14.46 2.66h18.81m-14.46 2.66h10.11m-14.46 2.66h18.81M184.28 40h10.11m-5.06 0v15.47h-30.01"/>
      <path fill="none" stroke="#000" stroke-linecap="round" stroke-linejoin="round" stroke-width="1.01" d="M189.33 21.37 189.4.9h-88.27v16.92"/>
      <path fill="none" stroke="#000" stroke-linecap="round" stroke-linejoin="round" stroke-width=".76" d="M8.6 29.4v22.87"/>
      <path fill-rule="evenodd" d="M8.6 52.27 6.7 50.4 8.58 57l1.89-6.6Zm0 0"/>
      <path fill="none" stroke="#000" stroke-linecap="round" stroke-linejoin="round" stroke-width="1.01" d="M42.92 52.59V8.77h5.77V52.6Zm110.63 0V8.77h5.77V52.6Zm0 0"/>
      <path fill="gray" stroke="#000" stroke-linecap="round" stroke-linejoin="round" stroke-width="1.01" d="M42.92 52.59h116.4v5.77H42.92Zm7.29-34.79h101.81v5.77H50.22Zm0 0"/>
      <path d="M210.14 28.5c.1-.36.25-.63.96-.66.04 0 .15 0 .15-.18 0 0 0-.1-.1-.1l-.91.03-.93-.02c-.06 0-.15 0-.15.18 0 .1.08.1.15.1.51 0 .61.19.61.38l-.03.18-.8 3.16c-.3 1.2-1.32 1.96-2.2 1.96-.6 0-1.07-.39-1.07-1.16 0 0 0-.28.1-.67l.84-3.45c.08-.32.1-.4.75-.4.23 0 .3 0 .3-.19 0-.1-.1-.1-.12-.1l-1.14.03-1.13-.02c-.08 0-.17 0-.17.18 0 .1.07.1.25.1h.33c.15.04.24.04.24.16l-.16.63-.2.77c-.07.35-.49 2.01-.53 2.2q-.07.32-.06.5c0 1.07.81 1.7 1.74 1.7 1.1 0 2.2-1 2.5-2.17Zm0 0"/>
      <path d="M25.05 35c.07-.32.1-.42.93-.42.27 0 .34 0 .34-.17 0-.1-.1-.1-.14-.1l-1.3.02-1.18-.03c-.06 0-.17 0-.17.18 0 .1.08.1.25.1l.33.01c.16.03.24.03.24.16l-.03.16-1.2 4.74c-.07.35-.09.42-.8.42-.15 0-.23 0-.23.18 0 .1.08.1.23.1h4.1c.21 0 .21 0 .27-.15l.7-1.92.04-.12c0-.03-.03-.1-.1-.1-.09 0-.1.06-.15.2-.3.8-.7 1.81-2.22 1.81h-1.03q-.14-.01-.13-.1l.05-.2Zm5.9 4.7c0-.67-.09-1.17-.36-1.6-.2-.28-.59-.53-1.07-.53-1.45 0-1.45 1.7-1.45 2.14s0 2.1 1.45 2.1c1.43 0 1.43-1.66 1.43-2.1m-1.43 1.92c-.3 0-.67-.17-.8-.66-.08-.37-.08-.88-.08-1.34 0-.45 0-.92.09-1.26a.8.8 0 0 1 .79-.62c.33 0 .65.2.76.57.1.33.11.77.11 1.31q.02.7-.08 1.31c-.13.57-.54.7-.8.7M79.52 7.63c.09-.32.1-.4.77-.4.19 0 .27 0 .27-.18 0-.1-.08-.1-.23-.1h-1.17c-.23 0-.25 0-.34.17l-3.23 5.04-.7-5c-.02-.21-.04-.21-.27-.21H73.4c-.16 0-.26 0-.26.17 0 .1.08.1.25.1l.39.02c.13.03.19.05.19.15l-.04.17-1.13 4.5c-.08.35-.23.63-.95.65-.04 0-.16.02-.16.17q.01.11.13.11l.89-.03.9.03c.04 0 .17 0 .17-.18 0-.1-.1-.1-.17-.1-.5 0-.6-.17-.6-.38q0-.08.03-.2l1.2-4.82h.02l.76 5.48c.02.1.03.2.13.2s.15-.1.2-.15l3.57-5.6h.01l-1.28 5.06c-.08.35-.1.41-.8.41-.14 0-.23 0-.23.17 0 .11.1.11.12.11l1.1-.03 1.1.03c.06 0 .17 0 .17-.18 0-.1-.08-.1-.25-.1-.32 0-.57 0-.57-.15l.04-.22Zm0 0"/>
      <path d="m4.36 40.71.02-.15q-.01-.23-.25-.24c-.08 0-.33.06-.36.38a1 1 0 0 0-.83-.56c-1 0-2.1 1.24-2.1 2.51 0 .88.54 1.4 1.17 1.4.53 0 .95-.41 1.03-.51l.01.01-.29 1.17c-.04.08-.33.96-1.28.96a3 3 0 0 1-.7-.1c.26-.07.36-.3.36-.46 0-.14-.1-.3-.33-.3-.2 0-.47.15-.47.5 0 .37.32.55 1.16.55 1.1 0 1.75-.7 1.89-1.22Zm-1.14 2.2a1.3 1.3 0 0 1-.46.63c-.18.15-.46.32-.72.32-.44 0-.57-.46-.57-.82 0-.41.25-1.47.5-1.91.24-.43.61-.79.99-.79.58 0 .7.72.7.76l-.03.13Zm0 0"/>
</svg>
