<svg xmlns="http://www.w3.org/2000/svg" xmlns:xlink="http://www.w3.org/1999/xlink" width="210" height="200" viewBox="0 0 210 200">
  <defs>
    <path id="f" d="m2.05-1.66 2.33-2.68q-.03-.45-.18-.61-.16-.2-.54-.2v-.22h2.5v.23q-.4 0-.54.08a1 1 0 0 0-.21.2q-.07.1-.07.75v2.84q0 .63.07.75.05.12.2.2.14.1.55.1V0h-2.6v-.22q.48 0 .64-.17t.17-.88v-2.51L2.06-1.1q0 .5.14.68.15.2.56.2V0H.27v-.22q.52 0 .67-.19.15-.18.14-.86V-4.1q0-.62-.06-.73a.5.5 0 0 0-.2-.2q-.14-.1-.55-.1v-.24h2.59v.24q-.4 0-.53.08a1 1 0 0 0-.2.2q-.08.1-.08.75Zm0 0"/>
    <path id="e" d="M6.45 0H3.03v-.22q.68-.01.9-.17.24-.17.24-.72-1.97 0-2.84-.83a2.7 2.7 0 0 1-.88-2.08q0-.93.52-1.59.51-.66 1.26-.92.77-.25 1.94-.25 0-.5-.14-.66a1 1 0 0 0-.31-.22 3 3 0 0 0-.69-.07v-.22h3.42v.22q-.69.03-.9.21t-.25.74q1.26 0 1.98.28.73.27 1.25.9.52.65.52 1.58-.01 1.22-.86 2.07-.84.84-2.9.84.03.54.26.7.21.18.9.2ZM5.3-1.53q.87 0 1.37-.22.52-.24.85-.81.34-.6.34-1.46 0-.8-.34-1.37a1.7 1.7 0 0 0-.85-.77 4 4 0 0 0-1.37-.2Zm-1.13 0v-4.83q-.9 0-1.4.24-.5.22-.82.75-.32.52-.32 1.35 0 .93.39 1.54.38.6.9.78.53.17 1.25.17m0 0"/>
    <path id="g" d="m4.63-5.37.21 1.46H4.6q-.22-.7-.45-.89-.22-.18-.95-.18H2.05v3.71q0 .63.06.75.08.12.2.2.15.1.55.1V0H.19v-.22Q.74-.23.9-.39t.17-.88V-4.1q0-.56-.06-.72a.4.4 0 0 0-.22-.23 2 2 0 0 0-.61-.08v-.24Zm0 0"/>
    <path id="h" d="M1.5-1.14q.28 0 .47.2t.19.46-.2.46a.66.66 0 0 1-.92 0 .7.7 0 0 1-.2-.46.64.64 0 0 1 .66-.66m0 0"/>
    <path id="i" d="M5.5-1.53 4.95 0H.27v-.22a22 22 0 0 0 2.9-3.08q.84-1.2.85-2.18 0-.75-.47-1.24-.45-.5-1.11-.5-.58 0-1.05.34-.47.36-.69 1.02H.48q.16-1.09.75-1.67.61-.58 1.52-.58.96 0 1.6.63.67.6.67 1.45 0 .6-.29 1.22-.44.93-1.4 2A35 35 0 0 1 1.5-.9h2.08q.63 0 .89-.05.25-.05.45-.19.22-.13.36-.4Zm0 0"/>
    <path id="b" d="m7.6-1.3-.13.2-.3.33c-.25.27-.36.35-.51.35q-.13 0-.13-.17.01-.1.11-.5l.75-2.77c.02-.06.03-.23.03-.31 0-.4-.28-.7-.64-.7q-.32-.01-.7.25c-.55.34-1 .87-1.77 2.09.3-.86.46-1.47.46-1.67 0-.4-.27-.67-.64-.67-.68 0-1.44.73-2.46 2.32l.64-2.3-.03-.03c-.6.13-.83.18-1.76.35v.17c.5.02.5.02.59.08.06.01.1.1.1.17 0 .13-.26 1.16-.65 2.53L.12 0h.85c.51-1.75.69-2.17 1.06-2.73C2.66-3.7 3.31-4.3 3.7-4.3q.21 0 .22.28c0 .14-.33 1.44-.77 3C3.04-.7 3-.55 2.86 0h.83c.44-1.72.67-2.28 1.23-3.06.53-.75 1.1-1.24 1.4-1.24q.21.01.23.24l-.08.39-.64 2.53c-.11.44-.14.62-.14.73q0 .5.43.5c.54 0 1.02-.36 1.6-1.17l.06-.08Zm0 0"/>
    <path id="c" d="m3.3-.95-.08-.03c-.27.4-.35.45-.67.45H.89l1.17-1.22c.61-.66.9-1.17.9-1.72 0-.7-.57-1.23-1.3-1.23-.38 0-.74.15-1 .43-.22.24-.33.46-.44.96l.14.03c.28-.69.53-.9 1.02-.9.57 0 .96.38.96.98 0 .54-.3 1.18-.89 1.8L.2-.07V0h2.72Zm0 0"/>
    <path id="d" d="M.83 0h1.9v-.1c-.53 0-.64-.09-.65-.42v-4.17l-.06-.01-1.25.64v.1q.4-.17.5-.17.22 0 .21.33v3.16c-.01.44-.14.53-.65.53Zm0 0"/>
    <path id="a" d="M4.25-4.94h.92l-.56 2.5q-.15.7-.22.88.22.98.63.98.48 0 .5-.67h.2a2 2 0 0 1-.24 1.02q-.21.38-.56.39a.5.5 0 0 1-.42-.24q-.15-.23-.3-.95Q3.64.17 2.36.16 1.5.16.98-.52a3.2 3.2 0 0 1-.51-1.95q0-1.23.56-1.92.56-.7 1.35-.7.55 0 .9.4.36.4.64 1.28Zm-.47 2.11a6 6 0 0 0-.58-1.34q-.3-.5-.75-.5-.98 0-.98 2.31 0 2.19.95 2.19.81 0 1.2-1.94Zm0 0"/>
  </defs>
  <path fill="#fff" fill-rule="evenodd" stroke="#000" stroke-miterlimit="8" stroke-width=".75" d="m33.5 137.97 136.5-51.9v51.9Zm51.73-38.55 19.59-7.69 6.3 16.06-19.59 7.69Zm87.92 20.41h13.1v-17.3h-13.1Zm0 0"/>
  <path fill="#fff" fill-rule="evenodd" stroke="#000" stroke-linejoin="round" stroke-miterlimit="8" stroke-width=".75" d="M170.45 77.38c0-2.42 1.98-4.4 4.42-4.4a4.4 4.4 0 0 1 4.43 4.4c0 2.43-1.98 4.4-4.43 4.4a4.4 4.4 0 0 1-4.42-4.4Zm0 0"/>
  <path fill="none" stroke="#000" stroke-linejoin="round" stroke-miterlimit="8" stroke-width=".75" d="m108.7 99.63 66.35-26.64m4.25 3.24.45 26.2m-4.7-26.2-5.05 9.85"/>
  <use xlink:href="#a" x="59.23" y="135.99"/>
  <use xlink:href="#bX" x="64.99" y="135.99"/>
  <use xlink:href="#b" x="71.23" y="103.35"/>
  <use xlink:href="#c" x="79.15" y="104.31"/>
  <use xlink:href="#bR" x="82.63" y="103.35"/>
  <use xlink:href="#b" x="190.42" y="116.31"/>
  <use xlink:href="#d" x="198.34" y="117.27"/>
  <use xlink:href="#bR" x="501.82" y="116.31"/>
  <path fill="none" stroke="#000" stroke-linejoin="round" stroke-miterlimit="8" stroke-width=".75" d="m54.2 129.98 3.05 7.99"/>
  <use xlink:href="#e" x="111.91" y="154.47"/>
  <use xlink:href="#f" x="121.39" y="154.47"/>
  <use xlink:href="#g" x="127.86" y="154.47"/>
  <use xlink:href="#h" x="132.78" y="154.47"/>
  <use xlink:href="#au" x="135.78" y="154.47"/>
  <use xlink:href="#i" x="138.78" y="154.47"/>
  <use xlink:href="#bX" x="144.79" y="154.47"/>
</svg>
