<svg xmlns="http://www.w3.org/2000/svg" xmlns:xlink="http://www.w3.org/1999/xlink" width="230" height="150" viewBox="0 0 230 150">
  <defs>
    <path id="w" d="M3-5.52q1.21 0 1.95.93.63.8.63 1.8 0 .73-.35 1.48-.34.74-.95 1.1T2.94.17A2.3 2.3 0 0 1 1-.8a3 3 0 0 1-.6-1.82q0-.74.37-1.47.37-.74.96-1.08.6-.35 1.27-.35m-.19.38q-.31 0-.62.19-.32.18-.5.65-.2.46-.19 1.17 0 1.19.45 2.04.48.84 1.24.84.56 0 .92-.47.37-.47.37-1.6 0-1.42-.6-2.26a1.3 1.3 0 0 0-1.07-.56m0 0"/>
    <path id="d" d="M2.05-2.97h2.3V-4.1q.01-.5-.04-.66a.5.5 0 0 0-.18-.26q-.16-.1-.58-.11v-.22h2.6v.22q-.37 0-.54.1a.4.4 0 0 0-.22.23q-.06.15-.06.7v2.84q0 .52.04.7.05.15.22.26.18.1.55.1V0h-2.6v-.22q.49 0 .65-.17t.17-.88v-1.32H2.05v1.32q0 .52.04.7.06.15.2.26.17.1.57.1V0H.26v-.22Q.8-.22.95-.4t.14-.86V-4.1q0-.5-.05-.66a.4.4 0 0 0-.2-.26q-.18-.1-.56-.11v-.22h2.59v.22q-.36 0-.53.1a.4.4 0 0 0-.22.23q-.06.15-.06.7Zm0 0"/>
    <path id="o" d="M.3-5.36h4.62l.24 1.45h-.27a2 2 0 0 0-.23-.67 1 1 0 0 0-.38-.33 2 2 0 0 0-.72-.07H3.1v3.71q0 .62.08.77t.24.22q.17.04.75.06V0H1.25v-.22q.56-.01.72-.17t.16-.88v-3.71h-.47q-.52 0-.7.06a1 1 0 0 0-.35.3q-.15.24-.28.71H.06Zm0 0"/>
    <path id="h" d="m3.84-1.4 1.68-3.96h1.8v.22q-.4 0-.54.08a1 1 0 0 0-.2.2q-.09.1-.08.75v2.84q0 .57.06.74.06.15.24.23t.53.08V0h-2.6v-.22q.47 0 .63-.17t.17-.88v-3.21L3.64 0h-.2L1.5-4.48v3.21q0 .57.06.74.07.15.22.23.17.08.53.08V0H.27v-.22q.52 0 .67-.19.15-.18.14-.86V-4.1q0-.62-.06-.73a1 1 0 0 0-.2-.2q-.14-.1-.55-.1v-.22h1.89Zm0 0"/>
    <path id="s" d="M5.75 0H4.17q-.73-1.08-1.33-2.19a2 2 0 0 0-.26-.39.4.4 0 0 0-.31-.12l-.22.01v1.42q0 .6.06.75.07.17.25.24t.6.06V0H.25v-.22q.55 0 .7-.18t.14-.86V-4.1q0-.62-.06-.73a1 1 0 0 0-.2-.2q-.14-.1-.55-.1v-.22h2.68v.22q-.48 0-.6.08l-.2.17q-.1.09-.1.78v1.06l.18.02q.36 0 .68-.2.3-.21.54-.86.24-.63.38-.85t.42-.34q.27-.14.56-.14.32 0 .5.15.2.15.19.4 0 .2-.14.34-.13.14-.38.14a1 1 0 0 1-.3-.06q-.26-.1-.38-.1-.27 0-.46.47-.18.54-.28.69-.09.16-.36.4.18.07.4.29.2.2.8 1.23.44.82.68 1.03.23.2.67.22Zm0 0"/>
    <path id="c" d="M.3-5.36h3.5v.22q-.6 0-.72.06t-.22.17-.1.8V-3h.52q.95 0 1.47.15.53.16.8.52t.28.84q0 .67-.55 1.1-.55.4-1.83.4H.98v-.22q.48 0 .65-.17.16-.18.17-.88v-3.71q-.7 0-1.02.2-.3.21-.45.87H.06Zm2.47 4.9q.32.09.62.09.69 0 1-.33a1.1 1.1 0 0 0-.03-1.6 1.4 1.4 0 0 0-.99-.34l-.6.03Zm0 0"/>
    <path id="r" d="M4.92-2.03Q4.7-.98 4.08-.41a2.04 2.04 0 0 1-3-.2A3 3 0 0 1 .4-2.67q0-1.27.75-2.05.75-.8 1.8-.8.8 0 1.3.43.52.4.52.86 0 .21-.16.36-.13.14-.39.14-.34 0-.53-.22-.09-.13-.12-.47a.8.8 0 0 0-.24-.53 1 1 0 0 0-.56-.17q-.6 0-.95.43a2.3 2.3 0 0 0-.47 1.52q0 .95.47 1.69.46.73 1.26.73.58 0 1.04-.4.32-.26.62-.98Zm0 0"/>
    <path id="e" d="M6.14-.22v1.7h-.22A1.5 1.5 0 0 0 5.47.4Q5.05 0 3.92 0H.27v-.22q.52 0 .67-.19.15-.18.14-.86V-4.1q0-.62-.06-.73a1 1 0 0 0-.2-.2q-.14-.1-.55-.1v-.22h2.59v.22q-.4 0-.53.08a1 1 0 0 0-.2.2q-.08.1-.08.75v3.03q0 .52.1.61.08.1.57.1h.95q.55 0 .61-.1.08-.1.08-.65V-4.1q0-.54-.06-.7a.4.4 0 0 0-.22-.25 1.4 1.4 0 0 0-.53-.08v-.22h2.6v.22q-.4 0-.54.08a1 1 0 0 0-.2.2q-.08.1-.08.75v2.77q0 .74.12.93.14.18.7.2m0 0"/>
    <path id="f" d="M1.28-3.34q-.02 1.2.58 1.87.57.67 1.37.67.52 0 .91-.28.39-.3.66-1l.18.13A3 3 0 0 1 4.27-.5q-.6.66-1.49.66-.97 0-1.65-.75a3 3 0 0 1-.7-2.02q0-1.37.71-2.14a2.3 2.3 0 0 1 1.78-.78 2 2 0 0 1 1.49.6q.57.6.57 1.59Zm0-.35h2.47a2 2 0 0 0-.1-.72 1.2 1.2 0 0 0-1.06-.7q-.48 0-.87.38-.38.38-.44 1.04m0 0"/>
    <path id="x" d="M4.36-4.98H2.05v3.71q0 .63.06.75.06.13.2.22t.55.08V0H.26v-.22Q.8-.22.95-.4t.14-.86V-4.1q0-.62-.06-.73a1 1 0 0 0-.2-.2q-.14-.1-.55-.1v-.22h5.87v.22q-.4 0-.53.08a1 1 0 0 0-.2.2q-.08.1-.08.75v2.84q0 .63.06.75.06.13.2.22t.55.08V0h-2.6v-.22q.49 0 .65-.17t.17-.88Zm0 0"/>
    <path id="b" d="M.92-5.36h4.8v.22q-.4 0-.53.08a1 1 0 0 0-.2.2q-.08.1-.08.75v2.84q0 .63.06.75.05.13.2.22t.55.08V0H2.94v-.22q.44 0 .62-.05.17-.04.27-.21.1-.2.1-.79v-3.71H2.17v2.26q0 1.28-.13 1.8-.11.52-.45.76Q1.25.1.8.1.06.1.06-.53q0-.2.13-.33A.4.4 0 0 1 .5-1q.2 0 .4.16.21.23.33.23.27 0 .38-.44.12-.45.12-1.56v-1.17q0-.92-.14-1.11-.12-.2-.67-.25Zm0 0"/>
    <path id="j" d="M5.25-5.36v.22q-.37 0-.55.1a.4.4 0 0 0-.22.26q-.04.15-.04.67v2.84q0 .52.03.7.04.15.22.26.18.1.56.1V0h-2.6v-.22q.49 0 .65-.17t.17-.88v-1.15h-.44L1.33 0H0v-.22q.28 0 .4-.08t.42-.5l1.25-1.77Q.73-3.05.73-4.02q0-.54.49-.93.48-.4 1.64-.4Zm-1.78.44q-.23-.06-.44-.06-.6 0-.89.3a1 1 0 0 0-.28.7q0 .51.4.86a1.7 1.7 0 0 0 1.2.3Zm0 0"/>
    <path id="a" d="m7.22-8.1.17 2.68h-.17a3.4 3.4 0 0 0-1.05-1.74 2.5 2.5 0 0 0-1.6-.53q-.79 0-1.43.4-.65.41-1.02 1.27a6 6 0 0 0-.35 2.2q-.01 1.07.34 1.87.34.78 1.03 1.2.7.42 1.6.42.76 0 1.35-.33.6-.34 1.3-1.32l.19.12A4 4 0 0 1 6.18-.3 3.6 3.6 0 0 1 4.3.2a3.6 3.6 0 0 1-3.07-1.47 4.2 4.2 0 0 1-.8-2.56q0-1.2.54-2.18a3.86 3.86 0 0 1 5.2-1.67q.23.13.35.13.15 0 .28-.11.15-.15.22-.44Zm0 0"/>
    <path id="g" d="M.6-5.8v-2.3h.2q.09.38.43.38.13 0 .55-.16.67-.23 1.4-.23.97 0 1.57.6.6.57.6 1.37 0 .72-.46 1.23-.44.51-1.19.75.82.14 1.3.74.5.57.5 1.37 0 1-.77 1.61Q3.98.2 2.86.2 1.16.2.25-1.4l.2-.12q.3.48.86.84.58.35 1.24.35.75 0 1.18-.52.44-.53.44-1.28t-.54-1.3q-.54-.53-1.8-.53v-.39q.9 0 1.34-.19t.74-.6q.27-.42.28-.97 0-.66-.4-1.07-.38-.4-1.06-.4-.84 0-1.3.5-.48.48-.63 1.3Zm0 0"/>
    <path id="D" d="M.4-.28a1 1 0 0 0 .33-.13 1 1 0 0 0 .2-.22q.07-.13.13-.34l.19-.78 1-4.52q.13-.58.13-.93 0-.3-.15-.38a1 1 0 0 0-.42-.14L1.87-8h2.35l-.06.28q-.24.05-.33.11l-.17.19q-.08.11-.16.36t-.2.81L2.05-.55h1.43q.4 0 .61-.06.23-.07.44-.28.2-.2.4-.55.18-.33.38-.86h.58L5.3 0H.34Zm0 0"/>
    <path id="E" d="m2.8-2.66-.38-1.67a2 2 0 0 0-.17-.48q-.06-.12-.14-.16a.3.3 0 0 0-.17-.05l-.24.07a1 1 0 0 0-.22.18l-.3.43L.8-4.6q.38-.57.72-.83a1.2 1.2 0 0 1 1.1-.24q.15.04.25.13.12.07.2.22.07.12.15.36t.14.58q.08.34.12.71h.07q.55-.8.84-1.15.3-.37.5-.55t.38-.25.5-.08q.25 0 .45.07l-.24 1.06h-.42q-.03-.25-.2-.25l-.11.03-.16.08q-.07.04-.25.22a11 11 0 0 0-.78.93l-.39.5.2.97.16.69.13.42.12.24q.06.08.13.1.07.04.17.04.15 0 .3-.11.15-.13.43-.57l.38.25q-.41.62-.74.86a1.3 1.3 0 0 1-.8.25A1 1 0 0 1 3.74 0a1 1 0 0 1-.3-.28A7 7 0 0 1 3-2.06h-.07Q2.3-1.2 1.98-.8q-.3.38-.5.57-.19.17-.37.25T.62.09A1 1 0 0 1 .18.02l.24-1.07h.42q.02.25.2.25l.17-.04q.1-.05.25-.2.18-.18.47-.54zm0 0"/>
  </defs>
  <use xlink:href="#de" transform="matrix(.36004 0 0 .36006 154.35 527.49)"/>
  <path fill="none" stroke="#000" stroke-linejoin="round" stroke-miterlimit="10" d="M20.84 92.19h164.8"/>
  <path fill="none" stroke="#000" stroke-linejoin="round" stroke-miterlimit="10" stroke-width="2" d="M10.52 92.05c0-6.07 5.2-10.98 11.62-10.98 6.43 0 11.63 4.91 11.63 10.98 0 6.05-5.2 10.97-11.63 10.97-6.42 0-11.62-4.92-11.62-10.97Zm131.96.13c0-3.03 2.51-5.48 5.6-5.48s5.6 2.45 5.6 5.48a5.54 5.54 0 0 1-5.6 5.46 5.53 5.53 0 0 1-5.6-5.46Zm41.66-.33c0-1.62 1.3-2.94 2.9-2.94s2.9 1.32 2.9 2.94-1.3 2.94-2.9 2.94-2.9-1.33-2.9-2.94Zm0 0"/>
  <use xlink:href="#a" x="03.44" y="77.73"/>
  <use xlink:href="#b" x="11.46" y="77.73"/>
  <use xlink:href="#c" x="17.44" y="77.73"/>
  <use xlink:href="#d" x="23.68" y="77.73"/>
  <use xlink:href="#e" x="30.03" y="77.73"/>
  <use xlink:href="#f" x="36.49" y="77.73"/>
  <use xlink:href="#i" x="41.8" y="77.73"/>
  <use xlink:href="#g" x="137" y="82.89"/>
  <use xlink:href="#f" x="143.01" y="82.89"/>
  <use xlink:href="#h" x="148.27" y="82.89"/>
  <use xlink:href="#j" x="155.82" y="82.89"/>
  <use xlink:href="#i" x="161.45" y="82.89"/>
  <use xlink:href="#o" x="171.52" y="85.76"/>
  <use xlink:href="#f" x="176.78" y="85.76"/>
  <use xlink:href="#b" x="182.06" y="85.76"/>
  <use xlink:href="#f" x="188.04" y="85.76"/>
  <use xlink:href="#r" x="193.32" y="85.76"/>
  <use xlink:href="#s" x="198.6" y="85.76"/>
  <use xlink:href="#w" x="204.46" y="85.76"/>
  <use xlink:href="#x" x="210.45" y="85.76"/>
  <use xlink:href="#i" x="216.95" y="85.76"/>
  <use xlink:href="#D" x="84.35" y="111.65"/>
  <use xlink:href="#i" x="90.94" y="111.65"/>
  <path d="m95.43 106.91 48.51.09v.75l-48.51-.09Zm48.51.46-2-3 6 3-6 3Zm-65.99-.46h-52.82v.75h52.82Zm-52.82.37 2-3-6 3 6 3Zm150.17-.13 7.89.07-.01.75-7.9-.07Zm7.89.44-1.98-3 5.97 3.03-6.02 2.95Zm0 0"/>
  <use xlink:href="#E" x="165.89" y="112.13"/>
  <use xlink:href="#cy" x="172.6" y="112.13"/>
  <path d="m163.92 108-11.93-.07v-.75l11.93.07Zm-11.93-.45 1.98 3-5.97-3.02 6.01-2.97Zm0 0"/>
</svg>
