<svg xmlns="http://www.w3.org/2000/svg" xmlns:xlink="http://www.w3.org/1999/xlink" width="225" height="200" viewBox="0 0 225 200">
  <defs>
    <path id="a" d="M6.94-5.3q-.75.99-1.72 2.4-.14 1.15-.14 1.6 0 .38.08.55t.3.17q.15 0 .37-.14.2-.14.45-.42l.33.31q-.48.54-.86.74-.36.18-.73.18-.8 0-.79-1.14 0-.24.04-.54H4.2q-.6.88-1.14 1.3-.53.38-1.15.38-.43 0-.72-.25Q.89-.4.75-.8t-.14-.88q0-1.05.39-2 .4-.93 1.1-1.47a2.6 2.6 0 0 1 1.62-.54q.65 0 1.01.42.38.4.43 1.2l.04-.01.78-1.52h1ZM4.39-2.84q.1-.62.1-1.08-.01-.68-.2-.99-.2-.32-.62-.32-.53 0-1 .48t-.75 1.31q-.27.82-.26 1.67 0 .6.17.88t.53.28q.5 0 1.03-.58.53-.6 1-1.65m0 0"/>
    <path id="d" d="M2.58-4.1q.54-.82 1.08-1.21.52-.4 1.07-.4.57 0 .85.34.3.3.3.92v.17q.5-.72 1-1.06.49-.36 1.04-.36.53 0 .83.3.3.32.3.88 0 .38-.18 1.05l-.39 1.55q-.15.63-.15.89 0 .24.08.34.07.12.25.11a.6.6 0 0 0 .36-.14q.2-.15.57-.55l.33.33a5 5 0 0 1-.87.78Q8.67.1 8.19.1a.8.8 0 0 1-.61-.26 1 1 0 0 1-.24-.7q0-.38.2-1.13l.26-1q.14-.55.18-.81.05-.27.05-.44 0-.4-.14-.58-.13-.18-.44-.19a1 1 0 0 0-.53.2 3 3 0 0 0-.6.57q-.3.4-.5.77t-.3.92L4.98 0H3.97l.67-2.98.17-.8q.05-.27.05-.45 0-.43-.16-.6-.15-.18-.47-.19a1 1 0 0 0-.5.2q-.28.18-.6.59-.33.4-.52.78-.18.38-.3.92L1.77 0H.75l.84-3.72q.15-.56.14-.86a.6.6 0 0 0-.07-.34q-.09-.1-.25-.11a.6.6 0 0 0-.38.16q-.2.14-.56.53l-.33-.33q.51-.53.9-.78.36-.25.8-.25.38 0 .58.25.22.23.22.62 0 .33-.12.69Zm0 0"/>
    <path id="f" d="M2.6-4.19q.57-.78 1.1-1.14.52-.37 1.08-.37.42 0 .72.08l-.28 1.3H4.6a1 1 0 0 0-.1-.37q-.06-.14-.15-.18a.4.4 0 0 0-.22-.07q-.22 0-.47.19-.25.17-.56.56-.3.39-.48.75-.2.34-.32.9L1.77 0H.75l.84-3.72a5 5 0 0 0 .13-.86.6.6 0 0 0-.08-.34q-.06-.1-.23-.11a.7.7 0 0 0-.4.16q-.18.14-.54.53l-.33-.33q.53-.56.9-.8.36-.24.8-.23.36 0 .58.25.22.23.22.62 0 .3-.1.61Zm0 0"/>
    <path id="e" d="M1.81-1.36q.08.4.08.81A2 2 0 0 1 1.3.88q-.3.33-.84.75l-.3-.36Q.43.98.55.75.71.53.76.23q.06-.27.07-.71 0-.45-.05-.88Zm0 0"/>
    <path id="b" d="M1.44.5q-.12.14-.19.27a1 1 0 0 0-.14.55q0 .44.31.63.3.2.96.2.71 0 1.15-.32T4.28.8q.3-.72.61-2.2h-.08q-.58.78-1.06 1.13A1.7 1.7 0 0 1 2.7.1q-.64 0-1-.48a2.3 2.3 0 0 1-.34-1.38q0-.99.39-1.92.39-.91 1.08-1.47a2.5 2.5 0 0 1 2.26-.45q.33.08.66.3l.53-.4.38.1-.6 2.74-.3 1.43Q5.54-.2 5.39.31T5 1.23a2.6 2.6 0 0 1-1.42 1.22q-.5.17-1.19.17-2.22 0-2.22-1.3 0-.32.2-.59t.65-.56ZM3.13-.6q.29 0 .59-.21t.62-.64q.35-.45.54-.86.18-.4.3-1 .15-.6.15-1.05t-.2-.67q-.19-.2-.65-.2-.6 0-1.07.48t-.75 1.31a5 5 0 0 0-.27 1.63q0 .6.17.9.19.3.56.3m0 0"/>
    <path id="c" d="M4.42-7.83 2.95-6.56l-.3-.36.93-.81H0v-.55h3.58l-.94-.81.31-.36 1.47 1.28Zm0 0"/>
  </defs>
  <path fill="none" stroke="#000" stroke-linejoin="round" stroke-miterlimit="10" stroke-width="2.75" d="m07.8 103.28 213.85 64.92"/>
  <path fill="none" stroke="#000" stroke-dasharray="5.99316 4.49487" stroke-linejoin="round" stroke-miterlimit="10" stroke-width="1.5" d="m03.5 166.7 216.62 1.35"/>
  <path fill="none" stroke="#000" stroke-linejoin="round" stroke-miterlimit="10" stroke-width=".75" d="M174.12 167.46c-.51-4.62 1.08-9.22 4.45-12.93"/>
  <use xlink:href="#a" x="159.06" y="162.94"/>
  <path d="m206.57 99.45.4 30.89h-1l-.4-30.89Zm-.1 30.9 2.94-4.04-2.87 10.03-3.13-9.95Zm0 0"/>
  <use xlink:href="#b" x="191.9" y="116.77"/>
  <use xlink:href="#c" x="194.65" y="116.77"/>
  <use xlink:href="#cH" x="199.45" y="116.77"/>
  <path fill="none" stroke="#1c334e" stroke-linejoin="round" stroke-miterlimit="10" stroke-width="1.75" d="M104.83 117.2c0-11.35 9.5-20.55 21.24-20.55s21.25 9.2 21.25 20.55c0 11.34-9.52 20.54-21.25 20.54s-21.24-9.2-21.24-20.54Zm0 0"/>
  <path fill="none" stroke="#000" stroke-linejoin="round" stroke-miterlimit="10" d="m56.26 74.7 76.11 23.35"/>
  <path fill="none" stroke="#000" stroke-linejoin="round" stroke-miterlimit="10" stroke-width="4.25" d="m61.02 64.43-14.93 49.96"/>
  <use xlink:href="#d" x="149.11" y="106.95"/>
  <use xlink:href="#e" x="159.42" y="106.95"/>
  <use xlink:href="#f" x="163.85" y="106.95"/>
</svg>
