<svg xmlns="http://www.w3.org/2000/svg" xmlns:xlink="http://www.w3.org/1999/xlink" width="160" height="200" viewBox="0 0 160 200">
  <defs>
    <path id="a" d="M6.94-5.3q-.75.99-1.72 2.4-.14 1.15-.14 1.6 0 .38.08.55t.3.17q.15 0 .37-.14.2-.14.45-.42l.33.31q-.48.54-.86.74-.36.18-.73.18-.8 0-.79-1.14 0-.24.04-.54H4.2q-.6.88-1.14 1.3-.53.38-1.15.38-.43 0-.72-.25Q.89-.4.75-.8t-.14-.88q0-1.05.39-2 .4-.93 1.1-1.47a2.6 2.6 0 0 1 1.62-.54q.65 0 1.01.42.38.4.43 1.2l.04-.01.78-1.52h1ZM4.39-2.84q.1-.62.1-1.08-.01-.68-.2-.99-.2-.32-.62-.32-.53 0-1 .48t-.75 1.31q-.27.82-.26 1.67 0 .6.17.88t.53.28q.5 0 1.03-.58.53-.6 1-1.65m0 0"/>
    <path id="b" d="M1.44.5q-.12.14-.19.27a1 1 0 0 0-.14.55q0 .44.31.63.3.2.96.2.71 0 1.15-.32T4.28.8q.3-.72.61-2.2h-.08q-.58.78-1.06 1.13A1.7 1.7 0 0 1 2.7.1q-.64 0-1-.48a2.3 2.3 0 0 1-.34-1.38q0-.99.39-1.92.39-.91 1.08-1.47a2.5 2.5 0 0 1 2.26-.45q.33.08.66.3l.53-.4.38.1-.6 2.74-.3 1.43Q5.54-.2 5.39.31T5 1.23a2.6 2.6 0 0 1-1.42 1.22q-.5.17-1.19.17-2.22 0-2.22-1.3 0-.32.2-.59t.65-.56ZM3.13-.6q.29 0 .59-.21t.62-.64q.35-.45.54-.86.18-.4.3-1 .15-.6.15-1.05t-.2-.67q-.19-.2-.65-.2-.6 0-1.07.48t-.75 1.31a5 5 0 0 0-.27 1.63q0 .6.17.9.19.3.56.3m0 0"/>
    <path id="d" d="M2.58-4.1q.54-.82 1.08-1.21.52-.4 1.07-.4.57 0 .85.34.3.3.3.92v.17q.5-.72 1-1.06.49-.36 1.04-.36.53 0 .83.3.3.32.3.88 0 .38-.18 1.05l-.39 1.55q-.15.63-.15.89 0 .24.08.34.07.12.25.11a.6.6 0 0 0 .36-.14q.2-.15.57-.55l.33.33a5 5 0 0 1-.87.78Q8.67.1 8.19.1a.8.8 0 0 1-.61-.26 1 1 0 0 1-.24-.7q0-.38.2-1.13l.26-1q.14-.55.18-.81.05-.27.05-.44 0-.4-.14-.58-.13-.18-.44-.19a1 1 0 0 0-.53.2 3 3 0 0 0-.6.57q-.3.4-.5.77t-.3.92L4.98 0H3.97l.67-2.98.17-.8q.05-.27.05-.45 0-.43-.16-.6-.15-.18-.47-.19a1 1 0 0 0-.5.2q-.28.18-.6.59-.33.4-.52.78-.18.38-.3.92L1.77 0H.75l.84-3.72q.15-.56.14-.86a.6.6 0 0 0-.07-.34q-.09-.1-.25-.11a.6.6 0 0 0-.38.16q-.2.14-.56.53l-.33-.33q.51-.53.9-.78.36-.25.8-.25.38 0 .58.25.22.23.22.62 0 .33-.12.69Zm0 0"/>
    <path id="e" d="m2.02-6.73.1-.49q.04-.18.04-.34t-.08-.27a.3.3 0 0 0-.19-.12 2 2 0 0 0-.42-.07l.08-.3 1.47-.05h.34L1.92-1.9q-.12.58-.12.86 0 .24.07.34.08.12.24.11.17 0 .37-.14t.57-.55l.33.33q-.57.6-.93.82t-.8.21a.8.8 0 0 1-.62-.28 1 1 0 0 1-.22-.7q0-.4.16-1.14Zm0 0"/>
    <path id="f" d="M4.06-.87h-.03q-.2.32-.44.53-.21.19-.56.3-.33.14-.8.13-.45 0-.82-.2A1.5 1.5 0 0 1 .8-.73 2 2 0 0 1 .56-1.8q0-1.05.67-2.1a6 6 0 0 1 1.94-1.8l.3.4a6 6 0 0 0-1.4 1.64q-.5.9-.5 1.9 0 .67.26 1.03.24.36.72.36.43 0 .73-.35.3-.36.45-1.03l.49-2.22h.98l-.45 2.02q-.08.36-.08.65 0 .48.2.7t.58.22q.48.01.86-.34.37-.36.58-1.03a5.3 5.3 0 0 0 .06-2.69q-.15-.56-.4-.92l.39-.34q.6.56.89 1.23t.3 1.42q0 .86-.35 1.6-.34.72-.97 1.14-.63.4-1.42.4-.97 0-1.33-.96m0 0"/>
    <path id="c" d="M4.42-7.83 2.95-6.56l-.3-.36.93-.81H0v-.55h3.58l-.94-.81.31-.36 1.47 1.28Zm0 0"/>
  </defs>
  <path fill="none" stroke="#000" stroke-linejoin="round" stroke-miterlimit="10" stroke-width="2.75" d="m39.38 80.29.93 98.98"/>
  <path fill="none" stroke="#000" stroke-linejoin="round" stroke-miterlimit="10" stroke-width=".75" d="M53.77 105.2c-1.85 5.89-8.13 10.03-15.36 10.1"/>
  <use xlink:href="#a" x="51.62" y="118.25"/>
  <path d="m70.64 137.25.4 30.9h-1l-.4-30.89Zm-.1 30.9 2.94-4.04-2.87 10.03-3.13-9.95Zm0 0"/>
  <use xlink:href="#b" x="57.74" y="156.52"/>
  <use xlink:href="#c" x="60.49" y="156.52"/>
  <use xlink:href="#t" x="65.29" y="156.52"/>
  <path fill="none" stroke="#000" stroke-linejoin="round" stroke-miterlimit="10" d="m40.3 101.3 76.04 23.34"/>
  <use xlink:href="#d" x="102.57" y="135.15"/>
  <use xlink:href="#e" x="80.27" y="107.7"/>
  <use xlink:href="#t" x="84.47" y="107.7"/>
  <path fill-rule="evenodd" stroke="#000" stroke-linejoin="round" stroke-miterlimit="10" stroke-width="2" d="M114.11 124.55c0-1.02.81-1.86 1.8-1.86 1 0 1.8.84 1.8 1.86 0 1.03-.8 1.87-1.8 1.87-.99 0-1.8-.84-1.8-1.87Zm0 0"/>
  <path fill-rule="evenodd" d="m51.18 88.14 1.36 1.74h-.88c-1.5 3.27-6.94 5.48-12.93 5.24 5.34-.21 9.85-2.32 11.19-5.24h-.88Zm0 0"/>
  <path fill-rule="evenodd" d="M37.85 95.14c-6.88 0-12.47-3.14-12.47-7h1.76c0 3.86 5.57 7 12.46 7Zm0 0"/>
  <path fill="none" stroke="#1c334e" stroke-linejoin="round" stroke-miterlimit="10" stroke-width=".25" d="M38.73 95.12c5.34-.21 9.85-2.32 11.19-5.24h-.88l2.14-1.74 1.36 1.74h-.88c-1.41 3.09-6.38 5.26-12.06 5.26h-1.75c-6.88 0-12.47-3.14-12.47-7h1.76c0 3.86 5.57 7 12.46 7"/>
  <use xlink:href="#f" x="56.9" y="91.28"/>
  <use xlink:href="#t" x="65.89" y="91.28"/>
</svg>
