<svg xmlns="http://www.w3.org/2000/svg" xmlns:xlink="http://www.w3.org/1999/xlink" width="200" height="130" viewBox="0 0 200 130">
  <defs>
    <path id="a" d="M1.44.5q-.12.14-.19.27a1 1 0 0 0-.14.55q0 .44.31.63.3.2.96.2.71 0 1.15-.32T4.28.8q.3-.72.61-2.2h-.08q-.58.78-1.06 1.13A1.7 1.7 0 0 1 2.7.1q-.64 0-1-.48a2.3 2.3 0 0 1-.34-1.38q0-.99.39-1.92.39-.91 1.08-1.47a2.5 2.5 0 0 1 2.26-.45q.33.08.66.3l.53-.4.38.1-.6 2.74-.3 1.43Q5.54-.2 5.39.31T5 1.23a2.6 2.6 0 0 1-1.42 1.22q-.5.17-1.19.17-2.22 0-2.22-1.3 0-.32.2-.59t.65-.56ZM3.13-.6q.29 0 .59-.21t.62-.64q.35-.45.54-.86.18-.4.3-1 .15-.6.15-1.05t-.2-.67q-.19-.2-.65-.2-.6 0-1.07.48t-.75 1.31a5 5 0 0 0-.27 1.63q0 .6.17.9.19.3.56.3m0 0"/>
    <path id="b" d="M2.58-4.1q.54-.82 1.08-1.21.52-.4 1.07-.4.57 0 .85.34.3.3.3.92v.17q.5-.72 1-1.06.49-.36 1.04-.36.53 0 .83.3.3.32.3.88 0 .38-.18 1.05l-.39 1.55q-.15.63-.15.89 0 .24.08.34.07.12.25.11a.6.6 0 0 0 .36-.14q.2-.15.57-.55l.33.33a5 5 0 0 1-.87.78Q8.67.1 8.19.1a.8.8 0 0 1-.61-.26 1 1 0 0 1-.24-.7q0-.38.2-1.13l.26-1q.14-.55.18-.81.05-.27.05-.44 0-.4-.14-.58-.13-.18-.44-.19a1 1 0 0 0-.53.2 3 3 0 0 0-.6.57q-.3.4-.5.77t-.3.92L4.98 0H3.97l.67-2.98.17-.8q.05-.27.05-.45 0-.43-.16-.6-.15-.18-.47-.19a1 1 0 0 0-.5.2q-.28.18-.6.59-.33.4-.52.78-.18.38-.3.92L1.77 0H.75l.84-3.72q.15-.56.14-.86a.6.6 0 0 0-.07-.34q-.09-.1-.25-.11a.6.6 0 0 0-.38.16q-.2.14-.56.53l-.33-.33q.51-.53.9-.78.36-.25.8-.25.38 0 .58.25.22.23.22.62 0 .33-.12.69Zm0 0"/>
    <path id="e" d="M2.3-1.7a4 4 0 0 0-.13.9q0 .2.05.3.06.08.17.14.12.05.42.08L2.75 0H.33L.4-.28a1 1 0 0 0 .32-.13 1 1 0 0 0 .2-.22q.07-.13.13-.34l.19-.78 1-4.52q.13-.57.13-.92 0-.27-.15-.39a1 1 0 0 0-.42-.14L1.87-8h5.29l-.41 1.8h-.56q-.02-.46-.08-.7a1 1 0 0 0-.14-.38.4.4 0 0 0-.22-.16 1 1 0 0 0-.37-.04H3.56l-.7 3.18h1.1q.25 0 .43-.06a1 1 0 0 0 .31-.26q.16-.2.36-.63h.55l-.58 2.47h-.51q0-.6-.05-.74-.03-.15-.14-.2a1 1 0 0 0-.42-.06H2.75Zm0 0"/>
    <path id="f" d="M3.1-2.4a1 1 0 0 0-.13-.32.4.4 0 0 0-.14-.12l-.27-.04h-.4L1.55 0h-1l1.5-6.7.1-.52q.04-.2.04-.34 0-.25-.16-.35Q1.88-8 1.5-8l.08-.32 1.47-.04h.34l-1.14 5.1h.19q.43 0 .98-.37.55-.39.88-.72T4.63-5q0-.28-.41-.31l.08-.3h1.89l.1.3q-.48.44-1.02.86L3.8-3.33l.58 2.11q.06.29.13.4.05.12.12.18.08.05.2.05.16 0 .36-.16.21-.17.49-.47l.33.33q-.54.55-.88.77-.35.21-.66.21a1 1 0 0 1-.64-.21 2 2 0 0 1-.37-.77Zm0 0"/>
    <path id="d" d="M2.7 0v-.2q.27-.08.35-.2.1-.15.1-.52v-2.72h-.9q-.15 1.41-.4 2.31-.26.9-.54 1.14A1 1 0 0 1 .7.06Q.36.06.16 0v-.9h.36q.02.36.26.35.37 0 .64-1.03.28-1.05.28-1.64 0-.5-.39-.55v-.2H4.3v.2q-.27.06-.36.2t-.08.5v2.15q0 .36.08.5t.36.22V0Zm0 0"/>
    <path id="c" d="M4.06 1.34a6 6 0 0 0-.18-.86 1 1 0 0 0-.24-.37Q3.5 0 3.16 0H1.39a.7.7 0 0 0-.56.25 3 3 0 0 0-.3 1.1H.16v-1.7h.48a5 5 0 0 0 .94-2.9q0-.46-.38-.52v-.2h3.08v.2q-.27.06-.36.2-.1.14-.1.5v2.71h.63v1.7Zm-.95-4.98h-1a7 7 0 0 1-.94 3.28h1.94Zm0 0"/>
  </defs>
  <path d="M135.7 99.89h21.75v.75H135.7Zm21.75.36-2-2 6 2-6 2Zm0 0"/>
  <path fill="none" stroke="#000" stroke-linejoin="round" stroke-miterlimit="10" d="M125.5 99.96H94.3"/>
  <use xlink:href="#a" x="109.81" y="73.82"/>
  <use xlink:href="#bb" x="117.37" y="73.82"/>
  <path d="M106.09 60.71v21.75h-.75v-21.75Zm-.38 21.75 2-2-2 6-2-6Zm0 0"/>
  <path fill="none" stroke="#000" stroke-linejoin="round" stroke-miterlimit="10" stroke-width="1.5" d="M162.23 111.06H68.55"/>
  <path fill="#fff" fill-rule="evenodd" stroke="#000" stroke-linejoin="round" stroke-miterlimit="10" stroke-width="1.5" d="M114.6 110.46h25.19v-20.7H114.6Zm0 0"/>
  <use xlink:href="#b" x="120.12" y="102.82"/>
  <use xlink:href="#c" x="130.19" y="105.22"/>
  <use xlink:href="#bb" x="135.47" y="102.82"/>
  <path fill="#fff" fill-rule="evenodd" stroke="#000" stroke-linejoin="round" stroke-miterlimit="10" stroke-width="1.5" d="M75.22 110.36H96.3V89.7H75.22Zm0 0"/>
  <use xlink:href="#b" x="79.37" y="103.06"/>
  <use xlink:href="#d" x="89.44" y="105.46"/>
  <use xlink:href="#bb" x="94.72" y="103.06"/>
  <use xlink:href="#e" x="151.89" y="95.51"/>
  <use xlink:href="#bb" x="159.68" y="95.51"/>
  <use xlink:href="#f" x="107.06" y="124.4"/>
  <use xlink:href="#bb" x="114.01" y="124.4"/>
</svg>
