<svg xmlns="http://www.w3.org/2000/svg" xmlns:xlink="http://www.w3.org/1999/xlink" width="250" height="90" viewBox="0 0 250 90">
  <defs>
    <path id="h" d="M.88-4.25v-.78h7.21v.78Zm0 2.42v-.78h7.21v.78Zm7.46-1.6"/>
    <path id="i" d="M3.27.1Q2 .1 1.37-.9a6 6 0 0 1-.62-3.02q0-1.08.19-1.86.2-.8.54-1.3.34-.51.82-.76a2.3 2.3 0 0 1 1.06-.25q1.28 0 1.9 1 .63.98.63 2.98 0 2.08-.67 3.14A2.2 2.2 0 0 1 3.27.1M1.9-4.1q0 1.9.34 2.8.36.9 1.1.9.72 0 1.06-.85.34-.84.34-2.6 0-1.35-.19-2.18a3 3 0 0 0-.48-1.2 1 1 0 0 0-1.44-.1q-.27.21-.44.67-.15.45-.23 1.1-.06.64-.06 1.45m0 0"/>
    <path id="k" d="M1.44.5q-.12.14-.19.27a1 1 0 0 0-.14.55q0 .44.31.63.3.2.96.2.71 0 1.15-.32T4.28.8q.3-.72.61-2.2h-.08q-.58.78-1.06 1.13A1.7 1.7 0 0 1 2.7.1q-.64 0-1-.48a2.3 2.3 0 0 1-.34-1.38q0-.99.39-1.92.39-.91 1.08-1.47a2.5 2.5 0 0 1 2.26-.45q.33.08.66.3l.53-.4.38.1-.6 2.74-.3 1.43Q5.54-.2 5.39.31T5 1.23a2.6 2.6 0 0 1-1.42 1.22q-.5.17-1.19.17-2.22 0-2.22-1.3 0-.32.2-.59t.65-.56ZM3.13-.6q.29 0 .59-.21t.62-.64q.35-.45.54-.86.18-.4.3-1 .15-.6.15-1.05t-.2-.67q-.19-.2-.65-.2-.6 0-1.07.48t-.75 1.31a5 5 0 0 0-.27 1.63q0 .6.17.9.19.3.56.3m0 0"/>
    <path id="b" d="M2.58-4.1q.54-.82 1.08-1.21.52-.4 1.07-.4.57 0 .85.34.3.3.3.92v.17q.5-.72 1-1.06.49-.36 1.04-.36.53 0 .83.3.3.32.3.88 0 .38-.18 1.05l-.39 1.55q-.15.63-.15.89 0 .24.08.34.07.12.25.11a.6.6 0 0 0 .36-.14q.2-.15.57-.55l.33.33a5 5 0 0 1-.87.78Q8.67.1 8.19.1a.8.8 0 0 1-.61-.26 1 1 0 0 1-.24-.7q0-.38.2-1.13l.26-1q.14-.55.18-.81.05-.27.05-.44 0-.4-.14-.58-.13-.18-.44-.19a1 1 0 0 0-.53.2 3 3 0 0 0-.6.57q-.3.4-.5.77t-.3.92L4.98 0H3.97l.67-2.98.17-.8q.05-.27.05-.45 0-.43-.16-.6-.15-.18-.47-.19a1 1 0 0 0-.5.2q-.28.18-.6.59-.33.4-.52.78-.18.38-.3.92L1.77 0H.75l.84-3.72q.15-.56.14-.86a.6.6 0 0 0-.07-.34q-.09-.1-.25-.11a.6.6 0 0 0-.38.16q-.2.14-.56.53l-.33-.33q.51-.53.9-.78.36-.25.8-.25.38 0 .58.25.22.23.22.62 0 .33-.12.69Zm0 0"/>
    <path id="a" d="M3.03-.28q.36-.1.49-.2.12-.13.15-.33.03-.23.03-.66v-.95H.45v-.44l3.43-5.19h.84V-3h.12q.35 0 .49-.05.14-.04.23-.17.11-.12.19-.42h.44l-.07 1.22h-1.4v.95l.01.58q.04.19.1.3t.19.17q.11.06.39.14V0H3.03ZM1.43-3H3.7v-1.45a48 48 0 0 1 .07-2.27H3.7L1.42-3.08Zm0 0"/>
    <path id="d" d="M3.1-2.4a1 1 0 0 0-.13-.32.4.4 0 0 0-.14-.12l-.27-.04h-.4L1.55 0h-1l1.5-6.7.1-.52q.04-.2.04-.34 0-.25-.16-.35Q1.88-8 1.5-8l.08-.32 1.47-.04h.34l-1.14 5.1h.19q.43 0 .98-.37.55-.39.88-.72T4.63-5q0-.28-.41-.31l.08-.3h1.89l.1.3q-.48.44-1.02.86L3.8-3.33l.58 2.11q.06.29.13.4.05.12.12.18.08.05.2.05.16 0 .36-.16.21-.17.49-.47l.33.33q-.54.55-.88.77-.35.21-.66.21a1 1 0 0 1-.64-.21 2 2 0 0 1-.37-.77Zm0 0"/>
    <path id="o" d="M.88.22v-.9l6.35-2.74L.88-6.2v-.87L8.1-3.84v.82Zm0 0"/>
    <path id="m" d="M3.19 0v-.2l-.46-1.1q-.17-.38-.35-.48a1 1 0 0 0-.47-.11h-.3v.84q0 .55.1.66.08.11.35.19V0H.46v-.2q.3-.08.35-.22.08-.15.08-.63v-2.01q0-.37-.1-.52-.08-.14-.35-.19v-.2h1.62v.2q-.25.06-.36.2t-.1.5v.87h.3q.27 0 .43-.16.17-.17.39-.7.2-.53.44-.75.22-.24.78-.24.17 0 .4.05v.81h-.37q-.07-.26-.28-.26a.4.4 0 0 0-.28.1q-.12.1-.27.44-.28.66-.58.79v.03q.6.13.9.7l.3.62q.15.3.29.41t.39.16V0Zm0 0"/>
    <path id="n" d="M1.53-.12v.87q0 .26.02.4 0 .12.06.2t.14.13q.09.06.3.1v.2H.35v-.2l.24-.08a.3.3 0 0 0 .14-.14l.07-.22v-3.95a5 5 0 0 0-.04-.64l-.07-.13a.3.3 0 0 0-.14-.1l-.26-.07v-.22l.98-.05h.25l-.05.7h.07q.25-.26.39-.37.15-.12.31-.2a2 2 0 0 1 .63-.16q.68 0 1.04.52.38.51.38 1.5 0 .69-.2 1.15-.21.48-.62.7a2 2 0 0 1-.93.24q-.31 0-.57-.04a2 2 0 0 1-.45-.14m0-1.38q0 .4.05.63.04.2.17.34.15.14.31.2.18.06.46.06.5 0 .75-.4.25-.42.25-1.24 0-1.64-.96-1.64a1 1 0 0 0-.39.08q-.18.08-.34.24t-.24.3a1 1 0 0 0-.06.34Zm0 0"/>
    <path id="e" d="M2.95 0v-.2q.25-.05.35-.2.1-.11.1-.52v-.97H1.6v.97q0 .38.09.51.1.14.37.2V0H.44v-.2Q.72-.28.8-.4q.1-.15.1-.52v-2.14q0-.37-.1-.52-.1-.14-.36-.19v-.2h1.6v.2q-.24.06-.34.2-.1.12-.1.5v.8h1.8v-.8q0-.4-.12-.52-.09-.13-.33-.18v-.2h1.61v.2q-.27.07-.36.2-.1.15-.1.5v2.15q0 .38.1.51.1.14.36.2V0Zm0 0"/>
    <path id="f" d="M2.81-.6h-.06q-.37.37-.69.52a1.6 1.6 0 0 1-1.23.03 1 1 0 0 1-.38-.34 1 1 0 0 1-.12-.53q0-.6.6-.92.6-.34 1.8-.4v-.26q0-.44-.09-.69a.7.7 0 0 0-.25-.36 1 1 0 0 0-.48-.12.8.8 0 0 0-.52.17q-.2.18-.3.52H.55v-.55a6 6 0 0 1 1.2-.45q.27-.07.53-.07.42 0 .67.14.26.13.38.4.12.26.12.8v1.9q0 .12.02.23l.06.17q.04.07.13.11.08.05.26.1V0H2.78Zm-.08-1.3q-.84 0-1.26.23t-.42.65q0 .24.1.38t.24.19q.14.04.34.04.29 0 .52-.12.23-.14.36-.36a1 1 0 0 0 .12-.42Zm0 0"/>
    <path id="g" d="M2.44 0v-.2q.28-.06.37-.2.1-.15.1-.52v-.85q-.57.12-1.08.11-.64 0-.94-.28T.6-2.8v-.25q0-.38-.09-.5-.07-.15-.33-.2v-.2h1.56v.2q-.24.04-.35.18t-.1.5v.3q0 .4.19.6.18.16.64.16.36 0 .8-.1v-.96q0-.42-.11-.53a1 1 0 0 0-.33-.16v-.2h1.6v.2q-.27.06-.37.2t-.1.5v2.15q0 .39.1.51.11.14.36.2V0Zm0 0"/>
  </defs>
  <path fill="none" stroke="#000" stroke-linejoin="round" stroke-miterlimit="10" stroke-width="1.5" d="M189.83 23.18H70.92"/>
  <path fill="#fff" fill-rule="evenodd" stroke="#000" stroke-linecap="round" stroke-miterlimit="8" stroke-width="1.5" d="M82.5 22.84h28.57v-20.38H82.5Zm0 0"/>
  <path fill="none" stroke="#000" stroke-linejoin="round" stroke-miterlimit="8" d="m111.72 7.65 85.6.1"/>
  <use xlink:href="#a" x="88.12" y="16.96"/>
  <use xlink:href="#b" x="94.72" y="16.96"/>
  <use xlink:href="#cx" x="105.02" y="16.96"/>
  <path fill="#fff" fill-rule="evenodd" stroke="#000" stroke-linecap="round" stroke-linejoin="round" stroke-miterlimit="8" stroke-width="1.5" d="M199.92 7.65a8.5 8.5 0 1 0 .01 17 8.5 8.5 0 0 0 0-17m0 0"/>
  <path d="m188.86 22.93 10.58-7.45.86 1.22-10.59 7.44Zm9.86-8.48c.9-.63 2.15-.4 2.8.5a2 2 0 0 1-3.29 2.29c-.62-.9-.4-2.15.5-2.79m0 0"/>
  <path fill="none" stroke="#000" stroke-linejoin="round" stroke-miterlimit="8" d="M208.66 16.1v28.31"/>
  <path fill="#fff" fill-rule="evenodd" stroke="#000" stroke-linecap="round" stroke-miterlimit="8" stroke-width="1.5" d="M198.57 67.54h20.38v-22.88h-20.38Zm0 0"/>
  <use xlink:href="#b" x="203.7" y="59.03"/>
  <use xlink:href="#Y" x="214.01" y="59.03"/>
  <path fill="none" stroke="#000" stroke-linejoin="round" stroke-miterlimit="8" stroke-width="1.5" d="M189.43 22.64v53.79"/>
  <use xlink:href="#d" x="80.45" y="36.74"/>
  <use xlink:href="#e" x="87.04" y="39.14"/>
  <use xlink:href="#f" x="92.06" y="39.14"/>
  <use xlink:href="#g" x="96.15" y="39.14"/>
  <use xlink:href="#h" x="104.42" y="36.74"/>
  <use xlink:href="#i" x="116.65" y="36.74"/>
  <use xlink:href="#Y" x="123.36" y="36.74"/>
  <use xlink:href="#k" x="224.91" y="13.73"/>
  <use xlink:href="#Y" x="232.46" y="13.73"/>
  <path d="m221.95 6.36.04 21.23a.5.5 0 0 1-.5.5.5.5 0 0 1-.5-.5l-.04-21.23c0-.28.22-.5.5-.5s.5.22.5.5m-.46 21.23 2-2-2 6-2-6Zm0 0"/>
  <use xlink:href="#d" x="140.98" y="36.86"/>
  <use xlink:href="#m" x="147.57" y="39.26"/>
  <use xlink:href="#n" x="152.13" y="39.26"/>
  <use xlink:href="#o" x="160.76" y="36.86"/>
  <use xlink:href="#i" x="173.1" y="36.86"/>
  <use xlink:href="#cA" x="179.69" y="36.86"/>
</svg>
