<svg xmlns="http://www.w3.org/2000/svg" xmlns:xlink="http://www.w3.org/1999/xlink" width="220" height="100" viewBox="0 0 220 100">
  <defs>
    <path id="b" d="M3.55-3.9h1.14c.9 0 .98.21.98.56 0 .15-.03.32-.08.59l-.04.13q0 .11.14.12c.1 0 .1-.05.15-.23l.7-2.79a.13.13 0 0 0-.13-.12c-.11 0-.11.05-.16.25-.25.9-.5 1.16-1.53 1.16h-1.1l.79-3.1c.1-.42.12-.45.62-.45h1.6c1.5 0 1.7.44 1.7 1.28 0 .08 0 .34-.03.66l-.03.25q.02.13.12.12c.08 0 .14-.05.16-.26l.25-2.08.03-.19c0-.12-.11-.12-.33-.12H2.84c-.23 0-.34 0-.34.2 0 .14.08.14.28.14.74 0 .74.08.74.22q.01.05-.05.23L1.86-.89c-.11.42-.13.55-.97.55-.22 0-.34 0-.34.22 0 .12.1.12.18.12l.7-.03h1.54l.81.03c.11 0 .25 0 .25-.22 0-.12-.06-.12-.33-.12-.95 0-.97-.1-.97-.27l.05-.23Zm0 0"/>
    <path id="c" d="M2.45-3.5c.03-.06.33-.67.77-1.05.31-.28.72-.48 1.19-.48s.64.36.64.84c0 .07 0 .32-.14.88L4.6-2.1c-.1.36-.33 1.25-.34 1.37-.05.19-.13.49-.13.55 0 .15.14.3.31.3.36 0 .42-.29.53-.7l.7-2.87c.04-.1.66-1.6 1.98-1.6.46 0 .64.37.64.85 0 .67-.47 1.97-.74 2.69-.1.28-.15.44-.15.66 0 .53.36.97.93.97 1.11 0 1.54-1.77 1.54-1.83q0-.1-.13-.11c-.1 0-.1.03-.17.23-.28.96-.72 1.46-1.2 1.46-.11 0-.32 0-.32-.4 0-.3.16-.68.2-.82.2-.57.76-1.97.76-2.68s-.43-1.25-1.33-1.25c-.8 0-1.44.46-1.92 1.16-.04-.64-.43-1.16-1.33-1.16A2.2 2.2 0 0 0 2.6-4.22c-.05-.67-.53-1.05-1.06-1.05-.35 0-.61.18-.85.63a5 5 0 0 0-.37 1.2q0 .1.12.11c.1 0 .11-.01.18-.28.18-.72.4-1.42.89-1.42.28 0 .37.2.37.55 0 .26-.12.73-.2 1.1l-.35 1.29c-.04.23-.17.76-.23.98-.08.31-.22.88-.22.94 0 .15.14.3.31.3.14 0 .32-.08.4-.25.04-.07.15-.49.2-.72l.26-1.08Zm0 0"/>
    <path id="d" d="M2.5-5.06c0-.22-.02-.22-.23-.22-.33.31-.75.5-1.5.5v.26c.21 0 .64 0 1.1-.21v4.07c0 .3-.03.4-.78.4H.81V0c.33-.03 1.02-.03 1.36-.03.36 0 1.06 0 1.4.03v-.27h-.29c-.76 0-.78-.09-.78-.39Zm0 0"/>
    <path id="e" d="m2.25-1.62.58-.49c.5-.45.97-.89.97-1.62 0-.94-.8-1.55-1.8-1.55-.95 0-1.58.72-1.58 1.42 0 .4.31.45.42.45a.4.4 0 0 0 .41-.42c0-.42-.4-.42-.48-.42.23-.58.76-.78 1.15-.78.74 0 1.11.64 1.11 1.3 0 .82-.58 1.43-1.51 2.39L.52-.3c-.1.08-.1.1-.1.3h3.14l.24-1.42h-.25c-.03.15-.1.56-.2.7-.04.06-.63.06-.77.06h-1.4Zm0 0"/>
    <path id="f" d="m4.05 2.92.22-.26c-1.61-1.38-2.2-3.55-2.2-5.7s.59-4.32 2.2-5.7L4.05-9a7.1 7.1 0 0 0-2.9 5.95 7.1 7.1 0 0 0 2.9 5.97m0 0"/>
    <path id="h" d="M1.14 2.92a7.1 7.1 0 0 0 2.9-5.97A7.1 7.1 0 0 0 1.15-9l-.2.27c1.6 1.37 2.19 3.54 2.19 5.68 0 2.16-.58 4.33-2.2 5.7Zm0 0"/>
    <path id="g" d="M3.44-7.66c0-.26 0-.28-.24-.28-.3.33-.89.77-2.1.77v.34c.26 0 .85 0 1.5-.31v6.22c0 .44-.02.58-1.07.58h-.37V0c.32-.03 1.48-.03 1.87-.03s1.55 0 1.86.03v-.34h-.36c-1.06 0-1.1-.14-1.1-.58Zm0 0"/>
    <path id="i" d="M5.25-2h-.27c-.03.2-.12.86-.25 1.05-.07.1-.76.1-1.12.1H1.4c.32-.28 1.04-1.04 1.36-1.32 1.8-1.67 2.48-2.3 2.48-3.47 0-1.38-1.08-2.3-2.47-2.3S.58-6.75.58-5.74c0 .62.53.62.56.62.25 0 .56-.18.56-.57 0-.33-.22-.56-.56-.56-.1 0-.12 0-.16.02.22-.82.86-1.36 1.65-1.36 1.01 0 1.64.84 1.64 1.95 0 1.01-.6 1.89-1.27 2.66L.58-.28V0h4.36Zm0 0"/>
    <pattern id="a" width="6" height="6" x="0" y="0" patternTransform="matrix(.93214 0 0 -.93214 315.43 97)" patternUnits="userSpaceOnUse" viewBox="0 0 6 6">
      <path fill="none" stroke="#000" stroke-linecap="round" stroke-linejoin="round" stroke-miterlimit="10" stroke-width=".53" d="m0 0 6 6M-3 3l6 6M3-3l6 6"/>
    </pattern>
  </defs>
  <path fill="url(#a)" d="M26.61 74.04h97.02v-4.97H26.6Zm0 0"/>
  <path fill="none" stroke="#000" stroke-linecap="round" stroke-linejoin="round" stroke-miterlimit="10" stroke-width=".5" d="M21.64 69.07H128.6m-65.17-14.93h-31.84"/>
  <path d="M68.4 54.14a25 25 0 0 1-7.97-2.06l3 2.06-3 2.06a25 25 0 0 1 7.97-2.06"/>
  <path fill="none" stroke="#000" stroke-linecap="round" stroke-linejoin="round" stroke-miterlimit="10" stroke-width=".5" d="M68.4 54.14a25 25 0 0 1-7.97-2.06l3 2.06-3 2.06a25 25 0 0 1 7.97-2.06m.5 14.93h29.85V39.2H68.9Zm29.85 0h19.9v-19.9h-19.9Zm0 0"/>
  <path fill="url(#a)" d="M139.74 74.04h70.49v-4.97h-70.49Zm0 0"/>
  <path fill="none" stroke="#000" stroke-linecap="round" stroke-linejoin="round" stroke-miterlimit="10" stroke-width=".5" d="M134.77 69.07h80.43m-38.64-39.8h-31.84"/>
  <path d="M181.54 29.27a25 25 0 0 1-7.98-2.07l3 2.07-3 2.05a25 25 0 0 1 7.98-2.05"/>
  <path fill="none" stroke="#000" stroke-linecap="round" stroke-linejoin="round" stroke-miterlimit="10" stroke-width=".5" d="M181.54 29.27a25 25 0 0 1-7.98-2.07l3 2.07-3 2.05a25 25 0 0 1 7.98-2.05m-6.14 39.8h29.85V39.2H175.4Zm0 0"/>
  <path fill="none" stroke="#000" stroke-linecap="round" stroke-linejoin="round" stroke-miterlimit="10" stroke-width=".5" d="M182.03 39.21h19.9v-19.9h-19.9Zm0 0"/>
  <use xlink:href="#b" x="45.65" y="50.55"/>
  <use xlink:href="#c" x="76.35" y="55.82"/>
  <use xlink:href="#d" x="86.58" y="57.61"/>
  <use xlink:href="#c" x="101.23" y="60.79"/>
  <use xlink:href="#e" x="111.46" y="62.59"/>
  <use xlink:href="#f" x="67.01" y="87.36"/>
  <use xlink:href="#g" x="72.2" y="87.36"/>
  <use xlink:href="#h" x="78.05" y="87.36"/>
  <use xlink:href="#b" x="158.78" y="25.67"/>
  <use xlink:href="#c" x="182.85" y="55.82"/>
  <use xlink:href="#d" x="193.08" y="57.61"/>
  <use xlink:href="#c" x="184.51" y="30.94"/>
  <use xlink:href="#e" x="194.74" y="32.74"/>
  <use xlink:href="#f" x="166.87" y="87.36"/>
  <use xlink:href="#i" x="172.06" y="87.36"/>
  <use xlink:href="#h" x="177.91" y="87.36"/>
</svg>
