<svg xmlns="http://www.w3.org/2000/svg" xmlns:xlink="http://www.w3.org/1999/xlink" width="595.32" height="841.92" viewBox="0 0 595.32 841.92">
  <defs>
    <path id="a" d="M4.45-8a5 5 0 0 1 1.14.1q.45.12.74.35.3.23.44.57.15.35.15.8 0 .89-.42 1.52-.42.64-1.14.96-.7.3-1.7.3l-.99-.02L2.3-1.7q-.07.23-.08.37l-.05.53q0 .2.05.3.06.08.17.14.12.05.42.08L2.75 0H.33L.4-.28a1 1 0 0 0 .32-.13 1 1 0 0 0 .2-.22q.07-.13.13-.34l.19-.78 1-4.52q.13-.57.13-.92 0-.27-.15-.39a1 1 0 0 0-.42-.14L1.87-8ZM3.37-3.92q.7 0 1.15-.14.43-.14.71-.46.29-.3.43-.73.15-.42.15-.92 0-.68-.34-.99-.35-.32-1.14-.32l-.77.01-.8 3.55Zm0 0"/>
    <path id="f" d="M1-1.83q0 .72.33 1.08.33.34 1.03.34.79 0 1.25-.43.45-.45.45-1.2 0-.37-.12-.63a2 2 0 0 0-.38-.53 6 6 0 0 0-.73-.58 5 5 0 0 1-.74-.56q-.28-.3-.45-.64-.16-.36-.16-.79 0-.7.33-1.21.33-.54.94-.82.61-.3 1.4-.3a6 6 0 0 1 2.02.33l-.33 1.5h-.56q-.01-.5-.16-.78a1 1 0 0 0-.35-.4 1.4 1.4 0 0 0-.64-.13q-.49 0-.86.2t-.57.55q-.18.33-.18.75 0 .45.23.78t.9.78q.55.4.85.7.3.33.45.68.14.34.14.81 0 .71-.34 1.28-.34.55-.97.85-.6.3-1.4.3Q1.83.1 1.2 0A7 7 0 0 1 .1-.22l.34-1.6Zm0 0"/>
    <path id="g" d="m4.44 0 .06-.28q.36-.03.52-.27t.17-.86l-.02-.5-.03-.75H2.56l-.33.58q-.23.42-.34.7-.1.3-.1.5 0 .51.6.6L2.33 0h-2.4l.05-.28a1 1 0 0 0 .35-.14q.16-.12.34-.36.2-.25.52-.81l3.75-6.5h.89l.42 6.53q.03.47.1.73.06.26.2.38t.39.17L6.87 0ZM2.8-3.17h2.3L5-5.05a39 39 0 0 1-.04-1.8H4.9Zm0 0"/>
    <path id="d" d="M3.05-1.1v.23l.03.15q0 .06.04.11l.08.08q.04.05.13.08t.2.04a5 5 0 0 0 .75.05V0H.98v-.36l.43-.02.48-.06.13-.06.09-.08.06-.1a1 1 0 0 0 .06-.41v-2.99q0-.15-.06-.22A.2.2 0 0 0 2-4.38q-.15 0-.4.15-.24.12-.65.39l-.1-.2-.08-.2 1.01-.56 1.03-.56h.25l-.01.42v.67Zm0 0"/>
    <path id="e" d="M3.02-.67q.2 0 .3-.02.13 0 .2-.06t.12-.16l.14-.28h.4q-.05.3-.05.6L4.09 0H.56v-.22a7 7 0 0 1 .53-.87 7 7 0 0 1 .86-.97l.63-.66q.25-.28.39-.5a1.4 1.4 0 0 0 .25-.8q0-.2-.06-.37a1 1 0 0 0-.18-.31 1 1 0 0 0-.28-.2 1 1 0 0 0-.4-.07 1 1 0 0 0-.66.22q-.25.21-.39.6H.7v-.82a6 6 0 0 1 1.78-.42q.44 0 .74.1t.5.27q.18.16.26.4.1.23.1.5a2 2 0 0 1-.11.57q-.05.16-.14.28t-.24.29q-.1.14-.26.3-.16.19-.36.38l-.42.42-.42.43q-.21.2-.38.4-.16.2-.27.38Zm0 0"/>
  </defs>
  <path fill="#fff" fill-rule="evenodd" d="M73.91 520.86h32.97v-25.47H73.9Zm0 0"/>
  <use xlink:href="#a" x="84.77" y="510.77"/>
  <use xlink:href="#d" x="90.64" y="513.16"/>
  <use xlink:href="#b" x="96.03" y="510.77"/>
  <path fill="#fff" fill-rule="evenodd" d="M494.43 523.34h32.97v-23.97h-32.97Zm0 0"/>
  <use xlink:href="#a" x="505.2" y="514.6"/>
  <use xlink:href="#e" x="511.32" y="517"/>
  <use xlink:href="#b" x="516.71" y="514.6"/>
  <path fill="#fff" fill-rule="evenodd" d="M66.43 419.47h32.96V394H66.43Zm0 0"/>
  <use xlink:href="#f" x="77.46" y="409.22"/>
  <use xlink:href="#d" x="83.09" y="411.62"/>
  <use xlink:href="#b" x="88.36" y="409.22"/>
  <path fill="#fff" fill-rule="evenodd" d="M397.4 593.96h32.96V568.5h-32.97Zm0 0"/>
  <use xlink:href="#f" x="408.32" y="583.88"/>
  <use xlink:href="#e" x="414.2" y="586.28"/>
  <use xlink:href="#b" x="419.59" y="583.88"/>
  <path fill="#fff" fill-rule="evenodd" d="M108.73 583.32h32.96v-23.97h-32.96Zm0 0"/>
  <use xlink:href="#g" x="118.8" y="574.65"/>
  <use xlink:href="#d" x="126.12" y="577.05"/>
  <use xlink:href="#b" x="131.51" y="574.65"/>
  <path fill="none" stroke="#000" stroke-linejoin="round" stroke-miterlimit="10" stroke-width="1.5" d="m72.47 520.45 456.78 2.3"/>
  <path fill-rule="evenodd" stroke="#000" stroke-linejoin="round" stroke-miterlimit="10" stroke-width="2" d="M74.21 418.92c0-1.1.8-2 1.78-2s1.77.9 1.77 2c0 1.11-.8 2-1.77 2-.98 0-1.78-.89-1.78-2Zm329.68 150.62c0-1.11.79-2 1.78-2 .97 0 1.76.89 1.76 2s-.79 2-1.76 2c-.99 0-1.78-.9-1.78-2Zm-280.93 15.93c0-1.1.79-2 1.78-2 .97 0 1.76.9 1.76 2s-.79 2-1.76 2c-.99 0-1.78-.9-1.78-2Zm0 0"/>
</svg>
