<svg xmlns="http://www.w3.org/2000/svg" xmlns:xlink="http://www.w3.org/1999/xlink" width="230" height="170" viewBox="0 0 230 170">
  <defs>
    <path id="d" d="M1.42 0h3.3v-.19c-.92 0-1.13-.12-1.14-.7v-7.19l-.1-.01-2.15 1.07v.18q.7-.27.86-.27.37 0 .36.56v5.44c-.02.75-.22.92-1.13.92Zm0 0"/>
    <path id="e" d="m5.69-1.64-.16-.06c-.44.7-.56.78-1.14.8H1.53l2.02-2.12C4.6-4.14 5.08-5.05 5.08-5.98c0-1.2-.97-2.11-2.22-2.11a2.3 2.3 0 0 0-1.72.73c-.39.4-.56.8-.76 1.64l.25.06c.48-1.17.89-1.56 1.73-1.56 1.02 0 1.69.69 1.69 1.69 0 .95-.55 2.06-1.55 3.12L.36-.14V0h4.67Zm0 0"/>
    <path id="a" d="M8.36-7.94H5.89v.24c.67.04.88.17.88.5 0 .18-.08.51-.22.87l-1.77 4.4-1.81-4.05a4 4 0 0 1-.49-1.33q0-.35.55-.38l.35-.01v-.24H.17v.24c.6.01.77.18 1.29 1.25L4.4.13h.18L7.25-6.6c.4-.94.53-1.08 1.1-1.11Zm0 0"/>
    <path id="b" d="M8.47-.23c-.55-.04-.67-.16-1.1-1.04L4.4-8.07h-.23L1.67-2.2C.91-.44.75-.25.2-.23V0h2.36v-.23q-.84.02-.82-.49.01-.22.1-.47l.56-1.4h3.14l.49 1.15c.14.33.23.64.23.8 0 .31-.2.4-.84.4V0h3.06ZM2.59-3.08l1.38-3.3 1.39 3.3Zm0 0"/>
    <path id="f" d="M7.9-.23C7.43-.27 7.2-.4 6.85-.8L4.39-3.83c1.52-.3 2.17-.89 2.17-2q0-.77-.47-1.3c-.46-.5-1.46-.8-2.57-.8H.2v.23c.9.1 1 .2 1.02 1.08v5.18C1.2-.42 1.1-.3.2-.24V0h3.32v-.23c-.93-.05-1.07-.2-1.08-1.08v-2.36l.67-.02L5.97 0h1.92ZM2.43-7.06c0-.33.14-.42.62-.42 1.49 0 2.19.51 2.19 1.64 0 .59-.25 1.09-.69 1.32-.54.32-.97.38-2.12.41Zm0 0"/>
    <path id="c" d="M4.95-7.7c.72.03.82.08.82.37 0 .25-.29.61-.94 1.24L2.7-4.17v-2.45c.02-.91.14-1.02 1.11-1.08v-.24H.41v.24c.92.06 1.06.2 1.07 1.08v5.18C1.47-.42 1.34-.28.41-.24V0h3.37v-.23c-.92-.05-1.06-.2-1.08-1.08v-2.24l.32-.25L4.3-2.55C5.22-1.63 5.84-.8 5.84-.5q.01.25-.5.27h-.32V0h3.65v-.23c-.62 0-.8-.13-1.89-1.29l-2.8-3 2.29-2.25c.8-.78 1.01-.87 1.82-.93v-.24H4.95Zm0 0"/>
    <path id="i" d="M7.16-2.03H6.8C6.25-.75 5.71-.45 3.98-.43h-.3C2.41-.49 2.4-.49 2.4-.96v-2.97h1.84c1.02.03 1.17.17 1.33 1.15h.26v-2.78h-.26c-.16.97-.31 1.11-1.33 1.14H2.41v-2.67c.01-.36.06-.4.39-.4h1.62c1.4.03 1.63.2 1.83 1.26h.3L6.5-7.94H.14v.24c.88.06 1.02.22 1.05 1.08v5.3C1.16-.43 1-.27.14-.22V0h6.47Zm0 0"/>
    <path id="g" d="M7.92-.23c-.45-.04-.7-.16-1.04-.57L4.39-3.83c1.53-.31 2.19-.9 2.19-2.01q0-.78-.47-1.32c-.47-.48-1.47-.8-2.6-.8H.22v.24c.88.1 1 .2 1 1.08v5.2c0 1.02-.1 1.14-1 1.2V0h3.32v-.23c-.92-.05-1.06-.2-1.08-1.08v-2.36l.67-.03L5.99 0h1.94ZM2.45-7.08c0-.33.13-.44.61-.44 1.5 0 2.2.52 2.2 1.66 0 .6-.24 1.1-.68 1.33-.55.31-.97.39-2.13.4Zm0 0"/>
    <path id="h" d="m5.7-1.64-.15-.06c-.44.68-.58.78-1.14.8H1.53l2.03-2.13C4.63-4.14 5.1-5.06 5.1-6c0-1.2-.96-2.12-2.21-2.12-.68 0-1.29.26-1.74.74-.39.41-.56.8-.76 1.65l.25.06c.48-1.17.9-1.56 1.73-1.56 1.03 0 1.7.68 1.7 1.68 0 .96-.54 2.07-1.56 3.13L.36-.14V0h4.69Zm0 0"/>
  </defs>
  <path fill="none" stroke="#000" stroke-linejoin="round" stroke-miterlimit="10" d="M101.98-3v26.3"/>
  <path fill="none" stroke="#000" stroke-linejoin="round" stroke-miterlimit="10" stroke-width="2.5" d="M106.7 02.56v14.33"/>
  <path fill="none" stroke="#000" stroke-linejoin="round" stroke-miterlimit="10" d="M72.82 09.79h28.93m-28.93 0v124.87m33.88-124.61h28.91m-.04-.1 9.55-9.88m4.06 9.72h51.89"/>
  <path fill="none" stroke="#000" stroke-linejoin="round" stroke-miterlimit="10" stroke-width="2" d="M91.98 115.02h49.4v-16.67h-49.4Zm69.42-47.83h15.97V19.5H161.4Zm0 0"/>
  <path fill="none" stroke="#000" stroke-linejoin="round" stroke-miterlimit="10" d="M186.38 69.2h28.92"/>
  <path fill="none" stroke="#000" stroke-linejoin="round" stroke-miterlimit="10" stroke-width="2.5" d="M209.24 63.64H193.6"/>
  <path fill="none" stroke="#000" stroke-linejoin="round" stroke-miterlimit="10" d="m201.1 39.33 9.54-9.84m-9.54 39.71v37.2m0-67.19v24.26m0-53.68v13.49m-128 83.12h18.88"/>
  <path fill="none" stroke="#000" stroke-linejoin="round" stroke-miterlimit="10" stroke-width="2" d="M157.79 86.25c0-6.66 5.52-12.06 12.33-12.06s12.34 5.4 12.34 12.06-5.53 12.06-12.34 12.06-12.33-5.4-12.33-12.06Zm-53.59 48.03c0-6.66 5.52-12.07 12.34-12.07 6.8 0 12.33 5.41 12.33 12.07s-5.52 12.06-12.33 12.06-12.34-5.4-12.34-12.06Zm0 0"/>
  <path fill="none" stroke="#000" stroke-linejoin="round" stroke-miterlimit="10" d="M72.82 134.71h31.38m37.2-28.31h59.7m-72.19 28.36 41.1-.05M170 09.79v9.59m0 47.87v6.94m0 24.15v36.37"/>
  <use xlink:href="#a" x="112.4" y="137.34"/>
  <use xlink:href="#l" x="121.03" y="137.34"/>
  <use xlink:href="#b" x="165.77" y="89.63"/>
  <use xlink:href="#l" x="174.4" y="89.63"/>
  <use xlink:href="#c" x="134.57" y="23.2"/>
  <use xlink:href="#d" x="143.23" y="23.2"/>
  <use xlink:href="#l" x="149.23" y="23.2"/>
  <use xlink:href="#c" x="205.68" y="24.88"/>
  <use xlink:href="#e" x="214.31" y="24.88"/>
  <use xlink:href="#l" x="220.31" y="24.88"/>
  <use xlink:href="#f" x="109.64" y="91.55"/>
  <use xlink:href="#d" x="117.67" y="91.55"/>
  <use xlink:href="#l" x="123.67" y="91.55"/>
  <use xlink:href="#g" x="143.23" y="48.97"/>
  <use xlink:href="#h" x="151.26" y="48.97"/>
  <use xlink:href="#cQ" x="157.26" y="48.97"/>
  <use xlink:href="#i" x="205.68" y="57.15"/>
  <use xlink:href="#e" x="212.99" y="57.15"/>
  <use xlink:href="#l" x="218.99" y="57.15"/>
  <use xlink:href="#i" x="99.57" y="35.43"/>
  <use xlink:href="#d" x="106.89" y="35.43"/>
  <use xlink:href="#l" x="112.88" y="35.43"/>
</svg>
