<svg xmlns="http://www.w3.org/2000/svg" xmlns:xlink="http://www.w3.org/1999/xlink" width="595.32" height="300" viewBox="0 0 595.32 300">
  <defs>
    <path id="f" d="M.4-1.6.16.13h.19C.45-.06.49-.1.62-.1q.17 0 .53.1c.25.08.42.12.6.12.94 0 1.6-.6 1.6-1.44 0-.44-.23-.9-.75-1.55-.42-.52-.6-.86-.6-1.17 0-.36.24-.6.62-.6q.85 0 1.01 1.29h.19l.22-1.53h-.16c-.1.14-.17.18-.33.18-.1 0-.19-.01-.4-.08-.27-.07-.43-.1-.61-.1-.83 0-1.35.48-1.35 1.21q0 .54.7 1.43c.43.56.62.95.62 1.26 0 .52-.33.86-.82.86C1.08-.1.75-.56.58-1.6Zm0 0"/>
    <path id="g" d="M.38-3.83H.13l.34-.92.12-.4.58-.07q.2 0 .58.06.45.08.66.08.23 0 .59-.1l.1.13a8 8 0 0 0-1.18 1.86A4 4 0 0 0 1.6-1.6q0 .58.24.88.25.3.6.3.85 0 1.46-1.1.62-1.11.63-2.27 0-.35-.13-.51a.4.4 0 0 0-.34-.16 1 1 0 0 0-.32.08l-.12-.19q.36-.3.6-.6.18-.04.29-.04.3 0 .52.27.2.27.2.76 0 .93-.58 2.03A5 5 0 0 1 3.2-.36q-.61.5-1.18.5t-.9-.37Q.8-.63.8-1.36q0-.75.4-1.58.26-.48 1.25-1.65a4 4 0 0 1-.89.03l-.33-.02-.21.02q-.12 0-.25.06a5 5 0 0 0-.4.67m0 0"/>
  </defs>
  <path fill="#fff" fill-rule="evenodd" stroke="#000" stroke-miterlimit="10" stroke-width=".75" d="M88.55 222.19h25.92v-8.6H88.55Zm0 0"/>
  <path fill="#fff" fill-rule="evenodd" stroke="#000" stroke-miterlimit="10" stroke-width=".75" d="m108.12 213.6-3.94-8.05h-7.9l-3.94 8.05Zm0 0"/>
  <path fill="none" stroke="#000" stroke-linejoin="round" stroke-miterlimit="10" stroke-width="2.5" d="m94.94 226.23 260.06.05"/>
  <path fill="none" stroke="#000" stroke-linejoin="round" stroke-miterlimit="10" stroke-width=".75" d="M354.97 226.26c0 3.82-4.77 6.92-10.64 6.92h-42.6c-5.87 0-10.63 3.09-10.63 6.92 0-3.83-4.78-6.92-10.65-6.92h-42.6c-5.87 0-10.63-3.1-10.63-6.92m0 0c0 3.82-4.77 6.92-10.65 6.92h-42.59c-5.87 0-10.64 3.09-10.64 6.92 0-3.83-4.77-6.92-10.64-6.92h-42.6c-5.87 0-10.64-3.1-10.64-6.92m127.78-.03v-26.42"/>
  <path fill="#fff" fill-rule="evenodd" stroke="#000" stroke-miterlimit="8" stroke-width=".75" d="M221.5 199.81h10.93v-28.76H221.5Zm0 0"/>
  <path fill="#fff" fill-rule="evenodd" stroke="#000" stroke-linejoin="round" stroke-miterlimit="8" stroke-width=".75" d="M223.2 178.19c0-2.07 1.8-3.75 4.02-3.75s4.01 1.68 4.01 3.75c0 2.06-1.8 3.74-4.01 3.74-2.23 0-4.02-1.68-4.02-3.74Zm0 11.98c0-2.06 1.8-3.74 4.02-3.74s4.01 1.68 4.01 3.74-1.8 3.75-4.01 3.75c-2.23 0-4.02-1.68-4.02-3.75Zm0 0"/>
  <path fill="none" stroke="#000" stroke-linejoin="round" stroke-miterlimit="8" stroke-width=".75" d="M355 226.23v-26.42"/>
  <path fill="#fff" fill-rule="evenodd" stroke="#000" stroke-miterlimit="8" stroke-width=".75" d="M349.25 199.81h10.94v-28.76h-10.94Zm0 0"/>
  <path fill="#fff" fill-rule="evenodd" stroke="#000" stroke-linejoin="round" stroke-miterlimit="8" stroke-width=".75" d="M350.95 178.19c0-2.07 1.8-3.75 4.02-3.75s4.02 1.68 4.02 3.75c0 2.06-1.8 3.74-4.02 3.74s-4.02-1.68-4.02-3.74Zm0 11.98c0-2.06 1.8-3.74 4.02-3.74s4.02 1.68 4.02 3.74-1.8 3.75-4.02 3.75-4.02-1.68-4.02-3.75ZM92.34 221.89c0-2.07 1.6-3.75 3.57-3.75a3.67 3.67 0 0 1 3.58 3.75c0 2.06-1.6 3.74-3.58 3.74a3.66 3.66 0 0 1-3.57-3.74Zm11.99.6c0-2.07 1.6-3.75 3.58-3.75a3.66 3.66 0 0 1 3.56 3.75c0 2.06-1.6 3.74-3.56 3.74a3.66 3.66 0 0 1-3.58-3.74Zm0 0"/>
  <path d="m114.47 218.36 11.14.01v.75l-11.14-.01Zm10.14-2.61 6 3-6 2.99Zm0 0"/>
  <use xlink:href="#f" x="161.36" y="248.46"/>
  <use xlink:href="#f" x="289.66" y="248.22"/>
  <use xlink:href="#g" x="121.68" y="214.06"/>
</svg>
