<svg xmlns="http://www.w3.org/2000/svg" xmlns:xlink="http://www.w3.org/1999/xlink" width="450" height="400" viewBox="0 0 450 400">
  <defs>
    <path id="c" d="m2.05-1.66 2.3-2.67q0-.44-.16-.62-.15-.17-.53-.2v-.2h2.48v.2q-.4 0-.53.09a1 1 0 0 0-.2.2q-.08.1-.08.75v2.84q0 .63.06.75.06.13.2.22t.55.08V0h-2.6v-.22q.49 0 .65-.17t.17-.88v-2.51L2.05-1.1q0 .5.14.68.12.2.56.2V0H.27v-.22q.52 0 .67-.19.15-.18.14-.86V-4.1q0-.62-.06-.73a1 1 0 0 0-.2-.2q-.14-.1-.55-.1v-.22h2.59v.22q-.4 0-.53.08a1 1 0 0 0-.2.2q-.08.1-.08.75Zm0 0"/>
    <path id="d" d="m4.63-5.36.21 1.47h-.26q-.22-.74-.46-.9Q3.9-5 3.2-5H2.05v3.72q0 .63.06.75.06.13.2.22t.55.08V0H.19v-.22Q.74-.23.9-.39t.17-.88V-4.1q0-.56-.06-.72a.4.4 0 0 0-.24-.22q-.15-.07-.6-.1v-.2Zm0 0"/>
    <path id="e" d="M1.5-1.14a.6.6 0 0 1 .45.2q.2.2.2.46t-.2.45a.66.66 0 0 1-.92 0 .6.6 0 0 1-.19-.45.64.64 0 0 1 .66-.66m0 0"/>
    <path id="a" d="M6.45 0H3.03v-.22q.67-.01.9-.17.23-.17.24-.7-1.99 0-2.86-.83a2.8 2.8 0 0 1-.87-2.1q0-.91.51-1.57.53-.68 1.28-.93.77-.26 1.94-.26-.01-.49-.15-.64a1 1 0 0 0-.32-.22 3 3 0 0 0-.67-.08v-.22h3.42v.22q-.69.03-.9.22-.22.18-.25.72 1.26 0 1.98.28.73.29 1.24.92t.51 1.56q0 1.23-.86 2.08-.84.85-2.87.85 0 .51.23.68t.92.2ZM5.3-1.53q.86 0 1.37-.22.52-.24.85-.81.34-.6.34-1.46 0-.8-.34-1.36a2 2 0 0 0-.86-.76q-.51-.2-1.36-.2Zm-1.13 0v-4.81q-.9 0-1.4.21-.5.23-.82.75-.32.54-.32 1.36 0 .93.39 1.54.38.6.9.78.53.17 1.25.17m0 0"/>
    <path id="f" d="M5.5-1.53 4.94 0H.25v-.22a21 21 0 0 0 2.92-3.06q.84-1.2.85-2.2 0-.75-.47-1.24a1.5 1.5 0 0 0-1.11-.48q-.58 0-1.05.34t-.69 1H.48q.15-1.08.75-1.66.61-.57 1.52-.57.96 0 1.6.62.67.61.67 1.45 0 .62-.29 1.2-.44.96-1.4 2.02A49 49 0 0 1 1.5-.9h2.08q.62.01.87-.04.27-.05.47-.19.2-.13.36-.4Zm0 0"/>
    <path id="j" d="m7.45-.14-.04.08-.08.06-.14.02A2 2 0 0 1 6.62 0l-.06-.06v-.08l.6-2.98.06-.58a1 1 0 0 0-.14-.55q-.13-.2-.46-.2-.26 0-.56.17-.28.15-.54.44-.25.27-.46.68-.18.4-.28.86L4.34-.14l-.03.08-.1.06-.13.02A2 2 0 0 1 3.52 0l-.05-.06-.02-.08.6-2.98q.04-.18.04-.33l.02-.28q0-.34-.14-.52-.13-.2-.45-.2-.27 0-.57.17-.28.15-.54.44-.25.27-.46.68-.19.4-.28.86L1.23-.14l-.03.08-.1.06-.13.02a1 1 0 0 1-.44 0L.41 0 .34-.06v-.08l.99-4.84.01-.08.08-.05.14-.03a1 1 0 0 1 .36 0q.08 0 .11.03.04.02.06.05v.08l-.17.92q.08-.2.27-.4.18-.2.42-.37.25-.16.55-.28.3-.1.6-.1.32 0 .55.08a.9.9 0 0 1 .6.61q.07.21.09.46.1-.2.3-.4a3 3 0 0 1 .97-.65q.3-.1.59-.1.36 0 .6.1.24.09.4.27.15.17.22.42a2 2 0 0 1 .03.89l-.05.37Zm0 0"/>
    <path id="k" d="M3.14-.23q0 .06-.02.1l-.01.08-.05.03q0 .03-.03.02H.73Q.7 0 .7-.02L.64-.05.61-.12v-.21l.06-.12.06-.02h.91V-3.8l-.84.5-.11.05q-.05 0-.06-.02l-.04-.07v-.24q0-.04.02-.06 0-.03.03-.05l.05-.04L1.7-4.4h.03l.05-.02.06-.01h.11l.14.01.08.02q.03 0 .05.03l.01.03v3.86h.8l.03.02q.03 0 .05.04l.02.08zm0 0"/>
    <path id="l" d="M3.14-.25q0 .07-.02.1l-.01.09-.05.04-.04.02H.58Q.53 0 .5-.02L.44-.05.39-.12v-.25q0-.05.02-.08l.04-.08.07-.1.86-.9q.29-.31.46-.55.2-.24.28-.45.1-.22.13-.38l.03-.3q0-.16-.05-.29l-.14-.22-.23-.15a1 1 0 0 0-.3-.07q-.22 0-.39.06l-.28.13-.2.13-.13.04-.04-.01-.04-.04-.01-.07v-.22l.01-.06.02-.05.05-.06.14-.1a3 3 0 0 1 .6-.22 1.6 1.6 0 0 1 .93.05q.25.08.4.24t.24.37q.08.2.08.44a2 2 0 0 1-.2.87q-.12.24-.35.53t-.6.7l-.7.71H3q.03 0 .05.02.03 0 .04.04.04.04.04.08zm0 0"/>
    <clipPath id="g">
      <path d="M248 286h24v24h-24Zm0 0"/>
    </clipPath>
    <clipPath id="h">
      <path d="M259.93 286.21c-6.5 0-11.76 5.17-11.76 11.54 0 6.38 5.26 11.54 11.76 11.54s11.76-5.17 11.76-11.54-5.26-11.54-11.76-11.54m0 0" clip-rule="evenodd"/>
    </clipPath>
    <radialGradient id="i" cx="0" cy="0" r="11.65" fx="0" fy="0" gradientTransform="matrix(1.00965 0 0 -.99035 259.93 297.75)" gradientUnits="userSpaceOnUse">
      <stop offset="0" stop-color="#595959"/>
      <stop offset=".02" stop-color="#5a5a5a"/>
      <stop offset=".03" stop-color="#5a5a5a"/>
      <stop offset=".03" stop-color="#5b5b5b"/>
      <stop offset=".04" stop-color="#5b5b5b"/>
      <stop offset=".05" stop-color="#5c5c5c"/>
      <stop offset=".07" stop-color="#5d5d5d"/>
      <stop offset=".08" stop-color="#5d5d5d"/>
      <stop offset=".08" stop-color="#5d5d5d"/>
      <stop offset=".09" stop-color="#5e5e5e"/>
      <stop offset=".1" stop-color="#5f5f5f"/>
      <stop offset=".11" stop-color="#606060"/>
      <stop offset=".12" stop-color="#616161"/>
      <stop offset=".13" stop-color="#626262"/>
      <stop offset=".14" stop-color="#636363"/>
      <stop offset=".16" stop-color="#646464"/>
      <stop offset=".16" stop-color="#646464"/>
      <stop offset=".16" stop-color="#656565"/>
      <stop offset=".17" stop-color="#656565"/>
      <stop offset=".17" stop-color="#666"/>
      <stop offset=".18" stop-color="#676767"/>
      <stop offset=".19" stop-color="#676767"/>
      <stop offset=".19" stop-color="#686868"/>
      <stop offset=".2" stop-color="#686868"/>
      <stop offset=".2" stop-color="#696969"/>
      <stop offset=".2" stop-color="#696969"/>
      <stop offset=".21" stop-color="#6a6a6a"/>
      <stop offset=".21" stop-color="#6a6a6a"/>
      <stop offset=".21" stop-color="#6b6b6b"/>
      <stop offset=".22" stop-color="#6b6b6b"/>
      <stop offset=".22" stop-color="#6c6c6c"/>
      <stop offset=".23" stop-color="#6d6d6d"/>
      <stop offset=".24" stop-color="#6e6e6e"/>
      <stop offset=".24" stop-color="#6e6e6e"/>
      <stop offset=".25" stop-color="#6f6f6f"/>
      <stop offset=".25" stop-color="#6f6f6f"/>
      <stop offset=".25" stop-color="#707070"/>
      <stop offset=".26" stop-color="#717171"/>
      <stop offset=".27" stop-color="#727272"/>
      <stop offset=".27" stop-color="#737373"/>
      <stop offset=".28" stop-color="#747474"/>
      <stop offset=".29" stop-color="#757575"/>
      <stop offset=".3" stop-color="#767676"/>
      <stop offset=".3" stop-color="#777"/>
      <stop offset=".31" stop-color="#787878"/>
      <stop offset=".31" stop-color="#797979"/>
      <stop offset=".32" stop-color="#7a7a7a"/>
      <stop offset=".32" stop-color="#7b7b7b"/>
      <stop offset=".33" stop-color="#7c7c7c"/>
      <stop offset=".34" stop-color="#7d7d7d"/>
      <stop offset=".34" stop-color="#7e7e7e"/>
      <stop offset=".35" stop-color="#7f7f7f"/>
      <stop offset=".36" stop-color="gray"/>
      <stop offset=".36" stop-color="#818181"/>
      <stop offset=".37" stop-color="#828282"/>
      <stop offset=".38" stop-color="#838383"/>
      <stop offset=".38" stop-color="#848484"/>
      <stop offset=".39" stop-color="#858585"/>
      <stop offset=".39" stop-color="#868686"/>
      <stop offset=".4" stop-color="#878787"/>
      <stop offset=".41" stop-color="#888"/>
      <stop offset=".41" stop-color="#898989"/>
      <stop offset=".41" stop-color="#8a8a8a"/>
      <stop offset=".42" stop-color="#8b8b8b"/>
      <stop offset=".43" stop-color="#8c8c8c"/>
      <stop offset=".43" stop-color="#8d8d8d"/>
      <stop offset=".44" stop-color="#8e8e8e"/>
      <stop offset=".45" stop-color="#8f8f8f"/>
      <stop offset=".45" stop-color="#909090"/>
      <stop offset=".46" stop-color="#919191"/>
      <stop offset=".46" stop-color="#929292"/>
      <stop offset=".47" stop-color="#939393"/>
      <stop offset=".48" stop-color="#949494"/>
      <stop offset=".48" stop-color="#959595"/>
      <stop offset=".49" stop-color="#969696"/>
      <stop offset=".5" stop-color="#979797"/>
      <stop offset=".5" stop-color="#989898"/>
      <stop offset=".51" stop-color="#999"/>
      <stop offset=".51" stop-color="#9a9a9a"/>
      <stop offset=".52" stop-color="#9a9a9a"/>
      <stop offset=".52" stop-color="#9b9b9b"/>
      <stop offset=".52" stop-color="#9b9b9b"/>
      <stop offset=".53" stop-color="#9c9c9c"/>
      <stop offset=".53" stop-color="#9c9c9c"/>
      <stop offset=".54" stop-color="#9d9d9d"/>
      <stop offset=".54" stop-color="#9e9e9e"/>
      <stop offset=".54" stop-color="#9e9e9e"/>
      <stop offset=".55" stop-color="#9f9f9f"/>
      <stop offset=".55" stop-color="#9f9f9f"/>
      <stop offset=".55" stop-color="#a0a0a0"/>
      <stop offset=".56" stop-color="#a0a0a0"/>
      <stop offset=".56" stop-color="#a1a1a1"/>
      <stop offset=".57" stop-color="#a2a2a2"/>
      <stop offset=".57" stop-color="#a2a2a2"/>
      <stop offset=".57" stop-color="#a3a3a3"/>
      <stop offset=".58" stop-color="#a3a3a3"/>
      <stop offset=".58" stop-color="#a4a4a4"/>
      <stop offset=".59" stop-color="#a4a4a4"/>
      <stop offset=".59" stop-color="#a5a5a5"/>
      <stop offset=".59" stop-color="#a5a5a5"/>
      <stop offset=".6" stop-color="#a6a6a6"/>
      <stop offset=".6" stop-color="#a6a6a6"/>
      <stop offset=".61" stop-color="#a7a7a7"/>
      <stop offset=".61" stop-color="#a7a7a7"/>
      <stop offset=".61" stop-color="#a8a8a8"/>
      <stop offset=".62" stop-color="#a8a8a8"/>
      <stop offset=".62" stop-color="#a9a9a9"/>
      <stop offset=".63" stop-color="#a9a9a9"/>
      <stop offset=".63" stop-color="#aaa"/>
      <stop offset=".64" stop-color="#ababab"/>
      <stop offset=".64" stop-color="#acacac"/>
      <stop offset=".65" stop-color="#adadad"/>
      <stop offset=".66" stop-color="#adadad"/>
      <stop offset=".66" stop-color="#aeaeae"/>
      <stop offset=".67" stop-color="#afafaf"/>
      <stop offset=".68" stop-color="#b0b0b0"/>
      <stop offset=".69" stop-color="#b0b0b0"/>
      <stop offset=".69" stop-color="#b1b1b1"/>
      <stop offset=".7" stop-color="#b1b1b1"/>
      <stop offset=".7" stop-color="#b2b2b2"/>
      <stop offset=".71" stop-color="#b3b3b3"/>
      <stop offset=".72" stop-color="#b3b3b3"/>
      <stop offset=".72" stop-color="#b4b4b4"/>
      <stop offset=".74" stop-color="#b5b5b5"/>
      <stop offset=".75" stop-color="#b5b5b5"/>
      <stop offset=".75" stop-color="#b6b6b6"/>
      <stop offset=".76" stop-color="#b6b6b6"/>
      <stop offset=".76" stop-color="#b7b7b7"/>
      <stop offset=".77" stop-color="#b7b7b7"/>
      <stop offset=".78" stop-color="#b8b8b8"/>
      <stop offset=".79" stop-color="#b9b9b9"/>
      <stop offset=".8" stop-color="#b9b9b9"/>
      <stop offset=".8" stop-color="#bababa"/>
      <stop offset=".83" stop-color="#bbb"/>
      <stop offset=".85" stop-color="#bcbcbc"/>
      <stop offset=".86" stop-color="#bcbcbc"/>
      <stop offset=".87" stop-color="#bdbdbd"/>
      <stop offset=".89" stop-color="#bdbdbd"/>
      <stop offset=".89" stop-color="#bdbdbd"/>
      <stop offset=".89" stop-color="#bebebe"/>
      <stop offset=".92" stop-color="#bebebe"/>
      <stop offset=".93" stop-color="#bfbfbf"/>
      <stop offset=".96" stop-color="#bfbfbf"/>
      <stop offset=".97" stop-color="silver"/>
      <stop offset="1" stop-color="silver"/>
    </radialGradient>
  </defs>
  <use xlink:href="#L" x="70.74" y="367.51"/>
  <use xlink:href="#L" x="106.1" y="367.51"/>
  <use xlink:href="#L" x="141.46" y="367.51"/>
  <use xlink:href="#L" x="176.85" y="367.51"/>
  <use xlink:href="#L" x="212.21" y="367.51"/>
  <use xlink:href="#L" x="247.57" y="367.51"/>
  <use xlink:href="#L" x="282.93" y="367.51"/>
  <use xlink:href="#L" x="318.31" y="367.51"/>
  <use xlink:href="#L" x="353.67" y="367.51"/>
  <use xlink:href="#a" x="389.03" y="367.51"/>
  <use xlink:href="#c" x="398.49" y="367.51"/>
  <use xlink:href="#d" x="404.96" y="367.51"/>
  <use xlink:href="#e" x="409.87" y="367.51"/>
  <use xlink:href="#z" x="412.87" y="367.51"/>
  <use xlink:href="#f" x="415.86" y="367.51"/>
  <use xlink:href="#L" x="421.9" y="367.51"/>
  <path fill-rule="evenodd" stroke="#000" stroke-linecap="round" stroke-miterlimit="10" stroke-width=".75" d="M365.53 320.82h13.04v-6.49h-13.04Zm0 0"/>
  <path fill="none" stroke="#000" stroke-linejoin="round" stroke-miterlimit="10" stroke-width="4.49" d="M372.07 310.34v6.49m-3.04-6.49h6.49"/>
  <path fill-rule="evenodd" stroke="#000" stroke-linecap="round" stroke-miterlimit="8" stroke-width=".75" d="M348.5 320.82h13.04v-6.49H348.5Zm0 0"/>
  <path fill="none" stroke="#000" stroke-linejoin="round" stroke-miterlimit="8" stroke-width="4.49" d="M355.04 310.34v6.49m-3.04-6.49h6.5"/>
  <path fill="none" stroke="#000" stroke-linejoin="round" stroke-miterlimit="8" stroke-width="3" d="M260.15 251.65h104.33"/>
  <path fill="#fff" fill-rule="evenodd" stroke="#000" stroke-linecap="round" stroke-linejoin="round" stroke-miterlimit="8" stroke-width=".75" d="m312.31 251.65 6.53 13.04H305.8Zm0 0"/>
  <g clip-path="url(#g)">
    <g clip-path="url(#h)">
      <path fill="url(#i)" d="M248.17 309.29V286.2h23.52v23.08Zm0 0"/>
    </g>
  </g>
  <path fill="none" stroke="#000" stroke-linecap="round" stroke-linejoin="round" stroke-miterlimit="8" stroke-width=".75" d="M259.93 286.21c-6.5 0-11.76 5.17-11.76 11.54 0 6.38 5.26 11.54 11.76 11.54s11.76-5.16 11.76-11.54-5.26-11.54-11.76-11.54m.22-34.56v45.65m-11.98 0v39.1m24.02-39.1v45.6"/>
  <path fill="#fff" fill-rule="evenodd" stroke="#000" stroke-linecap="round" stroke-miterlimit="8" stroke-width=".75" d="M241.62 349.44h13.04v-13.03h-13.04Zm24.08 6.49h13.03V342.9H265.7Zm0 0"/>
  <path fill="none" stroke="#000" stroke-linecap="round" stroke-linejoin="round" stroke-miterlimit="8" stroke-width=".75" d="M364.48 251.65v45.65"/>
  <path fill="#fff" fill-rule="evenodd" stroke="#000" stroke-linecap="round" stroke-linejoin="round" stroke-miterlimit="8" stroke-width=".75" d="M384.06 323.34c0 3.6-8.75 6.52-19.56 6.52s-19.54-2.91-19.54-6.52v-6.51h39.1Zm0 0"/>
  <path fill="none" stroke="#000" stroke-linecap="round" stroke-linejoin="round" stroke-miterlimit="8" stroke-width=".75" d="m364.48 297.3-19.52 19.53m19.52-19.53 19.58 19.53"/>
  <use xlink:href="#b" x="288.08" y="379.86"/>
  <use xlink:href="#j" x="225.27" y="345.22"/>
  <use xlink:href="#k" x="234.02" y="346.77"/>
  <use xlink:href="#aP" x="237.5" y="346.77"/>
  <use xlink:href="#j" x="283.17" y="351.33"/>
  <use xlink:href="#l" x="291.92" y="352.89"/>
  <use xlink:href="#aP" x="295.41" y="352.89"/>
</svg>
