<svg xmlns="http://www.w3.org/2000/svg" xmlns:xlink="http://www.w3.org/1999/xlink" width="595.32" height="550" viewBox="0 0 595.32 550">
  <defs>
    <path id="c" d="m2.05-1.66 2.3-2.67q0-.44-.16-.62-.15-.17-.53-.2v-.2h2.48v.2q-.4 0-.53.09a1 1 0 0 0-.2.2q-.08.1-.08.75v2.84q0 .63.06.75.06.13.2.22t.55.08V0h-2.6v-.22q.49 0 .65-.17t.17-.88v-2.51L2.05-1.1q0 .5.14.68.12.2.56.2V0H.27v-.22q.52 0 .67-.19.15-.18.14-.86V-4.1q0-.62-.06-.73a1 1 0 0 0-.2-.2q-.14-.1-.55-.1v-.22h2.59v.22q-.4 0-.53.08a1 1 0 0 0-.2.2q-.08.1-.08.75Zm0 0"/>
    <path id="d" d="m4.63-5.36.21 1.47h-.26q-.22-.74-.46-.9Q3.9-5 3.2-5H2.05v3.72q0 .63.06.75.06.13.2.22t.55.08V0H.19v-.22Q.74-.23.9-.39t.17-.88V-4.1q0-.56-.06-.72a.4.4 0 0 0-.24-.22q-.15-.07-.6-.1v-.2Zm0 0"/>
    <path id="e" d="M1.5-1.14a.6.6 0 0 1 .45.2q.2.2.2.46t-.2.45a.66.66 0 0 1-.92 0 .6.6 0 0 1-.19-.45.64.64 0 0 1 .66-.66m0 0"/>
    <path id="a" d="M6.45 0H3.03v-.22q.67-.01.9-.17.23-.17.24-.7-1.99 0-2.86-.83a2.8 2.8 0 0 1-.87-2.1q0-.91.51-1.57.53-.68 1.28-.93.77-.26 1.94-.26-.01-.49-.15-.64a1 1 0 0 0-.32-.22 3 3 0 0 0-.67-.08v-.22h3.42v.22q-.69.03-.9.22-.22.18-.25.72 1.26 0 1.98.28.73.29 1.24.92t.51 1.56q0 1.23-.86 2.08-.84.85-2.87.85 0 .51.23.68t.92.2ZM5.3-1.53q.86 0 1.37-.22.52-.24.85-.81.34-.6.34-1.46 0-.8-.34-1.36a2 2 0 0 0-.86-.76q-.51-.2-1.36-.2Zm-1.13 0v-4.81q-.9 0-1.4.21-.5.23-.82.75-.32.54-.32 1.36 0 .93.39 1.54.38.6.9.78.53.17 1.25.17m0 0"/>
    <path id="f" d="m1.4-7.16 1.93-.93h.2v6.68q0 .67.05.85.06.15.23.25.17.07.72.1V0H1.55v-.22q.56 0 .72-.1.16-.07.23-.21.06-.16.06-.88v-4.28q0-.86-.06-1.1-.03-.2-.14-.27a.4.4 0 0 0-.27-.1q-.21 0-.59.2Zm0 0"/>
    <path id="g" d="m1.23-.14-.03.08-.1.06-.13.02a1 1 0 0 1-.44 0L.41 0 .34-.06v-.08l1.44-7.19q0-.04.03-.08l.08-.04q.07-.03.16-.03a2 2 0 0 1 .42 0q.08 0 .14.03.05 0 .05.04l.01.08Zm0 0"/>
  </defs>
  <use xlink:href="#ay" x="70.74" y="507.65"/>
  <use xlink:href="#ay" x="106.1" y="507.65"/>
  <use xlink:href="#ay" x="141.46" y="507.65"/>
  <use xlink:href="#ay" x="176.85" y="507.65"/>
  <use xlink:href="#ay" x="212.21" y="507.65"/>
  <use xlink:href="#ay" x="247.57" y="507.65"/>
  <use xlink:href="#ay" x="282.93" y="507.65"/>
  <use xlink:href="#ay" x="318.31" y="507.65"/>
  <use xlink:href="#a" x="353.67" y="507.65"/>
  <use xlink:href="#c" x="363.14" y="507.65"/>
  <use xlink:href="#d" x="369.6" y="507.65"/>
  <use xlink:href="#e" x="374.51" y="507.65"/>
  <use xlink:href="#ae" x="377.51" y="507.65"/>
  <use xlink:href="#f" x="380.5" y="507.65"/>
  <use xlink:href="#ay" x="386.51" y="507.65"/>
  <path fill="#fff" fill-rule="evenodd" stroke="#000" stroke-linecap="round" stroke-linejoin="round" stroke-miterlimit="10" stroke-width=".75" d="M226.62 446.83c-16.87 0-30.55 13.33-30.55 29.77s13.68 29.76 30.55 29.76c16.86 0 30.54-13.32 30.54-29.76s-13.68-29.77-30.54-29.77m0 0"/>
  <path fill="none" stroke="#000" stroke-linecap="round" stroke-linejoin="round" stroke-miterlimit="10" stroke-width=".75" d="M257.16 480.84h69.82"/>
  <path fill="none" stroke="#fff" stroke-linejoin="round" stroke-miterlimit="10" stroke-width="3" d="M257.16 472.35v8.49"/>
  <path fill="none" stroke="#000" stroke-linecap="round" stroke-linejoin="round" stroke-miterlimit="10" stroke-width=".75" d="M256.5 472.35h69.78"/>
  <path fill="gray" fill-rule="evenodd" stroke="#000" stroke-linecap="round" stroke-linejoin="round" stroke-miterlimit="10" stroke-width=".75" d="M293.81 472.35a4.3 4.3 0 0 0-4.34 4.25 4.3 4.3 0 0 0 4.34 4.24 4.3 4.3 0 0 0 4.35-4.24 4.3 4.3 0 0 0-4.35-4.25m0 0"/>
  <path fill="none" stroke="#000" stroke-dasharray="2.247435 2.99658" stroke-linecap="round" stroke-linejoin="round" stroke-miterlimit="10" stroke-width=".75" d="M294.11 455.32v17.03m-36.95-17.03v17.03"/>
  <path d="M259.15 463.36h30.92c.28 0 .5.22.5.5a.5.5 0 0 1-.5.5h-30.92a.5.5 0 0 1-.5-.5c0-.28.23-.5.5-.5m5.8 3.46-7.1-2.96 7.1-2.95c.26-.12.56 0 .66.27.1.24-.01.54-.27.64l-6 2.5v-.92l6 2.5c.26.1.37.4.27.65-.1.26-.4.38-.65.27m19.32-5.91 7.1 2.95-7.1 2.96c-.25.1-.56-.01-.65-.27a.5.5 0 0 1 .27-.65l5.99-2.5v.92l-6-2.5a.5.5 0 0 1-.26-.64c.1-.27.4-.39.65-.27m0 0"/>
  <use xlink:href="#g" x="276.09" y="458.15"/>
  <use xlink:href="#cb" x="278.61" y="458.15"/>
  <use xlink:href="#b" x="232.46" y="543.37"/>
</svg>
