<svg xmlns="http://www.w3.org/2000/svg" xmlns:xlink="http://www.w3.org/1999/xlink" width="595.28" height="500" viewBox="0 0 595.28 500">
  <defs>
    <path id="k" d="M4.38-7.34c.1-.44.15-.47.6-.47h1.57c1.34 0 1.34 1.15 1.34 1.26 0 .96-.97 2.2-2.55 2.2H3.63Zm2.01 3.07C7.7-4.5 8.88-5.4 8.88-6.5c0-.94-.83-1.66-2.18-1.66H2.86c-.22 0-.33 0-.33.24 0 .1.11.1.28.1.74 0 .74.1.74.24q.01.02-.05.27L1.9-.9c-.12.42-.15.55-.98.55-.23 0-.34 0-.34.22 0 .12.06.12.31.12H5c1.8 0 3.23-1.4 3.23-2.6 0-.96-.86-1.57-1.83-1.67M4.7-.34H3.08c-.17 0-.19 0-.27-.02-.12-.02-.14-.03-.14-.12 0-.1.03-.16.05-.27l.84-3.37H5.8c1.4 0 1.4 1.3 1.4 1.42A2.5 2.5 0 0 1 4.7-.34m0 0"/>
    <path id="l" d="M2.03-1.33c-.42.7-.83.96-1.4.99C.5-.33.4-.33.4-.12q.01.11.14.12l.97-.03L2.58 0c.08 0 .22 0 .22-.23 0-.1-.1-.11-.17-.11-.27-.03-.5-.13-.5-.41 0-.17.07-.3.23-.56l.9-1.5H6.3l.03.31c.03.3.17 1.55.17 1.77 0 .36-.6.39-.8.39-.12 0-.26 0-.26.22 0 .12.1.12.18.12l.65-.03h.68c.72 0 1.25.03 1.27.03.08 0 .2 0 .2-.23 0-.11-.1-.11-.28-.11-.66 0-.67-.11-.7-.47L6.7-8.27c-.01-.23-.06-.26-.2-.26-.1 0-.19.03-.3.2Zm1.44-1.83 2.39-4.01.4 4.01Zm0 0"/>
    <path id="m" d="m3.36-7.98.03-.2c0-.1-.12-.1-.14-.1l-.66.06q-.3.01-.59.05c-.31.01-.4.03-.4.25 0 .1.1.1.27.1.58 0 .6.12.6.24l-.03.2L.7-.46c-.04.19-.04.2-.04.28 0 .27.2.32.32.32.2 0 .36-.16.41-.3l.55-2.16.19-.78c.12-.5.12-.5.35-.86.22-.34.77-1.06 1.7-1.06.46 0 .63.36.63.84 0 .67-.47 1.97-.73 2.69-.11.28-.16.44-.16.66 0 .53.36.97.94.97 1.1 0 1.53-1.77 1.53-1.83q0-.1-.12-.11c-.11 0-.13.03-.18.23-.28.96-.71 1.46-1.2 1.46-.1 0-.31 0-.31-.4 0-.3.15-.68.2-.82.2-.57.75-1.97.75-2.68S5.11-5.27 4.2-5.27q-1.03.01-1.76.94Zm0 0"/>
    <path id="v" d="M4.4-7.34c.1-.44.15-.47.62-.47h.86c1.03 0 1.78.31 1.78 1.25 0 .6-.3 2.36-2.7 2.36H3.6Zm1.65 3.28c1.48-.32 2.64-1.28 2.64-2.3 0-.94-.94-1.8-2.6-1.8H2.86c-.25 0-.36 0-.36.24 0 .1.1.1.31.1.72 0 .72.1.72.24q.01.02-.05.27L1.88-.9c-.11.42-.13.55-.96.55-.28 0-.36 0-.36.22C.56 0 .7 0 .73 0q.32-.01.7-.03h1.4l.69.03c.09 0 .21 0 .21-.23 0-.11-.1-.11-.28-.11-.73 0-.73-.1-.73-.22l.03-.19.8-3.22h1.43c1.13 0 1.35.72 1.35 1.11 0 .19-.13.66-.2.97-.13.55-.18.67-.18.9 0 .85.7 1.24 1.5 1.24.97 0 1.38-1.19 1.38-1.34q0-.14-.13-.13t-.14.17C8.26-.2 7.78.02 7.48.02S7-.12 7-.66c0-.28.14-1.37.16-1.43l.04-.58c0-.88-.7-1.25-1.15-1.4m0 0"/>
    <path id="y" d="M5.97-4.83c-.02-.03-.06-.12-.06-.15s.01-.04.21-.2l1.16-.9c1.6-1.23 2.13-1.65 2.95-1.73.08 0 .2 0 .2-.2q0-.14-.13-.15l-.4.04h-.46c-.36 0-.77-.04-1.11-.04-.1 0-.24 0-.24.22 0 .13.08.13.16.13.13.01.28.06.28.23 0 .24-.36.52-.45.6L3.4-3.34l.98-3.94c.11-.4.14-.53.99-.53.21 0 .32 0 .32-.22 0-.13-.1-.13-.17-.13l-.7.04h-1.4c-.21 0-.48-.04-.7-.04-.09 0-.23 0-.23.24 0 .1.1.1.3.1.72 0 .72.1.72.24q.01.02-.05.27L1.86-.9c-.11.42-.13.55-.97.55-.22 0-.34 0-.34.22 0 .12.1.12.18.12l.7-.03H2.8l.7.03c.1 0 .24 0 .24-.23 0-.11-.1-.11-.28-.11-.74 0-.74-.1-.74-.22 0-.08.08-.38.13-.58l.45-1.84 1.83-1.43c.34.77.97 2.3 1.45 3.47q.07.1.07.22c0 .36-.47.38-.58.38s-.24 0-.24.22c0 .12.14.12.18.12L7.3-.03h.56l.56.03c.08 0 .2 0 .2-.23 0-.11-.09-.11-.21-.11-.44-.02-.6-.11-.79-.55Zm0 0"/>
    <path id="w" d="M3.98-3.17a.45.45 0 0 0-.35.42q.01.3.3.3c.18 0 .44-.13.44-.47 0-.46-.5-.58-.8-.58-.37 0-.66.25-.85.56-.17-.42-.6-.56-.9-.56-.88 0-1.37.98-1.37 1.2 0 .08.07.11.13.11.1 0 .1-.04.12-.14.2-.58.68-.95 1.08-.95.31 0 .47.22.47.5A25.58 25.58 0 0 1 1.81-.9c-.1.42-.39.76-.75.76-.03 0-.25 0-.4-.11.36-.1.36-.42.36-.44 0-.17-.15-.3-.32-.3a.47.47 0 0 0-.45.49c0 .38.4.58.8.58.42 0 .72-.31.86-.58.17.4.54.58.92.58.87 0 1.34-1 1.34-1.22q-.02-.11-.1-.1c-.12 0-.13.05-.15.13-.15.53-.6.97-1.08.97-.26 0-.45-.17-.45-.52 0-.15.05-.34.16-.78l.28-1.1c.1-.4.39-.74.75-.74a1 1 0 0 1 .4.1m0 0"/>
    <path id="x" d="m7.47-7.3.05-.06.03-.06q-.01-.09-.11-.1-.31.02-.67.22-.37.24-.58.55-.3.42-.32.8 0 .1.04.22c.09.3.39.43.76.43q.37 0 .75-.28c.28-.15.5-.4.67-.62q.4-.6.4-1.07a1 1 0 0 0-.15-.53c-.28-.47-.86-.65-1.56-.65-.48 0-1.06.18-1.64.5a5 5 0 0 0-1.37 1.2q-.52.74-.52 1.38 0 .25.08.46l.1.2a4.3 4.3 0 0 0-2.3 1.48c-.4.57-.6 1.15-.6 1.64q0 .4.16.7c.34.69 1.15.98 2.17.98q.76 0 1.69-.45a4 4 0 0 0 1.34-1.08q.29-.45.28-.8 0-.3-.17-.53c-.31-.39-.9-.54-1.53-.54-.8 0-1.7 1.1-1.81 2.04v.05q.02.05.07.06h.05l.08-.03q.07-.01.06-.1c.13-.83.88-1.76 1.5-1.76.53 0 .94.14 1.1.42q.05.13.06.27c0 .2-.1.5-.33.8q-.37.58-1.05 1c-.47.28-.93.39-1.3.39-.85 0-1.43-.28-1.6-.83a1 1 0 0 1-.07-.34c0-.49.29-1.11.75-1.77.27-.4.66-.81 1.13-1.1l.56-.26a2 2 0 0 0 1.55.28c.08-.03.19-.1.25-.18q.07-.08.06-.16c0-.14-.14-.2-.22-.25-.2-.1-.47-.13-.72-.13q-.28.01-.6.07L3.93-5q-.03-.06-.02-.14c0-.4.28-.92.67-1.49.27-.37.55-.75.97-1.04.38-.27.78-.4 1.1-.4.64 0 1.15.15 1.36.5q.1.15.1.38.01.36-.32.86-.21.31-.53.55-.32.21-.55.22-.54-.01-.53-.38 0-.28.28-.68.17-.27.45-.46a1 1 0 0 1 .47-.19q.06 0 .08-.03M4.55-4.62q.35-.01.58.06l.06.04v.04s-.07.06-.11.06q-.07.04-.19.03-.47-.01-.72-.2.19-.05.38-.04m0 0"/>
    <path id="z" d="M2.72-5.72c0-.22 0-.25-.24-.25-.54.58-1.37.58-1.65.58v.28c.17 0 .72 0 1.2-.23v4.62c0 .33-.03.44-.86.44H.9V0C1.2-.03 2-.03 2.38-.03c.35 0 1.17 0 1.5.03v-.28h-.3c-.83 0-.86-.11-.86-.44Zm0 0"/>
    <path id="A" d="M4.14-1.58H3.9c-.02.11-.1.64-.2.78-.06.08-.67.08-.86.08h-1.6l.9-.84c1.45-1.27 2-1.74 2-2.66 0-1.03-.86-1.75-1.95-1.75A1.7 1.7 0 0 0 .45-4.33c0 .44.4.49.47.49.2 0 .47-.14.47-.47 0-.27-.19-.46-.47-.46h-.1c.21-.64.79-.92 1.27-.92.91 0 1.22.86 1.22 1.47 0 .92-.68 1.66-1.12 2.13L.56-.33c-.1.11-.1.13-.1.33h3.43Zm0 0"/>
    <pattern id="h" width="5" height="5" x="0" y="0" patternTransform="matrix(.8389 0 0 -.8389 399.2 237.61)" patternUnits="userSpaceOnUse" viewBox="0 0 5 5">
      <path fill="none" stroke="#000" stroke-linecap="round" stroke-linejoin="round" stroke-miterlimit="10" stroke-width=".59" d="m0 0 5 5"/>
        <path fill="none" stroke="#000" stroke-linecap="round" stroke-linejoin="round" stroke-miterlimit="10" stroke-width=".59" d="m-2.5 2.5 5 5"/>
        <path fill="none" stroke="#000" stroke-linecap="round" stroke-linejoin="round" stroke-miterlimit="10" stroke-width=".59" d="m2.5-2.5 5 5"/>
    </pattern>
  </defs>
    <path fill="url(#h)" d="M403.53 237.52h114.1v-4.08h-114.1Zm0 0"/>
    <path fill="none" stroke="#000" stroke-linecap="round" stroke-linejoin="round" stroke-miterlimit="10" stroke-width=".5" d="M399.45 233.44h118.17"/>
    <path fill="none" stroke="#000" stroke-linecap="round" stroke-linejoin="round" stroke-miterlimit="10" stroke-width=".99" d="M407.6 160.6v72.33h101.87v-71.3h-40.75v67.23h-20.37V160.6"/>
  <path fill="none" stroke="#000" stroke-linecap="round" stroke-linejoin="round" stroke-miterlimit="10" stroke-width=".5" d="M517.62 167.6v60.86"/>
  <path d="M517.62 162.63a25 25 0 0 1-2.06 7.97l2.06-3 2.06 3a25 25 0 0 1-2.06-7.97"/>
  <path fill="none" stroke="#000" stroke-linecap="round" stroke-linejoin="round" stroke-miterlimit="10" stroke-width=".5" d="M517.62 162.63a25 25 0 0 1-2.06 7.97l2.06-3 2.06 3a25 25 0 0 1-2.06-7.97m0 0"/>
  <path d="M517.62 233.44a25 25 0 0 1 2.06-7.97l-2.06 3-2.06-3a25 25 0 0 1 2.06 7.97"/>
  <path fill="none" stroke="#000" stroke-linecap="round" stroke-linejoin="round" stroke-miterlimit="10" stroke-width=".5" d="M517.62 233.44a25 25 0 0 1 2.06-7.97l-2.06 3-2.06-3a25 25 0 0 1 2.06 7.97m2.5 0h-5m5-71.31h-5"/>
  <use xlink:href="#k" x="484.35" y="201.87"/>
  <use xlink:href="#l" x="423.59" y="201.87"/>
  <use xlink:href="#m" x="521.21" y="201.93"/>
  <path fill="none" stroke="#000" stroke-linecap="round" stroke-linejoin="round" stroke-miterlimit="10" stroke-width=".5" d="M442.06 433.07h45.85v9.17h-45.85Zm0 0"/>
    <path fill="none" stroke="#000" stroke-linecap="round" stroke-linejoin="round" stroke-miterlimit="10" stroke-width=".5" d="M517.72 407.84a9.17 9.17 0 1 0-18.34 0 9.17 9.17 0 0 0 18.34 0m0 0"/>
  <path fill="none" stroke="#000" stroke-linecap="round" stroke-linejoin="round" stroke-miterlimit="10" stroke-width=".5" d="m502.07 414.33 12.97-12.97m0 12.97-12.97-12.97"/>
  <path fill="none" stroke="#000" stroke-linecap="round" stroke-linejoin="round" stroke-miterlimit="10" stroke-width="2.49" d="M477.6 458.29v9.17"/>
  <path fill="none" stroke="#000" stroke-linecap="round" stroke-linejoin="round" stroke-miterlimit="10" stroke-width=".99" d="M482.18 453.7v18.34"/>
    <path fill="none" stroke="#000" stroke-linecap="round" stroke-linejoin="round" stroke-miterlimit="10" stroke-width=".5" d="M477.6 462.87h-47"/>
    <path fill="none" stroke="#000" stroke-linecap="round" stroke-linejoin="round" stroke-miterlimit="10" stroke-width=".5" d="M430.6 462.87v-25.22"/>
    <path fill="none" stroke="#000" stroke-linecap="round" stroke-linejoin="round" stroke-miterlimit="10" stroke-width=".5" d="M430.6 437.65h11.46"/>
  <path fill="none" stroke="#000" stroke-linecap="round" stroke-linejoin="round" stroke-miterlimit="10" stroke-width=".5" d="M487.91 437.65h11.47m-41.28-9.56v-20.25"/>
  <path d="M458.1 433.07c.25-2.76.95-5.45 2.07-7.98l-2.06 3-2.06-3a25 25 0 0 1 2.06 7.98"/>
  <path fill="none" stroke="#000" stroke-linecap="round" stroke-linejoin="round" stroke-miterlimit="10" stroke-width=".5" d="M458.1 433.07c.25-2.76.95-5.45 2.07-7.98l-2.06 3-2.06-3a25 25 0 0 1 2.06 7.98m-.01-25.23h41.28"/>
    <path fill="none" stroke="#000" stroke-linecap="round" stroke-linejoin="round" stroke-miterlimit="10" stroke-width=".5" d="M517.72 407.84h11.47"/>
    <path fill="none" stroke="#000" stroke-linecap="round" stroke-linejoin="round" stroke-miterlimit="10" stroke-width=".5" d="M529.19 407.84v55.03"/>
    <path fill="none" stroke="#000" stroke-linecap="round" stroke-linejoin="round" stroke-miterlimit="10" stroke-width=".5" d="M529.19 462.87h-47"/>
    <path fill="none" stroke="#000" stroke-linecap="round" stroke-linejoin="round" stroke-miterlimit="10" stroke-width=".5" d="M529.19 437.65h-11.47"/>
  <path fill="none" stroke="#000" stroke-linecap="round" stroke-linejoin="round" stroke-miterlimit="10" stroke-width=".5" d="m499.38 437.65 15.89-9.17"/>
  <use xlink:href="#v" x="439.11" y="428.73"/>
  <use xlink:href="#w" x="448.01" y="430.53"/>
  <use xlink:href="#x" x="475.42" y="483"/>
  <use xlink:href="#y" x="493.97" y="430.52"/>
  <use xlink:href="#z" x="512.96" y="426.31"/>
  <use xlink:href="#A" x="515.42" y="445.59"/>
</svg>
