<svg xmlns="http://www.w3.org/2000/svg" xmlns:xlink="http://www.w3.org/1999/xlink" width="612" height="160" viewBox="0 0 612 160">
  <defs>
    <path id="d" d="M5.56-1.33c-.67.75-.78.85-.98.85q-.2-.01-.22-.24c0-.19.37-1.6.78-2.95.27-.95.52-1.85 1.19-4.47l-.06-.06c-.63.14-1.07.2-1.85.28v.2c.67.03.75.06.75.31 0 .18-.01.2-.19.85L4.47-4.6c-.1-.5-.31-.7-.78-.7-1.56 0-3.5 2.26-3.5 4.06C.19-.4.66.13 1.44.13c.81 0 1.34-.38 2.15-1.58-.12.6-.15.8-.15 1.06 0 .33.2.55.51.55.5 0 1.14-.5 1.75-1.38ZM3.73-5.02q.54.04.54.7c0 1.8-1.24 3.88-2.35 3.88-.42 0-.7-.31-.7-.8 0-.98.6-2.38 1.39-3.23.34-.34.78-.58 1.12-.55m0 0"/>
    <path id="a" d="m5.56-1.31-.33.33c-.39.39-.51.5-.62.5q-.16-.02-.17-.16c0-.25.5-2.31 1.08-4.36l.06-.25-.08-.05-.73.1-.04.03-.14.58q-.15-.7-.95-.7C2.04-5.3.2-3.12.2-1.2.2-.36.66.13 1.42.13c.85 0 1.36-.4 2.42-1.88-.25.98-.28 1.08-.28 1.38q-.02.5.49.5c.48 0 .76-.24 1.67-1.33ZM3.7-5.03c.4.03.67.31.67.73 0 1.02-.6 2.42-1.42 3.32-.3.32-.7.53-1.04.53-.44 0-.7-.35-.7-.9 0-.67.45-1.88.98-2.63.47-.7 1.03-1.08 1.51-1.05m0 0"/>
    <path id="b" d="M1.31-7.72c.74.03.78.06.78.33 0 .1-.01.23-.1.51q-.04.12-.05.24l-.03.08L.28-.55v.05c0 .27.9.63 1.6.63 1.8 0 3.8-2.08 3.8-3.99 0-.83-.59-1.44-1.4-1.44-.84 0-1.47.5-2.31 1.82l1.25-4.66-.06-.06c-.61.1-.96.17-1.85.28Zm2.5 3.02c.53 0 .85.39.85 1.03 0 .8-.6 2.08-1.32 2.81a2 2 0 0 1-1.48.72q-.56 0-.55-.4c0-.73.36-1.88.86-2.79Q2.95-4.7 3.81-4.7m0 0"/>
    <path id="c" d="M4.2-1.27c-.65.7-1.12.97-1.72.97C1.8-.3 1.4-.8 1.4-1.67c0-1.02.42-2.1 1.1-2.8.34-.36.82-.58 1.3-.58q.42.02.44.25c0 .07-.01.11-.07.22a1 1 0 0 0-.1.36q.01.44.47.45c.33 0 .56-.23.56-.54 0-.58-.51-.99-1.25-.99C2.04-5.3.36-3.55.36-1.67c0 1.14.66 1.8 1.77 1.8.9 0 1.53-.36 2.26-1.29Zm0 0"/>
    <path id="g" d="m3.83-1.1-.11-.04c-.3.47-.4.51-.77.53H1.03l1.35-1.42C3.09-2.78 3.4-3.4 3.4-4.02c0-.8-.64-1.42-1.49-1.42-.44 0-.86.17-1.15.5-.27.27-.38.53-.52 1.1l.17.04c.31-.8.6-1.04 1.16-1.04.69 0 1.14.45 1.14 1.14 0 .62-.38 1.37-1.05 2.08L.23-.1V0h3.15Zm0 0"/>
    <path id="f" d="M1.23-2.66c.47 0 .66.02.85.1.5.19.81.62.81 1.19 0 .68-.45 1.2-1.05 1.2-.22 0-.39-.06-.68-.25-.24-.16-.38-.2-.5-.2q-.31 0-.32.28c0 .28.35.45.91.45.6 0 1.25-.2 1.64-.53q.58-.51.58-1.35 0-.64-.36-1.03a2 2 0 0 0-.66-.43c.55-.38.74-.68.74-1.11 0-.66-.5-1.1-1.25-1.1q-.6 0-1.05.4c-.23.23-.36.42-.53.9l.12.03c.32-.6.7-.84 1.2-.84.52 0 .88.34.88.86q0 .43-.33.78c-.23.23-.46.36-1.01.54Zm0 0"/>
  </defs>
  <path fill="#fff" fill-rule="evenodd" stroke="#000" stroke-linecap="round" stroke-miterlimit="8" stroke-width=".75" d="M294 114.75h113.4V29.7H294Zm0 0"/>
  <path fill="#fff" fill-rule="evenodd" stroke="#000" stroke-linecap="round" stroke-miterlimit="8" stroke-width=".75" d="M329.25 90.95h42.5v-42.5h-42.5Zm0 0"/>
  <use xlink:href="#a" x="339.55" y="123.46"/>
  <use xlink:href="#e" x="345.55" y="123.46"/>
  <use xlink:href="#b" x="283.97" y="73.18"/>
  <use xlink:href="#e" x="289.99" y="73.18"/>
  <use xlink:href="#c" x="317.71" y="71.74"/>
  <use xlink:href="#e" x="322.99" y="71.74"/>
  <text x="283.97" y="129.1" font-family="Times New Roman" font-size="12">Фиг</text>
  <text x="304.84" y="129.1" font-family="Times New Roman" font-size="12">. 3.2</text>
  <path fill="#fff" fill-rule="evenodd" stroke="#000" stroke-linecap="round" stroke-miterlimit="8" stroke-width=".75" d="M449.65 90.45h7.15v-51h-7.15Zm54 .75h7.15v-51h-7.15Zm0 0"/>
  <path d="M458.4 78.7h43.25c.28 0 .5.22.5.5a.5.5 0 0 1-.5.5H458.4a.5.5 0 0 1-.5-.5c0-.28.22-.5.5-.5m5.75 4.43-6.74-3.93 6.74-3.93a.5.5 0 0 1 .68.18.5.5 0 0 1-.18.68l-6 3.5v-.86l6 3.5a.5.5 0 0 1 .18.68.5.5 0 0 1-.68.18m31.75-7.86 6.74 3.93-6.74 3.93a.5.5 0 0 1-.68-.18.5.5 0 0 1 .18-.68l6-3.5v.86l-6-3.5a.5.5 0 0 1-.18-.68.5.5 0 0 1 .68-.18"/>
  <use xlink:href="#d" x="471.94" y="92.74"/>
  <use xlink:href="#f" x="477.94" y="94.3"/>
  <use xlink:href="#d" x="445.66" y="103.06"/>
  <use xlink:href="#g" x="451.66" y="104.62"/>
  <use xlink:href="#d" x="501.94" y="103.78"/>
  <use xlink:href="#g" x="507.94" y="105.34"/>
  <text x="463.66" y="65.74" font-family="Times New Roman" font-size="12">въздух</text>
  <text x="462.22" y="29.74" font-family="Times New Roman" font-size="12">стъкло</text>
  <path fill="none" stroke="#000" stroke-linecap="round" stroke-linejoin="round" stroke-miterlimit="8" stroke-width=".75" d="m472.15 40.2-20.25 19.5m35.25-21.75 21 19.5"/>
  <text x="459.94" y="116.38" font-family="Times New Roman" font-size="12">Фиг</text>
  <text x="480.81" y="116.38" font-family="Times New Roman" font-size="12">. 3.3</text>
</svg>
