<svg xmlns="http://www.w3.org/2000/svg" width="160" height="100" viewBox="0 0 160 100">
  <path fill="none" stroke="#000" stroke-linecap="round" stroke-linejoin="round" stroke-miterlimit="10" stroke-width=".75" d="m67.15 44.95 71.25 27.75v-55.5Zm0 0"/>
  <path fill="#fff" fill-rule="evenodd" d="M138.75 17.6c-4.56 0-8.25 11.92-8.25 26.62s3.7 26.63 8.25 26.63 8.25-11.92 8.25-26.63-3.69-26.62-8.25-26.62"/>
  <path fill="none" stroke="#000" stroke-linecap="round" stroke-linejoin="round" stroke-miterlimit="10" stroke-width=".75" d="M138.75 17.6c-4.56 0-8.25 11.92-8.25 26.62s3.7 26.63 8.25 26.63 8.25-11.92 8.25-26.63-3.69-26.62-8.25-26.62m0 0"/>
  <path d="M69 44.1h3c.28 0 .5.22.5.5a.5.5 0 0 1-.5.5h-3a.5.5 0 0 1-.5-.5c0-.28.22-.5.5-.5m7 0h3c.28 0 .5.22.5.5a.5.5 0 0 1-.5.5h-3a.5.5 0 0 1-.5-.5c0-.28.22-.5.5-.5m7 0h3c.28 0 .5.22.5.5a.5.5 0 0 1-.5.5h-3a.5.5 0 0 1-.5-.5c0-.28.22-.5.5-.5m7 0h3c.28 0 .5.22.5.5a.5.5 0 0 1-.5.5h-3a.5.5 0 0 1-.5-.5c0-.28.22-.5.5-.5m7 0h3c.28 0 .5.22.5.5a.5.5 0 0 1-.5.5h-3a.5.5 0 0 1-.5-.5c0-.28.22-.5.5-.5m7 0h3c.28 0 .5.22.5.5a.5.5 0 0 1-.5.5h-3a.5.5 0 0 1-.5-.5c0-.28.22-.5.5-.5m7 0h3c.28 0 .5.22.5.5a.5.5 0 0 1-.5.5h-3a.5.5 0 0 1-.5-.5c0-.28.22-.5.5-.5m7 0h3c.28 0 .5.22.5.5a.5.5 0 0 1-.5.5h-3a.5.5 0 0 1-.5-.5c0-.28.22-.5.5-.5m7 0h3c.28 0 .5.22.5.5a.5.5 0 0 1-.5.5h-3a.5.5 0 0 1-.5-.5c0-.28.22-.5.5-.5m7 0h3c.28 0 .5.22.5.5a.5.5 0 0 1-.5.5h-3a.5.5 0 0 1-.5-.5c0-.28.22-.5.5-.5m7 0h3c.28 0 .5.22.5.5a.5.5 0 0 1-.5.5h-3a.5.5 0 0 1-.5-.5c0-.28.22-.5.5-.5m7 0h3c.28 0 .5.22.5.5a.5.5 0 0 1-.5.5h-3a.5.5 0 0 1-.5-.5c0-.28.22-.5.5-.5m7 0h.25c.28 0 .5.22.5.5a.5.5 0 0 1-.5.5H153a.5.5 0 0 1-.5-.5c0-.28.22-.5.5-.5m-.75-2.5 6 3-6 3"/>
  <path fill="none" stroke="#000" stroke-linecap="round" stroke-linejoin="round" stroke-miterlimit="10" stroke-width=".75" d="M88.97 35.35a21.6 21.6 0 0 1 2.38 9.85"/>
  <text x="97.27" y="41.5" font-family="Times New Roman" font-size="12">α</text>
</svg>
