<svg xmlns="http://www.w3.org/2000/svg" xmlns:xlink="http://www.w3.org/1999/xlink" width="200" height="150" viewBox="0 0 200 150">
  <defs>
    <path id="h" d="M2.98-3.44H.36v.8h2.62V0h.8v-2.64h2.63v-.8H3.78v-2.64h-.8Zm0 0"/>
    <path id="a" d="M7.19 0H.16l3.68-8.12ZM5.8-.48 3.47-6.14.89-.48Zm0 0"/>
    <path id="b" d="m4.83-1.33-.27.31c-.28.38-.42.49-.56.49q-.25 0-.36-.49c-.05-.14-.05-.15-.05-.2a14 14 0 0 1-.43-1.95c.54-.94.95-1.45 1.17-1.45q.13 0 .3.09c.14.1.21.1.32.1q.39-.02.4-.41c0-.27-.2-.46-.47-.46-.54 0-.97.44-1.82 1.72l-.14-.65c-.15-.82-.3-1.07-.62-1.07-.27 0-.66.1-1.4.36l-.13.05.04.17c.47-.12.56-.12.67-.12.3 0 .38.1.55.82l.35 1.47-.99 1.4c-.25.37-.48.59-.6.59a1 1 0 0 1-.32-.11 1 1 0 0 0-.4-.13.4.4 0 0 0-.4.43c0 .3.24.5.61.5C.64.13.8.02 1.4-.7c.33-.4.6-.75 1.08-1.4l.36 1.43c.15.62.31.8.7.8.45 0 .77-.29 1.45-1.36Zm0 0"/>
    <path id="f" d="M5.6-5.6 6.1-8h-.3c-.15.25-.26.31-.53.31-.16 0-.3-.04-.55-.14s-.65-.15-1.03-.15c-1.25 0-2.12.82-2.12 2 0 .64.17 1 .89 1.76l.47.5.47.5c.56.6.71.9.71 1.42 0 .9-.65 1.6-1.54 1.6-1 0-1.75-.86-1.75-2.03 0-.08 0-.13.03-.24L.6-2.5.2.19h.21q.11-.41.46-.4a2 2 0 0 1 .62.15c.55.2.88.28 1.25.28a2.36 2.36 0 0 0 2.42-2.4c0-.79-.26-1.24-1.36-2.35-1.08-1.08-1.18-1.25-1.18-1.84 0-.75.5-1.22 1.3-1.22q.72 0 1.09.43c.26.3.36.7.39 1.5Zm0 0"/>
    <path id="g" d="M7.6-7.84H1.21L.7-5.98l.22.04c.64-1.3 1.03-1.5 2.86-1.48L2.05-1.08c-.2.64-.47.83-1.27.9V0h3.49v-.19c-1.04-.1-1.08-.1-1.08-.56 0-.14.01-.27.14-.69l1.65-5.98h.68c.86 0 1.25.31 1.25.98q0 .24-.05.53l.2.04Zm0 0"/>
    <path id="i" d="M3.34.19a4 4 0 0 0 2.07-.55A5.8 5.8 0 0 0 8.39-5.2a2.67 2.67 0 0 0-2.73-2.78 4.7 4.7 0 0 0-3.02 1.34A5.6 5.6 0 0 0 .72-2.66c0 .99.36 1.8 1.01 2.32.32.25.57.37 1.1.48-1.1.97-1.2 1.06-2.13 1.7l.13.2q.67-.38 1.37-.38.36-.01 1.13.22 1.12.3 1.81.3c.67 0 1.5-.3 2.13-.77.28-.24.43-.4.75-.82L7.84.45c-.68.7-1.17.93-2.03.93-.36 0-.8-.08-1.48-.27A6 6 0 0 0 3 .86l-.3.02ZM5.58-7.6c.97 0 1.55.68 1.55 1.82A8 8 0 0 1 5.8-1.64Q4.82-.19 3.52-.2c-.99 0-1.54-.72-1.54-2 0-1.14.58-2.92 1.32-3.97.67-.97 1.4-1.42 2.28-1.42m0 0"/>
  </defs>
  <use xlink:href="#a" x="99.55" y="66.21"/>
  <use xlink:href="#b" x="106.9" y="66.21"/>
  <use xlink:href="#e" x="112.3" y="66.21"/>
  <path fill="#fff" fill-rule="evenodd" stroke="#000" stroke-linecap="round" stroke-miterlimit="8" stroke-width=".75" d="M82.5 109.3h42.75v-39.75H82.5Zm0 0"/>
  <path fill="#fff" fill-rule="evenodd" d="M82.88 69.55c-2.7 0-4.88 9.07-4.88 20.25s2.18 20.25 4.88 20.25 4.87-9.07 4.87-20.25-2.18-20.25-4.87-20.25"/>
  <path fill="none" stroke="#000" stroke-linecap="round" stroke-linejoin="round" stroke-miterlimit="8" stroke-width=".75" d="M82.88 69.55c-2.7 0-4.88 9.07-4.88 20.25s2.18 20.25 4.88 20.25 4.87-9.07 4.87-20.25-2.18-20.25-4.87-20.25m0 0"/>
  <path fill="#fff" fill-rule="evenodd" d="M125.12 69.55c-2.69 0-4.87 9.07-4.87 20.25s2.18 20.25 4.87 20.25c2.7 0 4.88-9.07 4.88-20.25s-2.18-20.25-4.88-20.25"/>
  <path fill="none" stroke="#000" stroke-linecap="round" stroke-linejoin="round" stroke-miterlimit="8" stroke-width=".75" d="M125.12 69.55c-2.69 0-4.87 9.07-4.87 20.25s2.18 20.25 4.87 20.25c2.7 0 4.88-9.07 4.88-20.25s-2.18-20.25-4.88-20.25m0 0"/>
  <path fill="#fff" fill-rule="evenodd" d="M112.5 108.55h12.75V70.3H112.5Zm0 0"/>
  <use xlink:href="#f" x="78.55" y="92.97"/>
  <use xlink:href="#e" x="84.55" y="92.97"/>
  <use xlink:href="#g" x="131.74" y="93.21"/>
  <use xlink:href="#e" x="138.46" y="93.21"/>
  <use xlink:href="#h" x="141.46" y="93.21"/>
  <use xlink:href="#a" x="148.18" y="93.21"/>
  <use xlink:href="#g" x="155.5" y="93.21"/>
  <use xlink:href="#e" x="162.22" y="93.21"/>
  <use xlink:href="#g" x="65.71" y="92.25"/>
  <use xlink:href="#e" x="72.43" y="92.25"/>
  <use xlink:href="#e" x="75.43" y="92.25"/>
  <use xlink:href="#i" x="102.55" y="103.53"/>
  <use xlink:href="#e" x="111.19" y="103.53"/>
  <use xlink:href="#e" x="114.22" y="103.53"/>
  <path d="M114 89.43h-13.12v-2.26H114Zm-12 2.25-6.75-3.38 6.75-3.37"/>
  <text x="155.02" y="114.33" font-family="Times New Roman" font-size="12">Фиг</text>
  <text x="175.89" y="114.33" font-family="Times New Roman" font-size="12">. 3.1</text>
</svg>
