<svg xmlns="http://www.w3.org/2000/svg" xmlns:xlink="http://www.w3.org/1999/xlink" width="612" height="792" viewBox="0 0 612 792">
  <defs>
    <path id="h" d="M2.98-3.44H.36v.8h2.62V0h.8v-2.64h2.63v-.8H3.78v-2.64h-.8Zm0 0"/>
    <path id="x" d="M.3-5.37h3.5v.23q-.6 0-.72.06t-.22.17-.1.8v1.08h.52q.97 0 1.49.17.5.16.8.52.27.34.27.84 0 .67-.56 1.1-.55.4-1.83.4H.98v-.22q.48 0 .65-.17.16-.18.17-.88v-3.71q-.7 0-1 .2t-.47.87H.08ZM2.77-.46q.32.08.64.08.66 0 .98-.35a1.1 1.1 0 0 0-.03-1.58 1.4 1.4 0 0 0-.99-.34l-.6.03Zm0 0"/>
    <path id="D" d="M.3-5.37h4.64l.23 1.45h-.26a2 2 0 0 0-.25-.67 1 1 0 0 0-.38-.32 2 2 0 0 0-.7-.07H3.1v3.71q0 .62.06.77.07.15.24.22.16.04.76.06V0H1.25v-.22q.56-.01.72-.17.17-.16.17-.88v-3.71h-.48q-.5 0-.7.06a1 1 0 0 0-.35.3q-.15.21-.28.7H.08Zm0 0"/>
    <path id="w" d="M3.78-2.84q1.47.3 1.47 1.39 0 .72-.6 1.1Q4.01 0 2.93 0H.28v-.22Q.8-.22.94-.4q.15-.2.14-.86V-4.1q0-.62-.06-.73a.5.5 0 0 0-.2-.2q-.14-.1-.54-.1v-.24h2.47q.71 0 1.16.13.45.1.73.44t.28.8q0 .9-1.14 1.17m-1.73-.13h.3q.82 0 1.17-.3t.36-.75q0-.5-.36-.73a2 2 0 0 0-1.16-.23h-.31Zm0 2.5q.3.1.7.1.7 0 1.03-.3.35-.3.35-.8a.9.9 0 0 0-.44-.83q-.45-.28-1.22-.28h-.42Zm0 0"/>
    <path id="E" d="M5.77 0h-1.6q-.73-1.08-1.33-2.2-.14-.26-.26-.38a.4.4 0 0 0-.3-.12h-.23v1.43q0 .6.06.75.07.17.25.24t.6.06V0H.25v-.22Q.8-.22.95-.4q.15-.18.14-.86V-4.1q0-.62-.06-.73a.5.5 0 0 0-.2-.2q-.14-.1-.55-.1v-.24h2.68v.24q-.48 0-.6.08a1 1 0 0 0-.2.17q-.1.09-.1.78v1.06h.18q.36 0 .68-.2.31-.2.56-.86.21-.6.36-.83.15-.21.42-.36.29-.14.56-.14.34 0 .52.16.18.15.19.4 0 .2-.14.35A.5.5 0 0 1 5-4.4q-.13 0-.33-.06-.23-.1-.37-.1-.27 0-.44.47-.2.54-.3.69-.09.16-.36.4.2.06.4.27t.8 1.24q.46.83.7 1.04.22.2.67.22Zm0 0"/>
    <path id="G" d="M3-5.53q1.21 0 1.95.94.63.78.63 1.8 0 .73-.35 1.46-.34.75-.95 1.13T2.94.17Q1.72.17 1.02-.8A3 3 0 0 1 .4-2.62q0-.76.36-1.47A2.5 2.5 0 0 1 3-5.53m-.19.39q-.3 0-.62.19a1.2 1.2 0 0 0-.5.64q-.2.46-.19 1.18 0 1.19.45 2.04.48.84 1.24.84.56 0 .94-.47t.37-1.6q0-1.45-.62-2.26a1.3 1.3 0 0 0-1.07-.56m0 0"/>
    <path id="A" d="M.08-5.37h2.5v.21h-.13q-.26 0-.4.13a.4.4 0 0 0-.13.28q0 .23.19.63l1.31 2.71 1.2-2.96q.1-.25.1-.49l-.03-.16a.3.3 0 0 0-.16-.09 1 1 0 0 0-.34-.05v-.21h1.75v.21a1 1 0 0 0-.35.11 1 1 0 0 0-.25.25q-.05.08-.2.46L2.95 1.02a2.7 2.7 0 0 1-.83 1.17q-.51.4-.98.4a1 1 0 0 1-.58-.2.6.6 0 0 1-.22-.45q0-.25.16-.4a.7.7 0 0 1 .45-.15q.19 0 .53.13.23.09.29.09.18 0 .39-.19.2-.18.42-.7l.37-.94-1.92-4.05-.28-.45Q.6-4.92.5-4.98a1 1 0 0 0-.42-.18Zm0 0"/>
    <path id="z" d="M1.1-5.37h4.74v.23q-.4 0-.53.08a1 1 0 0 0-.2.2q-.08.1-.08.75v2.66q0 .84.14 1.03t.67.2v1.7h-.21q-.04-.46-.25-.82a1.2 1.2 0 0 0-.6-.52A3 3 0 0 0 3.66 0H2.28q-.64 0-1.01.1a1.2 1.2 0 0 0-.61.5 2 2 0 0 0-.29.88H.17v-1.7q.48 0 .87-.37.39-.38.69-1.43t.3-2.09q0-.99-.91-1.03Zm1.3.39v.3q0 2.9-1.04 4.3h2q.52 0 .6-.09.1-.09.1-.67v-3.84Zm0 0"/>
    <path id="k" d="m2.05-1.66 2.33-2.68q-.03-.45-.18-.61-.16-.2-.54-.2v-.22h2.5v.23q-.4 0-.54.08a1 1 0 0 0-.21.2q-.07.1-.07.75v2.84q0 .63.07.75.05.12.2.2.14.1.55.1V0h-2.6v-.22q.48 0 .64-.17t.17-.88v-2.51L2.06-1.1q0 .5.14.68.15.2.56.2V0H.27v-.22q.52 0 .67-.19.15-.18.14-.86V-4.1q0-.62-.06-.73a.5.5 0 0 0-.2-.2q-.14-.1-.55-.1v-.24h2.59v.24q-.4 0-.53.08a1 1 0 0 0-.2.2q-.08.1-.08.75Zm0 0"/>
    <path id="y" d="M.5-3.69v-1.68h.23q.1.09.24.09.1 0 .44-.1.56-.15.9-.15.79 0 1.3.36t.52.95q0 .9-1.38 1.31 1.6.35 1.6 1.52 0 .6-.5 1.1-.53.46-1.5.46-.66 0-1.15-.23A4 4 0 0 1 .14-.84L.3-1a3 3 0 0 0 1.8.73q.5 0 .82-.32.3-.33.31-.86 0-1.17-1.5-1.25v-.33q.7 0 1.02-.38t.33-.8q0-.4-.28-.68a1 1 0 0 0-.7-.3q-1.05 0-1.4 1.5Zm0 0"/>
    <path id="F" d="M.92-5.37h4.8v.23q-.4 0-.53.08a1 1 0 0 0-.2.2q-.08.1-.08.75v2.84q0 .63.06.75.08.12.2.2.15.1.55.1V0H2.95v-.22q.45 0 .63-.05.17-.04.26-.21.1-.2.1-.79v-3.71H2.16v2.26q0 1.28-.13 1.8-.11.52-.45.76Q1.25.1.83.1.08.1.08-.53q0-.2.1-.34a.4.4 0 0 1 .32-.15q.2 0 .4.18.21.23.33.23.27 0 .38-.44.12-.45.12-1.56V-3.8q0-.9-.14-1.1-.12-.21-.67-.24Zm0 0"/>
    <path id="C" d="M4.94-2.05A3 3 0 0 1 4.08-.4a2 2 0 0 1-1.4.58 2.1 2.1 0 0 1-1.6-.76A3 3 0 0 1 .4-2.67q0-1.27.75-2.06.76-.8 1.8-.8.8 0 1.3.42.52.42.52.88 0 .21-.14.36t-.4.14q-.35 0-.52-.24-.11-.1-.14-.45-.04-.36-.24-.53a.8.8 0 0 0-.56-.2q-.6 0-.95.45-.47.58-.47 1.51 0 .98.47 1.7.47.74 1.28.74.58 0 1.03-.4.3-.26.63-.98Zm0 0"/>
    <path id="l" d="m4.63-5.37.21 1.46H4.6q-.22-.7-.45-.89-.22-.18-.95-.18H2.05v3.71q0 .63.06.75.08.12.2.2.15.1.55.1V0H.19v-.22Q.74-.23.9-.39t.17-.88V-4.1q0-.56-.06-.72a.4.4 0 0 0-.22-.23 2 2 0 0 0-.61-.08v-.24Zm0 0"/>
    <path id="m" d="M1.5-1.14q.28 0 .47.2t.19.46q0 .27-.2.46a.66.66 0 0 1-.92 0 .7.7 0 0 1-.2-.46.64.64 0 0 1 .66-.66m0 0"/>
    <path id="n" d="M.6-6.44q.36-.8.87-1.23.5-.45 1.3-.44.94 0 1.45.63.39.45.39.98 0 .88-1.1 1.8.75.28 1.12.8.37.55.37 1.27 0 1.05-.66 1.79-.84.98-2.46.98-.83 0-1.11-.2-.3-.21-.29-.42a.4.4 0 0 1 .15-.3q.14-.14.32-.14.15 0 .3.05.1.03.45.21.36.2.49.22.21.07.47.07.59 0 1.03-.46t.45-1.1q0-.45-.2-.9-.15-.33-.35-.5-.25-.23-.68-.42-.45-.19-.9-.19h-.18v-.19q.45-.05.92-.32.47-.29.67-.66.22-.4.22-.86 0-.6-.37-.97a1.3 1.3 0 0 0-.94-.37q-.93 0-1.53.97Zm0 0"/>
    <path id="o" d="m1.4-7.17 1.94-.94h.2v6.7q-.01.67.04.85.06.15.23.25.2.07.72.1V0H1.55v-.22q.56 0 .72-.1.16-.08.23-.23.06-.15.06-.86v-4.28q0-.87-.04-1.1a.5.5 0 0 0-.16-.29.4.4 0 0 0-.27-.1q-.21 0-.59.2Zm0 0"/>
    <path id="B" d="M.16-5.37h2.53v.21q-.25 0-.35.1a.3.3 0 0 0-.09.2q0 .14.2.44l.2.3.38.6.44-.6q.42-.58.42-.74 0-.12-.1-.2-.1-.1-.32-.1v-.21h1.81v.21q-.28.03-.5.16a5 5 0 0 0-.78.88l-.73.98L4.6-1.22q.48.7.69.85.21.13.56.15V0H3.33v-.22q.26 0 .4-.1.1-.09.11-.23t-.37-.67l-.78-1.15-.86 1.15q-.41.53-.4.63 0 .14.12.26.14.12.4.11V0H.2v-.22q.21 0 .36-.14.23-.17.75-.86l1.13-1.5L1.42-4.2q-.44-.63-.67-.78a1 1 0 0 0-.6-.18Zm0 0"/>
    <path id="s" d="M5.5-1.53 4.95 0H.27v-.22a22 22 0 0 0 2.9-3.08q.84-1.2.85-2.18 0-.75-.47-1.24-.45-.5-1.11-.5-.58 0-1.05.34-.47.36-.69 1.02H.48q.16-1.09.75-1.67.61-.58 1.52-.58.96 0 1.6.63.67.6.67 1.45 0 .6-.29 1.22-.44.93-1.4 2A35 35 0 0 1 1.5-.9h2.08q.63 0 .89-.05.25-.05.45-.19.22-.13.36-.4Zm0 0"/>
    <path id="j" d="M6.45 0H3.03v-.22q.68-.01.9-.17.24-.17.24-.72-1.97 0-2.84-.83a2.7 2.7 0 0 1-.88-2.08q0-.93.52-1.59.51-.66 1.26-.92.77-.25 1.94-.25 0-.5-.14-.66a1 1 0 0 0-.31-.22 3 3 0 0 0-.69-.07v-.22h3.42v.22q-.69.03-.9.21t-.25.74q1.26 0 1.98.28.73.27 1.25.9.52.65.52 1.58-.01 1.22-.86 2.07-.84.84-2.9.84.03.54.26.7.21.18.9.2ZM5.3-1.53q.87 0 1.37-.22.52-.24.85-.81.34-.6.34-1.46 0-.8-.34-1.37a1.7 1.7 0 0 0-.85-.77 4 4 0 0 0-1.37-.2Zm-1.13 0v-4.83q-.9 0-1.4.24-.5.22-.82.75-.32.52-.32 1.35 0 .93.39 1.54.38.6.9.78.53.17 1.25.17m0 0"/>
    <path id="b" d="M5.5-5.37h.97L5.7-2.7l-.23.8q.21.89.33 1.07.22.31.54.31.24 0 .43-.18.2-.2.26-.61h.24q-.09.84-.36 1.17t-.63.33a.9.9 0 0 1-.6-.28q-.28-.3-.5-1.22-.24.51-.5.78a2.2 2.2 0 0 1-1.66.72q-1.3 0-1.91-.86A3.3 3.3 0 0 1 .5-2.64q0-1.28.72-2.08a2.2 2.2 0 0 1 1.67-.81q.68 0 1.17.4.52.42.94 1.52Zm-.7 2.42q-.33-1.2-.83-1.67-.5-.5-1-.49-.58 0-.97.64a4 4 0 0 0-.37 2q0 .81.15 1.28.17.46.5.72t.7.25q.45 0 .83-.42.52-.57.99-2.31m0 0"/>
    <path id="c" d="M7.19 0H.16l3.68-8.12ZM5.8-.48 3.47-6.14.89-.48Zm0 0"/>
    <path id="d" d="m4.83-1.33-.27.31c-.28.38-.42.49-.56.49q-.25 0-.36-.49c-.05-.14-.05-.15-.05-.2a14 14 0 0 1-.43-1.95c.54-.94.95-1.45 1.17-1.45q.13 0 .3.09c.14.1.21.1.32.1q.39-.02.4-.41c0-.27-.2-.46-.47-.46-.54 0-.97.44-1.82 1.72l-.14-.65c-.15-.82-.3-1.07-.62-1.07-.27 0-.66.1-1.4.36l-.13.05.04.17c.47-.12.56-.12.67-.12.3 0 .38.1.55.82l.35 1.47-.99 1.4c-.25.37-.48.59-.6.59a1 1 0 0 1-.32-.11 1 1 0 0 0-.4-.13.4.4 0 0 0-.4.43c0 .3.24.5.61.5C.64.13.8.02 1.4-.7c.33-.4.6-.75 1.08-1.4l.36 1.43c.15.62.31.8.7.8.45 0 .77-.29 1.45-1.36Zm0 0"/>
    <path id="f" d="M5.6-5.6 6.1-8H5.8c-.15.25-.26.31-.53.31-.16 0-.3-.04-.55-.14s-.65-.15-1.03-.15c-1.25 0-2.12.82-2.12 2 0 .64.17 1 .89 1.76l.47.5.47.5c.56.6.71.9.71 1.42 0 .9-.65 1.6-1.54 1.6-1 0-1.75-.86-1.75-2.03 0-.08 0-.13.03-.24L.6-2.5.2.19h.21q.11-.41.46-.4c.14 0 .3.04.62.15.55.2.88.28 1.25.28a2.36 2.36 0 0 0 2.42-2.4c0-.79-.26-1.24-1.36-2.35-1.08-1.08-1.18-1.25-1.18-1.84 0-.75.5-1.22 1.3-1.22q.72 0 1.09.43c.26.3.36.7.39 1.5Zm0 0"/>
    <path id="g" d="M7.6-7.84H1.21L.7-5.98l.22.04c.64-1.3 1.03-1.5 2.86-1.48L2.05-1.08c-.2.64-.47.83-1.27.9V0h3.49v-.19c-1.04-.1-1.08-.1-1.08-.56 0-.14.01-.27.14-.69l1.65-5.98h.68c.86 0 1.25.31 1.25.98q0 .24-.05.53l.2.04Zm0 0"/>
    <path id="i" d="M3.34.19a4 4 0 0 0 2.07-.55A5.8 5.8 0 0 0 8.39-5.2c0-1.61-1.16-2.78-2.73-2.78-.97 0-2.07.48-3.02 1.34A5.6 5.6 0 0 0 .72-2.66c0 .99.36 1.8 1.01 2.32.32.25.57.37 1.1.48-1.1.97-1.2 1.06-2.13 1.7l.13.2q.67-.38 1.37-.38.36-.01 1.13.22c.73.2 1.36.3 1.81.3.67 0 1.5-.3 2.13-.77.28-.24.43-.4.75-.82L7.84.45c-.68.7-1.17.93-2.03.93-.36 0-.8-.08-1.48-.27A6 6 0 0 0 3 .86l-.3.02ZM5.58-7.6c.97 0 1.55.68 1.55 1.82 0 1.29-.57 3.04-1.33 4.14Q4.82-.19 3.52-.2c-.99 0-1.54-.72-1.54-2 0-1.14.58-2.92 1.32-3.97.67-.97 1.4-1.42 2.28-1.42m0 0"/>
    <path id="t" d="M5.56-1.33c-.67.75-.78.85-.98.85q-.2-.01-.22-.24c0-.19.37-1.6.78-2.95.27-.95.52-1.85 1.19-4.47l-.06-.06c-.63.14-1.07.2-1.85.28v.2c.67.03.75.06.75.31 0 .18-.01.2-.19.85L4.47-4.6c-.1-.5-.31-.7-.78-.7-1.56 0-3.5 2.26-3.5 4.06C.19-.4.66.13 1.44.13c.81 0 1.34-.38 2.15-1.58-.12.6-.15.8-.15 1.06 0 .33.2.55.51.55.5 0 1.14-.5 1.75-1.38ZM3.73-5.02q.54.04.54.7c0 1.8-1.24 3.88-2.35 3.88-.42 0-.7-.31-.7-.8 0-.98.6-2.38 1.39-3.23.34-.34.78-.58 1.12-.55m0 0"/>
    <path id="p" d="m5.56-1.31-.33.33c-.39.39-.51.5-.62.5q-.16-.02-.17-.16c0-.25.5-2.31 1.08-4.36l.06-.25-.08-.05-.73.1-.04.03-.14.58q-.15-.7-.95-.7C2.04-5.3.2-3.12.2-1.2.2-.36.66.13 1.42.13c.85 0 1.36-.4 2.42-1.88-.25.98-.28 1.08-.28 1.38q-.02.5.49.5c.48 0 .76-.24 1.67-1.33ZM3.7-5.03c.4.03.67.31.67.73 0 1.02-.6 2.42-1.42 3.32-.3.32-.7.53-1.04.53-.44 0-.7-.35-.7-.9 0-.67.45-1.88.98-2.63.47-.7 1.03-1.08 1.51-1.05m0 0"/>
    <path id="q" d="M1.31-7.72c.74.03.78.06.78.33 0 .1-.01.23-.1.51q-.04.12-.05.24l-.03.08L.28-.55v.05c0 .27.9.63 1.6.63 1.8 0 3.8-2.08 3.8-3.99 0-.83-.59-1.44-1.4-1.44-.84 0-1.47.5-2.31 1.82l1.25-4.66-.06-.06c-.61.1-.96.17-1.85.28Zm2.5 3.02c.53 0 .85.39.85 1.03 0 .8-.6 2.08-1.32 2.81a2 2 0 0 1-1.48.72q-.56 0-.55-.4c0-.73.36-1.88.86-2.79Q2.95-4.7 3.81-4.7m0 0"/>
    <path id="r" d="M4.2-1.27c-.65.7-1.12.97-1.72.97C1.8-.3 1.4-.8 1.4-1.67c0-1.02.42-2.1 1.1-2.8.34-.36.82-.58 1.3-.58.27 0 .44.11.44.25 0 .07-.01.11-.07.22a1 1 0 0 0-.1.36q.01.44.47.45c.33 0 .56-.23.56-.54 0-.58-.51-.99-1.25-.99C2.04-5.3.36-3.55.36-1.67c0 1.14.66 1.8 1.77 1.8.9 0 1.53-.36 2.26-1.29Zm0 0"/>
    <path id="v" d="m3.83-1.1-.11-.04c-.3.47-.4.51-.77.53H1.03l1.35-1.42C3.09-2.78 3.4-3.4 3.4-4.02c0-.8-.64-1.42-1.49-1.42-.44 0-.86.17-1.15.5-.27.27-.38.53-.52 1.1l.17.04c.31-.8.6-1.04 1.16-1.04.69 0 1.14.45 1.14 1.14 0 .62-.38 1.37-1.05 2.08L.23-.1V0h3.15Zm0 0"/>
    <path id="u" d="M1.23-2.66c.47 0 .66.02.85.1.5.19.81.62.81 1.19 0 .68-.45 1.2-1.05 1.2-.22 0-.39-.06-.68-.25-.24-.16-.38-.2-.5-.2q-.31 0-.32.28c0 .28.35.45.91.45.6 0 1.25-.2 1.64-.53q.58-.51.58-1.35 0-.64-.36-1.03a2 2 0 0 0-.66-.43c.55-.38.74-.68.74-1.11 0-.66-.5-1.1-1.25-1.1q-.6 0-1.05.4c-.23.23-.36.42-.53.9l.12.03c.32-.6.7-.84 1.2-.84.52 0 .88.34.88.86q0 .43-.33.78c-.23.23-.46.36-1.01.54Zm0 0"/>
    <clipPath id="a">
      <path d="M0 0h612v792H0z"/>
    </clipPath>
    <g id="H" clip-path="url(#a)">
      <path fill="#fff" fill-rule="evenodd" d="m367.15 144.95 71.25 27.75v-55.5"/>
      <path fill="none" stroke="#000" stroke-linecap="round" stroke-linejoin="round" stroke-miterlimit="10" stroke-width=".7512" d="m367.15 144.95 71.25 27.75v-55.5Zm0 0"/>
      <path fill="#fff" fill-rule="evenodd" d="M438.75 117.6c-4.56 0-8.25 11.92-8.25 26.62s3.7 26.63 8.25 26.63 8.25-11.92 8.25-26.63-3.69-26.62-8.25-26.62"/>
      <path fill="none" stroke="#000" stroke-linecap="round" stroke-linejoin="round" stroke-miterlimit="10" stroke-width=".7512" d="M438.75 117.6c-4.56 0-8.25 11.92-8.25 26.62s3.7 26.63 8.25 26.63 8.25-11.92 8.25-26.63-3.69-26.62-8.25-26.62m0 0"/>
      <path d="M369 144.1h3c.28 0 .5.22.5.5a.5.5 0 0 1-.5.5h-3a.5.5 0 0 1-.5-.5c0-.28.22-.5.5-.5m7 0h3c.28 0 .5.22.5.5a.5.5 0 0 1-.5.5h-3a.5.5 0 0 1-.5-.5c0-.28.22-.5.5-.5m7 0h3c.28 0 .5.22.5.5a.5.5 0 0 1-.5.5h-3a.5.5 0 0 1-.5-.5c0-.28.22-.5.5-.5m7 0h3c.28 0 .5.22.5.5a.5.5 0 0 1-.5.5h-3a.5.5 0 0 1-.5-.5c0-.28.22-.5.5-.5m7 0h3c.28 0 .5.22.5.5a.5.5 0 0 1-.5.5h-3a.5.5 0 0 1-.5-.5c0-.28.22-.5.5-.5m7 0h3c.28 0 .5.22.5.5a.5.5 0 0 1-.5.5h-3a.5.5 0 0 1-.5-.5c0-.28.22-.5.5-.5m7 0h3c.28 0 .5.22.5.5a.5.5 0 0 1-.5.5h-3a.5.5 0 0 1-.5-.5c0-.28.22-.5.5-.5m7 0h3c.28 0 .5.22.5.5a.5.5 0 0 1-.5.5h-3a.5.5 0 0 1-.5-.5c0-.28.22-.5.5-.5m7 0h3c.28 0 .5.22.5.5a.5.5 0 0 1-.5.5h-3a.5.5 0 0 1-.5-.5c0-.28.22-.5.5-.5m7 0h3c.28 0 .5.22.5.5a.5.5 0 0 1-.5.5h-3a.5.5 0 0 1-.5-.5c0-.28.22-.5.5-.5m7 0h3c.28 0 .5.22.5.5a.5.5 0 0 1-.5.5h-3a.5.5 0 0 1-.5-.5c0-.28.22-.5.5-.5m7 0h3c.28 0 .5.22.5.5a.5.5 0 0 1-.5.5h-3a.5.5 0 0 1-.5-.5c0-.28.22-.5.5-.5m7 0h.25c.28 0 .5.22.5.5a.5.5 0 0 1-.5.5H453a.5.5 0 0 1-.5-.5c0-.28.22-.5.5-.5m-.75-2.5 6 3-6 3"/>
      <path fill="none" stroke="#000" stroke-linecap="round" stroke-linejoin="round" stroke-miterlimit="10" stroke-width=".7512" d="M388.97 135.35a21.6 21.6 0 0 1 2.38 9.85"/>
      <use xlink:href="#b" x="397.27" y="141.5"/>
      <use xlink:href="#c" x="399.55" y="266.21"/>
      <use xlink:href="#d" x="406.9" y="266.21"/>
      <use xlink:href="#e" x="412.3" y="266.21"/>
      <path fill="#fff" fill-rule="evenodd" stroke="#000" stroke-linecap="round" stroke-miterlimit="8" stroke-width=".7512" d="M382.5 309.3h42.75v-39.75H382.5Zm0 0"/>
      <path fill="#fff" fill-rule="evenodd" d="M382.88 269.55c-2.7 0-4.88 9.07-4.88 20.25s2.18 20.25 4.88 20.25 4.87-9.07 4.87-20.25-2.18-20.25-4.87-20.25"/>
      <path fill="none" stroke="#000" stroke-linecap="round" stroke-linejoin="round" stroke-miterlimit="8" stroke-width=".7512" d="M382.88 269.55c-2.7 0-4.88 9.07-4.88 20.25s2.18 20.25 4.88 20.25 4.87-9.07 4.87-20.25-2.18-20.25-4.87-20.25m0 0"/>
      <path fill="#fff" fill-rule="evenodd" d="M425.12 269.55c-2.69 0-4.87 9.07-4.87 20.25s2.18 20.25 4.87 20.25c2.7 0 4.88-9.07 4.88-20.25s-2.18-20.25-4.88-20.25"/>
      <path fill="none" stroke="#000" stroke-linecap="round" stroke-linejoin="round" stroke-miterlimit="8" stroke-width=".7512" d="M425.12 269.55c-2.69 0-4.87 9.07-4.87 20.25s2.18 20.25 4.87 20.25c2.7 0 4.88-9.07 4.88-20.25s-2.18-20.25-4.88-20.25m0 0"/>
      <path fill="#fff" fill-rule="evenodd" d="M412.5 308.55h12.75V270.3H412.5Zm0 0"/>
      <use xlink:href="#f" x="378.55" y="292.97"/>
      <use xlink:href="#e" x="384.55" y="292.97"/>
      <use xlink:href="#g" x="431.74" y="293.21"/>
      <use xlink:href="#e" x="438.46" y="293.21"/>
      <use xlink:href="#h" x="441.46" y="293.21"/>
      <use xlink:href="#c" x="448.18" y="293.21"/>
      <use xlink:href="#g" x="455.5" y="293.21"/>
      <use xlink:href="#e" x="462.22" y="293.21"/>
      <use xlink:href="#g" x="365.71" y="292.25"/>
      <use xlink:href="#e" x="372.43" y="292.25"/>
      <use xlink:href="#e" x="375.43" y="292.25"/>
      <use xlink:href="#i" x="402.55" y="303.53"/>
      <use xlink:href="#e" x="411.19" y="303.53"/>
      <use xlink:href="#e" x="414.22" y="303.53"/>
      <path d="M414 289.43h-13.12v-2.26H414Zm-12 2.25-6.75-3.38 6.75-3.37"/>
      <use xlink:href="#j" x="455.02" y="314.33"/>
      <use xlink:href="#k" x="464.5" y="314.33"/>
      <use xlink:href="#l" x="470.97" y="314.33"/>
      <use xlink:href="#m" x="475.89" y="314.33"/>
      <use xlink:href="#n" x="481.89" y="314.33"/>
      <use xlink:href="#m" x="487.89" y="314.33"/>
      <use xlink:href="#o" x="490.89" y="314.33"/>
      <path fill="#fff" fill-rule="evenodd" stroke="#000" stroke-linecap="round" stroke-miterlimit="8" stroke-width=".7512" d="M294 714.75h113.4V629.7H294Zm0 0"/>
      <path fill="#fff" fill-rule="evenodd" stroke="#000" stroke-linecap="round" stroke-miterlimit="8" stroke-width=".7512" d="M329.25 690.95h42.5v-42.5h-42.5Zm0 0"/>
      <use xlink:href="#p" x="339.55" y="723.46"/>
      <use xlink:href="#e" x="345.55" y="723.46"/>
      <use xlink:href="#q" x="283.97" y="673.18"/>
      <use xlink:href="#e" x="289.99" y="673.18"/>
      <use xlink:href="#r" x="317.71" y="671.74"/>
      <use xlink:href="#e" x="322.99" y="671.74"/>
      <use xlink:href="#j" x="283.97" y="729.1"/>
      <use xlink:href="#k" x="293.45" y="729.1"/>
      <use xlink:href="#l" x="299.92" y="729.1"/>
      <use xlink:href="#m" x="304.84" y="729.1"/>
      <use xlink:href="#n" x="310.84" y="729.1"/>
      <use xlink:href="#m" x="316.84" y="729.1"/>
      <use xlink:href="#s" x="319.84" y="729.1"/>
      <path fill="#fff" fill-rule="evenodd" stroke="#000" stroke-linecap="round" stroke-miterlimit="8" stroke-width=".7512" d="M449.65 690.45h7.15v-51h-7.15ZM503.65 691.2h7.15v-51h-7.15Zm0 0"/>
      <path d="M458.4 678.7h43.25c.28 0 .5.22.5.5a.5.5 0 0 1-.5.5H458.4a.5.5 0 0 1-.5-.5c0-.28.22-.5.5-.5m5.75 4.43-6.74-3.93 6.74-3.93a.5.5 0 0 1 .68.18c.14.24.06.54-.18.68l-6 3.5v-.86l6 3.5c.24.14.32.44.18.68a.5.5 0 0 1-.68.18m31.75-7.86 6.74 3.93-6.74 3.93a.5.5 0 0 1-.68-.18.5.5 0 0 1 .18-.68l6-3.5v.86l-6-3.5a.5.5 0 0 1-.18-.68.5.5 0 0 1 .68-.18"/>
      <use xlink:href="#t" x="471.94" y="692.74"/>
      <use xlink:href="#u" x="477.94" y="694.3"/>
      <use xlink:href="#t" x="445.66" y="703.06"/>
      <use xlink:href="#v" x="451.66" y="704.62"/>
      <use xlink:href="#t" x="501.94" y="703.78"/>
      <use xlink:href="#v" x="507.94" y="705.34"/>
      <use xlink:href="#w" x="463.66" y="665.74"/>
      <use xlink:href="#x" x="469.32" y="665.74"/>
      <use xlink:href="#y" x="475.53" y="665.74"/>
      <use xlink:href="#z" x="480.33" y="665.74"/>
      <use xlink:href="#A" x="486.56" y="665.74"/>
      <use xlink:href="#B" x="492.2" y="665.74"/>
      <use xlink:href="#C" x="462.22" y="629.74"/>
      <use xlink:href="#D" x="467.5" y="629.74"/>
      <use xlink:href="#x" x="472.74" y="629.74"/>
      <use xlink:href="#E" x="479.01" y="629.74"/>
      <use xlink:href="#F" x="484.88" y="629.74"/>
      <use xlink:href="#G" x="490.86" y="629.74"/>
      <path fill="none" stroke="#000" stroke-linecap="round" stroke-linejoin="round" stroke-miterlimit="8" stroke-width=".7512" d="m472.15 640.2-20.25 19.5M487.15 637.95l21 19.5"/>
      <use xlink:href="#j" x="459.94" y="716.38"/>
      <use xlink:href="#k" x="469.42" y="716.38"/>
      <use xlink:href="#l" x="475.89" y="716.38"/>
      <use xlink:href="#m" x="480.81" y="716.38"/>
      <use xlink:href="#n" x="486.81" y="716.38"/>
      <use xlink:href="#m" x="492.81" y="716.38"/>
      <use xlink:href="#n" x="495.81" y="716.38"/>
    </g>
  </defs>
  <use xlink:href="#H"/>
</svg>
