<svg xmlns="http://www.w3.org/2000/svg" xmlns:xlink="http://www.w3.org/1999/xlink" width="612" height="150" viewBox="0 0 612 150">
  <defs>
    <path id="n" d="M3.05-8.1c-.66 0-1.16.18-1.61.62C.75-6.81.28-5.44.28-4.03c0 1.31.4 2.72.97 3.39q.68.8 1.75.81.9 0 1.56-.62c.69-.66 1.16-2.07 1.16-3.5 0-2.47-1.1-4.16-2.67-4.16m-.03.3c1 0 1.54 1.36 1.54 3.86Q4.56-.15 3-.14 1.45-.16 1.44-3.92q.01-3.86 1.58-3.88m0 0"/>
    <path id="p" d="M5.72-5.4H4.06v.18q.57.05.57.38-.01.18-.08.37l-1.2 3.1-1.2-3.07q-.13-.27-.12-.45c0-.2.13-.3.55-.33v-.19H.23v.2c.46 0 .54.13 1.08 1.37L2.77-.4q.02.1.09.25.04.15.1.23.04.08.12.08c.06 0 .15-.15.33-.6l1.53-3.85c.36-.81.42-.9.78-.94Zm0 0"/>
    <path id="g" d="m2.05-1.66 2.33-2.68q-.03-.45-.18-.61-.16-.2-.54-.2v-.22h2.5v.23q-.4 0-.54.08a1 1 0 0 0-.21.2q-.07.1-.07.75v2.84q0 .63.07.75.05.12.2.2.14.1.55.1V0h-2.6v-.22q.48 0 .64-.17t.17-.88v-2.51L2.06-1.1q0 .5.14.68.15.2.56.2V0H.27v-.22q.52 0 .67-.19.15-.18.14-.86V-4.1q0-.62-.06-.73a.5.5 0 0 0-.2-.2q-.14-.1-.55-.1v-.24h2.59v.24q-.4 0-.53.08a1 1 0 0 0-.2.2q-.08.1-.08.75Zm0 0"/>
    <path id="h" d="m4.63-5.37.21 1.46H4.6q-.22-.7-.45-.89-.22-.18-.95-.18H2.05v3.71q0 .63.06.75.08.12.2.2.15.1.55.1V0H.19v-.22Q.74-.23.9-.39t.17-.88V-4.1q0-.56-.06-.72a.4.4 0 0 0-.22-.23 2 2 0 0 0-.61-.08v-.24Zm0 0"/>
    <path id="i" d="M1.5-1.14q.28 0 .47.2t.19.46-.2.46a.66.66 0 0 1-.92 0 .7.7 0 0 1-.2-.46.64.64 0 0 1 .66-.66m0 0"/>
    <path id="j" d="M5.5-1.53 4.95 0H.27v-.22a22 22 0 0 0 2.9-3.08q.84-1.2.85-2.18 0-.75-.47-1.24-.45-.5-1.11-.5-.58 0-1.05.34-.47.36-.69 1.02H.48q.16-1.09.75-1.67.61-.58 1.52-.58.96 0 1.6.63.67.6.67 1.45 0 .6-.29 1.22-.44.93-1.4 2A35 35 0 0 1 1.5-.9h2.08q.63 0 .89-.05.25-.05.45-.19.22-.13.36-.4Zm0 0"/>
    <path id="k" d="m1.4-7.17 1.94-.94h.2v6.7q-.01.67.04.85.06.15.23.25.2.07.72.1V0H1.55v-.22q.56 0 .72-.1.16-.08.23-.23.06-.15.06-.86v-4.28q0-.87-.04-1.1a.5.5 0 0 0-.16-.29.4.4 0 0 0-.27-.1q-.21 0-.59.2Zm0 0"/>
    <path id="f" d="M6.45 0H3.03v-.22q.68-.01.9-.17.24-.17.24-.72-1.97 0-2.84-.83a2.7 2.7 0 0 1-.88-2.08q0-.93.52-1.59.51-.66 1.26-.92.77-.25 1.94-.25 0-.5-.14-.66a1 1 0 0 0-.31-.22 3 3 0 0 0-.69-.07v-.22h3.42v.22q-.69.03-.9.21t-.25.74q1.26 0 1.98.28.73.27 1.25.9.52.65.52 1.58-.01 1.22-.86 2.07-.84.84-2.9.84.03.54.26.7.21.18.9.2ZM5.3-1.53q.87 0 1.37-.22.52-.24.85-.81.34-.6.34-1.46 0-.8-.34-1.37a1.7 1.7 0 0 0-.85-.77 4 4 0 0 0-1.37-.2Zm-1.13 0v-4.83q-.9 0-1.4.24-.5.22-.82.75-.32.52-.32 1.35 0 .93.39 1.54.38.6.9.78.53.17 1.25.17m0 0"/>
    <path id="q" d="M5.66-4.86h-.72q-.06 0-.2-.1a2 2 0 0 0-1.18-.34c-1.33 0-2.4.92-2.4 2.07 0 .62.25.98.93 1.3-.7.46-.92.71-.92 1q0 .22.33.46C.31.31.1.55.1 1.11c0 .83.8 1.36 2 1.36 1.5 0 2.53-.7 2.53-1.75Q4.63-.4 2.9-.86c-.54-.14-.85-.33-.85-.51s.28-.49.44-.49l.08.02.37.03c1.11 0 2.22-.97 2.22-1.9q0-.3-.1-.68h.59ZM1.78-.34l.06.03.35.1C3.47.2 3.9.54 3.9 1.09c0 .65-.7 1.12-1.63 1.12C1.31 2.2.75 1.75.75.98q0-.4.27-.71c.17-.22.67-.61.76-.61m1.77-4.7q.67 0 .67.87c0 .42-.14.94-.36 1.36q-.42.73-1.05.75c-.45 0-.72-.35-.72-.9 0-1.1.68-2.07 1.46-2.07m0 0"/>
    <path id="c" d="M5.6-5.6 6.1-8h-.3c-.15.25-.26.31-.53.31-.16 0-.3-.04-.55-.14s-.65-.15-1.03-.15c-1.25 0-2.12.82-2.12 2 0 .64.17 1 .89 1.76l.47.5.47.5c.56.6.71.9.71 1.42 0 .9-.65 1.6-1.54 1.6-1 0-1.75-.86-1.75-2.03 0-.08 0-.13.03-.24L.6-2.5.2.19h.21q.11-.41.46-.4a2 2 0 0 1 .62.15c.55.2.88.28 1.25.28a2.36 2.36 0 0 0 2.42-2.4c0-.79-.26-1.24-1.36-2.35-1.08-1.08-1.18-1.25-1.18-1.84 0-.75.5-1.22 1.3-1.22q.72 0 1.09.43c.26.3.36.7.39 1.5Zm0 0"/>
    <path id="o" d="M.97-3.7c.25-.6.42-.72.97-.72H3.7L-.03.05l.1.1q.3-.22.55-.21c.32 0 .7.15 1.27.5.6.37.99.53 1.34.53.6 0 1.13-.42 1.13-.9 0-.27-.17-.44-.42-.44q-.38.02-.4.39-.01.13.1.34.05.12.06.19c0 .1-.14.17-.33.17-.3 0-.45-.11-.84-.6-.53-.68-.75-.84-1.45-1L4.56-5v-.14h-3.4L.78-3.75Zm0 0"/>
    <path id="m" d="m5.56-1.31-.33.33c-.39.39-.51.5-.62.5q-.16-.02-.17-.16c0-.25.5-2.31 1.08-4.36l.06-.25-.08-.05-.73.1-.04.03-.14.58q-.15-.7-.95-.7C2.04-5.3.2-3.12.2-1.2.2-.36.66.13 1.42.13c.85 0 1.36-.4 2.42-1.88-.25.98-.28 1.08-.28 1.38q-.02.5.49.5c.48 0 .76-.24 1.67-1.33ZM3.7-5.03c.4.03.67.31.67.73 0 1.02-.6 2.42-1.42 3.32-.3.32-.7.53-1.04.53-.44 0-.7-.35-.7-.9 0-.67.45-1.88.98-2.63.47-.7 1.03-1.08 1.51-1.05m0 0"/>
    <path id="s" d="M6.8-.19c-.52-.04-.77-.25-.99-.87L4.7-4c.92-.2 1.33-.37 1.75-.75q.61-.52.62-1.36c0-1.1-.89-1.73-2.5-1.73H1.58v.2c.51.06.56.08.69.17.09.05.17.2.17.33 0 .14-.06.44-.14.75L.8-1.08c-.22.7-.3.78-.97.9V0h2.93v-.19c-.74-.1-.82-.15-.82-.56 0-.12.03-.25.14-.69l.68-2.51.78.06L5.03 0H6.8ZM3.7-7.14c.07-.25.22-.33.61-.33q1.49 0 1.49 1.34-.01 1.8-2.27 1.8c-.22 0-.31-.01-.6-.06Zm0 0"/>
    <path id="e" d="M4.3-1.31c-.86.72-1.24.9-1.77.9-.67 0-1.1-.43-1.1-1.09 0-.19 0-.34.1-.73l.35-.05c1.8-.25 3.06-1.16 3.06-2.19 0-.51-.36-.83-.96-.83-1.73 0-3.6 1.97-3.6 3.78 0 .97.64 1.65 1.57 1.65a3.5 3.5 0 0 0 2.49-1.29ZM1.83-3.03c.4-1.06 1.3-1.99 1.9-1.99.25 0 .43.18.43.47 0 .38-.24.8-.61 1.16-.44.42-.9.64-1.92.89Zm0 0"/>
    <path id="r" d="M3.28-1.31c-.39.6-.73.84-1.25.84q-.68 0-1.03-.7a2.4 2.4 0 0 1-.22-1.06h2.49a2 2 0 0 0-.36-1.02 1.3 1.3 0 0 0-1.02-.45q-.61 0-1.1.42c-.37.33-.59.9-.59 1.56C.2-.6.78.08 1.7.08c.77 0 1.38-.47 1.7-1.35ZM.8-2.48c.1-.63.36-.93.86-.93.48 0 .67.22.78.93Zm0 0"/>
    <clipPath id="a">
      <path d="M212 46h7v8.82h-7Zm0 0"/>
    </clipPath>
  </defs>
  <path fill="#fff" fill-rule="evenodd" stroke="#000" stroke-linecap="round" stroke-linejoin="round" stroke-miterlimit="10" stroke-width=".75" d="m187.25 35.55-68 28.05h119l68-28.05Zm0 37.4-68 28.05h119l68-28.05Zm0 0"/>
  <path fill="none" stroke="#000" stroke-dasharray="2.25 3" stroke-linecap="round" stroke-linejoin="round" stroke-miterlimit="10" stroke-width=".75" d="M217.8 63.6c-23.45 0-42.45 4.94-42.45 11.03s19 11.02 42.45 11.02 42.45-4.94 42.45-11.02c0-6.1-19-11.03-42.45-11.03m0 0"/>
  <path fill-rule="evenodd" d="M197.13 80.4a4.67 4.67 0 1 0-.01 9.34 4.67 4.67 0 0 0 0-9.34"/>
  <path fill="none" stroke="#000" stroke-linecap="round" stroke-linejoin="round" stroke-miterlimit="10" stroke-width=".75" d="M197.13 80.4a4.67 4.67 0 1 0-.01 9.34 4.67 4.67 0 0 0 0-9.34m0 0"/>
  <path d="M152.5 89.4v-21.25c0-.28.22-.5.5-.5s.5.22.5.5v21.25a.5.5 0 0 1-.5.5.5.5 0 0 1-.5-.5m3.5-1-3 6-3-6m18.25-5.75V61.4c0-.28.22-.5.5-.5s.5.22.5.5v21.25a.5.5 0 0 1-.5.5.5.5 0 0 1-.5-.5m3.5-1-3 6-3-6m16-5V55.4c0-.28.22-.5.5-.5s.5.22.5.5v21.25a.5.5 0 0 1-.5.5.5.5 0 0 1-.5-.5m3.5-1-3 6-3-6"/>
  <path fill="silver" fill-rule="evenodd" d="M220.05 38.1c-23.45 0-42.45 4.94-42.45 11.02 0 6.1 19 11.03 42.45 11.03s42.45-4.94 42.45-11.03-19-11.02-42.45-11.02"/>
  <path fill="none" stroke="#000" stroke-dasharray="2.25 3" stroke-linecap="round" stroke-linejoin="round" stroke-miterlimit="10" stroke-width=".75" d="M220.05 38.1c-23.45 0-42.45 4.94-42.45 11.02 0 6.1 19 11.03 42.45 11.03s42.45-4.94 42.45-11.03-19-11.02-42.45-11.02m0 0"/>
  <path d="M195 82.9h-5.5a.5.5 0 0 1-.5-.5c0-.28.22-.5.5-.5h5.5c.28 0 .5.22.5.5a.5.5 0 0 1-.5.5m-4.5 2.5-6-3 6-3"/>
  <g clip-path="url(#a)">
    <use xlink:href="#c" x="211.97" y="54.94"/>
    <use xlink:href="#d" x="217.97" y="54.94"/>
  </g>
  <use xlink:href="#e" x="185.69" y="95.38"/>
  <use xlink:href="#d" x="190.97" y="95.38"/>
  <use xlink:href="#f" x="168.5" y="113.14"/>
  <use xlink:href="#g" x="177.98" y="113.14"/>
  <use xlink:href="#h" x="184.45" y="113.14"/>
  <use xlink:href="#i" x="189.37" y="113.14"/>
  <use xlink:href="#j" x="195.37" y="113.14"/>
  <use xlink:href="#i" x="201.37" y="113.14"/>
  <use xlink:href="#k" x="204.37" y="113.14"/>
  <use xlink:href="#l" x="210.41" y="113.14"/>
  <use xlink:href="#m" x="428.74" y="53.38"/>
  <use xlink:href="#d" x="434.74" y="53.38"/>
  <path fill="none" stroke="#000" stroke-linecap="round" stroke-linejoin="round" stroke-miterlimit="10" stroke-width="2.25" d="M429.75 29.9c-9.53 0-17.25 16.12-17.25 36s7.72 36 17.25 36 17.25-16.12 17.25-36-7.72-36-17.25-36m0 0"/>
  <path d="M309 67.65h220c.28 0 .5.22.5.5a.5.5 0 0 1-.5.5H309a.5.5 0 0 1-.5-.5c0-.28.22-.5.5-.5m219-2.5 6 3-6 3"/>
  <path fill-rule="evenodd" d="M320.63 64.4a3.38 3.38 0 1 0 0 6.75 3.38 3.38 0 0 0 0-6.75"/>
  <path fill="none" stroke="#000" stroke-linecap="round" stroke-linejoin="round" stroke-miterlimit="10" stroke-width=".75" d="M320.63 64.4a3.38 3.38 0 1 0 0 6.75 3.38 3.38 0 0 0 0-6.75m0 0"/>
  <path d="M322.5 67.03h17.63v2.25H322.5Zm16.5-2.25 6.75 3.37-6.75 3.38"/>
  <path fill="#fff" fill-rule="evenodd" d="M429.27 66.65a1.77 1.77 0 1 0 0 3.55 1.77 1.77 0 0 0 0-3.55"/>
  <path fill="none" stroke="#000" stroke-linecap="round" stroke-linejoin="round" stroke-miterlimit="10" stroke-width=".75" d="M429.27 66.65a1.77 1.77 0 1 0 0 3.55 1.77 1.77 0 0 0 0-3.55m0 0"/>
  <use xlink:href="#n" x="426.58" y="81.94"/>
  <use xlink:href="#l" x="432.58" y="81.94"/>
  <use xlink:href="#o" x="519.58" y="81.94"/>
  <use xlink:href="#d" x="524.28" y="81.94"/>
  <use xlink:href="#p" x="332.71" y="62.38"/>
  <use xlink:href="#l" x="338.71" y="62.38"/>
  <use xlink:href="#q" x="314.71" y="80.14"/>
  <use xlink:href="#r" x="320.71" y="81.7"/>
  <path d="m427.28 63.43-5.78-22.56a.5.5 0 0 1 .37-.6c.26-.08.54.08.6.35l5.78 22.56a.5.5 0 0 1-.37.6.5.5 0 0 1-.6-.35m3.14-1.84-1.42 6.56-4.4-5.07Zm-11.09-19.13 1.42-6.56 4.4 5.07"/>
  <use xlink:href="#s" x="444.58" y="39.94"/>
  <use xlink:href="#d" x="451.9" y="39.94"/>
  <use xlink:href="#f" x="406.3" y="116.74"/>
  <use xlink:href="#g" x="415.78" y="116.74"/>
  <use xlink:href="#h" x="422.25" y="116.74"/>
  <use xlink:href="#i" x="427.17" y="116.74"/>
  <use xlink:href="#j" x="433.17" y="116.74"/>
  <use xlink:href="#i" x="439.17" y="116.74"/>
  <use xlink:href="#j" x="442.17" y="116.74"/>
  <use xlink:href="#l" x="448.18" y="116.74"/>
</svg>
