<svg xmlns="http://www.w3.org/2000/svg" xmlns:xlink="http://www.w3.org/1999/xlink" width="550" height="300" viewBox="0 0 550 300">
  <defs>
    <path id="g" d="M3.05-8.1c-.66 0-1.16.18-1.61.62C.75-6.81.28-5.44.28-4.03c0 1.31.4 2.72.97 3.39q.68.8 1.75.81.9 0 1.56-.62c.69-.66 1.16-2.07 1.16-3.5 0-2.47-1.1-4.16-2.67-4.16m-.03.3c1 0 1.54 1.36 1.54 3.86Q4.56-.15 3-.14 1.45-.16 1.44-3.92c0-2.56.54-3.88 1.58-3.88m0 0"/>
    <path id="j" d="m2.05-1.66 2.33-2.68q-.03-.45-.18-.61-.16-.2-.54-.2v-.22h2.5v.23q-.4 0-.54.08a1 1 0 0 0-.21.2q-.07.1-.07.75v2.84q0 .63.07.75.05.12.2.2.14.1.55.1V0h-2.6v-.22q.48 0 .64-.17t.17-.88v-2.51L2.06-1.1q0 .5.14.68.15.2.56.2V0H.27v-.22q.52 0 .67-.19.15-.18.14-.86V-4.1q0-.62-.06-.73a.5.5 0 0 0-.2-.2q-.14-.1-.55-.1v-.24h2.59v.24q-.4 0-.53.08a1 1 0 0 0-.2.2q-.08.1-.08.75Zm0 0"/>
    <path id="k" d="m4.63-5.37.21 1.46H4.6q-.22-.7-.45-.89-.22-.18-.95-.18H2.05v3.71q0 .63.06.75.08.12.2.2.15.1.55.1V0H.19v-.22Q.74-.23.9-.39t.17-.88V-4.1q0-.56-.06-.72a.4.4 0 0 0-.22-.23 2 2 0 0 0-.61-.08v-.24Zm0 0"/>
    <path id="l" d="M1.5-1.14q.28 0 .47.2t.19.46q0 .27-.2.46a.66.66 0 0 1-.92 0 .7.7 0 0 1-.2-.46.64.64 0 0 1 .66-.66m0 0"/>
    <path id="m" d="m1.4-7.17 1.94-.94h.2v6.7q-.01.67.04.85.06.15.23.25.2.07.72.1V0H1.55v-.22q.56 0 .72-.1.16-.08.23-.23.06-.15.06-.86v-4.28q0-.87-.04-1.1a.5.5 0 0 0-.16-.29.4.4 0 0 0-.27-.1q-.21 0-.59.2Zm0 0"/>
    <path id="i" d="M6.45 0H3.03v-.22q.68-.01.9-.17.24-.17.24-.72-1.97 0-2.84-.83a2.7 2.7 0 0 1-.88-2.08q0-.93.52-1.59.51-.66 1.26-.92.77-.25 1.94-.25 0-.5-.14-.66a1 1 0 0 0-.31-.22 3 3 0 0 0-.69-.07v-.22h3.42v.22q-.69.03-.9.21t-.25.74q1.26 0 1.98.28.73.27 1.25.9.52.65.52 1.58-.01 1.22-.86 2.07-.84.84-2.9.84.03.54.26.7.21.18.9.2ZM5.3-1.53q.87 0 1.37-.22.52-.24.85-.81.34-.6.34-1.46 0-.8-.34-1.37a1.7 1.7 0 0 0-.85-.77 4 4 0 0 0-1.37-.2Zm-1.13 0v-4.83q-.9 0-1.4.24-.5.22-.82.75-.32.52-.32 1.35 0 .93.39 1.54.38.6.9.78.53.17 1.25.17m0 0"/>
    <path id="d" d="M4.84-7.84H1.56v.2c.75.06.92.17.92.51q0 .27-.12.74L.88-1.08c-.22.69-.3.77-.97.9V0H6l.7-2.14-.24-.08C6.05-1.36 5.72-.97 5.2-.7c-.42.2-.92.26-1.97.26-.9 0-1.2-.1-1.2-.4 0-.1.05-.35.11-.6l1.49-5.31c.17-.62.48-.84 1.21-.9Zm0 0"/>
    <path id="h" d="M6.77-.19c-.7-.06-.75-.15-.91-1.03l-1.13-6.8h-.3l-3.5 6C-.01-.42-.12-.28-.6-.19V0h2.24v-.19C1.02-.25.93-.3.93-.6c0-.23.02-.34.23-.75l.68-1.36h2.64l.25 1.58.02.31c0 .45-.17.56-.94.64V0h2.96ZM2.09-3.14l1.82-3.13.51 3.13Zm0 0"/>
    <path id="f" d="m4.83-1.33-.27.31c-.28.38-.42.49-.56.49q-.25 0-.36-.49c-.05-.14-.05-.15-.05-.2a14 14 0 0 1-.43-1.95c.54-.94.95-1.45 1.17-1.45q.13 0 .3.09c.14.1.21.1.32.1q.39-.02.4-.41c0-.27-.2-.46-.47-.46-.54 0-.97.44-1.82 1.72l-.14-.65c-.15-.82-.3-1.07-.62-1.07-.27 0-.66.1-1.4.36l-.13.05.04.17c.47-.12.56-.12.67-.12.3 0 .38.1.55.82l.35 1.47-.99 1.4c-.25.37-.48.59-.6.59a1 1 0 0 1-.32-.11 1 1 0 0 0-.4-.13.4.4 0 0 0-.4.43c0 .3.24.5.61.5C.64.13.8.02 1.4-.7c.33-.4.6-.75 1.08-1.4l.36 1.43c.15.62.31.8.7.8.45 0 .77-.29 1.45-1.36Zm0 0"/>
    <path id="e" d="M.19-4.8c.14-.04.23-.04.36-.04.5 0 .72.18.97.82.32.9.93 3.47.93 3.93q0 .26-.25.6c-.33.44-.6.79-.75.94-.25.27-.39.36-.54.36q-.1 0-.29-.12-.25-.23-.43-.22a.47.47 0 0 0-.47.47c0 .31.25.53.6.53.77 0 2.34-1.78 3.63-4.17.83-1.49 1.16-2.35 1.16-2.92 0-.36-.3-.68-.66-.68-.28 0-.47.2-.47.46 0 .18.1.3.33.46.24.13.32.24.32.41 0 .49-.43 1.4-1.46 3.11l-.25-1.39C2.75-3.33 2.08-5.3 1.9-5.3h-.05q-.03.02-.1.02c-.1.01-.54.08-1.18.2L.2-5Zm0 0"/>
    <clipPath id="b">
      <path d="M467.8 193.7h12.75v6.75H467.8Zm0 0"/>
    </clipPath>
    <clipPath id="a">
      <path d="M0 0h612v792H0z"/>
    </clipPath>
    <linearGradient id="c" x1="467.8" x2="480.55" y1="594.92" y2="594.92" gradientTransform="matrix(1 0 0 -1 0 792)" gradientUnits="userSpaceOnUse">
      <stop offset="0" stop-color="#767676"/>
      <stop offset="0" stop-color="#767676"/>
      <stop offset=".01" stop-color="#777"/>
      <stop offset=".01" stop-color="#777"/>
      <stop offset=".02" stop-color="#787878"/>
      <stop offset=".02" stop-color="#787878"/>
      <stop offset=".02" stop-color="#797979"/>
      <stop offset=".03" stop-color="#797979"/>
      <stop offset=".03" stop-color="#7a7a7a"/>
      <stop offset=".04" stop-color="#7b7b7b"/>
      <stop offset=".04" stop-color="#7c7c7c"/>
      <stop offset=".04" stop-color="#7c7c7c"/>
      <stop offset=".05" stop-color="#7d7d7d"/>
      <stop offset=".05" stop-color="#7e7e7e"/>
      <stop offset=".05" stop-color="#7f7f7f"/>
      <stop offset=".06" stop-color="gray"/>
      <stop offset=".06" stop-color="#818181"/>
      <stop offset=".07" stop-color="#818181"/>
      <stop offset=".07" stop-color="#828282"/>
      <stop offset=".07" stop-color="#838383"/>
      <stop offset=".08" stop-color="#848484"/>
      <stop offset=".08" stop-color="#858585"/>
      <stop offset=".09" stop-color="#878787"/>
      <stop offset=".09" stop-color="#888"/>
      <stop offset=".09" stop-color="#898989"/>
      <stop offset=".1" stop-color="#8a8a8a"/>
      <stop offset=".1" stop-color="#8b8b8b"/>
      <stop offset=".11" stop-color="#8c8c8c"/>
      <stop offset=".11" stop-color="#8e8e8e"/>
      <stop offset=".11" stop-color="#8f8f8f"/>
      <stop offset=".12" stop-color="#919191"/>
      <stop offset=".12" stop-color="#929292"/>
      <stop offset=".13" stop-color="#949494"/>
      <stop offset=".13" stop-color="#959595"/>
      <stop offset=".13" stop-color="#979797"/>
      <stop offset=".14" stop-color="#989898"/>
      <stop offset=".14" stop-color="#9a9a9a"/>
      <stop offset=".14" stop-color="#9b9b9b"/>
      <stop offset=".15" stop-color="#9d9d9d"/>
      <stop offset=".15" stop-color="#9e9e9e"/>
      <stop offset=".16" stop-color="#a0a0a0"/>
      <stop offset=".16" stop-color="#a1a1a1"/>
      <stop offset=".16" stop-color="#a3a3a3"/>
      <stop offset=".17" stop-color="#a5a5a5"/>
      <stop offset=".17" stop-color="#a7a7a7"/>
      <stop offset=".18" stop-color="#a8a8a8"/>
      <stop offset=".18" stop-color="#aaa"/>
      <stop offset=".18" stop-color="#acacac"/>
      <stop offset=".19" stop-color="#aeaeae"/>
      <stop offset=".19" stop-color="#afafaf"/>
      <stop offset=".2" stop-color="#b1b1b1"/>
      <stop offset=".2" stop-color="#b3b3b3"/>
      <stop offset=".2" stop-color="#b5b5b5"/>
      <stop offset=".21" stop-color="#b6b6b6"/>
      <stop offset=".21" stop-color="#b8b8b8"/>
      <stop offset=".21" stop-color="#bababa"/>
      <stop offset=".22" stop-color="#bcbcbc"/>
      <stop offset=".22" stop-color="#bdbdbd"/>
      <stop offset=".23" stop-color="#bfbfbf"/>
      <stop offset=".23" stop-color="#c1c1c1"/>
      <stop offset=".23" stop-color="#c3c3c3"/>
      <stop offset=".24" stop-color="#c4c4c4"/>
      <stop offset=".24" stop-color="#c6c6c6"/>
      <stop offset=".25" stop-color="#c7c7c7"/>
      <stop offset=".25" stop-color="#c9c9c9"/>
      <stop offset=".25" stop-color="#cbcbcb"/>
      <stop offset=".26" stop-color="#cdcdcd"/>
      <stop offset=".26" stop-color="#cecece"/>
      <stop offset=".27" stop-color="#d0d0d0"/>
      <stop offset=".27" stop-color="#d1d1d1"/>
      <stop offset=".27" stop-color="#d3d3d3"/>
      <stop offset=".28" stop-color="#d4d4d4"/>
      <stop offset=".28" stop-color="#d6d6d6"/>
      <stop offset=".29" stop-color="#d7d7d7"/>
      <stop offset=".29" stop-color="#d9d9d9"/>
      <stop offset=".29" stop-color="#dadada"/>
      <stop offset=".3" stop-color="#dcdcdc"/>
      <stop offset=".3" stop-color="#ddd"/>
      <stop offset=".3" stop-color="#dedede"/>
      <stop offset=".31" stop-color="#dfdfdf"/>
      <stop offset=".31" stop-color="#e1e1e1"/>
      <stop offset=".32" stop-color="#e2e2e2"/>
      <stop offset=".32" stop-color="#e3e3e3"/>
      <stop offset=".32" stop-color="#e4e4e4"/>
      <stop offset=".33" stop-color="#e6e6e6"/>
      <stop offset=".33" stop-color="#e7e7e7"/>
      <stop offset=".34" stop-color="#e8e8e8"/>
      <stop offset=".34" stop-color="#e9e9e9"/>
      <stop offset=".34" stop-color="#eaeaea"/>
      <stop offset=".35" stop-color="#ebebeb"/>
      <stop offset=".35" stop-color="#ececec"/>
      <stop offset=".36" stop-color="#ededed"/>
      <stop offset=".36" stop-color="#eee"/>
      <stop offset=".36" stop-color="#efefef"/>
      <stop offset=".37" stop-color="#efefef"/>
      <stop offset=".37" stop-color="#f0f0f0"/>
      <stop offset=".38" stop-color="#f1f1f1"/>
      <stop offset=".38" stop-color="#f2f2f2"/>
      <stop offset=".38" stop-color="#f3f3f3"/>
      <stop offset=".39" stop-color="#f3f3f3"/>
      <stop offset=".39" stop-color="#f4f4f4"/>
      <stop offset=".39" stop-color="#f5f5f5"/>
      <stop offset=".4" stop-color="#f5f5f5"/>
      <stop offset=".4" stop-color="#f6f6f6"/>
      <stop offset=".41" stop-color="#f7f7f7"/>
      <stop offset=".41" stop-color="#f7f7f7"/>
      <stop offset=".41" stop-color="#f8f8f8"/>
      <stop offset=".42" stop-color="#f8f8f8"/>
      <stop offset=".42" stop-color="#f9f9f9"/>
      <stop offset=".43" stop-color="#f9f9f9"/>
      <stop offset=".43" stop-color="#fafafa"/>
      <stop offset=".43" stop-color="#fafafa"/>
      <stop offset=".44" stop-color="#fbfbfb"/>
      <stop offset=".45" stop-color="#fbfbfb"/>
      <stop offset=".45" stop-color="#fcfcfc"/>
      <stop offset=".46" stop-color="#fcfcfc"/>
      <stop offset=".46" stop-color="#fdfdfd"/>
      <stop offset=".47" stop-color="#fdfdfd"/>
      <stop offset=".47" stop-color="#fdfdfd"/>
      <stop offset=".48" stop-color="#fefefe"/>
      <stop offset=".48" stop-color="#fefefe"/>
      <stop offset=".49" stop-color="#fefefe"/>
      <stop offset=".49" stop-color="#fff"/>
      <stop offset=".5" stop-color="#fff"/>
      <stop offset=".51" stop-color="#fff"/>
      <stop offset=".51" stop-color="#fefefe"/>
      <stop offset=".52" stop-color="#fefefe"/>
      <stop offset=".52" stop-color="#fefefe"/>
      <stop offset=".53" stop-color="#fdfdfd"/>
      <stop offset=".53" stop-color="#fdfdfd"/>
      <stop offset=".54" stop-color="#fdfdfd"/>
      <stop offset=".55" stop-color="#fcfcfc"/>
      <stop offset=".55" stop-color="#fbfbfb"/>
      <stop offset=".55" stop-color="#fbfbfb"/>
      <stop offset=".56" stop-color="#fbfbfb"/>
      <stop offset=".57" stop-color="#fafafa"/>
      <stop offset=".58" stop-color="#f9f9f9"/>
      <stop offset=".59" stop-color="#f8f8f8"/>
      <stop offset=".59" stop-color="#f7f7f7"/>
      <stop offset=".6" stop-color="#f6f6f6"/>
      <stop offset=".6" stop-color="#f5f5f5"/>
      <stop offset=".61" stop-color="#f4f4f4"/>
      <stop offset=".61" stop-color="#f4f4f4"/>
      <stop offset=".61" stop-color="#f3f3f3"/>
      <stop offset=".62" stop-color="#f3f3f3"/>
      <stop offset=".62" stop-color="#f2f2f2"/>
      <stop offset=".63" stop-color="#f1f1f1"/>
      <stop offset=".63" stop-color="#f0f0f0"/>
      <stop offset=".63" stop-color="#efefef"/>
      <stop offset=".64" stop-color="#eee"/>
      <stop offset=".64" stop-color="#eee"/>
      <stop offset=".64" stop-color="#ededed"/>
      <stop offset=".65" stop-color="#ececec"/>
      <stop offset=".65" stop-color="#ebebeb"/>
      <stop offset=".66" stop-color="#eaeaea"/>
      <stop offset=".66" stop-color="#e8e8e8"/>
      <stop offset=".66" stop-color="#e7e7e7"/>
      <stop offset=".67" stop-color="#e6e6e6"/>
      <stop offset=".67" stop-color="#e5e5e5"/>
      <stop offset=".68" stop-color="#e4e4e4"/>
      <stop offset=".68" stop-color="#e3e3e3"/>
      <stop offset=".68" stop-color="#e1e1e1"/>
      <stop offset=".69" stop-color="#e0e0e0"/>
      <stop offset=".69" stop-color="#dfdfdf"/>
      <stop offset=".7" stop-color="#dedede"/>
      <stop offset=".7" stop-color="#ddd"/>
      <stop offset=".7" stop-color="#dbdbdb"/>
      <stop offset=".71" stop-color="#dadada"/>
      <stop offset=".71" stop-color="#d8d8d8"/>
      <stop offset=".71" stop-color="#d7d7d7"/>
      <stop offset=".72" stop-color="#d5d5d5"/>
      <stop offset=".72" stop-color="#d4d4d4"/>
      <stop offset=".73" stop-color="#d2d2d2"/>
      <stop offset=".73" stop-color="#d1d1d1"/>
      <stop offset=".73" stop-color="#cfcfcf"/>
      <stop offset=".74" stop-color="#cecece"/>
      <stop offset=".74" stop-color="#ccc"/>
      <stop offset=".75" stop-color="#cbcbcb"/>
      <stop offset=".75" stop-color="#c9c9c9"/>
      <stop offset=".75" stop-color="#c7c7c7"/>
      <stop offset=".76" stop-color="#c5c5c5"/>
      <stop offset=".76" stop-color="#c4c4c4"/>
      <stop offset=".77" stop-color="#c2c2c2"/>
      <stop offset=".77" stop-color="silver"/>
      <stop offset=".77" stop-color="#bebebe"/>
      <stop offset=".78" stop-color="#bdbdbd"/>
      <stop offset=".78" stop-color="#bbb"/>
      <stop offset=".79" stop-color="#b9b9b9"/>
      <stop offset=".79" stop-color="#b7b7b7"/>
      <stop offset=".79" stop-color="#b6b6b6"/>
      <stop offset=".8" stop-color="#b4b4b4"/>
      <stop offset=".8" stop-color="#b2b2b2"/>
      <stop offset=".8" stop-color="#b0b0b0"/>
      <stop offset=".81" stop-color="#afafaf"/>
      <stop offset=".81" stop-color="#adadad"/>
      <stop offset=".82" stop-color="#ababab"/>
      <stop offset=".82" stop-color="#a9a9a9"/>
      <stop offset=".82" stop-color="#a8a8a8"/>
      <stop offset=".83" stop-color="#a6a6a6"/>
      <stop offset=".83" stop-color="#a5a5a5"/>
      <stop offset=".84" stop-color="#a3a3a3"/>
      <stop offset=".84" stop-color="#a1a1a1"/>
      <stop offset=".84" stop-color="#9f9f9f"/>
      <stop offset=".85" stop-color="#9e9e9e"/>
      <stop offset=".85" stop-color="#9c9c9c"/>
      <stop offset=".86" stop-color="#9b9b9b"/>
      <stop offset=".86" stop-color="#999"/>
      <stop offset=".86" stop-color="#989898"/>
      <stop offset=".87" stop-color="#969696"/>
      <stop offset=".87" stop-color="#959595"/>
      <stop offset=".88" stop-color="#939393"/>
      <stop offset=".88" stop-color="#929292"/>
      <stop offset=".88" stop-color="#909090"/>
      <stop offset=".89" stop-color="#8f8f8f"/>
      <stop offset=".89" stop-color="#8e8e8e"/>
      <stop offset=".89" stop-color="#8c8c8c"/>
      <stop offset=".9" stop-color="#8b8b8b"/>
      <stop offset=".9" stop-color="#8a8a8a"/>
      <stop offset=".91" stop-color="#888"/>
      <stop offset=".91" stop-color="#878787"/>
      <stop offset=".91" stop-color="#868686"/>
      <stop offset=".92" stop-color="#858585"/>
      <stop offset=".92" stop-color="#848484"/>
      <stop offset=".93" stop-color="#838383"/>
      <stop offset=".93" stop-color="#828282"/>
      <stop offset=".93" stop-color="#818181"/>
      <stop offset=".94" stop-color="gray"/>
      <stop offset=".94" stop-color="#7f7f7f"/>
      <stop offset=".95" stop-color="#7e7e7e"/>
      <stop offset=".95" stop-color="#7e7e7e"/>
      <stop offset=".95" stop-color="#7d7d7d"/>
      <stop offset=".96" stop-color="#7c7c7c"/>
      <stop offset=".96" stop-color="#7b7b7b"/>
      <stop offset=".96" stop-color="#7b7b7b"/>
      <stop offset=".97" stop-color="#7a7a7a"/>
      <stop offset=".97" stop-color="#797979"/>
      <stop offset=".98" stop-color="#797979"/>
      <stop offset=".98" stop-color="#787878"/>
      <stop offset=".98" stop-color="#787878"/>
      <stop offset=".99" stop-color="#777"/>
      <stop offset=".99" stop-color="#777"/>
      <stop offset="1" stop-color="#767676"/>
      <stop offset="1" stop-color="#767676"/>
    </linearGradient>
    <g id="n" clip-path="url(#a)">
      <path fill="none" stroke="#000" stroke-linejoin="round" stroke-miterlimit="10" stroke-width="1.5" d="M459 211.45c2.93-4.24 5.86-8.47 8.8-11.8 2.93-3.34 5.86-6.33 8.79-8.18s5.77-2.97 8.79-2.95 6.32 1.2 9.34 3.08c3.03 1.88 5.83 4.9 8.8 8.18 2.97 3.29 6.04 7.7 9.07 11.54 3.02 3.82 6.13 8.12 9.07 11.4 2.93 3.28 5.64 6.39 8.52 8.3 2.87 1.93 5.86 3.23 8.79 3.23s5.81-1.3 8.79-3.22c2.99-1.92 6.05-5.03 9.07-8.31s7.51-9.51 9.07-11.4"/>
      <path d="M378.5 190.55v19.95a.5.5 0 0 1-.5.5.5.5 0 0 1-.5-.5v-19.95c0-.28.22-.5.5-.5s.5.22.5.5m-4.43 5.75 3.93-6.74 3.93 6.74a.5.5 0 0 1-.18.68.5.5 0 0 1-.68-.18l-3.5-6h.86l-3.5 6a.5.5 0 0 1-.68.18.5.5 0 0 1-.18-.68m7.86 8.45-3.93 6.74-3.93-6.74a.5.5 0 0 1 .18-.68.5.5 0 0 1 .68.18l3.5 6h-.86l3.5-6a.5.5 0 0 1 .68-.18c.24.14.32.44.18.68"/>
      <path fill="none" stroke="#000" stroke-linecap="round" stroke-linejoin="round" stroke-miterlimit="10" stroke-width=".7512" d="m350.6 169.75-6 5.25M350.6 179.1l-6 5.25M350.6 188.45l-6 5.25M350.6 197.8l-6 5.25M350.6 207.15l-6 5.25M350.6 216.5l-6 5.25M350.6 225.85l-6 5.25M350.6 235.2l-6 5.25M350.6 244.55l-6 5.25M351.35 169.75v81"/>
      <path d="M352.6 242.75h117.9c.28 0 .5.22.5.5a.5.5 0 0 1-.5.5H352.6a.5.5 0 0 1-.5-.5c0-.28.22-.5.5-.5m5.75 4.43-6.74-3.93 6.74-3.93a.5.5 0 1 1 .5.86l-6 3.5v-.86l6 3.5a.5.5 0 0 1-.5.86m106.4-7.86 6.74 3.93-6.74 3.93a.5.5 0 0 1-.68-.18.5.5 0 0 1 .18-.68l6-3.5v.86l-6-3.5a.5.5 0 0 1-.18-.68.5.5 0 0 1 .68-.18"/>
      <path fill="none" stroke="#000" stroke-linejoin="round" stroke-miterlimit="10" stroke-width="1.5" d="M352.1 211.45c2.93-4.24 5.86-8.47 8.8-11.8 2.93-3.34 5.86-6.33 8.8-8.18 2.92-1.85 5.76-2.97 8.78-2.95s6.32 1.2 9.34 3.08c3.03 1.88 5.83 4.9 8.8 8.18 2.97 3.29 6.04 7.7 9.07 11.54 3.02 3.82 6.13 8.12 9.07 11.4 2.93 3.28 5.64 6.39 8.52 8.3 2.87 1.93 5.86 3.23 8.79 3.23s5.8-1.3 8.79-3.22c3-1.92 6.05-5.03 9.07-8.31s7.51-9.51 9.07-11.4"/>
      <path fill="none" stroke="#000" stroke-dasharray="2.25 6" stroke-linecap="round" stroke-linejoin="round" stroke-miterlimit="10" stroke-width=".7512" d="M352.85 212.5h162"/>
      <path fill="#fff" fill-rule="evenodd" d="M467.8 240.45h98.1v-56.1h-98.1Zm0 0"/>
      <path fill="#fff" fill-rule="evenodd" stroke="#000" stroke-linecap="round" stroke-miterlimit="8" stroke-width=".7512" d="M472.5 254.1h3.55v-75h-3.55Zm0 0"/>
      <g clip-path="url(#b)">
        <path fill="url(#c)" d="M467.8 200.45v-6.75h12.75v6.75Zm0 0"/>
      </g>
      <path fill="none" stroke="#000" stroke-linecap="round" stroke-miterlimit="8" stroke-width=".7512" d="M467.8 200.45h12.75v-6.75H467.8Zm0 0"/>
      <path d="M352.1 211.9h157.75c.28 0 .5.22.5.5a.5.5 0 0 1-.5.5H352.1a.5.5 0 0 1-.5-.5c0-.28.22-.5.5-.5m156.75-2.5 6 3-6 3"/>
      <path d="M350.85 212.4v-49.55c0-.28.22-.5.5-.5s.5.22.5.5v49.55c0 .28-.22.5-.5.5a.5.5 0 0 1-.5-.5m-2.5-48.55 3-6 3 6"/>
      <use xlink:href="#d" x="404.62" y="255.29"/>
      <use xlink:href="#e" x="360.07" y="161.3"/>
      <use xlink:href="#f" x="495.94" y="227.3"/>
      <use xlink:href="#g" x="351.91" y="221.9"/>
      <use xlink:href="#h" x="364.03" y="205.94"/>
      <use xlink:href="#i" x="390.91" y="278.57"/>
      <use xlink:href="#j" x="400.39" y="278.57"/>
      <use xlink:href="#k" x="406.86" y="278.57"/>
      <use xlink:href="#l" x="411.78" y="278.57"/>
      <use xlink:href="#m" x="417.78" y="278.57"/>
    </g>
  </defs>
  <use xlink:href="#n"/>
</svg>
