<svg xmlns="http://www.w3.org/2000/svg" xmlns:xlink="http://www.w3.org/1999/xlink" width="300" height="500" viewBox="0 0 300 500">
  <defs>
    <path id="d" d="m7.44-5.4-.11-2.7h-.25q-.13.4-.52.4-.17 0-.47-.1-.87-.3-1.75-.3a4.2 4.2 0 0 0-2.71 1.02A4.2 4.2 0 0 0 .32-3.9C.33-1.47 1.93.17 4.3.17c1.36 0 2.55-.56 3.28-1.53l-.21-.2A3.7 3.7 0 0 1 4.7-.36a3 3 0 0 1-1.95-.69c-.66-.6-1.03-1.67-1.03-3.01 0-2.17 1.12-3.57 2.86-3.57.69 0 1.31.25 1.78.72.39.4.56.72.8 1.5Zm0 0"/>
    <path id="a" d="M5.55-1.33c-.66.75-.78.85-.99.85-.1 0-.22-.1-.22-.24 0-.19.38-1.6.79-2.95.28-.95.51-1.83 1.18-4.45l-.06-.07c-.62.14-1.05.19-1.83.28v.2c.66.02.75.07.75.32 0 .17-.01.2-.19.83L4.45-4.6c-.1-.5-.3-.7-.78-.7C2.13-5.28.2-3.02.2-1.22.19-.4.66.13 1.44.13c.81 0 1.34-.38 2.15-1.58-.12.6-.15.8-.15 1.06 0 .33.2.55.5.55.51 0 1.14-.49 1.75-1.36ZM3.73-5.02q.54.06.54.7c0 1.82-1.25 3.88-2.35 3.88-.42 0-.7-.31-.7-.8 0-.98.6-2.38 1.39-3.21.34-.36.78-.58 1.12-.57m0 0"/>
    <path id="b" d="M4.97-1.31c-.44.75-.52.83-.72.83-.27 0-.52-.41-.98-1.55-.05-.16-.24-.6-.44-1.06 1.78-1.57 2.12-1.82 2.7-1.85v-.18h-2.2v.18c.51.02.65.07.65.22q-.02.37-1.7 1.67l-.51.4L3.2-8.13l-.06-.07c-.73.17-1.19.24-1.87.33v.19c.59-.02.8.08.8.3q0 .28-.24 1.07-.09.27-.11.4l-.03.12L.17 0h.9l.57-2.16.5-.39c.2.53.52 1.28.72 1.7.39.76.6.98.95.98.49 0 .78-.3 1.33-1.3Zm0 0"/>
    <path id="c" d="m8.25-1.4-.16.2q-.3.35-.3.37c-.27.28-.4.38-.57.38q-.14 0-.14-.2c0-.04.04-.26.12-.54l.82-3 .03-.34c0-.44-.3-.75-.7-.75q-.33 0-.76.26c-.59.38-1.07.96-1.9 2.27.31-.92.48-1.6.48-1.81 0-.44-.28-.72-.69-.72-.73 0-1.57.78-2.67 2.53l.69-2.52-.03-.01-1.92.37v.2c.56 0 .56 0 .65.05q.1.06.11.2c0 .15-.28 1.24-.7 2.74C.34-.8.3-.6.14 0h.9c.59-1.9.76-2.34 1.16-2.97C2.9-4 3.6-4.66 4-4.66q.25 0 .25.3a39 39 0 0 1-.84 3.25L3.1 0H4c.48-1.87.72-2.48 1.33-3.31.6-.83 1.19-1.35 1.53-1.35.14 0 .25.11.25.25 0 .07-.03.18-.1.43l-.68 2.75c-.13.46-.16.67-.16.8q0 .53.49.54c.56 0 1.07-.4 1.72-1.28l.06-.1Zm0 0"/>
    <path id="e" d="m7.81-5.58.44-2.37H8c-.1.18-.2.26-.45.26-.11 0-.24-.03-.49-.1a7 7 0 0 0-1.4-.2C3.09-7.98.8-5.57.8-2.9A3 3 0 0 0 3.92.22C5.16.22 6.11-.3 7.2-1.56L7-1.73C5.9-.7 5.21-.33 4.22-.33c-1.32 0-2.09-.89-2.09-2.45 0-1.42.56-2.88 1.5-3.84.58-.6 1.33-.93 2.13-.93q1.64 0 1.82 1.94Zm0 0"/>
    <path id="i" d="m5.56-1.31-.34.33c-.38.39-.52.5-.61.5q-.17-.02-.17-.16c0-.25.5-2.31 1.06-4.36l.08-.25-.1-.03-.73.08-.03.03-.13.58c-.09-.44-.45-.7-.96-.7C2.03-5.28.2-3.1.2-1.2.2-.36.66.13 1.42.13c.85 0 1.36-.4 2.4-1.88a5 5 0 0 0-.26 1.38q-.01.5.47.5c.49 0 .78-.24 1.67-1.33ZM3.7-5.01c.4.01.67.3.67.71 0 1.02-.6 2.42-1.42 3.32-.3.32-.7.53-1.04.53-.44 0-.7-.35-.7-.9 0-.67.45-1.87.98-2.63.47-.7 1.03-1.08 1.51-1.04m0 0"/>
    <path id="f" d="m3.81-1.1-.1-.04c-.3.47-.38.51-.76.53H1.03l1.35-1.42C3.09-2.77 3.4-3.38 3.4-4c0-.81-.66-1.42-1.49-1.42-.44 0-.86.17-1.15.48-.27.28-.38.53-.52 1.11l.17.03c.31-.78.6-1.03 1.16-1.03.69 0 1.14.46 1.14 1.13 0 .64-.38 1.37-1.05 2.1L.23-.1V0h3.15Zm0 0"/>
    <path id="g" d="M.67 1.13c.53-.25.9-.75.9-1.24 0-.39-.29-.7-.65-.7-.28 0-.47.17-.47.45q.02.39.47.4h.16l.06-.02q.1 0 .11.1 0 .42-.66.86Zm0 0"/>
    <path id="h" d="M1.23-2.66c.47 0 .66.02.85.1.5.19.81.64.81 1.19 0 .68-.45 1.2-1.05 1.2-.23 0-.39-.06-.68-.25q-.34-.2-.5-.2-.31 0-.32.28c0 .28.35.45.91.45.6 0 1.25-.2 1.64-.53q.58-.51.58-1.35c0-.4-.14-.78-.36-1.03a2 2 0 0 0-.67-.42c.54-.37.75-.67.75-1.1 0-.66-.5-1.1-1.25-1.1q-.6 0-1.05.39c-.23.22-.36.42-.53.9l.12.04q.46-.88 1.2-.86c.52 0 .87.34.87.86q0 .46-.32.78c-.25.25-.46.36-1.01.56Zm0 0"/>
    <path id="j" d="M.95 0h2.22v-.12c-.62 0-.76-.08-.76-.47v-4.82l-.07-.01L.9-4.7v.12q.46-.18.58-.19.24 0 .23.38v3.64c-.01.52-.14.63-.75.63Zm0 0"/>
  </defs>
  <path fill="none" stroke="#000" stroke-linecap="round" stroke-linejoin="round" stroke-miterlimit="10" stroke-width=".75" d="M98.36 361.88 89.8 377.4l8.56 15.53h17.13l8.57-15.53-8.57-15.53Zm51.6 0-8.57 15.53 8.57 15.53h17.12l8.57-15.53-8.57-15.53Zm51.64 0-8.57 15.53 8.57 15.53h17.12l8.57-15.53-8.57-15.53Zm51.63 0-8.56 15.53 8.56 15.53h17.13l8.57-15.53-8.57-15.53Zm0 0"/>
  <path fill="none" stroke="#000" stroke-dasharray="4.9943 3.745725" stroke-linejoin="round" stroke-miterlimit="10" stroke-width="1.25" d="m128.8 222.14-20.37 170.8M259 226.28l-20.37 170.76"/>
  <path fill="none" stroke="#000" stroke-linecap="round" stroke-linejoin="round" stroke-miterlimit="10" stroke-width=".75" d="m72.5 222.89-8.57 15.4 8.56 15.4h17.13l8.57-15.4-8.57-15.4Zm0 30.81-8.57 15.38 8.56 15.38h17.13l8.57-15.38-8.57-15.38Zm0 0"/>
  <path fill="none" stroke="#000" stroke-linecap="round" stroke-linejoin="round" stroke-miterlimit="10" stroke-width=".75" d="m98.31 268.63-8.56 15.54 8.56 15.53h17.13l8.57-15.53-8.57-15.54ZM72.5 284.46 63.92 300l8.56 15.53h17.13L98.2 300l-8.57-15.54Zm0 0"/>
  <path fill="none" stroke="#000" stroke-linecap="round" stroke-linejoin="round" stroke-miterlimit="10" stroke-width=".75" d="m98.31 299.7-8.56 15.55 8.56 15.56h17.13l8.57-15.56-8.57-15.55ZM72.5 315.53l-8.57 15.53 8.56 15.53h17.13l8.57-15.53-8.57-15.53Zm0 0"/>
  <path fill="none" stroke="#000" stroke-linecap="round" stroke-linejoin="round" stroke-miterlimit="10" stroke-width=".75" d="m98.31 330.81-8.56 15.53 8.56 15.54h17.13l8.57-15.54-8.57-15.53Zm25.77-77.51-8.56 15.58 8.56 15.58h17.14l8.56-15.58-8.56-15.58ZM72.5 346.6l-8.57 15.53 8.56 15.53h17.13l8.57-15.53-8.57-15.54Zm51.58-62.14L115.52 300l8.56 15.53h17.14l8.56-15.53-8.56-15.54Zm0 0"/>
  <path fill="none" stroke="#000" stroke-linecap="round" stroke-linejoin="round" stroke-miterlimit="10" stroke-width=".75" d="m124.08 315.53-8.56 15.53 8.56 15.53h17.14l8.56-15.53-8.56-15.53Zm0-93.34-8.56 15.56 8.56 15.55h17.14l8.56-15.55-8.56-15.56Zm0 124.41-8.56 15.53 8.56 15.53h17.14l8.56-15.53-8.56-15.54Zm25.83-109.03-8.57 15.53 8.57 15.53h17.12l8.57-15.53-8.57-15.53Zm0 31.06-8.57 15.54 8.57 15.53h17.12l8.57-15.53-8.57-15.54Zm0 0"/>
  <path fill="none" stroke="#000" stroke-linecap="round" stroke-linejoin="round" stroke-miterlimit="10" stroke-width=".75" d="m149.91 299.45-8.57 15.53 8.57 15.53h17.12l8.57-15.53-8.57-15.53Zm0 31.36-8.57 15.53 8.57 15.54h17.12l8.57-15.54-8.57-15.53Zm25.82-77.51-8.57 15.58 8.57 15.58h17.13l8.56-15.58-8.56-15.58Zm0 0"/>
  <path fill="none" stroke="#000" stroke-linecap="round" stroke-linejoin="round" stroke-miterlimit="10" stroke-width=".75" d="M175.73 284.46 167.16 300l8.57 15.53h17.13l8.56-15.53-8.56-15.54Zm0 31.07-8.57 15.53 8.57 15.53h17.13l8.56-15.53-8.56-15.53Zm0 31.07-8.57 15.53 8.57 15.53h17.13l8.56-15.53-8.56-15.54Zm25.87-15.79-8.57 15.53 8.57 15.54h17.12l8.57-15.54-8.57-15.53Zm0 0"/>
  <path fill="none" stroke="#000" stroke-linecap="round" stroke-linejoin="round" stroke-miterlimit="10" stroke-width=".75" d="m201.6 299.7-8.57 15.55 8.57 15.56h17.12l8.57-15.56-8.57-15.55Zm0-31.07-8.57 15.54 8.57 15.53h17.12l8.57-15.53-8.57-15.54Zm0 0"/>
  <path fill="none" stroke="#000" stroke-linecap="round" stroke-linejoin="round" stroke-miterlimit="10" stroke-width=".75" d="m201.6 237.77-8.57 15.53 8.57 15.53h17.12l8.57-15.53-8.57-15.53Zm-25.87-15.58-8.57 15.53 8.57 15.53h17.13l8.56-15.53-8.56-15.53Zm51.69 31.16-8.57 15.55 8.57 15.56h17.13l8.56-15.56-8.56-15.55Zm0 31.11L218.85 300l8.57 15.53h17.13l8.56-15.53-8.56-15.54Zm0 31.07-8.57 15.53 8.57 15.53h17.13l8.56-15.53-8.56-15.53Zm0 31.07-8.57 15.53 8.57 15.53h17.13l8.56-15.53-8.56-15.54Zm0 0"/>
  <path fill="none" stroke="#000" stroke-linecap="round" stroke-linejoin="round" stroke-miterlimit="10" stroke-width=".75" d="m253.23 330.81-8.56 15.53 8.56 15.54h17.13l8.57-15.54-8.57-15.53Zm0-31.11-8.56 15.55 8.56 15.56h17.13l8.57-15.56-8.57-15.55Zm0-31.07-8.56 15.54 8.56 15.53h17.13l8.57-15.53-8.57-15.54Zm-25.78-46.54-8.55 15.58 8.55 15.58h17.11l8.55-15.58-8.55-15.58Zm0 0"/>
  <path fill="none" stroke="#000" stroke-linecap="round" stroke-linejoin="round" stroke-miterlimit="10" stroke-width=".75" d="m253.23 237.57-8.56 15.53 8.56 15.53h17.13l8.57-15.53-8.57-15.53Zm0 0"/>
  <path d="m253.1 237.07 4 .03v1l-4-.03Zm1.2-2.42 4.65 2.96-4.7 2.89a.5.5 0 0 1-.68-.16.5.5 0 0 1 .16-.7l4.02-2.46-.02.85-3.97-2.53a.5.5 0 0 1-.15-.69.5.5 0 0 1 .7-.16m-27.02 17.95 4 .03v1l-4-.03Zm1.19-2.42 4.65 2.96-4.7 2.89a.5.5 0 0 1-.68-.16.5.5 0 0 1 .16-.69l4.02-2.47-.02.85-3.97-2.52a.5.5 0 0 1-.15-.7.5.5 0 0 1 .69-.16m24.68 17.91 4 .02v1l-4-.03Zm1.14-2.42 4.65 2.95-4.7 2.9a.5.5 0 0 1-.68-.17.5.5 0 0 1 .16-.69l4.02-2.46-.02.84-3.97-2.52a.5.5 0 0 1-.15-.7.5.5 0 0 1 .7-.15m-27.11 18.2 4 .06-.02 1-4-.06Zm1.3-2.4 4.63 2.98-4.72 2.85a.5.5 0 0 1-.68-.17.5.5 0 0 1 .17-.68l4.03-2.44-.02.85-3.95-2.56a.5.5 0 0 1-.15-.7.5.5 0 0 1 .69-.14m24.66 17.89 4 .03v1l-4-.03Zm1.14-2.42 4.65 2.96-4.7 2.88a.5.5 0 0 1-.68-.16.5.5 0 0 1 .16-.68l4.02-2.47-.02.85-3.97-2.53a.5.5 0 0 1-.15-.69c.14-.24.45-.3.7-.16m-52.89-59.86 4 .03v1l-4-.03Zm1.29-2.4 4.64 2.94-4.69 2.89a.5.5 0 0 1-.68-.16.5.5 0 0 1 .16-.7l4.02-2.46-.02.85-3.97-2.53a.5.5 0 0 1-.15-.69.5.5 0 0 1 .69-.15m-1.29 33.63 4 .02v1l-4-.02Zm1.29-2.41 4.64 2.94-4.69 2.9a.5.5 0 0 1-.68-.17.5.5 0 0 1 .16-.69l4.02-2.47-.02.85-3.97-2.53a.5.5 0 0 1-.15-.68.5.5 0 0 1 .69-.15M201.53 299l4 .09-.03 1-3.99-.09Zm1.22-2.4 4.6 3.03-4.73 2.82a.5.5 0 0 1-.68-.18.5.5 0 0 1 .17-.68l4.05-2.41-.02.84-3.94-2.58a.5.5 0 0 1-.14-.69.5.5 0 0 1 .69-.15m41.92-43-4 .03v-1l4-.03Zm-1.24 2.43-4.7-2.89 4.65-2.94a.5.5 0 0 1 .69.14.5.5 0 0 1-.15.7l-3.97 2.52-.01-.85 4.01 2.47a.5.5 0 0 1 .16.69.5.5 0 0 1-.68.16m-24.57-18.11-4 .09-.02-1 4-.09Zm-1.16 2.45-4.74-2.82 4.61-3.03a.5.5 0 0 1 .55.84l-3.94 2.58-.02-.84 4.05 2.4a.5.5 0 0 1-.5.87m52.59 28.56-4 .1-.01-1 4-.1Zm-1.2 2.45-4.74-2.82 4.6-3.02a.5.5 0 0 1 .7.15.5.5 0 0 1-.15.69l-3.94 2.58-.01-.85 4.04 2.41c.24.14.31.45.17.7a.5.5 0 0 1-.68.16m1.21-33.51-4 .03v-1l4-.03Zm-1.25 2.43-4.7-2.89 4.65-2.95a.5.5 0 0 1 .7.15.5.5 0 0 1-.16.7l-3.97 2.52-.01-.85 4.01 2.47a.5.5 0 0 1 .16.69.5.5 0 0 1-.68.16m-24.42 44.66-4 .06-.02-1 4-.06Zm-1.18 2.44-4.71-2.85 4.62-3a.5.5 0 0 1 .54.85l-3.95 2.56-.01-.85 4.02 2.44c.24.15.32.45.17.68a.5.5 0 0 1-.68.17m-24.59-18.27-4 .1-.02-1 4-.1Zm-1.16 2.45-4.74-2.81 4.61-3.03a.5.5 0 0 1 .7.15.5.5 0 0 1-.15.69l-3.94 2.57-.02-.84 4.05 2.41a.5.5 0 0 1-.5.86m1.15 28.62-4 .09-.02-1 4-.1Zm-1.16 2.44-4.74-2.81 4.61-3.03a.5.5 0 0 1 .7.15.5.5 0 0 1-.15.7l-3.94 2.57-.02-.84 4.05 2.4c.24.15.31.45.17.7a.5.5 0 0 1-.68.16m52.6-2.69-4 .03v-1l4-.03Zm-1.25 2.43-4.7-2.9 4.65-2.94a.5.5 0 0 1 .7.15.5.5 0 0 1-.16.7l-3.97 2.52-.01-.85 4.01 2.47a.5.5 0 0 1 .16.68.5.5 0 0 1-.68.17m0 0"/>
  <use xlink:href="#a" x="104.06" y="235.03"/>
  <use xlink:href="#b" x="104.06" y="248.7"/>
  <use xlink:href="#c" x="85.37" y="239.95"/>
  <use xlink:href="#d" x="175.5" y="251.81"/>
  <use xlink:href="#d" x="184.28" y="264.19"/>
  <use xlink:href="#d" x="159.08" y="248.7"/>
  <use xlink:href="#d" x="159.08" y="279.53"/>
  <path d="m115.2 330.27 20.66-12.22.63 1.07-20.65 12.23Zm20.98-11.68-4.96-.55 10.12-2.5-7.07 7.66Zm0 0"/>
  <path d="m115.84 330.42 20.78 12.55-.64 1.07-20.78-12.54Zm20.46 13.08-1.86-4.62 7 7.71-10.1-2.6Zm0 0"/>
  <path d="M115.19 330.29c.29-.18.68-.1.86.2.18.28.1.66-.2.85a.62.62 0 0 1-.66-1.05m2.13-1.3c.3-.17.68-.1.86.2.2.3.1.67-.18.86a.64.64 0 0 1-.87-.2.63.63 0 0 1 .2-.85m2.14-1.28c.3-.2.68-.1.86.18.2.3.1.68-.19.88a.63.63 0 0 1-.86-.2.6.6 0 0 1 .2-.86m2.14-1.3a.63.63 0 0 1 .67 1.07.63.63 0 0 1-.86-.2.6.6 0 0 1 .2-.86m2.15-1.28a.62.62 0 1 1 .66 1.05.6.6 0 0 1-.86-.2.6.6 0 0 1 .2-.85m2.14-1.29c.29-.19.68-.1.86.2.18.28.1.67-.2.85-.3.19-.67.1-.86-.2a.63.63 0 0 1 .2-.85m2.13-1.29c.3-.19.68-.1.86.2.2.28.1.67-.19.85a.6.6 0 0 1-.86-.19.6.6 0 0 1 .2-.86m2.14-1.28v-.02c.3-.18.68-.09.87.2s.1.68-.2.86a.6.6 0 0 1-.86-.19.6.6 0 0 1 .19-.85m2.15-1.3a.63.63 0 0 1 .86.2c.18.28.1.67-.2.85-.29.2-.68.1-.86-.18a.63.63 0 0 1 .2-.88m2.14-1.3a.63.63 0 0 1 .85.2c.2.3.1.68-.18.86h-.01a.63.63 0 0 1-.86-.18.64.64 0 0 1 .2-.87m2.14-1.28a.6.6 0 0 1 .85.2c.2.29.1.68-.19.86a.6.6 0 0 1-.86-.2.6.6 0 0 1 .2-.86m2.13-1.29c.3-.18.68-.1.87.2.18.29.09.67-.2.86a.6.6 0 0 1-.86-.2.6.6 0 0 1 .2-.86m2.15-1.29c.29-.18.67-.1.86.2s.1.67-.2.86a.63.63 0 0 1-.86-.2.6.6 0 0 1 .2-.86m2.14-1.29c.29-.18.68-.1.86.2s.1.67-.2.86a.63.63 0 0 1-.86-.2.63.63 0 0 1 .2-.86m2.13-1.29c.3-.19.68-.1.86.2.2.3.1.67-.19.86a.63.63 0 0 1-.86-.2.6.6 0 0 1 .2-.86m2.14-1.28c.3-.2.68-.1.87.19s.1.68-.2.86a.6.6 0 0 1-.86-.2.6.6 0 0 1 .2-.85m2.15-1.3c.29-.18.67-.1.86.2.18.29.1.68-.2.86a.62.62 0 1 1-.66-1.05m2.14-1.28c.29-.19.68-.1.86.19.19.29.1.68-.2.86a.6.6 0 0 1-.86-.2.63.63 0 0 1 .2-.85m2.13-1.29c.3-.19.68-.1.86.19.2.29.1.68-.19.86a.62.62 0 1 1-.67-1.05m2.14-1.29c.3-.19.68-.1.87.19s.1.68-.2.86a.6.6 0 0 1-.86-.19.6.6 0 0 1 .2-.86m2.15-1.3a.63.63 0 0 1 .86.2c.18.3.09.68-.2.86a.6.6 0 0 1-.86-.19.64.64 0 0 1 .2-.87m2.14-1.29a.63.63 0 0 1 .67 1.06h-.01a.63.63 0 0 1-.86-.19.64.64 0 0 1 .2-.87m1.9-.4-4.97-.51 10.1-2.6-7.01 7.73Zm0 0"/>
  <path d="M115.84 330.42zc.3.17.39.56.22.85-.18.3-.57.4-.86.22a.63.63 0 0 1-.22-.86c.18-.3.57-.39.86-.22m2.14 1.3c.3.17.4.56.22.85-.18.3-.56.4-.86.22a.6.6 0 0 1-.22-.86c.18-.3.57-.39.86-.2m2.14 1.3c.3.16.4.55.21.84a.62.62 0 1 1-1.06-.64.6.6 0 0 1 .85-.2m2.14 1.28c.3.18.39.56.2.86a.6.6 0 0 1-.84.2h-.01a.63.63 0 0 1-.2-.85.6.6 0 0 1 .85-.2m2.14 1.29c.3.18.39.56.22.86a.63.63 0 0 1-1.08-.65c.18-.3.57-.4.86-.21m2.15 1.29c.29.17.38.55.2.85a.63.63 0 0 1-.86.22.6.6 0 0 1-.2-.86c.18-.3.56-.4.86-.21m2.13 1.28c.3.18.4.56.21.86a.63.63 0 0 1-.85.21.63.63 0 0 1 .64-1.07m2.14 1.3c.3.17.4.55.21.85a.6.6 0 0 1-.85.21.63.63 0 0 1-.22-.86.6.6 0 0 1 .86-.2m2.14 1.28c.3.18.39.56.22.86a.63.63 0 0 1-1.08-.65.6.6 0 0 1 .86-.2m2.13 1.3h.02c.28.17.39.55.2.85a.6.6 0 0 1-.85.2.6.6 0 0 1-.21-.85.6.6 0 0 1 .84-.2m2.15 1.28c.3.18.4.56.21.86a.6.6 0 0 1-.86.2.63.63 0 0 1-.2-.85.63.63 0 0 1 .85-.21m2.14 1.29c.3.18.39.57.21.85a.6.6 0 0 1-.85.22h-.01a.6.6 0 0 1-.2-.85c.17-.3.55-.4.85-.22m2.14 1.28c.3.18.39.57.22.86s-.57.4-.86.21a.6.6 0 0 1-.22-.84c.18-.3.57-.4.86-.23m2.14 1.3a.63.63 0 0 1-.64 1.07.6.6 0 0 1-.21-.86c.18-.3.56-.38.85-.22m2.14 1.28v.01c.3.17.4.56.21.85-.18.3-.56.4-.86.22a.63.63 0 0 1-.2-.86c.18-.3.55-.39.85-.22m2.14 1.3c.3.17.4.56.21.85-.17.3-.56.4-.85.22a.63.63 0 0 1-.22-.86c.18-.3.56-.39.86-.21m2.14 1.29a.62.62 0 1 1-.64 1.07.64.64 0 0 1-.22-.86c.18-.3.57-.4.86-.21m2.13 1.29h.02c.29.18.39.56.2.86a.63.63 0 0 1-.85.2.6.6 0 0 1-.21-.85.6.6 0 0 1 .84-.21m2.15 1.29c.3.18.4.56.21.86a.63.63 0 0 1-.86.2.63.63 0 0 1-.2-.85.6.6 0 0 1 .85-.21m2.14 1.29c.3.18.4.55.21.86a.6.6 0 0 1-.85.2.63.63 0 0 1-.22-.85c.18-.3.56-.4.86-.21m2.14 1.28c.3.18.39.56.22.86a.63.63 0 0 1-1.08-.65.63.63 0 0 1 .86-.2m2.14 1.3c.3.17.4.55.22.85a.63.63 0 0 1-.86.21.62.62 0 1 1 .64-1.07m2.15 1.28c.28.18.38.56.2.86s-.56.39-.86.2a.63.63 0 0 1-.2-.85c.18-.29.56-.4.86-.21m2.13 1.29c.3.18.39.56.21.86a.6.6 0 0 1-.85.2.63.63 0 0 1 .64-1.06m2.14 1.29c.3.18.39.57.22.86s-.57.39-.86.2a.64.64 0 0 1-.22-.85c.18-.3.57-.4.86-.21m2.14 1.29c.3.18.4.57.21.86a.6.6 0 0 1-.85.2.6.6 0 0 1-.21-.85.6.6 0 0 1 .85-.21m2.14 1.29c.3.18.4.57.22.85a.62.62 0 1 1-1.07-.64.6.6 0 0 1 .85-.21m2.14 1.28v.01c.3.17.4.56.21.85a.63.63 0 0 1-.85.22.63.63 0 0 1 .65-1.08m2.14 1.3c.3.17.39.56.22.85a.64.64 0 0 1-.86.22.64.64 0 0 1-.22-.86c.18-.3.57-.39.86-.2m2.14 1.29c.3.17.4.56.22.85a.62.62 0 1 1-1.07-.64c.18-.3.56-.39.85-.21m2.14 1.29a.63.63 0 0 1-.65 1.07.63.63 0 0 1-.2-.86.6.6 0 0 1 .85-.21m2.14 1.29c.3.18.39.56.21.86a.6.6 0 0 1-.85.2.63.63 0 0 1 .64-1.06m2.14 1.29c.3.18.4.56.22.86a.63.63 0 0 1-1.08-.66.63.63 0 0 1 .86-.2m2.14 1.29a.63.63 0 1 1-.85.2.6.6 0 0 1 .85-.2m1.43 1.58-1.87-4.62 7.01 7.72-10.1-2.59Zm-71.22-44.28 122.06 15.06-.13.99-122.05-15.05Zm122 15.56-3.61-3.47 9.55 4.2-10.28 1.74Zm0 0"/>
  <path fill="none" stroke="#000" stroke-linejoin="round" stroke-miterlimit="10" d="M242.16 360.77c-7.56-.8-13.01-7.93-12.16-15.91"/>
  <path fill-rule="evenodd" stroke="#000" stroke-linecap="round" stroke-linejoin="round" stroke-miterlimit="10" stroke-width=".5" d="M237.23 350.2a1.4 1.4 0 1 0 0 2.79c.77 0 1.4-.63 1.4-1.4s-.63-1.4-1.4-1.4m0 0"/>
  <path fill="none" stroke="#000" stroke-linecap="round" stroke-linejoin="round" stroke-miterlimit="10" stroke-width=".75" d="m98.31 238.02-8.56 15.38 8.56 15.39h17.13L124 253.4l-8.57-15.38Zm0 0"/>
  <use xlink:href="#e" x="173.7" y="333.23"/>
  <use xlink:href="#f" x="181.76" y="334.79"/>
  <use xlink:href="#g" x="185.83" y="334.79"/>
  <use xlink:href="#h" x="187.75" y="334.79"/>
  <use xlink:href="#i" x="131.15" y="311.89"/>
  <use xlink:href="#j" x="137.14" y="313.45"/>
  <use xlink:href="#i" x="131.15" y="355.29"/>
  <use xlink:href="#f" x="137.14" y="356.84"/>
</svg>
