<svg xmlns="http://www.w3.org/2000/svg" xmlns:xlink="http://www.w3.org/1999/xlink" viewBox="0 0 500 250">
  <defs>
    <path id="a" d="M7.88-.3C7.22-.33 7-.44 7-.8c0-.17.05-.4.22-1.03l.08-.26 1.3-4.77c.2-.62.37-.78.98-.86v-.3H6v.3l.4.06q.23.04.37.11.1.09.1.27c0 .16-.06.51-.1.73L6.2-4.47H3.33l.65-2.39c.2-.66.43-.83 1.2-.86v-.3H1.4v.3q.63.11.75.19.13.08.13.3t-.13.68L.67-1.15c-.19.6-.36.76-.95.85V0h3.55v-.3c-.77-.06-.88-.14-.88-.51 0-.19.05-.4.16-.77l.04-.2.6-2.16h2.86l-.77 2.78c-.16.64-.4.82-1.2.86V0h3.8Zm0 0"/>
    <path id="b" d="M2.6-1.69c-.5.7-.73.96-.94.96-.1 0-.2-.08-.2-.18q0-.25.27-1.2l1.74-6.26c-1.05.2-1.61.28-2.5.35v.33l.25-.01q.5 0 .5.33c0 .17-.16.87-.4 1.7L.45-2.5C.19-1.6.04-.9.04-.6c0 .41.3.7.8.7.72 0 1.2-.37 2.02-1.62Zm0 0"/>
    <path id="c" d="m1.33-7.72.39.06q.24.04.36.11.12.09.12.27c0 .16-.06.51-.12.73L.6-1.15c-.19.6-.38.77-.95.85V0H3.2v-.3c-.7-.04-.86-.14-.86-.5q0-.27.16-.86l.66-2.3h.36L4.8 0h2.42v-.3c-.69-.06-.8-.15-1.06-.86L5.17-4.1c.66-.14.96-.25 1.33-.5a2 2 0 0 0 .97-1.69q.02-1.72-2.83-1.72H1.33Zm2.65.61c.11-.42.22-.53.6-.53.69 0 1.08.42 1.08 1.14 0 .8-.33 1.53-.86 1.84-.32.2-.78.3-1.53.32Zm0 0"/>
    <path id="d" d="M3.67-8.02H1.33v.3c.65.06.76.13 1 .66L.89-2.14C.42-.56.33-.44-.33-.3V0h2.5v-.3c-.7-.06-.97-.25-.97-.7q0-.35.22-1.14l1.19-4.27L5.69.2h.34l1.7-6.08c.47-1.56.54-1.67 1.24-1.83v-.3H6.45v.3c.72.06.97.25.97.7q-.02.38-.22 1.13l-.95 3.45Zm0 0"/>
    <path id="g" d="M8.1-8.2h-.35c-.16.25-.27.34-.45.34-.1 0-.28-.03-.46-.1a5 5 0 0 0-1.57-.24C2.59-8.2.39-5.8.39-2.9.4-1.02 1.7.23 3.64.23a3.8 3.8 0 0 0 2.33-.78c.34-.27.55-.49.94-1l-.36-.27c-.61.7-.94.99-1.44 1.19q-.53.23-1.08.22c-1.12 0-1.8-.78-1.8-2.08 0-1.75.86-3.83 1.96-4.73q.65-.57 1.39-.57c.98 0 1.58.72 1.58 1.9 0 .17-.02.26-.04.42l.38.07Zm0 0"/>
    <path id="h" d="M8.92-8.02h-2.5v.3c.69.06.96.25.96.69 0 .2-.08.62-.22 1.14l-.7 2.51a6 6 0 0 1-.94 2.2q-.61.74-1.6.73c-.9 0-1.47-.46-1.47-1.22 0-.33.03-.46.35-1.6l.98-3.59c.2-.67.38-.83 1.13-.86v-.3H1.17v.3c.83.13.88.14.88.47 0 .14-.07.52-.17.9L1.2-3.87q-.4 1.5-.4 2.1c0 1.19 1.1 2 2.67 2q1.55 0 2.37-.97c.41-.45.68-1.1 1.07-2.4l.78-2.74c.48-1.58.56-1.7 1.23-1.83Zm0 0"/>
    <path id="i" d="M.33-4.87c.53.01.64.06.64.3C.97-4.29.59-2.87-.25 0H1.2l.57-1.75c.2-.66.28-.87.48-1.3.34-.72.78-1.28.98-1.28q.08 0 .2.16.25.3.54.3c.39 0 .69-.38.69-.88 0-.47-.27-.78-.68-.78-.6 0-1.1.6-2.06 2.5l.8-2.5c-.75.17-.9.2-2.4.33Zm0 0"/>
    <path id="j" d="M.03.22H.4C.53-.12.61-.2.84-.2q.15 0 .55.12c.6.2 1 .3 1.47.3C4.55.22 5.6-.73 5.6-2.2c0-1.07-.55-1.85-2.02-2.97-.73-.56-.92-.81-.92-1.36 0-.78.49-1.27 1.25-1.27.96 0 1.4.6 1.58 2l.33.05.47-2.4h-.36q-.15.3-.52.3c-.14 0-.31-.04-.6-.13-.5-.18-.84-.22-1.2-.22-1.35 0-2.4 1-2.4 2.3q0 .49.16.8.41.76 1.42 1.57c.95.72 1.36 1.26 1.36 1.83 0 .26-.08.56-.22.8q-.4.72-1.28.71A1.7 1.7 0 0 1 1.17-1 3 3 0 0 1 .8-2.44l-.35-.03Zm0 0"/>
    <path id="e" d="M3.6-.2c-.73 0-.88-.13-.88-.77V-5.6h-.14l-2.05.9v.2q.12-.03.16-.07c.22-.08.44-.14.53-.14q.3 0 .3.56v3.14c.01.68-.16.82-.97.82V0H3.6Zm0 0"/>
    <path id="f" d="M3.9-1.72h-.2c-.23.58-.33.63-1.17.64H1.31l1.32-1.26c.64-.61.93-1.16.93-1.78 0-.86-.62-1.49-1.51-1.49-.4 0-.8.16-1.08.45-.33.32-.49.6-.72 1.2h.23c.25-.5.55-.73.99-.73q.55 0 .81.46c.1.17.17.4.17.59 0 .36-.15.8-.42 1.2-.42.63-.7.99-1.89 2.25V0h3.4Zm0 0"/>
    <g id="k">
      <use xlink:href="#source-6" transform="matrix(.35984 0 0 .36037 404.95 445.38)"/>
      <path fill="#fff" fill-rule="evenodd" d="M267.22 643.66c-6.83 0-12.36 1.1-12.36 2.45s5.53 2.44 12.36 2.44 12.35-1.1 12.35-2.44c0-1.35-5.53-2.45-12.35-2.45"/>
      <path fill="none" stroke="#000" stroke-linecap="round" stroke-linejoin="round" stroke-miterlimit="10" stroke-width=".7501983999999999" d="M267.22 643.66c-6.83 0-12.36 1.1-12.36 2.45s5.53 2.44 12.36 2.44 12.35-1.1 12.35-2.44c0-1.35-5.53-2.45-12.35-2.45m0 0"/>
      <path fill="#fff" fill-rule="evenodd" d="M267.22 645.9c-6.83 0-12.36 1.1-12.36 2.46 0 1.34 5.53 2.44 12.36 2.44s12.35-1.1 12.35-2.44c0-1.35-5.53-2.45-12.35-2.45"/>
      <path fill="none" stroke="#000" stroke-linecap="round" stroke-linejoin="round" stroke-miterlimit="10" stroke-width=".7501983999999999" d="M267.22 645.9c-6.83 0-12.36 1.1-12.36 2.46 0 1.34 5.53 2.44 12.36 2.44s12.35-1.1 12.35-2.44c0-1.35-5.53-2.45-12.35-2.45m0 0"/>
      <path fill="#fff" fill-rule="evenodd" d="M267.22 648.16c-6.83 0-12.36 1.1-12.36 2.44 0 1.35 5.53 2.45 12.36 2.45s12.35-1.1 12.35-2.45-5.53-2.44-12.35-2.44"/>
      <path fill="none" stroke="#000" stroke-linecap="round" stroke-linejoin="round" stroke-miterlimit="10" stroke-width=".7501983999999999" d="M267.22 648.16c-6.83 0-12.36 1.1-12.36 2.44 0 1.35 5.53 2.45 12.36 2.45s12.35-1.1 12.35-2.45-5.53-2.44-12.35-2.44m0 0"/>
      <path fill="#fff" fill-rule="evenodd" d="M267.22 650.4c-6.83 0-12.36 1.1-12.36 2.45s5.53 2.45 12.36 2.45 12.35-1.1 12.35-2.45-5.53-2.45-12.35-2.45"/>
      <path fill="none" stroke="#000" stroke-linecap="round" stroke-linejoin="round" stroke-miterlimit="10" stroke-width=".7501983999999999" d="M267.22 650.4c-6.83 0-12.36 1.1-12.36 2.45s5.53 2.45 12.36 2.45 12.35-1.1 12.35-2.45-5.53-2.45-12.35-2.45m0 0"/>
      <path fill="#fff" fill-rule="evenodd" d="M267.22 652.65c-6.83 0-12.36 1.1-12.36 2.44 0 1.36 5.53 2.45 12.36 2.45s12.35-1.1 12.35-2.45c0-1.34-5.53-2.44-12.35-2.44"/>
      <path fill="none" stroke="#000" stroke-linecap="round" stroke-linejoin="round" stroke-miterlimit="10" stroke-width=".7501983999999999" d="M267.22 652.65c-6.83 0-12.36 1.1-12.36 2.44 0 1.36 5.53 2.45 12.36 2.45s12.35-1.1 12.35-2.45c0-1.34-5.53-2.44-12.35-2.44m0 0"/>
      <path fill="#fff" fill-rule="evenodd" d="M267.22 654.9c-6.83 0-12.36 1.1-12.36 2.44 0 1.35 5.53 2.45 12.36 2.45s12.35-1.1 12.35-2.45c0-1.34-5.53-2.45-12.35-2.45"/>
      <path fill="none" stroke="#000" stroke-linecap="round" stroke-linejoin="round" stroke-miterlimit="10" stroke-width=".7501983999999999" d="M267.22 654.9c-6.83 0-12.36 1.1-12.36 2.44 0 1.35 5.53 2.45 12.36 2.45s12.35-1.1 12.35-2.45c0-1.34-5.53-2.45-12.35-2.45m0 0"/>
      <path fill="#fff" fill-rule="evenodd" d="M267.22 657.14c-6.83 0-12.36 1.1-12.36 2.45s5.53 2.45 12.36 2.45 12.35-1.1 12.35-2.45-5.53-2.45-12.35-2.45"/>
      <path fill="none" stroke="#000" stroke-linecap="round" stroke-linejoin="round" stroke-miterlimit="10" stroke-width=".7501983999999999" d="M267.22 657.14c-6.83 0-12.36 1.1-12.36 2.45s5.53 2.45 12.36 2.45 12.35-1.1 12.35-2.45-5.53-2.45-12.35-2.45m0 0"/>
      <path fill="#fff" fill-rule="evenodd" d="M267.22 659.4c-6.83 0-12.36 1.09-12.36 2.44s5.53 2.44 12.36 2.44 12.35-1.1 12.35-2.44c0-1.35-5.53-2.45-12.35-2.45"/>
      <path fill="none" stroke="#000" stroke-linecap="round" stroke-linejoin="round" stroke-miterlimit="10" stroke-width=".7501983999999999" d="M267.22 659.4c-6.83 0-12.36 1.09-12.36 2.44s5.53 2.44 12.36 2.44 12.35-1.1 12.35-2.44c0-1.35-5.53-2.45-12.35-2.45m0 0"/>
      <path fill="#fff" fill-rule="evenodd" d="M267.22 661.64c-6.83 0-12.36 1.1-12.36 2.44 0 1.35 5.53 2.45 12.36 2.45s12.35-1.1 12.35-2.45-5.53-2.44-12.35-2.44"/>
      <path fill="none" stroke="#000" stroke-linecap="round" stroke-linejoin="round" stroke-miterlimit="10" stroke-width=".7501983999999999" d="M267.22 661.64c-6.83 0-12.36 1.1-12.36 2.44 0 1.35 5.53 2.45 12.36 2.45s12.35-1.1 12.35-2.45-5.53-2.44-12.35-2.44m0 0"/>
      <path fill="#fff" fill-rule="evenodd" d="M267.22 663.88c-6.83 0-12.36 1.1-12.36 2.45s5.53 2.45 12.36 2.45 12.35-1.1 12.35-2.45-5.53-2.45-12.35-2.45"/>
      <path fill="none" stroke="#000" stroke-linecap="round" stroke-linejoin="round" stroke-miterlimit="10" stroke-width=".7501983999999999" d="M267.22 663.88c-6.83 0-12.36 1.1-12.36 2.45s5.53 2.45 12.36 2.45 12.35-1.1 12.35-2.45-5.53-2.45-12.35-2.45m0 0"/>
      <path fill="#fff" fill-rule="evenodd" d="M267.22 666.13c-6.83 0-12.36 1.1-12.36 2.45s5.53 2.44 12.36 2.44 12.35-1.1 12.35-2.44c0-1.35-5.53-2.45-12.35-2.45"/>
      <path fill="none" stroke="#000" stroke-linecap="round" stroke-linejoin="round" stroke-miterlimit="10" stroke-width=".7501983999999999" d="M267.22 666.13c-6.83 0-12.36 1.1-12.36 2.45s5.53 2.44 12.36 2.44 12.35-1.1 12.35-2.44c0-1.35-5.53-2.45-12.35-2.45m0 0"/>
      <path fill="#fff" fill-rule="evenodd" d="M267.22 668.38c-6.83 0-12.36 1.1-12.36 2.44 0 1.35 5.53 2.45 12.36 2.45s12.35-1.1 12.35-2.45c0-1.34-5.53-2.44-12.35-2.44"/>
      <path fill="none" stroke="#000" stroke-linecap="round" stroke-linejoin="round" stroke-miterlimit="10" stroke-width=".7501983999999999" d="M267.22 668.38c-6.83 0-12.36 1.1-12.36 2.44 0 1.35 5.53 2.45 12.36 2.45s12.35-1.1 12.35-2.45c0-1.34-5.53-2.44-12.35-2.44m0 0"/>
      <path fill="#fff" fill-rule="evenodd" d="M267.22 670.63c-6.83 0-12.36 1.1-12.36 2.44 0 1.35 5.53 2.45 12.36 2.45s12.35-1.1 12.35-2.45-5.53-2.45-12.35-2.45"/>
      <path fill="none" stroke="#000" stroke-linecap="round" stroke-linejoin="round" stroke-miterlimit="10" stroke-width=".7501983999999999" d="M267.22 670.62c-6.83 0-12.36 1.1-12.36 2.45s5.53 2.45 12.36 2.45 12.35-1.1 12.35-2.45-5.53-2.45-12.35-2.45m0 0"/>
      <path fill="#fff" fill-rule="evenodd" d="M267.22 672.87c-6.83 0-12.36 1.1-12.36 2.45s5.53 2.45 12.36 2.45 12.35-1.1 12.35-2.45-5.53-2.45-12.35-2.45"/>
      <path fill="none" stroke="#000" stroke-linecap="round" stroke-linejoin="round" stroke-miterlimit="10" stroke-width=".7501983999999999" d="M267.22 672.87c-6.83 0-12.36 1.1-12.36 2.45s5.53 2.45 12.36 2.45 12.35-1.1 12.35-2.45-5.53-2.45-12.35-2.45m0 0"/>
      <path fill="#fff" fill-rule="evenodd" d="M267.22 675.12c-6.83 0-12.36 1.1-12.36 2.45 0 1.34 5.53 2.44 12.36 2.44s12.35-1.1 12.35-2.44c0-1.35-5.53-2.45-12.35-2.45"/>
      <path fill="none" stroke="#000" stroke-linecap="round" stroke-linejoin="round" stroke-miterlimit="10" stroke-width=".7501983999999999" d="M267.22 675.12c-6.83 0-12.36 1.1-12.36 2.45 0 1.34 5.53 2.44 12.36 2.44s12.35-1.1 12.35-2.44c0-1.35-5.53-2.45-12.35-2.45m0 0"/>
      <path fill="#fff" fill-rule="evenodd" d="M267.22 677.36c-6.83 0-12.36 1.1-12.36 2.45s5.53 2.45 12.36 2.45 12.35-1.1 12.35-2.45-5.53-2.45-12.35-2.45"/>
      <path fill="none" stroke="#000" stroke-linecap="round" stroke-linejoin="round" stroke-miterlimit="10" stroke-width=".7501983999999999" d="M267.22 677.36c-6.83 0-12.36 1.1-12.36 2.45s5.53 2.45 12.36 2.45 12.35-1.1 12.35-2.45-5.53-2.45-12.35-2.45m0 0"/>
      <path fill="#fff" fill-rule="evenodd" d="M267.22 679.61c-6.83 0-12.36 1.1-12.36 2.45s5.53 2.44 12.36 2.44 12.35-1.1 12.35-2.44c0-1.35-5.53-2.45-12.35-2.45"/>
      <path fill="none" stroke="#000" stroke-linecap="round" stroke-linejoin="round" stroke-miterlimit="10" stroke-width=".7501983999999999" d="M267.22 679.61c-6.83 0-12.36 1.1-12.36 2.45s5.53 2.44 12.36 2.44 12.35-1.1 12.35-2.44c0-1.35-5.53-2.45-12.35-2.45m0 0"/>
      <path fill="#fff" fill-rule="evenodd" d="M267.22 681.86c-6.83 0-12.36 1.1-12.36 2.44 0 1.36 5.53 2.45 12.36 2.45s12.35-1.1 12.35-2.45c0-1.34-5.53-2.44-12.35-2.44"/>
      <path fill="none" stroke="#000" stroke-linecap="round" stroke-linejoin="round" stroke-miterlimit="10" stroke-width=".7501983999999999" d="M267.22 681.86c-6.83 0-12.36 1.1-12.36 2.44 0 1.36 5.53 2.45 12.36 2.45s12.35-1.1 12.35-2.45c0-1.34-5.53-2.44-12.35-2.44m0 0"/>
      <path fill="#fff" fill-rule="evenodd" d="M267.22 684.1c-6.83 0-12.36 1.1-12.36 2.45s5.53 2.45 12.36 2.45 12.35-1.1 12.35-2.45c0-1.34-5.53-2.44-12.35-2.44"/>
      <path fill="none" stroke="#000" stroke-linecap="round" stroke-linejoin="round" stroke-miterlimit="10" stroke-width=".7501983999999999" d="M267.22 684.1c-6.83 0-12.36 1.1-12.36 2.45s5.53 2.45 12.36 2.45 12.35-1.1 12.35-2.45c0-1.34-5.53-2.44-12.35-2.44m0 0"/>
      <path fill="#fff" fill-rule="evenodd" d="M267.22 686.35c-6.83 0-12.36 1.1-12.36 2.45s5.53 2.45 12.36 2.45 12.35-1.1 12.35-2.45-5.53-2.45-12.35-2.45"/>
      <path fill="none" stroke="#000" stroke-linecap="round" stroke-linejoin="round" stroke-miterlimit="10" stroke-width=".7501983999999999" d="M267.22 686.35c-6.83 0-12.36 1.1-12.36 2.45s5.53 2.45 12.36 2.45 12.35-1.1 12.35-2.45-5.53-2.45-12.35-2.45m0 0"/>
      <path fill="none" stroke="#000" stroke-linecap="round" stroke-miterlimit="8" stroke-width=".7501983999999999" d="M108.05 739.53h56.18V657.9h-56.18Zm0 0"/>
      <path fill="none" stroke="#000" stroke-linecap="round" stroke-linejoin="round" stroke-miterlimit="8" stroke-width=".7501983999999999" d="m94.57 693.84 29.22.05M102.81 699.84l11.99.05"/>
      <path fill="#fff" fill-rule="evenodd" d="M93.82 698.89h32.21v-3.55h-32.2Zm0 0"/>
      <path fill="none" stroke="#000" stroke-linecap="round" stroke-miterlimit="8" stroke-width=".7501983999999999" d="M164.23 739.53h68.9V657.9h-68.9Zm0 0"/>
      <path fill="#fff" fill-rule="evenodd" d="M140.26 699.48h44.2v-5.64h-44.2Zm0 0"/>
      <path fill="none" stroke="#000" stroke-linecap="round" stroke-linejoin="round" stroke-miterlimit="8" stroke-width=".7501983999999999" d="M150.45 693.84h27.21M149.35 699.09h27.16"/>
      <path fill="#fff" fill-rule="evenodd" d="M267.21 687.85c-19.23 0-34.82 2.69-34.82 6 0 3.3 15.59 5.99 34.82 5.99 19.25 0 34.83-2.7 34.83-6s-15.58-5.99-34.83-5.99"/>
      <path fill="none" stroke="#000" stroke-linecap="round" stroke-linejoin="round" stroke-miterlimit="8" stroke-width=".7501983999999999" d="M267.21 687.85c-19.23 0-34.82 2.69-34.82 6 0 3.3 15.59 5.99 34.82 5.99 19.25 0 34.83-2.7 34.83-6s-15.58-5.99-34.83-5.99m0 0"/>
      <path fill="#fff" fill-rule="evenodd" d="M266.46 690.85c-19.23 0-34.82 2.69-34.82 5.99s15.59 6 34.82 6c19.25 0 34.83-2.7 34.83-6s-15.58-6-34.83-6"/>
      <path fill="none" stroke="#000" stroke-linecap="round" stroke-linejoin="round" stroke-miterlimit="8" stroke-width=".7501983999999999" d="M266.46 690.85c-19.23 0-34.82 2.69-34.82 5.99s15.59 6 34.82 6c19.25 0 34.83-2.7 34.83-6s-15.58-6-34.83-6m0 0"/>
      <path fill="#fff" fill-rule="evenodd" d="M267.21 693.84c-19.23 0-34.82 2.7-34.82 6s15.59 5.99 34.82 5.99c19.25 0 34.83-2.69 34.83-6 0-3.3-15.58-5.99-34.83-5.99"/>
      <path fill="none" stroke="#000" stroke-linecap="round" stroke-linejoin="round" stroke-miterlimit="8" stroke-width=".7501983999999999" d="M267.21 693.84c-19.23 0-34.82 2.7-34.82 6s15.59 5.99 34.82 5.99c19.25 0 34.83-2.69 34.83-6 0-3.3-15.58-5.99-34.83-5.99m0 0"/>
      <path fill="#fff" fill-rule="evenodd" d="M267.22 696.84c-6.83 0-12.36 1.1-12.36 2.45 0 1.34 5.53 2.44 12.36 2.44s12.35-1.1 12.35-2.44c0-1.35-5.53-2.45-12.35-2.45"/>
      <path fill="none" stroke="#000" stroke-linecap="round" stroke-linejoin="round" stroke-miterlimit="8" stroke-width=".7501983999999999" d="M267.22 696.84c-6.83 0-12.36 1.1-12.36 2.45 0 1.34 5.53 2.44 12.36 2.44s12.35-1.1 12.35-2.44c0-1.35-5.53-2.45-12.35-2.45m0 0"/>
      <path fill="#fff" fill-rule="evenodd" d="M267.22 699.09c-6.83 0-12.36 1.1-12.36 2.45 0 1.34 5.53 2.44 12.36 2.44s12.35-1.1 12.35-2.44c0-1.36-5.53-2.45-12.35-2.45"/>
      <path fill="none" stroke="#000" stroke-linecap="round" stroke-linejoin="round" stroke-miterlimit="8" stroke-width=".7501983999999999" d="M267.22 699.09c-6.83 0-12.36 1.1-12.36 2.45 0 1.34 5.53 2.44 12.36 2.44s12.35-1.1 12.35-2.44c0-1.36-5.53-2.45-12.35-2.45m0 0"/>
      <path fill="#fff" fill-rule="evenodd" d="M267.22 701.33c-6.83 0-12.36 1.1-12.36 2.45s5.53 2.45 12.36 2.45 12.35-1.1 12.35-2.45-5.53-2.45-12.35-2.45"/>
      <path fill="none" stroke="#000" stroke-linecap="round" stroke-linejoin="round" stroke-miterlimit="8" stroke-width=".7501983999999999" d="M267.22 701.33c-6.83 0-12.36 1.1-12.36 2.45s5.53 2.45 12.36 2.45 12.35-1.1 12.35-2.45-5.53-2.45-12.35-2.45m0 0"/>
      <path fill="#fff" fill-rule="evenodd" d="M267.22 703.58c-6.83 0-12.36 1.1-12.36 2.45s5.53 2.44 12.36 2.44 12.35-1.1 12.35-2.44c0-1.35-5.53-2.45-12.35-2.45"/>
      <path fill="none" stroke="#000" stroke-linecap="round" stroke-linejoin="round" stroke-miterlimit="8" stroke-width=".7501983999999999" d="M267.22 703.58c-6.83 0-12.36 1.1-12.36 2.45 0 1.34 5.53 2.44 12.36 2.44s12.35-1.1 12.35-2.44c0-1.35-5.53-2.45-12.35-2.45m0 0"/>
      <path fill="#fff" fill-rule="evenodd" d="M267.22 705.83c-6.83 0-12.36 1.1-12.36 2.44 0 1.35 5.53 2.45 12.36 2.45s12.35-1.1 12.35-2.45c0-1.34-5.53-2.44-12.35-2.44"/>
      <path fill="none" stroke="#000" stroke-linecap="round" stroke-linejoin="round" stroke-miterlimit="8" stroke-width=".7501983999999999" d="M267.22 705.83c-6.83 0-12.36 1.1-12.36 2.44 0 1.35 5.53 2.45 12.36 2.45s12.35-1.1 12.35-2.45c0-1.34-5.53-2.44-12.35-2.44m0 0"/>
      <path fill="#fff" fill-rule="evenodd" d="M267.22 708.07c-6.83 0-12.36 1.1-12.36 2.45s5.53 2.45 12.36 2.45 12.35-1.1 12.35-2.45-5.53-2.45-12.35-2.45"/>
      <path fill="none" stroke="#000" stroke-linecap="round" stroke-linejoin="round" stroke-miterlimit="8" stroke-width=".7501983999999999" d="M267.22 708.07c-6.83 0-12.36 1.1-12.36 2.45s5.53 2.45 12.36 2.45 12.35-1.1 12.35-2.45-5.53-2.45-12.35-2.45m0 0"/>
      <path fill="#fff" fill-rule="evenodd" d="M267.22 710.32c-6.83 0-12.36 1.1-12.36 2.45s5.53 2.44 12.36 2.44 12.35-1.1 12.35-2.44c0-1.35-5.53-2.45-12.35-2.45"/>
      <path fill="none" stroke="#000" stroke-linecap="round" stroke-linejoin="round" stroke-miterlimit="8" stroke-width=".7501983999999999" d="M267.22 710.32c-6.83 0-12.36 1.1-12.36 2.45s5.53 2.44 12.36 2.44 12.35-1.1 12.35-2.44c0-1.35-5.53-2.45-12.35-2.45m0 0"/>
      <path fill="#fff" fill-rule="evenodd" d="M267.22 712.57c-6.83 0-12.36 1.1-12.36 2.45 0 1.34 5.53 2.44 12.36 2.44s12.35-1.1 12.35-2.44c0-1.35-5.53-2.45-12.35-2.45"/>
      <path fill="none" stroke="#000" stroke-linecap="round" stroke-linejoin="round" stroke-miterlimit="8" stroke-width=".7501983999999999" d="M267.22 712.57c-6.83 0-12.36 1.1-12.36 2.45 0 1.34 5.53 2.44 12.36 2.44s12.35-1.1 12.35-2.44c0-1.35-5.53-2.45-12.35-2.45m0 0"/>
      <path fill="#fff" fill-rule="evenodd" d="M267.22 714.82c-6.83 0-12.36 1.1-12.36 2.44 0 1.35 5.53 2.45 12.36 2.45s12.35-1.1 12.35-2.45-5.53-2.44-12.35-2.44"/>
      <path fill="none" stroke="#000" stroke-linecap="round" stroke-linejoin="round" stroke-miterlimit="8" stroke-width=".7501983999999999" d="M267.22 714.82c-6.83 0-12.36 1.1-12.36 2.44 0 1.35 5.53 2.45 12.36 2.45s12.35-1.1 12.35-2.45-5.53-2.44-12.35-2.44m0 0"/>
      <path fill="#fff" fill-rule="evenodd" d="M267.22 717.06c-6.83 0-12.36 1.1-12.36 2.45s5.53 2.45 12.36 2.45 12.35-1.1 12.35-2.45-5.53-2.45-12.35-2.45"/>
      <path fill="none" stroke="#000" stroke-linecap="round" stroke-linejoin="round" stroke-miterlimit="8" stroke-width=".7501983999999999" d="M267.22 717.06c-6.83 0-12.36 1.1-12.36 2.45s5.53 2.45 12.36 2.45 12.35-1.1 12.35-2.45-5.53-2.45-12.35-2.45m0 0"/>
      <path fill="#fff" fill-rule="evenodd" d="M267.22 719.3c-6.83 0-12.36 1.1-12.36 2.46s5.53 2.44 12.36 2.44 12.35-1.1 12.35-2.44c0-1.35-5.53-2.45-12.35-2.45"/>
      <path fill="none" stroke="#000" stroke-linecap="round" stroke-linejoin="round" stroke-miterlimit="8" stroke-width=".7501983999999999" d="M267.22 719.3c-6.83 0-12.36 1.1-12.36 2.46s5.53 2.44 12.36 2.44 12.35-1.1 12.35-2.44c0-1.35-5.53-2.45-12.35-2.45m0 0"/>
      <path fill="#fff" fill-rule="evenodd" d="M267.22 721.55c-6.83 0-12.36 1.1-12.36 2.45s5.53 2.45 12.36 2.45 12.35-1.1 12.35-2.45c0-1.34-5.53-2.45-12.35-2.45"/>
      <path fill="none" stroke="#000" stroke-linecap="round" stroke-linejoin="round" stroke-miterlimit="8" stroke-width=".7501983999999999" d="M267.22 721.55c-6.83 0-12.36 1.1-12.36 2.45s5.53 2.45 12.36 2.45 12.35-1.1 12.35-2.45c0-1.34-5.53-2.45-12.35-2.45m0 0"/>
      <path fill="#fff" fill-rule="evenodd" d="M267.22 723.8c-6.83 0-12.36 1.1-12.36 2.45s5.53 2.45 12.36 2.45 12.35-1.1 12.35-2.45-5.53-2.45-12.35-2.45"/>
      <path fill="none" stroke="#000" stroke-linecap="round" stroke-linejoin="round" stroke-miterlimit="8" stroke-width=".7501983999999999" d="M267.22 723.8c-6.83 0-12.36 1.1-12.36 2.45s5.53 2.45 12.36 2.45 12.35-1.1 12.35-2.45-5.53-2.45-12.35-2.45m0 0"/>
      <path fill="#fff" fill-rule="evenodd" d="M267.22 726.05c-6.83 0-12.36 1.1-12.36 2.45 0 1.34 5.53 2.44 12.36 2.44s12.35-1.1 12.35-2.44c0-1.35-5.53-2.45-12.35-2.45"/>
      <path fill="none" stroke="#000" stroke-linecap="round" stroke-linejoin="round" stroke-miterlimit="8" stroke-width=".7501983999999999" d="M267.22 726.05c-6.83 0-12.36 1.1-12.36 2.45 0 1.34 5.53 2.44 12.36 2.44s12.35-1.1 12.35-2.44c0-1.35-5.53-2.45-12.35-2.45m0 0"/>
      <path fill="#fff" fill-rule="evenodd" d="M267.22 728.3c-6.83 0-12.36 1.1-12.36 2.44 0 1.35 5.53 2.45 12.36 2.45s12.35-1.1 12.35-2.45-5.53-2.44-12.35-2.44"/>
      <path fill="none" stroke="#000" stroke-linecap="round" stroke-linejoin="round" stroke-miterlimit="8" stroke-width=".7501983999999999" d="M267.22 728.3c-6.83 0-12.36 1.1-12.36 2.44 0 1.35 5.53 2.45 12.36 2.45s12.35-1.1 12.35-2.45-5.53-2.44-12.35-2.44m0 0"/>
      <path fill="#fff" fill-rule="evenodd" d="M267.22 730.54c-6.83 0-12.36 1.1-12.36 2.45s5.53 2.45 12.36 2.45 12.35-1.1 12.35-2.45-5.53-2.45-12.35-2.45"/>
      <path fill="none" stroke="#000" stroke-linecap="round" stroke-linejoin="round" stroke-miterlimit="8" stroke-width=".7501983999999999" d="M267.22 730.54c-6.83 0-12.36 1.1-12.36 2.45s5.53 2.45 12.36 2.45 12.35-1.1 12.35-2.45-5.53-2.45-12.35-2.45m0 0"/>
      <path fill="#fff" fill-rule="evenodd" d="M267.22 732.79c-6.83 0-12.36 1.1-12.36 2.45s5.53 2.44 12.36 2.44 12.35-1.1 12.35-2.44c0-1.35-5.53-2.45-12.35-2.45"/>
      <path fill="none" stroke="#000" stroke-linecap="round" stroke-linejoin="round" stroke-miterlimit="8" stroke-width=".7501983999999999" d="M267.22 732.79c-6.83 0-12.36 1.1-12.36 2.45s5.53 2.44 12.36 2.44 12.35-1.1 12.35-2.44c0-1.35-5.53-2.45-12.35-2.45m0 0"/>
      <path fill="#fff" fill-rule="evenodd" d="M267.22 735.04c-6.83 0-12.36 1.1-12.36 2.44 0 1.35 5.53 2.45 12.36 2.45s12.35-1.1 12.35-2.45c0-1.34-5.53-2.44-12.35-2.44"/>
      <path fill="none" stroke="#000" stroke-linecap="round" stroke-linejoin="round" stroke-miterlimit="8" stroke-width=".7501983999999999" d="M267.22 735.04c-6.83 0-12.36 1.1-12.36 2.44 0 1.35 5.53 2.45 12.36 2.45s12.35-1.1 12.35-2.45c0-1.34-5.53-2.44-12.35-2.44m0 0"/>
      <path fill="#fff" fill-rule="evenodd" d="M267.22 737.29c-6.83 0-12.36 1.1-12.36 2.44 0 1.35 5.53 2.45 12.36 2.45s12.35-1.1 12.35-2.45-5.53-2.44-12.35-2.44"/>
      <path fill="none" stroke="#000" stroke-linecap="round" stroke-linejoin="round" stroke-miterlimit="8" stroke-width=".7501983999999999" d="M267.22 737.29c-6.83 0-12.36 1.1-12.36 2.44 0 1.35 5.53 2.45 12.36 2.45s12.35-1.1 12.35-2.45-5.53-2.44-12.35-2.44m0 0"/>
      <path fill="#fff" fill-rule="evenodd" d="M267.22 739.53c-6.83 0-12.36 1.1-12.36 2.45s5.53 2.45 12.36 2.45 12.35-1.1 12.35-2.45-5.53-2.45-12.35-2.45"/>
      <path fill="none" stroke="#000" stroke-linecap="round" stroke-linejoin="round" stroke-miterlimit="8" stroke-width=".7501983999999999" d="M267.22 739.53c-6.83 0-12.36 1.1-12.36 2.45s5.53 2.45 12.36 2.45 12.35-1.1 12.35-2.45-5.53-2.45-12.35-2.45M255.6 741.78v16.48M244.37 758.26h20.22M248.12 762l11.98.05M251.86 765.75l6.74.05M278.82 644.41v-22.47"/>
      <path fill="#fff" fill-rule="evenodd" d="M279.95 575.5a22.84 22.84 0 1 0-.01 45.68 22.84 22.84 0 0 0 .01-45.68"/>
      <path fill="none" stroke="#000" stroke-linecap="round" stroke-linejoin="round" stroke-miterlimit="8" stroke-width=".7501983999999999" d="M279.95 575.5a22.84 22.84 0 1 0-.01 45.68 22.84 22.84 0 0 0 .01-45.68m0 0"/>
      <path fill="none" stroke="#000" stroke-dasharray="1.43808 1.91744" stroke-linecap="round" stroke-linejoin="round" stroke-miterlimit="8" stroke-width=".47936" d="M302.8 598.72h45.68"/>
      <path fill="none" stroke="#000" stroke-linecap="round" stroke-linejoin="round" stroke-miterlimit="8" stroke-width=".47936" d="m111.05 751.52 241.93-.7"/>
      <path d="M340.74 600.72v147.3a.5.5 0 0 1-.5.5.5.5 0 0 1-.5-.5v-147.3c0-.28.22-.5.5-.5s.5.22.5.5m-4.42 5.74 3.92-6.73 3.93 6.73a.5.5 0 0 1-.18.68.5.5 0 0 1-.68-.18l-3.5-6h.86l-3.5 6a.5.5 0 0 1-.67.18.5.5 0 0 1-.18-.68m7.85 135.82-3.93 6.73-3.92-6.73a.5.5 0 0 1 .18-.68.5.5 0 0 1 .68.18l3.5 5.99h-.87l3.5-6a.5.5 0 1 1 .86.5"/>
      <path fill="none" stroke="#000" stroke-dasharray="1.43808 1.91744" stroke-linecap="round" stroke-linejoin="round" stroke-miterlimit="8" stroke-width=".47936" d="M279.57 644.41h45.7M275.83 743.28h45.69"/>
      <path d="m315.28 648.65.05 93.38a.5.5 0 0 1-.5.5.5.5 0 0 1-.5-.5l-.05-93.38c0-.27.22-.5.5-.5.27 0 .5.23.5.5m-4.43 5.74 3.93-6.73 3.93 6.73a.5.5 0 0 1-.87.5l-3.5-5.99h.87l-3.5 6a.5.5 0 0 1-.68.17.5.5 0 0 1-.18-.68m7.9 81.9-3.92 6.73-3.94-6.73c-.14-.24-.05-.54.18-.68a.5.5 0 0 1 .7.18l3.48 5.99h-.85l3.48-6a.5.5 0 0 1 .7-.17.5.5 0 0 1 .17.68"/>
      <use xlink:href="#a" x="343.03" y="682.07"/>
      <use xlink:href="#b" x="318.55" y="692.61"/>
      <path d="m279.18 596.92 1.8-2.4a.5.5 0 0 1 .8.6l-1.8 2.4a.5.5 0 0 1-.7.1.5.5 0 0 1-.1-.7m4.19-5.59 1.8-2.4a.5.5 0 0 1 .7-.1.5.5 0 0 1 .1.7l-1.8 2.4a.5.5 0 0 1-.8-.6m4.2-5.6 1.79-2.39a.5.5 0 0 1 .7-.1.5.5 0 0 1 .1.7l-1.8 2.4a.5.5 0 0 1-.7.1.5.5 0 0 1-.1-.7m-.5-3.49 5.98-3-1.2 6.6"/>
      <use xlink:href="#c" x="272.97" y="591.43"/>
      <use xlink:href="#d" x="215.88" y="696.45"/>
      <use xlink:href="#e" x="224.53" y="697.89"/>
      <use xlink:href="#d" x="281.12" y="672.48"/>
      <use xlink:href="#f" x="289.77" y="673.92"/>
      <use xlink:href="#g" x="178.46" y="701.72"/>
      <use xlink:href="#e" x="186.61" y="703.16"/>
      <use xlink:href="#h" x="80.12" y="696.45"/>
      <use xlink:href="#e" x="88.75" y="697.89"/>
      <path fill="#fff" fill-rule="evenodd" d="M154.5 683.36h19.46V644.4H154.5Zm0 0"/>
      <path d="m163.77 682.06-10.48-23.97a.5.5 0 0 1 .25-.66.5.5 0 0 1 .66.26l10.49 23.97a.5.5 0 0 1-.26.66.5.5 0 0 1-.66-.26m3.2-1.4a3 3 0 1 1-5.5 2.4 3 3 0 0 1 5.5-2.4M151 659.09a3 3 0 1 1 5.49-2.39 3 3 0 0 1-5.5 2.39"/>
      <path d="m163.02 680.16 1.2-2.75a.5.5 0 0 1 .92.4l-1.2 2.75a.5.5 0 0 1-.66.26.5.5 0 0 1-.26-.66m2.78-6.41L167 671c.1-.26.4-.37.64-.26.27.12.38.4.27.65l-1.2 2.76a.5.5 0 0 1-.66.26.5.5 0 0 1-.25-.66m2.78-6.41 1.2-2.76a.5.5 0 0 1 .65-.26c.25.11.37.41.26.66l-1.19 2.75a.5.5 0 0 1-.66.26.5.5 0 0 1-.26-.65m2.78-6.42 1.19-2.75a.5.5 0 0 1 .66-.26c.25.11.37.4.26.66l-1.2 2.75a.5.5 0 0 1-.65.26.5.5 0 0 1-.26-.66m-5.13 20.63a3 3 0 1 1-5.5-2.38 3 3 0 0 1 5.5 2.38m4.24-24.85a3 3 0 1 1 5.48 2.38 3 3 0 0 1-5.48-2.38M268.34 697.84h3c.27 0 .5.22.5.5a.5.5 0 0 1-.5.5h-3a.5.5 0 0 1-.5-.5c0-.28.22-.5.5-.5m6.99 0h3c.28 0 .5.22.5.5a.5.5 0 0 1-.5.5h-3a.5.5 0 0 1-.5-.5c0-.28.22-.5.5-.5m6.99 0h3c.27 0 .5.22.5.5a.5.5 0 0 1-.5.5h-3a.5.5 0 0 1-.5-.5c0-.28.22-.5.5-.5m6.99 0h3a.5.5 0 1 1 0 1h-3a.5.5 0 0 1-.5-.5c0-.28.22-.5.5-.5m5.24-2.5 6 3-6 3"/>
      <use xlink:href="#i" x="284.98" y="715.17"/>
      <use xlink:href="#j" x="262.91" y="752.59"/>
      <text x="126.17" y="629.8" style="font-size:12px;font-family:&quot;Times New Roman&quot;">Фиг. 1</text>
    </g>
  </defs>
  <use xlink:href="#k" transform="translate(0 -560)"/>
</svg>
