<?xml version="1.0" encoding="UTF-8"?>
<svg xmlns="http://www.w3.org/2000/svg" xmlns:xlink="http://www.w3.org/1999/xlink" width="841.92" height="595.2" viewBox="0 0 841.92 595.2">
<g fill="none" stroke-width="0.898611" stroke-linecap="square" stroke="rgb(0%, 100%, 0%)" transform="matrix(0.261853, 0, 0, -0.217503, 0.525101, 594.401074)">
<path d="M 578.577795 589.193248 L 578.577795 2349.355253 "/>
<path d="M 607.324261 589.193248 L 607.324261 2349.355253 "/>
<path d="M 636.115479 589.193248 L 636.115479 2349.355253 "/>
<path d="M 664.876862 589.193248 L 664.876862 2349.355253 "/>
<path d="M 693.623327 589.193248 L 693.623327 2349.355253 "/>
<path d="M 722.399628 589.193248 L 722.399628 2349.355253 "/>
<path d="M 751.16101 589.193248 L 751.16101 2349.355253 "/>
<path d="M 779.922393 589.193248 L 779.922393 2349.355253 "/>
<path d="M 808.683776 589.193248 L 808.683776 2349.355253 "/>
<path d="M 866.206542 589.193248 L 866.206542 2349.355253 "/>
<path d="M 894.967925 589.193248 L 894.967925 2349.355253 "/>
<path d="M 923.759143 589.193248 L 923.759143 2349.355253 "/>
<path d="M 952.520526 589.193248 L 952.520526 2349.355253 "/>
<path d="M 981.266991 589.193248 L 981.266991 2349.355253 "/>
<path d="M 1010.013456 589.193248 L 1010.013456 2349.355253 "/>
<path d="M 1038.819593 589.193248 L 1038.819593 2349.355253 "/>
<path d="M 1067.566058 589.193248 L 1067.566058 2349.355253 "/>
<path d="M 1096.327441 589.193248 L 1096.327441 2349.355253 "/>
<path d="M 1153.865124 589.193248 L 1153.865124 2349.355253 "/>
<path d="M 1182.626507 589.193248 L 1182.626507 2349.355253 "/>
<path d="M 1211.372972 589.193248 L 1211.372972 2349.355253 "/>
<path d="M 1240.16419 589.193248 L 1240.16419 2349.355253 "/>
<path d="M 1268.925573 589.193248 L 1268.925573 2349.355253 "/>
<path d="M 1297.686956 589.193248 L 1297.686956 2349.355253 "/>
<path d="M 1326.463257 589.193248 L 1326.463257 2349.355253 "/>
<path d="M 1355.22464 589.193248 L 1355.22464 2349.355253 "/>
<path d="M 1383.986023 589.193248 L 1383.986023 2349.355253 "/>
<path d="M 1441.508788 589.193248 L 1441.508788 2349.355253 "/>
<path d="M 1470.270171 589.193248 L 1470.270171 2349.355253 "/>
<path d="M 1499.031554 589.193248 L 1499.031554 2349.355253 "/>
<path d="M 1527.807855 589.193248 L 1527.807855 2349.355253 "/>
<path d="M 1556.569238 589.193248 L 1556.569238 2349.355253 "/>
<path d="M 1585.315703 589.193248 L 1585.315703 2349.355253 "/>
<path d="M 1614.077086 589.193248 L 1614.077086 2349.355253 "/>
<path d="M 1642.853386 589.193248 L 1642.853386 2349.355253 "/>
<path d="M 1671.614769 589.193248 L 1671.614769 2349.355253 "/>
<path d="M 1728.272307 589.193248 L 1728.272307 2349.355253 "/>
<path d="M 1757.018772 589.193248 L 1757.018772 2349.355253 "/>
<path d="M 1785.780155 589.193248 L 1785.780155 2349.355253 "/>
<path d="M 1814.52662 589.193248 L 1814.52662 2349.355253 "/>
<path d="M 1843.317838 589.193248 L 1843.317838 2349.355253 "/>
<path d="M 1872.064303 589.193248 L 1872.064303 2349.355253 "/>
<path d="M 1900.840604 589.193248 L 1900.840604 2349.355253 "/>
<path d="M 1929.616905 589.193248 L 1929.616905 2349.355253 "/>
<path d="M 1958.378288 589.193248 L 1958.378288 2349.355253 "/>
<path d="M 2015.915971 589.193248 L 2015.915971 2349.355253 "/>
<path d="M 2044.677354 589.193248 L 2044.677354 2349.355253 "/>
<path d="M 2073.423819 589.193248 L 2073.423819 2349.355253 "/>
<path d="M 2102.185202 589.193248 L 2102.185202 2349.355253 "/>
<path d="M 2130.97642 589.193248 L 2130.97642 2349.355253 "/>
<path d="M 2159.722885 589.193248 L 2159.722885 2349.355253 "/>
<path d="M 2188.484268 589.193248 L 2188.484268 2349.355253 "/>
<path d="M 2217.260569 589.193248 L 2217.260569 2349.355253 "/>
<path d="M 2246.021952 589.193248 L 2246.021952 2349.355253 "/>
<path d="M 2303.544718 589.193248 L 2303.544718 2349.355253 "/>
<path d="M 2332.321018 589.193248 L 2332.321018 2349.355253 "/>
<path d="M 2361.082401 589.193248 L 2361.082401 2349.355253 "/>
<path d="M 2389.828866 589.193248 L 2389.828866 2349.355253 "/>
<path d="M 2418.605167 589.193248 L 2418.605167 2349.355253 "/>
<path d="M 2447.36655 589.193248 L 2447.36655 2349.355253 "/>
<path d="M 2476.127933 589.193248 L 2476.127933 2349.355253 "/>
<path d="M 2504.889316 589.193248 L 2504.889316 2349.355253 "/>
<path d="M 2533.680534 589.193248 L 2533.680534 2349.355253 "/>
<path d="M 2591.173464 589.193248 L 2591.173464 2349.355253 "/>
<path d="M 2619.964683 589.193248 L 2619.964683 2349.355253 "/>
<path d="M 2648.726065 589.193248 L 2648.726065 2349.355253 "/>
<path d="M 2677.487448 589.193248 L 2677.487448 2349.355253 "/>
<path d="M 2706.233914 589.193248 L 2706.233914 2349.355253 "/>
<path d="M 2735.025132 589.193248 L 2735.025132 2349.355253 "/>
<path d="M 2763.771597 589.193248 L 2763.771597 2349.355253 "/>
<path d="M 2792.53298 589.193248 L 2792.53298 2349.355253 "/>
<path d="M 2821.324198 589.193248 L 2821.324198 2349.355253 "/>
</g>
<g fill="none" stroke-width="0.898611" stroke-linecap="square" stroke="rgb(0%, 0%, 100%)" transform="matrix(0.261853, 0, 0, -0.217503, 0.525101, 594.401074)">
<path d="M 837.460077 589.193248 L 837.460077 2349.355253 "/>
<path d="M 1125.103741 589.193248 L 1125.103741 2349.355253 "/>
<path d="M 1412.732488 589.193248 L 1412.732488 2349.355253 "/>
<path d="M 1700.376152 589.193248 L 1700.376152 2349.355253 "/>
<path d="M 1987.124753 589.193248 L 1987.124753 2349.355253 "/>
<path d="M 2274.783335 589.193248 L 2274.783335 2349.355253 "/>
<path d="M 2562.426999 589.193248 L 2562.426999 2349.355253 "/>
</g>
<g transform="matrix(1.25,0,0,1,0,0)" font-size="13px" font-family="Arial">
<text x="112" y="487.85919">0</text>
<text x="165" y="487.85919">500</text>
<text x="222" y="487.85919">1000</text>
<text x="281" y="487.85919">1500</text>
<text x="342" y="487.85919">2000</text>
<text x="402" y="487.85919">2500</text>
<text x="463" y="487.85919">3000</text>
<text x="523" y="487.85919">3500</text>
<text x="583" y="487.85919">4000</text>
<text x="83" y="431.543238">-1.0</text>
<text x="83" y="354.897795">-0.5</text>
<text x="87" y="278.445193">0.0</text>
<text x="87" y="201.799749">0.5</text>
<text x="87" y="125.15141">1.0</text>
</g>
<g fill="none" stroke-width="6.3" stroke="rgb(0%, 0%, 0%)" transform="matrix(0.261853, 0, 0, -0.217503, 0.525101, 594.401074)">
<path d="M 549.368881 559.057117 L 549.368881 589.642237 "/>
<path d="M 578.130264 574.340697 L 578.130264 589.642237 "/>
<path d="M 606.876729 574.340697 L 606.876729 589.642237 "/>
<path d="M 635.653029 574.340697 L 635.653029 589.642237 "/>
<path d="M 664.414412 574.340697 L 664.414412 589.642237 "/>
<path d="M 693.175795 574.340697 L 693.175795 589.642237 "/>
<path d="M 721.967013 574.340697 L 721.967013 589.642237 "/>
<path d="M 750.713479 574.340697 L 750.713479 589.642237 "/>
<path d="M 779.459944 574.340697 L 779.459944 589.642237 "/>
<path d="M 808.221327 574.340697 L 808.221327 589.642237 "/>
<path d="M 837.012545 559.057117 L 837.012545 589.642237 "/>
<path d="M 865.773928 574.340697 L 865.773928 589.642237 "/>
<path d="M 894.535311 574.340697 L 894.535311 589.642237 "/>
<path d="M 923.311611 574.340697 L 923.311611 589.642237 "/>
<path d="M 952.072994 574.340697 L 952.072994 589.642237 "/>
<path d="M 980.819459 574.340697 L 980.819459 589.642237 "/>
<path d="M 1009.580842 574.340697 L 1009.580842 589.642237 "/>
<path d="M 1038.357143 574.340697 L 1038.357143 589.642237 "/>
<path d="M 1067.118526 574.340697 L 1067.118526 589.642237 "/>
<path d="M 1095.879909 574.340697 L 1095.879909 589.642237 "/>
<path d="M 1124.671127 559.057117 L 1124.671127 589.642237 "/>
<path d="M 1153.417592 574.340697 L 1153.417592 589.642237 "/>
<path d="M 1182.164057 574.340697 L 1182.164057 589.642237 "/>
<path d="M 1210.92544 574.340697 L 1210.92544 589.642237 "/>
<path d="M 1239.716659 574.340697 L 1239.716659 589.642237 "/>
<path d="M 1268.478041 574.340697 L 1268.478041 589.642237 "/>
<path d="M 1297.224507 574.340697 L 1297.224507 589.642237 "/>
<path d="M 1326.015725 574.340697 L 1326.015725 589.642237 "/>
<path d="M 1354.76219 574.340697 L 1354.76219 589.642237 "/>
<path d="M 1383.523573 574.340697 L 1383.523573 589.642237 "/>
<path d="M 1412.284956 559.057117 L 1412.284956 589.642237 "/>
<path d="M 1441.076174 574.340697 L 1441.076174 589.642237 "/>
<path d="M 1469.822639 574.340697 L 1469.822639 589.642237 "/>
<path d="M 1498.569105 574.340697 L 1498.569105 589.642237 "/>
<path d="M 1527.375241 574.340697 L 1527.375241 589.642237 "/>
<path d="M 1556.121706 574.340697 L 1556.121706 589.642237 "/>
<path d="M 1584.883089 574.340697 L 1584.883089 589.642237 "/>
<path d="M 1613.629554 574.340697 L 1613.629554 589.642237 "/>
<path d="M 1642.420772 574.340697 L 1642.420772 589.642237 "/>
<path d="M 1671.182155 574.340697 L 1671.182155 589.642237 "/>
<path d="M 1699.913703 559.057117 L 1699.913703 589.642237 "/>
<path d="M 1727.824775 574.340697 L 1727.824775 589.642237 "/>
<path d="M 1756.57124 574.340697 L 1756.57124 589.642237 "/>
<path d="M 1785.332623 574.340697 L 1785.332623 589.642237 "/>
<path d="M 1814.094006 574.340697 L 1814.094006 589.642237 "/>
<path d="M 1842.870306 574.340697 L 1842.870306 589.642237 "/>
<path d="M 1871.631689 574.340697 L 1871.631689 589.642237 "/>
<path d="M 1900.378154 574.340697 L 1900.378154 589.642237 "/>
<path d="M 1929.169373 574.340697 L 1929.169373 589.642237 "/>
<path d="M 1957.915838 574.340697 L 1957.915838 589.642237 "/>
<path d="M 1986.677221 559.057117 L 1986.677221 589.642237 "/>
<path d="M 2015.453521 574.340697 L 2015.453521 589.642237 "/>
<path d="M 2044.229822 574.340697 L 2044.229822 589.642237 "/>
<path d="M 2072.976287 574.340697 L 2072.976287 589.642237 "/>
<path d="M 2101.722752 574.340697 L 2101.722752 589.642237 "/>
<path d="M 2130.513971 574.340697 L 2130.513971 589.642237 "/>
<path d="M 2159.275354 574.340697 L 2159.275354 589.642237 "/>
<path d="M 2188.036736 574.340697 L 2188.036736 589.642237 "/>
<path d="M 2216.813037 574.340697 L 2216.813037 589.642237 "/>
<path d="M 2245.57442 574.340697 L 2245.57442 589.642237 "/>
<path d="M 2274.320885 559.057117 L 2274.320885 589.642237 "/>
<path d="M 2303.082268 574.340697 L 2303.082268 589.642237 "/>
<path d="M 2331.873486 574.340697 L 2331.873486 589.642237 "/>
<path d="M 2360.634869 574.340697 L 2360.634869 589.642237 "/>
<path d="M 2389.381334 574.340697 L 2389.381334 589.642237 "/>
<path d="M 2418.172553 574.340697 L 2418.172553 589.642237 "/>
<path d="M 2446.933936 574.340697 L 2446.933936 589.642237 "/>
<path d="M 2475.665483 574.340697 L 2475.665483 589.642237 "/>
<path d="M 2504.441784 574.340697 L 2504.441784 589.642237 "/>
<path d="M 2533.218084 574.340697 L 2533.218084 589.642237 "/>
<path d="M 2561.979467 559.057117 L 2561.979467 589.642237 "/>
<path d="M 2590.74085 574.340697 L 2590.74085 589.642237 "/>
<path d="M 2619.517151 574.340697 L 2619.517151 589.642237 "/>
<path d="M 2648.278534 574.340697 L 2648.278534 589.642237 "/>
<path d="M 2677.024999 574.340697 L 2677.024999 589.642237 "/>
<path d="M 2705.786382 574.340697 L 2705.786382 589.642237 "/>
<path d="M 2734.562682 574.340697 L 2734.562682 589.642237 "/>
<path d="M 2763.324065 574.340697 L 2763.324065 589.642237 "/>
<path d="M 2792.085448 574.340697 L 2792.085448 589.642237 "/>
<path d="M 2820.876666 574.340697 L 2820.876666 589.642237 "/>
<path d="M 2849.623132 559.057117 L 2849.623132 589.642237 "/>
<path d="M 549.368881 589.642237 L 2849.623132 589.642237 "/>
<path d="M 534.093125 589.642237 L 549.368881 589.642237 "/>
<path d="M 518.802452 765.843421 L 549.368881 765.843421 "/>
<path d="M 534.093125 942.026645 L 549.368881 942.026645 "/>
<path d="M 518.802452 1118.227829 L 549.368881 1118.227829 "/>
<path d="M 534.093125 1294.429013 L 549.368881 1294.429013 "/>
<path d="M 518.802452 1469.732219 L 549.368881 1469.732219 "/>
<path d="M 534.093125 1645.915443 L 549.368881 1645.915443 "/>
<path d="M 518.802452 1822.116627 L 549.368881 1822.116627 "/>
<path d="M 534.093125 1998.317811 L 549.368881 1998.317811 "/>
<path d="M 518.802452 2174.518995 L 549.368881 2174.518995 "/>
<path d="M 534.093125 2350.702219 L 549.368881 2350.702219 "/>
<path d="M 549.368881 589.642237 L 549.368881 2350.702219 "/>
<path d="M 549.368881 2350.702219 L 549.368881 2320.153018 "/>
<path d="M 578.130264 2350.702219 L 578.130264 2335.436599 "/>
<path d="M 606.876729 2350.702219 L 606.876729 2335.436599 "/>
<path d="M 635.653029 2350.702219 L 635.653029 2335.436599 "/>
<path d="M 664.414412 2350.702219 L 664.414412 2335.436599 "/>
<path d="M 693.175795 2350.702219 L 693.175795 2335.436599 "/>
<path d="M 721.967013 2350.702219 L 721.967013 2335.436599 "/>
<path d="M 750.713479 2350.702219 L 750.713479 2335.436599 "/>
<path d="M 779.459944 2350.702219 L 779.459944 2335.436599 "/>
<path d="M 808.221327 2350.702219 L 808.221327 2335.436599 "/>
<path d="M 837.012545 2350.702219 L 837.012545 2320.153018 "/>
<path d="M 865.773928 2350.702219 L 865.773928 2335.436599 "/>
<path d="M 894.535311 2350.702219 L 894.535311 2335.436599 "/>
<path d="M 923.311611 2350.702219 L 923.311611 2335.436599 "/>
<path d="M 952.072994 2350.702219 L 952.072994 2335.436599 "/>
<path d="M 980.819459 2350.702219 L 980.819459 2335.436599 "/>
<path d="M 1009.580842 2350.702219 L 1009.580842 2335.436599 "/>
<path d="M 1038.357143 2350.702219 L 1038.357143 2335.436599 "/>
<path d="M 1067.118526 2350.702219 L 1067.118526 2335.436599 "/>
<path d="M 1095.879909 2350.702219 L 1095.879909 2335.436599 "/>
<path d="M 1124.671127 2350.702219 L 1124.671127 2320.153018 "/>
<path d="M 1153.417592 2350.702219 L 1153.417592 2335.436599 "/>
<path d="M 1182.164057 2350.702219 L 1182.164057 2335.436599 "/>
<path d="M 1210.92544 2350.702219 L 1210.92544 2335.436599 "/>
<path d="M 1239.716659 2350.702219 L 1239.716659 2335.436599 "/>
<path d="M 1268.478041 2350.702219 L 1268.478041 2335.436599 "/>
<path d="M 1297.224507 2350.702219 L 1297.224507 2335.436599 "/>
<path d="M 1326.015725 2350.702219 L 1326.015725 2335.436599 "/>
<path d="M 1354.76219 2350.702219 L 1354.76219 2335.436599 "/>
<path d="M 1383.523573 2350.702219 L 1383.523573 2335.436599 "/>
<path d="M 1412.284956 2350.702219 L 1412.284956 2320.153018 "/>
<path d="M 1441.076174 2350.702219 L 1441.076174 2335.436599 "/>
<path d="M 1469.822639 2350.702219 L 1469.822639 2335.436599 "/>
<path d="M 1498.569105 2350.702219 L 1498.569105 2335.436599 "/>
<path d="M 1527.375241 2350.702219 L 1527.375241 2335.436599 "/>
<path d="M 1556.121706 2350.702219 L 1556.121706 2335.436599 "/>
<path d="M 1584.883089 2350.702219 L 1584.883089 2335.436599 "/>
<path d="M 1613.629554 2350.702219 L 1613.629554 2335.436599 "/>
<path d="M 1642.420772 2350.702219 L 1642.420772 2335.436599 "/>
<path d="M 1671.182155 2350.702219 L 1671.182155 2335.436599 "/>
<path d="M 1699.913703 2350.702219 L 1699.913703 2320.153018 "/>
<path d="M 1727.824775 2350.702219 L 1727.824775 2335.436599 "/>
<path d="M 1756.57124 2350.702219 L 1756.57124 2335.436599 "/>
<path d="M 1785.332623 2350.702219 L 1785.332623 2335.436599 "/>
<path d="M 1814.094006 2350.702219 L 1814.094006 2335.436599 "/>
<path d="M 1842.870306 2350.702219 L 1842.870306 2335.436599 "/>
<path d="M 1871.631689 2350.702219 L 1871.631689 2335.436599 "/>
<path d="M 1900.378154 2350.702219 L 1900.378154 2335.436599 "/>
<path d="M 1929.169373 2350.702219 L 1929.169373 2335.436599 "/>
<path d="M 1957.915838 2350.702219 L 1957.915838 2335.436599 "/>
<path d="M 1986.677221 2350.702219 L 1986.677221 2320.153018 "/>
<path d="M 2015.453521 2350.702219 L 2015.453521 2335.436599 "/>
<path d="M 2044.229822 2350.702219 L 2044.229822 2335.436599 "/>
<path d="M 2072.976287 2350.702219 L 2072.976287 2335.436599 "/>
<path d="M 2101.722752 2350.702219 L 2101.722752 2335.436599 "/>
<path d="M 2130.513971 2350.702219 L 2130.513971 2335.436599 "/>
<path d="M 2159.275354 2350.702219 L 2159.275354 2335.436599 "/>
<path d="M 2188.036736 2350.702219 L 2188.036736 2335.436599 "/>
<path d="M 2216.813037 2350.702219 L 2216.813037 2335.436599 "/>
<path d="M 2245.57442 2350.702219 L 2245.57442 2335.436599 "/>
<path d="M 2274.320885 2350.702219 L 2274.320885 2320.153018 "/>
<path d="M 2303.082268 2350.702219 L 2303.082268 2335.436599 "/>
<path d="M 2331.873486 2350.702219 L 2331.873486 2335.436599 "/>
<path d="M 2360.634869 2350.702219 L 2360.634869 2335.436599 "/>
<path d="M 2389.381334 2350.702219 L 2389.381334 2335.436599 "/>
<path d="M 2418.172553 2350.702219 L 2418.172553 2335.436599 "/>
<path d="M 2446.933936 2350.702219 L 2446.933936 2335.436599 "/>
<path d="M 2475.665483 2350.702219 L 2475.665483 2335.436599 "/>
<path d="M 2504.441784 2350.702219 L 2504.441784 2335.436599 "/>
<path d="M 2533.218084 2350.702219 L 2533.218084 2335.436599 "/>
<path d="M 2561.979467 2350.702219 L 2561.979467 2320.153018 "/>
<path d="M 2590.74085 2350.702219 L 2590.74085 2335.436599 "/>
<path d="M 2619.517151 2350.702219 L 2619.517151 2335.436599 "/>
<path d="M 2648.278534 2350.702219 L 2648.278534 2335.436599 "/>
<path d="M 2677.024999 2350.702219 L 2677.024999 2335.436599 "/>
<path d="M 2705.786382 2350.702219 L 2705.786382 2335.436599 "/>
<path d="M 2734.562682 2350.702219 L 2734.562682 2335.436599 "/>
<path d="M 2763.324065 2350.702219 L 2763.324065 2335.436599 "/>
<path d="M 2792.085448 2350.702219 L 2792.085448 2335.436599 "/>
<path d="M 2820.876666 2350.702219 L 2820.876666 2335.436599 "/>
<path d="M 2849.623132 2350.702219 L 2849.623132 2320.153018 "/>
<path d="M 549.368881 2350.702219 L 2849.623132 2350.702219 "/>
<path d="M 2849.623132 589.642237 L 2849.623132 589.642237 "/>
<path d="M 2849.623132 765.843421 L 2849.623132 765.843421 "/>
<path d="M 2849.623132 942.026645 L 2849.623132 942.026645 "/>
<path d="M 2849.623132 1118.227829 L 2849.623132 1118.227829 "/>
<path d="M 2849.623132 1294.429013 L 2849.623132 1294.429013 "/>
<path d="M 2849.623132 1469.732219 L 2849.623132 1469.732219 "/>
<path d="M 2849.623132 1645.915443 L 2849.623132 1645.915443 "/>
<path d="M 2849.623132 1822.116627 L 2849.623132 1822.116627 "/>
<path d="M 2849.623132 1998.317811 L 2849.623132 1998.317811 "/>
<path d="M 2849.623132 2174.518995 L 2849.623132 2174.518995 "/>
<path d="M 2849.623132 2350.702219 L 2849.623132 2350.702219 "/>
<path d="M 2849.623132 589.642237 L 2849.623132 2350.702219 "/>
</g>
<g fill="none" stroke-width="0.898611" stroke="rgb(0%, 0%, 0%)" transform="matrix(0.261853, 0, 0, -0.217503, 0.525101, 594.401074)">
<path d="M 550 1464 L 550 1525 L 551 1520 L 551 1525 L 552 1520 L 552 1525 L 553 1520 L 553 1525 L 554 1520 L 554 1520 L 555 1520 L 555 1520 L 556 1520 L 556 1520 L 557 1520 L 557 1525 L 558 1520 L 558 1525 L 559 1520 L 559 1520 L 560 1520 L 560 1520 L 561 1520 L 561 1520 L 562 1513 L 562 1520 L 563 1520 L 563 1520 L 564 1520 L 564 1525 L 565 1520 L 565 1520 L 566 1520 L 566 1520 L 567 1520 L 567 1520 L 568 1520 L 568 1520 L 569 1520 L 569 1520 L 570 1520 L 570 1520 L 571 1520 L 571 1520 L 572 1520 L 572 1520 L 573 1520 L 573 1520 L 574 1520 L 574 1520 L 575 1520 L 575 1525 L 576 1520 L 576 1520 L 577 1520 L 577 1520 L 578 1520 L 578 1520 L 579 1520 L 579 1525 L 580 1520 L 580 1525 L 581 1520 L 581 1520 L 582 1520 L 582 1525 L 583 1520 L 583 1525 L 584 1520 L 584 1520 L 585 1520 L 585 1525 L 586 1520 L 586 1525 L 587 1520 L 587 1520 L 588 1520 L 588 1525 L 589 1520 L 589 1525 L 590 1520 L 590 1525 L 591 1520 L 591 1520 L 592 1520 L 592 1525 L 593 1520 L 593 1520 L 594 1520 L 594 1520 L 595 1520 L 595 1520 L 596 1520 L 596 1525 L 597 1520 L 597 1525 L 598 1520 L 598 1520 L 599 1520 L 599 1520 L 600 1520 L 600 1520 L 601 1520 L 601 1520 L 602 1520 L 602 1520 L 603 1520 L 603 1520 L 604 1520 L 604 1520 L 605 1520 L 605 1520 L 606 1513 L 606 1520 L 607 1520 L 607 1520 L 608 1520 L 608 1520 L 609 1520 L 609 1520 L 610 1520 L 610 1520 L 611 1520 L 611 1520 L 612 1520 L 612 1520 L 613 1520 L 613 1525 L 614 1520 L 614 1525 L 615 1520 L 615 1525 L 616 1520 L 616 1525 L 617 1513 L 617 1525 L 618 1520 L 618 1520 L 619 1520 L 619 1525 L 620 1520 L 620 1525 L 621 1520 L 621 1525 L 622 1520 L 622 1525 L 623 1520 L 623 1525 L 624 1520 L 624 1525 L 625 1520 L 625 1520 L 626 1520 L 626 1525 L 627 1520 L 627 1525 L 628 1520 L 628 1520 L 629 1520 L 629 1520 L 630 1520 L 630 1525 L 631 1520 L 631 1520 L 632 1520 L 632 1520 L 633 1520 L 633 1525 L 634 1513 L 634 1520 L 635 1520 L 635 1520 L 636 1520 L 636 1525 L 637 1520 L 637 1520 L 638 1513 L 638 1520 L 639 1520 L 639 1525 L 640 1520 L 640 1520 L 641 1520 L 641 1520 L 642 1520 L 642 1520 L 643 1520 L 643 1520 L 644 1520 L 644 1520 L 645 1520 L 645 1525 L 646 1520 L 646 1525 L 647 1520 L 647 1520 L 648 1520 L 648 1525 L 649 1520 L 649 1525 L 650 1520 L 650 1525 L 651 1520 L 651 1525 L 652 1520 L 652 1525 L 653 1520 L 653 1525 L 654 1520 L 654 1525 L 655 1520 L 655 1525 L 656 1520 L 656 1525 L 657 1520 L 657 1520 L 658 1520 L 658 1525 L 659 1520 L 659 1525 L 660 1520 L 660 1525 L 661 1520 L 661 1525 L 662 1520 L 662 1525 L 663 1520 L 663 1520 L 664 1520 L 664 1525 L 665 1520 L 665 1525 L 666 1520 L 666 1525 L 667 1520 L 667 1520 L 668 1520 L 668 1520 L 669 1520 L 669 1520 L 670 1520 L 670 1520 L 671 1520 L 671 1520 L 672 1520 L 672 1520 L 673 1520 L 673 1520 L 674 1520 L 674 1525 L 675 1520 L 675 1525 L 676 1520 L 676 1525 L 677 1513 L 677 1525 L 678 1520 L 678 1525 L 679 1520 L 679 1520 L 680 1520 L 680 1520 L 681 1520 L 681 1525 L 682 1520 L 682 1520 L 683 1520 L 683 1520 L 684 1520 L 684 1520 L 685 1520 L 685 1525 L 686 1520 L 686 1520 L 687 1520 L 687 1525 L 688 1520 L 688 1525 L 689 1520 L 689 1520 L 690 1520 L 690 1525 L 691 1520 L 691 1525 L 692 1520 L 692 1525 L 693 1520 L 693 1525 L 694 1520 L 694 1525 L 695 1520 L 695 1525 L 696 1520 L 696 1525 L 697 1520 L 697 1525 L 698 1520 L 698 1525 L 699 1520 L 699 1525 L 700 1520 L 700 1520 L 701 1520 L 701 1525 L 702 765 L 702 1866 L 703 765 L 703 2169 L 704 1101 L 704 1860 L 705 1123 L 705 1850 L 706 1101 L 706 1783 L 707 1250 L 707 1822 L 708 1299 L 708 1833 L 709 1282 L 709 1695 L 710 1332 L 710 1728 L 711 1414 L 711 1613 L 712 1370 L 712 1712 L 713 1370 L 713 1580 L 714 1481 L 714 1640 L 715 1437 L 715 1580 L 716 1459 L 716 1624 L 717 1453 L 717 1619 L 718 1426 L 718 1601 L 719 1426 L 719 1668 L 720 1432 L 720 1574 L 721 1459 L 721 1596 L 722 1432 L 722 1591 L 723 1459 L 723 1569 L 724 1459 L 724 1569 L 725 1508 L 725 1557 L 726 1486 L 726 1552 L 727 1476 L 727 1569 L 728 1503 L 728 1552 L 729 1476 L 729 1552 L 730 1492 L 730 1557 L 731 1497 L 731 1536 L 732 1508 L 732 1552 L 733 1486 L 733 1536 L 734 1503 L 734 1541 L 735 1503 L 735 1530 L 736 1503 L 736 1525 L 737 1508 L 737 1536 L 738 1508 L 738 1536 L 739 1497 L 739 1536 L 740 1508 L 740 1520 L 741 1508 L 741 1536 L 742 1508 L 742 1530 L 743 1508 L 743 1530 L 744 1513 L 744 1536 L 745 1508 L 745 1536 L 746 1513 L 746 1530 L 747 1508 L 747 1525 L 748 1508 L 748 1525 L 749 1513 L 749 1525 L 750 1520 L 750 1530 L 751 1513 L 751 1525 L 752 1513 L 752 1525 L 753 1508 L 753 1525 L 754 1513 L 754 1525 L 755 1513 L 755 1525 L 756 1513 L 756 1525 L 757 1513 L 757 1530 L 758 1513 L 758 1525 L 759 1520 L 759 1525 L 760 1513 L 760 1525 L 761 1520 L 761 1525 L 762 1520 L 762 1525 L 763 1513 L 763 1525 L 764 1520 L 764 1525 L 765 1520 L 765 1525 L 766 1520 L 766 1525 L 767 1513 L 767 1520 L 768 1520 L 768 1525 L 769 1520 L 769 1520 L 770 1520 L 770 1525 L 771 1520 L 771 1525 L 772 1520 L 772 1520 L 773 1520 L 773 1525 L 774 1513 L 774 1520 L 775 1520 L 775 1525 L 776 1520 L 776 1525 L 777 1520 L 777 1525 L 778 1520 L 778 1525 L 779 1520 L 779 1525 L 780 1520 L 780 1520 L 781 1520 L 781 1525 L 782 1520 L 782 1520 L 783 1520 L 783 1525 L 784 1520 L 784 1525 L 785 1520 L 785 1525 L 786 1520 L 786 1520 L 787 1520 L 787 1520 L 788 1520 L 788 1520 L 789 1520 L 789 1525 L 790 1520 L 790 1520 L 791 1520 L 791 1525 L 792 1520 L 792 1525 L 793 1520 L 793 1525 L 794 1520 L 794 1525 L 795 1520 L 795 1525 L 796 1520 L 796 1525 L 797 1520 L 797 1525 L 798 1520 L 798 1520 L 799 1520 L 799 1525 L 800 1520 L 800 1525 L 801 1520 L 801 1525 L 802 1520 L 802 1520 L 803 1520 L 803 1520 L 804 1520 L 804 1520 L 805 1520 L 805 1525 L 806 1520 L 806 1525 L 807 1520 L 807 1525 L 808 1520 L 808 1520 L 809 1520 L 809 1520 L 810 1520 L 810 1525 L 811 1520 L 811 1520 L 812 1520 L 812 1525 L 813 1520 L 813 1525 L 814 1520 L 814 1525 L 815 1520 L 815 1520 L 816 1520 L 816 1520 L 817 1520 L 817 1525 L 818 1520 L 818 1525 L 819 1520 L 819 1525 L 820 1520 L 820 1525 L 821 1520 L 821 1525 L 822 1520 L 822 1525 L 823 1520 L 823 1525 L 824 1520 L 824 1520 L 825 1520 L 825 1520 L 826 1520 L 826 1525 L 827 1520 L 827 1525 L 828 1520 L 828 1525 L 829 1520 L 829 1520 L 830 1520 L 830 1520 L 831 1520 L 831 1520 L 832 1520 L 832 1520 L 833 1520 L 833 1520 L 834 1520 L 834 1520 L 835 1520 L 835 1520 L 836 1520 L 836 1520 L 837 1520 L 837 1520 L 838 1520 L 838 1525 L 839 1520 L 839 1520 L 840 1520 L 840 1525 L 841 1520 L 841 1520 L 842 1520 L 842 1520 L 843 1520 L 843 1525 L 844 1520 L 844 1520 L 845 1520 L 845 1520 L 846 1520 L 846 1525 L 847 1520 L 847 1525 L 848 1520 L 848 1520 L 849 1520 L 849 1520 L 850 1520 L 850 1525 L 851 1520 L 851 1520 L 852 1520 L 852 1520 L 853 1520 L 853 1520 L 854 1520 L 854 1520 L 855 1520 L 855 1520 L 856 1520 L 856 1520 L 857 1520 L 857 1525 L 858 1520 L 858 1520 L 859 1520 L 859 1525 L 860 1520 L 860 1525 L 861 1520 L 861 1520 L 862 1520 L 862 1525 L 863 1520 L 863 1520 L 864 1520 L 864 1525 L 865 1520 L 865 1520 L 866 1520 L 866 1520 L 867 765 L 867 2169 L 868 765 L 868 2169 L 869 1145 L 869 1827 L 870 1085 L 870 1883 L 871 1112 L 871 1717 L 872 1250 L 872 1839 L 873 1194 L 873 1954 L 874 1271 L 874 1756 L 875 1349 L 875 1668 L 876 1432 L 876 1707 L 877 1432 L 877 1673 L 878 1393 L 878 1624 L 879 1442 L 879 1596 L 880 1464 L 880 1645 L 881 1398 L 881 1619 L 882 1409 L 882 1635 L 883 1365 L 883 1668 L 884 1426 L 884 1629 L 885 1459 L 885 1585 L 886 1437 L 886 1585 L 887 1437 L 887 1591 L 888 1459 L 888 1574 L 889 1432 L 889 1591 L 890 1448 L 890 1569 L 891 1492 L 891 1536 L 892 1486 L 892 1557 L 893 1486 L 893 1564 L 894 1486 L 894 1547 L 895 1476 L 895 1569 L 896 1486 L 896 1547 L 897 1503 L 897 1541 L 898 1508 L 898 1547 L 899 1486 L 899 1547 L 900 1503 L 900 1530 L 901 1503 L 901 1536 L 902 1503 L 902 1536 L 903 1492 L 903 1536 L 904 1508 L 904 1541 L 905 1503 L 905 1536 L 906 1508 L 906 1536 L 907 1503 L 907 1536 L 908 1508 L 908 1536 L 909 1508 L 909 1536 L 910 1508 L 910 1530 L 911 1513 L 911 1530 L 912 1513 L 912 1530 L 913 1508 L 913 1525 L 914 1513 L 914 1530 L 915 1513 L 915 1530 L 916 1513 L 916 1530 L 917 1513 L 917 1530 L 918 1513 L 918 1525 L 919 1513 L 919 1525 L 920 1513 L 920 1525 L 921 1513 L 921 1530 L 922 1520 L 922 1530 L 923 1513 L 923 1525 L 924 1520 L 924 1525 L 925 1520 L 925 1525 L 926 1513 L 926 1525 L 927 1513 L 927 1525 L 928 1520 L 928 1525 L 929 1520 L 929 1525 L 930 1513 L 930 1520 L 931 1520 L 931 1525 L 932 1520 L 932 1525 L 933 1520 L 933 1525 L 934 1520 L 934 1525 L 935 1520 L 935 1525 L 936 1520 L 936 1525 L 937 1520 L 937 1520 L 938 1520 L 938 1525 L 939 1520 L 939 1525 L 940 1520 L 940 1525 L 941 1520 L 941 1525 L 942 1520 L 942 1525 L 943 1520 L 943 1520 L 944 1513 L 944 1525 L 945 1513 L 945 1520 L 946 1520 L 946 1525 L 947 1520 L 947 1520 L 948 1520 L 948 1520 L 949 1520 L 949 1525 L 950 1520 L 950 1520 L 951 1520 L 951 1520 L 952 1520 L 952 1520 L 953 1520 L 953 1520 L 954 1520 L 954 1520 L 955 1520 L 955 1520 L 956 1513 L 956 1520 L 957 1513 L 957 1520 L 958 1520 L 958 1520 L 959 1520 L 959 1520 L 960 1520 L 960 1520 L 961 1520 L 961 1525 L 962 1520 L 962 1520 L 963 1520 L 963 1525 L 964 1520 L 964 1525 L 965 1520 L 965 1525 L 966 1520 L 966 1525 L 967 1520 L 967 1525 L 968 1520 L 968 1520 L 969 1520 L 969 1525 L 970 1520 L 970 1525 L 971 1520 L 971 1520 L 972 1520 L 972 1520 L 973 1520 L 973 1525 L 974 1520 L 974 1525 L 975 1520 L 975 1525 L 976 1520 L 976 1525 L 977 1520 L 977 1525 L 978 1520 L 978 1525 L 979 1520 L 979 1525 L 980 1520 L 980 1525 L 981 1520 L 981 1525 L 982 1520 L 982 1525 L 983 1520 L 983 1525 L 984 1520 L 984 1520 L 985 1520 L 985 1525 L 986 1520 L 986 1525 L 987 1520 L 987 1520 L 988 1520 L 988 1520 L 989 1520 L 989 1525 L 990 1520 L 990 1520 L 991 1520 L 991 1525 L 992 1520 L 992 1520 L 993 1520 L 993 1520 L 994 1520 L 994 1520 L 995 1520 L 995 1520 L 996 1520 L 996 1520 L 997 1520 L 997 1520 L 998 1520 L 998 1525 L 999 1520 L 999 1525 L 1000 1520 L 1000 1520 L 1001 1520 L 1001 1520 L 1002 1520 L 1002 1520 L 1003 1520 L 1003 1520 L 1004 1520 L 1004 1520 L 1005 1520 L 1005 1525 L 1006 1520 L 1006 1520 L 1007 1520 L 1007 1520 L 1008 1520 L 1008 1525 L 1009 1520 L 1009 1525 L 1010 1520 L 1010 1520 L 1011 1520 L 1011 1525 L 1012 1520 L 1012 1525 L 1013 1520 L 1013 1520 L 1014 1520 L 1014 1520 L 1015 1520 L 1015 1520 L 1016 1520 L 1016 1520 L 1017 765 L 1017 2169 L 1018 765 L 1018 2169 L 1019 1261 L 1019 1778 L 1020 1162 L 1020 1805 L 1021 1194 L 1021 1684 L 1022 1332 L 1022 1789 L 1023 1338 L 1023 1772 L 1024 1299 L 1024 1701 L 1025 1382 L 1025 1695 L 1026 1426 L 1026 1663 L 1027 1420 L 1027 1663 L 1028 1409 L 1028 1585 L 1029 1448 L 1029 1596 L 1030 1469 L 1030 1640 L 1031 1453 L 1031 1608 L 1032 1437 L 1032 1580 L 1033 1409 L 1033 1601 L 1034 1448 L 1034 1645 L 1035 1464 L 1035 1585 L 1036 1453 L 1036 1564 L 1037 1453 L 1037 1569 L 1038 1492 L 1038 1557 L 1039 1464 L 1039 1569 L 1040 1464 L 1040 1557 L 1041 1486 L 1041 1557 L 1042 1486 L 1042 1569 L 1043 1503 L 1043 1547 L 1044 1497 L 1044 1536 L 1045 1503 L 1045 1552 L 1046 1492 L 1046 1541 L 1047 1508 L 1047 1530 L 1048 1513 L 1048 1547 L 1049 1492 L 1049 1530 L 1050 1520 L 1050 1541 L 1051 1503 L 1051 1536 L 1052 1508 L 1052 1530 L 1053 1503 L 1053 1530 L 1054 1497 L 1054 1536 L 1055 1508 L 1055 1530 L 1056 1508 L 1056 1530 L 1057 1508 L 1057 1530 L 1058 1513 L 1058 1525 L 1059 1513 L 1059 1530 L 1060 1508 L 1060 1530 L 1061 1513 L 1061 1530 L 1062 1508 L 1062 1525 L 1063 1513 L 1063 1530 L 1064 1513 L 1064 1530 L 1065 1513 L 1065 1530 L 1066 1513 L 1066 1530 L 1067 1508 L 1067 1525 L 1068 1513 L 1068 1525 L 1069 1513 L 1069 1525 L 1070 1520 L 1070 1530 L 1071 1513 L 1071 1525 L 1072 1520 L 1072 1525 L 1073 1513 L 1073 1520 L 1074 1520 L 1074 1520 L 1075 1520 L 1075 1525 L 1076 1520 L 1076 1525 L 1077 1513 L 1077 1525 L 1078 1520 L 1078 1525 L 1079 1520 L 1079 1525 L 1080 1520 L 1080 1525 L 1081 1520 L 1081 1525 L 1082 1520 L 1082 1525 L 1083 1520 L 1083 1525 L 1084 1520 L 1084 1525 L 1085 1520 L 1085 1525 L 1086 1520 L 1086 1525 L 1087 1520 L 1087 1525 L 1088 1520 L 1088 1525 L 1089 1520 L 1089 1525 L 1090 1520 L 1090 1525 L 1091 1520 L 1091 1525 L 1092 1520 L 1092 1520 L 1093 1520 L 1093 1525 L 1094 1520 L 1094 1520 L 1095 1520 L 1095 1525 L 1096 1520 L 1096 1525 L 1097 1520 L 1097 1525 L 1098 1520 L 1098 1520 L 1099 1520 L 1099 1520 L 1100 1520 L 1100 1520 L 1101 1520 L 1101 1525 L 1102 1520 L 1102 1525 L 1103 1520 L 1103 1525 L 1104 1520 L 1104 1525 L 1105 1520 L 1105 1520 L 1106 1520 L 1106 1525 L 1107 1520 L 1107 1525 L 1108 1520 L 1108 1525 L 1109 1520 L 1109 1525 L 1110 1520 L 1110 1520 L 1111 1520 L 1111 1520 L 1112 1520 L 1112 1525 L 1113 1520 L 1113 1525 L 1114 1520 L 1114 1520 L 1115 1520 L 1115 1525 L 1116 1520 L 1116 1525 L 1117 1520 L 1117 1520 L 1118 1520 L 1118 1520 L 1119 1520 L 1119 1520 L 1120 1520 L 1120 1520 L 1121 1520 L 1121 1520 L 1122 1520 L 1122 1520 L 1123 1520 L 1123 1525 L 1124 1520 L 1124 1520 L 1125 1520 L 1125 1520 L 1126 1520 L 1126 1520 L 1127 1520 L 1127 1525 L 1128 1520 L 1128 1525 L 1129 1520 L 1129 1520 L 1130 1520 L 1130 1520 L 1131 1520 L 1131 1525 L 1132 1520 L 1132 1520 L 1133 1520 L 1133 1525 L 1134 1520 L 1134 1520 L 1135 1520 L 1135 1520 L 1136 1520 L 1136 1520 L 1137 1520 L 1137 1520 L 1138 1520 L 1138 1525 L 1139 1520 L 1139 1525 L 1140 1520 L 1140 1525 L 1141 1520 L 1141 1525 L 1142 1520 L 1142 1525 L 1143 1520 L 1143 1525 L 1144 1520 L 1144 1525 L 1145 1520 L 1145 1520 L 1146 1520 L 1146 1525 L 1147 1520 L 1147 1525 L 1148 1520 L 1148 1525 L 1149 1520 L 1149 1520 L 1150 1520 L 1150 1520 L 1151 1520 L 1151 1520 L 1152 1513 L 1152 1520 L 1153 1520 L 1153 1525 L 1154 1513 L 1154 1520 L 1155 765 L 1155 2141 L 1156 765 L 1156 2169 L 1157 1085 L 1157 1938 L 1158 1194 L 1158 1673 L 1159 1343 L 1159 1767 L 1160 1326 L 1160 1811 L 1161 1277 L 1161 1756 L 1162 1326 L 1162 1673 L 1163 1387 L 1163 1712 L 1164 1404 L 1164 1619 L 1165 1420 L 1165 1673 L 1166 1398 L 1166 1645 L 1167 1492 L 1167 1624 L 1168 1453 L 1168 1613 L 1169 1459 L 1169 1601 L 1170 1432 L 1170 1613 L 1171 1442 L 1171 1596 L 1172 1459 L 1172 1613 L 1173 1453 L 1173 1585 L 1174 1448 L 1174 1585 L 1175 1459 L 1175 1574 L 1176 1464 L 1176 1557 L 1177 1464 L 1177 1564 L 1178 1497 L 1178 1564 L 1179 1476 L 1179 1557 L 1180 1492 L 1180 1557 L 1181 1503 L 1181 1541 L 1182 1497 L 1182 1536 L 1183 1492 L 1183 1552 L 1184 1497 L 1184 1536 L 1185 1508 L 1185 1547 L 1186 1492 L 1186 1525 L 1187 1508 L 1187 1541 L 1188 1503 L 1188 1530 L 1189 1503 L 1189 1536 L 1190 1508 L 1190 1530 L 1191 1508 L 1191 1530 L 1192 1503 L 1192 1530 L 1193 1503 L 1193 1536 L 1194 1508 L 1194 1530 L 1195 1513 L 1195 1530 L 1196 1513 L 1196 1530 L 1197 1513 L 1197 1530 L 1198 1508 L 1198 1525 L 1199 1513 L 1199 1530 L 1200 1513 L 1200 1525 L 1201 1513 L 1201 1525 L 1202 1513 L 1202 1530 L 1203 1513 L 1203 1530 L 1204 1513 L 1204 1525 L 1205 1513 L 1205 1530 L 1206 1513 L 1206 1525 L 1207 1513 L 1207 1525 L 1208 1520 L 1208 1525 L 1209 1513 L 1209 1525 L 1210 1513 L 1210 1530 L 1211 1520 L 1211 1525 L 1212 1520 L 1212 1525 L 1213 1520 L 1213 1520 L 1214 1520 L 1214 1525 L 1215 1520 L 1215 1525 L 1216 1520 L 1216 1525 L 1217 1520 L 1217 1525 L 1218 1520 L 1218 1525 L 1219 1520 L 1219 1520 L 1220 1513 L 1220 1525 L 1221 1520 L 1221 1525 L 1222 1513 L 1222 1520 L 1223 1520 L 1223 1525 L 1224 1520 L 1224 1525 L 1225 1520 L 1225 1520 L 1226 1520 L 1226 1525 L 1227 1520 L 1227 1520 L 1228 1520 L 1228 1525 L 1229 1513 L 1229 1525 L 1230 1520 L 1230 1525 L 1231 1520 L 1231 1520 L 1232 1520 L 1232 1525 L 1233 1520 L 1233 1520 L 1234 1520 L 1234 1525 L 1235 1520 L 1235 1525 L 1236 1520 L 1236 1525 L 1237 1520 L 1237 1525 L 1238 1520 L 1238 1525 L 1239 1520 L 1239 1520 L 1240 1520 L 1240 1520 L 1241 1520 L 1241 1525 L 1242 1520 L 1242 1520 L 1243 1513 L 1243 1520 L 1244 1520 L 1244 1525 L 1245 1520 L 1245 1520 L 1246 1520 L 1246 1520 L 1247 1520 L 1247 1520 L 1248 1520 L 1248 1520 L 1249 1520 L 1249 1520 L 1250 1520 L 1250 1520 L 1251 1520 L 1251 1520 L 1252 1520 L 1252 1520 L 1253 1520 L 1253 1525 L 1254 1520 L 1254 1520 L 1255 1520 L 1255 1525 L 1256 1520 L 1256 1525 L 1257 1520 L 1257 1520 L 1258 1520 L 1258 1525 L 1259 1520 L 1259 1520 L 1260 1520 L 1260 1525 L 1261 1520 L 1261 1525 L 1262 1520 L 1262 1525 L 1263 1513 L 1263 1525 L 1264 1508 L 1264 1525 L 1265 1513 L 1265 1520 L 1266 1513 L 1266 1530 L 1267 1520 L 1267 1530 L 1268 1520 L 1268 1530 L 1269 1520 L 1269 1530 L 1270 1513 L 1270 1530 L 1271 1513 L 1271 1525 L 1272 1513 L 1272 1525 L 1273 1513 L 1273 1525 L 1274 1520 L 1274 1525 L 1275 1520 L 1275 1525 L 1276 1520 L 1276 1525 L 1277 1513 L 1277 1520 L 1278 1513 L 1278 1525 L 1279 1520 L 1279 1525 L 1280 1520 L 1280 1525 L 1281 1520 L 1281 1525 L 1282 765 L 1282 2169 L 1283 1095 L 1283 1850 L 1284 1245 L 1284 1827 L 1285 1238 L 1285 1717 L 1286 1360 L 1286 1734 L 1287 1332 L 1287 1751 L 1288 1332 L 1288 1645 L 1289 1376 L 1289 1717 L 1290 1376 L 1290 1635 L 1291 1404 L 1291 1663 L 1292 1432 L 1292 1624 L 1293 1442 L 1293 1613 L 1294 1481 L 1294 1564 L 1295 1453 L 1295 1596 L 1296 1459 L 1296 1585 L 1297 1442 L 1297 1591 L 1298 1464 L 1298 1613 L 1299 1469 L 1299 1580 L 1300 1459 L 1300 1552 L 1301 1497 L 1301 1557 L 1302 1497 L 1302 1541 L 1303 1469 L 1303 1547 L 1304 1481 L 1304 1547 L 1305 1508 L 1305 1552 L 1306 1497 L 1306 1547 L 1307 1503 L 1307 1552 L 1308 1497 L 1308 1547 L 1309 1503 L 1309 1547 L 1310 1508 L 1310 1530 L 1311 1508 L 1311 1536 L 1312 1513 L 1312 1541 L 1313 1503 L 1313 1536 L 1314 1513 L 1314 1536 L 1315 1508 L 1315 1525 L 1316 1508 L 1316 1536 L 1317 1508 L 1317 1530 L 1318 1520 L 1318 1536 L 1319 1508 L 1319 1525 L 1320 1508 L 1320 1530 L 1321 1508 L 1321 1525 L 1322 1508 L 1322 1525 L 1323 1508 L 1323 1530 L 1324 1508 L 1324 1530 L 1325 1513 L 1325 1525 L 1326 1508 L 1326 1530 L 1327 1513 L 1327 1530 L 1328 1508 L 1328 1536 L 1329 1513 L 1329 1530 L 1330 1513 L 1330 1530 L 1331 1513 L 1331 1530 L 1332 1513 L 1332 1536 L 1333 1508 L 1333 1525 L 1334 1513 L 1334 1525 L 1335 1513 L 1335 1525 L 1336 1513 L 1336 1525 L 1337 1513 L 1337 1520 L 1338 1520 L 1338 1525 L 1339 1520 L 1339 1525 L 1340 1513 L 1340 1525 L 1341 1520 L 1341 1525 L 1342 1513 L 1342 1525 L 1343 1520 L 1343 1525 L 1344 1513 L 1344 1525 L 1345 1513 L 1345 1520 L 1346 1513 L 1346 1525 L 1347 1520 L 1347 1525 L 1348 1513 L 1348 1520 L 1349 1513 L 1349 1525 L 1350 1520 L 1350 1525 L 1351 1520 L 1351 1525 L 1352 1520 L 1352 1525 L 1353 1520 L 1353 1525 L 1354 1513 L 1354 1520 L 1355 1520 L 1355 1525 L 1356 1520 L 1356 1520 L 1357 1520 L 1357 1525 L 1358 1520 L 1358 1525 L 1359 1520 L 1359 1525 L 1360 1520 L 1360 1525 L 1361 1520 L 1361 1525 L 1362 1520 L 1362 1525 L 1363 1520 L 1363 1525 L 1364 1520 L 1364 1520 L 1365 1520 L 1365 1525 L 1366 1520 L 1366 1520 L 1367 1520 L 1367 1520 L 1368 1520 L 1368 1525 L 1369 1520 L 1369 1525 L 1370 1520 L 1370 1525 L 1371 1520 L 1371 1525 L 1372 1520 L 1372 1520 L 1373 1520 L 1373 1520 L 1374 1520 L 1374 1520 L 1375 1520 L 1375 1520 L 1376 1520 L 1376 1520 L 1377 1520 L 1377 1520 L 1378 1520 L 1378 1525 L 1379 1520 L 1379 1520 L 1380 1520 L 1380 1520 L 1381 1520 L 1381 1520 L 1382 1520 L 1382 1520 L 1383 1520 L 1383 1520 L 1384 1520 L 1384 1525 L 1385 1520 L 1385 1520 L 1386 1520 L 1386 1520 L 1387 1520 L 1387 1520 L 1388 1520 L 1388 1525 L 1389 1520 L 1389 1525 L 1390 1520 L 1390 1525 L 1391 1520 L 1391 1520 L 1392 1520 L 1392 1525 L 1393 1520 L 1393 1520 L 1394 1520 L 1394 1525 L 1395 1520 L 1395 1525 L 1396 1520 L 1396 1525 L 1397 892 L 1397 1987 L 1398 765 L 1398 2169 L 1399 1068 L 1399 1943 L 1400 1095 L 1400 1883 L 1401 1211 L 1401 1707 L 1402 1321 L 1402 1751 L 1403 1338 L 1403 1850 L 1404 1332 L 1404 1723 L 1405 1294 L 1405 1695 L 1406 1382 L 1406 1739 L 1407 1437 L 1407 1640 L 1408 1387 L 1408 1629 L 1409 1432 L 1409 1574 L 1410 1486 L 1410 1585 L 1411 1469 L 1411 1569 L 1412 1448 L 1412 1591 L 1413 1442 L 1413 1619 L 1414 1437 L 1414 1591 L 1415 1453 L 1415 1613 L 1416 1459 L 1416 1574 L 1417 1469 L 1417 1564 L 1418 1503 L 1418 1547 L 1419 1481 L 1419 1557 L 1420 1481 L 1420 1552 L 1421 1508 L 1421 1557 L 1422 1492 L 1422 1547 L 1423 1497 L 1423 1552 L 1424 1492 L 1424 1552 L 1425 1503 L 1425 1552 L 1426 1503 L 1426 1536 L 1427 1508 L 1427 1530 L 1428 1513 L 1428 1541 L 1429 1497 L 1429 1530 L 1430 1513 L 1430 1536 L 1431 1508 L 1431 1530 L 1432 1508 L 1432 1536 L 1433 1508 L 1433 1530 L 1434 1508 L 1434 1530 L 1435 1513 L 1435 1536 L 1436 1508 L 1436 1530 L 1437 1508 L 1437 1530 L 1438 1513 L 1438 1530 L 1439 1513 L 1439 1530 L 1440 1513 L 1440 1530 L 1441 1513 L 1441 1525 L 1442 1513 L 1442 1525 L 1443 1513 L 1443 1525 L 1444 1513 L 1444 1525 L 1445 1513 L 1445 1525 L 1446 1513 L 1446 1530 L 1447 1513 L 1447 1525 L 1448 1513 L 1448 1525 L 1449 1513 L 1449 1520 L 1450 1513 L 1450 1520 L 1451 1513 L 1451 1525 L 1452 1520 L 1452 1525 L 1453 1513 L 1453 1525 L 1454 1520 L 1454 1525 L 1455 1513 L 1455 1525 L 1456 1520 L 1456 1525 L 1457 1513 L 1457 1525 L 1458 1520 L 1458 1520 L 1459 1513 L 1459 1525 L 1460 1520 L 1460 1525 L 1461 1513 L 1461 1525 L 1462 1513 L 1462 1520 L 1463 1520 L 1463 1525 L 1464 1520 L 1464 1520 L 1465 1520 L 1465 1525 L 1466 1520 L 1466 1525 L 1467 1520 L 1467 1525 L 1468 1520 L 1468 1520 L 1469 1520 L 1469 1525 L 1470 1520 L 1470 1525 L 1471 1520 L 1471 1525 L 1472 1520 L 1472 1525 L 1473 1520 L 1473 1525 L 1474 1520 L 1474 1520 L 1475 1520 L 1475 1525 L 1476 1520 L 1476 1520 L 1477 1520 L 1477 1525 L 1478 1520 L 1478 1525 L 1479 1520 L 1479 1520 L 1480 1520 L 1480 1520 L 1481 1520 L 1481 1520 L 1482 1520 L 1482 1520 L 1483 1520 L 1483 1520 L 1484 1520 L 1484 1520 L 1485 1520 L 1485 1520 L 1486 1520 L 1486 1520 L 1487 1520 L 1487 1520 L 1488 1520 L 1488 1520 L 1489 1520 L 1489 1520 L 1490 1520 L 1490 1520 L 1491 1520 L 1491 1520 L 1492 1520 L 1492 1525 L 1493 1520 L 1493 1520 L 1494 1520 L 1494 1520 L 1495 1520 L 1495 1525 L 1496 1520 L 1496 1520 L 1497 1520 L 1497 1525 L 1498 1520 L 1498 1520 L 1499 1520 L 1499 1520 L 1500 1520 L 1500 1520 L 1501 1520 L 1501 1525 L 1502 1520 L 1502 1520 L 1503 1520 L 1503 1520 L 1504 765 L 1504 2169 L 1505 969 L 1505 2169 L 1506 1150 L 1506 1938 L 1507 1288 L 1507 1822 L 1508 1305 L 1508 1712 L 1509 1321 L 1509 1717 L 1510 1255 L 1510 1816 L 1511 1343 L 1511 1663 L 1512 1365 L 1512 1695 L 1513 1414 L 1513 1640 L 1514 1420 L 1514 1640 L 1515 1426 L 1515 1613 L 1516 1453 L 1516 1580 L 1517 1481 L 1517 1569 L 1518 1486 L 1518 1591 L 1519 1442 L 1519 1596 L 1520 1448 L 1520 1580 L 1521 1453 L 1521 1601 L 1522 1469 L 1522 1591 L 1523 1469 L 1523 1552 L 1524 1476 L 1524 1569 L 1525 1503 L 1525 1547 L 1526 1486 L 1526 1547 L 1527 1481 L 1527 1552 L 1528 1497 L 1528 1552 L 1529 1486 L 1529 1547 L 1530 1503 L 1530 1552 L 1531 1492 L 1531 1547 L 1532 1497 L 1532 1547 L 1533 1508 L 1533 1536 L 1534 1513 L 1534 1536 L 1535 1513 L 1535 1541 L 1536 1503 L 1536 1536 L 1537 1513 L 1537 1536 L 1538 1503 L 1538 1525 L 1539 1508 L 1539 1530 L 1540 1508 L 1540 1525 L 1541 1520 L 1541 1536 L 1542 1508 L 1542 1525 L 1543 1508 L 1543 1530 L 1544 1508 L 1544 1525 L 1545 1513 L 1545 1525 L 1546 1513 L 1546 1530 L 1547 1513 L 1547 1525 L 1548 1513 L 1548 1530 L 1549 1513 L 1549 1525 L 1550 1513 L 1550 1520 L 1551 1513 L 1551 1525 L 1552 1513 L 1552 1530 L 1553 1513 L 1553 1525 L 1554 1513 L 1554 1525 L 1555 1513 L 1555 1525 L 1556 1513 L 1556 1525 L 1557 1513 L 1557 1525 L 1558 1520 L 1558 1525 L 1559 1513 L 1559 1525 L 1560 1520 L 1560 1525 L 1561 1520 L 1561 1525 L 1562 1520 L 1562 1520 L 1563 1520 L 1563 1525 L 1564 1520 L 1564 1525 L 1565 1513 L 1565 1520 L 1566 1520 L 1566 1525 L 1567 1520 L 1567 1520 L 1568 1520 L 1568 1525 L 1569 1503 L 1569 1530 L 1570 1508 L 1570 1536 L 1571 1508 L 1571 1525 L 1572 1508 L 1572 1525 L 1573 1513 L 1573 1530 L 1574 1520 L 1574 1536 L 1575 1513 L 1575 1536 L 1576 1508 L 1576 1525 L 1577 1513 L 1577 1530 L 1578 1513 L 1578 1530 L 1579 1513 L 1579 1520 L 1580 1513 L 1580 1525 L 1581 1513 L 1581 1525 L 1582 1520 L 1582 1525 L 1583 1520 L 1583 1525 L 1584 1513 L 1584 1525 L 1585 1520 L 1585 1525 L 1586 1520 L 1586 1525 L 1587 1520 L 1587 1525 L 1588 1513 L 1588 1525 L 1589 1520 L 1589 1520 L 1590 1520 L 1590 1520 L 1591 1520 L 1591 1525 L 1592 1520 L 1592 1525 L 1593 1520 L 1593 1525 L 1594 1520 L 1594 1525 L 1595 1520 L 1595 1525 L 1596 1520 L 1596 1520 L 1597 1513 L 1597 1520 L 1598 1520 L 1598 1520 L 1599 1520 L 1599 1525 L 1600 1520 L 1600 1520 L 1601 1520 L 1601 1525 L 1602 947 L 1602 1894 L 1603 1326 L 1603 1860 L 1604 1266 L 1604 1734 L 1605 1316 L 1605 1756 L 1606 1349 L 1606 1663 L 1607 1398 L 1607 1657 L 1608 1404 L 1608 1712 L 1609 1387 L 1609 1613 L 1610 1409 L 1610 1663 L 1611 1476 L 1611 1574 L 1612 1442 L 1612 1596 L 1613 1464 L 1613 1564 L 1614 1476 L 1614 1574 L 1615 1486 L 1615 1547 L 1616 1497 L 1616 1580 L 1617 1481 L 1617 1552 L 1618 1469 L 1618 1564 L 1619 1476 L 1619 1580 L 1620 1481 L 1620 1564 L 1621 1481 L 1621 1541 L 1622 1497 L 1622 1547 L 1623 1508 L 1623 1536 L 1624 1486 L 1624 1557 L 1625 1492 L 1625 1541 L 1626 1508 L 1626 1547 L 1627 1492 L 1627 1536 L 1628 1503 L 1628 1547 L 1629 1503 L 1629 1547 L 1630 1508 L 1630 1541 L 1631 1508 L 1631 1530 L 1632 1513 L 1632 1536 L 1633 1508 L 1633 1541 L 1634 1503 L 1634 1530 L 1635 1513 L 1635 1536 L 1636 1508 L 1636 1530 L 1637 1513 L 1637 1530 L 1638 1508 L 1638 1525 L 1639 1520 L 1639 1536 L 1640 1513 L 1640 1530 L 1641 1508 L 1641 1530 L 1642 1513 L 1642 1525 L 1643 1508 L 1643 1520 L 1644 1513 L 1644 1530 L 1645 1513 L 1645 1525 L 1646 1513 L 1646 1525 L 1647 1513 L 1647 1525 L 1648 1513 L 1648 1525 L 1649 1513 L 1649 1525 L 1650 1520 L 1650 1525 L 1651 1520 L 1651 1525 L 1652 1520 L 1652 1525 L 1653 1520 L 1653 1525 L 1654 1513 L 1654 1525 L 1655 1520 L 1655 1525 L 1656 1520 L 1656 1525 L 1657 1520 L 1657 1525 L 1658 1513 L 1658 1525 L 1659 1520 L 1659 1525 L 1660 1520 L 1660 1525 L 1661 1520 L 1661 1530 L 1662 1520 L 1662 1525 L 1663 1520 L 1663 1520 L 1664 1520 L 1664 1525 L 1665 1520 L 1665 1525 L 1666 1513 L 1666 1520 L 1667 1520 L 1667 1520 L 1668 1520 L 1668 1525 L 1669 1520 L 1669 1525 L 1670 1520 L 1670 1525 L 1671 1520 L 1671 1525 L 1672 1508 L 1672 1536 L 1673 1503 L 1673 1536 L 1674 1508 L 1674 1530 L 1675 1508 L 1675 1525 L 1676 1520 L 1676 1541 L 1677 1508 L 1677 1541 L 1678 1513 L 1678 1536 L 1679 1508 L 1679 1530 L 1680 1508 L 1680 1525 L 1681 1513 L 1681 1530 L 1682 1508 L 1682 1525 L 1683 1513 L 1683 1525 L 1684 1513 L 1684 1525 L 1685 1520 L 1685 1530 L 1686 1513 L 1686 1525 L 1687 1513 L 1687 1525 L 1688 1513 L 1688 1525 L 1689 1520 L 1689 1530 L 1690 1513 L 1690 1530 L 1691 1513 L 1691 1520 L 1692 919 L 1692 1871 L 1693 765 L 1693 2146 L 1694 1305 L 1694 1751 L 1695 1299 L 1695 1739 L 1696 1338 L 1696 1640 L 1697 1370 L 1697 1707 L 1698 1370 L 1698 1751 L 1699 1360 L 1699 1695 L 1700 1414 L 1700 1652 L 1701 1469 L 1701 1569 L 1702 1442 L 1702 1629 L 1703 1420 L 1703 1596 L 1704 1442 L 1704 1585 L 1705 1497 L 1705 1574 L 1706 1486 L 1706 1574 L 1707 1442 L 1707 1574 L 1708 1448 L 1708 1608 L 1709 1481 L 1709 1585 L 1710 1476 L 1710 1574 L 1711 1464 L 1711 1552 L 1712 1481 L 1712 1547 L 1713 1503 L 1713 1541 L 1714 1486 L 1714 1547 L 1715 1481 L 1715 1547 L 1716 1492 L 1716 1552 L 1717 1497 L 1717 1547 L 1718 1503 L 1718 1536 L 1719 1503 L 1719 1541 L 1720 1508 L 1720 1547 L 1721 1503 L 1721 1541 L 1722 1508 L 1722 1536 L 1723 1508 L 1723 1536 L 1724 1503 L 1724 1530 L 1725 1513 L 1725 1536 L 1726 1508 L 1726 1530 L 1727 1513 L 1727 1525 L 1728 1513 L 1728 1530 L 1729 1508 L 1729 1530 L 1730 1520 L 1730 1530 L 1731 1508 L 1731 1525 L 1732 1513 L 1732 1530 L 1733 1513 L 1733 1525 L 1734 1520 L 1734 1530 L 1735 1513 L 1735 1525 L 1736 1513 L 1736 1525 L 1737 1513 L 1737 1525 L 1738 1520 L 1738 1525 L 1739 1520 L 1739 1525 L 1740 1520 L 1740 1530 L 1741 1520 L 1741 1525 L 1742 1520 L 1742 1525 L 1743 1520 L 1743 1525 L 1744 1520 L 1744 1525 L 1745 1513 L 1745 1525 L 1746 1520 L 1746 1525 L 1747 1520 L 1747 1525 L 1748 1513 L 1748 1520 L 1749 1520 L 1749 1520 L 1750 1513 L 1750 1520 L 1751 1513 L 1751 1520 L 1752 1520 L 1752 1525 L 1753 1520 L 1753 1525 L 1754 1520 L 1754 1525 L 1755 1513 L 1755 1520 L 1756 1520 L 1756 1525 L 1757 1520 L 1757 1520 L 1758 1520 L 1758 1525 L 1759 1520 L 1759 1525 L 1760 1520 L 1760 1525 L 1761 1520 L 1761 1525 L 1762 1520 L 1762 1525 L 1763 1520 L 1763 1525 L 1764 1520 L 1764 1525 L 1765 1520 L 1765 1525 L 1766 1520 L 1766 1525 L 1767 1520 L 1767 1525 L 1768 1520 L 1768 1525 L 1769 1520 L 1769 1520 L 1770 1520 L 1770 1525 L 1771 1520 L 1771 1525 L 1772 1520 L 1772 1525 L 1773 1520 L 1773 1525 L 1774 1520 L 1774 1525 L 1775 1497 L 1775 1668 L 1776 1040 L 1776 1816 L 1777 1354 L 1777 1673 L 1778 1338 L 1778 1684 L 1779 1370 L 1779 1679 L 1780 1426 L 1780 1619 L 1781 1469 L 1781 1635 L 1782 1414 L 1782 1569 L 1783 1426 L 1783 1619 L 1784 1453 L 1784 1569 L 1785 1486 L 1785 1569 L 1786 1486 L 1786 1591 L 1787 1476 L 1787 1547 L 1788 1492 L 1788 1569 L 1789 1497 L 1789 1557 L 1790 1497 L 1790 1547 L 1791 1469 L 1791 1547 L 1792 1492 L 1792 1564 L 1793 1492 L 1793 1552 L 1794 1492 L 1794 1552 L 1795 1486 L 1795 1541 L 1796 1503 L 1796 1547 L 1797 1497 L 1797 1547 L 1798 1497 L 1798 1536 L 1799 1508 L 1799 1530 L 1800 1508 L 1800 1536 L 1801 1508 L 1801 1536 L 1802 1508 L 1802 1525 L 1803 1508 L 1803 1536 L 1804 1513 L 1804 1536 L 1805 1513 L 1805 1530 L 1806 1508 L 1806 1530 L 1807 1520 L 1807 1525 L 1808 1513 L 1808 1525 L 1809 1513 L 1809 1525 L 1810 1513 L 1810 1530 L 1811 1513 L 1811 1525 L 1812 1513 L 1812 1530 L 1813 1513 L 1813 1530 L 1814 1513 L 1814 1525 L 1815 1513 L 1815 1525 L 1816 1520 L 1816 1525 L 1817 1520 L 1817 1525 L 1818 1520 L 1818 1525 L 1819 1520 L 1819 1525 L 1820 1520 L 1820 1525 L 1821 1520 L 1821 1525 L 1822 1513 L 1822 1520 L 1823 1520 L 1823 1525 L 1824 1520 L 1824 1525 L 1825 1520 L 1825 1525 L 1826 1520 L 1826 1520 L 1827 1520 L 1827 1520 L 1828 1520 L 1828 1520 L 1829 1520 L 1829 1525 L 1830 1520 L 1830 1525 L 1831 1520 L 1831 1525 L 1832 1520 L 1832 1525 L 1833 1520 L 1833 1525 L 1834 1520 L 1834 1525 L 1835 1520 L 1835 1525 L 1836 1520 L 1836 1525 L 1837 1520 L 1837 1525 L 1838 1520 L 1838 1520 L 1839 1520 L 1839 1525 L 1840 1520 L 1840 1525 L 1841 1520 L 1841 1520 L 1842 1520 L 1842 1520 L 1843 1520 L 1843 1520 L 1844 1520 L 1844 1520 L 1845 1520 L 1845 1520 L 1846 1513 L 1846 1520 L 1847 1513 L 1847 1520 L 1848 1520 L 1848 1520 L 1849 1520 L 1849 1520 L 1850 1520 L 1850 1520 L 1851 1520 L 1851 1520 L 1852 1508 L 1852 1640 L 1853 1134 L 1853 1778 L 1854 1365 L 1854 1635 L 1855 1343 L 1855 1663 L 1856 1404 L 1856 1640 L 1857 1393 L 1857 1608 L 1858 1442 L 1858 1608 L 1859 1448 L 1859 1596 L 1860 1409 L 1860 1601 L 1861 1464 L 1861 1564 L 1862 1492 L 1862 1564 L 1863 1497 L 1863 1574 L 1864 1486 L 1864 1541 L 1865 1503 L 1865 1557 L 1866 1497 L 1866 1536 L 1867 1497 L 1867 1564 L 1868 1486 L 1868 1547 L 1869 1492 L 1869 1569 L 1870 1486 L 1870 1547 L 1871 1503 L 1871 1547 L 1872 1486 L 1872 1541 L 1873 1513 L 1873 1547 L 1874 1508 L 1874 1536 L 1875 1503 L 1875 1541 L 1876 1503 L 1876 1541 L 1877 1503 L 1877 1536 L 1878 1508 L 1878 1530 L 1879 1508 L 1879 1525 L 1880 1508 L 1880 1530 L 1881 1513 L 1881 1530 L 1882 1513 L 1882 1536 L 1883 1508 L 1883 1530 L 1884 1503 L 1884 1525 L 1885 1513 L 1885 1530 L 1886 1513 L 1886 1530 L 1887 1520 L 1887 1530 L 1888 1520 L 1888 1525 L 1889 1513 L 1889 1530 L 1890 1513 L 1890 1525 L 1891 1513 L 1891 1525 L 1892 1513 L 1892 1525 L 1893 1513 L 1893 1525 L 1894 1513 L 1894 1525 L 1895 1513 L 1895 1525 L 1896 1513 L 1896 1525 L 1897 1520 L 1897 1525 L 1898 1513 L 1898 1525 L 1899 1513 L 1899 1525 L 1900 1520 L 1900 1530 L 1901 1520 L 1901 1525 L 1902 1520 L 1902 1525 L 1903 1520 L 1903 1525 L 1904 1513 L 1904 1525 L 1905 1520 L 1905 1520 L 1906 1520 L 1906 1525 L 1907 1520 L 1907 1525 L 1908 1520 L 1908 1525 L 1909 1520 L 1909 1520 L 1910 1520 L 1910 1520 L 1911 1513 L 1911 1520 L 1912 1520 L 1912 1525 L 1913 1520 L 1913 1525 L 1914 1520 L 1914 1525 L 1915 1520 L 1915 1525 L 1916 1520 L 1916 1525 L 1917 1520 L 1917 1525 L 1918 1520 L 1918 1525 L 1919 1520 L 1919 1525 L 1920 1520 L 1920 1525 L 1921 1520 L 1921 1525 L 1922 1520 L 1922 1525 L 1923 1520 L 1923 1520 L 1924 1129 L 1924 1624 L 1925 1194 L 1925 1739 L 1926 1360 L 1926 1635 L 1927 1360 L 1927 1663 L 1928 1426 L 1928 1629 L 1929 1404 L 1929 1601 L 1930 1442 L 1930 1608 L 1931 1426 L 1931 1608 L 1932 1426 L 1932 1596 L 1933 1464 L 1933 1557 L 1934 1492 L 1934 1557 L 1935 1497 L 1935 1574 L 1936 1486 L 1936 1541 L 1937 1513 L 1937 1557 L 1938 1503 L 1938 1536 L 1939 1497 L 1939 1557 L 1940 1486 L 1940 1547 L 1941 1497 L 1941 1552 L 1942 1497 L 1942 1530 L 1943 1503 L 1943 1547 L 1944 1492 L 1944 1541 L 1945 1513 L 1945 1541 L 1946 1497 L 1946 1530 L 1947 1503 L 1947 1536 L 1948 1508 L 1948 1530 L 1949 1508 L 1949 1536 L 1950 1513 L 1950 1530 L 1951 1508 L 1951 1525 L 1952 1513 L 1952 1530 L 1953 1508 L 1953 1525 L 1954 1513 L 1954 1530 L 1955 1513 L 1955 1530 L 1956 1513 L 1956 1525 L 1957 1513 L 1957 1530 L 1958 1513 L 1958 1525 L 1959 1513 L 1959 1525 L 1960 1520 L 1960 1520 L 1961 1513 L 1961 1525 L 1962 1520 L 1962 1530 L 1963 1513 L 1963 1525 L 1964 1520 L 1964 1525 L 1965 1513 L 1965 1525 L 1966 1513 L 1966 1525 L 1967 1520 L 1967 1525 L 1968 1513 L 1968 1525 L 1969 1520 L 1969 1525 L 1970 1513 L 1970 1520 L 1971 1520 L 1971 1525 L 1972 1520 L 1972 1525 L 1973 1520 L 1973 1525 L 1974 1513 L 1974 1525 L 1975 1513 L 1975 1525 L 1976 1513 L 1976 1520 L 1977 1520 L 1977 1525 L 1978 1525 L 1978 1530 L 1979 1520 L 1979 1530 L 1980 1520 L 1980 1525 L 1981 1520 L 1981 1525 L 1982 1520 L 1982 1525 L 1983 1520 L 1983 1525 L 1984 1513 L 1984 1525 L 1985 1520 L 1985 1525 L 1986 1520 L 1986 1525 L 1987 1520 L 1987 1525 L 1988 1513 L 1988 1520 L 1989 1520 L 1989 1520 L 1990 1520 L 1990 1525 L 1991 1520 L 1991 1525 L 1992 1194 L 1992 1673 L 1993 1233 L 1993 1723 L 1994 1382 L 1994 1652 L 1995 1414 L 1995 1574 L 1996 1448 L 1996 1596 L 1997 1464 L 1997 1608 L 1998 1464 L 1998 1569 L 1999 1437 L 1999 1591 L 2000 1469 L 2000 1574 L 2001 1486 L 2001 1552 L 2002 1492 L 2002 1569 L 2003 1492 L 2003 1541 L 2004 1503 L 2004 1557 L 2005 1503 L 2005 1552 L 2006 1497 L 2006 1536 L 2007 1503 L 2007 1547 L 2008 1492 L 2008 1552 L 2009 1508 L 2009 1541 L 2010 1492 L 2010 1547 L 2011 1503 L 2011 1536 L 2012 1508 L 2012 1530 L 2013 1503 L 2013 1536 L 2014 1497 L 2014 1530 L 2015 1508 L 2015 1530 L 2016 1508 L 2016 1525 L 2017 1508 L 2017 1530 L 2018 1513 L 2018 1525 L 2019 1508 L 2019 1525 L 2020 1513 L 2020 1530 L 2021 1520 L 2021 1525 L 2022 1513 L 2022 1530 L 2023 1513 L 2023 1525 L 2024 1513 L 2024 1525 L 2025 1513 L 2025 1525 L 2026 1513 L 2026 1525 L 2027 1513 L 2027 1525 L 2028 1513 L 2028 1530 L 2029 1520 L 2029 1525 L 2030 1513 L 2030 1525 L 2031 1513 L 2031 1525 L 2032 1513 L 2032 1525 L 2033 1520 L 2033 1525 L 2034 1520 L 2034 1525 L 2035 1520 L 2035 1525 L 2036 1520 L 2036 1525 L 2037 1513 L 2037 1525 L 2038 1520 L 2038 1525 L 2039 1520 L 2039 1525 L 2040 1520 L 2040 1525 L 2041 1520 L 2041 1525 L 2042 1520 L 2042 1525 L 2043 1520 L 2043 1520 L 2044 1520 L 2044 1525 L 2045 1520 L 2045 1525 L 2046 1520 L 2046 1525 L 2047 1520 L 2047 1520 L 2048 1520 L 2048 1520 L 2049 1520 L 2049 1520 L 2050 1520 L 2050 1525 L 2051 1520 L 2051 1520 L 2052 1520 L 2052 1525 L 2053 1520 L 2053 1525 L 2054 1183 L 2054 1608 L 2055 1261 L 2055 1712 L 2056 1393 L 2056 1635 L 2057 1414 L 2057 1619 L 2058 1420 L 2058 1591 L 2059 1453 L 2059 1585 L 2060 1464 L 2060 1580 L 2061 1437 L 2061 1574 L 2062 1442 L 2062 1591 L 2063 1469 L 2063 1552 L 2064 1497 L 2064 1564 L 2065 1492 L 2065 1541 L 2066 1513 L 2066 1557 L 2067 1508 L 2067 1536 L 2068 1497 L 2068 1552 L 2069 1503 L 2069 1541 L 2070 1486 L 2070 1536 L 2071 1503 L 2071 1547 L 2072 1497 L 2072 1536 L 2073 1497 L 2073 1547 L 2074 1513 L 2074 1530 L 2075 1503 L 2075 1530 L 2076 1503 L 2076 1536 L 2077 1513 L 2077 1530 L 2078 1513 L 2078 1536 L 2079 1508 L 2079 1530 L 2080 1513 L 2080 1530 L 2081 1508 L 2081 1525 L 2082 1513 L 2082 1525 L 2083 1513 L 2083 1525 L 2084 1513 L 2084 1525 L 2085 1513 L 2085 1525 L 2086 1513 L 2086 1525 L 2087 1513 L 2087 1520 L 2088 1513 L 2088 1520 L 2089 1513 L 2089 1525 L 2090 1520 L 2090 1525 L 2091 1513 L 2091 1525 L 2092 1513 L 2092 1525 L 2093 1520 L 2093 1525 L 2094 1513 L 2094 1525 L 2095 1520 L 2095 1525 L 2096 1520 L 2096 1525 L 2097 1520 L 2097 1525 L 2098 1520 L 2098 1525 L 2099 1520 L 2099 1525 L 2100 1520 L 2100 1525 L 2101 1520 L 2101 1525 L 2102 1520 L 2102 1525 L 2103 1520 L 2103 1525 L 2104 1520 L 2104 1525 L 2105 1520 L 2105 1525 L 2106 1520 L 2106 1525 L 2107 1520 L 2107 1525 L 2108 1520 L 2108 1525 L 2109 1520 L 2109 1525 L 2110 1520 L 2110 1525 L 2111 1520 L 2111 1525 L 2112 1222 L 2112 1679 L 2113 1271 L 2113 1707 L 2114 1409 L 2114 1619 L 2115 1404 L 2115 1635 L 2116 1426 L 2116 1569 L 2117 1448 L 2117 1591 L 2118 1481 L 2118 1557 L 2119 1448 L 2119 1564 L 2120 1481 L 2120 1585 L 2121 1492 L 2121 1547 L 2122 1497 L 2122 1569 L 2123 1497 L 2123 1541 L 2124 1492 L 2124 1536 L 2125 1508 L 2125 1552 L 2126 1497 L 2126 1547 L 2127 1508 L 2127 1536 L 2128 1492 L 2128 1536 L 2129 1508 L 2129 1547 L 2130 1497 L 2130 1541 L 2131 1503 L 2131 1530 L 2132 1508 L 2132 1536 L 2133 1508 L 2133 1530 L 2134 1508 L 2134 1536 L 2135 1503 L 2135 1530 L 2136 1513 L 2136 1525 L 2137 1508 L 2137 1530 L 2138 1513 L 2138 1525 L 2139 1508 L 2139 1525 L 2140 1513 L 2140 1525 L 2141 1513 L 2141 1525 L 2142 1513 L 2142 1525 L 2143 1513 L 2143 1525 L 2144 1513 L 2144 1525 L 2145 1513 L 2145 1525 L 2146 1513 L 2146 1525 L 2147 1513 L 2147 1525 L 2148 1520 L 2148 1525 L 2149 1513 L 2149 1525 L 2150 1520 L 2150 1525 L 2151 1513 L 2151 1525 L 2152 1513 L 2152 1525 L 2153 1520 L 2153 1525 L 2154 1520 L 2154 1525 L 2155 1520 L 2155 1525 L 2156 1520 L 2156 1525 L 2157 1513 L 2157 1520 L 2158 1520 L 2158 1520 L 2159 1520 L 2159 1525 L 2160 1520 L 2160 1525 L 2161 1520 L 2161 1525 L 2162 1520 L 2162 1520 L 2163 1520 L 2163 1520 L 2164 1520 L 2164 1520 L 2165 1520 L 2165 1520 L 2166 1206 L 2166 1613 L 2167 1255 L 2167 1695 L 2168 1409 L 2168 1624 L 2169 1404 L 2169 1635 L 2170 1432 L 2170 1585 L 2171 1453 L 2171 1591 L 2172 1486 L 2172 1585 L 2173 1453 L 2173 1557 L 2174 1476 L 2174 1585 L 2175 1492 L 2175 1552 L 2176 1503 L 2176 1547 L 2177 1503 L 2177 1564 L 2178 1492 L 2178 1541 L 2179 1513 L 2179 1552 L 2180 1503 L 2180 1547 L 2181 1508 L 2181 1536 L 2182 1492 L 2182 1530 L 2183 1503 L 2183 1547 L 2184 1503 L 2184 1536 L 2185 1503 L 2185 1536 L 2186 1503 L 2186 1536 L 2187 1513 L 2187 1530 L 2188 1503 L 2188 1536 L 2189 1513 L 2189 1530 L 2190 1513 L 2190 1525 L 2191 1508 L 2191 1530 L 2192 1520 L 2192 1525 L 2193 1508 L 2193 1525 L 2194 1513 L 2194 1530 L 2195 1513 L 2195 1525 L 2196 1513 L 2196 1525 L 2197 1513 L 2197 1530 L 2198 1513 L 2198 1525 L 2199 1513 L 2199 1525 L 2200 1513 L 2200 1525 L 2201 1513 L 2201 1525 L 2202 1520 L 2202 1525 L 2203 1513 L 2203 1525 L 2204 1520 L 2204 1525 L 2205 1513 L 2205 1525 L 2206 1520 L 2206 1525 L 2207 1520 L 2207 1525 L 2208 1520 L 2208 1525 L 2209 1520 L 2209 1525 L 2210 1520 L 2210 1525 L 2211 1513 L 2211 1525 L 2212 1513 L 2212 1525 L 2213 1520 L 2213 1525 L 2214 1520 L 2214 1525 L 2215 1520 L 2215 1525 L 2216 1245 L 2216 1601 L 2217 1255 L 2217 1707 L 2218 1409 L 2218 1613 L 2219 1387 L 2219 1629 L 2220 1442 L 2220 1608 L 2221 1420 L 2221 1601 L 2222 1448 L 2222 1574 L 2223 1469 L 2223 1591 L 2224 1448 L 2224 1580 L 2225 1481 L 2225 1574 L 2226 1503 L 2226 1552 L 2227 1497 L 2227 1557 L 2228 1492 L 2228 1541 L 2229 1513 L 2229 1547 L 2230 1497 L 2230 1536 L 2231 1492 L 2231 1541 L 2232 1497 L 2232 1541 L 2233 1486 L 2233 1547 L 2234 1497 L 2234 1536 L 2235 1503 L 2235 1541 L 2236 1492 L 2236 1541 L 2237 1513 L 2237 1536 L 2238 1508 L 2238 1530 L 2239 1503 L 2239 1530 L 2240 1513 L 2240 1530 L 2241 1513 L 2241 1530 L 2242 1513 L 2242 1530 L 2243 1513 L 2243 1525 L 2244 1513 L 2244 1530 L 2245 1520 L 2245 1530 L 2246 1513 L 2246 1525 L 2247 1513 L 2247 1530 L 2248 1508 L 2248 1525 L 2249 1513 L 2249 1525 L 2250 1513 L 2250 1525 L 2251 1513 L 2251 1525 L 2252 1520 L 2252 1525 L 2253 1513 L 2253 1525 L 2254 1520 L 2254 1525 L 2255 1513 L 2255 1525 L 2256 1520 L 2256 1525 L 2257 1520 L 2257 1525 L 2258 1520 L 2258 1525 L 2259 1513 L 2259 1525 L 2260 1520 L 2260 1525 L 2261 1520 L 2261 1520 L 2262 1513 L 2262 1525 L 2263 1508 L 2263 1596 L 2264 1266 L 2264 1707 L 2265 1420 L 2265 1613 L 2266 1398 L 2266 1619 L 2267 1442 L 2267 1596 L 2268 1432 L 2268 1596 L 2269 1481 L 2269 1580 L 2270 1459 L 2270 1547 L 2271 1464 L 2271 1574 L 2272 1486 L 2272 1557 L 2273 1497 L 2273 1547 L 2274 1503 L 2274 1557 L 2275 1497 L 2275 1541 L 2276 1508 L 2276 1547 L 2277 1497 L 2277 1547 L 2278 1503 L 2278 1541 L 2279 1492 L 2279 1536 L 2280 1508 L 2280 1541 L 2281 1503 L 2281 1536 L 2282 1503 L 2282 1541 L 2283 1497 L 2283 1536 L 2284 1513 L 2284 1530 L 2285 1508 L 2285 1530 L 2286 1503 L 2286 1530 L 2287 1513 L 2287 1530 L 2288 1508 L 2288 1525 L 2289 1513 L 2289 1530 L 2290 1513 L 2290 1520 L 2291 1508 L 2291 1525 L 2292 1513 L 2292 1525 L 2293 1513 L 2293 1525 L 2294 1513 L 2294 1525 L 2295 1513 L 2295 1525 L 2296 1520 L 2296 1525 L 2297 1520 L 2297 1525 L 2298 1513 L 2298 1525 L 2299 1513 L 2299 1520 L 2300 1513 L 2300 1525 L 2301 1520 L 2301 1525 L 2302 1513 L 2302 1525 L 2303 1520 L 2303 1525 L 2304 1520 L 2304 1525 L 2305 1520 L 2305 1525 L 2306 1520 L 2306 1525 L 2307 1238 L 2307 1645 L 2308 1233 L 2308 1690 L 2309 1404 L 2309 1613 L 2310 1442 L 2310 1608 L 2311 1437 L 2311 1569 L 2312 1459 L 2312 1591 L 2313 1459 L 2313 1591 L 2314 1469 L 2314 1569 L 2315 1481 L 2315 1557 L 2316 1492 L 2316 1552 L 2317 1503 L 2317 1557 L 2318 1486 L 2318 1541 L 2319 1497 L 2319 1541 L 2320 1513 L 2320 1547 L 2321 1508 L 2321 1541 L 2322 1492 L 2322 1541 L 2323 1497 L 2323 1541 L 2324 1508 L 2324 1536 L 2325 1503 L 2325 1536 L 2326 1497 L 2326 1530 L 2327 1513 L 2327 1536 L 2328 1508 L 2328 1525 L 2329 1503 L 2329 1530 L 2330 1503 L 2330 1525 L 2331 1508 L 2331 1530 L 2332 1508 L 2332 1530 L 2333 1513 L 2333 1525 L 2334 1513 L 2334 1525 L 2335 1513 L 2335 1525 L 2336 1520 L 2336 1525 L 2337 1513 L 2337 1525 L 2338 1513 L 2338 1525 L 2339 1513 L 2339 1525 L 2340 1513 L 2340 1530 L 2341 1508 L 2341 1525 L 2342 1508 L 2342 1520 L 2343 1513 L 2343 1530 L 2344 1525 L 2344 1530 L 2345 1520 L 2345 1536 L 2346 1520 L 2346 1525 L 2347 1508 L 2347 1541 L 2348 1321 L 2348 1695 L 2349 1432 L 2349 1601 L 2350 1459 L 2350 1585 L 2351 1453 L 2351 1557 L 2352 1476 L 2352 1574 L 2353 1492 L 2353 1564 L 2354 1464 L 2354 1547 L 2355 1469 L 2355 1569 L 2356 1486 L 2356 1541 L 2357 1503 L 2357 1557 L 2358 1503 L 2358 1541 L 2359 1503 L 2359 1541 L 2360 1513 L 2360 1530 L 2361 1508 L 2361 1541 L 2362 1508 L 2362 1530 L 2363 1503 L 2363 1536 L 2364 1508 L 2364 1536 L 2365 1508 L 2365 1530 L 2366 1503 L 2366 1536 L 2367 1513 L 2367 1530 L 2368 1508 L 2368 1530 L 2369 1508 L 2369 1530 L 2370 1508 L 2370 1525 L 2371 1513 L 2371 1530 L 2372 1513 L 2372 1525 L 2373 1513 L 2373 1530 L 2374 1520 L 2374 1525 L 2375 1513 L 2375 1525 L 2376 1513 L 2376 1525 L 2377 1513 L 2377 1525 L 2378 1513 L 2378 1525 L 2379 1513 L 2379 1525 L 2380 1520 L 2380 1525 L 2381 1513 L 2381 1520 L 2382 1513 L 2382 1525 L 2383 1520 L 2383 1525 L 2384 1299 L 2384 1608 L 2385 1321 L 2385 1673 L 2386 1448 L 2386 1574 L 2387 1437 L 2387 1601 L 2388 1453 L 2388 1557 L 2389 1497 L 2389 1574 L 2390 1476 L 2390 1569 L 2391 1497 L 2391 1557 L 2392 1469 L 2392 1552 L 2393 1492 L 2393 1569 L 2394 1508 L 2394 1552 L 2395 1508 L 2395 1547 L 2396 1503 L 2396 1536 L 2397 1513 L 2397 1541 L 2398 1508 L 2398 1530 L 2399 1508 L 2399 1541 L 2400 1508 L 2400 1536 L 2401 1503 L 2401 1530 L 2402 1503 L 2402 1536 L 2403 1503 L 2403 1536 L 2404 1513 L 2404 1530 L 2405 1513 L 2405 1530 L 2406 1508 L 2406 1530 L 2407 1508 L 2407 1525 L 2408 1520 L 2408 1530 L 2409 1520 L 2409 1525 L 2410 1513 L 2410 1525 L 2411 1513 L 2411 1525 L 2412 1513 L 2412 1525 L 2413 1513 L 2413 1525 L 2414 1520 L 2414 1525 L 2415 1513 L 2415 1525 L 2416 1520 L 2416 1525 L 2417 1520 L 2417 1525 L 2418 1513 L 2418 1520 L 2419 1513 L 2419 1591 L 2420 1206 L 2420 1701 L 2421 1426 L 2421 1601 L 2422 1448 L 2422 1591 L 2423 1448 L 2423 1564 L 2424 1464 L 2424 1580 L 2425 1453 L 2425 1601 L 2426 1469 L 2426 1557 L 2427 1469 L 2427 1564 L 2428 1492 L 2428 1552 L 2429 1497 L 2429 1557 L 2430 1486 L 2430 1547 L 2431 1503 L 2431 1541 L 2432 1508 L 2432 1530 L 2433 1503 L 2433 1541 L 2434 1503 L 2434 1541 L 2435 1497 L 2435 1536 L 2436 1503 L 2436 1541 L 2437 1503 L 2437 1536 L 2438 1503 L 2438 1536 L 2439 1513 L 2439 1530 L 2440 1508 L 2440 1536 L 2441 1508 L 2441 1530 L 2442 1508 L 2442 1530 L 2443 1513 L 2443 1536 L 2444 1508 L 2444 1525 L 2445 1513 L 2445 1525 L 2446 1513 L 2446 1525 L 2447 1513 L 2447 1530 L 2448 1520 L 2448 1525 L 2449 1520 L 2449 1525 L 2450 1520 L 2450 1525 L 2451 1271 L 2451 1629 L 2452 1282 L 2452 1690 L 2453 1442 L 2453 1574 L 2454 1414 L 2454 1601 L 2455 1448 L 2455 1585 L 2456 1469 L 2456 1608 L 2457 1469 L 2457 1569 L 2458 1469 L 2458 1552 L 2459 1492 L 2459 1564 L 2460 1497 L 2460 1547 L 2461 1508 L 2461 1552 L 2462 1486 L 2462 1541 L 2463 1492 L 2463 1557 L 2464 1503 L 2464 1541 L 2465 1497 L 2465 1536 L 2466 1503 L 2466 1541 L 2467 1497 L 2467 1536 L 2468 1513 L 2468 1541 L 2469 1503 L 2469 1541 L 2470 1503 L 2470 1530 L 2471 1508 L 2471 1536 L 2472 1513 L 2472 1530 L 2473 1508 L 2473 1530 L 2474 1513 L 2474 1536 L 2475 1513 L 2475 1530 L 2476 1513 L 2476 1525 L 2477 1520 L 2477 1525 L 2478 1513 L 2478 1525 L 2479 1513 L 2479 1530 L 2480 1513 L 2480 1525 L 2481 1310 L 2481 1619 L 2482 1326 L 2482 1657 L 2483 1464 L 2483 1596 L 2484 1453 L 2484 1552 L 2485 1481 L 2485 1574 L 2486 1486 L 2486 1580 L 2487 1481 L 2487 1552 L 2488 1476 L 2488 1557 L 2489 1492 L 2489 1547 L 2490 1503 L 2490 1541 L 2491 1492 L 2491 1547 L 2492 1503 L 2492 1547 L 2493 1513 L 2493 1541 L 2494 1508 L 2494 1536 L 2495 1503 L 2495 1536 L 2496 1497 L 2496 1536 L 2497 1508 L 2497 1536 L 2498 1508 L 2498 1536 L 2499 1503 L 2499 1536 L 2500 1508 L 2500 1530 L 2501 1513 L 2501 1525 L 2502 1508 L 2502 1530 L 2503 1513 L 2503 1525 L 2504 1508 L 2504 1530 L 2505 1513 L 2505 1525 L 2506 1513 L 2506 1525 L 2507 1520 L 2507 1525 L 2508 1332 L 2508 1640 L 2509 1459 L 2509 1557 L 2510 1442 L 2510 1585 L 2511 1453 L 2511 1557 L 2512 1497 L 2512 1564 L 2513 1486 L 2513 1569 L 2514 1486 L 2514 1547 L 2515 1481 L 2515 1547 L 2516 1503 L 2516 1557 L 2517 1508 L 2517 1557 L 2518 1508 L 2518 1547 L 2519 1497 L 2519 1541 L 2520 1513 L 2520 1536 L 2521 1508 L 2521 1530 L 2522 1503 L 2522 1530 L 2523 1508 L 2523 1530 L 2524 1503 L 2524 1530 L 2525 1513 L 2525 1541 L 2526 1503 L 2526 1530 L 2527 1513 L 2527 1530 L 2528 1513 L 2528 1530 L 2529 1508 L 2529 1530 L 2530 1513 L 2530 1525 L 2531 1520 L 2531 1530 L 2532 1513 L 2532 1525 L 2533 1370 L 2533 1613 L 2534 1382 L 2534 1624 L 2535 1464 L 2535 1574 L 2536 1469 L 2536 1547 L 2537 1503 L 2537 1557 L 2538 1492 L 2538 1552 L 2539 1503 L 2539 1530 L 2540 1486 L 2540 1541 L 2541 1497 L 2541 1552 L 2542 1508 L 2542 1536 L 2543 1503 L 2543 1541 L 2544 1508 L 2544 1541 L 2545 1513 L 2545 1541 L 2546 1513 L 2546 1536 L 2547 1513 L 2547 1536 L 2548 1513 L 2548 1530 L 2549 1503 L 2549 1525 L 2550 1513 L 2550 1530 L 2551 1508 L 2551 1525 L 2552 1508 L 2552 1530 L 2553 1513 L 2553 1530 L 2554 1513 L 2554 1525 L 2555 1513 L 2555 1525 L 2556 1387 L 2556 1596 L 2557 1393 L 2557 1624 L 2558 1481 L 2558 1541 L 2559 1459 L 2559 1569 L 2560 1469 L 2560 1547 L 2561 1492 L 2561 1557 L 2562 1492 L 2562 1557 L 2563 1481 L 2563 1552 L 2564 1497 L 2564 1547 L 2565 1508 L 2565 1536 L 2566 1508 L 2566 1536 L 2567 1503 L 2567 1525 L 2568 1503 L 2568 1530 L 2569 1513 L 2569 1530 L 2570 1513 L 2570 1530 L 2571 1513 L 2571 1530 L 2572 1508 L 2572 1536 L 2573 1513 L 2573 1530 L 2574 1508 L 2574 1530 L 2575 1508 L 2575 1530 L 2576 1513 L 2576 1530 L 2577 1513 L 2577 1525 L 2578 1398 L 2578 1596 L 2579 1398 L 2579 1608 L 2580 1492 L 2580 1557 L 2581 1481 L 2581 1541 L 2582 1497 L 2582 1552 L 2583 1508 L 2583 1547 L 2584 1492 L 2584 1536 L 2585 1497 L 2585 1541 L 2586 1508 L 2586 1536 L 2587 1508 L 2587 1536 L 2588 1508 L 2588 1541 L 2589 1513 L 2589 1525 L 2590 1520 L 2590 1530 L 2591 1513 L 2591 1530 L 2592 1513 L 2592 1525 L 2593 1513 L 2593 1530 L 2594 1520 L 2594 1536 L 2595 1513 L 2595 1525 L 2596 1513 L 2596 1530 L 2597 1393 L 2597 1591 L 2598 1486 L 2598 1613 L 2599 1469 L 2599 1552 L 2600 1486 L 2600 1564 L 2601 1481 L 2601 1547 L 2602 1492 L 2602 1552 L 2603 1503 L 2603 1552 L 2604 1486 L 2604 1530 L 2605 1497 L 2605 1541 L 2606 1503 L 2606 1536 L 2607 1508 L 2607 1541 L 2608 1508 L 2608 1530 L 2609 1508 L 2609 1530 L 2610 1513 L 2610 1530 L 2611 1513 L 2611 1530 L 2612 1513 L 2612 1520 L 2613 1508 L 2613 1525 L 2614 1513 L 2614 1530 L 2615 1414 L 2615 1585 L 2616 1414 L 2616 1601 L 2617 1486 L 2617 1547 L 2618 1481 L 2618 1552 L 2619 1481 L 2619 1541 L 2620 1497 L 2620 1547 L 2621 1497 L 2621 1547 L 2622 1508 L 2622 1530 L 2623 1492 L 2623 1536 L 2624 1503 L 2624 1536 L 2625 1508 L 2625 1536 L 2626 1508 L 2626 1525 L 2627 1513 L 2627 1530 L 2628 1520 L 2628 1530 L 2629 1513 L 2629 1530 L 2630 1513 L 2630 1525 L 2631 1513 L 2631 1525 L 2632 1508 L 2632 1530 L 2633 1420 L 2633 1596 L 2634 1481 L 2634 1557 L 2635 1497 L 2635 1552 L 2636 1486 L 2636 1541 L 2637 1503 L 2637 1547 L 2638 1513 L 2638 1530 L 2639 1492 L 2639 1530 L 2640 1503 L 2640 1541 L 2641 1503 L 2641 1536 L 2642 1513 L 2642 1536 L 2643 1513 L 2643 1530 L 2644 1513 L 2644 1530 L 2645 1513 L 2645 1525 L 2646 1520 L 2646 1530 L 2647 1520 L 2647 1525 L 2648 1420 L 2648 1574 L 2649 1426 L 2649 1596 L 2650 1492 L 2650 1541 L 2651 1481 L 2651 1557 L 2652 1508 L 2652 1547 L 2653 1503 L 2653 1547 L 2654 1508 L 2654 1530 L 2655 1492 L 2655 1536 L 2656 1508 L 2656 1541 L 2657 1508 L 2657 1536 L 2658 1513 L 2658 1536 L 2659 1508 L 2659 1530 L 2660 1513 L 2660 1530 L 2661 1513 L 2661 1530 L 2662 1442 L 2662 1574 L 2663 1432 L 2663 1585 L 2664 1497 L 2664 1541 L 2665 1497 L 2665 1547 L 2666 1497 L 2666 1530 L 2667 1503 L 2667 1547 L 2668 1497 L 2668 1536 L 2669 1497 L 2669 1536 L 2670 1508 L 2670 1536 L 2671 1513 L 2671 1525 L 2672 1508 L 2672 1530 L 2673 1513 L 2673 1525 L 2674 1513 L 2674 1525 L 2675 1513 L 2675 1530 L 2676 1448 L 2676 1569 L 2677 1432 L 2677 1574 L 2678 1497 L 2678 1541 L 2679 1492 L 2679 1536 L 2680 1503 L 2680 1536 L 2681 1497 L 2681 1536 L 2682 1503 L 2682 1530 L 2683 1508 L 2683 1530 L 2684 1508 L 2684 1530 L 2685 1513 L 2685 1530 L 2686 1508 L 2686 1536 L 2687 1513 L 2687 1541 L 2688 1448 L 2688 1574 L 2689 1497 L 2689 1557 L 2690 1486 L 2690 1552 L 2691 1503 L 2691 1541 L 2692 1492 L 2692 1536 L 2693 1503 L 2693 1541 L 2694 1513 L 2694 1536 L 2695 1497 L 2695 1536 L 2696 1508 L 2696 1530 L 2697 1513 L 2697 1530 L 2698 1513 L 2698 1530 L 2699 1464 L 2699 1536 L 2700 1448 L 2700 1574 L 2701 1497 L 2701 1541 L 2702 1503 L 2702 1541 L 2703 1503 L 2703 1536 L 2704 1508 L 2704 1536 L 2705 1508 L 2705 1536 L 2706 1508 L 2706 1536 L 2707 1513 L 2707 1530 L 2708 1513 L 2708 1525 L 2709 1513 L 2709 1525 L 2710 1464 L 2710 1564 L 2711 1453 L 2711 1564 L 2712 1508 L 2712 1536 L 2713 1497 L 2713 1547 L 2714 1508 L 2714 1536 L 2715 1508 L 2715 1536 L 2716 1508 L 2716 1530 L 2717 1497 L 2717 1530 L 2718 1513 L 2718 1530 L 2719 1513 L 2719 1525 L 2720 1464 L 2720 1557 L 2721 1503 L 2721 1552 L 2722 1497 L 2722 1536 L 2723 1497 L 2723 1530 L 2724 1508 L 2724 1536 L 2725 1508 L 2725 1536 L 2726 1497 L 2726 1530 L 2727 1513 L 2727 1525 L 2728 1508 L 2728 1536 L 2729 1464 L 2729 1552 L 2730 1503 L 2730 1530 L 2731 1497 L 2731 1536 L 2732 1497 L 2732 1530 L 2733 1508 L 2733 1530 L 2734 1508 L 2734 1525 L 2735 1508 L 2735 1525 L 2736 1508 L 2736 1530 L 2737 1476 L 2737 1552 L 2738 1503 L 2738 1536 L 2739 1503 L 2739 1536 L 2740 1503 L 2740 1530 L 2741 1508 L 2741 1530 L 2742 1513 L 2742 1530 L 2743 1508 L 2743 1525 L 2744 1469 L 2744 1552 L 2745 1508 L 2745 1547 L 2746 1503 L 2746 1536 L 2747 1508 L 2747 1536 L 2748 1503 L 2748 1530 L 2749 1513 L 2749 1530 L 2750 1481 L 2750 1536 L 2751 1486 L 2751 1552 L 2752 1508 L 2752 1530 L 2753 1503 L 2753 1536 L 2754 1503 L 2754 1536 L 2755 1513 L 2755 1530 L 2756 1508 L 2756 1536 L 2757 1486 L 2757 1552 L 2758 1513 L 2758 1530 L 2759 1508 L 2759 1530 L 2760 1508 L 2760 1530 L 2761 1513 L 2761 1530 L 2762 1492 L 2762 1536 L 2763 1492 L 2763 1547 L 2764 1508 L 2764 1530 L 2765 1508 L 2765 1530 L 2766 1508 L 2766 1530 L 2767 1497 L 2767 1547 L 2768 1508 L 2768 1536 L 2769 1508 L 2769 1525 L 2770 1508 L 2770 1525 L 2771 1513 L 2771 1530 L 2772 1497 L 2772 1536 L 2773 1508 L 2773 1536 L 2774 1508 L 2774 1525 L 2775 1503 L 2775 1536 L 2776 1497 L 2776 1536 L 2777 1513 L 2777 1525 L 2778 1508 L 2778 1525 L 2779 1503 L 2779 1530 L 2780 1497 L 2780 1536 L 2781 1508 L 2781 1525 L 2782 1508 L 2782 1530 L 2783 1503 L 2783 1530 L 2784 1513 L 2784 1530 L 2785 1508 L 2785 1530 L 2786 1508 L 2786 1525 L 2787 1513 L 2787 1525 L 2788 1508 L 2788 1530 L 2789 1513 L 2789 1525 L 2790 1503 L 2790 1525 L 2791 1513 L 2791 1530 L 2792 1513 L 2792 1525 L 2793 1503 L 2793 1530 L 2794 1513 L 2794 1525 L 2795 1513 L 2795 1525 L 2796 1513 L 2796 1525 L 2797 1513 L 2797 1525 L 2798 1513 L 2798 1525 L 2799 1520 L 2799 1525 L 2800 1513 L 2800 1525 L 2801 1513 L 2801 1525 L 2802 1513 L 2802 1525 L 2803 1513 L 2803 1520 L 2804 1513 L 2804 1525 L 2805 1513 L 2805 1525 L 2806 1513 L 2806 1525 L 2807 1520 L 2807 1525 L 2808 1520 L 2808 1520 L 2809 1520 L 2809 1525 L 2810 1520 L 2810 1525 L 2811 1520 L 2811 1525 L 2812 1520 L 2812 1525 L 2813 1520 L 2813 1525 L 2814 1520 L 2814 1525 L 2815 1520 L 2815 1525 L 2816 1520 L 2816 1520 L 2817 1520 L 2817 1520 L 2818 1520 L 2818 1520 L 2819 1520 L 2819 1525 L 2820 1520 L 2820 1525 L 2821 1520 L 2821 1525 L 2822 1520 L 2822 1525 L 2823 1520 L 2823 1525 L 2824 1520 L 2824 1525 L 2825 1520 L 2825 1525 L 2826 1520 L 2826 1525 L 2827 1520 L 2827 1525 L 2828 1520 L 2828 1525 L 2829 1520 L 2829 1525 L 2830 1520 L 2830 1520 L 2831 1520 L 2831 1525 L 2832 1520 L 2832 1520 L 2833 1520 L 2833 1525 L 2834 1520 L 2834 1525 L 2835 1520 L 2835 1520 L 2836 1520 L 2836 1520 L 2837 1520 L 2837 1520 L 2838 1520 L 2838 1520 L 2839 1520 L 2839 1520 L 2840 1520 L 2840 1520 L 2841 1520 L 2841 1520 L 2842 1520 L 2842 1520 L 2843 1520 L 2843 1520 L 2844 1520 L 2844 1520 L 2845 1520 L 2845 1520 L 2846 1520 L 2846 1520 L 2847 1520 L 2847 1520 L 2848 1520 L 2848 1520 L 2849 1520 L 2849 1520 L 2850 1520 L 2850 1520 "/>
</g>
<g transform="matrix(1.25,0,0,1,0,0)">
<text x="323" y="504.088389" font-size="16px" font-family="Arial">Time (ms)</text>
</g>
<g transform="matrix(0,-1.04,1.25,0,0,0)">
<text x="-290.5" y="78" font-size="16px" font-family="Arial">Voltage (V)</text>
</g>

</svg>
