<svg xmlns="http://www.w3.org/2000/svg" xmlns:xlink="http://www.w3.org/1999/xlink" width="595.28" height="200" viewBox="0 0 595.28 200">
  <defs>
    <path id="a" d="M5.34 0H2.5v-.19q.57 0 .75-.14.2-.14.2-.58-1.64 0-2.36-.68a2.3 2.3 0 0 1-.72-1.74A2.1 2.1 0 0 1 1.85-5.4q.64-.21 1.61-.21 0-.4-.12-.54a.5.5 0 0 0-.27-.18 2 2 0 0 0-.56-.07v-.18h2.84v.18q-.57.02-.76.18-.18.15-.19.6 1.05 0 1.64.24.6.23 1.02.75.42.53.42 1.31 0 1-.7 1.72-.7.7-2.38.7 0 .45.19.58.19.15.76.14ZM4.4-1.27q.7 0 1.13-.18.42-.2.7-.67.28-.51.28-1.2t-.28-1.15a1.4 1.4 0 0 0-.7-.62 3 3 0 0 0-1.13-.18Zm-.94 0v-4q-.75 0-1.15.2-.41.16-.7.6-.26.44-.26 1.14 0 .75.32 1.27.33.5.76.65.44.15 1.03.14m0 0"/>
    <path id="b" d="M1.7-1.37 3.6-3.6q0-.38-.13-.52t-.45-.16v-.18h2.07v.18q-.32 0-.43.07l-.2.17q-.05.1-.05.62v2.36q0 .53.04.63.06.1.17.17.13.06.47.06V0H2.94v-.19q.4 0 .53-.14.15-.14.14-.72v-2.1L1.7-.9q0 .41.1.57t.46.15V0H.22v-.19q.43 0 .55-.15.12-.16.12-.7v-2.37q0-.51-.05-.6l-.17-.18q-.1-.08-.45-.08v-.18h2.15v.18q-.32 0-.43.07l-.17.17q-.07.1-.07.62Zm0 0"/>
    <path id="c" d="M3.83-4.45 4-3.23h-.2q-.19-.62-.38-.75-.18-.15-.78-.16H1.7v3.1q0 .51.05.62.04.1.16.17.12.06.47.06V0H.15v-.19q.45 0 .59-.14t.14-.72V-3.4Q.9-3.86.84-4a.3.3 0 0 0-.18-.2q-.15-.07-.5-.07v-.18Zm0 0"/>
    <path id="d" d="M.06-4.45h2.07v.18h-.1q-.22 0-.33.1a.3.3 0 0 0-.1.23q0 .2.15.52l1.08 2.25 1-2.45q.08-.2.08-.41 0-.08-.04-.13l-.12-.07a1 1 0 0 0-.3-.04v-.18h1.46v.18a1 1 0 0 0-.29.08 1 1 0 0 0-.21.22q-.04.06-.16.38L2.44.84q-.25.64-.69.97-.42.33-.81.33a.7.7 0 0 1-.47-.17Q.27 1.8.28 1.6q0-.21.13-.33.14-.12.37-.12.15 0 .44.1l.25.07q.15 0 .31-.16.17-.15.35-.58l.3-.76L.85-3.53q-.06-.15-.23-.38-.11-.17-.19-.23a1 1 0 0 0-.36-.13Zm0 0"/>
    <path id="e" d="m-.02-4.02 1.38-.54h.19v1.03q.33-.58.68-.81.34-.24.72-.24.67 0 1.13.52.54.64.54 1.67 0 1.15-.65 1.9-.55.63-1.38.63-.36 0-.6-.1a1 1 0 0 1-.44-.29v1.34q0 .47.04.58.06.12.2.2.13.08.5.08v.18H-.02v-.18H.1q.27 0 .46-.1a.3.3 0 0 0 .14-.18q.04-.11.04-.6v-4.21q0-.43-.04-.55t-.13-.17a.4.4 0 0 0-.22-.06q-.1 0-.3.06Zm1.57.79v1.65q0 .55.03.72.07.29.34.5.27.2.66.2.48 0 .78-.37.4-.5.4-1.4 0-1.02-.45-1.57a1 1 0 0 0-.73-.37q-.24 0-.47.1-.18.1-.56.54m0 0"/>
    <path id="f" d="M2.83-.64q-.7.53-.86.6Q1.7.1 1.4.1.95.1.66-.2q-.3-.34-.3-.84 0-.32.14-.57.2-.34.69-.61.5-.3 1.64-.72v-.17q0-.67-.22-.91-.2-.25-.61-.25-.3 0-.48.16a.5.5 0 0 0-.2.39l.02.28q0 .22-.12.34a.4.4 0 0 1-.28.1.4.4 0 0 1-.31-.12q-.11-.13-.11-.35 0-.42.42-.76.44-.35 1.2-.35.6 0 .97.19.3.15.42.48.1.2.1.85v1.51l.01.78q.03.15.08.2.06.04.14.04t.12-.03q.1-.06.41-.35v.27Q3.84.1 3.34.09a.5.5 0 0 1-.37-.17q-.15-.17-.14-.56m0-.31v-1.7q-.75.3-.95.42-.38.2-.55.43a1 1 0 0 0-.16.52q0 .34.2.58t.49.23q.36 0 .97-.48m0 0"/>
    <path id="g" d="m1.16-5.94 1.6-.78h.16v5.56q0 .55.05.7t.19.21.59.06V0H1.28v-.19q.46 0 .6-.06a.4.4 0 0 0 .18-.19q.06-.12.06-.72v-3.56q0-.71-.04-.92-.04-.15-.13-.22a.3.3 0 0 0-.22-.08q-.17 0-.5.14Zm0 0"/>
    <path id="h" d="M1.23-.94q.24 0 .4.16.15.15.15.37t-.16.4q-.15.15-.39.15a.5.5 0 0 1-.37-.16A.6.6 0 0 1 .7-.4q0-.21.16-.37.15-.15.37-.16m0 0"/>
    <path id="i" d="M.73-3.17q.56-1.4 1.88-1.4.92 0 1.5.7.6.69.6 1.57 0 .93-.6 1.7-.6.75-1.61.74Q1.47.14.92-.72a4 4 0 0 1-.55-2.1 5.6 5.6 0 0 1 .88-3.04q.3-.42.72-.6.4-.2 1.44-.21.72-.02.89-.05.15-.03.3-.19h.18q-.15.48-.39.68-.22.2-.48.28-.28.06-.94.1-.72 0-1 .1-.28.08-.58.44-.3.35-.47.9a4 4 0 0 0-.19 1.24m1.7-1.08a1 1 0 0 0-.79.4q-.3.4-.3 1.27 0 1.17.41 1.78.42.6.97.6.5 0 .78-.42.3-.43.3-1.35 0-.98-.38-1.62-.38-.66-.98-.66m0 0"/>
    <path id="r" d="M5.44 0H-.37l.07-.22A2 2 0 0 0 .31-.3a.7.7 0 0 0 .36-.26q.2-.27.4-.97l1.38-4.8q.17-.6.17-.87a.4.4 0 0 0-.17-.35q-.15-.12-.6-.12H1.7l.08-.22h3.2l-.04.22q-.55 0-.78.1a1 1 0 0 0-.36.34q-.12.15-.35.98L2.1-1.53q-.15.52-.15.75 0 .14.15.26.1.08.44.08h.77q.83 0 1.3-.2.37-.15.67-.47.16-.16.57-.87L6-2.23h.2Zm0 0"/>
    <path id="k" d="m4.75-9.22-1.1 3.86h.9q.96 0 1.4-.3t.75-1.1h.27l-1 3.53h-.28q.12-.44.12-.75a1 1 0 0 0-.12-.5 1 1 0 0 0-.35-.29q-.22-.09-.9-.09H3.5l-.94 3.24q-.12.46-.12.7 0 .18.17.33.12.1.6.1h.87q1.38 0 2.23-.5T7.83-2.7h.26L7.17 0h-7.5l.1-.27q.55 0 .75-.09Q.79-.5.94-.7q.18-.29.45-1.24L3.1-7.8q.2-.7.2-1.1a.5.5 0 0 0-.2-.41q-.18-.15-.73-.16h-.14l.08-.26h6.97l-.6 2.34h-.26q.04-.33.04-.55 0-.39-.18-.64-.25-.33-.7-.5-.36-.14-1.6-.14Zm0 0"/>
    <path id="m" d="M0-.27h6.02v.54H0Zm0 0"/>
    <path id="n" d="m3.95 1.03.3-.76H0v-.54h4.25l-.3-.76L6.02 0Zm0 0"/>
  </defs>
  <use xlink:href="#a" x="80.34" y="195.99"/>
  <use xlink:href="#b" x="88.25" y="195.99"/>
  <use xlink:href="#c" x="93.52" y="195.99"/>
  <use xlink:href="#d" x="97.71" y="195.99"/>
  <use xlink:href="#e" x="102.5" y="195.99"/>
  <use xlink:href="#f" x="107.54" y="195.99"/>
  <use xlink:href="#g" x="114.49" y="195.99"/>
  <use xlink:href="#f" x="119.52" y="195.99"/>
  <use xlink:href="#h" x="123.96" y="195.99"/>
  <use xlink:href="#a" x="368.44" y="195.99"/>
  <use xlink:href="#b" x="376.35" y="195.99"/>
  <use xlink:href="#c" x="381.63" y="195.99"/>
  <use xlink:href="#d" x="385.7" y="195.99"/>
  <use xlink:href="#e" x="390.49" y="195.99"/>
  <use xlink:href="#f" x="395.65" y="195.99"/>
  <use xlink:href="#g" x="402.6" y="195.99"/>
  <use xlink:href="#i" x="407.63" y="195.99"/>
  <use xlink:href="#h" x="412.67" y="195.99"/>
  <path fill-rule="evenodd" d="M306.48 126.96a10.97 10.97 0 1 0 0 21.93 10.97 10.97 0 1 0 0-21.93"/>
  <path fill="none" stroke="#000" stroke-linecap="round" stroke-linejoin="round" stroke-miterlimit="10" stroke-width=".75" d="M306.48 126.96a10.97 10.97 0 1 0 0 21.93 10.97 10.97 0 1 0 0-21.93m0 0"/>
  <path fill="none" stroke="#000" stroke-linejoin="round" stroke-miterlimit="10" stroke-width="3" d="M317.51 139.55h79.82"/>
  <path fill-rule="evenodd" d="M408.35 127.68c-6.1 0-11.02 4.91-11.02 10.9s4.91 10.91 11.02 10.91 11.03-4.91 11.03-10.9-4.92-10.91-11.03-10.91"/>
  <path fill="none" stroke="#000" stroke-linecap="round" stroke-linejoin="round" stroke-miterlimit="10" stroke-width=".75" d="M408.35 127.68c-6.1 0-11.02 4.91-11.02 10.9s4.91 10.91 11.02 10.91 11.03-4.91 11.03-10.9-4.92-10.91-11.03-10.91m0 0"/>
  <path d="M323.74 97.12h70.35v3h-70.35Zm70.35 1.44-6-7.43 14.99 7.43-14.98 7.55"/>
  <use xlink:href="#k" x="353.94" y="88.13"/>
  <use xlink:href="#m" x="353.7" y="75.07"/>
  <use xlink:href="#n" x="357.18" y="75.07"/>
  <path fill-rule="evenodd" d="M510.34 126.96a10.9 10.9 0 1 0 0 21.81 10.9 10.9 0 1 0 0-21.81"/>
  <path fill="none" stroke="#000" stroke-linecap="round" stroke-linejoin="round" stroke-miterlimit="10" stroke-width=".75" d="M510.34 126.96a10.9 10.9 0 1 0 0 21.81 10.9 10.9 0 1 0 0-21.81m0 0"/>
  <path fill="none" stroke="#000" stroke-linejoin="round" stroke-miterlimit="10" stroke-width="3" d="M420.1 138.1h79.81"/>
  <path fill-rule="evenodd" d="M56.73 126.96a10.97 10.97 0 1 0 0 21.93 10.97 10.97 0 1 0 0-21.93"/>
  <path fill="none" stroke="#000" stroke-linecap="round" stroke-linejoin="round" stroke-miterlimit="10" stroke-width=".75" d="M56.73 126.96a10.97 10.97 0 1 0 0 21.93 10.97 10.97 0 1 0 0-21.93m0 0"/>
  <path fill="none" stroke="#000" stroke-linejoin="round" stroke-miterlimit="10" stroke-width="3" d="M67.75 139.55h79.82"/>
  <path fill-rule="evenodd" d="M158.6 127.68a10.97 10.97 0 0 0-11.03 10.9c0 6 4.91 10.91 11.03 10.91 6.1 0 11.02-4.91 11.02-10.9s-4.91-10.91-11.02-10.91"/>
  <path fill="none" stroke="#000" stroke-linecap="round" stroke-linejoin="round" stroke-miterlimit="10" stroke-width=".75" d="M158.6 127.68a10.97 10.97 0 0 0-11.03 10.9c0 6 4.91 10.91 11.03 10.91 6.1 0 11.02-4.91 11.02-10.9s-4.91-10.91-11.02-10.91m0 0"/>
  <path d="M74.1 97.12h70.35v3H74.11Zm70.35 1.44-5.99-7.43 14.98 7.43-14.98 7.55"/>
  <use xlink:href="#k" x="104.07" y="88.13"/>
  <use xlink:href="#m" x="103.83" y="75.07"/>
  <use xlink:href="#n" x="107.3" y="75.07"/>
  <path fill="none" stroke="#000" stroke-linecap="round" stroke-linejoin="round" stroke-miterlimit="10" stroke-width=".75" d="M57.57 160.52c0 2.4 3.71 4.43 8.27 4.43h32.95c4.56 0 8.15 2.04 8.15 4.56 0-2.52 3.72-4.56 8.27-4.56h32.96c4.55 0 8.27-2.04 8.27-4.43"/>
  <use xlink:href="#r" x="104.67" y="180.41"/>
  <path fill="none" stroke="#000" stroke-linecap="round" stroke-linejoin="round" stroke-miterlimit="10" stroke-width=".75" d="M309.24 161.12c0 2.51 3.72 4.55 8.27 4.55h32.96c4.55 0 8.15 1.92 8.15 4.44 0-2.52 3.71-4.44 8.27-4.44h32.95c4.56 0 8.27-2.04 8.27-4.55"/>
  <use xlink:href="#r" x="356.34" y="180.41"/>
  <path fill="none" stroke="#000" stroke-linecap="round" stroke-linejoin="round" stroke-miterlimit="10" stroke-width=".75" d="M408.11 160.52c0 2.4 4.08 4.43 9 4.43h35.94c4.92 0 9 2.04 9 4.56 0-2.52 4.07-4.56 8.98-4.56h35.95c4.92 0 9-2.04 9-4.43"/>
  <use xlink:href="#r" x="455.21" y="180.41"/>
</svg>
