<svg xmlns="http://www.w3.org/2000/svg" xmlns:xlink="http://www.w3.org/1999/xlink" width="150" height="160" viewBox="0 0 150 160">
  <defs>
    <path id="m" d="M3.9-8.1v6.5q0 .73.07.93.06.2.26.33.21.12.66.12h.19V0H.89v-.22h.22q.5 0 .72-.1.21-.13.3-.34.07-.2.07-.95v-4.1q0-.55-.06-.7a.5.5 0 0 0-.19-.23 1 1 0 0 0-.32-.1q-.3 0-.74.2l-.1-.23L3.7-8.09Zm0 0"/>
    <path id="k" d="M1.5-1.8q.4 0 .69.28t.28.7-.28.68a1 1 0 0 1-.69.28q-.4 0-.69-.28a1 1 0 0 1-.28-.69q0-.4.28-.69a1 1 0 0 1 .69-.28m0 0"/>
    <path id="i" d="M3.7 0v-.22q.53 0 .53-.78v-2.69L2.66-1q0 .77.53.78V0H.4v-.22q.34 0 .48-.19.15-.18.14-.65v-3.38q0-.81-.62-.81v-.22h2.78v.22q-.3 0-.42.17-.12.15-.11.64v2.67l1.57-2.71q0-.45-.14-.6-.1-.17-.39-.17v-.22h2.78v.22q-.3 0-.46.16-.14.16-.14.57v3.49q0 .48.12.66.14.15.48.15V0Zm0 0"/>
    <path id="l" d="M4.97 0H.3v-.12a26 26 0 0 0 2.6-3.44q.45-.9.46-1.74 0-.6-.4-1.01-.37-.4-.91-.4-.9 0-1.4.88l-.2-.07q.3-1.1.95-1.64t1.49-.54q.6 0 1.1.28t.77.76q.28.5.28.92a3.4 3.4 0 0 1-.42 1.58Q4-3.47 2.03-1.53h1.7q.64 0 .83-.05t.32-.19q.12-.11.32-.53h.2Zm0 0"/>
    <path id="h" d="M3.1-7.94h4.1v.22q-.69.02-.87.17-.2.15-.22.74 1.35 0 2.05.31t1.2.94.5 1.51q0 1.13-.84 1.99T6.1-1.2q0 .42.1.62.09.2.27.27.2.06.72.1V0H3.1v-.22q.73 0 .92-.22.18-.22.18-.76a5 5 0 0 1-2.17-.38Q1.25-1.97.84-2.6a2.7 2.7 0 0 1 .1-2.95q.5-.71 1.25-.97.75-.28 2.01-.28 0-.53-.22-.7-.21-.2-.89-.2Zm3 6.32q.6 0 .96-.18.38-.18.61-.75.25-.57.25-1.56 0-.78-.23-1.33-.22-.54-.58-.73-.36-.2-1-.2ZM4.2-6.37q-.78.01-1.1.26-.34.25-.54.78-.19.54-.19 1.36 0 .97.24 1.47t.62.69q.4.17.97.19Zm0 0"/>
    <path id="j" d="M.42-.22Q.76-.23.9-.39q.15-.15.14-.63v-3.46q0-.43-.12-.58-.13-.15-.49-.19v-.22h4.81v1.42h-.21q-.14-.65-.38-.86t-.89-.2H2.67v4.13q0 .42.13.59.14.15.54.17V0H.42Zm0 0"/>
    <path id="c" d="m3.56-8.33-2 6.97q-.15.52-.14.64 0 .1.05.16.06.04.14.04.1 0 .23-.09.32-.24.64-.75l.18.19Q2.1-.4 1.64-.07q-.34.2-.66.2A.5.5 0 0 1 .61 0a.5.5 0 0 1-.14-.36q0-.22.19-.87l1.57-5.49q.2-.67.2-.76a.3.3 0 0 0-.12-.24q-.11-.1-.34-.1-.13 0-.4.05v-.21Zm0 0"/>
    <path id="d" d="M4.98 0 3.7-3.86q-.44.01-.9-.08l-.7 2.4q-.12.46-.12.79 0 .24.16.38.15.1.7.15L2.8 0H-.28l.08-.22q.42 0 .57-.08a1 1 0 0 0 .35-.28q.19-.26.4-.97l1.38-4.8q.15-.45.14-.73a.6.6 0 0 0-.22-.45 1 1 0 0 0-.62-.19l.06-.22h2.6q1.29 0 1.87.5.58.49.58 1.28 0 .77-.6 1.41t-1.6.81l.76 2.32q.28.85.56 1.12.29.25.9.28L6.89 0ZM2.9-4.28q.37.06.67.06 1 0 1.58-.56.6-.56.6-1.4 0-.64-.37-1-.36-.33-1.09-.34-.19 0-.45.05Zm0 0"/>
    <path id="b" d="M4.55-4.06h-2.9v.31q0 2 .33 2.81.34.82 1.13.82.8 0 1.12-.8t.32-3.11Zm-2.9-.36h2.9v-.25l.01-.2q0-1.52-.34-2.22-.35-.72-1.08-.72-.77 0-1.12.8a7 7 0 0 0-.36 2.56Zm1.5-3.61q1.2 0 1.87 1.01.65 1 .65 2.91a6 6 0 0 1-.65 3.14A2.1 2.1 0 0 1 3.16.11q-1.3 0-1.7-.67-.44-.67-.57-1.08-.15-.42-.2-.83-.07-.4-.1-.69l-.01-.5v-.36q0-1.9.67-2.95a2.1 2.1 0 0 1 1.9-1.06m0 0"/>
    <path id="g" d="M2-4.62 3.44-1l.76-2.7q.1-.34.1-.52 0-.14-.1-.2-.07-.08-.33-.08H3.8l.03-.12H5.3l-.03.12a1 1 0 0 0-.34.05 1 1 0 0 0-.24.18q-.1.17-.23.57L3.39.1h-.12L1.72-3.8.9-.9q-.1.3-.1.5 0 .12.08.18.1.07.4.1V0H-.2l.05-.12q.27-.02.36-.05.15-.06.2-.16.11-.16.22-.58l.92-3.21a1 1 0 0 0-.28-.29A1 1 0 0 0 .8-4.5l.03-.12Zm0 0"/>
    <radialGradient id="a">
      <stop offset="0%" stop-color="#fff"/>
      <stop offset="100%" stop-color="gray"/>
    </radialGradient>
  </defs>
  <path fill="none" stroke="#000" stroke-linejoin="round" stroke-miterlimit="10" stroke-width=".75" d="m48.53 125.26 30.7-11.44V89.3L109 103.88l-16.18 21.98-17.23-20.38 26.07-16.68-15.63-11.29"/>
  <path fill-rule="evenodd" d="m79.24 72.62 9.24 1.15-.1 1.55-6.5-.8 2.8 5.89-1.45.65Zm0 0"/>
  <path fill="url(#a)" stroke="#000" stroke-miterlimit="3.86" stroke-width=".75" d="M54.27 125q-.01 1.06-.55 1.95a4.35 4.35 0 0 1-5.74 1.45 3.9 3.9 0 0 1-2.1-3.4q.01-1.03.55-2 .59-.87 1.55-1.4a4.4 4.4 0 0 1 2.1-.54 4.4 4.4 0 0 1 3.64 1.95q.54.96.55 2Zm0 0"/>
  <path fill="none" stroke="#000" stroke-dasharray="2.99649 2.2473675" stroke-miterlimit="10" stroke-width=".75" d="m97.52 91.45 24.02-16.24"/>
  <path fill="none" stroke="#000" stroke-miterlimit="3.86" stroke-width=".75" d="m89.28 81.06.4-.6.44-.55.5-.55.56-.55.5-.5.6-.45.6-.45.6-.4.6-.4.64-.34.7-.3.65-.3.7-.26.7-.2.75-.14.7-.16.74-.1.75-.04h1.45l.75.1.7.04.75.16 1.4.4.7.24.7.25.65.3.65.35.64.4.6.4.6.45.55.5.55.5.5.5.5.55.45.6.45.6"/>
  <use xlink:href="#b" x="99.92" y="69.67"/>
  <use xlink:href="#c" x="102.51" y="123.51"/>
  <path fill="none" stroke="#000" stroke-dasharray="2.99649 2.2473675" stroke-miterlimit="10" stroke-width=".75" d="m51.07 121.16 29.77-48"/>
  <use xlink:href="#d" x="48.88" y="99.04"/>
  <use xlink:href="#g" x="56.27" y="99.94"/>
  <use xlink:href="#h" x="67.55" y="147.48"/>
  <use xlink:href="#i" x="77.84" y="147.48"/>
  <use xlink:href="#j" x="84.73" y="147.48"/>
  <use xlink:href="#k" x="88.83" y="147.48"/>
  <use xlink:href="#l" x="94.82" y="147.48"/>
  <use xlink:href="#k" x="100.81" y="147.48"/>
  <use xlink:href="#m" x="103.81" y="147.48"/>
</svg>
