<svg xmlns="http://www.w3.org/2000/svg" xmlns:xlink="http://www.w3.org/1999/xlink" width="595.3" height="841.89" viewBox="0 0 595.3 841.89">
  <defs>
    <path id="m" d="M3.9-8.1v6.5q0 .73.07.93.06.2.26.33.21.12.66.12h.19V0H.89v-.22h.22q.5 0 .72-.1.21-.13.3-.34.07-.2.07-.95v-4.1q0-.55-.06-.7a.5.5 0 0 0-.19-.23.6.6 0 0 0-.32-.1q-.3 0-.74.2l-.1-.23L3.7-8.09Zm0 0"/>
    <path id="k" d="M1.5-1.8q.4 0 .69.28t.28.7-.28.68a1 1 0 0 1-.69.28q-.4 0-.69-.28a1 1 0 0 1-.28-.69q0-.4.28-.69a1 1 0 0 1 .69-.28m0 0"/>
    <path id="i" d="M3.7 0v-.22q.53 0 .53-.78v-2.69L2.66-1q0 .77.53.78V0H.4v-.22q.34 0 .48-.19.15-.18.14-.65v-3.38q0-.81-.62-.81v-.22h2.78v.22q-.3 0-.42.17-.12.15-.11.64v2.67l1.57-2.71q0-.45-.14-.6-.1-.17-.39-.17v-.22h2.78v.22q-.3 0-.46.16-.14.16-.14.57v3.49q0 .48.12.66.14.15.48.15V0Zm0 0"/>
    <path id="l" d="M4.97 0H.3v-.12a26 26 0 0 0 2.6-3.44q.45-.9.46-1.74 0-.6-.4-1.01-.37-.4-.91-.4-.9 0-1.4.88L.45-5.9q.3-1.1.95-1.64t1.49-.54q.6 0 1.1.28t.77.76q.28.5.28.92a3.4 3.4 0 0 1-.42 1.58Q4-3.47 2.03-1.53h1.7q.64 0 .83-.05t.32-.19q.12-.11.32-.53h.2Zm0 0"/>
    <path id="h" d="M3.1-7.94h4.1v.22q-.69.02-.87.17-.2.15-.22.74 1.35 0 2.05.31t1.2.94.5 1.51q0 1.13-.84 1.99T6.1-1.2q0 .42.1.62.09.2.27.27.2.06.72.1V0H3.1v-.22q.73 0 .92-.22.18-.22.18-.76a5 5 0 0 1-2.17-.38Q1.25-1.97.84-2.6a2.7 2.7 0 0 1 .1-2.95q.5-.71 1.25-.97.75-.28 2.01-.28 0-.53-.22-.7-.21-.2-.89-.2Zm3 6.32q.6 0 .96-.18.38-.18.61-.75.25-.57.25-1.56 0-.78-.23-1.33-.22-.54-.58-.73-.36-.2-1-.2ZM4.2-6.37q-.78.01-1.1.26-.34.25-.54.78-.19.54-.19 1.36 0 .97.24 1.47t.62.69q.4.17.97.19Zm0 0"/>
    <path id="j" d="M.42-.22Q.76-.23.9-.39q.15-.15.14-.63v-3.46q0-.43-.12-.58-.13-.15-.49-.19v-.22h4.81v1.42h-.21q-.14-.65-.38-.86t-.89-.2H2.67v4.13q0 .42.13.59.14.15.54.17V0H.42Zm0 0"/>
    <path id="a" d="m2.6-5.3-.76 2.64q.5-.93.86-1.4a5 5 0 0 1 1.08-1.05q.3-.18.66-.19.3 0 .48.2.2.18.19.47 0 .3-.13.75l-.42 1.49a9 9 0 0 1 1.82-2.5q.46-.4.93-.4.26 0 .44.18.17.19.17.56 0 .35-.1.72l-.65 2.28q-.2.75-.2.83t.05.14q.03.05.09.05t.2-.13q.33-.25.63-.67l.2.13A6 6 0 0 1 6.98 0q-.27.15-.48.14A.5.5 0 0 1 6.16 0a.5.5 0 0 1-.14-.34q0-.3.23-1.13l.53-1.89q.2-.64.2-.72L7-4.3q0-.14-.06-.22-.08-.07-.16-.07-.25 0-.53.25a8 8 0 0 0-1.5 2.07q-.46.9-.87 2.27H3l1-3.55q.15-.56.16-.76 0-.15-.07-.22a.2.2 0 0 0-.15-.08 1 1 0 0 0-.4.13q-.37.23-.91.98-.56.75-.86 1.44-.15.31-.7 2.06H.2l1.08-3.8.14-.48.05-.17q0-.13-.13-.22a.4.4 0 0 0-.3-.11l-.41.08-.05-.22Zm0 0"/>
    <path id="b" d="m6.25-4.94-.17.61h-.99q.1.3.11.6 0 .75-.65 1.37-.66.6-1.82.67-.6.2-.92.44-.12.1-.12.2 0 .12.1.2.12.1.54.2l1.14.28A3 3 0 0 1 4.7.14q.32.3.32.72 0 .48-.36.87-.37.4-1.05.63t-1.5.23a5 5 0 0 1-1.33-.18q-.6-.18-.84-.47a1 1 0 0 1-.27-.6q0-.24.17-.53Q.02.55.27.37l.89-.53Q.89-.36.89-.6q0-.23.24-.5.22-.27 1-.58a1.8 1.8 0 0 1-1.02-.53q-.38-.43-.38-.94 0-.82.72-1.48a2.8 2.8 0 0 1 1.96-.66q.44 0 .71.1.3.08.54.26Zm-2.03.92a1 1 0 0 0-.27-.73 1 1 0 0 0-.68-.27q-.65 0-1.1.68-.42.66-.42 1.37 0 .45.27.74t.67.28q.3 0 .6-.16.28-.17.5-.47.19-.3.3-.76.13-.48.13-.68M1.4 0Q.93.22.69.55t-.24.67q0 .39.35.64.5.36 1.48.36.82 0 1.42-.28t.6-.74q0-.22-.22-.43a2 2 0 0 0-.85-.33Q2.88.37 1.41 0m0 0"/>
    <path id="e" d="m3.56-8.33-2 6.97q-.15.52-.14.64 0 .1.05.16.06.04.14.04.1 0 .23-.09.32-.24.64-.75l.18.19Q2.1-.4 1.64-.07 1.3.13.98.13A.5.5 0 0 1 .61 0a.5.5 0 0 1-.14-.36q0-.22.19-.87l1.57-5.49q.2-.67.2-.76a.3.3 0 0 0-.12-.24q-.11-.1-.34-.1-.13 0-.4.05v-.21Zm0 0"/>
    <path id="f" d="M4.98 0 3.7-3.86q-.44.01-.9-.08l-.7 2.4q-.12.46-.12.79 0 .24.16.38.15.1.7.15L2.8 0H-.28l.08-.22q.42 0 .57-.08a1 1 0 0 0 .35-.28q.19-.26.4-.97l1.38-4.8q.15-.45.14-.73a.6.6 0 0 0-.22-.45 1 1 0 0 0-.62-.19l.06-.22h2.6q1.29 0 1.87.5.58.49.58 1.28 0 .77-.6 1.41t-1.6.81l.76 2.32q.28.85.56 1.12.29.25.9.28L6.89 0ZM2.9-4.28q.37.06.67.06 1 0 1.58-.56.6-.56.6-1.4 0-.64-.37-1-.36-.33-1.09-.34-.19 0-.45.05Zm0 0"/>
    <path id="d" d="M4.55-4.06h-2.9v.31q0 2 .33 2.81.34.82 1.13.82.8 0 1.12-.8t.32-3.11Zm-2.9-.36h2.9v-.25l.01-.2q0-1.52-.34-2.22-.35-.72-1.08-.72-.77 0-1.12.8a7 7 0 0 0-.36 2.56Zm1.5-3.61q1.2 0 1.87 1.01.65 1 .65 2.91a6 6 0 0 1-.65 3.14A2.1 2.1 0 0 1 3.16.11q-1.3 0-1.7-.67-.44-.67-.57-1.08-.15-.42-.2-.83-.07-.4-.1-.69l-.01-.5v-.36q0-1.9.67-2.95a2.1 2.1 0 0 1 1.9-1.06m0 0"/>
    <path id="g" d="M2-4.62 3.44-1l.76-2.7q.1-.34.1-.52 0-.14-.1-.2-.07-.08-.33-.08H3.8l.03-.12H5.3l-.03.12a1 1 0 0 0-.34.05 1 1 0 0 0-.24.18q-.1.17-.23.57L3.39.1h-.12L1.72-3.8.9-.9q-.1.3-.1.5 0 .12.08.18.1.07.4.1L1.28 0H-.2l.05-.12q.27-.02.36-.05.15-.06.2-.16.11-.16.22-.58l.92-3.21a1 1 0 0 0-.28-.29 1 1 0 0 0-.47-.09l.03-.12Zm0 0"/>
    <clipPath id="c">
      <path d="M454.27 625v.26l-.15.75-.05.24-.1.25-.15.25-.1.2-.15.25-.15.2-.2.2-.2.2-.2.15-.2.2-.2.15-.25.1-.25.15-.25.1-.25.1-.25.05-.3.05-.5.1h-.6l-.5-.1-.3-.05-.24-.05-.25-.1-.25-.1-.25-.15-.25-.1-.2-.15-.2-.2-.2-.15-.2-.2-.2-.2-.15-.2-.15-.25-.1-.2-.15-.25-.1-.25-.05-.24-.05-.25-.05-.25-.05-.25v-.5l.05-.25.05-.25.05-.25.05-.25.1-.25.15-.25.1-.25.15-.2.15-.2.4-.4.2-.15.2-.2.2-.15.25-.1.25-.15.25-.1.25-.1.25-.05.3-.05.24-.05.25-.05h.6l.25.05.25.05.3.05.25.05.25.1.25.1.25.15.25.1.2.15.2.2.2.15.4.4.15.2.15.2.1.25.15.25.1.25.05.25.15.75Zm0 0" clip-rule="evenodd"/>
    </clipPath>
  </defs>
  <path fill="none" stroke="#000" stroke-miterlimit="3.86" stroke-width="1.498245" d="M75.61 253.64h170.6"/>
  <path fill="#fff" fill-rule="evenodd" stroke="#000" stroke-miterlimit="3.86" stroke-width="1.498245" d="M187.93 185.82c0 4.3-1.15 8.54-3.4 12.23a25.4 25.4 0 0 1-9.28 8.95 26.2 26.2 0 0 1-25.43 0 25.4 25.4 0 0 1-9.28-8.95 23.6 23.6 0 0 1-3.4-12.23c0-4.3 1.15-8.54 3.4-12.23s5.44-6.8 9.28-8.95a26.2 26.2 0 0 1 25.43 0 25.4 25.4 0 0 1 9.29 8.95c2.24 3.7 3.39 7.94 3.39 12.23ZM214.5 229.12c0 4.3-1.15 8.54-3.4 12.24a25.3 25.3 0 0 1-9.29 8.94 26.3 26.3 0 0 1-25.42 0 25.3 25.3 0 0 1-9.28-8.94 23.5 23.5 0 0 1-3.4-12.24c0-4.3 1.15-8.54 3.4-12.24a25.3 25.3 0 0 1 9.28-8.93 26.23 26.23 0 0 1 25.42 0 25.3 25.3 0 0 1 9.3 8.93c2.24 3.7 3.39 7.94 3.39 12.24ZM162.71 229.12c0 4.3-1.15 8.54-3.4 12.24a25.3 25.3 0 0 1-9.29 8.94 26.3 26.3 0 0 1-25.41 0 25.3 25.3 0 0 1-9.3-8.94 23.5 23.5 0 0 1-3.4-12.24c0-4.3 1.16-8.54 3.4-12.24a25.3 25.3 0 0 1 9.3-8.93 26.2 26.2 0 0 1 25.41 0 25.3 25.3 0 0 1 9.3 8.93c2.24 3.7 3.4 7.94 3.4 12.24Zm0 0"/>
  <path fill="none" stroke="#000" stroke-miterlimit="10" stroke-width=".7491225" d="m137.04 229.87-12.79 12.78"/>
  <path fill-rule="evenodd" d="m120.3 246.6 2.1-6.34 4.25 4.24Zm0 0"/>
  <use xlink:href="#a" x="141.53" y="243.25"/>
  <path fill="none" stroke="#000" stroke-miterlimit="10" stroke-width=".7491225" d="M104.98 173.93v22.33"/>
  <path fill-rule="evenodd" d="m104.98 201.85-3-6h6Zm0 0"/>
  <use xlink:href="#b" x="110.77" y="183.12"/>
  <path fill="none" stroke="#000" stroke-linejoin="round" stroke-miterlimit="10" stroke-width=".7491225" d="m448.53 625.26 30.7-11.44V589.3L509 603.88l-16.18 21.98-17.23-20.38 26.07-16.68-15.63-11.29"/>
  <path fill-rule="evenodd" d="m479.24 572.62 9.24 1.15-.1 1.55-6.5-.8 2.8 5.89-1.45.65Zm0 0"/>
  <g fill-rule="evenodd" clip-path="url(#c)">
    <path fill="gray" d="M446.13 621.31h7.84v7.34h-7.84Zm.05.05h7.74v7.24h-7.74Zm0 0"/>
    <path fill="#818181" d="M446.18 621.36h7.74v7.24h-7.74Zm0 0h7.74v7.24h-7.74Zm0 0"/>
    <path fill="#828282" d="M446.18 621.36h7.74v7.24h-7.74Zm.05.05h7.64v7.14h-7.64Zm0 0"/>
    <path fill="#838383" d="M446.23 621.41h7.64v7.14h-7.64Zm0 0h7.64v7.14h-7.64Zm0 0"/>
    <path fill="#848484" d="M446.23 621.41h7.64v7.14h-7.64Zm.05.05h7.54v7.04h-7.54Zm0 0"/>
    <path fill="#858585" d="M446.28 621.46h7.54v7.04h-7.54Zm0 0h7.54v7.04h-7.54Zm0 0"/>
    <path fill="#868686" d="M446.28 621.46h7.54v7.04h-7.54Zm.05.05h7.44v6.94h-7.44Zm0 0"/>
    <path fill="#878787" d="M446.33 621.51h7.44v6.94h-7.44Zm.05.05h7.34v6.84h-7.34Zm0 0"/>
    <path fill="#888" d="M446.38 621.56h7.34v6.84h-7.34Zm0 0h7.34v6.84h-7.34Zm0 0"/>
    <path fill="#898989" d="M446.38 621.56h7.34v6.84h-7.34Zm.05.05h7.24v6.74h-7.24Zm0 0"/>
    <path fill="#8a8a8a" d="M446.43 621.6h7.24v6.75h-7.24Zm0 0h7.24v6.75h-7.24Zm0 0"/>
    <path fill="#8b8b8b" d="M446.43 621.6h7.24v6.75h-7.24Zm.05.06h7.14v6.64h-7.14Zm0 0"/>
    <path fill="#8c8c8c" d="M446.48 621.66h7.14v6.64h-7.14Zm.05.05h7.04v6.54h-7.04Zm0 0"/>
    <path fill="#8d8d8d" d="M446.53 621.71h7.04v6.54h-7.04Zm0 0h7.04v6.54h-7.04Zm0 0"/>
    <path fill="#8e8e8e" d="M446.53 621.71h7.04v6.54h-7.04Zm.05.05h6.94v6.44h-6.94Zm0 0"/>
    <path fill="#8f8f8f" d="M446.58 621.76h6.94v6.44h-6.94Zm0 0h6.94v6.44h-6.94Zm0 0"/>
    <path fill="#909090" d="M446.58 621.76h6.94v6.44h-6.94Zm.05.05h6.84v6.34h-6.84Zm0 0"/>
    <path fill="#919191" d="M446.63 621.81h6.84v6.34h-6.84Zm0 0h6.84v6.34h-6.84Zm0 0"/>
    <path fill="#929292" d="M446.63 621.81h6.84v6.34h-6.84Zm.05.05h6.74v6.24h-6.74Zm0 0"/>
    <path fill="#939393" d="M446.68 621.86h6.74v6.24h-6.74Zm.05.05h6.64v6.14h-6.64Zm0 0"/>
    <path fill="#949494" d="M446.73 621.91h6.64v6.14h-6.64Zm0 0h6.64v6.14h-6.64Zm0 0"/>
    <path fill="#959595" d="M446.73 621.91h6.64v6.14h-6.64Zm.05.05h6.54V628h-6.54Zm0 0"/>
    <path fill="#969696" d="M446.78 621.96h6.54V628h-6.54Zm0 0h6.54V628h-6.54Zm0 0"/>
    <path fill="#979797" d="M446.78 621.96h6.54V628h-6.54Zm.05.05h6.44v5.94h-6.44Zm0 0"/>
  </g>
  <path fill="#989898" fill-rule="evenodd" d="M446.83 622.01h6.44v5.94h-6.44Zm.05.05h6.34v5.84h-6.34Zm0 0"/>
  <path fill="#999" fill-rule="evenodd" d="M446.88 622.06h6.34v5.84h-6.34Zm0 0h6.34v5.84h-6.34Zm0 0"/>
  <path fill="#9a9a9a" fill-rule="evenodd" d="M446.88 622.06h6.34v5.84h-6.34Zm.05.05h6.24v5.75h-6.24Zm0 0"/>
  <path fill="#9b9b9b" fill-rule="evenodd" d="M446.93 622.1h6.24v5.76h-6.24Zm0 0h6.24v5.76h-6.24Zm0 0"/>
  <path fill="#9c9c9c" fill-rule="evenodd" d="M446.93 622.1h6.24v5.76h-6.24Zm.05.06h6.14v5.64h-6.14Zm0 0"/>
  <path fill="#9d9d9d" fill-rule="evenodd" d="M446.98 622.16h6.14v5.64h-6.14Zm0 0h6.14v5.64h-6.14Zm0 0"/>
  <path fill="#9e9e9e" fill-rule="evenodd" d="M446.98 622.16h6.14v5.64h-6.14Zm.05.05h6.04v5.54h-6.04Zm0 0"/>
  <path fill="#9f9f9f" fill-rule="evenodd" d="M447.03 622.21h6.04v5.54h-6.04Zm.05.05h5.94v5.44h-5.94Zm0 0"/>
  <path fill="#a0a0a0" fill-rule="evenodd" d="M447.08 622.26h5.94v5.44h-5.94Zm0 0h5.94v5.44h-5.94Zm0 0"/>
  <path fill="#a1a1a1" fill-rule="evenodd" d="M447.08 622.26h5.94v5.44h-5.94Zm.05.05h5.84v5.34h-5.84Zm0 0"/>
  <path fill="#a2a2a2" fill-rule="evenodd" d="M447.13 622.3h5.84v5.35h-5.84Zm0 0h5.84v5.35h-5.84Zm0 0"/>
  <path fill="#a3a3a3" fill-rule="evenodd" d="M447.13 622.3h5.84v5.35h-5.84Zm.05.06h5.74v5.25h-5.74Zm0 0"/>
  <path fill="#a4a4a4" fill-rule="evenodd" d="M447.18 622.36h5.74v5.25h-5.74Zm.05.05h5.64v5.14h-5.64Zm0 0"/>
  <path fill="#a5a5a5" fill-rule="evenodd" d="M447.23 622.41h5.64v5.14h-5.64Zm0 0h5.64v5.14h-5.64Zm0 0"/>
  <path fill="#a6a6a6" fill-rule="evenodd" d="M447.23 622.41h5.64v5.14h-5.64Zm.05.05h5.54v5.04h-5.54Zm0 0"/>
  <path fill="#a7a7a7" fill-rule="evenodd" d="M447.28 622.46h5.54v5.04h-5.54Zm0 0h5.54v5.04h-5.54Zm0 0"/>
  <path fill="#a8a8a8" fill-rule="evenodd" d="M447.28 622.46h5.54v5.04h-5.54Zm.05.05h5.44v4.94h-5.44Zm0 0"/>
  <path fill="#a9a9a9" fill-rule="evenodd" d="M447.33 622.51h5.44v4.94h-5.44Zm0 0h5.44v4.94h-5.44Zm0 0"/>
  <path fill="#aaa" fill-rule="evenodd" d="M447.33 622.51h5.44v4.94h-5.44Zm.05.05h5.34v4.84h-5.35Zm0 0"/>
  <path fill="#ababab" fill-rule="evenodd" d="M447.38 622.56h5.34v4.84h-5.35Zm.05.05h5.24v4.75h-5.24Zm0 0"/>
  <path fill="#acacac" fill-rule="evenodd" d="M447.43 622.6h5.24v4.76h-5.24Zm0 0h5.24v4.76h-5.24Zm0 0"/>
  <path fill="#adadad" fill-rule="evenodd" d="M447.43 622.6h5.24v4.76h-5.24Zm.05.06h5.14v4.64h-5.14Zm0 0"/>
  <path fill="#aeaeae" fill-rule="evenodd" d="M447.48 622.66h5.14v4.64h-5.14Zm0 0h5.14v4.64h-5.14Zm0 0"/>
  <path fill="#afafaf" fill-rule="evenodd" d="M447.48 622.66h5.14v4.64h-5.14Zm.05.05h5.04v4.54h-5.04Zm0 0"/>
  <path fill="#b0b0b0" fill-rule="evenodd" d="M447.53 622.71h5.04v4.54h-5.04Zm.05.05h4.94v4.44h-4.94Zm0 0"/>
  <path fill="#b1b1b1" fill-rule="evenodd" d="M447.58 622.76h4.94v4.44h-4.94Zm0 0h4.94v4.44h-4.94Zm0 0"/>
  <path fill="#b2b2b2" fill-rule="evenodd" d="M447.58 622.76h4.94v4.44h-4.94Zm.05.05h4.84v4.35h-4.85Zm0 0"/>
  <path fill="#b3b3b3" fill-rule="evenodd" d="M447.63 622.8h4.84v4.36h-4.85Zm0 0h4.84v4.36h-4.85Zm0 0"/>
  <path fill="#b4b4b4" fill-rule="evenodd" d="M447.63 622.8h4.84v4.36h-4.85Zm.05.06h4.74v4.25h-4.74Zm0 0"/>
  <path fill="#b5b5b5" fill-rule="evenodd" d="M447.68 622.86h4.74v4.25h-4.74Zm0 0h4.74v4.25h-4.74Zm0 0"/>
  <path fill="#b6b6b6" fill-rule="evenodd" d="M447.68 622.86h4.74v4.25h-4.74Zm.05.05h4.64v4.14h-4.64Zm0 0"/>
  <path fill="#b7b7b7" fill-rule="evenodd" d="M447.73 622.91h4.64v4.14h-4.64Zm.05.05h4.54V627h-4.54Zm0 0"/>
  <path fill="#b8b8b8" fill-rule="evenodd" d="M447.78 622.96h4.54V627h-4.54Zm0 0h4.54V627h-4.54Zm0 0"/>
  <path fill="#b9b9b9" fill-rule="evenodd" d="M447.78 622.96h4.54V627h-4.54Zm.05.05h4.44v3.94h-4.44Zm0 0"/>
  <path fill="#bababa" fill-rule="evenodd" d="M447.83 623h4.44v3.95h-4.44Zm0 0h4.44v3.95h-4.44Zm0 0"/>
  <path fill="#bbb" fill-rule="evenodd" d="M447.83 623h4.44v3.95h-4.44Zm.05.06h4.34v3.85h-4.35Zm0 0"/>
  <path fill="#bcbcbc" fill-rule="evenodd" d="M447.88 623.06h4.34v3.85h-4.35Zm.05.05h4.24v3.75h-4.24Zm0 0"/>
  <path fill="#bdbdbd" fill-rule="evenodd" d="M447.93 623.1h4.24v3.76h-4.24Zm0 0h4.24v3.76h-4.24Zm0 0"/>
  <path fill="#bebebe" fill-rule="evenodd" d="M447.93 623.1h4.24v3.76h-4.24Zm.05.06h4.14v3.64h-4.14Zm0 0"/>
  <path fill="#bfbfbf" fill-rule="evenodd" d="M447.98 623.16h4.14v3.64h-4.14Zm0 0h4.14v3.64h-4.14Zm0 0"/>
  <path fill="silver" fill-rule="evenodd" d="M447.98 623.16h4.14v3.64h-4.14Zm.05.05h4.04v3.54h-4.04Zm0 0"/>
  <path fill="#c1c1c1" fill-rule="evenodd" d="M448.03 623.21h4.04v3.54h-4.04Zm0 0h4.04v3.54h-4.04Zm0 0"/>
  <path fill="#c2c2c2" fill-rule="evenodd" d="M448.03 623.21h4.04v3.54h-4.04Zm.04.05h3.95v3.44h-3.95Zm0 0"/>
  <path fill="#c3c3c3" fill-rule="evenodd" d="M448.07 623.26h3.95v3.44h-3.95Zm.06.05h3.84v3.35h-3.85Zm0 0"/>
  <path fill="#c4c4c4" fill-rule="evenodd" d="M448.13 623.3h3.84v3.36h-3.85Zm0 0h3.84v3.36h-3.85Zm0 0"/>
  <path fill="#c5c5c5" fill-rule="evenodd" d="M448.13 623.3h3.84v3.36h-3.85Zm.05.06h3.74v3.25h-3.74Zm0 0"/>
  <path fill="#c6c6c6" fill-rule="evenodd" d="M448.18 623.36h3.74v3.25h-3.74Zm0 0h3.74v3.25h-3.74Zm0 0"/>
  <path fill="#c7c7c7" fill-rule="evenodd" d="M448.18 623.36h3.74v3.25h-3.74Zm.05.05h3.64v3.14h-3.64Zm0 0"/>
  <path fill="#c8c8c8" fill-rule="evenodd" d="M448.23 623.41h3.64v3.14h-3.64Zm.05.05h3.54v3.04h-3.54Zm0 0"/>
  <path fill="#c9c9c9" fill-rule="evenodd" d="M448.28 623.46h3.54v3.04h-3.54Zm0 0h3.54v3.04h-3.54Zm0 0"/>
  <path fill="#cacaca" fill-rule="evenodd" d="M448.28 623.46h3.54v3.04h-3.54Zm.04.05h3.45v2.95h-3.45Zm0 0"/>
  <path fill="#cbcbcb" fill-rule="evenodd" d="M448.32 623.5h3.45v2.96h-3.45Zm0 0h3.45v2.96h-3.45Zm0 0"/>
  <path fill="#ccc" fill-rule="evenodd" d="M448.32 623.5h3.45v2.96h-3.45Zm.06.06h3.34v2.85h-3.35Zm0 0"/>
  <path fill="#cdcdcd" fill-rule="evenodd" d="M448.38 623.56h3.34v2.85h-3.35Zm0 0h3.34v2.85h-3.35Zm0 0"/>
  <path fill="#cecece" fill-rule="evenodd" d="M448.38 623.56h3.34v2.85h-3.35Zm.05.05h3.24v2.75h-3.24Zm0 0"/>
  <path fill="#cfcfcf" fill-rule="evenodd" d="M448.43 623.6h3.24v2.76h-3.24Zm.05.06h3.14v2.64h-3.14Zm0 0"/>
  <path fill="#d0d0d0" fill-rule="evenodd" d="M448.48 623.66h3.14v2.64h-3.14Zm0 0h3.14v2.64h-3.14Zm0 0"/>
  <path fill="#d1d1d1" fill-rule="evenodd" d="M448.48 623.66h3.14v2.64h-3.14Zm.05.05h3.04v2.54h-3.04Zm0 0"/>
  <path fill="#d2d2d2" fill-rule="evenodd" d="M448.53 623.7h3.04v2.55h-3.04Zm0 0h3.04v2.55h-3.04Zm0 0"/>
  <path fill="#d3d3d3" fill-rule="evenodd" d="M448.53 623.7h3.04v2.55h-3.04Zm.04.06h2.95v2.45h-2.95Zm0 0"/>
  <path fill="#d4d4d4" fill-rule="evenodd" d="M448.57 623.76h2.95v2.45h-2.95Zm.06.05h2.84v2.35h-2.85Zm0 0"/>
  <path fill="#d5d5d5" fill-rule="evenodd" d="M448.63 623.8h2.84v2.36h-2.85Zm0 0h2.84v2.36h-2.85Zm0 0"/>
  <path fill="#d6d6d6" fill-rule="evenodd" d="M448.63 623.8h2.84v2.36h-2.85Zm.05.06h2.74v2.25h-2.74Zm0 0"/>
  <path fill="#d7d7d7" fill-rule="evenodd" d="M448.68 623.86h2.74v2.25h-2.74Zm0 0h2.74v2.25h-2.74Zm0 0"/>
  <path fill="#d8d8d8" fill-rule="evenodd" d="M448.68 623.86h2.74v2.25h-2.74Zm.05.05h2.64v2.14h-2.64Zm0 0"/>
  <path fill="#d9d9d9" fill-rule="evenodd" d="M448.73 623.91h2.64v2.14h-2.64Zm0 0h2.64v2.14h-2.64Zm0 0"/>
  <path fill="#dadada" fill-rule="evenodd" d="M448.73 623.91h2.64v2.14h-2.64Zm.04.05h2.55V626h-2.55Zm0 0"/>
  <path fill="#dbdbdb" fill-rule="evenodd" d="M448.77 623.96h2.55V626h-2.55Zm.05.05h2.45v1.95h-2.45Zm0 0"/>
  <path fill="#dcdcdc" fill-rule="evenodd" d="M448.82 624h2.45v1.96h-2.45Zm0 0h2.45v1.96h-2.45Zm0 0"/>
  <path fill="#ddd" fill-rule="evenodd" d="M448.82 624h2.45v1.96h-2.45Zm.06.06h2.34v1.85h-2.35Zm0 0"/>
  <path fill="#dedede" fill-rule="evenodd" d="M448.88 624.06h2.34v1.85h-2.35Zm0 0h2.34v1.85h-2.35Zm0 0"/>
  <path fill="#dfdfdf" fill-rule="evenodd" d="M448.88 624.06h2.34v1.85h-2.35Zm.05.05h2.24v1.75h-2.24Zm0 0"/>
  <path fill="#e0e0e0" fill-rule="evenodd" d="M448.93 624.1h2.24v1.76h-2.24Zm.05.06h2.14v1.64h-2.14Zm0 0"/>
  <path fill="#e1e1e1" fill-rule="evenodd" d="M448.98 624.16h2.14v1.64h-2.14Zm0 0h2.14v1.64h-2.14Zm0 0"/>
  <path fill="#e2e2e2" fill-rule="evenodd" d="M448.98 624.16h2.14v1.64h-2.14Zm.04.05h2.05v1.55h-2.05Zm0 0"/>
  <path fill="#e3e3e3" fill-rule="evenodd" d="M449.02 624.2h2.05v1.56h-2.05Zm0 0h2.05v1.56h-2.05Zm0 0"/>
  <path fill="#e4e4e4" fill-rule="evenodd" d="M449.02 624.2h2.05v1.56h-2.05Zm.05.06h1.95v1.45h-1.95Zm0 0"/>
  <path fill="#e5e5e5" fill-rule="evenodd" d="M449.07 624.26h1.95v1.45h-1.95Zm0 0h1.95v1.45h-1.95Zm0 0"/>
  <path fill="#e6e6e6" fill-rule="evenodd" d="M449.07 624.26h1.95v1.45h-1.95Zm.06.05h1.84v1.35h-1.85Zm0 0"/>
  <g fill-rule="evenodd" clip-path="url(#clip-25)">
    <path fill="#e7e7e7" d="M449.13 624.3h1.84v1.36h-1.85Zm.05.06h1.74v1.25h-1.74Zm0 0"/>
    <path fill="#e8e8e8" d="M449.18 624.36h1.74v1.25h-1.74Zm0 0h1.74v1.25h-1.74Zm0 0"/>
    <path fill="#e9e9e9" d="M449.18 624.36h1.74v1.25h-1.74Zm.05.05h1.64v1.14h-1.64Zm0 0"/>
    <path fill="#eaeaea" d="M449.23 624.4h1.64v1.15h-1.64Zm0 0h1.64v1.15h-1.64Zm0 0"/>
    <path fill="#ebebeb" d="M449.23 624.4h1.64v1.15h-1.64Zm.04.06h1.55v1.05h-1.55Zm0 0"/>
    <path fill="#ececec" d="M449.27 624.46h1.55v1.05h-1.55Zm.05.05h1.45v.95h-1.45Zm0 0"/>
    <path fill="#ededed" d="M449.32 624.5h1.45v.96h-1.45Zm0 0h1.45v.96h-1.45Zm0 0"/>
    <path fill="#eee" d="M449.32 624.5h1.45v.96h-1.45Zm.06.06h1.34v.85h-1.35Zm0 0"/>
    <path fill="#efefef" d="M449.38 624.56h1.34v.85h-1.35Zm0 0h1.34v.85h-1.35Zm0 0"/>
    <path fill="#f0f0f0" d="M449.38 624.56h1.34v.85h-1.35Zm.05.05h1.24v.75h-1.24Zm0 0"/>
    <path fill="#f1f1f1" d="M449.43 624.6h1.24v.76h-1.24Zm0 0h1.24v.76h-1.24Zm0 0"/>
    <path fill="#f2f2f2" d="M449.43 624.6h1.24v.76h-1.24Zm.04.06h1.15v.65h-1.15Zm0 0"/>
    <path fill="#f3f3f3" d="M449.47 624.66h1.15v.65h-1.15Zm.05.05h1.05v.55h-1.05Zm0 0"/>
    <path fill="#f4f4f4" d="M449.52 624.7h1.05v.56h-1.05Zm0 0h1.05v.56h-1.05Zm0 0"/>
    <path fill="#f5f5f5" d="M449.52 624.7h1.05v.56h-1.05Zm.05.06h.95v.45h-.95Zm0 0"/>
    <path fill="#f6f6f6" d="M449.57 624.76h.95v.45h-.95Zm0 0h.95v.45h-.95Zm0 0"/>
    <path fill="#f7f7f7" d="M449.57 624.76h.95v.45h-.95Zm.06.05h.84v.35h-.85Zm0 0"/>
    <path fill="#f8f8f8" d="M449.63 624.8h.84v.36h-.85Zm.05.06h.74v.25h-.74Zm0 0"/>
    <path fill="#f9f9f9" d="M449.68 624.86h.74v.25h-.74Zm0 0h.74v.25h-.74Zm0 0"/>
    <path fill="#fafafa" d="M449.68 624.86h.74v.25h-.74Zm.04.05h.65v.15h-.65Zm0 0"/>
    <path fill="#fbfbfb" d="M449.72 624.9h.65v.16h-.65Zm0 0h.65v.16h-.65Zm0 0"/>
    <path fill="#fcfcfc" d="M449.72 624.9h.65v.16h-.65Zm.05.06h.55v.05h-.55Zm0 0"/>
    <path fill="#fdfdfd" d="M449.77 624.96h.55v.05h-.55Zm0 0h.55v.05h-.55Zm0 0"/>
    <path fill="#fff" d="M449.77 624.96h.55v.05h-.55Zm0 0"/>
  </g>
  <path fill="none" stroke="#000" stroke-miterlimit="3.86" stroke-width=".7491225" d="M454.27 625q-.01 1.06-.55 1.95a4.35 4.35 0 0 1-5.74 1.45 3.9 3.9 0 0 1-2.1-3.4q.01-1.03.55-2 .59-.87 1.55-1.4a4.4 4.4 0 0 1 2.1-.54 4.4 4.4 0 0 1 3.64 1.95q.54.96.55 2Zm0 0"/>
  <path fill="none" stroke="#000" stroke-dasharray="2.99649 2.2473675" stroke-miterlimit="10" stroke-width=".7491225" d="m497.52 591.45 24.02-16.24"/>
  <path fill="none" stroke="#000" stroke-miterlimit="3.86" stroke-width=".7491225" d="m489.28 581.06.4-.6.44-.55.5-.55.56-.55.5-.5.6-.45.6-.45.6-.4.6-.4.64-.34.7-.3.65-.3.7-.26.7-.2.75-.14.7-.16.74-.1.75-.04h1.45l.75.1.7.04.75.16 1.4.4.7.24.7.25.65.3.65.35.64.4.6.4.6.45.55.5.55.5.5.5.5.55.45.6.45.6"/>
  <use xlink:href="#d" x="499.92" y="569.67"/>
  <use xlink:href="#e" x="502.51" y="623.51"/>
  <path fill="none" stroke="#000" stroke-dasharray="2.99649 2.2473675" stroke-miterlimit="10" stroke-width=".7491225" d="m451.07 621.16 29.77-48"/>
  <use xlink:href="#f" x="448.88" y="599.04"/>
  <use xlink:href="#g" x="456.27" y="599.94"/>
  <use xlink:href="#h" x="467.55" y="647.48"/>
  <use xlink:href="#i" x="477.84" y="647.48"/>
  <use xlink:href="#j" x="484.73" y="647.48"/>
  <use xlink:href="#k" x="488.83" y="647.48"/>
  <use xlink:href="#l" x="494.82" y="647.48"/>
  <use xlink:href="#k" x="500.81" y="647.48"/>
  <use xlink:href="#m" x="503.81" y="647.48"/>
</svg>
