<svg xmlns="http://www.w3.org/2000/svg" xmlns:xlink="http://www.w3.org/1999/xlink" width="450" height="350" viewBox="0 0 450 350">
  <defs>
    <path id="c" d="m1.4-7.14 1.93-.95h.19v6.7q0 .65.04.83.06.15.24.25.17.07.72.1V0H1.53v-.22q.56 0 .72-.1.18-.07.23-.21.06-.16.07-.86v-4.28q0-.87-.05-1.11a.5.5 0 0 0-.16-.27.4.4 0 0 0-.25-.1q-.22 0-.6.18Zm0 0"/>
    <path id="d" d="M4.34-4.97h-2.3v3.72q0 .6.07.73.06.13.19.22.14.08.54.08V0H.27v-.22q.51 0 .65-.19.15-.18.16-.84v-2.84q0-.62-.06-.74a.5.5 0 0 0-.2-.2q-.14-.1-.55-.1v-.23h5.86v.24q-.4 0-.54.07a1 1 0 0 0-.2.2q-.08.12-.08.76v2.84q0 .6.07.73.05.13.2.22.14.08.54.08V0H3.54v-.22q.48 0 .64-.17.17-.19.17-.86Zm0 0"/>
    <path id="e" d="M.3-5.36h3.48v.24q-.6 0-.72.06t-.22.17q-.09.1-.09.8v1.07h.52q.95 0 1.46.16.52.16.8.52t.28.84q0 .67-.56 1.1-.55.4-1.81.4H.98v-.22q.48 0 .65-.17.16-.19.17-.86v-3.72q-.7 0-1.02.2-.3.2-.45.88H.06Zm2.45 4.9q.33.09.63.09.67 0 1-.33a1.1 1.1 0 0 0-.04-1.6 1.4 1.4 0 0 0-.98-.34q-.2 0-.61.05Zm0 0"/>
    <path id="f" d="m-.02-4.83 1.65-.65h.23v1.25q.4-.7.81-.99t.9-.3q.78 0 1.34.64.65.77.65 2 0 1.4-.8 2.3-.65.75-1.63.74-.45 0-.75-.11a2 2 0 0 1-.52-.36v1.64q0 .55.06.69.06.15.22.23.17.1.61.1v.21h-2.8v-.22h.16q.3 0 .55-.12.1-.06.17-.2.06-.15.06-.74v-5.06q0-.52-.05-.66a.4.4 0 0 0-.15-.2q-.1-.08-.28-.08-.13 0-.35.08Zm1.88.94v2q0 .65.05.84.08.35.39.61.33.25.8.25.59 0 .95-.45.46-.6.47-1.67 0-1.23-.54-1.9-.37-.45-.89-.45-.27 0-.54.14-.2.1-.7.63m0 0"/>
    <path id="g" d="M3.77-2.83q1.45.3 1.45 1.38 0 .73-.61 1.1Q4 0 2.92 0H.28v-.22Q.8-.22.94-.4q.15-.2.14-.84v-2.84q0-.64-.06-.75a1 1 0 0 0-.2-.2q-.14-.08-.54-.08v-.24h2.45q.72 0 1.16.13.44.1.72.43.28.31.28.78 0 .93-1.12 1.2m-1.72-.14.3.02q.78 0 1.15-.32.36-.3.36-.75 0-.5-.36-.71a2 2 0 0 0-1.16-.24h-.3Zm0 2.5q.27.1.68.1.68 0 1.04-.3.34-.3.34-.8a.9.9 0 0 0-.44-.81q-.45-.3-1.22-.3l-.4.02Zm0 0"/>
    <path id="h" d="m2.05-1.64 2.3-2.69q0-.44-.18-.62-.15-.17-.53-.17v-.24h2.49v.24q-.4 0-.54.07a1 1 0 0 0-.2.2q-.08.12-.08.76v2.84q0 .6.07.73.05.13.2.22.14.08.54.08V0H3.54v-.22q.48 0 .64-.17.17-.19.17-.86v-2.53L2.04-1.1q0 .5.13.68.15.2.56.2V0H.27v-.22q.51 0 .65-.19.15-.18.16-.84v-2.84q0-.62-.06-.74a.5.5 0 0 0-.2-.2q-.14-.1-.55-.1v-.23h2.57v.24q-.38 0-.53.07a1 1 0 0 0-.2.2q-.06.12-.06.76Zm0 0"/>
    <path id="i" d="M4.9-2.03a3 3 0 0 1-.84 1.62q-.63.57-1.39.57-.9 0-1.6-.77a3 3 0 0 1-.66-2.06q0-1.27.75-2.05.75-.8 1.8-.8.77 0 1.27.43.52.42.52.87 0 .23-.14.36t-.4.13q-.34 0-.5-.22-.12-.13-.15-.47a.8.8 0 0 0-.23-.52.8.8 0 0 0-.56-.18q-.59 0-.94.43-.47.59-.47 1.52 0 .95.47 1.69.46.73 1.26.73.56 0 1.02-.4.33-.26.62-.96Zm0 0"/>
    <path id="j" d="M.92-5.36H5.7v.24q-.4 0-.53.07a1 1 0 0 0-.2.2q-.07.12-.07.76v2.84q0 .6.06.73t.2.22.54.08V0H2.94v-.22q.44 0 .6-.05.18-.04.27-.21.1-.19.11-.77v-3.72H2.14v2.25q0 1.28-.1 1.8-.12.52-.46.76Q1.25.1.8.1.06.1.06-.53q0-.2.13-.33A.4.4 0 0 1 .5-1q.2 0 .38.17.22.22.34.22.26 0 .37-.44.13-.45.13-1.54v-1.2q0-.9-.13-1.1-.12-.2-.67-.24Zm0 0"/>
    <path id="k" d="M.06-5.36h2.5v.22h-.12q-.27 0-.4.12a.4.4 0 0 0-.13.29q0 .21.2.62l1.3 2.7 1.18-2.95q.1-.25.11-.48A.3.3 0 0 0 4.66-5a.3.3 0 0 0-.16-.1 1 1 0 0 0-.34-.04v-.22H5.9v.22a1 1 0 0 0-.35.1 1 1 0 0 0-.25.26q-.05.08-.2.45L2.94 1.02q-.32.75-.83 1.15-.5.4-.98.4a.8.8 0 0 1-.57-.2.6.6 0 0 1-.22-.45q0-.23.16-.39.17-.15.44-.14.2 0 .53.13.23.07.3.07.16 0 .37-.18t.42-.7l.38-.91-1.92-4.05a3 3 0 0 0-.52-.72 1 1 0 0 0-.44-.17Zm0 0"/>
    <path id="l" d="M3.97-2.95V-4.1q0-.57-.06-.72a.4.4 0 0 0-.22-.24 1.4 1.4 0 0 0-.53-.08v-.23h2.57v.24q-.38 0-.53.07a1 1 0 0 0-.2.2q-.06.12-.06.76v2.84q0 .55.04.72.06.15.24.23t.51.08V0h-2.7v-.22q.47 0 .61-.06.15-.04.23-.22.1-.18.1-.75v-1.31q-.87.44-1.81.44-.52 0-.82-.13-.27-.15-.36-.31-.06-.17-.06-.56v-.97q0-.52-.05-.68a.4.4 0 0 0-.21-.26 1 1 0 0 0-.49-.1v-.23H2.7v.24q-.4 0-.53.07a1 1 0 0 0-.2.2q-.08.12-.08.76v.65q0 .4.04.53.06.13.27.22.2.1.56.1.64 0 1.22-.36m0 0"/>
    <path id="m" d="M3.4-.77q-.83.63-1.04.74-.31.15-.66.14-.56 0-.92-.38a1.4 1.4 0 0 1-.36-1q0-.38.17-.68.26-.38.83-.74.6-.36 1.97-.86v-.2q0-.81-.25-1.1t-.73-.3a.8.8 0 0 0-.58.2.6.6 0 0 0-.22.45v.34a.6.6 0 0 1-.14.43q-.13.14-.34.14a.5.5 0 0 1-.36-.16.6.6 0 0 1-.15-.42q0-.5.52-.92a2.2 2.2 0 0 1 1.44-.43q.71 0 1.17.25.35.17.5.57.1.24.1 1.03v1.81q0 .76.04.94.03.18.1.23.05.07.15.06.09 0 .16-.04.12-.08.48-.42v.32q-.65.88-1.25.88a.6.6 0 0 1-.47-.2q-.15-.2-.17-.68m0-.39v-2.03q-.9.35-1.13.5-.48.26-.68.53-.18.3-.18.61 0 .43.25.7.25.3.57.29.45 0 1.16-.6m0 0"/>
    <path id="n" d="M1.28-7.5q0-.2.11-.33a.4.4 0 0 1 .3-.12q.37 0 .67.72.17.42.39.53.21.1.44.1.36 0 .54-.17.2-.16.36-.57.24-.61.6-.61.16 0 .3.12.12.13.12.31 0 .46-.6.85t-1.32.39q-.96 0-1.44-.34a1 1 0 0 1-.47-.88m.77 5.86 2.3-2.69q0-.44-.18-.62-.15-.17-.53-.17v-.24h2.49v.24q-.4 0-.54.07a1 1 0 0 0-.2.2q-.08.12-.08.76v2.84q0 .6.07.73.05.13.2.22.14.08.54.08V0H3.54v-.22q.48 0 .64-.17.17-.19.17-.86v-2.53L2.04-1.1q0 .5.13.68.15.2.56.2V0H.27v-.22q.51 0 .65-.19.15-.18.16-.84v-2.84q0-.62-.06-.74a.5.5 0 0 0-.2-.2q-.14-.1-.55-.1v-.23h2.57v.24q-.38 0-.53.07a1 1 0 0 0-.2.2q-.06.12-.06.76Zm0 0"/>
    <path id="q" d="M.3-5.36h4.6l.24 1.45h-.26a2 2 0 0 0-.24-.67.7.7 0 0 0-.37-.31 2 2 0 0 0-.7-.08h-.48v3.72q0 .6.07.75t.23.22q.17.04.75.06V0h-2.9v-.22q.55-.01.71-.17.18-.17.18-.86v-3.72h-.49q-.5 0-.69.06a1 1 0 0 0-.34.3q-.15.22-.28.7H.06Zm0 0"/>
    <path id="r" d="M2.98-5.52q1.23 0 1.96.93.62.8.62 1.8 0 .73-.36 1.48-.34.74-.95 1.1T2.92.17Q1.72.16 1-.8a3 3 0 0 1-.6-1.82q0-.75.37-1.46a2.4 2.4 0 0 1 2.21-1.44m-.18.4q-.3 0-.61.18-.32.18-.52.64-.19.45-.19 1.2 0 1.15.46 2t1.23.85q.57 0 .92-.47.38-.47.38-1.6 0-1.43-.61-2.24a1.3 1.3 0 0 0-1.06-.57m0 0"/>
    <path id="b" d="m2.63-5.28-.77 2.66q1.09-1.63 1.67-2.15.58-.51 1.11-.51.3 0 .49.2.18.2.18.49 0 .36-.17.93l-.7 2.46q-.13.44-.13.53 0 .08.05.14.04.05.1.05.05 0 .17-.08.3-.25.67-.75l.18.1q-.54.8-1.03 1.12-.35.23-.6.23A.4.4 0 0 1 3.5 0q-.13-.12-.12-.34a4 4 0 0 1 .2-.97l.67-2.35q.13-.44.13-.68a.2.2 0 0 0-.08-.18.3.3 0 0 0-.2-.07 1 1 0 0 0-.38.14 3 3 0 0 0-.9.86q-.45.6-.98 1.54-.26.51-.45 1.08L1.1 0H.23l1.05-3.66q.2-.65.19-.8a.3.3 0 0 0-.11-.21.3.3 0 0 0-.24-.1l-.25.02-.21.05-.05-.22Zm0 0"/>
    <path id="a" d="M3.5-8.3 1.86-2.62a11 11 0 0 1 1.66-2.13q.58-.53 1.14-.53.27 0 .45.2t.19.5q0 .4-.16.94l-.7 2.44q-.14.45-.14.5 0 .08.04.14.06.04.11.04.08 0 .2-.07.31-.27.65-.72l.17.1A4 4 0 0 1 4.3 0a1 1 0 0 1-.45.14.5.5 0 0 1-.34-.14.5.5 0 0 1-.15-.34q0-.27.2-.97l.68-2.33q.13-.44.13-.69a.2.2 0 0 0-.08-.19.2.2 0 0 0-.2-.07q-.15 0-.37.14a4 4 0 0 0-.92.9q-.15.17-.92 1.46-.25.4-.4.89L1.1 0H.23l1.93-6.67.2-.74q0-.13-.13-.25a.4.4 0 0 0-.3-.12l-.32.03-.13.02v-.24Zm0 0"/>
    <path id="o" d="M4.95 0 3.7-3.84q-.45 0-.9-.1l-.7 2.4q-.12.46-.12.79 0 .26.17.38.12.1.69.15L2.78 0H-.28l.08-.22q.42 0 .57-.08a1 1 0 0 0 .35-.28q.18-.26.39-.97l1.37-4.78q.15-.46.15-.73a.6.6 0 0 0-.22-.46 1 1 0 0 0-.63-.18l.08-.22h2.58q1.28 0 1.84.5.58.48.58 1.28 0 .77-.6 1.4a2.7 2.7 0 0 1-1.59.8l.77 2.33Q5.7-.77 6-.5q.29.25.9.28L6.85 0ZM2.87-4.27q.38.05.68.05 1 0 1.58-.55.57-.55.57-1.39 0-.65-.36-1-.36-.33-1.09-.34-.18 0-.44.05Zm0 0"/>
    <path id="p" d="m6.14-8.1-.6 6.58-.04.61q0 .24.08.36.1.18.3.25t.64.08L6.45 0h-3.1l.06-.22h.14q.38 0 .6-.15.17-.11.27-.38.06-.17.13-.84l.1-1.02H2.36l-.8 1.1q-.28.36-.34.53-.06.15-.06.3 0 .18.14.32.15.13.5.14L1.75 0H-.58l.06-.22q.44 0 .75-.28.35-.28.99-1.16l4.72-6.43ZM4.98-6.15 2.7-3.03h2Zm0 0"/>
    <path id="s" d="M.66 0H-.38l3.63-5.23.02-.99q0-.9-.18-1.14-.17-.27-.45-.26-.51 0-.69.89h-.22q.08-.7.38-1.13.3-.44.73-.44.36 0 .54.3t.18 1.06v.24l-.15 4.92-.02.17q0 1 .63 1 .54 0 .64-.7h.2q0 .6-.27.98a.8.8 0 0 1-.71.4q-.8 0-.79-1.04l.02-.39.1-2.34Zm0 0"/>
  </defs>
  <path fill="none" stroke="#000" stroke-linejoin="round" stroke-miterlimit="10" stroke-width="1.5" d="M76.62 99.02c15.94-4.91 31.52-7.67 41.83-7.43m41.95 7.43c-15.95-4.91-31.4-7.67-41.71-7.43m40.63 7.07c15.81 4.91 31.27 7.67 41.7 7.43m41.83-7.43c-15.82 4.91-31.28 7.67-41.7 7.43m40.62-7.07c15.94-4.91 31.52-7.67 41.82-7.43m41.95 7.43c-15.94-4.91-31.4-7.67-41.7-7.43"/>
  <path fill="none" stroke="#000" stroke-linejoin="round" stroke-miterlimit="10" stroke-width="1.5" d="M324.34 98.66c15.94 4.91 31.4 7.67 41.83 7.43M408 98.66c-15.82 4.91-31.29 7.67-41.71 7.43M73.75 302.04h333.29"/>
  <path fill="none" stroke="#000" stroke-dasharray="2.247183224 2.996248294" stroke-linecap="round" stroke-linejoin="round" stroke-miterlimit="10" stroke-width=".75" d="m77.58 98.18 329.46.96"/>
  <path d="M407.4 105.13v190.91l-.13.24-.23.12-.25-.12-.11-.24V105.13l.11-.24.25-.12.23.12Zm-.36 0-3 4.07 3-10.06 3 10.06Zm0 190.91 3-4.07-3 10.07-3-10.07"/>
  <use xlink:href="#a" x="391.69" y="190.22"/>
  <use xlink:href="#b" x="388.22" y="119.87"/>
  <use xlink:href="#c" x="388.22" y="88.35"/>
  <path fill="none" stroke="#000" stroke-dasharray="2.247183224 2.996248294" stroke-linecap="round" stroke-linejoin="round" stroke-miterlimit="10" stroke-width=".75" d="M117.49 98.18v203.86"/>
  <path fill="none" stroke="#000" stroke-linecap="round" stroke-linejoin="round" stroke-miterlimit="10" stroke-width=".75" d="m156.44 98.18-38.95 203.86M78.66 99.14l38.83 203.85"/>
  <path d="m156.8 98.3-17.14 89.52-.12.24h-.24l-.24-.12-.12-.36 17.14-89.4.12-.24.24-.12.24.24Zm-14.38 88.92-3.96 5.4-1.92-6.48m-57.52-87 17.02 89.52v.24l-.24.24-.36-.12-.12-.24L78.3 99.26v-.24l.24-.24.36.12Zm19.41 88.08-1.8 6.48-4.07-5.4"/>
  <path fill="none" stroke="#000" stroke-linecap="round" stroke-linejoin="round" stroke-miterlimit="10" stroke-width=".75" d="M156.44 98.18V52.64"/>
  <path d="M156.8 52.64v22.65l-.12.24-.24.12-.24-.12-.12-.24-.12-22.65.12-.25.36-.11.24.11Zm2.63 21.57-3 5.99-2.99-6"/>
  <path fill="none" stroke="#000" stroke-linecap="round" stroke-linejoin="round" stroke-miterlimit="10" stroke-width=".75" d="M78.66 98.18V52.64"/>
  <path d="m79.02 52.64.12 22.65-.12.24-.24.12-.36-.12-.12-.24V52.64l.12-.25.24-.11.24.11Zm2.64 21.57-2.88 5.99-3.12-6"/>
  <use xlink:href="#d" x="131.63" y="272.67"/>
  <use xlink:href="#e" x="138.1" y="272.67"/>
  <use xlink:href="#f" x="144.33" y="272.67"/>
  <use xlink:href="#g" x="150.32" y="272.67"/>
  <use xlink:href="#h" x="155.95" y="272.67"/>
  <use xlink:href="#i" x="131.63" y="286.81"/>
  <use xlink:href="#j" x="136.91" y="286.81"/>
  <use xlink:href="#k" x="143.02" y="286.81"/>
  <use xlink:href="#l" x="148.77" y="286.81"/>
  <use xlink:href="#m" x="154.88" y="286.81"/>
  <use xlink:href="#n" x="160.16" y="286.81"/>
  <path fill="none" stroke="#000" stroke-linecap="round" stroke-linejoin="round" stroke-miterlimit="10" stroke-width=".75" d="M284.91 92.55v209.49"/>
  <path d="M285.27 92.55v113.97l-.12.24-.24.12-.24-.12-.12-.24V92.55l.12-.25.24-.11.24.11Zm2.64 113-3 6-3-6"/>
  <path fill="none" stroke="#000" stroke-linecap="round" stroke-linejoin="round" stroke-miterlimit="10" stroke-width=".75" d="m295.7 92.55-10.8 209.49"/>
  <path d="m296.18 92.55-4.32 78.01-.12.24-.24.12-.23-.12-.13-.24 4.2-78.01.12-.25.36-.11.24.11Zm-1.56 77.18-3.35 5.75-2.64-6.11m-14.15-76.82 4.2 78.01v.24l-.36.12-.24-.12-.12-.24-4.2-78.01v-.25l.25-.11.36.11Zm6.84 76.82-2.64 6.1-3.36-5.74"/>
  <path fill="none" stroke="#000" stroke-linecap="round" stroke-linejoin="round" stroke-miterlimit="10" stroke-width=".75" d="m274.12 92.55 10.8 209.49m-.01-209.49V52.64m10.79 39.91V52.64m-21.58 39.91V52.64"/>
  <path d="M274.48 52.64V68.7l-.11.23-.25.12-.35-.12V52.4l.36-.11.24.11Zm2.64 14.98-3 5.99-3-6m14.15-14.97.12 16.06-.12.23-.24.12-.36-.12v-.23l-.12-16.06.12-.25.24-.11.24.11Zm2.76 14.98-3 5.99-3-5.87m14.15-15.1V68.7l-.12.23-.24.12-.24-.12-.12-.23-.12-16.06.12-.25.24-.11.36.11Zm2.63 14.98-3 5.99-2.99-5.87"/>
  <path fill="none" stroke="#000" stroke-dasharray=".0007430696728 1.49813014" stroke-linecap="round" stroke-linejoin="round" stroke-miterlimit="10" stroke-width=".75" d="M284.07 92.55c-51.29 0-92.87 41.46-92.87 92.52s41.58 92.52 92.87 92.52 92.88-41.47 92.88-92.52c0-51.06-41.58-92.52-92.88-92.52m0 0"/>
  <path d="m284.8 182.43 69.86-46.74h.36l.24.12v.24l-.12.24-69.87 46.74-.36.12-.24-.12v-.36Zm70.1-46.38-5.03-.36 9.95-3-6.6 8.03"/>
  <use xlink:href="#o" x="325.18" y="143.6"/>
  <path d="m200.66 126.46.12-13.9v-.24l.36-.12.24.12.12.24-.12 13.9-.12.24-.24.12-.24-.12Zm.48-13.9-3.12 4.07 3.12-10.06 2.88 10.06m-2.76-37.87.12 13.43-.12.36-.24.11-.36-.11v-.36l-.12-13.43.12-.24.24-.12.24.12Zm-.24 13.43 2.88-3.96-2.88 9.95-3.11-9.95"/>
  <use xlink:href="#p" x="208.09" y="93.5"/>
  <use xlink:href="#g" x="305.53" y="272.67"/>
  <use xlink:href="#q" x="311.16" y="272.67"/>
  <use xlink:href="#r" x="316.43" y="272.67"/>
  <use xlink:href="#f" x="322.42" y="272.67"/>
  <use xlink:href="#h" x="328.41" y="272.67"/>
  <use xlink:href="#i" x="305.53" y="286.81"/>
  <use xlink:href="#j" x="310.8" y="286.81"/>
  <use xlink:href="#k" x="316.91" y="286.81"/>
  <use xlink:href="#l" x="322.66" y="286.81"/>
  <use xlink:href="#m" x="328.78" y="286.81"/>
  <use xlink:href="#n" x="334.05" y="286.81"/>
  <path fill="none" stroke="#000" stroke-linecap="round" stroke-linejoin="round" stroke-miterlimit="10" stroke-width=".75" d="M241.89 98.18V57.19"/>
  <path d="M84.77 70.25h151.12l.36.13v.6l-.36.11H84.77l-.36-.12v-.6Zm0 .36 3.96 3-9.95-3 9.95-3Zm151.12 0-3.95-3 9.95 3-9.95 3"/>
  <use xlink:href="#s" x="177.41" y="67.38"/>
</svg>
