<svg xmlns="http://www.w3.org/2000/svg" xmlns:xlink="http://www.w3.org/1999/xlink" width="595.22" height="842" viewBox="0 0 595.22 842">
  <defs>
    <path id="c" d="M.48-3.52q0-2.1.86-3.25Q2-7.6 2.9-7.6q.87 0 1.5.81.88 1.17.88 3.14-.01 1.9-.86 2.97-.66.87-1.57.86-.48 0-.89-.23a3 3 0 0 1-.7-.69q-.31-.43-.48-.94a6 6 0 0 1-.29-1.83m3.75-.37a8 8 0 0 0-.28-2.23 2 2 0 0 0-.53-.94 1 1 0 0 0-.56-.2q-.37 0-.69.3-.3.28-.45.94T1.5-3.89Zm-2.73.36q.03.96.16 1.7.09.59.3 1.02.15.25.4.44.25.17.55.17.33 0 .65-.32t.47-1.03.19-1.98Zm0 0"/>
    <path id="d" d="m.08.17.6-2.7h.18l-.05.65q0 .75.47 1.2.46.46 1.24.46.7 0 1.06-.44a1.5 1.5 0 0 0 .2-1.65q-.26-.45-1.34-1.56a4 4 0 0 1-.69-.8 2 2 0 0 1-.25-.92q0-.75.56-1.28.59-.55 1.47-.55.3 0 .56.04.18.04.61.22.31.14.35.14.07.02.17.02a.4.4 0 0 0 .25-.08q.12-.09.26-.34h.2l-.54 2.4H5.2l.03-.51q0-.66-.43-1.06a1.5 1.5 0 0 0-1.13-.43q-.56 0-.9.33-.35.33-.35.77 0 .38.22.72t1.02 1.1q.81.75 1.04 1.2.24.44.24.92 0 .54-.3 1.06t-.84.81q-.55.28-1.2.28-.3 0-.6-.06a8 8 0 0 1-.87-.3 1 1 0 0 0-.36-.08q-.33 0-.49.44Zm0 0"/>
    <path id="e" d="M5.4-7.42q.72 0 1.27.31.57.32.88.92.33.6.33 1.27 0 1.17-.7 2.45A5 5 0 0 1 5.43-.5q-1.1.67-2.25.67-.84 0-1.42-.37a2.2 2.2 0 0 1-.83-.99q-.26-.6-.26-1.18 0-1.02.48-2 .5-1 1.17-1.66a5 5 0 0 1 1.46-1.03q.75-.36 1.64-.36m-.18.34q-.53 0-1.05.27-.51.25-1.01.86-.5.6-.91 1.58-.48 1.2-.48 2.26 0 .77.39 1.36.38.58 1.2.58.48 0 .95-.24.48-.24.97-.84a6 6 0 0 0 1.08-1.86 6 6 0 0 0 .44-2.12q0-.74-.4-1.29-.39-.56-1.18-.56m0 0"/>
    <g id="a" fill="none" stroke="#231f20" stroke-miterlimit="2.61" stroke-width=".7">
      <path d="m136.46 671.94-4.92 4.92v14.78h14.77l4.92-4.93v-14.77Zm0 0"/>
      <path d="M131.53 676.84h14.77l4.93-4.92m-4.91 4.92v14.77"/>
    </g>
    <g id="b">
      <path fill="#8e9091" fill-rule="evenodd" d="M147.02 676.85v14.73h14.78v-14.72z"/>
      <path fill="#acacad" fill-rule="evenodd" d="M147.02 676.84h14.78l4.93-4.9h-14.78z"/>
      <path fill="none" stroke="#231f20" stroke-miterlimit="2.61" stroke-width=".7" d="m0 0-4.93-4.92V-19.7H9.85v14.78L14.77.01Zm0 0" transform="matrix(1.00089 0 0 -.99654 151.95 671.94)"/>
      <path fill="none" stroke="#231f20" stroke-miterlimit="2.61" stroke-width=".7" d="M0 0h14.77l4.93 4.92" transform="matrix(1.00089 0 0 -.99654 147.02 676.84)"/>
      <path fill="none" stroke="#231f20" stroke-miterlimit="2.61" stroke-width=".7" d="M0 0v-14.77" transform="matrix(1.00089 0 0 -.99654 161.81 676.84)"/>
    </g>
  </defs>
  <use xlink:href="#a"/>
  <use xlink:href="#b"/>
  <use xlink:href="#a" x="30.98"/>
  <use xlink:href="#b" x="30.98"/>
  <use xlink:href="#a" x="61.96"/>
  <use xlink:href="#b" x="61.96"/>
  <use xlink:href="#a" x="92.94"/>
  <use xlink:href="#b" x="92.94"/>
  <use xlink:href="#a" x="123.92"/>
  <use xlink:href="#b" x="123.92"/>
  <path fill="#dbdada" fill-rule="evenodd" d="m300.5 676.84 4.93-4.9v14.72l-4.92 4.9z"/>
  <use xlink:href="#a" x="154.9"/>
  <use xlink:href="#b" x="-15.49" y="36.46"/>
  <use xlink:href="#a" x="15.49" y="36.46"/>
  <use xlink:href="#b" x="15.49" y="36.46"/>
  <use xlink:href="#a" x="46.47" y="36.46"/>
  <use xlink:href="#b" x="46.47" y="36.46"/>
  <use xlink:href="#a" x="77.45" y="36.46"/>
  <use xlink:href="#b" x="77.45" y="36.46"/>
  <use xlink:href="#a" x="108.43" y="36.46"/>
  <use xlink:href="#b" x="108.43" y="36.46"/>
  <use xlink:href="#a" x="139.42" y="36.46"/>
  <path fill="#8e9091" fill-rule="evenodd" d="m291.35 709.1-4.92 4.2v14.72h14.08l4.92-4.9v-14.03z"/>
  <path fill="#acacad" fill-rule="evenodd" d="M286.43 713.3h14.08l4.92-4.2h-14.08z"/>
  <path fill="#747878" fill-rule="evenodd" d="m300.5 713.3 4.93-4.2v14.01l-4.92 4.91z"/>
  <path fill="none" stroke="#231f20" stroke-miterlimit="2.61" stroke-width=".7" d="m0 0-4.92-4.22v-14.77H9.15l4.92 4.92V0Zm0 0" transform="matrix(1.00089 0 0 -.99654 291.37 709.1)"/>
  <path fill="none" stroke="#231f20" stroke-miterlimit="2.61" stroke-width=".7" d="M0 0h14.07L19 4.22" transform="matrix(1.00089 0 0 -.99654 286.44 713.3)"/>
  <path fill="none" stroke="#231f20" stroke-miterlimit="2.61" stroke-width=".7" d="M0 0v-14.77" transform="matrix(1.00089 0 0 -.99654 300.52 713.3)"/>
  <path fill="none" stroke="#231f20" stroke-miterlimit="2.61" stroke-width=".59" d="m0 0 1.18 1.18 1.18 1.18 1.18 1.18 1.18 1.18H5.9l.59.6 1.18-.6h1.18l.6-.6 2.35-2.35.59-.59.59-1.18 1.18-1.77 2.95-2.95h.59l.59-.59h2.35l1.19.6v.58h.59l1.77 1.77.59 1.18.59.59h.59V0l1.18 1.17.58 1.18 1.19 1.18 1.18 1.18 1.17.6h1.19l1.18-.6h.59l.59-.6 2.36-2.35.59-.59.58-1.18h.6l.59-1.77 2.95-2.95h.59l1.17-.59h1.77l1.19.6.59.58h.59l1.18 1.18.58.6.6 1.17.58.59V0l1.18 1.17.6 1.18 1.17 1.18 1.19 1.18h1.18l1.17.6 1.19-.6h.58l.6-.6 2.35-2.35.6-.59L63.7 0h.59l.6-1.77 2.94-2.95h.6l1.17-.59h1.77l1.18.6.6.58h.58l1.18 1.18.6.6.58 1.17.6.59-.01.6 1.18 1.17 1.18 1.18 1.18 1.18 1.18 1.18.59.6h1.18l1.18-.6h1.18l.59-.6v-.58l1.77-1.77.6-.59.58-1.18h.59l1.18-1.77 1.18-1.18.6-1.18.58-.59h.59l1.18-.59h2.36l1.18 1.18h.59l1.18 1.18.59.6.59 1.17.6.59.58.6 1.18 1.17.59 1.18 1.18 1.18 1.18 1.18 1.18.6h1.77l1.18-.6 3.54-3.54.59-.59V0h.59l.59-1.18 1.18-1.77 1.18-1.18h.59l.59-.59 1.18-.59h1.77l1.17.6.6.58h.59l1.18 1.18.59 1.18.59.59.59.59V0l1.18 1.17 1.17 1.18 1.18 1.18 1.19 1.18.58.6h2.36l1.19-.6.59-.6v-.58l1.77-1.77.58-.59L141 0l1.19-1.18 1.18-1.77.59-1.18h.58l.6-.59 1.17-.59h2.36l1.19 1.18.59.59 1.18.59.58 1.18.6.59.58.59.59.6" transform="matrix(1.19344 0 1.34723 -.8357 125.45 700.35)"/>
  <path fill="none" stroke="#231f20" stroke-miterlimit="2.61" stroke-width=".76" d="m0 0 2.12-.1L7.4-.37l1.06-.05.18-.11L9.71-.6l-.78-.1.19-.12-.88-.06-.87-.06-1.75-.13-.87-.06-.87-.06-1.84-.07-2.71-.14-3.5-.25-.87-.06.1-.06-.88-.07.37-.23 1.15-.1h.97l.1-.06 2.11-.1 1.06-.06 2.02-.04 1.06-.06.1-.05h.96l2.12-.1c2.41-.06 5-.15 7.4-.37l.2-.11-.79-.13.1-.05-1.75-.13-1.75-.13-.87-.06-.87-.07-1.84-.07.09-.05-2.8-.08-3.5-.25-.87-.07.1-.05-.79-.13.28-.17 1.15-.1 1.06-.06.1-.06 2.1-.1 1.07-.06 2.02-.04 1.06-.06.97.01 2.11-.1 2.03-.05 2.11-.1 2.12-.11.19-.12 1.15-.1-.78-.13.1-.06-.88-.06-2.62-.2-.87-.05-.88-.07-1.84-.07.1-.06-2.8-.07-3.5-.25-.87-.07.1-.06-.8-.12.28-.17 1.16-.11 1.06-.05.09-.06 2.12-.1L8-7.45l2.02-.05 1.06-.05h.96l2.12-.1L21.58-8l.19-.12-.78-.12.18-.12-.87-.06h-.97l-1.74-.13-.88-.06-.87-.07L14-8.75l.1-.05-2.72-.14-1.74-.13-1.84-.06-.88-.07.1-.06-.78-.12.37-.23 2.12-.1.09-.06 2.11-.1L12-9.94l2.03-.05 1.05-.05 1.06-.05 2.12-.1 2.03-.05 3.17-.16 1.06-.05 1.15-.11.28-.17-.78-.13-6.11-.44h-.97l.1-.06-1.85-.07-2.7-.14-1.75-.12.09-.06-.87-.07-.79-.12.28-.17 1.15-.11 1.06-.05.1-.06 2.11-.1 2.03-.05 2.12-.1h.96l2.12-.1 4.23-.22 3.18-.15.37-.23-.78-.13c-2.1-.08-4.11-.22-6.2-.38l-.88-.07-1.75-.12-2.7-.14-1.85-.06.1-.06-.88-.07-.78-.12.37-.23 2.12-.1 1.06-.06 1.15-.1 2.03-.06 3.17-.15" transform="matrix(.8945 -.51972 -.48746 -.83178 312.7 700.43)"/>
  <path fill="none" stroke="#231f20" stroke-miterlimit="2.61" stroke-width=".5" d="M0 0c-6.2-1.65-12.4-2.48-12.4-2.48h-9.92" transform="matrix(1.00089 0 0 -.99654 127.64 699.6)"/>
  <path fill="none" stroke="#231f20" stroke-miterlimit="2.61" stroke-width=".5" d="M0 0a113 113 0 0 0 12.4 2.48h9.92" transform="matrix(1.00089 0 0 -.99654 310.26 700.22)"/>
  <path fill="none" stroke="#231f20" stroke-miterlimit="2.61" d="M0 0h-20.02" transform="matrix(1.00089 0 0 -.99654 103.41 702.07)"/>
  <path fill="#231f20" fill-rule="evenodd" d="m106.95 702.07-7.05 3.01q1.5-3 0-6.01z"/>
  <path fill="none" stroke="#231f20" stroke-miterlimit="2.61" d="M0 0v-20.02" transform="matrix(1.00089 0 0 -.99654 83.37 682.14)"/>
  <path fill="#231f20" fill-rule="evenodd" d="m83.36 678.61 3.03 7.02q-3.03-1.5-6.05 0z"/>
  <path fill="none" stroke="#231f20" stroke-miterlimit="2.61" d="m0 0-10.02-11.02" transform="matrix(1.00089 0 0 -.99654 93.82 690.68)"/>
  <path fill="#231f20" fill-rule="evenodd" d="m96.43 688.03-2.5 7.22a6.4 6.4 0 0 0-4.48-4.06z"/>
  <path fill="none" stroke="#231f20" stroke-miterlimit="2.61" d="M0 0h9.27" transform="matrix(1.00089 0 0 -.99654 111.92 702.07)"/>
  <path fill="#231f20" fill-rule="evenodd" d="m124.74 702.07-7.05-3q1.5 3 0 6.01z"/>
  <path fill="#d1d3d4" fill-rule="evenodd" stroke="#231f20" stroke-miterlimit="2.61" stroke-width=".22" d="M110.26 699.2c1.6 0 2.9 1.29 2.9 2.87a2.9 2.9 0 0 1-5.8 0 2.9 2.9 0 0 1 2.9-2.88Zm0 0"/>
  <path fill="none" stroke="#231f20" stroke-miterlimit="2.61" stroke-width=".22" d="M342.3 700.84h13.42"/>
  <path fill="#231f20" fill-rule="evenodd" d="m359.27 700.84-7.06-3.01q1.51 3 0 6.02z"/>
  <path fill="none" stroke="#231f20" stroke-miterlimit="2.61" stroke-width=".22" d="M142.1 673.66v-12.37"/>
  <path fill="none" stroke="#231f20" stroke-miterlimit="2.61" stroke-width=".5" d="M0 0v12.4" transform="matrix(1.00089 0 0 -.99654 157.21 674.28)"/>
  <path fill="none" stroke="#231f20" stroke-miterlimit="2.61" stroke-width=".22" d="M143.5 665.42h11.3"/>
  <path fill="none" stroke="#231f20" stroke-miterlimit="2.61" stroke-width="1.01" d="m0 0-3.97-2.57L0-5.15" transform="matrix(1.00089 0 0 -.99654 146.69 662.85)"/>
  <path fill="none" stroke="#231f20" stroke-miterlimit="2.61" stroke-width="1.01" d="m0 0 3.97-2.57L0-5.15" transform="matrix(1.00089 0 0 -.99654 151.6 662.85)"/>
  <path fill="#231f20" fill-rule="evenodd" d="m154.58 651.03-2.35 8.02q-.19.66-.2.86 0 .07.07.13.06.06.11.06.1 0 .22-.08.23-.17.78-.82l.23.14q-.5.68-1 1.1t-.93.42a.5.5 0 0 1-.38-.16.7.7 0 0 1-.16-.46q0-.38.21-1.04l.27-.84a8 8 0 0 1-1.8 2.1q-.57.4-1.08.4t-.9-.45-.4-1.25q0-1.02.66-2.17.64-1.14 1.71-1.87a3 3 0 0 1 1.55-.57q.36 0 .63.15t.53.5l.67-2.38.12-.4q.08-.27.08-.45 0-.14-.1-.23a.6.6 0 0 0-.37-.12l-.52.05v-.25Zm-2.53 4.83a1 1 0 0 0-.25-.7 1 1 0 0 0-.65-.27q-.85 0-1.8 1.41a5 5 0 0 0-.92 2.72q0 .51.22.77.22.27.54.27.71 0 1.78-1.53a5 5 0 0 0 1.08-2.67"/>
  <path fill="#fff" fill-rule="evenodd" d="M468.53 435.7a35.94 35.94 0 1 0 0 71.9 35.9 35.9 0 0 0 35.95-35.95 35.94 35.94 0 0 0-35.95-35.95"/>
  <path fill="none" stroke="#000" stroke-linecap="round" stroke-linejoin="round" stroke-miterlimit="10" stroke-width=".75" d="M468.53 435.7a35.94 35.94 0 1 0 0 71.9 35.9 35.9 0 0 0 35.95-35.95 35.94 35.94 0 0 0-35.95-35.95m0 0"/>
  <path d="m468.82 435.94 32.84-22.65.3-.06.24.18.06.24-.18.24-32.83 22.65-.3.06-.24-.18-.07-.24Zm30.5-24.27 6.66-.9-3.24 5.87"/>
  <path fill="none" stroke="#000" stroke-dasharray="2.2470525 2.99607" stroke-linecap="round" stroke-linejoin="round" stroke-miterlimit="10" stroke-width=".75" d="m469.54 435.22.54-37.45"/>
  <path fill="none" stroke="#000" stroke-linecap="round" stroke-linejoin="round" stroke-miterlimit="10" stroke-width=".75" d="M470.02 422.22c2.82 0 5.58 1.62 7.5 4.43"/>
  <use xlink:href="#c" x="474.76" y="420.36"/>
  <path fill="#fff" fill-rule="evenodd" d="M505.26 408.73c-.96 0-1.8 1.02-1.8 2.28s.84 2.22 1.8 2.22c.95 0 1.8-.96 1.8-2.22s-.85-2.28-1.8-2.28"/>
  <path fill="none" stroke="#000" stroke-linecap="round" stroke-linejoin="round" stroke-miterlimit="10" stroke-width=".75" d="M505.26 408.73c-.96 0-1.8 1.02-1.8 2.28s.84 2.22 1.8 2.22c.95 0 1.8-.96 1.8-2.22s-.85-2.28-1.8-2.28m0 0"/>
  <use xlink:href="#d" x="509.21" y="411.55"/>
  <use xlink:href="#e" x="467.27" y="446.55"/>
  <text x="314" y="717" font-family="Times New Roman" font-size="14">лъчение</text>
  <text x="97" y="716" font-family="Times New Roman" font-size="14" font-style="italic">X</text>
  <text x="95" y="686" font-family="Times New Roman" font-size="14" font-style="italic">Y</text>
  <text x="72" y="683" font-family="Times New Roman" font-size="14" font-style="italic">Z</text>
  <text x="114" y="699" font-family="Times New Roman" font-size="14" font-style="italic">v</text>
</svg>
