<svg xmlns="http://www.w3.org/2000/svg" xmlns:xlink="http://www.w3.org/1999/xlink" width="150" height="150" viewBox="0 0 150 150">
  <defs>
    <path id="a" d="M.48-3.52q0-2.1.86-3.25Q2-7.6 2.9-7.6q.87 0 1.5.81.88 1.17.88 3.14-.01 1.9-.86 2.97-.66.87-1.57.86-.48 0-.89-.23a3 3 0 0 1-.7-.69q-.31-.43-.48-.94a6 6 0 0 1-.29-1.83m3.75-.37a8 8 0 0 0-.28-2.23 2 2 0 0 0-.53-.94 1 1 0 0 0-.56-.2q-.37 0-.69.3-.3.28-.45.94T1.5-3.89Zm-2.73.36q.03.96.16 1.7.09.59.3 1.02.15.25.4.44.25.17.55.17.33 0 .65-.32t.47-1.03.19-1.98Zm0 0"/>
    <path id="b" d="m.08.17.6-2.7h.18l-.05.65q0 .75.47 1.2.46.46 1.24.46.7 0 1.06-.44a1.5 1.5 0 0 0 .2-1.65q-.26-.45-1.34-1.56a4 4 0 0 1-.69-.8 2 2 0 0 1-.25-.92q0-.75.56-1.28.59-.55 1.47-.55.3 0 .56.04.18.04.61.22.31.14.35.14.07.02.17.02a.4.4 0 0 0 .25-.08q.12-.09.26-.34h.2l-.54 2.4H5.2l.03-.51q0-.66-.43-1.06a1.5 1.5 0 0 0-1.13-.43q-.56 0-.9.33-.35.33-.35.77 0 .38.22.72t1.02 1.1q.81.75 1.04 1.2.24.44.24.92 0 .54-.3 1.06t-.84.81q-.55.28-1.2.28-.3 0-.6-.06a8 8 0 0 1-.87-.3 1 1 0 0 0-.36-.08q-.33 0-.49.44Zm0 0"/>
    <path id="e" d="M5.4-7.42q.72 0 1.27.31.57.32.88.92.33.6.33 1.27 0 1.17-.7 2.45A5 5 0 0 1 5.43-.5q-1.1.67-2.25.67-.84 0-1.42-.37a2.2 2.2 0 0 1-.83-.99q-.26-.6-.26-1.18 0-1.02.48-2 .5-1 1.17-1.66a5 5 0 0 1 1.46-1.03q.75-.36 1.64-.36m-.18.34q-.53 0-1.05.27-.51.25-1.01.86-.5.6-.91 1.58-.48 1.2-.48 2.26 0 .77.39 1.36.38.58 1.2.58.48 0 .95-.24.48-.24.97-.84a6 6 0 0 0 1.08-1.86 6 6 0 0 0 .44-2.12q0-.74-.4-1.29-.39-.56-1.18-.56m0 0"/>
  </defs>
  <path fill="#fff" fill-rule="evenodd" d="M68.53 35.7a35.94 35.94 0 1 0 0 71.9 35.9 35.9 0 0 0 35.95-35.95 35.94 35.94 0 0 0-35.95-35.95"/>
  <path fill="none" stroke="#000" stroke-linecap="round" stroke-linejoin="round" stroke-miterlimit="10" stroke-width=".75" d="M68.53 35.7a35.94 35.94 0 1 0 0 71.9 35.9 35.9 0 0 0 35.95-35.95 35.94 35.94 0 0 0-35.95-35.95m0 0"/>
  <path d="m68.82 35.94 32.84-22.65.3-.06.24.18.06.24-.18.24-32.83 22.65-.3.06-.24-.18-.07-.24Zm30.5-24.27 6.66-.9-3.24 5.87"/>
  <path fill="none" stroke="#000" stroke-dasharray="2.2470525 2.99607" stroke-linecap="round" stroke-linejoin="round" stroke-miterlimit="10" stroke-width=".75" d="m69.54 35.22.54-37.45"/>
  <path fill="none" stroke="#000" stroke-linecap="round" stroke-linejoin="round" stroke-miterlimit="10" stroke-width=".75" d="M70.02 22.22c2.82 0 5.58 1.62 7.5 4.43"/>
  <use xlink:href="#a" x="74.76" y="20.36"/>
  <path fill="#fff" fill-rule="evenodd" d="M105.26 08.73c-.96 0-1.8 1.02-1.8 2.28s.84 2.22 1.8 2.22c.95 0 1.8-.96 1.8-2.22s-.85-2.28-1.8-2.28"/>
  <path fill="none" stroke="#000" stroke-linecap="round" stroke-linejoin="round" stroke-miterlimit="10" stroke-width=".75" d="M105.26 08.73c-.96 0-1.8 1.02-1.8 2.28s.84 2.22 1.8 2.22c.95 0 1.8-.96 1.8-2.22s-.85-2.28-1.8-2.28m0 0"/>
  <use xlink:href="#b" x="109.21" y="11.55"/>
  <use xlink:href="#e" x="67.27" y="46.55"/>
</svg>
