<svg xmlns="http://www.w3.org/2000/svg" xmlns:xlink="http://www.w3.org/1999/xlink" width="400" height="170" viewBox="0 0 400 170">
  <defs>
    <g id="a" fill="none" stroke="#231f20" stroke-miterlimit="2.61" stroke-width=".7">
      <path d="m136.46 71.94-4.92 4.92v14.78h14.77l4.92-4.93v-14.77Zm0 0"/>
      <path d="M131.53 76.84h14.77l4.93-4.92m-4.91 4.92v14.77"/>
    </g>
    <g id="b">
      <path fill="#8e9091" fill-rule="evenodd" d="M147.02 76.85v14.73h14.78v-14.72z"/>
      <path fill="#acacad" fill-rule="evenodd" d="M147.02 76.84h14.78l4.93-4.9h-14.78z"/>
      <path fill="none" stroke="#231f20" stroke-miterlimit="2.61" stroke-width=".7" d="m0 0-4.93-4.92V-19.7H9.85v14.78L14.77.01Zm0 0" transform="matrix(1.00089 0 0 -.99654 151.95 71.94)"/>
      <path fill="none" stroke="#231f20" stroke-miterlimit="2.61" stroke-width=".7" d="M0 0h14.77l4.93 4.92" transform="matrix(1.00089 0 0 -.99654 147.02 76.84)"/>
      <path fill="none" stroke="#231f20" stroke-miterlimit="2.61" stroke-width=".7" d="M0 0v-14.77" transform="matrix(1.00089 0 0 -.99654 161.81 76.84)"/>
    </g>
  </defs>
  <use xlink:href="#a"/>
  <use xlink:href="#b"/>
  <use xlink:href="#a" x="30.98"/>
  <use xlink:href="#b" x="30.98"/>
  <use xlink:href="#a" x="61.96"/>
  <use xlink:href="#b" x="61.96"/>
  <use xlink:href="#a" x="92.94"/>
  <use xlink:href="#b" x="92.94"/>
  <use xlink:href="#a" x="123.92"/>
  <use xlink:href="#b" x="123.92"/>
  <path fill="#dbdada" fill-rule="evenodd" d="m300.5 76.84 4.93-4.9v14.72l-4.92 4.9z"/>
  <use xlink:href="#a" x="154.9"/>
  <use xlink:href="#b" x="-15.49" y="36.46"/>
  <use xlink:href="#a" x="15.49" y="36.46"/>
  <use xlink:href="#b" x="15.49" y="36.46"/>
  <use xlink:href="#a" x="46.47" y="36.46"/>
  <use xlink:href="#b" x="46.47" y="36.46"/>
  <use xlink:href="#a" x="77.45" y="36.46"/>
  <use xlink:href="#b" x="77.45" y="36.46"/>
  <use xlink:href="#a" x="108.43" y="36.46"/>
  <use xlink:href="#b" x="108.43" y="36.46"/>
  <use xlink:href="#a" x="139.42" y="36.46"/>
  <path fill="#8e9091" fill-rule="evenodd" d="m291.35 109.1-4.92 4.2v14.72h14.08l4.92-4.9v-14.03z"/>
  <path fill="#acacad" fill-rule="evenodd" d="M286.43 113.3h14.08l4.92-4.2h-14.08z"/>
  <path fill="#747878" fill-rule="evenodd" d="m300.5 113.3 4.93-4.2v14.01l-4.92 4.91z"/>
  <path fill="none" stroke="#231f20" stroke-miterlimit="2.61" stroke-width=".7" d="m0 0-4.92-4.22v-14.77H9.15l4.92 4.92V0Zm0 0" transform="matrix(1.00089 0 0 -.99654 291.37 109.1)"/>
  <path fill="none" stroke="#231f20" stroke-miterlimit="2.61" stroke-width=".7" d="M0 0h14.07L19 4.22" transform="matrix(1.00089 0 0 -.99654 286.44 113.3)"/>
  <path fill="none" stroke="#231f20" stroke-miterlimit="2.61" stroke-width=".7" d="M0 0v-14.77" transform="matrix(1.00089 0 0 -.99654 300.52 113.3)"/>
  <path fill="none" stroke="#231f20" stroke-miterlimit="2.61" stroke-width=".59" d="m0 0 1.18 1.18 1.18 1.18 1.18 1.18 1.18 1.18H5.9l.59.6 1.18-.6h1.18l.6-.6 2.35-2.35.59-.59.59-1.18 1.18-1.77 2.95-2.95h.59l.59-.59h2.35l1.19.6v.58h.59l1.77 1.77.59 1.18.59.59h.59V0l1.18 1.17.58 1.18 1.19 1.18 1.18 1.18 1.17.6h1.19l1.18-.6h.59l.59-.6 2.36-2.35.59-.59.58-1.18h.6l.59-1.77 2.95-2.95h.59l1.17-.59h1.77l1.19.6.59.58h.59l1.18 1.18.58.6.6 1.17.58.59V0l1.18 1.17.6 1.18 1.17 1.18 1.19 1.18h1.18l1.17.6 1.19-.6h.58l.6-.6 2.35-2.35.6-.59L63.7 0h.59l.6-1.77 2.94-2.95h.6l1.17-.59h1.77l1.18.6.6.58h.58l1.18 1.18.6.6.58 1.17.6.59-.01.6 1.18 1.17 1.18 1.18 1.18 1.18 1.18 1.18.59.6h1.18l1.18-.6h1.18l.59-.6v-.58l1.77-1.77.6-.59.58-1.18h.59l1.18-1.77 1.18-1.18.6-1.18.58-.59h.59l1.18-.59h2.36l1.18 1.18h.59l1.18 1.18.59.6.59 1.17.6.59.58.6 1.18 1.17.59 1.18 1.18 1.18 1.18 1.18 1.18.6h1.77l1.18-.6 3.54-3.54.59-.59V0h.59l.59-1.18 1.18-1.77 1.18-1.18h.59l.59-.59 1.18-.59h1.77l1.17.6.6.58h.59l1.18 1.18.59 1.18.59.59.59.59V0l1.18 1.17 1.17 1.18 1.18 1.18 1.19 1.18.58.6h2.36l1.19-.6.59-.6v-.58l1.77-1.77.58-.59L141 0l1.19-1.18 1.18-1.77.59-1.18h.58l.6-.59 1.17-.59h2.36l1.19 1.18.59.59 1.18.59.58 1.18.6.59.58.59.59.6" transform="matrix(1.19344 0 1.34723 -.8357 125.45 100.35)"/>
  <path fill="none" stroke="#231f20" stroke-miterlimit="2.61" stroke-width=".76" d="m0 0 2.12-.1L7.4-.37l1.06-.05.18-.11L9.71-.6l-.78-.1.19-.12-.88-.06-.87-.06-1.75-.13-.87-.06-.87-.06-1.84-.07-2.71-.14-3.5-.25-.87-.06.1-.06-.88-.07.37-.23 1.15-.1h.97l.1-.06 2.11-.1 1.06-.06 2.02-.04 1.06-.06.1-.05h.96l2.12-.1c2.41-.06 5-.15 7.4-.37l.2-.11-.79-.13.1-.05-1.75-.13-1.75-.13-.87-.06-.87-.07-1.84-.07.09-.05-2.8-.08-3.5-.25-.87-.07.1-.05-.79-.13.28-.17 1.15-.1 1.06-.06.1-.06 2.1-.1 1.07-.06 2.02-.04 1.06-.06.97.01 2.11-.1 2.03-.05 2.11-.1 2.12-.11.19-.12 1.15-.1-.78-.13.1-.06-.88-.06-2.62-.2-.87-.05-.88-.07-1.84-.07.1-.06-2.8-.07-3.5-.25-.87-.07.1-.06-.8-.12.28-.17 1.16-.11 1.06-.05.09-.06 2.12-.1L8-7.45l2.02-.05 1.06-.05h.96l2.12-.1L21.58-8l.19-.12-.78-.12.18-.12-.87-.06h-.97l-1.74-.13-.88-.06-.87-.07L14-8.75l.1-.05-2.72-.14-1.74-.13-1.84-.06-.88-.07.1-.06-.78-.12.37-.23 2.12-.1.09-.06 2.11-.1L12-9.94l2.03-.05 1.05-.05 1.06-.05 2.12-.1 2.03-.05 3.17-.16 1.06-.05 1.15-.11.28-.17-.78-.13-6.11-.44h-.97l.1-.06-1.85-.07-2.7-.14-1.75-.12.09-.06-.87-.07-.79-.12.28-.17 1.15-.11 1.06-.05.1-.06 2.11-.1 2.03-.05 2.12-.1h.96l2.12-.1 4.23-.22 3.18-.15.37-.23-.78-.13c-2.1-.08-4.11-.22-6.2-.38l-.88-.07-1.75-.12-2.7-.14-1.85-.06.1-.06-.88-.07-.78-.12.37-.23 2.12-.1 1.06-.06 1.15-.1 2.03-.06 3.17-.15" transform="matrix(.8945 -.51972 -.48746 -.83178 312.7 100.43)"/>
  <path fill="none" stroke="#231f20" stroke-miterlimit="2.61" stroke-width=".5" d="M0 0c-6.2-1.65-12.4-2.48-12.4-2.48h-9.92" transform="matrix(1.00089 0 0 -.99654 127.64 99.6)"/>
  <path fill="none" stroke="#231f20" stroke-miterlimit="2.61" stroke-width=".5" d="M0 0a113 113 0 0 0 12.4 2.48h9.92" transform="matrix(1.00089 0 0 -.99654 310.26 100.22)"/>
  <path fill="none" stroke="#231f20" stroke-miterlimit="2.61" d="M0 0h-20.02" transform="matrix(1.00089 0 0 -.99654 103.41 102.07)"/>
  <path fill="#231f20" fill-rule="evenodd" d="m106.95 102.07-7.05 3.01q1.5-3 0-6.01z"/>
  <path fill="none" stroke="#231f20" stroke-miterlimit="2.61" d="M0 0v-20.02" transform="matrix(1.00089 0 0 -.99654 83.37 82.14)"/>
  <path fill="#231f20" fill-rule="evenodd" d="m83.36 78.61 3.03 7.02q-3.03-1.5-6.05 0z"/>
  <path fill="none" stroke="#231f20" stroke-miterlimit="2.61" d="m0 0-10.02-11.02" transform="matrix(1.00089 0 0 -.99654 93.82 90.68)"/>
  <path fill="#231f20" fill-rule="evenodd" d="m96.43 88.03-2.5 7.22a6.4 6.4 0 0 0-4.48-4.06z"/>
  <path fill="none" stroke="#231f20" stroke-miterlimit="2.61" d="M0 0h9.27" transform="matrix(1.00089 0 0 -.99654 111.92 102.07)"/>
  <path fill="#231f20" fill-rule="evenodd" d="m124.74 102.07-7.05-3q1.5 3 0 6.01z"/>
  <path fill="#d1d3d4" fill-rule="evenodd" stroke="#231f20" stroke-miterlimit="2.61" stroke-width=".22" d="M110.26 99.2c1.6 0 2.9 1.29 2.9 2.87a2.9 2.9 0 0 1-5.8 0 2.9 2.9 0 0 1 2.9-2.88Zm0 0"/>
  <path fill="none" stroke="#231f20" stroke-miterlimit="2.61" stroke-width=".22" d="M342.3 100.84h13.42"/>
  <path fill="#231f20" fill-rule="evenodd" d="m359.27 100.84-7.06-3.01q1.51 3 0 6.02z"/>
  <path fill="none" stroke="#231f20" stroke-miterlimit="2.61" stroke-width=".22" d="M142.1 73.66v-12.37"/>
  <path fill="none" stroke="#231f20" stroke-miterlimit="2.61" stroke-width=".5" d="M0 0v12.4" transform="matrix(1.00089 0 0 -.99654 157.21 74.28)"/>
  <path fill="none" stroke="#231f20" stroke-miterlimit="2.61" stroke-width=".22" d="M143.5 65.42h11.3"/>
  <path fill="none" stroke="#231f20" stroke-miterlimit="2.61" stroke-width="1.01" d="m0 0-3.97-2.57L0-5.15" transform="matrix(1.00089 0 0 -.99654 146.69 62.85)"/>
  <path fill="none" stroke="#231f20" stroke-miterlimit="2.61" stroke-width="1.01" d="m0 0 3.97-2.57L0-5.15" transform="matrix(1.00089 0 0 -.99654 151.6 62.85)"/>
  <path fill="#231f20" fill-rule="evenodd" d="m154.58 51.03-2.35 8.02q-.19.66-.2.86 0 .07.07.13.06.06.11.06.1 0 .22-.08.23-.17.78-.82l.23.14q-.5.68-1 1.1t-.93.42a.5.5 0 0 1-.38-.16.7.7 0 0 1-.16-.46q0-.38.21-1.04l.27-.84a8 8 0 0 1-1.8 2.1q-.57.4-1.08.4t-.9-.45-.4-1.25q0-1.02.66-2.17.64-1.14 1.71-1.87a3 3 0 0 1 1.55-.57q.36 0 .63.15t.53.5l.67-2.38.12-.4q.08-.27.08-.45 0-.14-.1-.23a.6.6 0 0 0-.37-.12l-.52.05v-.25Zm-2.53 4.83a1 1 0 0 0-.25-.7 1 1 0 0 0-.65-.27q-.85 0-1.8 1.41a5 5 0 0 0-.92 2.72q0 .51.22.77.22.27.54.27.71 0 1.78-1.53a5 5 0 0 0 1.08-2.67"/>
  <text x="314" y="117" font-family="Times New Roman" font-size="14">лъчение</text>
  <text x="97" y="116" font-family="Times New Roman" font-size="14" font-style="italic">X</text>
  <text x="95" y="86" font-family="Times New Roman" font-size="14" font-style="italic">Y</text>
  <text x="72" y="83" font-family="Times New Roman" font-size="14" font-style="italic">Z</text>
  <text x="114" y="99" font-family="Times New Roman" font-size="14" font-style="italic">v</text>
</svg>
