<svg xmlns="http://www.w3.org/2000/svg" xmlns:xlink="http://www.w3.org/1999/xlink" width="550" height="350" viewBox="0 0 550 350">
  <defs>
    <path id="a" d="M6.14-4.12q0 .94-.16 1.71-.14.79-.5 1.35-.35.56-.9.87-.55.32-1.36.32-.78 0-1.31-.29a2 2 0 0 1-.86-.8 4 4 0 0 1-.46-1.32 11 11 0 0 1 .02-3.53q.15-.78.5-1.35.34-.56.89-.86.56-.3 1.38-.3.77 0 1.3.27.54.27.85.82.33.53.47 1.3.14.8.14 1.8m-1.12.07a12 12 0 0 0-.18-1.97 3 3 0 0 0-.21-.64q-.14-.27-.33-.45-.2-.17-.44-.25a2 2 0 0 0-.55-.08q-.53 0-.87.25t-.53.7-.27 1.05a12 12 0 0 0 .03 2.85q.09.64.3 1.04t.51.6q.33.17.8.17.34 0 .61-.11.28-.11.47-.31.2-.22.33-.52a5 5 0 0 0 .3-1.45zm0 0"/>
    <path id="c" d="M5.9-.44q0 .13-.04.22l-.05.13-.08.07-.07.02h-4.3l-.08-.02-.08-.07-.04-.13a1 1 0 0 1 0-.4q0-.1.04-.15l.07-.07.09-.04h1.72v-6.24l-1.6.95-.18.08q-.09 0-.13-.04l-.04-.14-.02-.23v-.19q0-.08.03-.12 0-.06.05-.1l.1-.07 1.9-1.2q0-.04.04-.04.06 0 .1-.03l.14-.02h.19a2 2 0 0 1 .4.05q.06.01.08.06l.03.07v7.22h1.49q.04 0 .09.03l.08.07.04.15zm0 0"/>
    <path id="f" d="M6.22-2.34a1 1 0 0 1-.06.34.2.2 0 0 1-.2.1h-.91v1.74q0 .06-.03.1L4.94 0l-.17.02A2 2 0 0 1 4.09 0L4-.06l-.02-.1v-1.73H.6q-.07 0-.12-.02l-.1-.06-.04-.16-.02-.25v-.2q0-.1.02-.17l.06-.16.08-.15 2.95-5 .1-.08q.05-.04.15-.06l.24-.03a4 4 0 0 1 .93.04q.1.01.14.06.07.04.07.1v5.25h.92q.1 0 .17.1.08.13.08.34M3.98-7.3 1.3-2.78h2.68Zm0 0"/>
    <path id="g" d="M5.86-.47q0 .12-.02.2L5.8-.1l-.07.08-.1.03H1.08L.92-.02l-.1-.07a.3.3 0 0 1-.09-.14 1 1 0 0 1 0-.47q.02-.1.05-.16L.86-1l.12-.17 1.6-1.69a9 9 0 0 0 1.39-1.89q.18-.37.23-.69.07-.3.07-.6 0-.25-.1-.5a1 1 0 0 0-.25-.43 1.3 1.3 0 0 0-1.01-.4q-.37 0-.7.1a4 4 0 0 0-.91.47q-.16.12-.24.11L.98-6.7l-.06-.08-.03-.16-.02-.23v-.16q.01-.08.04-.12 0-.06.03-.1l.1-.1q.09-.08.27-.2a4 4 0 0 1 1.8-.48q.6 0 1.05.17.45.15.75.46.3.28.43.67.14.4.14.83a4 4 0 0 1-.36 1.62q-.21.45-.65 1.02-.42.54-1.13 1.28L2.04-.92h3.59l.09.03q.04.02.08.08l.04.15zm0 0"/>
    <path id="h" d="M5.8-2.34q0 .56-.2 1.01t-.57.78-.9.5a4 4 0 0 1-1.99.1 5 5 0 0 1-1.1-.35Q.84-.38.8-.44l-.08-.1-.04-.1-.03-.14v-.24a1 1 0 0 1 .04-.3q.04-.1.13-.1.04 0 .22.1a7 7 0 0 0 1.04.45A3 3 0 0 0 3.61-.9q.33-.1.55-.3t.3-.47q.12-.27.12-.59a1.4 1.4 0 0 0-.53-1.1q-.27-.21-.66-.32-.38-.1-.86-.11h-.78l-.1-.02-.09-.08L1.5-4a1 1 0 0 1 0-.42l.06-.13.08-.06.1-.03h.71q.42 0 .75-.11a1.45 1.45 0 0 0 1.05-1.42q0-.27-.08-.49a1.1 1.1 0 0 0-.67-.67q-.25-.1-.6-.1-.36 0-.67.1a3 3 0 0 0-.95.49q-.16.1-.22.1l-.08-.01q-.03 0-.06-.06L.9-6.94l-.02-.23v-.17q.01-.08.04-.13l.04-.1.1-.1q.06-.06.23-.17a4 4 0 0 1 1.08-.41 4 4 0 0 1 1.77.06q.43.15.71.4.3.28.44.65a2.4 2.4 0 0 1 .03 1.55 1.8 1.8 0 0 1-1.43 1.28v.01a2.3 2.3 0 0 1 1.39.63 2 2 0 0 1 .53 1.33m0 0"/>
    <path id="i" d="M5.83-2.64a3 3 0 0 1-.22 1.17A2.4 2.4 0 0 1 4-.07a4 4 0 0 1-1.98.13 4 4 0 0 1-1.26-.4L.7-.42l-.03-.1-.03-.14v-.38q0-.08.05-.13.03-.06.06-.08l.08-.03q.06 0 .19.08a3 3 0 0 0 .92.34A3.4 3.4 0 0 0 3.5-.88a1.6 1.6 0 0 0 1.02-.85q.15-.33.15-.82 0-.39-.12-.68-.13-.3-.4-.5a2 2 0 0 0-.63-.3q-.4-.1-.94-.1-.4 0-.67.04l-.52.03q-.18 0-.25-.08t-.08-.31V-7.8q0-.22.1-.3.09-.12.28-.12h3.64l.1.03.07.1q.03.04.05.14l.01.2q0 .24-.06.36-.06.13-.17.12H2.02v2.32q.22-.03.45-.03L3-5q.7 0 1.23.17.54.15.88.47.35.31.53.75.2.45.19.97m0 0"/>
    <path id="j" d="M6.08-2.66q0 .53-.17 1.05-.16.5-.5.9-.35.36-.88.6T3.28.13a2.4 2.4 0 0 1-1.6-.5 2 2 0 0 1-.48-.57 4 4 0 0 1-.3-.78A8 8 0 0 1 .66-3.8a9 9 0 0 1 .27-2.1q.14-.5.39-.94.26-.46.64-.79.38-.32.89-.51a4 4 0 0 1 1.7-.16 6 6 0 0 1 .8.2q.15.03.19.08l.06.08q0 .04.03.08l.02.11.01.14-.01.2-.02.14-.06.08-.1.02-.18-.05-.28-.1-.43-.09a3 3 0 0 0-.56-.04q-.6 0-1.03.25-.42.23-.69.64-.27.4-.4.93-.14.54-.14 1.13a3 3 0 0 1 1.32-.48q.3-.07.6-.07.67 0 1.12.2A2 2 0 0 1 5.95-3.6q.13.42.13.93m-1.11.1q0-.36-.08-.66-.06-.3-.23-.51a1 1 0 0 0-.47-.33q-.28-.1-.7-.11-.24 0-.47.04-.24.04-.46.11t-.42.18l-.36.2q0 .83.11 1.37.1.56.3.9.2.32.5.46t.7.14.7-.14.49-.4q.2-.27.3-.58.09-.33.09-.67m0 0"/>
    <path id="k" d="m5.98-7.75-.01.22-.02.17-.1.33L2.87-.2l-.08.12-.13.08-.19.02a3 3 0 0 1-.78-.05l-.04-.11.04-.14L4.8-7.25H.88q-.14 0-.2-.12a1 1 0 0 1-.06-.36A1 1 0 0 1 .7-8.1l.08-.1.1-.03h4.79q.09 0 .15.03t.1.08.06.14zm0 0"/>
    <path id="l" d="M6.06-2.1q0 .52-.2.94-.18.42-.55.7-.36.3-.89.44-.51.15-1.2.14-.63 0-1.13-.12-.5-.15-.86-.4a1.8 1.8 0 0 1-.71-1.52q0-.38.12-.7.15-.33.38-.6.23-.29.57-.51.36-.23.8-.46-.4-.2-.69-.42t-.48-.47a2 2 0 0 1-.31-.54 2 2 0 0 1-.1-.65q0-.43.16-.8.15-.39.47-.66.3-.3.8-.44.47-.15 1.12-.16.61 0 1.08.16.45.15.75.4t.43.6a2 2 0 0 1-.28 1.94q-.2.26-.5.5-.28.23-.67.43.45.22.8.46.36.23.6.5t.37.57q.12.3.12.66M4.7-6.34q0-.26-.1-.47a1 1 0 0 0-.28-.37 1 1 0 0 0-.43-.24 2 2 0 0 0-.6-.07q-.68 0-1.05.3-.34.33-.34.85 0 .26.08.47.1.2.26.4.2.2.47.38l.66.38q.64-.35.98-.74.35-.4.35-.89M4.95-2q0-.28-.1-.52a1.4 1.4 0 0 0-.33-.45 3 3 0 0 0-.55-.39l-.75-.4q-.4.18-.72.38a2 2 0 0 0-.78.85q-.1.23-.1.51 0 .61.43.96.42.33 1.26.33.81 0 1.22-.33.42-.34.42-.94m0 0"/>
    <path id="m" d="M5.92-4.44q0 .55-.06 1.1-.07.53-.22 1.04A3.7 3.7 0 0 1 4.6-.58q-.39.34-.93.52a4 4 0 0 1-1.78.14 5 5 0 0 1-.8-.19l-.2-.1a.4.4 0 0 1-.1-.16L.76-.64A1 1 0 0 1 .8-.98q0-.06.04-.07l.1-.01q.06 0 .19.04.12.06.3.11.21.06.48.1.25.04.57.04.63 0 1.07-.23t.72-.62q.27-.41.42-.94t.15-1.11q-.35.19-.8.34-.48.16-1.09.16-.69 0-1.15-.19A1.9 1.9 0 0 1 .64-4.64a3 3 0 0 1-.12-.97q0-.54.15-1.03.17-.5.5-.88.35-.37.86-.59.52-.22 1.25-.22.52 0 .9.13a2 2 0 0 1 1.2.97q.2.34.32.78.13.43.17.95.05.5.05 1.06m-1.1-.1q0-.82-.12-1.37a3 3 0 0 0-.3-.9q-.22-.35-.53-.5-.3-.15-.7-.16a1.5 1.5 0 0 0-1.19.55q-.18.25-.28.58A3 3 0 0 0 1.7-5q.08.3.25.52.19.21.47.34.28.1.7.1a3 3 0 0 0 1.7-.5m0 0"/>
    <path id="d" d="M5.86-.47q0 .12-.02.2L5.8-.1l-.07.08-.1.03H1.08L.92-.02l-.1-.07a.3.3 0 0 1-.09-.14 1 1 0 0 1 0-.47q.02-.1.05-.16L.86-1l.12-.17 1.6-1.69a9 9 0 0 0 1.39-1.89q.18-.37.23-.69.07-.3.07-.6 0-.25-.1-.5a1 1 0 0 0-.25-.43 1.3 1.3 0 0 0-1.01-.4q-.37 0-.7.1a4 4 0 0 0-.91.47q-.16.12-.24.11L.98-6.7l-.06-.08-.03-.16-.02-.23v-.16q.01-.08.04-.12 0-.06.03-.1l.1-.1q.09-.08.27-.2a4 4 0 0 1 1.8-.48q.6 0 1.05.17.45.15.75.46.3.28.43.67.14.4.14.83a4 4 0 0 1-.36 1.62q-.21.45-.65 1.02-.42.54-1.13 1.28L2.04-.92h3.59l.09.03q.04.02.08.08l.04.15zm0 0"/>
    <path id="e" d="M5.8-2.34q0 .56-.2 1.01t-.57.78-.9.5a4 4 0 0 1-1.99.1 5 5 0 0 1-1.1-.35Q.84-.38.8-.44l-.08-.1-.04-.1-.03-.14v-.24a1 1 0 0 1 .04-.3q.04-.1.13-.1.04 0 .22.1a7 7 0 0 0 1.04.45A3 3 0 0 0 3.61-.9q.33-.1.55-.3t.3-.47q.12-.27.12-.59a1.4 1.4 0 0 0-.53-1.1q-.27-.21-.66-.32-.38-.1-.86-.11h-.78l-.1-.02-.09-.08L1.5-4a1 1 0 0 1 0-.42l.06-.13.08-.06.1-.03h.71q.42 0 .75-.11a1.45 1.45 0 0 0 1.05-1.42q0-.27-.08-.49a1.1 1.1 0 0 0-.67-.67q-.25-.1-.6-.1-.36 0-.67.1a3 3 0 0 0-.95.49q-.16.1-.22.1l-.08-.01q-.03 0-.06-.06L.9-6.94l-.02-.23v-.17q.01-.08.04-.13l.04-.1.1-.1q.06-.06.23-.17a4 4 0 0 1 1.08-.41 4 4 0 0 1 1.77.06q.43.15.71.4.3.28.44.65a2.4 2.4 0 0 1 .03 1.55 1.8 1.8 0 0 1-1.43 1.28v.01a2.3 2.3 0 0 1 1.39.63 2 2 0 0 1 .53 1.33m0 0"/>
    <path id="n" d="M-2.73-3.69H-.2l.1.03.07.13.05.22a4 4 0 0 1 0 .72l-.05.21-.06.13-.11.03h-2.53L-6.66-.25l-.3.13q-.14.02-.2-.04t-.06-.23a7 7 0 0 1 .03-1.13q.04-.09.08-.12l.13-.1 1.78-.8.53-.21.6-.25-1.13-.44-1.75-.8a.2.2 0 0 1-.14-.06.3.3 0 0 1-.1-.12l-.03-.22a5 5 0 0 1 0-.88q0-.18.06-.25.06-.05.2-.03l.3.14Zm0 0"/>
    <path id="o" d="M-7.62-2.97q1.1.45 2.25.7a12 12 0 0 0 6.98-.7L1.77-3q.05 0 .1.06t.07.19q.03.13.03.34 0 .16-.02.27 0 .11-.03.19l-.04.12-.08.05a13 13 0 0 1-2.35.9A11 11 0 0 1-3-.58a9 9 0 0 1-2.44-.3 12 12 0 0 1-2.4-.94l-.05-.1-.03-.16a3 3 0 0 1 .01-.63q.03-.15.07-.2.03-.06.09-.06a.2.2 0 0 1 .13.01m0 0"/>
    <path id="p" d="M-.19-8.6q.05 0 .1.04l.07.1.04.23a4 4 0 0 1 0 .68l-.04.2a.2.2 0 0 1-.07.12l-.1.03h-2.95q-.25 0-.45.04a1 1 0 0 0-.35.16.7.7 0 0 0-.31.6q0 .24.2.5.2.27.57.56h3.3l.09.03q.04.03.07.12l.04.22a3 3 0 0 1 0 .67l-.04.2a.2.2 0 0 1-.07.12l-.1.03h-2.95q-.25 0-.45.04-.2.06-.35.14a.7.7 0 0 0-.31.6q0 .27.2.53.2.25.57.53h3.3l.09.05.07.1.04.23a4 4 0 0 1 0 .67l-.04.22-.07.1-.1.04h-4.97q-.06 0-.09-.02-.04-.03-.08-.1l-.03-.2a3 3 0 0 1 .03-.76q.04-.06.08-.08a.1.1 0 0 1 .1-.03h.57q-.45-.42-.67-.83a2 2 0 0 1-.22-.86q0-.3.06-.53t.2-.44q.1-.2.27-.34t.38-.24a3 3 0 0 1-.7-.84 2 2 0 0 1-.16-.42 2 2 0 0 1 .12-1.27q.15-.33.46-.54.28-.23.67-.3.37-.1.8-.1Zm0 0"/>
    <path id="q" d="M-3-2.95a10 10 0 0 1 3.63.67 12 12 0 0 1 1.25.58l.04.1.03.2a3 3 0 0 1-.01.62.4.4 0 0 1-.06.19l-.11.04q-.07 0-.16-.03a12 12 0 0 0-9.23.02l-.13.01q-.06 0-.1-.07a.4.4 0 0 1-.06-.2l-.03-.34.05-.45.05-.1.04-.06q1.17-.57 2.36-.87T-3-2.95m0 0"/>
    <path id="r" d="M5.94-.55q.09.19.12.32.03.1-.03.17-.06.05-.25.08A7 7 0 0 1 4.64 0l-.12-.08-.07-.1L3.1-2.8 1.75-.19l-.08.11a.2.2 0 0 1-.12.08L1.3.02a5 5 0 0 1-.86 0Q.3 0 .23-.06.2-.12.22-.23q.03-.14.14-.32L2.09-3.7.5-6.66l-.15-.3q-.02-.14.03-.2t.24-.06a7 7 0 0 1 1.14.03q.09.01.13.07l.07.1 1.27 2.4 1.23-2.4.07-.1a.2.2 0 0 1 .12-.07l.22-.03a5 5 0 0 1 .84 0q.15 0 .22.06.06.06.03.2l-.12.3-1.61 2.94Zm0 0"/>
    <path id="s" d="M2.98-7.62q-.46 1.1-.71 2.25a12 12 0 0 0 .75 7.14q0 .05-.07.1a.4.4 0 0 1-.18.07q-.13.03-.35.03-.16 0-.28-.02-.11 0-.19-.03l-.1-.04q-.06-.04-.07-.08-.3-.58-.53-1.17a9 9 0 0 1-.58-2.38 9 9 0 0 1 0-2.48 11 11 0 0 1 .6-2.4 10 10 0 0 1 .56-1.21l.1-.05.18-.03a3 3 0 0 1 .62.01q.13.03.2.07.06.03.07.09a.2.2 0 0 1-.02.13m0 0"/>
    <path id="t" d="M8.63-.19q0 .05-.04.1l-.1.07-.22.04a4 4 0 0 1-.7 0l-.21-.04a.2.2 0 0 1-.11-.07l-.02-.1v-2.95a2 2 0 0 0-.2-.8.7.7 0 0 0-.6-.31 1 1 0 0 0-.5.2q-.26.2-.57.57v3.3l-.03.09-.11.07L5 .02a4 4 0 0 1-.67 0L4.1-.02 4-.09l-.03-.1v-2.95q0-.25-.05-.45a1 1 0 0 0-.14-.35 1 1 0 0 0-.25-.23 1 1 0 0 0-.36-.08 1 1 0 0 0-.51.2q-.26.2-.55.57v3.3l-.03.09a.2.2 0 0 1-.13.07l-.22.04a4 4 0 0 1-.67 0L.84-.02l-.1-.07L.7-.2v-4.97q0-.06.03-.09l.1-.08.19-.03a3 3 0 0 1 .76.03l.1.08q.02.03.03.1v.57q.4-.45.8-.67.44-.21.87-.22.31 0 .56.06a1.5 1.5 0 0 1 1 .85 3 3 0 0 1 .86-.7 2 2 0 0 1 .42-.16 2 2 0 0 1 1.27.12q.33.15.54.46.23.28.3.67.1.37.1.8Zm0 0"/>
    <path id="u" d="M2.95-3A10 10 0 0 1 2.3.63a12 12 0 0 1-.58 1.25l-.13.04-.18.03a3 3 0 0 1-.61-.01.4.4 0 0 1-.2-.06q-.05-.06-.05-.11 0-.07.03-.16.45-1.08.7-2.24a11.4 11.4 0 0 0-.72-7l-.01-.12q0-.06.07-.1a2 2 0 0 1 .53-.1l.48.06q.07.02.1.05.03 0 .05.04.58 1.17.88 2.36T2.96-3m0 0"/>
  </defs>
  <path fill="none" stroke="#b7b7b7" stroke-linejoin="round" stroke-miterlimit="10" stroke-width=".6" d="M45.3 54.9h345.6M45.3 58.5h345.6M45.3 62.1h345.6M45.3 65.7h345.6M45.3 69.3h345.6M45.3 72.9h345.6M45.3 76.5h345.6M45.3 80.1h345.6M45.3 84.3h345.6M45.3 91.5h345.6M45.3 95.1h345.6M45.3 98.7h345.6m-345.6 3.61h345.6m-345.6 3.6h345.6m-345.6 3.6h345.6m-345.6 3.6h345.6m-345.6 3.6h345.6m-345.6 3.6h345.6m-345.6 7.2h345.6m-345.6 4.2h345.6m-345.6 3.6h345.6m-345.6 3.6h345.6m-345.6 3.6h345.6m-345.6 3.6h345.6m-345.6 3.6h345.6m-345.6 3.6h345.6m-345.6 3.6h345.6m-345.6 7.2h345.6m-345.6 3.6h345.6m-345.6 3.6h345.6m-345.6 3.6h345.6m-345.6 4.2h345.6m-345.6 3.6h345.6m-345.6 3.6h345.6m-345.6 3.6h345.6m-345.6 3.6h345.6" transform="matrix(1.11888 0 0 -1.11611 73.5 315.74)"/>
  <path fill="none" stroke="#000" stroke-linejoin="round" stroke-miterlimit="10" stroke-width="1.2" d="M45.6 87.6h345.6M45.6 124.2h345.6M45.6 160.82h345.6m-345.6 36h345.6" transform="matrix(1.11888 0 0 -1.11611 73.5 315.74)"/>
  <path fill="none" stroke="#595959" stroke-linejoin="round" stroke-miterlimit="10" stroke-width=".6" d="M48.9 197.11V51.31m3.6 145.8V51.31m3.6 145.8V51.31m3 145.8V51.31m3.6 145.8V51.31m3.6 145.8V51.31m3.6 145.8V51.31m3 145.8V51.31m3.6 145.8V51.31m7.2 145.8V51.31m3 145.8V51.31m3.6 145.8V51.31m3.6 145.8V51.31m3.6 145.8V51.31m3 145.8V51.31m3.6 145.8V51.31m3.6 145.8V51.31m3.6 145.8V51.31m6.6 145.8V51.31m3.6 145.8V51.31m3.6 145.8V51.31m3.6 145.8V51.31m3 145.8V51.31m3.6 145.8V51.31m3.6 145.8V51.31m3.6 145.8V51.31m3 145.8V51.31m7.2 145.8V51.31m3.6 145.8V51.31m3 145.8V51.31m3.6 145.8V51.31m3.6 145.8V51.31m3.6 145.8V51.31m3 145.8V51.31m3.6 145.8V51.31m3.6 145.8V51.31m6.6 145.8V51.31m3.6 145.8V51.31m3.6 145.8V51.31m3.6 145.8V51.31m3 145.8V51.31m3.6 145.8V51.31m3.6 145.8V51.31m3.6 145.8V51.31m3 145.8V51.31m7.2 145.8V51.31m3.6 145.8V51.31m3 145.8V51.31m3.6 145.8V51.31m3.6 145.8V51.31m3.6 145.8V51.31m3 145.8V51.31m3.6 145.8V51.31m3.6 145.8V51.31m7.2 145.8V51.31m3 145.8V51.31m3.6 145.8V51.31m3.6 145.8V51.31m3.6 145.8V51.31m3 145.8V51.31m3.6 145.8V51.31m3.6 145.8V51.31m3.6 145.8V51.31m6.6 145.8V51.31m3.6 145.8V51.31m3.6 145.8V51.31m3 145.8V51.31m3.6 145.8V51.31m3.6 145.8V51.31m3.6 145.8V51.31m3 145.8V51.31m3.6 145.8V51.31m7.2 145.8V51.31m3 145.8V51.31m3.6 145.8V51.31m3.6 145.8V51.31m3.6 145.8V51.31m3 145.8V51.31m3.6 145.8V51.31m3.6 145.8V51.31m3.6 145.8V51.31m6.6 145.8V51.31m3.6 145.8V51.31m3.6 145.8V51.31m3 145.8V51.31m3.6 145.8V51.31m3.6 145.8V51.31m3.6 145.8V51.31m3.6 145.8V51.31m3 145.8V51.31" transform="matrix(1.11888 0 0 -1.11611 73.5 315.74)"/>
  <path fill="none" stroke="#000" stroke-linejoin="round" stroke-miterlimit="10" stroke-width="1.2" d="M79.8 196.81V51.01m34.8 145.8V51.01m34.8 145.8V51.01m34.2 145.8V51.01m34.8 145.8V51.01m34.2 145.8V51.01m34.8 145.8V51.01m34.2 145.8V51.01m34.8 145.8V51.01m34.8 145.8V51.01M45.6 51v145.81M42 51h3.6M42 87.6h3.6M42 124.2h3.6M42 160.82h3.6m-3.6 36h3.6M45.6 51h345.6M45.6 51v-3.6M79.8 51v-3.6m34.8 3.6v-3.6m34.8 3.6v-3.6m34.2 3.6v-3.6m34.8 3.6v-3.6m34.2 3.6v-3.6m34.8 3.6v-3.6m34.2 3.6v-3.6m34.8 3.6v-3.6m34.8 3.6v-3.6" transform="matrix(1.11888 0 0 -1.11611 73.5 315.74)"/>
  <path stroke="#000" stroke-linejoin="round" stroke-miterlimit="10" stroke-width=".6" d="m45.82 47.28-3.6 3.6 3.6 3.6 3.6-3.6Zm114.66 89.27-3.6 3.6 3.6 3.6 3.6-3.6Zm54.04 32.17-3.6 3.6 3.6 3.6 3.6-3.6Zm39.17 9.13-3.6 3.6 3.6 3.6 3.6-3.6Zm30.01-5.16-3.59 3.6 3.6 3.6 3.6-3.6Zm24.31-16.22-3.6 3.6 3.6 3.6 3.6-3.6Zm17.73-26.37-3.6 3.6 3.6 3.6 3.6-3.6Zm12.86-33.74-3.6 3.6 3.6 3.6 3.61-3.6Zm11.16-37.43-3.6 3.6 3.6 3.6 3.6-3.6Zm0 0" transform="matrix(1.11888 0 0 -1.11611 73.5 315.74)"/>
  <use xlink:href="#a" x="104.91" y="262.94"/>
  <use xlink:href="#c" x="104.91" y="222.12"/>
  <use xlink:href="#d" x="104.91" y="181.29"/>
  <use xlink:href="#e" x="104.91" y="140.48"/>
  <use xlink:href="#f" x="104.91" y="99.63"/>
  <use xlink:href="#a" x="120.8" y="280.41"/>
  <use xlink:href="#c" x="159.51" y="280.41"/>
  <use xlink:href="#g" x="198.2" y="280.41"/>
  <use xlink:href="#h" x="236.91" y="280.41"/>
  <use xlink:href="#f" x="275.63" y="280.41"/>
  <use xlink:href="#i" x="314.32" y="280.41"/>
  <use xlink:href="#j" x="353.03" y="280.41"/>
  <use xlink:href="#k" x="391.73" y="280.41"/>
  <use xlink:href="#l" x="430.42" y="280.41"/>
  <use xlink:href="#m" x="469.14" y="280.41"/>
  <use xlink:href="#c" x="504.46" y="280.41"/>
  <use xlink:href="#a" x="511.17" y="280.41"/>
  <use xlink:href="#n" x="98.93" y="189.42"/>
  <use xlink:href="#o" x="98.93" y="181.37"/>
  <use xlink:href="#p" x="98.93" y="178.02"/>
  <use xlink:href="#q" x="98.93" y="168.63"/>
  <use xlink:href="#r" x="305.53" y="298.15"/>
  <use xlink:href="#s" x="313.62" y="298.15"/>
  <use xlink:href="#t" x="316.97" y="298.15"/>
  <use xlink:href="#u" x="326.39" y="298.15"/>
  <path fill="none" stroke="#868686" stroke-linejoin="round" stroke-miterlimit="10" stroke-width=".6" d="M.9.9h407.4v208.2H.9Zm0 0" transform="matrix(1.11888 0 0 -1.11611 73.5 315.74)"/>
</svg>
