<svg xmlns="http://www.w3.org/2000/svg" xmlns:xlink="http://www.w3.org/1999/xlink" width="500" height="350" viewBox="0 0 500 350">
  <defs>
    <path id="b" d="M4.42-7.83 2.95-6.56l-.3-.36.93-.81H0v-.55h3.58l-.94-.81.31-.36 1.47 1.28Zm0 0"/>
    <path id="g" d="M2.42.1Q1.5.1 1.05-.59A3.6 3.6 0 0 1 .59-2.6q0-.72.14-1.23.15-.52.4-.86.24-.34.59-.52.37-.17.76-.17.5 0 .85.19.36.18.58.53t.3.84q.12.5.12 1.11 0 1.4-.5 2.11-.5.7-1.4.7m-.97-2.82q0 .63.07 1.08.05.45.18.75.14.29.32.42.2.14.46.14t.44-.12q.19-.15.3-.4.12-.29.19-.7.06-.42.06-1 0-.63-.06-1.1-.06-.46-.2-.76-.12-.3-.3-.43a.7.7 0 0 0-.44-.14 1 1 0 0 0-.5.15q-.2.15-.3.46-.1.27-.17.7-.05.42-.05.95m0 0"/>
    <path id="k" d="m2.16-2.4.54-.68q.1-.12.14-.22a1 1 0 0 0 .05-.22.2.2 0 0 0-.08-.17.4.4 0 0 0-.2-.08v-.2h1.36v.2q-.16.06-.33.2-.15.12-.39.4l-.87 1.06.95 1.28q.2.27.36.42.17.15.33.2V0H2.34v-.2q.35-.04.35-.27l-.03-.16-.1-.18-.6-.85-.65.85q-.06.08-.1.15a.4.4 0 0 0-.04.18q0 .12.06.2.09.06.25.08V0H.1v-.2q.15-.04.25-.13.11-.07.22-.19l.31-.35.86-1.07-.89-1.22-.28-.36-.2-.17-.19-.08v-.2H1.8v.2q-.33.06-.33.25 0 .1.05.2.04.08.14.21Zm0 0"/>
    <path id="l" d="M2.7 0v-.2q.27-.08.35-.2.1-.15.1-.52v-2.72h-.9q-.15 1.41-.4 2.31-.26.9-.54 1.14A1 1 0 0 1 .7.06Q.36.06.16 0v-.9h.36q.02.36.26.35.37 0 .64-1.03.28-1.05.28-1.64 0-.5-.39-.55v-.2H4.3v.2q-.27.06-.36.2t-.08.5v2.15q0 .36.08.5t.36.22V0Zm0 0"/>
    <path id="a" d="M1.44.5q-.12.14-.19.27a1.03 1.03 0 0 0-.14.55q0 .44.31.63.3.2.96.2.71 0 1.15-.32T4.28.8q.3-.72.61-2.2h-.08q-.58.78-1.06 1.13A1.7 1.7 0 0 1 2.7.1q-.64 0-1-.48a2.3 2.3 0 0 1-.34-1.38q0-.99.39-1.92.39-.91 1.08-1.47a2.5 2.5 0 0 1 2.26-.45q.33.08.66.3l.53-.4.38.1-.6 2.74-.3 1.43Q5.54-.2 5.39.31T5 1.23a2.6 2.6 0 0 1-1.42 1.22q-.5.17-1.19.17-2.22 0-2.22-1.3 0-.32.2-.59t.65-.56ZM3.13-.6q.29 0 .59-.21t.62-.64q.35-.45.54-.86.18-.4.3-1 .15-.6.15-1.05t-.2-.67q-.19-.2-.65-.2-.6 0-1.07.48t-.75 1.31a5 5 0 0 0-.27 1.63q0 .6.17.9.19.3.56.3m0 0"/>
    <path id="c" d="M6.94-5.3q-.75.99-1.72 2.4-.14 1.15-.14 1.6 0 .38.08.55t.3.17q.15 0 .37-.14.2-.14.45-.42l.33.31q-.48.54-.86.74-.36.18-.73.18-.8 0-.79-1.14 0-.24.04-.54H4.2q-.6.88-1.14 1.3-.53.38-1.15.38-.43 0-.72-.25Q.89-.4.75-.8q-.14-.4-.14-.88 0-1.05.39-2 .4-.93 1.1-1.47a2.6 2.6 0 0 1 1.62-.54q.65 0 1.01.42.38.4.43 1.2l.04-.01.78-1.52h1ZM4.39-2.84q.1-.62.1-1.08-.01-.68-.2-.99-.2-.32-.62-.32-.53 0-1 .48t-.75 1.31q-.27.82-.26 1.67 0 .6.17.88t.53.28q.5 0 1.03-.58.53-.6 1-1.65m0 0"/>
    <path id="f" d="M4.06-.87h-.03q-.2.32-.44.53-.21.19-.56.3-.33.14-.8.13-.45 0-.82-.2A1.5 1.5 0 0 1 .8-.73 2 2 0 0 1 .56-1.8q0-1.05.67-2.1a6 6 0 0 1 1.94-1.8l.3.4a5.5 5.5 0 0 0-1.4 1.64q-.5.9-.5 1.9 0 .67.26 1.03.24.36.72.36.43 0 .73-.35.3-.36.45-1.03l.49-2.22h.98l-.45 2.02q-.08.36-.08.65 0 .48.2.7t.58.22q.48.01.86-.34.37-.36.58-1.03a5.3 5.3 0 0 0 .06-2.69q-.15-.56-.4-.92l.39-.34q.6.56.89 1.23t.3 1.42q0 .86-.35 1.6-.34.72-.97 1.14-.63.4-1.42.4-.97 0-1.33-.96m0 0"/>
    <path id="d" d="M.4-.28a1 1 0 0 0 .33-.13 1 1 0 0 0 .2-.22q.07-.13.13-.34l.19-.78 1-4.52q.13-.58.13-.93 0-.3-.15-.38a1 1 0 0 0-.42-.14L1.87-8h2.35l-.06.28q-.24.05-.33.11a1 1 0 0 0-.17.19q-.08.11-.16.36t-.2.81L2.05-.55h1.43q.4 0 .61-.06.23-.07.44-.28.2-.2.4-.55.18-.33.38-.86h.58L5.3 0H.34Zm0 0"/>
    <path id="i" d="m2.02-6.73.1-.49q.04-.18.04-.34t-.08-.27a.3.3 0 0 0-.19-.12 2 2 0 0 0-.42-.07l.08-.3 1.47-.05h.34L1.92-1.9q-.12.58-.12.86 0 .24.07.34.08.12.24.11.17 0 .37-.14t.57-.55l.33.33q-.57.6-.93.82t-.8.21a.8.8 0 0 1-.62-.28 1 1 0 0 1-.22-.7q0-.4.16-1.14Zm0 0"/>
    <path id="j" d="M2.1.1a.5.5 0 0 1-.3-.1 1 1 0 0 1-.2-.22q-.05-.15-.08-.36-.04-.21-.04-.48 0-.33.05-.7l.11-.77.24-1.63.04-.26.02-.19a1 1 0 0 0-.06-.3.2.2 0 0 0-.2-.12.5.5 0 0 0-.24.08q-.13.06-.27.17l-.25.22-.23.22-.28-.33a7 7 0 0 1 .8-.69q.25-.15.5-.25t.52-.1q.23 0 .36.08.15.07.22.2a1 1 0 0 1 .14.54l-.01.16-.02.14-.33 2.12-.09.66a5 5 0 0 0 0 .97q.03.14.1.14.2 0 .5-.16.3-.15.6-.42a5.3 5.3 0 0 0 1.66-2.36q.15-.48.16-.97 0-.21-.1-.33-.08-.1-.28-.1-.23 0-.45.18-.21.2-.42.5l-.35-.3a2.5 2.5 0 0 1 1.17-.96q.23-.1.46-.1.42 0 .6.22.2.22.2.58 0 .28-.12.65-.09.37-.28.77a8 8 0 0 1-.98 1.66q-.3.38-.64.75-.35.36-.72.62-.37.25-.77.4Q2.47.1 2.1.1m0 0"/>
    <path id="e" d="M2.58-4.1q.54-.82 1.08-1.21.52-.4 1.07-.4.57 0 .85.34.3.3.3.92v.17q.5-.72 1-1.06.49-.36 1.04-.36.53 0 .83.3.3.32.3.88 0 .38-.18 1.05l-.39 1.55q-.15.63-.15.89 0 .24.08.34.07.12.25.11a.6.6 0 0 0 .36-.14q.2-.15.57-.55l.33.33a5 5 0 0 1-.87.78Q8.67.1 8.19.1a.8.8 0 0 1-.61-.26 1 1 0 0 1-.24-.7q0-.38.2-1.13l.26-1q.14-.55.18-.81.05-.27.05-.44 0-.4-.14-.58-.13-.18-.44-.19a1 1 0 0 0-.53.2 3 3 0 0 0-.6.57q-.3.4-.5.77t-.3.92L4.98 0H3.97l.67-2.98.17-.8q.05-.27.05-.45 0-.43-.16-.6-.15-.18-.47-.19a1 1 0 0 0-.5.2q-.28.18-.6.59-.33.4-.52.78-.18.38-.3.92L1.77 0H.75l.84-3.72q.15-.56.14-.86a.6.6 0 0 0-.07-.34q-.09-.1-.25-.11a.6.6 0 0 0-.38.16q-.2.14-.56.53l-.33-.33q.51-.53.9-.78.36-.25.8-.25.38 0 .58.25.22.23.22.62 0 .33-.12.69Zm0 0"/>
    <path id="h" d="M2.6-4.19q.57-.78 1.1-1.14.52-.37 1.08-.37.42 0 .72.08l-.28 1.3H4.6a1 1 0 0 0-.1-.37q-.06-.14-.15-.18a.4.4 0 0 0-.22-.07q-.22 0-.47.19-.25.17-.56.56-.3.39-.48.75-.2.34-.32.9L1.77 0H.75l.84-3.72a5 5 0 0 0 .13-.86.6.6 0 0 0-.08-.34q-.06-.1-.23-.11a.7.7 0 0 0-.4.16q-.18.14-.54.53l-.33-.33q.53-.56.9-.8.36-.24.8-.23.36 0 .58.25.22.23.22.62 0 .3-.1.61Zm0 0"/>
  </defs>
  <path d="m260.62 270.91 107.79 20.67-.14.73-107.79-20.66Zm-.07.37 3.36 3.7-9.25-4.83 10.38-1.06Zm107.79 20.66-3.36-3.7 9.24 4.83-10.36 1.07Zm0 0"/>
  <path fill="none" stroke="#000" stroke-linejoin="round" stroke-miterlimit="10" stroke-width="1.99772" d="m106.93 216.02 352.14 72.26"/>
  <path d="M117.02 238.27v27.3h-1.25v-27.3Zm-.62 27.3 3-3.99-3 9.99-3-9.99ZM148.84 248.02l102.62 20.71-.15.74-102.62-20.72Zm-.08.37 3.33 3.72-9.2-4.91 10.38-.96Zm102.62 20.71-3.31-3.72 9.2 4.91-10.4.96Zm0 0"/>
  <path fill="none" stroke="#000" stroke-dasharray="5.99316 4.49487" stroke-linejoin="round" stroke-miterlimit="10" stroke-width="1.49829" d="M106.93 288.28h352.14"/>
  <path fill="none" stroke="#000" stroke-linejoin="round" stroke-miterlimit="10" stroke-width=".749145" d="M399.23 287.98c-.19-3.95 1-7.87 3.4-11.18M379.37 271.57l-5.57 28.82"/>
  <use xlink:href="#a" x="124.44" y="255.92"/>
  <use xlink:href="#b" x="127.19" y="255.92"/>
  <use xlink:href="#c" x="387.35" y="283.85"/>
  <use xlink:href="#d" x="194.95" y="253.76"/>
  <use xlink:href="#e" x="420.46" y="242.94"/>
  <path fill="none" stroke="#000" stroke-linejoin="round" stroke-miterlimit="10" stroke-width="1.99772" d="M357.77 245.05c0-14.84 12.32-26.87 27.51-26.87s27.52 12.03 27.52 26.87c0 14.83-12.32 26.87-27.52 26.87s-27.51-12.04-27.51-26.87Zm0 0"/>
  <path d="m388.44 206.73.19.02 2.07.23 2.06.34 2.04.43 2 .52 1.99.61 1.93.7 1.9.8 1.88.88 1.8.96 1.78 1.05 1.72 1.12 1.66 1.22 1.6 1.3 1.55 1.36-.5.56-1.51-1.34-1.58-1.27-1.63-1.2-1.69-1.1-1.74-1.03-1.78-.96-1.84-.86-1.87-.78-1.9-.69-1.94-.6-1.98-.52-2-.42-2.02-.34-2.06-.24h-.18Zm-.02.38 1.85 3.08-5.85-3.28 6.12-2.71Zm0 0"/>
  <use xlink:href="#f" x="402.93" y="205.43"/>
  <use xlink:href="#g" x="411.71" y="207.82"/>
  <path d="m386.6 243.01 16.97 13.95-.48.58-16.96-13.95Zm16.73 14.24-1.19-4.85 5.81 8.66-9.61-4.03Zm0 0"/>
  <use xlink:href="#h" x="398.02" y="249.54"/>
  <path fill="none" stroke="#000" stroke-dasharray="7.99088 5.99316" stroke-linejoin="round" stroke-miterlimit="10" stroke-width="1.99772" d="M238.2 220.36c0-14.84 12.32-26.87 27.5-26.87s27.48 12.03 27.48 26.87c0 14.83-12.3 26.86-27.48 26.86s-27.5-12.03-27.5-26.86ZM123.4 197.4c0-14.84 12.3-26.86 27.49-26.86s27.48 12.02 27.48 26.85c0 14.85-12.3 26.88-27.48 26.88s-27.5-12.03-27.5-26.88Zm0 0"/>
  <path fill="none" stroke="#000" stroke-linejoin="round" stroke-miterlimit="10" stroke-width=".749145" d="M260.64 247.2 255.1 276M145.83 223.82l-5.54 28.8"/>
  <use xlink:href="#i" x="313.87" y="277.37"/>
  <path d="m264.94 221.93-45.27-11.06.18-.73 45.27 11.06Zm-45.18-11.42 3.17 3.86-9-5.29 10.43-.54Zm0 0"/>
  <use xlink:href="#j" x="224.55" y="203.51"/>
  <use xlink:href="#b" x="226.59" y="203.51"/>
  <use xlink:href="#k" x="230.31" y="205.91"/>
  <use xlink:href="#l" x="234.38" y="205.91"/>
</svg>
