<svg xmlns="http://www.w3.org/2000/svg" xmlns:xlink="http://www.w3.org/1999/xlink" width="150" height="450" viewBox="0 0 150 450">
  <defs>
    <path id="b" d="M4.1-.94q.3 0 .48-.03.16-.04.28-.12a1 1 0 0 0 .17-.2q.06-.15.16-.43h.48L5.57 0H.76v-.28q.26-.6.69-1.25.42-.66 1.22-1.53.67-.75.96-1.14.33-.42.49-.72a2.4 2.4 0 0 0 .31-1.13q0-.45-.14-.78t-.44-.53a1.3 1.3 0 0 0-.71-.19Q2-7.55 1.64-6.33h-.7v-1.12a6 6 0 0 1 2.44-.64q1.07 0 1.64.48.56.46.56 1.38 0 .3-.06.57-.07.28-.2.52-.14.25-.37.55T4.47-4l-.92 1Q2.42-1.8 1.9-.94Zm0 0"/>
    <path id="f" d="M4.42-7.83 2.95-6.56l-.3-.36.93-.81H0v-.55h3.58l-.94-.81.31-.36 1.47 1.28Zm0 0"/>
    <path id="a" d="M2.58-4.1q.54-.82 1.08-1.21.52-.4 1.07-.4.57 0 .85.34.3.3.3.92v.17q.5-.72 1-1.06.49-.36 1.04-.36.53 0 .83.3.3.32.3.88 0 .38-.18 1.05l-.39 1.55q-.15.63-.15.89 0 .24.08.34.07.12.25.11a.6.6 0 0 0 .36-.14q.2-.15.57-.55l.33.33a5 5 0 0 1-.87.78Q8.67.1 8.19.1a.8.8 0 0 1-.61-.26 1 1 0 0 1-.24-.7q0-.38.2-1.13l.26-1q.14-.55.18-.81.05-.27.05-.44 0-.4-.14-.58-.13-.18-.44-.19a1 1 0 0 0-.53.2 3 3 0 0 0-.6.57q-.3.4-.5.77t-.3.92L4.98 0H3.97l.67-2.98.17-.8q.05-.27.05-.45 0-.43-.16-.6-.15-.18-.47-.19a1 1 0 0 0-.5.2q-.28.18-.6.59-.33.4-.52.78-.18.38-.3.92L1.77 0H.75l.84-3.72q.15-.56.14-.86a.6.6 0 0 0-.07-.34q-.09-.1-.25-.11a.6.6 0 0 0-.38.16q-.2.14-.56.53l-.33-.33q.51-.53.9-.78.36-.25.8-.25.38 0 .58.25.22.23.22.62 0 .33-.12.69Zm0 0"/>
    <path id="c" d="M4.1-1.5q-.55.83-1.07 1.22-.5.37-1.06.37-.64 0-1-.48A2.3 2.3 0 0 1 .6-1.77q0-.99.39-1.92a3.6 3.6 0 0 1 1.1-1.47 2.5 2.5 0 0 1 2.2-.46q.3.06.62.25l.3-1.36a5 5 0 0 0 .12-.83q0-.17-.07-.27a.3.3 0 0 0-.2-.12 2 2 0 0 0-.41-.07l.07-.3 1.47-.05h.35L5.09-1.9q-.14.58-.14.86 0 .24.08.34.07.12.25.11a.6.6 0 0 0 .36-.14q.2-.15.58-.55l.33.33q-.55.57-.92.8t-.79.23a.8.8 0 0 1-.57-.23 1 1 0 0 1-.22-.64q0-.33.12-.69Zm.4-2.06q.08-.42.08-.8 0-.46-.19-.67-.18-.2-.64-.2-.6 0-1.08.48-.46.48-.75 1.31a5 5 0 0 0-.26 1.63q0 .6.15.9.17.3.56.3.19 0 .38-.08t.4-.25q.19-.17.38-.42a7 7 0 0 0 .67-1.1q.14-.37.24-.85Zm0 0"/>
    <path id="d" d="M6.94-5.3q-.75.99-1.72 2.4-.14 1.15-.14 1.6 0 .38.08.55t.3.17q.15 0 .37-.14.2-.14.45-.42l.33.31q-.48.54-.86.74-.36.18-.73.18-.8 0-.79-1.14 0-.24.04-.54H4.2q-.6.88-1.14 1.3-.53.38-1.15.38-.43 0-.72-.25Q.89-.4.75-.8q-.14-.4-.14-.88 0-1.05.39-2 .4-.93 1.1-1.47a2.6 2.6 0 0 1 1.62-.54q.65 0 1.01.42.38.4.43 1.2l.04-.01.78-1.52h1ZM4.39-2.84q.1-.62.1-1.08-.01-.68-.2-.99-.2-.32-.62-.32-.53 0-1 .48t-.75 1.31q-.27.82-.26 1.67 0 .6.17.88t.53.28q.5 0 1.03-.58.53-.6 1-1.65m0 0"/>
    <path id="e" d="M1.44.5q-.12.14-.19.27a1.03 1.03 0 0 0-.14.55q0 .44.31.63.3.2.96.2.71 0 1.15-.32T4.28.8q.3-.72.61-2.2h-.08q-.58.78-1.06 1.13A1.7 1.7 0 0 1 2.7.1q-.64 0-1-.48a2.3 2.3 0 0 1-.34-1.38q0-.99.39-1.92.39-.91 1.08-1.47a2.5 2.5 0 0 1 2.26-.45q.33.08.66.3l.53-.4.38.1-.6 2.74-.3 1.43Q5.54-.2 5.39.31T5 1.23a2.6 2.6 0 0 1-1.42 1.22q-.5.17-1.19.17-2.22 0-2.22-1.3 0-.32.2-.59t.65-.56ZM3.13-.6q.29 0 .59-.21t.62-.64q.35-.45.54-.86.18-.4.3-1 .15-.6.15-1.05t-.2-.67q-.19-.2-.65-.2-.6 0-1.07.48t-.75 1.31a5 5 0 0 0-.27 1.63q0 .6.17.9.19.3.56.3m0 0"/>
  </defs>
  <path fill="none" stroke="#000" stroke-linejoin="round" stroke-miterlimit="10" stroke-width="1.99772" d="M31.53 189.3a2.19 2.19 0 1 1 4.38 0 2.19 2.19 0 0 1-4.38 0Zm0 0"/>
  <path fill="none" stroke="#000" stroke-linejoin="round" stroke-miterlimit="10" stroke-width=".99886" d="m31.06 189.45.58 196.76M137.53 188.52l.56 196.75M33.4 186.97l50.02-.32"/>
  <path fill="none" stroke="#000" stroke-dasharray="1.99772 1.49829" stroke-linejoin="round" stroke-miterlimit="10" stroke-width=".49943" d="m83.83 186.65.57 196.75"/>
  <path fill="none" stroke="#000" stroke-linejoin="round" stroke-miterlimit="10" stroke-width=".99886" d="m84.3 186.5 50.02-.31"/>
  <path fill="none" stroke="#000" stroke-linejoin="round" stroke-miterlimit="10" stroke-width="1.99772" d="M132.4 188.84a2.19 2.19 0 1 1 4.36 0 2.19 2.19 0 0 1-4.37 0Zm0 0"/>
  <path fill-rule="evenodd" stroke="#000" stroke-linejoin="round" stroke-miterlimit="10" stroke-width="1.99772" d="M81.96 186.5a2.19 2.19 0 1 1 4.37 0 2.19 2.19 0 0 1-4.37 0ZM29.66 388.7a2.19 2.19 0 1 1 4.37 0 2.19 2.19 0 0 1-4.37 0ZM135.66 387.77a2.19 2.19 0 1 1 4.37 0 2.19 2.19 0 0 1-4.37 0Zm0 0"/>
  <use xlink:href="#a" x="37.84" y="390.52"/>
  <use xlink:href="#a" x="88.18" y="200.15"/>
  <path fill="none" stroke="#000" stroke-dasharray="3.99544 2.99658" stroke-linejoin="round" stroke-miterlimit="10" stroke-width=".99886" d="m36.2 188.98 48.05 119.11M132.31 187.59 84.3 307.06"/>
  <use xlink:href="#b" x="76.08" y="170.55"/>
  <use xlink:href="#c" x="82.67" y="170.55"/>
  <use xlink:href="#glyph-0-1" x="90.1" y="170.55"/>
  <path fill="#a6a6a6" fill-rule="evenodd" stroke="#a6a6a6" stroke-linejoin="round" stroke-miterlimit="10" stroke-width="1.99772" d="M81.96 307.45a2.19 2.19 0 1 1 4.37 0 2.19 2.19 0 0 1-4.37 0Zm0 0"/>
  <path fill="none" stroke="#000" stroke-linejoin="round" stroke-miterlimit="10" stroke-width=".749145" d="M77.4 288.45a10.2 10.2 0 0 1 7.29-1.87"/>
  <use xlink:href="#a" x="121.62" y="389.81"/>
  <use xlink:href="#glyph-0-1" x="131.95" y="389.81"/>
  <use xlink:href="#d" x="75.48" y="277.49"/>
  <use xlink:href="#glyph-0-1" x="83.03" y="277.49"/>
  <use xlink:href="#e" x="54.86" y="315.49"/>
  <use xlink:href="#f" x="57.62" y="315.49"/>
  <use xlink:href="#glyph-0-1" x="62.41" y="315.49"/>
  <path d="M50.57 300.08v27.3h-1.24v-27.3Zm-.61 27.3 3-3.99-3 9.99-3-9.99ZM41.35 178.46l85.39-.8v-.74l-85.4.79Zm0-.38 3.96-3.03-9.96 3.09 10.02 2.9Zm85.39-.8-3.97 3.04 9.96-3.08-10.02-2.9Zm0 0"/>
</svg>
