<svg xmlns="http://www.w3.org/2000/svg" xmlns:xlink="http://www.w3.org/1999/xlink" width="841.89" height="595.28" viewBox="0 0 841.89 595.28">
  <defs>
    <clipPath id="b">
      <path d="M84 .48h36V31H84Zm0 0"/>
    </clipPath>
    <clipPath id="c">
      <path d="M62 .48h37V32H62Zm0 0"/>
    </clipPath>
    <clipPath id="d">
      <path d="M65 .48h50V38H65Zm0 0"/>
    </clipPath>
    <clipPath id="e">
      <path d="M105 57h22.25v2H105Zm0 0"/>
    </clipPath>
    <clipPath id="f">
      <path d="M40 67h41v26.4H40Zm0 0"/>
    </clipPath>
    <clipPath id="g">
      <path d="M65 81h2v12.4h-2Zm0 0"/>
    </clipPath>
    <clipPath id="a">
      <path d="M0 0h128v94H0z"/>
    </clipPath>
    <g id="h" clip-path="url(#a)">
      <path fill="none" stroke="#999" stroke-miterlimit="10" stroke-width="3.71" d="M76.91 2.87h19.65"/>
      <path d="M91.11 48.31q0-.06-.03-.1l-.08-.03h-.05q-.1-.01-.13.04l-.1.2q-.12.38-.3.78t-.47.74q-.27.33-.72.55-.43.2-1.08.22h-.9L87 50.7q-.06-.01-.09-.04v-.06l.01-.13.03-.12 1.51-6.06q.03-.15.08-.24a.4.4 0 0 1 .16-.16q.1-.05.3-.08t.53-.02h.11q.15 0 .23-.03t.08-.19q0-.1-.06-.11l-.1-.02-.77.02-.77.02-.69-.02-.68-.02h-.08l-.1.06a.2.2 0 0 0-.03.15q0 .1.07.12t.23.02h.32q.14.02.23.05.1.04.1.14l-.01.06-.04.15-1.5 6.05a1 1 0 0 1-.11.3q-.07.09-.25.13t-.56.04q-.13 0-.22.02-.07.04-.08.19 0 .09.08.12l.2.01h4.95q.06-.02.08-.06l.06-.14.85-2.4Zm0 0"/>
      <path fill="none" stroke="#000" stroke-miterlimit="10" stroke-width="1.05" d="M73.47 23.13a5.28 5.28 0 0 1 0 10.53m0 0a5.27 5.27 0 0 1 0 10.54m0 0a5.27 5.27 0 0 1 0 10.52m0 0a5.28 5.28 0 0 1 0 10.53"/>
      <path fill="#fff" fill-rule="evenodd" d="M103.84 12.18a2.64 2.64 0 0 1-4.56 2.63 2.64 2.64 0 0 1 4.56-2.63m0 0"/>
      <g clip-path="url(#b)">
        <path fill="none" stroke="#000" stroke-miterlimit="10" stroke-width="1.05" d="M103.84 12.18a2.64 2.64 0 0 1-4.56 2.63 2.64 2.64 0 0 1 4.56-2.63Zm0 0"/>
      </g>
      <path fill="#fff" fill-rule="evenodd" d="M83.13 13.5a2.64 2.64 0 0 1-5.26 0 2.63 2.63 0 0 1 5.26 0m0 0"/>
      <g clip-path="url(#c)">
        <path fill="none" stroke="#000" stroke-miterlimit="10" stroke-width="1.05" d="M83.13 13.5a2.64 2.64 0 0 1-5.26 0 2.63 2.63 0 0 1 5.26 0Zm0 0"/>
      </g>
      <g clip-path="url(#d)">
        <path fill="none" stroke="#000" stroke-miterlimit="10" stroke-width="1.05" d="M99.28 14.8 80.8 22.14"/>
      </g>
      <path fill="none" stroke="#000" stroke-miterlimit="10" stroke-width="2.11" d="M111.53 52.77h10.53"/>
      <g clip-path="url(#e)">
        <path fill="none" stroke="#000" stroke-miterlimit="10" stroke-width="1.58" d="M127.33 58.04h-21.06"/>
      </g>
      <path d="M110.73 43.56v.37q0 .23-.09.3l-.66.31q-.56.26-1.09.62.2-.3.37-.44t.45-.35q-.24-.1-.68-.1-.68 0-1.46.27-.78.26-1.32.63-.55.38-.55.62 0 .13.17.22.15.08.53.13.36.04.92.06l1.35.02q.59 0 .76.04.16.05.16.2 0 .2-.2.46a.8.8 0 0 1-.52.31l-.8.14a6 6 0 0 0-2.79 1.38q-.42.4-.42.71 0 .27.3.41.3.16.86.16 1.94 0 3.93-1.74.01.53-.11.94-.13.4-.52.77-.33.31-.96.6a7 7 0 0 1-2.76.62q-.76 0-1.26-.36-.49-.37-.5-.97 0-.42.25-.86.24-.43.73-.82.5-.4 1.26-.72.75-.32 1.75-.5.14-.03.14-.1 0-.05-.17-.07l-.6-.02q-.45 0-.79-.04a4 4 0 0 1-.71-.14 1 1 0 0 1-.6-.42q-.2-.3-.2-.66 0-.47.33-.94.34-.48.95-.86.61-.37 1.5-.61a8 8 0 0 1 2.74-.16q.24.06.28.17.03.12.03.42m0 0"/>
      <path fill="none" stroke="#000" stroke-miterlimit="10" stroke-width="1.05" d="M73.47 22.98V13.5h4.05"/>
      <path fill="none" stroke="#000" stroke-miterlimit="10" stroke-width="1.86" d="M82.58 22.79v41.36"/>
      <path fill="none" stroke="#000" stroke-linejoin="bevel" stroke-miterlimit="10" stroke-width=".46" d="M86.54 5.56v1.2l-2.34.6 4.44 1.25-4.44 1.24"/>
      <path fill="none" stroke="#000" stroke-linejoin="bevel" stroke-miterlimit="10" stroke-width=".46" d="m84.2 9.8 4.44 1.24-4.44 1.25"/>
      <path fill="none" stroke="#000" stroke-linejoin="bevel" stroke-miterlimit="10" stroke-width=".46" d="m84.18 12.21 4.44 1.26-4.44 1.24"/>
      <path fill="none" stroke="#000" stroke-linejoin="bevel" stroke-miterlimit="10" stroke-width=".46" d="m84.2 14.65 4.44 1.25-4.44 1.24 1.95.75v1.18"/>
      <path fill="none" stroke="#000" stroke-miterlimit="10" stroke-width=".93" d="M76.91 5.06h19.65"/>
      <path fill="none" stroke="#000" stroke-miterlimit="10" stroke-width="1.05" d="M104.02 13.6h12.8v38.77m.22 5.9v28.82H73.75"/>
      <path d="M103.5 26.4q0-.1-.06-.12l-.14-.02a1 1 0 0 1-.32-.04l-.2-.13a1 1 0 0 1-.15-.26l-1.45-3.87 2.05-1.7q.09-.1.27-.22a4 4 0 0 1 .93-.56q.27-.1.55-.14.07 0 .13-.04.06-.03.07-.17a.1.1 0 0 0-.04-.1l-.09-.03-.37.01a4 4 0 0 1-1 0l-.59-.01h-.08l-.1.06-.03.15q0 .1.06.11.04.03.1.02.11 0 .2.06.08.05.08.17 0 .15-.11.27l-.25.24-3.92 3.26.87-3.55a1 1 0 0 1 .12-.27q.07-.1.25-.14t.52-.04q.17 0 .25-.02.09-.03.08-.18 0-.09-.05-.12l-.1-.02-.66.01a13 13 0 0 1-1.33 0l-.67-.01h-.08l-.1.06-.03.15q0 .1.07.11.07.03.23.02h.32q.15.02.23.06.1.04.1.13v.06l-.05.15-1.5 6.05a1 1 0 0 1-.11.3q-.06.09-.25.14-.17.04-.56.03l-.21.03q-.08.04-.09.19 0 .1.07.11.06.03.09.02l.65-.02.67-.02.67.02.66.02q.07 0 .14-.03t.07-.17q0-.1-.06-.13l-.24-.02q-.3 0-.45-.03t-.17-.06l-.02-.1.02-.14.06-.25.06-.23.4-1.6 1.54-1.29 1.16 3.11.07.22q0 .17-.12.26l-.24.1-.21.01q-.06 0-.14.03-.06.03-.08.17 0 .09.06.12l.1.03.62-.02h1.14l.5.02a.2.2 0 0 0 .14-.04q.05-.06.05-.17m3.79 1.7v-.24h-.24l-.4-.01-.2-.06q-.06-.04-.08-.11l-.01-.17v-4.3q-.02-.05-.06-.05l-.11-.01q-.17.17-.38.27t-.38.14a2 2 0 0 1-.6.06v.23h.24a2 2 0 0 0 .74-.19v3.85l-.02.17a.2.2 0 0 1-.08.1.4.4 0 0 1-.2.07l-.4.01h-.23v.23h.25l.33-.02h1.24l.33.01zm0 0"/>
      <path fill="none" stroke="#000" stroke-miterlimit="10" stroke-width="2.11" d="M25.2 47.71h26.32M25.2 52.98h26.32"/>
      <path d="m56.84 54.96.02-.08v-.1l-.03-.06-.08-.02-.05.01a.3.3 0 0 0-.13.1l-.7.83a2 2 0 0 0-.53-.59 2 2 0 0 0-.58-.28 2 2 0 0 0-.58-.07q-.7 0-1.37.28-.67.27-1.27.77a6 6 0 0 0-1.78 2.53 5 5 0 0 0-.27 1.54q0 .69.21 1.24.22.54.58.94a2.6 2.6 0 0 0 1.94.8q.55 0 1-.18.48-.18.85-.46a4 4 0 0 0 1.14-1.29q.2-.33.3-.6.1-.25.1-.4 0-.07-.06-.09l-.1-.01h-.11q-.06.02-.08.09-.21.69-.56 1.2-.34.5-.75.8t-.81.45a2 2 0 0 1-1.46.02 1.8 1.8 0 0 1-1.05-1.07q-.17-.42-.17-1.01 0-.27.06-.7a8 8 0 0 1 .55-1.98q.23-.52.56-1 .39-.5.83-.85.45-.34.91-.5.46-.18.9-.18t.75.18q.3.18.48.48.2.3.27.65.09.37.09.73l-.02.3q0 .15-.03.25l-.01.13q0 .08.06.1l.1.01q.09 0 .13-.03t.07-.17Zm0 0"/>
      <path fill="none" stroke="#000" stroke-miterlimit="10" stroke-width="1.05" d="M73.22 13.5H19.93m18.43 0v7.73m35.87 44.5V87.2H5.68V55.64m32.68-2.66V87.2"/>
      <path fill="none" stroke="#000" stroke-miterlimit="10" stroke-width="1.05" d="M26.73 13.5H5.67v44.06"/>
      <path fill="#fff" fill-rule="evenodd" d="M55.1 92.51V81.98l10.54 5.27Zm0 0"/>
      <g clip-path="url(#f)">
        <path fill="none" stroke="#000" stroke-miterlimit="10" stroke-width="1.05" d="M55.1 92.51V81.98l10.54 5.27Zm0 0"/>
      </g>
      <g clip-path="url(#g)">
        <path fill="none" stroke="#000" stroke-miterlimit="10" stroke-width="1.05" d="M65.64 92.51V81.98"/>
      </g>
      <path fill="#fff" fill-rule="evenodd" stroke="#000" stroke-miterlimit="10" stroke-width="1.05" d="M1.62 64.37h7.66V37.45H1.62Zm0 0"/>
      <path d="M16.9 33.52q0-.06-.03-.1t-.14-.05-.13.05l-.06.14q-.15.47-.37.73-.24.25-.5.25-.16 0-.24-.09l-.1-.24q-.03-.15-.02-.32 0-.22.02-.43l.08-.74.04-.36.01-.3q-.01-.48-.26-.8a1.5 1.5 0 0 0-.7-.5q.8-.2 1.32-.56.51-.36.77-.78.25-.42.25-.84 0-.45-.27-.82a2 2 0 0 0-.77-.6 3 3 0 0 0-1.2-.23h-2.94q-.13 0-.21.03t-.09.18q0 .1.07.12l.23.02h.32q.15 0 .24.05.09.04.1.13l-.02.07-.03.15-1.5 6.05a1 1 0 0 1-.12.29q-.06.1-.25.14-.18.04-.55.04-.14 0-.22.02-.08.04-.08.19 0 .09.06.12l.1.01.64-.01.65-.02.66.02.66.01.14-.02q.06-.03.08-.18 0-.1-.07-.13l-.24-.01q-.32 0-.45-.03-.14-.03-.17-.07a.1.1 0 0 1-.02-.1v-.06l.04-.15.73-2.93h1.2q.24 0 .48.07.25.07.4.3.15.21.17.6l-.02.16-.05.26-.12.46-.1.42-.07.48q0 .41.2.67t.51.38q.3.13.67.13.28 0 .5-.13.2-.11.35-.3a2 2 0 0 0 .42-.84m-1.06-5.2-.02.22q0 .17-.07.44-.07.26-.2.54t-.35.51a2 2 0 0 1-.67.41q-.41.17-.98.17h-1.13l.72-2.93q.04-.17.09-.24l.08-.1.08-.04.16-.01.24-.01h.25l.58.01q.3.02.59.12.27.09.45.3.18.23.18.61m39.53 6.39q0-.1-.07-.11l-.13-.02q-.2 0-.32-.04l-.2-.13a1 1 0 0 1-.15-.27l-1.46-3.86 2.05-1.7.28-.23a5 5 0 0 1 .92-.55q.27-.1.55-.14l.13-.04q.07-.03.07-.17l-.03-.1q-.03-.03-.1-.04l-.37.02-.4.02-.6-.02-.58-.02-.09.01-.08.06q-.04.05-.04.15t.05.1l.1.03q.12 0 .2.05t.1.17q-.01.16-.13.28-.11.12-.25.23l-3.92 3.27.88-3.55a1 1 0 0 1 .11-.28q.07-.09.25-.13t.52-.04q.17 0 .26-.03t.08-.17q0-.09-.05-.12l-.11-.03-.65.02-.67.02-.67-.02-.66-.02-.09.01-.08.06q-.04.05-.04.15t.07.11q.06.03.23.02h.32q.15.02.23.05.1.05.1.14l-.01.06-.04.15-1.5 6.05a1 1 0 0 1-.11.3q-.07.09-.25.13-.19.04-.56.04-.13 0-.22.03t-.08.18q0 .1.07.12l.09.02.65-.02.66-.02q.34 0 .67.02l.67.02q.06 0 .13-.03t.08-.18q0-.09-.07-.12l-.23-.02q-.31 0-.46-.03-.13-.02-.16-.07l-.03-.09.09-.39.06-.23.39-1.61 1.55-1.28 1.15 3.1.07.23q0 .18-.11.25l-.25.1-.2.02q-.08 0-.14.03t-.08.17q0 .09.05.12l.1.03.63-.02.62-.02.52.02.5.02q.08 0 .13-.05t.06-.17m4 .41h-.18l-.05.24-.05.25-.07.17q-.02.02-.1.04l-.2.01-.23.01h-1.51l.79-.77.74-.66q.3-.3.5-.53.18-.23.28-.47.09-.23.08-.5a1.4 1.4 0 0 0-.76-1.26q-.34-.19-.81-.19a1.4 1.4 0 0 0-1.01.43q-.18.2-.28.43-.1.24-.1.49 0 .15.06.24t.13.12.13.05h.07q.07 0 .16-.03a.4.4 0 0 0 .16-.12.4.4 0 0 0 .07-.24.4.4 0 0 0-.05-.19.4.4 0 0 0-.13-.14.4.4 0 0 0-.21-.05h-.1q.09-.24.24-.41t.35-.26.41-.09q.26 0 .44.1.2.11.31.28.13.17.19.39a1.7 1.7 0 0 1-.05 1.03q-.12.3-.29.56-.18.27-.38.5l-1.43 1.59-.06.06-.02.08v.13h2.75Zm0 0"/>
      <path fill="#fff" fill-rule="evenodd" stroke="#000" stroke-miterlimit="10" stroke-width="1.05" d="M40.82 22.9a2.63 2.63 0 1 1-4.56 2.63 2.63 2.63 0 0 1 4.56-2.63Zm0 0"/>
      <path fill="none" stroke="#000" stroke-miterlimit="10" stroke-width="1.05" d="M38.36 39.57v7.73"/>
      <path fill="#fff" fill-rule="evenodd" stroke="#000" stroke-miterlimit="10" stroke-width="1.05" d="M40.82 36.68a2.64 2.64 0 0 1-4.55 2.64 2.64 2.64 0 0 1 4.55-2.64Zm0 0"/>
      <path fill="none" stroke="#000" stroke-miterlimit="10" stroke-width="1.05" d="M49.17 24.16 40.1 36.28"/>
      <path d="M66.05 73.34q0-.8-.29-1.41a2 2 0 0 0-.8-.97 2.3 2.3 0 0 0-1.25-.35h-3.48q-.13 0-.21.03-.09.03-.09.18 0 .1.07.12l.23.02h.32q.15 0 .24.05t.09.14v.06l-.04.15-1.5 6.05a1 1 0 0 1-.12.29q-.07.1-.25.14t-.55.04q-.15 0-.22.03-.09.03-.08.18 0 .09.07.12l.2.01h3.43q.63 0 1.25-.26.6-.27 1.15-.73a5.6 5.6 0 0 0 1.6-2.42q.23-.7.23-1.47m-.92-.42-.04.54a10 10 0 0 1-.38 1.67q-.15.45-.36.88t-.5.76q-.27.32-.62.57t-.75.4-.85.14h-1.15l-.24-.01q-.07-.01-.1-.04v-.06l.01-.13.03-.12 1.53-6.16a1 1 0 0 1 .11-.28q.07-.1.16-.1.1-.03.28-.02h1.08q.35 0 .66.1t.57.33.4.6q.16.38.16.93m0 0"/>
    </g>
  </defs>
  <use xlink:href="#h" transform="translate(59 102)"/>
</svg>
