<svg xmlns="http://www.w3.org/2000/svg" xmlns:xlink="http://www.w3.org/1999/xlink" width="595.32" height="841.92" viewBox="0 0 595.32 841.92">
  <defs>
    <path id="c" d="M4.06-.87h-.03q-.2.32-.44.53-.21.19-.56.3-.33.14-.8.13-.45 0-.82-.2A1.5 1.5 0 0 1 .8-.73 2 2 0 0 1 .56-1.8q0-1.05.67-2.1a6 6 0 0 1 1.94-1.8l.3.4a6 6 0 0 0-1.4 1.64q-.5.9-.5 1.9 0 .67.26 1.03.24.36.72.36.43 0 .73-.35.3-.36.45-1.03l.49-2.22h.98l-.45 2.02q-.08.36-.08.65 0 .48.2.7t.58.22q.48.01.86-.34.37-.36.58-1.03a5.3 5.3 0 0 0 .06-2.69q-.15-.56-.4-.92l.39-.34q.6.56.89 1.23t.3 1.42q0 .86-.35 1.6-.34.72-.97 1.14-.63.4-1.42.4-.97 0-1.33-.96m0 0"/>
    <path id="a" d="M4.1-1.5q-.55.83-1.07 1.22-.5.37-1.06.37-.64 0-1-.48A2.3 2.3 0 0 1 .6-1.77q0-.99.39-1.92a3.6 3.6 0 0 1 1.1-1.47 2.5 2.5 0 0 1 2.2-.46q.3.06.62.25l.3-1.36a5 5 0 0 0 .12-.83q0-.17-.07-.27a.3.3 0 0 0-.2-.12 2 2 0 0 0-.41-.07l.07-.3 1.47-.05h.35L5.09-1.9q-.14.58-.14.86 0 .24.08.34.07.12.25.11a.6.6 0 0 0 .36-.14q.2-.15.58-.55l.33.33q-.55.57-.92.8t-.79.23a.8.8 0 0 1-.57-.23 1 1 0 0 1-.22-.64q0-.33.12-.69Zm.4-2.06q.08-.42.08-.8 0-.46-.19-.67-.18-.2-.64-.2-.6 0-1.08.48-.46.48-.75 1.31a5 5 0 0 0-.26 1.63q0 .6.15.9.17.3.56.3.19 0 .38-.08t.4-.25q.19-.17.38-.42a7 7 0 0 0 .67-1.1q.14-.37.24-.85Zm0 0"/>
    <path id="b" d="M1.45-.28.92.09.55 0l1.51-6.7q.13-.6.13-.86 0-.25-.16-.35Q1.88-8 1.5-8l.08-.32 1.48-.04h.35L2.37-4.28l.07.03q.57-.76 1.08-1.1.5-.35.98-.35.64 0 1 .5.36.48.36 1.36 0 .97-.4 1.9A3.6 3.6 0 0 1 4.39-.45q-.7.54-1.54.54a2.6 2.6 0 0 1-1.39-.37m.52-1.77q-.1.42-.1.8 0 .47.2.67t.68.2q.25 0 .45-.07.23-.08.44-.25.23-.2.44-.49a4 4 0 0 0 .64-1.65q.1-.5.1-.96 0-.6-.18-.9a.6.6 0 0 0-.56-.32 1 1 0 0 0-.55.2q-.27.15-.6.59-.34.4-.56.84-.2.44-.35 1.1Zm0 0"/>
  </defs>
  <path fill="none" stroke="#000" stroke-linejoin="round" stroke-miterlimit="10" stroke-width="2" d="M456.4 301.89c0-17.18 13.21-31.12 29.53-31.12 16.3 0 29.53 13.94 29.53 31.12 0 17.19-13.23 31.12-29.53 31.12-16.32 0-29.54-13.93-29.54-31.12Zm0 0"/>
  <path fill="none" stroke="#000" stroke-linejoin="round" stroke-miterlimit="10" stroke-width="1.75" d="m467.23 288.63 20.63-85.51"/>
  <path fill="none" stroke="#000" stroke-dasharray="2.99658 2.247435" stroke-linejoin="round" stroke-miterlimit="10" stroke-width=".75" d="m488.88 204.2-2.47 99.59"/>
  <path d="m472.32 291.74 11.17 9.69-.49.57-11.17-9.7Zm-1.45 3.2-2.57-6.2 6.5 1.67Zm13.59 3.85 2.56 6.2-6.5-1.68Zm-6.25-90.83-19.05 73.58.72.18 19.05-73.57Zm3 1.82-1.39-6.55-4.4 5.04Zm-24.34 70.13 1.4 6.55 4.4-5.05Zm0 0"/>
  <path fill="none" stroke="#1c334e" stroke-linejoin="round" stroke-miterlimit="10" stroke-width="2" d="M472.64 203.12h31.5v-16.24h-31.5Zm0 0"/>
  <path d="m486.68 290.97 1.24.07 1.23.19 1.2.3 1.15.44 1.08.54 1.03.63.96.75.88.81.8.91.72 1 .63 1.05.04.09.28 1.08-.73.19-.28-1.07.04.09-.59-1-.66-.93-.77-.86-.82-.78-.9-.7-.96-.6-1.02-.5-1.07-.4-1.13-.3-1.15-.2-1.24-.05Zm13.55 6.28-1.5 6.52-4.32-5.12Zm0 0"/>
  <use xlink:href="#a" x="459.3" y="239.59"/>
  <use xlink:href="#b" x="469" y="309.38"/>
  <use xlink:href="#c" x="496.93" y="293.8"/>
</svg>
