<svg xmlns="http://www.w3.org/2000/svg" xmlns:xlink="http://www.w3.org/1999/xlink" width="250" height="400" viewBox="0 0 250 400">
  <defs>
    <path id="b" d="M2.78-8v.28q-.27.05-.4.13-.15.05-.22.2a1 1 0 0 0-.07.34q0 .2.05.44l.13.52 1.37 4.78 1.69-4.83.06-.24.06-.23.03-.2.02-.17q0-.35-.17-.5-.16-.18-.55-.24V-8h2.47v.28q-.24.06-.4.17-.13.12-.29.36-.14.25-.34.78L3.8.1h-.77L1.05-6.44Q.9-6.96.77-7.19a1 1 0 0 0-.25-.34 1 1 0 0 0-.4-.19V-8Zm0 0"/>
  </defs>
  <path fill="none" stroke="#000" stroke-linejoin="round" stroke-miterlimit="10" d="M61.93 89.64h62.13m55.89 0h-56.4"/>
  <path d="M123.41 149.17V89.34h1v59.83Zm2.5 0a2 2 0 0 1-4 0 2 2 0 0 1 4 0m-4-59.83a2 2 0 1 1 2 2 2 2 0 0 1-2-2m0 0"/>
  <path fill="#fff" fill-rule="evenodd" stroke="#000" stroke-linecap="round" stroke-miterlimit="8" d="M119.81 131.29h8.1v-24.87h-8.1ZM85.15 93.48h24.87V85.4H85.15Zm54.39.1h24.87V85.5h-24.87Zm0 0"/>
  <path d="M231.64 149.57V89.79h1v59.78Zm-1.5-59.78c0-1.1.9-2 2-2a2 2 0 1 1-2 2m0 0"/>
  <path fill="#fff" fill-rule="evenodd" stroke="#000" stroke-linecap="round" stroke-miterlimit="8" d="M228.04 131.2h8.09v-24.88h-8.1Zm0 0"/>
  <path d="M179.64 149.17V89.4h1v59.78Zm2.5 0a2 2 0 0 1-2 2 2 2 0 0 1 0-4 2 2 0 0 1 2 2m-4-59.78a2 2 0 1 1 2 2 2 2 0 0 1-2-2m0 0"/>
  <path fill="#fff" fill-rule="evenodd" stroke="#000" stroke-linecap="round" stroke-miterlimit="8" d="M176.05 131.29h8.1v-24.82h-8.1Zm0 0"/>
  <path d="M71.52 149.47V89.64h1v59.83Zm-1.5-59.83a2 2 0 1 1 4 0 2 2 0 0 1-4 0m0 0"/>
  <path fill="none" stroke="#000" stroke-linejoin="round" stroke-miterlimit="8" d="M244.12 89.64H179.9"/>
  <path fill="#fff" fill-rule="evenodd" stroke="#000" stroke-linecap="round" stroke-miterlimit="8" d="M194.03 93.58h24.82V85.5h-24.82Zm0 0"/>
  <path fill="none" stroke="#000" stroke-linejoin="round" stroke-miterlimit="8" d="m72.02 149.27 160.12-.05"/>
  <path fill="#fff" fill-rule="evenodd" stroke="#000" stroke-linecap="round" stroke-linejoin="round" stroke-miterlimit="8" d="M97.79 139.78c-4.72 0-8.54 4.07-8.54 9.1 0 5.01 3.82 9.08 8.54 9.08s8.54-4.07 8.54-9.09-3.83-9.09-8.54-9.09m0 0"/>
  <use xlink:href="#b" x="94.6" y="153.41"/>
  <use xlink:href="#a" x="101.78" y="153.41"/>
  <path fill="none" stroke="#000" stroke-linejoin="round" stroke-miterlimit="8" d="M62.03 178.54h62.13m55.88 0h-56.38"/>
  <path d="M123.5 238.07v-59.83h1v59.83Zm2.5 0a2 2 0 1 1-2-2 2 2 0 0 1 2 2m-3.99-59.83a2 2 0 0 1 4 0 2 2 0 0 1-4 0m0 0"/>
  <path fill="#fff" fill-rule="evenodd" stroke="#000" stroke-linecap="round" stroke-miterlimit="8" d="M119.91 220.19h8.1v-24.87h-8.1Zm-34.66-37.81h24.87v-8.09H85.25Zm54.39.1h24.87v-8.09h-24.87Zm0 0"/>
  <path d="M231.73 238.47v-59.78h1v59.78Zm-1.5-59.78c0-1.1.9-2 2-2a2 2 0 0 1 2 2 2 2 0 0 1-4 0m0 0"/>
  <path fill="#fff" fill-rule="evenodd" stroke="#000" stroke-linecap="round" stroke-miterlimit="8" d="M228.14 220.09h8.09v-24.87h-8.09Zm0 0"/>
  <path d="M179.75 238.07v-59.78h1v59.78Zm2.5 0a2 2 0 0 1-4 0 2 2 0 0 1 4 0m-4-59.78a2 2 0 0 1 4 0 2 2 0 0 1-4 0m0 0"/>
  <path fill="#fff" fill-rule="evenodd" stroke="#000" stroke-linecap="round" stroke-miterlimit="8" d="M176.15 220.19h8.09v-24.82h-8.1Zm0 0"/>
  <path d="M71.62 238.37v-59.83h1v59.83Zm-1.5-59.83a2 2 0 1 1 4 0 2 2 0 0 1-4 0m0 0"/>
  <path fill="none" stroke="#000" stroke-linejoin="round" stroke-miterlimit="8" d="M244.22 178.54H180"/>
  <path fill="#fff" fill-rule="evenodd" stroke="#000" stroke-linecap="round" stroke-miterlimit="8" d="M194.13 182.48h24.82v-8.09h-24.82Zm0 0"/>
  <path fill="none" stroke="#000" stroke-linejoin="round" stroke-miterlimit="8" d="m72.12 238.17 160.11-.05"/>
  <path fill="#fff" fill-rule="evenodd" stroke="#000" stroke-linecap="round" stroke-linejoin="round" stroke-miterlimit="8" d="M152.93 228.53c-4.72 0-8.54 4.06-8.54 9.06 0 5.02 3.82 9.07 8.54 9.07s8.53-4.05 8.53-9.07c0-5-3.82-9.06-8.53-9.06m0 0"/>
  <use xlink:href="#b" x="149.73" y="242.22"/>
  <use xlink:href="#a" x="156.92" y="242.22"/>
  <path fill="none" stroke="#000" stroke-linejoin="round" stroke-miterlimit="8" d="M62.03 266.94h62.13m55.88 0h-56.38"/>
  <path d="M123.5 326.47v-59.83h1v59.83Zm2.5 0a2 2 0 1 1-2-2 2 2 0 0 1 2 2m-3.99-59.83c0-1.1.9-2 2-2a2 2 0 0 1 2 2 2 2 0 0 1-4 0m0 0"/>
  <path fill="#fff" fill-rule="evenodd" stroke="#000" stroke-linecap="round" stroke-miterlimit="8" d="M119.91 308.59h8.1v-24.88h-8.1Zm-34.66-37.81h24.87v-8.09H85.25Zm54.39.1h24.87v-8.1h-24.87Zm0 0"/>
  <path d="M231.73 326.87v-59.78h1v59.78Zm-1.5-59.78a2 2 0 0 1 4 0 2 2 0 0 1-4 0m0 0"/>
  <path fill="#fff" fill-rule="evenodd" stroke="#000" stroke-linecap="round" stroke-miterlimit="8" d="M228.14 308.49h8.09v-24.87h-8.09Zm0 0"/>
  <path d="M179.75 326.47v-59.78h1v59.78Zm2.5 0a2 2 0 0 1-4 0c0-1.1.9-2 2-2a2 2 0 0 1 2 2m-4-59.78a2 2 0 0 1 4 0 2 2 0 0 1-4 0m0 0"/>
  <path fill="#fff" fill-rule="evenodd" stroke="#000" stroke-linecap="round" stroke-miterlimit="8" d="M176.15 308.59h8.09v-24.82h-8.1Zm0 0"/>
  <path d="M71.62 326.77v-59.83h1v59.83Zm-1.5-59.83a2 2 0 1 1 4 0 2 2 0 0 1-4 0m0 0"/>
  <path fill="none" stroke="#000" stroke-linejoin="round" stroke-miterlimit="8" d="M244.22 266.94H180"/>
  <path fill="#fff" fill-rule="evenodd" stroke="#000" stroke-linecap="round" stroke-miterlimit="8" d="M194.13 270.88h24.82v-8.1h-24.82Zm0 0"/>
  <path fill="none" stroke="#000" stroke-linejoin="round" stroke-miterlimit="8" d="m72.12 326.57 160.11-.05"/>
  <path fill="#fff" fill-rule="evenodd" stroke="#000" stroke-linecap="round" stroke-linejoin="round" stroke-miterlimit="8" d="M206.81 316.93c-4.71 0-8.54 4.05-8.54 9.06s3.83 9.07 8.54 9.07c4.72 0 8.55-4.06 8.55-9.07 0-5-3.83-9.06-8.55-9.06m0 0"/>
  <use xlink:href="#b" x="203.7" y="330.59"/>
  <use xlink:href="#a" x="210.89" y="330.59"/>
</svg>
