<svg xmlns="http://www.w3.org/2000/svg" xmlns:xlink="http://www.w3.org/1999/xlink" width="595.32" height="841.92" viewBox="0 0 595.32 841.92">
  <defs>
    <path id="i" d="M2.58-4.1q.54-.82 1.08-1.21.52-.4 1.07-.4.57 0 .85.34.3.3.3.92v.17q.5-.72 1-1.06.49-.36 1.04-.36.53 0 .83.3.3.32.3.88 0 .38-.18 1.05l-.39 1.55q-.15.63-.15.89 0 .24.08.34.07.12.25.11a.6.6 0 0 0 .36-.14q.2-.15.57-.55l.33.33a5 5 0 0 1-.87.78Q8.67.1 8.19.1a.8.8 0 0 1-.61-.26 1 1 0 0 1-.24-.7q0-.38.2-1.13l.26-1q.14-.55.18-.81.05-.27.05-.44 0-.4-.14-.58-.13-.18-.44-.19a1 1 0 0 0-.53.2 3 3 0 0 0-.6.57q-.3.4-.5.77t-.3.92L4.98 0H3.97l.67-2.98.17-.8q.05-.27.05-.45 0-.43-.16-.6-.15-.18-.47-.19a1 1 0 0 0-.5.2q-.28.18-.6.59-.33.4-.52.78-.18.38-.3.92L1.77 0H.75l.84-3.72q.15-.56.14-.86a.6.6 0 0 0-.07-.34q-.09-.1-.25-.11a.6.6 0 0 0-.38.16q-.2.14-.56.53l-.33-.33q.51-.53.9-.78.36-.25.8-.25.38 0 .58.25.22.23.22.62 0 .33-.12.69Zm0 0"/>
    <path id="n" d="M4.08-1.53q0 .34.03.51.05.18.14.29t.27.17.45.1l.73.04V0H1.38v-.42q.65-.03.92-.08.28-.06.42-.16.15-.09.22-.28.08-.18.08-.6v-4.74q0-.24-.1-.34a.3.3 0 0 0-.23-.11q-.19 0-.53.2-.35.18-.86.53l-.25-.45L3.78-8.1h.33q-.03.56-.03 1.56Zm0 0"/>
    <path id="j" d="M2.1.1a.5.5 0 0 1-.3-.1 1 1 0 0 1-.2-.22q-.05-.15-.08-.36-.04-.21-.04-.48 0-.33.05-.7l.11-.77.24-1.63.04-.26.02-.19a1 1 0 0 0-.06-.3.2.2 0 0 0-.2-.12 1 1 0 0 0-.24.08q-.13.06-.27.17l-.25.22-.23.22-.28-.33a7 7 0 0 1 .8-.69q.25-.15.5-.25t.52-.1q.23 0 .36.08.15.07.22.2a1 1 0 0 1 .14.54l-.01.16-.02.14-.33 2.12-.09.66a5 5 0 0 0 0 .97q.03.14.1.14.2 0 .5-.16.3-.15.6-.42a5.3 5.3 0 0 0 1.66-2.36q.15-.48.16-.97 0-.21-.1-.33-.08-.1-.28-.1-.23 0-.45.18-.21.2-.42.5l-.35-.3a2.5 2.5 0 0 1 1.17-.96q.23-.1.46-.1.42 0 .6.22.2.22.2.58 0 .28-.12.65-.09.37-.28.77a8 8 0 0 1-.98 1.66q-.3.38-.64.75-.35.36-.72.62-.37.25-.77.4Q2.47.1 2.1.1m0 0"/>
    <path id="e" d="M1.92-3.17q-.66.3-1.54.64l-.15-.49q.94-.3 1.82-.73l.36-1.66q.32-1.48.92-2.2t1.42-.73q.39 0 .64.17.26.15.38.44.1.28.1.62 0 .55-.25 1.14-.25.6-.87 1.19-.6.58-1.78 1.19l-.38 1.7q-.12.58-.12.86 0 .24.08.34.07.12.25.11.15 0 .3-.08t.3-.21l.32-.35.36-.5.4.31q-.4.57-.7.86t-.64.47-.72.17q-.45 0-.69-.26A1 1 0 0 1 1.5-.9q0-.45.16-1.14Zm1.17-.99q.97-.6 1.49-1.4.53-.81.53-1.7 0-.3-.11-.46a.4.4 0 0 0-.33-.17.7.7 0 0 0-.5.23 2 2 0 0 0-.39.68q-.18.45-.33 1.2Zm0 0"/>
    <path id="l" d="M4.1-.94q.3 0 .48-.03.16-.04.28-.12l.17-.2.16-.43h.48L5.57 0H.76v-.28q.26-.6.69-1.25.42-.66 1.22-1.53.67-.75.96-1.14.33-.42.49-.72a2.4 2.4 0 0 0 .31-1.13q0-.45-.14-.78t-.44-.53a1.3 1.3 0 0 0-.71-.19q-1.14 0-1.5 1.22h-.7v-1.12a6 6 0 0 1 2.44-.64q1.07 0 1.64.48.56.46.56 1.38 0 .3-.06.57-.07.28-.2.52-.14.25-.37.55T4.47-4l-.92 1Q2.42-1.8 1.9-.94Zm0 0"/>
    <path id="h" d="M2.05-6.7q.15-.62.14-.86 0-.25-.16-.35Q1.88-8 1.5-8l.08-.32 1.47-.04h.34l-1 4.06.06.01q.57-.73 1.05-1.06.5-.34 1-.34.54 0 .84.33.3.31.3.85 0 .38-.17 1.05l-.38 1.55a4 4 0 0 0-.17.89q0 .24.08.34.07.12.25.11a.6.6 0 0 0 .36-.14q.2-.15.58-.55l.33.33q-.57.58-.93.82-.35.21-.8.21a.8.8 0 0 1-.62-.26 1 1 0 0 1-.22-.7q0-.38.2-1.13l.24-1q.15-.54.19-.81.04-.28.04-.44 0-.42-.14-.6-.12-.16-.43-.17a1 1 0 0 0-.53.2q-.3.21-.63.62a3.6 3.6 0 0 0-.8 1.67L1.55 0h-1Zm0 0"/>
    <path id="p" d="M.94-6.34v-1.11q.66-.33 1.26-.49t1.14-.15q.68 0 1.16.2.5.21.77.6.26.36.26.92a1.9 1.9 0 0 1-.76 1.53 5 5 0 0 1-.93.54v.05q.36.08.7.23.31.15.57.4.27.24.42.59t.16.78q0 .68-.3 1.2-.3.54-.9.85T3 .1A6 6 0 0 1 .84-.34v-1.23h.7q.21.6.54.89.33.27.92.26.76 0 1.16-.4.38-.42.39-1.24 0-.85-.52-1.3t-1.51-.46H2v-.52q.78-.04 1.33-.3.54-.26.8-.67.26-.4.26-.9 0-.64-.34-.99-.35-.36-1-.36-.57 0-.9.3-.35.3-.5.9Zm0 0"/>
    <path id="b" d="M3.1-2.4a1 1 0 0 0-.13-.32.4.4 0 0 0-.14-.12l-.27-.04h-.4L1.55 0h-1l1.5-6.7.1-.52q.04-.2.04-.34 0-.25-.16-.35Q1.88-8 1.5-8l.08-.32 1.47-.04h.34l-1.14 5.1h.19q.43 0 .98-.37.55-.39.88-.72T4.63-5q0-.28-.41-.31l.08-.3h1.89l.1.3q-.48.44-1.02.86L3.8-3.33l.58 2.11q.06.29.13.4.05.12.12.18.08.05.2.05.16 0 .36-.16.21-.17.49-.47l.33.33q-.54.55-.88.77-.35.21-.66.21a1 1 0 0 1-.64-.21 2 2 0 0 1-.37-.77Zm0 0"/>
    <path id="d" d="M1.44.5q-.12.14-.19.27a1 1 0 0 0-.14.55q0 .44.31.63.3.2.96.2.71 0 1.15-.32T4.28.8q.3-.72.61-2.2h-.08q-.58.78-1.06 1.13A1.7 1.7 0 0 1 2.7.1q-.64 0-1-.48a2.3 2.3 0 0 1-.34-1.38q0-.99.39-1.92.39-.91 1.08-1.47a2.5 2.5 0 0 1 2.26-.45q.33.08.66.3l.53-.4.38.1-.6 2.74-.3 1.43Q5.54-.2 5.39.31T5 1.23a2.6 2.6 0 0 1-1.42 1.22q-.5.17-1.19.17-2.22 0-2.22-1.3 0-.32.2-.59t.65-.56ZM3.13-.6q.29 0 .59-.21t.62-.64q.35-.45.54-.86.18-.4.3-1 .15-.6.15-1.05t-.2-.67q-.19-.2-.65-.2-.6 0-1.07.48t-.75 1.31a5 5 0 0 0-.27 1.63q0 .6.17.9.19.3.56.3m0 0"/>
    <path id="m" d="M3.5 0H1.03l.06-.28q.23-.04.35-.1.1-.05.19-.18.08-.12.17-.4.1-.25.2-.79l1.27-5.73h-.75q-.37 0-.58.1-.23.11-.44.4-.22.27-.53.95H.4L.84-8h6.13l-.45 2.06h-.57q0-.56-.03-.84-.03-.3-.12-.44t-.2-.2a1 1 0 0 0-.41-.06H4.3L3.05-1.7q-.07.22-.08.36l-.05.54q0 .2.05.3.06.08.17.14.12.05.42.08Zm0 0"/>
    <path id="o" d="m3.05-8-.07.28a1 1 0 0 0-.4.16 1 1 0 0 0-.2.34q-.05.22-.05.6l.01.53.16 4.28v.47h.06L5.1-5.92q.23-.4.35-.69.1-.3.1-.51 0-.51-.59-.6L5.02-8h2.4l-.06.28a1 1 0 0 0-.31.13q-.14.1-.33.32-.18.23-.55.86L2.42.1h-.78l-.39-6.53a4 4 0 0 0-.08-.65 1 1 0 0 0-.2-.43.7.7 0 0 0-.4-.2L.62-8Zm0 0"/>
    <path id="k" d="M2.42.1Q1.5.1 1.05-.59A3.6 3.6 0 0 1 .59-2.6q0-.72.14-1.23.15-.52.4-.86.24-.34.59-.52.37-.17.76-.17.5 0 .85.19.36.18.58.53t.3.84q.12.5.12 1.11 0 1.4-.5 2.11-.5.7-1.4.7m-.97-2.82q0 .63.07 1.08.05.45.18.75.14.29.32.42.2.14.46.14t.44-.12q.19-.15.3-.4.12-.29.19-.7.06-.42.06-1 0-.63-.06-1.1-.06-.46-.2-.76-.12-.3-.3-.43a.7.7 0 0 0-.44-.14 1 1 0 0 0-.5.15q-.2.15-.3.46-.1.27-.17.7-.05.42-.05.95m0 0"/>
    <path id="f" d="M3.05-1.1v.23l.03.15q0 .06.04.11l.08.08q.04.05.13.08t.2.04a5 5 0 0 0 .75.05V0H.98v-.36l.43-.02.48-.06.13-.06.09-.08.06-.1a1 1 0 0 0 .06-.41v-2.99q0-.15-.06-.22A.2.2 0 0 0 2-4.38q-.15 0-.4.15-.24.12-.65.39l-.1-.2-.08-.2 1.01-.56 1.03-.56h.25l-.01.42v.67Zm0 0"/>
    <path id="g" d="M3.02-.67q.2 0 .3-.02.13 0 .2-.06t.12-.16l.14-.28h.4q-.05.3-.05.6L4.09 0H.56v-.22a7 7 0 0 1 .53-.87 7 7 0 0 1 .86-.97l.63-.66q.25-.28.39-.5a1.4 1.4 0 0 0 .25-.8q0-.2-.06-.37a1 1 0 0 0-.18-.31 1 1 0 0 0-.28-.2 1 1 0 0 0-.4-.07 1 1 0 0 0-.66.22q-.25.21-.39.6H.7v-.82a6 6 0 0 1 1.78-.42q.44 0 .74.1t.5.27q.18.16.26.4.1.23.1.5a2 2 0 0 1-.11.57q-.05.16-.14.28t-.24.29q-.1.14-.26.3-.16.19-.36.38l-.42.42-.42.43q-.21.2-.38.4-.16.2-.27.38Zm0 0"/>
    <clipPath id="c">
      <path d="M241 219h7v9.56h-7Zm0 0"/>
    </clipPath>
  </defs>
  <path fill="#fff" fill-rule="evenodd" d="M61.88 296.2H304.8V188.53H61.88Zm0 0"/>
  <path fill="none" stroke="#000" stroke-linejoin="round" stroke-miterlimit="10" stroke-width="1.5" d="M168.46 217.3H64.62"/>
  <path fill="none" stroke="#000" stroke-linecap="round" stroke-linejoin="round" stroke-miterlimit="10" stroke-width=".75" d="m165.31 217.5-13.13 8.23m1.5-8.33-13.2 8.33m-11.23-8.23-13.13 8.33m25.77-8.43-13.14 8.38m-11.58-8.38-13.19 8.33m1.05-8.13-13.14 8.33m1.06-8.13-13.14 8.33m.65-7.99-11.69 7.44"/>
  <use xlink:href="#b" x="96.03" y="236.59"/>
  <use xlink:href="#a" x="102.98" y="236.59"/>
  <g clip-path="url(#c)">
    <use xlink:href="#d" x="241.09" y="225.68"/>
  </g>
  <use xlink:href="#a" x="248.65" y="225.68"/>
  <path d="m237.58 212.6.04 21.22a.5.5 0 0 1-.5.5.5.5 0 0 1-.5-.5l-.04-21.22c0-.28.22-.5.5-.5s.5.22.5.5m-.46 21.22 2-2-2 6-2-6Zm0 0"/>
  <use xlink:href="#e" x="145.17" y="210.46"/>
  <use xlink:href="#f" x="151.17" y="212.86"/>
  <use xlink:href="#a" x="156.56" y="210.46"/>
  <use xlink:href="#e" x="277.53" y="262.87"/>
  <use xlink:href="#g" x="283.77" y="265.27"/>
  <use xlink:href="#a" x="289.16" y="262.87"/>
  <path fill="none" stroke="#000" stroke-linejoin="round" stroke-miterlimit="10" stroke-width="1.5" d="M166.26 217.62c4.22-.23 8.42-.46 13.6 7s12.12 30.18 17.48 37.73c5.35 7.55 14.68 7.58 14.68 7.58l3.85.6m88.63-.55h-92.14"/>
  <path fill="none" stroke="#000" stroke-linecap="round" stroke-linejoin="round" stroke-miterlimit="10" stroke-width=".75" d="m301.7 270.23-11.68 8.14m1.35-8.29-11.64 8.3m-9.99-8.2-11.69 8.3m22.88-8.4-11.69 8.34M259 270.08l-11.68 8.3m.89-8.1-11.63 8.3m.95-8.1-11.69 8.3m.56-7.95-10.35 7.44m.4-7.64-10.34 7.4"/>
  <use xlink:href="#b" x="239.78" y="289.36"/>
  <use xlink:href="#a" x="246.73" y="289.36"/>
  <path d="M169.5 221.99v44a.5.5 0 0 1-.5.5.5.5 0 0 1-.5-.5v-44c0-.28.23-.5.5-.5.29 0 .5.22.5.5m-.5 0-2 2 2-6 2 6Zm0 44 2-2-2 6-2-6Zm0 0"/>
  <path fill="none" stroke="#000" stroke-dasharray="5.99316 4.49487" stroke-linejoin="round" stroke-miterlimit="10" stroke-width="1.5" d="M224.3 269.98h-80.07"/>
  <path fill="none" stroke="#000" stroke-linejoin="round" stroke-miterlimit="10" stroke-width="1.5" d="M303.8 269.48v26.77"/>
  <use xlink:href="#h" x="158.72" y="248.1"/>
  <use xlink:href="#a" x="165.55" y="248.1"/>
  <path fill="#fff" fill-rule="evenodd" stroke="#000" stroke-linecap="round" stroke-miterlimit="8" stroke-width="1.5" d="M74.66 217.3h20.78v-14.2H74.66Zm0 0"/>
  <use xlink:href="#i" x="80.45" y="213.58"/>
  <use xlink:href="#cI" x="90.76" y="213.58"/>
  <path d="M95.7 210.05h18.82c.28 0 .5.22.5.5a.5.5 0 0 1-.5.5H95.69a.5.5 0 0 1-.5-.5c0-.28.22-.5.5-.5m18.82.5-2-2 6 2-6 2Zm0 0"/>
  <use xlink:href="#j" x="108.74" y="204.11"/>
  <use xlink:href="#k" x="115.09" y="206.5"/>
  <use xlink:href="#a" x="120.6" y="204.11"/>
  <path fill="#fff" fill-rule="evenodd" d="M58.63 649.5h95.1V528.24h-95.1Zm0 0"/>
  <use xlink:href="#l" x="137.86" y="554.28"/>
  <use xlink:href="#a" x="144.45" y="554.28"/>
  <use xlink:href="#m" x="141.82" y="640.97"/>
  <use xlink:href="#cI" x="149.25" y="640.97"/>
  <path d="M77.66 628.27v-86.65h1v86.65Zm.5-86.65-2 2 2-6 2 6Zm0 0"/>
  <path d="M77.81 627.47h62.48v1H77.8Zm62.48.5-2-2 6 2-6 2Zm0 0"/>
  <use xlink:href="#n" x="95.32" y="618.43"/>
  <use xlink:href="#a" x="101.9" y="618.43"/>
  <use xlink:href="#o" x="67.51" y="542.53"/>
  <use xlink:href="#a" x="75.42" y="542.53"/>
  <path fill="none" stroke="#000" stroke-dasharray="3.99544 2.99658" stroke-linejoin="round" stroke-miterlimit="8" d="m98.29 602.45-21.03 26.82"/>
  <use xlink:href="#p" x="83.93" y="554.28"/>
  <use xlink:href="#a" x="90.52" y="554.28"/>
  <path fill="none" stroke="#000" stroke-linejoin="round" stroke-miterlimit="8" d="m93.2 609.05.04-38.4"/>
  <path d="M92.74 575.33v-19.87h1v19.87Zm.5 0 2-2-2 6-2-6Zm41.01-19.08h-24.48v-1h24.48Zm0-2.5a2 2 0 0 1 2 2 2 2 0 1 1-2-2m-24.48 2 2 2-6-2 6-2Zm0 0"/>
  <path d="M113.67 556.25H93.24v-1h20.43Zm-20.43 1.5a2 2 0 1 1 0-4 2 2 0 0 1 0 4m0 0"/>
  <path fill="none" stroke="#000" stroke-linejoin="round" stroke-miterlimit="8" d="m108.73 588.87 25.17-33.11"/>
  <path d="m92.8 608.75 17.7-23.3.8.61-17.71 23.28Zm1.99 1.5a2 2 0 1 1-3.18-2.42 2 2 0 0 1 3.18 2.42m16.11-24.5-2.8.4 5.22-3.58-2.04 5.99Zm0 0"/>
</svg>
