<svg xmlns="http://www.w3.org/2000/svg" xmlns:xlink="http://www.w3.org/1999/xlink" width="200" height="200" viewBox="0 0 200 200">
  <defs>
    <path id="c" d="M4.67 0v-.28q.29-.06.42-.13.15-.07.22-.2.08-.12.08-.34 0-.2-.05-.43L5.2-1.9l-.22-.75H2.25l-.19.58q-.15.44-.2.66t-.05.4q0 .34.17.52.18.15.55.22V0H.03v-.28q.33-.06.56-.4.25-.31.49-.93l2.44-6.48h.93l1.99 6.53q.14.46.25.7t.26.38q.15.12.4.2V0ZM2.42-3.17h2.44L3.75-6.94Zm0 0"/>
    <path id="a" d="M4.9-2.48H2.4l-.2.56-.14.45q-.04.22-.04.47 0 .59.6.6V0H.13v-.4Q.35-.4.5-.52.67-.67.8-.9q.14-.22.3-.64l2.45-6.52H5.1l1.92 6.57.22.64q.1.17.23.3.15.1.4.15V0H4.64v-.4q.3-.02.45-.15.14-.14.14-.39 0-.19-.04-.4l-.13-.57Zm-2.28-.7h2.11L3.8-6.46Zm0 0"/>
    <path id="b" d="M6.47-7.81v1.68h-.8q-.14-.64-.45-.96-.3-.32-.78-.32-.95 0-1.4.9a6 6 0 0 0-.48 2.62q0 1.62.42 2.47.44.83 1.29.83.42 0 .68-.14.3-.15.44-.43.15-.3.28-.8h.8V-.2a9 9 0 0 1-2.28.3q-1.22 0-2-.44-.77-.45-1.14-1.33a6 6 0 0 1-.36-2.25q0-1.27.42-2.2a3.2 3.2 0 0 1 1.28-1.46 4 4 0 0 1 2-.51q.6 0 1.08.06.49.07 1 .22m0 0"/>
    <path id="d" d="M.7 0v-.28q.37-.1.49-.2.12-.13.15-.33.05-.23.05-.66v-5.06q0-.4-.03-.6a.5.5 0 0 0-.1-.28l-.17-.17Q1-7.64.7-7.72V-8h3.22q.93 0 1.49.2.57.21.84.6.28.37.28 1a1.8 1.8 0 0 1-.72 1.5q-.3.25-.81.45v.06q.8.23 1.2.74.42.5.42 1.2 0 .8-.35 1.3-.37.5-1 .73T3.73 0Zm2.82-4.4q.88 0 1.36-.44.45-.44.46-1.25 0-.4-.12-.68-.13-.25-.36-.42-.23-.15-.56-.22a3 3 0 0 0-.67-.07l-.6.01-.55.02v3.04ZM2.48-.57q.45.04.97.04.76 0 1.2-.18.4-.2.6-.58t.19-.95-.2-.93a1.2 1.2 0 0 0-.65-.54q-.43-.2-1.18-.2h-.93Zm0 0"/>
  </defs>
  <path fill="none" stroke="#000" stroke-linejoin="round" stroke-miterlimit="10" d="M181.08 170.73H74.43m53.71-77.85v38.71m-53.49 39.23V92.36"/>
  <path fill="#fff" fill-rule="evenodd" stroke="#000" stroke-miterlimit="8" d="M87.76 175.56h26.44v-10.43H87.76Zm0 0"/>
  <path fill="none" stroke="#000" stroke-linejoin="round" stroke-miterlimit="8" d="M74.43 92.16h106.38m0 78.13V91.82"/>
  <path fill="#fff" fill-rule="evenodd" stroke="#000" stroke-miterlimit="8" d="M141.88 175.52h26.42v-10.39h-26.42ZM87.76 97.3h26.42V86.91H87.76Zm52.8 0h26.42V86.91h-26.42Zm-17.72 27.49h10.39V98.37h-10.39Zm0 0"/>
  <path fill-rule="evenodd" d="M127.18 170.84a1.77 1.77 0 1 1 1.78 1.77c-.98 0-1.78-.8-1.78-1.77m-54.08 0a1.78 1.78 0 1 1 3.56 0 1.78 1.78 0 0 1-3.55 0m0 0"/>
  <use xlink:href="#a" x="63.55" y="168.03"/>
  <use xlink:href="#x" x="71.7" y="168.03"/>
  <use xlink:href="#b" x="125.52" y="166.95"/>
  <use xlink:href="#x" x="132.59" y="166.95"/>
  <path fill="none" stroke="#000" stroke-linejoin="round" stroke-miterlimit="8" d="M74.16 131.21h106.32"/>
  <path fill="#fff" fill-rule="evenodd" stroke="#000" stroke-miterlimit="8" d="M141.22 136.23h26.42v-10.38h-26.42Zm0 0"/>
  <path fill="#fff" fill-rule="evenodd" stroke="#000" stroke-linejoin="round" stroke-miterlimit="8" d="M172.7 112.08a7.9 7.9 0 0 1 7.92-7.89 7.9 7.9 0 0 1 7.95 7.9c0 4.36-3.56 7.9-7.95 7.9a7.9 7.9 0 0 1-7.93-7.9Zm0 0"/>
  <use xlink:href="#c" x="176.94" y="115.65"/>
  <use xlink:href="#aL" x="184.37" y="115.65"/>
  <path fill-rule="evenodd" d="M126.38 92.57a1.77 1.77 0 1 1 3.54-.01 1.77 1.77 0 0 1-3.54 0m0 0"/>
  <use xlink:href="#d" x="124.92" y="88.3"/>
  <path fill="none" stroke="#000" stroke-linejoin="round" stroke-miterlimit="8" stroke-width=".34" d="M125.62 88.3v-.28q.37-.1.49-.2.12-.14.15-.33.05-.22.05-.66v-5.06q0-.4-.03-.6a.5.5 0 0 0-.1-.28l-.17-.17q-.1-.06-.39-.14v-.28h3.22q.91 0 1.48.2.58.21.85.6.28.37.28 1a1.8 1.8 0 0 1-.72 1.5q-.31.25-.81.45v.06q.8.24 1.2.74.42.5.42 1.2 0 .8-.36 1.3t-1 .73q-.62.22-1.53.22Zm2.81-4.4q.9 0 1.36-.44t.47-1.25q0-.41-.12-.67-.13-.27-.36-.43-.24-.15-.57-.22a3 3 0 0 0-.67-.07l-.6.01-.54.02v3.04Zm-1.03 3.84q.45.05.97.05.75 0 1.19-.2.42-.2.6-.57.2-.38.2-.95t-.2-.93a1.2 1.2 0 0 0-.65-.54q-.45-.2-1.19-.19h-.92Zm0 0"/>
  <use xlink:href="#aP" x="132.11" y="88.3"/>
</svg>
