<svg xmlns="http://www.w3.org/2000/svg" xmlns:xlink="http://www.w3.org/1999/xlink" width="612" height="792" viewBox="0 0 612 792">
  <defs>
    <path id="b" d="M3.55-5.14h-.96l.33-1.24q.03-.02.02-.06.01-.11-.1-.1c-.07 0-.1 0-.18.1-.46.6-1.2 1.2-1.6 1.32-.3.09-.37.17-.37.3l.01.07h.88l-.86 3.3A6 6 0 0 0 .44-.31c0 .25.26.44.58.44.56 0 .95-.33 1.7-1.44l-.16-.1c-.58.77-.78.96-.97.96q-.16-.01-.17-.25v-.05l1.06-4h1Zm0 0"/>
    <path id="a" d="M3.34.19a4 4 0 0 0 2.07-.55A5.8 5.8 0 0 0 8.39-5.2a2.67 2.67 0 0 0-2.73-2.78 4.7 4.7 0 0 0-3.02 1.34A5.6 5.6 0 0 0 .72-2.66c0 .99.36 1.8 1.01 2.32.32.25.57.37 1.1.48-1.1.97-1.2 1.06-2.13 1.7l.13.2q.67-.38 1.37-.38.36-.01 1.13.22 1.12.3 1.81.3c.67 0 1.5-.3 2.13-.77.28-.24.43-.4.75-.82L7.84.45c-.68.7-1.17.93-2.03.93-.36 0-.8-.08-1.48-.27A6 6 0 0 0 3 .86l-.3.02ZM5.58-7.6c.97 0 1.55.68 1.55 1.82A8 8 0 0 1 5.8-1.64Q4.82-.19 3.52-.2c-.99 0-1.54-.72-1.54-2 0-1.14.58-2.92 1.32-3.97.67-.97 1.4-1.42 2.28-1.42m0 0"/>
    <path id="c" d="M.06 0h1.88v-.12h-.16c-.34-.04-.44-.11-.45-.43v-1.47l1.14 1.5.08.11q.08.11.08.18-.01.1-.16.1H2.3V0h1.75v-.12c-.36-.02-.6-.18-.93-.58L1.89-2.27l.24-.21c1-.91 1.21-1.04 1.73-1.02v-.12H2.22v.1c.31.02.4.05.4.16q0 .1-.18.28l-1.11.99v-3.4L1.3-5.5l-1 .3-.24.06v.12l.25-.01c.28 0 .35.1.35.5v3.87c0 .43-.04.46-.6.54Zm0 0"/>
    <path id="d" d="M5-2.27H2.19l-.33.79q-.18.37-.17.64 0 .32.26.48.16.1.78.14V0H.1v-.22q.43-.06.7-.34.29-.3.7-1.2l2.8-6.36h.13L7.3-1.59q.4.92.67 1.17.2.18.56.2V0H4.7v-.22h.15q.48 0 .66-.12a.3.3 0 0 0 .13-.27L5.6-.83l-.17-.44Zm-.2-.43L3.6-5.44 2.4-2.7Zm0 0"/>
    <path id="e" d="M.14 2.4v-.26q.6-.4.9-.8.4-.51.63-1.34.28-1.03.28-2.87 0-1.74-.26-2.7A5 5 0 0 0 1-7.1q-.32-.42-.86-.72v-.3q1.42.48 2.4 1.94t.98 3.36q0 1.86-.99 3.3A4.7 4.7 0 0 1 .14 2.4m0 0"/>
    <path id="f" d="M.2-7.95h6.86v2.15h-.23q-.12-.6-.38-.97a1.4 1.4 0 0 0-.62-.51q-.36-.15-1.11-.16H3.27v3.1H4.3q1.7 0 2.47.6.76.6.77 1.6 0 .67-.4 1.17-.39.49-.98.74Q5.6 0 4.45 0H.2v-.22q.74 0 .94-.19.22-.19.22-.8v-5.45q0-.66-.22-.87-.2-.2-.94-.2Zm3.07 4.12v2.4q0 .57.15.8t.6.24q.66 0 1.01-.45.36-.47.36-1.18 0-.65-.31-1.1-.32-.47-.7-.58a4 4 0 0 0-1.11-.13m0 0"/>
    <path id="g" d="M5.34-4.22q1.13.27 1.58.64.66.53.66 1.4 0 .88-.72 1.48-.88.7-2.56.7H.25v-.22q.54 0 .75-.1a.6.6 0 0 0 .28-.26q.08-.17.08-.81v-5.16q0-.65-.08-.8A.6.6 0 0 0 1-7.64a2 2 0 0 0-.75-.1v-.22h3.81q1.36 0 1.92.25.59.25.91.73.33.47.33 1.02 0 .58-.42 1.03-.41.45-1.46.7M3.2-4.38q.83 0 1.22-.18.4-.2.61-.52.22-.34.22-.87t-.22-.86a1.3 1.3 0 0 0-.6-.52A3 3 0 0 0 3.2-7.5Zm0 .46v2.84q0 .33.16.49t.48.15q.47 0 .86-.2t.6-.6.22-.88q0-.57-.27-1-.25-.45-.7-.61-.45-.2-1.35-.2m0 0"/>
    <path id="u" d="M3.42-.81q-1 .9-1.8.89A1.05 1.05 0 0 1 .55-1q0-.62.53-1.12a11 11 0 0 1 2.34-1.35v-.55q0-.62-.06-.78a.8.8 0 0 0-.67-.4q-.39 0-.63.17-.15.11-.15.25 0 .12.15.3.24.26.24.5 0 .28-.22.48a.8.8 0 0 1-.56.2 1 1 0 0 1-.61-.22.7.7 0 0 1-.25-.53q0-.41.32-.8.33-.38.93-.59t1.25-.2q.78 0 1.23.33t.6.72q.07.25.07 1.12v2.13q0 .37.03.48t.08.14q.06.05.14.05.15 0 .32-.22l.17.14q-.3.44-.61.64-.32.2-.7.19-.47 0-.74-.22t-.33-.67m0-.42v-1.85a4 4 0 0 0-1.04.9 1 1 0 0 0-.24.63q0 .29.2.49.15.15.41.15.3 0 .67-.32m0 0"/>
    <path id="s" d="M1.5-1.81q.4 0 .69.3.3.27.3.68t-.3.69a1 1 0 0 1-.69.28q-.4 0-.69-.28a1 1 0 0 1-.28-.69q0-.4.28-.69.28-.3.69-.3m0 0"/>
    <path id="q" d="M3.7 0v-.22q.53 0 .53-.78v-2.69L2.67-1q0 .77.53.78V0H.4v-.22q.35 0 .5-.19.13-.18.13-.65v-3.38q0-.83-.62-.83v-.21h2.8v.21q-.33.02-.43.2-.1.15-.1.63v2.67l1.55-2.71q0-.45-.12-.61-.13-.18-.4-.18v-.21H6.5v.21q-.32.02-.47.18-.15.14-.16.57v3.49q0 .48.15.66.13.15.48.15V0Zm0 0"/>
    <path id="i" d="M1.47-7.95h6.56v.22q-.74.03-.94.23-.18.2-.18.81v5.32q0 .5.07.7t.33.33q.27.12.72.12v2.55h-.22A2.5 2.5 0 0 0 7.06.64 2.6 2.6 0 0 0 5.2 0H3.05Q1.8 0 1.06.6q-.73.6-.84 1.73H0V-.22Q1.45-.5 2.08-2.17q.62-1.67.62-4.47 0-.67-.23-.88-.25-.2-1-.21Zm3.73.51h-2v.69q0 1.43-.2 2.78a9 9 0 0 1-.52 2.14q-.32.79-.89 1.31h2.83q.58 0 .67-.07t.11-.52Zm0 0"/>
    <path id="r" d="M.42-.22Q.76-.23.9-.39q.15-.15.14-.63V-4.5q0-.4-.12-.56-.13-.17-.49-.2v-.22h4.81v1.43h-.21q-.13-.66-.36-.86-.24-.2-.91-.2H2.67v4.13q0 .42.13.59.15.15.56.17V0H.42Zm0 0"/>
    <path id="h" d="M.23-7.95h7.02v2.15h-.22q-.14-.8-.36-1.12a1 1 0 0 0-.54-.42 5 5 0 0 0-1.25-.1H3.26v6.19q0 .66.18.84.21.2.72.2h.22V0H.23v-.22h.24q.52 0 .7-.19.2-.2.19-.84v-5.48q0-.55-.16-.77-.16-.24-.7-.23H.23Zm0 0"/>
    <path id="p" d="M3.1-7.95h4.1v.22q-.67 0-.86.18-.18.16-.23.72 1.35 0 2.05.31.69.33 1.2.94.52.63.52 1.53 0 1.13-.85 1.99-.83.86-2.92.86 0 .42.1.6a.6.6 0 0 0 .29.27q.2.1.7.11V0H3.1v-.22q.73 0 .92-.22.18-.22.18-.76a5 5 0 0 1-2.17-.38Q1.25-1.97.84-2.6a2.65 2.65 0 0 1 .1-2.97q.5-.7 1.25-.97.76-.27 2.01-.28 0-.52-.22-.7-.2-.2-.89-.2Zm3 6.3q.6 0 .96-.16.38-.2.63-.75.25-.57.25-1.55 0-.8-.24-1.34-.22-.55-.58-.74t-1.01-.2ZM4.2-6.38a2 2 0 0 0-1.1.28q-.34.25-.54.78-.19.54-.19 1.36 0 .96.24 1.45.24.5.62.7.4.18.97.18Zm0 0"/>
    <path id="t" d="M4.97 0H.3v-.12a26 26 0 0 0 2.6-3.44q.45-.9.46-1.74 0-.61-.38-1.03-.37-.4-.93-.4-.9 0-1.4.9l-.2-.07q.3-1.12.95-1.65A2.3 2.3 0 0 1 4-7.83q.5.29.78.78.27.5.28.9 0 .8-.44 1.59a15 15 0 0 1-2.58 3.03h1.72q.62 0 .81-.05t.32-.19q.12-.11.32-.53h.22Zm0 0"/>
    <path id="j" d="M7.13-7.22h-5.5v.19c.71.06.84.12.84.45 0 .16-.03.44-.11.7L1-1c-.2.67-.28.73-.9.83V0h2.78v-.17c-.65-.03-.85-.16-.85-.49 0-.1.03-.23.1-.5l.68-2.46c.4.03.66.03.9.03.43 0 .5.01.6.06q.25.12.25.45c0 .17-.01.31-.1.64l.2.06.84-2.57-.2-.07c-.49 1-.53 1-2.38 1.04l.72-2.58c.08-.22.22-.28.67-.28 1.88 0 2.27.14 2.27.84l-.02.25-.01.2.22.02Zm0 0"/>
    <path id="m" d="M9.64-7.22H7.8L4.1-1.77l-.62-5.45h-2v.19q.82.04.82.4-.01.13-.11.46-.04.06-.1.33l-.03.12L.9-1.6C.55-.47.38-.25-.2-.17V0H2v-.17c-.57-.05-.79-.19-.79-.49 0-.12.05-.39.1-.59l1.3-4.78L3.29 0h.19l4.17-6.2L6.2-1c-.17.58-.39.75-1.1.83V0h3v-.17c-.74-.08-.85-.14-.85-.49 0-.18.03-.32.13-.67l1.35-4.89c.2-.66.25-.72.91-.81Zm0 0"/>
    <path id="n" d="M4.45-7.22H1.44v.19c.69.06.84.16.84.47q0 .25-.1.68L.8-1c-.2.64-.28.72-.9.83V0h5.62l.64-1.98-.22-.07c-.39.8-.68 1.16-1.17 1.4a4 4 0 0 1-1.81.26c-.83 0-1.11-.1-1.11-.38 0-.09.05-.32.12-.56l1.36-4.89c.16-.56.46-.78 1.11-.81Zm0 0"/>
    <path id="o" d="M2.52-1.36c-.72.92-.8 1-1.05 1q-.17 0-.17-.19 0-.14.1-.43v-.11l1.68-6.4-.05-.06c-.67.16-1.1.22-1.73.3v.19q.78-.02.76.25l-.04.2L.5-.78Q.45-.63.45-.5q.01.62.55.63c.56 0 .94-.32 1.66-1.4Zm0 0"/>
    <path id="k" d="M.83 0h1.9v-.1c-.53 0-.64-.09-.65-.42v-4.17l-.06-.01-1.25.64v.1q.4-.17.5-.17.22 0 .21.33v3.16c-.01.44-.14.53-.65.53Zm0 0"/>
    <path id="l" d="m3.3-.95-.08-.03c-.27.4-.35.45-.67.45H.89l1.17-1.22c.61-.66.9-1.17.9-1.72 0-.7-.57-1.23-1.3-1.23-.38 0-.74.15-1 .43-.22.24-.33.46-.44.96l.14.03c.28-.69.53-.9 1.02-.9.57 0 .96.38.96.98 0 .54-.3 1.18-.89 1.8L.2-.07V0h2.72Zm0 0"/>
  </defs>
  <path d="M77.1 590.6v-84.25h1v84.25Zm-2.5-83.25 3-6 3 6Zm0 0"/>
  <path d="M77.6 550.95h97v1h-97Zm96-2.5 6 3-6 3Zm0 0"/>
  <use xlink:href="#a" x="170.06" y="565.99"/>
  <use xlink:href="#ai" x="178.73" y="565.99"/>
  <use xlink:href="#b" x="68.66" y="510.67"/>
  <use xlink:href="#ai" x="72.02" y="510.67"/>
  <path fill="none" stroke="#000" stroke-linejoin="round" stroke-miterlimit="10" stroke-width="1.25" d="m77.6 518.55 55.9 32.9"/>
  <path fill="none" stroke="#000" stroke-dasharray="5 3.75" stroke-linejoin="round" stroke-miterlimit="10" stroke-width="1.25" d="m77.6 576.8 55.9-25.35"/>
  <use xlink:href="#b" x="130.7" y="547.39"/>
  <use xlink:href="#c" x="134.06" y="548.95"/>
  <use xlink:href="#ai" x="138.02" y="547.39"/>
  <path d="M201.45 590.6v-84.25h1v84.25Zm-2.5-83.25 3-6 3 6Zm0 0"/>
  <path d="M201.95 550.95h97v1h-97Zm96-2.5 6 3-6 3Zm0 0"/>
  <use xlink:href="#a" x="294.43" y="565.99"/>
  <use xlink:href="#ai" x="303.07" y="565.99"/>
  <use xlink:href="#b" x="193.13" y="510.67"/>
  <use xlink:href="#ai" x="196.49" y="510.67"/>
  <path fill="none" stroke="#000" stroke-linejoin="round" stroke-miterlimit="10" stroke-width="1.25" d="m201.95 518.55 77.2 32.9"/>
  <path fill="none" stroke="#000" stroke-dasharray="5 3.75" stroke-linejoin="round" stroke-miterlimit="10" stroke-width="1.25" d="m201.95 576.8 55.9-25.35"/>
  <use xlink:href="#b" x="278.21" y="547.39"/>
  <use xlink:href="#c" x="281.57" y="548.95"/>
  <use xlink:href="#ai" x="285.53" y="547.39"/>
  <path fill="none" stroke="#000" stroke-dasharray="5 3.75" stroke-linejoin="round" stroke-miterlimit="10" stroke-width="1.25" d="M257.85 552.05h21.3"/>
  <path d="M351.7 590.6v-84.25h1v84.25Zm-2.5-83.25 3-6 3 6Zm0 0"/>
  <path d="M352.2 550.95h97v1h-97Zm96-2.5 6 3-6 3Zm0 0"/>
  <use xlink:href="#a" x="444.7" y="565.99"/>
  <use xlink:href="#ai" x="453.34" y="565.99"/>
  <use xlink:href="#b" x="343.39" y="510.67"/>
  <use xlink:href="#ai" x="346.75" y="510.67"/>
  <path fill="none" stroke="#000" stroke-linejoin="round" stroke-miterlimit="10" stroke-width="1.25" d="m352.2 532.8 48.6 17.45"/>
  <path fill="none" stroke="#000" stroke-dasharray="5 3.75" stroke-linejoin="round" stroke-miterlimit="10" stroke-width="1.25" d="m352.2 586.15 73.35-34.7"/>
  <use xlink:href="#b" x="424.3" y="547.39"/>
  <use xlink:href="#c" x="427.66" y="548.95"/>
  <use xlink:href="#ai" x="431.62" y="547.39"/>
  <path fill="none" stroke="#000" stroke-linejoin="round" stroke-miterlimit="10" stroke-width="1.25" d="M400.8 550.25h21.3"/>
  <path d="M152.85 725.05V640.8h1v84.25Zm-2.5-83.25 3-6 3 6Zm0 0"/>
  <path d="M153.35 685.4h120.8v1h-120.8Zm119.8-2.5 6 3-6 3Zm0 0"/>
  <use xlink:href="#a" x="274.25" y="704.38"/>
  <use xlink:href="#ai" x="282.89" y="704.38"/>
  <use xlink:href="#b" x="144.5" y="645.22"/>
  <use xlink:href="#ai" x="147.86" y="645.22"/>
  <path fill="none" stroke="#000" stroke-linejoin="round" stroke-miterlimit="10" stroke-width="1.25" d="m153.35 667.25 48.6 17.45"/>
  <path fill="none" stroke="#000" stroke-dasharray="5 3.75" stroke-linejoin="round" stroke-miterlimit="10" stroke-width="1.25" d="m153.35 720.6 85.2-20.8"/>
  <use xlink:href="#b" x="143.18" y="701.38"/>
  <use xlink:href="#c" x="146.54" y="702.94"/>
  <use xlink:href="#ai" x="150.5" y="701.38"/>
  <path fill="none" stroke="#000" stroke-linejoin="round" stroke-miterlimit="10" stroke-width="1.25" d="M201.95 684.7h21.3"/>
  <path fill="none" stroke="#000" stroke-dasharray="5 3.75" stroke-linejoin="round" stroke-miterlimit="10" stroke-width="1.25" d="m223.25 684.7 17.9 15.1"/>
  <path fill="none" stroke="#000" stroke-dasharray="2.25 3" stroke-linecap="round" stroke-linejoin="round" stroke-miterlimit="10" stroke-width=".75" d="M241.15 699.8h-87.8"/>
  <path d="M305.7 725.05V640.8h1v84.25Zm-2.5-83.25 3-6 3 6Zm0 0"/>
  <path d="M303.95 685.4h97v1h-97Zm96-2.5 6 3-6 3Zm0 0"/>
  <use xlink:href="#a" x="398.71" y="700.54"/>
  <use xlink:href="#ai" x="407.38" y="700.54"/>
  <use xlink:href="#b" x="297.43" y="645.22"/>
  <use xlink:href="#ai" x="300.79" y="645.22"/>
  <path fill="none" stroke="#000" stroke-linejoin="round" stroke-miterlimit="10" stroke-width="1.25" d="m306.2 645.85 65.75 26.35"/>
  <path fill="none" stroke="#000" stroke-dasharray="5 3.75" stroke-linejoin="round" stroke-miterlimit="10" stroke-width="1.25" d="m306.2 704.1 38.7-19.4"/>
  <use xlink:href="#b" x="296.23" y="675.7"/>
  <use xlink:href="#c" x="299.59" y="677.26"/>
  <use xlink:href="#ai" x="303.55" y="675.7"/>
  <path fill="none" stroke="#000" stroke-dasharray="5 3.75" stroke-linejoin="round" stroke-miterlimit="10" stroke-width="1.25" d="M342.3 686.5h21.3"/>
  <path fill="none" stroke="#000" stroke-linejoin="round" stroke-miterlimit="10" stroke-width="1.25" d="m363.45 685.9 8.35-13.7"/>
  <path fill="none" stroke="#000" stroke-dasharray="2.25 3" stroke-linecap="round" stroke-linejoin="round" stroke-miterlimit="10" stroke-width=".75" d="M371.95 672.2H306.2"/>
  <use xlink:href="#d" x="102.74" y="607.54"/>
  <use xlink:href="#e" x="111.38" y="607.54"/>
  <use xlink:href="#B" x="115.46" y="607.54"/>
  <use xlink:href="#f" x="240.89" y="607.9"/>
  <use xlink:href="#e" x="248.93" y="607.9"/>
  <use xlink:href="#B" x="252.77" y="607.9"/>
  <use xlink:href="#g" x="385.27" y="604.66"/>
  <use xlink:href="#e" x="393.31" y="604.66"/>
  <use xlink:href="#B" x="397.27" y="604.66"/>
  <use xlink:href="#h" x="212.93" y="724.06"/>
  <use xlink:href="#e" x="220.61" y="724.06"/>
  <use xlink:href="#B" x="224.57" y="724.06"/>
  <use xlink:href="#i" x="343.39" y="719.02"/>
  <use xlink:href="#e" x="351.67" y="719.02"/>
  <use xlink:href="#B" x="355.63" y="719.02"/>
  <path fill="#fff" fill-rule="evenodd" stroke="#000" stroke-linecap="round" stroke-miterlimit="8" stroke-width=".75" d="M76.6 185.7h129v-24.75h-129Zm0 0"/>
  <path fill="none" stroke="#000" stroke-dasharray="0 1.5" stroke-linecap="round" stroke-linejoin="round" stroke-miterlimit="8" stroke-width=".75" d="M110.35 160.95v24.75"/>
  <path d="M205.6 171.95h23.5c.28 0 .5.22.5.5a.5.5 0 0 1-.5.5h-23.5a.5.5 0 0 1-.5-.5c0-.28.22-.5.5-.5m22.5-2.5 6 3-6 3Zm-151.5 3.5h-20a.5.5 0 0 1-.5-.5c0-.28.22-.5.5-.5h20a.5.5 0 0 1 0 1m-19 2.5-6-3 6-3Zm0 0"/>
  <use xlink:href="#j" x="221.81" y="165.98"/>
  <use xlink:href="#k" x="228.53" y="167.54"/>
  <use xlink:href="#bz" x="232.01" y="165.98"/>
  <use xlink:href="#j" x="51.84" y="165.5"/>
  <use xlink:href="#l" x="58.58" y="167.06"/>
  <use xlink:href="#bz" x="62.06" y="165.5"/>
  <use xlink:href="#m" x="183.17" y="153.86"/>
  <use xlink:href="#bz" x="192.29" y="153.86"/>
  <path fill="none" stroke="#000" stroke-linecap="round" stroke-linejoin="round" stroke-miterlimit="8" stroke-width=".75" d="M204.1 185.7c0 3.34-4.76 6.05-10.62 6.05h-42.51c-5.86 0-10.62 2.71-10.62 6.05 0-3.34-4.76-6.05-10.62-6.05h-42.5c-5.87 0-10.63-2.71-10.63-6.05"/>
  <use xlink:href="#n" x="138.14" y="206.78"/>
  <use xlink:href="#bz" x="144.26" y="206.78"/>
  <path fill="none" stroke="#000" stroke-linecap="round" stroke-linejoin="round" stroke-miterlimit="8" stroke-width=".75" d="M76.6 160.95c0-2.5 1.26-4.53 2.81-4.53h11.25c1.55 0 2.82-2.02 2.82-4.52 0 2.5 1.25 4.52 2.8 4.52h11.26c1.55 0 2.81 2.03 2.81 4.53"/>
  <use xlink:href="#o" x="91.82" y="148.7"/>
  <use xlink:href="#bz" x="94.82" y="148.7"/>
  <use xlink:href="#p" x="119.42" y="226.94"/>
  <use xlink:href="#q" x="129.73" y="226.94"/>
  <use xlink:href="#r" x="136.69" y="226.94"/>
  <use xlink:href="#s" x="142.09" y="226.94"/>
  <use xlink:href="#F" x="145.09" y="226.94"/>
  <use xlink:href="#t" x="148.09" y="226.94"/>
  <use xlink:href="#u" x="154.09" y="226.94"/>
  <use xlink:href="#B" x="160.1" y="226.94"/>
</svg>
