<svg xmlns="http://www.w3.org/2000/svg" xmlns:xlink="http://www.w3.org/1999/xlink" width="350" height="200" viewBox="0 0 350 200">
  <defs>
    <path id="a" d="M2.52-7.52v3.14h1.73q.69 0 .9-.2.32-.26.35-.95h.22v2.76H5.5q-.07-.57-.16-.73a1 1 0 0 0-.36-.31q-.23-.12-.73-.13H2.52v2.61q0 .54.04.66.04.1.16.17.12.06.45.06h1.35q.67 0 .96-.1.31-.08.6-.35.36-.37.75-1.11h.23l-.68 2H.25v-.22h.28q.28 0 .53-.14.2-.1.25-.28.08-.19.08-.77v-5.15q0-.76-.16-.94-.22-.24-.7-.23H.25v-.22h6.13l.07 1.75h-.22q-.12-.62-.28-.86a1 1 0 0 0-.43-.36q-.24-.1-.83-.1Zm0 0"/>
    <path id="b" d="m.94-4.81 1.3-.63h.13v4.5q0 .46.04.56.02.12.14.18.12.04.5.06V0H1.03v-.14q.4 0 .5-.06a.3.3 0 0 0 .14-.16q.05-.09.05-.58V-3.8q0-.58-.03-.75a.4.4 0 0 0-.11-.19.3.3 0 0 0-.17-.06q-.15 0-.41.12Zm0 0"/>
    <path id="c" d="M3.69-1.03 3.3 0H.17v-.14A14 14 0 0 0 2.13-2.2q.56-.81.56-1.47 0-.52-.31-.85a1 1 0 0 0-.74-.32q-.4 0-.7.23-.32.24-.47.67H.33q.08-.71.5-1.1.4-.4 1.01-.4.66 0 1.08.42.44.42.44.97 0 .42-.19.82-.28.64-.94 1.36A33 33 0 0 1 1.02-.6H2.4q.42 0 .59-.04a1 1 0 0 0 .3-.12q.14-.1.25-.28Zm0 0"/>
    <path id="d" d="m.63-4.97 2.03-.33-.85 2.85a9 9 0 0 1 1.86-2.46q.47-.38.77-.39.2 0 .31.11t.1.33q0 .38-.2.74-.13.26-.4.26a.4.4 0 0 1-.23-.08.4.4 0 0 1-.11-.28q-.03-.1-.07-.14l-.1-.05a.4.4 0 0 0-.2.05q-.13.08-.45.45-.48.59-1.06 1.49-.25.39-.42.87-.25.67-.28.82L1.14 0H.25l1.08-3.64q.19-.62.19-.9a.3.3 0 0 0-.08-.18.5.5 0 0 0-.31-.1q-.14 0-.46.05Zm0 0"/>
    <path id="e" d="M4.98 0 3.72-3.86q-.45 0-.92-.1l-.7 2.41q-.12.47-.12.8 0 .24.18.38.12.1.7.15L2.8 0H-.28l.06-.22q.44 0 .6-.1a1 1 0 0 0 .35-.26q.2-.26.4-.97l1.39-4.8q.14-.47.14-.74a.6.6 0 0 0-.24-.46 1 1 0 0 0-.62-.18l.07-.22h2.58q1.32 0 1.88.5.58.48.58 1.3 0 .75-.6 1.4-.57.63-1.6.8l.77 2.33q.3.85.57 1.12.28.25.9.28L6.9 0ZM2.91-4.28q.37.05.65.05 1.02 0 1.6-.55.6-.56.59-1.4 0-.64-.37-1-.37-.35-1.1-.35-.18 0-.44.05Zm0 0"/>
  </defs>
  <path fill="none" stroke="#000" stroke-linejoin="round" stroke-miterlimit="10" stroke-width=".75" d="M205.32 88.76h102"/>
  <path fill="#fff" fill-rule="evenodd" d="M238.32 95.48h5.28v-12.72h-5.28Zm0 0"/>
  <path fill="none" stroke="#000" stroke-linejoin="round" stroke-miterlimit="10" d="M238.32 76.76v25.44"/>
  <path fill="none" stroke="#000" stroke-linejoin="round" stroke-miterlimit="10" stroke-width="2.5" d="M243.6 82.76v12.72"/>
  <path fill="#fff" fill-rule="evenodd" stroke="#000" stroke-linejoin="round" stroke-miterlimit="10" stroke-width="2" d="M258.6 92.48h19.44v-6.72H258.6Zm0 0"/>
  <path fill="none" stroke="#000" stroke-linejoin="round" stroke-miterlimit="10" stroke-width=".75" d="M205.32 143.48h102"/>
  <path fill="#fff" fill-rule="evenodd" d="M238.32 150.2h5.28v-12.72h-5.28Zm0 0"/>
  <path fill="none" stroke="#000" stroke-linejoin="round" stroke-miterlimit="10" d="M238.32 131.48v25.56"/>
  <path fill="none" stroke="#000" stroke-linejoin="round" stroke-miterlimit="10" stroke-width="2.5" d="M243.6 137.48v12.72"/>
  <path fill="#fff" fill-rule="evenodd" stroke="#000" stroke-linejoin="round" stroke-miterlimit="10" stroke-width="2" d="M258.6 147.2h19.44v-6.72H258.6Zm0 0"/>
  <path fill="none" stroke="#000" stroke-linejoin="round" stroke-miterlimit="10" stroke-width=".75" d="M205.32 143.48v-54.72m102.72 54.72v-54.72M180.6 116.48h24.72m102.72 0h24.72m0 74.28v-74.28M180.6 190.76v-74.28m0 75h152.16"/>
  <path fill="#fff" fill-rule="evenodd" stroke="#000" stroke-linejoin="round" stroke-miterlimit="10" stroke-width="2" d="M239.04 198.2h37.56v-14.16h-37.56Zm0 0"/>
  <use xlink:href="#a" x="222.48" y="77.48"/>
  <use xlink:href="#b" x="229.8" y="78.44"/>
  <use xlink:href="#bh" x="233.76" y="78.44"/>
  <use xlink:href="#a" x="219.48" y="132.92"/>
  <use xlink:href="#c" x="226.8" y="133.88"/>
  <use xlink:href="#bh" x="230.76" y="133.88"/>
  <use xlink:href="#d" x="264.48" y="78.2"/>
  <use xlink:href="#b" x="269.16" y="79.16"/>
  <use xlink:href="#bh" x="273.12" y="79.16"/>
  <use xlink:href="#d" x="263.64" y="132.92"/>
  <use xlink:href="#c" x="268.32" y="133.88"/>
  <use xlink:href="#bh" x="272.28" y="133.88"/>
  <use xlink:href="#e" x="253.2" y="177.2"/>
  <use xlink:href="#bh" x="260.52" y="178.16"/>
</svg>
