<svg xmlns="http://www.w3.org/2000/svg" xmlns:xlink="http://www.w3.org/1999/xlink" width="612" height="200" viewBox="0 0 612 200">
  <defs>
    <path id="g" d="M1.5-1.14q.28 0 .47.2t.19.46-.2.46a.66.66 0 0 1-.92 0 .7.7 0 0 1-.2-.46.64.64 0 0 1 .66-.66m0 0"/>
    <path id="a" d="M6.45 0H3.03v-.22q.68-.01.9-.17.24-.17.24-.72-1.97 0-2.84-.83a2.7 2.7 0 0 1-.88-2.08q0-.93.52-1.59.51-.66 1.26-.92.77-.25 1.94-.25 0-.5-.14-.66a1 1 0 0 0-.31-.22 3 3 0 0 0-.69-.07v-.22h3.42v.22q-.69.03-.9.21t-.25.74q1.26 0 1.98.28.73.27 1.25.9.52.65.52 1.58-.01 1.22-.86 2.07-.84.84-2.9.84.03.54.26.7.21.18.9.2ZM5.3-1.53q.87 0 1.37-.22.52-.24.85-.81.34-.6.34-1.46 0-.8-.34-1.37a1.7 1.7 0 0 0-.85-.77 4 4 0 0 0-1.37-.2Zm-1.13 0v-4.83q-.9 0-1.4.24-.5.22-.82.75-.32.52-.32 1.35 0 .93.39 1.54.38.6.9.78.53.17 1.25.17m0 0"/>
    <path id="b" d="m2.05-1.66 2.33-2.68q-.03-.45-.18-.61-.16-.2-.54-.2v-.22h2.5v.23q-.4 0-.54.08a1 1 0 0 0-.21.2q-.07.1-.07.75v2.84q0 .63.07.75.05.12.2.2.14.1.55.1V0h-2.6v-.22q.48 0 .64-.17t.17-.88v-2.51L2.06-1.1q0 .5.14.68.15.2.56.2V0H.27v-.22q.52 0 .67-.19.15-.18.14-.86V-4.1q0-.62-.06-.73a.5.5 0 0 0-.2-.2q-.14-.1-.55-.1v-.24h2.59v.24q-.4 0-.53.08a1 1 0 0 0-.2.2q-.08.1-.08.75Zm0 0"/>
    <path id="c" d="m4.63-5.37.21 1.46H4.6q-.22-.7-.45-.89-.22-.18-.95-.18H2.05v3.71q0 .63.06.75.08.12.2.2.15.1.55.1V0H.19v-.22Q.74-.23.9-.39t.17-.88V-4.1q0-.56-.06-.72a.4.4 0 0 0-.22-.23 2 2 0 0 0-.61-.08v-.24Zm0 0"/>
    <path id="i" d="m1.4-7.17 1.94-.94h.2v6.7q-.01.67.04.85.06.15.23.25.2.07.72.1V0H1.55v-.22q.56 0 .72-.1.16-.08.23-.23.06-.15.06-.86v-4.28q0-.87-.04-1.1a.5.5 0 0 0-.16-.29.4.4 0 0 0-.27-.1q-.21 0-.59.2Zm0 0"/>
    <path id="j" d="M5.5-1.53 4.95 0H.27v-.22a22 22 0 0 0 2.9-3.08q.84-1.2.85-2.18 0-.75-.47-1.24-.45-.5-1.11-.5-.58 0-1.05.34-.47.36-.69 1.02H.48q.16-1.09.75-1.67.61-.58 1.52-.58.96 0 1.6.63.67.6.67 1.45 0 .6-.29 1.22-.44.93-1.4 2A35 35 0 0 1 1.5-.9h2.08q.63 0 .89-.05.25-.05.45-.19.22-.13.36-.4Zm0 0"/>
    <path id="n" d="M8.4-7.95H5.91v.23c.66.05.88.16.88.5 0 .19-.08.52-.24.88L4.8-1.94 2.98-6c-.39-.9-.5-1.16-.5-1.33q0-.33.57-.37l.34-.02v-.23H.2v.23c.6.02.76.19 1.28 1.25L4.42.13h.19l2.67-6.74c.4-.95.53-1.08 1.11-1.1Zm0 0"/>
    <path id="p" d="M6.81-.19c-.53-.04-.76-.25-1-.87L4.71-4c.92-.2 1.3-.37 1.74-.75q.6-.52.61-1.36c0-1.1-.89-1.73-2.5-1.73H1.6v.2c.5.06.57.08.68.17.09.05.17.2.17.33 0 .14-.06.44-.14.75L.8-1.08c-.22.7-.3.78-.97.9V0h2.94v-.19c-.75-.1-.83-.15-.83-.56 0-.12.03-.25.16-.69l.67-2.51.78.06L5.03 0h1.78Zm-3.1-6.95c.06-.25.21-.33.6-.33q1.5 0 1.49 1.34-.01 1.8-2.27 1.8c-.22 0-.31-.01-.6-.06Zm0 0"/>
    <path id="q" d="M8.48-.23c-.54-.04-.65-.16-1.07-1.04l-3-6.82h-.24L1.67-2.2C.91-.44.75-.25.2-.23V0h2.37v-.23c-.58 0-.81-.14-.81-.49q0-.22.1-.47l.54-1.4h3.16l.48 1.15c.14.33.24.64.24.8 0 .3-.2.4-.85.4V0h3.06ZM2.6-3.08 4-6.39l1.38 3.31Zm0 0"/>
    <path id="s" d="M8.38-7.94H5.9v.22c.67.05.87.17.87.5q0 .32-.22.88L4.8-1.94 2.98-5.98c-.4-.9-.5-1.16-.5-1.33q0-.36.57-.38l.34-.03v-.22H.2v.22c.6.03.76.19 1.28 1.27L4.42.13h.19L7.27-6.6c.4-.96.53-1.1 1.1-1.13Zm0 0"/>
    <path id="t" d="M4.94-2.05A3 3 0 0 1 4.08-.4a2 2 0 0 1-1.4.58 2.1 2.1 0 0 1-1.6-.76A3 3 0 0 1 .4-2.67q0-1.27.75-2.06.76-.8 1.8-.8.8 0 1.3.42.52.42.52.88 0 .21-.14.36t-.4.14q-.35 0-.52-.24-.09-.1-.13-.45-.03-.36-.25-.53a.8.8 0 0 0-.56-.2q-.6 0-.94.45-.48.58-.48 1.51 0 .98.47 1.7.48.74 1.28.74.58 0 1.03-.4.33-.26.63-.98Zm0 0"/>
    <path id="u" d="M.16-5.37h2.53v.21q-.24 0-.35.1a.3.3 0 0 0-.09.2q0 .14.2.44l.2.3.38.6.44-.6q.42-.58.42-.74a.3.3 0 0 0-.1-.2q-.1-.1-.32-.1v-.21H5.3v.21a1 1 0 0 0-.5.16q-.3.2-.8.88l-.72.98 1.33 1.92q.5.7.7.85.22.13.55.15V0H3.33v-.22q.26 0 .4-.1.1-.09.11-.23t-.37-.67l-.78-1.15-.86 1.15q-.41.53-.4.63 0 .14.12.26.14.12.4.11V0H.2v-.22q.21 0 .36-.14.23-.17.75-.86l1.14-1.5L1.42-4.2q-.44-.63-.67-.78a1 1 0 0 0-.6-.18Zm0 0"/>
    <path id="v" d="M1.28-3.34q-.02 1.18.58 1.87.6.67 1.37.67.53 0 .93-.28.38-.3.65-1l.19.13a3 3 0 0 1-.72 1.47q-.6.65-1.48.65-.97 0-1.66-.75A3 3 0 0 1 .45-2.6q0-1.37.7-2.14a2.3 2.3 0 0 1 1.77-.78 2 2 0 0 1 1.49.6q.6.6.59 1.59Zm0-.35h2.49a2 2 0 0 0-.13-.72q-.15-.32-.44-.51-.28-.2-.6-.19-.5 0-.88.38T1.28-3.7m0 0"/>
    <path id="B" d="m3.84-1.4 1.7-3.97h1.8v.23q-.4 0-.54.08a1 1 0 0 0-.2.2q-.07.1-.07.75v2.84q0 .57.05.74.06.15.23.23t.53.08V0h-2.6v-.22q.47 0 .63-.17.18-.18.18-.88v-3.21L3.65 0h-.21L1.52-4.48v3.21q0 .57.04.74.06.15.24.23t.53.08V0H.27v-.22q.52 0 .67-.19.15-.18.14-.86V-4.1q0-.62-.06-.73a.5.5 0 0 0-.2-.2q-.14-.1-.55-.1v-.24h1.89Zm0 0"/>
    <path id="C" d="M3.42-.78q-.83.65-1.04.75-.33.15-.68.14-.54 0-.92-.38a1.4 1.4 0 0 1-.36-1q0-.4.19-.68.24-.38.83-.74.6-.36 1.98-.87v-.2q0-.82-.26-1.12t-.74-.3a.8.8 0 0 0-.58.21q-.23.21-.23.45l.01.35a.6.6 0 0 1-.14.42q-.14.15-.35.14a.5.5 0 0 1-.36-.16.6.6 0 0 1-.13-.4q0-.52.52-.94a2.2 2.2 0 0 1 1.43-.42q.72 0 1.18.25.35.17.51.56.1.25.11 1.03v1.83q0 .76.03.94t.1.23q.05.05.15.05t.16-.03q.12-.08.48-.44v.33q-.65.9-1.26.89a.6.6 0 0 1-.46-.2q-.17-.2-.17-.7m0-.38V-3.2q-.9.36-1.14.5-.47.27-.67.54-.2.3-.2.61 0 .43.25.7a.8.8 0 0 0 .59.29q.44 0 1.17-.6m0 0"/>
    <path id="D" d="m1.4-7.17 1.94-.94h.2v6.7q0 .67.05.85.06.15.24.25.17.07.72.1V0h-3v-.22q.56 0 .72-.1.16-.08.23-.23.06-.15.06-.86v-4.28q0-.87-.04-1.1a.5.5 0 0 0-.16-.29.4.4 0 0 0-.27-.1q-.2 0-.59.2Zm0 0"/>
    <path id="E" d="M5.52-1.53 4.95 0H.27v-.22a22 22 0 0 0 2.9-3.08q.84-1.2.85-2.18 0-.75-.47-1.24-.45-.5-1.1-.5-.6 0-1.06.34-.47.36-.69 1.02H.48q.16-1.09.75-1.67.61-.58 1.52-.58.96 0 1.6.63.67.6.67 1.45 0 .6-.29 1.22-.42.93-1.4 2A44 44 0 0 1 1.52-.9h2.06q.63 0 .89-.05t.47-.19.36-.4Zm0 0"/>
    <path id="F" d="M6.84-.19c-.53-.04-.76-.25-1-.86L4.72-3.98c.94-.2 1.33-.36 1.76-.75q.62-.54.63-1.35c0-1.12-.9-1.73-2.52-1.73h-3v.2c.52.06.57.08.7.16.08.06.16.2.16.34s-.06.42-.14.75L.83-1.08c-.22.7-.31.78-.99.9V0H2.8v-.19c-.75-.1-.83-.14-.83-.56 0-.12.03-.23.14-.69l.69-2.5.78.06L5.06 0h1.78ZM3.72-7.1c.08-.25.23-.34.62-.34q1.5 0 1.49 1.36 0 1.77-2.28 1.78c-.22 0-.32-.02-.61-.07Zm0 0"/>
    <path id="J" d="M-.1 0h3.41c1.9 0 3.2-.97 3.2-2.4 0-.87-.37-1.3-1.53-1.8.86-.2 1.22-.35 1.6-.67q.52-.45.53-1.18c0-1.14-.86-1.76-2.42-1.76H1.56v.2c.77.06.94.14.94.49 0 .18-.05.48-.12.76L.88-1.08c-.2.7-.3.77-.97.9Zm2.98-3.95c.76 0 1.3.04 1.53.14.5.2.8.72.8 1.37 0 1.3-.9 2.08-2.37 2.08q-.77 0-.78-.5 0-.25.42-1.67c.16-.52.25-.88.4-1.42m.9-3.16c.08-.26.22-.34.69-.34.98 0 1.4.4 1.4 1.3 0 .68-.28 1.21-.8 1.5-.41.23-1 .32-2.07.3Zm0 0"/>
    <path id="K" d="m7.88-5.56.45-2.38h-.27c-.1.19-.22.27-.45.27-.11 0-.24-.03-.5-.08a6 6 0 0 0-1.4-.2A5.13 5.13 0 0 0 .8-2.91 3 3 0 0 0 3.95.22c1.24 0 2.2-.52 3.3-1.78l-.2-.17C5.95-.7 5.25-.33 4.27-.33c-1.35 0-2.11-.89-2.11-2.44 0-1.43.57-2.87 1.51-3.84.58-.6 1.35-.92 2.14-.92q1.66 0 1.85 1.94Zm0 0"/>
    <path id="G" d="M2-5.27q-.64 0-1.06.41C.48-4.42.19-3.53.19-2.6c0 .84.26 1.75.62 2.19Q1.27.1 1.97.1q.59 0 1.01-.4c.46-.43.75-1.33.75-2.27 0-1.6-.7-2.7-1.73-2.7m-.03.2c.67 0 1.01.9 1.01 2.52q0 2.45-1.01 2.46Q.94-.1.94-2.55q.01-2.5 1.03-2.51m0 0"/>
    <path id="H" d="M6.83-.19c-.53-.04-.77-.25-1-.86L4.7-3.97c.94-.2 1.33-.37 1.77-.76q.6-.52.6-1.35c0-1.1-.88-1.72-2.5-1.72H1.6v.2c.5.07.57.08.7.16.08.07.16.2.16.33q0 .26-.15.77L.8-1.08c-.2.7-.3.78-.97.9V0h2.94v-.19c-.75-.1-.81-.14-.81-.56 0-.12.01-.23.14-.69l.67-2.48.78.04L5.05 0h1.78ZM3.7-7.1c.08-.25.24-.33.63-.33q1.49 0 1.48 1.35 0 1.77-2.26 1.78c-.22 0-.32-.02-.63-.07Zm0 0"/>
    <path id="L" d="M1.56-7.6c.77.07.94.16.94.5 0 .16-.05.44-.14.76L.88-1.08c-.22.7-.3.77-.97.9V0h3.04c1.4 0 2.7-.37 3.63-1.03a4.4 4.4 0 0 0 1.86-3.55c0-1.97-1.38-3.22-3.52-3.22H1.56Zm2.2.5c.08-.26.27-.34.74-.34.69 0 1.3.16 1.69.44.58.42.9 1.19.9 2.13 0 1.3-.5 2.62-1.32 3.43A4 4 0 0 1 2.83-.36c-.55 0-.78-.12-.78-.44 0-.15.06-.39.26-1.14Zm0 0"/>
    <path id="M" d="M6.8-.19c-.7-.06-.77-.15-.92-1.03L4.75-7.97h-.31L.94-2C-.02-.42-.12-.28-.61-.19V0h2.25v-.19C1.04-.25.92-.3.92-.6c0-.22.05-.33.25-.73l.69-1.36H4.5l.25 1.56.02.31c0 .45-.16.56-.94.64V0H6.8ZM2.1-3.12l1.82-3.11.52 3.1Zm0 0"/>
    <path id="I" d="M1.98-5.25q-.62 0-1.04.4C.48-4.4.19-3.51.19-2.6c0 .86.26 1.75.62 2.19Q1.27.1 1.95.1q.6 0 1.02-.4c.45-.43.75-1.33.75-2.27 0-1.6-.7-2.69-1.74-2.69m-.01.2c.66 0 1 .88 1 2.5q0 2.45-1.02 2.46-1 0-1.01-2.46c0-1.64.36-2.5 1.03-2.5m0 0"/>
    <path id="N" d="M2.02-1.12q.25 0 .45.18a.6.6 0 0 1 0 .9.6.6 0 0 1-.45.2.6.6 0 0 1-.47-.2.6.6 0 0 1-.2-.44q0-.29.2-.46a.6.6 0 0 1 .47-.19m4.03 0q.26 0 .45.18.2.2.19.46 0 .26-.19.45a.6.6 0 0 1-.45.19.6.6 0 0 1-.47-.2.6.6 0 0 1-.19-.44q0-.29.19-.46a.6.6 0 0 1 .47-.19m4.01 0a.64.64 0 0 1 .66.64q0 .26-.19.45a.6.6 0 0 1-.47.19.7.7 0 0 1-.47-.2.6.6 0 0 1-.18-.44q0-.29.18-.46a.7.7 0 0 1 .47-.19m0 0"/>
    <clipPath id="k">
      <path d="M83.15 106H151v20H83.15Zm0 0"/>
    </clipPath>
    <clipPath id="l">
      <path d="M83.15 124H150v28H83.15Zm0 0"/>
    </clipPath>
    <clipPath id="m">
      <path d="M114 142h5v18.85h-5Zm0 0"/>
    </clipPath>
    <clipPath id="r">
      <path d="M213 105h39.65v20H213Zm0 0"/>
    </clipPath>
  </defs>
  <use xlink:href="#a" x="146.18" y="171.62"/>
  <use xlink:href="#b" x="155.66" y="171.62"/>
  <use xlink:href="#c" x="162.13" y="171.62"/>
  <use xlink:href="#g" x="167.05" y="171.62"/>
  <use xlink:href="#o" x="170.05" y="171.62"/>
  <use xlink:href="#i" x="173.05" y="171.62"/>
  <use xlink:href="#g" x="179.05" y="171.62"/>
  <use xlink:href="#i" x="182.05" y="171.62"/>
  <use xlink:href="#h" x="188.09" y="171.62"/>
  <use xlink:href="#h" x="533.76" y="160.82"/>
  <use xlink:href="#a" x="386.71" y="171.62"/>
  <use xlink:href="#b" x="396.19" y="171.62"/>
  <use xlink:href="#c" x="402.66" y="171.62"/>
  <use xlink:href="#g" x="407.58" y="171.62"/>
  <use xlink:href="#o" x="410.58" y="171.62"/>
  <use xlink:href="#i" x="413.58" y="171.62"/>
  <use xlink:href="#g" x="419.58" y="171.62"/>
  <use xlink:href="#j" x="422.58" y="171.62"/>
  <use xlink:href="#h" x="428.62" y="171.62"/>
  <g clip-path="url(#k)">
    <path fill="none" stroke="#000" stroke-linejoin="round" stroke-miterlimit="10" stroke-width=".6" d="M.9 36.3h66.6v18.6H.9Zm0 0" transform="matrix(.99477 0 0 -.99339 83.15 160.85)"/>
  </g>
  <g clip-path="url(#l)">
    <path fill="none" stroke="#000" stroke-linejoin="round" stroke-miterlimit="10" stroke-width=".6" d="M.9 9.3h66v27H.9Zm0 0" transform="matrix(.99477 0 0 -.99339 83.15 160.85)"/>
  </g>
  <g clip-path="url(#m)">
    <path fill="#fff" fill-rule="evenodd" d="M114.79 160.25h4.17v-17.28h-4.17Zm0 0"/>
  </g>
  <path fill="none" stroke="#000" stroke-linejoin="round" stroke-miterlimit="10" stroke-width=".6" d="M36.3 18.3V1.52M32.1 13.5V5.1" transform="matrix(.99477 0 0 -.99339 83.15 160.85)"/>
  <path fill="#fff" fill-rule="evenodd" stroke="#000" stroke-linejoin="round" stroke-miterlimit="10" stroke-width=".6" d="M36.3 32.1h25.2v8.4H36.3Zm3.6 22.5a8.7 8.7 0 1 0 17.4 0 8.7 8.7 0 0 0-17.4 0Zm0 0" transform="matrix(.99477 0 0 -.99339 83.15 160.85)"/>
  <use xlink:href="#n" x="127.17" y="110.96"/>
  <use xlink:href="#p" x="127.49" y="139.94"/>
  <path fill="#fff" fill-rule="evenodd" stroke="#000" stroke-linejoin="round" stroke-miterlimit="10" stroke-width=".6" d="M7.5 35.7c0 4.64 3.9 8.4 8.7 8.4s8.7-3.76 8.7-8.4-3.9-8.4-8.7-8.4-8.7 3.76-8.7 8.4Zm0 0" transform="matrix(.99477 0 0 -.99339 83.15 160.85)"/>
  <use xlink:href="#q" x="95.24" y="128.96"/>
  <g clip-path="url(#r)">
    <path fill="none" stroke="#000" stroke-linejoin="round" stroke-miterlimit="10" stroke-width=".6" d="M131.1 36.9h38.4v18.6h-38.4Zm0 0" transform="matrix(.99477 0 0 -.99339 83.15 160.85)"/>
  </g>
  <path fill="none" stroke="#000" stroke-linejoin="round" stroke-miterlimit="10" stroke-width=".6" d="M102.9 10.5h66v26.4h-66Zm0 0" transform="matrix(.99477 0 0 -.99339 83.15 160.85)"/>
  <path fill="#fff" fill-rule="evenodd" d="M216.25 159.06h4.18v-16.69h-4.18Zm0 0"/>
  <path fill="none" stroke="#000" stroke-linejoin="round" stroke-miterlimit="10" stroke-width=".6" d="M138.3 18.9V2.12m-4.2 12.58V6.3" transform="matrix(.99477 0 0 -.99339 83.15 160.85)"/>
  <path fill="#fff" fill-rule="evenodd" stroke="#000" stroke-linejoin="round" stroke-miterlimit="10" stroke-width=".6" d="M138.3 33.3h25.2v7.8h-25.2Zm3.6 21.9a8.7 8.7 0 1 0 17.4 0 8.7 8.7 0 0 0-17.4 0Zm0 0" transform="matrix(.99477 0 0 -.99339 83.15 160.85)"/>
  <use xlink:href="#s" x="229.01" y="110.16"/>
  <use xlink:href="#p" x="229.31" y="139.15"/>
  <path fill="#fff" fill-rule="evenodd" stroke="#000" stroke-linejoin="round" stroke-miterlimit="10" stroke-width=".6" d="M109.5 36.6a8.7 8.7 0 1 0 17.4-.01 8.7 8.7 0 0 0-17.4.01Zm0 0" transform="matrix(.99477 0 0 -.99339 83.15 160.85)"/>
  <use xlink:href="#q" x="197.05" y="128.17"/>
  <use xlink:href="#t" x="96.73" y="87.14"/>
  <use xlink:href="#u" x="102.13" y="87.14"/>
  <use xlink:href="#v" x="108.07" y="87.14"/>
  <use xlink:href="#B" x="113.38" y="87.14"/>
  <use xlink:href="#C" x="121.09" y="87.14"/>
  <use xlink:href="#bK" x="126.41" y="87.14"/>
  <use xlink:href="#D" x="128.14" y="87.14"/>
  <use xlink:href="#t" x="201.35" y="87.54"/>
  <use xlink:href="#u" x="206.75" y="87.54"/>
  <use xlink:href="#v" x="212.7" y="87.54"/>
  <use xlink:href="#B" x="218.01" y="87.54"/>
  <use xlink:href="#C" x="225.72" y="87.54"/>
  <use xlink:href="#bK" x="231.04" y="87.54"/>
  <use xlink:href="#E" x="232.77" y="87.54"/>
  <path fill="none" stroke="#000" stroke-miterlimit="10" stroke-width=".6" d="M22.5 61.5h51m-51-52.2h51" transform="matrix(.99764 0 0 -.98826 281.7 160.85)"/>
  <path d="M305.04 100.06v50.52h-.6v-50.52Zm-2.29 0c0-1.09.9-1.97 2-1.97s2 .88 2 1.97c0 1.1-.9 1.98-2 1.98s-2-.88-2-1.98m4 50.52c0 1.1-.9 1.98-2 1.98s-2-.88-2-1.98c0-1.09.9-1.97 2-1.97s2 .88 2 1.97m0 0"/>
  <path fill="#fff" fill-rule="evenodd" stroke="#000" stroke-miterlimit="10" stroke-width=".6" d="M19.5 22.5h7.8v27.61h-7.8Zm15.6 34.8h28.2v7.81H35.1Zm.6-51h28.2v7.8H35.7Zm0 0" transform="matrix(.99764 0 0 -.98826 281.7 160.85)"/>
  <use xlink:href="#F" x="327.79" y="143.28"/>
  <use xlink:href="#G" x="334.97" y="145.65"/>
  <use xlink:href="#H" x="326.47" y="113.5"/>
  <use xlink:href="#I" x="333.65" y="115.9"/>
  <use xlink:href="#F" x="310.86" y="130.85"/>
  <use xlink:href="#I" x="318.06" y="133.22"/>
  <use xlink:href="#J" x="289.38" y="154.02"/>
  <use xlink:href="#K" x="515" y="102.29"/>
  <use xlink:href="#L" x="515.48" y="151.75"/>
  <use xlink:href="#H" x="518.99" y="128.72"/>
  <use xlink:href="#M" x="290.98" y="104.07"/>
  <use xlink:href="#N" x="419.97" y="100.24"/>
  <path fill="none" stroke="#000" stroke-miterlimit="10" stroke-width=".6" d="M74.7 61.5h51m-51-52.2h51" transform="matrix(.99764 0 0 -.98826 281.7 160.85)"/>
  <path d="M357.12 100.06v50.52h-.6v-50.52Zm-2.3 0c0-1.09.9-1.97 2-1.97s2 .88 2 1.97c0 1.1-.9 1.98-2 1.98s-2-.88-2-1.98m4 50.52c0 1.1-.9 1.98-2 1.98s-2-.88-2-1.98c0-1.09.9-1.97 2-1.97s2 .88 2 1.97m0 0"/>
  <path fill="#fff" fill-rule="evenodd" stroke="#000" stroke-miterlimit="10" stroke-width=".6" d="M71.7 22.5h7.8v27.61h-7.8Zm15.6 34.8h28.2v7.81H87.3Zm.6-51h28.2v7.8H87.9Zm0 0" transform="matrix(.99764 0 0 -.98826 281.7 160.85)"/>
  <path fill="none" stroke="#000" stroke-miterlimit="10" stroke-width=".6" d="m163.5 61.5 62.36-.1M165.3 9.9h61.56" transform="matrix(.99764 0 0 -.98826 281.7 160.85)"/>
  <path d="M457.09 100.06v50.52h-.6v-50.52Zm-2.3 0c0-1.09.89-1.97 2-1.97a1.98 1.98 0 1 1 0 3.95c-1.11 0-2-.88-2-1.98m4 50.52c0 1.1-.9 1.98-2 1.98-1.11 0-2-.88-2-1.98 0-1.09.89-1.97 2-1.97s2 .88 2 1.97m0 0"/>
  <path fill="#fff" fill-rule="evenodd" stroke="#000" stroke-miterlimit="10" stroke-width=".6" d="M171.9 22.5h7.8v27.61h-7.8Zm15.6 34.8h28.2v7.81h-28.2Zm.6-51h28.2v7.8h-28.2Zm0 0" transform="matrix(.99764 0 0 -.98826 281.7 160.85)"/>
  <path d="M509.76 100.06v50.52h-.6v-50.52Zm-2.3 0c0-1.09.9-1.97 2-1.97a1.98 1.98 0 1 1 0 3.95c-1.1 0-2-.88-2-1.98m4 50.52c0 1.1-.89 1.98-2 1.98s-2-.88-2-1.98c0-1.09.9-1.97 2-1.97 1.11 0 2 .88 2 1.97m0 0"/>
  <path fill="#fff" fill-rule="evenodd" stroke="#000" stroke-miterlimit="10" stroke-width=".6" d="M224.7 22.5h7.8v27.61h-7.8Zm0 0" transform="matrix(.99764 0 0 -.98826 281.7 160.85)"/>
  <path fill="none" stroke="#000" stroke-dasharray="2.4024 1.8018" stroke-miterlimit="10" stroke-width=".6" d="M17.7 1.5h49.8v70.2H17.7Zm52.2.6h49.8v70.2H69.9Zm99 .61h49.8v70.2h-49.8Zm0 0" transform="matrix(.99764 0 0 -.98826 281.7 160.85)"/>
  <use xlink:href="#N" x="422.39" y="152.84"/>
</svg>
