<svg xmlns="http://www.w3.org/2000/svg" xmlns:xlink="http://www.w3.org/1999/xlink" width="595.32" height="841.92" viewBox="0 0 595.32 841.92">
  <defs>
    <path id="a" d="m5.03-5.31.55-.4.37.1-.86 3.72q-.14.55-.14.86 0 .24.08.34.07.12.25.11a.6.6 0 0 0 .36-.14q.2-.15.58-.55l.33.33q-.54.57-.9.8-.38.24-.8.23a.8.8 0 0 1-.58-.23 1 1 0 0 1-.22-.64q0-.33.12-.69l-.06-.03q-.57.83-1.08 1.22-.5.37-1.06.37-.64 0-1-.48A2.3 2.3 0 0 1 .6-1.77q0-.99.39-1.92a3.6 3.6 0 0 1 1.1-1.47 2.5 2.5 0 0 1 2.24-.45q.34.08.7.3m-.51 1.75a3 3 0 0 0 .09-.8q0-.45-.2-.66t-.66-.21q-.6 0-1.08.48a3 3 0 0 0-.75 1.31 5 5 0 0 0-.26 1.63q0 .6.15.9.17.3.56.3.4 0 .77-.33.37-.32.77-.95.38-.63.56-1.42Zm0 0"/>
    <path id="f" d="M2.58-4.1q.54-.82 1.08-1.21.52-.4 1.07-.4.57 0 .85.34.3.3.3.92v.17q.5-.72 1-1.06.49-.36 1.04-.36.53 0 .83.3.3.32.3.88 0 .38-.18 1.05l-.39 1.55q-.15.63-.15.89 0 .24.08.34.07.12.25.11a.6.6 0 0 0 .36-.14q.2-.15.57-.55l.33.33a5 5 0 0 1-.87.78Q8.67.1 8.19.1a.8.8 0 0 1-.61-.26 1 1 0 0 1-.24-.7q0-.38.2-1.13l.26-1q.14-.55.18-.81.05-.27.05-.44 0-.4-.14-.58-.13-.18-.44-.19a1 1 0 0 0-.53.2 3 3 0 0 0-.6.57q-.3.4-.5.77t-.3.92L4.98 0H3.97l.67-2.98.17-.8q.05-.27.05-.45 0-.43-.16-.6-.15-.18-.47-.19a1 1 0 0 0-.5.2q-.28.18-.6.59-.33.4-.52.78-.18.38-.3.92L1.77 0H.75l.84-3.72q.15-.56.14-.86a.6.6 0 0 0-.07-.34q-.09-.1-.25-.11a.6.6 0 0 0-.38.16q-.2.14-.56.53l-.33-.33q.51-.53.9-.78.36-.25.8-.25.38 0 .58.25.22.23.22.62 0 .33-.12.69Zm0 0"/>
    <path id="b" d="M1.44.5q-.12.14-.19.27a1 1 0 0 0-.14.55q0 .44.31.63.3.2.96.2.71 0 1.15-.32T4.28.8q.3-.72.61-2.2h-.08q-.58.78-1.06 1.13A1.7 1.7 0 0 1 2.7.1q-.64 0-1-.48a2.3 2.3 0 0 1-.34-1.38q0-.99.39-1.92.39-.91 1.08-1.47a2.5 2.5 0 0 1 2.26-.45q.33.08.66.3l.53-.4.38.1-.6 2.74-.3 1.43Q5.54-.2 5.39.31T5 1.23a2.6 2.6 0 0 1-1.42 1.22q-.5.17-1.19.17-2.22 0-2.22-1.3 0-.32.2-.59t.65-.56ZM3.13-.6q.29 0 .59-.21t.62-.64q.35-.45.54-.86.18-.4.3-1 .15-.6.15-1.05t-.2-.67q-.19-.2-.65-.2-.6 0-1.07.48t-.75 1.31a5 5 0 0 0-.27 1.63q0 .6.17.9.19.3.56.3m0 0"/>
    <path id="c" d="m1.66-.22-.61 2.75H.09l1.2-5.3q.18-.93.59-1.56t1-1q.6-.37 1.4-.37.56 0 1 .23t.66.67q.21.45.22 1.08 0 1-.4 1.9a3.4 3.4 0 0 1-1.09 1.4q-.69.51-1.54.51a4 4 0 0 1-1.47-.3M2.2-2.5l-.2.95-.03.2-.02.2q0 .37.3.57t.83.2q.6 0 1.06-.48t.72-1.34.26-1.72q0-.37-.07-.66a1 1 0 0 0-.3-.47 1 1 0 0 0-.62-.18q-.23 0-.43.07t-.42.29q-.23.19-.42.51-.21.31-.36.75T2.2-2.5m0 0"/>
    <path id="d" d="M.44 0v-.2Q.72-.28.8-.4q.1-.15.1-.52v-2.14q0-.39-.12-.52-.1-.14-.34-.19v-.2h1.81q.85 0 1.23.22.38.23.38.73 0 .6-.75.9v.04q.87.24.87.97 0 .55-.39.83Q3.21 0 2.27 0ZM1.6-3.66v1.43h.5q.56 0 .78-.2.22-.18.22-.54t-.23-.53-.79-.17Zm0 1.74v1.6h.53q.6 0 .84-.2a.8.8 0 0 0 .24-.6q0-.39-.24-.6-.21-.2-.78-.2Zm0 0"/>
    <clipPath id="e">
      <path d="M146 426h8v8.52h-8Zm0 0"/>
    </clipPath>
  </defs>
  <path fill="#fff" fill-rule="evenodd" d="M61.93 679.07H173.9v-82.81H61.93Zm0 0"/>
  <path fill="#d8d8d8" fill-rule="evenodd" d="M66.57 672.82h105.29v-40.45H66.57Zm0 0"/>
  <path fill="none" stroke="#000" stroke-linejoin="round" stroke-miterlimit="10" stroke-width=".75" d="M172.45 632.42H66.02"/>
  <use xlink:href="#a" x="116.53" y="615.65"/>
  <use xlink:href="#aw" x="123.48" y="615.65"/>
  <path fill="#7f7f7f" fill-rule="evenodd" stroke="#000" stroke-linecap="round" stroke-miterlimit="8" stroke-width="1.5" d="M107.13 644.45h25.92v-24.47h-25.92Zm0 0"/>
  <path fill="none" stroke="#000" stroke-linejoin="round" stroke-miterlimit="8" d="M120.06 644.16v28.46"/>
  <path fill="none" stroke="#000" stroke-linejoin="round" stroke-miterlimit="8" stroke-width="1.5" d="M171.86 609.34v63.48M66.18 609.6v63.42m106.17-.15H65.93"/>
  <use xlink:href="#b" x="151.53" y="613.85"/>
  <use xlink:href="#aw" x="159.08" y="613.85"/>
  <path d="M148.38 603.2v17.93h-1V603.2Zm-.5 17.93 2-2-2 6-2-6Zm0 0"/>
  <use xlink:href="#c" x="93.28" y="657.96"/>
  <use xlink:href="#d" x="99.51" y="660.39"/>
  <use xlink:href="#aw" x="104.54" y="657.96"/>
  <path fill="#fff" fill-rule="evenodd" d="M67.27 501.42h90.45V395.34H67.27Zm0 0"/>
  <path fill="none" stroke="#000" stroke-linejoin="round" stroke-miterlimit="8" d="M105.03 430.75v31.21"/>
  <path fill="#fff" fill-rule="evenodd" stroke="#000" stroke-linecap="round" stroke-linejoin="round" stroke-miterlimit="8" stroke-width="1.5" d="M92.14 417.16c-6.98 0-12.63 5.5-12.63 12.29s5.65 12.28 12.63 12.28 12.64-5.5 12.64-12.28-5.66-12.29-12.64-12.29m0 0"/>
  <path d="M92.84 402.98v26.97h-1.5v-26.97Zm1.25 26.97a2 2 0 1 1-2-2 2 2 0 0 1 2 2m0 0"/>
  <path fill="none" stroke="#000" stroke-linejoin="round" stroke-miterlimit="8" d="M79.16 430.5v53.89"/>
  <g clip-path="url(#e)">
    <use xlink:href="#b" x="146.49" y="431.76"/>
  </g>
  <use xlink:href="#aw" x="154.04" y="431.76"/>
  <path d="M142.89 418.61v21.78h-1V418.6Zm-.5 21.78 2-2-2 6-2-6Zm0 0"/>
  <path fill="none" stroke="#000" stroke-linejoin="round" stroke-miterlimit="8" d="M130.95 403.23v58.93"/>
  <path fill="#fff" fill-rule="evenodd" stroke="#000" stroke-linecap="round" stroke-miterlimit="8" stroke-width="1.5" d="M68.82 500.62H89.9v-20.68H68.82Zm0 0"/>
  <path fill="none" stroke="#000" stroke-linejoin="round" stroke-miterlimit="8" stroke-width="1.5" d="M72.27 402.83h73.66"/>
  <path fill="none" stroke="#000" stroke-linejoin="round" stroke-miterlimit="8" stroke-width=".75" d="m74.07 402.98 9.54-5.44m-1.11 5.54 9.5-5.54m8.34 5.44 9.53-5.5m-18.67 5.6 9.53-5.54m7.84 5.84 9.5-5.5m-.75 5.2 9.54-5.5m-.46 5.9 9.5-5.5m.55 4.9 8.43-4.94"/>
  <use xlink:href="#f" x="74.22" y="493.87"/>
  <use xlink:href="#aw" x="84.53" y="493.87"/>
  <path fill="#fff" fill-rule="evenodd" stroke="#000" stroke-linecap="round" stroke-linejoin="round" stroke-miterlimit="8" stroke-width="1.5" d="M117.91 473.5c-6.98 0-12.63-5.5-12.63-12.29s5.65-12.28 12.63-12.28 12.64 5.5 12.64 12.28c0 6.79-5.65 12.29-12.64 12.29m0 0"/>
  <path d="M117.12 488.33v-26.97h1.5v26.97Zm-1.25-26.97a2 2 0 0 1 4 0 2 2 0 0 1-2 2 2 2 0 0 1-2-2m0 0"/>
  <path fill="#fff" fill-rule="evenodd" stroke="#000" stroke-linecap="round" stroke-miterlimit="8" stroke-width="1.5" d="M107.63 500.77h21.07v-20.68h-21.07Zm0 0"/>
  <use xlink:href="#f" x="112.93" y="493.75"/>
  <use xlink:href="#aw" x="123.24" y="493.75"/>
</svg>
