<svg xmlns="http://www.w3.org/2000/svg" xmlns:xlink="http://www.w3.org/1999/xlink" width="595.32" height="841.92" viewBox="0 0 595.32 841.92">
  <defs>
    <path id="c" d="M4.5-4.31h-.56q-.15-.36-.31-.57a1 1 0 0 0-.41-.28 2 2 0 0 0-.53-.07q-.46 0-.75.21a.7.7 0 0 0-.28.6q0 .27.1.45.12.18.35.33.24.15.83.4.6.26.92.47.33.22.52.52.18.28.18.67 0 .47-.15.78t-.46.52q-.27.2-.68.28-.4.1-.86.1-.49 0-.96-.08Q1-.04.55-.18v-1.21h.57q.15.53.47.78.32.24.86.24.2 0 .4-.04t.37-.14a1 1 0 0 0 .25-.28 1 1 0 0 0 .1-.45q0-.3-.13-.49-.12-.18-.36-.34-.24-.15-.86-.42a6 6 0 0 1-.86-.42 2 2 0 0 1-.5-.5q-.2-.3-.19-.7 0-.47.27-.82.25-.36.75-.55.5-.18 1.15-.18.39 0 .75.04t.91.14Zm0 0"/>
    <path id="o" d="M2.58-4.1q.54-.82 1.08-1.21.52-.4 1.07-.4.57 0 .85.34.3.3.3.92v.17q.5-.72 1-1.06.49-.36 1.04-.36.53 0 .83.3.3.32.3.88 0 .38-.18 1.05l-.39 1.55q-.15.63-.15.89 0 .24.08.34.07.12.25.11a.6.6 0 0 0 .36-.14q.2-.15.57-.55l.33.33a5 5 0 0 1-.87.78Q8.67.1 8.19.1a.8.8 0 0 1-.61-.26 1 1 0 0 1-.24-.7q0-.38.2-1.13l.26-1q.14-.55.18-.81.05-.27.05-.44 0-.4-.14-.58-.13-.18-.44-.19a1 1 0 0 0-.53.2 3 3 0 0 0-.6.57q-.3.4-.5.77t-.3.92L4.98 0H3.97l.67-2.98.17-.8q.05-.27.05-.45 0-.43-.16-.6-.15-.18-.47-.19a1 1 0 0 0-.5.2q-.28.18-.6.59-.33.4-.52.78-.18.38-.3.92L1.77 0H.75l.84-3.72q.15-.56.14-.86a.6.6 0 0 0-.07-.34q-.09-.1-.25-.11a.6.6 0 0 0-.38.16q-.2.14-.56.53l-.33-.33q.51-.53.9-.78.36-.25.8-.25.38 0 .58.25.22.23.22.62 0 .33-.12.69Zm0 0"/>
    <path id="p" d="M8.03-8h1.85l-.07.28a1 1 0 0 0-.31.11l-.19.19q-.07.11-.15.36-.09.25-.2.81l-1 4.55-.12.54-.01.36q0 .26.12.38.15.1.46.14L8.34 0H6l.06-.28a1 1 0 0 0 .33-.13.5.5 0 0 0 .19-.22q.08-.13.14-.34.08-.2.2-.78l.78-3.53q.15-.73.38-1.45H8q-.18.35-.83 1.4L4.5-.93h-.62l-.5-3.77q-.1-.8-.24-2.14h-.1q-.22 1.3-.46 2.43l-.6 2.7a4 4 0 0 0-.12.91q0 .26.12.38.15.1.46.14L2.38 0H.33l.06-.28a1 1 0 0 0 .33-.13A1 1 0 0 0 .9-.63q.08-.13.14-.34l.2-.78.98-4.52a6 6 0 0 0 .15-.93q0-.3-.15-.38a1 1 0 0 0-.43-.14L1.86-8h2.1l.67 5.69Zm0 0"/>
    <path id="t" d="M2.3-1.7a4 4 0 0 0-.13.9q0 .2.05.3.06.08.17.14.12.05.42.08L2.75 0H.33L.4-.28a1 1 0 0 0 .32-.13 1 1 0 0 0 .2-.22q.07-.13.13-.34l.19-.78 1-4.52q.13-.57.13-.92 0-.27-.15-.39a1 1 0 0 0-.42-.14L1.87-8h5.29l-.41 1.8h-.56q-.02-.46-.08-.7a1 1 0 0 0-.14-.38.4.4 0 0 0-.22-.16 1 1 0 0 0-.37-.04H3.56l-.7 3.18h1.1q.25 0 .43-.06a1 1 0 0 0 .31-.26q.16-.2.36-.63h.55l-.58 2.47h-.51q0-.6-.05-.74-.03-.15-.14-.2a1 1 0 0 0-.42-.06H2.75Zm0 0"/>
    <path id="q" d="M3.1-2.4a1 1 0 0 0-.13-.32.4.4 0 0 0-.14-.12l-.27-.04h-.4L1.55 0h-1l1.5-6.7.1-.52q.04-.2.04-.34 0-.25-.16-.35Q1.88-8 1.5-8l.08-.32 1.47-.04h.34l-1.14 5.1h.19q.43 0 .98-.37.55-.39.88-.72T4.63-5q0-.28-.41-.31l.08-.3h1.89l.1.3q-.48.44-1.02.86L3.8-3.33l.58 2.11q.06.29.13.4.05.12.12.18.08.05.2.05.16 0 .36-.16.21-.17.49-.47l.33.33q-.54.55-.88.77-.35.21-.66.21a1 1 0 0 1-.64-.21 2 2 0 0 1-.37-.77Zm0 0"/>
    <path id="s" d="M1.44.5q-.12.14-.19.27a1 1 0 0 0-.14.55q0 .44.31.63.3.2.96.2.71 0 1.15-.32T4.28.8q.3-.72.61-2.2h-.08q-.58.78-1.06 1.13A1.7 1.7 0 0 1 2.7.1q-.64 0-1-.48a2.3 2.3 0 0 1-.34-1.38q0-.99.39-1.92.39-.91 1.08-1.47a2.5 2.5 0 0 1 2.26-.45q.33.08.66.3l.53-.4.38.1-.6 2.74-.3 1.43Q5.54-.2 5.39.31T5 1.23a2.6 2.6 0 0 1-1.42 1.22q-.5.17-1.19.17-2.22 0-2.22-1.3 0-.32.2-.59t.65-.56ZM3.13-.6q.29 0 .59-.21t.62-.64q.35-.45.54-.86.18-.4.3-1 .15-.6.15-1.05t-.2-.67q-.19-.2-.65-.2-.6 0-1.07.48t-.75 1.31a5 5 0 0 0-.27 1.63q0 .6.17.9.19.3.56.3m0 0"/>
    <path id="u" d="M1.92-3.17q-.66.3-1.54.64l-.15-.49q.94-.3 1.82-.73l.36-1.66q.32-1.48.92-2.2t1.42-.73q.39 0 .64.17.26.15.38.44.1.28.1.62 0 .55-.25 1.14-.25.6-.87 1.19-.6.58-1.78 1.19l-.38 1.7q-.12.58-.12.86 0 .24.08.34.07.12.25.11.15 0 .3-.08t.3-.21l.32-.35.36-.5.4.31q-.4.57-.7.86t-.64.47-.72.17q-.45 0-.69-.26A1 1 0 0 1 1.5-.9q0-.45.16-1.14Zm1.17-.99q.97-.6 1.49-1.4.53-.81.53-1.7 0-.3-.11-.46a.4.4 0 0 0-.33-.17.7.7 0 0 0-.5.23 2 2 0 0 0-.39.68q-.18.45-.33 1.2Zm0 0"/>
    <path id="v" d="m1.66-.22-.61 2.75H.09l1.2-5.3q.18-.93.59-1.56t1-1q.6-.37 1.4-.37.56 0 1 .23t.66.67q.21.45.22 1.08 0 1-.4 1.9a3.4 3.4 0 0 1-1.09 1.4q-.69.51-1.54.51a4 4 0 0 1-1.47-.3M2.2-2.5l-.2.95-.03.2-.02.2q0 .37.3.57t.83.2q.6 0 1.06-.48t.72-1.34.26-1.72q0-.37-.07-.66a1 1 0 0 0-.3-.47 1 1 0 0 0-.62-.18q-.23 0-.43.07t-.42.29q-.23.19-.42.51-.21.31-.36.75T2.2-2.5m0 0"/>
    <path id="y" d="m2.8-2.66-.38-1.67a2 2 0 0 0-.17-.48q-.06-.12-.14-.16a.3.3 0 0 0-.17-.05l-.24.07a1 1 0 0 0-.22.18l-.3.43L.8-4.6q.38-.57.72-.83a1.2 1.2 0 0 1 1.1-.24q.15.04.25.13.12.07.2.22.07.12.15.36t.14.58q.08.34.12.71h.07q.55-.8.84-1.15.3-.37.5-.55t.38-.25.5-.08q.25 0 .45.07l-.24 1.06h-.42q-.03-.25-.2-.25l-.11.03-.16.08q-.07.04-.25.22a11 11 0 0 0-.78.93l-.39.5.2.97.16.69.13.42.12.24q.06.08.13.1.07.04.17.04.15 0 .3-.11.15-.13.43-.57l.38.25q-.41.62-.74.86a1.3 1.3 0 0 1-.8.25A1 1 0 0 1 3.74 0a1 1 0 0 1-.3-.28A7 7 0 0 1 3-2.06h-.07Q2.3-1.2 1.98-.8q-.3.38-.5.57-.19.17-.37.25T.62.09A1 1 0 0 1 .18.02l.24-1.07h.42q.02.25.2.25l.17-.04q.1-.05.25-.2.18-.18.47-.54zm0 0"/>
    <path id="a" d="M4.08-1.1q-.52.6-.99.9t-.98.3Q.88.1.88-1.15q0-.4.1-.83l.7-3.05h-1l.1-.4q.34 0 .52-.05a1 1 0 0 0 .3-.12 1 1 0 0 0 .21-.24 2 2 0 0 0 .2-.39q.1-.23.29-.83h.8L2.77-5.6h1.78l-.12.6H2.66l-.54 2.28q-.15.65-.2.95l-.03.47q0 .72.61.72.24 0 .53-.2.3-.19.7-.66Zm0 0"/>
    <path id="b" d="M3.95 2.69h-2.6V-8.48h2.6v.43H2.31V2.23h1.64Zm0 0"/>
    <path id="d" d="M.25 2.23h1.64V-8.05H.25v-.43h2.6V2.69H.26Zm0 0"/>
    <path id="x" d="M4.06 1.34a6 6 0 0 0-.18-.86 1 1 0 0 0-.24-.37Q3.5 0 3.16 0H1.39a.7.7 0 0 0-.56.25 3 3 0 0 0-.3 1.1H.16v-1.7h.48a5 5 0 0 0 .94-2.9q0-.46-.38-.52v-.2h3.08v.2q-.27.06-.36.2-.1.14-.1.5v2.71h.63v1.7Zm-.95-4.98h-1a7 7 0 0 1-.94 3.28h1.94Zm0 0"/>
    <path id="w" d="M.44 0v-.2Q.72-.28.8-.4q.1-.15.1-.52v-2.14q0-.39-.12-.52-.1-.14-.34-.19v-.2h1.81q.85 0 1.23.22.38.23.38.73 0 .6-.75.9v.04q.87.24.87.97 0 .55-.39.83Q3.21 0 2.27 0ZM1.6-3.66v1.43h.5q.56 0 .78-.2.22-.18.22-.54t-.23-.53-.79-.17Zm0 1.74v1.6h.53q.6 0 .84-.2a.8.8 0 0 0 .24-.6q0-.39-.24-.6-.21-.2-.78-.2Zm0 0"/>
    <path id="e" d="M.1-2.1q0 .18-.1.3a1 1 0 0 1-.22.2q-.15.05-.36.08-.21.04-.48.04-.33 0-.7-.05l-.77-.11-1.63-.24-.26-.04-.19-.02a1 1 0 0 0-.3.06.2.2 0 0 0-.12.2q0 .12.08.24.06.13.17.27l.22.25.22.23-.33.28a7 7 0 0 1-.69-.8q-.15-.25-.25-.5t-.1-.52q0-.23.08-.36.07-.15.2-.22a1 1 0 0 1 .54-.14l.16.01.14.02 2.12.33.66.09a5 5 0 0 0 .97 0q.14-.03.14-.1 0-.2-.16-.5-.15-.3-.42-.6a5.3 5.3 0 0 0-2.36-1.66 3 3 0 0 0-.97-.16q-.21 0-.33.1-.1.08-.1.28 0 .23.18.45.2.21.5.42l-.3.35a2.5 2.5 0 0 1-.96-1.17 1 1 0 0 1-.1-.46q0-.42.22-.6a1 1 0 0 1 .58-.2q.28 0 .65.12.37.09.77.28a8 8 0 0 1 1.66.98q.38.3.75.64.36.35.62.72.25.37.4.77.16.38.16.75m0 0"/>
    <path id="f" d="M2.69-3.95v2.6H-8.48v-2.6h.43v1.64H2.23v-1.64Zm0 0"/>
    <path id="g" d="m-4.7-2.16.03-.07a6 6 0 0 1-.83-1 2 2 0 0 1-.16-.41l-.04-.38q0-.58.28-.95.27-.37.83-.51-.45-.45-.66-.7a2 2 0 0 1-.33-.57 1.7 1.7 0 0 1 0-1.3q.12-.27.35-.47t.59-.3a4 4 0 0 1 .97-.09h2.2l.63-.01q.15-.03.25-.1l.17-.17q.06-.11.14-.37H0v2.31h-.28q-.08-.24-.13-.33l-.15-.17a1 1 0 0 0-.28-.1 3 3 0 0 0-.6-.04h-1.54a9 9 0 0 0-1.33.1 1 1 0 0 0-.32.13q-.1.08-.18.2l-.14.23q-.05.12-.05.36t.1.43.32.44q.22.24.46.34.22.1.51.1h2.14q.45 0 .63-.02.15-.03.25-.08l.17-.17q.06-.11.14-.39H0v2.31h-.28q-.08-.23-.13-.32l-.15-.18a1 1 0 0 0-.28-.09 3 3 0 0 0-.6-.05h-1.54q-.52 0-.85.03-.33.04-.51.1-.21.07-.33.15a1 1 0 0 0-.28.44 1 1 0 0 0-.05.3q0 .22.1.45.13.21.34.42.2.23.42.35.22.1.48.1h2.7l.29-.07.15-.1q.07-.06.13-.17.05-.1.1-.33H0v2.3h-.28l-.13-.31a.6.6 0 0 0-.44-.27 3 3 0 0 0-.6-.04H-4l-.6.01a1 1 0 0 0-.37.1.4.4 0 0 0-.2.2q-.08.15-.13.4h-.3l-.06-1.37v-.36Zm0 0"/>
    <path id="h" d="M-8.4-5.52 2.53-1.28v.92L-8.4-4.6Zm0 0"/>
    <path id="i" d="M-4.31-4.5v.56q-.36.15-.57.31a1 1 0 0 0-.28.41q-.07.23-.07.53 0 .46.21.75.22.28.6.28.27 0 .45-.1.18-.12.33-.35.15-.24.4-.83.26-.6.47-.92.22-.33.52-.52.28-.18.67-.18.47 0 .78.15t.52.46q.2.27.28.68.1.4.1.86 0 .49-.08.96-.06.46-.2.9h-1.21v-.57q.53-.15.78-.47.24-.32.24-.86 0-.2-.04-.4a1 1 0 0 0-.14-.37 1 1 0 0 0-.28-.25 1 1 0 0 0-.45-.1q-.3 0-.49.13-.18.12-.34.36-.15.24-.42.86a6 6 0 0 1-.42.86q-.23.32-.5.5-.3.2-.7.19-.47 0-.82-.27a1.6 1.6 0 0 1-.55-.75 3 3 0 0 1-.18-1.15q0-.39.04-.75t.14-.91Zm0 0"/>
    <path id="j" d="M2.23-.25v-1.64H-8.05v1.64h-.43v-2.6H2.69v2.6Zm0 0"/>
    <path id="k" d="M3.27.1Q2 .1 1.37-.9a6 6 0 0 1-.62-3.02q0-1.08.19-1.86.2-.8.54-1.3.34-.51.82-.76a2.3 2.3 0 0 1 1.06-.25q1.28 0 1.9 1 .63.98.63 2.98 0 2.08-.67 3.14A2.2 2.2 0 0 1 3.27.1M1.9-4.1q0 1.9.34 2.8.36.9 1.1.9.72 0 1.06-.85.34-.84.34-2.6 0-1.35-.19-2.18a3 3 0 0 0-.48-1.2 1 1 0 0 0-1.44-.1q-.27.21-.44.67-.15.45-.23 1.1-.06.64-.06 1.45m0 0"/>
    <path id="l" d="M.88-.33v-1.23h.71q.18.6.52.87.36.28.92.28.78 0 1.17-.46.4-.48.4-1.41 0-.6-.2-1.02a1.3 1.3 0 0 0-.57-.6A2 2 0 0 0 3-4.07q-.4 0-.69.06t-.6.14l-.48-.26V-8h3.22q.2 0 .28-.03.1-.03.14-.1.07-.08.15-.26h.45l-.1 1.36H2.03v2.58q.3-.13.65-.2t.72-.07q.69 0 1.22.3.54.29.84.81t.3 1.2q0 .79-.33 1.35t-.95.86T3 .1Q1.98.1.88-.34m0 0"/>
    <path id="m" d="M4.08-1.53q0 .34.03.51.05.18.14.29t.27.17.45.1l.73.04V0H1.38v-.42q.65-.03.92-.08.28-.06.42-.16.15-.09.22-.28.08-.18.08-.6v-4.74q0-.24-.1-.34a.3.3 0 0 0-.23-.11q-.19 0-.53.2-.35.18-.86.53l-.25-.45L3.78-8.1h.33q-.03.56-.03 1.56Zm0 0"/>
    <path id="n" d="M4.1-.94q.3 0 .48-.03.16-.04.28-.12l.17-.2.16-.43h.48L5.57 0H.76v-.28q.26-.6.69-1.25.42-.66 1.22-1.53.67-.75.96-1.14.33-.42.49-.72a2.4 2.4 0 0 0 .31-1.13q0-.45-.14-.78t-.44-.53a1.3 1.3 0 0 0-.71-.19q-1.14 0-1.5 1.22h-.7v-1.12a6 6 0 0 1 2.44-.64q1.07 0 1.64.48.56.46.56 1.38 0 .3-.06.57-.07.28-.2.52-.14.25-.37.55T4.47-4l-.92 1Q2.42-1.8 1.9-.94Zm0 0"/>
    <clipPath id="r">
      <path d="M462 393h7v8.67h-7Zm0 0"/>
    </clipPath>
  </defs>
  <path fill="#fff" fill-rule="evenodd" d="M312.34 292.86h232.14V145.18H312.34Zm0 0"/>
  <path fill="#fff" fill-rule="evenodd" d="M427.06 292.96h36.4v-22.38h-36.4Zm0 0"/>
  <use xlink:href="#a" x="434.69" y="285.64"/>
  <use xlink:href="#aZ" x="439.73" y="285.64"/>
  <use xlink:href="#b" x="442.36" y="285.64"/>
  <use xlink:href="#c" x="446.56" y="285.64"/>
  <use xlink:href="#d" x="451.71" y="285.64"/>
  <use xlink:href="#X" x="455.91" y="285.64"/>
  <path fill="#fff" fill-rule="evenodd" d="M312.34 234.42h31.37v-50.69h-31.37Zm0 0"/>
  <use xlink:href="#e" x="331.01" y="228.44"/>
  <use xlink:href="#cx" x="331.01" y="221.97"/>
  <use xlink:href="#f" x="331.01" y="219.21"/>
  <use xlink:href="#g" x="331.01" y="215.02"/>
  <use xlink:href="#h" x="331.01" y="205.07"/>
  <use xlink:href="#i" x="331.01" y="199.19"/>
  <use xlink:href="#j" x="331.01" y="194.04"/>
  <use xlink:href="#cD" x="331.01" y="189.84"/>
  <path fill="none" stroke="#7c7c7c" stroke-miterlimit="10" d="M372.52 258.95V149.97m11.29 108.98V149.97m11.29 108.98V149.97m11.24 108.98V149.97m22.57 108.98V149.97m11.29 108.98V149.97m11.28 108.98V149.97m11.29 108.98V149.97m22.57 108.98V149.97m11.29 108.98V149.97m11.29 108.98V149.97m11.28 108.98V149.97"/>
  <path fill="none" stroke="#000" stroke-miterlimit="10" d="M357.7 256.75h176.34"/>
  <path fill="none" stroke="#7c7c7c" stroke-miterlimit="10" d="M357.7 251.7h176.34m-176.34-5.1h176.34m-176.34-5.03h176.34m-176.34-5.1h176.34"/>
  <path fill="none" stroke="#000" stroke-miterlimit="10" d="M357.7 231.43h176.34"/>
  <path fill="none" stroke="#7c7c7c" stroke-miterlimit="10" d="M357.7 226.33h176.34m-176.34-5.04h176.34M357.7 216.2h176.34m-176.34-5.05h176.34"/>
  <path fill="none" stroke="#000" stroke-miterlimit="10" d="M357.7 206.05h176.34"/>
  <path fill="none" stroke="#7c7c7c" stroke-miterlimit="10" d="M357.7 201.01h176.34m-176.34-5.04h176.34m-176.34-5.1h176.34m-176.34-5.04h176.34"/>
  <path fill="none" stroke="#000" stroke-miterlimit="10" d="M357.7 180.73h176.34"/>
  <path fill="none" stroke="#7c7c7c" stroke-miterlimit="10" d="M357.7 175.7h176.34m-176.34-5.1h176.34m-176.34-5.05h176.34m-176.34-5.09h176.34"/>
  <path fill="none" stroke="#000" stroke-miterlimit="10" d="M357.7 155.41h176.34"/>
  <path fill="none" stroke="#000" stroke-linecap="square" stroke-miterlimit="10" stroke-width="2.4" d="m529.8 206.09-44.6-50.69h-45l-56.44 76.02H362.8"/>
  <path fill="none" stroke="#000" stroke-linecap="round" stroke-linejoin="round" stroke-miterlimit="10" stroke-width=".75" d="M534.04 258.95H357.69m.01 0V149.97m0 0h176.34m0 0v108.98"/>
  <path fill="none" stroke="#000" stroke-miterlimit="1" d="M361.24 258.95v-2.1"/>
  <use xlink:href="#k" x="357.86" y="270.66"/>
  <use xlink:href="#cF" x="364.45" y="270.66"/>
  <path fill="none" stroke="#000" stroke-miterlimit="1" d="M417.62 258.95v-2.1"/>
  <use xlink:href="#l" x="414.2" y="270.66"/>
  <use xlink:href="#cF" x="420.79" y="270.66"/>
  <path fill="none" stroke="#000" stroke-miterlimit="1" d="M474.06 258.95v-2.1"/>
  <use xlink:href="#m" x="467.69" y="270.66"/>
  <use xlink:href="#k" x="474.28" y="270.66"/>
  <use xlink:href="#cF" x="480.99" y="270.66"/>
  <path fill="none" stroke="#000" stroke-miterlimit="1" d="M530.5 258.95v-2.1"/>
  <use xlink:href="#m" x="524.14" y="270.66"/>
  <use xlink:href="#l" x="530.73" y="270.66"/>
  <use xlink:href="#cF" x="537.45" y="270.66"/>
  <use xlink:href="#k" x="346.83" y="260.83"/>
  <use xlink:href="#cF" x="353.43" y="260.83"/>
  <use xlink:href="#l" x="346.83" y="235.27"/>
  <use xlink:href="#cF" x="353.43" y="235.27"/>
  <use xlink:href="#m" x="340.84" y="209.98"/>
  <use xlink:href="#k" x="347.43" y="209.98"/>
  <use xlink:href="#cF" x="354.15" y="209.98"/>
  <use xlink:href="#m" x="340.84" y="184.81"/>
  <use xlink:href="#l" x="347.43" y="184.81"/>
  <use xlink:href="#cF" x="354.15" y="184.81"/>
  <use xlink:href="#n" x="340.84" y="159.28"/>
  <use xlink:href="#k" x="347.43" y="159.28"/>
  <use xlink:href="#cF" x="354.15" y="159.28"/>
  <path fill="none" stroke="#000" stroke-miterlimit="1" d="M474.06 258.95V149.97m56.44 108.98V149.97"/>
  <use xlink:href="#X" x="530.61" y="165.39"/>
  <path fill="none" stroke="#000" stroke-miterlimit="1" d="M417.62 258.95V149.97"/>
  <use xlink:href="#X" x="417.67" y="165.39"/>
  <path fill="none" stroke="#000" stroke-miterlimit="1" d="M361.24 258.95V149.97"/>
  <use xlink:href="#X" x="361.34" y="165.39"/>
  <path fill="#fff" fill-rule="evenodd" d="M404.04 446.53h131.9v-64.08h-131.9Zm0 0"/>
  <path fill="none" stroke="#000" stroke-linejoin="round" stroke-miterlimit="1" d="M439.1 418.41h42.45"/>
  <path fill="none" stroke="#000" stroke-linejoin="round" stroke-miterlimit="1" stroke-width="1.5" d="M530.3 428.35H408.53"/>
  <path fill="#fff" fill-rule="evenodd" stroke="#000" stroke-linecap="round" stroke-linejoin="round" stroke-miterlimit="1" stroke-width="1.5" d="M419.1 409.52a3.03 3.03 0 0 0-3.03 3.03v12.13a3.03 3.03 0 0 0 3.03 3.02h16.42a3.03 3.03 0 0 0 3.03-3.02v-12.13a3.03 3.03 0 0 0-3.03-3.03Zm0 0"/>
  <use xlink:href="#o" x="422.59" y="421.83"/>
  <use xlink:href="#X" x="432.9" y="421.83"/>
  <path fill="#fff" fill-rule="evenodd" stroke="#000" stroke-linecap="round" stroke-linejoin="round" stroke-miterlimit="1" stroke-width="1.5" d="M509.77 412.28a3.1 3.1 0 0 0-3.11-3.1h-21.65a3.1 3.1 0 0 0-3.11 3.1v12.42a3.1 3.1 0 0 0 3.1 3.1h21.66a3.1 3.1 0 0 0 3.11-3.1Zm0 0"/>
  <use xlink:href="#p" x="490.94" y="422.67"/>
  <use xlink:href="#ce" x="501.49" y="422.67"/>
  <use xlink:href="#q" x="462.41" y="441.97"/>
  <use xlink:href="#cJ" x="469.36" y="441.97"/>
  <g clip-path="url(#r)">
    <use xlink:href="#s" x="462.29" y="398.92"/>
  </g>
  <use xlink:href="#cJ" x="469.84" y="398.92"/>
  <path d="M459.18 386.75v21.77h-1v-21.77Zm-.5 21.77 2-2-2 6-2-6Zm0 0"/>
  <use xlink:href="#t" x="520.79" y="413.06"/>
  <use xlink:href="#cJ" x="528.58" y="413.06"/>
  <path d="M509.37 417.71h12.98v1h-12.98Zm12.98.5-2-2 6 2-6 2Zm0 0"/>
  <path fill="#fff" fill-rule="evenodd" d="M421.02 697.6h111.97V588.41H421.02Zm0 0"/>
  <path fill="#d9d9d9" fill-rule="evenodd" d="M425.66 691.65h105.29v-67.12H425.66Zm0 0"/>
  <path fill="none" stroke="#000" stroke-linecap="round" stroke-linejoin="round" stroke-miterlimit="1" stroke-width=".75" d="M530.8 624.58H425.76"/>
  <use xlink:href="#u" x="474.64" y="610.76"/>
  <use xlink:href="#X" x="480.87" y="610.76"/>
  <path fill="#7f7f7f" fill-rule="evenodd" stroke="#000" stroke-linecap="round" stroke-miterlimit="8" stroke-width="1.5" d="M464.32 639.16h25.52v-25.52h-25.52Zm0 0"/>
  <use xlink:href="#s" x="512.63" y="605.61"/>
  <use xlink:href="#X" x="520.19" y="605.61"/>
  <path d="M509.62 595.36v17.93a.5.5 0 0 1-.5.5.5.5 0 0 1-.5-.5v-17.93c0-.28.22-.5.5-.5s.5.22.5.5m-.5 17.93 2-2-2 6-2-6Zm0 0"/>
  <use xlink:href="#v" x="437.57" y="675.73"/>
  <use xlink:href="#w" x="443.8" y="678.13"/>
  <use xlink:href="#X" x="448.84" y="675.73"/>
  <use xlink:href="#v" x="450.52" y="614.96"/>
  <use xlink:href="#x" x="456.75" y="617.36"/>
  <use xlink:href="#X" x="462.02" y="614.96"/>
  <path fill="#f2f2f2" fill-rule="evenodd" stroke="#000" stroke-linecap="round" stroke-miterlimit="8" stroke-width="1.5" d="M470.11 672.57h14.19V658.4h-14.2Zm0 0"/>
  <path fill="none" stroke="#000" stroke-linejoin="round" stroke-miterlimit="8" stroke-width="1.5" d="M476.96 639.51v18.43"/>
  <use xlink:href="#y" x="492.86" y="621.07"/>
  <use xlink:href="#cJ" x="499.57" y="621.07"/>
</svg>
