<svg xmlns="http://www.w3.org/2000/svg" xmlns:xlink="http://www.w3.org/1999/xlink" width="595.28" height="841.89" viewBox="0 0 595.28 841.89">
  <defs>
    <clipPath id="b">
      <path d="M.38 43H103v71H.38Zm0 0"/>
    </clipPath>
    <clipPath id="c">
      <path d="M97 166h10v5.99H97Zm0 0"/>
    </clipPath>
    <clipPath id="d">
      <path d="M45 .21h6V6h-6Zm0 0"/>
    </clipPath>
    <clipPath id="e">
      <path d="M155 139h3.94v6H155Zm0 0"/>
    </clipPath>
    <clipPath id="f">
      <path d="M.38 44H4v7H.38Zm0 0"/>
    </clipPath>
    <clipPath id="a">
      <path d="M0 0h159v172H0z"/>
    </clipPath>
    <g id="g" clip-path="url(#a)">
      <g clip-path="url(#b)">
        <path fill="none" stroke="#000" stroke-linejoin="round" stroke-width=".97" d="M.46 43.52H101.8l-32.85 69.02"/>
      </g>
      <path fill="none" stroke="#000" stroke-linejoin="round" stroke-width=".97" d="M129.3 90.09a13.84 13.84 0 1 1-27.67 0 13.84 13.84 0 0 1 27.68 0Zm0 0"/>
      <path fill="none" stroke="#000" stroke-linejoin="round" stroke-width=".65" d="M115.47 36.44V90.1"/>
      <path d="M117.02 90.09a1.55 1.55 0 1 1-3.1 0 1.55 1.55 0 0 1 3.1 0m0 0"/>
      <path fill="none" stroke="#000" stroke-linejoin="round" stroke-width=".65" d="M101.63 90.09v59.9m27.67-59.9v44.9"/>
      <path fill="none" stroke="#000" stroke-linejoin="round" stroke-width=".97" d="M95.33 150h12.6v12.7h-12.6ZM123 135h12.6v12.7H123Zm-7.53-98.56a6.6 6.6 0 1 1-13.2 0 6.6 6.6 0 0 1 13.2 0ZM28.79 17.3H66.6v25.74H28.8Zm0 0"/>
      <path fill="none" stroke="#000" stroke-linejoin="round" stroke-width=".65" d="M108.87 29.85H67.1"/>
      <path d="M110.43 36.44a1.55 1.55 0 1 1-3.11 0 1.55 1.55 0 0 1 3.1 0m0 0"/>
      <path fill="none" stroke="#000" stroke-linejoin="round" stroke-width=".97" d="m101.8 43.52 7.07-7.08"/>
      <path fill="none" stroke="#000" stroke-linecap="round" stroke-linejoin="round" stroke-width=".65" d="M20.44 116.94v19.23"/>
      <path fill-rule="evenodd" d="m23.14 134.82-2.7 7.43-2.7-7.43a4.1 4.1 0 0 0 5.4 0m0 0"/>
      <path fill="none" stroke="#000" stroke-linecap="round" stroke-linejoin="round" stroke-width=".65" d="M145.24 131.82v13.45"/>
      <path fill-rule="evenodd" d="m147.94 143.92-2.7 7.43-2.7-7.43a4.1 4.1 0 0 0 5.4 0m0 0"/>
      <path fill="none" stroke="#000" stroke-linecap="round" stroke-linejoin="round" stroke-width=".65" d="M86.28 152.42v13.46"/>
      <path fill-rule="evenodd" d="m83.58 153.77 2.7-7.43 2.7 7.43a4.1 4.1 0 0 0-5.4 0m0 0"/>
      <path fill="none" stroke="#000" stroke-linecap="round" stroke-linejoin="round" stroke-width=".65" d="M38.13 9.97h13.46"/>
      <path fill-rule="evenodd" d="m50.23 7.27 7.43 2.7-7.43 2.7a4.1 4.1 0 0 0 0-5.4m0 0"/>
      <g clip-path="url(#c)">
        <path d="M97.66 171.2c-.04.17-.11.43-.11.49 0 .2.16.3.34.3.14 0 .33-.1.42-.32l.21-.83.25-1.02q.08-.38.2-.76c.03-.2.12-.53.14-.56.16-.36.76-1.4 1.84-1.4.52 0 .6.44.6.81q-.01.42-.15.94l-.32 1.31-.23.85c-.04.23-.15.62-.15.68 0 .2.16.3.32.3.36 0 .43-.29.52-.64.16-.64.58-2.29.67-2.73.04-.14.64-1.51 1.88-1.51.48 0 .6.39.6.8 0 .64-.47 1.93-.7 2.54-.1.26-.15.39-.15.62 0 .53.4.92.93.92 1.06 0 1.49-1.65 1.49-1.74 0-.12-.1-.12-.14-.12-.11 0-.11.03-.16.21-.18.6-.54 1.4-1.16 1.4q-.29.02-.28-.37c0-.28.1-.55.21-.8.22-.6.7-1.84.7-2.5 0-.73-.47-1.2-1.32-1.2-.83 0-1.42.49-1.84 1.1 0-.15-.04-.54-.36-.8a1.3 1.3 0 0 0-.92-.3c-1.03 0-1.58.72-1.78.99-.05-.66-.53-1-1.04-1s-.73.44-.83.64a5 5 0 0 0-.34 1.1c0 .13.1.13.12.13.13 0 .13-.02.2-.27.2-.8.42-1.35.83-1.35.18 0 .34.09.34.51 0 .25-.04.38-.18.96Zm0 0"/>
      </g>
      <path d="m11.26 33 1.2-1.16c1.76-1.57 2.44-2.17 2.44-3.3 0-1.3-1.01-2.2-2.4-2.2a2.1 2.1 0 0 0-2.1 2.05c0 .63.56.63.6.63.2 0 .58-.13.58-.61a.6.6 0 0 0-.6-.59c-.1 0-.1 0-.14.02a1.6 1.6 0 0 1 1.52-1.15c1.03 0 1.5.92 1.5 1.85 0 .9-.54 1.79-1.18 2.5l-2.16 2.4c-.13.13-.13.17-.13.44h4.2l.3-1.97h-.26c-.07.33-.14.83-.27 1-.07.1-.8.1-1.06.1Zm5.21.2c-.03.18-.1.44-.1.5 0 .2.16.3.33.3.14 0 .34-.09.43-.32l.21-.83.25-1.01q.08-.4.2-.77c.03-.2.12-.53.14-.57.16-.35.76-1.38 1.84-1.38.52 0 .6.43.6.8q-.01.43-.16.94l-.32 1.31-.23.85c-.03.23-.14.62-.14.68 0 .2.16.3.32.3.36 0 .43-.29.52-.64.16-.64.58-2.29.67-2.73.04-.14.64-1.5 1.88-1.5.48 0 .6.38.6.79 0 .64-.47 1.93-.7 2.54-.1.26-.15.39-.15.62 0 .53.4.92.93.92 1.06 0 1.48-1.65 1.48-1.74 0-.12-.1-.12-.14-.12-.1 0-.1.03-.16.21-.17.6-.53 1.4-1.15 1.4q-.29.02-.28-.37c0-.29.1-.55.21-.8.21-.6.7-1.85.7-2.5 0-.73-.47-1.2-1.32-1.2-.84 0-1.42.5-1.84 1.1 0-.15-.04-.54-.36-.8-.28-.25-.64-.3-.92-.3-1.03 0-1.58.72-1.77.99-.06-.66-.54-1-1.05-1-.52 0-.73.45-.84.64-.2.4-.33 1.06-.33 1.1 0 .12.1.12.12.12.12 0 .12-.01.2-.26.2-.8.42-1.35.83-1.35.18 0 .33.1.33.52 0 .24-.03.37-.17.95Zm108.25 121.44c.93-.3 1.58-1.09 1.58-1.99 0-.92-1-1.56-2.07-1.56-1.14 0-2 .68-2 1.54 0 .38.24.59.58.59s.56-.25.56-.59c0-.54-.53-.54-.69-.54.34-.57 1.09-.72 1.5-.72.47 0 1.1.25 1.1 1.26a3 3 0 0 1-.32 1.3c-.34.55-.73.59-1.01.59l-.45.03c-.09.02-.16.04-.16.14 0 .13.07.13.27.13h.5c.92 0 1.34.76 1.34 1.88 0 1.54-.78 1.86-1.27 1.86-.5 0-1.35-.2-1.74-.85.39.05.74-.2.74-.62a.6.6 0 0 0-.62-.64c-.28 0-.64.16-.64.66 0 1.02 1.05 1.77 2.3 1.77 1.37 0 2.4-1.03 2.4-2.18 0-.93-.73-1.81-1.9-2.06m3.37 3.32c-.04.17-.1.44-.1.5 0 .19.15.3.33.3a.5.5 0 0 0 .43-.33l.21-.83.25-1.01q.08-.4.2-.76c.03-.2.12-.53.14-.57.16-.35.76-1.38 1.84-1.38.52 0 .6.42.6.8q-.01.43-.15.93l-.32 1.32-.23.85c-.04.23-.15.62-.15.67 0 .2.16.3.32.3.36 0 .43-.28.52-.63.16-.64.58-2.3.67-2.74.03-.14.64-1.5 1.88-1.5.48 0 .6.39.6.8 0 .63-.47 1.93-.7 2.53-.1.27-.15.4-.15.62 0 .53.4.92.92.92 1.07 0 1.5-1.64 1.5-1.73 0-.13-.11-.13-.15-.13-.1 0-.1.04-.16.22-.18.6-.53 1.4-1.15 1.4q-.29.01-.28-.38c0-.28.1-.55.2-.8.22-.6.7-1.84.7-2.5 0-.72-.46-1.2-1.31-1.2-.84 0-1.42.5-1.85 1.1 0-.14-.03-.53-.35-.8-.28-.25-.64-.3-.92-.3a2.2 2.2 0 0 0-1.78 1c-.05-.67-.53-1-1.04-1-.52 0-.73.44-.84.64-.2.4-.34 1.06-.34 1.1 0 .12.11.12.13.12.12 0 .12-.02.2-.27.19-.8.42-1.34.83-1.34.18 0 .34.08.34.51 0 .25-.04.37-.18.96Zm-97.23-31.54.03-.2q-.01-.3-.32-.3c-.1 0-.42.07-.46.48-.2-.4-.6-.7-1.06-.7-1.28 0-2.68 1.57-2.68 3.2 0 1.12.67 1.8 1.49 1.8.68 0 1.2-.54 1.31-.66l.02.01-.37 1.5c-.05.1-.43 1.22-1.63 1.22-.22 0-.59-.02-.9-.12.33-.1.45-.4.45-.59s-.12-.39-.42-.39c-.25 0-.6.2-.6.66s.4.69 1.48.69c1.43 0 2.24-.89 2.42-1.56Zm-1.46 2.82c-.07.3-.33.58-.58.8-.23.2-.59.4-.93.4-.56 0-.72-.58-.72-1.04 0-.53.32-1.88.64-2.45.3-.55.78-1 1.26-1 .74 0 .9.91.9.97l-.03.15Zm0 0"/>
      <g clip-path="url(#d)">
        <path d="M48.82.94c-.2-.42-.53-.73-1.04-.73-1.32 0-2.72 1.67-2.72 3.32 0 1.06.62 1.81 1.5 1.81.23 0 .8-.05 1.47-.85.09.48.5.85 1.02.85.41 0 .66-.27.86-.62.18-.4.34-1.1.34-1.12 0-.12-.11-.12-.15-.12-.1 0-.12.05-.16.21-.2.73-.39 1.4-.85 1.4-.32 0-.34-.3-.34-.51 0-.25.02-.36.14-.85.13-.46.15-.59.25-1.02l.41-1.57c.08-.32.08-.34.08-.4q-.02-.3-.33-.3c-.28 0-.44.25-.48.5m-.72 2.93c-.07.21-.07.23-.23.42-.5.62-.96.8-1.28.8-.57 0-.73-.62-.73-1.06 0-.57.36-1.95.62-2.49.36-.65.86-1.08 1.32-1.08.72 0 .88.92.88 1q0 .1-.03.2Zm0 0"/>
      </g>
      <path d="M75.84 156.26c-.22-.43-.54-.73-1.05-.73-1.31 0-2.71 1.67-2.71 3.32 0 1.06.62 1.8 1.49 1.8.23 0 .8-.04 1.47-.85.09.49.5.86 1.03.86.4 0 .66-.27.85-.62.18-.41.34-1.1.34-1.12 0-.12-.1-.12-.14-.12-.11 0-.13.05-.16.2-.2.73-.4 1.41-.85 1.41-.32 0-.34-.3-.34-.52 0-.24.02-.35.14-.85.13-.46.14-.58.25-1l.4-1.59c.08-.32.08-.33.08-.39q-.02-.3-.32-.3c-.28 0-.44.25-.48.5m-.73 2.92c-.07.22-.07.24-.23.43-.5.62-.96.8-1.28.8-.56 0-.72-.62-.72-1.07 0-.56.35-1.95.62-2.48.35-.65.85-1.08 1.3-1.08.74 0 .9.92.9 1l-.04.19Zm5.13-1.98c0-.22 0-.22-.23-.22-.52.5-1.22.5-1.55.5v.28c.18 0 .71 0 1.14-.22v4.03c0 .27 0 .37-.78.37h-.3v.29l1.4-.04 1.42.04v-.29h-.3c-.8 0-.8-.1-.8-.37Zm72.95-18.48c-.21-.42-.53-.72-1.05-.72-1.31 0-2.71 1.66-2.71 3.31 0 1.06.62 1.81 1.49 1.81.23 0 .8-.05 1.47-.85.09.48.5.85 1.03.85.4 0 .65-.26.85-.62.18-.4.34-1.1.34-1.12 0-.12-.11-.12-.15-.12-.1 0-.12.05-.16.21-.2.73-.39 1.4-.85 1.4-.31 0-.33-.3-.33-.51 0-.25.02-.36.14-.85l.25-1.01.4-1.58c.08-.32.08-.34.08-.4q-.02-.3-.32-.3c-.29 0-.45.25-.48.5m-.73 2.93c-.07.21-.07.23-.23.42-.5.63-.96.8-1.28.8-.56 0-.72-.62-.72-1.06 0-.57.35-1.95.62-2.49.35-.65.85-1.08 1.31-1.08.73 0 .89.92.89 1q0 .11-.04.19Zm0 0"/>
      <g clip-path="url(#e)">
        <path d="M158.94 143.25h-.27c-.02.18-.1.64-.21.71-.05.06-.66.06-.78.06h-1.46c.83-.73 1.12-.96 1.58-1.33.59-.46 1.14-.96 1.14-1.7 0-.96-.84-1.55-1.85-1.55-.97 0-1.65.7-1.65 1.42 0 .39.34.44.43.44.17 0 .4-.14.4-.42 0-.15-.05-.43-.46-.43.25-.55.78-.73 1.16-.73.8 0 1.2.62 1.2 1.26 0 .7-.5 1.23-.74 1.51l-1.9 1.9c-.09.07-.09.09-.09.3h3.27Zm0 0"/>
      </g>
      <g clip-path="url(#f)">
        <path fill="none" stroke="#000" stroke-linejoin="round" stroke-width=".32" d="m3.5 44.9-2.98 5"/>
      </g>
      <path fill="none" stroke="#000" stroke-linejoin="round" stroke-width=".32" d="m6.85 44.9-2.99 5m6.34-5-3 5m6.35-5-3 5m6.35-5-3 5m6.34-5-3 5m6.35-5-3 5m6.34-5-2.99 5m6.34-5-3 5m6.34-5-2.99 5m6.34-5-2.99 5m6.34-5-3 5m3-5-3 5m6.34-5-2.99 5m6.34-5-2.99 5m6.34-5-3 5m6.34-5-2.99 5m6.34-5-3 5m6.35-5-3 5m6.34-5-2.99 5m6.34-5-3 5m6.35-5-3 5m6.34-5-2.99 5m6.34-5-3 5m-13.73-5-3 5m6.34-5-2.99 5m6.34-5-3 5m6.35-5-3 5m6.34-5-2.99 5m6.34-5-3 5m6.34-5-2.99 5m6.34-5-3 5m6.34-5-2.98 5m6.34-5-3 5m6.34-5-3 5m6.34-5-2.99 5"/>
      <path d="M33.9 51.13s0-.12-.14-.12c-.27 0-1.08.09-1.38.12-.1 0-.22.02-.22.21 0 .14.11.14.27.14.55 0 .57.08.57.2l-.04.23-1.63 6.51c-.05.16-.05.18-.05.25 0 .27.23.32.33.32.14 0 .3-.1.37-.23.06-.1.57-2.2.64-2.48.4.03 1.32.2 1.32.95 0 .1 0 .13-.04.25q-.03.2-.03.4c0 .65.44 1.11 1.02 1.11q.52.02.91-.6c.28-.5.4-1.12.4-1.14 0-.12-.1-.12-.13-.12q-.13-.02-.16.21c-.23.82-.48 1.4-.98 1.4-.23 0-.37-.12-.37-.53 0-.2.05-.46.09-.64.05-.2.05-.23.05-.36 0-.72-.71-1.04-1.68-1.18.35-.2.72-.55.97-.83.55-.61 1.06-1.09 1.62-1.09q.09 0 .1.02c.14.02.14.02.25.09q.02 0 .04.03a.65.65 0 0 0-.64.63c0 .17.12.39.42.39s.62-.25.62-.7a.7.7 0 0 0-.76-.7c-.32 0-.84.08-1.65.99-.39.42-.83.88-1.26 1.04Zm0 0"/>
    </g>
  </defs>
  <use xlink:href="#g" transform="translate(379 137)"/>
</svg>
