<svg xmlns="http://www.w3.org/2000/svg" xmlns:xlink="http://www.w3.org/1999/xlink" width="595.28" height="500" viewBox="0 0 595.28 500">
  <defs>
    <path id="r" d="m5.13-8.52.06-.2c0-.15-.11-.23-.2-.23-.07 0-.18 0-.27.26l-4 11.24-.08.2c0 .16.13.23.22.23s.17-.01.27-.26Zm0 0"/>
    <path id="b" d="M2.2-.58a.59.59 0 0 0-1.17 0 .59.59 0 0 0 1.17 0m0 0"/>
    <path id="m" d="m3.36-7.98.03-.2c0-.1-.12-.1-.14-.1l-.66.06q-.3.01-.59.05c-.31.01-.4.03-.4.25 0 .1.1.1.27.1.58 0 .6.12.6.24l-.03.2L.7-.46c-.04.19-.04.2-.04.28 0 .27.2.32.32.32.2 0 .36-.16.41-.3l.55-2.16.19-.78c.12-.5.12-.5.35-.86.22-.34.77-1.06 1.7-1.06.46 0 .63.36.63.84 0 .67-.47 1.97-.73 2.69-.11.28-.16.44-.16.66 0 .53.36.97.94.97 1.1 0 1.53-1.77 1.53-1.83q0-.1-.12-.11c-.11 0-.13.03-.18.23-.28.96-.71 1.46-1.2 1.46-.1 0-.31 0-.31-.4 0-.3.15-.68.2-.82.2-.57.75-1.97.75-2.68S5.11-5.27 4.2-5.27q-1.03.01-1.76.94Zm0 0"/>
    <path id="n" d="M2.33.05c0-.7-.24-1.2-.72-1.2a.6.6 0 0 0-.58.57c0 .25.19.58.6.58q.22 0 .39-.16l.04-.01c.03 0 .03.15.03.22 0 .39-.07 1.17-.76 1.95-.14.14-.14.16-.14.19q.02.1.12.1c.1 0 1.02-.87 1.02-2.24m0 0"/>
    <path id="q" d="M.38 2.06q-.04.1-.05.2c0 .2.15.3.33.3.17 0 .34-.1.42-.28.04-.1.37-1.55.76-3.01.24.6.68.86 1.14.86 1.35 0 2.88-1.68 2.88-3.49 0-1.27-.78-1.9-1.6-1.9-1.04 0-2.32 1.09-2.71 2.67ZM2.97-.12c-.81 0-1.02-.94-1.02-1.08 0-.08.3-1.2.35-1.4.6-2.37 1.78-2.43 1.95-2.43.53 0 .83.5.83 1.2a8 8 0 0 1-.52 2.28c-.36.83-.98 1.43-1.6 1.43m0 0"/>
    <path id="i" d="M1.47-4.16c0-3.01 1.47-3.5 2.1-3.5.45 0 .87.14 1.1.5-.14 0-.6 0-.6.49 0 .26.18.48.5.48.29 0 .5-.17.5-.51 0-.63-.46-1.24-1.5-1.24-1.51 0-3.1 1.54-3.1 4.17C.48-.48 1.92.25 2.94.25c1.3 0 2.4-1.14 2.4-2.69 0-1.58-1.1-2.64-2.3-2.64-1.06 0-1.45.9-1.57 1.25ZM2.94-.08c-.75 0-1.11-.65-1.22-.9a6 6 0 0 1-.22-1.74c0-.95.42-2.12 1.5-2.12.66 0 1 .43 1.17.84.2.44.2 1.05.2 1.55 0 .6 0 1.15-.23 1.6-.3.57-.72.77-1.2.77m0 0"/>
    <path id="p" d="M8.56-2.9c0-1.12 0-1.44-.28-1.83-.34-.46-.9-.54-1.31-.54-.99 0-1.49.72-1.69 1.2-.16-.93-.8-1.2-1.56-1.2-1.16 0-1.61.99-1.7 1.24H2v-1.24l-1.62.13v.36c.8 0 .92.08.92.66V-.9c0 .55-.14.55-.92.55V0c.3-.03.96-.03 1.3-.03s.98 0 1.29.03v-.34c-.77 0-.9 0-.9-.55v-2.22c0-1.25.82-1.92 1.56-1.92s.9.6.9 1.34v2.8c0 .55-.12.55-.9.55V0c.3-.03.95-.03 1.3-.03.34 0 .98 0 1.29.03v-.34c-.77 0-.9 0-.9-.55v-2.22c0-1.25.82-1.92 1.55-1.92s.91.6.91 1.34v2.8c0 .55-.12.55-.9.55V0c.3-.03.95-.03 1.3-.03.34 0 .98 0 1.29.03v-.34c-.6 0-.9 0-.9-.36Zm0 0"/>
    <path id="j" d="M5.67-7.4v-.29H2.8c-1.46 0-1.47-.15-1.52-.37h-.26L.64-5.7h.27c.03-.2.14-.95.3-1.08.09-.07 1-.07 1.15-.07h2.53l-1.26 1.8a9 9 0 0 0-1.54 4.7c0 .13 0 .61.5.61s.5-.47.5-.62v-.6c0-1.78.29-3.15.85-3.97Zm0 0"/>
    <path id="g" d="M1.53-6.84c.52.17.92.18 1.06.18 1.35 0 2.2-1 2.2-1.15 0-.05 0-.11-.09-.11-.03 0-.04 0-.15.04a4 4 0 0 1-3.13-.01l-.12-.03c-.1 0-.1.06-.1.26v3.54c0 .21 0 .3.14.3.07 0 .08-.02.2-.16.34-.5.9-.79 1.5-.79.63 0 .93.6 1.04.8.2.45.2 1.05.2 1.5s0 1.13-.33 1.67a1.5 1.5 0 0 1-1.25.72c-.8 0-1.56-.53-1.78-1.4q.1.04.19.04c.2 0 .53-.12.53-.53a.5.5 0 0 0-.53-.53c-.22 0-.53.1-.53.58C.58-.91 1.39.25 2.72.25a2.6 2.6 0 0 0 2.53-2.66C5.25-3.8 4.3-5 3.05-5c-.7 0-1.2.3-1.52.63Zm0 0"/>
    <path id="c" d="M3.44-7.66c0-.26 0-.28-.24-.28-.3.33-.89.77-2.1.77v.34c.26 0 .85 0 1.5-.31v6.22c0 .44-.02.58-1.07.58h-.37V0c.32-.03 1.48-.03 1.87-.03s1.55 0 1.86.03v-.34h-.36c-1.06 0-1.1-.14-1.1-.58Zm0 0"/>
    <path id="a" d="M5.34-3.81c0-1-.06-1.97-.48-2.88a2.13 2.13 0 0 0-3.92.1 6.4 6.4 0 0 0-.46 2.78c0 1.15.1 2.01.52 2.87.47.9 1.3 1.19 1.9 1.19 1.05 0 1.65-.62 2-1.31.43-.9.44-2.06.44-2.75M2.91.02C2.53.02 1.75-.2 1.53-1.5c-.14-.72-.14-1.62-.14-2.47 0-.97 0-1.86.2-2.56.2-.8.82-1.17 1.32-1.17.45 0 1.15.28 1.37 1.3.16.68.16 1.62.16 2.43s0 1.72-.13 2.44C4.08-.22 3.33.02 2.91.02m0 0"/>
    <path id="o" d="M3.34-3.16c0-.01-.07-.1-.07-.12 0-.03.75-.69.84-.78.83-.72 1.34-.72 1.6-.74v-.34l-.91.01-1.2-.01v.34q.33.03.35.32c0 .23-.23.45-.25.45L2-2.53v-5.75l-1.67.12v.35c.81 0 .9.1.9.67V-.9c0 .55-.12.55-.9.55V0c.34-.03.9-.03 1.26-.03s.94 0 1.27.03v-.34c-.77 0-.9 0-.9-.55v-1.27l.76-.65 1.15 1.64c.18.25.25.39.25.54 0 .22-.15.29-.4.29V0c.3-.03.87-.03 1.2-.03.52 0 .53 0 1.05.03v-.34c-.33 0-.69 0-1.03-.49Zm0 0"/>
    <path id="d" d="M5.25-2h-.27c-.03.2-.12.86-.25 1.05-.07.1-.76.1-1.12.1H1.4c.32-.28 1.04-1.04 1.36-1.32 1.8-1.67 2.48-2.3 2.48-3.47 0-1.38-1.08-2.3-2.47-2.3S.58-6.75.58-5.74c0 .62.53.62.56.62.25 0 .56-.18.56-.57 0-.33-.22-.56-.56-.56-.1 0-.12 0-.16.02.22-.82.86-1.36 1.65-1.36 1.01 0 1.64.84 1.64 1.95 0 1.01-.6 1.89-1.27 2.66L.58-.28V0h4.36Zm0 0"/>
    <path id="e" d="M2.2-4.28c-.2 0-.25.01-.25.12 0 .13.05.13.27.13h.55c1.01 0 1.46.83 1.46 1.98 0 1.57-.8 1.97-1.39 1.97-.57 0-1.54-.26-1.9-1.06.39.06.73-.16.73-.58a.56.56 0 0 0-.58-.58c-.3 0-.6.16-.6.61C.48-.62 1.54.25 2.86.25c1.43 0 2.47-1.08 2.47-2.3 0-1.1-.87-1.95-2.03-2.15 1.05-.3 1.72-1.17 1.72-2.1 0-.95-.98-1.64-2.14-1.64-1.2 0-2.08.74-2.08 1.6 0 .48.38.57.55.57.25 0 .53-.17.53-.53 0-.39-.28-.56-.55-.56q-.08 0-.12.02c.45-.82 1.58-.82 1.64-.82.39 0 1.16.2 1.16 1.36 0 .22-.04.9-.38 1.4a1.2 1.2 0 0 1-1.1.57Zm0 0"/>
    <path id="f" d="M4.31-7.77c0-.23 0-.3-.17-.3-.1 0-.12 0-.22.15L.32-2.34V-2h3.15v1.1c0 .43-.03.56-.9.56h-.24V0c.28-.03 1.22-.03 1.55-.03s1.3 0 1.56.03v-.34H5.2c-.86 0-.89-.13-.89-.57V-2h1.2v-.34h-1.2Zm-.8.93v4.5H.64Zm0 0"/>
    <path id="h" d="M4.38-3.47c0 2.81-1.27 3.4-1.97 3.4-.3 0-.93-.04-1.22-.46h.06c.1.03.52-.05.52-.49a.46.46 0 0 0-.49-.48q-.48.02-.5.52c0 .73.6 1.23 1.63 1.23 1.5 0 2.93-1.6 2.93-4.17 0-3.22-1.32-4.02-2.39-4.02-1.3 0-2.47 1.1-2.47 2.67C.48-3.69 1.6-2.6 2.8-2.6c.87 0 1.33-.66 1.58-1.27Zm-1.54.61c-.75 0-1.07-.6-1.18-.83-.2-.45-.2-1.03-.2-1.56 0-.67 0-1.25.32-1.73.22-.33.53-.68 1.17-.68.7 0 1.03.6 1.16.88.23.58.23 1.6.23 1.78 0 1-.45 2.14-1.5 2.14m0 0"/>
    <path id="k" d="M3.56-4.31c.6-.32 1.47-.88 1.47-1.88 0-1.03-1.01-1.75-2.1-1.75C1.74-7.94.8-7.06.8-5.98q-.02.6.46 1.21c.12.16.14.18.98.75C1.09-3.47.48-2.67.48-1.8.48-.53 1.68.25 2.91.25c1.32 0 2.43-.98 2.43-2.23 0-1.22-.86-1.75-1.78-2.33M1.94-5.4c-.16-.1-.64-.4-.64-1 0-.77.8-1.27 1.6-1.27.87 0 1.63.63 1.63 1.49 0 .73-.51 1.31-1.22 1.69Zm.56 1.55 1.44.93c.31.2.86.58.86 1.32 0 .9-.92 1.51-1.88 1.51-1.01 0-1.89-.73-1.89-1.72 0-.93.69-1.68 1.47-2.04m0 0"/>
    <path id="s" d="M3.9-2.53c0-.86-.1-1.38-.35-1.88-.36-.7-1-.87-1.44-.87-1 0-1.38.73-1.48.97a4 4 0 0 0-.3 1.78c0 .51.01 1.33.4 1.95.36.6.96.75 1.38.75a1.6 1.6 0 0 0 1.47-.9 4 4 0 0 0 .31-1.8M2.1-.06c-.26 0-.82-.13-.98-.96-.09-.45-.09-1.2-.09-1.6 0-.57 0-1.11.1-1.55.15-.81.78-.9.98-.9.27 0 .81.13.97.87.1.43.1 1.03.1 1.58 0 .46 0 1.17-.1 1.62-.16.83-.7.94-.97.94m0 0"/>
    <clipPath id="l">
      <path d="M345.87 260.86H527.6v153.4H345.87Zm0 0"/>
    </clipPath>
  </defs>
  <path fill="none" stroke="#d9d9d9" stroke-miterlimit="10" stroke-width=".3" d="M353.14 414.27v-153.4m7.27 153.4v-153.4m7.27 153.4v-153.4m7.27 153.4v-153.4m14.53 153.4v-153.4m7.27 153.4v-153.4m7.27 153.4v-153.4m7.27 153.4v-153.4m14.54 153.4v-153.4m7.26 153.4v-153.4m7.27 153.4v-153.4m7.27 153.4v-153.4m14.54 153.4v-153.4m7.27 153.4v-153.4m7.27 153.4v-153.4m7.27 153.4v-153.4m14.53 153.4v-153.4m7.27 153.4v-153.4m7.27 153.4v-153.4m7.27 153.4v-153.4"/>
  <path fill="none" stroke="#b2b2b2" stroke-miterlimit="10" stroke-width=".6" d="M345.87 414.27v-153.4m36.34 153.4v-153.4m36.35 153.4v-153.4m36.34 153.4v-153.4m36.34 153.4v-153.4m36.35 153.4v-153.4"/>
  <path fill="none" stroke="#d9d9d9" stroke-miterlimit="10" stroke-width=".3" d="M345.87 408.13H527.6M345.87 402H527.6m-181.72-6.14H527.6m-181.72-6.14H527.6m-181.72-12.27H527.6m-181.72-6.14H527.6m-181.72-6.13H527.6m-181.72-6.14H527.6m-181.72-12.27H527.6m-181.72-6.14H527.6m-181.72-6.13H527.6m-181.72-6.14H527.6m-181.72-12.27H527.6m-181.72-6.14H527.6m-181.72-6.13H527.6m-181.72-6.14H527.6m-181.72-12.27H527.6m-181.72-6.14H527.6m-181.72-6.13H527.6M345.87 267H527.6"/>
  <path fill="none" stroke="#b2b2b2" stroke-miterlimit="10" stroke-width=".6" d="M345.87 414.27H527.6m-181.72-30.68H527.6M345.87 352.9H527.6m-181.72-30.69H527.6m-181.72-30.68H527.6m-181.72-30.68H527.6"/>
  <path fill="none" stroke="#7f7f7f" stroke-miterlimit="10" stroke-width=".2" d="M353.14 415.68v-2.83m7.27 2.83v-2.83m7.27 2.83v-2.83m7.27 2.83v-2.83m14.53 2.83v-2.83m7.27 2.83v-2.83m7.27 2.83v-2.83m7.27 2.83v-2.83m14.54 2.83v-2.83m7.26 2.83v-2.83m7.27 2.83v-2.83m7.27 2.83v-2.83m14.54 2.83v-2.83m7.27 2.83v-2.83m7.27 2.83v-2.83m7.27 2.83v-2.83m14.53 2.83v-2.83m7.27 2.83v-2.83m7.27 2.83v-2.83m7.27 2.83v-2.83m-174.45 3.55v-4.26m36.34 4.25v-4.25m36.35 4.25v-4.25m36.34 4.25v-4.25m36.34 4.25v-4.25m36.35 4.25v-4.25m-183.13-4.01h2.83m-2.83-6.13h2.83m-2.83-6.14h2.83m-2.83-6.14h2.83m-2.83-12.27h2.83m-2.83-6.14h2.83m-2.83-6.13h2.83m-2.83-6.14h2.83m-2.83-12.27h2.83m-2.83-6.14h2.83m-2.83-6.13h2.83m-2.83-6.14h2.83m-2.83-12.27h2.83m-2.83-6.14h2.83m-2.83-6.13h2.83m-2.83-6.14h2.83m-2.83-12.27h2.83m-2.83-6.14h2.83m-2.83-6.13h2.83m-2.83-6.14h2.83m-3.54 147.27H348m-4.25-30.68H348m-4.25-30.68H348m-4.25-30.69H348m-4.25-30.68H348m-4.25-30.68H348"/>
  <path fill="none" stroke="#000" stroke-miterlimit="10" stroke-width=".4" d="M345.87 414.27H525.6"/>
  <path d="m527.59 414.27-3.19-1.6 1.2 1.6-1.2 1.59"/>
  <path fill="none" stroke="#000" stroke-miterlimit="10" stroke-width=".4" d="M345.87 414.27V262.85"/>
  <path d="m345.87 260.86-1.59 3.19 1.6-1.2 1.58 1.2"/>
  <use xlink:href="#a" x="342.95" y="428.18"/>
  <use xlink:href="#a" x="374.75" y="428.18"/>
  <use xlink:href="#b" x="380.59" y="428.18"/>
  <use xlink:href="#c" x="383.84" y="428.18"/>
  <use xlink:href="#a" x="411.09" y="428.18"/>
  <use xlink:href="#b" x="416.93" y="428.18"/>
  <use xlink:href="#d" x="420.18" y="428.18"/>
  <use xlink:href="#a" x="447.43" y="428.18"/>
  <use xlink:href="#b" x="453.28" y="428.18"/>
  <use xlink:href="#e" x="456.52" y="428.18"/>
  <use xlink:href="#a" x="483.77" y="428.18"/>
  <use xlink:href="#b" x="489.62" y="428.18"/>
  <use xlink:href="#f" x="492.87" y="428.18"/>
  <use xlink:href="#a" x="520.11" y="428.18"/>
  <use xlink:href="#b" x="525.96" y="428.18"/>
  <use xlink:href="#g" x="529.21" y="428.18"/>
  <use xlink:href="#a" x="318.87" y="418.12"/>
  <use xlink:href="#b" x="324.71" y="418.12"/>
  <use xlink:href="#h" x="327.96" y="418.12"/>
  <use xlink:href="#g" x="333.81" y="418.12"/>
  <use xlink:href="#a" x="318.87" y="387.44"/>
  <use xlink:href="#b" x="324.71" y="387.44"/>
  <use xlink:href="#h" x="327.96" y="387.44"/>
  <use xlink:href="#i" x="333.81" y="387.44"/>
  <use xlink:href="#a" x="318.87" y="356.76"/>
  <use xlink:href="#b" x="324.71" y="356.76"/>
  <use xlink:href="#h" x="327.96" y="356.76"/>
  <use xlink:href="#j" x="333.81" y="356.76"/>
  <use xlink:href="#a" x="318.87" y="326.08"/>
  <use xlink:href="#b" x="324.71" y="326.08"/>
  <use xlink:href="#h" x="327.96" y="326.08"/>
  <use xlink:href="#k" x="333.81" y="326.08"/>
  <use xlink:href="#a" x="318.87" y="295.39"/>
  <use xlink:href="#b" x="324.71" y="295.39"/>
  <use xlink:href="#h" x="327.96" y="295.39"/>
  <use xlink:href="#h" x="333.81" y="295.39"/>
  <use xlink:href="#c" x="333.81" y="264.71"/>
  <g clip-path="url(#l)">
    <path fill="none" stroke="#000" stroke-miterlimit="10" stroke-width=".8" d="m345.87 260.86 90.86 79.77 181.71 159.54 90.86 79.78"/>
  </g>
  <use xlink:href="#m" x="513.64" y="407.85"/>
  <use xlink:href="#n" x="520.37" y="407.85"/>
  <use xlink:href="#o" x="525.62" y="407.85"/>
  <use xlink:href="#p" x="531.79" y="407.85"/>
  <use xlink:href="#q" x="349.97" y="253.79"/>
  <use xlink:href="#r" x="356" y="253.79"/>
  <use xlink:href="#q" x="361.84" y="253.79"/>
  <use xlink:href="#s" x="367.87" y="255.58"/>
</svg>
