<svg xmlns="http://www.w3.org/2000/svg" xmlns:xlink="http://www.w3.org/1999/xlink" width="595.32" height="600" viewBox="0 0 595.32 600">
  <defs>
    <path id="d" d="M.3-5.36h4.62l.24 1.45h-.27a2 2 0 0 0-.23-.67 1 1 0 0 0-.38-.33 2 2 0 0 0-.72-.07H3.1v3.71q0 .62.08.77t.24.22q.17.04.75.06V0H1.25v-.22q.56-.01.72-.17t.16-.88v-3.71h-.47q-.52 0-.7.06a1 1 0 0 0-.35.3q-.15.24-.28.71H.06Zm0 0"/>
    <path id="h" d="m2.05-1.66 2.3-2.67q0-.44-.16-.62-.15-.17-.53-.2v-.2h2.48v.2q-.4 0-.53.09a1 1 0 0 0-.2.2q-.08.1-.08.75v2.84q0 .63.06.75.06.13.2.22t.55.08V0h-2.6v-.22q.49 0 .65-.17t.17-.88v-2.51L2.05-1.1q0 .5.14.68.12.2.56.2V0H.27v-.22q.52 0 .67-.19.15-.18.14-.86V-4.1q0-.62-.06-.73a1 1 0 0 0-.2-.2q-.14-.1-.55-.1v-.22h2.59v.22q-.4 0-.53.08a1 1 0 0 0-.2.2q-.08.1-.08.75Zm0 0"/>
    <path id="j" d="M.92-5.36h4.8v.22q-.4 0-.53.08a1 1 0 0 0-.2.2q-.08.1-.08.75v2.84q0 .63.06.75.05.13.2.22t.55.08V0H2.94v-.22q.44 0 .62-.05.17-.04.27-.21.1-.2.1-.79v-3.71H2.17v2.26q0 1.28-.13 1.8-.11.52-.45.76Q1.25.1.8.1.06.1.06-.53q0-.2.13-.33A.4.4 0 0 1 .5-1q.2 0 .4.16.21.23.33.23.27 0 .38-.44.12-.45.12-1.56v-1.17q0-.92-.14-1.11-.12-.2-.67-.25Zm0 0"/>
    <path id="i" d="M2.05-2.97h2.3V-4.1q.01-.5-.04-.66a.5.5 0 0 0-.18-.26q-.16-.1-.58-.11v-.22h2.6v.22q-.37 0-.54.1a.4.4 0 0 0-.22.23q-.06.15-.06.7v2.84q0 .52.04.7.05.15.22.26.18.1.55.1V0h-2.6v-.22q.49 0 .65-.17t.17-.88v-1.32H2.05v1.32q0 .52.04.7.06.15.2.26.17.1.57.1V0H.26v-.22Q.8-.22.95-.4t.14-.86V-4.1q0-.5-.05-.66a.4.4 0 0 0-.2-.26q-.18-.1-.56-.11v-.22h2.59v.22q-.36 0-.53.1a.4.4 0 0 0-.22.23q-.06.15-.06.7Zm0 0"/>
    <path id="e" d="M3.4-.77q-.81.63-1.02.74-.33.15-.68.14-.56 0-.92-.38a1.4 1.4 0 0 1-.36-1q0-.38.19-.68.24-.38.83-.74.6-.36 1.97-.86v-.22q0-.8-.25-1.09-.26-.3-.74-.3a1 1 0 0 0-.6.2.6.6 0 0 0-.21.46l.01.33q0 .29-.14.42-.14.15-.35.14a.5.5 0 0 1-.36-.14.6.6 0 0 1-.15-.42q0-.5.52-.92t1.45-.43q.72 0 1.18.24.33.19.5.58.1.24.1 1.01v1.83q0 .76.04.94.03.18.09.23.06.07.16.06.09 0 .17-.04l.47-.42v.32q-.66.88-1.25.88a.6.6 0 0 1-.47-.2q-.16-.2-.17-.68m0-.39v-2.03q-.87.35-1.13.49-.46.27-.66.54-.2.3-.2.61 0 .43.25.7.25.3.57.29.46 0 1.18-.6m0 0"/>
    <path id="c" d="M4.92-2.03Q4.7-.98 4.08-.41a2.04 2.04 0 0 1-3-.2A3 3 0 0 1 .4-2.67q0-1.27.75-2.05.75-.8 1.8-.8.8 0 1.3.43.52.4.52.86 0 .21-.16.36-.13.14-.39.14-.34 0-.53-.22-.09-.13-.12-.47a.8.8 0 0 0-.24-.53 1 1 0 0 0-.56-.17q-.6 0-.95.43a2.3 2.3 0 0 0-.47 1.52q0 .95.47 1.69.46.73 1.26.73.58 0 1.04-.4.32-.26.62-.98Zm0 0"/>
    <path id="g" d="m2.5-7.66 1.58-.67h.26v3.3a1.6 1.6 0 0 1 1.08-.49q.75 0 1.28.83.55.84.55 2.02a3.6 3.6 0 0 1-.55 2q-.54.83-1.33.83-.58 0-1.03-.5V1.3q0 .58.07.74.06.17.23.23.2.06.75.06v.22H2.5v-.22q.57 0 .75-.17.17-.15.17-.86V-.34q-.44.5-1.01.5-.84 0-1.36-.83a4 4 0 0 1-.53-2.06q0-1.1.5-1.94.52-.84 1.36-.85.6 0 1.04.57v-1.46q0-.75-.1-.95a.3.3 0 0 0-.32-.2q-.18 0-.4.1Zm.92 3.22q-.33-.68-.83-.68t-.78.65a5 5 0 0 0-.28 1.94q0 1.12.28 1.72.29.57.78.58.45 0 .83-.54Zm.92 3.58a.9.9 0 0 0 .85.63q.45 0 .73-.57.3-.57.3-1.78 0-2.55-1.02-2.54-.42 0-.86.46Zm0 0"/>
    <path id="f" d="m-.02-4.83 1.66-.67h.22v1.25q.42-.7.83-.98.42-.3.89-.29.81 0 1.34.63.66.79.66 2.01 0 1.4-.8 2.3-.66.75-1.64.74-.44 0-.75-.11a2 2 0 0 1-.53-.36v1.64q0 .55.06.69.07.15.24.23.17.1.6.1v.21h-2.8v-.22H.1q.3.01.55-.12.1-.06.17-.2.06-.15.06-.74v-5.06q0-.52-.05-.66a.4.4 0 0 0-.15-.2.4.4 0 0 0-.27-.08q-.14 0-.36.08Zm1.88.94v2q0 .65.05.84.1.35.4.61.34.25.82.25.57 0 .93-.45.49-.6.49-1.69 0-1.21-.55-1.89-.37-.45-.9-.45-.27 0-.54.14a3 3 0 0 0-.7.64m0 0"/>
    <path id="a" d="M2.6-4.19q.57-.78 1.1-1.14.52-.37 1.08-.37.42 0 .72.08l-.28 1.3H4.6a1 1 0 0 0-.1-.37q-.06-.14-.15-.18a.4.4 0 0 0-.22-.07q-.22 0-.47.19-.25.17-.56.56-.3.39-.48.75-.2.34-.32.9L1.77 0H.75l.84-3.72a5 5 0 0 0 .13-.86.6.6 0 0 0-.08-.34q-.06-.1-.23-.11a.7.7 0 0 0-.4.16q-.18.14-.54.53l-.33-.33q.53-.56.9-.8.36-.24.8-.23.36 0 .58.25.22.23.22.62 0 .3-.1.61Zm0 0"/>
    <path id="b" d="M4.1-.94q.3 0 .48-.03.16-.04.28-.12l.17-.2.16-.43h.48L5.57 0H.76v-.28q.26-.6.69-1.25.42-.66 1.22-1.53.67-.75.96-1.14.33-.42.49-.72a2.4 2.4 0 0 0 .31-1.13q0-.45-.14-.78t-.44-.53a1.3 1.3 0 0 0-.71-.19q-1.14 0-1.5 1.22h-.7v-1.12a6 6 0 0 1 2.44-.64q1.07 0 1.64.48.56.46.56 1.38 0 .3-.06.57-.07.28-.2.52-.14.25-.37.55T4.47-4l-.92 1Q2.42-1.8 1.9-.94Zm0 0"/>
    <path id="v" d="M1.44.5q-.12.14-.19.27a1 1 0 0 0-.14.55q0 .44.31.63.3.2.96.2.71 0 1.15-.32T4.28.8q.3-.72.61-2.2h-.08q-.58.78-1.06 1.13A1.7 1.7 0 0 1 2.7.1q-.64 0-1-.48a2.3 2.3 0 0 1-.34-1.38q0-.99.39-1.92.39-.91 1.08-1.47a2.5 2.5 0 0 1 2.26-.45q.33.08.66.3l.53-.4.38.1-.6 2.74-.3 1.43Q5.54-.2 5.39.31T5 1.23a2.6 2.6 0 0 1-1.42 1.22q-.5.17-1.19.17-2.22 0-2.22-1.3 0-.32.2-.59t.65-.56ZM3.13-.6q.29 0 .59-.21t.62-.64q.35-.45.54-.86.18-.4.3-1 .15-.6.15-1.05t-.2-.67q-.19-.2-.65-.2-.6 0-1.07.48t-.75 1.31a5 5 0 0 0-.27 1.63q0 .6.17.9.19.3.56.3m0 0"/>
    <path id="k" d="M2.58-4.1q.54-.82 1.08-1.21.52-.4 1.07-.4.57 0 .85.34.3.3.3.92v.17q.5-.72 1-1.06.49-.36 1.04-.36.53 0 .83.3.3.32.3.88 0 .38-.18 1.05l-.39 1.55q-.15.63-.15.89 0 .24.08.34.07.12.25.11a.6.6 0 0 0 .36-.14q.2-.15.57-.55l.33.33a5 5 0 0 1-.87.78Q8.67.1 8.19.1a.8.8 0 0 1-.61-.26 1 1 0 0 1-.24-.7q0-.38.2-1.13l.26-1q.14-.55.18-.81.05-.27.05-.44 0-.4-.14-.58-.13-.18-.44-.19a1 1 0 0 0-.53.2 3 3 0 0 0-.6.57q-.3.4-.5.77t-.3.92L4.98 0H3.97l.67-2.98.17-.8q.05-.27.05-.45 0-.43-.16-.6-.15-.18-.47-.19a1 1 0 0 0-.5.2q-.28.18-.6.59-.33.4-.52.78-.18.38-.3.92L1.77 0H.75l.84-3.72q.15-.56.14-.86a.6.6 0 0 0-.07-.34q-.09-.1-.25-.11a.6.6 0 0 0-.38.16q-.2.14-.56.53l-.33-.33q.51-.53.9-.78.36-.25.8-.25.38 0 .58.25.22.23.22.62 0 .33-.12.69Zm0 0"/>
    <path id="u" d="M3.1-2.4a1 1 0 0 0-.13-.32.4.4 0 0 0-.14-.12l-.27-.04h-.4L1.55 0h-1l1.5-6.7.1-.52q.04-.2.04-.34 0-.25-.16-.35Q1.88-8 1.5-8l.08-.32 1.47-.04h.34l-1.14 5.1h.19q.43 0 .98-.37.55-.39.88-.72T4.63-5q0-.28-.41-.31l.08-.3h1.89l.1.3q-.48.44-1.02.86L3.8-3.33l.58 2.11q.06.29.13.4.05.12.12.18.08.05.2.05.16 0 .36-.16.21-.17.49-.47l.33.33q-.54.55-.88.77-.35.21-.66.21a1 1 0 0 1-.64-.21 2 2 0 0 1-.37-.77Zm0 0"/>
    <path id="o" d="M3.05-1.1v.23l.03.15q0 .06.04.11l.08.08q.04.05.13.08t.2.04a5 5 0 0 0 .75.05V0H.98v-.36l.43-.02.48-.06.13-.06.09-.08.06-.1a1 1 0 0 0 .06-.41v-2.99q0-.15-.06-.22A.2.2 0 0 0 2-4.38q-.15 0-.4.15-.24.12-.65.39l-.1-.2-.08-.2 1.01-.56 1.03-.56h.25l-.01.42v.67Zm0 0"/>
    <path id="r" d="M3.02-.67q.2 0 .3-.02.13 0 .2-.06t.12-.16l.14-.28h.4q-.05.3-.05.6L4.09 0H.56v-.22a7 7 0 0 1 .53-.87 7 7 0 0 1 .86-.97l.63-.66q.25-.28.39-.5a1.4 1.4 0 0 0 .25-.8q0-.2-.06-.37a1 1 0 0 0-.18-.31 1 1 0 0 0-.28-.2 1 1 0 0 0-.4-.07 1 1 0 0 0-.66.22q-.25.21-.39.6H.7v-.82a6 6 0 0 1 1.78-.42q.44 0 .74.1t.5.27q.18.16.26.4.1.23.1.5a2 2 0 0 1-.11.57q-.05.16-.14.28t-.24.29q-.1.14-.26.3-.16.19-.36.38l-.42.42-.42.43q-.21.2-.38.4-.16.2-.27.38Zm0 0"/>
  </defs>
  <path fill="none" stroke="#000" stroke-linejoin="round" stroke-miterlimit="10" stroke-width="1.5" d="M458.96 166.9c31.81.34 57.3 25.52 56.95 56.24-.35 30.01-25.26 54.35-56.32 55.01m-115.36 0c-31.8.58-58.05-23.86-58.65-54.58s24.7-56.09 56.5-56.67h.52m-.9 0h118.7M343.46 278.04H462.1"/>
  <path d="m460.71 222.4 40.64-35.78-.66-.75-40.64 35.79Zm38.6-29.4 2.45-7.41-7.64 1.5a.5.5 0 0 0-.4.59.5.5 0 0 0 .58.4l6.82-1.34-.57-.65-2.2 6.58a.5.5 0 0 0 .32.64.5.5 0 0 0 .63-.32m-153.69-7.89h104.4v1H345.6Zm5.75 4.42-6.74-3.92 6.74-3.94a.5.5 0 0 1 .68.18.5.5 0 0 1-.18.7l-6 3.49v-.87l6 3.5a.5.5 0 0 1 .18.68.5.5 0 0 1-.68.18m92.9-7.86 6.74 3.94-6.74 3.92a.5.5 0 0 1-.68-.18.5.5 0 0 1 .18-.68l6-3.5v.87l-6-3.5a.5.5 0 0 1-.18-.69.5.5 0 0 1 .68-.18m0 0"/>
  <path fill="none" stroke="#000" stroke-linejoin="round" stroke-miterlimit="10" d="M451.04 197.41V166.9m-106.42 30.5v-30.5m-1.16 111.14v-30.5m56.7 30.5v-30.5"/>
  <use xlink:href="#a" x="472.36" y="202.19"/>
  <use xlink:href="#m" x="478.35" y="202.19"/>
  <use xlink:href="#b" x="393.1" y="182.29"/>
  <use xlink:href="#a" x="399.69" y="182.29"/>
  <use xlink:href="#m" x="405.69" y="182.29"/>
  <use xlink:href="#c" x="331.25" y="241.27"/>
  <use xlink:href="#d" x="336.53" y="241.27"/>
  <use xlink:href="#e" x="341.76" y="241.27"/>
  <use xlink:href="#f" x="347.09" y="241.27"/>
  <use xlink:href="#d" x="353.08" y="241.27"/>
  <use xlink:href="#m" x="358.34" y="241.27"/>
  <use xlink:href="#g" x="384.47" y="241.27"/>
  <use xlink:href="#h" x="392.24" y="241.27"/>
  <use xlink:href="#i" x="398.72" y="241.27"/>
  <use xlink:href="#e" x="405.18" y="241.27"/>
  <use xlink:href="#j" x="410.46" y="241.27"/>
  <use xlink:href="#m" x="416.47" y="241.27"/>
  <path fill="#fff" fill-rule="evenodd" d="M373.92 591.09h150.43v-70.42H373.92Zm0 0"/>
  <path fill="none" stroke="#000" stroke-linejoin="round" stroke-miterlimit="10" stroke-width="1.5" d="m519.76 563.72-143.1.36"/>
  <path fill="none" stroke="#000" stroke-linejoin="round" stroke-miterlimit="10" stroke-width=".75" d="m517.82 563.99-19.02 10.49m.67-10.64-21.49 10.4m-18.68-10.28-21.5 10.42m42.13-10.52-21.48 10.4m-18.58-10.42-21.49 10.4m1.04-10.16-21.49 10.4m2.1-10.49-21.48 10.4"/>
  <path fill="#fff" fill-rule="evenodd" stroke="#000" stroke-linejoin="round" stroke-miterlimit="10" stroke-width="1.5" d="M413.9 563.68h29.92v-28.79h-29.91Zm0 0"/>
  <use xlink:href="#k" x="421.39" y="551.88"/>
  <use xlink:href="#o" x="431.22" y="554.28"/>
  <use xlink:href="#m" x="436.61" y="551.88"/>
  <path fill="#fff" fill-rule="evenodd" stroke="#000" stroke-linejoin="round" stroke-miterlimit="10" stroke-width="1.5" d="M444.55 563.56h31.34v-28.79h-31.34Zm0 0"/>
  <use xlink:href="#k" x="454.14" y="552.6"/>
  <use xlink:href="#r" x="464.21" y="555"/>
  <use xlink:href="#m" x="469.6" y="552.6"/>
  <use xlink:href="#u" x="425.1" y="583.88"/>
  <use xlink:href="#o" x="431.46" y="586.28"/>
  <use xlink:href="#m" x="436.85" y="583.88"/>
  <use xlink:href="#v" x="512.39" y="537.26"/>
  <use xlink:href="#m" x="519.95" y="537.26"/>
  <path d="m509.7 524.81.03 21.23h-.75l-.03-21.22Zm-.34 21.23 2-2-2 6-2-5.99Zm0 0"/>
  <use xlink:href="#u" x="455.34" y="584.12"/>
  <use xlink:href="#r" x="461.93" y="586.52"/>
  <use xlink:href="#m" x="467.33" y="584.12"/>
</svg>
