<svg xmlns="http://www.w3.org/2000/svg" xmlns:xlink="http://www.w3.org/1999/xlink" width="420" height="370" viewBox="0 0 420 370">
  <defs>
    <path id="e" d="M3.9-8.1v6.5q0 .73.07.93.06.2.26.33.22.12.68.12h.17V0H.89v-.22h.22q.51 0 .72-.1.21-.13.3-.34.07-.2.07-.95v-4.12q0-.55-.06-.7a.5.5 0 0 0-.19-.23 1 1 0 0 0-.32-.09q-.3 0-.74.19l-.1-.22 2.93-1.33Zm0 0"/>
    <path id="d" d="M1.5-1.81q.4 0 .69.3.3.27.3.68t-.3.69a1 1 0 0 1-.69.28q-.4 0-.69-.28a1 1 0 0 1-.28-.69q0-.4.28-.69.28-.3.69-.3m0 0"/>
    <path id="a" d="M3.1-7.95h4.1v.22q-.67 0-.86.18-.18.16-.23.72 1.35 0 2.05.31.69.33 1.2.94.52.63.52 1.53 0 1.13-.85 1.99-.83.86-2.92.86 0 .42.1.6a.6.6 0 0 0 .29.27q.2.1.7.11V0H3.1v-.22q.73 0 .92-.22.18-.22.18-.76a5 5 0 0 1-2.17-.38Q1.25-1.97.84-2.6a2.65 2.65 0 0 1 .1-2.97q.5-.7 1.25-.97.76-.27 2.01-.28 0-.52-.22-.7-.2-.2-.89-.2Zm3 6.3q.6 0 .96-.16.38-.2.63-.75.25-.57.25-1.55 0-.8-.24-1.34-.22-.55-.58-.74t-1.01-.2ZM4.2-6.38a2 2 0 0 0-1.1.28q-.34.25-.54.78-.19.54-.19 1.36 0 .96.24 1.45.24.5.62.7.4.18.97.18Zm0 0"/>
    <path id="b" d="M3.7 0v-.22q.53 0 .53-.78v-2.69L2.67-1q0 .77.53.78V0H.4v-.22q.35 0 .5-.19.13-.18.13-.65v-3.38q0-.83-.62-.83v-.21h2.8v.21q-.33.02-.43.2-.1.15-.1.63v2.67l1.55-2.71q0-.45-.12-.61-.13-.18-.4-.18v-.21H6.5v.21q-.32.02-.47.18-.15.14-.16.57v3.49q0 .48.15.66.13.15.48.15V0Zm0 0"/>
    <path id="c" d="M.42-.22Q.76-.23.9-.39q.15-.15.14-.63V-4.5q0-.4-.12-.56-.13-.17-.49-.2v-.22h4.81v1.43h-.21q-.13-.66-.36-.86-.24-.2-.91-.2H2.67v4.13q0 .42.13.59.15.15.56.17V0H.42Zm0 0"/>
    <path id="f" d="M.44-1.75.19.15h.2c.11-.2.16-.24.28-.24q.22 0 .6.1c.28.08.45.12.65.12 1.02 0 1.74-.65 1.74-1.57 0-.47-.25-.98-.82-1.67-.45-.58-.65-.94-.65-1.28 0-.4.26-.64.67-.64q.96-.01 1.1 1.39h.21l.24-1.67h-.18c-.1.15-.17.22-.36.22-.09 0-.2-.04-.42-.1-.3-.1-.48-.12-.68-.12-.9 0-1.46.53-1.46 1.33q0 .58.77 1.54c.47.63.67 1.05.67 1.4 0 .54-.36.92-.9.92C1.2-.12.82-.61.63-1.75Zm0 0"/>
    <path id="g" d="M.06 1.55C1.08.98 1.63.3 1.63-.35c0-.5-.3-.87-.7-.87-.35 0-.62.25-.62.56 0 .22.08.35.3.55.19.17.25.27.25.4 0 .32-.27.63-.9 1.05Zm0 0"/>
    <path id="h" d="M.19 0h2.67v-.19c-.61 0-.8-.14-.81-.62v-3.4l.18-.21a2 2 0 0 1 1.24-.49q.8 0 .8 1.27v2.6c-.04.7-.14.82-.82.85V0h2.7v-.19c-.68 0-.85-.18-.87-.95v-3.03c.36-.52.74-.74 1.31-.74.7 0 .91.33.91 1.33v2.53c-.03.7-.1.8-.8.86V0h2.64v-.19L9.02-.2c-.38-.07-.52-.24-.52-.72V-3.4q0-2.13-1.4-2.14c-.7 0-1.3.31-1.96 1q-.31-1-1.28-1c-.53 0-.86.16-1.86.92v-.9l-.08-.02C1.28-5.31.88-5.17.23-5v.22q.2-.07.38-.06c.31 0 .42.2.42.78v3.04c-.01.68-.17.83-.84.83Zm0 0"/>
    <path id="l" d="M3.06-8.14c-.67 0-1.17.2-1.6.64C.74-6.83.3-5.45.3-4.05c0 1.33.39 2.72.95 3.4q.69.8 1.77.82.9 0 1.56-.62c.7-.67 1.15-2.07 1.15-3.52 0-2.47-1.09-4.17-2.67-4.17m-.03.31c1 0 1.55 1.38 1.55 3.88q0 3.78-1.56 3.8c-1.05 0-1.57-1.29-1.57-3.79 0-2.56.53-3.89 1.58-3.89m0 0"/>
    <path id="m" d="M1.42 0h3.33v-.19c-.94 0-1.14-.12-1.14-.7v-7.22l-.11-.03-2.16 1.1v.17q.7-.27.86-.27.37 0 .36.58v5.44c-.01.76-.22.93-1.14.93Zm0 0"/>
    <path id="p" d="m5.72-1.64-.16-.06c-.43.68-.58.78-1.14.78H1.55l2.01-2.11C4.64-4.16 5.11-5.06 5.11-6c0-1.2-.99-2.14-2.24-2.14-.65 0-1.28.27-1.73.75-.37.4-.56.8-.76 1.66l.25.06c.48-1.19.9-1.58 1.75-1.58 1.01 0 1.7.69 1.7 1.7 0 .96-.56 2.07-1.58 3.13L.36-.14V0h4.7Zm0 0"/>
    <path id="i" d="M3.56-5.14H2.6l.35-1.24.01-.07q0-.12-.1-.11c-.07 0-.1.01-.18.1a5 5 0 0 1-1.6 1.34c-.3.09-.38.15-.38.3l.01.05h.9l-.9 3.32-.06.25c-.13.39-.22.76-.22.89 0 .25.26.44.58.44.56 0 .95-.33 1.71-1.46l-.15-.08c-.6.75-.78.96-.99.96q-.16-.01-.17-.25l.02-.05 1.04-4.02H3.5Zm0 0"/>
    <path id="j" d="M.06 1.55C1.08.98 1.63.3 1.63-.35c0-.5-.3-.87-.7-.87-.35 0-.62.25-.62.56 0 .22.08.35.3.55.19.17.25.27.25.4 0 .3-.27.63-.9 1.05Zm0 0"/>
    <path id="k" d="m3.8-3.77-.07-1.65h-.12q-.1.14-.19.14a1 1 0 0 1-.33-.1q-.42-.14-.84-.15c-.95 0-1.64.62-1.64 1.5C.6-3.36 1-2.9 2-2.31l.7.4q.64.35.63.9c0 .53-.39.87-1 .87C1.52-.14 1.1-.6.81-1.83H.62V.05h.16c.08-.13.14-.14.28-.14.13 0 .27.01.55.09q.51.13.87.13c.94 0 1.7-.7 1.7-1.55 0-.6-.29-1-1-1.42l-1.3-.77q-.5-.33-.52-.83c0-.48.37-.81.92-.81.69 0 1.05.4 1.33 1.48Zm0 0"/>
    <path id="n" d="m5.72-1.64-.16-.06c-.45.68-.58.78-1.14.8H1.55l2.01-2.13C4.63-4.14 5.1-5.06 5.1-6c0-1.2-.96-2.12-2.21-2.12-.66 0-1.29.26-1.74.74-.37.41-.56.8-.76 1.65l.25.06c.48-1.17.9-1.56 1.75-1.56 1.01 0 1.68.68 1.68 1.68 0 .96-.54 2.07-1.56 3.13L.36-.14V0h4.69Zm0 0"/>
    <path id="o" d="M3.06-8.12c-.67 0-1.17.18-1.62.62C.75-6.83.28-5.44.28-4.03c0 1.31.4 2.7.97 3.37q.69.82 1.77.83.9 0 1.56-.62c.69-.67 1.15-2.07 1.15-3.52 0-2.45-1.1-4.15-2.67-4.15m-.04.3c1.01 0 1.56 1.37 1.56 3.88s-.53 3.8-1.56 3.8c-1.05 0-1.58-1.3-1.58-3.78 0-2.56.54-3.9 1.58-3.9m0 0"/>
  </defs>
  <use xlink:href="#a" x="355.03" y="354.17"/>
  <use xlink:href="#b" x="365.34" y="354.17"/>
  <use xlink:href="#c" x="372.3" y="354.17"/>
  <use xlink:href="#d" x="377.7" y="354.17"/>
  <use xlink:href="#af" x="380.7" y="354.17"/>
  <use xlink:href="#e" x="383.7" y="354.17"/>
  <use xlink:href="#an" x="389.71" y="354.17"/>
  <use xlink:href="#f" x="189.89" y="217.3"/>
  <use xlink:href="#g" x="194.7" y="217.3"/>
  <use xlink:href="#bV" x="197.9" y="217.3"/>
  <use xlink:href="#h" x="200.34" y="217.3"/>
  <use xlink:href="#i" x="332.24" y="347.96"/>
  <use xlink:href="#j" x="335.44" y="347.96"/>
  <use xlink:href="#bZ" x="338.65" y="347.96"/>
  <use xlink:href="#k" x="341.06" y="347.96"/>
  <use xlink:href="#l" x="187.76" y="339.68"/>
  <use xlink:href="#m" x="248.48" y="348.76"/>
  <use xlink:href="#l" x="254.5" y="348.76"/>
  <use xlink:href="#n" x="303.88" y="348.23"/>
  <use xlink:href="#o" x="309.9" y="348.23"/>
  <use xlink:href="#m" x="187.76" y="287.05"/>
  <use xlink:href="#p" x="187.76" y="234.67"/>
  <use xlink:href="#l" x="194.25" y="348.89"/>
  <path fill="gray" d="M208.94 336.73V220.45q0-.06.07-.07.06 0 .07.07v116.28q0 .06-.07.07-.06 0-.07-.07m11.24 0V220.45q0-.06.06-.07.06 0 .07.07v116.28q0 .06-.07.07a.1.1 0 0 1-.06-.07m11.23 0V220.45q0-.06.07-.07.05 0 .06.07v116.28q0 .06-.06.07a.1.1 0 0 1-.07-.07m11.23 0V220.45q0-.06.07-.07.06 0 .07.07v116.28q0 .06-.07.07a.1.1 0 0 1-.07-.07m22.46 0V220.45q.01-.06.08-.07.05 0 .06.07v116.28q0 .06-.06.07a.1.1 0 0 1-.07-.07m11.23 0V220.45q0-.06.07-.07.06 0 .07.07v116.28q0 .06-.07.07a.1.1 0 0 1-.07-.07m11.16 0V220.45q.01-.06.08-.07.05 0 .06.07v116.28q0 .06-.06.07-.07 0-.07-.07m11.23 0V220.45q0-.06.07-.07.06 0 .06.07v116.28q0 .06-.06.07a.1.1 0 0 1-.07-.07m22.47 0V220.45q0-.06.07-.07.05 0 .06.07v116.28q0 .06-.06.07a.1.1 0 0 1-.07-.07m11.23 0V220.45q0-.06.07-.07.06 0 .07.07v116.28q0 .06-.07.07a.1.1 0 0 1-.07-.07m11.24 0V220.45q0-.06.06-.07.06 0 .07.07v116.28q0 .06-.07.07a.1.1 0 0 1-.06-.07m0 0"/>
  <path fill="gray" d="M197.78 326.08H343.8q.06 0 .06.07 0 .05-.06.06H197.78a.1.1 0 0 1-.07-.06q0-.06.07-.07m0-10.52H343.8q.06 0 .06.07 0 .06-.06.07H197.78a.06.06 0 0 1-.07-.07q0-.06.07-.07m0-10.58H343.8q.06 0 .06.07 0 .06-.06.06H197.78a.06.06 0 0 1-.07-.06q0-.07.07-.07m0-10.58H343.8q.06 0 .06.06t-.06.07H197.78a.1.1 0 0 1-.07-.07q0-.05.07-.06m0-21.1H343.8q.06 0 .06.06t-.06.07H197.78q-.06 0-.07-.07 0-.05.07-.06m0-10.59H343.8q.06.01.06.07 0 .07-.06.07H197.78a.06.06 0 0 1-.07-.07q0-.06.07-.07m0-10.58H343.8q.06 0 .06.07 0 .06-.06.07H197.78a.1.1 0 0 1-.07-.07q0-.06.07-.07m0-10.58H343.8q.06 0 .06.07 0 .05-.06.06H197.78a.1.1 0 0 1-.07-.06q0-.06.07-.07m0-21.1H343.8q.06 0 .06.07 0 .05-.06.06H197.78a.06.06 0 0 1-.07-.06q0-.06.07-.07m0 0"/>
  <path d="M253.84 336.73V220.45q.01-.1.1-.1t.1.1v116.28a.1.1 0 0 1-.1.1.1.1 0 0 1-.1-.1m56.1 0V220.45q.01-.1.1-.1t.1.1v116.28a.1.1 0 0 1-.1.1.1.1 0 0 1-.1-.1m0 0"/>
  <path d="M197.78 283.78H343.8q.09.01.1.1a.1.1 0 0 1-.1.1H197.78a.1.1 0 0 1-.1-.1q0-.09.1-.1m0-52.78H343.8q.09 0 .1.1a.1.1 0 0 1-.1.1H197.78a.1.1 0 0 1-.1-.1q0-.1.1-.1m-.24 108v-2.27q.02-.21.24-.23.21.02.23.23v2.26c0 .13-.1.24-.23.24a.24.24 0 0 1-.24-.24m11.24-1.13v-1.13q.02-.21.23-.23.21.02.23.23v1.13q-.02.21-.23.23a.23.23 0 0 1-.23-.23m11.22 0v-1.13c0-.13.11-.23.24-.23s.24.1.24.23v1.13q-.02.21-.24.23a.23.23 0 0 1-.23-.23m11.23 0v-1.13q.02-.21.24-.23.21.02.23.23v1.13q-.02.21-.23.23a.23.23 0 0 1-.24-.23m11.24 0v-1.13q.02-.21.23-.23c.13 0 .24.1.24.23v1.13c0 .13-.11.23-.24.23a.23.23 0 0 1-.23-.23m11.23 1.14v-2.27q.02-.21.23-.23c.13 0 .24.1.24.23v2.26c0 .13-.11.24-.24.24a.23.23 0 0 1-.23-.24m11.23-1.13v-1.13q.02-.21.24-.23c.12 0 .23.1.23.23v1.13q-.02.21-.23.23a.23.23 0 0 1-.24-.23m11.24 0v-1.13q.02-.21.23-.23.21.02.23.23v1.13q-.02.21-.23.23a.23.23 0 0 1-.23-.23m11.16 0v-1.13a.23.23 0 1 1 .47 0v1.13q-.02.21-.23.23a.23.23 0 0 1-.24-.23m11.23 0v-1.13c0-.13.11-.23.24-.23q.21.02.23.23v1.13q-.02.21-.23.23a.23.23 0 0 1-.24-.23M309.8 339v-2.27c0-.13.11-.23.24-.23s.24.1.24.23v2.26c0 .13-.1.24-.24.24a.24.24 0 0 1-.23-.24m11.23-1.13v-1.13q.01-.21.24-.23.21.02.23.23v1.13q-.02.21-.23.23a.23.23 0 0 1-.24-.23m11.24 0v-1.13q.02-.21.23-.23.21.02.23.23v1.13q-.02.21-.23.23a.23.23 0 0 1-.23-.23m11.22 0v-1.13c0-.13.11-.23.24-.23s.24.1.24.23v1.13q-.02.21-.24.23a.23.23 0 0 1-.23-.23m0 0"/>
  <path d="M197.78 336.5H343.8q.21.02.23.23-.02.21-.23.23H197.78a.23.23 0 0 1-.24-.23q.02-.21.24-.23m0 0"/>
  <path d="M195.5 336.5h2.28q.21.02.23.23-.02.21-.23.23h-2.28a.23.23 0 0 1-.23-.23q.02-.21.23-.23m1.14-10.59h1.14c.13 0 .23.11.23.24q-.02.21-.23.23h-1.14a.23.23 0 0 1-.23-.23c0-.13.1-.24.23-.24m0-10.51h1.14q.21.02.23.23-.02.21-.23.23h-1.14a.24.24 0 0 1-.23-.23q.02-.21.23-.23m0-10.58h1.14q.21.02.23.23-.02.21-.23.23h-1.14a.24.24 0 0 1-.23-.23q.02-.21.23-.23m0-10.59h1.14q.21.02.23.23c0 .13-.1.24-.23.24h-1.14a.24.24 0 0 1-.23-.24c0-.12.1-.23.23-.23m-1.14-10.58h2.28q.21.02.23.23-.02.21-.23.23h-2.28a.23.23 0 0 1-.23-.23q.02-.21.23-.23m1.14-10.52h1.14q.21.02.23.23-.02.23-.23.24h-1.14a.23.23 0 1 1 0-.47m0-10.58h1.14q.21.02.23.23c0 .13-.1.24-.23.24h-1.14a.24.24 0 0 1-.23-.24q.02-.21.23-.23m0-10.59h1.14c.13 0 .23.11.23.24q-.02.21-.23.23h-1.14a.24.24 0 0 1-.23-.23c0-.13.1-.24.23-.24m0-10.58h1.14q.21.01.23.24-.02.21-.23.23h-1.14a.23.23 0 0 1-.23-.23c0-.13.1-.24.23-.24m-1.14-10.51h2.28q.21.02.23.23-.02.21-.23.23h-2.28a.23.23 0 0 1-.23-.23q.02-.21.23-.23m1.14-10.58h1.14q.21.02.23.23c0 .12-.1.23-.23.23h-1.14a.24.24 0 0 1-.23-.23q.02-.21.23-.23m0 0"/>
  <path d="M197.54 336.73V220.45q.02-.21.24-.23.21.02.23.23v116.28q-.02.21-.23.23a.23.23 0 0 1-.24-.23m0 0"/>
  <path d="m197.7 335.73 33.22-7.18h-.04l.78-.22.74-.22.69-.2.63-.19.6-.18.57-.16.52-.16.49-.15.46-.14.43-.14.79-.27h-.01l.71-.25-.01.01.64-.26-.01.01.6-.26-.01.01.6-.28h-.02l.6-.29h-.03l.62-.33h-.01l.66-.38.72-.42.8-.49.45-.27.47-.29-.03.02.5-.34.45-.32.42-.28.39-.27.7-.47.6-.4.54-.36.47-.32-.01.01.42-.32-.01.02.41-.32-.02.01.41-.35-.02.02.42-.4v.02l.46-.45-.03.02.51-.53.57-.63.32-.35.34-.38.37-.42.4-.45.42-.5.47-.53-.08.12.51-1 .56-1.12v.01l.57-1.22.6-1.32.65-1.41.66-1.5.67-1.57.7-1.64.73-1.7.74-1.77.75-1.8.76-1.86.77-1.88.78-1.92 1.56-3.89 1.58-3.9 1.55-3.88.77-1.92.76-1.88.75-1.85.72-1.8.72-1.76.7-1.7.66-1.63.65-1.57.63-1.48.6-1.4.57-1.31.54-1.21.41-.93.4-.88.39-.85.38-.84.72-1.57.68-1.45.64-1.36.6-1.25.55-1.16.52-1.05.49-.98.45-.9.42-.8.38-.74.36-.67.34-.61.31-.55.28-.48.27-.45.24-.39.22-.35.22-.32.19-.29.18-.25.33-.44.29-.38.26-.35v.02l.25-.37-.01.01.33-.51.65-.5-.01.01.5-.4.94-.76.85-.69.77-.62.7-.56.65-.5.6-.47.6-.42.57-.38.56-.37.59-.33.6-.32.65-.31.69-.3.74-.3.83-.32 1.53-.51 1.48-.45 1.42-.4 1.4-.32 1.36-.28 1.38-.25 1.36-.22 1.4-.2 1.43-.16 1.42-.1 1.41-.07 1.42-.03 2.8-.02 2.8-.02 2.82-.03h2.8l5.6.03h11.21v1.2h-11.2l-5.61-.03h-2.8l-2.8.03-2.8.02-2.8.02-1.4.02h.01l-1.4.07h.02l-1.4.1h.02l-1.4.16h.02l-1.4.2h.02l-1.36.2h.01l-1.35.26.01-.01-1.35.28-1.36.32h.02l-1.41.38h.02l-1.46.44h.02l-1.52.5h.02l-.81.3h.02l-.74.3.02-.01-.67.3.01-.02-.62.3h.03l-.59.3.02-.01-.56.32.01-.01-.54.35.01-.01-.55.38v-.01l-.57.41h.02l-.6.45-.64.5-.7.55-.76.62v-.01l-.85.7-.94.74-.52.43-.57.42.15-.16-.28.45-.27.4-.27.36-.3.37-.31.43.01-.02-.17.25-.19.27-.2.3h.01l-.22.34v-.01l-.24.4v-.01l-.26.43.01-.02-.28.5V246l-.3.54-.33.6-.36.66-.38.73-.41.8-.45.9v-.02l-.48.98v-.01l-.52 1.06-.55 1.15-.6 1.24-.63 1.35-.67 1.46-.73 1.56-.37.84v-.01l-.4.85-.4.89-.4.92-.54 1.2-.57 1.3-.6 1.4-.62 1.47-.65 1.57-.66 1.62-.7 1.7-.71 1.76-.73 1.8-.75 1.85-.76 1.88-.76 1.91-1.56 3.88-1.57 3.91-1.57 3.89-.78 1.92-.77 1.9-.76 1.85-.76 1.8-.73 1.77-.73 1.71-.7 1.65-.68 1.58-.67 1.5-.64 1.42-.61 1.33-.59 1.23-.55 1.13-.56 1.07-.5.59-.44.5-.4.45-.37.42-.35.4-.32.35-.59.64-.5.54-.48.46-.44.4-.43.37-.43.34-.45.32-.48.34-.54.35-.6.4-.7.48-.39.26-.42.28-.44.31-.5.35-.5.3-.44.27-.81.5-.73.43-.67.39-.64.34-.6.31-.62.3-.63.26-.66.26-.74.26-.8.27-.44.14-.47.14-.49.16-.53.16-.57.17-.6.17-.64.2-.69.2-.73.2-.8.24-33.25 7.2Zm0 0"/>
</svg>
