<svg xmlns="http://www.w3.org/2000/svg" xmlns:xlink="http://www.w3.org/1999/xlink" width="200" height="300" viewBox="0 0 200 300">
  <defs>
    <path id="a" d="M1.92-3.17q-.66.3-1.54.64l-.15-.49q.94-.3 1.82-.73l.36-1.66q.32-1.48.92-2.2t1.42-.73q.39 0 .64.17.26.15.38.44.1.28.1.62 0 .55-.25 1.14-.25.6-.87 1.19-.6.58-1.78 1.19l-.38 1.7q-.12.58-.12.86 0 .24.08.34.07.12.25.11.15 0 .3-.08t.3-.21l.32-.35.36-.5.4.31q-.4.57-.7.86t-.64.47-.72.17q-.45 0-.69-.26A1 1 0 0 1 1.5-.9q0-.45.16-1.14Zm1.17-.99q.97-.6 1.49-1.4.53-.81.53-1.7 0-.3-.11-.46a.4.4 0 0 0-.33-.17.7.7 0 0 0-.5.23 2 2 0 0 0-.39.68q-.18.45-.33 1.2Zm0 0"/>
    <path id="d" d="m1.66-.22-.61 2.75H.09l1.2-5.3q.18-.93.59-1.56t1-1q.6-.37 1.4-.37.56 0 1 .23t.66.67q.21.45.22 1.08 0 1-.4 1.9a3.4 3.4 0 0 1-1.09 1.4q-.69.51-1.54.51a4 4 0 0 1-1.47-.3M2.2-2.5l-.2.95-.03.2-.02.2q0 .37.3.57t.83.2q.6 0 1.06-.48t.72-1.34.26-1.72q0-.37-.07-.66a1 1 0 0 0-.3-.47 1 1 0 0 0-.62-.18q-.23 0-.43.07t-.42.29q-.23.19-.42.51-.21.31-.36.75T2.2-2.5m0 0"/>
    <path id="f" d="m2.8-2.66-.38-1.67a2 2 0 0 0-.17-.48q-.06-.12-.14-.16a.3.3 0 0 0-.17-.05l-.24.07a1 1 0 0 0-.22.18l-.3.43L.8-4.6q.38-.57.72-.83a1.2 1.2 0 0 1 1.1-.24q.15.04.25.13.12.07.2.22.07.12.15.36t.14.58q.08.34.12.71h.07q.55-.8.84-1.15.3-.37.5-.55t.38-.25.5-.08q.25 0 .45.07l-.24 1.06h-.42q-.03-.25-.2-.25l-.11.03-.16.08q-.07.04-.25.22a11 11 0 0 0-.78.93l-.39.5.2.97.16.69.13.42.12.24q.06.08.13.1.07.04.17.04.15 0 .3-.11.15-.13.43-.57l.38.25q-.41.62-.74.86a1.3 1.3 0 0 1-.8.25A1 1 0 0 1 3.74 0a1 1 0 0 1-.3-.28A7 7 0 0 1 3-2.06h-.07Q2.3-1.2 1.98-.8q-.3.38-.5.57-.19.17-.37.25T.62.09A1 1 0 0 1 .18.02l.24-1.07h.42q.02.25.2.25l.17-.04q.1-.05.25-.2.18-.18.47-.54zm0 0"/>
    <path id="c" d="M1.44.5q-.12.14-.19.27a1 1 0 0 0-.14.55q0 .44.31.63.3.2.96.2.71 0 1.15-.32T4.28.8q.3-.72.61-2.2h-.08q-.58.78-1.06 1.13A1.7 1.7 0 0 1 2.7.1q-.64 0-1-.48a2.3 2.3 0 0 1-.34-1.38q0-.99.39-1.92.39-.91 1.08-1.47a2.5 2.5 0 0 1 2.26-.45q.33.08.66.3l.53-.4.38.1-.6 2.74-.3 1.43Q5.54-.2 5.39.31T5 1.23a2.6 2.6 0 0 1-1.42 1.22q-.5.17-1.19.17-2.22 0-2.22-1.3 0-.32.2-.59t.65-.56ZM3.13-.6q.29 0 .59-.21t.62-.64q.35-.45.54-.86.18-.4.3-1 .15-.6.15-1.05t-.2-.67q-.19-.2-.65-.2-.6 0-1.07.48t-.75 1.31a5 5 0 0 0-.27 1.63q0 .6.17.9.19.3.56.3m0 0"/>
    <path id="e" d="M.44 0v-.2Q.72-.28.8-.4q.1-.15.1-.52v-2.14q0-.39-.12-.52-.1-.14-.34-.19v-.2h1.81q.85 0 1.23.22.38.23.38.73 0 .6-.75.9v.04q.87.24.87.97 0 .55-.39.83Q3.21 0 2.27 0ZM1.6-3.66v1.43h.5q.56 0 .78-.2.22-.18.22-.54t-.23-.53-.79-.17Zm0 1.74v1.6h.53q.6 0 .84-.2a.8.8 0 0 0 .24-.6q0-.39-.24-.6-.21-.2-.78-.2Zm0 0"/>
  </defs>
  <path fill="#fff" fill-rule="evenodd" d="M61.73 279.87H173.7V170.7H61.73Zm0 0"/>
  <path fill="#d9d9d9" fill-rule="evenodd" d="M66.38 273.93h105.27V206.8H66.38Zm0 0"/>
  <path fill="none" stroke="#000" stroke-linecap="round" stroke-linejoin="round" stroke-miterlimit="10" stroke-width=".75" d="M171.5 206.86H66.47"/>
  <use xlink:href="#a" x="115.45" y="192.96"/>
  <use xlink:href="#b" x="121.68" y="192.96"/>
  <path fill="#7f7f7f" fill-rule="evenodd" stroke="#000" stroke-linecap="round" stroke-miterlimit="8" stroke-width="1.5" d="M105.23 221.44h25.47v-25.52h-25.47Zm0 0"/>
  <use xlink:href="#c" x="152.97" y="187.81"/>
  <use xlink:href="#b" x="160.52" y="187.81"/>
  <path d="M150.33 177.64v17.93a.5.5 0 0 1-.5.5.5.5 0 0 1-.5-.5v-17.93c0-.28.22-.5.5-.5s.5.22.5.5m-.5 17.93 2-2-2 6-2-6Zm0 0"/>
  <use xlink:href="#d" x="78.29" y="257.96"/>
  <use xlink:href="#e" x="84.53" y="260.35"/>
  <use xlink:href="#b" x="89.56" y="257.96"/>
  <path fill="none" stroke="#000" stroke-linejoin="round" stroke-miterlimit="8" stroke-width="1.5" d="M117.66 221.79v18.42"/>
  <use xlink:href="#f" x="133.43" y="203.27"/>
  <use xlink:href="#aR" x="140.14" y="203.27"/>
  <path fill="#f2f2f2" fill-rule="evenodd" stroke="#000" stroke-linejoin="round" stroke-miterlimit="8" stroke-width="1.5" d="M106.92 245.9a5.6 5.6 0 0 1 1.02-3.94c1.26-1.67 3.3-2.05 4.91-.9.99-2.26 3.48-2.73 4.97-.93.38-.92 1.1-1.56 1.93-1.7.92-.16 1.84.3 2.4 1.2.81-1.17 2.16-1.55 3.3-.95a3.5 3.5 0 0 1 1.69 2.57 3.5 3.5 0 0 1 2.14 2.51 4.6 4.6 0 0 1-.09 2.7c.74 1.19 1 2.72.7 4.15-.39 1.92-1.7 3.35-3.3 3.63 0 1.2-.43 2.33-1.17 3.1a2.93 2.93 0 0 1-4.02.39 4.4 4.4 0 0 1-2.86 3.31c-1.62.47-3.31-.33-4.23-2.02-2.18 1.6-5 .7-6.27-2-1.24.18-2.41-.76-2.76-2.23a3.6 3.6 0 0 1 .59-3 3.4 3.4 0 0 1-1.24-3.08c.14-1.45 1.08-2.59 2.27-2.74zm0 0"/>
  <path fill="none" stroke="#000" stroke-linejoin="round" stroke-miterlimit="8" stroke-width="1.5" d="M107.39 252.12q-.8.07-1.5-.43m2.8 5.03q-.3.15-.64.2m6.26 2a5 5 0 0 1-.4-.91m7.65-1.37q-.03.51-.16 1m3.28-7.23a4.4 4.4 0 0 1 1.9 3.77m2.6-7.77q-.3.83-.86 1.42m-1.18-6.65q.05.33.04.66m-5.47-1.43q.16-.47.43-.85m-4.5 1.24q.05-.38.2-.72m-4.99.97q.42.3.77.72m-6.56 4.87q-.1-.37-.14-.75"/>
  <path fill="#f2f2f2" fill-rule="evenodd" stroke="#000" stroke-dasharray="2.99658 .99886" stroke-linejoin="round" stroke-miterlimit="8" d="M116.17 243.91c-3.09 0-5.6 2.07-5.6 4.63 0 2.55 2.51 4.61 5.6 4.61s5.6-2.06 5.6-4.61-2.52-4.63-5.6-4.63Zm0 0"/>
</svg>
