<svg xmlns="http://www.w3.org/2000/svg" xmlns:xlink="http://www.w3.org/1999/xlink" width="250" height="500" viewBox="0 0 250 500">
  <defs>
    <path id="a" d="M2.58-4.1q.54-.82 1.08-1.21.52-.4 1.07-.4.57 0 .85.34.3.3.3.92v.17q.5-.72 1-1.06.49-.36 1.04-.36.53 0 .83.3.3.32.3.88 0 .38-.18 1.05l-.39 1.55q-.15.63-.15.89 0 .24.08.34.07.12.25.11a.6.6 0 0 0 .36-.14q.2-.15.57-.55l.33.33a5 5 0 0 1-.87.78Q8.67.1 8.19.1a.8.8 0 0 1-.61-.26 1 1 0 0 1-.24-.7q0-.38.2-1.13l.26-1q.14-.55.18-.81.05-.27.05-.44 0-.4-.14-.58-.13-.18-.44-.19a1 1 0 0 0-.53.2 3 3 0 0 0-.6.57q-.3.4-.5.77t-.3.92L4.98 0H3.97l.67-2.98.17-.8q.05-.27.05-.45 0-.43-.16-.6-.15-.18-.47-.19a1 1 0 0 0-.5.2q-.28.18-.6.59-.33.4-.52.78-.18.38-.3.92L1.77 0H.75l.84-3.72q.15-.56.14-.86a.6.6 0 0 0-.07-.34q-.09-.1-.25-.11a.6.6 0 0 0-.38.16q-.2.14-.56.53l-.33-.33q.51-.53.9-.78.36-.25.8-.25.38 0 .58.25.22.23.22.62 0 .33-.12.69Zm0 0"/>
    <path id="j" d="M.88-4.25v-.78h7.21v.78Zm0 2.42v-.78h7.21v.78Zm7.46-1.6"/>
    <path id="i" d="M3.27.1Q2 .1 1.37-.9a6 6 0 0 1-.62-3.02q0-1.08.19-1.86.2-.8.54-1.3.34-.51.82-.76a2.3 2.3 0 0 1 1.06-.25q1.28 0 1.9 1 .63.98.63 2.98 0 2.08-.67 3.14A2.2 2.2 0 0 1 3.27.1M1.9-4.1q0 1.9.34 2.8.36.9 1.1.9.72 0 1.06-.85.34-.84.34-2.6 0-1.35-.19-2.18a3 3 0 0 0-.48-1.2 1 1 0 0 0-1.44-.1q-.27.21-.44.67-.15.45-.23 1.1-.06.64-.06 1.45m0 0"/>
    <path id="e" d="M1.44.5q-.12.14-.19.27a1 1 0 0 0-.14.55q0 .44.31.63.3.2.96.2.71 0 1.15-.32T4.28.8q.3-.72.61-2.2h-.08q-.58.78-1.06 1.13A1.7 1.7 0 0 1 2.7.1q-.64 0-1-.48a2.3 2.3 0 0 1-.34-1.38q0-.99.39-1.92.39-.91 1.08-1.47a2.5 2.5 0 0 1 2.26-.45q.33.08.66.3l.53-.4.38.1-.6 2.74-.3 1.43Q5.54-.2 5.39.31T5 1.23a2.6 2.6 0 0 1-1.42 1.22q-.5.17-1.19.17-2.22 0-2.22-1.3 0-.32.2-.59t.65-.56ZM3.13-.6q.29 0 .59-.21t.62-.64q.35-.45.54-.86.18-.4.3-1 .15-.6.15-1.05t-.2-.67q-.19-.2-.65-.2-.6 0-1.07.48t-.75 1.31a5 5 0 0 0-.27 1.63q0 .6.17.9.19.3.56.3m0 0"/>
    <path id="k" d="M1.92-3.17q-.66.3-1.54.64l-.15-.49q.94-.3 1.82-.73l.36-1.66q.32-1.48.92-2.2t1.42-.73q.39 0 .64.17.26.15.38.44.1.28.1.62 0 .55-.25 1.14-.25.6-.87 1.19-.6.58-1.78 1.19l-.38 1.7q-.12.58-.12.86 0 .24.08.34.07.12.25.11.15 0 .3-.08t.3-.21l.32-.35.36-.5.4.31q-.4.57-.7.86t-.64.47-.72.17q-.45 0-.69-.26A1 1 0 0 1 1.5-.9q0-.45.16-1.14Zm1.17-.99q.97-.6 1.49-1.4.53-.81.53-1.7 0-.3-.11-.46a.4.4 0 0 0-.33-.17.7.7 0 0 0-.5.23 2 2 0 0 0-.39.68q-.18.45-.33 1.2Zm0 0"/>
    <path id="c" d="M8.03-8h1.85l-.07.28a1 1 0 0 0-.31.11l-.19.19q-.07.11-.15.36-.09.25-.2.81l-1 4.55-.12.54-.01.36q0 .26.12.38.15.1.46.14L8.34 0H6l.06-.28a1 1 0 0 0 .33-.13.5.5 0 0 0 .19-.22q.08-.13.14-.34.08-.2.2-.78l.78-3.53q.15-.73.38-1.45H8q-.18.35-.83 1.4L4.5-.93h-.62l-.5-3.77q-.1-.8-.24-2.14h-.1q-.22 1.3-.46 2.43l-.6 2.7a4 4 0 0 0-.12.91q0 .26.12.38.15.1.46.14L2.38 0H.33l.06-.28a1 1 0 0 0 .33-.13A1 1 0 0 0 .9-.63q.08-.13.14-.34l.2-.78.98-4.52a6 6 0 0 0 .15-.93q0-.3-.15-.38a1 1 0 0 0-.43-.14L1.86-8h2.1l.67 5.69Zm0 0"/>
    <path id="f" d="M2.3-1.7a4 4 0 0 0-.13.9q0 .2.05.3.06.08.17.14.12.05.42.08L2.75 0H.33L.4-.28a1 1 0 0 0 .32-.13 1 1 0 0 0 .2-.22q.07-.13.13-.34l.19-.78 1-4.52q.13-.57.13-.92 0-.27-.15-.39a1 1 0 0 0-.42-.14L1.87-8h5.29l-.41 1.8h-.56q-.02-.46-.08-.7a1 1 0 0 0-.14-.38.4.4 0 0 0-.22-.16 1 1 0 0 0-.37-.04H3.56l-.7 3.18h1.1q.25 0 .43-.06a1 1 0 0 0 .31-.26q.16-.2.36-.63h.55l-.58 2.47h-.51q0-.6-.05-.74-.03-.15-.14-.2a1 1 0 0 0-.42-.06H2.75Zm0 0"/>
    <path id="g" d="M3.1-2.4a1 1 0 0 0-.13-.32.4.4 0 0 0-.14-.12l-.27-.04h-.4L1.55 0h-1l1.5-6.7.1-.52q.04-.2.04-.34 0-.25-.16-.35Q1.88-8 1.5-8l.08-.32 1.47-.04h.34l-1.14 5.1h.19q.43 0 .98-.37.55-.39.88-.72T4.63-5q0-.28-.41-.31l.08-.3h1.89l.1.3q-.48.44-1.02.86L3.8-3.33l.58 2.11q.06.29.13.4.05.12.12.18.08.05.2.05.16 0 .36-.16.21-.17.49-.47l.33.33q-.54.55-.88.77-.35.21-.66.21a1 1 0 0 1-.64-.21 2 2 0 0 1-.37-.77Zm0 0"/>
    <path id="h" d="M.88.22v-.9l6.35-2.74L.88-6.2v-.87L8.1-3.84v.82Zm0 0"/>
    <path id="l" d="M1.31.47 1.14.7l-.1.24q-.02.12-.02.28 0 .39.28.58.3.18.89.18.66 0 1.06-.3t.69-.96q.28-.65.56-2l-.08-.02a5 5 0 0 1-.98 1.05Q3 .08 2.48.08q-.6 0-.92-.44a2 2 0 0 1-.31-1.27q0-.91.36-1.76.36-.83 1-1.34.64-.5 1.42-.5.34 0 .64.07t.61.27l.5-.34.34.07-.56 2.52A73 73 0 0 1 4.94.28q-.14.47-.35.86a2.3 2.3 0 0 1-1.3 1.11q-.46.16-1.09.16Q.16 2.4.16 1.2q0-.28.18-.54Q.53.4.94.15ZM2.86-.56q.28 0 .55-.19.28-.18.57-.6a4.3 4.3 0 0 0 .91-2.67q0-.42-.19-.6-.16-.2-.58-.2-.54 0-.98.46-.44.44-.69 1.19t-.25 1.5q0 .56.16.84.15.27.5.27m0 0"/>
    <path id="m" d="M2.38-3.78q.48-.73.96-1.1a1.7 1.7 0 0 1 1-.35q.51 0 .79.3.27.3.28.84v.07l-.02.08q.47-.66.92-.97.48-.32.97-.32.48 0 .75.28.28.28.28.8 0 .34-.15.96L7.8-1.77q-.15.6-.15.83 0 .2.06.31.08.1.23.1t.35-.13.51-.51l.31.3q-.46.5-.8.73-.36.24-.79.23a.7.7 0 0 1-.58-.25q-.2-.26-.2-.64 0-.36.19-1.03l.23-.94a9 9 0 0 0 .2-1.14q0-.37-.12-.53-.13-.17-.4-.17-.22 0-.5.17-.24.18-.54.53a3.4 3.4 0 0 0-.75 1.55L4.58 0h-.94l.63-2.73a14 14 0 0 0 .18-1.16q0-.39-.14-.55-.12-.17-.42-.17a1 1 0 0 0-.47.17q-.25.18-.54.55t-.47.72-.29.84L1.62 0H.69l.78-3.42q.12-.52.12-.8 0-.2-.07-.3t-.22-.1a.6.6 0 0 0-.36.14q-.18.14-.5.5l-.31-.3q.48-.5.8-.72.36-.24.77-.23.34 0 .52.21.2.22.2.58 0 .3-.1.64Zm0 0"/>
    <path id="q" d="M3.2 0H.94L1-.27q.22-.03.31-.07l.19-.18q.07-.1.16-.34t.18-.75L3-6.87h-.69q-.33 0-.53.09t-.4.36-.49.89H.38l.4-1.83h5.63l-.43 1.9h-.51q0-.51-.03-.77a1 1 0 0 0-.11-.41.4.4 0 0 0-.17-.19q-.11-.04-.4-.04h-.8L2.8-1.58l-.08.34-.03.26v.24q0 .17.04.26.07.1.16.14.1.05.38.06Zm0 0"/>
    <path id="n" d="M3.3-3.66v.82h-.5q-.07-.25-.16-.4a.5.5 0 0 0-.23-.2 1 1 0 0 0-.32-.06 1 1 0 0 0-.5.17q-.2.18-.32.53-.13.37-.13.9 0 .32.05.6.04.27.15.47.14.2.32.31.18.12.47.11.26 0 .5-.1.22-.11.48-.38l.22.27q-.19.21-.35.34a2 2 0 0 1-.67.3q-.17.04-.37.04Q1.2.06.8-.42.4-.92.4-1.84q0-.6.22-1.03.22-.46.61-.7.4-.24.93-.24.32 0 .59.04.28.04.55.11m0 0"/>
    <path id="o" d="M2.55 0v-.19q.24-.07.33-.2.07-.12.07-.48v-2.57h-.83Q2-2.1 1.74-1.25q-.23.84-.5 1.08a.8.8 0 0 1-.57.23Q.34.06.14 0v-.84h.34q.03.32.25.32.36 0 .61-.96.27-.99.27-1.57 0-.45-.38-.51v-.19h2.82v.19q-.25.06-.33.2-.08.13-.08.47v2.02q0 .35.08.48t.33.2V0Zm0 0"/>
    <path id="p" d="M3.83 1.27Q3.75.72 3.66.45A1 1 0 0 0 3.44.1Q3.3 0 2.98 0H1.31Q.97 0 .78.23.6.5.5 1.28H.14V-.34h.47q.4-.58.64-1.33t.23-1.4q0-.42-.34-.5v-.18h2.9v.19q-.26.06-.35.2-.08.13-.08.47v2.55h.6v1.6Zm-.9-4.7h-.95a6.6 6.6 0 0 1-.87 3.09h1.83Zm0 0"/>
    <clipPath id="d">
      <path d="M112 446h7v9.4h-7Zm0 0"/>
    </clipPath>
  </defs>
  <path fill="#fff" fill-rule="evenodd" d="M62.93 497.52h151.73V435.2H62.93Zm0 0"/>
  <path fill="none" stroke="#000" stroke-linejoin="round" stroke-miterlimit="10" d="M91.25 471.85h53.79"/>
  <path fill="none" stroke="#000" stroke-linejoin="round" stroke-miterlimit="10" stroke-width="1.5" d="M209.01 481.09H67.42"/>
  <path fill="#fff" fill-rule="evenodd" stroke="#000" stroke-linecap="round" stroke-linejoin="round" stroke-miterlimit="10" stroke-width="1.5" d="M77.8 463.26a2.83 2.83 0 0 0-2.84 2.83v11.32a2.83 2.83 0 0 0 2.83 2.83h11.32a2.83 2.83 0 0 0 2.84-2.83V466.1a2.83 2.83 0 0 0-2.84-2.83Zm0 0"/>
  <use xlink:href="#a" x="78.53" y="474.93"/>
  <use xlink:href="#b" x="88.84" y="474.93"/>
  <path fill="#fff" fill-rule="evenodd" stroke="#000" stroke-linecap="round" stroke-linejoin="round" stroke-miterlimit="10" stroke-width="1.5" d="M168.66 466.39a2.83 2.83 0 0 0-2.83-2.83h-17.02a2.83 2.83 0 0 0-2.83 2.83v11.32a2.83 2.83 0 0 0 2.83 2.83h17.02a2.83 2.83 0 0 0 2.83-2.83Zm0 0"/>
  <use xlink:href="#c" x="151.89" y="476.13"/>
  <use xlink:href="#cM" x="162.43" y="476.13"/>
  <g clip-path="url(#d)">
    <use xlink:href="#e" x="112.21" y="452.63"/>
  </g>
  <use xlink:href="#cO" x="119.76" y="452.63"/>
  <path d="M109.18 440.49v21.77h-1V440.5Zm-.5 21.77 2-2-2 6-2-6Zm0 0"/>
  <use xlink:href="#f" x="182.57" y="467.26"/>
  <use xlink:href="#cO" x="190.36" y="467.26"/>
  <path d="M168.26 471.15h12.98v1h-12.98Zm12.98.5-2-2 6 2-6 2Zm0 0"/>
  <use xlink:href="#g" x="107.78" y="493.51"/>
  <use xlink:href="#h" x="117.97" y="493.51"/>
  <use xlink:href="#i" x="130.31" y="493.51"/>
  <use xlink:href="#cO" x="137.02" y="493.51"/>
  <use xlink:href="#g" x="179.1" y="493.15"/>
  <use xlink:href="#j" x="189.4" y="493.15"/>
  <use xlink:href="#i" x="201.66" y="493.15"/>
  <use xlink:href="#cO" x="208.37" y="493.15"/>
  <use xlink:href="#k" x="128.27" y="468.46"/>
  <use xlink:href="#cQ" x="134.51" y="468.46"/>
  <path fill="#fff" fill-rule="evenodd" d="M63.58 342.45h99.08V225.68H63.58Zm0 0"/>
  <path fill="#fff" fill-rule="evenodd" stroke="#000" stroke-linecap="round" stroke-linejoin="round" stroke-miterlimit="10" stroke-width="1.5" d="M98.94 324.6a2.9 2.9 0 0 0-2.9-2.88H84.5a2.9 2.9 0 0 0-2.9 2.89v12.16c0 1.6 1.3 2.88 2.9 2.88h11.55c1.6 0 2.89-1.29 2.89-2.88Zm.16-15.44a10 10 0 0 0-2.74-13.9 10.03 10.03 0 0 0-13.92 2.62 10 10 0 0 0 2.75 13.9 10 10 0 0 0 13.92-2.62m0 0"/>
  <path d="M89.7 321.38v-17.93h1.5v17.93Zm-1.25-17.93a2 2 0 1 1 4 0 2 2 0 0 1-4 0m0 0"/>
  <path fill="none" stroke="#000" stroke-linejoin="round" stroke-miterlimit="10" d="M81 233.13v72.46"/>
  <path fill="none" stroke="#000" stroke-linejoin="round" stroke-miterlimit="10" stroke-width="1.5" d="M63.58 233.47h95.19"/>
  <path fill="none" stroke="#000" stroke-linecap="round" stroke-linejoin="round" stroke-miterlimit="10" stroke-width=".75" d="m68.92 233.52 15.73-7.69m-.5 7.74 15.74-7.79m14.28 7.74 15.78-7.79m-31.11 7.84 15.78-7.79m14.53 7.79 15.78-7.79m-.84 7.69 15.73-7.79"/>
  <use xlink:href="#l" x="142.3" y="255.56"/>
  <use xlink:href="#cS" x="149.25" y="255.56"/>
  <path d="M139.54 244.76v18.68h-1v-18.68Zm-.5 18.68 2-2-2 6-2-6Zm0 0"/>
  <path fill="none" stroke="#000" stroke-linejoin="round" stroke-miterlimit="10" d="M100.84 282.72v22.27m19.92-55.03v48.19"/>
  <path fill="#fff" fill-rule="evenodd" stroke="#000" stroke-linecap="round" stroke-linejoin="round" stroke-miterlimit="10" stroke-width="1.5" d="M119.02 257.24a10.03 10.03 0 0 0-2.76-13.92 10 10 0 0 0-13.94 2.6 10.03 10.03 0 0 0 2.77 13.92 10.03 10.03 0 0 0 13.93-2.6m0 0"/>
  <path d="M111.22 233.97v17.98h-1.5v-17.98Zm1.25 17.98a2 2 0 0 1-4 0 2 2 0 0 1 4 0m0 0"/>
  <path fill="none" stroke="#000" stroke-linejoin="round" stroke-miterlimit="10" d="M100.64 249.1v18.54"/>
  <path fill="#fff" fill-rule="evenodd" stroke="#000" stroke-linecap="round" stroke-linejoin="round" stroke-miterlimit="10" stroke-width="1.5" d="M109.52 270.8a2.87 2.87 0 0 0-2.87-2.87H95.17a2.9 2.9 0 0 0-2.88 2.87V283a2.9 2.9 0 0 0 2.88 2.86h11.48a2.87 2.87 0 0 0 2.87-2.86ZM130 299.62a3.07 3.07 0 0 0-3.07-3.07h-12.29a3.07 3.07 0 0 0-3.07 3.07v13.7a3.07 3.07 0 0 0 3.07 3.06h12.3a3.07 3.07 0 0 0 3.06-3.07Zm0 0"/>
  <use xlink:href="#m" x="94.72" y="279.05"/>
  <use xlink:href="#n" x="103.94" y="281.33"/>
  <use xlink:href="#cV" x="107.9" y="279.05"/>
  <use xlink:href="#m" x="83.45" y="332.87"/>
  <use xlink:href="#o" x="92.68" y="335.15"/>
  <use xlink:href="#cS" x="97.59" y="332.87"/>
  <use xlink:href="#m" x="114.25" y="308.66"/>
  <use xlink:href="#p" x="123.48" y="310.94"/>
  <use xlink:href="#cY" x="128.39" y="308.66"/>
  <use xlink:href="#q" x="83.45" y="257"/>
  <use xlink:href="#o" x="88.48" y="259.27"/>
  <use xlink:href="#cS" x="93.4" y="257"/>
  <use xlink:href="#q" x="123.24" y="285.05"/>
  <use xlink:href="#p" x="128.27" y="287.32"/>
  <use xlink:href="#cY" x="133.19" y="285.05"/>
</svg>
