<svg xmlns="http://www.w3.org/2000/svg" xmlns:xlink="http://www.w3.org/1999/xlink" width="200" height="200" viewBox="0 0 200 200">
  <defs>
    <path id="a" d="M1.44.5q-.12.14-.19.27a1.03 1.03 0 0 0-.14.55q0 .44.31.63.3.2.96.2.71 0 1.15-.32T4.28.8q.3-.72.61-2.2h-.08q-.58.78-1.06 1.13A1.7 1.7 0 0 1 2.7.1q-.64 0-1-.48a2.3 2.3 0 0 1-.34-1.38q0-.99.39-1.92.39-.91 1.08-1.47a2.5 2.5 0 0 1 2.26-.45q.33.08.66.3l.53-.4.38.1-.6 2.74-.3 1.43Q5.54-.2 5.39.31T5 1.23a2.6 2.6 0 0 1-1.42 1.22q-.5.17-1.19.17-2.22 0-2.22-1.3 0-.32.2-.59t.65-.56ZM3.13-.6q.29 0 .59-.21t.62-.64q.35-.45.54-.86.18-.4.3-1 .15-.6.15-1.05t-.2-.67q-.19-.2-.65-.2-.6 0-1.07.48t-.75 1.31a5 5 0 0 0-.27 1.63q0 .6.17.9.19.3.56.3m0 0"/>
    <path id="b" d="m2.8-2.66-.38-1.67a2 2 0 0 0-.17-.48q-.06-.12-.14-.16a.3.3 0 0 0-.17-.05 1 1 0 0 0-.24.07 1 1 0 0 0-.22.18l-.3.43L.8-4.6q.38-.57.72-.83a1.2 1.2 0 0 1 1.1-.24q.15.04.25.13.12.07.2.22.07.12.15.36t.14.58q.08.34.12.71h.07q.55-.8.84-1.15.3-.37.5-.55t.38-.25.5-.08q.25 0 .45.07l-.24 1.06h-.42q-.03-.25-.2-.25l-.11.03-.16.08q-.07.04-.25.22a11 11 0 0 0-.78.93l-.39.5.2.97.16.69.13.42.12.24q.06.08.13.1.07.04.17.04.15 0 .3-.11.15-.13.43-.57l.38.25q-.41.62-.74.86a1.3 1.3 0 0 1-.8.25A1 1 0 0 1 3.74 0a1 1 0 0 1-.3-.28 7.34 7.34 0 0 1-.44-1.78h-.07Q2.3-1.2 1.98-.8q-.3.38-.5.57-.19.17-.37.25T.62.09A1 1 0 0 1 .18.02l.24-1.07h.42q.02.25.2.25l.17-.04q.1-.05.25-.2.18-.18.47-.54zm0 0"/>
    <path id="h" d="M1-1.83q0 .72.33 1.08.33.34 1.03.34.79 0 1.25-.43.45-.45.45-1.2 0-.37-.12-.63a2 2 0 0 0-.38-.53 6 6 0 0 0-.73-.58 5 5 0 0 1-.74-.56q-.28-.3-.45-.64-.16-.36-.16-.79 0-.7.33-1.21.33-.54.94-.82.61-.3 1.4-.3a6 6 0 0 1 2.02.33l-.33 1.5h-.56q-.01-.5-.16-.78a1 1 0 0 0-.35-.4 1.4 1.4 0 0 0-.64-.13q-.49 0-.86.2t-.57.55q-.18.33-.18.75 0 .45.23.78t.9.78q.55.4.85.7.3.33.45.68.14.34.14.81 0 .71-.34 1.28-.34.55-.97.85-.6.3-1.4.3Q1.83.1 1.2 0A7 7 0 0 1 .1-.22l.34-1.6Zm0 0"/>
    <path id="e" d="M2.58-4.1q.54-.82 1.08-1.21.52-.4 1.07-.4.57 0 .85.34.3.3.3.92v.17q.5-.72 1-1.06.49-.36 1.04-.36.53 0 .83.3.3.32.3.88 0 .38-.18 1.05l-.39 1.55q-.15.63-.15.89 0 .24.08.34.07.12.25.11a.6.6 0 0 0 .36-.14q.2-.15.57-.55l.33.33a5 5 0 0 1-.87.78Q8.67.1 8.19.1a.8.8 0 0 1-.61-.26 1 1 0 0 1-.24-.7q0-.38.2-1.13l.26-1q.14-.55.18-.81.05-.27.05-.44 0-.4-.14-.58-.13-.18-.44-.19a1 1 0 0 0-.53.2 3 3 0 0 0-.6.57q-.3.4-.5.77t-.3.92L4.98 0H3.97l.67-2.98.17-.8q.05-.27.05-.45 0-.43-.16-.6-.15-.18-.47-.19a1 1 0 0 0-.5.2q-.28.18-.6.59-.33.4-.52.78-.18.38-.3.92L1.77 0H.75l.84-3.72q.15-.56.14-.86a.6.6 0 0 0-.07-.34q-.09-.1-.25-.11a.6.6 0 0 0-.38.16q-.2.14-.56.53l-.33-.33q.51-.53.9-.78.36-.25.8-.25.38 0 .58.25.22.23.22.62 0 .33-.12.69Zm0 0"/>
    <path id="d" d="m1.66-.22-.61 2.75H.09l1.2-5.3q.18-.93.59-1.56t1-1q.6-.37 1.4-.37.56 0 1 .23t.66.67q.21.45.22 1.08 0 1-.4 1.9a3.4 3.4 0 0 1-1.09 1.4q-.69.51-1.54.51a4 4 0 0 1-1.47-.3M2.2-2.5l-.2.95-.03.2-.02.2q0 .37.3.57t.83.2q.6 0 1.06-.48t.72-1.34.26-1.72q0-.37-.07-.66a1 1 0 0 0-.3-.47 1 1 0 0 0-.62-.18q-.23 0-.43.07t-.42.29q-.23.19-.42.51-.21.31-.36.75T2.2-2.5m0 0"/>
    <path id="f" d="M1.6-3.7q.14-.53.13-.88a.6.6 0 0 0-.07-.34q-.09-.1-.25-.11a.6.6 0 0 0-.38.16q-.2.14-.56.53l-.33-.33q.53-.55.9-.78.36-.25.8-.25.36 0 .58.25.22.23.22.62a2 2 0 0 1-.14.7l.08.02q1.08-1.6 2.15-1.6.64 0 .99.5.36.49.36 1.37 0 .97-.4 1.9A3.7 3.7 0 0 1 4.62-.45q-.7.54-1.55.54-.78 0-1.3-.34L1.5 1.03q-.1.41-.1.69 0 .26.13.37.15.1.52.14L2 2.52H.19Zm.6 1.65a4 4 0 0 0-.1.8q0 .47.2.67t.68.2q.3 0 .55-.1.25-.13.47-.35.24-.21.4-.53.2-.33.33-.73.15-.43.22-.86.08-.45.08-.85 0-.6-.17-.9a.6.6 0 0 0-.55-.32q-.3 0-.6.2-.27.21-.62.66t-.54.88q-.2.44-.3 1Zm0 0"/>
    <path id="i" d="M1.92-3.17q-.66.3-1.54.64l-.15-.49q.94-.3 1.82-.73l.36-1.66q.32-1.48.92-2.2t1.42-.73q.39 0 .64.17.26.15.38.44.1.28.1.62 0 .55-.25 1.14-.25.6-.87 1.19-.6.58-1.78 1.19l-.38 1.7q-.12.58-.12.86 0 .24.08.34.07.12.25.11.15 0 .3-.08t.3-.21q.15-.15.32-.35l.36-.5.4.31q-.4.57-.7.86t-.64.47-.72.17q-.45 0-.69-.26A1 1 0 0 1 1.5-.9q0-.45.16-1.14Zm1.17-.99q.97-.6 1.49-1.4.53-.81.53-1.7 0-.3-.11-.46a.4.4 0 0 0-.33-.17.7.7 0 0 0-.5.23 2 2 0 0 0-.39.68q-.18.45-.33 1.2Zm0 0"/>
    <path id="g" d="M2.31.06q-.9 0-1.34-.7a4 4 0 0 1-.44-2.14q0-.76.14-1.33.15-.56.38-.92.25-.36.57-.53.34-.2.75-.19.9 0 1.35.7a4 4 0 0 1 .45 2.13q0 1.48-.47 2.23T2.31.06M1.34-2.9q0 1.35.25 1.99.26.64.78.64.51 0 .75-.6.25-.6.25-1.85a8 8 0 0 0-.12-1.55q-.13-.6-.36-.84a.7.7 0 0 0-.53-.27.7.7 0 0 0-.48.17 1.3 1.3 0 0 0-.32.5q-.1.31-.17.78-.05.45-.05 1.03m0 0"/>
    <path id="c" d="M2.64.02Q2.5-.94 2.2-2.27q-.27-1.41-.37-1.76-.11-.4-.24-.52a.3.3 0 0 0-.18-.06.5.5 0 0 0-.33.14q-.15.13-.36.49l-.36-.24q.38-.55.69-.78a1.2 1.2 0 0 1 1.1-.17 1 1 0 0 1 .23.14 1 1 0 0 1 .18.28 4 4 0 0 1 .28 1.03l.46 2.9q.53-.77.89-1.5.35-.71.51-1.24a3 3 0 0 0 .17-.88q0-.25-.1-.34-.12-.1-.38-.11l.06-.27h1.4l.17.29Q5.6-3.77 4.9-2.48 4.2-1.23 3.33 0A13 13 0 0 1 1.9 1.72q-.4.35-.77.51-.28.1-.6.11l-.27-.01Q.12 2.3.03 2.28l.24-1.05h.42q0 .35.25.35.3 0 .72-.4.42-.38.98-1.16m0 0"/>
  </defs>
  <path fill="none" stroke="#000" stroke-miterlimit="10" stroke-width=".49943" d="M188.79 114.68H82.36"/>
  <use xlink:href="#a" x="166.39" y="77.05"/>
  <path d="M163.41 66.38v17.93h-1v-17.93Zm-.5 17.93 2-2-2 6-2-6Zm0 0"/>
  <path fill="#d8d8d8" fill-rule="evenodd" d="M82.36 155.38h106.93v-40.4H82.36Zm0 0"/>
  <path d="M155.77 116.67v21.63h-1v-21.63Zm-.5 0-2 2 2-4 2 4Zm0 21.63 2-2-2 4-2-4Zm0 0"/>
  <path fill="none" stroke="#000" stroke-miterlimit="10" stroke-width="1.49829" d="M93.84 140.4v-63.48M150.58 140.2v-63.43M93.5 76.92h57.68"/>
  <path fill="#fff" fill-rule="evenodd" d="M94.84 122.37h55.34v-30.82H94.84Zm0 0"/>
  <use xlink:href="#b" x="101.9" y="133.98"/>
  <use xlink:href="#c" x="158.6" y="127.63"/>
  <path fill="none" stroke="#000" stroke-miterlimit="10" stroke-width=".49943" d="M150.68 122.27H94.44"/>
  <use xlink:href="#d" x="124.08" y="146.92"/>
  <use xlink:href="#e" x="80.45" y="94.07"/>
  <use xlink:href="#f" x="164.95" y="104.14"/>
  <use xlink:href="#g" x="171.3" y="106.53"/>
  <path d="M99.09 124.51v14.24h-1V124.5Zm-.5 0-2 2 2-4 2 4Zm0 14.24 2-2-2 4-2-4Zm0 0"/>
  <use xlink:href="#h" x="108.86" y="74.05"/>
  <path d="M146.63 79.81v58.59h-1V79.8Zm-.5 0-2 2 2-4 2 4Zm0 58.59 2-2-2 4-2-4Zm0 0"/>
  <use xlink:href="#i" x="136.78" y="109.41"/>
  <use xlink:href="#f" x="114.49" y="100.66"/>
</svg>
