<svg xmlns="http://www.w3.org/2000/svg" xmlns:xlink="http://www.w3.org/1999/xlink" width="612" height="250" viewBox="0 0 612 250">
  <defs>
    <path id="d" d="M1.5-1.81q.4 0 .69.3.3.27.3.68t-.3.69a1 1 0 0 1-.69.28q-.4 0-.69-.28a1 1 0 0 1-.28-.69q0-.4.28-.69.28-.3.69-.3m0 0"/>
    <path id="b" d="M3.7 0v-.22q.53 0 .53-.78v-2.69L2.67-1q0 .77.53.78V0H.4v-.22q.35 0 .5-.19.13-.18.13-.65v-3.38q0-.83-.62-.83v-.21h2.8v.21q-.33.02-.43.2-.1.15-.1.63v2.67l1.55-2.71q0-.45-.12-.61-.13-.18-.4-.18v-.21H6.5v.21q-.32.02-.47.18-.15.14-.16.57v3.49q0 .48.15.66.13.15.48.15V0Zm0 0"/>
    <path id="c" d="M.42-.22Q.76-.23.9-.39q.15-.15.14-.63V-4.5q0-.4-.12-.56-.13-.17-.49-.2v-.22h4.81v1.43h-.21q-.13-.66-.36-.86-.24-.2-.91-.2H2.67v4.13q0 .42.13.59.15.15.56.17V0H.42Zm0 0"/>
    <path id="a" d="M3.1-7.95h4.1v.22q-.67 0-.86.18-.18.16-.23.72 1.35 0 2.05.31.69.33 1.2.94.52.63.52 1.53 0 1.13-.85 1.99-.83.86-2.92.86 0 .42.1.6a.6.6 0 0 0 .29.27q.2.1.7.11V0H3.1v-.22q.73 0 .92-.22.18-.22.18-.76a5 5 0 0 1-2.17-.38Q1.25-1.97.84-2.6a2.65 2.65 0 0 1 .1-2.97q.5-.7 1.25-.97.76-.27 2.01-.28 0-.52-.22-.7-.2-.2-.89-.2Zm3 6.3q.6 0 .96-.16.38-.2.63-.75.25-.57.25-1.55 0-.8-.24-1.34-.22-.55-.58-.74t-1.01-.2ZM4.2-6.38a2 2 0 0 0-1.1.28q-.34.25-.54.78-.19.54-.19 1.36 0 .96.24 1.45.24.5.62.7.4.18.97.18Zm0 0"/>
    <path id="e" d="M1.78-3.98v-.2q.66-.2.9-.37.28-.17.46-.51.2-.35.19-.69 0-.48-.36-.83a1.2 1.2 0 0 0-.88-.36q-.8.01-1.39.86l-.22-.06q.43-.99 1.08-1.47.68-.5 1.47-.5.82 0 1.36.5a1.6 1.6 0 0 1 .3 2.03 2 2 0 0 1-.78.72q.68.33 1.04.83a2 2 0 0 1 .36 1.22q0 1.23-.9 2.1Q3.5.19 2 .18.98.17.53-.17.2-.4.2-.77q0-.25.19-.45.2-.2.45-.2.2 0 .37.08.1.04.66.51t1.08.47q.42 0 .73-.34.3-.34.31-.88 0-.8-.56-1.47a3 3 0 0 0-1.64-.93m0 0"/>
    <path id="g" d="M1.42 0h3.33v-.19c-.94 0-1.14-.12-1.14-.7v-7.2l-.11-.04-2.16 1.1v.17q.7-.27.86-.26.37 0 .36.56v5.44c-.01.76-.22.93-1.14.93Zm0 0"/>
    <path id="h" d="m5.72-1.64-.16-.06c-.43.68-.58.78-1.14.8H1.55l2.01-2.13C4.64-4.14 5.11-5.06 5.11-6c0-1.2-.99-2.12-2.24-2.12-.65 0-1.28.26-1.73.74-.37.41-.56.8-.76 1.65l.25.06c.48-1.17.9-1.56 1.75-1.56 1.01 0 1.7.68 1.7 1.68 0 .96-.56 2.07-1.58 3.13L.36-.14V0h4.7Zm0 0"/>
    <path id="i" d="M1.84-3.95c.7 0 .99.01 1.27.12.75.28 1.2.96 1.2 1.78 0 1.02-.67 1.78-1.56 1.78-.33 0-.58-.07-1.02-.37-.34-.22-.56-.3-.76-.3-.27 0-.45.17-.45.42 0 .43.51.7 1.36.7.92 0 1.85-.32 2.43-.82.58-.48.88-1.19.88-1.98 0-.63-.19-1.18-.53-1.55-.25-.27-.49-.4-1-.64.8-.57 1.12-1 1.12-1.66 0-.98-.76-1.64-1.87-1.64q-.92 0-1.58.58C.97-7.2.8-6.9.55-6.17l.17.04c.48-.89 1.03-1.26 1.78-1.26.8 0 1.33.51 1.33 1.28 0 .44-.19.86-.49 1.17-.36.36-.7.53-1.51.83Zm0 0"/>
    <path id="j" d="M5.67-2.77H4.45V-8.1h-.53L.14-2.77V-2h3.4v2h.91v-2h1.22Zm-2.15 0H.62l2.9-4.12Zm0 0"/>
    <path id="m" d="m5.72-1.64-.16-.06c-.45.68-.58.78-1.14.8H1.55l2.01-2.13C4.63-4.14 5.1-5.05 5.1-5.98c0-1.2-.96-2.13-2.21-2.13-.66 0-1.29.27-1.74.73-.37.43-.56.8-.76 1.66l.25.06c.48-1.18.9-1.56 1.75-1.56 1.01 0 1.68.67 1.68 1.69 0 .95-.54 2.05-1.56 3.12L.36-.14V0h4.69Zm0 0"/>
    <path id="k" d="M6.4-1.3A6 6 0 0 1 4.88-.2q-.75.34-1.71.34-1.29 0-2.05-.6A2 2 0 0 1 .34-2.1q0-.88.63-1.53a3.5 3.5 0 0 1 1.94-.93Q1.66-5 1.66-6.15q0-.89.86-1.54a3.3 3.3 0 0 1 2.07-.65q.88 0 1.27.34.39.33.39.6 0 .2-.3.57-.28.36-.42.36-.15 0-.22-.45-.17-.99-.81-.99-.51 0-.9.57-.41.54-.41 1.25 0 1.12 1.1 1.12.18 0 .24.03.08.02.08.1 0 .21-.1.48-.09.27-.21.27L4-4.13l-.44-.03q-.62 0-1.08.52-.43.5-.43 1.22A1.75 1.75 0 0 0 3.89-.61q.66 0 1.31-.34.66-.36 1.2-1.02Zm0 0"/>
    <path id="l" d="m7.86-5.6.44-2.38h-.25c-.1.2-.22.26-.46.26q-.14.01-.5-.08A6 6 0 0 0 5.7-8C3.1-8 .79-5.6.79-2.92.8-1.08 2.1.22 3.95.22c1.25 0 2.2-.52 3.3-1.8l-.22-.17C5.94-.69 5.23-.33 4.25-.33c-1.33 0-2.1-.89-2.1-2.45 0-1.44.57-2.9 1.5-3.86.58-.6 1.35-.92 2.15-.92q1.65 0 1.84 1.93Zm0 0"/>
    <path id="p" d="M-.1 0h3.4c1.89 0 3.2-.97 3.2-2.4 0-.88-.37-1.32-1.53-1.82.86-.2 1.22-.34 1.6-.69q.5-.43.5-1.17c0-1.14-.84-1.76-2.4-1.76h-3.1v.18c.76.07.93.14.93.5 0 .18-.05.47-.14.77L.88-1.08c-.22.69-.3.77-.97.9Zm2.96-3.98q1.18 0 1.53.15c.5.2.8.72.8 1.38 0 1.3-.9 2.1-2.36 2.1q-.76-.01-.77-.5 0-.26.42-1.7c.16-.51.25-.87.38-1.43m.9-3.18c.08-.25.22-.32.7-.32.98 0 1.4.4 1.4 1.3 0 .68-.28 1.21-.8 1.5-.4.23-1 .34-2.08.32Zm0 0"/>
    <path id="n" d="m7.84-5.58.46-2.39h-.27c-.1.19-.2.27-.45.27-.11 0-.24-.03-.49-.08a6 6 0 0 0-1.42-.2C3.11-7.98.8-5.6.8-2.92.8-1.08 2.1.22 3.94.22c1.23 0 2.2-.52 3.28-1.8l-.2-.15C5.94-.7 5.23-.33 4.25-.33c-1.34 0-2.1-.89-2.1-2.45 0-1.44.57-2.88 1.5-3.86a3 3 0 0 1 2.13-.92q1.66 0 1.84 1.95Zm0 0"/>
    <path id="o" d="M6.78-.19c-.69-.06-.75-.15-.9-1.03l-1.15-6.8h-.3l-3.5 6C-.01-.42-.12-.28-.6-.19V0h2.25v-.19C1.02-.25.92-.3.92-.6c0-.23.05-.34.25-.75l.69-1.36H4.5l.23 1.58q.04.16.04.31c0 .45-.18.56-.94.64V0h2.95ZM2.11-3.14l1.8-3.13.53 3.13Zm0 0"/>
    <path id="q" d="M5.66-5.31 4.5-1.33l-.12.53-.02.13q0 .1.06.17.05.05.11.05.08 0 .2-.1.24-.16.61-.7l.2.14q-.4.6-.84.94-.42.3-.78.31a.6.6 0 0 1-.39-.12q-.12-.13-.12-.38 0-.28.14-.75l.12-.44q-.79 1-1.42 1.4-.47.3-.92.3A1 1 0 0 1 .59-.2a1.4 1.4 0 0 1-.3-.99q0-.93.55-1.97.57-1.02 1.43-1.65.68-.5 1.28-.5.35 0 .6.18.22.2.35.63l.22-.67ZM3.56-5q-.37 0-.8.34-.6.5-1.07 1.49a4 4 0 0 0-.47 1.76q0 .42.2.64a.6.6 0 0 0 .46.22q.65 0 1.4-.93 1-1.26 1-2.58 0-.5-.2-.72A.7.7 0 0 0 3.56-5m0 0"/>
    <path id="r" d="M6.02-8.34h.23q-.08.43-.37.76a1.4 1.4 0 0 1-.6.44q-.31.08-1.03.14-.7.06-1.06.17a2 2 0 0 0-.72.44q-.35.31-.7 1-.37.67-.7 1.7Q2.28-5.3 3.85-5.3q.75 0 1.25.5t.5 1.39q0 1.4-1.02 2.48A3.2 3.2 0 0 1 2.22.14Q1.35.14.89-.42a2 2 0 0 1-.47-1.4q0-1.13.58-2.63.6-1.52 1.22-2.25t1.22-.96q.6-.2 1.64-.28.5-.03.67-.1.16-.07.27-.3m-2.2 3.3q-.99 0-1.74 1.21a4.7 4.7 0 0 0-.74 2.49q0 .65.33.93.32.29.74.28.91 0 1.59-1.3a6 6 0 0 0 .67-2.63q0-.52-.25-.75a1 1 0 0 0-.6-.24m0 0"/>
  </defs>
  <use xlink:href="#a" x="288.65" y="213.14"/>
  <use xlink:href="#b" x="298.96" y="213.14"/>
  <use xlink:href="#c" x="305.92" y="213.14"/>
  <use xlink:href="#d" x="311.32" y="213.14"/>
  <use xlink:href="#e" x="317.32" y="213.14"/>
  <path fill="none" stroke="#000" stroke-linejoin="round" stroke-miterlimit="10" stroke-width="1.2" d="M1.2 53.4h198v126H1.2Zm0 0" transform="matrix(.66722 0 0 -.66612 157.52 192.8)"/>
  <path fill="#fff" fill-rule="evenodd" stroke="#000" stroke-linejoin="round" stroke-miterlimit="10" stroke-width="1.2" d="M16.2 119.4h168v126h-168Zm0 0" transform="matrix(.66722 0 0 -.66612 157.52 192.8)"/>
  <path fill="#fff" fill-rule="evenodd" d="M190.35 41.33h8v-23.98h-8Zm0 0"/>
  <path fill="none" stroke="#000" stroke-linejoin="round" stroke-miterlimit="10" stroke-width="1.2" d="M49.2 263.4v-36M61.2 263.4v-36" transform="matrix(.66722 0 0 -.66612 157.52 192.8)"/>
  <path fill="#fff" fill-rule="evenodd" d="M246.4 41.33h8v-23.98h-8Zm0 0"/>
  <path fill="none" stroke="#000" stroke-linejoin="round" stroke-miterlimit="10" stroke-width="1.2" d="M133.2 263.4v-36M145.2 263.4v-36" transform="matrix(.66722 0 0 -.66612 157.52 192.8)"/>
  <path fill="#fff" fill-rule="evenodd" d="M250.4 125.27h8v-23.98h-8Zm0 0"/>
  <path fill="none" stroke="#000" stroke-linejoin="round" stroke-miterlimit="10" stroke-width="1.2" d="M139.2 137.4v-36M151.2 137.4v-36" transform="matrix(.66722 0 0 -.66612 157.52 192.8)"/>
  <path fill="#fff" fill-rule="evenodd" d="M194.35 125.27h8v-23.98h-8Zm0 0"/>
  <path fill="none" stroke="#000" stroke-linejoin="round" stroke-miterlimit="10" stroke-width="1.2" d="M55.2 137.4v-36M67.2 137.4v-36" transform="matrix(.66722 0 0 -.66612 157.52 192.8)"/>
  <path fill="#fff" fill-rule="evenodd" d="M218.37 167.63h8v-23.98h-8Zm0 0"/>
  <path fill="none" stroke="#000" stroke-linejoin="round" stroke-miterlimit="10" stroke-width="2.4" d="M91.2 77.4V34.2" transform="matrix(.66722 0 0 -.66612 157.52 192.8)"/>
  <path fill="none" stroke="#000" stroke-linejoin="round" stroke-miterlimit="10" stroke-width="1.2" d="M103.2 70.2V41.4" transform="matrix(.66722 0 0 -.66612 157.52 192.8)"/>
  <use xlink:href="#g" x="191.2" y="51.44"/>
  <use xlink:href="#h" x="247.32" y="51.44"/>
  <use xlink:href="#i" x="195.2" y="135.54"/>
  <use xlink:href="#j" x="251.33" y="135.54"/>
  <use xlink:href="#k" x="219.25" y="187.2"/>
  <use xlink:href="#l" x="191.2" y="12"/>
  <use xlink:href="#m" x="243.31" y="11.39"/>
  <use xlink:href="#n" x="249.32" y="11.39"/>
  <use xlink:href="#m" x="191.2" y="100.1"/>
  <use xlink:href="#n" x="197.2" y="100.1"/>
  <use xlink:href="#l" x="249.55" y="99.5"/>
  <path fill="none" stroke="#000" stroke-linejoin="round" stroke-miterlimit="10" stroke-width="1.2" d="M247.2 53.4h198v126h-198Zm0 0" transform="matrix(.66722 0 0 -.66612 157.52 192.8)"/>
  <path fill="#fff" fill-rule="evenodd" stroke="#000" stroke-linejoin="round" stroke-miterlimit="10" stroke-width="1.2" d="M262.2 119.4h168v126h-168Zm0 0" transform="matrix(.66722 0 0 -.66612 157.52 192.8)"/>
  <path fill="#fff" fill-rule="evenodd" d="M354.48 41.33h8.01v-23.98h-8Zm0 0"/>
  <path fill="none" stroke="#000" stroke-linejoin="round" stroke-miterlimit="10" stroke-width="1.2" d="M295.2 263.4v-36M307.2 263.4v-36" transform="matrix(.66722 0 0 -.66612 157.52 192.8)"/>
  <path fill="#fff" fill-rule="evenodd" d="M410.53 41.33h8v-23.98h-8Zm0 0"/>
  <path fill="none" stroke="#000" stroke-linejoin="round" stroke-miterlimit="10" stroke-width="1.2" d="M379.2 263.4v-36M391.2 263.4v-36" transform="matrix(.66722 0 0 -.66612 157.52 192.8)"/>
  <path fill="#fff" fill-rule="evenodd" d="M414.54 125.27h8v-23.98h-8Zm0 0"/>
  <path fill="none" stroke="#000" stroke-linejoin="round" stroke-miterlimit="10" stroke-width="1.2" d="M385.2 137.4v-36M397.2 137.4v-36" transform="matrix(.66722 0 0 -.66612 157.52 192.8)"/>
  <path fill="#fff" fill-rule="evenodd" d="M358.49 125.27h8v-23.98h-8Zm0 0"/>
  <path fill="none" stroke="#000" stroke-linejoin="round" stroke-miterlimit="10" stroke-width="1.2" d="M301.2 137.4v-36M313.2 137.4v-36" transform="matrix(.66722 0 0 -.66612 157.52 192.8)"/>
  <path fill="#fff" fill-rule="evenodd" d="M382.5 167.63h8.02v-23.98h-8.01Zm0 0"/>
  <path fill="none" stroke="#000" stroke-linejoin="round" stroke-miterlimit="10" stroke-width="2.4" d="M337.2 77.4V34.2" transform="matrix(.66722 0 0 -.66612 157.52 192.8)"/>
  <path fill="none" stroke="#000" stroke-linejoin="round" stroke-miterlimit="10" stroke-width="1.2" d="M349.2 70.2V41.4" transform="matrix(.66722 0 0 -.66612 157.52 192.8)"/>
  <use xlink:href="#g" x="355.55" y="51.44"/>
  <use xlink:href="#h" x="411.69" y="51.44"/>
  <use xlink:href="#i" x="359.56" y="135.54"/>
  <use xlink:href="#j" x="415.68" y="135.54"/>
  <use xlink:href="#k" x="383.61" y="187.2"/>
  <use xlink:href="#l" x="355.55" y="12"/>
  <use xlink:href="#m" x="407.66" y="11.39"/>
  <use xlink:href="#n" x="413.68" y="11.39"/>
  <use xlink:href="#m" x="355.55" y="100.1"/>
  <use xlink:href="#n" x="361.58" y="100.1"/>
  <use xlink:href="#l" x="413.9" y="99.5"/>
  <path d="M388.91 29.54v83.93h-.4v-83.93Zm-1.53 0a1.33 1.33 0 1 1 2.67 0 1.33 1.33 0 1 1-2.67 0m2.67 83.93a1.33 1.33 0 1 1-2.67 0 1.33 1.33 0 0 1 2.67 0m0 0"/>
  <path fill="#fff" fill-rule="evenodd" stroke="#000" stroke-linejoin="round" stroke-miterlimit="10" stroke-width="1.2" d="M337.2 155.4h18v60h-18Zm0 0" transform="matrix(.66722 0 0 -.66612 157.52 192.8)"/>
  <use xlink:href="#o" x="383.61" y="23.39"/>
  <use xlink:href="#p" x="386.53" y="128.14"/>
  <use xlink:href="#q" x="187.18" y="175.59"/>
  <use xlink:href="#r" x="351.55" y="175.59"/>
</svg>
