<svg xmlns="http://www.w3.org/2000/svg" xmlns:xlink="http://www.w3.org/1999/xlink" width="230mm" height="125mm" viewBox="0 0 230 125">
  <defs>
    <marker id="f" orient="auto" refX="0" refY="0" style="overflow:visible">
      <path d="m0 0 5-5-17.5 5L5 5z" style="fill-rule:evenodd;stroke:#00f;stroke-width:1pt;;fill:#00f;fill-opacity:1" transform="translate(4)scale(.4)"/>
    </marker>
    <marker id="e" orient="auto" refX="0" refY="0" style="overflow:visible">
      <path d="m0 0 5-5-17.5 5L5 5z" style="fill-rule:evenodd;stroke:red;stroke-width:1pt;;fill:red;fill-opacity:1" transform="translate(4)scale(.4)"/>
    </marker>
    <marker id="c" orient="auto" refX="0" refY="0" style="overflow:visible">
      <path d="M8.72 4.03-2.21.02 8.72-4a6.8 6.8 0 0 0 0 8.03z" style="fill:#ffa900;fill-opacity:1;fill-rule:evenodd;stroke:#ffa900;stroke-width:.625;" transform="translate(-.69)scale(.3)"/>
    </marker>
    <marker id="d" orient="auto" refX="0" refY="0" style="overflow:visible">
      <path d="M8.72 4.03-2.21.02 8.72-4a6.8 6.8 0 0 0 0 8.03z" style="fill:#000;fill-opacity:1;fill-rule:evenodd;stroke:#000;stroke-width:.625;" transform="scale(.6)"/>
    </marker>
    <radialGradient xlink:href="#a" id="b" cx="44.7" cy="42.72" r="12.24" fx="44.7" fy="42.72" gradientTransform="scale(1.09064 1.04322)" gradientUnits="userSpaceOnUse"/>
    <linearGradient id="a">
      <stop offset="0" style="stop-color:#fff;stop-opacity:1"/>
      <stop offset="1" style="stop-color:#fff;stop-opacity:0"/>
    </linearGradient>
  </defs>
  <path d="M163.8 248.48v18.78" style="fill:none;stroke:#000;stroke-width:1.058;" transform="translate(0 -172)"/>
  <g transform="matrix(.81 0 0 .81 86.52 99.75)">
    <g style="fill:none;stroke:#000;">
      <path stroke-width=".97" d="M158.51-51.21v25.4m13.56-25.4v25.4"/>
      <path stroke-width=".49" d="M155.52-51.21v25.4m19.55-25.4v25.4"/>
      <path stroke-width="1.94" d="M165.3-51.21v25.4"/>
      <path stroke-width="1.46" d="M168.81-51.21v25.4m-7.04-25.4v25.4"/>
    </g>
    <path d="M565.88-144.01v-55.5h118v111h-118zm76.47 38.54c27.08-13.04 33.23-48.47 12.1-69.6-8.1-8.11-16.48-11.75-28.18-12.27-11.33-.5-17.85 1.24-26.54 7.08-24.77 16.65-25.14 54.22-.69 71.06 8.44 5.81 15.48 7.75 26.84 7.4 8.39-.27 10.32-.7 16.47-3.67" style="opacity:1;fill:#fff;fill-opacity:1;fill-rule:evenodd;stroke:none;stroke-width:2;" transform="scale(.26458)"/>
    <circle cx="165.1" cy="-38.25" r="11.11" style="opacity:1;fill:none;fill-opacity:1;fill-rule:evenodd;stroke:none;stroke-width:.52916664;"/>
  </g>
  <path d="M69.88 276.4v-19.2h84.4v-44.7H70.41v-37.3h9.26v28.04h83.6v62.97H79.42l-.07 14.62-.07 14.62-4.7.07-4.69.07z" style="opacity:1;fill:#0ff;fill-opacity:1;fill-rule:evenodd;stroke:#c8c8c8;stroke-width:.26458332;" transform="translate(0 -172)"/>
  <path d="M75.4 50.83c0 12-9.93 21.73-22.17 21.73s-22.17-9.73-22.17-21.73S41 29.1 53.23 29.1 75.4 38.84 75.4 50.83" style="fill:#fb0;fill-opacity:.9807692;fill-rule:evenodd;stroke-width:1.33333337;stroke-linejoin:round" transform="translate(-.29 21.93)scale(.26458)"/>
  <path d="M50.7 17.24c-1.74 3.68 2.48 9.25 5.78 5.07 1.27-3.64.37-7.63.8-11.4.84-3.31-.47-5.97-4.14-6.36-2.12.41-1.84 8.38-2.44 12.69m-23.66-6.97a3.2 3.2 0 0 0-2.86 1.92 3.1 3.1 0 0 0 .58 3.35L35.5 27.48a3.25 3.25 0 0 0 5.57-1 3.1 3.1 0 0 0-.74-3.16L29.6 11.37a3.3 3.3 0 0 0-2.57-1.1M11.31 26.5c-.33 1.17-.8 3.1 1.13 3.84 4.43 2.95 9.56 4.25 14.98 6.44 2.09.82 4.5-1.07 4.26-3.23-.1-2.04-2.3-2.9-3.98-3.47-4.23-1.72-8.55-3.2-12.87-4.7-1.27-.12-2.48.47-3.52 1.13M6.9 49.99c.14 1.47-.64 3.16.77 4.02 2.92.96 9.88.93 15.14.98 2.55-.2 3.8-3.74 1.83-5.4-1.51-1.4-3.71-.77-5.58-.96-2.18-.05-12.62-.4-12.15 1.36m19.87 10.63q-.77.03-1.44.38c-6.09 3.07-9.2 4.61-10.78 5.36-.73.35-1.08.5-1.25.57l-.1.03a3.15 3.15 0 0 0-2.17 3.52 3.2 3.2 0 0 0 3.23 2.63s.42-.01.55-.03l.29-.07q.2-.05.29-.1a45 45 0 0 0 1.96-.88 477 477 0 0 0 10.94-5.42 3.1 3.1 0 0 0 1.72-3.6 3.2 3.2 0 0 0-3.24-2.39m9.2 11.95c-.82.03-1.6.37-2.18.95a435 435 0 0 1-10.43 9.96l-.03.03a3.1 3.1 0 0 0-1.57 2.75l.13.94.73 1.2 1.26.82 1.1.19s.5-.03.67-.06q.24-.07.38-.13.31-.12.45-.19c.42-.22.5-.29.65-.4.3-.25.7-.58 1.41-1.24 1.44-1.32 4.23-3.95 9.78-9.4a3.1 3.1 0 0 0 .73-3.5 3.2 3.2 0 0 0-3.08-1.92m18.43 3.97c-.85.04-1.65.4-2.23 1.02a3 3 0 0 0-.85 2.26c.13 5.36-1.1 11.82.56 14.02 1.91.83 3 .74 3 .74l2.59-.9c.63-2.08.65-5.4.28-14.01a3 3 0 0 0-1-2.26 3.3 3.3 0 0 0-2.35-.87m16.41-2.17a3.2 3.2 0 0 0-2.87 1.64 3.1 3.1 0 0 0 .13 3.25c3.37 5.13 5.24 7.66 6.44 9.05.6.69 1 1.09 1.54 1.48.27.2.57.4 1.13.56a3.4 3.4 0 0 0 1.73.07c.24-.06.68-.25.68-.25a3.2 3.2 0 0 0 1.81-2.77 3.1 3.1 0 0 0-1.68-2.85l-.3-.34a92 92 0 0 1-5.94-8.36 3.2 3.2 0 0 0-2.67-1.48m9.9-11.92a3.14 3.14 0 0 0-1.06 5.96c3.73 1.88 8.34 5.56 11.42 4.97 2.55-.48 2.77-2.22 2.57-3.95-.43-1.66-1.9-2.5-11.03-6.63a3.3 3.3 0 0 0-1.9-.35M98.1 46.47q-.54 0-1.04.18c-.2.02-.4.04-1.12.07-1.94.08-5.95.16-14.06.16a3.2 3.2 0 0 0-2.82 1.56 3.1 3.1 0 0 0 0 3.18 3.2 3.2 0 0 0 2.82 1.56c8.15 0 12.22-.1 14.35-.19 1.06-.05 1.64-.06 2.09-.12.22-.03.37-.05.74-.16.18-.06.42-.11.87-.41l.38-.32c.14-.12.45-.47.45-.47l.39-.79.2-1.04a3 3 0 0 0-.94-2.28 3.3 3.3 0 0 0-2.32-.93m-1.05-16.63c-3.4 0-3.4-.2-15.58 3a3.2 3.2 0 0 0-2.43 2.18 3.1 3.1 0 0 0 .79 3.13 3.3 3.3 0 0 0 3.19.81c5.57-1.33 14.61-2.93 14.93-4.84 1.61-1.63.25-2.85-.9-4.28m-15.98-18.5c-1.91 1.04-4.24 3.14-10.4 12.01a3.1 3.1 0 0 0 .98 4.37c1.5.94 3.5.51 4.45-.96 3.15-4.83 7.95-10.41 8.35-12.4-.28-1.63-1.83-2.85-3.38-3.02" style="fill:#fb0;fill-opacity:.9807692;fill-rule:evenodd;stroke:none;stroke-width:1.33333337;stroke-linecap:round;" transform="translate(-.29 21.93)scale(.26458)"/>
  <path d="M62.1 44.57c0 7.05-5.98 12.77-13.35 12.77S35.4 51.62 35.4 44.57 41.38 31.8 48.75 31.8 62.1 37.52 62.1 44.57" style="fill:url(#b);fill-opacity:1;fill-rule:evenodd;stroke:none;stroke-width:1.06666669pt" transform="translate(-.29 21.93)scale(.26458)"/>
  <path d="m41.24 80.92 21.33 21.33-4.84 4.84L36.4 85.76zm146.12 21.88-21.33-21.33 4.85-4.85 21.33 21.33zm.01-55.98-21.33-21.33 4.85-4.84 21.32 21.33zM62 45.81 40.69 24.48l4.84-4.84 21.33 21.33z" style="opacity:1;fill:#c8c8c8;fill-opacity:1;fill-rule:evenodd;stroke:none;stroke-width:1.16401136;"/>
  <g style="stroke:#000;stroke-width:.79375">
    <path d="M16.67 263.7h26.46" transform="rotate(45 250.76 199.15)scale(1.14 1)"/>
    <path d="M16.67 263.7h26.46" transform="rotate(225 69.86 148.38)scale(1.14 1)"/>
    <path d="M16.67 263.7h26.46" transform="rotate(225 58.27 120.39)scale(1.14 1)"/>
    <path d="M16.67 263.7h26.46" transform="rotate(225 -4.62 145.85)scale(1.14 1)"/>
  </g>
  <g style="fill:none" transform="translate(0 -172)">
    <path d="M69.85 174.76v38.37h83.87v43.39h-84.4v39.42" style="stroke:#000;stroke-width:1.058"/>
    <path d="M80.17 175.03v27.51h83.6v64.3H79.9v29.1" style="stroke:#000;stroke-width:1.058"/>
    <path d="M51.6 207.04h123.29m.01 0v55.55h15.86" style="stroke:#00f;stroke-width:1.32291663"/>
    <path d="M51.6 207.04v55.56h139.17" style="stroke:red;stroke-width:1.323"/>
    <path d="M47.63 207.04H30.16" style="fill-opacity:1;stroke:#ffa900;stroke-width:2.11666656;marker-start:url(#c)"/>
    <path d="M197.13 262.6h-22.24" style="stroke:#ffa900;stroke-width:2.11666656;marker-start:url(#c)"/>
  </g>
  <path d="M99.68 97.02c1.69-13.3-3.31-27.1-10.37-38.72-4.3-6.4-15.23-25.83-22.98-16.5-5.1 6.94-4.99 17.1-1.91 25.67a79 79 0 0 0 19.29 32.1c3.67 2.76 9.4 2.52 11.55-1.54" style="fill:#a97a21;fill-opacity:1;fill-rule:evenodd;stroke:none;stroke-width:1.0883069px;" transform="rotate(155 101.76 58.76)scale(.21167 -.21167)"/>
  <g style="fill:#000;fill-opacity:1;stroke:none;stroke-width:3.2;">
    <path d="M217.04 85.51a15 15 0 0 1-1.73-1.02c-.89-.49-3.95-3.56-1.26-.94a33 33 0 0 1-2.99-3.78l-.31-.5-.13-.1-.03.22c.11.93.8 1.81 1.5 2.66 1.49 1.51 2.88 3.13 4.78 4.42.53.34 1.07.68 1.7.9zm-4.36-1.29-1.37-1.26c-.8-.78-1.5-1.63-2.23-2.46-.93-1.1-1.88-2.21-2.9-3.25l-.34-.38-.13-.12-.2-.2c.91 1.33.47.7 1.32 1.9a82 82 0 0 0 3.56 4.46c.7.84 1.41 1.69 2.24 2.43q.6.5 1.21.97zm-3.08-1.37-1.57-1.1c-.75-.52-1.4-1.14-2.02-1.78-.72-.8-1.43-1.6-2.25-2.3l-.35-.28.18.34.6.75c.95 1.2 1.87 2.4 2.94 3.5a7 7 0 0 0 1.86 1.38q.63.29 1.25.59z"/>
    <path d="M224.69 90.56a22 22 0 0 0-1.34-1.14c-.55-.42-1.14-.78-1.73-1.16l-1.85-1.17q-.8-.51-1.65-.96-.87-.43-1.76-.81l-1.69-.7-1.52-.63-1.62-.58q-.98-.34-1.9-.77c-.58-.4-.92-.41-1.39-.3q-.1.16-.18.34l.5.77.94.88a8 8 0 0 0 2.24 1.63 21 21 0 0 0 1.94.76q.8.26 1.59.54.74.25 1.46.53.81.3 1.63.64a19 19 0 0 1 1.68.74q.78.4 1.54.85l1.79 1.07q.83.5 1.63 1.05a26 26 0 0 1 1.16.9z"/>
    <path d="M226.16 92.86c-.73-.02-.24-.5-.98-.44q-1.74.16-3.5.38c-1.28.16-2.56.5-3.83.82l-3.67.99q-1.93.48-3.85.88c-1.32.3-3.05.78-4.38 1l-1.47.7c.3.31.71.05 1.18.07 1.06-.02 3.13-.15 4.18-.45a133 133 0 0 0 3.76-1.03c1.3-.36 2.62-.72 3.95-.93q1.85-.29 3.7-.5l2.56-.34zm-16.37-9.22-1.37-.31-1.17-.3-1.2-.27q-.56-.16-1.11-.34-.66-.2-1.32-.43-.57-.21-1.12-.45l-1.21-.55c-.03.2-1.57-1.04.17.36l-.72-.36c.82.62 1.62 1.28 2.49 1.83a12 12 0 0 0 1.43.72q.55.23 1.13.42.63.2 1.27.38.5.15 1.02.23l1.07.16 1.02.15q.65.1 1.29.24z"/>
  </g>
  <g transform="rotate(155 101.76 58.76)scale(.21167 -.21167)">
  <path d="M76.13 60.24C78.2 68.07 80 75.97 86.3 81.08c1.6 1.6 15.96 13.54 12.86-2.13 0-3.47-4.09-9.28-5.58-12.26-2.52-5.28-6.47-13.47-9.67-18.5-7.04-8.12-12.93-.84-7.8 12.05Z" style="fill:#000;fill-opacity:1;fill-rule:evenodd;stroke:#000;stroke-width:1.3624568px;"/>
  <path d="M77.19 42.31c.23 4.05 6.94 7.43 9.52 10.49 4.56 5.73 5.08 9.7 7.73 15.4 1.27 2.54 2.11 5.24 3.15 7.74 1.03 2.49 1.55 5.43 2.1 8 .59 2.81.44 5.69.98 8.46.37 1.85-.57 3.68-.99 5.32" style="fill:none;fill-rule:evenodd;stroke:#000;stroke-width:3.46559763;"/>
  <path d="M61.26 57.7c1.77 11.3 3.97 20.38 11.7 29.6 3.62 3.72 7.75 6.9 11.24 10.75" style="fill:none;fill-rule:evenodd;stroke:#000;stroke-width:3.28931642;"/>
  <path d="M88.04 96.78q2.91.05 5.82.05c6.72-1.6 13.99.78 20 1.14-.72.73-1.92 1.25-2.88 1.76l-3.2.25c-2.89-.2-5.76-.47-8.65-.4-1.3-.01-5.2-.1-3.9-.06l16.21.58-.83-.07q-2.87-.03-5.75-.03z" style="fill:#000;fill-opacity:1;stroke:none;stroke-width:3.2;"/>
  <path d="m29.78 93.52-1.75 3.55c-1.29 2.61-1.5 5.2-.32 7.5 1.67 3.23 6.39 4.28 10.31 5.56.28.09-4.1-.02-7.2.32-3.4.37-7 1.94-9.6 2.54-5.71 1.32-4.24-.76-3.05-3.77 1.07-2.71 3.23-5.56 4.6-8.15 2.09-3.9 3.42-3.31 7.01-7.55z" style="fill:#000;fill-rule:evenodd;stroke:#000;stroke-width:1.18773651px;"/>
  </g>
  <g style="stroke:#000;stroke-width:.66145831;marker-start:url(#d)" transform="translate(0 -172)">
    <path d="M126.54 259.43h-20.11"/>
    <path d="M158.5 226.6v20.1"/>
    <path d="M107.43 210.19h20.1"/>
    <path d="M74.88 179.23v20.11"/>
    <path d="M74.88 271.84v20.1"/>
  </g>
  <g stroke-width="1.32">
    <path d="M51.6 237.73v-14.02" style="stroke:red;marker-start:url(#e)" transform="translate(0 -172)"/>
    <path d="M174.89 237.73v-14.02" style="stroke:#00f;marker-start:url(#f)" transform="translate(0 -172)"/>
  </g>
  <text x="55" y="27.6" font-family="Verdana" font-size="8.47">BS</text>
  <text x="166.3" y="103.3" font-family="Verdana" font-size="8.47">BS</text>
  <text x="38.5" y="103.83" font-family="Verdana" font-size="8.47">M</text>
  <text x="182.5" y="29.75" font-family="Verdana" font-size="8.47">M</text>
</svg>
