<svg xmlns="http://www.w3.org/2000/svg" xmlns:xlink="http://www.w3.org/1999/xlink" width="500" height="150" viewBox="0 0 500 150">
  <defs>
    <path id="b" d="M3.7 0v-.22q.53 0 .53-.78v-2.69L2.66-1q0 .77.53.78V0H.4v-.22q.34 0 .48-.19.15-.18.14-.65v-3.38q0-.81-.62-.81v-.22h2.78v.22q-.3 0-.42.17-.12.15-.11.64v2.67l1.57-2.71q0-.45-.14-.6-.1-.17-.39-.17v-.22h2.78v.22q-.3 0-.46.16-.14.16-.14.57v3.49q0 .48.12.66.14.15.48.15V0Zm0 0"/>
    <path id="a" d="M3.1-7.94h4.1v.22q-.69.02-.87.17-.2.15-.22.74 1.35 0 2.05.31t1.2.94.5 1.51q0 1.13-.84 1.99T6.1-1.2q0 .42.1.62.09.2.27.27.2.06.72.1V0H3.1v-.22q.73 0 .92-.22.18-.22.18-.76a5 5 0 0 1-2.17-.38Q1.25-1.97.84-2.6a2.7 2.7 0 0 1 .1-2.95q.5-.71 1.25-.97.75-.28 2.01-.28 0-.53-.22-.7-.21-.2-.89-.2Zm3 6.32q.6 0 .96-.18.38-.18.61-.75.25-.57.25-1.56 0-.78-.23-1.33-.22-.54-.58-.73-.36-.2-1-.2ZM4.2-6.37q-.78.01-1.1.26-.34.25-.54.78-.19.54-.19 1.36 0 .97.24 1.47t.62.69q.4.17.97.19Zm0 0"/>
    <path id="c" d="M.42-.22Q.76-.23.9-.39q.15-.15.14-.63v-3.46q0-.43-.12-.58-.13-.15-.49-.19v-.22h4.81v1.42h-.21q-.14-.65-.38-.86t-.89-.2H2.67v4.13q0 .42.13.59.14.15.54.17V0H.42Zm0 0"/>
    <path id="d" d="M1.5-1.8q.4 0 .69.28t.28.7-.28.68a1 1 0 0 1-.69.28q-.4 0-.69-.28a1 1 0 0 1-.28-.69q0-.4.28-.69a1 1 0 0 1 .69-.28m0 0"/>
    <path id="e" d="M.3-2.98 4.06-8.1h.72V-3h.72v1.2h-.72V0h-1.6v-1.78H.3Zm.56 0h2.31v-3.14Zm0 0"/>
    <path id="h" d="M5.73-2.53h-.3c-.34.86-.46.92-1.7.94h-1.8l1.93-1.85c.95-.9 1.36-1.7 1.36-2.6 0-1.29-.9-2.21-2.2-2.21-.61 0-1.2.25-1.6.67C.95-7.1.7-6.7.38-5.8H.7c.38-.76.82-1.08 1.47-1.08q.8 0 1.19.66c.14.25.23.6.23.86 0 .53-.21 1.19-.6 1.78-.62.92-1.04 1.44-2.79 3.3V0H5.2Zm0 0"/>
    <path id="f" d="M3.44-3.44H.54v1.4h2.9Zm0 0"/>
    <path id="g" d="M5.3-.28C4.22-.3 4-.48 4-1.42v-6.83h-.2L.78-6.94v.32l.24-.1c.32-.12.62-.2.78-.2q.44-.01.43.83v4.6c0 .97-.25 1.2-1.43 1.2V0h4.5Zm0 0"/>
    <path id="j" d="m5.63-5.6.48-2.37h-.28c-.17.25-.28.31-.55.31-.16 0-.3-.04-.55-.14s-.65-.15-1.01-.15c-1.25 0-2.14.8-2.14 1.98 0 .66.17 1 .89 1.77.06.04.26.26.47.5l.47.5c.57.58.73.89.73 1.4 0 .9-.67 1.6-1.56 1.6-1 0-1.75-.85-1.75-2.02 0-.1 0-.14.03-.25L.6-2.48.2.17h.21q.11-.39.46-.39c.14 0 .3.05.62.16.55.2.88.28 1.25.28 1.4 0 2.42-1.03 2.42-2.4 0-.77-.25-1.23-1.34-2.32-1.1-1.1-1.2-1.27-1.2-1.84 0-.75.51-1.22 1.3-1.22q.72 0 1.09.43c.26.3.37.7.39 1.5Zm0 0"/>
    <path id="k" d="M3.83-5.97c0-.26.04-.48.2-.92.1-.31.13-.47.13-.61 0-.27-.18-.45-.44-.45q-.41.01-.42.47c0 .1.03.21.1.45.16.55.2.83.2 1.34-.46-.28-.7-.47-1.08-.9-.24-.27-.36-.35-.57-.35a.4.4 0 0 0-.42.4c0 .34.19.46.74.57q.67.1 1.12.38l.14.07c-.51.32-.72.41-1.28.5q-.74.11-.72.52c0 .25.2.44.42.44q.3 0 .61-.38c.33-.42.49-.54.86-.78l.19-.1.02.34q0 .37-.22.98c-.1.27-.13.4-.13.5 0 .27.17.45.42.45.28 0 .47-.18.47-.48 0-.11-.03-.19-.1-.4a4 4 0 0 1-.24-1.4l.1.05c.38.22.66.47.98.86.21.28.37.37.54.37.27 0 .46-.2.46-.47 0-.28-.2-.42-.74-.5q-.5-.09-.78-.25l-.45-.21c.51-.33.72-.41 1.3-.5.5-.1.67-.22.67-.54q-.02-.41-.46-.43c-.15 0-.25.04-.42.25-.64.67-.67.7-1.2 1.04Zm0 0"/>
    <path id="l" d="m5.58-1.31-.35.33c-.37.39-.51.5-.62.5a.16.16 0 0 1-.16-.16c0-.25.5-2.3 1.07-4.34l.07-.25-.09-.04-.73.08-.04.03-.12.58q-.18-.67-.97-.69C2.04-5.27.2-3.09.2-1.19.2-.36.66.13 1.44.13c.83 0 1.34-.4 2.4-1.88-.25.98-.28 1.08-.28 1.38q0 .5.49.5c.48 0 .76-.24 1.67-1.32Zm-1.86-3.7c.4.03.67.3.67.73 0 1-.62 2.42-1.44 3.3-.28.32-.68.53-1.04.53-.43 0-.7-.33-.7-.9 0-.67.45-1.87.98-2.62.48-.69 1.03-1.08 1.53-1.05m0 0"/>
    <path id="m" d="M1.56-7.6c.75.05.92.15.92.47q0 .31-.12.77L.88-1.08c-.22.7-.3.77-.97.9V0h3.03c1.4 0 2.7-.37 3.62-1.05a4.4 4.4 0 0 0 1.85-3.54c0-1.96-1.36-3.22-3.5-3.22H1.56Zm2.2.5c.07-.26.26-.35.74-.35.67 0 1.28.15 1.66.45.59.4.92 1.17.92 2.1 0 1.32-.5 2.65-1.33 3.46A4 4 0 0 1 2.83-.36c-.56 0-.78-.12-.78-.44 0-.15.06-.39.26-1.14Zm0 0"/>
    <path id="o" d="M5.63-5.6 6.1-8h-.28c-.17.25-.28.31-.55.31-.16 0-.3-.04-.55-.14s-.65-.15-1.01-.15c-1.25 0-2.14.82-2.14 2 0 .64.17 1 .89 1.76l.47.5.47.5c.57.6.73.9.73 1.42 0 .9-.67 1.6-1.56 1.6-1 0-1.75-.86-1.75-2.03 0-.08 0-.13.03-.24L.6-2.5.2.19h.21q.11-.41.46-.4c.14 0 .3.04.62.15.55.2.88.28 1.25.28 1.4 0 2.42-1.03 2.42-2.4 0-.79-.25-1.24-1.34-2.35-1.1-1.08-1.2-1.25-1.2-1.84 0-.75.51-1.22 1.3-1.22q.72 0 1.09.43c.26.3.37.7.39 1.5Zm0 0"/>
    <path id="p" d="M3.83-6c0-.25.04-.48.2-.92.1-.31.13-.47.13-.61 0-.27-.18-.45-.44-.45q-.41.01-.42.46c0 .11.03.22.1.46.16.54.2.83.2 1.34-.46-.26-.7-.47-1.08-.89-.24-.28-.36-.36-.57-.36a.4.4 0 0 0-.42.42c0 .32.19.46.74.55q.67.11 1.12.4l.14.07c-.51.31-.72.39-1.28.48-.5.1-.72.25-.72.53 0 .25.2.44.42.44q.3 0 .61-.37c.33-.42.49-.55.86-.78.11-.07.14-.08.19-.13l.02.36c0 .27-.07.56-.22.98-.1.27-.13.4-.13.5 0 .27.17.46.42.46.28 0 .47-.19.47-.49 0-.1-.03-.18-.1-.4-.18-.5-.23-.77-.24-1.4l.1.05c.38.22.66.46.98.86q.3.4.54.38c.27 0 .46-.2.46-.47 0-.28-.2-.42-.74-.52q-.5-.08-.78-.23l-.45-.24c.51-.3.72-.4 1.3-.5.5-.07.67-.21.67-.53 0-.25-.18-.43-.46-.43-.15 0-.25.04-.42.25-.64.68-.67.7-1.2 1.06Zm0 0"/>
    <path id="q" d="M5.6-1.4c-.66.8-.8.95-1 .95-.1 0-.2-.1-.2-.22 0-.13.2-.88.41-1.5.35-1.11.58-2.02.58-2.31 0-.49-.33-.82-.8-.82-.78 0-1.64.78-2.75 2.53l1.44-5.37-.06-.06c-.72.17-1.19.25-1.9.32v.2h.32c.28-.02.5.1.5.29q0 .26-.17.8-.03.06-.13.45L.24 0h.89c.48-1.84.64-2.25 1.12-2.98.63-.96 1.44-1.7 1.86-1.7.19 0 .34.15.34.3q0 .09-.1.4L3.7-1.5q-.24.89-.25 1.1c0 .32.22.5.55.5.6 0 1.02-.32 1.75-1.37Zm0 0"/>
  </defs>
  <use xlink:href="#a" x="158.96" y="121.91"/>
  <use xlink:href="#b" x="169.25" y="121.91"/>
  <use xlink:href="#c" x="176.21" y="121.91"/>
  <use xlink:href="#d" x="181.6" y="121.91"/>
  <use xlink:href="#e" x="187.59" y="121.91"/>
  <use xlink:href="#f" x="193.6" y="121.91"/>
  <use xlink:href="#g" x="197.55" y="121.91"/>
  <use xlink:href="#a" x="390.94" y="121.91"/>
  <use xlink:href="#b" x="401.24" y="121.91"/>
  <use xlink:href="#c" x="408.19" y="121.91"/>
  <use xlink:href="#d" x="413.59" y="121.91"/>
  <use xlink:href="#e" x="419.58" y="121.91"/>
  <use xlink:href="#f" x="425.58" y="121.91"/>
  <use xlink:href="#h" x="429.54" y="121.91"/>
  <path fill="#d9d9d9" fill-rule="evenodd" d="m201.85 54.45 4.19-41.6 4.17 41.6Zm0 0"/>
  <path fill="#d9d9d9" fill-rule="evenodd" stroke="#000" stroke-linejoin="round" stroke-miterlimit="10" stroke-width=".6" d="M108.25 48.3c.05 12.4-1.23 28-4.15 42M99.95 48.9c-.05 12.4 1.23 28 4.15 42" transform="matrix(.99568 0 0 -.99045 102.68 102.59)"/>
  <path fill="#d9d9d9" fill-rule="evenodd" d="m201.85 52.67 4.19 41.6 4.17-41.6Zm0 0"/>
  <path fill="#d9d9d9" fill-rule="evenodd" stroke="#000" stroke-linejoin="round" stroke-miterlimit="10" stroke-width=".6" d="M108.25 50.1c.05-12.4-1.23-28-4.15-42" transform="matrix(.99568 0 0 -.99045 102.68 102.59)"/>
  <path fill="#d9d9d9" fill-rule="evenodd" stroke="#000" stroke-linejoin="round" stroke-miterlimit="10" stroke-width=".6" d="M99.95 50.1c-.05-12.4 1.23-28 4.15-42" transform="matrix(.99568 0 0 -.99045 102.68 102.59)"/>
  <path fill="none" stroke="#000" stroke-dasharray="2.4024 1.8018" stroke-linejoin="round" stroke-miterlimit="10" stroke-width=".6" d="M.3 49.5h158.4" transform="matrix(.99568 0 0 -.99045 102.68 102.59)"/>
  <use xlink:href="#j" x="110.47" y="45.26"/>
  <use xlink:href="#k" x="110.47" y="59.6"/>
  <use xlink:href="#l" x="153.06" y="73.37"/>
  <path d="M114.3 64.55h92.57v.6H114.3Zm3.83 3.03-4.4-2.73 4.4-2.73a.3.3 0 0 1 .4.1.3.3 0 0 1-.09.4l-3.98 2.48v-.5l3.98 2.47a.3.3 0 0 1 .1.41.3.3 0 0 1-.42.1m84.9-5.46 4.4 2.73-4.4 2.73c-.13.09-.32.05-.4-.1a.3.3 0 0 1 .09-.4l4-2.48v.5l-4-2.48a.3.3 0 0 1-.1-.4c.09-.15.28-.19.42-.1M220.37 97.32l.35-83.62h.6l-.35 83.62Zm3.07-3.8-2.77 4.36-2.73-4.38c-.09-.14-.04-.32.1-.41a.3.3 0 0 1 .4.1l2.49 3.97h-.5l2.5-3.95a.3.3 0 0 1 .41-.1.3.3 0 0 1 .1.41m-5.19-76.02 2.77-4.36 2.73 4.38a.3.3 0 0 1-.1.41.3.3 0 0 1-.41-.09l-2.48-3.98h.51l-2.51 3.96a.3.3 0 0 1-.4.1.3.3 0 0 1-.11-.42m0 0"/>
  <use xlink:href="#m" x="226.2" y="74.56"/>
  <path fill="#d9d9d9" fill-rule="evenodd" d="m433.8 53.25 4.19-41.71 4.18 41.71Zm0 0"/>
  <path fill="#d9d9d9" fill-rule="evenodd" stroke="#000" stroke-linejoin="round" stroke-miterlimit="10" stroke-width=".6" d="M108.25 47.1c.05 12.4-1.23 28-4.15 42" transform="matrix(.99568 0 0 -.9933 334.64 100.34)"/>
  <path fill="#d9d9d9" fill-rule="evenodd" stroke="#000" stroke-linejoin="round" stroke-miterlimit="10" stroke-width=".6" d="M99.95 47.1c-.05 12.4 1.23 28 4.15 42" transform="matrix(.99568 0 0 -.9933 334.64 100.34)"/>
  <path fill="#d9d9d9" fill-rule="evenodd" d="m433.8 57.43 4.19 41.71 4.18-41.71Zm0 0"/>
  <path fill="#d9d9d9" fill-rule="evenodd" stroke="#000" stroke-linejoin="round" stroke-miterlimit="10" stroke-width=".6" d="M108.25 42.9c.05-12.4-1.23-28-4.15-42" transform="matrix(.99568 0 0 -.9933 334.64 100.34)"/>
  <path fill="#d9d9d9" fill-rule="evenodd" stroke="#000" stroke-linejoin="round" stroke-miterlimit="10" stroke-width=".6" d="M99.95 42.9c-.05-12.4 1.23-28 4.15-42" transform="matrix(.99568 0 0 -.9933 334.64 100.34)"/>
  <path fill="none" stroke="#000" stroke-dasharray="2.4024 1.8018" stroke-linejoin="round" stroke-miterlimit="10" stroke-width=".6" d="M.3 44.7h158.4" transform="matrix(.99568 0 0 -.9933 334.64 100.34)"/>
  <use xlink:href="#o" x="342.43" y="47.22"/>
  <use xlink:href="#p" x="342.43" y="61.62"/>
  <path d="M445.75 79.77v-20.9h.6v20.9Zm-2.45-17.07 2.75-4.38 2.75 4.38a.3.3 0 0 1-.1.4.3.3 0 0 1-.4-.08l-2.5-3.98h.5l-2.49 3.98a.3.3 0 0 1-.4.09.3.3 0 0 1-.1-.41m0 0"/>
  <use xlink:href="#q" x="452.35" y="59.01"/>
  <path d="M446.35 32.7v20.89h-.6v-20.9Zm2.45 17.07-2.75 4.38-2.75-4.38a.3.3 0 0 1 .1-.41.3.3 0 0 1 .41.09l2.5 3.98h-.5l2.48-3.98a.3.3 0 0 1 .41-.1.3.3 0 0 1 .1.42m0 0"/>
  <path fill="none" stroke="#000" stroke-linejoin="round" stroke-miterlimit="10" stroke-width=".6" d="M108.3 47.1v-4.35M99.3 42.84l8.64.06M99.9 47.04l8.64.06" transform="matrix(.99568 0 0 -.9933 334.64 100.34)"/>
</svg>
