<svg xmlns="http://www.w3.org/2000/svg" xmlns:xlink="http://www.w3.org/1999/xlink" width="595.32" height="200" viewBox="0 0 595.32 200">
  <defs>
    <path id="d" d="M1.45-.28.92.09.55 0l1.51-6.7q.13-.6.13-.86 0-.25-.16-.35Q1.88-8 1.5-8l.08-.32 1.48-.04h.35L2.37-4.28l.07.03q.57-.76 1.08-1.1.5-.35.98-.35.64 0 1 .5.36.48.36 1.36 0 .97-.4 1.9A3.6 3.6 0 0 1 4.39-.45q-.7.54-1.54.54a2.6 2.6 0 0 1-1.39-.37m.52-1.77q-.1.42-.1.8 0 .47.2.67t.68.2q.25 0 .45-.07.23-.08.44-.25.23-.2.44-.49a4 4 0 0 0 .64-1.65q.1-.5.1-.96 0-.6-.18-.9a.6.6 0 0 0-.56-.32 1 1 0 0 0-.55.2q-.27.15-.6.59-.34.4-.56.84-.2.44-.35 1.1Zm0 0"/>
    <path id="f" d="m2.02-6.73.1-.49q.04-.18.04-.34t-.08-.27a.3.3 0 0 0-.19-.12 2 2 0 0 0-.42-.07l.08-.3 1.47-.05h.34L1.92-1.9q-.12.58-.12.86 0 .24.07.34.08.12.24.11.17 0 .37-.14t.57-.55l.33.33q-.57.6-.93.82t-.8.21a.8.8 0 0 1-.62-.28 1 1 0 0 1-.22-.7q0-.4.16-1.14Zm0 0"/>
    <path id="j" d="M2.58-4.1q.54-.82 1.08-1.21.52-.4 1.07-.4.57 0 .85.34.3.3.3.92v.17q.5-.72 1-1.06.49-.36 1.04-.36.53 0 .83.3.3.32.3.88 0 .38-.18 1.05l-.39 1.55q-.15.63-.15.89 0 .24.08.34.07.12.25.11a.6.6 0 0 0 .36-.14q.2-.15.57-.55l.33.33a5 5 0 0 1-.87.78Q8.67.1 8.19.1a.8.8 0 0 1-.61-.26 1 1 0 0 1-.24-.7q0-.38.2-1.13l.26-1q.14-.55.18-.81.05-.27.05-.44 0-.4-.14-.58-.13-.18-.44-.19a1 1 0 0 0-.53.2 3 3 0 0 0-.6.57q-.3.4-.5.77t-.3.92L4.98 0H3.97l.67-2.98.17-.8q.05-.27.05-.45 0-.43-.16-.6-.15-.18-.47-.19a1 1 0 0 0-.5.2q-.28.18-.6.59-.33.4-.52.78-.18.38-.3.92L1.77 0H.75l.84-3.72q.15-.56.14-.86a.6.6 0 0 0-.07-.34q-.09-.1-.25-.11a.6.6 0 0 0-.38.16q-.2.14-.56.53l-.33-.33q.51-.53.9-.78.36-.25.8-.25.38 0 .58.25.22.23.22.62 0 .33-.12.69Zm0 0"/>
    <path id="c" d="m5.03-5.31.55-.4.37.1-.86 3.72q-.14.55-.14.86 0 .24.08.34.07.12.25.11a.6.6 0 0 0 .36-.14q.2-.15.58-.55l.33.33q-.54.57-.9.8-.38.24-.8.23a.8.8 0 0 1-.58-.23 1 1 0 0 1-.22-.64q0-.33.12-.69l-.06-.03q-.57.83-1.08 1.22-.5.37-1.06.37-.64 0-1-.48A2.3 2.3 0 0 1 .6-1.77q0-.99.39-1.92a3.6 3.6 0 0 1 1.1-1.47 2.5 2.5 0 0 1 2.24-.45q.34.08.7.3m-.51 1.75a3 3 0 0 0 .09-.8q0-.45-.2-.66t-.66-.21q-.6 0-1.08.48a3 3 0 0 0-.75 1.31 5 5 0 0 0-.26 1.63q0 .6.15.9.17.3.56.3.4 0 .77-.33.37-.32.77-.95.38-.63.56-1.42Zm0 0"/>
    <path id="a" d="M1.44.5q-.12.14-.19.27a1.03 1.03 0 0 0-.14.55q0 .44.31.63.3.2.96.2.71 0 1.15-.32T4.28.8q.3-.72.61-2.2h-.08q-.58.78-1.06 1.13A1.7 1.7 0 0 1 2.7.1q-.64 0-1-.48a2.3 2.3 0 0 1-.34-1.38q0-.99.39-1.92.39-.91 1.08-1.47a2.5 2.5 0 0 1 2.26-.45q.33.08.66.3l.53-.4.38.1-.6 2.74-.3 1.43Q5.54-.2 5.39.31T5 1.23a2.6 2.6 0 0 1-1.42 1.22q-.5.17-1.19.17-2.22 0-2.22-1.3 0-.32.2-.59t.65-.56ZM3.13-.6q.29 0 .59-.21t.62-.64q.35-.45.54-.86.18-.4.3-1 .15-.6.15-1.05t-.2-.67q-.19-.2-.65-.2-.6 0-1.07.48t-.75 1.31a5 5 0 0 0-.27 1.63q0 .6.17.9.19.3.56.3m0 0"/>
    <path id="g" d="M2.3-1.7q-.1.34-.11.54l-.02.36q0 .26.13.38.14.1.45.14L2.67 0H.33L.4-.28a1 1 0 0 0 .32-.13 1 1 0 0 0 .2-.22q.07-.13.13-.34l.19-.78 1-4.52q.13-.58.13-.93 0-.3-.15-.38a1 1 0 0 0-.42-.14L1.87-8h2.35l-.06.28q-.24.05-.33.11a1 1 0 0 0-.17.19q-.08.11-.16.36t-.2.81Zm0 0"/>
    <path id="h" d="M6.94-5.3q-.75.99-1.72 2.4-.14 1.15-.14 1.6 0 .38.08.55t.3.17q.15 0 .37-.14.2-.14.45-.42l.33.31q-.48.54-.86.74-.36.18-.73.18-.8 0-.79-1.14 0-.24.04-.54H4.2q-.6.88-1.14 1.3-.53.38-1.15.38-.43 0-.72-.25Q.89-.4.75-.8q-.14-.4-.14-.88 0-1.05.39-2 .4-.93 1.1-1.47a2.6 2.6 0 0 1 1.62-.54q.65 0 1.01.42.38.4.43 1.2l.04-.01.78-1.52h1ZM4.39-2.84q.1-.62.1-1.08-.01-.68-.2-.99-.2-.32-.62-.32-.53 0-1 .48t-.75 1.31q-.27.82-.26 1.67 0 .6.17.88t.53.28q.5 0 1.03-.58.53-.6 1-1.65m0 0"/>
    <path id="i" d="M4.52-4.34q1.38.48 1.39 1.82 0 .7-.32 1.3-.3.6-.89.97-.6.34-1.37.34a4 4 0 0 1-.88-.07 3 3 0 0 1-.78-.29l-.62 2.79H.09l1.74-7.75q.23-1.04.62-1.72.4-.7 1-1.07t1.4-.37q.92 0 1.4.4.5.42.5 1.15 0 .3-.1.65-.08.35-.32.69-.25.33-.7.63-.46.28-1.1.48Zm-.99-.27q.64-.04 1.14-.36.52-.3.8-.83.3-.51.3-1.12 0-.48-.25-.74-.24-.26-.72-.26-.74 0-1.24.72t-.81 2.17l-.8 3.67-.03.24q0 .15.06.26.09.11.22.22.15.11.38.19t.6.08q.45 0 .85-.29.39-.3.61-.82.22-.55.22-1.24 0-.67-.38-1.05-.36-.37-1.03-.42Zm0 0"/>
    <path id="b" d="M4.42-7.83 2.95-6.56l-.3-.36.93-.81H0v-.55h3.58l-.94-.81.31-.36 1.47 1.28Zm0 0"/>
    <path id="e" d="M4.4-4.2q0-.44-.06-.64a.5.5 0 0 0-.2-.3 1 1 0 0 0-.39-.1q-.6 0-1.06.47a3.4 3.4 0 0 0-.77 1.35q-.3.86-.3 1.65 0 .6.24.9.24.28.7.28.53 0 .92-.2.4-.2.82-.65l.36.36q-.55.6-1.11.9-.57.27-1.2.27-.85 0-1.3-.5T.6-1.87a4.7 4.7 0 0 1 .92-2.7A2.9 2.9 0 0 1 3.87-5.7q.78 0 1.44.18L5.03-4.2Zm0 0"/>
  </defs>
  <path fill="none" stroke="#000" stroke-linecap="round" stroke-linejoin="round" stroke-miterlimit="10" stroke-width=".749145" d="M381.52 104.77h46.44M471.21 104.77h46.45M427.36 104.37v49.9M471.21 104.77v49.9"/>
  <path fill="none" stroke="#000" stroke-linejoin="round" stroke-miterlimit="10" stroke-width="1.49829" d="m427.36 154.52 43.85.14M379.57 182.18h138.09"/>
  <path fill="none" stroke="#000" stroke-linecap="round" stroke-linejoin="round" stroke-miterlimit="10" stroke-width=".49943" d="M408.78 98.83c0 7.64 2.03 13.83 4.53 13.83h3.46c2.06 0 3.86-4.26 4.37-10.37h1.74l-3.32-3.46-3.6 3.46h1.72c-.35 4.2-1.34 7.66-2.64 9.32-1.7-2.15-2.8-7.19-2.8-12.78Zm0 0"/>
  <path fill="none" stroke="#000" stroke-linecap="round" stroke-linejoin="round" stroke-miterlimit="10" stroke-width=".49943" d="M416.77 112.66q-.9 0-1.73-1.05M474.76 98.83c0 7.6 2.02 13.78 4.5 13.78h3.45c2.06 0 3.85-4.25 4.36-10.34h1.73l-3.3-3.44-3.59 3.44h1.72c-.35 4.2-1.33 7.64-2.64 9.3-1.69-2.13-2.79-7.17-2.79-12.74Zm0 0"/>
  <path fill="none" stroke="#000" stroke-linecap="round" stroke-linejoin="round" stroke-miterlimit="10" stroke-width=".49943" d="M482.7 112.61q-.89 0-1.7-1.05"/>
  <path d="M395.75 181.43h58.43v1.5h-58.43Zm52.82-3.4 7.1 4.15-7.1 4.15a.75.75 0 0 1-1.03-.27.75.75 0 0 1 .27-1.03l6-3.5v1.3l-6-3.5a.75.75 0 0 1-.27-1.02.75.75 0 0 1 1.03-.27M463.72 155.26h-14.98v-1.5h14.98Zm-9.37 3.4-7.1-4.14 7.1-4.15a.75.75 0 0 1 1.03.27c.21.36.09.82-.27 1.03l-6 3.5v-1.3l6 3.49a.75.75 0 0 1-.76 1.3M471.71 112.66v20.48a.5.5 0 0 1-.5.5.5.5 0 0 1-.5-.5v-20.48c0-.28.22-.5.5-.5s.5.22.5.5m3.43 14.73-3.93 6.74-3.92-6.74a.5.5 0 1 1 .86-.5l3.5 6h-.87l3.5-6a.5.5 0 0 1 .86.5M486.74 155.71v23.83a.5.5 0 0 1-.5.5.5.5 0 0 1-.5-.5V155.7c0-.28.22-.5.5-.5s.5.22.5.5m-4.42 5.75 3.93-6.74 3.92 6.74a.5.5 0 0 1-.86.5l-3.5-6h.87l-3.5 6a.5.5 0 0 1-.68.18.5.5 0 0 1-.18-.68m7.85 12.33-3.92 6.73-3.93-6.73a.5.5 0 0 1 .18-.68.5.5 0 0 1 .68.18l3.5 6h-.86l3.5-6a.5.5 0 1 1 .86.5m0 0"/>
  <path fill="none" stroke="#000" stroke-dasharray="2.247435 2.99658" stroke-linecap="round" stroke-linejoin="round" stroke-miterlimit="10" stroke-width=".749145" d="m471.21 154.52 30.42.14"/>
  <path d="M389.95 145.43v20.47a.5.5 0 0 1-.5.5.5.5 0 0 1-.5-.5v-20.47c0-.29.23-.5.5-.5.28 0 .5.21.5.5m3.43 14.73-3.92 6.73-3.93-6.73a.5.5 0 0 1 .18-.68.5.5 0 0 1 .68.18l3.5 6h-.86l3.5-6a.5.5 0 0 1 .67-.18c.24.14.32.44.18.68M426.86 148.22V127.3c0-.28.22-.5.5-.5s.5.22.5.5v20.92a.5.5 0 0 1-.5.5.5.5 0 0 1-.5-.5m-3.42-15.18 3.92-6.74 3.93 6.74a.5.5 0 0 1-.86.5l-3.5-6h.86l-3.5 6a.5.5 0 0 1-.67.18.5.5 0 0 1-.18-.68M512.32 105.27h-8.7a.5.5 0 0 1-.5-.5c0-.28.22-.5.5-.5h8.7c.27 0 .5.22.5.5a.5.5 0 0 1-.5.5m-2.95 3.43-6.73-3.93 6.73-3.93a.5.5 0 0 1 .68.19c.14.24.06.54-.18.67l-6 3.5v-.86l6 3.5a.5.5 0 0 1 .18.68.5.5 0 0 1-.68.18M402.84 105.27h-8.64a.5.5 0 0 1-.5-.5c0-.28.22-.5.5-.5h8.64c.28 0 .5.22.5.5a.5.5 0 0 1-.5.5m-2.9 3.43-6.73-3.93 6.73-3.93a.5.5 0 0 1 .68.19c.14.24.06.54-.18.67l-6 3.5v-.86l6 3.5a.5.5 0 0 1 .18.68.5.5 0 0 1-.68.18m0 0"/>
  <path fill="none" stroke="#000" stroke-linecap="round" stroke-linejoin="round" stroke-miterlimit="10" stroke-width=".749145" d="M347.95 104.77v49.9M347.9 104.77l-22.47 45.8M348.37 154.5a55.5 55.5 0 0 1-23.03-4.5"/>
  <path fill="none" stroke="#000" stroke-dasharray="2.247435 2.99658" stroke-linecap="round" stroke-linejoin="round" stroke-miterlimit="10" stroke-width=".749145" d="M347.95 154.52v27.76M325.43 150.57l22.52 31.61"/>
  <path fill="none" stroke="#000" stroke-linecap="round" stroke-linejoin="round" stroke-miterlimit="10" stroke-width=".749145" d="M347.94 117c-1.67.04-3.34-.3-4.83-.96M343.06 173.68c1.4-.63 2.96-.97 4.53-.98"/>
  <path d="M495.43 105.97v46.1a.5.5 0 0 1-.5.5.5.5 0 0 1-.5-.5v-46.1c0-.28.23-.5.5-.5.28 0 .5.22.5.5m-4.42 5.74 3.92-6.73 3.93 6.73c.14.24.06.54-.18.68a.5.5 0 0 1-.68-.18l-3.5-6h.86l-3.5 6a.5.5 0 0 1-.67.18.5.5 0 0 1-.18-.68m7.85 34.61-3.93 6.73-3.92-6.73a.5.5 0 1 1 .86-.5l3.5 6h-.87l3.5-6a.5.5 0 0 1 .68-.18c.24.15.32.44.18.68m0 0"/>
  <path fill-rule="evenodd" stroke="#000" stroke-linecap="round" stroke-linejoin="round" stroke-miterlimit="10" stroke-width="1.99772" d="M348.15 179.04a1.8 1.8 0 0 0 0 3.6 1.8 1.8 0 0 0 0-3.6M348.12 152.96c-.98 0-1.76.8-1.76 1.77a1.77 1.77 0 1 0 3.54 0c0-.98-.8-1.77-1.78-1.77m0 0"/>
  <path fill="gray" fill-rule="evenodd" stroke="gray" stroke-linecap="round" stroke-linejoin="round" stroke-miterlimit="10" stroke-width="1.99772" d="M325.6 148.22c-.98 0-1.77.8-1.77 1.77a1.77 1.77 0 1 0 3.54 0c0-.98-.78-1.77-1.76-1.77m0 0"/>
  <use xlink:href="#a" x="393.94" y="156.52"/>
  <use xlink:href="#b" x="396.7" y="156.52"/>
  <use xlink:href="#c" x="497.77" y="132.07"/>
  <use xlink:href="#d" x="490.34" y="169.95"/>
  <use xlink:href="#e" x="325.24" y="170.31"/>
  <use xlink:href="#c" x="327.4" y="127.28"/>
  <use xlink:href="#c" x="351.87" y="134.71"/>
  <use xlink:href="#d" x="351.99" y="170.31"/>
  <use xlink:href="#f" x="460.58" y="150.53"/>
  <use xlink:href="#g" x="438.29" y="177.02"/>
  <use xlink:href="#g" x="395.98" y="119.72"/>
  <use xlink:href="#h" x="339.88" y="128.47"/>
  <use xlink:href="#i" x="339.4" y="168.03"/>
  <use xlink:href="#j" x="434.57" y="151.37"/>
</svg>
