<svg xmlns="http://www.w3.org/2000/svg" xmlns:xlink="http://www.w3.org/1999/xlink" width="450" height="330">
  <defs>
    <linearGradient id="b">
      <stop offset="0" style="stop-color:#555"/>
      <stop offset="1" style="stop-color:#888"/>
    </linearGradient>
    <linearGradient id="a">
      <stop offset="0" style="stop-color:#999"/>
      <stop offset=".5" style="stop-color:#ddd"/>
      <stop offset="1" style="stop-color:#999"/>
    </linearGradient>
    <linearGradient xlink:href="#a" id="d" x1="190.74" x2="250.03" y1="132.56" y2="132.56" gradientUnits="userSpaceOnUse"/>
    <linearGradient xlink:href="#a" id="e" x1="211.58" x2="234.53" y1="183.96" y2="183.96" gradientUnits="userSpaceOnUse"/>
    <linearGradient xlink:href="#a" id="f" x1="190.99" x2="248.42" y1="235.56" y2="235.56" gradientUnits="userSpaceOnUse"/>
    <linearGradient xlink:href="#a" id="g" x1="210.52" x2="235.69" y1="246.46" y2="246.46" gradientUnits="userSpaceOnUse"/>
    <linearGradient xlink:href="#a" id="h" x1="217.96" x2="230.5" y1="117.43" y2="117.43" gradientUnits="userSpaceOnUse"/>
    <linearGradient xlink:href="#a" id="i" x1="205.93" x2="242.16" y1="107.97" y2="107.97" gradientUnits="userSpaceOnUse"/>
    <linearGradient xlink:href="#a" id="j" x1="211.33" x2="236.9" y1="84.84" y2="84.84" gradientUnits="userSpaceOnUse"/>
    <linearGradient xlink:href="#a" id="k" x1="13.53" x2="102.23" y1="286.5" y2="286.5" gradientUnits="userSpaceOnUse"/>
    <linearGradient xlink:href="#a" id="l" x1="13.88" x2="101.53" y1="257.47" y2="257.47" gradientUnits="userSpaceOnUse"/>
    <linearGradient xlink:href="#b" id="m" x1="106.09" x2="106.09" y1="241.45" y2="245.09" gradientUnits="userSpaceOnUse"/>
    <linearGradient xlink:href="#a" id="n" x1="13.01" x2="179.93" y1="183.98" y2="183.98" gradientUnits="userSpaceOnUse"/>
    <linearGradient xlink:href="#b" id="o" x1="120.47" x2="120.47" y1="126.69" y2="122.85" gradientUnits="userSpaceOnUse"/>
    <linearGradient xlink:href="#a" id="p" x1="105.74" x2="179.27" y1="113.91" y2="113.91" gradientUnits="userSpaceOnUse"/>
    <linearGradient xlink:href="#a" id="q" x1="102.63" x2="240.09" y1="95.5" y2="95.5" gradientUnits="userSpaceOnUse"/>
    <linearGradient xlink:href="#a" id="r" x1="106.67" x2="177.47" y1="73.49" y2="73.49" gradientUnits="userSpaceOnUse"/>
    <linearGradient xlink:href="#b" id="s" x1="142.27" x2="142.27" y1="57.99" y2="61.45" gradientUnits="userSpaceOnUse"/>
    <linearGradient xlink:href="#a" id="t" x1="104.74" x2="177.3" y1="50.42" y2="50.42" gradientUnits="userSpaceOnUse"/>
    <linearGradient xlink:href="#a" id="u" x1="106.84" x2="178.52" y1="30.25" y2="30.25" gradientUnits="userSpaceOnUse"/>
    <marker id="c" orient="auto" refX="0" refY="0" style="overflow:visible">
      <path d="M8.72 4.03-2.21.02 8.72-4a6.8 6.8 0 0 0 0 8.03" style="font-size:12px;stroke-width:.625" transform="translate(5.5)scale(-1.1)"/>
    </marker>
  </defs>
  <path d="M304.1 4.57v206.37h38.7v-54.57h44.15v167.68" style="fill:none;fill-opacity:.75;stroke:red;stroke-width:2.5"/>
  <path d="M341.06 288.08s22.87 10 45.52 9.95c22.65-.04 45.08-10.14 45.08-10.14l-.25-2.85s-20.03-10.35-44.96-10.35S341 284.6 341 284.6" style="fill:#6969ff;fill-opacity:.39215686;stroke:#000;stroke-width:1px;stroke-opacity:.19607843"/>
  <text xml:space="preserve" x="383.66" y="44.95" style="font-size:15px;font-style:italic;font-variant:normal;font-weight:400;font-stretch:normal;text-align:start;line-height:125%;writing-mode:lr-tb;text-anchor:start;fill:#000;stroke:none;stroke-width:1px;font-family:Century Schoolbook L"><tspan x="383.66" y="44.95" style="font-size:15px;font-style:italic;font-variant:normal;font-weight:400;font-stretch:normal;text-align:start;line-height:125%;writing-mode:lr-tb;text-anchor:start;font-family:Century Schoolbook L">Eyepiece</tspan></text>
  <text xml:space="preserve" x="395.79" y="96.38" style="font-size:15px;font-style:italic;font-variant:normal;font-weight:400;font-stretch:normal;text-align:start;line-height:100%;writing-mode:lr-tb;text-anchor:start;fill:#000;stroke:none;stroke-width:1px;font-family:Century Schoolbook L"><tspan x="395.79" y="96.38"> Porro</tspan><tspan x="395.79" y="111.38">prisms</tspan></text>
  <text xml:space="preserve" x="238.54" y="284.4" style="font-size:15px;font-style:italic;font-variant:normal;font-weight:400;font-stretch:normal;text-align:start;line-height:125%;writing-mode:lr-tb;text-anchor:start;fill:#000;stroke:none;stroke-width:1px;font-family:Century Schoolbook L"><tspan x="238.54" y="284.4">Objective</tspan></text>
  <path d="M345.65 242.56h81.6" style="fill:#c8c8c8;fill-opacity:.19607843;stroke:#000;stroke-width:1px;stroke-opacity:.14117647"/>
  <g style="fill:none;fill-opacity:.75;stroke:#000;stroke-width:1px;marker-end:url(#c)">
  <path d="m395.77 99.3-24.55 32.98"/>
  <path d="M381.04 38.35 347.36 62.2"/>
  <path d="M304.59 279.49h28.06"/>
  </g>
  <path d="M427.43 244.76h10.35L411.3 123.74h-67.7v2.8l65.77-.17 12.45 55.95h-15.26l-.17 4.03h15.78l12.28 55.25h-7.2z" style="fill:none;fill-opacity:.75;stroke:#000;stroke-width:1px"/>
  <path d="M341.93 302.72h89.42" style="fill:none;stroke:#000;stroke-width:1px;stroke-opacity:.14117647"/>
  <path d="M279.55 182.41H406.3M406.54 186.01H279.05" style="fill:none;fill-opacity:.75;stroke:#000;stroke-width:1px;stroke-opacity:.19607843"/>
  <g style="fill:#e5e5e5;stroke:#000;stroke-width:1px">
  <path d="M336.35 303.21v-36.7s0-4.97.99-12.41c1-7.44 1.98-9.92 1.98-9.92h3.97s-1.49 3.97-1.49 8.93-.99 32.24-.99 32.24l2.98 2.98s-1.99.5-2.48 3.47c-.5 2.98.62 11.54.62 11.54z"/>
  <path d="M435.69 302.47s-.12-36.1-.25-43.41c-.12-7.32-.94-14.4-.94-14.4h-3.35s.2 3.6.2 7.95v34.48l-2.48 1.73s1.61.75 2.23 1.87c.62 1.11 0 12.03 0 12.03zM345.53 244.76h-87V123.39h6.67l-.05 2.94-3.81.18.17 55.8h17.9l-.18 3.52h-17.9l.36 56.12 83.84-.17z"/>
  <path d="M264.97 133.18v-28.65H261V86.6h4.1s.3-23.63-.06-25.12c-.38-1.49-1-1.11-.87-2.35.12-1.24.12-15.5 0-16.87-.13-1.37 1.36-.25 1.11-1-.24-.74 0-22.81 0-22.81h2.98c1 0 11.78 9.6 11.78 10.97V41.1c0 1-12.2 1.89-12.2 3.27v64.57c0 2.05 3.89 4.84 3.89 6.73v17.52zM343.32 133.3v-28.65h3.97V86.73h-4.09s-.31-23.63.06-25.11c.37-1.5 1-1.12.87-2.36-.12-1.24-.12-15.5 0-16.87.12-1.36-1.36-.25-1.12-.99.25-.74 0-22.82 0-22.82h-2.97c-1 0-11.78 9.61-11.78 10.98V41.2c0 1 12.2 1.9 12.2 3.27v64.57c0 2.05-3.89 4.84-3.89 6.73v17.52z"/>
  </g>
  <g style="fill:none;fill-opacity:.75;stroke:#000;stroke-width:1px;stroke-opacity:.14117647">
  <path d="M427.5 244.55h-82.22"/>
  <path d="M271.86 132.86h64.55M268.53 18.68h70.86"/>
  </g>
  <g style="fill:#9191ff;fill-opacity:.19607843;stroke:#000;stroke-width:1px;stroke-opacity:.19607843">
  <path d="m341.56 270.35 89.73-.07v14.76s-20.03-10.35-44.96-10.35-45.46 9.92-45.46 9.92z"/>
  <path d="m356.81 126.48-2.91.12s-11.72 8.31-19.41 19.1c-7.7 10.8-11.29 18.23-11.29 22.7 0 2.6.04 6.82 0 8.06a7.8 7.8 0 0 0 2.85 6.08h69.08s-10.41-2.23-20.7-12.28c-10.3-10.05-17.12-24.68-18-28.15-.86-3.48.5-14.58.38-15.63z"/>
  <path d="m330.47 241.52 6.63-3.78s7.07-3.97 14.76-14.76c7.7-10.79 11.29-18.23 11.29-22.7 0-2.6-.04-6.82 0-8.06a7.8 7.8 0 0 0-2.85-6.07h-69.08s10.97 1.8 21.27 11.84c10.29 10.05 16.55 25.11 17.42 28.59.87 3.47.31 15.44.56 14.94z"/>
  <path d="M280.02 41.32s9.3 9.13 24.38 9.13 23.89-8.93 23.89-8.93v-2.79s-8.07-5.14-24.5-5.14-23.62 5.4-23.62 5.4zM267.89 61.74s17.86-9.3 36.46-9.3 36.1 9.18 36.1 9.18v7.44s-13.9 8.43-36.6 8.43-35.71-8.68-35.71-8.68zM267.89 89.65s17.98-8.19 36.21-8.19 36.34 8.3 36.34 8.3v1.5s-16.12 8.56-36.34 8.56c-20.21 0-36.34-8.44-36.34-8.44z"/>
  </g>
  <g style="fill:#9191ff;fill-opacity:.39215686;stroke:#000;stroke-width:1px;stroke-opacity:.19607843">
  <path d="m356.56 126.48 23.26-.12s10.35 7.31 20.03 20.09c8 10.56 9.9 18.73 10.17 23.19.37 6.08-5.56 12.84-7.82 12.9-3.13.07-5.08 0-5.08 0h-1.99s-10.41-2.23-20.7-12.28c-10.3-10.05-17.12-24.68-18-28.15-.86-3.48.63-15.32.13-15.63z"/>
  <path d="m330.6 241.58-24.25.19s-10.17-6.76-19.85-19.53c-8-10.57-9.9-18.74-10.17-23.2-.37-6.07 5.57-12.84 7.82-12.9 3.13-.07 5.08 0 5.08 0h1.99s10.91 1.87 21.2 11.91c10.3 10.05 16.62 25.05 17.5 28.53.86 3.47.43 15.5.67 15z"/>
  <path d="M280.02 29.29s15.26 1.31 23.76 1.31 24.5-1.1 24.5-1.1v9.23s-8.06-5.14-24.49-5.14-23.62 5.4-23.62 5.4z"/>
  <path d="M267.89 106.14s17.98-3.72 36.21-3.72 36.34 3.84 36.34 3.84v-15s-16.12 8.56-36.34 8.56c-20.21 0-36.34-8.44-36.34-8.44z"/>
  </g>
  <g style="stroke:#000;stroke-width:1px">
  <path d="M258.46 123.38h-67.22v18.35h67.22z" style="fill:url(#d)"/>
  <path d="M212.08 141.61v84.7h25.8v-84.58z" style="fill:url(#e)"/>
  <path d="M205.35 226.57h52.99v18.1H191.6v-18.23z" style="fill:url(#f)"/>
  <path d="m211.02 244.49 6.83 3.94h14.44l6.56-3.79h-27.76v.16" style="fill:url(#g)"/>
  <path d="M218.46 111.41v12.03h13.09V111.6z" style="fill:url(#h)"/>
  <path d="M206.43 104.4v7.14h36.96v-6.89z" style="fill:url(#i)"/>
  <path d="M211.83 86.67s3-3.73 6.46-3.73h14c2.24 0 6.59 3.8 6.59 3.8z" style="fill:url(#j)"/>
  <path d="m14.03 302.29.35-31.92h98.4l.35 32.27z" style="fill:url(#k)"/>
  <path d="m14.38 270.02 1.05-25.44h95.95l1.05 25.79z" style="fill:url(#l)"/>
  <path d="M12.63 244.58h178.9v-2.63H13.33z" style="fill:url(#m)"/>
  <path d="M38.76 126.2 13.51 241.77h178.02V126.19z" style="fill:url(#n)"/>
  <path d="m38.76 126.2.76-2.85h151.83v2.84z" style="fill:url(#o)"/>
  </g>
  <g style="stroke:#000;stroke-width:1">
  <path d="M106.99 104.44h78.58v18.94h-78.58z" style="fill:url(#p)"/>
  <path d="M103.13 86.38h157.68v18.24H103.13z" style="fill:url(#q)"/>
  <path d="M107.17 60.6h77.7v25.78h-77.7z" style="fill:url(#r)"/>
  <path d="M106.46 58.49h78.93v2.46h-78.93z" style="fill:url(#s)"/>
  <path d="M105.24 42.35h81.21v16.14h-81.21z" style="fill:url(#t)"/>
  <path d="M107.34 18.15h77.17v24.2h-77.17z" style="fill:url(#u)"/>
</g>
</svg>
