<svg xmlns="http://www.w3.org/2000/svg" xml:space="preserve" width="400" height="261" viewBox="0 0 400 261">
  <style>
    .st1,.st2{fill:none;stroke:#e41f21}.st2{stroke-width:.5}.st3{fill:#e41f21}.st4{opacity:.5}.st5{fill:#e1def0}.st6{fill:#c4c1e1}.st7,.st8{fill:none;stroke:#000}.st8{stroke-linejoin:round}
  </style>
  <path d="m214.1 165.9-109.2-30.4L30 177.3l128 34.1m31.1-155 123.3 34.1v102.4l-96.3-26.6" class="st1"/>
  <ellipse cx="262.9" cy="76.9" class="st2" rx="1.8" ry="3.2" transform="rotate(40.86 262.86 76.92)"/>
  <ellipse cx="153.6" cy="148.9" class="st2" rx="1.8" ry="3.2" transform="rotate(4.92 153.59 148.94)scale(.99999)"/>
  <ellipse cx="79.2" cy="190.3" class="st2" rx="1.8" ry="3.2" transform="rotate(1.12 79.21 190.3)"/>
  <ellipse cx="104.9" cy="135.7" class="st2" rx="1.8" ry="3.2" transform="rotate(1.12 104.86 135.65)"/>
  <ellipse cx="262.9" cy="179.9" class="st2" rx="1.8" ry="3.2" transform="rotate(40.86 262.86 179.93)"/>
  <ellipse cx="312.4" cy="90.5" class="st2" rx="1.8" ry="3.2" transform="rotate(139.14 312.42 90.47)"/>
  <ellipse cx="312.4" cy="192.9" class="st2" rx="1.8" ry="3.2" transform="rotate(40.86 312.41 192.92)"/>
  <ellipse cx="29.4" cy="177.3" class="st2" rx="1.9" ry="3.9"/>
  <path d="M210.7 62.5c-3 .2-6.9.9-9.6 2.1l3-4.1-.3-5c1.6 2.4 4.5 5.1 6.9 7" class="st3"/>
  <path d="m176.6 216.4 30.6 8.9" class="st1"/>
  <path d="M212.1 226.8c-2.6.2-5.9.8-8.1 1.8l2.5-3.5-.3-4.3c1.4 2.1 3.8 4.4 5.9 6" class="st3"/>
  <g class="st4">
    <path d="m294.1 8 99 128.8-62.5 36.1-36.3-47.9z" class="st5"/>
    <path d="m393.1 136.8-98.7 75.3v-11.3l36.2-27.9z" class="st6"/>
    <path d="m294.3 125 36.3 47.9-36.2 27.9zm.1 75.8v11.3L231.7 249z" class="st6"/>
    <path d="m294.3 125 .1 75.8-62.7 48.2 1.4-205.1z" class="st6"/>
    <path d="m294.3 125-61.2-81.1 61-35.9z" class="st5"/>
    <path d="m294.1 8 99 128.8m-62.5 36.1L294.3 125l-61.2-81.1" class="st7"/>
    <path d="m231.7 249 62.7-48.2 36.2-27.9 62.5-36.1-98.7 75.3" class="st7"/>
    <path d="M294.4 212.1 231.7 249l1.4-205.1 61-35.9.2 117 .1 75.8z" class="st7"/>
  </g>
  <path d="M168.4 51.9v-7.1c0-.7-.4-.8-1.3-.4l-1.8 1c-.1.1-.2 0-.2-.1v-1c0-.1.1-.3.2-.3.2-.1.6-.3 1.3-.7.7-.3 1.8-.9 3.3-1.7.5-.3 11.7-6.1 12.2-6.6.1.6 1 4.9 1.2 5.7 0 .1 0 .2-.1.3l-.6.6c-.1.1-.2 0-.3-.1-.3-.4-1.1-1.3-2-2.2-.5-.5-1.3-.8-2.2-.5-.8.2-5.8 2.8-6.8 3.3 0 .5-.1 7.7-.1 9.9v1.8c.4-.2 3.8-2.1 4.2-2.4.7-.5 1.1-1.1 1.4-2.3.1-.4.2-1.2.3-1.9 0-.2.1-.3.2-.4l.6-.3c.1-.1.2 0 .2.2-.1.6-.1 3.6-.1 4.1 0 1.3.1 3 .1 3.7 0 .2-.1.3-.2.4l-.6.5c-.2.1-.2 0-.2-.1 0-.3-.3-1.2-.3-1.6-.2-.7-.6-1-1.3-.7-1.5.6-3.8 1.8-4.3 2.1V64c0 1 .2 1.1 1.2.5l1.6-.8c.2-.1.3-.1.3.1v.9c0 .2-.1.3-.3.4-.3.2-1.6.7-4.3 2.2-2.5 1.3-3.7 2.1-4.2 2.3-.1.1-.2 0-.2-.2v-1c0-.1.1-.2.2-.3l1.4-.8c.8-.4 1.1-.7 1.1-1.4.1-.8.1-5.3.2-11.5z" style="fill:#159a39"/>
  <g class="st4">
    <path d="M189.6 84.4v82.3L41 182.2l-.1-11z" class="st5"/>
    <path d="M189.6 84.4 40.9 171.2l-21.5-68.9zm0 82.3-148 85.6-.6-70.1z" class="st5"/>
    <path d="m41 182.2.6 70.1-22.2-67.9z" class="st5"/>
    <path d="m40.9 171.2.1 11-21.6 2.2v-82.1z" class="st5"/>
    <path d="M189.6 166.7 41 182.2l-21.6 2.2m0-82.1 170.2-17.9" class="st8"/>
    <path d="m40.9 171.2-21.5-68.9v82.1l22.2 67.9" class="st8"/>
    <path d="m189.6 166.7-148 85.6-.6-70.1-.1-11 148.7-86.8z" class="st8"/>
  </g>
</svg>
