<svg xmlns="http://www.w3.org/2000/svg" xmlns:xlink="http://www.w3.org/1999/xlink" width="450" height="250" viewBox="0 0 450 250">
  <defs>
    <path id="a" d="M8.3-1.4q-.1.09-.16.18-.31.37-.33.4c-.26.27-.39.37-.56.37q-.14 0-.14-.2c0-.05.05-.26.12-.54l.82-3.03.03-.33c0-.43-.3-.76-.69-.76q-.36.01-.76.26c-.6.4-1.1.97-1.93 2.3.32-.94.49-1.6.49-1.83 0-.44-.28-.73-.69-.73-.73 0-1.58.8-2.69 2.54l.7-2.51-.03-.03c-.65.14-.9.18-1.93.37v.2c.56 0 .56 0 .67.07q.1.05.1.2c0 .14-.29 1.25-.71 2.75C.34-.82.3-.6.14 0h.9c.59-1.9.77-2.36 1.18-2.98.69-1.04 1.39-1.7 1.8-1.7q.24 0 .25.3c0 .16-.38 1.58-.85 3.27L3.11 0H4c.49-1.87.72-2.48 1.35-3.33.58-.83 1.19-1.36 1.53-1.36.14 0 .25.11.25.27q0 .05-.1.42l-.68 2.77c-.13.46-.16.67-.16.8q0 .53.47.54c.58 0 1.1-.4 1.74-1.28l.06-.1Zm0 0"/>
    <path id="c" d="M5.67-4.87h-.73q-.05.01-.19-.1a2 2 0 0 0-1.17-.34c-1.35 0-2.42.93-2.42 2.06 0 .63.25.98.95 1.3-.72.48-.94.72-.94 1.01q0 .23.33.47C.31.31.1.55.1 1.11c0 .83.8 1.37 2 1.37 1.53 0 2.53-.71 2.53-1.76Q4.63-.4 2.9-.86c-.54-.14-.85-.33-.85-.51s.28-.49.44-.49h.1q.15.05.35.05c1.11 0 2.24-.99 2.24-1.92q0-.29-.11-.68h.6ZM1.78-.34l.06.03.35.1C3.49.2 3.9.54 3.9 1.09c0 .65-.7 1.14-1.63 1.14C1.33 2.22.77 1.75.77.98.77.7.83.5 1.02.27c.17-.22.67-.61.76-.61m1.78-4.7q.67 0 .67.85c0 .44-.14.96-.37 1.36q-.42.76-1.05.77c-.45 0-.72-.35-.72-.9 0-1.12.7-2.09 1.47-2.09m0 0"/>
    <path id="f" d="M6.83-.19c-.53-.04-.78-.25-1-.87L4.7-4c.92-.22 1.33-.37 1.75-.77q.62-.51.63-1.36c0-1.12-.9-1.73-2.5-1.73H1.59v.2c.5.07.57.08.7.16.08.06.15.2.15.34s-.06.44-.14.75L.8-1.08c-.2.7-.3.78-.97.9V0h2.94v-.19c-.75-.1-.81-.15-.81-.58 0-.1.01-.23.14-.67l.67-2.51.78.06L5.05 0h1.78ZM3.7-7.16c.08-.25.24-.34.61-.34q1.5 0 1.5 1.36 0 1.8-2.28 1.8c-.2 0-.31-.02-.6-.07Zm0 0"/>
    <path id="g" d="m7.84-5.6.46-2.38h-.27c-.1.18-.2.26-.45.26-.11 0-.24-.03-.49-.1a7 7 0 0 0-1.42-.2C3.11-8.02.8-5.6.8-2.92.8-1.08 2.1.22 3.94.22c1.23 0 2.2-.52 3.28-1.8l-.2-.17C5.94-.69 5.23-.33 4.25-.33c-1.34 0-2.1-.9-2.1-2.47 0-1.42.57-2.87 1.5-3.86.58-.59 1.35-.92 2.13-.92q1.66-.01 1.84 1.96Zm0 0"/>
    <path id="i" d="M4.84-7.86H1.56v.2c.77.07.92.16.92.52q0 .26-.12.73L.88-1.08c-.22.69-.3.77-.97.9V0h6.12l.69-2.16-.24-.06C6.06-1.36 5.73-.97 5.2-.7c-.42.2-.9.26-1.97.26-.9 0-1.2-.1-1.2-.4 0-.1.05-.35.13-.6l1.48-5.34c.17-.61.48-.83 1.2-.88Zm0 0"/>
    <path id="s" d="M4.84-1.33c-.1.1-.15.17-.26.31-.28.36-.42.49-.58.49q-.23 0-.36-.49l-.05-.2C3.3-2.44 3.17-3 3.17-3.17c.53-.94.96-1.45 1.17-1.45q.14 0 .29.09c.15.08.23.1.34.1.23 0 .4-.18.4-.43 0-.26-.2-.45-.48-.45-.53 0-.98.43-1.83 1.73l-.12-.67c-.17-.81-.3-1.06-.63-1.06-.28 0-.67.1-1.4.36-.08.01-.08.01-.14.04l.04.18c.47-.11.56-.13.67-.13.32 0 .38.11.55.83l.35 1.48-.99 1.4Q1-.57.8-.55a1 1 0 0 1-.32-.11 1 1 0 0 0-.4-.13.4.4 0 0 0-.4.43c0 .3.24.5.61.5C.66.13.8.02 1.4-.7c.33-.4.6-.75 1.1-1.42l.35 1.45c.16.62.32.8.7.8C4 .13 4.3-.16 5-1.24Zm0 0"/>
    <path id="b" d="M4.02-1.3q-.8.75-1.41 1.1-.6.34-1.14.34Q.84.14.45-.34a2 2 0 0 1-.37-1.32q0-1.23.53-2.95a19 19 0 0 1 1.3-3.2l1.48-.55.11-.03q.16 0 .28.25.1.26.11.69 0 1.19-.56 2.3Q2.78-4 1.6-2.74l-.05.84q0 .52.19.82t.5.3q.3 0 .67-.23.36-.23 1.1-.95ZM1.77-3.6q.75-.82 1.2-1.85.47-1.04.47-1.77a1 1 0 0 0-.06-.34q-.07-.14-.16-.14-.22 0-.64 1.08a21 21 0 0 0-.81 3.03m0 0"/>
    <path id="d" d="M8.77-3.97a4 4 0 0 1-1.22 2.94A4 4 0 0 1 4.6.19a4 4 0 0 1-2.94-1.22A4 4 0 0 1 .45-3.97q0-1.73 1.22-2.94a4 4 0 0 1 2.94-1.21 4 4 0 0 1 2.94 1.21q1.21 1.2 1.22 2.94m-.57 0q0-1.47-1.06-2.51a3.4 3.4 0 0 0-2.53-1.07q-1.5 0-2.55 1.07-1.04 1.05-1.04 2.51 0 1.5 1.04 2.55Q3.12-.37 4.61-.37t2.53-1.05T8.2-3.97M2.63-6.34l1.96 1.98 2-2 .41.4-2 2 2 2-.4.38-2-1.98-1.97 1.98-.41-.4L4.2-3.97 2.22-5.94Zm0 0"/>
    <path id="e" d="M-.1 0h3.4c1.87 0 3.17-.97 3.17-2.4 0-.88-.36-1.32-1.5-1.82.84-.2 1.19-.34 1.58-.67q.51-.45.51-1.19c0-1.14-.84-1.76-2.4-1.76h-3.1v.2c.75.06.92.14.92.48 0 .2-.04.49-.12.77L.88-1.08c-.22.69-.3.77-.97.9Zm2.96-3.97q1.15 0 1.53.14c.49.2.78.72.78 1.38 0 1.3-.87 2.1-2.34 2.1q-.78-.01-.78-.5 0-.26.42-1.7c.15-.51.26-.87.39-1.42m.9-3.17c.07-.27.22-.33.7-.33q1.42-.02 1.4 1.28c0 .69-.3 1.24-.81 1.52-.4.23-1 .33-2.07.31Zm0 0"/>
    <path id="t" d="M3.06-8.14c-.67 0-1.17.2-1.62.64C.75-6.83.28-5.45.28-4.05c0 1.33.4 2.72.97 3.4q.69.8 1.77.82.9 0 1.56-.62c.69-.67 1.15-2.07 1.15-3.52 0-2.47-1.1-4.17-2.67-4.17m-.04.31c1.01 0 1.56 1.38 1.56 3.88q0 3.78-1.56 3.8c-1.05 0-1.58-1.29-1.58-3.79 0-2.56.54-3.89 1.58-3.89m0 0"/>
    <path id="u" d="M.4-4.17H.15l.36-1 .14-.42q.2-.05.34-.07l.3-.03q.22 0 .63.07.5.09.72.09.24 0 .65-.13l.1.14A9 9 0 0 0 2.1-3.47a5 5 0 0 0-.34 1.72q0 .63.25.95.27.32.66.32.91 0 1.59-1.2.67-1.2.67-2.46 0-.4-.14-.56a.4.4 0 0 0-.36-.17q-.15 0-.34.09l-.14-.2q.39-.35.67-.68l.3-.03q.33 0 .56.3.24.28.23.83 0 1-.64 2.22Q4.44-1.14 3.5-.4q-.7.55-1.3.55t-.97-.41Q.88-.68.88-1.48q0-.84.43-1.72.28-.52 1.36-1.82A4 4 0 0 1 1.34-5l-.23.03-.28.06q-.18.27-.42.74m0 0"/>
    <clipPath id="h">
      <path d="M400 80h2.68v109H400Zm0 0"/>
    </clipPath>
  </defs>
  <text x="72.02" y="209.18" font-family="Times New Roman" font-size="12" font-weight="bold">Фиг</text>
  <text x="94.69" y="209.18" font-family="Times New Roman" font-size="12" font-weight="bold">. 2</text>
  <path d="M150.41 79.98V187.8h-.6V79.98Zm-1.2 0V187.8h-.6V79.98Zm43.15 0V187.8h-.6V79.98Zm-1.2 0V187.8h-.6V79.98Zm0 0"/>
  <path fill="none" stroke="#404040" stroke-linejoin="round" stroke-miterlimit="10" stroke-width="1.2" d="M42.6 93.6h42" transform="matrix(.99867 0 0 -.99837 106.67 209.08)"/>
  <use xlink:href="#a" x="168.51" y="112.85"/>
  <path d="M150.08 181.52h40.81v.6h-40.81Zm3.83 3.05-4.4-2.75 4.4-2.76a.3.3 0 0 1 .32.51l-4 2.5v-.5l4 2.49a.3.3 0 0 1 .1.41.3.3 0 0 1-.42.1m33.14-5.5 4.4 2.75-4.4 2.75a.3.3 0 0 1-.4-.1.3.3 0 0 1 .08-.41l4-2.5v.51l-4-2.5a.3.3 0 0 1-.09-.41.3.3 0 0 1 .41-.1m0 0"/>
  <use xlink:href="#b" x="168.51" y="181.19"/>
  <path d="M125.84 79.98v19.96h-.6v-19.96Zm-.3 19.96 3-2-3 6-3-6Zm0 0"/>
  <use xlink:href="#c" x="114.48" y="94.81"/>
  <use xlink:href="#d" x="162.52" y="154.93"/>
  <use xlink:href="#e" x="173.91" y="154.93"/>
  <path fill="none" stroke="#000" stroke-linejoin="round" stroke-miterlimit="10" stroke-width=".6" d="M84.9 129.3h-42" transform="matrix(.99867 0 0 -.99837 106.67 209.08)"/>
  <path fill="#fff" fill-rule="evenodd" stroke="#000" stroke-linejoin="round" stroke-miterlimit="10" stroke-width=".6" d="M50.7 126.3h28.8v6H50.7Zm0 0" transform="matrix(.99867 0 0 -.99837 106.67 209.08)"/>
  <use xlink:href="#f" x="168.51" y="72.77"/>
  <path d="M255.27 80.59V188.4h-.6V80.59Zm-1.2 0V188.4h-.6V80.59Zm43.14 0V188.4h-.6V80.59Zm-1.2 0V188.4h-.6V80.59Zm0 0"/>
  <path fill="none" stroke="#404040" stroke-linejoin="round" stroke-miterlimit="10" stroke-width="1.2" d="M147.6 93h42" transform="matrix(.99867 0 0 -.99837 106.67 209.08)"/>
  <use xlink:href="#g" x="270.58" y="72.17"/>
  <path fill="none" stroke="#000" stroke-linejoin="round" stroke-miterlimit="10" stroke-width=".6" d="M189.3 128.7h-42" transform="matrix(.99867 0 0 -.99837 106.67 209.08)"/>
  <path fill="#fff" fill-rule="evenodd" d="M272.65 85.68h3.6v-10.79h-3.6Zm0 0"/>
  <path fill="none" stroke="#000" stroke-linejoin="round" stroke-miterlimit="10" stroke-width=".6" d="M166.5 134.1v-10.8m3 10.8v-10.8" transform="matrix(.99867 0 0 -.99837 106.67 209.08)"/>
  <path d="M360.13 80.59V188.4h-.6V80.59Zm-1.2 0V188.4h-.6V80.59Zm0 0"/>
  <g clip-path="url(#h)">
    <path d="M402.07 80.59V188.4h-.6V80.59Zm-1.2 0V188.4h-.6V80.59Zm0 0"/>
  </g>
  <path fill="none" stroke="#404040" stroke-linejoin="round" stroke-miterlimit="10" stroke-width="1.2" d="M252.6 93h42" transform="matrix(.99867 0 0 -.99837 106.67 209.08)"/>
  <use xlink:href="#i" x="377.46" y="72.17"/>
  <path fill="none" stroke="#000" stroke-linejoin="round" stroke-miterlimit="10" stroke-width=".6" d="M294.3 128.1h-42" transform="matrix(.99867 0 0 -.99837 106.67 209.08)"/>
  <path fill="#fff" fill-rule="evenodd" d="M368.82 81.81c-.01-2.97.66-5.4 1.49-5.42s1.5 2.38 1.5 5.35v.04h-1.49Zm0 0"/>
  <path fill="none" stroke="#000" stroke-linejoin="round" stroke-miterlimit="10" stroke-width=".6" d="M262.5 127.47c-.01 2.98.66 5.41 1.49 5.43s1.5-2.38 1.51-5.36v-.04" transform="matrix(.99867 0 0 -.99837 106.67 209.08)"/>
  <path fill="#fff" fill-rule="evenodd" d="M372.41 81.82c0-2.97.8-5.41 1.8-5.43.98-.03 1.79 2.37 1.8 5.34v.05h-1.8Zm0 0"/>
  <path fill="none" stroke="#000" stroke-linejoin="round" stroke-miterlimit="10" stroke-width=".6" d="M266.1 127.46c0 2.98.79 5.42 1.79 5.44.99.03 1.8-2.37 1.81-5.35v-.05" transform="matrix(.99867 0 0 -.99837 106.67 209.08)"/>
  <path fill="#fff" fill-rule="evenodd" d="M376.01 81.82c-.01-2.97.8-5.41 1.79-5.43.99-.03 1.8 2.37 1.8 5.34v.05h-1.8Zm0 0"/>
  <path fill="none" stroke="#000" stroke-linejoin="round" stroke-miterlimit="10" stroke-width=".6" d="M269.7 127.46c-.01 2.98.8 5.42 1.79 5.44 1 .03 1.8-2.37 1.8-5.35v-.05" transform="matrix(.99867 0 0 -.99837 106.67 209.08)"/>
  <path fill="#fff" fill-rule="evenodd" d="M379.6 81.82c0-2.97.8-5.41 1.8-5.43.98-.03 1.8 2.37 1.8 5.34v.05h-1.8Zm0 0"/>
  <path fill="none" stroke="#000" stroke-linejoin="round" stroke-miterlimit="10" stroke-width=".6" d="M273.3 127.46c0 2.98.79 5.42 1.8 5.44.98.03 1.79-2.37 1.8-5.35v-.05" transform="matrix(.99867 0 0 -.99837 106.67 209.08)"/>
  <path fill="#fff" fill-rule="evenodd" d="M383.8 81.81c-.01-2.97.66-5.4 1.49-5.42s1.5 2.38 1.5 5.35v.04h-1.5Zm0 0"/>
  <path fill="none" stroke="#000" stroke-linejoin="round" stroke-miterlimit="10" stroke-width=".6" d="M277.5 127.47c-.01 2.98.66 5.41 1.5 5.43.82.02 1.49-2.38 1.5-5.36v-.04" transform="matrix(.99867 0 0 -.99837 106.67 209.08)"/>
  <path fill="#fff" fill-rule="evenodd" d="M387.4 81.82c-.01-2.97.78-5.41 1.78-5.43 1-.03 1.8 2.37 1.81 5.34v.05h-1.8Zm0 0"/>
  <path fill="none" stroke="#000" stroke-linejoin="round" stroke-miterlimit="10" stroke-width=".6" d="M281.1 127.46c0 2.98.79 5.42 1.79 5.44.99.03 1.8-2.37 1.81-5.35v-.05" transform="matrix(.99867 0 0 -.99837 106.67 209.08)"/>
  <text x="163.72" y="201.86" font-family="Times New Roman" font-size="12">(а)</text>
  <text x="267.59" y="201.86" font-family="Times New Roman" font-size="12">(б)</text>
  <text x="373.26" y="201.86" font-family="Times New Roman" font-size="12">(в)</text>
  <path d="M144.42 79.98v118.2h-.6v-118.2Zm-.3 118.2 3-2-3 6-3-6Zm0 0"/>
  <use xlink:href="#s" x="133.68" y="198.84"/>
  <path fill="none" stroke="#000" stroke-linejoin="round" stroke-miterlimit="10" stroke-width=".6" d="M34.5 128.7h3" transform="matrix(.99867 0 0 -.99837 106.67 209.08)"/>
  <use xlink:href="#t" x="132.74" y="84.83"/>
  <path d="M171.98 116.52v19.96h-.6v-19.96Zm-.3 19.96 3-2-3 6-3-6Zm0 0"/>
  <use xlink:href="#u" x="176.43" y="137.99"/>
</svg>
